ISO-10303-21;
HEADER;
FILE_DESCRIPTION(('FreeCAD Model'),'2;1');
FILE_NAME('Open CASCADE Shape Model','2026-08-28T13:04:06',('FreeCAD'),(
    'FreeCAD'),'Open CASCADE STEP processor 7.8','FreeCAD','Unknown');
FILE_SCHEMA(('AUTOMOTIVE_DESIGN { 1 0 10303 214 1 1 1 1 }'));
ENDSEC;
DATA;
#1 = APPLICATION_PROTOCOL_DEFINITION('international standard',
  'automotive_design',2000,#2);
#2 = APPLICATION_CONTEXT(
  'core data for automotive mechanical design processes');
#3 = SHAPE_DEFINITION_REPRESENTATION(#4,#10);
#4 = PRODUCT_DEFINITION_SHAPE('','',#5);
#5 = PRODUCT_DEFINITION('design','',#6,#9);
#6 = PRODUCT_DEFINITION_FORMATION('','',#7);
#7 = PRODUCT('Open CASCADE STEP translator 7.8 80',
  'Open CASCADE STEP translator 7.8 80','',(#8));
#8 = PRODUCT_CONTEXT('',#2,'mechanical');
#9 = PRODUCT_DEFINITION_CONTEXT('part definition',#2,'design');
#10 = ADVANCED_BREP_SHAPE_REPRESENTATION('',(#11,#15),#654);
#11 = AXIS2_PLACEMENT_3D('',#12,#13,#14);
#12 = CARTESIAN_POINT('',(0.,0.,0.));
#13 = DIRECTION('',(0.,0.,1.));
#14 = DIRECTION('',(1.,0.,-0.));
#15 = MANIFOLD_SOLID_BREP('',#16);
#16 = CLOSED_SHELL('',(#17,#65,#144,#169,#200,#271,#295,#348,#365,#388,
    #405,#417,#451,#485,#510,#555,#573,#591,#608,#625,#637));
#17 = ADVANCED_FACE('',(#18),#60,.F.);
#18 = FACE_BOUND('',#19,.F.);
#19 = EDGE_LOOP('',(#20,#30,#38,#46,#54));
#20 = ORIENTED_EDGE('',*,*,#21,.F.);
#21 = EDGE_CURVE('',#22,#24,#26,.T.);
#22 = VERTEX_POINT('',#23);
#23 = CARTESIAN_POINT('',(-78.2353518,51.04812726071,-4.));
#24 = VERTEX_POINT('',#25);
#25 = CARTESIAN_POINT('',(-78.2353518,38.04812726071,-4.));
#26 = LINE('',#27,#28);
#27 = CARTESIAN_POINT('',(-78.2353518,55.04812726071,-4.));
#28 = VECTOR('',#29,1.);
#29 = DIRECTION('',(0.,-1.,0.));
#30 = ORIENTED_EDGE('',*,*,#31,.F.);
#31 = EDGE_CURVE('',#32,#22,#34,.T.);
#32 = VERTEX_POINT('',#33);
#33 = CARTESIAN_POINT('',(-78.2353518,55.04812726071,-4.));
#34 = LINE('',#35,#36);
#35 = CARTESIAN_POINT('',(-78.2353518,55.04812726071,-4.));
#36 = VECTOR('',#37,1.);
#37 = DIRECTION('',(0.,-1.,0.));
#38 = ORIENTED_EDGE('',*,*,#39,.T.);
#39 = EDGE_CURVE('',#32,#40,#42,.T.);
#40 = VERTEX_POINT('',#41);
#41 = CARTESIAN_POINT('',(-78.2353518,55.04812726071,0.));
#42 = LINE('',#43,#44);
#43 = CARTESIAN_POINT('',(-78.2353518,55.04812726071,-4.));
#44 = VECTOR('',#45,1.);
#45 = DIRECTION('',(0.,0.,1.));
#46 = ORIENTED_EDGE('',*,*,#47,.T.);
#47 = EDGE_CURVE('',#40,#48,#50,.T.);
#48 = VERTEX_POINT('',#49);
#49 = CARTESIAN_POINT('',(-78.2353518,38.04812726071,0.));
#50 = LINE('',#51,#52);
#51 = CARTESIAN_POINT('',(-78.2353518,55.04812726071,0.));
#52 = VECTOR('',#53,1.);
#53 = DIRECTION('',(0.,-1.,0.));
#54 = ORIENTED_EDGE('',*,*,#55,.F.);
#55 = EDGE_CURVE('',#24,#48,#56,.T.);
#56 = LINE('',#57,#58);
#57 = CARTESIAN_POINT('',(-78.2353518,38.04812726071,-4.));
#58 = VECTOR('',#59,1.);
#59 = DIRECTION('',(0.,0.,1.));
#60 = PLANE('',#61);
#61 = AXIS2_PLACEMENT_3D('',#62,#63,#64);
#62 = CARTESIAN_POINT('',(-78.2353518,55.04812726071,-4.));
#63 = DIRECTION('',(1.,0.,0.));
#64 = DIRECTION('',(0.,-1.,0.));
#65 = ADVANCED_FACE('',(#66,#117,#128),#139,.F.);
#66 = FACE_BOUND('',#67,.F.);
#67 = EDGE_LOOP('',(#68,#69,#78,#86,#95,#103,#111));
#68 = ORIENTED_EDGE('',*,*,#21,.T.);
#69 = ORIENTED_EDGE('',*,*,#70,.T.);
#70 = EDGE_CURVE('',#24,#71,#73,.T.);
#71 = VERTEX_POINT('',#72);
#72 = CARTESIAN_POINT('',(-77.2353518,37.04812726071,-4.));
#73 = CIRCLE('',#74,1.);
#74 = AXIS2_PLACEMENT_3D('',#75,#76,#77);
#75 = CARTESIAN_POINT('',(-77.2353518,38.04812726071,-4.));
#76 = DIRECTION('',(-0.,0.,1.));
#77 = DIRECTION('',(0.,-1.,0.));
#78 = ORIENTED_EDGE('',*,*,#79,.T.);
#79 = EDGE_CURVE('',#71,#80,#82,.T.);
#80 = VERTEX_POINT('',#81);
#81 = CARTESIAN_POINT('',(-71.2353518,37.04812726071,-4.));
#82 = LINE('',#83,#84);
#83 = CARTESIAN_POINT('',(-78.2353518,37.04812726071,-4.));
#84 = VECTOR('',#85,1.);
#85 = DIRECTION('',(1.,0.,0.));
#86 = ORIENTED_EDGE('',*,*,#87,.T.);
#87 = EDGE_CURVE('',#80,#88,#90,.T.);
#88 = VERTEX_POINT('',#89);
#89 = CARTESIAN_POINT('',(-70.2353518,38.04812726071,-4.));
#90 = CIRCLE('',#91,1.);
#91 = AXIS2_PLACEMENT_3D('',#92,#93,#94);
#92 = CARTESIAN_POINT('',(-71.2353518,38.04812726071,-4.));
#93 = DIRECTION('',(-0.,0.,1.));
#94 = DIRECTION('',(0.,-1.,0.));
#95 = ORIENTED_EDGE('',*,*,#96,.T.);
#96 = EDGE_CURVE('',#88,#97,#99,.T.);
#97 = VERTEX_POINT('',#98);
#98 = CARTESIAN_POINT('',(-70.2353518,47.04812726071,-4.));
#99 = LINE('',#100,#101);
#100 = CARTESIAN_POINT('',(-70.2353518,37.04812726071,-4.));
#101 = VECTOR('',#102,1.);
#102 = DIRECTION('',(0.,1.,0.));
#103 = ORIENTED_EDGE('',*,*,#104,.T.);
#104 = EDGE_CURVE('',#97,#105,#107,.T.);
#105 = VERTEX_POINT('',#106);
#106 = CARTESIAN_POINT('',(-70.2353518,51.04812726071,-4.));
#107 = LINE('',#108,#109);
#108 = CARTESIAN_POINT('',(-70.2353518,47.04812726071,-4.));
#109 = VECTOR('',#110,1.);
#110 = DIRECTION('',(0.,1.,0.));
#111 = ORIENTED_EDGE('',*,*,#112,.T.);
#112 = EDGE_CURVE('',#105,#22,#113,.T.);
#113 = LINE('',#114,#115);
#114 = CARTESIAN_POINT('',(-70.2353518,51.04812726071,-4.));
#115 = VECTOR('',#116,1.);
#116 = DIRECTION('',(-1.,0.,0.));
#117 = FACE_BOUND('',#118,.F.);
#118 = EDGE_LOOP('',(#119));
#119 = ORIENTED_EDGE('',*,*,#120,.T.);
#120 = EDGE_CURVE('',#121,#121,#123,.T.);
#121 = VERTEX_POINT('',#122);
#122 = CARTESIAN_POINT('',(-77.21620819999,41.04812726071,-4.));
#123 = CIRCLE('',#124,2.95);
#124 = AXIS2_PLACEMENT_3D('',#125,#126,#127);
#125 = CARTESIAN_POINT('',(-74.26620819999,41.04812726071,-4.));
#126 = DIRECTION('',(0.,0.,-1.));
#127 = DIRECTION('',(-1.,0.,0.));
#128 = FACE_BOUND('',#129,.F.);
#129 = EDGE_LOOP('',(#130));
#130 = ORIENTED_EDGE('',*,*,#131,.T.);
#131 = EDGE_CURVE('',#132,#132,#134,.T.);
#132 = VERTEX_POINT('',#133);
#133 = CARTESIAN_POINT('',(-77.21620819999,47.04812726071,-4.));
#134 = CIRCLE('',#135,2.95);
#135 = AXIS2_PLACEMENT_3D('',#136,#137,#138);
#136 = CARTESIAN_POINT('',(-74.26620819999,47.04812726071,-4.));
#137 = DIRECTION('',(0.,0.,-1.));
#138 = DIRECTION('',(-1.,0.,0.));
#139 = PLANE('',#140);
#140 = AXIS2_PLACEMENT_3D('',#141,#142,#143);
#141 = CARTESIAN_POINT('',(-74.24334722196,45.529892990462,-4.));
#142 = DIRECTION('',(0.,0.,1.));
#143 = DIRECTION('',(1.,0.,0.));
#144 = ADVANCED_FACE('',(#145),#164,.T.);
#145 = FACE_BOUND('',#146,.T.);
#146 = EDGE_LOOP('',(#147,#148,#156,#163));
#147 = ORIENTED_EDGE('',*,*,#70,.T.);
#148 = ORIENTED_EDGE('',*,*,#149,.T.);
#149 = EDGE_CURVE('',#71,#150,#152,.T.);
#150 = VERTEX_POINT('',#151);
#151 = CARTESIAN_POINT('',(-77.2353518,37.04812726071,0.));
#152 = LINE('',#153,#154);
#153 = CARTESIAN_POINT('',(-77.2353518,37.04812726071,-4.));
#154 = VECTOR('',#155,1.);
#155 = DIRECTION('',(0.,0.,1.));
#156 = ORIENTED_EDGE('',*,*,#157,.F.);
#157 = EDGE_CURVE('',#48,#150,#158,.T.);
#158 = CIRCLE('',#159,1.);
#159 = AXIS2_PLACEMENT_3D('',#160,#161,#162);
#160 = CARTESIAN_POINT('',(-77.2353518,38.04812726071,0.));
#161 = DIRECTION('',(-0.,0.,1.));
#162 = DIRECTION('',(0.,-1.,0.));
#163 = ORIENTED_EDGE('',*,*,#55,.F.);
#164 = CYLINDRICAL_SURFACE('',#165,1.);
#165 = AXIS2_PLACEMENT_3D('',#166,#167,#168);
#166 = CARTESIAN_POINT('',(-77.2353518,38.04812726071,-4.));
#167 = DIRECTION('',(0.,0.,1.));
#168 = DIRECTION('',(-1.,0.,0.));
#169 = ADVANCED_FACE('',(#170),#195,.F.);
#170 = FACE_BOUND('',#171,.F.);
#171 = EDGE_LOOP('',(#172,#180,#188,#194));
#172 = ORIENTED_EDGE('',*,*,#173,.T.);
#173 = EDGE_CURVE('',#22,#174,#176,.T.);
#174 = VERTEX_POINT('',#175);
#175 = CARTESIAN_POINT('',(-78.2353518,51.04812726071,-11.));
#176 = LINE('',#177,#178);
#177 = CARTESIAN_POINT('',(-78.2353518,51.04812726071,-4.));
#178 = VECTOR('',#179,1.);
#179 = DIRECTION('',(0.,0.,-1.));
#180 = ORIENTED_EDGE('',*,*,#181,.T.);
#181 = EDGE_CURVE('',#174,#182,#184,.T.);
#182 = VERTEX_POINT('',#183);
#183 = CARTESIAN_POINT('',(-78.2353518,55.04812726071,-11.));
#184 = LINE('',#185,#186);
#185 = CARTESIAN_POINT('',(-78.2353518,51.04812726071,-11.));
#186 = VECTOR('',#187,1.);
#187 = DIRECTION('',(0.,1.,0.));
#188 = ORIENTED_EDGE('',*,*,#189,.F.);
#189 = EDGE_CURVE('',#32,#182,#190,.T.);
#190 = LINE('',#191,#192);
#191 = CARTESIAN_POINT('',(-78.2353518,55.04812726071,-4.));
#192 = VECTOR('',#193,1.);
#193 = DIRECTION('',(0.,0.,-1.));
#194 = ORIENTED_EDGE('',*,*,#31,.T.);
#195 = PLANE('',#196);
#196 = AXIS2_PLACEMENT_3D('',#197,#198,#199);
#197 = CARTESIAN_POINT('',(-78.2353518,51.04812726071,-4.));
#198 = DIRECTION('',(1.,0.,0.));
#199 = DIRECTION('',(0.,1.,0.));
#200 = ADVANCED_FACE('',(#201,#244,#255),#266,.T.);
#201 = FACE_BOUND('',#202,.T.);
#202 = EDGE_LOOP('',(#203,#204,#205,#213,#222,#230,#238));
#203 = ORIENTED_EDGE('',*,*,#47,.T.);
#204 = ORIENTED_EDGE('',*,*,#157,.T.);
#205 = ORIENTED_EDGE('',*,*,#206,.T.);
#206 = EDGE_CURVE('',#150,#207,#209,.T.);
#207 = VERTEX_POINT('',#208);
#208 = CARTESIAN_POINT('',(-71.2353518,37.04812726071,0.));
#209 = LINE('',#210,#211);
#210 = CARTESIAN_POINT('',(-78.2353518,37.04812726071,0.));
#211 = VECTOR('',#212,1.);
#212 = DIRECTION('',(1.,0.,0.));
#213 = ORIENTED_EDGE('',*,*,#214,.T.);
#214 = EDGE_CURVE('',#207,#215,#217,.T.);
#215 = VERTEX_POINT('',#216);
#216 = CARTESIAN_POINT('',(-70.2353518,38.04812726071,0.));
#217 = CIRCLE('',#218,1.);
#218 = AXIS2_PLACEMENT_3D('',#219,#220,#221);
#219 = CARTESIAN_POINT('',(-71.2353518,38.04812726071,0.));
#220 = DIRECTION('',(-0.,0.,1.));
#221 = DIRECTION('',(0.,-1.,0.));
#222 = ORIENTED_EDGE('',*,*,#223,.T.);
#223 = EDGE_CURVE('',#215,#224,#226,.T.);
#224 = VERTEX_POINT('',#225);
#225 = CARTESIAN_POINT('',(-70.2353518,47.04812726071,0.));
#226 = LINE('',#227,#228);
#227 = CARTESIAN_POINT('',(-70.2353518,37.04812726071,0.));
#228 = VECTOR('',#229,1.);
#229 = DIRECTION('',(0.,1.,0.));
#230 = ORIENTED_EDGE('',*,*,#231,.T.);
#231 = EDGE_CURVE('',#224,#232,#234,.T.);
#232 = VERTEX_POINT('',#233);
#233 = CARTESIAN_POINT('',(-70.2353518,55.04812726071,0.));
#234 = LINE('',#235,#236);
#235 = CARTESIAN_POINT('',(-70.2353518,47.04812726071,0.));
#236 = VECTOR('',#237,1.);
#237 = DIRECTION('',(0.,1.,0.));
#238 = ORIENTED_EDGE('',*,*,#239,.T.);
#239 = EDGE_CURVE('',#232,#40,#240,.T.);
#240 = LINE('',#241,#242);
#241 = CARTESIAN_POINT('',(-70.2353518,55.04812726071,0.));
#242 = VECTOR('',#243,1.);
#243 = DIRECTION('',(-1.,0.,0.));
#244 = FACE_BOUND('',#245,.F.);
#245 = EDGE_LOOP('',(#246));
#246 = ORIENTED_EDGE('',*,*,#247,.T.);
#247 = EDGE_CURVE('',#248,#248,#250,.T.);
#248 = VERTEX_POINT('',#249);
#249 = CARTESIAN_POINT('',(-72.51620819999,47.04812726071,0.));
#250 = CIRCLE('',#251,1.75);
#251 = AXIS2_PLACEMENT_3D('',#252,#253,#254);
#252 = CARTESIAN_POINT('',(-74.26620819999,47.04812726071,0.));
#253 = DIRECTION('',(0.,0.,1.));
#254 = DIRECTION('',(1.,0.,0.));
#255 = FACE_BOUND('',#256,.F.);
#256 = EDGE_LOOP('',(#257));
#257 = ORIENTED_EDGE('',*,*,#258,.T.);
#258 = EDGE_CURVE('',#259,#259,#261,.T.);
#259 = VERTEX_POINT('',#260);
#260 = CARTESIAN_POINT('',(-72.51620819999,41.04812726071,0.));
#261 = CIRCLE('',#262,1.75);
#262 = AXIS2_PLACEMENT_3D('',#263,#264,#265);
#263 = CARTESIAN_POINT('',(-74.26620819999,41.04812726071,0.));
#264 = DIRECTION('',(0.,0.,1.));
#265 = DIRECTION('',(1.,0.,0.));
#266 = PLANE('',#267);
#267 = AXIS2_PLACEMENT_3D('',#268,#269,#270);
#268 = CARTESIAN_POINT('',(-74.24334722196,45.529892990462,0.));
#269 = DIRECTION('',(0.,0.,1.));
#270 = DIRECTION('',(1.,0.,0.));
#271 = ADVANCED_FACE('',(#272),#290,.F.);
#272 = FACE_BOUND('',#273,.F.);
#273 = EDGE_LOOP('',(#274,#282,#283,#284));
#274 = ORIENTED_EDGE('',*,*,#275,.T.);
#275 = EDGE_CURVE('',#276,#232,#278,.T.);
#276 = VERTEX_POINT('',#277);
#277 = CARTESIAN_POINT('',(-70.2353518,55.04812726071,-4.));
#278 = LINE('',#279,#280);
#279 = CARTESIAN_POINT('',(-70.2353518,55.04812726071,-4.));
#280 = VECTOR('',#281,1.);
#281 = DIRECTION('',(0.,0.,1.));
#282 = ORIENTED_EDGE('',*,*,#239,.T.);
#283 = ORIENTED_EDGE('',*,*,#39,.F.);
#284 = ORIENTED_EDGE('',*,*,#285,.F.);
#285 = EDGE_CURVE('',#276,#32,#286,.T.);
#286 = LINE('',#287,#288);
#287 = CARTESIAN_POINT('',(-70.2353518,55.04812726071,-4.));
#288 = VECTOR('',#289,1.);
#289 = DIRECTION('',(-1.,0.,0.));
#290 = PLANE('',#291);
#291 = AXIS2_PLACEMENT_3D('',#292,#293,#294);
#292 = CARTESIAN_POINT('',(-70.2353518,55.04812726071,-4.));
#293 = DIRECTION('',(0.,-1.,0.));
#294 = DIRECTION('',(-1.,0.,0.));
#295 = ADVANCED_FACE('',(#296,#332),#343,.F.);
#296 = FACE_BOUND('',#297,.F.);
#297 = EDGE_LOOP('',(#298,#306,#315,#323,#330,#331));
#298 = ORIENTED_EDGE('',*,*,#299,.T.);
#299 = EDGE_CURVE('',#105,#300,#302,.T.);
#300 = VERTEX_POINT('',#301);
#301 = CARTESIAN_POINT('',(-70.2353518,51.04812726071,-11.));
#302 = LINE('',#303,#304);
#303 = CARTESIAN_POINT('',(-70.2353518,51.04812726071,-4.));
#304 = VECTOR('',#305,1.);
#305 = DIRECTION('',(0.,0.,-1.));
#306 = ORIENTED_EDGE('',*,*,#307,.F.);
#307 = EDGE_CURVE('',#308,#300,#310,.T.);
#308 = VERTEX_POINT('',#309);
#309 = CARTESIAN_POINT('',(-71.2353518,51.04812726071,-12.));
#310 = CIRCLE('',#311,1.);
#311 = AXIS2_PLACEMENT_3D('',#312,#313,#314);
#312 = CARTESIAN_POINT('',(-71.2353518,51.04812726071,-11.));
#313 = DIRECTION('',(0.,-1.,0.));
#314 = DIRECTION('',(0.,0.,-1.));
#315 = ORIENTED_EDGE('',*,*,#316,.T.);
#316 = EDGE_CURVE('',#308,#317,#319,.T.);
#317 = VERTEX_POINT('',#318);
#318 = CARTESIAN_POINT('',(-77.2353518,51.04812726071,-12.));
#319 = LINE('',#320,#321);
#320 = CARTESIAN_POINT('',(-70.2353518,51.04812726071,-12.));
#321 = VECTOR('',#322,1.);
#322 = DIRECTION('',(-1.,0.,0.));
#323 = ORIENTED_EDGE('',*,*,#324,.F.);
#324 = EDGE_CURVE('',#174,#317,#325,.T.);
#325 = CIRCLE('',#326,1.);
#326 = AXIS2_PLACEMENT_3D('',#327,#328,#329);
#327 = CARTESIAN_POINT('',(-77.2353518,51.04812726071,-11.));
#328 = DIRECTION('',(0.,-1.,0.));
#329 = DIRECTION('',(0.,0.,1.));
#330 = ORIENTED_EDGE('',*,*,#173,.F.);
#331 = ORIENTED_EDGE('',*,*,#112,.F.);
#332 = FACE_BOUND('',#333,.F.);
#333 = EDGE_LOOP('',(#334));
#334 = ORIENTED_EDGE('',*,*,#335,.T.);
#335 = EDGE_CURVE('',#336,#336,#338,.T.);
#336 = VERTEX_POINT('',#337);
#337 = CARTESIAN_POINT('',(-72.667612,51.04812726071,-8.));
#338 = CIRCLE('',#339,1.6);
#339 = AXIS2_PLACEMENT_3D('',#340,#341,#342);
#340 = CARTESIAN_POINT('',(-74.267612,51.04812726071,-8.));
#341 = DIRECTION('',(0.,-1.,0.));
#342 = DIRECTION('',(1.,0.,0.));
#343 = PLANE('',#344);
#344 = AXIS2_PLACEMENT_3D('',#345,#346,#347);
#345 = CARTESIAN_POINT('',(-70.2353518,51.04812726071,-4.));
#346 = DIRECTION('',(0.,1.,0.));
#347 = DIRECTION('',(-1.,0.,0.));
#348 = ADVANCED_FACE('',(#349),#360,.F.);
#349 = FACE_BOUND('',#350,.F.);
#350 = EDGE_LOOP('',(#351,#352,#353,#354));
#351 = ORIENTED_EDGE('',*,*,#79,.F.);
#352 = ORIENTED_EDGE('',*,*,#149,.T.);
#353 = ORIENTED_EDGE('',*,*,#206,.T.);
#354 = ORIENTED_EDGE('',*,*,#355,.F.);
#355 = EDGE_CURVE('',#80,#207,#356,.T.);
#356 = LINE('',#357,#358);
#357 = CARTESIAN_POINT('',(-71.2353518,37.04812726071,-4.));
#358 = VECTOR('',#359,1.);
#359 = DIRECTION('',(0.,0.,1.));
#360 = PLANE('',#361);
#361 = AXIS2_PLACEMENT_3D('',#362,#363,#364);
#362 = CARTESIAN_POINT('',(-78.2353518,37.04812726071,-4.));
#363 = DIRECTION('',(0.,1.,0.));
#364 = DIRECTION('',(1.,0.,0.));
#365 = ADVANCED_FACE('',(#366),#383,.F.);
#366 = FACE_BOUND('',#367,.F.);
#367 = EDGE_LOOP('',(#368,#374,#375,#376,#382));
#368 = ORIENTED_EDGE('',*,*,#369,.T.);
#369 = EDGE_CURVE('',#97,#224,#370,.T.);
#370 = LINE('',#371,#372);
#371 = CARTESIAN_POINT('',(-70.2353518,47.04812726071,-4.));
#372 = VECTOR('',#373,1.);
#373 = DIRECTION('',(0.,0.,1.));
#374 = ORIENTED_EDGE('',*,*,#231,.T.);
#375 = ORIENTED_EDGE('',*,*,#275,.F.);
#376 = ORIENTED_EDGE('',*,*,#377,.F.);
#377 = EDGE_CURVE('',#105,#276,#378,.T.);
#378 = LINE('',#379,#380);
#379 = CARTESIAN_POINT('',(-70.2353518,47.04812726071,-4.));
#380 = VECTOR('',#381,1.);
#381 = DIRECTION('',(0.,1.,0.));
#382 = ORIENTED_EDGE('',*,*,#104,.F.);
#383 = PLANE('',#384);
#384 = AXIS2_PLACEMENT_3D('',#385,#386,#387);
#385 = CARTESIAN_POINT('',(-70.2353518,47.04812726071,-4.));
#386 = DIRECTION('',(-1.,0.,0.));
#387 = DIRECTION('',(0.,1.,0.));
#388 = ADVANCED_FACE('',(#389),#400,.T.);
#389 = FACE_BOUND('',#390,.T.);
#390 = EDGE_LOOP('',(#391,#392,#398,#399));
#391 = ORIENTED_EDGE('',*,*,#87,.T.);
#392 = ORIENTED_EDGE('',*,*,#393,.T.);
#393 = EDGE_CURVE('',#88,#215,#394,.T.);
#394 = LINE('',#395,#396);
#395 = CARTESIAN_POINT('',(-70.2353518,38.04812726071,-4.));
#396 = VECTOR('',#397,1.);
#397 = DIRECTION('',(0.,0.,1.));
#398 = ORIENTED_EDGE('',*,*,#214,.F.);
#399 = ORIENTED_EDGE('',*,*,#355,.F.);
#400 = CYLINDRICAL_SURFACE('',#401,1.);
#401 = AXIS2_PLACEMENT_3D('',#402,#403,#404);
#402 = CARTESIAN_POINT('',(-71.2353518,38.04812726071,-4.));
#403 = DIRECTION('',(0.,0.,1.));
#404 = DIRECTION('',(0.,-1.,0.));
#405 = ADVANCED_FACE('',(#406),#412,.F.);
#406 = FACE_BOUND('',#407,.F.);
#407 = EDGE_LOOP('',(#408,#409,#410,#411));
#408 = ORIENTED_EDGE('',*,*,#96,.F.);
#409 = ORIENTED_EDGE('',*,*,#393,.T.);
#410 = ORIENTED_EDGE('',*,*,#223,.T.);
#411 = ORIENTED_EDGE('',*,*,#369,.F.);
#412 = PLANE('',#413);
#413 = AXIS2_PLACEMENT_3D('',#414,#415,#416);
#414 = CARTESIAN_POINT('',(-70.2353518,37.04812726071,-4.));
#415 = DIRECTION('',(-1.,0.,0.));
#416 = DIRECTION('',(0.,1.,0.));
#417 = ADVANCED_FACE('',(#418),#446,.F.);
#418 = FACE_BOUND('',#419,.T.);
#419 = EDGE_LOOP('',(#420,#428,#429,#430,#439));
#420 = ORIENTED_EDGE('',*,*,#421,.F.);
#421 = EDGE_CURVE('',#121,#422,#424,.T.);
#422 = VERTEX_POINT('',#423);
#423 = CARTESIAN_POINT('',(-76.01620819999,41.04812726071,-2.8));
#424 = LINE('',#425,#426);
#425 = CARTESIAN_POINT('',(-77.21620819999,41.04812726071,-4.));
#426 = VECTOR('',#427,1.);
#427 = DIRECTION('',(0.707106781187,0.,0.707106781187));
#428 = ORIENTED_EDGE('',*,*,#120,.T.);
#429 = ORIENTED_EDGE('',*,*,#421,.T.);
#430 = ORIENTED_EDGE('',*,*,#431,.F.);
#431 = EDGE_CURVE('',#432,#422,#434,.T.);
#432 = VERTEX_POINT('',#433);
#433 = CARTESIAN_POINT('',(-72.51620819999,41.04812726071,-2.8));
#434 = CIRCLE('',#435,1.75);
#435 = AXIS2_PLACEMENT_3D('',#436,#437,#438);
#436 = CARTESIAN_POINT('',(-74.26620819999,41.04812726071,-2.8));
#437 = DIRECTION('',(0.,0.,-1.));
#438 = DIRECTION('',(0.,1.,0.));
#439 = ORIENTED_EDGE('',*,*,#440,.F.);
#440 = EDGE_CURVE('',#422,#432,#441,.T.);
#441 = CIRCLE('',#442,1.75);
#442 = AXIS2_PLACEMENT_3D('',#443,#444,#445);
#443 = CARTESIAN_POINT('',(-74.26620819999,41.04812726071,-2.8));
#444 = DIRECTION('',(0.,0.,-1.));
#445 = DIRECTION('',(0.,1.,0.));
#446 = CONICAL_SURFACE('',#447,2.95,0.785398163397);
#447 = AXIS2_PLACEMENT_3D('',#448,#449,#450);
#448 = CARTESIAN_POINT('',(-74.26620819999,41.04812726071,-4.));
#449 = DIRECTION('',(-0.,-0.,-1.));
#450 = DIRECTION('',(-1.,0.,0.));
#451 = ADVANCED_FACE('',(#452),#480,.F.);
#452 = FACE_BOUND('',#453,.T.);
#453 = EDGE_LOOP('',(#454,#462,#463,#464,#473));
#454 = ORIENTED_EDGE('',*,*,#455,.F.);
#455 = EDGE_CURVE('',#132,#456,#458,.T.);
#456 = VERTEX_POINT('',#457);
#457 = CARTESIAN_POINT('',(-76.01620819999,47.04812726071,-2.8));
#458 = LINE('',#459,#460);
#459 = CARTESIAN_POINT('',(-77.21620819999,47.04812726071,-4.));
#460 = VECTOR('',#461,1.);
#461 = DIRECTION('',(0.707106781187,0.,0.707106781187));
#462 = ORIENTED_EDGE('',*,*,#131,.T.);
#463 = ORIENTED_EDGE('',*,*,#455,.T.);
#464 = ORIENTED_EDGE('',*,*,#465,.F.);
#465 = EDGE_CURVE('',#466,#456,#468,.T.);
#466 = VERTEX_POINT('',#467);
#467 = CARTESIAN_POINT('',(-72.51620819999,47.04812726071,-2.8));
#468 = CIRCLE('',#469,1.75);
#469 = AXIS2_PLACEMENT_3D('',#470,#471,#472);
#470 = CARTESIAN_POINT('',(-74.26620819999,47.04812726071,-2.8));
#471 = DIRECTION('',(0.,0.,-1.));
#472 = DIRECTION('',(0.,1.,0.));
#473 = ORIENTED_EDGE('',*,*,#474,.F.);
#474 = EDGE_CURVE('',#456,#466,#475,.T.);
#475 = CIRCLE('',#476,1.75);
#476 = AXIS2_PLACEMENT_3D('',#477,#478,#479);
#477 = CARTESIAN_POINT('',(-74.26620819999,47.04812726071,-2.8));
#478 = DIRECTION('',(0.,0.,-1.));
#479 = DIRECTION('',(0.,1.,0.));
#480 = CONICAL_SURFACE('',#481,2.95,0.785398163397);
#481 = AXIS2_PLACEMENT_3D('',#482,#483,#484);
#482 = CARTESIAN_POINT('',(-74.26620819999,47.04812726071,-4.));
#483 = DIRECTION('',(-0.,-0.,-1.));
#484 = DIRECTION('',(-1.,0.,0.));
#485 = ADVANCED_FACE('',(#486),#505,.T.);
#486 = FACE_BOUND('',#487,.F.);
#487 = EDGE_LOOP('',(#488,#489,#497,#504));
#488 = ORIENTED_EDGE('',*,*,#324,.T.);
#489 = ORIENTED_EDGE('',*,*,#490,.T.);
#490 = EDGE_CURVE('',#317,#491,#493,.T.);
#491 = VERTEX_POINT('',#492);
#492 = CARTESIAN_POINT('',(-77.2353518,55.04812726071,-12.));
#493 = LINE('',#494,#495);
#494 = CARTESIAN_POINT('',(-77.2353518,51.04812726071,-12.));
#495 = VECTOR('',#496,1.);
#496 = DIRECTION('',(0.,1.,0.));
#497 = ORIENTED_EDGE('',*,*,#498,.F.);
#498 = EDGE_CURVE('',#182,#491,#499,.T.);
#499 = CIRCLE('',#500,1.);
#500 = AXIS2_PLACEMENT_3D('',#501,#502,#503);
#501 = CARTESIAN_POINT('',(-77.2353518,55.04812726071,-11.));
#502 = DIRECTION('',(0.,-1.,0.));
#503 = DIRECTION('',(0.,0.,1.));
#504 = ORIENTED_EDGE('',*,*,#181,.F.);
#505 = CYLINDRICAL_SURFACE('',#506,1.);
#506 = AXIS2_PLACEMENT_3D('',#507,#508,#509);
#507 = CARTESIAN_POINT('',(-77.2353518,51.04812726071,-11.));
#508 = DIRECTION('',(0.,1.,0.));
#509 = DIRECTION('',(-1.,0.,0.));
#510 = ADVANCED_FACE('',(#511,#539),#550,.F.);
#511 = FACE_BOUND('',#512,.F.);
#512 = EDGE_LOOP('',(#513,#514,#515,#523,#532,#538));
#513 = ORIENTED_EDGE('',*,*,#189,.T.);
#514 = ORIENTED_EDGE('',*,*,#498,.T.);
#515 = ORIENTED_EDGE('',*,*,#516,.T.);
#516 = EDGE_CURVE('',#491,#517,#519,.T.);
#517 = VERTEX_POINT('',#518);
#518 = CARTESIAN_POINT('',(-71.2353518,55.04812726071,-12.));
#519 = LINE('',#520,#521);
#520 = CARTESIAN_POINT('',(-78.2353518,55.04812726071,-12.));
#521 = VECTOR('',#522,1.);
#522 = DIRECTION('',(1.,0.,0.));
#523 = ORIENTED_EDGE('',*,*,#524,.T.);
#524 = EDGE_CURVE('',#517,#525,#527,.T.);
#525 = VERTEX_POINT('',#526);
#526 = CARTESIAN_POINT('',(-70.2353518,55.04812726071,-11.));
#527 = CIRCLE('',#528,1.);
#528 = AXIS2_PLACEMENT_3D('',#529,#530,#531);
#529 = CARTESIAN_POINT('',(-71.2353518,55.04812726071,-11.));
#530 = DIRECTION('',(0.,-1.,0.));
#531 = DIRECTION('',(0.,0.,-1.));
#532 = ORIENTED_EDGE('',*,*,#533,.F.);
#533 = EDGE_CURVE('',#276,#525,#534,.T.);
#534 = LINE('',#535,#536);
#535 = CARTESIAN_POINT('',(-70.2353518,55.04812726071,-4.));
#536 = VECTOR('',#537,1.);
#537 = DIRECTION('',(0.,0.,-1.));
#538 = ORIENTED_EDGE('',*,*,#285,.T.);
#539 = FACE_BOUND('',#540,.F.);
#540 = EDGE_LOOP('',(#541));
#541 = ORIENTED_EDGE('',*,*,#542,.F.);
#542 = EDGE_CURVE('',#543,#543,#545,.T.);
#543 = VERTEX_POINT('',#544);
#544 = CARTESIAN_POINT('',(-72.667612,55.04812726071,-8.));
#545 = CIRCLE('',#546,1.6);
#546 = AXIS2_PLACEMENT_3D('',#547,#548,#549);
#547 = CARTESIAN_POINT('',(-74.267612,55.04812726071,-8.));
#548 = DIRECTION('',(0.,-1.,2.2E-16));
#549 = DIRECTION('',(1.,0.,0.));
#550 = PLANE('',#551);
#551 = AXIS2_PLACEMENT_3D('',#552,#553,#554);
#552 = CARTESIAN_POINT('',(-78.2353518,55.04812726071,-4.));
#553 = DIRECTION('',(0.,-1.,0.));
#554 = DIRECTION('',(1.,0.,0.));
#555 = ADVANCED_FACE('',(#556),#568,.F.);
#556 = FACE_BOUND('',#557,.T.);
#557 = EDGE_LOOP('',(#558,#559,#565,#566,#567));
#558 = ORIENTED_EDGE('',*,*,#474,.T.);
#559 = ORIENTED_EDGE('',*,*,#560,.T.);
#560 = EDGE_CURVE('',#466,#248,#561,.T.);
#561 = LINE('',#562,#563);
#562 = CARTESIAN_POINT('',(-72.51620819999,47.04812726071,-4.));
#563 = VECTOR('',#564,1.);
#564 = DIRECTION('',(0.,0.,1.));
#565 = ORIENTED_EDGE('',*,*,#247,.T.);
#566 = ORIENTED_EDGE('',*,*,#560,.F.);
#567 = ORIENTED_EDGE('',*,*,#465,.T.);
#568 = CYLINDRICAL_SURFACE('',#569,1.75);
#569 = AXIS2_PLACEMENT_3D('',#570,#571,#572);
#570 = CARTESIAN_POINT('',(-74.26620819999,47.04812726071,-4.));
#571 = DIRECTION('',(-0.,-0.,-1.));
#572 = DIRECTION('',(1.,0.,0.));
#573 = ADVANCED_FACE('',(#574),#586,.F.);
#574 = FACE_BOUND('',#575,.T.);
#575 = EDGE_LOOP('',(#576,#577,#583,#584,#585));
#576 = ORIENTED_EDGE('',*,*,#440,.T.);
#577 = ORIENTED_EDGE('',*,*,#578,.T.);
#578 = EDGE_CURVE('',#432,#259,#579,.T.);
#579 = LINE('',#580,#581);
#580 = CARTESIAN_POINT('',(-72.51620819999,41.04812726071,-4.));
#581 = VECTOR('',#582,1.);
#582 = DIRECTION('',(0.,0.,1.));
#583 = ORIENTED_EDGE('',*,*,#258,.T.);
#584 = ORIENTED_EDGE('',*,*,#578,.F.);
#585 = ORIENTED_EDGE('',*,*,#431,.T.);
#586 = CYLINDRICAL_SURFACE('',#587,1.75);
#587 = AXIS2_PLACEMENT_3D('',#588,#589,#590);
#588 = CARTESIAN_POINT('',(-74.26620819999,41.04812726071,-4.));
#589 = DIRECTION('',(-0.,-0.,-1.));
#590 = DIRECTION('',(1.,0.,0.));
#591 = ADVANCED_FACE('',(#592),#603,.F.);
#592 = FACE_BOUND('',#593,.F.);
#593 = EDGE_LOOP('',(#594,#595,#601,#602));
#594 = ORIENTED_EDGE('',*,*,#533,.T.);
#595 = ORIENTED_EDGE('',*,*,#596,.T.);
#596 = EDGE_CURVE('',#525,#300,#597,.T.);
#597 = LINE('',#598,#599);
#598 = CARTESIAN_POINT('',(-70.2353518,55.04812726071,-11.));
#599 = VECTOR('',#600,1.);
#600 = DIRECTION('',(0.,-1.,0.));
#601 = ORIENTED_EDGE('',*,*,#299,.F.);
#602 = ORIENTED_EDGE('',*,*,#377,.T.);
#603 = PLANE('',#604);
#604 = AXIS2_PLACEMENT_3D('',#605,#606,#607);
#605 = CARTESIAN_POINT('',(-70.2353518,55.04812726071,-4.));
#606 = DIRECTION('',(-1.,-0.,-0.));
#607 = DIRECTION('',(0.,-1.,0.));
#608 = ADVANCED_FACE('',(#609),#620,.T.);
#609 = FACE_BOUND('',#610,.T.);
#610 = EDGE_LOOP('',(#611,#612,#613,#614));
#611 = ORIENTED_EDGE('',*,*,#524,.T.);
#612 = ORIENTED_EDGE('',*,*,#596,.T.);
#613 = ORIENTED_EDGE('',*,*,#307,.F.);
#614 = ORIENTED_EDGE('',*,*,#615,.F.);
#615 = EDGE_CURVE('',#517,#308,#616,.T.);
#616 = LINE('',#617,#618);
#617 = CARTESIAN_POINT('',(-71.2353518,55.04812726071,-12.));
#618 = VECTOR('',#619,1.);
#619 = DIRECTION('',(0.,-1.,0.));
#620 = CYLINDRICAL_SURFACE('',#621,1.);
#621 = AXIS2_PLACEMENT_3D('',#622,#623,#624);
#622 = CARTESIAN_POINT('',(-71.2353518,55.04812726071,-11.));
#623 = DIRECTION('',(0.,-1.,0.));
#624 = DIRECTION('',(-0.,-0.,-1.));
#625 = ADVANCED_FACE('',(#626),#632,.F.);
#626 = FACE_BOUND('',#627,.F.);
#627 = EDGE_LOOP('',(#628,#629,#630,#631));
#628 = ORIENTED_EDGE('',*,*,#516,.F.);
#629 = ORIENTED_EDGE('',*,*,#490,.F.);
#630 = ORIENTED_EDGE('',*,*,#316,.F.);
#631 = ORIENTED_EDGE('',*,*,#615,.F.);
#632 = PLANE('',#633);
#633 = AXIS2_PLACEMENT_3D('',#634,#635,#636);
#634 = CARTESIAN_POINT('',(-74.2353518,53.04812726071,-12.));
#635 = DIRECTION('',(0.,0.,1.));
#636 = DIRECTION('',(1.,0.,0.));
#637 = ADVANCED_FACE('',(#638),#649,.F.);
#638 = FACE_BOUND('',#639,.F.);
#639 = EDGE_LOOP('',(#640,#641,#647,#648));
#640 = ORIENTED_EDGE('',*,*,#335,.F.);
#641 = ORIENTED_EDGE('',*,*,#642,.T.);
#642 = EDGE_CURVE('',#336,#543,#643,.T.);
#643 = LINE('',#644,#645);
#644 = CARTESIAN_POINT('',(-72.667612,51.04812726071,-8.));
#645 = VECTOR('',#646,1.);
#646 = DIRECTION('',(0.,1.,-2.2E-16));
#647 = ORIENTED_EDGE('',*,*,#542,.T.);
#648 = ORIENTED_EDGE('',*,*,#642,.F.);
#649 = CYLINDRICAL_SURFACE('',#650,1.6);
#650 = AXIS2_PLACEMENT_3D('',#651,#652,#653);
#651 = CARTESIAN_POINT('',(-74.267612,51.04812726071,-8.));
#652 = DIRECTION('',(0.,-1.,2.2E-16));
#653 = DIRECTION('',(1.,0.,0.));
#654 = ( GEOMETRIC_REPRESENTATION_CONTEXT(3) 
GLOBAL_UNCERTAINTY_ASSIGNED_CONTEXT((#658)) GLOBAL_UNIT_ASSIGNED_CONTEXT
((#655,#656,#657)) REPRESENTATION_CONTEXT('Context #1',
  '3D Context with UNIT and UNCERTAINTY') );
#655 = ( LENGTH_UNIT() NAMED_UNIT(*) SI_UNIT(.MILLI.,.METRE.) );
#656 = ( NAMED_UNIT(*) PLANE_ANGLE_UNIT() SI_UNIT($,.RADIAN.) );
#657 = ( NAMED_UNIT(*) SI_UNIT($,.STERADIAN.) SOLID_ANGLE_UNIT() );
#658 = UNCERTAINTY_MEASURE_WITH_UNIT(LENGTH_MEASURE(1.E-07),#655,
  'distance_accuracy_value','confusion accuracy');
#659 = PRODUCT_RELATED_PRODUCT_CATEGORY('part',$,(#7));
ENDSEC;
END-ISO-10303-21;
