ISO-10303-21;
HEADER;
FILE_DESCRIPTION(('FreeCAD Model'),'2;1');
FILE_NAME('Open CASCADE Shape Model','2026-08-28T13:03:57',('FreeCAD'),(
    'FreeCAD'),'Open CASCADE STEP processor 7.8','FreeCAD','Unknown');
FILE_SCHEMA(('AUTOMOTIVE_DESIGN { 1 0 10303 214 1 1 1 1 }'));
ENDSEC;
DATA;
#1 = APPLICATION_PROTOCOL_DEFINITION('international standard',
  'automotive_design',2000,#2);
#2 = APPLICATION_CONTEXT(
  'core data for automotive mechanical design processes');
#3 = SHAPE_DEFINITION_REPRESENTATION(#4,#10);
#4 = PRODUCT_DEFINITION_SHAPE('','',#5);
#5 = PRODUCT_DEFINITION('design','',#6,#9);
#6 = PRODUCT_DEFINITION_FORMATION('','',#7);
#7 = PRODUCT('Open CASCADE STEP translator 7.8 13',
  'Open CASCADE STEP translator 7.8 13','',(#8));
#8 = PRODUCT_CONTEXT('',#2,'mechanical');
#9 = PRODUCT_DEFINITION_CONTEXT('part definition',#2,'design');
#10 = ADVANCED_BREP_SHAPE_REPRESENTATION('',(#11,#15),#434);
#11 = AXIS2_PLACEMENT_3D('',#12,#13,#14);
#12 = CARTESIAN_POINT('',(0.,0.,0.));
#13 = DIRECTION('',(0.,0.,1.));
#14 = DIRECTION('',(1.,0.,-0.));
#15 = MANIFOLD_SOLID_BREP('',#16);
#16 = CLOSED_SHELL('',(#17,#57,#90,#123,#185,#247,#264,#281,#298,#315,
    #327,#352,#377,#397,#417));
#17 = ADVANCED_FACE('',(#18),#52,.F.);
#18 = FACE_BOUND('',#19,.F.);
#19 = EDGE_LOOP('',(#20,#30,#38,#46));
#20 = ORIENTED_EDGE('',*,*,#21,.T.);
#21 = EDGE_CURVE('',#22,#24,#26,.T.);
#22 = VERTEX_POINT('',#23);
#23 = CARTESIAN_POINT('',(-5.691911157556,0.,5.));
#24 = VERTEX_POINT('',#25);
#25 = CARTESIAN_POINT('',(-5.691911157556,-12.5,5.));
#26 = LINE('',#27,#28);
#27 = CARTESIAN_POINT('',(-5.691911157556,1.11E-15,5.));
#28 = VECTOR('',#29,1.);
#29 = DIRECTION('',(0.,-1.,2.2E-16));
#30 = ORIENTED_EDGE('',*,*,#31,.T.);
#31 = EDGE_CURVE('',#24,#32,#34,.T.);
#32 = VERTEX_POINT('',#33);
#33 = CARTESIAN_POINT('',(-5.691911157556,-12.5,-5.));
#34 = LINE('',#35,#36);
#35 = CARTESIAN_POINT('',(-5.691911157556,-12.5,5.));
#36 = VECTOR('',#37,1.);
#37 = DIRECTION('',(0.,2.2E-16,-1.));
#38 = ORIENTED_EDGE('',*,*,#39,.F.);
#39 = EDGE_CURVE('',#40,#32,#42,.T.);
#40 = VERTEX_POINT('',#41);
#41 = CARTESIAN_POINT('',(-5.691911157556,0.,-5.));
#42 = LINE('',#43,#44);
#43 = CARTESIAN_POINT('',(-5.691911157556,-1.11E-15,-5.));
#44 = VECTOR('',#45,1.);
#45 = DIRECTION('',(0.,-1.,2.2E-16));
#46 = ORIENTED_EDGE('',*,*,#47,.F.);
#47 = EDGE_CURVE('',#22,#40,#48,.T.);
#48 = LINE('',#49,#50);
#49 = CARTESIAN_POINT('',(-5.691911157556,-1.11E-15,5.));
#50 = VECTOR('',#51,1.);
#51 = DIRECTION('',(0.,2.2E-16,-1.));
#52 = PLANE('',#53);
#53 = AXIS2_PLACEMENT_3D('',#54,#55,#56);
#54 = CARTESIAN_POINT('',(-5.691911157556,1.11E-15,5.));
#55 = DIRECTION('',(1.,0.,0.));
#56 = DIRECTION('',(0.,-2.2E-16,-1.));
#57 = ADVANCED_FACE('',(#58),#85,.T.);
#58 = FACE_BOUND('',#59,.F.);
#59 = EDGE_LOOP('',(#60,#70,#77,#78));
#60 = ORIENTED_EDGE('',*,*,#61,.T.);
#61 = EDGE_CURVE('',#62,#64,#66,.T.);
#62 = VERTEX_POINT('',#63);
#63 = CARTESIAN_POINT('',(-5.,0.,5.691911157556));
#64 = VERTEX_POINT('',#65);
#65 = CARTESIAN_POINT('',(-5.,-12.5,5.691911157556));
#66 = LINE('',#67,#68);
#67 = CARTESIAN_POINT('',(-5.,1.26E-15,5.691911157556));
#68 = VECTOR('',#69,1.);
#69 = DIRECTION('',(0.,-1.,2.2E-16));
#70 = ORIENTED_EDGE('',*,*,#71,.T.);
#71 = EDGE_CURVE('',#64,#24,#72,.T.);
#72 = CIRCLE('',#73,0.691911157556);
#73 = AXIS2_PLACEMENT_3D('',#74,#75,#76);
#74 = CARTESIAN_POINT('',(-5.,-12.5,5.));
#75 = DIRECTION('',(0.,-1.,-2.2E-16));
#76 = DIRECTION('',(1.,0.,0.));
#77 = ORIENTED_EDGE('',*,*,#21,.F.);
#78 = ORIENTED_EDGE('',*,*,#79,.F.);
#79 = EDGE_CURVE('',#62,#22,#80,.T.);
#80 = CIRCLE('',#81,0.691911157556);
#81 = AXIS2_PLACEMENT_3D('',#82,#83,#84);
#82 = CARTESIAN_POINT('',(-5.,-1.11E-15,5.));
#83 = DIRECTION('',(0.,-1.,-2.2E-16));
#84 = DIRECTION('',(1.,0.,0.));
#85 = CYLINDRICAL_SURFACE('',#86,0.691911157556);
#86 = AXIS2_PLACEMENT_3D('',#87,#88,#89);
#87 = CARTESIAN_POINT('',(-5.,1.11E-15,5.));
#88 = DIRECTION('',(0.,1.,-2.2E-16));
#89 = DIRECTION('',(1.,0.,0.));
#90 = ADVANCED_FACE('',(#91),#118,.T.);
#91 = FACE_BOUND('',#92,.F.);
#92 = EDGE_LOOP('',(#93,#94,#103,#111));
#93 = ORIENTED_EDGE('',*,*,#39,.T.);
#94 = ORIENTED_EDGE('',*,*,#95,.T.);
#95 = EDGE_CURVE('',#32,#96,#98,.T.);
#96 = VERTEX_POINT('',#97);
#97 = CARTESIAN_POINT('',(-5.,-12.5,-5.691911157556));
#98 = CIRCLE('',#99,0.691911157556);
#99 = AXIS2_PLACEMENT_3D('',#100,#101,#102);
#100 = CARTESIAN_POINT('',(-5.,-12.5,-5.));
#101 = DIRECTION('',(0.,-1.,-2.2E-16));
#102 = DIRECTION('',(1.,0.,0.));
#103 = ORIENTED_EDGE('',*,*,#104,.F.);
#104 = EDGE_CURVE('',#105,#96,#107,.T.);
#105 = VERTEX_POINT('',#106);
#106 = CARTESIAN_POINT('',(-5.,0.,-5.691911157556));
#107 = LINE('',#108,#109);
#108 = CARTESIAN_POINT('',(-5.,-1.26E-15,-5.691911157556));
#109 = VECTOR('',#110,1.);
#110 = DIRECTION('',(0.,-1.,2.2E-16));
#111 = ORIENTED_EDGE('',*,*,#112,.F.);
#112 = EDGE_CURVE('',#40,#105,#113,.T.);
#113 = CIRCLE('',#114,0.691911157556);
#114 = AXIS2_PLACEMENT_3D('',#115,#116,#117);
#115 = CARTESIAN_POINT('',(-5.,1.11E-15,-5.));
#116 = DIRECTION('',(0.,-1.,-2.2E-16));
#117 = DIRECTION('',(1.,0.,0.));
#118 = CYLINDRICAL_SURFACE('',#119,0.691911157556);
#119 = AXIS2_PLACEMENT_3D('',#120,#121,#122);
#120 = CARTESIAN_POINT('',(-5.,-1.11E-15,-5.));
#121 = DIRECTION('',(0.,1.,-2.2E-16));
#122 = DIRECTION('',(1.,0.,0.));
#123 = ADVANCED_FACE('',(#124,#169),#180,.T.);
#124 = FACE_BOUND('',#125,.T.);
#125 = EDGE_LOOP('',(#126,#127,#128,#136,#145,#153,#162,#168));
#126 = ORIENTED_EDGE('',*,*,#47,.F.);
#127 = ORIENTED_EDGE('',*,*,#79,.F.);
#128 = ORIENTED_EDGE('',*,*,#129,.F.);
#129 = EDGE_CURVE('',#130,#62,#132,.T.);
#130 = VERTEX_POINT('',#131);
#131 = CARTESIAN_POINT('',(5.,0.,5.691911157556));
#132 = LINE('',#133,#134);
#133 = CARTESIAN_POINT('',(5.,-1.26E-15,5.691911157556));
#134 = VECTOR('',#135,1.);
#135 = DIRECTION('',(-1.,0.,0.));
#136 = ORIENTED_EDGE('',*,*,#137,.F.);
#137 = EDGE_CURVE('',#138,#130,#140,.T.);
#138 = VERTEX_POINT('',#139);
#139 = CARTESIAN_POINT('',(5.691911157556,0.,5.));
#140 = CIRCLE('',#141,0.691911157556);
#141 = AXIS2_PLACEMENT_3D('',#142,#143,#144);
#142 = CARTESIAN_POINT('',(5.,-1.11E-15,5.));
#143 = DIRECTION('',(0.,-1.,-2.2E-16));
#144 = DIRECTION('',(1.,0.,0.));
#145 = ORIENTED_EDGE('',*,*,#146,.F.);
#146 = EDGE_CURVE('',#147,#138,#149,.T.);
#147 = VERTEX_POINT('',#148);
#148 = CARTESIAN_POINT('',(5.691911157556,0.,-5.));
#149 = LINE('',#150,#151);
#150 = CARTESIAN_POINT('',(5.691911157556,1.11E-15,-5.));
#151 = VECTOR('',#152,1.);
#152 = DIRECTION('',(0.,-2.2E-16,1.));
#153 = ORIENTED_EDGE('',*,*,#154,.F.);
#154 = EDGE_CURVE('',#155,#147,#157,.T.);
#155 = VERTEX_POINT('',#156);
#156 = CARTESIAN_POINT('',(5.,0.,-5.691911157556));
#157 = CIRCLE('',#158,0.691911157556);
#158 = AXIS2_PLACEMENT_3D('',#159,#160,#161);
#159 = CARTESIAN_POINT('',(5.,1.11E-15,-5.));
#160 = DIRECTION('',(0.,-1.,-2.2E-16));
#161 = DIRECTION('',(1.,0.,0.));
#162 = ORIENTED_EDGE('',*,*,#163,.F.);
#163 = EDGE_CURVE('',#105,#155,#164,.T.);
#164 = LINE('',#165,#166);
#165 = CARTESIAN_POINT('',(-5.,1.26E-15,-5.691911157556));
#166 = VECTOR('',#167,1.);
#167 = DIRECTION('',(1.,0.,0.));
#168 = ORIENTED_EDGE('',*,*,#112,.F.);
#169 = FACE_BOUND('',#170,.T.);
#170 = EDGE_LOOP('',(#171));
#171 = ORIENTED_EDGE('',*,*,#172,.F.);
#172 = EDGE_CURVE('',#173,#173,#175,.T.);
#173 = VERTEX_POINT('',#174);
#174 = CARTESIAN_POINT('',(3.,0.,0.));
#175 = CIRCLE('',#176,3.);
#176 = AXIS2_PLACEMENT_3D('',#177,#178,#179);
#177 = CARTESIAN_POINT('',(0.,0.,0.));
#178 = DIRECTION('',(-0.,1.,2.2E-16));
#179 = DIRECTION('',(1.,0.,0.));
#180 = PLANE('',#181);
#181 = AXIS2_PLACEMENT_3D('',#182,#183,#184);
#182 = CARTESIAN_POINT('',(-2.6E-16,0.,4.1E-16));
#183 = DIRECTION('',(0.,1.,2.2E-16));
#184 = DIRECTION('',(0.,-2.2E-16,1.));
#185 = ADVANCED_FACE('',(#186,#231),#242,.F.);
#186 = FACE_BOUND('',#187,.T.);
#187 = EDGE_LOOP('',(#188,#189,#190,#198,#207,#215,#224,#230));
#188 = ORIENTED_EDGE('',*,*,#31,.T.);
#189 = ORIENTED_EDGE('',*,*,#95,.T.);
#190 = ORIENTED_EDGE('',*,*,#191,.T.);
#191 = EDGE_CURVE('',#96,#192,#194,.T.);
#192 = VERTEX_POINT('',#193);
#193 = CARTESIAN_POINT('',(5.,-12.5,-5.691911157556));
#194 = LINE('',#195,#196);
#195 = CARTESIAN_POINT('',(-5.,-12.5,-5.691911157556));
#196 = VECTOR('',#197,1.);
#197 = DIRECTION('',(1.,0.,0.));
#198 = ORIENTED_EDGE('',*,*,#199,.T.);
#199 = EDGE_CURVE('',#192,#200,#202,.T.);
#200 = VERTEX_POINT('',#201);
#201 = CARTESIAN_POINT('',(5.691911157556,-12.5,-5.));
#202 = CIRCLE('',#203,0.691911157556);
#203 = AXIS2_PLACEMENT_3D('',#204,#205,#206);
#204 = CARTESIAN_POINT('',(5.,-12.5,-5.));
#205 = DIRECTION('',(0.,-1.,-2.2E-16));
#206 = DIRECTION('',(1.,0.,0.));
#207 = ORIENTED_EDGE('',*,*,#208,.T.);
#208 = EDGE_CURVE('',#200,#209,#211,.T.);
#209 = VERTEX_POINT('',#210);
#210 = CARTESIAN_POINT('',(5.691911157556,-12.5,5.));
#211 = LINE('',#212,#213);
#212 = CARTESIAN_POINT('',(5.691911157556,-12.5,-5.));
#213 = VECTOR('',#214,1.);
#214 = DIRECTION('',(0.,-2.2E-16,1.));
#215 = ORIENTED_EDGE('',*,*,#216,.T.);
#216 = EDGE_CURVE('',#209,#217,#219,.T.);
#217 = VERTEX_POINT('',#218);
#218 = CARTESIAN_POINT('',(5.,-12.5,5.691911157556));
#219 = CIRCLE('',#220,0.691911157556);
#220 = AXIS2_PLACEMENT_3D('',#221,#222,#223);
#221 = CARTESIAN_POINT('',(5.,-12.5,5.));
#222 = DIRECTION('',(0.,-1.,-2.2E-16));
#223 = DIRECTION('',(1.,0.,0.));
#224 = ORIENTED_EDGE('',*,*,#225,.T.);
#225 = EDGE_CURVE('',#217,#64,#226,.T.);
#226 = LINE('',#227,#228);
#227 = CARTESIAN_POINT('',(5.,-12.5,5.691911157556));
#228 = VECTOR('',#229,1.);
#229 = DIRECTION('',(-1.,0.,0.));
#230 = ORIENTED_EDGE('',*,*,#71,.T.);
#231 = FACE_BOUND('',#232,.F.);
#232 = EDGE_LOOP('',(#233));
#233 = ORIENTED_EDGE('',*,*,#234,.T.);
#234 = EDGE_CURVE('',#235,#235,#237,.T.);
#235 = VERTEX_POINT('',#236);
#236 = CARTESIAN_POINT('',(1.7,-12.5,0.));
#237 = CIRCLE('',#238,1.7);
#238 = AXIS2_PLACEMENT_3D('',#239,#240,#241);
#239 = CARTESIAN_POINT('',(0.,-12.5,-3.552713678801E-15));
#240 = DIRECTION('',(0.,-1.,-2.2E-16));
#241 = DIRECTION('',(1.,0.,0.));
#242 = PLANE('',#243);
#243 = AXIS2_PLACEMENT_3D('',#244,#245,#246);
#244 = CARTESIAN_POINT('',(-2.6E-16,-12.5,0.));
#245 = DIRECTION('',(0.,1.,2.2E-16));
#246 = DIRECTION('',(0.,-2.2E-16,1.));
#247 = ADVANCED_FACE('',(#248),#259,.F.);
#248 = FACE_BOUND('',#249,.F.);
#249 = EDGE_LOOP('',(#250,#256,#257,#258));
#250 = ORIENTED_EDGE('',*,*,#251,.T.);
#251 = EDGE_CURVE('',#130,#217,#252,.T.);
#252 = LINE('',#253,#254);
#253 = CARTESIAN_POINT('',(5.,1.26E-15,5.691911157556));
#254 = VECTOR('',#255,1.);
#255 = DIRECTION('',(0.,-1.,2.2E-16));
#256 = ORIENTED_EDGE('',*,*,#225,.T.);
#257 = ORIENTED_EDGE('',*,*,#61,.F.);
#258 = ORIENTED_EDGE('',*,*,#129,.F.);
#259 = PLANE('',#260);
#260 = AXIS2_PLACEMENT_3D('',#261,#262,#263);
#261 = CARTESIAN_POINT('',(5.,1.26E-15,5.691911157556));
#262 = DIRECTION('',(0.,-2.2E-16,-1.));
#263 = DIRECTION('',(-1.,0.,0.));
#264 = ADVANCED_FACE('',(#265),#276,.F.);
#265 = FACE_BOUND('',#266,.F.);
#266 = EDGE_LOOP('',(#267,#268,#269,#275));
#267 = ORIENTED_EDGE('',*,*,#104,.T.);
#268 = ORIENTED_EDGE('',*,*,#191,.T.);
#269 = ORIENTED_EDGE('',*,*,#270,.F.);
#270 = EDGE_CURVE('',#155,#192,#271,.T.);
#271 = LINE('',#272,#273);
#272 = CARTESIAN_POINT('',(5.,-1.26E-15,-5.691911157556));
#273 = VECTOR('',#274,1.);
#274 = DIRECTION('',(0.,-1.,2.2E-16));
#275 = ORIENTED_EDGE('',*,*,#163,.F.);
#276 = PLANE('',#277);
#277 = AXIS2_PLACEMENT_3D('',#278,#279,#280);
#278 = CARTESIAN_POINT('',(-5.,-1.26E-15,-5.691911157556));
#279 = DIRECTION('',(0.,2.2E-16,1.));
#280 = DIRECTION('',(1.,0.,0.));
#281 = ADVANCED_FACE('',(#282),#293,.T.);
#282 = FACE_BOUND('',#283,.F.);
#283 = EDGE_LOOP('',(#284,#290,#291,#292));
#284 = ORIENTED_EDGE('',*,*,#285,.T.);
#285 = EDGE_CURVE('',#138,#209,#286,.T.);
#286 = LINE('',#287,#288);
#287 = CARTESIAN_POINT('',(5.691911157556,1.11E-15,5.));
#288 = VECTOR('',#289,1.);
#289 = DIRECTION('',(0.,-1.,2.2E-16));
#290 = ORIENTED_EDGE('',*,*,#216,.T.);
#291 = ORIENTED_EDGE('',*,*,#251,.F.);
#292 = ORIENTED_EDGE('',*,*,#137,.F.);
#293 = CYLINDRICAL_SURFACE('',#294,0.691911157556);
#294 = AXIS2_PLACEMENT_3D('',#295,#296,#297);
#295 = CARTESIAN_POINT('',(5.,1.11E-15,5.));
#296 = DIRECTION('',(0.,1.,-2.2E-16));
#297 = DIRECTION('',(1.,0.,0.));
#298 = ADVANCED_FACE('',(#299),#310,.T.);
#299 = FACE_BOUND('',#300,.F.);
#300 = EDGE_LOOP('',(#301,#302,#303,#309));
#301 = ORIENTED_EDGE('',*,*,#270,.T.);
#302 = ORIENTED_EDGE('',*,*,#199,.T.);
#303 = ORIENTED_EDGE('',*,*,#304,.F.);
#304 = EDGE_CURVE('',#147,#200,#305,.T.);
#305 = LINE('',#306,#307);
#306 = CARTESIAN_POINT('',(5.691911157556,-1.11E-15,-5.));
#307 = VECTOR('',#308,1.);
#308 = DIRECTION('',(0.,-1.,2.2E-16));
#309 = ORIENTED_EDGE('',*,*,#154,.F.);
#310 = CYLINDRICAL_SURFACE('',#311,0.691911157556);
#311 = AXIS2_PLACEMENT_3D('',#312,#313,#314);
#312 = CARTESIAN_POINT('',(5.,-1.11E-15,-5.));
#313 = DIRECTION('',(0.,1.,-2.2E-16));
#314 = DIRECTION('',(1.,0.,0.));
#315 = ADVANCED_FACE('',(#316),#322,.F.);
#316 = FACE_BOUND('',#317,.F.);
#317 = EDGE_LOOP('',(#318,#319,#320,#321));
#318 = ORIENTED_EDGE('',*,*,#304,.T.);
#319 = ORIENTED_EDGE('',*,*,#208,.T.);
#320 = ORIENTED_EDGE('',*,*,#285,.F.);
#321 = ORIENTED_EDGE('',*,*,#146,.F.);
#322 = PLANE('',#323);
#323 = AXIS2_PLACEMENT_3D('',#324,#325,#326);
#324 = CARTESIAN_POINT('',(5.691911157556,-1.11E-15,-5.));
#325 = DIRECTION('',(-1.,0.,0.));
#326 = DIRECTION('',(0.,2.2E-16,1.));
#327 = ADVANCED_FACE('',(#328),#347,.T.);
#328 = FACE_BOUND('',#329,.F.);
#329 = EDGE_LOOP('',(#330,#338,#345,#346));
#330 = ORIENTED_EDGE('',*,*,#331,.T.);
#331 = EDGE_CURVE('',#173,#332,#334,.T.);
#332 = VERTEX_POINT('',#333);
#333 = CARTESIAN_POINT('',(3.,1.,0.));
#334 = LINE('',#335,#336);
#335 = CARTESIAN_POINT('',(3.,0.,0.));
#336 = VECTOR('',#337,1.);
#337 = DIRECTION('',(0.,1.,2.2E-16));
#338 = ORIENTED_EDGE('',*,*,#339,.T.);
#339 = EDGE_CURVE('',#332,#332,#340,.T.);
#340 = CIRCLE('',#341,3.);
#341 = AXIS2_PLACEMENT_3D('',#342,#343,#344);
#342 = CARTESIAN_POINT('',(0.,1.,2.22044604925E-16));
#343 = DIRECTION('',(-0.,1.,2.2E-16));
#344 = DIRECTION('',(1.,0.,0.));
#345 = ORIENTED_EDGE('',*,*,#331,.F.);
#346 = ORIENTED_EDGE('',*,*,#172,.F.);
#347 = CYLINDRICAL_SURFACE('',#348,3.);
#348 = AXIS2_PLACEMENT_3D('',#349,#350,#351);
#349 = CARTESIAN_POINT('',(0.,0.,0.));
#350 = DIRECTION('',(0.,-1.,-2.2E-16));
#351 = DIRECTION('',(1.,0.,0.));
#352 = ADVANCED_FACE('',(#353),#372,.F.);
#353 = FACE_BOUND('',#354,.T.);
#354 = EDGE_LOOP('',(#355,#363,#364,#365));
#355 = ORIENTED_EDGE('',*,*,#356,.T.);
#356 = EDGE_CURVE('',#357,#235,#359,.T.);
#357 = VERTEX_POINT('',#358);
#358 = CARTESIAN_POINT('',(1.7,0.,0.));
#359 = LINE('',#360,#361);
#360 = CARTESIAN_POINT('',(1.7,0.,0.));
#361 = VECTOR('',#362,1.);
#362 = DIRECTION('',(0.,-1.,2.2E-16));
#363 = ORIENTED_EDGE('',*,*,#234,.T.);
#364 = ORIENTED_EDGE('',*,*,#356,.F.);
#365 = ORIENTED_EDGE('',*,*,#366,.F.);
#366 = EDGE_CURVE('',#357,#357,#367,.T.);
#367 = CIRCLE('',#368,1.7);
#368 = AXIS2_PLACEMENT_3D('',#369,#370,#371);
#369 = CARTESIAN_POINT('',(0.,0.,0.));
#370 = DIRECTION('',(0.,-1.,-2.2E-16));
#371 = DIRECTION('',(1.,0.,0.));
#372 = CYLINDRICAL_SURFACE('',#373,1.7);
#373 = AXIS2_PLACEMENT_3D('',#374,#375,#376);
#374 = CARTESIAN_POINT('',(0.,0.,0.));
#375 = DIRECTION('',(0.,1.,-2.2E-16));
#376 = DIRECTION('',(1.,0.,0.));
#377 = ADVANCED_FACE('',(#378,#381),#392,.T.);
#378 = FACE_BOUND('',#379,.T.);
#379 = EDGE_LOOP('',(#380));
#380 = ORIENTED_EDGE('',*,*,#339,.T.);
#381 = FACE_BOUND('',#382,.F.);
#382 = EDGE_LOOP('',(#383));
#383 = ORIENTED_EDGE('',*,*,#384,.T.);
#384 = EDGE_CURVE('',#385,#385,#387,.T.);
#385 = VERTEX_POINT('',#386);
#386 = CARTESIAN_POINT('',(2.,1.,0.));
#387 = CIRCLE('',#388,2.);
#388 = AXIS2_PLACEMENT_3D('',#389,#390,#391);
#389 = CARTESIAN_POINT('',(0.,1.,2.22044604925E-16));
#390 = DIRECTION('',(-0.,1.,2.2E-16));
#391 = DIRECTION('',(1.,0.,0.));
#392 = PLANE('',#393);
#393 = AXIS2_PLACEMENT_3D('',#394,#395,#396);
#394 = CARTESIAN_POINT('',(-2.1E-16,1.,4.440892098501E-16));
#395 = DIRECTION('',(0.,1.,2.2E-16));
#396 = DIRECTION('',(0.,-2.2E-16,1.));
#397 = ADVANCED_FACE('',(#398,#409),#412,.T.);
#398 = FACE_BOUND('',#399,.T.);
#399 = EDGE_LOOP('',(#400));
#400 = ORIENTED_EDGE('',*,*,#401,.T.);
#401 = EDGE_CURVE('',#402,#402,#404,.T.);
#402 = VERTEX_POINT('',#403);
#403 = CARTESIAN_POINT('',(2.,0.,0.));
#404 = CIRCLE('',#405,2.);
#405 = AXIS2_PLACEMENT_3D('',#406,#407,#408);
#406 = CARTESIAN_POINT('',(0.,0.,0.));
#407 = DIRECTION('',(-0.,1.,2.2E-16));
#408 = DIRECTION('',(1.,0.,0.));
#409 = FACE_BOUND('',#410,.T.);
#410 = EDGE_LOOP('',(#411));
#411 = ORIENTED_EDGE('',*,*,#366,.T.);
#412 = PLANE('',#413);
#413 = AXIS2_PLACEMENT_3D('',#414,#415,#416);
#414 = CARTESIAN_POINT('',(-2.6E-16,0.,4.1E-16));
#415 = DIRECTION('',(0.,1.,2.2E-16));
#416 = DIRECTION('',(0.,-2.2E-16,1.));
#417 = ADVANCED_FACE('',(#418),#429,.F.);
#418 = FACE_BOUND('',#419,.T.);
#419 = EDGE_LOOP('',(#420,#426,#427,#428));
#420 = ORIENTED_EDGE('',*,*,#421,.T.);
#421 = EDGE_CURVE('',#402,#385,#422,.T.);
#422 = LINE('',#423,#424);
#423 = CARTESIAN_POINT('',(2.,0.,0.));
#424 = VECTOR('',#425,1.);
#425 = DIRECTION('',(0.,1.,2.2E-16));
#426 = ORIENTED_EDGE('',*,*,#384,.T.);
#427 = ORIENTED_EDGE('',*,*,#421,.F.);
#428 = ORIENTED_EDGE('',*,*,#401,.F.);
#429 = CYLINDRICAL_SURFACE('',#430,2.);
#430 = AXIS2_PLACEMENT_3D('',#431,#432,#433);
#431 = CARTESIAN_POINT('',(0.,0.,0.));
#432 = DIRECTION('',(0.,-1.,-2.2E-16));
#433 = DIRECTION('',(1.,0.,0.));
#434 = ( GEOMETRIC_REPRESENTATION_CONTEXT(3) 
GLOBAL_UNCERTAINTY_ASSIGNED_CONTEXT((#438)) GLOBAL_UNIT_ASSIGNED_CONTEXT
((#435,#436,#437)) REPRESENTATION_CONTEXT('Context #1',
  '3D Context with UNIT and UNCERTAINTY') );
#435 = ( LENGTH_UNIT() NAMED_UNIT(*) SI_UNIT(.MILLI.,.METRE.) );
#436 = ( NAMED_UNIT(*) PLANE_ANGLE_UNIT() SI_UNIT($,.RADIAN.) );
#437 = ( NAMED_UNIT(*) SI_UNIT($,.STERADIAN.) SOLID_ANGLE_UNIT() );
#438 = UNCERTAINTY_MEASURE_WITH_UNIT(LENGTH_MEASURE(1.E-07),#435,
  'distance_accuracy_value','confusion accuracy');
#439 = PRODUCT_RELATED_PRODUCT_CATEGORY('part',$,(#7));
ENDSEC;
END-ISO-10303-21;
