ISO-10303-21;
HEADER;
FILE_DESCRIPTION(('FreeCAD Model'),'2;1');
FILE_NAME('Open CASCADE Shape Model','2026-08-28T13:04:05',('FreeCAD'),(
    'FreeCAD'),'Open CASCADE STEP processor 7.8','FreeCAD','Unknown');
FILE_SCHEMA(('AUTOMOTIVE_DESIGN { 1 0 10303 214 1 1 1 1 }'));
ENDSEC;
DATA;
#1 = APPLICATION_PROTOCOL_DEFINITION('international standard',
  'automotive_design',2000,#2);
#2 = APPLICATION_CONTEXT(
  'core data for automotive mechanical design processes');
#3 = SHAPE_DEFINITION_REPRESENTATION(#4,#10);
#4 = PRODUCT_DEFINITION_SHAPE('','',#5);
#5 = PRODUCT_DEFINITION('design','',#6,#9);
#6 = PRODUCT_DEFINITION_FORMATION('','',#7);
#7 = PRODUCT('Open CASCADE STEP translator 7.8 55',
  'Open CASCADE STEP translator 7.8 55','',(#8));
#8 = PRODUCT_CONTEXT('',#2,'mechanical');
#9 = PRODUCT_DEFINITION_CONTEXT('part definition',#2,'design');
#10 = ADVANCED_BREP_SHAPE_REPRESENTATION('',(#11,#15),#1264);
#11 = AXIS2_PLACEMENT_3D('',#12,#13,#14);
#12 = CARTESIAN_POINT('',(0.,0.,0.));
#13 = DIRECTION('',(0.,0.,1.));
#14 = DIRECTION('',(1.,0.,-0.));
#15 = MANIFOLD_SOLID_BREP('',#16);
#16 = CLOSED_SHELL('',(#17,#68,#121,#337,#347,#455,#472,#497,#530,#540,
    #780,#1020,#1172,#1185,#1202,#1223,#1248));
#17 = ADVANCED_FACE('',(#18,#52),#63,.T.);
#18 = FACE_BOUND('',#19,.T.);
#19 = EDGE_LOOP('',(#20,#30,#38,#46));
#20 = ORIENTED_EDGE('',*,*,#21,.F.);
#21 = EDGE_CURVE('',#22,#24,#26,.T.);
#22 = VERTEX_POINT('',#23);
#23 = CARTESIAN_POINT('',(-3.254612112065,5.1,0.));
#24 = VERTEX_POINT('',#25);
#25 = CARTESIAN_POINT('',(3.254612112065,5.1,0.));
#26 = LINE('',#27,#28);
#27 = CARTESIAN_POINT('',(-5.827566,5.1,0.));
#28 = VECTOR('',#29,1.);
#29 = DIRECTION('',(1.,0.,0.));
#30 = ORIENTED_EDGE('',*,*,#31,.F.);
#31 = EDGE_CURVE('',#32,#22,#34,.T.);
#32 = VERTEX_POINT('',#33);
#33 = CARTESIAN_POINT('',(-3.254612112065,5.1,10.));
#34 = LINE('',#35,#36);
#35 = CARTESIAN_POINT('',(-3.254612112065,5.1,0.));
#36 = VECTOR('',#37,1.);
#37 = DIRECTION('',(-0.,-0.,-1.));
#38 = ORIENTED_EDGE('',*,*,#39,.T.);
#39 = EDGE_CURVE('',#32,#40,#42,.T.);
#40 = VERTEX_POINT('',#41);
#41 = CARTESIAN_POINT('',(3.254612112065,5.1,10.));
#42 = LINE('',#43,#44);
#43 = CARTESIAN_POINT('',(-5.827566,5.1,10.));
#44 = VECTOR('',#45,1.);
#45 = DIRECTION('',(1.,0.,0.));
#46 = ORIENTED_EDGE('',*,*,#47,.T.);
#47 = EDGE_CURVE('',#40,#24,#48,.T.);
#48 = LINE('',#49,#50);
#49 = CARTESIAN_POINT('',(3.254612112065,5.1,0.));
#50 = VECTOR('',#51,1.);
#51 = DIRECTION('',(-0.,-0.,-1.));
#52 = FACE_BOUND('',#53,.T.);
#53 = EDGE_LOOP('',(#54));
#54 = ORIENTED_EDGE('',*,*,#55,.T.);
#55 = EDGE_CURVE('',#56,#56,#58,.T.);
#56 = VERTEX_POINT('',#57);
#57 = CARTESIAN_POINT('',(1.25,5.1,5.5));
#58 = CIRCLE('',#59,1.25);
#59 = AXIS2_PLACEMENT_3D('',#60,#61,#62);
#60 = CARTESIAN_POINT('',(0.,5.1,5.5));
#61 = DIRECTION('',(0.,-1.,2.2E-16));
#62 = DIRECTION('',(1.,0.,0.));
#63 = PLANE('',#64);
#64 = AXIS2_PLACEMENT_3D('',#65,#66,#67);
#65 = CARTESIAN_POINT('',(-5.827566,5.1,0.));
#66 = DIRECTION('',(0.,1.,0.));
#67 = DIRECTION('',(1.,0.,0.));
#68 = ADVANCED_FACE('',(#69,#105),#116,.T.);
#69 = FACE_BOUND('',#70,.T.);
#70 = EDGE_LOOP('',(#71,#72,#81,#90,#98));
#71 = ORIENTED_EDGE('',*,*,#21,.T.);
#72 = ORIENTED_EDGE('',*,*,#73,.F.);
#73 = EDGE_CURVE('',#74,#24,#76,.T.);
#74 = VERTEX_POINT('',#75);
#75 = CARTESIAN_POINT('',(6.05,0.,0.));
#76 = CIRCLE('',#77,6.05);
#77 = AXIS2_PLACEMENT_3D('',#78,#79,#80);
#78 = CARTESIAN_POINT('',(0.,0.,0.));
#79 = DIRECTION('',(0.,0.,1.));
#80 = DIRECTION('',(1.,0.,0.));
#81 = ORIENTED_EDGE('',*,*,#82,.F.);
#82 = EDGE_CURVE('',#83,#74,#85,.T.);
#83 = VERTEX_POINT('',#84);
#84 = CARTESIAN_POINT('',(2.289650628371,-5.6,0.));
#85 = CIRCLE('',#86,6.05);
#86 = AXIS2_PLACEMENT_3D('',#87,#88,#89);
#87 = CARTESIAN_POINT('',(0.,0.,0.));
#88 = DIRECTION('',(0.,0.,1.));
#89 = DIRECTION('',(1.,0.,0.));
#90 = ORIENTED_EDGE('',*,*,#91,.T.);
#91 = EDGE_CURVE('',#83,#92,#94,.T.);
#92 = VERTEX_POINT('',#93);
#93 = CARTESIAN_POINT('',(-2.289650628371,-5.6,0.));
#94 = LINE('',#95,#96);
#95 = CARTESIAN_POINT('',(0.,-5.6,0.));
#96 = VECTOR('',#97,1.);
#97 = DIRECTION('',(-1.,0.,0.));
#98 = ORIENTED_EDGE('',*,*,#99,.F.);
#99 = EDGE_CURVE('',#22,#92,#100,.T.);
#100 = CIRCLE('',#101,6.05);
#101 = AXIS2_PLACEMENT_3D('',#102,#103,#104);
#102 = CARTESIAN_POINT('',(0.,0.,0.));
#103 = DIRECTION('',(0.,0.,1.));
#104 = DIRECTION('',(1.,0.,0.));
#105 = FACE_BOUND('',#106,.T.);
#106 = EDGE_LOOP('',(#107));
#107 = ORIENTED_EDGE('',*,*,#108,.F.);
#108 = EDGE_CURVE('',#109,#109,#111,.T.);
#109 = VERTEX_POINT('',#110);
#110 = CARTESIAN_POINT('',(1.2,0.,0.));
#111 = CIRCLE('',#112,1.2);
#112 = AXIS2_PLACEMENT_3D('',#113,#114,#115);
#113 = CARTESIAN_POINT('',(0.,0.,0.));
#114 = DIRECTION('',(0.,0.,-1.));
#115 = DIRECTION('',(1.,0.,0.));
#116 = PLANE('',#117);
#117 = AXIS2_PLACEMENT_3D('',#118,#119,#120);
#118 = CARTESIAN_POINT('',(8.504844656768E-02,-9.511463550996E-02,0.));
#119 = DIRECTION('',(-0.,-0.,-1.));
#120 = DIRECTION('',(-1.,0.,0.));
#121 = ADVANCED_FACE('',(#122,#202,#267),#332,.T.);
#122 = FACE_BOUND('',#123,.F.);
#123 = EDGE_LOOP('',(#124,#132,#141,#150,#158,#167,#175,#184,#190,#191,
    #192,#199,#200,#201));
#124 = ORIENTED_EDGE('',*,*,#125,.F.);
#125 = EDGE_CURVE('',#126,#83,#128,.T.);
#126 = VERTEX_POINT('',#127);
#127 = CARTESIAN_POINT('',(2.289650628371,-5.6,90.));
#128 = LINE('',#129,#130);
#129 = CARTESIAN_POINT('',(2.289650628371,-5.6,0.));
#130 = VECTOR('',#131,1.);
#131 = DIRECTION('',(-0.,-0.,-1.));
#132 = ORIENTED_EDGE('',*,*,#133,.T.);
#133 = EDGE_CURVE('',#126,#134,#136,.T.);
#134 = VERTEX_POINT('',#135);
#135 = CARTESIAN_POINT('',(6.05,0.,90.));
#136 = CIRCLE('',#137,6.05);
#137 = AXIS2_PLACEMENT_3D('',#138,#139,#140);
#138 = CARTESIAN_POINT('',(0.,0.,90.));
#139 = DIRECTION('',(0.,0.,1.));
#140 = DIRECTION('',(1.,0.,0.));
#141 = ORIENTED_EDGE('',*,*,#142,.T.);
#142 = EDGE_CURVE('',#134,#143,#145,.T.);
#143 = VERTEX_POINT('',#144);
#144 = CARTESIAN_POINT('',(3.254612112065,5.1,90.));
#145 = CIRCLE('',#146,6.05);
#146 = AXIS2_PLACEMENT_3D('',#147,#148,#149);
#147 = CARTESIAN_POINT('',(0.,0.,90.));
#148 = DIRECTION('',(0.,0.,1.));
#149 = DIRECTION('',(1.,0.,0.));
#150 = ORIENTED_EDGE('',*,*,#151,.T.);
#151 = EDGE_CURVE('',#143,#152,#154,.T.);
#152 = VERTEX_POINT('',#153);
#153 = CARTESIAN_POINT('',(3.254612112065,5.1,80.));
#154 = LINE('',#155,#156);
#155 = CARTESIAN_POINT('',(3.254612112065,5.1,0.));
#156 = VECTOR('',#157,1.);
#157 = DIRECTION('',(-0.,-0.,-1.));
#158 = ORIENTED_EDGE('',*,*,#159,.F.);
#159 = EDGE_CURVE('',#160,#152,#162,.T.);
#160 = VERTEX_POINT('',#161);
#161 = CARTESIAN_POINT('',(-3.254612112065,5.1,80.));
#162 = CIRCLE('',#163,6.05);
#163 = AXIS2_PLACEMENT_3D('',#164,#165,#166);
#164 = CARTESIAN_POINT('',(0.,0.,80.));
#165 = DIRECTION('',(0.,0.,-1.));
#166 = DIRECTION('',(1.,0.,0.));
#167 = ORIENTED_EDGE('',*,*,#168,.F.);
#168 = EDGE_CURVE('',#169,#160,#171,.T.);
#169 = VERTEX_POINT('',#170);
#170 = CARTESIAN_POINT('',(-3.254612112065,5.1,90.));
#171 = LINE('',#172,#173);
#172 = CARTESIAN_POINT('',(-3.254612112065,5.1,0.));
#173 = VECTOR('',#174,1.);
#174 = DIRECTION('',(-0.,-0.,-1.));
#175 = ORIENTED_EDGE('',*,*,#176,.T.);
#176 = EDGE_CURVE('',#169,#177,#179,.T.);
#177 = VERTEX_POINT('',#178);
#178 = CARTESIAN_POINT('',(-2.289650628371,-5.6,90.));
#179 = CIRCLE('',#180,6.05);
#180 = AXIS2_PLACEMENT_3D('',#181,#182,#183);
#181 = CARTESIAN_POINT('',(0.,0.,90.));
#182 = DIRECTION('',(0.,0.,1.));
#183 = DIRECTION('',(1.,0.,0.));
#184 = ORIENTED_EDGE('',*,*,#185,.T.);
#185 = EDGE_CURVE('',#177,#92,#186,.T.);
#186 = LINE('',#187,#188);
#187 = CARTESIAN_POINT('',(-2.289650628371,-5.6,0.));
#188 = VECTOR('',#189,1.);
#189 = DIRECTION('',(-0.,-0.,-1.));
#190 = ORIENTED_EDGE('',*,*,#99,.F.);
#191 = ORIENTED_EDGE('',*,*,#31,.F.);
#192 = ORIENTED_EDGE('',*,*,#193,.T.);
#193 = EDGE_CURVE('',#32,#40,#194,.T.);
#194 = CIRCLE('',#195,6.05);
#195 = AXIS2_PLACEMENT_3D('',#196,#197,#198);
#196 = CARTESIAN_POINT('',(0.,0.,10.));
#197 = DIRECTION('',(0.,0.,-1.));
#198 = DIRECTION('',(1.,0.,0.));
#199 = ORIENTED_EDGE('',*,*,#47,.T.);
#200 = ORIENTED_EDGE('',*,*,#73,.F.);
#201 = ORIENTED_EDGE('',*,*,#82,.F.);
#202 = FACE_BOUND('',#203,.F.);
#203 = EDGE_LOOP('',(#204));
#204 = ORIENTED_EDGE('',*,*,#205,.F.);
#205 = EDGE_CURVE('',#206,#206,#208,.T.);
#206 = VERTEX_POINT('',#207);
#207 = CARTESIAN_POINT('',(-5.861100579243,1.5,84.5));
#208 = B_SPLINE_CURVE_WITH_KNOTS('',8,(#209,#210,#211,#212,#213,#214,
    #215,#216,#217,#218,#219,#220,#221,#222,#223,#224,#225,#226,#227,
    #228,#229,#230,#231,#232,#233,#234,#235,#236,#237,#238,#239,#240,
    #241,#242,#243,#244,#245,#246,#247,#248,#249,#250,#251,#252,#253,
    #254,#255,#256,#257,#258,#259,#260,#261,#262,#263,#264,#265,#266),
  .UNSPECIFIED.,.T.,.F.,(9,7,7,7,7,7,7,7,9),(0.,0.129261020272,
    0.218162735507,0.328603411635,0.426323111815,0.570427111736,
    0.700581854186,0.796942418333,1.),.UNSPECIFIED.);
#209 = CARTESIAN_POINT('',(-5.861100579243,1.5,84.5));
#210 = CARTESIAN_POINT('',(-5.861100579243,1.5,84.636991709432));
#211 = CARTESIAN_POINT('',(-5.864759842914,1.485701732471,
    84.773887356454));
#212 = CARTESIAN_POINT('',(-5.872069775089,1.457139126065,
    84.909646029995));
#213 = CARTESIAN_POINT('',(-5.882851908688,1.414195481166,
    85.043173452024));
#214 = CARTESIAN_POINT('',(-5.896749778428,1.356647545134,
    85.173248574358));
#215 = CARTESIAN_POINT('',(-5.913203088066,1.284203530142,
    85.298444943369));
#216 = CARTESIAN_POINT('',(-5.931420381887,1.196553798594,
    85.417029397051));
#217 = CARTESIAN_POINT('',(-5.9633969355,1.022543373412,85.602331678959)
  );
#218 = CARTESIAN_POINT('',(-5.976843953687,0.943933893128,85.67409945315
    ));
#219 = CARTESIAN_POINT('',(-5.990315656647,0.857741967459,
    85.740973781842));
#220 = CARTESIAN_POINT('',(-6.003349962346,0.764234763708,
    85.801836887907));
#221 = CARTESIAN_POINT('',(-6.015443363613,0.66381912498,85.855603065602
    ));
#222 = CARTESIAN_POINT('',(-6.02608396019,0.557036553213,85.90121613211)
  );
#223 = CARTESIAN_POINT('',(-6.034788695051,0.444563199556,
    85.937644681762));
#224 = CARTESIAN_POINT('',(-6.049040840334,0.181435563039,
    85.996460676905));
#225 = CARTESIAN_POINT('',(-6.053198372261,3.023014304442E-02,
    86.012839022854));
#226 = CARTESIAN_POINT('',(-6.052936422723,-0.123106298576,
    86.011554310946));
#227 = CARTESIAN_POINT('',(-6.048028599201,-0.275035139681,
    85.992289370952));
#228 = CARTESIAN_POINT('',(-6.038860655787,-0.422040422143,
    85.955798341283));
#229 = CARTESIAN_POINT('',(-6.026362972519,-0.560869609203,
    85.903891175238));
#230 = CARTESIAN_POINT('',(-6.011784414997,-0.688769788062,
    85.839454325536));
#231 = CARTESIAN_POINT('',(-5.982738702296,-0.905467869643,
    85.701933541224));
#232 = CARTESIAN_POINT('',(-5.968246698817,-0.998606167499,
    85.629727316264));
#233 = CARTESIAN_POINT('',(-5.953488028198,-1.083050278648,
    85.551138215737));
#234 = CARTESIAN_POINT('',(-5.938986772934,-1.15879927463,
    85.467252660044));
#235 = CARTESIAN_POINT('',(-5.925189632887,-1.225920787601,
    85.379006719452));
#236 = CARTESIAN_POINT('',(-5.91246192103,-1.284520994308,
    85.287211379084));
#237 = CARTESIAN_POINT('',(-5.901091027699,-1.334719902317,
    85.192574837087));
#238 = CARTESIAN_POINT('',(-5.876854946751,-1.438438227855,
    84.95289592836));
#239 = CARTESIAN_POINT('',(-5.865797074283,-1.48241612405,84.80480656448
    ));
#240 = CARTESIAN_POINT('',(-5.858855257445,-1.508777604415,
    84.653309994421));
#241 = CARTESIAN_POINT('',(-5.856480636276,-1.517587921325,
    84.500080646272));
#242 = CARTESIAN_POINT('',(-5.858841624855,-1.508824447139,
    84.346764310271));
#243 = CARTESIAN_POINT('',(-5.865797026444,-1.482426116882,
    84.195080559966));
#244 = CARTESIAN_POINT('',(-5.87687613546,-1.43834755076,84.046894529236
    ));
#245 = CARTESIAN_POINT('',(-5.90432259836,-1.320890393393,
    83.775467053389));
#246 = CARTESIAN_POINT('',(-5.920178950765,-1.250312134608,
    83.650162119673));
#247 = CARTESIAN_POINT('',(-5.938360328821,-1.164556742587,
    83.530099296837));
#248 = CARTESIAN_POINT('',(-5.958100299226,-1.06339800505,
    83.417258679562));
#249 = CARTESIAN_POINT('',(-5.9783671308,-0.946781416084,83.313898072657
    ));
#250 = CARTESIAN_POINT('',(-5.997870211924,-0.814893651716,
    83.222598748198));
#251 = CARTESIAN_POINT('',(-6.015125249113,-0.668287644597,
    83.146347470191));
#252 = CARTESIAN_POINT('',(-6.038620748298,-0.389516435517,
    83.045983659277));
#253 = CARTESIAN_POINT('',(-6.046525589903,-0.263867511563,
    83.013611715687));
#254 = CARTESIAN_POINT('',(-6.051623883567,-0.133243243706,
    82.993437162769));
#255 = CARTESIAN_POINT('',(-6.05338969173,-3.706206264975E-05,
    82.986579696237));
#256 = CARTESIAN_POINT('',(-6.051627993367,0.133196220446,
    82.993421753553));
#257 = CARTESIAN_POINT('',(-6.046526893872,0.263882131901,
    83.013604814335));
#258 = CARTESIAN_POINT('',(-6.038616025034,0.389572476473,
    83.046003835262));
#259 = CARTESIAN_POINT('',(-6.007573291252,0.757890696107,83.17860655372
    ));
#260 = CARTESIAN_POINT('',(-5.97747927097,0.973610159334,83.313341241392
    ));
#261 = CARTESIAN_POINT('',(-5.944154911593,1.151887836888,
    83.478984701865));
#262 = CARTESIAN_POINT('',(-5.912962383506,1.292704993574,
    83.665845959388));
#263 = CARTESIAN_POINT('',(-5.887482750148,1.396899310692,
    83.866496090992));
#264 = CARTESIAN_POINT('',(-5.869887056986,1.465670831012,
    84.075268822342));
#265 = CARTESIAN_POINT('',(-5.861100579243,1.5,84.287733362543));
#266 = CARTESIAN_POINT('',(-5.861100579243,1.5,84.5));
#267 = FACE_BOUND('',#268,.F.);
#268 = EDGE_LOOP('',(#269));
#269 = ORIENTED_EDGE('',*,*,#270,.F.);
#270 = EDGE_CURVE('',#271,#271,#273,.T.);
#271 = VERTEX_POINT('',#272);
#272 = CARTESIAN_POINT('',(-5.861100579243,1.5,5.5));
#273 = B_SPLINE_CURVE_WITH_KNOTS('',8,(#274,#275,#276,#277,#278,#279,
    #280,#281,#282,#283,#284,#285,#286,#287,#288,#289,#290,#291,#292,
    #293,#294,#295,#296,#297,#298,#299,#300,#301,#302,#303,#304,#305,
    #306,#307,#308,#309,#310,#311,#312,#313,#314,#315,#316,#317,#318,
    #319,#320,#321,#322,#323,#324,#325,#326,#327,#328,#329,#330,#331),
  .UNSPECIFIED.,.T.,.F.,(9,7,7,7,7,7,7,7,9),(0.,0.129261020245,
    0.218162735473,0.328603411607,0.42632311179,0.570427111718,
    0.700581854174,0.796942418324,1.),.UNSPECIFIED.);
#274 = CARTESIAN_POINT('',(-5.861100579243,1.5,5.5));
#275 = CARTESIAN_POINT('',(-5.861100579243,1.5,5.636991709432));
#276 = CARTESIAN_POINT('',(-5.864759842914,1.485701732471,5.773887356455
    ));
#277 = CARTESIAN_POINT('',(-5.872069775089,1.457139126065,5.909646029995
    ));
#278 = CARTESIAN_POINT('',(-5.882851908688,1.414195481166,6.043173452024
    ));
#279 = CARTESIAN_POINT('',(-5.896749778428,1.356647545134,6.173248574358
    ));
#280 = CARTESIAN_POINT('',(-5.913203088066,1.284203530143,6.298444943369
    ));
#281 = CARTESIAN_POINT('',(-5.931420381887,1.196553798594,6.417029397051
    ));
#282 = CARTESIAN_POINT('',(-5.963396935502,1.022543373402,6.60233167897)
  );
#283 = CARTESIAN_POINT('',(-5.976843953688,0.943933893124,6.674099453151
    ));
#284 = CARTESIAN_POINT('',(-5.990315656646,0.857741967465,6.740973781835
    ));
#285 = CARTESIAN_POINT('',(-6.003349962345,0.764234763719,6.801836887901
    ));
#286 = CARTESIAN_POINT('',(-6.015443363613,0.663819124987,6.855603065601
    ));
#287 = CARTESIAN_POINT('',(-6.026083960191,0.557036553208,6.901216132113
    ));
#288 = CARTESIAN_POINT('',(-6.034788695051,0.444563199543,6.937644681765
    ));
#289 = CARTESIAN_POINT('',(-6.049040840334,0.181435563039,6.996460676905
    ));
#290 = CARTESIAN_POINT('',(-6.053198372261,3.023014304452E-02,
    7.012839022854));
#291 = CARTESIAN_POINT('',(-6.052936422723,-0.123106298576,
    7.011554310946));
#292 = CARTESIAN_POINT('',(-6.048028599201,-0.275035139681,
    6.992289370952));
#293 = CARTESIAN_POINT('',(-6.038860655787,-0.422040422143,
    6.955798341283));
#294 = CARTESIAN_POINT('',(-6.026362972519,-0.560869609204,
    6.903891175238));
#295 = CARTESIAN_POINT('',(-6.011784414997,-0.688769788062,
    6.839454325536));
#296 = CARTESIAN_POINT('',(-5.982738702296,-0.905467869643,
    6.701933541224));
#297 = CARTESIAN_POINT('',(-5.968246698817,-0.998606167499,
    6.629727316264));
#298 = CARTESIAN_POINT('',(-5.953488028198,-1.083050278648,
    6.551138215737));
#299 = CARTESIAN_POINT('',(-5.938986772934,-1.15879927463,6.467252660044
    ));
#300 = CARTESIAN_POINT('',(-5.925189632887,-1.225920787601,
    6.379006719452));
#301 = CARTESIAN_POINT('',(-5.91246192103,-1.284520994308,6.287211379084
    ));
#302 = CARTESIAN_POINT('',(-5.901091027699,-1.334719902317,
    6.192574837087));
#303 = CARTESIAN_POINT('',(-5.876854946751,-1.438438227856,
    5.952895928359));
#304 = CARTESIAN_POINT('',(-5.865797074283,-1.482416124051,
    5.804806564478));
#305 = CARTESIAN_POINT('',(-5.858855257445,-1.508777604415,
    5.653309994419));
#306 = CARTESIAN_POINT('',(-5.856480636277,-1.517587921325,
    5.500080646272));
#307 = CARTESIAN_POINT('',(-5.858841624855,-1.508824447139,
    5.346764310272));
#308 = CARTESIAN_POINT('',(-5.865797026444,-1.482426116883,
    5.195080559967));
#309 = CARTESIAN_POINT('',(-5.87687613546,-1.43834755076,5.046894529237)
  );
#310 = CARTESIAN_POINT('',(-5.90432259836,-1.320890393393,4.775467053388
    ));
#311 = CARTESIAN_POINT('',(-5.920178950765,-1.250312134608,
    4.650162119673));
#312 = CARTESIAN_POINT('',(-5.938360328821,-1.164556742587,
    4.530099296837));
#313 = CARTESIAN_POINT('',(-5.958100299226,-1.063398005051,
    4.417258679562));
#314 = CARTESIAN_POINT('',(-5.9783671308,-0.946781416084,4.313898072657)
  );
#315 = CARTESIAN_POINT('',(-5.997870211924,-0.814893651716,
    4.222598748198));
#316 = CARTESIAN_POINT('',(-6.015125249113,-0.668287644598,
    4.146347470191));
#317 = CARTESIAN_POINT('',(-6.038620748298,-0.389516435518,
    4.045983659277));
#318 = CARTESIAN_POINT('',(-6.046525589903,-0.263867511564,
    4.013611715687));
#319 = CARTESIAN_POINT('',(-6.051623883567,-0.133243243706,
    3.993437162768));
#320 = CARTESIAN_POINT('',(-6.05338969173,-3.706206227871E-05,
    3.986579696237));
#321 = CARTESIAN_POINT('',(-6.051627993367,0.133196220446,3.993421753554
    ));
#322 = CARTESIAN_POINT('',(-6.046526893872,0.263882131901,4.013604814335
    ));
#323 = CARTESIAN_POINT('',(-6.038616025034,0.389572476473,4.046003835263
    ));
#324 = CARTESIAN_POINT('',(-6.007573291252,0.757890696108,4.17860655372)
  );
#325 = CARTESIAN_POINT('',(-5.977479270971,0.97361015933,4.31334124139)
  );
#326 = CARTESIAN_POINT('',(-5.944154911593,1.151887836895,4.478984701869
    ));
#327 = CARTESIAN_POINT('',(-5.912962383506,1.292704993565,4.665845959382
    ));
#328 = CARTESIAN_POINT('',(-5.887482750147,1.396899310697,4.866496090997
    ));
#329 = CARTESIAN_POINT('',(-5.869887056986,1.465670831011,5.07526882234)
  );
#330 = CARTESIAN_POINT('',(-5.861100579243,1.5,5.287733362543));
#331 = CARTESIAN_POINT('',(-5.861100579243,1.5,5.5));
#332 = CYLINDRICAL_SURFACE('',#333,6.05);
#333 = AXIS2_PLACEMENT_3D('',#334,#335,#336);
#334 = CARTESIAN_POINT('',(0.,0.,0.));
#335 = DIRECTION('',(-0.,-0.,-1.));
#336 = DIRECTION('',(1.,0.,0.));
#337 = ADVANCED_FACE('',(#338),#342,.F.);
#338 = FACE_BOUND('',#339,.F.);
#339 = EDGE_LOOP('',(#340,#341));
#340 = ORIENTED_EDGE('',*,*,#193,.F.);
#341 = ORIENTED_EDGE('',*,*,#39,.T.);
#342 = PLANE('',#343);
#343 = AXIS2_PLACEMENT_3D('',#344,#345,#346);
#344 = CARTESIAN_POINT('',(0.,5.514571241092,10.));
#345 = DIRECTION('',(0.,0.,1.));
#346 = DIRECTION('',(1.,0.,0.));
#347 = ADVANCED_FACE('',(#348),#450,.F.);
#348 = FACE_BOUND('',#349,.F.);
#349 = EDGE_LOOP('',(#350,#358,#448,#449));
#350 = ORIENTED_EDGE('',*,*,#351,.F.);
#351 = EDGE_CURVE('',#352,#56,#354,.T.);
#352 = VERTEX_POINT('',#353);
#353 = CARTESIAN_POINT('',(1.25,2.561249694973,5.5));
#354 = LINE('',#355,#356);
#355 = CARTESIAN_POINT('',(1.25,1.22E-15,5.5));
#356 = VECTOR('',#357,1.);
#357 = DIRECTION('',(0.,1.,-2.2E-16));
#358 = ORIENTED_EDGE('',*,*,#359,.F.);
#359 = EDGE_CURVE('',#352,#352,#360,.T.);
#360 = B_SPLINE_CURVE_WITH_KNOTS('',6,(#361,#362,#363,#364,#365,#366,
    #367,#368,#369,#370,#371,#372,#373,#374,#375,#376,#377,#378,#379,
    #380,#381,#382,#383,#384,#385,#386,#387,#388,#389,#390,#391,#392,
    #393,#394,#395,#396,#397,#398,#399,#400,#401,#402,#403,#404,#405,
    #406,#407,#408,#409,#410,#411,#412,#413,#414,#415,#416,#417,#418,
    #419,#420,#421,#422,#423,#424,#425,#426,#427,#428,#429,#430,#431,
    #432,#433,#434,#435,#436,#437,#438,#439,#440,#441,#442,#443,#444,
    #445,#446,#447),.UNSPECIFIED.,.T.,.F.,(7,5,5,5,5,5,5,5,5,5,5,5,5,5,5
    ,5,5,7),(0.,7.269237665937E-02,0.131353017235,0.181977106579,
    0.250684311924,0.295419953557,0.34893038592,0.42843286939,
    0.500763612121,0.538970299975,0.573231539698,0.653083013288,
    0.682157506072,0.750661251124,0.795264418634,0.848616392378,
    0.927883447842,1.),.UNSPECIFIED.);
#361 = CARTESIAN_POINT('',(1.25,2.561249694973,5.5));
#362 = CARTESIAN_POINT('',(1.25,2.561249694973,5.587523383577));
#363 = CARTESIAN_POINT('',(1.242646115982,2.564838699943,5.674982162669)
  );
#364 = CARTESIAN_POINT('',(1.227958404998,2.572006963901,5.761778497926)
  );
#365 = CARTESIAN_POINT('',(1.205968560164,2.582542819442,5.847306143751)
  );
#366 = CARTESIAN_POINT('',(1.176728712526,2.596032388324,5.930922844999)
  );
#367 = CARTESIAN_POINT('',(1.111015456149,2.624722852969,6.077303525344)
  );
#368 = CARTESIAN_POINT('',(1.077014929481,2.639096418739,6.14100645281)
  );
#369 = CARTESIAN_POINT('',(1.03837535873,2.654754511967,6.202763523057)
  );
#370 = CARTESIAN_POINT('',(0.995103073058,2.671367634477,6.262255699327)
  );
#371 = CARTESIAN_POINT('',(0.947206393579,2.688560520665,6.319116520271)
  );
#372 = CARTESIAN_POINT('',(0.849398287486,2.720900543911,6.419364914845)
  );
#373 = CARTESIAN_POINT('',(0.800625084852,2.736017376026,6.463568591742)
  );
#374 = CARTESIAN_POINT('',(0.748425116846,2.750992987108,6.505223417783)
  );
#375 = CARTESIAN_POINT('',(0.692860692577,2.765526121519,6.543995060293)
  );
#376 = CARTESIAN_POINT('',(0.634022856027,2.779301822055,6.579525433004)
  );
#377 = CARTESIAN_POINT('',(0.487908357891,2.809238344101,6.654728464581)
  );
#378 = CARTESIAN_POINT('',(0.397537629135,2.824584298199,6.691575154691)
  );
#379 = CARTESIAN_POINT('',(0.302078745538,2.837008898191,6.720379746763)
  );
#380 = CARTESIAN_POINT('',(0.202953929872,2.845642763789,6.74006564342)
  );
#381 = CARTESIAN_POINT('',(0.101726518655,2.85,6.75));
#382 = CARTESIAN_POINT('',(-6.623469926128E-02,2.85,6.75));
#383 = CARTESIAN_POINT('',(-0.132399568793,2.848153102444,6.745788225868
    ));
#384 = CARTESIAN_POINT('',(-0.197981204462,2.84446529226,6.737382384948)
  );
#385 = CARTESIAN_POINT('',(-0.262472395282,2.839032899847,6.72490824264)
  );
#386 = CARTESIAN_POINT('',(-0.325386403216,2.832031077035,6.708603329007
    ));
#387 = CARTESIAN_POINT('',(-0.459098500623,2.813739793793,6.665157634935
    ));
#388 = CARTESIAN_POINT('',(-0.52900299462,2.801881014806,6.636525317748)
  );
#389 = CARTESIAN_POINT('',(-0.595657330177,2.788479664725,6.603391008121
    ));
#390 = CARTESIAN_POINT('',(-0.658790398387,2.773927530127,6.566228297218
    ));
#391 = CARTESIAN_POINT('',(-0.718186865678,2.758628810087,6.525524590778
    ));
#392 = CARTESIAN_POINT('',(-0.856144822281,2.719716223676,6.416808492402
    ));
#393 = CARTESIAN_POINT('',(-0.93018608073,2.695620449895,6.344989709974)
  );
#394 = CARTESIAN_POINT('',(-0.995690040106,2.671829578512,6.267571215068
    ));
#395 = CARTESIAN_POINT('',(-1.05263716194,2.64936275334,6.185553842817)
  );
#396 = CARTESIAN_POINT('',(-1.101033288539,2.629089589266,6.099757623328
    ));
#397 = CARTESIAN_POINT('',(-1.177044691194,2.595886589482,5.930018026867
    ));
#398 = CARTESIAN_POINT('',(-1.206158651428,2.582451741813,5.84656594506)
  );
#399 = CARTESIAN_POINT('',(-1.228053683943,2.571960463254,5.761215028994
    ));
#400 = CARTESIAN_POINT('',(-1.242677959456,2.564823159083,5.674603429767
    ));
#401 = CARTESIAN_POINT('',(-1.25,2.561249694973,5.58733367994));
#402 = CARTESIAN_POINT('',(-1.25,2.561249694973,5.453868431007));
#403 = CARTESIAN_POINT('',(-1.24795713843,2.562246869683,5.407740207154)
  );
#404 = CARTESIAN_POINT('',(-1.24387155792,2.564240691173,5.361708850465)
  );
#405 = CARTESIAN_POINT('',(-1.237746685699,2.567214476149,5.315869295498
    ));
#406 = CARTESIAN_POINT('',(-1.229589233587,2.571135385958,5.270317889344
    ));
#407 = CARTESIAN_POINT('',(-1.210280412987,2.580275824624,5.184650949829
    ));
#408 = CARTESIAN_POINT('',(-1.199525752248,2.585319579753,5.144461164155
    ));
#409 = CARTESIAN_POINT('',(-1.187150221524,2.591051297578,5.104643576673
    ));
#410 = CARTESIAN_POINT('',(-1.173159741267,2.597428567795,5.065261320154
    ));
#411 = CARTESIAN_POINT('',(-1.157561146643,2.604400964188,5.026380118068
    ));
#412 = CARTESIAN_POINT('',(-1.100277174842,2.629411195888,4.898776233747
    ));
#413 = CARTESIAN_POINT('',(-1.051511210124,2.64982319201,4.81260312954)
  );
#414 = CARTESIAN_POINT('',(-0.994108993959,2.672440723049,4.730256610559
    ));
#415 = CARTESIAN_POINT('',(-0.928064262362,2.696379216828,4.652570585128
    ));
#416 = CARTESIAN_POINT('',(-0.853397400442,2.720601798983,4.580563998343
    ));
#417 = CARTESIAN_POINT('',(-0.739952323313,2.752446135714,4.491809185879
    ));
#418 = CARTESIAN_POINT('',(-0.708543202123,2.760830363722,4.469037703654
    ));
#419 = CARTESIAN_POINT('',(-0.676023368811,2.769038975713,4.447255605509
    ));
#420 = CARTESIAN_POINT('',(-0.642414508355,2.777011365976,4.426534739775
    ));
#421 = CARTESIAN_POINT('',(-0.607742314386,2.784686284406,4.406948350035
    ));
#422 = CARTESIAN_POINT('',(-0.487908357891,2.809238344101,4.345271535419
    ));
#423 = CARTESIAN_POINT('',(-0.397537629135,2.824584298199,4.308424845309
    ));
#424 = CARTESIAN_POINT('',(-0.302078745538,2.837008898191,4.279620253237
    ));
#425 = CARTESIAN_POINT('',(-0.202953929873,2.845642763789,4.25993435658)
  );
#426 = CARTESIAN_POINT('',(-0.101726518655,2.85,4.25));
#427 = CARTESIAN_POINT('',(6.623469926127E-02,2.85,4.25));
#428 = CARTESIAN_POINT('',(0.132399568793,2.848153102444,4.254211774132)
  );
#429 = CARTESIAN_POINT('',(0.197981204462,2.84446529226,4.262617615052)
  );
#430 = CARTESIAN_POINT('',(0.262472395282,2.839032899847,4.27509175736)
  );
#431 = CARTESIAN_POINT('',(0.325386403216,2.832031077035,4.291396670993)
  );
#432 = CARTESIAN_POINT('',(0.45909850061,2.813739793795,4.334842365061)
  );
#433 = CARTESIAN_POINT('',(0.529002994624,2.801881014806,4.363474682252)
  );
#434 = CARTESIAN_POINT('',(0.595657330188,2.788479664723,4.396608991884)
  );
#435 = CARTESIAN_POINT('',(0.658790398389,2.773927530125,4.433771702786)
  );
#436 = CARTESIAN_POINT('',(0.71818686567,2.758628810089,4.474475409215)
  );
#437 = CARTESIAN_POINT('',(0.856144822281,2.719716223676,4.583191507598)
  );
#438 = CARTESIAN_POINT('',(0.93018608073,2.695620449895,4.655010290026)
  );
#439 = CARTESIAN_POINT('',(0.995690040106,2.671829578512,4.732428784932)
  );
#440 = CARTESIAN_POINT('',(1.052637161941,2.64936275334,4.814446157183)
  );
#441 = CARTESIAN_POINT('',(1.101033288539,2.629089589266,4.900242376672)
  );
#442 = CARTESIAN_POINT('',(1.177044691194,2.595886589482,5.069981973133)
  );
#443 = CARTESIAN_POINT('',(1.206158651428,2.582451741813,5.15343405494)
  );
#444 = CARTESIAN_POINT('',(1.228053683943,2.571960463254,5.238784971006)
  );
#445 = CARTESIAN_POINT('',(1.242677959456,2.564823159083,5.325396570233)
  );
#446 = CARTESIAN_POINT('',(1.25,2.561249694973,5.41266632006));
#447 = CARTESIAN_POINT('',(1.25,2.561249694973,5.5));
#448 = ORIENTED_EDGE('',*,*,#351,.T.);
#449 = ORIENTED_EDGE('',*,*,#55,.T.);
#450 = CYLINDRICAL_SURFACE('',#451,1.25);
#451 = AXIS2_PLACEMENT_3D('',#452,#453,#454);
#452 = CARTESIAN_POINT('',(0.,1.22E-15,5.5));
#453 = DIRECTION('',(0.,-1.,2.2E-16));
#454 = DIRECTION('',(1.,0.,0.));
#455 = ADVANCED_FACE('',(#456),#467,.F.);
#456 = FACE_BOUND('',#457,.F.);
#457 = EDGE_LOOP('',(#458,#459,#460,#461));
#458 = ORIENTED_EDGE('',*,*,#125,.T.);
#459 = ORIENTED_EDGE('',*,*,#91,.T.);
#460 = ORIENTED_EDGE('',*,*,#185,.F.);
#461 = ORIENTED_EDGE('',*,*,#462,.F.);
#462 = EDGE_CURVE('',#126,#177,#463,.T.);
#463 = LINE('',#464,#465);
#464 = CARTESIAN_POINT('',(-8.190000000003E-04,-5.6,90.));
#465 = VECTOR('',#466,1.);
#466 = DIRECTION('',(-1.,0.,0.));
#467 = PLANE('',#468);
#468 = AXIS2_PLACEMENT_3D('',#469,#470,#471);
#469 = CARTESIAN_POINT('',(-1.638E-03,-5.6,92.910063629365));
#470 = DIRECTION('',(0.,1.,0.));
#471 = DIRECTION('',(0.,0.,1.));
#472 = ADVANCED_FACE('',(#473),#492,.F.);
#473 = FACE_BOUND('',#474,.F.);
#474 = EDGE_LOOP('',(#475,#483,#490,#491));
#475 = ORIENTED_EDGE('',*,*,#476,.T.);
#476 = EDGE_CURVE('',#109,#477,#479,.T.);
#477 = VERTEX_POINT('',#478);
#478 = CARTESIAN_POINT('',(1.2,0.,4.));
#479 = LINE('',#480,#481);
#480 = CARTESIAN_POINT('',(1.2,0.,0.));
#481 = VECTOR('',#482,1.);
#482 = DIRECTION('',(0.,0.,1.));
#483 = ORIENTED_EDGE('',*,*,#484,.T.);
#484 = EDGE_CURVE('',#477,#477,#485,.T.);
#485 = CIRCLE('',#486,1.2);
#486 = AXIS2_PLACEMENT_3D('',#487,#488,#489);
#487 = CARTESIAN_POINT('',(0.,0.,4.));
#488 = DIRECTION('',(0.,0.,-1.));
#489 = DIRECTION('',(1.,0.,0.));
#490 = ORIENTED_EDGE('',*,*,#476,.F.);
#491 = ORIENTED_EDGE('',*,*,#108,.F.);
#492 = CYLINDRICAL_SURFACE('',#493,1.2);
#493 = AXIS2_PLACEMENT_3D('',#494,#495,#496);
#494 = CARTESIAN_POINT('',(0.,0.,0.));
#495 = DIRECTION('',(0.,0.,-1.));
#496 = DIRECTION('',(1.,0.,0.));
#497 = ADVANCED_FACE('',(#498,#514),#525,.F.);
#498 = FACE_BOUND('',#499,.F.);
#499 = EDGE_LOOP('',(#500,#506,#507,#513));
#500 = ORIENTED_EDGE('',*,*,#501,.T.);
#501 = EDGE_CURVE('',#143,#169,#502,.T.);
#502 = LINE('',#503,#504);
#503 = CARTESIAN_POINT('',(0.,5.1,90.));
#504 = VECTOR('',#505,1.);
#505 = DIRECTION('',(-1.,0.,0.));
#506 = ORIENTED_EDGE('',*,*,#168,.T.);
#507 = ORIENTED_EDGE('',*,*,#508,.T.);
#508 = EDGE_CURVE('',#160,#152,#509,.T.);
#509 = LINE('',#510,#511);
#510 = CARTESIAN_POINT('',(0.,5.1,80.));
#511 = VECTOR('',#512,1.);
#512 = DIRECTION('',(1.,0.,0.));
#513 = ORIENTED_EDGE('',*,*,#151,.F.);
#514 = FACE_BOUND('',#515,.F.);
#515 = EDGE_LOOP('',(#516));
#516 = ORIENTED_EDGE('',*,*,#517,.F.);
#517 = EDGE_CURVE('',#518,#518,#520,.T.);
#518 = VERTEX_POINT('',#519);
#519 = CARTESIAN_POINT('',(1.25,5.1,84.5));
#520 = CIRCLE('',#521,1.25);
#521 = AXIS2_PLACEMENT_3D('',#522,#523,#524);
#522 = CARTESIAN_POINT('',(0.,5.1,84.5));
#523 = DIRECTION('',(0.,-1.,2.2E-16));
#524 = DIRECTION('',(1.,0.,0.));
#525 = PLANE('',#526);
#526 = AXIS2_PLACEMENT_3D('',#527,#528,#529);
#527 = CARTESIAN_POINT('',(0.267489,5.1,85.));
#528 = DIRECTION('',(-0.,-1.,-0.));
#529 = DIRECTION('',(0.,0.,-1.));
#530 = ADVANCED_FACE('',(#531),#535,.T.);
#531 = FACE_BOUND('',#532,.T.);
#532 = EDGE_LOOP('',(#533,#534));
#533 = ORIENTED_EDGE('',*,*,#159,.F.);
#534 = ORIENTED_EDGE('',*,*,#508,.T.);
#535 = PLANE('',#536);
#536 = AXIS2_PLACEMENT_3D('',#537,#538,#539);
#537 = CARTESIAN_POINT('',(0.262902282073,5.449590030085,80.));
#538 = DIRECTION('',(0.,0.,1.));
#539 = DIRECTION('',(1.,0.,0.));
#540 = ADVANCED_FACE('',(#541),#775,.F.);
#541 = FACE_BOUND('',#542,.F.);
#542 = EDGE_LOOP('',(#543,#551,#663,#773,#774));
#543 = ORIENTED_EDGE('',*,*,#544,.F.);
#544 = EDGE_CURVE('',#545,#206,#547,.T.);
#545 = VERTEX_POINT('',#546);
#546 = CARTESIAN_POINT('',(-2.423324163211,1.5,84.5));
#547 = LINE('',#548,#549);
#548 = CARTESIAN_POINT('',(0.,1.5,84.5));
#549 = VECTOR('',#550,1.);
#550 = DIRECTION('',(-1.,-0.,-0.));
#551 = ORIENTED_EDGE('',*,*,#552,.F.);
#552 = EDGE_CURVE('',#553,#545,#555,.T.);
#553 = VERTEX_POINT('',#554);
#554 = CARTESIAN_POINT('',(-2.85,2.73563518E-07,86.));
#555 = B_SPLINE_CURVE_WITH_KNOTS('',6,(#556,#557,#558,#559,#560,#561,
    #562,#563,#564,#565,#566,#567,#568,#569,#570,#571,#572,#573,#574,
    #575,#576,#577,#578,#579,#580,#581,#582,#583,#584,#585,#586,#587,
    #588,#589,#590,#591,#592,#593,#594,#595,#596,#597,#598,#599,#600,
    #601,#602,#603,#604,#605,#606,#607,#608,#609,#610,#611,#612,#613,
    #614,#615,#616,#617,#618,#619,#620,#621,#622,#623,#624,#625,#626,
    #627,#628,#629,#630,#631,#632,#633,#634,#635,#636,#637,#638,#639,
    #640,#641,#642,#643,#644,#645,#646,#647,#648,#649,#650,#651,#652,
    #653,#654,#655,#656,#657,#658,#659,#660,#661,#662),.UNSPECIFIED.,.T.
  ,.F.,(7,5,5,5,5,5,5,5,5,5,5,5,5,5,5,5,5,5,5,5,5,7),(0.,
    9.24523050166E-02,0.126730986025,0.159181824327,0.209589490124,
    0.249219500008,0.313267856471,0.340081115157,0.371703158196,
    0.406425953509,0.451459596539,0.499255913549,0.547297353812,
    0.592130197071,0.659061219919,0.709619149947,0.749367296104,
    0.813606579472,0.840499764986,0.872216065985,0.907042361877,1.),
  .UNSPECIFIED.);
#556 = CARTESIAN_POINT('',(-2.423324163211,1.5,84.5));
#557 = CARTESIAN_POINT('',(-2.423324163211,1.5,84.634684466044));
#558 = CARTESIAN_POINT('',(-2.432306158557,1.485488840096,84.76884611388
    ));
#559 = CARTESIAN_POINT('',(-2.450143823737,1.456672651526,
    84.901135357601));
#560 = CARTESIAN_POINT('',(-2.475843080825,1.413694525235,
    85.030125465854));
#561 = CARTESIAN_POINT('',(-2.507581607017,1.356737521278,
    85.154169609964));
#562 = CARTESIAN_POINT('',(-2.556311004308,1.260407345856,
    85.314825469255));
#563 = CARTESIAN_POINT('',(-2.570036721723,1.23247851155,85.35741042672)
  );
#564 = CARTESIAN_POINT('',(-2.584209772098,1.202674108939,
    85.399065234571));
#565 = CARTESIAN_POINT('',(-2.598726619774,1.170988602952,
    85.439720423964));
#566 = CARTESIAN_POINT('',(-2.613478210677,1.137414221424,
    85.479296890662));
#567 = CARTESIAN_POINT('',(-2.642429011413,1.068360807772,
    85.554065913386));
#568 = CARTESIAN_POINT('',(-2.656617172767,1.033075346851,
    85.589383439878));
#569 = CARTESIAN_POINT('',(-2.670817502443,0.996076924812,
    85.623581599144));
#570 = CARTESIAN_POINT('',(-2.684927462716,0.957358154131,
    85.656573457046));
#571 = CARTESIAN_POINT('',(-2.698839206418,0.916913563751,
    85.688261180307));
#572 = CARTESIAN_POINT('',(-2.733566105003,0.809230628693,
    85.765562667401));
#573 = CARTESIAN_POINT('',(-2.753981106906,0.739427389491,
    85.809267522552));
#574 = CARTESIAN_POINT('',(-2.773193474281,0.665483351402,
    85.849079393431));
#575 = CARTESIAN_POINT('',(-2.790701978037,0.58760928128,85.884444536381
    ));
#576 = CARTESIAN_POINT('',(-2.806020222397,0.506075772991,
    85.914816293208));
#577 = CARTESIAN_POINT('',(-2.828671343311,0.354498174271,
    85.959165243054));
#578 = CARTESIAN_POINT('',(-2.837007063945,0.285754313964,
    85.975250485814));
#579 = CARTESIAN_POINT('',(-2.843449376766,0.215440618555,
    85.987554875944));
#580 = CARTESIAN_POINT('',(-2.847813877679,0.144041773899,
    85.995845773414));
#581 = CARTESIAN_POINT('',(-2.85,7.20591387593E-02,86.));
#582 = CARTESIAN_POINT('',(-2.85,-0.116458951667,86.));
#583 = CARTESIAN_POINT('',(-2.844289265534,-0.232241170654,
    85.989149844719));
#584 = CARTESIAN_POINT('',(-2.832993113346,-0.345578540994,
    85.967686006986));
#585 = CARTESIAN_POINT('',(-2.816724009854,-0.454748066633,
    85.936352034206));
#586 = CARTESIAN_POINT('',(-2.796559570589,-0.558177435135,
    85.896392948447));
#587 = CARTESIAN_POINT('',(-2.764292637369,-0.694913718182,
    85.830077475181));
#588 = CARTESIAN_POINT('',(-2.754289576122,-0.73415151421,
    85.809259476607));
#589 = CARTESIAN_POINT('',(-2.743876351923,-0.772254752717,
    85.787271763619));
#590 = CARTESIAN_POINT('',(-2.733122804948,-0.809205605419,
    85.764190146344));
#591 = CARTESIAN_POINT('',(-2.722097687849,-0.844989898107,
    85.740087654161));
#592 = CARTESIAN_POINT('',(-2.697625791234,-0.920410902703,
    85.68548830264));
#593 = CARTESIAN_POINT('',(-2.684097409222,-0.959592826135,
    85.654616120382));
#594 = CARTESIAN_POINT('',(-2.670386877622,-0.997145694845,
    85.622517395311));
#595 = CARTESIAN_POINT('',(-2.656592921718,-1.033074716449,
    85.589281484589));
#596 = CARTESIAN_POINT('',(-2.642809531368,-1.06738676315,
    85.554988015066));
#597 = CARTESIAN_POINT('',(-2.614100409578,-1.135999257569,
    85.48096687027));
#598 = CARTESIAN_POINT('',(-2.59919364472,-1.169972375723,
    85.441032065787));
#599 = CARTESIAN_POINT('',(-2.584523591506,-1.202018528486,
    85.399994964045));
#600 = CARTESIAN_POINT('',(-2.57020268389,-1.232145779166,
    85.357937206664));
#601 = CARTESIAN_POINT('',(-2.556337611614,-1.260359870988,
    85.314930389161));
#602 = CARTESIAN_POINT('',(-2.525768819603,-1.320777639362,
    85.214108541063));
#603 = CARTESIAN_POINT('',(-2.509439388169,-1.351688718845,
    85.155670808915));
#604 = CARTESIAN_POINT('',(-2.494275591958,-1.379371163373,
    85.095901842151));
#605 = CARTESIAN_POINT('',(-2.48049215543,-1.403804550308,85.03496451899
    ));
#606 = CARTESIAN_POINT('',(-2.468278019924,-1.424967633497,
    84.973007041115));
#607 = CARTESIAN_POINT('',(-2.446659711339,-1.46179330445,
    84.843465463679));
#608 = CARTESIAN_POINT('',(-2.43747382719,-1.477038431546,
    84.775770372064));
#609 = CARTESIAN_POINT('',(-2.430438085245,-1.488507996791,
    84.70733392045));
#610 = CARTESIAN_POINT('',(-2.425696188583,-1.496167386474,
    84.638402768936));
#611 = CARTESIAN_POINT('',(-2.423324163211,-1.5,84.569214965488));
#612 = CARTESIAN_POINT('',(-2.423324163211,-1.5,84.430430065793));
#613 = CARTESIAN_POINT('',(-2.42572057567,-1.496127973689,
    84.360887973574));
#614 = CARTESIAN_POINT('',(-2.430511179561,-1.488389935089,
    84.291606489467));
#615 = CARTESIAN_POINT('',(-2.43761838352,-1.476802779074,
    84.222827144772));
#616 = CARTESIAN_POINT('',(-2.446895605502,-1.46140174491,
    84.154800296109));
#617 = CARTESIAN_POINT('',(-2.468621131457,-1.424373265121,
    84.025245887593));
#618 = CARTESIAN_POINT('',(-2.4808164406,-1.403230496228,83.963587865538
    ));
#619 = CARTESIAN_POINT('',(-2.494563786208,-1.378847046906,
    83.902943739322));
#620 = CARTESIAN_POINT('',(-2.509676474036,-1.351243824042,
    83.843459655022));
#621 = CARTESIAN_POINT('',(-2.525942558322,-1.320440875753,
    83.78529620383));
#622 = CARTESIAN_POINT('',(-2.568790382624,-1.235737623488,
    83.644031291586));
#623 = CARTESIAN_POINT('',(-2.596512584418,-1.177920855937,
    83.562743410415));
#624 = CARTESIAN_POINT('',(-2.625577002283,-1.112993345737,
    83.485196878362));
#625 = CARTESIAN_POINT('',(-2.655190182308,-1.040871283026,
    83.411947082032));
#626 = CARTESIAN_POINT('',(-2.684471559232,-0.961465495592,
    83.343720958574));
#627 = CARTESIAN_POINT('',(-2.733566105003,-0.809230628693,
    83.234437332599));
#628 = CARTESIAN_POINT('',(-2.753981106906,-0.739427389491,
    83.190732477448));
#629 = CARTESIAN_POINT('',(-2.773193474281,-0.665483351402,
    83.150920606569));
#630 = CARTESIAN_POINT('',(-2.790701978037,-0.58760928128,
    83.115555463619));
#631 = CARTESIAN_POINT('',(-2.806020222397,-0.506075772991,
    83.085183706792));
#632 = CARTESIAN_POINT('',(-2.828671343315,-0.354498174245,
    83.040834756939));
#633 = CARTESIAN_POINT('',(-2.837007063943,-0.28575431397,
    83.024749514191));
#634 = CARTESIAN_POINT('',(-2.843449376764,-0.215440618583,
    83.01244512406));
#635 = CARTESIAN_POINT('',(-2.84781387768,-0.144041773908,
    83.004154226582));
#636 = CARTESIAN_POINT('',(-2.85,-7.20591387309E-02,83.));
#637 = CARTESIAN_POINT('',(-2.85,0.116458951667,83.));
#638 = CARTESIAN_POINT('',(-2.844289265534,0.232241170654,
    83.010850155281));
#639 = CARTESIAN_POINT('',(-2.832993113346,0.345578540994,
    83.032313993014));
#640 = CARTESIAN_POINT('',(-2.816724009854,0.454748066633,
    83.063647965794));
#641 = CARTESIAN_POINT('',(-2.796559570589,0.558177435135,
    83.103607051553));
#642 = CARTESIAN_POINT('',(-2.764292638422,0.694913713719,
    83.169922522655));
#643 = CARTESIAN_POINT('',(-2.754289575782,0.734151514892,
    83.190740524203));
#644 = CARTESIAN_POINT('',(-2.743876350808,0.772254756699,83.21272823878
    ));
#645 = CARTESIAN_POINT('',(-2.733122804681,0.809205606852,
    83.235809854158));
#646 = CARTESIAN_POINT('',(-2.722097688993,0.844989894583,
    83.259912343289));
#647 = CARTESIAN_POINT('',(-2.697625791234,0.920410902703,83.31451169736
    ));
#648 = CARTESIAN_POINT('',(-2.684097409222,0.959592826135,
    83.345383879618));
#649 = CARTESIAN_POINT('',(-2.670386877622,0.997145694845,
    83.377482604689));
#650 = CARTESIAN_POINT('',(-2.656592921718,1.033074716449,
    83.410718515411));
#651 = CARTESIAN_POINT('',(-2.642809531368,1.06738676315,83.445011984934
    ));
#652 = CARTESIAN_POINT('',(-2.614100409578,1.135999257569,83.51903312973
    ));
#653 = CARTESIAN_POINT('',(-2.59919364472,1.169972375723,83.558967934213
    ));
#654 = CARTESIAN_POINT('',(-2.584523591506,1.202018528486,
    83.600005035955));
#655 = CARTESIAN_POINT('',(-2.57020268389,1.232145779166,83.642062793336
    ));
#656 = CARTESIAN_POINT('',(-2.556337611614,1.260359870988,83.68506961084
    ));
#657 = CARTESIAN_POINT('',(-2.507506549069,1.356872151397,
    83.846123994951));
#658 = CARTESIAN_POINT('',(-2.475794492775,1.413775814531,
    83.970118542099));
#659 = CARTESIAN_POINT('',(-2.450118426914,1.45671367681,84.099052595572
    ));
#660 = CARTESIAN_POINT('',(-2.432297569142,1.48550271801,84.231281443555
    ));
#661 = CARTESIAN_POINT('',(-2.423324163211,1.5,84.365379961844));
#662 = CARTESIAN_POINT('',(-2.423324163211,1.5,84.5));
#663 = ORIENTED_EDGE('',*,*,#664,.F.);
#664 = EDGE_CURVE('',#545,#553,#665,.T.);
#665 = B_SPLINE_CURVE_WITH_KNOTS('',6,(#666,#667,#668,#669,#670,#671,
    #672,#673,#674,#675,#676,#677,#678,#679,#680,#681,#682,#683,#684,
    #685,#686,#687,#688,#689,#690,#691,#692,#693,#694,#695,#696,#697,
    #698,#699,#700,#701,#702,#703,#704,#705,#706,#707,#708,#709,#710,
    #711,#712,#713,#714,#715,#716,#717,#718,#719,#720,#721,#722,#723,
    #724,#725,#726,#727,#728,#729,#730,#731,#732,#733,#734,#735,#736,
    #737,#738,#739,#740,#741,#742,#743,#744,#745,#746,#747,#748,#749,
    #750,#751,#752,#753,#754,#755,#756,#757,#758,#759,#760,#761,#762,
    #763,#764,#765,#766,#767,#768,#769,#770,#771,#772),.UNSPECIFIED.,.T.
  ,.F.,(7,5,5,5,5,5,5,5,5,5,5,5,5,5,5,5,5,5,5,5,5,7),(0.,
    9.24523050166E-02,0.126730986025,0.159181824327,0.209589490124,
    0.249219500008,0.313267856471,0.340081115157,0.371703158196,
    0.406425953509,0.451459596539,0.499255913549,0.547297353812,
    0.592130197071,0.659061219919,0.709619149947,0.749367296104,
    0.813606579472,0.840499764986,0.872216065985,0.907042361877,1.),
  .UNSPECIFIED.);
#666 = CARTESIAN_POINT('',(-2.423324163211,1.5,84.5));
#667 = CARTESIAN_POINT('',(-2.423324163211,1.5,84.634684466044));
#668 = CARTESIAN_POINT('',(-2.432306158557,1.485488840096,84.76884611388
    ));
#669 = CARTESIAN_POINT('',(-2.450143823737,1.456672651526,
    84.901135357601));
#670 = CARTESIAN_POINT('',(-2.475843080825,1.413694525235,
    85.030125465854));
#671 = CARTESIAN_POINT('',(-2.507581607017,1.356737521278,
    85.154169609964));
#672 = CARTESIAN_POINT('',(-2.556311004308,1.260407345856,
    85.314825469255));
#673 = CARTESIAN_POINT('',(-2.570036721723,1.23247851155,85.35741042672)
  );
#674 = CARTESIAN_POINT('',(-2.584209772098,1.202674108939,
    85.399065234571));
#675 = CARTESIAN_POINT('',(-2.598726619774,1.170988602952,
    85.439720423964));
#676 = CARTESIAN_POINT('',(-2.613478210677,1.137414221424,
    85.479296890662));
#677 = CARTESIAN_POINT('',(-2.642429011413,1.068360807772,
    85.554065913386));
#678 = CARTESIAN_POINT('',(-2.656617172767,1.033075346851,
    85.589383439878));
#679 = CARTESIAN_POINT('',(-2.670817502443,0.996076924812,
    85.623581599144));
#680 = CARTESIAN_POINT('',(-2.684927462716,0.957358154131,
    85.656573457046));
#681 = CARTESIAN_POINT('',(-2.698839206418,0.916913563751,
    85.688261180307));
#682 = CARTESIAN_POINT('',(-2.733566105003,0.809230628693,
    85.765562667401));
#683 = CARTESIAN_POINT('',(-2.753981106906,0.739427389491,
    85.809267522552));
#684 = CARTESIAN_POINT('',(-2.773193474281,0.665483351402,
    85.849079393431));
#685 = CARTESIAN_POINT('',(-2.790701978037,0.58760928128,85.884444536381
    ));
#686 = CARTESIAN_POINT('',(-2.806020222397,0.506075772991,
    85.914816293208));
#687 = CARTESIAN_POINT('',(-2.828671343311,0.354498174271,
    85.959165243054));
#688 = CARTESIAN_POINT('',(-2.837007063945,0.285754313964,
    85.975250485814));
#689 = CARTESIAN_POINT('',(-2.843449376766,0.215440618555,
    85.987554875944));
#690 = CARTESIAN_POINT('',(-2.847813877679,0.144041773899,
    85.995845773414));
#691 = CARTESIAN_POINT('',(-2.85,7.20591387593E-02,86.));
#692 = CARTESIAN_POINT('',(-2.85,-0.116458951667,86.));
#693 = CARTESIAN_POINT('',(-2.844289265534,-0.232241170654,
    85.989149844719));
#694 = CARTESIAN_POINT('',(-2.832993113346,-0.345578540994,
    85.967686006986));
#695 = CARTESIAN_POINT('',(-2.816724009854,-0.454748066633,
    85.936352034206));
#696 = CARTESIAN_POINT('',(-2.796559570589,-0.558177435135,
    85.896392948447));
#697 = CARTESIAN_POINT('',(-2.764292637369,-0.694913718182,
    85.830077475181));
#698 = CARTESIAN_POINT('',(-2.754289576122,-0.73415151421,
    85.809259476607));
#699 = CARTESIAN_POINT('',(-2.743876351923,-0.772254752717,
    85.787271763619));
#700 = CARTESIAN_POINT('',(-2.733122804948,-0.809205605419,
    85.764190146344));
#701 = CARTESIAN_POINT('',(-2.722097687849,-0.844989898107,
    85.740087654161));
#702 = CARTESIAN_POINT('',(-2.697625791234,-0.920410902703,
    85.68548830264));
#703 = CARTESIAN_POINT('',(-2.684097409222,-0.959592826135,
    85.654616120382));
#704 = CARTESIAN_POINT('',(-2.670386877622,-0.997145694845,
    85.622517395311));
#705 = CARTESIAN_POINT('',(-2.656592921718,-1.033074716449,
    85.589281484589));
#706 = CARTESIAN_POINT('',(-2.642809531368,-1.06738676315,
    85.554988015066));
#707 = CARTESIAN_POINT('',(-2.614100409578,-1.135999257569,
    85.48096687027));
#708 = CARTESIAN_POINT('',(-2.59919364472,-1.169972375723,
    85.441032065787));
#709 = CARTESIAN_POINT('',(-2.584523591506,-1.202018528486,
    85.399994964045));
#710 = CARTESIAN_POINT('',(-2.57020268389,-1.232145779166,
    85.357937206664));
#711 = CARTESIAN_POINT('',(-2.556337611614,-1.260359870988,
    85.314930389161));
#712 = CARTESIAN_POINT('',(-2.525768819603,-1.320777639362,
    85.214108541063));
#713 = CARTESIAN_POINT('',(-2.509439388169,-1.351688718845,
    85.155670808915));
#714 = CARTESIAN_POINT('',(-2.494275591958,-1.379371163373,
    85.095901842151));
#715 = CARTESIAN_POINT('',(-2.48049215543,-1.403804550308,85.03496451899
    ));
#716 = CARTESIAN_POINT('',(-2.468278019924,-1.424967633497,
    84.973007041115));
#717 = CARTESIAN_POINT('',(-2.446659711339,-1.46179330445,
    84.843465463679));
#718 = CARTESIAN_POINT('',(-2.43747382719,-1.477038431546,
    84.775770372064));
#719 = CARTESIAN_POINT('',(-2.430438085245,-1.488507996791,
    84.70733392045));
#720 = CARTESIAN_POINT('',(-2.425696188583,-1.496167386474,
    84.638402768936));
#721 = CARTESIAN_POINT('',(-2.423324163211,-1.5,84.569214965488));
#722 = CARTESIAN_POINT('',(-2.423324163211,-1.5,84.430430065793));
#723 = CARTESIAN_POINT('',(-2.42572057567,-1.496127973689,
    84.360887973574));
#724 = CARTESIAN_POINT('',(-2.430511179561,-1.488389935089,
    84.291606489467));
#725 = CARTESIAN_POINT('',(-2.43761838352,-1.476802779074,
    84.222827144772));
#726 = CARTESIAN_POINT('',(-2.446895605502,-1.46140174491,
    84.154800296109));
#727 = CARTESIAN_POINT('',(-2.468621131457,-1.424373265121,
    84.025245887593));
#728 = CARTESIAN_POINT('',(-2.4808164406,-1.403230496228,83.963587865538
    ));
#729 = CARTESIAN_POINT('',(-2.494563786208,-1.378847046906,
    83.902943739322));
#730 = CARTESIAN_POINT('',(-2.509676474036,-1.351243824042,
    83.843459655022));
#731 = CARTESIAN_POINT('',(-2.525942558322,-1.320440875753,
    83.78529620383));
#732 = CARTESIAN_POINT('',(-2.568790382624,-1.235737623488,
    83.644031291586));
#733 = CARTESIAN_POINT('',(-2.596512584418,-1.177920855937,
    83.562743410415));
#734 = CARTESIAN_POINT('',(-2.625577002283,-1.112993345737,
    83.485196878362));
#735 = CARTESIAN_POINT('',(-2.655190182308,-1.040871283026,
    83.411947082032));
#736 = CARTESIAN_POINT('',(-2.684471559232,-0.961465495592,
    83.343720958574));
#737 = CARTESIAN_POINT('',(-2.733566105003,-0.809230628693,
    83.234437332599));
#738 = CARTESIAN_POINT('',(-2.753981106906,-0.739427389491,
    83.190732477448));
#739 = CARTESIAN_POINT('',(-2.773193474281,-0.665483351402,
    83.150920606569));
#740 = CARTESIAN_POINT('',(-2.790701978037,-0.58760928128,
    83.115555463619));
#741 = CARTESIAN_POINT('',(-2.806020222397,-0.506075772991,
    83.085183706792));
#742 = CARTESIAN_POINT('',(-2.828671343315,-0.354498174245,
    83.040834756939));
#743 = CARTESIAN_POINT('',(-2.837007063943,-0.28575431397,
    83.024749514191));
#744 = CARTESIAN_POINT('',(-2.843449376764,-0.215440618583,
    83.01244512406));
#745 = CARTESIAN_POINT('',(-2.84781387768,-0.144041773908,
    83.004154226582));
#746 = CARTESIAN_POINT('',(-2.85,-7.20591387309E-02,83.));
#747 = CARTESIAN_POINT('',(-2.85,0.116458951667,83.));
#748 = CARTESIAN_POINT('',(-2.844289265534,0.232241170654,
    83.010850155281));
#749 = CARTESIAN_POINT('',(-2.832993113346,0.345578540994,
    83.032313993014));
#750 = CARTESIAN_POINT('',(-2.816724009854,0.454748066633,
    83.063647965794));
#751 = CARTESIAN_POINT('',(-2.796559570589,0.558177435135,
    83.103607051553));
#752 = CARTESIAN_POINT('',(-2.764292638422,0.694913713719,
    83.169922522655));
#753 = CARTESIAN_POINT('',(-2.754289575782,0.734151514892,
    83.190740524203));
#754 = CARTESIAN_POINT('',(-2.743876350808,0.772254756699,83.21272823878
    ));
#755 = CARTESIAN_POINT('',(-2.733122804681,0.809205606852,
    83.235809854158));
#756 = CARTESIAN_POINT('',(-2.722097688993,0.844989894583,
    83.259912343289));
#757 = CARTESIAN_POINT('',(-2.697625791234,0.920410902703,83.31451169736
    ));
#758 = CARTESIAN_POINT('',(-2.684097409222,0.959592826135,
    83.345383879618));
#759 = CARTESIAN_POINT('',(-2.670386877622,0.997145694845,
    83.377482604689));
#760 = CARTESIAN_POINT('',(-2.656592921718,1.033074716449,
    83.410718515411));
#761 = CARTESIAN_POINT('',(-2.642809531368,1.06738676315,83.445011984934
    ));
#762 = CARTESIAN_POINT('',(-2.614100409578,1.135999257569,83.51903312973
    ));
#763 = CARTESIAN_POINT('',(-2.59919364472,1.169972375723,83.558967934213
    ));
#764 = CARTESIAN_POINT('',(-2.584523591506,1.202018528486,
    83.600005035955));
#765 = CARTESIAN_POINT('',(-2.57020268389,1.232145779166,83.642062793336
    ));
#766 = CARTESIAN_POINT('',(-2.556337611614,1.260359870988,83.68506961084
    ));
#767 = CARTESIAN_POINT('',(-2.507506549069,1.356872151397,
    83.846123994951));
#768 = CARTESIAN_POINT('',(-2.475794492775,1.413775814531,
    83.970118542099));
#769 = CARTESIAN_POINT('',(-2.450118426914,1.45671367681,84.099052595572
    ));
#770 = CARTESIAN_POINT('',(-2.432297569142,1.48550271801,84.231281443555
    ));
#771 = CARTESIAN_POINT('',(-2.423324163211,1.5,84.365379961844));
#772 = CARTESIAN_POINT('',(-2.423324163211,1.5,84.5));
#773 = ORIENTED_EDGE('',*,*,#544,.T.);
#774 = ORIENTED_EDGE('',*,*,#205,.T.);
#775 = CYLINDRICAL_SURFACE('',#776,1.5);
#776 = AXIS2_PLACEMENT_3D('',#777,#778,#779);
#777 = CARTESIAN_POINT('',(0.,0.,84.5));
#778 = DIRECTION('',(1.,0.,0.));
#779 = DIRECTION('',(0.,1.,0.));
#780 = ADVANCED_FACE('',(#781),#1015,.F.);
#781 = FACE_BOUND('',#782,.F.);
#782 = EDGE_LOOP('',(#783,#791,#903,#1013,#1014));
#783 = ORIENTED_EDGE('',*,*,#784,.F.);
#784 = EDGE_CURVE('',#785,#271,#787,.T.);
#785 = VERTEX_POINT('',#786);
#786 = CARTESIAN_POINT('',(-2.423324163211,1.5,5.5));
#787 = LINE('',#788,#789);
#788 = CARTESIAN_POINT('',(0.,1.5,5.5));
#789 = VECTOR('',#790,1.);
#790 = DIRECTION('',(-1.,-0.,-0.));
#791 = ORIENTED_EDGE('',*,*,#792,.F.);
#792 = EDGE_CURVE('',#793,#785,#795,.T.);
#793 = VERTEX_POINT('',#794);
#794 = CARTESIAN_POINT('',(-2.85,1.8131042E-08,4.));
#795 = B_SPLINE_CURVE_WITH_KNOTS('',6,(#796,#797,#798,#799,#800,#801,
    #802,#803,#804,#805,#806,#807,#808,#809,#810,#811,#812,#813,#814,
    #815,#816,#817,#818,#819,#820,#821,#822,#823,#824,#825,#826,#827,
    #828,#829,#830,#831,#832,#833,#834,#835,#836,#837,#838,#839,#840,
    #841,#842,#843,#844,#845,#846,#847,#848,#849,#850,#851,#852,#853,
    #854,#855,#856,#857,#858,#859,#860,#861,#862,#863,#864,#865,#866,
    #867,#868,#869,#870,#871,#872,#873,#874,#875,#876,#877,#878,#879,
    #880,#881,#882,#883,#884,#885,#886,#887,#888,#889,#890,#891,#892,
    #893,#894,#895,#896,#897,#898,#899,#900,#901,#902),.UNSPECIFIED.,.T.
  ,.F.,(7,5,5,5,5,5,5,5,5,5,5,5,5,5,5,5,5,5,5,5,5,7),(0.,
    9.245231821311E-02,0.126731004114,0.159181847048,0.20958952004,
    0.249219535597,0.313267901252,0.340081160822,0.371703201684,
    0.406425994604,0.451459634533,0.499255948251,0.547297385206,
    0.592130225376,0.659061243614,0.70961917016,0.749367313564,
    0.813606592456,0.840499776097,0.872216074886,0.907042368353,1.),
  .UNSPECIFIED.);
#796 = CARTESIAN_POINT('',(-2.423324163211,1.5,5.5));
#797 = CARTESIAN_POINT('',(-2.423324163211,1.5,5.634684466044));
#798 = CARTESIAN_POINT('',(-2.432306158557,1.485488840096,5.76884611388)
  );
#799 = CARTESIAN_POINT('',(-2.450143823737,1.456672651526,5.901135357601
    ));
#800 = CARTESIAN_POINT('',(-2.475843080825,1.413694525235,6.030125465854
    ));
#801 = CARTESIAN_POINT('',(-2.507581607017,1.356737521278,6.154169609964
    ));
#802 = CARTESIAN_POINT('',(-2.556311004308,1.260407345857,6.314825469254
    ));
#803 = CARTESIAN_POINT('',(-2.570036721723,1.23247851155,6.35741042672)
  );
#804 = CARTESIAN_POINT('',(-2.584209772098,1.202674108939,6.39906523457)
  );
#805 = CARTESIAN_POINT('',(-2.598726619774,1.170988602952,6.439720423963
    ));
#806 = CARTESIAN_POINT('',(-2.613478210677,1.137414221424,6.479296890662
    ));
#807 = CARTESIAN_POINT('',(-2.642429011413,1.068360807773,6.554065913385
    ));
#808 = CARTESIAN_POINT('',(-2.656617172767,1.033075346852,6.589383439878
    ));
#809 = CARTESIAN_POINT('',(-2.670817502443,0.996076924812,6.623581599143
    ));
#810 = CARTESIAN_POINT('',(-2.684927462716,0.957358154132,6.656573457045
    ));
#811 = CARTESIAN_POINT('',(-2.698839206418,0.916913563751,6.688261180307
    ));
#812 = CARTESIAN_POINT('',(-2.733566105003,0.809230628694,6.765562667401
    ));
#813 = CARTESIAN_POINT('',(-2.753981106906,0.739427389491,6.809267522552
    ));
#814 = CARTESIAN_POINT('',(-2.773193474281,0.665483351402,6.849079393431
    ));
#815 = CARTESIAN_POINT('',(-2.790701978037,0.58760928128,6.884444536381)
  );
#816 = CARTESIAN_POINT('',(-2.806020222397,0.506075772991,6.914816293208
    ));
#817 = CARTESIAN_POINT('',(-2.828671343315,0.354498174245,6.959165243061
    ));
#818 = CARTESIAN_POINT('',(-2.837007063943,0.28575431397,6.975250485809)
  );
#819 = CARTESIAN_POINT('',(-2.843449376764,0.215440618583,6.98755487594)
  );
#820 = CARTESIAN_POINT('',(-2.84781387768,0.144041773908,6.995845773418)
  );
#821 = CARTESIAN_POINT('',(-2.85,7.205913873091E-02,7.));
#822 = CARTESIAN_POINT('',(-2.85,-0.116458951667,7.));
#823 = CARTESIAN_POINT('',(-2.844289265534,-0.232241170654,
    6.989149844719));
#824 = CARTESIAN_POINT('',(-2.832993113346,-0.345578540994,
    6.967686006986));
#825 = CARTESIAN_POINT('',(-2.816724009854,-0.454748066633,
    6.936352034206));
#826 = CARTESIAN_POINT('',(-2.796559570589,-0.558177435135,
    6.896392948447));
#827 = CARTESIAN_POINT('',(-2.764292638422,-0.694913713719,
    6.830077477345));
#828 = CARTESIAN_POINT('',(-2.754289575782,-0.734151514892,
    6.809259475797));
#829 = CARTESIAN_POINT('',(-2.743876350808,-0.772254756699,6.78727176122
    ));
#830 = CARTESIAN_POINT('',(-2.733122804681,-0.809205606852,
    6.764190145842));
#831 = CARTESIAN_POINT('',(-2.722097688993,-0.844989894583,
    6.740087656711));
#832 = CARTESIAN_POINT('',(-2.697625791234,-0.920410902703,6.68548830264
    ));
#833 = CARTESIAN_POINT('',(-2.684097409222,-0.959592826135,
    6.654616120382));
#834 = CARTESIAN_POINT('',(-2.670386877622,-0.997145694845,
    6.622517395311));
#835 = CARTESIAN_POINT('',(-2.656592921718,-1.033074716449,
    6.589281484589));
#836 = CARTESIAN_POINT('',(-2.642809531368,-1.06738676315,6.554988015066
    ));
#837 = CARTESIAN_POINT('',(-2.614100409578,-1.135999257569,6.48096687027
    ));
#838 = CARTESIAN_POINT('',(-2.59919364472,-1.169972375723,6.441032065787
    ));
#839 = CARTESIAN_POINT('',(-2.584523591506,-1.202018528485,
    6.399994964045));
#840 = CARTESIAN_POINT('',(-2.57020268389,-1.232145779165,6.357937206664
    ));
#841 = CARTESIAN_POINT('',(-2.556337611614,-1.260359870988,
    6.314930389161));
#842 = CARTESIAN_POINT('',(-2.525768819603,-1.320777639362,
    6.214108541063));
#843 = CARTESIAN_POINT('',(-2.509439388169,-1.351688718844,
    6.155670808915));
#844 = CARTESIAN_POINT('',(-2.494275591958,-1.379371163373,
    6.095901842152));
#845 = CARTESIAN_POINT('',(-2.48049215543,-1.403804550308,6.03496451899)
  );
#846 = CARTESIAN_POINT('',(-2.468278019924,-1.424967633497,
    5.973007041115));
#847 = CARTESIAN_POINT('',(-2.446659711339,-1.46179330445,5.843465463679
    ));
#848 = CARTESIAN_POINT('',(-2.43747382719,-1.477038431546,5.775770372064
    ));
#849 = CARTESIAN_POINT('',(-2.430438085245,-1.488507996791,5.70733392045
    ));
#850 = CARTESIAN_POINT('',(-2.425696188583,-1.496167386474,
    5.638402768936));
#851 = CARTESIAN_POINT('',(-2.423324163211,-1.5,5.569214965488));
#852 = CARTESIAN_POINT('',(-2.423324163211,-1.5,5.430430065793));
#853 = CARTESIAN_POINT('',(-2.42572057567,-1.496127973689,5.360887973574
    ));
#854 = CARTESIAN_POINT('',(-2.430511179561,-1.488389935089,
    5.291606489467));
#855 = CARTESIAN_POINT('',(-2.437618383519,-1.476802779074,
    5.222827144772));
#856 = CARTESIAN_POINT('',(-2.446895605502,-1.46140174491,5.154800296109
    ));
#857 = CARTESIAN_POINT('',(-2.468621131457,-1.424373265121,
    5.025245887593));
#858 = CARTESIAN_POINT('',(-2.4808164406,-1.403230496228,4.963587865538)
  );
#859 = CARTESIAN_POINT('',(-2.494563786208,-1.378847046906,
    4.902943739322));
#860 = CARTESIAN_POINT('',(-2.509676474036,-1.351243824042,
    4.843459655022));
#861 = CARTESIAN_POINT('',(-2.525942558322,-1.320440875753,4.78529620383
    ));
#862 = CARTESIAN_POINT('',(-2.568790382624,-1.235737623488,
    4.644031291587));
#863 = CARTESIAN_POINT('',(-2.596512584418,-1.177920855937,
    4.562743410415));
#864 = CARTESIAN_POINT('',(-2.625577002283,-1.112993345737,
    4.485196878363));
#865 = CARTESIAN_POINT('',(-2.655190182308,-1.040871283026,
    4.411947082032));
#866 = CARTESIAN_POINT('',(-2.684471559232,-0.961465495592,
    4.343720958575));
#867 = CARTESIAN_POINT('',(-2.733566105003,-0.809230628694,
    4.234437332599));
#868 = CARTESIAN_POINT('',(-2.753981106906,-0.739427389491,
    4.190732477448));
#869 = CARTESIAN_POINT('',(-2.773193474281,-0.665483351402,
    4.150920606569));
#870 = CARTESIAN_POINT('',(-2.790701978037,-0.58760928128,4.115555463619
    ));
#871 = CARTESIAN_POINT('',(-2.806020222397,-0.506075772991,
    4.085183706792));
#872 = CARTESIAN_POINT('',(-2.828671343311,-0.354498174271,
    4.040834756947));
#873 = CARTESIAN_POINT('',(-2.837007063945,-0.285754313964,
    4.024749514186));
#874 = CARTESIAN_POINT('',(-2.843449376766,-0.215440618555,
    4.012445124056));
#875 = CARTESIAN_POINT('',(-2.847813877679,-0.1440417739,4.004154226586)
  );
#876 = CARTESIAN_POINT('',(-2.85,-7.205913875932E-02,4.));
#877 = CARTESIAN_POINT('',(-2.85,0.116458951667,4.));
#878 = CARTESIAN_POINT('',(-2.844289265534,0.232241170655,4.010850155281
    ));
#879 = CARTESIAN_POINT('',(-2.832993113346,0.345578540994,4.032313993014
    ));
#880 = CARTESIAN_POINT('',(-2.816724009854,0.454748066633,4.063647965794
    ));
#881 = CARTESIAN_POINT('',(-2.796559570589,0.558177435134,4.103607051553
    ));
#882 = CARTESIAN_POINT('',(-2.764292638422,0.69491371372,4.169922522655)
  );
#883 = CARTESIAN_POINT('',(-2.754289575782,0.734151514892,4.190740524203
    ));
#884 = CARTESIAN_POINT('',(-2.743876350808,0.772254756699,4.21272823878)
  );
#885 = CARTESIAN_POINT('',(-2.733122804681,0.809205606852,4.235809854158
    ));
#886 = CARTESIAN_POINT('',(-2.722097688993,0.844989894583,4.259912343289
    ));
#887 = CARTESIAN_POINT('',(-2.697625791234,0.920410902703,4.31451169736)
  );
#888 = CARTESIAN_POINT('',(-2.684097409222,0.959592826135,4.345383879618
    ));
#889 = CARTESIAN_POINT('',(-2.670386877622,0.997145694845,4.377482604689
    ));
#890 = CARTESIAN_POINT('',(-2.656592921718,1.033074716449,4.410718515411
    ));
#891 = CARTESIAN_POINT('',(-2.642809531368,1.06738676315,4.445011984934)
  );
#892 = CARTESIAN_POINT('',(-2.614100409578,1.135999257569,4.51903312973)
  );
#893 = CARTESIAN_POINT('',(-2.59919364472,1.169972375723,4.558967934213)
  );
#894 = CARTESIAN_POINT('',(-2.584523591506,1.202018528485,4.600005035955
    ));
#895 = CARTESIAN_POINT('',(-2.57020268389,1.232145779165,4.642062793336)
  );
#896 = CARTESIAN_POINT('',(-2.556337611614,1.260359870988,4.685069610839
    ));
#897 = CARTESIAN_POINT('',(-2.507506549069,1.356872151396,4.84612399495)
  );
#898 = CARTESIAN_POINT('',(-2.475794492775,1.413775814531,4.970118542099
    ));
#899 = CARTESIAN_POINT('',(-2.450118426914,1.456713676809,5.099052595572
    ));
#900 = CARTESIAN_POINT('',(-2.432297569142,1.485502718011,5.231281443555
    ));
#901 = CARTESIAN_POINT('',(-2.423324163211,1.5,5.365379961844));
#902 = CARTESIAN_POINT('',(-2.423324163211,1.5,5.5));
#903 = ORIENTED_EDGE('',*,*,#904,.F.);
#904 = EDGE_CURVE('',#785,#793,#905,.T.);
#905 = B_SPLINE_CURVE_WITH_KNOTS('',6,(#906,#907,#908,#909,#910,#911,
    #912,#913,#914,#915,#916,#917,#918,#919,#920,#921,#922,#923,#924,
    #925,#926,#927,#928,#929,#930,#931,#932,#933,#934,#935,#936,#937,
    #938,#939,#940,#941,#942,#943,#944,#945,#946,#947,#948,#949,#950,
    #951,#952,#953,#954,#955,#956,#957,#958,#959,#960,#961,#962,#963,
    #964,#965,#966,#967,#968,#969,#970,#971,#972,#973,#974,#975,#976,
    #977,#978,#979,#980,#981,#982,#983,#984,#985,#986,#987,#988,#989,
    #990,#991,#992,#993,#994,#995,#996,#997,#998,#999,#1000,#1001,#1002,
    #1003,#1004,#1005,#1006,#1007,#1008,#1009,#1010,#1011,#1012),
  .UNSPECIFIED.,.T.,.F.,(7,5,5,5,5,5,5,5,5,5,5,5,5,5,5,5,5,5,5,5,5,7),(
    0.,9.245231821311E-02,0.126731004114,0.159181847048,0.20958952004,
    0.249219535597,0.313267901252,0.340081160822,0.371703201684,
    0.406425994604,0.451459634533,0.499255948251,0.547297385206,
    0.592130225376,0.659061243614,0.70961917016,0.749367313564,
    0.813606592456,0.840499776097,0.872216074886,0.907042368353,1.),
  .UNSPECIFIED.);
#906 = CARTESIAN_POINT('',(-2.423324163211,1.5,5.5));
#907 = CARTESIAN_POINT('',(-2.423324163211,1.5,5.634684466044));
#908 = CARTESIAN_POINT('',(-2.432306158557,1.485488840096,5.76884611388)
  );
#909 = CARTESIAN_POINT('',(-2.450143823737,1.456672651526,5.901135357601
    ));
#910 = CARTESIAN_POINT('',(-2.475843080825,1.413694525235,6.030125465854
    ));
#911 = CARTESIAN_POINT('',(-2.507581607017,1.356737521278,6.154169609964
    ));
#912 = CARTESIAN_POINT('',(-2.556311004308,1.260407345857,6.314825469254
    ));
#913 = CARTESIAN_POINT('',(-2.570036721723,1.23247851155,6.35741042672)
  );
#914 = CARTESIAN_POINT('',(-2.584209772098,1.202674108939,6.39906523457)
  );
#915 = CARTESIAN_POINT('',(-2.598726619774,1.170988602952,6.439720423963
    ));
#916 = CARTESIAN_POINT('',(-2.613478210677,1.137414221424,6.479296890662
    ));
#917 = CARTESIAN_POINT('',(-2.642429011413,1.068360807773,6.554065913385
    ));
#918 = CARTESIAN_POINT('',(-2.656617172767,1.033075346852,6.589383439878
    ));
#919 = CARTESIAN_POINT('',(-2.670817502443,0.996076924812,6.623581599143
    ));
#920 = CARTESIAN_POINT('',(-2.684927462716,0.957358154132,6.656573457045
    ));
#921 = CARTESIAN_POINT('',(-2.698839206418,0.916913563751,6.688261180307
    ));
#922 = CARTESIAN_POINT('',(-2.733566105003,0.809230628694,6.765562667401
    ));
#923 = CARTESIAN_POINT('',(-2.753981106906,0.739427389491,6.809267522552
    ));
#924 = CARTESIAN_POINT('',(-2.773193474281,0.665483351402,6.849079393431
    ));
#925 = CARTESIAN_POINT('',(-2.790701978037,0.58760928128,6.884444536381)
  );
#926 = CARTESIAN_POINT('',(-2.806020222397,0.506075772991,6.914816293208
    ));
#927 = CARTESIAN_POINT('',(-2.828671343315,0.354498174245,6.959165243061
    ));
#928 = CARTESIAN_POINT('',(-2.837007063943,0.28575431397,6.975250485809)
  );
#929 = CARTESIAN_POINT('',(-2.843449376764,0.215440618583,6.98755487594)
  );
#930 = CARTESIAN_POINT('',(-2.84781387768,0.144041773908,6.995845773418)
  );
#931 = CARTESIAN_POINT('',(-2.85,7.205913873091E-02,7.));
#932 = CARTESIAN_POINT('',(-2.85,-0.116458951667,7.));
#933 = CARTESIAN_POINT('',(-2.844289265534,-0.232241170654,
    6.989149844719));
#934 = CARTESIAN_POINT('',(-2.832993113346,-0.345578540994,
    6.967686006986));
#935 = CARTESIAN_POINT('',(-2.816724009854,-0.454748066633,
    6.936352034206));
#936 = CARTESIAN_POINT('',(-2.796559570589,-0.558177435135,
    6.896392948447));
#937 = CARTESIAN_POINT('',(-2.764292638422,-0.694913713719,
    6.830077477345));
#938 = CARTESIAN_POINT('',(-2.754289575782,-0.734151514892,
    6.809259475797));
#939 = CARTESIAN_POINT('',(-2.743876350808,-0.772254756699,6.78727176122
    ));
#940 = CARTESIAN_POINT('',(-2.733122804681,-0.809205606852,
    6.764190145842));
#941 = CARTESIAN_POINT('',(-2.722097688993,-0.844989894583,
    6.740087656711));
#942 = CARTESIAN_POINT('',(-2.697625791234,-0.920410902703,6.68548830264
    ));
#943 = CARTESIAN_POINT('',(-2.684097409222,-0.959592826135,
    6.654616120382));
#944 = CARTESIAN_POINT('',(-2.670386877622,-0.997145694845,
    6.622517395311));
#945 = CARTESIAN_POINT('',(-2.656592921718,-1.033074716449,
    6.589281484589));
#946 = CARTESIAN_POINT('',(-2.642809531368,-1.06738676315,6.554988015066
    ));
#947 = CARTESIAN_POINT('',(-2.614100409578,-1.135999257569,6.48096687027
    ));
#948 = CARTESIAN_POINT('',(-2.59919364472,-1.169972375723,6.441032065787
    ));
#949 = CARTESIAN_POINT('',(-2.584523591506,-1.202018528485,
    6.399994964045));
#950 = CARTESIAN_POINT('',(-2.57020268389,-1.232145779165,6.357937206664
    ));
#951 = CARTESIAN_POINT('',(-2.556337611614,-1.260359870988,
    6.314930389161));
#952 = CARTESIAN_POINT('',(-2.525768819603,-1.320777639362,
    6.214108541063));
#953 = CARTESIAN_POINT('',(-2.509439388169,-1.351688718844,
    6.155670808915));
#954 = CARTESIAN_POINT('',(-2.494275591958,-1.379371163373,
    6.095901842152));
#955 = CARTESIAN_POINT('',(-2.48049215543,-1.403804550308,6.03496451899)
  );
#956 = CARTESIAN_POINT('',(-2.468278019924,-1.424967633497,
    5.973007041115));
#957 = CARTESIAN_POINT('',(-2.446659711339,-1.46179330445,5.843465463679
    ));
#958 = CARTESIAN_POINT('',(-2.43747382719,-1.477038431546,5.775770372064
    ));
#959 = CARTESIAN_POINT('',(-2.430438085245,-1.488507996791,5.70733392045
    ));
#960 = CARTESIAN_POINT('',(-2.425696188583,-1.496167386474,
    5.638402768936));
#961 = CARTESIAN_POINT('',(-2.423324163211,-1.5,5.569214965488));
#962 = CARTESIAN_POINT('',(-2.423324163211,-1.5,5.430430065793));
#963 = CARTESIAN_POINT('',(-2.42572057567,-1.496127973689,5.360887973574
    ));
#964 = CARTESIAN_POINT('',(-2.430511179561,-1.488389935089,
    5.291606489467));
#965 = CARTESIAN_POINT('',(-2.437618383519,-1.476802779074,
    5.222827144772));
#966 = CARTESIAN_POINT('',(-2.446895605502,-1.46140174491,5.154800296109
    ));
#967 = CARTESIAN_POINT('',(-2.468621131457,-1.424373265121,
    5.025245887593));
#968 = CARTESIAN_POINT('',(-2.4808164406,-1.403230496228,4.963587865538)
  );
#969 = CARTESIAN_POINT('',(-2.494563786208,-1.378847046906,
    4.902943739322));
#970 = CARTESIAN_POINT('',(-2.509676474036,-1.351243824042,
    4.843459655022));
#971 = CARTESIAN_POINT('',(-2.525942558322,-1.320440875753,4.78529620383
    ));
#972 = CARTESIAN_POINT('',(-2.568790382624,-1.235737623488,
    4.644031291587));
#973 = CARTESIAN_POINT('',(-2.596512584418,-1.177920855937,
    4.562743410415));
#974 = CARTESIAN_POINT('',(-2.625577002283,-1.112993345737,
    4.485196878363));
#975 = CARTESIAN_POINT('',(-2.655190182308,-1.040871283026,
    4.411947082032));
#976 = CARTESIAN_POINT('',(-2.684471559232,-0.961465495592,
    4.343720958575));
#977 = CARTESIAN_POINT('',(-2.733566105003,-0.809230628694,
    4.234437332599));
#978 = CARTESIAN_POINT('',(-2.753981106906,-0.739427389491,
    4.190732477448));
#979 = CARTESIAN_POINT('',(-2.773193474281,-0.665483351402,
    4.150920606569));
#980 = CARTESIAN_POINT('',(-2.790701978037,-0.58760928128,4.115555463619
    ));
#981 = CARTESIAN_POINT('',(-2.806020222397,-0.506075772991,
    4.085183706792));
#982 = CARTESIAN_POINT('',(-2.828671343311,-0.354498174271,
    4.040834756947));
#983 = CARTESIAN_POINT('',(-2.837007063945,-0.285754313964,
    4.024749514186));
#984 = CARTESIAN_POINT('',(-2.843449376766,-0.215440618555,
    4.012445124056));
#985 = CARTESIAN_POINT('',(-2.847813877679,-0.1440417739,4.004154226586)
  );
#986 = CARTESIAN_POINT('',(-2.85,-7.205913875932E-02,4.));
#987 = CARTESIAN_POINT('',(-2.85,0.116458951667,4.));
#988 = CARTESIAN_POINT('',(-2.844289265534,0.232241170655,4.010850155281
    ));
#989 = CARTESIAN_POINT('',(-2.832993113346,0.345578540994,4.032313993014
    ));
#990 = CARTESIAN_POINT('',(-2.816724009854,0.454748066633,4.063647965794
    ));
#991 = CARTESIAN_POINT('',(-2.796559570589,0.558177435134,4.103607051553
    ));
#992 = CARTESIAN_POINT('',(-2.764292638422,0.69491371372,4.169922522655)
  );
#993 = CARTESIAN_POINT('',(-2.754289575782,0.734151514892,4.190740524203
    ));
#994 = CARTESIAN_POINT('',(-2.743876350808,0.772254756699,4.21272823878)
  );
#995 = CARTESIAN_POINT('',(-2.733122804681,0.809205606852,4.235809854158
    ));
#996 = CARTESIAN_POINT('',(-2.722097688993,0.844989894583,4.259912343289
    ));
#997 = CARTESIAN_POINT('',(-2.697625791234,0.920410902703,4.31451169736)
  );
#998 = CARTESIAN_POINT('',(-2.684097409222,0.959592826135,4.345383879618
    ));
#999 = CARTESIAN_POINT('',(-2.670386877622,0.997145694845,4.377482604689
    ));
#1000 = CARTESIAN_POINT('',(-2.656592921718,1.033074716449,
    4.410718515411));
#1001 = CARTESIAN_POINT('',(-2.642809531368,1.06738676315,4.445011984934
    ));
#1002 = CARTESIAN_POINT('',(-2.614100409578,1.135999257569,4.51903312973
    ));
#1003 = CARTESIAN_POINT('',(-2.59919364472,1.169972375723,4.558967934213
    ));
#1004 = CARTESIAN_POINT('',(-2.584523591506,1.202018528485,
    4.600005035955));
#1005 = CARTESIAN_POINT('',(-2.57020268389,1.232145779165,4.642062793336
    ));
#1006 = CARTESIAN_POINT('',(-2.556337611614,1.260359870988,
    4.685069610839));
#1007 = CARTESIAN_POINT('',(-2.507506549069,1.356872151396,4.84612399495
    ));
#1008 = CARTESIAN_POINT('',(-2.475794492775,1.413775814531,
    4.970118542099));
#1009 = CARTESIAN_POINT('',(-2.450118426914,1.456713676809,
    5.099052595572));
#1010 = CARTESIAN_POINT('',(-2.432297569142,1.485502718011,
    5.231281443555));
#1011 = CARTESIAN_POINT('',(-2.423324163211,1.5,5.365379961844));
#1012 = CARTESIAN_POINT('',(-2.423324163211,1.5,5.5));
#1013 = ORIENTED_EDGE('',*,*,#784,.T.);
#1014 = ORIENTED_EDGE('',*,*,#270,.T.);
#1015 = CYLINDRICAL_SURFACE('',#1016,1.5);
#1016 = AXIS2_PLACEMENT_3D('',#1017,#1018,#1019);
#1017 = CARTESIAN_POINT('',(0.,0.,5.5));
#1018 = DIRECTION('',(1.,0.,0.));
#1019 = DIRECTION('',(0.,1.,0.));
#1020 = ADVANCED_FACE('',(#1021,#1062,#1066,#1160,#1164),#1167,.F.);
#1021 = FACE_BOUND('',#1022,.F.);
#1022 = EDGE_LOOP('',(#1023,#1033,#1040,#1047,#1048,#1055));
#1023 = ORIENTED_EDGE('',*,*,#1024,.F.);
#1024 = EDGE_CURVE('',#1025,#1027,#1029,.T.);
#1025 = VERTEX_POINT('',#1026);
#1026 = CARTESIAN_POINT('',(2.85,0.,4.));
#1027 = VERTEX_POINT('',#1028);
#1028 = CARTESIAN_POINT('',(2.85,0.,86.));
#1029 = LINE('',#1030,#1031);
#1030 = CARTESIAN_POINT('',(2.85,0.,0.));
#1031 = VECTOR('',#1032,1.);
#1032 = DIRECTION('',(0.,0.,1.));
#1033 = ORIENTED_EDGE('',*,*,#1034,.F.);
#1034 = EDGE_CURVE('',#793,#1025,#1035,.T.);
#1035 = CIRCLE('',#1036,2.85);
#1036 = AXIS2_PLACEMENT_3D('',#1037,#1038,#1039);
#1037 = CARTESIAN_POINT('',(0.,0.,4.));
#1038 = DIRECTION('',(0.,0.,-1.));
#1039 = DIRECTION('',(1.,0.,0.));
#1040 = ORIENTED_EDGE('',*,*,#1041,.F.);
#1041 = EDGE_CURVE('',#1025,#793,#1042,.T.);
#1042 = CIRCLE('',#1043,2.85);
#1043 = AXIS2_PLACEMENT_3D('',#1044,#1045,#1046);
#1044 = CARTESIAN_POINT('',(0.,0.,4.));
#1045 = DIRECTION('',(0.,0.,-1.));
#1046 = DIRECTION('',(1.,0.,0.));
#1047 = ORIENTED_EDGE('',*,*,#1024,.T.);
#1048 = ORIENTED_EDGE('',*,*,#1049,.T.);
#1049 = EDGE_CURVE('',#1027,#553,#1050,.T.);
#1050 = CIRCLE('',#1051,2.85);
#1051 = AXIS2_PLACEMENT_3D('',#1052,#1053,#1054);
#1052 = CARTESIAN_POINT('',(0.,0.,86.));
#1053 = DIRECTION('',(0.,0.,-1.));
#1054 = DIRECTION('',(1.,0.,0.));
#1055 = ORIENTED_EDGE('',*,*,#1056,.T.);
#1056 = EDGE_CURVE('',#553,#1027,#1057,.T.);
#1057 = CIRCLE('',#1058,2.85);
#1058 = AXIS2_PLACEMENT_3D('',#1059,#1060,#1061);
#1059 = CARTESIAN_POINT('',(0.,0.,86.));
#1060 = DIRECTION('',(0.,0.,-1.));
#1061 = DIRECTION('',(1.,0.,0.));
#1062 = FACE_BOUND('',#1063,.F.);
#1063 = EDGE_LOOP('',(#1064,#1065));
#1064 = ORIENTED_EDGE('',*,*,#664,.T.);
#1065 = ORIENTED_EDGE('',*,*,#552,.T.);
#1066 = FACE_BOUND('',#1067,.F.);
#1067 = EDGE_LOOP('',(#1068));
#1068 = ORIENTED_EDGE('',*,*,#1069,.T.);
#1069 = EDGE_CURVE('',#1070,#1070,#1072,.T.);
#1070 = VERTEX_POINT('',#1071);
#1071 = CARTESIAN_POINT('',(1.25,2.561249694973,84.5));
#1072 = B_SPLINE_CURVE_WITH_KNOTS('',6,(#1073,#1074,#1075,#1076,#1077,
    #1078,#1079,#1080,#1081,#1082,#1083,#1084,#1085,#1086,#1087,#1088,
    #1089,#1090,#1091,#1092,#1093,#1094,#1095,#1096,#1097,#1098,#1099,
    #1100,#1101,#1102,#1103,#1104,#1105,#1106,#1107,#1108,#1109,#1110,
    #1111,#1112,#1113,#1114,#1115,#1116,#1117,#1118,#1119,#1120,#1121,
    #1122,#1123,#1124,#1125,#1126,#1127,#1128,#1129,#1130,#1131,#1132,
    #1133,#1134,#1135,#1136,#1137,#1138,#1139,#1140,#1141,#1142,#1143,
    #1144,#1145,#1146,#1147,#1148,#1149,#1150,#1151,#1152,#1153,#1154,
    #1155,#1156,#1157,#1158,#1159),.UNSPECIFIED.,.T.,.F.,(7,5,5,5,5,5,5,
    5,5,5,5,5,5,5,5,5,5,7),(0.,7.269237665356E-02,0.131353017225,
    0.181977106564,0.250684311904,0.295419953533,0.348930385893,
    0.428432869359,0.500763612086,0.538970299938,0.573231539658,
    0.653083013244,0.682157506027,0.750661251075,0.795264418583,
    0.848616392334,0.927883447821,1.),.UNSPECIFIED.);
#1073 = CARTESIAN_POINT('',(1.25,2.561249694973,84.5));
#1074 = CARTESIAN_POINT('',(1.25,2.561249694973,84.587523383577));
#1075 = CARTESIAN_POINT('',(1.242646115982,2.564838699943,
    84.674982162669));
#1076 = CARTESIAN_POINT('',(1.227958404998,2.572006963901,
    84.761778497926));
#1077 = CARTESIAN_POINT('',(1.205968560164,2.582542819442,
    84.847306143751));
#1078 = CARTESIAN_POINT('',(1.176728712526,2.596032388324,
    84.930922844999));
#1079 = CARTESIAN_POINT('',(1.111015456149,2.624722852969,
    85.077303525345));
#1080 = CARTESIAN_POINT('',(1.077014929481,2.639096418739,85.14100645281
    ));
#1081 = CARTESIAN_POINT('',(1.03837535873,2.654754511967,85.202763523058
    ));
#1082 = CARTESIAN_POINT('',(0.995103073057,2.671367634477,
    85.262255699328));
#1083 = CARTESIAN_POINT('',(0.947206393579,2.688560520665,
    85.319116520271));
#1084 = CARTESIAN_POINT('',(0.849398287486,2.720900543911,
    85.419364914845));
#1085 = CARTESIAN_POINT('',(0.800625084851,2.736017376026,
    85.463568591743));
#1086 = CARTESIAN_POINT('',(0.748425116845,2.750992987108,
    85.505223417784));
#1087 = CARTESIAN_POINT('',(0.692860692577,2.765526121519,
    85.543995060293));
#1088 = CARTESIAN_POINT('',(0.634022856026,2.779301822055,
    85.579525433004));
#1089 = CARTESIAN_POINT('',(0.487908357891,2.809238344101,
    85.654728464581));
#1090 = CARTESIAN_POINT('',(0.397537629135,2.824584298199,
    85.691575154691));
#1091 = CARTESIAN_POINT('',(0.302078745538,2.837008898191,
    85.720379746763));
#1092 = CARTESIAN_POINT('',(0.202953929872,2.845642763789,85.74006564342
    ));
#1093 = CARTESIAN_POINT('',(0.101726518655,2.85,85.75));
#1094 = CARTESIAN_POINT('',(-6.623469926129E-02,2.85,85.75));
#1095 = CARTESIAN_POINT('',(-0.132399568793,2.848153102444,
    85.745788225868));
#1096 = CARTESIAN_POINT('',(-0.197981204462,2.84446529226,
    85.737382384948));
#1097 = CARTESIAN_POINT('',(-0.262472395282,2.839032899847,
    85.72490824264));
#1098 = CARTESIAN_POINT('',(-0.325386403216,2.832031077035,
    85.708603329007));
#1099 = CARTESIAN_POINT('',(-0.459098500624,2.813739793793,
    85.665157634934));
#1100 = CARTESIAN_POINT('',(-0.52900299462,2.801881014806,
    85.636525317748));
#1101 = CARTESIAN_POINT('',(-0.595657330177,2.788479664725,
    85.603391008121));
#1102 = CARTESIAN_POINT('',(-0.658790398387,2.773927530127,
    85.566228297218));
#1103 = CARTESIAN_POINT('',(-0.718186865679,2.758628810087,
    85.525524590778));
#1104 = CARTESIAN_POINT('',(-0.856144822281,2.719716223676,
    85.416808492402));
#1105 = CARTESIAN_POINT('',(-0.93018608073,2.695620449894,
    85.344989709974));
#1106 = CARTESIAN_POINT('',(-0.995690040106,2.671829578512,
    85.267571215068));
#1107 = CARTESIAN_POINT('',(-1.052637161941,2.64936275334,
    85.185553842817));
#1108 = CARTESIAN_POINT('',(-1.10103328854,2.629089589266,
    85.099757623328));
#1109 = CARTESIAN_POINT('',(-1.177044691194,2.595886589482,
    84.930018026867));
#1110 = CARTESIAN_POINT('',(-1.206158651428,2.582451741813,
    84.84656594506));
#1111 = CARTESIAN_POINT('',(-1.228053683943,2.571960463254,
    84.761215028994));
#1112 = CARTESIAN_POINT('',(-1.242677959456,2.564823159083,
    84.674603429767));
#1113 = CARTESIAN_POINT('',(-1.25,2.561249694973,84.587333679939));
#1114 = CARTESIAN_POINT('',(-1.25,2.561249694973,84.453868431007));
#1115 = CARTESIAN_POINT('',(-1.24795713843,2.562246869683,
    84.407740207154));
#1116 = CARTESIAN_POINT('',(-1.24387155792,2.564240691173,
    84.361708850465));
#1117 = CARTESIAN_POINT('',(-1.237746685699,2.567214476149,
    84.315869295498));
#1118 = CARTESIAN_POINT('',(-1.229589233587,2.571135385958,
    84.270317889343));
#1119 = CARTESIAN_POINT('',(-1.210280412987,2.580275824624,
    84.184650949829));
#1120 = CARTESIAN_POINT('',(-1.199525752248,2.585319579753,
    84.144461164154));
#1121 = CARTESIAN_POINT('',(-1.187150221524,2.591051297579,
    84.104643576672));
#1122 = CARTESIAN_POINT('',(-1.173159741267,2.597428567795,
    84.065261320153));
#1123 = CARTESIAN_POINT('',(-1.157561146643,2.604400964188,
    84.026380118068));
#1124 = CARTESIAN_POINT('',(-1.100277174842,2.629411195888,
    83.898776233747));
#1125 = CARTESIAN_POINT('',(-1.051511210124,2.64982319201,83.81260312954
    ));
#1126 = CARTESIAN_POINT('',(-0.994108993959,2.67244072305,
    83.730256610558));
#1127 = CARTESIAN_POINT('',(-0.928064262362,2.696379216829,
    83.652570585128));
#1128 = CARTESIAN_POINT('',(-0.853397400442,2.720601798983,
    83.580563998342));
#1129 = CARTESIAN_POINT('',(-0.739952323312,2.752446135714,
    83.491809185878));
#1130 = CARTESIAN_POINT('',(-0.708543202123,2.760830363723,
    83.469037703654));
#1131 = CARTESIAN_POINT('',(-0.676023368811,2.769038975713,
    83.447255605509));
#1132 = CARTESIAN_POINT('',(-0.642414508355,2.777011365976,
    83.426534739775));
#1133 = CARTESIAN_POINT('',(-0.607742314386,2.784686284406,
    83.406948350035));
#1134 = CARTESIAN_POINT('',(-0.487908357891,2.809238344101,
    83.345271535419));
#1135 = CARTESIAN_POINT('',(-0.397537629135,2.824584298199,
    83.308424845309));
#1136 = CARTESIAN_POINT('',(-0.302078745538,2.837008898191,
    83.279620253237));
#1137 = CARTESIAN_POINT('',(-0.202953929872,2.845642763789,
    83.25993435658));
#1138 = CARTESIAN_POINT('',(-0.101726518655,2.85,83.25));
#1139 = CARTESIAN_POINT('',(6.623469926127E-02,2.85,83.25));
#1140 = CARTESIAN_POINT('',(0.132399568793,2.848153102444,
    83.254211774132));
#1141 = CARTESIAN_POINT('',(0.197981204462,2.84446529226,83.262617615052
    ));
#1142 = CARTESIAN_POINT('',(0.262472395282,2.839032899847,83.27509175736
    ));
#1143 = CARTESIAN_POINT('',(0.325386403216,2.832031077035,
    83.291396670993));
#1144 = CARTESIAN_POINT('',(0.459098500624,2.813739793793,
    83.334842365066));
#1145 = CARTESIAN_POINT('',(0.52900299462,2.801881014806,83.363474682252
    ));
#1146 = CARTESIAN_POINT('',(0.595657330177,2.788479664725,
    83.396608991879));
#1147 = CARTESIAN_POINT('',(0.658790398387,2.773927530127,
    83.433771702782));
#1148 = CARTESIAN_POINT('',(0.718186865679,2.758628810087,
    83.474475409222));
#1149 = CARTESIAN_POINT('',(0.856144822281,2.719716223676,
    83.583191507598));
#1150 = CARTESIAN_POINT('',(0.93018608073,2.695620449894,83.655010290027
    ));
#1151 = CARTESIAN_POINT('',(0.995690040106,2.671829578512,
    83.732428784932));
#1152 = CARTESIAN_POINT('',(1.052637161941,2.64936275334,83.814446157183
    ));
#1153 = CARTESIAN_POINT('',(1.101033288539,2.629089589266,
    83.900242376672));
#1154 = CARTESIAN_POINT('',(1.177044691194,2.595886589482,
    84.069981973133));
#1155 = CARTESIAN_POINT('',(1.206158651428,2.582451741813,
    84.153434054939));
#1156 = CARTESIAN_POINT('',(1.228053683943,2.571960463254,
    84.238784971006));
#1157 = CARTESIAN_POINT('',(1.242677959456,2.564823159083,
    84.325396570233));
#1158 = CARTESIAN_POINT('',(1.25,2.561249694973,84.412666320061));
#1159 = CARTESIAN_POINT('',(1.25,2.561249694973,84.5));
#1160 = FACE_BOUND('',#1161,.F.);
#1161 = EDGE_LOOP('',(#1162,#1163));
#1162 = ORIENTED_EDGE('',*,*,#904,.T.);
#1163 = ORIENTED_EDGE('',*,*,#792,.T.);
#1164 = FACE_BOUND('',#1165,.F.);
#1165 = EDGE_LOOP('',(#1166));
#1166 = ORIENTED_EDGE('',*,*,#359,.T.);
#1167 = CYLINDRICAL_SURFACE('',#1168,2.85);
#1168 = AXIS2_PLACEMENT_3D('',#1169,#1170,#1171);
#1169 = CARTESIAN_POINT('',(0.,0.,0.));
#1170 = DIRECTION('',(0.,0.,-1.));
#1171 = DIRECTION('',(1.,0.,0.));
#1172 = ADVANCED_FACE('',(#1173,#1177),#1180,.T.);
#1173 = FACE_BOUND('',#1174,.T.);
#1174 = EDGE_LOOP('',(#1175,#1176));
#1175 = ORIENTED_EDGE('',*,*,#1034,.F.);
#1176 = ORIENTED_EDGE('',*,*,#1041,.F.);
#1177 = FACE_BOUND('',#1178,.T.);
#1178 = EDGE_LOOP('',(#1179));
#1179 = ORIENTED_EDGE('',*,*,#484,.T.);
#1180 = PLANE('',#1181);
#1181 = AXIS2_PLACEMENT_3D('',#1182,#1183,#1184);
#1182 = CARTESIAN_POINT('',(-2.2E-16,-6.E-17,4.));
#1183 = DIRECTION('',(0.,0.,1.));
#1184 = DIRECTION('',(1.,0.,0.));
#1185 = ADVANCED_FACE('',(#1186),#1197,.F.);
#1186 = FACE_BOUND('',#1187,.F.);
#1187 = EDGE_LOOP('',(#1188,#1194,#1195,#1196));
#1188 = ORIENTED_EDGE('',*,*,#1189,.F.);
#1189 = EDGE_CURVE('',#1070,#518,#1190,.T.);
#1190 = LINE('',#1191,#1192);
#1191 = CARTESIAN_POINT('',(1.25,1.876E-14,84.5));
#1192 = VECTOR('',#1193,1.);
#1193 = DIRECTION('',(0.,1.,-2.2E-16));
#1194 = ORIENTED_EDGE('',*,*,#1069,.F.);
#1195 = ORIENTED_EDGE('',*,*,#1189,.T.);
#1196 = ORIENTED_EDGE('',*,*,#517,.T.);
#1197 = CYLINDRICAL_SURFACE('',#1198,1.25);
#1198 = AXIS2_PLACEMENT_3D('',#1199,#1200,#1201);
#1199 = CARTESIAN_POINT('',(0.,1.876E-14,84.5));
#1200 = DIRECTION('',(0.,-1.,2.2E-16));
#1201 = DIRECTION('',(1.,0.,0.));
#1202 = ADVANCED_FACE('',(#1203,#1207),#1218,.F.);
#1203 = FACE_BOUND('',#1204,.F.);
#1204 = EDGE_LOOP('',(#1205,#1206));
#1205 = ORIENTED_EDGE('',*,*,#1056,.F.);
#1206 = ORIENTED_EDGE('',*,*,#1049,.F.);
#1207 = FACE_BOUND('',#1208,.F.);
#1208 = EDGE_LOOP('',(#1209));
#1209 = ORIENTED_EDGE('',*,*,#1210,.F.);
#1210 = EDGE_CURVE('',#1211,#1211,#1213,.T.);
#1211 = VERTEX_POINT('',#1212);
#1212 = CARTESIAN_POINT('',(1.2,0.,86.));
#1213 = CIRCLE('',#1214,1.2);
#1214 = AXIS2_PLACEMENT_3D('',#1215,#1216,#1217);
#1215 = CARTESIAN_POINT('',(0.,0.,86.));
#1216 = DIRECTION('',(0.,0.,1.));
#1217 = DIRECTION('',(1.,0.,0.));
#1218 = PLANE('',#1219);
#1219 = AXIS2_PLACEMENT_3D('',#1220,#1221,#1222);
#1220 = CARTESIAN_POINT('',(-2.2E-16,6.E-17,86.));
#1221 = DIRECTION('',(0.,0.,1.));
#1222 = DIRECTION('',(1.,0.,0.));
#1223 = ADVANCED_FACE('',(#1224),#1243,.F.);
#1224 = FACE_BOUND('',#1225,.F.);
#1225 = EDGE_LOOP('',(#1226,#1234,#1235,#1236));
#1226 = ORIENTED_EDGE('',*,*,#1227,.T.);
#1227 = EDGE_CURVE('',#1228,#1211,#1230,.T.);
#1228 = VERTEX_POINT('',#1229);
#1229 = CARTESIAN_POINT('',(1.2,0.,90.));
#1230 = LINE('',#1231,#1232);
#1231 = CARTESIAN_POINT('',(1.2,0.,90.));
#1232 = VECTOR('',#1233,1.);
#1233 = DIRECTION('',(-0.,-0.,-1.));
#1234 = ORIENTED_EDGE('',*,*,#1210,.T.);
#1235 = ORIENTED_EDGE('',*,*,#1227,.F.);
#1236 = ORIENTED_EDGE('',*,*,#1237,.F.);
#1237 = EDGE_CURVE('',#1228,#1228,#1238,.T.);
#1238 = CIRCLE('',#1239,1.2);
#1239 = AXIS2_PLACEMENT_3D('',#1240,#1241,#1242);
#1240 = CARTESIAN_POINT('',(0.,0.,90.));
#1241 = DIRECTION('',(0.,0.,1.));
#1242 = DIRECTION('',(1.,0.,0.));
#1243 = CYLINDRICAL_SURFACE('',#1244,1.2);
#1244 = AXIS2_PLACEMENT_3D('',#1245,#1246,#1247);
#1245 = CARTESIAN_POINT('',(0.,0.,90.));
#1246 = DIRECTION('',(0.,0.,1.));
#1247 = DIRECTION('',(1.,0.,0.));
#1248 = ADVANCED_FACE('',(#1249,#1256),#1259,.T.);
#1249 = FACE_BOUND('',#1250,.T.);
#1250 = EDGE_LOOP('',(#1251,#1252,#1253,#1254,#1255));
#1251 = ORIENTED_EDGE('',*,*,#501,.T.);
#1252 = ORIENTED_EDGE('',*,*,#176,.T.);
#1253 = ORIENTED_EDGE('',*,*,#462,.F.);
#1254 = ORIENTED_EDGE('',*,*,#133,.T.);
#1255 = ORIENTED_EDGE('',*,*,#142,.T.);
#1256 = FACE_BOUND('',#1257,.T.);
#1257 = EDGE_LOOP('',(#1258));
#1258 = ORIENTED_EDGE('',*,*,#1237,.F.);
#1259 = PLANE('',#1260);
#1260 = AXIS2_PLACEMENT_3D('',#1261,#1262,#1263);
#1261 = CARTESIAN_POINT('',(8.504844656768E-02,-9.511463550997E-02,90.)
  );
#1262 = DIRECTION('',(0.,0.,1.));
#1263 = DIRECTION('',(1.,0.,0.));
#1264 = ( GEOMETRIC_REPRESENTATION_CONTEXT(3) 
GLOBAL_UNCERTAINTY_ASSIGNED_CONTEXT((#1268)) 
GLOBAL_UNIT_ASSIGNED_CONTEXT((#1265,#1266,#1267)) REPRESENTATION_CONTEXT
('Context #1','3D Context with UNIT and UNCERTAINTY') );
#1265 = ( LENGTH_UNIT() NAMED_UNIT(*) SI_UNIT(.MILLI.,.METRE.) );
#1266 = ( NAMED_UNIT(*) PLANE_ANGLE_UNIT() SI_UNIT($,.RADIAN.) );
#1267 = ( NAMED_UNIT(*) SI_UNIT($,.STERADIAN.) SOLID_ANGLE_UNIT() );
#1268 = UNCERTAINTY_MEASURE_WITH_UNIT(LENGTH_MEASURE(2.E-05),#1265,
  'distance_accuracy_value','confusion accuracy');
#1269 = PRODUCT_RELATED_PRODUCT_CATEGORY('part',$,(#7));
ENDSEC;
END-ISO-10303-21;
