ISO-10303-21;
HEADER;
FILE_DESCRIPTION(('FreeCAD Model'),'2;1');
FILE_NAME('Open CASCADE Shape Model','2026-08-28T13:03:58',('FreeCAD'),(
    'FreeCAD'),'Open CASCADE STEP processor 7.8','FreeCAD','Unknown');
FILE_SCHEMA(('AUTOMOTIVE_DESIGN { 1 0 10303 214 1 1 1 1 }'));
ENDSEC;
DATA;
#1 = APPLICATION_PROTOCOL_DEFINITION('international standard',
  'automotive_design',2000,#2);
#2 = APPLICATION_CONTEXT(
  'core data for automotive mechanical design processes');
#3 = SHAPE_DEFINITION_REPRESENTATION(#4,#10);
#4 = PRODUCT_DEFINITION_SHAPE('','',#5);
#5 = PRODUCT_DEFINITION('design','',#6,#9);
#6 = PRODUCT_DEFINITION_FORMATION('','',#7);
#7 = PRODUCT('Open CASCADE STEP translator 7.8 21',
  'Open CASCADE STEP translator 7.8 21','',(#8));
#8 = PRODUCT_CONTEXT('',#2,'mechanical');
#9 = PRODUCT_DEFINITION_CONTEXT('part definition',#2,'design');
#10 = ADVANCED_BREP_SHAPE_REPRESENTATION('',(#11,#15),#663);
#11 = AXIS2_PLACEMENT_3D('',#12,#13,#14);
#12 = CARTESIAN_POINT('',(0.,0.,0.));
#13 = DIRECTION('',(0.,0.,1.));
#14 = DIRECTION('',(1.,0.,-0.));
#15 = MANIFOLD_SOLID_BREP('',#16);
#16 = CLOSED_SHELL('',(#17,#407,#416,#425,#450,#475,#500,#525,#550,#575,
    #600,#609,#618,#627,#636,#645,#654));
#17 = ADVANCED_FACE('',(#18,#45,#103,#140,#198,#249,#307,#344),#402,.T.
  );
#18 = FACE_BOUND('',#19,.F.);
#19 = EDGE_LOOP('',(#20,#29,#37,#44));
#20 = ORIENTED_EDGE('',*,*,#21,.F.);
#21 = EDGE_CURVE('',#22,#22,#24,.T.);
#22 = VERTEX_POINT('',#23);
#23 = CARTESIAN_POINT('',(5.75,0.,-28.7));
#24 = CIRCLE('',#25,5.75);
#25 = AXIS2_PLACEMENT_3D('',#26,#27,#28);
#26 = CARTESIAN_POINT('',(0.,0.,-28.7));
#27 = DIRECTION('',(0.,0.,1.));
#28 = DIRECTION('',(1.,0.,0.));
#29 = ORIENTED_EDGE('',*,*,#30,.T.);
#30 = EDGE_CURVE('',#22,#31,#33,.T.);
#31 = VERTEX_POINT('',#32);
#32 = CARTESIAN_POINT('',(5.75,0.,191.1));
#33 = LINE('',#34,#35);
#34 = CARTESIAN_POINT('',(5.75,0.,-28.7));
#35 = VECTOR('',#36,1.);
#36 = DIRECTION('',(0.,0.,1.));
#37 = ORIENTED_EDGE('',*,*,#38,.T.);
#38 = EDGE_CURVE('',#31,#31,#39,.T.);
#39 = CIRCLE('',#40,5.75);
#40 = AXIS2_PLACEMENT_3D('',#41,#42,#43);
#41 = CARTESIAN_POINT('',(0.,0.,191.1));
#42 = DIRECTION('',(0.,0.,1.));
#43 = DIRECTION('',(1.,0.,0.));
#44 = ORIENTED_EDGE('',*,*,#30,.F.);
#45 = FACE_BOUND('',#46,.F.);
#46 = EDGE_LOOP('',(#47));
#47 = ORIENTED_EDGE('',*,*,#48,.F.);
#48 = EDGE_CURVE('',#49,#49,#51,.T.);
#49 = VERTEX_POINT('',#50);
#50 = CARTESIAN_POINT('',(-1.4,-5.576961538329,131.2));
#51 = B_SPLINE_CURVE_WITH_KNOTS('',8,(#52,#53,#54,#55,#56,#57,#58,#59,
    #60,#61,#62,#63,#64,#65,#66,#67,#68,#69,#70,#71,#72,#73,#74,#75,#76,
    #77,#78,#79,#80,#81,#82,#83,#84,#85,#86,#87,#88,#89,#90,#91,#92,#93,
    #94,#95,#96,#97,#98,#99,#100,#101,#102),.UNSPECIFIED.,.T.,.F.,(9,7,7
    ,7,7,7,7,9),(0.,0.151835503031,0.287121521163,0.424267898824,
    0.576693780174,0.705143137711,0.829683815612,1.),.UNSPECIFIED.);
#52 = CARTESIAN_POINT('',(-1.4,-5.576961538329,131.2));
#53 = CARTESIAN_POINT('',(-1.4,-5.576961538329,131.3475392656));
#54 = CARTESIAN_POINT('',(-1.382230724948,-5.581422069138,
    131.49518440409));
#55 = CARTESIAN_POINT('',(-1.346645291807,-5.590355734302,
    131.64128163145));
#56 = CARTESIAN_POINT('',(-1.29305696344,-5.603470240684,131.78411289456
    ));
#57 = CARTESIAN_POINT('',(-1.221173876857,-5.62016314482,131.92178173786
    ));
#58 = CARTESIAN_POINT('',(-1.130632973108,-5.639486078231,
    132.05207553829));
#59 = CARTESIAN_POINT('',(-1.021086390862,-5.660110704416,
    132.17225459248));
#60 = CARTESIAN_POINT('',(-0.777727800426,-5.698342936758,
    132.37357832716));
#61 = CARTESIAN_POINT('',(-0.644438238472,-5.716572277749,
    132.46038213086));
#62 = CARTESIAN_POINT('',(-0.494602766501,-5.733184634122,
    132.53232167723));
#63 = CARTESIAN_POINT('',(-0.331865114318,-5.746061329613,
    132.58442423565));
#64 = CARTESIAN_POINT('',(-0.160958592625,-5.753405083014,
    132.61347538229));
#65 = CARTESIAN_POINT('',(1.286120685405E-02,-5.754418117228,
    132.6179615948));
#66 = CARTESIAN_POINT('',(0.184220738364,-5.749394718052,132.59811037369
    ));
#67 = CARTESIAN_POINT('',(0.514365405102,-5.729367519291,132.51334363067
    ));
#68 = CARTESIAN_POINT('',(0.668233467375,-5.714512845388,132.44902256853
    ));
#69 = CARTESIAN_POINT('',(0.807837723955,-5.696399213712,132.36686674145
    ));
#70 = CARTESIAN_POINT('',(0.932008778154,-5.676692078441,132.27022836378
    ));
#71 = CARTESIAN_POINT('',(1.040086823954,-5.656944148415,132.16214445319
    ));
#72 = CARTESIAN_POINT('',(1.13180143806,-5.638448884398,132.04540900456)
  );
#73 = CARTESIAN_POINT('',(1.207227201843,-5.622172814821,131.92260012498
    ));
#74 = CARTESIAN_POINT('',(1.332920868364,-5.593784300511,131.65548748694
    ));
#75 = CARTESIAN_POINT('',(1.380711196895,-5.582053224479,131.5076320022)
  );
#76 = CARTESIAN_POINT('',(1.409582729286,-5.574558291867,131.35500100838
    ));
#77 = CARTESIAN_POINT('',(1.419237954299,-5.571980598133,131.2));
#78 = CARTESIAN_POINT('',(1.409582729286,-5.574558291867,131.04499899161
    ));
#79 = CARTESIAN_POINT('',(1.380711196894,-5.582053224479,130.89236799779
    ));
#80 = CARTESIAN_POINT('',(1.332920868365,-5.593784300511,130.74451251305
    ));
#81 = CARTESIAN_POINT('',(1.211002288417,-5.621320193506,130.48542234235
    ));
#82 = CARTESIAN_POINT('',(1.141415595244,-5.636370794346,130.37041948712
    ));
#83 = CARTESIAN_POINT('',(1.05770924291,-5.653373269978,130.26069320915)
  );
#84 = CARTESIAN_POINT('',(0.959776659892,-5.671569408587,130.15822314689
    ));
#85 = CARTESIAN_POINT('',(0.847728278627,-5.689958923186,130.06519399056
    ));
#86 = CARTESIAN_POINT('',(0.721938873118,-5.707330404486,129.98402462373
    ));
#87 = CARTESIAN_POINT('',(0.583144182343,-5.722344644993,129.91742791665
    ));
#88 = CARTESIAN_POINT('',(0.286683697171,-5.744713415319,129.82110206586
    ));
#89 = CARTESIAN_POINT('',(0.131557015499,-5.7521479275,129.79090966358)
  );
#90 = CARTESIAN_POINT('',(-2.871845773067E-02,-5.754797693165,
    129.78082906493));
#91 = CARTESIAN_POINT('',(-0.189543587981,-5.751972384365,
    129.79204256862));
#92 = CARTESIAN_POINT('',(-0.346182699045,-5.743876004179,
    129.82414215302));
#93 = CARTESIAN_POINT('',(-0.49417218345,-5.731581972424,129.87515709117
    ));
#94 = CARTESIAN_POINT('',(-0.629726797511,-5.716703494856,
    129.94151324825));
#95 = CARTESIAN_POINT('',(-0.914853099069,-5.679184634143,
    130.12245990145));
#96 = CARTESIAN_POINT('',(-1.05543252414,-5.655153709228,130.24846105468
    ));
#97 = CARTESIAN_POINT('',(-1.171515414199,-5.631568983857,
    130.38986319052));
#98 = CARTESIAN_POINT('',(-1.263484625235,-5.610679734303,
    130.54221383368));
#99 = CARTESIAN_POINT('',(-1.331905343743,-5.594056921991,
    130.70203110288));
#100 = CARTESIAN_POINT('',(-1.377292688641,-5.582661318151,
    130.86648905232));
#101 = CARTESIAN_POINT('',(-1.4,-5.576961538329,131.03321907709));
#102 = CARTESIAN_POINT('',(-1.4,-5.576961538329,131.2));
#103 = FACE_BOUND('',#104,.F.);
#104 = EDGE_LOOP('',(#105));
#105 = ORIENTED_EDGE('',*,*,#106,.F.);
#106 = EDGE_CURVE('',#107,#107,#109,.T.);
#107 = VERTEX_POINT('',#108);
#108 = CARTESIAN_POINT('',(-0.5,-5.728219618695,112.087079));
#109 = B_SPLINE_CURVE_WITH_KNOTS('',8,(#110,#111,#112,#113,#114,#115,
    #116,#117,#118,#119,#120,#121,#122,#123,#124,#125,#126,#127,#128,
    #129,#130,#131,#132,#133,#134,#135,#136,#137,#138,#139),
  .UNSPECIFIED.,.T.,.F.,(9,7,7,7,9),(0.,0.250000000002,0.500000000003,
    0.750000000004,1.),.UNSPECIFIED.);
#110 = CARTESIAN_POINT('',(-0.5,-5.728219618695,112.087079));
#111 = CARTESIAN_POINT('',(-0.5,-5.728219618695,112.17991500498));
#112 = CARTESIAN_POINT('',(-0.480300997597,-5.729939409304,
    112.27479284807));
#113 = CARTESIAN_POINT('',(-0.439383026821,-5.733509128722,
    112.36600484041));
#114 = CARTESIAN_POINT('',(-0.37813058221,-5.738479139999,
    112.44767596783));
#115 = CARTESIAN_POINT('',(-0.299075905632,-5.743690692379,
    112.51450795623));
#116 = CARTESIAN_POINT('',(-0.206269197419,-5.747825233546,
    112.56207198505));
#117 = CARTESIAN_POINT('',(-0.104595983918,-5.75,112.587079));
#118 = CARTESIAN_POINT('',(0.104595983918,-5.75,112.587079));
#119 = CARTESIAN_POINT('',(0.20626919742,-5.747825233546,112.56207198505
    ));
#120 = CARTESIAN_POINT('',(0.299075905631,-5.743690692379,
    112.51450795623));
#121 = CARTESIAN_POINT('',(0.378130582211,-5.738479139999,
    112.44767596783));
#122 = CARTESIAN_POINT('',(0.43938302682,-5.733509128722,112.36600484041
    ));
#123 = CARTESIAN_POINT('',(0.480300997597,-5.729939409304,
    112.27479284807));
#124 = CARTESIAN_POINT('',(0.5,-5.728219618695,112.17991500498));
#125 = CARTESIAN_POINT('',(0.5,-5.728219618695,111.99424299501));
#126 = CARTESIAN_POINT('',(0.480300997597,-5.729939409304,
    111.89936515192));
#127 = CARTESIAN_POINT('',(0.43938302682,-5.733509128722,111.80815315958
    ));
#128 = CARTESIAN_POINT('',(0.378130582211,-5.738479139999,
    111.72648203216));
#129 = CARTESIAN_POINT('',(0.299075905633,-5.743690692379,
    111.65965004376));
#130 = CARTESIAN_POINT('',(0.206269197418,-5.747825233546,
    111.61208601494));
#131 = CARTESIAN_POINT('',(0.104595983918,-5.75,111.587079));
#132 = CARTESIAN_POINT('',(-0.104595983916,-5.75,111.587079));
#133 = CARTESIAN_POINT('',(-0.20626919742,-5.747825233546,
    111.61208601494));
#134 = CARTESIAN_POINT('',(-0.299075905633,-5.743690692379,
    111.65965004377));
#135 = CARTESIAN_POINT('',(-0.37813058221,-5.738479139999,
    111.72648203216));
#136 = CARTESIAN_POINT('',(-0.439383026822,-5.733509128722,
    111.80815315959));
#137 = CARTESIAN_POINT('',(-0.480300997596,-5.729939409304,
    111.89936515192));
#138 = CARTESIAN_POINT('',(-0.5,-5.728219618695,111.99424299501));
#139 = CARTESIAN_POINT('',(-0.5,-5.728219618695,112.087079));
#140 = FACE_BOUND('',#141,.F.);
#141 = EDGE_LOOP('',(#142));
#142 = ORIENTED_EDGE('',*,*,#143,.F.);
#143 = EDGE_CURVE('',#144,#144,#146,.T.);
#144 = VERTEX_POINT('',#145);
#145 = CARTESIAN_POINT('',(-1.4,-5.576961538329,172.7));
#146 = B_SPLINE_CURVE_WITH_KNOTS('',8,(#147,#148,#149,#150,#151,#152,
    #153,#154,#155,#156,#157,#158,#159,#160,#161,#162,#163,#164,#165,
    #166,#167,#168,#169,#170,#171,#172,#173,#174,#175,#176,#177,#178,
    #179,#180,#181,#182,#183,#184,#185,#186,#187,#188,#189,#190,#191,
    #192,#193,#194,#195,#196,#197),.UNSPECIFIED.,.T.,.F.,(9,7,7,7,7,7,7,
    9),(0.,0.151835503031,0.287121521164,0.424267898827,0.576693780175,
    0.705143137711,0.829683815613,1.),.UNSPECIFIED.);
#147 = CARTESIAN_POINT('',(-1.4,-5.576961538329,172.7));
#148 = CARTESIAN_POINT('',(-1.4,-5.576961538329,172.8475392656));
#149 = CARTESIAN_POINT('',(-1.382230724948,-5.581422069138,
    172.99518440409));
#150 = CARTESIAN_POINT('',(-1.346645291807,-5.590355734302,
    173.14128163145));
#151 = CARTESIAN_POINT('',(-1.29305696344,-5.603470240684,
    173.28411289456));
#152 = CARTESIAN_POINT('',(-1.221173876857,-5.62016314482,
    173.42178173786));
#153 = CARTESIAN_POINT('',(-1.130632973108,-5.639486078231,
    173.55207553829));
#154 = CARTESIAN_POINT('',(-1.021086390862,-5.660110704416,
    173.67225459248));
#155 = CARTESIAN_POINT('',(-0.777727800426,-5.698342936758,
    173.87357832716));
#156 = CARTESIAN_POINT('',(-0.644438238472,-5.716572277749,
    173.96038213086));
#157 = CARTESIAN_POINT('',(-0.494602766502,-5.733184634122,
    174.03232167723));
#158 = CARTESIAN_POINT('',(-0.331865114317,-5.746061329613,
    174.08442423565));
#159 = CARTESIAN_POINT('',(-0.160958592626,-5.753405083014,
    174.11347538229));
#160 = CARTESIAN_POINT('',(1.286120685456E-02,-5.754418117228,
    174.1179615948));
#161 = CARTESIAN_POINT('',(0.184220738364,-5.749394718052,
    174.09811037369));
#162 = CARTESIAN_POINT('',(0.514365405102,-5.729367519291,
    174.01334363067));
#163 = CARTESIAN_POINT('',(0.668233467376,-5.714512845388,
    173.94902256853));
#164 = CARTESIAN_POINT('',(0.807837723955,-5.696399213712,
    173.86686674145));
#165 = CARTESIAN_POINT('',(0.932008778154,-5.676692078441,
    173.77022836378));
#166 = CARTESIAN_POINT('',(1.040086823954,-5.656944148415,
    173.66214445319));
#167 = CARTESIAN_POINT('',(1.13180143806,-5.638448884398,173.54540900456
    ));
#168 = CARTESIAN_POINT('',(1.207227201843,-5.622172814821,
    173.42260012498));
#169 = CARTESIAN_POINT('',(1.332920868363,-5.593784300511,
    173.15548748694));
#170 = CARTESIAN_POINT('',(1.380711196894,-5.582053224479,173.0076320022
    ));
#171 = CARTESIAN_POINT('',(1.409582729287,-5.574558291867,
    172.85500100838));
#172 = CARTESIAN_POINT('',(1.419237954299,-5.571980598133,
    172.69999999999));
#173 = CARTESIAN_POINT('',(1.409582729286,-5.574558291867,
    172.54499899161));
#174 = CARTESIAN_POINT('',(1.380711196894,-5.582053224479,
    172.39236799779));
#175 = CARTESIAN_POINT('',(1.332920868364,-5.593784300511,
    172.24451251305));
#176 = CARTESIAN_POINT('',(1.211002288417,-5.621320193506,
    171.98542234235));
#177 = CARTESIAN_POINT('',(1.141415595244,-5.636370794346,
    171.87041948712));
#178 = CARTESIAN_POINT('',(1.05770924291,-5.653373269977,171.76069320915
    ));
#179 = CARTESIAN_POINT('',(0.959776659892,-5.671569408587,
    171.65822314689));
#180 = CARTESIAN_POINT('',(0.847728278627,-5.689958923186,
    171.56519399056));
#181 = CARTESIAN_POINT('',(0.721938873118,-5.707330404486,
    171.48402462373));
#182 = CARTESIAN_POINT('',(0.583144182343,-5.722344644993,
    171.41742791665));
#183 = CARTESIAN_POINT('',(0.286683697171,-5.744713415319,
    171.32110206586));
#184 = CARTESIAN_POINT('',(0.131557015499,-5.7521479275,171.29090966358)
  );
#185 = CARTESIAN_POINT('',(-2.871845773066E-02,-5.754797693165,
    171.28082906493));
#186 = CARTESIAN_POINT('',(-0.189543587981,-5.751972384365,
    171.29204256862));
#187 = CARTESIAN_POINT('',(-0.346182699045,-5.743876004179,
    171.32414215302));
#188 = CARTESIAN_POINT('',(-0.49417218345,-5.731581972424,
    171.37515709117));
#189 = CARTESIAN_POINT('',(-0.629726797511,-5.716703494856,
    171.44151324825));
#190 = CARTESIAN_POINT('',(-0.914853099069,-5.679184634143,
    171.62245990145));
#191 = CARTESIAN_POINT('',(-1.05543252414,-5.655153709228,
    171.74846105468));
#192 = CARTESIAN_POINT('',(-1.171515414199,-5.631568983857,
    171.88986319052));
#193 = CARTESIAN_POINT('',(-1.263484625235,-5.610679734303,
    172.04221383368));
#194 = CARTESIAN_POINT('',(-1.331905343743,-5.594056921991,
    172.20203110288));
#195 = CARTESIAN_POINT('',(-1.377292688641,-5.582661318151,
    172.36648905232));
#196 = CARTESIAN_POINT('',(-1.4,-5.576961538329,172.53321907709));
#197 = CARTESIAN_POINT('',(-1.4,-5.576961538329,172.7));
#198 = FACE_BOUND('',#199,.F.);
#199 = EDGE_LOOP('',(#200));
#200 = ORIENTED_EDGE('',*,*,#201,.F.);
#201 = EDGE_CURVE('',#202,#202,#204,.T.);
#202 = VERTEX_POINT('',#203);
#203 = CARTESIAN_POINT('',(-1.210262,-5.621189010464,81.2));
#204 = B_SPLINE_CURVE_WITH_KNOTS('',7,(#205,#206,#207,#208,#209,#210,
    #211,#212,#213,#214,#215,#216,#217,#218,#219,#220,#221,#222,#223,
    #224,#225,#226,#227,#228,#229,#230,#231,#232,#233,#234,#235,#236,
    #237,#238,#239,#240,#241,#242,#243,#244,#245,#246,#247,#248),
  .UNSPECIFIED.,.T.,.F.,(8,6,6,6,6,6,6,8),(0.,0.150462494486,
    0.286681304806,0.423861604791,0.586321723986,0.713237289828,
    0.839874995629,1.),.UNSPECIFIED.);
#205 = CARTESIAN_POINT('',(-1.210262,-5.621189010464,81.2));
#206 = CARTESIAN_POINT('',(-1.210262,-5.621189010464,81.346132398505));
#207 = CARTESIAN_POINT('',(-1.189676880154,-5.625620953958,
    81.492280686162));
#208 = CARTESIAN_POINT('',(-1.148496202235,-5.634487840776,
    81.636187408741));
#209 = CARTESIAN_POINT('',(-1.08642235417,-5.647354285518,
    81.775432206757));
#210 = CARTESIAN_POINT('',(-1.003056283523,-5.663316335708,
    81.907159028693));
#211 = CARTESIAN_POINT('',(-0.898028041408,-5.680876808766,
    82.027808462632));
#212 = CARTESIAN_POINT('',(-0.656854659126,-5.713529099531,
    82.227324435908));
#213 = CARTESIAN_POINT('',(-0.521358262931,-5.729134645587,
    82.311744538412));
#214 = CARTESIAN_POINT('',(-0.36784630719,-5.742682048874,
    82.377031836923));
#215 = CARTESIAN_POINT('',(-0.201834097388,-5.751590875782,
    82.417344823712));
#216 = CARTESIAN_POINT('',(-3.024983495975E-02,-5.754170199888,
    82.429646462417));
#217 = CARTESIAN_POINT('',(0.139571667874,-5.750577705928,
    82.413681989159));
#218 = CARTESIAN_POINT('',(0.463527459907,-5.733597177084,
    82.330504279077));
#219 = CARTESIAN_POINT('',(0.612849055379,-5.720387066948,
    82.264135722201));
#220 = CARTESIAN_POINT('',(0.746062395931,-5.704182864874,
    82.177889995987));
#221 = CARTESIAN_POINT('',(0.861484054054,-5.686982871284,
    82.076013689532));
#222 = CARTESIAN_POINT('',(0.958178490996,-5.670566014601,81.96248800383
    ));
#223 = CARTESIAN_POINT('',(1.035895111341,-5.656240423718,
    81.841074108462));
#224 = CARTESIAN_POINT('',(1.165166771282,-5.631161846627,
    81.566357847363));
#225 = CARTESIAN_POINT('',(1.210599606684,-5.621294495294,
    81.408459151569));
#226 = CARTESIAN_POINT('',(1.231099460063,-5.616533498672,
    81.245407433035));
#227 = CARTESIAN_POINT('',(1.226300846361,-5.617629227897,
    81.080764911104));
#228 = CARTESIAN_POINT('',(1.196007869232,-5.624564230154,
    80.918321093479));
#229 = CARTESIAN_POINT('',(1.140424970019,-5.636358205955,
    80.762224447843));
#230 = CARTESIAN_POINT('',(0.998169842196,-5.663054535596,
    80.503463330941));
#231 = CARTESIAN_POINT('',(0.919820499295,-5.676925971551,
    80.394507239351));
#232 = CARTESIAN_POINT('',(0.825269404413,-5.692247919034,
    80.293108554498));
#233 = CARTESIAN_POINT('',(0.71486951105,-5.70789498661,80.202409873126)
  );
#234 = CARTESIAN_POINT('',(0.589537665068,-5.722419979435,
    80.125656565589));
#235 = CARTESIAN_POINT('',(0.450784471528,-5.734265116004,
    80.066223877606));
#236 = CARTESIAN_POINT('',(0.151503340493,-5.749952293091,
    79.989381543675));
#237 = CARTESIAN_POINT('',(-5.67656092066E-03,-5.753638352749,
    79.972727294346));
#238 = CARTESIAN_POINT('',(-0.16508092699,-5.752074302359,79.98034468227
    ));
#239 = CARTESIAN_POINT('',(-0.320607367687,-5.745030466996,
    80.012315267326));
#240 = CARTESIAN_POINT('',(-0.466419408904,-5.733679597507,
    80.066448463043));
#241 = CARTESIAN_POINT('',(-0.597657297456,-5.720003346539,
    80.13825734119));
#242 = CARTESIAN_POINT('',(-0.855161601234,-5.687898982255,
    80.325345169029));
#243 = CARTESIAN_POINT('',(-0.974694686166,-5.668702831649,
    80.44982882764));
#244 = CARTESIAN_POINT('',(-1.069550823777,-5.650842402425,
    80.588039922473));
#245 = CARTESIAN_POINT('',(-1.140121544583,-5.636291341285,
    80.735467381288));
#246 = CARTESIAN_POINT('',(-1.186892322448,-5.626220379401,
    80.888542134211));
#247 = CARTESIAN_POINT('',(-1.210262,-5.621189010464,81.044296907813));
#248 = CARTESIAN_POINT('',(-1.210262,-5.621189010464,81.2));
#249 = FACE_BOUND('',#250,.F.);
#250 = EDGE_LOOP('',(#251));
#251 = ORIENTED_EDGE('',*,*,#252,.F.);
#252 = EDGE_CURVE('',#253,#253,#255,.T.);
#253 = VERTEX_POINT('',#254);
#254 = CARTESIAN_POINT('',(-1.4,-5.576961538329,21.2));
#255 = B_SPLINE_CURVE_WITH_KNOTS('',8,(#256,#257,#258,#259,#260,#261,
    #262,#263,#264,#265,#266,#267,#268,#269,#270,#271,#272,#273,#274,
    #275,#276,#277,#278,#279,#280,#281,#282,#283,#284,#285,#286,#287,
    #288,#289,#290,#291,#292,#293,#294,#295,#296,#297,#298,#299,#300,
    #301,#302,#303,#304,#305,#306),.UNSPECIFIED.,.T.,.F.,(9,7,7,7,7,7,7,
    9),(0.,0.15183550303,0.287121521162,0.424267898823,0.576693780175,
    0.705143137711,0.829683815612,1.),.UNSPECIFIED.);
#256 = CARTESIAN_POINT('',(-1.4,-5.576961538329,21.2));
#257 = CARTESIAN_POINT('',(-1.4,-5.576961538329,21.347539265609));
#258 = CARTESIAN_POINT('',(-1.382230724948,-5.581422069138,
    21.495184404099));
#259 = CARTESIAN_POINT('',(-1.346645291807,-5.590355734302,
    21.641281631453));
#260 = CARTESIAN_POINT('',(-1.29305696344,-5.603470240684,
    21.784112894568));
#261 = CARTESIAN_POINT('',(-1.221173876857,-5.62016314482,
    21.921781737866));
#262 = CARTESIAN_POINT('',(-1.130632973109,-5.639486078231,
    22.05207553829));
#263 = CARTESIAN_POINT('',(-1.021086390862,-5.660110704416,
    22.172254592484));
#264 = CARTESIAN_POINT('',(-0.777727800426,-5.698342936758,
    22.373578327164));
#265 = CARTESIAN_POINT('',(-0.644438238473,-5.716572277749,
    22.460382130868));
#266 = CARTESIAN_POINT('',(-0.4946027665,-5.733184634122,22.53232167723)
  );
#267 = CARTESIAN_POINT('',(-0.33186511432,-5.746061329613,
    22.584424235657));
#268 = CARTESIAN_POINT('',(-0.160958592624,-5.753405083014,
    22.613475382295));
#269 = CARTESIAN_POINT('',(1.286120685349E-02,-5.754418117228,
    22.617961594802));
#270 = CARTESIAN_POINT('',(0.184220738364,-5.749394718052,
    22.598110373698));
#271 = CARTESIAN_POINT('',(0.514365405102,-5.729367519291,
    22.513343630671));
#272 = CARTESIAN_POINT('',(0.668233467376,-5.714512845388,
    22.449022568535));
#273 = CARTESIAN_POINT('',(0.807837723955,-5.696399213712,
    22.366866741459));
#274 = CARTESIAN_POINT('',(0.932008778154,-5.676692078441,
    22.270228363788));
#275 = CARTESIAN_POINT('',(1.040086823954,-5.656944148415,
    22.162144453192));
#276 = CARTESIAN_POINT('',(1.13180143806,-5.638448884398,22.045409004562
    ));
#277 = CARTESIAN_POINT('',(1.207227201843,-5.622172814821,
    21.922600124982));
#278 = CARTESIAN_POINT('',(1.332920868366,-5.59378430051,21.65548748694)
  );
#279 = CARTESIAN_POINT('',(1.380711196895,-5.582053224479,
    21.507632002198));
#280 = CARTESIAN_POINT('',(1.409582729286,-5.574558291867,21.35500100838
    ));
#281 = CARTESIAN_POINT('',(1.419237954298,-5.571980598133,21.2));
#282 = CARTESIAN_POINT('',(1.409582729286,-5.574558291867,21.04499899162
    ));
#283 = CARTESIAN_POINT('',(1.380711196895,-5.582053224479,
    20.892367997802));
#284 = CARTESIAN_POINT('',(1.332920868366,-5.59378430051,20.74451251306)
  );
#285 = CARTESIAN_POINT('',(1.211002288417,-5.621320193506,20.48542234235
    ));
#286 = CARTESIAN_POINT('',(1.141415595244,-5.636370794346,
    20.370419487128));
#287 = CARTESIAN_POINT('',(1.05770924291,-5.653373269977,20.260693209151
    ));
#288 = CARTESIAN_POINT('',(0.959776659892,-5.671569408587,
    20.158223146899));
#289 = CARTESIAN_POINT('',(0.847728278627,-5.689958923186,
    20.065193990566));
#290 = CARTESIAN_POINT('',(0.721938873118,-5.707330404486,
    19.984024623738));
#291 = CARTESIAN_POINT('',(0.583144182343,-5.722344644993,
    19.917427916653));
#292 = CARTESIAN_POINT('',(0.286683697171,-5.744713415319,
    19.821102065866));
#293 = CARTESIAN_POINT('',(0.131557015499,-5.7521479275,19.790909663584)
  );
#294 = CARTESIAN_POINT('',(-2.871845773054E-02,-5.754797693165,
    19.780829064934));
#295 = CARTESIAN_POINT('',(-0.189543587982,-5.751972384365,
    19.792042568627));
#296 = CARTESIAN_POINT('',(-0.346182699046,-5.743876004179,
    19.824142153024));
#297 = CARTESIAN_POINT('',(-0.49417218345,-5.731581972424,
    19.875157091172));
#298 = CARTESIAN_POINT('',(-0.629726797512,-5.716703494856,
    19.94151324825));
#299 = CARTESIAN_POINT('',(-0.914853099069,-5.679184634143,
    20.122459901456));
#300 = CARTESIAN_POINT('',(-1.05543252414,-5.655153709228,
    20.248461054686));
#301 = CARTESIAN_POINT('',(-1.171515414199,-5.631568983857,
    20.389863190521));
#302 = CARTESIAN_POINT('',(-1.263484625235,-5.610679734303,
    20.542213833688));
#303 = CARTESIAN_POINT('',(-1.331905343743,-5.594056921991,
    20.70203110288));
#304 = CARTESIAN_POINT('',(-1.377292688641,-5.582661318151,
    20.866489052327));
#305 = CARTESIAN_POINT('',(-1.4,-5.576961538329,21.03321907709));
#306 = CARTESIAN_POINT('',(-1.4,-5.576961538329,21.2));
#307 = FACE_BOUND('',#308,.F.);
#308 = EDGE_LOOP('',(#309));
#309 = ORIENTED_EDGE('',*,*,#310,.F.);
#310 = EDGE_CURVE('',#311,#311,#313,.T.);
#311 = VERTEX_POINT('',#312);
#312 = CARTESIAN_POINT('',(-0.5,-5.728219618695,-0.864282));
#313 = B_SPLINE_CURVE_WITH_KNOTS('',8,(#314,#315,#316,#317,#318,#319,
    #320,#321,#322,#323,#324,#325,#326,#327,#328,#329,#330,#331,#332,
    #333,#334,#335,#336,#337,#338,#339,#340,#341,#342,#343),
  .UNSPECIFIED.,.T.,.F.,(9,7,7,7,9),(0.,0.250000000001,0.500000000002,
    0.750000000001,1.),.UNSPECIFIED.);
#314 = CARTESIAN_POINT('',(-0.5,-5.728219618695,-0.864282));
#315 = CARTESIAN_POINT('',(-0.5,-5.728219618695,-0.771445995016));
#316 = CARTESIAN_POINT('',(-0.480300997597,-5.729939409304,
    -0.676568151926));
#317 = CARTESIAN_POINT('',(-0.439383026821,-5.733509128722,
    -0.585356159587));
#318 = CARTESIAN_POINT('',(-0.378130582211,-5.738479139999,
    -0.503685032165));
#319 = CARTESIAN_POINT('',(-0.299075905632,-5.743690692379,
    -0.436853043769));
#320 = CARTESIAN_POINT('',(-0.20626919742,-5.747825233546,
    -0.389289014942));
#321 = CARTESIAN_POINT('',(-0.104595983918,-5.75,-0.364282));
#322 = CARTESIAN_POINT('',(0.104595983918,-5.75,-0.364282));
#323 = CARTESIAN_POINT('',(0.20626919742,-5.747825233546,-0.389289014942
    ));
#324 = CARTESIAN_POINT('',(0.299075905631,-5.743690692379,
    -0.436853043769));
#325 = CARTESIAN_POINT('',(0.378130582212,-5.738479139999,
    -0.503685032166));
#326 = CARTESIAN_POINT('',(0.43938302682,-5.733509128722,-0.585356159586
    ));
#327 = CARTESIAN_POINT('',(0.480300997598,-5.729939409304,
    -0.676568151927));
#328 = CARTESIAN_POINT('',(0.5,-5.728219618695,-0.771445995016));
#329 = CARTESIAN_POINT('',(0.5,-5.728219618695,-0.957118004983));
#330 = CARTESIAN_POINT('',(0.480300997597,-5.729939409304,
    -1.051995848074));
#331 = CARTESIAN_POINT('',(0.439383026821,-5.733509128722,
    -1.143207840413));
#332 = CARTESIAN_POINT('',(0.378130582209,-5.738479139999,
    -1.224878967836));
#333 = CARTESIAN_POINT('',(0.299075905633,-5.743690692379,-1.29171095623
    ));
#334 = CARTESIAN_POINT('',(0.206269197419,-5.747825233546,
    -1.339274985058));
#335 = CARTESIAN_POINT('',(0.104595983918,-5.75,-1.364282));
#336 = CARTESIAN_POINT('',(-0.104595983918,-5.75,-1.364282));
#337 = CARTESIAN_POINT('',(-0.206269197418,-5.747825233546,
    -1.339274985058));
#338 = CARTESIAN_POINT('',(-0.299075905634,-5.743690692379,
    -1.291710956231));
#339 = CARTESIAN_POINT('',(-0.37813058221,-5.738479139999,
    -1.224878967835));
#340 = CARTESIAN_POINT('',(-0.439383026822,-5.733509128722,
    -1.143207840413));
#341 = CARTESIAN_POINT('',(-0.480300997597,-5.729939409304,
    -1.051995848074));
#342 = CARTESIAN_POINT('',(-0.5,-5.728219618695,-0.957118004985));
#343 = CARTESIAN_POINT('',(-0.5,-5.728219618695,-0.864282));
#344 = FACE_BOUND('',#345,.F.);
#345 = EDGE_LOOP('',(#346));
#346 = ORIENTED_EDGE('',*,*,#347,.F.);
#347 = EDGE_CURVE('',#348,#348,#350,.T.);
#348 = VERTEX_POINT('',#349);
#349 = CARTESIAN_POINT('',(-1.4,-5.576961538329,-10.3));
#350 = B_SPLINE_CURVE_WITH_KNOTS('',8,(#351,#352,#353,#354,#355,#356,
    #357,#358,#359,#360,#361,#362,#363,#364,#365,#366,#367,#368,#369,
    #370,#371,#372,#373,#374,#375,#376,#377,#378,#379,#380,#381,#382,
    #383,#384,#385,#386,#387,#388,#389,#390,#391,#392,#393,#394,#395,
    #396,#397,#398,#399,#400,#401),.UNSPECIFIED.,.T.,.F.,(9,7,7,7,7,7,7,
    9),(0.,0.15183550303,0.287121521162,0.424267898823,0.576693780177,
    0.705143137713,0.829683815613,1.),.UNSPECIFIED.);
#351 = CARTESIAN_POINT('',(-1.4,-5.576961538329,-10.3));
#352 = CARTESIAN_POINT('',(-1.4,-5.576961538329,-10.15246073439));
#353 = CARTESIAN_POINT('',(-1.382230724948,-5.581422069138,
    -10.0048155959));
#354 = CARTESIAN_POINT('',(-1.346645291807,-5.590355734302,
    -9.858718368547));
#355 = CARTESIAN_POINT('',(-1.29305696344,-5.603470240684,
    -9.715887105432));
#356 = CARTESIAN_POINT('',(-1.221173876857,-5.62016314482,
    -9.578218262134));
#357 = CARTESIAN_POINT('',(-1.130632973108,-5.639486078231,
    -9.44792446171));
#358 = CARTESIAN_POINT('',(-1.021086390862,-5.660110704416,
    -9.327745407516));
#359 = CARTESIAN_POINT('',(-0.777727800426,-5.698342936758,
    -9.126421672836));
#360 = CARTESIAN_POINT('',(-0.644438238472,-5.716572277749,
    -9.039617869131));
#361 = CARTESIAN_POINT('',(-0.494602766501,-5.733184634122,
    -8.967678322771));
#362 = CARTESIAN_POINT('',(-0.331865114318,-5.746061329613,
    -8.915575764341));
#363 = CARTESIAN_POINT('',(-0.160958592625,-5.753405083014,
    -8.886524617706));
#364 = CARTESIAN_POINT('',(1.286120685386E-02,-5.754418117228,
    -8.882038405197));
#365 = CARTESIAN_POINT('',(0.184220738364,-5.749394718052,
    -8.901889626302));
#366 = CARTESIAN_POINT('',(0.514365405102,-5.729367519291,
    -8.986656369329));
#367 = CARTESIAN_POINT('',(0.668233467376,-5.714512845388,
    -9.050977431465));
#368 = CARTESIAN_POINT('',(0.807837723955,-5.696399213712,
    -9.133133258541));
#369 = CARTESIAN_POINT('',(0.932008778154,-5.676692078441,
    -9.229771636212));
#370 = CARTESIAN_POINT('',(1.040086823954,-5.656944148415,
    -9.337855546808));
#371 = CARTESIAN_POINT('',(1.13180143806,-5.638448884398,-9.454590995438
    ));
#372 = CARTESIAN_POINT('',(1.207227201843,-5.622172814821,
    -9.577399875018));
#373 = CARTESIAN_POINT('',(1.332920868367,-5.59378430051,-9.844512513062
    ));
#374 = CARTESIAN_POINT('',(1.380711196896,-5.582053224478,
    -9.992367997804));
#375 = CARTESIAN_POINT('',(1.409582729286,-5.574558291867,
    -10.14499899162));
#376 = CARTESIAN_POINT('',(1.419237954298,-5.571980598133,-10.3));
#377 = CARTESIAN_POINT('',(1.409582729286,-5.574558291867,
    -10.45500100837));
#378 = CARTESIAN_POINT('',(1.380711196896,-5.582053224478,
    -10.60763200219));
#379 = CARTESIAN_POINT('',(1.332920868367,-5.59378430051,-10.75548748693
    ));
#380 = CARTESIAN_POINT('',(1.211002288417,-5.621320193506,
    -11.01457765765));
#381 = CARTESIAN_POINT('',(1.141415595245,-5.636370794346,
    -11.12958051287));
#382 = CARTESIAN_POINT('',(1.05770924291,-5.653373269978,-11.23930679084
    ));
#383 = CARTESIAN_POINT('',(0.959776659892,-5.671569408587,-11.3417768531
    ));
#384 = CARTESIAN_POINT('',(0.847728278628,-5.689958923186,
    -11.43480600943));
#385 = CARTESIAN_POINT('',(0.721938873118,-5.707330404486,
    -11.51597537626));
#386 = CARTESIAN_POINT('',(0.583144182343,-5.722344644993,
    -11.58257208334));
#387 = CARTESIAN_POINT('',(0.286683697171,-5.744713415319,
    -11.67889793413));
#388 = CARTESIAN_POINT('',(0.131557015499,-5.7521479275,-11.70909033641)
  );
#389 = CARTESIAN_POINT('',(-2.871845773029E-02,-5.754797693165,
    -11.71917093506));
#390 = CARTESIAN_POINT('',(-0.189543587981,-5.751972384365,
    -11.70795743137));
#391 = CARTESIAN_POINT('',(-0.346182699046,-5.743876004179,
    -11.67585784697));
#392 = CARTESIAN_POINT('',(-0.49417218345,-5.731581972424,
    -11.62484290882));
#393 = CARTESIAN_POINT('',(-0.629726797512,-5.716703494856,
    -11.55848675175));
#394 = CARTESIAN_POINT('',(-0.914853099069,-5.679184634143,
    -11.37754009854));
#395 = CARTESIAN_POINT('',(-1.05543252414,-5.655153709228,
    -11.25153894531));
#396 = CARTESIAN_POINT('',(-1.171515414199,-5.631568983857,
    -11.11013680948));
#397 = CARTESIAN_POINT('',(-1.263484625235,-5.610679734303,
    -10.95778616631));
#398 = CARTESIAN_POINT('',(-1.331905343743,-5.594056921991,
    -10.79796889712));
#399 = CARTESIAN_POINT('',(-1.377292688641,-5.582661318151,
    -10.63351094767));
#400 = CARTESIAN_POINT('',(-1.4,-5.576961538329,-10.4667809229));
#401 = CARTESIAN_POINT('',(-1.4,-5.576961538329,-10.3));
#402 = CYLINDRICAL_SURFACE('',#403,5.75);
#403 = AXIS2_PLACEMENT_3D('',#404,#405,#406);
#404 = CARTESIAN_POINT('',(0.,0.,-28.7));
#405 = DIRECTION('',(-0.,-0.,-1.));
#406 = DIRECTION('',(1.,0.,0.));
#407 = ADVANCED_FACE('',(#408),#411,.F.);
#408 = FACE_BOUND('',#409,.F.);
#409 = EDGE_LOOP('',(#410));
#410 = ORIENTED_EDGE('',*,*,#21,.T.);
#411 = PLANE('',#412);
#412 = AXIS2_PLACEMENT_3D('',#413,#414,#415);
#413 = CARTESIAN_POINT('',(-3.6E-16,4.8E-16,-28.7));
#414 = DIRECTION('',(0.,0.,1.));
#415 = DIRECTION('',(1.,0.,0.));
#416 = ADVANCED_FACE('',(#417),#420,.T.);
#417 = FACE_BOUND('',#418,.T.);
#418 = EDGE_LOOP('',(#419));
#419 = ORIENTED_EDGE('',*,*,#38,.T.);
#420 = PLANE('',#421);
#421 = AXIS2_PLACEMENT_3D('',#422,#423,#424);
#422 = CARTESIAN_POINT('',(-3.6E-16,4.8E-16,191.1));
#423 = DIRECTION('',(0.,0.,1.));
#424 = DIRECTION('',(1.,0.,0.));
#425 = ADVANCED_FACE('',(#426),#445,.F.);
#426 = FACE_BOUND('',#427,.F.);
#427 = EDGE_LOOP('',(#428,#437,#443,#444));
#428 = ORIENTED_EDGE('',*,*,#429,.F.);
#429 = EDGE_CURVE('',#430,#430,#432,.T.);
#430 = VERTEX_POINT('',#431);
#431 = CARTESIAN_POINT('',(-1.4,4.,131.2));
#432 = CIRCLE('',#433,1.4);
#433 = AXIS2_PLACEMENT_3D('',#434,#435,#436);
#434 = CARTESIAN_POINT('',(0.,4.,131.2));
#435 = DIRECTION('',(0.,1.,-0.));
#436 = DIRECTION('',(-1.,0.,0.));
#437 = ORIENTED_EDGE('',*,*,#438,.T.);
#438 = EDGE_CURVE('',#430,#49,#439,.T.);
#439 = LINE('',#440,#441);
#440 = CARTESIAN_POINT('',(-1.4,4.,131.2));
#441 = VECTOR('',#442,1.);
#442 = DIRECTION('',(-9.E-17,-1.,2.2E-16));
#443 = ORIENTED_EDGE('',*,*,#48,.T.);
#444 = ORIENTED_EDGE('',*,*,#438,.F.);
#445 = CYLINDRICAL_SURFACE('',#446,1.4);
#446 = AXIS2_PLACEMENT_3D('',#447,#448,#449);
#447 = CARTESIAN_POINT('',(-1.385E-14,4.,131.2));
#448 = DIRECTION('',(9.E-17,1.,-2.2E-16));
#449 = DIRECTION('',(-1.,9.E-17,-9.E-17));
#450 = ADVANCED_FACE('',(#451),#470,.F.);
#451 = FACE_BOUND('',#452,.F.);
#452 = EDGE_LOOP('',(#453,#462,#468,#469));
#453 = ORIENTED_EDGE('',*,*,#454,.F.);
#454 = EDGE_CURVE('',#455,#455,#457,.T.);
#455 = VERTEX_POINT('',#456);
#456 = CARTESIAN_POINT('',(-0.5,4.,112.087079));
#457 = CIRCLE('',#458,0.5);
#458 = AXIS2_PLACEMENT_3D('',#459,#460,#461);
#459 = CARTESIAN_POINT('',(0.,4.,112.087079));
#460 = DIRECTION('',(0.,1.,-0.));
#461 = DIRECTION('',(-1.,0.,0.));
#462 = ORIENTED_EDGE('',*,*,#463,.T.);
#463 = EDGE_CURVE('',#455,#107,#464,.T.);
#464 = LINE('',#465,#466);
#465 = CARTESIAN_POINT('',(-0.5,4.,112.087079));
#466 = VECTOR('',#467,1.);
#467 = DIRECTION('',(-9.E-17,-1.,2.2E-16));
#468 = ORIENTED_EDGE('',*,*,#106,.T.);
#469 = ORIENTED_EDGE('',*,*,#463,.F.);
#470 = CYLINDRICAL_SURFACE('',#471,0.5);
#471 = AXIS2_PLACEMENT_3D('',#472,#473,#474);
#472 = CARTESIAN_POINT('',(-1.219E-14,4.,112.087079));
#473 = DIRECTION('',(9.E-17,1.,-2.2E-16));
#474 = DIRECTION('',(-1.,9.E-17,-9.E-17));
#475 = ADVANCED_FACE('',(#476),#495,.F.);
#476 = FACE_BOUND('',#477,.F.);
#477 = EDGE_LOOP('',(#478,#487,#493,#494));
#478 = ORIENTED_EDGE('',*,*,#479,.F.);
#479 = EDGE_CURVE('',#480,#480,#482,.T.);
#480 = VERTEX_POINT('',#481);
#481 = CARTESIAN_POINT('',(-1.4,4.,172.7));
#482 = CIRCLE('',#483,1.4);
#483 = AXIS2_PLACEMENT_3D('',#484,#485,#486);
#484 = CARTESIAN_POINT('',(0.,4.,172.7));
#485 = DIRECTION('',(0.,1.,-0.));
#486 = DIRECTION('',(-1.,0.,0.));
#487 = ORIENTED_EDGE('',*,*,#488,.T.);
#488 = EDGE_CURVE('',#480,#144,#489,.T.);
#489 = LINE('',#490,#491);
#490 = CARTESIAN_POINT('',(-1.4,4.,172.7));
#491 = VECTOR('',#492,1.);
#492 = DIRECTION('',(-9.E-17,-1.,2.2E-16));
#493 = ORIENTED_EDGE('',*,*,#143,.T.);
#494 = ORIENTED_EDGE('',*,*,#488,.F.);
#495 = CYLINDRICAL_SURFACE('',#496,1.4);
#496 = AXIS2_PLACEMENT_3D('',#497,#498,#499);
#497 = CARTESIAN_POINT('',(-1.744E-14,4.,172.7));
#498 = DIRECTION('',(9.E-17,1.,-2.2E-16));
#499 = DIRECTION('',(-1.,9.E-17,-9.E-17));
#500 = ADVANCED_FACE('',(#501),#520,.F.);
#501 = FACE_BOUND('',#502,.F.);
#502 = EDGE_LOOP('',(#503,#512,#518,#519));
#503 = ORIENTED_EDGE('',*,*,#504,.F.);
#504 = EDGE_CURVE('',#505,#505,#507,.T.);
#505 = VERTEX_POINT('',#506);
#506 = CARTESIAN_POINT('',(-1.210262,4.,81.2));
#507 = CIRCLE('',#508,1.210262);
#508 = AXIS2_PLACEMENT_3D('',#509,#510,#511);
#509 = CARTESIAN_POINT('',(0.,4.,81.2));
#510 = DIRECTION('',(0.,1.,-0.));
#511 = DIRECTION('',(-1.,0.,0.));
#512 = ORIENTED_EDGE('',*,*,#513,.T.);
#513 = EDGE_CURVE('',#505,#202,#514,.T.);
#514 = LINE('',#515,#516);
#515 = CARTESIAN_POINT('',(-1.210262,4.,81.2));
#516 = VECTOR('',#517,1.);
#517 = DIRECTION('',(-9.E-17,-1.,2.2E-16));
#518 = ORIENTED_EDGE('',*,*,#201,.T.);
#519 = ORIENTED_EDGE('',*,*,#513,.F.);
#520 = CYLINDRICAL_SURFACE('',#521,1.210262);
#521 = AXIS2_PLACEMENT_3D('',#522,#523,#524);
#522 = CARTESIAN_POINT('',(-9.52E-15,4.,81.2));
#523 = DIRECTION('',(9.E-17,1.,-2.2E-16));
#524 = DIRECTION('',(-1.,9.E-17,-9.E-17));
#525 = ADVANCED_FACE('',(#526),#545,.F.);
#526 = FACE_BOUND('',#527,.F.);
#527 = EDGE_LOOP('',(#528,#537,#543,#544));
#528 = ORIENTED_EDGE('',*,*,#529,.F.);
#529 = EDGE_CURVE('',#530,#530,#532,.T.);
#530 = VERTEX_POINT('',#531);
#531 = CARTESIAN_POINT('',(-1.4,4.,21.2));
#532 = CIRCLE('',#533,1.4);
#533 = AXIS2_PLACEMENT_3D('',#534,#535,#536);
#534 = CARTESIAN_POINT('',(0.,4.,21.2));
#535 = DIRECTION('',(0.,1.,-0.));
#536 = DIRECTION('',(-1.,0.,0.));
#537 = ORIENTED_EDGE('',*,*,#538,.T.);
#538 = EDGE_CURVE('',#530,#253,#539,.T.);
#539 = LINE('',#540,#541);
#540 = CARTESIAN_POINT('',(-1.4,4.,21.2));
#541 = VECTOR('',#542,1.);
#542 = DIRECTION('',(-9.E-17,-1.,2.2E-16));
#543 = ORIENTED_EDGE('',*,*,#252,.T.);
#544 = ORIENTED_EDGE('',*,*,#538,.F.);
#545 = CYLINDRICAL_SURFACE('',#546,1.4);
#546 = AXIS2_PLACEMENT_3D('',#547,#548,#549);
#547 = CARTESIAN_POINT('',(-4.32E-15,4.,21.2));
#548 = DIRECTION('',(9.E-17,1.,-2.2E-16));
#549 = DIRECTION('',(-1.,9.E-17,-9.E-17));
#550 = ADVANCED_FACE('',(#551),#570,.F.);
#551 = FACE_BOUND('',#552,.F.);
#552 = EDGE_LOOP('',(#553,#562,#568,#569));
#553 = ORIENTED_EDGE('',*,*,#554,.F.);
#554 = EDGE_CURVE('',#555,#555,#557,.T.);
#555 = VERTEX_POINT('',#556);
#556 = CARTESIAN_POINT('',(-0.5,4.,-0.864282));
#557 = CIRCLE('',#558,0.5);
#558 = AXIS2_PLACEMENT_3D('',#559,#560,#561);
#559 = CARTESIAN_POINT('',(0.,4.,-0.864282));
#560 = DIRECTION('',(0.,1.,-0.));
#561 = DIRECTION('',(-1.,0.,0.));
#562 = ORIENTED_EDGE('',*,*,#563,.T.);
#563 = EDGE_CURVE('',#555,#311,#564,.T.);
#564 = LINE('',#565,#566);
#565 = CARTESIAN_POINT('',(-0.5,4.,-0.864282));
#566 = VECTOR('',#567,1.);
#567 = DIRECTION('',(-9.E-17,-1.,2.2E-16));
#568 = ORIENTED_EDGE('',*,*,#310,.T.);
#569 = ORIENTED_EDGE('',*,*,#563,.F.);
#570 = CYLINDRICAL_SURFACE('',#571,0.5);
#571 = AXIS2_PLACEMENT_3D('',#572,#573,#574);
#572 = CARTESIAN_POINT('',(-2.41E-15,4.,-0.864282));
#573 = DIRECTION('',(9.E-17,1.,-2.2E-16));
#574 = DIRECTION('',(-1.,9.E-17,-9.E-17));
#575 = ADVANCED_FACE('',(#576),#595,.F.);
#576 = FACE_BOUND('',#577,.F.);
#577 = EDGE_LOOP('',(#578,#587,#593,#594));
#578 = ORIENTED_EDGE('',*,*,#579,.F.);
#579 = EDGE_CURVE('',#580,#580,#582,.T.);
#580 = VERTEX_POINT('',#581);
#581 = CARTESIAN_POINT('',(-1.4,4.,-10.3));
#582 = CIRCLE('',#583,1.4);
#583 = AXIS2_PLACEMENT_3D('',#584,#585,#586);
#584 = CARTESIAN_POINT('',(0.,4.,-10.3));
#585 = DIRECTION('',(0.,1.,-0.));
#586 = DIRECTION('',(-1.,0.,0.));
#587 = ORIENTED_EDGE('',*,*,#588,.T.);
#588 = EDGE_CURVE('',#580,#348,#589,.T.);
#589 = LINE('',#590,#591);
#590 = CARTESIAN_POINT('',(-1.4,4.,-10.3));
#591 = VECTOR('',#592,1.);
#592 = DIRECTION('',(-9.E-17,-1.,2.2E-16));
#593 = ORIENTED_EDGE('',*,*,#347,.T.);
#594 = ORIENTED_EDGE('',*,*,#588,.F.);
#595 = CYLINDRICAL_SURFACE('',#596,1.4);
#596 = AXIS2_PLACEMENT_3D('',#597,#598,#599);
#597 = CARTESIAN_POINT('',(-1.59E-15,4.,-10.3));
#598 = DIRECTION('',(9.E-17,1.,-2.2E-16));
#599 = DIRECTION('',(-1.,9.E-17,-9.E-17));
#600 = ADVANCED_FACE('',(#601),#604,.F.);
#601 = FACE_BOUND('',#602,.F.);
#602 = EDGE_LOOP('',(#603));
#603 = ORIENTED_EDGE('',*,*,#429,.T.);
#604 = PLANE('',#605);
#605 = AXIS2_PLACEMENT_3D('',#606,#607,#608);
#606 = CARTESIAN_POINT('',(-8.53E-15,4.,76.131206981277));
#607 = DIRECTION('',(0.,1.,0.));
#608 = DIRECTION('',(0.,0.,1.));
#609 = ADVANCED_FACE('',(#610),#613,.F.);
#610 = FACE_BOUND('',#611,.F.);
#611 = EDGE_LOOP('',(#612));
#612 = ORIENTED_EDGE('',*,*,#454,.T.);
#613 = PLANE('',#614);
#614 = AXIS2_PLACEMENT_3D('',#615,#616,#617);
#615 = CARTESIAN_POINT('',(-8.53E-15,4.,76.131206981277));
#616 = DIRECTION('',(0.,1.,0.));
#617 = DIRECTION('',(0.,0.,1.));
#618 = ADVANCED_FACE('',(#619),#622,.F.);
#619 = FACE_BOUND('',#620,.F.);
#620 = EDGE_LOOP('',(#621));
#621 = ORIENTED_EDGE('',*,*,#479,.T.);
#622 = PLANE('',#623);
#623 = AXIS2_PLACEMENT_3D('',#624,#625,#626);
#624 = CARTESIAN_POINT('',(-8.53E-15,4.,76.131206981277));
#625 = DIRECTION('',(0.,1.,0.));
#626 = DIRECTION('',(0.,0.,1.));
#627 = ADVANCED_FACE('',(#628),#631,.F.);
#628 = FACE_BOUND('',#629,.F.);
#629 = EDGE_LOOP('',(#630));
#630 = ORIENTED_EDGE('',*,*,#504,.T.);
#631 = PLANE('',#632);
#632 = AXIS2_PLACEMENT_3D('',#633,#634,#635);
#633 = CARTESIAN_POINT('',(-8.53E-15,4.,76.131206981277));
#634 = DIRECTION('',(0.,1.,0.));
#635 = DIRECTION('',(0.,0.,1.));
#636 = ADVANCED_FACE('',(#637),#640,.F.);
#637 = FACE_BOUND('',#638,.F.);
#638 = EDGE_LOOP('',(#639));
#639 = ORIENTED_EDGE('',*,*,#529,.T.);
#640 = PLANE('',#641);
#641 = AXIS2_PLACEMENT_3D('',#642,#643,#644);
#642 = CARTESIAN_POINT('',(-8.53E-15,4.,76.131206981277));
#643 = DIRECTION('',(0.,1.,0.));
#644 = DIRECTION('',(0.,0.,1.));
#645 = ADVANCED_FACE('',(#646),#649,.F.);
#646 = FACE_BOUND('',#647,.F.);
#647 = EDGE_LOOP('',(#648));
#648 = ORIENTED_EDGE('',*,*,#554,.T.);
#649 = PLANE('',#650);
#650 = AXIS2_PLACEMENT_3D('',#651,#652,#653);
#651 = CARTESIAN_POINT('',(-8.53E-15,4.,76.131206981277));
#652 = DIRECTION('',(0.,1.,0.));
#653 = DIRECTION('',(0.,0.,1.));
#654 = ADVANCED_FACE('',(#655),#658,.F.);
#655 = FACE_BOUND('',#656,.F.);
#656 = EDGE_LOOP('',(#657));
#657 = ORIENTED_EDGE('',*,*,#579,.T.);
#658 = PLANE('',#659);
#659 = AXIS2_PLACEMENT_3D('',#660,#661,#662);
#660 = CARTESIAN_POINT('',(-8.53E-15,4.,76.131206981277));
#661 = DIRECTION('',(0.,1.,0.));
#662 = DIRECTION('',(0.,0.,1.));
#663 = ( GEOMETRIC_REPRESENTATION_CONTEXT(3) 
GLOBAL_UNCERTAINTY_ASSIGNED_CONTEXT((#667)) GLOBAL_UNIT_ASSIGNED_CONTEXT
((#664,#665,#666)) REPRESENTATION_CONTEXT('Context #1',
  '3D Context with UNIT and UNCERTAINTY') );
#664 = ( LENGTH_UNIT() NAMED_UNIT(*) SI_UNIT(.MILLI.,.METRE.) );
#665 = ( NAMED_UNIT(*) PLANE_ANGLE_UNIT() SI_UNIT($,.RADIAN.) );
#666 = ( NAMED_UNIT(*) SI_UNIT($,.STERADIAN.) SOLID_ANGLE_UNIT() );
#667 = UNCERTAINTY_MEASURE_WITH_UNIT(LENGTH_MEASURE(1.E-07),#664,
  'distance_accuracy_value','confusion accuracy');
#668 = PRODUCT_RELATED_PRODUCT_CATEGORY('part',$,(#7));
ENDSEC;
END-ISO-10303-21;
