ISO-10303-21;
HEADER;
FILE_DESCRIPTION(('FreeCAD Model'),'2;1');
FILE_NAME('Open CASCADE Shape Model','2026-08-28T13:04:04',('FreeCAD'),(
    'FreeCAD'),'Open CASCADE STEP processor 7.8','FreeCAD','Unknown');
FILE_SCHEMA(('AUTOMOTIVE_DESIGN { 1 0 10303 214 1 1 1 1 }'));
ENDSEC;
DATA;
#1 = APPLICATION_PROTOCOL_DEFINITION('international standard',
  'automotive_design',2000,#2);
#2 = APPLICATION_CONTEXT(
  'core data for automotive mechanical design processes');
#3 = SHAPE_DEFINITION_REPRESENTATION(#4,#10);
#4 = PRODUCT_DEFINITION_SHAPE('','',#5);
#5 = PRODUCT_DEFINITION('design','',#6,#9);
#6 = PRODUCT_DEFINITION_FORMATION('','',#7);
#7 = PRODUCT('Open CASCADE STEP translator 7.8 38',
  'Open CASCADE STEP translator 7.8 38','',(#8));
#8 = PRODUCT_CONTEXT('',#2,'mechanical');
#9 = PRODUCT_DEFINITION_CONTEXT('part definition',#2,'design');
#10 = ADVANCED_BREP_SHAPE_REPRESENTATION('',(#11,#15),#863);
#11 = AXIS2_PLACEMENT_3D('',#12,#13,#14);
#12 = CARTESIAN_POINT('',(0.,0.,0.));
#13 = DIRECTION('',(0.,0.,1.));
#14 = DIRECTION('',(1.,0.,-0.));
#15 = MANIFOLD_SOLID_BREP('',#16);
#16 = CLOSED_SHELL('',(#17,#77,#158,#265,#298,#384,#463,#502,#545,#584,
    #609,#634,#659,#676,#687,#703,#713,#738,#763,#833,#849));
#17 = ADVANCED_FACE('',(#18),#72,.T.);
#18 = FACE_BOUND('',#19,.F.);
#19 = EDGE_LOOP('',(#20,#30,#39,#48,#57,#65));
#20 = ORIENTED_EDGE('',*,*,#21,.T.);
#21 = EDGE_CURVE('',#22,#24,#26,.T.);
#22 = VERTEX_POINT('',#23);
#23 = CARTESIAN_POINT('',(11.400888538624,-11.21568829932,16.));
#24 = VERTEX_POINT('',#25);
#25 = CARTESIAN_POINT('',(11.400888538624,-11.21568829932,4.));
#26 = LINE('',#27,#28);
#27 = CARTESIAN_POINT('',(11.400888538624,-11.21568829932,4.));
#28 = VECTOR('',#29,1.);
#29 = DIRECTION('',(-0.,-0.,-1.));
#30 = ORIENTED_EDGE('',*,*,#31,.F.);
#31 = EDGE_CURVE('',#32,#24,#34,.T.);
#32 = VERTEX_POINT('',#33);
#33 = CARTESIAN_POINT('',(6.29443829385,-13.92730419121,4.));
#34 = CIRCLE('',#35,10.);
#35 = AXIS2_PLACEMENT_3D('',#36,#37,#38);
#36 = CARTESIAN_POINT('',(4.357959542137,-4.116593205555,4.));
#37 = DIRECTION('',(0.,0.,1.));
#38 = DIRECTION('',(1.,0.,0.));
#39 = ORIENTED_EDGE('',*,*,#40,.F.);
#40 = EDGE_CURVE('',#41,#32,#43,.T.);
#41 = VERTEX_POINT('',#42);
#42 = CARTESIAN_POINT('',(2.421480790424,-13.92730419121,4.));
#43 = CIRCLE('',#44,10.);
#44 = AXIS2_PLACEMENT_3D('',#45,#46,#47);
#45 = CARTESIAN_POINT('',(4.357959542137,-4.116593205555,4.));
#46 = DIRECTION('',(0.,0.,1.));
#47 = DIRECTION('',(1.,0.,0.));
#48 = ORIENTED_EDGE('',*,*,#49,.F.);
#49 = EDGE_CURVE('',#50,#41,#52,.T.);
#50 = VERTEX_POINT('',#51);
#51 = CARTESIAN_POINT('',(-2.68496945435,-11.21568829932,4.));
#52 = CIRCLE('',#53,10.);
#53 = AXIS2_PLACEMENT_3D('',#54,#55,#56);
#54 = CARTESIAN_POINT('',(4.357959542137,-4.116593205555,4.));
#55 = DIRECTION('',(0.,0.,1.));
#56 = DIRECTION('',(1.,0.,0.));
#57 = ORIENTED_EDGE('',*,*,#58,.F.);
#58 = EDGE_CURVE('',#59,#50,#61,.T.);
#59 = VERTEX_POINT('',#60);
#60 = CARTESIAN_POINT('',(-2.68496945435,-11.21568829932,16.));
#61 = LINE('',#62,#63);
#62 = CARTESIAN_POINT('',(-2.68496945435,-11.21568829932,4.));
#63 = VECTOR('',#64,1.);
#64 = DIRECTION('',(-0.,-0.,-1.));
#65 = ORIENTED_EDGE('',*,*,#66,.T.);
#66 = EDGE_CURVE('',#59,#22,#67,.T.);
#67 = CIRCLE('',#68,10.);
#68 = AXIS2_PLACEMENT_3D('',#69,#70,#71);
#69 = CARTESIAN_POINT('',(4.357959542137,-4.116593205555,16.));
#70 = DIRECTION('',(0.,0.,1.));
#71 = DIRECTION('',(1.,0.,0.));
#72 = CYLINDRICAL_SURFACE('',#73,10.);
#73 = AXIS2_PLACEMENT_3D('',#74,#75,#76);
#74 = CARTESIAN_POINT('',(4.357959542137,-4.116593205555,4.));
#75 = DIRECTION('',(-0.,-0.,-1.));
#76 = DIRECTION('',(1.,0.,0.));
#77 = ADVANCED_FACE('',(#78,#142),#153,.T.);
#78 = FACE_BOUND('',#79,.T.);
#79 = EDGE_LOOP('',(#80,#91,#100,#109,#118,#127,#134,#135));
#80 = ORIENTED_EDGE('',*,*,#81,.T.);
#81 = EDGE_CURVE('',#82,#84,#86,.T.);
#82 = VERTEX_POINT('',#83);
#83 = CARTESIAN_POINT('',(14.02742073547,-6.666401086675,16.));
#84 = VERTEX_POINT('',#85);
#85 = CARTESIAN_POINT('',(14.357959542137,-4.116593205555,16.));
#86 = CIRCLE('',#87,10.);
#87 = AXIS2_PLACEMENT_3D('',#88,#89,#90);
#88 = CARTESIAN_POINT('',(4.357959542137,-4.116593205555,16.));
#89 = DIRECTION('',(0.,0.,1.));
#90 = DIRECTION('',(1.,0.,0.));
#91 = ORIENTED_EDGE('',*,*,#92,.T.);
#92 = EDGE_CURVE('',#84,#93,#95,.T.);
#93 = VERTEX_POINT('',#94);
#94 = CARTESIAN_POINT('',(6.984491738984,5.53230976934,16.));
#95 = CIRCLE('',#96,10.);
#96 = AXIS2_PLACEMENT_3D('',#97,#98,#99);
#97 = CARTESIAN_POINT('',(4.357959542137,-4.116593205555,16.));
#98 = DIRECTION('',(0.,0.,1.));
#99 = DIRECTION('',(1.,0.,0.));
#100 = ORIENTED_EDGE('',*,*,#101,.F.);
#101 = EDGE_CURVE('',#102,#93,#104,.T.);
#102 = VERTEX_POINT('',#103);
#103 = CARTESIAN_POINT('',(1.73142734529,5.53230976934,16.));
#104 = CIRCLE('',#105,3.25);
#105 = AXIS2_PLACEMENT_3D('',#106,#107,#108);
#106 = CARTESIAN_POINT('',(4.357959542137,7.446422780352,16.));
#107 = DIRECTION('',(0.,0.,1.));
#108 = DIRECTION('',(1.,0.,0.));
#109 = ORIENTED_EDGE('',*,*,#110,.T.);
#110 = EDGE_CURVE('',#102,#111,#113,.T.);
#111 = VERTEX_POINT('',#112);
#112 = CARTESIAN_POINT('',(-5.311501651196,-6.666401086675,16.));
#113 = CIRCLE('',#114,10.);
#114 = AXIS2_PLACEMENT_3D('',#115,#116,#117);
#115 = CARTESIAN_POINT('',(4.357959542137,-4.116593205555,16.));
#116 = DIRECTION('',(0.,0.,1.));
#117 = DIRECTION('',(1.,0.,0.));
#118 = ORIENTED_EDGE('',*,*,#119,.F.);
#119 = EDGE_CURVE('',#120,#111,#122,.T.);
#120 = VERTEX_POINT('',#121);
#121 = CARTESIAN_POINT('',(-2.405906046025,-9.898101198509,16.));
#122 = CIRCLE('',#123,3.25);
#123 = AXIS2_PLACEMENT_3D('',#124,#125,#126);
#124 = CARTESIAN_POINT('',(-5.655906046025,-9.898101198509,16.));
#125 = DIRECTION('',(0.,0.,1.));
#126 = DIRECTION('',(1.,0.,0.));
#127 = ORIENTED_EDGE('',*,*,#128,.F.);
#128 = EDGE_CURVE('',#59,#120,#129,.T.);
#129 = CIRCLE('',#130,3.25);
#130 = AXIS2_PLACEMENT_3D('',#131,#132,#133);
#131 = CARTESIAN_POINT('',(-5.655906046025,-9.898101198509,16.));
#132 = DIRECTION('',(0.,0.,1.));
#133 = DIRECTION('',(1.,0.,0.));
#134 = ORIENTED_EDGE('',*,*,#66,.T.);
#135 = ORIENTED_EDGE('',*,*,#136,.F.);
#136 = EDGE_CURVE('',#82,#22,#137,.T.);
#137 = CIRCLE('',#138,3.25);
#138 = AXIS2_PLACEMENT_3D('',#139,#140,#141);
#139 = CARTESIAN_POINT('',(14.371825130298,-9.898101198509,16.));
#140 = DIRECTION('',(0.,0.,1.));
#141 = DIRECTION('',(1.,0.,0.));
#142 = FACE_BOUND('',#143,.T.);
#143 = EDGE_LOOP('',(#144));
#144 = ORIENTED_EDGE('',*,*,#145,.F.);
#145 = EDGE_CURVE('',#146,#146,#148,.T.);
#146 = VERTEX_POINT('',#147);
#147 = CARTESIAN_POINT('',(10.357959542137,-4.116593205555,16.));
#148 = CIRCLE('',#149,6.);
#149 = AXIS2_PLACEMENT_3D('',#150,#151,#152);
#150 = CARTESIAN_POINT('',(4.357959542137,-4.116593205555,16.));
#151 = DIRECTION('',(0.,0.,1.));
#152 = DIRECTION('',(1.,0.,0.));
#153 = PLANE('',#154);
#154 = AXIS2_PLACEMENT_3D('',#155,#156,#157);
#155 = CARTESIAN_POINT('',(4.357959542137,-4.116593205555,16.));
#156 = DIRECTION('',(0.,0.,1.));
#157 = DIRECTION('',(1.,0.,0.));
#158 = ADVANCED_FACE('',(#159,#203),#260,.T.);
#159 = FACE_BOUND('',#160,.F.);
#160 = EDGE_LOOP('',(#161,#169,#170,#178,#187,#196));
#161 = ORIENTED_EDGE('',*,*,#162,.F.);
#162 = EDGE_CURVE('',#102,#163,#165,.T.);
#163 = VERTEX_POINT('',#164);
#164 = CARTESIAN_POINT('',(1.73142734529,5.53230976934,4.));
#165 = LINE('',#166,#167);
#166 = CARTESIAN_POINT('',(1.73142734529,5.53230976934,4.));
#167 = VECTOR('',#168,1.);
#168 = DIRECTION('',(-0.,-0.,-1.));
#169 = ORIENTED_EDGE('',*,*,#110,.T.);
#170 = ORIENTED_EDGE('',*,*,#171,.T.);
#171 = EDGE_CURVE('',#111,#172,#174,.T.);
#172 = VERTEX_POINT('',#173);
#173 = CARTESIAN_POINT('',(-5.311501651196,-6.666401086675,4.));
#174 = LINE('',#175,#176);
#175 = CARTESIAN_POINT('',(-5.311501651196,-6.666401086675,4.));
#176 = VECTOR('',#177,1.);
#177 = DIRECTION('',(-0.,-0.,-1.));
#178 = ORIENTED_EDGE('',*,*,#179,.F.);
#179 = EDGE_CURVE('',#180,#172,#182,.T.);
#180 = VERTEX_POINT('',#181);
#181 = CARTESIAN_POINT('',(-5.106604776489,-0.888277505597,4.));
#182 = CIRCLE('',#183,10.);
#183 = AXIS2_PLACEMENT_3D('',#184,#185,#186);
#184 = CARTESIAN_POINT('',(4.357959542137,-4.116593205555,4.));
#185 = DIRECTION('',(0.,0.,1.));
#186 = DIRECTION('',(1.,0.,0.));
#187 = ORIENTED_EDGE('',*,*,#188,.F.);
#188 = EDGE_CURVE('',#189,#180,#191,.T.);
#189 = VERTEX_POINT('',#190);
#190 = CARTESIAN_POINT('',(-3.170126024776,2.465802080148,4.));
#191 = CIRCLE('',#192,10.);
#192 = AXIS2_PLACEMENT_3D('',#193,#194,#195);
#193 = CARTESIAN_POINT('',(4.357959542137,-4.116593205555,4.));
#194 = DIRECTION('',(0.,0.,1.));
#195 = DIRECTION('',(1.,0.,0.));
#196 = ORIENTED_EDGE('',*,*,#197,.F.);
#197 = EDGE_CURVE('',#163,#189,#198,.T.);
#198 = CIRCLE('',#199,10.);
#199 = AXIS2_PLACEMENT_3D('',#200,#201,#202);
#200 = CARTESIAN_POINT('',(4.357959542137,-4.116593205555,4.));
#201 = DIRECTION('',(0.,0.,1.));
#202 = DIRECTION('',(1.,0.,0.));
#203 = FACE_BOUND('',#204,.F.);
#204 = EDGE_LOOP('',(#205));
#205 = ORIENTED_EDGE('',*,*,#206,.F.);
#206 = EDGE_CURVE('',#207,#207,#209,.T.);
#207 = VERTEX_POINT('',#208);
#208 = CARTESIAN_POINT('',(-5.508853026148,-2.489937205555,11.5));
#209 = B_SPLINE_CURVE_WITH_KNOTS('',7,(#210,#211,#212,#213,#214,#215,
    #216,#217,#218,#219,#220,#221,#222,#223,#224,#225,#226,#227,#228,
    #229,#230,#231,#232,#233,#234,#235,#236,#237,#238,#239,#240,#241,
    #242,#243,#244,#245,#246,#247,#248,#249,#250,#251,#252,#253,#254,
    #255,#256,#257,#258,#259),.UNSPECIFIED.,.T.,.F.,(8,6,6,6,6,6,6,6,8),
  (0.,0.125173745611,0.214621028909,0.301054584067,0.431461188181,
    0.592879053245,0.713872334174,0.833171905707,1.),.UNSPECIFIED.);
#210 = CARTESIAN_POINT('',(-5.508853026148,-2.489937205555,11.5));
#211 = CARTESIAN_POINT('',(-5.508853026148,-2.489937205555,
    11.662526609072));
#212 = CARTESIAN_POINT('',(-5.511976300833,-2.508882173966,
    11.824953738069));
#213 = CARTESIAN_POINT('',(-5.518216418991,-2.546732310938,
    11.985825996265));
#214 = CARTESIAN_POINT('',(-5.527390884343,-2.603811134481,
    12.143560041186));
#215 = CARTESIAN_POINT('',(-5.539124505662,-2.680676343821,
    12.296243105425));
#216 = CARTESIAN_POINT('',(-5.552763358042,-2.778010182443,
    12.441416734507));
#217 = CARTESIAN_POINT('',(-5.57772236083,-2.981034796333,
    12.671702955385));
#218 = CARTESIAN_POINT('',(-5.588655596889,-3.076918808863,
    12.762706771492));
#219 = CARTESIAN_POINT('',(-5.599704956164,-3.183995849299,
    12.846792955479));
#220 = CARTESIAN_POINT('',(-5.61034351362,-3.301882026147,
    12.922032014018));
#221 = CARTESIAN_POINT('',(-5.619972197982,-3.429898258281,
    12.986510518283));
#222 = CARTESIAN_POINT('',(-5.62798430962,-3.567062228197,
    13.038322431201));
#223 = CARTESIAN_POINT('',(-5.639527427093,-3.852172999486,
    13.111526435138));
#224 = CARTESIAN_POINT('',(-5.643162745268,-3.99867150175,
    13.133645607726));
#225 = CARTESIAN_POINT('',(-5.644266525142,-4.148528788674,
    13.140076062987));
#226 = CARTESIAN_POINT('',(-5.642602443731,-4.29838776605,
    13.130145665108));
#227 = CARTESIAN_POINT('',(-5.638322978567,-4.444845240589,
    13.104313013675));
#228 = CARTESIAN_POINT('',(-5.631934362797,-4.58473431619,
    13.064162769361));
#229 = CARTESIAN_POINT('',(-5.612268782338,-4.912554907316,
    12.934369415474));
#230 = CARTESIAN_POINT('',(-5.597145043571,-5.088662074385,
    12.829962059128));
#231 = CARTESIAN_POINT('',(-5.580554297094,-5.242067345948,
    12.705664501056));
#232 = CARTESIAN_POINT('',(-5.564200749872,-5.372409193195,
    12.566563961957));
#233 = CARTESIAN_POINT('',(-5.549326712575,-5.479927479341,
    12.416843474976));
#234 = CARTESIAN_POINT('',(-5.53676977308,-5.565212694053,
    12.259970125748));
#235 = CARTESIAN_POINT('',(-5.514922884808,-5.708000302251,
    11.899329794616));
#236 = CARTESIAN_POINT('',(-5.507060405518,-5.754463911216,
    11.692293585201));
#237 = CARTESIAN_POINT('',(-5.504331077036,-5.769725494456,
    11.481826397056));
#238 = CARTESIAN_POINT('',(-5.507033374765,-5.754206460601,
    11.270985590169));
#239 = CARTESIAN_POINT('',(-5.515041990343,-5.70755292173,
    11.062985932633));
#240 = CARTESIAN_POINT('',(-5.527683079187,-5.628840304113,
    10.861542387318));
#241 = CARTESIAN_POINT('',(-5.55542045645,-5.432686153052,
    10.529863831574));
#242 = CARTESIAN_POINT('',(-5.56922294822,-5.329074187904,
    10.393066511142));
#243 = CARTESIAN_POINT('',(-5.58431661019,-5.205329501728,
    10.265150577151));
#244 = CARTESIAN_POINT('',(-5.59970790583,-5.061523077174,
    10.149979008413));
#245 = CARTESIAN_POINT('',(-5.614077369164,-4.898376227163,
    10.051704677448));
#246 = CARTESIAN_POINT('',(-5.625909791898,-4.717364010385,
    9.974833720407));
#247 = CARTESIAN_POINT('',(-5.641688520078,-4.327635206865,
    9.874768371285));
#248 = CARTESIAN_POINT('',(-5.645565708419,-4.12369990572,9.851957086699
    ));
#249 = CARTESIAN_POINT('',(-5.644368660787,-3.916422507953,
    9.859665546413));
#250 = CARTESIAN_POINT('',(-5.637805334464,-3.713753477975,
    9.898182835662));
#251 = CARTESIAN_POINT('',(-5.62700206503,-3.523379039768,9.964659600406
    ));
#252 = CARTESIAN_POINT('',(-5.613862089382,-3.351575915296,
    10.05316091975));
#253 = CARTESIAN_POINT('',(-5.580984703441,-2.993497706328,
    10.296510619274));
#254 = CARTESIAN_POINT('',(-5.560086158331,-2.821981322357,
    10.468328884669));
#255 = CARTESIAN_POINT('',(-5.540705816228,-2.687447363936,
    10.659246803162));
#256 = CARTESIAN_POINT('',(-5.525052470719,-2.588183763298,
    10.862367974054));
#257 = CARTESIAN_POINT('',(-5.514254133411,-2.52270227248,
    11.072608848581));
#258 = CARTESIAN_POINT('',(-5.508853026148,-2.489937205555,
    11.28626498649));
#259 = CARTESIAN_POINT('',(-5.508853026148,-2.489937205555,11.5));
#260 = CYLINDRICAL_SURFACE('',#261,10.);
#261 = AXIS2_PLACEMENT_3D('',#262,#263,#264);
#262 = CARTESIAN_POINT('',(4.357959542137,-4.116593205555,4.));
#263 = DIRECTION('',(-0.,-0.,-1.));
#264 = DIRECTION('',(1.,0.,0.));
#265 = ADVANCED_FACE('',(#266),#293,.T.);
#266 = FACE_BOUND('',#267,.F.);
#267 = EDGE_LOOP('',(#268,#278,#285,#286));
#268 = ORIENTED_EDGE('',*,*,#269,.T.);
#269 = EDGE_CURVE('',#270,#272,#274,.T.);
#270 = VERTEX_POINT('',#271);
#271 = CARTESIAN_POINT('',(19.607959542137,-4.116593205555,0.));
#272 = VERTEX_POINT('',#273);
#273 = CARTESIAN_POINT('',(19.607959542137,-4.116593205555,4.));
#274 = LINE('',#275,#276);
#275 = CARTESIAN_POINT('',(19.607959542137,-4.116593205555,0.));
#276 = VECTOR('',#277,1.);
#277 = DIRECTION('',(0.,0.,1.));
#278 = ORIENTED_EDGE('',*,*,#279,.T.);
#279 = EDGE_CURVE('',#272,#272,#280,.T.);
#280 = CIRCLE('',#281,15.25);
#281 = AXIS2_PLACEMENT_3D('',#282,#283,#284);
#282 = CARTESIAN_POINT('',(4.357959542137,-4.116593205555,4.));
#283 = DIRECTION('',(0.,0.,1.));
#284 = DIRECTION('',(1.,0.,0.));
#285 = ORIENTED_EDGE('',*,*,#269,.F.);
#286 = ORIENTED_EDGE('',*,*,#287,.F.);
#287 = EDGE_CURVE('',#270,#270,#288,.T.);
#288 = CIRCLE('',#289,15.25);
#289 = AXIS2_PLACEMENT_3D('',#290,#291,#292);
#290 = CARTESIAN_POINT('',(4.357959542137,-4.116593205555,0.));
#291 = DIRECTION('',(0.,0.,1.));
#292 = DIRECTION('',(1.,0.,0.));
#293 = CYLINDRICAL_SURFACE('',#294,15.25);
#294 = AXIS2_PLACEMENT_3D('',#295,#296,#297);
#295 = CARTESIAN_POINT('',(4.357959542137,-4.116593205555,0.));
#296 = DIRECTION('',(-0.,-0.,-1.));
#297 = DIRECTION('',(1.,0.,0.));
#298 = ADVANCED_FACE('',(#299,#302,#313,#324,#335,#346,#357,#368),#379,
  .F.);
#299 = FACE_BOUND('',#300,.F.);
#300 = EDGE_LOOP('',(#301));
#301 = ORIENTED_EDGE('',*,*,#287,.T.);
#302 = FACE_BOUND('',#303,.T.);
#303 = EDGE_LOOP('',(#304));
#304 = ORIENTED_EDGE('',*,*,#305,.T.);
#305 = EDGE_CURVE('',#306,#306,#308,.T.);
#306 = VERTEX_POINT('',#307);
#307 = CARTESIAN_POINT('',(10.357959542137,-4.116593205555,0.));
#308 = CIRCLE('',#309,6.);
#309 = AXIS2_PLACEMENT_3D('',#310,#311,#312);
#310 = CARTESIAN_POINT('',(4.357959542137,-4.116593205555,0.));
#311 = DIRECTION('',(0.,0.,1.));
#312 = DIRECTION('',(1.,0.,0.));
#313 = FACE_BOUND('',#314,.T.);
#314 = EDGE_LOOP('',(#315));
#315 = ORIENTED_EDGE('',*,*,#316,.T.);
#316 = EDGE_CURVE('',#317,#317,#319,.T.);
#317 = VERTEX_POINT('',#318);
#318 = CARTESIAN_POINT('',(-3.025171766543,1.618302829408,0.));
#319 = CIRCLE('',#320,2.55);
#320 = AXIS2_PLACEMENT_3D('',#321,#322,#323);
#321 = CARTESIAN_POINT('',(-5.575171766543,1.618302829408,0.));
#322 = DIRECTION('',(0.,0.,1.));
#323 = DIRECTION('',(1.,0.,0.));
#324 = FACE_BOUND('',#325,.T.);
#325 = EDGE_LOOP('',(#326));
#326 = ORIENTED_EDGE('',*,*,#327,.T.);
#327 = EDGE_CURVE('',#328,#328,#330,.T.);
#328 = VERTEX_POINT('',#329);
#329 = CARTESIAN_POINT('',(16.841090850817,1.618302829408,0.));
#330 = CIRCLE('',#331,2.55);
#331 = AXIS2_PLACEMENT_3D('',#332,#333,#334);
#332 = CARTESIAN_POINT('',(14.291090850817,1.618302829408,0.));
#333 = DIRECTION('',(0.,0.,1.));
#334 = DIRECTION('',(1.,0.,0.));
#335 = FACE_BOUND('',#336,.T.);
#336 = EDGE_LOOP('',(#337));
#337 = ORIENTED_EDGE('',*,*,#338,.T.);
#338 = EDGE_CURVE('',#339,#339,#341,.T.);
#339 = VERTEX_POINT('',#340);
#340 = CARTESIAN_POINT('',(6.907959542137,-15.58638527548,0.));
#341 = CIRCLE('',#342,2.55);
#342 = AXIS2_PLACEMENT_3D('',#343,#344,#345);
#343 = CARTESIAN_POINT('',(4.357959542137,-15.58638527548,0.));
#344 = DIRECTION('',(0.,0.,1.));
#345 = DIRECTION('',(1.,0.,0.));
#346 = FACE_BOUND('',#347,.T.);
#347 = EDGE_LOOP('',(#348));
#348 = ORIENTED_EDGE('',*,*,#349,.T.);
#349 = EDGE_CURVE('',#350,#350,#352,.T.);
#350 = VERTEX_POINT('',#351);
#351 = CARTESIAN_POINT('',(5.757959542137,7.446422780352,0.));
#352 = CIRCLE('',#353,1.4);
#353 = AXIS2_PLACEMENT_3D('',#354,#355,#356);
#354 = CARTESIAN_POINT('',(4.357959542137,7.446422780352,0.));
#355 = DIRECTION('',(0.,0.,1.));
#356 = DIRECTION('',(1.,0.,0.));
#357 = FACE_BOUND('',#358,.T.);
#358 = EDGE_LOOP('',(#359));
#359 = ORIENTED_EDGE('',*,*,#360,.T.);
#360 = EDGE_CURVE('',#361,#361,#363,.T.);
#361 = VERTEX_POINT('',#362);
#362 = CARTESIAN_POINT('',(-4.255906046025,-9.898101198509,0.));
#363 = CIRCLE('',#364,1.4);
#364 = AXIS2_PLACEMENT_3D('',#365,#366,#367);
#365 = CARTESIAN_POINT('',(-5.655906046025,-9.898101198509,0.));
#366 = DIRECTION('',(0.,0.,1.));
#367 = DIRECTION('',(1.,0.,0.));
#368 = FACE_BOUND('',#369,.T.);
#369 = EDGE_LOOP('',(#370));
#370 = ORIENTED_EDGE('',*,*,#371,.T.);
#371 = EDGE_CURVE('',#372,#372,#374,.T.);
#372 = VERTEX_POINT('',#373);
#373 = CARTESIAN_POINT('',(15.771825130298,-9.898101198509,0.));
#374 = CIRCLE('',#375,1.4);
#375 = AXIS2_PLACEMENT_3D('',#376,#377,#378);
#376 = CARTESIAN_POINT('',(14.371825130298,-9.898101198509,0.));
#377 = DIRECTION('',(0.,0.,1.));
#378 = DIRECTION('',(1.,0.,0.));
#379 = PLANE('',#380);
#380 = AXIS2_PLACEMENT_3D('',#381,#382,#383);
#381 = CARTESIAN_POINT('',(4.357959542137,-4.116593205555,0.));
#382 = DIRECTION('',(0.,0.,1.));
#383 = DIRECTION('',(1.,0.,0.));
#384 = ADVANCED_FACE('',(#385,#395),#458,.F.);
#385 = FACE_BOUND('',#386,.T.);
#386 = EDGE_LOOP('',(#387,#392,#393,#394));
#387 = ORIENTED_EDGE('',*,*,#388,.F.);
#388 = EDGE_CURVE('',#146,#306,#389,.T.);
#389 = B_SPLINE_CURVE_WITH_KNOTS('',1,(#390,#391),.UNSPECIFIED.,.F.,.F.,
  (2,2),(-16.,0.),.PIECEWISE_BEZIER_KNOTS.);
#390 = CARTESIAN_POINT('',(10.357959542137,-4.116593205555,16.));
#391 = CARTESIAN_POINT('',(10.357959542137,-4.116593205555,0.));
#392 = ORIENTED_EDGE('',*,*,#145,.T.);
#393 = ORIENTED_EDGE('',*,*,#388,.T.);
#394 = ORIENTED_EDGE('',*,*,#305,.F.);
#395 = FACE_BOUND('',#396,.T.);
#396 = EDGE_LOOP('',(#397));
#397 = ORIENTED_EDGE('',*,*,#398,.F.);
#398 = EDGE_CURVE('',#399,#399,#401,.T.);
#399 = VERTEX_POINT('',#400);
#400 = CARTESIAN_POINT('',(-1.417331814813,-2.489937205555,11.5));
#401 = B_SPLINE_CURVE_WITH_KNOTS('',7,(#402,#403,#404,#405,#406,#407,
    #408,#409,#410,#411,#412,#413,#414,#415,#416,#417,#418,#419,#420,
    #421,#422,#423,#424,#425,#426,#427,#428,#429,#430,#431,#432,#433,
    #434,#435,#436,#437,#438,#439,#440,#441,#442,#443,#444,#445,#446,
    #447,#448,#449,#450,#451,#452,#453,#454,#455,#456,#457),
  .UNSPECIFIED.,.T.,.F.,(8,6,6,6,6,6,6,6,6,8),(0.,0.129564369293,
    0.2183131982,0.328249565172,0.426236882631,0.57098504535,
    0.701364988769,0.797270431173,0.895187351946,1.),.UNSPECIFIED.);
#402 = CARTESIAN_POINT('',(-1.417331814813,-2.489937205555,11.5));
#403 = CARTESIAN_POINT('',(-1.417331814813,-2.489937205555,
    11.669779251582));
#404 = CARTESIAN_POINT('',(-1.423154647688,-2.510610693342,
    11.839375254009));
#405 = CARTESIAN_POINT('',(-1.434778439536,-2.551879600702,
    12.007006644005));
#406 = CARTESIAN_POINT('',(-1.451774435481,-2.614009503663,
    12.170783031863));
#407 = CARTESIAN_POINT('',(-1.473284412682,-2.697487368872,
    12.328489081454));
#408 = CARTESIAN_POINT('',(-1.49791704367,-2.802922839315,
    12.477334518609));
#409 = CARTESIAN_POINT('',(-1.541361347436,-3.01841337025,
    12.706808626669));
#410 = CARTESIAN_POINT('',(-1.559682989403,-3.117149294993,
    12.794793520127));
#411 = CARTESIAN_POINT('',(-1.577929524393,-3.226863461255,
    12.875498759231));
#412 = CARTESIAN_POINT('',(-1.59519860049,-3.347087716789,
    12.946994799905));
#413 = CARTESIAN_POINT('',(-1.610505228678,-3.477063127799,
    13.007395837487));
#414 = CARTESIAN_POINT('',(-1.622888123487,-3.615738902303,
    13.054843689545));
#415 = CARTESIAN_POINT('',(-1.64225383261,-3.942617392761,
    13.127909688851));
#416 = CARTESIAN_POINT('',(-1.647046400791,-4.131452384665,
    13.144876794903));
#417 = CARTESIAN_POINT('',(-1.644607862112,-4.322423580571,
    13.135774307782));
#418 = CARTESIAN_POINT('',(-1.634728692175,-4.509164675987,
    13.100560317921));
#419 = CARTESIAN_POINT('',(-1.618793601545,-4.685557108244,
    13.041539800244));
#420 = CARTESIAN_POINT('',(-1.599212730173,-4.846412003121,
    12.963411898937));
#421 = CARTESIAN_POINT('',(-1.559839635717,-5.114575228155,
    12.793230341439));
#422 = CARTESIAN_POINT('',(-1.539930920809,-5.228329546423,
    12.702009849753));
#423 = CARTESIAN_POINT('',(-1.519797630293,-5.329349897221,
    12.602012380545));
#424 = CARTESIAN_POINT('',(-1.500400723054,-5.417745783201,
    12.495055134763));
#425 = CARTESIAN_POINT('',(-1.482504447214,-5.493738482781,12.3826203228
    ));
#426 = CARTESIAN_POINT('',(-1.466681417902,-5.557574778381,
    12.265932548521));
#427 = CARTESIAN_POINT('',(-1.433660356994,-5.686116123835,
    11.968891025291));
#428 = CARTESIAN_POINT('',(-1.41935491437,-5.736908721393,
    11.784244693112));
#429 = CARTESIAN_POINT('',(-1.411831997252,-5.762276798385,
    11.595302972939));
#430 = CARTESIAN_POINT('',(-1.411814397412,-5.762320209552,
    11.404851658775));
#431 = CARTESIAN_POINT('',(-1.419346283353,-5.736954725774,
    11.215691017497));
#432 = CARTESIAN_POINT('',(-1.433685394125,-5.686018661598,
    11.030883752768));
#433 = CARTESIAN_POINT('',(-1.471065468963,-5.540508948079,
    10.694630644511));
#434 = CARTESIAN_POINT('',(-1.493242593481,-5.450217761634,
    10.540420784361));
#435 = CARTESIAN_POINT('',(-1.518921601549,-5.337978571779,
    10.394181248284));
#436 = CARTESIAN_POINT('',(-1.546548359576,-5.203330438652,
    10.259337848128));
#437 = CARTESIAN_POINT('',(-1.573944409127,-5.046165359889,
    10.140030679648));
#438 = CARTESIAN_POINT('',(-1.598298201704,-4.866982297967,
    10.041291516685));
#439 = CARTESIAN_POINT('',(-1.630211565284,-4.52094319303,9.91670977307)
  );
#440 = CARTESIAN_POINT('',(-1.640471607291,-4.363761383092,
    9.878641874436));
#441 = CARTESIAN_POINT('',(-1.646069246228,-4.199793152325,
    9.858753528312));
#442 = CARTESIAN_POINT('',(-1.64607360196,-4.033460227279,9.858740504236
    ));
#443 = CARTESIAN_POINT('',(-1.640475117558,-3.86942743659,9.878626616647
    ));
#444 = CARTESIAN_POINT('',(-1.630206313967,-3.712186277639,9.91673027289
    ));
#445 = CARTESIAN_POINT('',(-1.602881871391,-3.415905203155,
    10.023398023247));
#446 = CARTESIAN_POINT('',(-1.585688857701,-3.277321472469,
    10.092581875727));
#447 = CARTESIAN_POINT('',(-1.566328724986,-3.150765592429,
    10.174435532023));
#448 = CARTESIAN_POINT('',(-1.54602240234,-3.036760646877,
    10.266646560685));
#449 = CARTESIAN_POINT('',(-1.525856679415,-2.935530436166,
    10.367146489632));
#450 = CARTESIAN_POINT('',(-1.506713108432,-2.847076035114,
    10.474061442941));
#451 = CARTESIAN_POINT('',(-1.470575676294,-2.69001694602,
    10.705166874486));
#452 = CARTESIAN_POINT('',(-1.45374303812,-2.622880341858,
    10.830584503451));
#453 = CARTESIAN_POINT('',(-1.439541167025,-2.569523370018,
    10.960370596333));
#454 = CARTESIAN_POINT('',(-1.428528923757,-2.529692343751,
    11.093247570175));
#455 = CARTESIAN_POINT('',(-1.421066449053,-2.503196357038,
    11.228129751105));
#456 = CARTESIAN_POINT('',(-1.417331814813,-2.489937205555,
    11.364034362394));
#457 = CARTESIAN_POINT('',(-1.417331814813,-2.489937205555,11.5));
#458 = CYLINDRICAL_SURFACE('',#459,6.);
#459 = AXIS2_PLACEMENT_3D('',#460,#461,#462);
#460 = CARTESIAN_POINT('',(4.357959542137,-4.116593205555,0.));
#461 = DIRECTION('',(-0.,-0.,-1.));
#462 = DIRECTION('',(1.,0.,0.));
#463 = ADVANCED_FACE('',(#464),#497,.F.);
#464 = FACE_BOUND('',#465,.T.);
#465 = EDGE_LOOP('',(#466,#467,#475,#482,#489,#496));
#466 = ORIENTED_EDGE('',*,*,#316,.F.);
#467 = ORIENTED_EDGE('',*,*,#468,.T.);
#468 = EDGE_CURVE('',#317,#469,#471,.T.);
#469 = VERTEX_POINT('',#470);
#470 = CARTESIAN_POINT('',(-3.025171766543,1.618302829408,4.));
#471 = LINE('',#472,#473);
#472 = CARTESIAN_POINT('',(-3.025171766543,1.618302829408,0.));
#473 = VECTOR('',#474,1.);
#474 = DIRECTION('',(0.,0.,1.));
#475 = ORIENTED_EDGE('',*,*,#476,.T.);
#476 = EDGE_CURVE('',#469,#189,#477,.T.);
#477 = CIRCLE('',#478,2.55);
#478 = AXIS2_PLACEMENT_3D('',#479,#480,#481);
#479 = CARTESIAN_POINT('',(-5.575171766543,1.618302829408,4.));
#480 = DIRECTION('',(0.,0.,1.));
#481 = DIRECTION('',(1.,0.,0.));
#482 = ORIENTED_EDGE('',*,*,#483,.T.);
#483 = EDGE_CURVE('',#189,#180,#484,.T.);
#484 = CIRCLE('',#485,2.55);
#485 = AXIS2_PLACEMENT_3D('',#486,#487,#488);
#486 = CARTESIAN_POINT('',(-5.575171766543,1.618302829408,4.));
#487 = DIRECTION('',(0.,0.,1.));
#488 = DIRECTION('',(1.,0.,0.));
#489 = ORIENTED_EDGE('',*,*,#490,.T.);
#490 = EDGE_CURVE('',#180,#469,#491,.T.);
#491 = CIRCLE('',#492,2.55);
#492 = AXIS2_PLACEMENT_3D('',#493,#494,#495);
#493 = CARTESIAN_POINT('',(-5.575171766543,1.618302829408,4.));
#494 = DIRECTION('',(0.,0.,1.));
#495 = DIRECTION('',(1.,0.,0.));
#496 = ORIENTED_EDGE('',*,*,#468,.F.);
#497 = CYLINDRICAL_SURFACE('',#498,2.55);
#498 = AXIS2_PLACEMENT_3D('',#499,#500,#501);
#499 = CARTESIAN_POINT('',(-5.575171766543,1.618302829408,0.));
#500 = DIRECTION('',(-0.,-0.,-1.));
#501 = DIRECTION('',(1.,0.,0.));
#502 = ADVANCED_FACE('',(#503),#540,.F.);
#503 = FACE_BOUND('',#504,.T.);
#504 = EDGE_LOOP('',(#505,#506,#514,#523,#532,#539));
#505 = ORIENTED_EDGE('',*,*,#327,.F.);
#506 = ORIENTED_EDGE('',*,*,#507,.T.);
#507 = EDGE_CURVE('',#328,#508,#510,.T.);
#508 = VERTEX_POINT('',#509);
#509 = CARTESIAN_POINT('',(16.841090850817,1.618302829408,4.));
#510 = LINE('',#511,#512);
#511 = CARTESIAN_POINT('',(16.841090850817,1.618302829408,0.));
#512 = VECTOR('',#513,1.);
#513 = DIRECTION('',(0.,0.,1.));
#514 = ORIENTED_EDGE('',*,*,#515,.T.);
#515 = EDGE_CURVE('',#508,#516,#518,.T.);
#516 = VERTEX_POINT('',#517);
#517 = CARTESIAN_POINT('',(11.88604510905,2.465802080148,4.));
#518 = CIRCLE('',#519,2.55);
#519 = AXIS2_PLACEMENT_3D('',#520,#521,#522);
#520 = CARTESIAN_POINT('',(14.291090850817,1.618302829408,4.));
#521 = DIRECTION('',(0.,0.,1.));
#522 = DIRECTION('',(1.,0.,0.));
#523 = ORIENTED_EDGE('',*,*,#524,.T.);
#524 = EDGE_CURVE('',#516,#525,#527,.T.);
#525 = VERTEX_POINT('',#526);
#526 = CARTESIAN_POINT('',(13.822523860763,-0.888277505597,4.));
#527 = CIRCLE('',#528,2.55);
#528 = AXIS2_PLACEMENT_3D('',#529,#530,#531);
#529 = CARTESIAN_POINT('',(14.291090850817,1.618302829408,4.));
#530 = DIRECTION('',(0.,0.,1.));
#531 = DIRECTION('',(1.,0.,0.));
#532 = ORIENTED_EDGE('',*,*,#533,.T.);
#533 = EDGE_CURVE('',#525,#508,#534,.T.);
#534 = CIRCLE('',#535,2.55);
#535 = AXIS2_PLACEMENT_3D('',#536,#537,#538);
#536 = CARTESIAN_POINT('',(14.291090850817,1.618302829408,4.));
#537 = DIRECTION('',(0.,0.,1.));
#538 = DIRECTION('',(1.,0.,0.));
#539 = ORIENTED_EDGE('',*,*,#507,.F.);
#540 = CYLINDRICAL_SURFACE('',#541,2.55);
#541 = AXIS2_PLACEMENT_3D('',#542,#543,#544);
#542 = CARTESIAN_POINT('',(14.291090850817,1.618302829408,0.));
#543 = DIRECTION('',(-0.,-0.,-1.));
#544 = DIRECTION('',(1.,0.,0.));
#545 = ADVANCED_FACE('',(#546),#579,.F.);
#546 = FACE_BOUND('',#547,.T.);
#547 = EDGE_LOOP('',(#548,#549,#557,#564,#571,#578));
#548 = ORIENTED_EDGE('',*,*,#338,.F.);
#549 = ORIENTED_EDGE('',*,*,#550,.T.);
#550 = EDGE_CURVE('',#339,#551,#553,.T.);
#551 = VERTEX_POINT('',#552);
#552 = CARTESIAN_POINT('',(6.907959542137,-15.58638527548,4.));
#553 = LINE('',#554,#555);
#554 = CARTESIAN_POINT('',(6.907959542137,-15.58638527548,0.));
#555 = VECTOR('',#556,1.);
#556 = DIRECTION('',(0.,0.,1.));
#557 = ORIENTED_EDGE('',*,*,#558,.T.);
#558 = EDGE_CURVE('',#551,#32,#559,.T.);
#559 = CIRCLE('',#560,2.55);
#560 = AXIS2_PLACEMENT_3D('',#561,#562,#563);
#561 = CARTESIAN_POINT('',(4.357959542137,-15.58638527548,4.));
#562 = DIRECTION('',(0.,0.,1.));
#563 = DIRECTION('',(1.,0.,0.));
#564 = ORIENTED_EDGE('',*,*,#565,.T.);
#565 = EDGE_CURVE('',#32,#41,#566,.T.);
#566 = CIRCLE('',#567,2.55);
#567 = AXIS2_PLACEMENT_3D('',#568,#569,#570);
#568 = CARTESIAN_POINT('',(4.357959542137,-15.58638527548,4.));
#569 = DIRECTION('',(0.,0.,1.));
#570 = DIRECTION('',(1.,0.,0.));
#571 = ORIENTED_EDGE('',*,*,#572,.T.);
#572 = EDGE_CURVE('',#41,#551,#573,.T.);
#573 = CIRCLE('',#574,2.55);
#574 = AXIS2_PLACEMENT_3D('',#575,#576,#577);
#575 = CARTESIAN_POINT('',(4.357959542137,-15.58638527548,4.));
#576 = DIRECTION('',(0.,0.,1.));
#577 = DIRECTION('',(1.,0.,0.));
#578 = ORIENTED_EDGE('',*,*,#550,.F.);
#579 = CYLINDRICAL_SURFACE('',#580,2.55);
#580 = AXIS2_PLACEMENT_3D('',#581,#582,#583);
#581 = CARTESIAN_POINT('',(4.357959542137,-15.58638527548,0.));
#582 = DIRECTION('',(-0.,-0.,-1.));
#583 = DIRECTION('',(1.,0.,0.));
#584 = ADVANCED_FACE('',(#585),#604,.F.);
#585 = FACE_BOUND('',#586,.T.);
#586 = EDGE_LOOP('',(#587,#595,#602,#603));
#587 = ORIENTED_EDGE('',*,*,#588,.T.);
#588 = EDGE_CURVE('',#350,#589,#591,.T.);
#589 = VERTEX_POINT('',#590);
#590 = CARTESIAN_POINT('',(5.757959542137,7.446422780352,4.));
#591 = LINE('',#592,#593);
#592 = CARTESIAN_POINT('',(5.757959542137,7.446422780352,0.));
#593 = VECTOR('',#594,1.);
#594 = DIRECTION('',(0.,0.,1.));
#595 = ORIENTED_EDGE('',*,*,#596,.T.);
#596 = EDGE_CURVE('',#589,#589,#597,.T.);
#597 = CIRCLE('',#598,1.4);
#598 = AXIS2_PLACEMENT_3D('',#599,#600,#601);
#599 = CARTESIAN_POINT('',(4.357959542137,7.446422780352,4.));
#600 = DIRECTION('',(0.,0.,1.));
#601 = DIRECTION('',(1.,0.,0.));
#602 = ORIENTED_EDGE('',*,*,#588,.F.);
#603 = ORIENTED_EDGE('',*,*,#349,.F.);
#604 = CYLINDRICAL_SURFACE('',#605,1.4);
#605 = AXIS2_PLACEMENT_3D('',#606,#607,#608);
#606 = CARTESIAN_POINT('',(4.357959542137,7.446422780352,0.));
#607 = DIRECTION('',(-0.,-0.,-1.));
#608 = DIRECTION('',(1.,0.,0.));
#609 = ADVANCED_FACE('',(#610),#629,.F.);
#610 = FACE_BOUND('',#611,.T.);
#611 = EDGE_LOOP('',(#612,#620,#627,#628));
#612 = ORIENTED_EDGE('',*,*,#613,.T.);
#613 = EDGE_CURVE('',#361,#614,#616,.T.);
#614 = VERTEX_POINT('',#615);
#615 = CARTESIAN_POINT('',(-4.255906046025,-9.898101198509,4.));
#616 = LINE('',#617,#618);
#617 = CARTESIAN_POINT('',(-4.255906046025,-9.898101198509,0.));
#618 = VECTOR('',#619,1.);
#619 = DIRECTION('',(0.,0.,1.));
#620 = ORIENTED_EDGE('',*,*,#621,.T.);
#621 = EDGE_CURVE('',#614,#614,#622,.T.);
#622 = CIRCLE('',#623,1.4);
#623 = AXIS2_PLACEMENT_3D('',#624,#625,#626);
#624 = CARTESIAN_POINT('',(-5.655906046025,-9.898101198509,4.));
#625 = DIRECTION('',(0.,0.,1.));
#626 = DIRECTION('',(1.,0.,0.));
#627 = ORIENTED_EDGE('',*,*,#613,.F.);
#628 = ORIENTED_EDGE('',*,*,#360,.F.);
#629 = CYLINDRICAL_SURFACE('',#630,1.4);
#630 = AXIS2_PLACEMENT_3D('',#631,#632,#633);
#631 = CARTESIAN_POINT('',(-5.655906046025,-9.898101198509,0.));
#632 = DIRECTION('',(-0.,-0.,-1.));
#633 = DIRECTION('',(1.,0.,0.));
#634 = ADVANCED_FACE('',(#635),#654,.F.);
#635 = FACE_BOUND('',#636,.T.);
#636 = EDGE_LOOP('',(#637,#645,#652,#653));
#637 = ORIENTED_EDGE('',*,*,#638,.T.);
#638 = EDGE_CURVE('',#372,#639,#641,.T.);
#639 = VERTEX_POINT('',#640);
#640 = CARTESIAN_POINT('',(15.771825130298,-9.898101198509,4.));
#641 = LINE('',#642,#643);
#642 = CARTESIAN_POINT('',(15.771825130298,-9.898101198509,0.));
#643 = VECTOR('',#644,1.);
#644 = DIRECTION('',(0.,0.,1.));
#645 = ORIENTED_EDGE('',*,*,#646,.T.);
#646 = EDGE_CURVE('',#639,#639,#647,.T.);
#647 = CIRCLE('',#648,1.4);
#648 = AXIS2_PLACEMENT_3D('',#649,#650,#651);
#649 = CARTESIAN_POINT('',(14.371825130298,-9.898101198509,4.));
#650 = DIRECTION('',(0.,0.,1.));
#651 = DIRECTION('',(1.,0.,0.));
#652 = ORIENTED_EDGE('',*,*,#638,.F.);
#653 = ORIENTED_EDGE('',*,*,#371,.F.);
#654 = CYLINDRICAL_SURFACE('',#655,1.4);
#655 = AXIS2_PLACEMENT_3D('',#656,#657,#658);
#656 = CARTESIAN_POINT('',(14.371825130298,-9.898101198509,0.));
#657 = DIRECTION('',(-0.,-0.,-1.));
#658 = DIRECTION('',(1.,0.,0.));
#659 = ADVANCED_FACE('',(#660),#671,.F.);
#660 = FACE_BOUND('',#661,.F.);
#661 = EDGE_LOOP('',(#662,#663,#669,#670));
#662 = ORIENTED_EDGE('',*,*,#398,.F.);
#663 = ORIENTED_EDGE('',*,*,#664,.T.);
#664 = EDGE_CURVE('',#399,#207,#665,.T.);
#665 = LINE('',#666,#667);
#666 = CARTESIAN_POINT('',(0.,-2.489937205555,11.5));
#667 = VECTOR('',#668,1.);
#668 = DIRECTION('',(-1.,-0.,-0.));
#669 = ORIENTED_EDGE('',*,*,#206,.T.);
#670 = ORIENTED_EDGE('',*,*,#664,.F.);
#671 = CYLINDRICAL_SURFACE('',#672,1.626656);
#672 = AXIS2_PLACEMENT_3D('',#673,#674,#675);
#673 = CARTESIAN_POINT('',(0.,-4.116593205555,11.5));
#674 = DIRECTION('',(1.,0.,0.));
#675 = DIRECTION('',(0.,1.,0.));
#676 = ADVANCED_FACE('',(#677),#682,.F.);
#677 = FACE_BOUND('',#678,.F.);
#678 = EDGE_LOOP('',(#679,#680,#681));
#679 = ORIENTED_EDGE('',*,*,#476,.T.);
#680 = ORIENTED_EDGE('',*,*,#188,.T.);
#681 = ORIENTED_EDGE('',*,*,#490,.T.);
#682 = PLANE('',#683);
#683 = AXIS2_PLACEMENT_3D('',#684,#685,#686);
#684 = CARTESIAN_POINT('',(4.357959542137,-4.116593205555,4.));
#685 = DIRECTION('',(0.,0.,1.));
#686 = DIRECTION('',(1.,0.,0.));
#687 = ADVANCED_FACE('',(#688),#698,.F.);
#688 = FACE_BOUND('',#689,.F.);
#689 = EDGE_LOOP('',(#690,#691));
#690 = ORIENTED_EDGE('',*,*,#524,.T.);
#691 = ORIENTED_EDGE('',*,*,#692,.T.);
#692 = EDGE_CURVE('',#525,#516,#693,.T.);
#693 = CIRCLE('',#694,10.);
#694 = AXIS2_PLACEMENT_3D('',#695,#696,#697);
#695 = CARTESIAN_POINT('',(4.357959542137,-4.116593205555,4.));
#696 = DIRECTION('',(0.,0.,1.));
#697 = DIRECTION('',(1.,0.,0.));
#698 = PLANE('',#699);
#699 = AXIS2_PLACEMENT_3D('',#700,#701,#702);
#700 = CARTESIAN_POINT('',(4.357959542137,-4.116593205555,4.));
#701 = DIRECTION('',(0.,0.,1.));
#702 = DIRECTION('',(1.,0.,0.));
#703 = ADVANCED_FACE('',(#704),#708,.F.);
#704 = FACE_BOUND('',#705,.F.);
#705 = EDGE_LOOP('',(#706,#707));
#706 = ORIENTED_EDGE('',*,*,#40,.T.);
#707 = ORIENTED_EDGE('',*,*,#565,.T.);
#708 = PLANE('',#709);
#709 = AXIS2_PLACEMENT_3D('',#710,#711,#712);
#710 = CARTESIAN_POINT('',(4.357959542137,-4.116593205555,4.));
#711 = DIRECTION('',(0.,0.,1.));
#712 = DIRECTION('',(1.,0.,0.));
#713 = ADVANCED_FACE('',(#714),#733,.F.);
#714 = FACE_BOUND('',#715,.F.);
#715 = EDGE_LOOP('',(#716,#717,#718,#727));
#716 = ORIENTED_EDGE('',*,*,#101,.F.);
#717 = ORIENTED_EDGE('',*,*,#162,.T.);
#718 = ORIENTED_EDGE('',*,*,#719,.T.);
#719 = EDGE_CURVE('',#163,#720,#722,.T.);
#720 = VERTEX_POINT('',#721);
#721 = CARTESIAN_POINT('',(6.984491738983,5.53230976934,4.));
#722 = CIRCLE('',#723,3.25);
#723 = AXIS2_PLACEMENT_3D('',#724,#725,#726);
#724 = CARTESIAN_POINT('',(4.357959542137,7.446422780352,4.));
#725 = DIRECTION('',(0.,0.,1.));
#726 = DIRECTION('',(1.,0.,0.));
#727 = ORIENTED_EDGE('',*,*,#728,.F.);
#728 = EDGE_CURVE('',#93,#720,#729,.T.);
#729 = LINE('',#730,#731);
#730 = CARTESIAN_POINT('',(6.984491738983,5.53230976934,4.));
#731 = VECTOR('',#732,1.);
#732 = DIRECTION('',(-0.,-0.,-1.));
#733 = CYLINDRICAL_SURFACE('',#734,3.25);
#734 = AXIS2_PLACEMENT_3D('',#735,#736,#737);
#735 = CARTESIAN_POINT('',(4.357959542137,7.446422780352,16.));
#736 = DIRECTION('',(0.,0.,1.));
#737 = DIRECTION('',(1.,0.,0.));
#738 = ADVANCED_FACE('',(#739),#758,.F.);
#739 = FACE_BOUND('',#740,.F.);
#740 = EDGE_LOOP('',(#741,#742,#750,#757));
#741 = ORIENTED_EDGE('',*,*,#136,.F.);
#742 = ORIENTED_EDGE('',*,*,#743,.T.);
#743 = EDGE_CURVE('',#82,#744,#746,.T.);
#744 = VERTEX_POINT('',#745);
#745 = CARTESIAN_POINT('',(14.02742073547,-6.666401086675,4.));
#746 = LINE('',#747,#748);
#747 = CARTESIAN_POINT('',(14.02742073547,-6.666401086675,4.));
#748 = VECTOR('',#749,1.);
#749 = DIRECTION('',(-0.,-0.,-1.));
#750 = ORIENTED_EDGE('',*,*,#751,.T.);
#751 = EDGE_CURVE('',#744,#24,#752,.T.);
#752 = CIRCLE('',#753,3.25);
#753 = AXIS2_PLACEMENT_3D('',#754,#755,#756);
#754 = CARTESIAN_POINT('',(14.371825130298,-9.898101198509,4.));
#755 = DIRECTION('',(0.,0.,1.));
#756 = DIRECTION('',(1.,0.,0.));
#757 = ORIENTED_EDGE('',*,*,#21,.F.);
#758 = CYLINDRICAL_SURFACE('',#759,3.25);
#759 = AXIS2_PLACEMENT_3D('',#760,#761,#762);
#760 = CARTESIAN_POINT('',(14.371825130298,-9.898101198509,16.));
#761 = DIRECTION('',(0.,0.,1.));
#762 = DIRECTION('',(1.,0.,0.));
#763 = ADVANCED_FACE('',(#764,#767,#819,#822,#825),#828,.T.);
#764 = FACE_BOUND('',#765,.T.);
#765 = EDGE_LOOP('',(#766));
#766 = ORIENTED_EDGE('',*,*,#279,.T.);
#767 = FACE_BOUND('',#768,.T.);
#768 = EDGE_LOOP('',(#769,#770,#771,#772,#779,#780,#781,#790,#797,#798,
    #799,#800,#801,#802,#811,#818));
#769 = ORIENTED_EDGE('',*,*,#483,.F.);
#770 = ORIENTED_EDGE('',*,*,#197,.F.);
#771 = ORIENTED_EDGE('',*,*,#719,.T.);
#772 = ORIENTED_EDGE('',*,*,#773,.F.);
#773 = EDGE_CURVE('',#516,#720,#774,.T.);
#774 = CIRCLE('',#775,10.);
#775 = AXIS2_PLACEMENT_3D('',#776,#777,#778);
#776 = CARTESIAN_POINT('',(4.357959542137,-4.116593205555,4.));
#777 = DIRECTION('',(0.,0.,1.));
#778 = DIRECTION('',(1.,0.,0.));
#779 = ORIENTED_EDGE('',*,*,#515,.F.);
#780 = ORIENTED_EDGE('',*,*,#533,.F.);
#781 = ORIENTED_EDGE('',*,*,#782,.F.);
#782 = EDGE_CURVE('',#783,#525,#785,.T.);
#783 = VERTEX_POINT('',#784);
#784 = CARTESIAN_POINT('',(14.357959542137,-4.116593205555,4.));
#785 = CIRCLE('',#786,10.);
#786 = AXIS2_PLACEMENT_3D('',#787,#788,#789);
#787 = CARTESIAN_POINT('',(4.357959542137,-4.116593205555,4.));
#788 = DIRECTION('',(0.,0.,1.));
#789 = DIRECTION('',(1.,0.,0.));
#790 = ORIENTED_EDGE('',*,*,#791,.F.);
#791 = EDGE_CURVE('',#744,#783,#792,.T.);
#792 = CIRCLE('',#793,10.);
#793 = AXIS2_PLACEMENT_3D('',#794,#795,#796);
#794 = CARTESIAN_POINT('',(4.357959542137,-4.116593205555,4.));
#795 = DIRECTION('',(0.,0.,1.));
#796 = DIRECTION('',(1.,0.,0.));
#797 = ORIENTED_EDGE('',*,*,#751,.T.);
#798 = ORIENTED_EDGE('',*,*,#31,.F.);
#799 = ORIENTED_EDGE('',*,*,#558,.F.);
#800 = ORIENTED_EDGE('',*,*,#572,.F.);
#801 = ORIENTED_EDGE('',*,*,#49,.F.);
#802 = ORIENTED_EDGE('',*,*,#803,.T.);
#803 = EDGE_CURVE('',#50,#804,#806,.T.);
#804 = VERTEX_POINT('',#805);
#805 = CARTESIAN_POINT('',(-2.405906046025,-9.898101198509,4.));
#806 = CIRCLE('',#807,3.25);
#807 = AXIS2_PLACEMENT_3D('',#808,#809,#810);
#808 = CARTESIAN_POINT('',(-5.655906046025,-9.898101198509,4.));
#809 = DIRECTION('',(0.,0.,1.));
#810 = DIRECTION('',(1.,0.,0.));
#811 = ORIENTED_EDGE('',*,*,#812,.T.);
#812 = EDGE_CURVE('',#804,#172,#813,.T.);
#813 = CIRCLE('',#814,3.25);
#814 = AXIS2_PLACEMENT_3D('',#815,#816,#817);
#815 = CARTESIAN_POINT('',(-5.655906046025,-9.898101198509,4.));
#816 = DIRECTION('',(0.,0.,1.));
#817 = DIRECTION('',(1.,0.,0.));
#818 = ORIENTED_EDGE('',*,*,#179,.F.);
#819 = FACE_BOUND('',#820,.T.);
#820 = EDGE_LOOP('',(#821));
#821 = ORIENTED_EDGE('',*,*,#621,.F.);
#822 = FACE_BOUND('',#823,.T.);
#823 = EDGE_LOOP('',(#824));
#824 = ORIENTED_EDGE('',*,*,#646,.F.);
#825 = FACE_BOUND('',#826,.T.);
#826 = EDGE_LOOP('',(#827));
#827 = ORIENTED_EDGE('',*,*,#596,.F.);
#828 = PLANE('',#829);
#829 = AXIS2_PLACEMENT_3D('',#830,#831,#832);
#830 = CARTESIAN_POINT('',(4.357959542137,-4.116593205555,4.));
#831 = DIRECTION('',(0.,0.,1.));
#832 = DIRECTION('',(1.,0.,0.));
#833 = ADVANCED_FACE('',(#834),#844,.T.);
#834 = FACE_BOUND('',#835,.F.);
#835 = EDGE_LOOP('',(#836,#837,#838,#839,#840,#841,#842,#843));
#836 = ORIENTED_EDGE('',*,*,#728,.T.);
#837 = ORIENTED_EDGE('',*,*,#773,.F.);
#838 = ORIENTED_EDGE('',*,*,#692,.F.);
#839 = ORIENTED_EDGE('',*,*,#782,.F.);
#840 = ORIENTED_EDGE('',*,*,#791,.F.);
#841 = ORIENTED_EDGE('',*,*,#743,.F.);
#842 = ORIENTED_EDGE('',*,*,#81,.T.);
#843 = ORIENTED_EDGE('',*,*,#92,.T.);
#844 = CYLINDRICAL_SURFACE('',#845,10.);
#845 = AXIS2_PLACEMENT_3D('',#846,#847,#848);
#846 = CARTESIAN_POINT('',(4.357959542137,-4.116593205555,4.));
#847 = DIRECTION('',(-0.,-0.,-1.));
#848 = DIRECTION('',(1.,0.,0.));
#849 = ADVANCED_FACE('',(#850),#858,.F.);
#850 = FACE_BOUND('',#851,.F.);
#851 = EDGE_LOOP('',(#852,#853,#854,#855,#856,#857));
#852 = ORIENTED_EDGE('',*,*,#58,.T.);
#853 = ORIENTED_EDGE('',*,*,#803,.T.);
#854 = ORIENTED_EDGE('',*,*,#812,.T.);
#855 = ORIENTED_EDGE('',*,*,#171,.F.);
#856 = ORIENTED_EDGE('',*,*,#119,.F.);
#857 = ORIENTED_EDGE('',*,*,#128,.F.);
#858 = CYLINDRICAL_SURFACE('',#859,3.25);
#859 = AXIS2_PLACEMENT_3D('',#860,#861,#862);
#860 = CARTESIAN_POINT('',(-5.655906046025,-9.898101198509,16.));
#861 = DIRECTION('',(0.,0.,1.));
#862 = DIRECTION('',(1.,0.,0.));
#863 = ( GEOMETRIC_REPRESENTATION_CONTEXT(3) 
GLOBAL_UNCERTAINTY_ASSIGNED_CONTEXT((#867)) GLOBAL_UNIT_ASSIGNED_CONTEXT
((#864,#865,#866)) REPRESENTATION_CONTEXT('Context #1',
  '3D Context with UNIT and UNCERTAINTY') );
#864 = ( LENGTH_UNIT() NAMED_UNIT(*) SI_UNIT(.MILLI.,.METRE.) );
#865 = ( NAMED_UNIT(*) PLANE_ANGLE_UNIT() SI_UNIT($,.RADIAN.) );
#866 = ( NAMED_UNIT(*) SI_UNIT($,.STERADIAN.) SOLID_ANGLE_UNIT() );
#867 = UNCERTAINTY_MEASURE_WITH_UNIT(LENGTH_MEASURE(5.E-07),#864,
  'distance_accuracy_value','confusion accuracy');
#868 = PRODUCT_RELATED_PRODUCT_CATEGORY('part',$,(#7));
ENDSEC;
END-ISO-10303-21;
