ISO-10303-21;
HEADER;
FILE_DESCRIPTION(('FreeCAD Model'),'2;1');
FILE_NAME('Open CASCADE Shape Model','2026-08-28T13:03:57',('FreeCAD'),(
    'FreeCAD'),'Open CASCADE STEP processor 7.8','FreeCAD','Unknown');
FILE_SCHEMA(('AUTOMOTIVE_DESIGN { 1 0 10303 214 1 1 1 1 }'));
ENDSEC;
DATA;
#1 = APPLICATION_PROTOCOL_DEFINITION('international standard',
  'automotive_design',2000,#2);
#2 = APPLICATION_CONTEXT(
  'core data for automotive mechanical design processes');
#3 = SHAPE_DEFINITION_REPRESENTATION(#4,#10);
#4 = PRODUCT_DEFINITION_SHAPE('','',#5);
#5 = PRODUCT_DEFINITION('design','',#6,#9);
#6 = PRODUCT_DEFINITION_FORMATION('','',#7);
#7 = PRODUCT('Open CASCADE STEP translator 7.8 19',
  'Open CASCADE STEP translator 7.8 19','',(#8));
#8 = PRODUCT_CONTEXT('',#2,'mechanical');
#9 = PRODUCT_DEFINITION_CONTEXT('part definition',#2,'design');
#10 = ADVANCED_BREP_SHAPE_REPRESENTATION('',(#11,#15),#243);
#11 = AXIS2_PLACEMENT_3D('',#12,#13,#14);
#12 = CARTESIAN_POINT('',(0.,0.,0.));
#13 = DIRECTION('',(0.,0.,1.));
#14 = DIRECTION('',(1.,0.,-0.));
#15 = MANIFOLD_SOLID_BREP('',#16);
#16 = CLOSED_SHELL('',(#17,#164,#184,#193,#209,#234));
#17 = ADVANCED_FACE('',(#18,#45,#102),#159,.T.);
#18 = FACE_BOUND('',#19,.F.);
#19 = EDGE_LOOP('',(#20,#29,#37,#44));
#20 = ORIENTED_EDGE('',*,*,#21,.F.);
#21 = EDGE_CURVE('',#22,#22,#24,.T.);
#22 = VERTEX_POINT('',#23);
#23 = CARTESIAN_POINT('',(4.55,0.,0.));
#24 = CIRCLE('',#25,4.55);
#25 = AXIS2_PLACEMENT_3D('',#26,#27,#28);
#26 = CARTESIAN_POINT('',(0.,0.,0.));
#27 = DIRECTION('',(0.,-1.,0.));
#28 = DIRECTION('',(1.,0.,0.));
#29 = ORIENTED_EDGE('',*,*,#30,.T.);
#30 = EDGE_CURVE('',#22,#31,#33,.T.);
#31 = VERTEX_POINT('',#32);
#32 = CARTESIAN_POINT('',(4.55,-25.,6.E-15));
#33 = LINE('',#34,#35);
#34 = CARTESIAN_POINT('',(4.55,0.,0.));
#35 = VECTOR('',#36,1.);
#36 = DIRECTION('',(0.,-1.,2.2E-16));
#37 = ORIENTED_EDGE('',*,*,#38,.T.);
#38 = EDGE_CURVE('',#31,#31,#39,.T.);
#39 = CIRCLE('',#40,4.55);
#40 = AXIS2_PLACEMENT_3D('',#41,#42,#43);
#41 = CARTESIAN_POINT('',(0.,-25.,6.E-15));
#42 = DIRECTION('',(0.,-1.,0.));
#43 = DIRECTION('',(1.,0.,0.));
#44 = ORIENTED_EDGE('',*,*,#30,.F.);
#45 = FACE_BOUND('',#46,.F.);
#46 = EDGE_LOOP('',(#47));
#47 = ORIENTED_EDGE('',*,*,#48,.F.);
#48 = EDGE_CURVE('',#49,#49,#51,.T.);
#49 = VERTEX_POINT('',#50);
#50 = CARTESIAN_POINT('',(1.5,-18.5,-4.295637321749));
#51 = B_SPLINE_CURVE_WITH_KNOTS('',7,(#52,#53,#54,#55,#56,#57,#58,#59,
    #60,#61,#62,#63,#64,#65,#66,#67,#68,#69,#70,#71,#72,#73,#74,#75,#76,
    #77,#78,#79,#80,#81,#82,#83,#84,#85,#86,#87,#88,#89,#90,#91,#92,#93,
    #94,#95,#96,#97,#98,#99,#100,#101),.UNSPECIFIED.,.T.,.F.,(8,6,6,6,6,
    6,6,6,8),(0.,0.143741384397,0.283802994165,0.403286932837,
    0.541812774872,0.690244527387,0.813679500313,0.906855459653,1.),
  .UNSPECIFIED.);
#52 = CARTESIAN_POINT('',(1.5,-18.5,-4.295637321749));
#53 = CARTESIAN_POINT('',(1.5,-18.33832827461,-4.295637321749));
#54 = CARTESIAN_POINT('',(1.479670331634,-18.17682334142,-4.302736374788
    ));
#55 = CARTESIAN_POINT('',(1.439088818433,-18.0184363536,-4.316906461814)
  );
#56 = CARTESIAN_POINT('',(1.378812913416,-17.86607092906,-4.337276340202
    ));
#57 = CARTESIAN_POINT('',(1.299888086115,-17.72262976458,-4.362124494458
    ));
#58 = CARTESIAN_POINT('',(1.203978267048,-17.59087685882,-4.38929389873)
  );
#59 = CARTESIAN_POINT('',(0.98575705986,-17.3584948759,-4.44331996663));
#60 = CARTESIAN_POINT('',(0.858543706743,-17.25114773526,-4.47156263978)
  );
#61 = CARTESIAN_POINT('',(0.71256986046,-17.15710381738,-4.499163570529)
  );
#62 = CARTESIAN_POINT('',(0.550083243483,-17.08134307541,-4.523186055574
    ));
#63 = CARTESIAN_POINT('',(0.374363256773,-17.02791167131,-4.540797765582
    ));
#64 = CARTESIAN_POINT('',(0.189437951779,-17.,-4.55));
#65 = CARTESIAN_POINT('',(-0.161605972185,-17.,-4.55));
#66 = CARTESIAN_POINT('',(-0.323157149512,-17.02031297113,-4.54330347086
    ));
#67 = CARTESIAN_POINT('',(-0.481616168068,-17.0609130539,-4.529918502929
    ));
#68 = CARTESIAN_POINT('',(-0.633981446471,-17.12122157976,
    -4.510546867919));
#69 = CARTESIAN_POINT('',(-0.777362246866,-17.20012591531,
    -4.486564706786));
#70 = CARTESIAN_POINT('',(-0.909077347002,-17.29597872936,
    -4.459897511007));
#71 = CARTESIAN_POINT('',(-1.163328474129,-17.5347364299,-4.401000023324
    ));
#72 = CARTESIAN_POINT('',(-1.276387877806,-17.67832048713,
    -4.369641909266));
#73 = CARTESIAN_POINT('',(-1.366156285171,-17.8327373923,-4.341552567302
    ));
#74 = CARTESIAN_POINT('',(-1.433104337845,-17.99462117553,
    -4.318996679524));
#75 = CARTESIAN_POINT('',(-1.477647567226,-18.16129263101,
    -4.303442602296));
#76 = CARTESIAN_POINT('',(-1.5,-18.3304732805,-4.295637321749));
#77 = CARTESIAN_POINT('',(-1.5,-18.6816494865,-4.295637321749));
#78 = CARTESIAN_POINT('',(-1.47433663635,-18.86284013793,-4.304598711525
    ));
#79 = CARTESIAN_POINT('',(-1.423238874369,-19.04096633802,
    -4.322441752735));
#80 = CARTESIAN_POINT('',(-1.346397409878,-19.2132488262,-4.348190465552
    ));
#81 = CARTESIAN_POINT('',(-1.24324464506,-19.37632639827,-4.37992750157)
  );
#82 = CARTESIAN_POINT('',(-1.113169516161,-19.52586042894,
    -4.414652013372));
#83 = CARTESIAN_POINT('',(-0.825547822821,-19.76380178689,
    -4.476473154266));
#84 = CARTESIAN_POINT('',(-0.671713987325,-19.86207043542,
    -4.504857709277));
#85 = CARTESIAN_POINT('',(-0.497471908569,-19.94101941624,-4.5300834386)
  );
#86 = CARTESIAN_POINT('',(-0.308131906721,-19.99414095289,
    -4.548068459491));
#87 = CARTESIAN_POINT('',(-0.110439736086,-20.01762222862,
    -4.555958136936));
#88 = CARTESIAN_POINT('',(8.830502502575E-02,-20.01020313785,
    -4.553241006353));
#89 = CARTESIAN_POINT('',(0.426583772758,-19.94567301553,-4.532304168747
    ));
#90 = CARTESIAN_POINT('',(0.568852774262,-19.90115768958,-4.518037999217
    ));
#91 = CARTESIAN_POINT('',(0.705585604544,-19.84034496202,-4.499048807058
    ));
#92 = CARTESIAN_POINT('',(0.834593572484,-19.76406310774,-4.476326968888
    ));
#93 = CARTESIAN_POINT('',(0.953814160138,-19.67350594002,-4.451276079654
    ));
#94 = CARTESIAN_POINT('',(1.061384932444,-19.57022776808,-4.425549118356
    ));
#95 = CARTESIAN_POINT('',(1.250122969224,-19.34208267298,-4.375980931676
    ));
#96 = CARTESIAN_POINT('',(1.331456543997,-19.21703188012,-4.352097483613
    ));
#97 = CARTESIAN_POINT('',(1.398081474892,-19.08291349785,-4.330747397617
    ));
#98 = CARTESIAN_POINT('',(1.448818318899,-18.94189785503,-4.313509232409
    ));
#99 = CARTESIAN_POINT('',(1.482922910409,-18.79623489796,-4.301600557627
    ));
#100 = CARTESIAN_POINT('',(1.5,-18.64817573339,-4.295637321749));
#101 = CARTESIAN_POINT('',(1.5,-18.5,-4.295637321749));
#102 = FACE_BOUND('',#103,.F.);
#103 = EDGE_LOOP('',(#104));
#104 = ORIENTED_EDGE('',*,*,#105,.T.);
#105 = EDGE_CURVE('',#106,#106,#108,.T.);
#106 = VERTEX_POINT('',#107);
#107 = CARTESIAN_POINT('',(1.5,-18.5,4.295637321749));
#108 = B_SPLINE_CURVE_WITH_KNOTS('',7,(#109,#110,#111,#112,#113,#114,
    #115,#116,#117,#118,#119,#120,#121,#122,#123,#124,#125,#126,#127,
    #128,#129,#130,#131,#132,#133,#134,#135,#136,#137,#138,#139,#140,
    #141,#142,#143,#144,#145,#146,#147,#148,#149,#150,#151,#152,#153,
    #154,#155,#156,#157,#158),.UNSPECIFIED.,.T.,.F.,(8,6,6,6,6,6,6,6,8),
  (0.,0.138243119158,0.272947219092,0.387860766366,0.521087847369,
    0.648141876023,0.771943325797,0.877556026212,1.),.UNSPECIFIED.);
#109 = CARTESIAN_POINT('',(1.5,-18.5,4.295637321749));
#110 = CARTESIAN_POINT('',(1.5,-18.33832827461,4.295637321749));
#111 = CARTESIAN_POINT('',(1.479670331634,-18.17682334142,4.302736374788
    ));
#112 = CARTESIAN_POINT('',(1.439088818433,-18.0184363536,4.316906461814)
  );
#113 = CARTESIAN_POINT('',(1.378812913416,-17.86607092906,4.337276340202
    ));
#114 = CARTESIAN_POINT('',(1.299888086114,-17.72262976458,4.362124494458
    ));
#115 = CARTESIAN_POINT('',(1.203978267048,-17.59087685882,4.38929389873)
  );
#116 = CARTESIAN_POINT('',(0.98575705986,-17.3584948759,4.44331996663));
#117 = CARTESIAN_POINT('',(0.858543706743,-17.25114773526,4.47156263978)
  );
#118 = CARTESIAN_POINT('',(0.712569860459,-17.15710381738,4.499163570529
    ));
#119 = CARTESIAN_POINT('',(0.550083243485,-17.08134307541,4.523186055574
    ));
#120 = CARTESIAN_POINT('',(0.374363256772,-17.02791167131,4.540797765582
    ));
#121 = CARTESIAN_POINT('',(0.189437951779,-17.,4.55));
#122 = CARTESIAN_POINT('',(-0.161605972185,-17.,4.55));
#123 = CARTESIAN_POINT('',(-0.323157149512,-17.02031297113,4.54330347086
    ));
#124 = CARTESIAN_POINT('',(-0.481616168068,-17.0609130539,4.529918502929
    ));
#125 = CARTESIAN_POINT('',(-0.633981446471,-17.12122157976,
    4.510546867919));
#126 = CARTESIAN_POINT('',(-0.777362246867,-17.20012591531,
    4.486564706786));
#127 = CARTESIAN_POINT('',(-0.909077347002,-17.29597872936,
    4.459897511007));
#128 = CARTESIAN_POINT('',(-1.163328478232,-17.53473643376,
    4.401000022373));
#129 = CARTESIAN_POINT('',(-1.276387867047,-17.6783204787,4.369641911805
    ));
#130 = CARTESIAN_POINT('',(-1.36615629715,-17.83273739538,4.341552564517
    ));
#131 = CARTESIAN_POINT('',(-1.433104331472,-17.99462118477,
    4.318996680909));
#132 = CARTESIAN_POINT('',(-1.47764756857,-18.16129261896,4.303442602055
    ));
#133 = CARTESIAN_POINT('',(-1.5,-18.3304732854,4.295637321749));
#134 = CARTESIAN_POINT('',(-1.5,-18.66167172538,4.295637321749));
#135 = CARTESIAN_POINT('',(-1.479670331634,-18.82317665857,
    4.302736374788));
#136 = CARTESIAN_POINT('',(-1.439088818433,-18.98156364639,
    4.316906461814));
#137 = CARTESIAN_POINT('',(-1.378812913416,-19.13392907093,
    4.337276340202));
#138 = CARTESIAN_POINT('',(-1.299888086115,-19.27737023541,
    4.362124494458));
#139 = CARTESIAN_POINT('',(-1.203978267048,-19.40912314117,4.38929389873
    ));
#140 = CARTESIAN_POINT('',(-0.98575705986,-19.64150512409,4.44331996663)
  );
#141 = CARTESIAN_POINT('',(-0.858543706743,-19.74885226473,4.47156263978
    ));
#142 = CARTESIAN_POINT('',(-0.71256986046,-19.84289618261,4.499163570529
    ));
#143 = CARTESIAN_POINT('',(-0.550083243484,-19.91865692458,
    4.523186055574));
#144 = CARTESIAN_POINT('',(-0.374363256773,-19.97208832868,
    4.540797765582));
#145 = CARTESIAN_POINT('',(-0.189437951779,-20.,4.55));
#146 = CARTESIAN_POINT('',(0.161605972185,-20.,4.55));
#147 = CARTESIAN_POINT('',(0.323157149512,-19.97968702886,4.54330347086)
  );
#148 = CARTESIAN_POINT('',(0.481616168067,-19.93908694609,4.529918502929
    ));
#149 = CARTESIAN_POINT('',(0.633981446471,-19.87877842023,4.510546867919
    ));
#150 = CARTESIAN_POINT('',(0.777362246866,-19.79987408468,4.486564706786
    ));
#151 = CARTESIAN_POINT('',(0.909077347002,-19.70402127064,4.459897511007
    ));
#152 = CARTESIAN_POINT('',(1.163328474129,-19.46526357009,4.401000023324
    ));
#153 = CARTESIAN_POINT('',(1.276387877806,-19.32167951286,4.369641909266
    ));
#154 = CARTESIAN_POINT('',(1.366156285171,-19.1672626077,4.341552567302)
  );
#155 = CARTESIAN_POINT('',(1.433104337845,-19.00537882446,4.318996679524
    ));
#156 = CARTESIAN_POINT('',(1.477647567226,-18.83870736898,4.303442602296
    ));
#157 = CARTESIAN_POINT('',(1.5,-18.66952671949,4.295637321749));
#158 = CARTESIAN_POINT('',(1.5,-18.5,4.295637321749));
#159 = CYLINDRICAL_SURFACE('',#160,4.55);
#160 = AXIS2_PLACEMENT_3D('',#161,#162,#163);
#161 = CARTESIAN_POINT('',(0.,0.,0.));
#162 = DIRECTION('',(0.,1.,-2.2E-16));
#163 = DIRECTION('',(1.,0.,0.));
#164 = ADVANCED_FACE('',(#165,#168),#179,.T.);
#165 = FACE_BOUND('',#166,.T.);
#166 = EDGE_LOOP('',(#167));
#167 = ORIENTED_EDGE('',*,*,#21,.F.);
#168 = FACE_BOUND('',#169,.T.);
#169 = EDGE_LOOP('',(#170));
#170 = ORIENTED_EDGE('',*,*,#171,.F.);
#171 = EDGE_CURVE('',#172,#172,#174,.T.);
#172 = VERTEX_POINT('',#173);
#173 = CARTESIAN_POINT('',(-1.2,0.,0.));
#174 = CIRCLE('',#175,1.2);
#175 = AXIS2_PLACEMENT_3D('',#176,#177,#178);
#176 = CARTESIAN_POINT('',(0.,0.,0.));
#177 = DIRECTION('',(0.,1.,-0.));
#178 = DIRECTION('',(-1.,0.,0.));
#179 = PLANE('',#180);
#180 = AXIS2_PLACEMENT_3D('',#181,#182,#183);
#181 = CARTESIAN_POINT('',(-4.5E-16,0.,2.7E-16));
#182 = DIRECTION('',(0.,1.,0.));
#183 = DIRECTION('',(0.,0.,1.));
#184 = ADVANCED_FACE('',(#185),#188,.F.);
#185 = FACE_BOUND('',#186,.T.);
#186 = EDGE_LOOP('',(#187));
#187 = ORIENTED_EDGE('',*,*,#38,.T.);
#188 = PLANE('',#189);
#189 = AXIS2_PLACEMENT_3D('',#190,#191,#192);
#190 = CARTESIAN_POINT('',(-4.5E-16,-25.,6.27E-15));
#191 = DIRECTION('',(0.,1.,0.));
#192 = DIRECTION('',(0.,0.,1.));
#193 = ADVANCED_FACE('',(#194),#204,.F.);
#194 = FACE_BOUND('',#195,.F.);
#195 = EDGE_LOOP('',(#196,#197,#202,#203));
#196 = ORIENTED_EDGE('',*,*,#48,.T.);
#197 = ORIENTED_EDGE('',*,*,#198,.T.);
#198 = EDGE_CURVE('',#49,#106,#199,.T.);
#199 = B_SPLINE_CURVE_WITH_KNOTS('',1,(#200,#201),.UNSPECIFIED.,.F.,.F.,
  (2,2),(-56.75505702769,56.755057027692),.PIECEWISE_BEZIER_KNOTS.);
#200 = CARTESIAN_POINT('',(1.5,-18.5,-56.75505702769));
#201 = CARTESIAN_POINT('',(1.5,-18.5,56.755057027692));
#202 = ORIENTED_EDGE('',*,*,#105,.F.);
#203 = ORIENTED_EDGE('',*,*,#198,.F.);
#204 = CYLINDRICAL_SURFACE('',#205,1.5);
#205 = AXIS2_PLACEMENT_3D('',#206,#207,#208);
#206 = CARTESIAN_POINT('',(0.,-18.5,0.));
#207 = DIRECTION('',(0.,0.,1.));
#208 = DIRECTION('',(1.,0.,0.));
#209 = ADVANCED_FACE('',(#210),#229,.F.);
#210 = FACE_BOUND('',#211,.F.);
#211 = EDGE_LOOP('',(#212,#220,#227,#228));
#212 = ORIENTED_EDGE('',*,*,#213,.T.);
#213 = EDGE_CURVE('',#172,#214,#216,.T.);
#214 = VERTEX_POINT('',#215);
#215 = CARTESIAN_POINT('',(-1.2,-10.,2.E-15));
#216 = LINE('',#217,#218);
#217 = CARTESIAN_POINT('',(-1.2,0.,0.));
#218 = VECTOR('',#219,1.);
#219 = DIRECTION('',(0.,-1.,2.2E-16));
#220 = ORIENTED_EDGE('',*,*,#221,.T.);
#221 = EDGE_CURVE('',#214,#214,#222,.T.);
#222 = CIRCLE('',#223,1.2);
#223 = AXIS2_PLACEMENT_3D('',#224,#225,#226);
#224 = CARTESIAN_POINT('',(0.,-10.,2.E-15));
#225 = DIRECTION('',(0.,1.,-0.));
#226 = DIRECTION('',(-1.,0.,0.));
#227 = ORIENTED_EDGE('',*,*,#213,.F.);
#228 = ORIENTED_EDGE('',*,*,#171,.F.);
#229 = CYLINDRICAL_SURFACE('',#230,1.2);
#230 = AXIS2_PLACEMENT_3D('',#231,#232,#233);
#231 = CARTESIAN_POINT('',(0.,0.,0.));
#232 = DIRECTION('',(0.,1.,-2.2E-16));
#233 = DIRECTION('',(-1.,0.,0.));
#234 = ADVANCED_FACE('',(#235),#238,.T.);
#235 = FACE_BOUND('',#236,.T.);
#236 = EDGE_LOOP('',(#237));
#237 = ORIENTED_EDGE('',*,*,#221,.T.);
#238 = PLANE('',#239);
#239 = AXIS2_PLACEMENT_3D('',#240,#241,#242);
#240 = CARTESIAN_POINT('',(1.4E-16,-10.,2.02E-15));
#241 = DIRECTION('',(0.,1.,0.));
#242 = DIRECTION('',(0.,0.,1.));
#243 = ( GEOMETRIC_REPRESENTATION_CONTEXT(3) 
GLOBAL_UNCERTAINTY_ASSIGNED_CONTEXT((#247)) GLOBAL_UNIT_ASSIGNED_CONTEXT
((#244,#245,#246)) REPRESENTATION_CONTEXT('Context #1',
  '3D Context with UNIT and UNCERTAINTY') );
#244 = ( LENGTH_UNIT() NAMED_UNIT(*) SI_UNIT(.MILLI.,.METRE.) );
#245 = ( NAMED_UNIT(*) PLANE_ANGLE_UNIT() SI_UNIT($,.RADIAN.) );
#246 = ( NAMED_UNIT(*) SI_UNIT($,.STERADIAN.) SOLID_ANGLE_UNIT() );
#247 = UNCERTAINTY_MEASURE_WITH_UNIT(LENGTH_MEASURE(2.E-06),#244,
  'distance_accuracy_value','confusion accuracy');
#248 = PRODUCT_RELATED_PRODUCT_CATEGORY('part',$,(#7));
ENDSEC;
END-ISO-10303-21;
