ISO-10303-21;
HEADER;
FILE_DESCRIPTION(('FreeCAD Model'),'2;1');
FILE_NAME('Open CASCADE Shape Model','2026-08-28T22:45:40',('FreeCAD'),(
    'FreeCAD'),'Open CASCADE STEP processor 7.8','FreeCAD','Unknown');
FILE_SCHEMA(('AUTOMOTIVE_DESIGN { 1 0 10303 214 1 1 1 1 }'));
ENDSEC;
DATA;
#1 = APPLICATION_PROTOCOL_DEFINITION('international standard',
  'automotive_design',2000,#2);
#2 = APPLICATION_CONTEXT(
  'core data for automotive mechanical design processes');
#3 = SHAPE_DEFINITION_REPRESENTATION(#4,#10);
#4 = PRODUCT_DEFINITION_SHAPE('','',#5);
#5 = PRODUCT_DEFINITION('design','',#6,#9);
#6 = PRODUCT_DEFINITION_FORMATION('','',#7);
#7 = PRODUCT('Open CASCADE STEP translator 7.8 1',
  'Open CASCADE STEP translator 7.8 1','',(#8));
#8 = PRODUCT_CONTEXT('',#2,'mechanical');
#9 = PRODUCT_DEFINITION_CONTEXT('part definition',#2,'design');
#10 = ADVANCED_BREP_SHAPE_REPRESENTATION('',(#11,#15),#1227);
#11 = AXIS2_PLACEMENT_3D('',#12,#13,#14);
#12 = CARTESIAN_POINT('',(0.,0.,0.));
#13 = DIRECTION('',(0.,0.,1.));
#14 = DIRECTION('',(1.,0.,-0.));
#15 = MANIFOLD_SOLID_BREP('',#16);
#16 = CLOSED_SHELL('',(#17,#123,#155,#188,#220,#253,#278,#312,#337,#370,
    #402,#435,#460,#478,#516,#582,#600,#613,#711,#739,#767,#795,#823,
    #1093,#1119,#1136,#1158,#1201,#1217));
#17 = ADVANCED_FACE('',(#18),#118,.T.);
#18 = FACE_BOUND('',#19,.T.);
#19 = EDGE_LOOP('',(#20,#30,#38,#46,#54,#62,#71,#79,#87,#95,#103,#111));
#20 = ORIENTED_EDGE('',*,*,#21,.T.);
#21 = EDGE_CURVE('',#22,#24,#26,.T.);
#22 = VERTEX_POINT('',#23);
#23 = CARTESIAN_POINT('',(127.5,38.171572875254,64.5));
#24 = VERTEX_POINT('',#25);
#25 = CARTESIAN_POINT('',(127.5,39.35,64.5));
#26 = LINE('',#27,#28);
#27 = CARTESIAN_POINT('',(127.5,41.,64.5));
#28 = VECTOR('',#29,1.);
#29 = DIRECTION('',(0.,1.,0.));
#30 = ORIENTED_EDGE('',*,*,#31,.T.);
#31 = EDGE_CURVE('',#24,#32,#34,.T.);
#32 = VERTEX_POINT('',#33);
#33 = CARTESIAN_POINT('',(131.5,39.35,64.5));
#34 = LINE('',#35,#36);
#35 = CARTESIAN_POINT('',(116.5,39.35,64.5));
#36 = VECTOR('',#37,1.);
#37 = DIRECTION('',(1.,0.,0.));
#38 = ORIENTED_EDGE('',*,*,#39,.T.);
#39 = EDGE_CURVE('',#32,#40,#42,.T.);
#40 = VERTEX_POINT('',#41);
#41 = CARTESIAN_POINT('',(131.5,42.65,64.5));
#42 = LINE('',#43,#44);
#43 = CARTESIAN_POINT('',(131.5,39.35,64.5));
#44 = VECTOR('',#45,1.);
#45 = DIRECTION('',(0.,1.,0.));
#46 = ORIENTED_EDGE('',*,*,#47,.T.);
#47 = EDGE_CURVE('',#40,#48,#50,.T.);
#48 = VERTEX_POINT('',#49);
#49 = CARTESIAN_POINT('',(127.5,42.65,64.5));
#50 = LINE('',#51,#52);
#51 = CARTESIAN_POINT('',(131.5,42.65,64.5));
#52 = VECTOR('',#53,1.);
#53 = DIRECTION('',(-1.,0.,0.));
#54 = ORIENTED_EDGE('',*,*,#55,.T.);
#55 = EDGE_CURVE('',#48,#56,#58,.T.);
#56 = VERTEX_POINT('',#57);
#57 = CARTESIAN_POINT('',(127.5,43.828427124746,64.5));
#58 = LINE('',#59,#60);
#59 = CARTESIAN_POINT('',(127.5,41.,64.5));
#60 = VECTOR('',#61,1.);
#61 = DIRECTION('',(0.,1.,0.));
#62 = ORIENTED_EDGE('',*,*,#63,.T.);
#63 = EDGE_CURVE('',#56,#64,#66,.T.);
#64 = VERTEX_POINT('',#65);
#65 = CARTESIAN_POINT('',(120.5,43.828427124746,64.5));
#66 = CIRCLE('',#67,4.5);
#67 = AXIS2_PLACEMENT_3D('',#68,#69,#70);
#68 = CARTESIAN_POINT('',(124.,41.,64.5));
#69 = DIRECTION('',(0.,0.,1.));
#70 = DIRECTION('',(1.,0.,0.));
#71 = ORIENTED_EDGE('',*,*,#72,.T.);
#72 = EDGE_CURVE('',#64,#73,#75,.T.);
#73 = VERTEX_POINT('',#74);
#74 = CARTESIAN_POINT('',(120.5,42.65,64.5));
#75 = LINE('',#76,#77);
#76 = CARTESIAN_POINT('',(120.5,41.,64.5));
#77 = VECTOR('',#78,1.);
#78 = DIRECTION('',(0.,-1.,0.));
#79 = ORIENTED_EDGE('',*,*,#80,.T.);
#80 = EDGE_CURVE('',#73,#81,#83,.T.);
#81 = VERTEX_POINT('',#82);
#82 = CARTESIAN_POINT('',(116.5,42.65,64.5));
#83 = LINE('',#84,#85);
#84 = CARTESIAN_POINT('',(131.5,42.65,64.5));
#85 = VECTOR('',#86,1.);
#86 = DIRECTION('',(-1.,0.,0.));
#87 = ORIENTED_EDGE('',*,*,#88,.T.);
#88 = EDGE_CURVE('',#81,#89,#91,.T.);
#89 = VERTEX_POINT('',#90);
#90 = CARTESIAN_POINT('',(116.5,39.35,64.5));
#91 = LINE('',#92,#93);
#92 = CARTESIAN_POINT('',(116.5,42.65,64.5));
#93 = VECTOR('',#94,1.);
#94 = DIRECTION('',(0.,-1.,0.));
#95 = ORIENTED_EDGE('',*,*,#96,.T.);
#96 = EDGE_CURVE('',#89,#97,#99,.T.);
#97 = VERTEX_POINT('',#98);
#98 = CARTESIAN_POINT('',(120.5,39.35,64.5));
#99 = LINE('',#100,#101);
#100 = CARTESIAN_POINT('',(116.5,39.35,64.5));
#101 = VECTOR('',#102,1.);
#102 = DIRECTION('',(1.,0.,0.));
#103 = ORIENTED_EDGE('',*,*,#104,.T.);
#104 = EDGE_CURVE('',#97,#105,#107,.T.);
#105 = VERTEX_POINT('',#106);
#106 = CARTESIAN_POINT('',(120.5,38.171572875254,64.5));
#107 = LINE('',#108,#109);
#108 = CARTESIAN_POINT('',(120.5,41.,64.5));
#109 = VECTOR('',#110,1.);
#110 = DIRECTION('',(0.,-1.,0.));
#111 = ORIENTED_EDGE('',*,*,#112,.T.);
#112 = EDGE_CURVE('',#105,#22,#113,.T.);
#113 = CIRCLE('',#114,4.5);
#114 = AXIS2_PLACEMENT_3D('',#115,#116,#117);
#115 = CARTESIAN_POINT('',(124.,41.,64.5));
#116 = DIRECTION('',(0.,0.,1.));
#117 = DIRECTION('',(1.,0.,0.));
#118 = PLANE('',#119);
#119 = AXIS2_PLACEMENT_3D('',#120,#121,#122);
#120 = CARTESIAN_POINT('',(124.,41.,64.5));
#121 = DIRECTION('',(0.,0.,1.));
#122 = DIRECTION('',(1.,0.,0.));
#123 = ADVANCED_FACE('',(#124),#150,.T.);
#124 = FACE_BOUND('',#125,.T.);
#125 = EDGE_LOOP('',(#126,#134,#135,#143));
#126 = ORIENTED_EDGE('',*,*,#127,.F.);
#127 = EDGE_CURVE('',#24,#128,#130,.T.);
#128 = VERTEX_POINT('',#129);
#129 = CARTESIAN_POINT('',(127.5,39.35,72.063696790821));
#130 = LINE('',#131,#132);
#131 = CARTESIAN_POINT('',(127.5,39.35,73.));
#132 = VECTOR('',#133,1.);
#133 = DIRECTION('',(0.,0.,1.));
#134 = ORIENTED_EDGE('',*,*,#21,.F.);
#135 = ORIENTED_EDGE('',*,*,#136,.F.);
#136 = EDGE_CURVE('',#137,#22,#139,.T.);
#137 = VERTEX_POINT('',#138);
#138 = CARTESIAN_POINT('',(127.5,38.171572875254,72.4));
#139 = LINE('',#140,#141);
#140 = CARTESIAN_POINT('',(127.5,38.171572875254,73.));
#141 = VECTOR('',#142,1.);
#142 = DIRECTION('',(-0.,-0.,-1.));
#143 = ORIENTED_EDGE('',*,*,#144,.T.);
#144 = EDGE_CURVE('',#137,#128,#145,.T.);
#145 = HYPERBOLA('',#146,1.866666666667,3.5);
#146 = AXIS2_PLACEMENT_3D('',#147,#148,#149);
#147 = CARTESIAN_POINT('',(127.5,41.,70.));
#148 = DIRECTION('',(-1.,-3.E-16,0.));
#149 = DIRECTION('',(0.,0.,1.));
#150 = PLANE('',#151);
#151 = AXIS2_PLACEMENT_3D('',#152,#153,#154);
#152 = CARTESIAN_POINT('',(127.5,38.760786437627,69.25));
#153 = DIRECTION('',(-1.,-3.E-16,-0.));
#154 = DIRECTION('',(3.E-16,-1.,0.));
#155 = ADVANCED_FACE('',(#156),#183,.T.);
#156 = FACE_BOUND('',#157,.T.);
#157 = EDGE_LOOP('',(#158,#159,#160,#169,#177));
#158 = ORIENTED_EDGE('',*,*,#31,.F.);
#159 = ORIENTED_EDGE('',*,*,#127,.T.);
#160 = ORIENTED_EDGE('',*,*,#161,.T.);
#161 = EDGE_CURVE('',#128,#162,#164,.T.);
#162 = VERTEX_POINT('',#163);
#163 = CARTESIAN_POINT('',(131.31624903895,39.35,74.));
#164 = HYPERBOLA('',#165,0.88,1.65);
#165 = AXIS2_PLACEMENT_3D('',#166,#167,#168);
#166 = CARTESIAN_POINT('',(124.,39.35,70.));
#167 = DIRECTION('',(0.,1.,0.));
#168 = DIRECTION('',(0.,0.,1.));
#169 = ORIENTED_EDGE('',*,*,#170,.T.);
#170 = EDGE_CURVE('',#162,#171,#173,.T.);
#171 = VERTEX_POINT('',#172);
#172 = CARTESIAN_POINT('',(131.5,39.35,74.));
#173 = LINE('',#174,#175);
#174 = CARTESIAN_POINT('',(127.5,39.35,74.));
#175 = VECTOR('',#176,1.);
#176 = DIRECTION('',(1.,0.,0.));
#177 = ORIENTED_EDGE('',*,*,#178,.F.);
#178 = EDGE_CURVE('',#32,#171,#179,.T.);
#179 = LINE('',#180,#181);
#180 = CARTESIAN_POINT('',(131.5,39.35,73.));
#181 = VECTOR('',#182,1.);
#182 = DIRECTION('',(0.,0.,1.));
#183 = PLANE('',#184);
#184 = AXIS2_PLACEMENT_3D('',#185,#186,#187);
#185 = CARTESIAN_POINT('',(129.5,39.35,69.25));
#186 = DIRECTION('',(0.,1.,0.));
#187 = DIRECTION('',(0.,0.,1.));
#188 = ADVANCED_FACE('',(#189),#215,.T.);
#189 = FACE_BOUND('',#190,.T.);
#190 = EDGE_LOOP('',(#191,#192,#200,#208,#214));
#191 = ORIENTED_EDGE('',*,*,#178,.T.);
#192 = ORIENTED_EDGE('',*,*,#193,.T.);
#193 = EDGE_CURVE('',#171,#194,#196,.T.);
#194 = VERTEX_POINT('',#195);
#195 = CARTESIAN_POINT('',(131.5,41.000000000001,74.));
#196 = LINE('',#197,#198);
#197 = CARTESIAN_POINT('',(131.5,39.35,74.));
#198 = VECTOR('',#199,1.);
#199 = DIRECTION('',(0.,1.,0.));
#200 = ORIENTED_EDGE('',*,*,#201,.T.);
#201 = EDGE_CURVE('',#194,#202,#204,.T.);
#202 = VERTEX_POINT('',#203);
#203 = CARTESIAN_POINT('',(131.5,42.65,74.));
#204 = LINE('',#205,#206);
#205 = CARTESIAN_POINT('',(131.5,39.35,74.));
#206 = VECTOR('',#207,1.);
#207 = DIRECTION('',(0.,1.,0.));
#208 = ORIENTED_EDGE('',*,*,#209,.F.);
#209 = EDGE_CURVE('',#40,#202,#210,.T.);
#210 = LINE('',#211,#212);
#211 = CARTESIAN_POINT('',(131.5,42.65,73.));
#212 = VECTOR('',#213,1.);
#213 = DIRECTION('',(0.,0.,1.));
#214 = ORIENTED_EDGE('',*,*,#39,.F.);
#215 = PLANE('',#216);
#216 = AXIS2_PLACEMENT_3D('',#217,#218,#219);
#217 = CARTESIAN_POINT('',(131.5,41.,69.25));
#218 = DIRECTION('',(-1.,-0.,-0.));
#219 = DIRECTION('',(0.,0.,-1.));
#220 = ADVANCED_FACE('',(#221),#248,.T.);
#221 = FACE_BOUND('',#222,.T.);
#222 = EDGE_LOOP('',(#223,#224,#225,#233,#242));
#223 = ORIENTED_EDGE('',*,*,#47,.F.);
#224 = ORIENTED_EDGE('',*,*,#209,.T.);
#225 = ORIENTED_EDGE('',*,*,#226,.T.);
#226 = EDGE_CURVE('',#202,#227,#229,.T.);
#227 = VERTEX_POINT('',#228);
#228 = CARTESIAN_POINT('',(131.31624903895,42.65,74.));
#229 = LINE('',#230,#231);
#230 = CARTESIAN_POINT('',(131.5,42.65,74.));
#231 = VECTOR('',#232,1.);
#232 = DIRECTION('',(-1.,0.,0.));
#233 = ORIENTED_EDGE('',*,*,#234,.T.);
#234 = EDGE_CURVE('',#227,#235,#237,.T.);
#235 = VERTEX_POINT('',#236);
#236 = CARTESIAN_POINT('',(127.5,42.65,72.063696790821));
#237 = HYPERBOLA('',#238,0.88,1.65);
#238 = AXIS2_PLACEMENT_3D('',#239,#240,#241);
#239 = CARTESIAN_POINT('',(124.,42.65,70.));
#240 = DIRECTION('',(0.,-1.,0.));
#241 = DIRECTION('',(0.,0.,1.));
#242 = ORIENTED_EDGE('',*,*,#243,.F.);
#243 = EDGE_CURVE('',#48,#235,#244,.T.);
#244 = LINE('',#245,#246);
#245 = CARTESIAN_POINT('',(127.5,42.65,70.875));
#246 = VECTOR('',#247,1.);
#247 = DIRECTION('',(0.,0.,1.));
#248 = PLANE('',#249);
#249 = AXIS2_PLACEMENT_3D('',#250,#251,#252);
#250 = CARTESIAN_POINT('',(129.5,42.65,69.25));
#251 = DIRECTION('',(-0.,-1.,-0.));
#252 = DIRECTION('',(0.,0.,-1.));
#253 = ADVANCED_FACE('',(#254),#273,.T.);
#254 = FACE_BOUND('',#255,.T.);
#255 = EDGE_LOOP('',(#256,#264,#265,#266));
#256 = ORIENTED_EDGE('',*,*,#257,.F.);
#257 = EDGE_CURVE('',#56,#258,#260,.T.);
#258 = VERTEX_POINT('',#259);
#259 = CARTESIAN_POINT('',(127.5,43.828427124746,72.4));
#260 = LINE('',#261,#262);
#261 = CARTESIAN_POINT('',(127.5,43.828427124746,73.));
#262 = VECTOR('',#263,1.);
#263 = DIRECTION('',(0.,0.,1.));
#264 = ORIENTED_EDGE('',*,*,#55,.F.);
#265 = ORIENTED_EDGE('',*,*,#243,.T.);
#266 = ORIENTED_EDGE('',*,*,#267,.T.);
#267 = EDGE_CURVE('',#235,#258,#268,.T.);
#268 = HYPERBOLA('',#269,1.866666666667,3.5);
#269 = AXIS2_PLACEMENT_3D('',#270,#271,#272);
#270 = CARTESIAN_POINT('',(127.5,41.,70.));
#271 = DIRECTION('',(-1.,5.6E-16,0.));
#272 = DIRECTION('',(0.,0.,1.));
#273 = PLANE('',#274);
#274 = AXIS2_PLACEMENT_3D('',#275,#276,#277);
#275 = CARTESIAN_POINT('',(127.5,43.239213562373,69.25));
#276 = DIRECTION('',(-1.,5.6E-16,0.));
#277 = DIRECTION('',(-5.6E-16,-1.,0.));
#278 = ADVANCED_FACE('',(#279),#307,.F.);
#279 = FACE_BOUND('',#280,.T.);
#280 = EDGE_LOOP('',(#281,#282,#283,#292,#301));
#281 = ORIENTED_EDGE('',*,*,#63,.F.);
#282 = ORIENTED_EDGE('',*,*,#257,.T.);
#283 = ORIENTED_EDGE('',*,*,#284,.F.);
#284 = EDGE_CURVE('',#285,#258,#287,.T.);
#285 = VERTEX_POINT('',#286);
#286 = CARTESIAN_POINT('',(124.,45.5,72.4));
#287 = CIRCLE('',#288,4.5);
#288 = AXIS2_PLACEMENT_3D('',#289,#290,#291);
#289 = CARTESIAN_POINT('',(124.,41.,72.4));
#290 = DIRECTION('',(0.,0.,-1.));
#291 = DIRECTION('',(0.,1.,0.));
#292 = ORIENTED_EDGE('',*,*,#293,.F.);
#293 = EDGE_CURVE('',#294,#285,#296,.T.);
#294 = VERTEX_POINT('',#295);
#295 = CARTESIAN_POINT('',(120.5,43.828427124746,72.4));
#296 = CIRCLE('',#297,4.5);
#297 = AXIS2_PLACEMENT_3D('',#298,#299,#300);
#298 = CARTESIAN_POINT('',(124.,41.,72.4));
#299 = DIRECTION('',(0.,0.,-1.));
#300 = DIRECTION('',(0.,1.,0.));
#301 = ORIENTED_EDGE('',*,*,#302,.T.);
#302 = EDGE_CURVE('',#294,#64,#303,.T.);
#303 = LINE('',#304,#305);
#304 = CARTESIAN_POINT('',(120.5,43.828427124746,73.));
#305 = VECTOR('',#306,1.);
#306 = DIRECTION('',(-0.,-0.,-1.));
#307 = CYLINDRICAL_SURFACE('',#308,4.5);
#308 = AXIS2_PLACEMENT_3D('',#309,#310,#311);
#309 = CARTESIAN_POINT('',(124.,41.,73.));
#310 = DIRECTION('',(-0.,-0.,-1.));
#311 = DIRECTION('',(1.,0.,0.));
#312 = ADVANCED_FACE('',(#313),#332,.T.);
#313 = FACE_BOUND('',#314,.T.);
#314 = EDGE_LOOP('',(#315,#324,#330,#331));
#315 = ORIENTED_EDGE('',*,*,#316,.T.);
#316 = EDGE_CURVE('',#294,#317,#319,.T.);
#317 = VERTEX_POINT('',#318);
#318 = CARTESIAN_POINT('',(120.5,42.65,72.063696790821));
#319 = HYPERBOLA('',#320,1.866666666667,3.5);
#320 = AXIS2_PLACEMENT_3D('',#321,#322,#323);
#321 = CARTESIAN_POINT('',(120.5,41.,70.));
#322 = DIRECTION('',(1.,1.13E-15,-0.));
#323 = DIRECTION('',(0.,0.,1.));
#324 = ORIENTED_EDGE('',*,*,#325,.T.);
#325 = EDGE_CURVE('',#317,#73,#326,.T.);
#326 = LINE('',#327,#328);
#327 = CARTESIAN_POINT('',(120.5,42.65,70.875));
#328 = VECTOR('',#329,1.);
#329 = DIRECTION('',(0.,0.,-1.));
#330 = ORIENTED_EDGE('',*,*,#72,.F.);
#331 = ORIENTED_EDGE('',*,*,#302,.F.);
#332 = PLANE('',#333);
#333 = AXIS2_PLACEMENT_3D('',#334,#335,#336);
#334 = CARTESIAN_POINT('',(120.5,43.239213562373,69.25));
#335 = DIRECTION('',(1.,1.13E-15,0.));
#336 = DIRECTION('',(-1.13E-15,1.,0.));
#337 = ADVANCED_FACE('',(#338),#365,.T.);
#338 = FACE_BOUND('',#339,.T.);
#339 = EDGE_LOOP('',(#340,#349,#357,#363,#364));
#340 = ORIENTED_EDGE('',*,*,#341,.T.);
#341 = EDGE_CURVE('',#317,#342,#344,.T.);
#342 = VERTEX_POINT('',#343);
#343 = CARTESIAN_POINT('',(116.68375096104,42.65,74.));
#344 = HYPERBOLA('',#345,0.88,1.65);
#345 = AXIS2_PLACEMENT_3D('',#346,#347,#348);
#346 = CARTESIAN_POINT('',(124.,42.65,70.));
#347 = DIRECTION('',(0.,-1.,0.));
#348 = DIRECTION('',(0.,0.,1.));
#349 = ORIENTED_EDGE('',*,*,#350,.T.);
#350 = EDGE_CURVE('',#342,#351,#353,.T.);
#351 = VERTEX_POINT('',#352);
#352 = CARTESIAN_POINT('',(116.5,42.65,74.));
#353 = LINE('',#354,#355);
#354 = CARTESIAN_POINT('',(120.5,42.65,74.));
#355 = VECTOR('',#356,1.);
#356 = DIRECTION('',(-1.,0.,0.));
#357 = ORIENTED_EDGE('',*,*,#358,.F.);
#358 = EDGE_CURVE('',#81,#351,#359,.T.);
#359 = LINE('',#360,#361);
#360 = CARTESIAN_POINT('',(116.5,42.65,73.));
#361 = VECTOR('',#362,1.);
#362 = DIRECTION('',(0.,0.,1.));
#363 = ORIENTED_EDGE('',*,*,#80,.F.);
#364 = ORIENTED_EDGE('',*,*,#325,.F.);
#365 = PLANE('',#366);
#366 = AXIS2_PLACEMENT_3D('',#367,#368,#369);
#367 = CARTESIAN_POINT('',(118.5,42.65,69.25));
#368 = DIRECTION('',(-0.,-1.,-0.));
#369 = DIRECTION('',(0.,0.,-1.));
#370 = ADVANCED_FACE('',(#371),#397,.T.);
#371 = FACE_BOUND('',#372,.T.);
#372 = EDGE_LOOP('',(#373,#374,#382,#390,#396));
#373 = ORIENTED_EDGE('',*,*,#358,.T.);
#374 = ORIENTED_EDGE('',*,*,#375,.T.);
#375 = EDGE_CURVE('',#351,#376,#378,.T.);
#376 = VERTEX_POINT('',#377);
#377 = CARTESIAN_POINT('',(116.5,41.000000000001,74.));
#378 = LINE('',#379,#380);
#379 = CARTESIAN_POINT('',(116.5,42.65,74.));
#380 = VECTOR('',#381,1.);
#381 = DIRECTION('',(0.,-1.,0.));
#382 = ORIENTED_EDGE('',*,*,#383,.T.);
#383 = EDGE_CURVE('',#376,#384,#386,.T.);
#384 = VERTEX_POINT('',#385);
#385 = CARTESIAN_POINT('',(116.5,39.35,74.));
#386 = LINE('',#387,#388);
#387 = CARTESIAN_POINT('',(116.5,42.65,74.));
#388 = VECTOR('',#389,1.);
#389 = DIRECTION('',(0.,-1.,0.));
#390 = ORIENTED_EDGE('',*,*,#391,.T.);
#391 = EDGE_CURVE('',#384,#89,#392,.T.);
#392 = LINE('',#393,#394);
#393 = CARTESIAN_POINT('',(116.5,39.35,73.));
#394 = VECTOR('',#395,1.);
#395 = DIRECTION('',(-0.,-0.,-1.));
#396 = ORIENTED_EDGE('',*,*,#88,.F.);
#397 = PLANE('',#398);
#398 = AXIS2_PLACEMENT_3D('',#399,#400,#401);
#399 = CARTESIAN_POINT('',(116.5,41.,69.25));
#400 = DIRECTION('',(1.,0.,0.));
#401 = DIRECTION('',(0.,0.,1.));
#402 = ADVANCED_FACE('',(#403),#430,.T.);
#403 = FACE_BOUND('',#404,.T.);
#404 = EDGE_LOOP('',(#405,#406,#414,#423,#429));
#405 = ORIENTED_EDGE('',*,*,#391,.F.);
#406 = ORIENTED_EDGE('',*,*,#407,.T.);
#407 = EDGE_CURVE('',#384,#408,#410,.T.);
#408 = VERTEX_POINT('',#409);
#409 = CARTESIAN_POINT('',(116.68375096104,39.35,74.));
#410 = LINE('',#411,#412);
#411 = CARTESIAN_POINT('',(116.5,39.35,74.));
#412 = VECTOR('',#413,1.);
#413 = DIRECTION('',(1.,0.,0.));
#414 = ORIENTED_EDGE('',*,*,#415,.T.);
#415 = EDGE_CURVE('',#408,#416,#418,.T.);
#416 = VERTEX_POINT('',#417);
#417 = CARTESIAN_POINT('',(120.5,39.35,72.063696790821));
#418 = HYPERBOLA('',#419,0.88,1.65);
#419 = AXIS2_PLACEMENT_3D('',#420,#421,#422);
#420 = CARTESIAN_POINT('',(124.,39.35,70.));
#421 = DIRECTION('',(0.,1.,0.));
#422 = DIRECTION('',(0.,0.,1.));
#423 = ORIENTED_EDGE('',*,*,#424,.F.);
#424 = EDGE_CURVE('',#97,#416,#425,.T.);
#425 = LINE('',#426,#427);
#426 = CARTESIAN_POINT('',(120.5,39.35,73.));
#427 = VECTOR('',#428,1.);
#428 = DIRECTION('',(0.,0.,1.));
#429 = ORIENTED_EDGE('',*,*,#96,.F.);
#430 = PLANE('',#431);
#431 = AXIS2_PLACEMENT_3D('',#432,#433,#434);
#432 = CARTESIAN_POINT('',(118.5,39.35,69.25));
#433 = DIRECTION('',(0.,1.,0.));
#434 = DIRECTION('',(0.,0.,1.));
#435 = ADVANCED_FACE('',(#436),#455,.T.);
#436 = FACE_BOUND('',#437,.T.);
#437 = EDGE_LOOP('',(#438,#446,#447,#448));
#438 = ORIENTED_EDGE('',*,*,#439,.F.);
#439 = EDGE_CURVE('',#105,#440,#442,.T.);
#440 = VERTEX_POINT('',#441);
#441 = CARTESIAN_POINT('',(120.5,38.171572875254,72.4));
#442 = LINE('',#443,#444);
#443 = CARTESIAN_POINT('',(120.5,38.171572875254,73.));
#444 = VECTOR('',#445,1.);
#445 = DIRECTION('',(0.,0.,1.));
#446 = ORIENTED_EDGE('',*,*,#104,.F.);
#447 = ORIENTED_EDGE('',*,*,#424,.T.);
#448 = ORIENTED_EDGE('',*,*,#449,.T.);
#449 = EDGE_CURVE('',#416,#440,#450,.T.);
#450 = HYPERBOLA('',#451,1.866666666667,3.5);
#451 = AXIS2_PLACEMENT_3D('',#452,#453,#454);
#452 = CARTESIAN_POINT('',(120.5,41.,70.));
#453 = DIRECTION('',(1.,-8.6E-16,0.));
#454 = DIRECTION('',(0.,0.,1.));
#455 = PLANE('',#456);
#456 = AXIS2_PLACEMENT_3D('',#457,#458,#459);
#457 = CARTESIAN_POINT('',(120.5,38.760786437627,69.25));
#458 = DIRECTION('',(1.,-8.6E-16,0.));
#459 = DIRECTION('',(8.6E-16,1.,0.));
#460 = ADVANCED_FACE('',(#461),#473,.F.);
#461 = FACE_BOUND('',#462,.T.);
#462 = EDGE_LOOP('',(#463,#464,#465,#472));
#463 = ORIENTED_EDGE('',*,*,#112,.F.);
#464 = ORIENTED_EDGE('',*,*,#439,.T.);
#465 = ORIENTED_EDGE('',*,*,#466,.F.);
#466 = EDGE_CURVE('',#137,#440,#467,.T.);
#467 = CIRCLE('',#468,4.5);
#468 = AXIS2_PLACEMENT_3D('',#469,#470,#471);
#469 = CARTESIAN_POINT('',(124.,41.,72.4));
#470 = DIRECTION('',(0.,0.,-1.));
#471 = DIRECTION('',(0.,1.,0.));
#472 = ORIENTED_EDGE('',*,*,#136,.T.);
#473 = CYLINDRICAL_SURFACE('',#474,4.5);
#474 = AXIS2_PLACEMENT_3D('',#475,#476,#477);
#475 = CARTESIAN_POINT('',(124.,41.,73.));
#476 = DIRECTION('',(-0.,-0.,-1.));
#477 = DIRECTION('',(1.,0.,0.));
#478 = ADVANCED_FACE('',(#479),#511,.F.);
#479 = FACE_BOUND('',#480,.T.);
#480 = EDGE_LOOP('',(#481,#482,#491,#500,#507,#508,#509,#510));
#481 = ORIENTED_EDGE('',*,*,#415,.F.);
#482 = ORIENTED_EDGE('',*,*,#483,.T.);
#483 = EDGE_CURVE('',#408,#484,#486,.T.);
#484 = VERTEX_POINT('',#485);
#485 = CARTESIAN_POINT('',(119.36966523888,35.1,74.));
#486 = CIRCLE('',#487,7.5);
#487 = AXIS2_PLACEMENT_3D('',#488,#489,#490);
#488 = CARTESIAN_POINT('',(124.,41.,74.));
#489 = DIRECTION('',(0.,-0.,1.));
#490 = DIRECTION('',(0.,1.,0.));
#491 = ORIENTED_EDGE('',*,*,#492,.F.);
#492 = EDGE_CURVE('',#493,#484,#495,.T.);
#493 = VERTEX_POINT('',#494);
#494 = CARTESIAN_POINT('',(128.63033476111,35.1,74.));
#495 = HYPERBOLA('',#496,3.146666666667,5.9);
#496 = AXIS2_PLACEMENT_3D('',#497,#498,#499);
#497 = CARTESIAN_POINT('',(124.,35.1,70.));
#498 = DIRECTION('',(5.1E-16,-1.,0.));
#499 = DIRECTION('',(0.,0.,1.));
#500 = ORIENTED_EDGE('',*,*,#501,.T.);
#501 = EDGE_CURVE('',#493,#162,#502,.T.);
#502 = CIRCLE('',#503,7.5);
#503 = AXIS2_PLACEMENT_3D('',#504,#505,#506);
#504 = CARTESIAN_POINT('',(124.,41.,74.));
#505 = DIRECTION('',(0.,-0.,1.));
#506 = DIRECTION('',(0.,1.,0.));
#507 = ORIENTED_EDGE('',*,*,#161,.F.);
#508 = ORIENTED_EDGE('',*,*,#144,.F.);
#509 = ORIENTED_EDGE('',*,*,#466,.T.);
#510 = ORIENTED_EDGE('',*,*,#449,.F.);
#511 = CONICAL_SURFACE('',#512,7.5,1.080839000541);
#512 = AXIS2_PLACEMENT_3D('',#513,#514,#515);
#513 = CARTESIAN_POINT('',(124.,41.,74.));
#514 = DIRECTION('',(0.,0.,1.));
#515 = DIRECTION('',(0.,1.,0.));
#516 = ADVANCED_FACE('',(#517),#577,.T.);
#517 = FACE_BOUND('',#518,.T.);
#518 = EDGE_LOOP('',(#519,#527,#536,#545,#551,#552,#553,#554,#555,#556,
    #565,#572,#573,#574,#575,#576));
#519 = ORIENTED_EDGE('',*,*,#520,.T.);
#520 = EDGE_CURVE('',#493,#521,#523,.T.);
#521 = VERTEX_POINT('',#522);
#522 = CARTESIAN_POINT('',(130.11882341631,35.1,74.));
#523 = LINE('',#524,#525);
#524 = CARTESIAN_POINT('',(117.88117658368,35.1,74.));
#525 = VECTOR('',#526,1.);
#526 = DIRECTION('',(1.,0.,0.));
#527 = ORIENTED_EDGE('',*,*,#528,.T.);
#528 = EDGE_CURVE('',#521,#529,#531,.T.);
#529 = VERTEX_POINT('',#530);
#530 = CARTESIAN_POINT('',(132.5,41.,74.));
#531 = CIRCLE('',#532,8.5);
#532 = AXIS2_PLACEMENT_3D('',#533,#534,#535);
#533 = CARTESIAN_POINT('',(124.,41.,74.));
#534 = DIRECTION('',(0.,0.,1.));
#535 = DIRECTION('',(1.,0.,0.));
#536 = ORIENTED_EDGE('',*,*,#537,.T.);
#537 = EDGE_CURVE('',#529,#538,#540,.T.);
#538 = VERTEX_POINT('',#539);
#539 = CARTESIAN_POINT('',(117.88117658368,35.1,74.));
#540 = CIRCLE('',#541,8.5);
#541 = AXIS2_PLACEMENT_3D('',#542,#543,#544);
#542 = CARTESIAN_POINT('',(124.,41.,74.));
#543 = DIRECTION('',(0.,0.,1.));
#544 = DIRECTION('',(1.,0.,0.));
#545 = ORIENTED_EDGE('',*,*,#546,.T.);
#546 = EDGE_CURVE('',#538,#484,#547,.T.);
#547 = LINE('',#548,#549);
#548 = CARTESIAN_POINT('',(117.88117658368,35.1,74.));
#549 = VECTOR('',#550,1.);
#550 = DIRECTION('',(1.,0.,0.));
#551 = ORIENTED_EDGE('',*,*,#483,.F.);
#552 = ORIENTED_EDGE('',*,*,#407,.F.);
#553 = ORIENTED_EDGE('',*,*,#383,.F.);
#554 = ORIENTED_EDGE('',*,*,#375,.F.);
#555 = ORIENTED_EDGE('',*,*,#350,.F.);
#556 = ORIENTED_EDGE('',*,*,#557,.F.);
#557 = EDGE_CURVE('',#558,#342,#560,.T.);
#558 = VERTEX_POINT('',#559);
#559 = CARTESIAN_POINT('',(124.,48.5,74.));
#560 = CIRCLE('',#561,7.5);
#561 = AXIS2_PLACEMENT_3D('',#562,#563,#564);
#562 = CARTESIAN_POINT('',(124.,41.,74.));
#563 = DIRECTION('',(0.,-0.,1.));
#564 = DIRECTION('',(0.,1.,0.));
#565 = ORIENTED_EDGE('',*,*,#566,.F.);
#566 = EDGE_CURVE('',#227,#558,#567,.T.);
#567 = CIRCLE('',#568,7.5);
#568 = AXIS2_PLACEMENT_3D('',#569,#570,#571);
#569 = CARTESIAN_POINT('',(124.,41.,74.));
#570 = DIRECTION('',(0.,-0.,1.));
#571 = DIRECTION('',(0.,1.,0.));
#572 = ORIENTED_EDGE('',*,*,#226,.F.);
#573 = ORIENTED_EDGE('',*,*,#201,.F.);
#574 = ORIENTED_EDGE('',*,*,#193,.F.);
#575 = ORIENTED_EDGE('',*,*,#170,.F.);
#576 = ORIENTED_EDGE('',*,*,#501,.F.);
#577 = PLANE('',#578);
#578 = AXIS2_PLACEMENT_3D('',#579,#580,#581);
#579 = CARTESIAN_POINT('',(124.10628418358,41.070424417689,74.));
#580 = DIRECTION('',(0.,0.,1.));
#581 = DIRECTION('',(1.,0.,0.));
#582 = ADVANCED_FACE('',(#583),#595,.F.);
#583 = FACE_BOUND('',#584,.T.);
#584 = EDGE_LOOP('',(#585,#586,#592,#593,#594));
#585 = ORIENTED_EDGE('',*,*,#566,.T.);
#586 = ORIENTED_EDGE('',*,*,#587,.T.);
#587 = EDGE_CURVE('',#558,#285,#588,.T.);
#588 = LINE('',#589,#590);
#589 = CARTESIAN_POINT('',(124.,48.5,74.));
#590 = VECTOR('',#591,1.);
#591 = DIRECTION('',(0.,-0.882352941176,-0.470588235294));
#592 = ORIENTED_EDGE('',*,*,#284,.T.);
#593 = ORIENTED_EDGE('',*,*,#267,.F.);
#594 = ORIENTED_EDGE('',*,*,#234,.F.);
#595 = CONICAL_SURFACE('',#596,7.5,1.080839000541);
#596 = AXIS2_PLACEMENT_3D('',#597,#598,#599);
#597 = CARTESIAN_POINT('',(124.,41.,74.));
#598 = DIRECTION('',(0.,0.,1.));
#599 = DIRECTION('',(0.,1.,0.));
#600 = ADVANCED_FACE('',(#601),#608,.F.);
#601 = FACE_BOUND('',#602,.T.);
#602 = EDGE_LOOP('',(#603,#604,#605,#606,#607));
#603 = ORIENTED_EDGE('',*,*,#587,.F.);
#604 = ORIENTED_EDGE('',*,*,#557,.T.);
#605 = ORIENTED_EDGE('',*,*,#341,.F.);
#606 = ORIENTED_EDGE('',*,*,#316,.F.);
#607 = ORIENTED_EDGE('',*,*,#293,.T.);
#608 = CONICAL_SURFACE('',#609,7.5,1.080839000541);
#609 = AXIS2_PLACEMENT_3D('',#610,#611,#612);
#610 = CARTESIAN_POINT('',(124.,41.,74.));
#611 = DIRECTION('',(0.,0.,1.));
#612 = DIRECTION('',(0.,1.,0.));
#613 = ADVANCED_FACE('',(#614),#706,.T.);
#614 = FACE_BOUND('',#615,.T.);
#615 = EDGE_LOOP('',(#616,#626,#634,#642,#650,#659,#667,#675,#683,#691,
    #697,#698,#699,#700));
#616 = ORIENTED_EDGE('',*,*,#617,.F.);
#617 = EDGE_CURVE('',#618,#620,#622,.T.);
#618 = VERTEX_POINT('',#619);
#619 = CARTESIAN_POINT('',(118.5972229363,35.1,65.));
#620 = VERTEX_POINT('',#621);
#621 = CARTESIAN_POINT('',(117.88117658368,35.1,65.));
#622 = LINE('',#623,#624);
#623 = CARTESIAN_POINT('',(123.88321125,35.1,65.));
#624 = VECTOR('',#625,1.);
#625 = DIRECTION('',(-1.,0.,0.));
#626 = ORIENTED_EDGE('',*,*,#627,.F.);
#627 = EDGE_CURVE('',#628,#618,#630,.T.);
#628 = VERTEX_POINT('',#629);
#629 = CARTESIAN_POINT('',(118.5972229363,35.1,64.));
#630 = LINE('',#631,#632);
#631 = CARTESIAN_POINT('',(118.5972229363,35.1,65.));
#632 = VECTOR('',#633,1.);
#633 = DIRECTION('',(0.,0.,1.));
#634 = ORIENTED_EDGE('',*,*,#635,.F.);
#635 = EDGE_CURVE('',#636,#628,#638,.T.);
#636 = VERTEX_POINT('',#637);
#637 = CARTESIAN_POINT('',(122.6611572161,35.1,64.));
#638 = LINE('',#639,#640);
#639 = CARTESIAN_POINT('',(123.88321125,35.1,64.));
#640 = VECTOR('',#641,1.);
#641 = DIRECTION('',(-1.,0.,0.));
#642 = ORIENTED_EDGE('',*,*,#643,.T.);
#643 = EDGE_CURVE('',#636,#644,#646,.T.);
#644 = VERTEX_POINT('',#645);
#645 = CARTESIAN_POINT('',(122.66115724327,35.1,52.176387526529));
#646 = LINE('',#647,#648);
#647 = CARTESIAN_POINT('',(122.6611572161,35.1,41.));
#648 = VECTOR('',#649,1.);
#649 = DIRECTION('',(-0.,-0.,-1.));
#650 = ORIENTED_EDGE('',*,*,#651,.T.);
#651 = EDGE_CURVE('',#644,#652,#654,.T.);
#652 = VERTEX_POINT('',#653);
#653 = CARTESIAN_POINT('',(125.33884277135,35.1,52.176387532637));
#654 = CIRCLE('',#655,1.5);
#655 = AXIS2_PLACEMENT_3D('',#656,#657,#658);
#656 = CARTESIAN_POINT('',(124.,35.1,51.5));
#657 = DIRECTION('',(0.,1.,-2.2E-16));
#658 = DIRECTION('',(1.,0.,0.));
#659 = ORIENTED_EDGE('',*,*,#660,.F.);
#660 = EDGE_CURVE('',#661,#652,#663,.T.);
#661 = VERTEX_POINT('',#662);
#662 = CARTESIAN_POINT('',(125.3388427839,35.1,64.));
#663 = LINE('',#664,#665);
#664 = CARTESIAN_POINT('',(125.3388427839,35.1,41.));
#665 = VECTOR('',#666,1.);
#666 = DIRECTION('',(-0.,-0.,-1.));
#667 = ORIENTED_EDGE('',*,*,#668,.F.);
#668 = EDGE_CURVE('',#669,#661,#671,.T.);
#669 = VERTEX_POINT('',#670);
#670 = CARTESIAN_POINT('',(129.40277706369,35.1,64.));
#671 = LINE('',#672,#673);
#672 = CARTESIAN_POINT('',(123.88321125,35.1,64.));
#673 = VECTOR('',#674,1.);
#674 = DIRECTION('',(-1.,0.,0.));
#675 = ORIENTED_EDGE('',*,*,#676,.T.);
#676 = EDGE_CURVE('',#669,#677,#679,.T.);
#677 = VERTEX_POINT('',#678);
#678 = CARTESIAN_POINT('',(129.40277706369,35.1,65.));
#679 = LINE('',#680,#681);
#680 = CARTESIAN_POINT('',(129.40277706369,35.1,65.));
#681 = VECTOR('',#682,1.);
#682 = DIRECTION('',(0.,0.,1.));
#683 = ORIENTED_EDGE('',*,*,#684,.F.);
#684 = EDGE_CURVE('',#685,#677,#687,.T.);
#685 = VERTEX_POINT('',#686);
#686 = CARTESIAN_POINT('',(130.11882341631,35.1,65.));
#687 = LINE('',#688,#689);
#688 = CARTESIAN_POINT('',(123.88321125,35.1,65.));
#689 = VECTOR('',#690,1.);
#690 = DIRECTION('',(-1.,0.,0.));
#691 = ORIENTED_EDGE('',*,*,#692,.F.);
#692 = EDGE_CURVE('',#521,#685,#693,.T.);
#693 = LINE('',#694,#695);
#694 = CARTESIAN_POINT('',(130.11882341631,35.1,65.));
#695 = VECTOR('',#696,1.);
#696 = DIRECTION('',(-0.,-0.,-1.));
#697 = ORIENTED_EDGE('',*,*,#520,.F.);
#698 = ORIENTED_EDGE('',*,*,#492,.T.);
#699 = ORIENTED_EDGE('',*,*,#546,.F.);
#700 = ORIENTED_EDGE('',*,*,#701,.F.);
#701 = EDGE_CURVE('',#620,#538,#702,.T.);
#702 = LINE('',#703,#704);
#703 = CARTESIAN_POINT('',(117.88117658368,35.1,73.));
#704 = VECTOR('',#705,1.);
#705 = DIRECTION('',(0.,0.,1.));
#706 = PLANE('',#707);
#707 = AXIS2_PLACEMENT_3D('',#708,#709,#710);
#708 = CARTESIAN_POINT('',(123.9999999999,35.1,64.689025873789));
#709 = DIRECTION('',(5.1E-16,-1.,0.));
#710 = DIRECTION('',(-1.,-5.1E-16,0.));
#711 = ADVANCED_FACE('',(#712),#734,.T.);
#712 = FACE_BOUND('',#713,.F.);
#713 = EDGE_LOOP('',(#714,#715,#724,#731,#732,#733));
#714 = ORIENTED_EDGE('',*,*,#701,.F.);
#715 = ORIENTED_EDGE('',*,*,#716,.F.);
#716 = EDGE_CURVE('',#717,#620,#719,.T.);
#717 = VERTEX_POINT('',#718);
#718 = CARTESIAN_POINT('',(132.5,41.,65.));
#719 = CIRCLE('',#720,8.5);
#720 = AXIS2_PLACEMENT_3D('',#721,#722,#723);
#721 = CARTESIAN_POINT('',(124.,41.,65.));
#722 = DIRECTION('',(0.,0.,1.));
#723 = DIRECTION('',(1.,0.,0.));
#724 = ORIENTED_EDGE('',*,*,#725,.F.);
#725 = EDGE_CURVE('',#685,#717,#726,.T.);
#726 = CIRCLE('',#727,8.5);
#727 = AXIS2_PLACEMENT_3D('',#728,#729,#730);
#728 = CARTESIAN_POINT('',(124.,41.,65.));
#729 = DIRECTION('',(0.,0.,1.));
#730 = DIRECTION('',(1.,0.,0.));
#731 = ORIENTED_EDGE('',*,*,#692,.F.);
#732 = ORIENTED_EDGE('',*,*,#528,.T.);
#733 = ORIENTED_EDGE('',*,*,#537,.T.);
#734 = CYLINDRICAL_SURFACE('',#735,8.5);
#735 = AXIS2_PLACEMENT_3D('',#736,#737,#738);
#736 = CARTESIAN_POINT('',(124.,41.,65.));
#737 = DIRECTION('',(-0.,-0.,-1.));
#738 = DIRECTION('',(1.,0.,0.));
#739 = ADVANCED_FACE('',(#740),#762,.F.);
#740 = FACE_BOUND('',#741,.F.);
#741 = EDGE_LOOP('',(#742,#743,#744,#745,#754,#761));
#742 = ORIENTED_EDGE('',*,*,#725,.T.);
#743 = ORIENTED_EDGE('',*,*,#716,.T.);
#744 = ORIENTED_EDGE('',*,*,#617,.F.);
#745 = ORIENTED_EDGE('',*,*,#746,.F.);
#746 = EDGE_CURVE('',#747,#618,#749,.T.);
#747 = VERTEX_POINT('',#748);
#748 = CARTESIAN_POINT('',(132.,41.,65.));
#749 = CIRCLE('',#750,8.);
#750 = AXIS2_PLACEMENT_3D('',#751,#752,#753);
#751 = CARTESIAN_POINT('',(124.,41.,65.));
#752 = DIRECTION('',(0.,0.,1.));
#753 = DIRECTION('',(1.,0.,0.));
#754 = ORIENTED_EDGE('',*,*,#755,.F.);
#755 = EDGE_CURVE('',#677,#747,#756,.T.);
#756 = CIRCLE('',#757,8.);
#757 = AXIS2_PLACEMENT_3D('',#758,#759,#760);
#758 = CARTESIAN_POINT('',(124.,41.,65.));
#759 = DIRECTION('',(0.,0.,1.));
#760 = DIRECTION('',(1.,0.,0.));
#761 = ORIENTED_EDGE('',*,*,#684,.F.);
#762 = PLANE('',#763);
#763 = AXIS2_PLACEMENT_3D('',#764,#765,#766);
#764 = CARTESIAN_POINT('',(124.,41.,65.));
#765 = DIRECTION('',(0.,0.,1.));
#766 = DIRECTION('',(1.,0.,0.));
#767 = ADVANCED_FACE('',(#768),#790,.T.);
#768 = FACE_BOUND('',#769,.T.);
#769 = EDGE_LOOP('',(#770,#779,#780,#781,#782,#783));
#770 = ORIENTED_EDGE('',*,*,#771,.T.);
#771 = EDGE_CURVE('',#772,#628,#774,.T.);
#772 = VERTEX_POINT('',#773);
#773 = CARTESIAN_POINT('',(132.,41.,64.));
#774 = CIRCLE('',#775,8.);
#775 = AXIS2_PLACEMENT_3D('',#776,#777,#778);
#776 = CARTESIAN_POINT('',(124.,41.,64.));
#777 = DIRECTION('',(0.,0.,1.));
#778 = DIRECTION('',(1.,0.,0.));
#779 = ORIENTED_EDGE('',*,*,#627,.T.);
#780 = ORIENTED_EDGE('',*,*,#746,.F.);
#781 = ORIENTED_EDGE('',*,*,#755,.F.);
#782 = ORIENTED_EDGE('',*,*,#676,.F.);
#783 = ORIENTED_EDGE('',*,*,#784,.T.);
#784 = EDGE_CURVE('',#669,#772,#785,.T.);
#785 = CIRCLE('',#786,8.);
#786 = AXIS2_PLACEMENT_3D('',#787,#788,#789);
#787 = CARTESIAN_POINT('',(124.,41.,64.));
#788 = DIRECTION('',(0.,0.,1.));
#789 = DIRECTION('',(1.,0.,0.));
#790 = CYLINDRICAL_SURFACE('',#791,8.);
#791 = AXIS2_PLACEMENT_3D('',#792,#793,#794);
#792 = CARTESIAN_POINT('',(124.,41.,65.));
#793 = DIRECTION('',(0.,0.,1.));
#794 = DIRECTION('',(1.,0.,0.));
#795 = ADVANCED_FACE('',(#796),#818,.F.);
#796 = FACE_BOUND('',#797,.F.);
#797 = EDGE_LOOP('',(#798,#799,#800,#801,#810,#817));
#798 = ORIENTED_EDGE('',*,*,#784,.T.);
#799 = ORIENTED_EDGE('',*,*,#771,.T.);
#800 = ORIENTED_EDGE('',*,*,#635,.F.);
#801 = ORIENTED_EDGE('',*,*,#802,.T.);
#802 = EDGE_CURVE('',#636,#803,#805,.T.);
#803 = VERTEX_POINT('',#804);
#804 = CARTESIAN_POINT('',(130.05,41.,64.));
#805 = CIRCLE('',#806,6.05);
#806 = AXIS2_PLACEMENT_3D('',#807,#808,#809);
#807 = CARTESIAN_POINT('',(124.,41.,64.));
#808 = DIRECTION('',(0.,0.,-1.));
#809 = DIRECTION('',(1.,0.,0.));
#810 = ORIENTED_EDGE('',*,*,#811,.T.);
#811 = EDGE_CURVE('',#803,#661,#812,.T.);
#812 = CIRCLE('',#813,6.05);
#813 = AXIS2_PLACEMENT_3D('',#814,#815,#816);
#814 = CARTESIAN_POINT('',(124.,41.,64.));
#815 = DIRECTION('',(0.,0.,-1.));
#816 = DIRECTION('',(1.,0.,0.));
#817 = ORIENTED_EDGE('',*,*,#668,.F.);
#818 = PLANE('',#819);
#819 = AXIS2_PLACEMENT_3D('',#820,#821,#822);
#820 = CARTESIAN_POINT('',(124.,41.,64.));
#821 = DIRECTION('',(0.,0.,1.));
#822 = DIRECTION('',(1.,0.,0.));
#823 = ADVANCED_FACE('',(#824,#1030),#1088,.T.);
#824 = FACE_BOUND('',#825,.F.);
#825 = EDGE_LOOP('',(#826,#827,#828,#884,#892,#901,#910,#918,#974,#1028,
    #1029));
#826 = ORIENTED_EDGE('',*,*,#802,.F.);
#827 = ORIENTED_EDGE('',*,*,#643,.T.);
#828 = ORIENTED_EDGE('',*,*,#829,.T.);
#829 = EDGE_CURVE('',#644,#830,#832,.T.);
#830 = VERTEX_POINT('',#831);
#831 = CARTESIAN_POINT('',(122.66115723287,35.1,50.823612496423));
#832 = B_SPLINE_CURVE_WITH_KNOTS('',8,(#833,#834,#835,#836,#837,#838,
    #839,#840,#841,#842,#843,#844,#845,#846,#847,#848,#849,#850,#851,
    #852,#853,#854,#855,#856,#857,#858,#859,#860,#861,#862,#863,#864,
    #865,#866,#867,#868,#869,#870,#871,#872,#873,#874,#875,#876,#877,
    #878,#879,#880,#881,#882,#883),.UNSPECIFIED.,.T.,.F.,(9,7,7,7,7,7,7,
    9),(0.,0.152285892295,0.287040863224,0.424067144652,0.576938700136,
    0.705314670493,0.829255103086,1.),.UNSPECIFIED.);
#833 = CARTESIAN_POINT('',(125.5,35.138899420757,51.5));
#834 = CARTESIAN_POINT('',(125.5,35.138899420757,51.658076109793));
#835 = CARTESIAN_POINT('',(125.480961989,35.134027183299,51.815968098085
    ));
#836 = CARTESIAN_POINT('',(125.44296048407,35.124301447844,
    51.972177166076));
#837 = CARTESIAN_POINT('',(125.385739039,35.110026298909,52.125048199714
    ));
#838 = CARTESIAN_POINT('',(125.30886357164,35.091820919639,
    52.272612741327));
#839 = CARTESIAN_POINT('',(125.21184274762,35.070701668522,
    52.412445675143));
#840 = CARTESIAN_POINT('',(125.09428177757,35.048141423374,52.5414857252
    ));
#841 = CARTESIAN_POINT('',(124.8338933262,35.006466152875,
    52.756897786072));
#842 = CARTESIAN_POINT('',(124.69147549373,34.986604227342,
    52.849827761008));
#843 = CARTESIAN_POINT('',(124.531098818,34.968454284479,52.927054821049
    ));
#844 = CARTESIAN_POINT('',(124.35668193537,34.954351806624,
    52.983098684316));
#845 = CARTESIAN_POINT('',(124.17334996964,34.946290918544,
    53.014412823854));
#846 = CARTESIAN_POINT('',(123.98680546941,34.945161180303,
    53.019317177276));
#847 = CARTESIAN_POINT('',(123.80288405223,34.950643764728,
    52.998043033807));
#848 = CARTESIAN_POINT('',(123.44808115331,34.972562136578,
    52.906945132832));
#849 = CARTESIAN_POINT('',(123.28281430364,34.988851408578,
    52.837681639478));
#850 = CARTESIAN_POINT('',(123.13316950705,35.008678121705,
    52.749350771963));
#851 = CARTESIAN_POINT('',(123.00029926678,35.030198834766,
    52.645647664648));
#852 = CARTESIAN_POINT('',(122.88480208028,35.051721846197,
    52.529871145423));
#853 = CARTESIAN_POINT('',(122.78686868016,35.071855881887,
    52.405012086157));
#854 = CARTESIAN_POINT('',(122.70634233679,35.089567961465,
    52.273789510742));
#855 = CARTESIAN_POINT('',(122.571823984,35.120534738422,51.987923459783
    ));
#856 = CARTESIAN_POINT('',(122.5206401596,35.133344487579,
    51.829484582125));
#857 = CARTESIAN_POINT('',(122.48973943337,35.141522941504,
    51.665993737744));
#858 = CARTESIAN_POINT('',(122.47940903574,35.144334626358,
    51.500000000001));
#859 = CARTESIAN_POINT('',(122.48973943337,35.141522941504,
    51.334006262258));
#860 = CARTESIAN_POINT('',(122.5206401596,35.133344487579,
    51.170515417874));
#861 = CARTESIAN_POINT('',(122.571823984,35.120534738422,51.012076540214
    ));
#862 = CARTESIAN_POINT('',(122.70232842069,35.090491984412,
    50.734740495181));
#863 = CARTESIAN_POINT('',(122.77664821024,35.07410766175,
    50.611828364817));
#864 = CARTESIAN_POINT('',(122.86606197625,35.055593139806,
    50.494453847585));
#865 = CARTESIAN_POINT('',(122.97074478097,35.035759159582,
    50.384701527502));
#866 = CARTESIAN_POINT('',(123.09065732837,35.015681456294,
    50.284906165476));
#867 = CARTESIAN_POINT('',(123.22548615078,34.996678080512,
    50.197689875353));
#868 = CARTESIAN_POINT('',(123.37452778525,34.980227071629,
    50.126034905661));
#869 = CARTESIAN_POINT('',(123.69282578565,34.955768529658,
    50.022613616059));
#870 = CARTESIAN_POINT('',(123.85918192867,34.947645168104,
    49.990212580142));
#871 = CARTESIAN_POINT('',(124.0311447239,34.944751363002,
    49.979405886048));
#872 = CARTESIAN_POINT('',(124.20369958833,34.947854395345,
    49.991498707154));
#873 = CARTESIAN_POINT('',(124.37167923144,34.956725542335,
    50.026036647391));
#874 = CARTESIAN_POINT('',(124.53021983616,34.970169974545,
    50.080836909253));
#875 = CARTESIAN_POINT('',(124.67521093949,34.98639818811,50.15194096751
    ));
#876 = CARTESIAN_POINT('',(124.98080681706,35.027359557023,
    50.345878008664));
#877 = CARTESIAN_POINT('',(125.13159600088,35.05365403296,
    50.481257761294));
#878 = CARTESIAN_POINT('',(125.25586452236,35.07941231319,
    50.632966487302));
#879 = CARTESIAN_POINT('',(125.35418851269,35.102179982396,
    50.796211648454));
#880 = CARTESIAN_POINT('',(125.42727076533,35.120286874008,
    50.96728419304));
#881 = CARTESIAN_POINT('',(125.47574325373,35.132691386627,
    51.143227809247));
#882 = CARTESIAN_POINT('',(125.5,35.138899420757,51.321570882454));
#883 = CARTESIAN_POINT('',(125.5,35.138899420757,51.5));
#884 = ORIENTED_EDGE('',*,*,#885,.T.);
#885 = EDGE_CURVE('',#830,#886,#888,.T.);
#886 = VERTEX_POINT('',#887);
#887 = CARTESIAN_POINT('',(122.6611572161,35.1,42.));
#888 = LINE('',#889,#890);
#889 = CARTESIAN_POINT('',(122.6611572161,35.1,41.));
#890 = VECTOR('',#891,1.);
#891 = DIRECTION('',(-0.,-0.,-1.));
#892 = ORIENTED_EDGE('',*,*,#893,.F.);
#893 = EDGE_CURVE('',#894,#886,#896,.T.);
#894 = VERTEX_POINT('',#895);
#895 = CARTESIAN_POINT('',(130.05,41.,42.));
#896 = CIRCLE('',#897,6.05);
#897 = AXIS2_PLACEMENT_3D('',#898,#899,#900);
#898 = CARTESIAN_POINT('',(124.,41.,42.));
#899 = DIRECTION('',(0.,0.,1.));
#900 = DIRECTION('',(1.,0.,0.));
#901 = ORIENTED_EDGE('',*,*,#902,.F.);
#902 = EDGE_CURVE('',#903,#894,#905,.T.);
#903 = VERTEX_POINT('',#904);
#904 = CARTESIAN_POINT('',(125.3388427839,35.1,42.));
#905 = CIRCLE('',#906,6.05);
#906 = AXIS2_PLACEMENT_3D('',#907,#908,#909);
#907 = CARTESIAN_POINT('',(124.,41.,42.));
#908 = DIRECTION('',(0.,0.,1.));
#909 = DIRECTION('',(1.,0.,0.));
#910 = ORIENTED_EDGE('',*,*,#911,.F.);
#911 = EDGE_CURVE('',#912,#903,#914,.T.);
#912 = VERTEX_POINT('',#913);
#913 = CARTESIAN_POINT('',(125.33884278896,35.1,50.823612550842));
#914 = LINE('',#915,#916);
#915 = CARTESIAN_POINT('',(125.3388427839,35.1,41.));
#916 = VECTOR('',#917,1.);
#917 = DIRECTION('',(-0.,-0.,-1.));
#918 = ORIENTED_EDGE('',*,*,#919,.T.);
#919 = EDGE_CURVE('',#912,#920,#922,.T.);
#920 = VERTEX_POINT('',#921);
#921 = CARTESIAN_POINT('',(125.5,35.138899420757,51.5));
#922 = B_SPLINE_CURVE_WITH_KNOTS('',8,(#923,#924,#925,#926,#927,#928,
    #929,#930,#931,#932,#933,#934,#935,#936,#937,#938,#939,#940,#941,
    #942,#943,#944,#945,#946,#947,#948,#949,#950,#951,#952,#953,#954,
    #955,#956,#957,#958,#959,#960,#961,#962,#963,#964,#965,#966,#967,
    #968,#969,#970,#971,#972,#973),.UNSPECIFIED.,.T.,.F.,(9,7,7,7,7,7,7,
    9),(0.,0.152285892295,0.287040863224,0.424067144652,0.576938700136,
    0.705314670493,0.829255103086,1.),.UNSPECIFIED.);
#923 = CARTESIAN_POINT('',(125.5,35.138899420757,51.5));
#924 = CARTESIAN_POINT('',(125.5,35.138899420757,51.658076109793));
#925 = CARTESIAN_POINT('',(125.480961989,35.134027183299,51.815968098085
    ));
#926 = CARTESIAN_POINT('',(125.44296048407,35.124301447844,
    51.972177166076));
#927 = CARTESIAN_POINT('',(125.385739039,35.110026298909,52.125048199714
    ));
#928 = CARTESIAN_POINT('',(125.30886357164,35.091820919639,
    52.272612741327));
#929 = CARTESIAN_POINT('',(125.21184274762,35.070701668522,
    52.412445675143));
#930 = CARTESIAN_POINT('',(125.09428177757,35.048141423374,52.5414857252
    ));
#931 = CARTESIAN_POINT('',(124.8338933262,35.006466152875,
    52.756897786072));
#932 = CARTESIAN_POINT('',(124.69147549373,34.986604227342,
    52.849827761008));
#933 = CARTESIAN_POINT('',(124.531098818,34.968454284479,52.927054821049
    ));
#934 = CARTESIAN_POINT('',(124.35668193537,34.954351806624,
    52.983098684316));
#935 = CARTESIAN_POINT('',(124.17334996964,34.946290918544,
    53.014412823854));
#936 = CARTESIAN_POINT('',(123.98680546941,34.945161180303,
    53.019317177276));
#937 = CARTESIAN_POINT('',(123.80288405223,34.950643764728,
    52.998043033807));
#938 = CARTESIAN_POINT('',(123.44808115331,34.972562136578,
    52.906945132832));
#939 = CARTESIAN_POINT('',(123.28281430364,34.988851408578,
    52.837681639478));
#940 = CARTESIAN_POINT('',(123.13316950705,35.008678121705,
    52.749350771963));
#941 = CARTESIAN_POINT('',(123.00029926678,35.030198834766,
    52.645647664648));
#942 = CARTESIAN_POINT('',(122.88480208028,35.051721846197,
    52.529871145423));
#943 = CARTESIAN_POINT('',(122.78686868016,35.071855881887,
    52.405012086157));
#944 = CARTESIAN_POINT('',(122.70634233679,35.089567961465,
    52.273789510742));
#945 = CARTESIAN_POINT('',(122.571823984,35.120534738422,51.987923459783
    ));
#946 = CARTESIAN_POINT('',(122.5206401596,35.133344487579,
    51.829484582125));
#947 = CARTESIAN_POINT('',(122.48973943337,35.141522941504,
    51.665993737744));
#948 = CARTESIAN_POINT('',(122.47940903574,35.144334626358,
    51.500000000001));
#949 = CARTESIAN_POINT('',(122.48973943337,35.141522941504,
    51.334006262258));
#950 = CARTESIAN_POINT('',(122.5206401596,35.133344487579,
    51.170515417874));
#951 = CARTESIAN_POINT('',(122.571823984,35.120534738422,51.012076540214
    ));
#952 = CARTESIAN_POINT('',(122.70232842069,35.090491984412,
    50.734740495181));
#953 = CARTESIAN_POINT('',(122.77664821024,35.07410766175,
    50.611828364817));
#954 = CARTESIAN_POINT('',(122.86606197625,35.055593139806,
    50.494453847585));
#955 = CARTESIAN_POINT('',(122.97074478097,35.035759159582,
    50.384701527502));
#956 = CARTESIAN_POINT('',(123.09065732837,35.015681456294,
    50.284906165476));
#957 = CARTESIAN_POINT('',(123.22548615078,34.996678080512,
    50.197689875353));
#958 = CARTESIAN_POINT('',(123.37452778525,34.980227071629,
    50.126034905661));
#959 = CARTESIAN_POINT('',(123.69282578565,34.955768529658,
    50.022613616059));
#960 = CARTESIAN_POINT('',(123.85918192867,34.947645168104,
    49.990212580142));
#961 = CARTESIAN_POINT('',(124.0311447239,34.944751363002,
    49.979405886048));
#962 = CARTESIAN_POINT('',(124.20369958833,34.947854395345,
    49.991498707154));
#963 = CARTESIAN_POINT('',(124.37167923144,34.956725542335,
    50.026036647391));
#964 = CARTESIAN_POINT('',(124.53021983616,34.970169974545,
    50.080836909253));
#965 = CARTESIAN_POINT('',(124.67521093949,34.98639818811,50.15194096751
    ));
#966 = CARTESIAN_POINT('',(124.98080681706,35.027359557023,
    50.345878008664));
#967 = CARTESIAN_POINT('',(125.13159600088,35.05365403296,
    50.481257761294));
#968 = CARTESIAN_POINT('',(125.25586452236,35.07941231319,
    50.632966487302));
#969 = CARTESIAN_POINT('',(125.35418851269,35.102179982396,
    50.796211648454));
#970 = CARTESIAN_POINT('',(125.42727076533,35.120286874008,
    50.96728419304));
#971 = CARTESIAN_POINT('',(125.47574325373,35.132691386627,
    51.143227809247));
#972 = CARTESIAN_POINT('',(125.5,35.138899420757,51.321570882454));
#973 = CARTESIAN_POINT('',(125.5,35.138899420757,51.5));
#974 = ORIENTED_EDGE('',*,*,#975,.T.);
#975 = EDGE_CURVE('',#920,#652,#976,.T.);
#976 = B_SPLINE_CURVE_WITH_KNOTS('',8,(#977,#978,#979,#980,#981,#982,
    #983,#984,#985,#986,#987,#988,#989,#990,#991,#992,#993,#994,#995,
    #996,#997,#998,#999,#1000,#1001,#1002,#1003,#1004,#1005,#1006,#1007,
    #1008,#1009,#1010,#1011,#1012,#1013,#1014,#1015,#1016,#1017,#1018,
    #1019,#1020,#1021,#1022,#1023,#1024,#1025,#1026,#1027),
  .UNSPECIFIED.,.T.,.F.,(9,7,7,7,7,7,7,9),(0.,0.152285892295,
    0.287040863224,0.424067144652,0.576938700136,0.705314670493,
    0.829255103086,1.),.UNSPECIFIED.);
#977 = CARTESIAN_POINT('',(125.5,35.138899420757,51.5));
#978 = CARTESIAN_POINT('',(125.5,35.138899420757,51.658076109793));
#979 = CARTESIAN_POINT('',(125.480961989,35.134027183299,51.815968098085
    ));
#980 = CARTESIAN_POINT('',(125.44296048407,35.124301447844,
    51.972177166076));
#981 = CARTESIAN_POINT('',(125.385739039,35.110026298909,52.125048199714
    ));
#982 = CARTESIAN_POINT('',(125.30886357164,35.091820919639,
    52.272612741327));
#983 = CARTESIAN_POINT('',(125.21184274762,35.070701668522,
    52.412445675143));
#984 = CARTESIAN_POINT('',(125.09428177757,35.048141423374,52.5414857252
    ));
#985 = CARTESIAN_POINT('',(124.8338933262,35.006466152875,
    52.756897786072));
#986 = CARTESIAN_POINT('',(124.69147549373,34.986604227342,
    52.849827761008));
#987 = CARTESIAN_POINT('',(124.531098818,34.968454284479,52.927054821049
    ));
#988 = CARTESIAN_POINT('',(124.35668193537,34.954351806624,
    52.983098684316));
#989 = CARTESIAN_POINT('',(124.17334996964,34.946290918544,
    53.014412823854));
#990 = CARTESIAN_POINT('',(123.98680546941,34.945161180303,
    53.019317177276));
#991 = CARTESIAN_POINT('',(123.80288405223,34.950643764728,
    52.998043033807));
#992 = CARTESIAN_POINT('',(123.44808115331,34.972562136578,
    52.906945132832));
#993 = CARTESIAN_POINT('',(123.28281430364,34.988851408578,
    52.837681639478));
#994 = CARTESIAN_POINT('',(123.13316950705,35.008678121705,
    52.749350771963));
#995 = CARTESIAN_POINT('',(123.00029926678,35.030198834766,
    52.645647664648));
#996 = CARTESIAN_POINT('',(122.88480208028,35.051721846197,
    52.529871145423));
#997 = CARTESIAN_POINT('',(122.78686868016,35.071855881887,
    52.405012086157));
#998 = CARTESIAN_POINT('',(122.70634233679,35.089567961465,
    52.273789510742));
#999 = CARTESIAN_POINT('',(122.571823984,35.120534738422,51.987923459783
    ));
#1000 = CARTESIAN_POINT('',(122.5206401596,35.133344487579,
    51.829484582125));
#1001 = CARTESIAN_POINT('',(122.48973943337,35.141522941504,
    51.665993737744));
#1002 = CARTESIAN_POINT('',(122.47940903574,35.144334626358,
    51.500000000001));
#1003 = CARTESIAN_POINT('',(122.48973943337,35.141522941504,
    51.334006262258));
#1004 = CARTESIAN_POINT('',(122.5206401596,35.133344487579,
    51.170515417874));
#1005 = CARTESIAN_POINT('',(122.571823984,35.120534738422,
    51.012076540214));
#1006 = CARTESIAN_POINT('',(122.70232842069,35.090491984412,
    50.734740495181));
#1007 = CARTESIAN_POINT('',(122.77664821024,35.07410766175,
    50.611828364817));
#1008 = CARTESIAN_POINT('',(122.86606197625,35.055593139806,
    50.494453847585));
#1009 = CARTESIAN_POINT('',(122.97074478097,35.035759159582,
    50.384701527502));
#1010 = CARTESIAN_POINT('',(123.09065732837,35.015681456294,
    50.284906165476));
#1011 = CARTESIAN_POINT('',(123.22548615078,34.996678080512,
    50.197689875353));
#1012 = CARTESIAN_POINT('',(123.37452778525,34.980227071629,
    50.126034905661));
#1013 = CARTESIAN_POINT('',(123.69282578565,34.955768529658,
    50.022613616059));
#1014 = CARTESIAN_POINT('',(123.85918192867,34.947645168104,
    49.990212580142));
#1015 = CARTESIAN_POINT('',(124.0311447239,34.944751363002,
    49.979405886048));
#1016 = CARTESIAN_POINT('',(124.20369958833,34.947854395345,
    49.991498707154));
#1017 = CARTESIAN_POINT('',(124.37167923144,34.956725542335,
    50.026036647391));
#1018 = CARTESIAN_POINT('',(124.53021983616,34.970169974545,
    50.080836909253));
#1019 = CARTESIAN_POINT('',(124.67521093949,34.98639818811,
    50.15194096751));
#1020 = CARTESIAN_POINT('',(124.98080681706,35.027359557023,
    50.345878008664));
#1021 = CARTESIAN_POINT('',(125.13159600088,35.05365403296,
    50.481257761294));
#1022 = CARTESIAN_POINT('',(125.25586452236,35.07941231319,
    50.632966487302));
#1023 = CARTESIAN_POINT('',(125.35418851269,35.102179982396,
    50.796211648454));
#1024 = CARTESIAN_POINT('',(125.42727076533,35.120286874008,
    50.96728419304));
#1025 = CARTESIAN_POINT('',(125.47574325373,35.132691386627,
    51.143227809247));
#1026 = CARTESIAN_POINT('',(125.5,35.138899420757,51.321570882454));
#1027 = CARTESIAN_POINT('',(125.5,35.138899420757,51.5));
#1028 = ORIENTED_EDGE('',*,*,#660,.F.);
#1029 = ORIENTED_EDGE('',*,*,#811,.F.);
#1030 = FACE_BOUND('',#1031,.F.);
#1031 = EDGE_LOOP('',(#1032));
#1032 = ORIENTED_EDGE('',*,*,#1033,.F.);
#1033 = EDGE_CURVE('',#1034,#1034,#1036,.T.);
#1034 = VERTEX_POINT('',#1035);
#1035 = CARTESIAN_POINT('',(125.5,46.861100579243,51.5));
#1036 = B_SPLINE_CURVE_WITH_KNOTS('',8,(#1037,#1038,#1039,#1040,#1041,
    #1042,#1043,#1044,#1045,#1046,#1047,#1048,#1049,#1050,#1051,#1052,
    #1053,#1054,#1055,#1056,#1057,#1058,#1059,#1060,#1061,#1062,#1063,
    #1064,#1065,#1066,#1067,#1068,#1069,#1070,#1071,#1072,#1073,#1074,
    #1075,#1076,#1077,#1078,#1079,#1080,#1081,#1082,#1083,#1084,#1085,
    #1086,#1087),.UNSPECIFIED.,.T.,.F.,(9,7,7,7,7,7,7,9),(0.,
    0.152285892296,0.287040863226,0.424067144655,0.576938700136,
    0.705314670493,0.829255103086,1.),.UNSPECIFIED.);
#1037 = CARTESIAN_POINT('',(125.5,46.861100579243,51.5));
#1038 = CARTESIAN_POINT('',(125.5,46.861100579243,51.658076109793));
#1039 = CARTESIAN_POINT('',(125.480961989,46.865972816701,
    51.815968098085));
#1040 = CARTESIAN_POINT('',(125.44296048407,46.875698552156,
    51.972177166076));
#1041 = CARTESIAN_POINT('',(125.385739039,46.889973701091,
    52.125048199714));
#1042 = CARTESIAN_POINT('',(125.30886357164,46.908179080361,
    52.272612741327));
#1043 = CARTESIAN_POINT('',(125.21184274762,46.929298331478,
    52.412445675143));
#1044 = CARTESIAN_POINT('',(125.09428177757,46.951858576626,
    52.5414857252));
#1045 = CARTESIAN_POINT('',(124.8338933262,46.993533847125,
    52.756897786072));
#1046 = CARTESIAN_POINT('',(124.69147549373,47.013395772659,
    52.849827761008));
#1047 = CARTESIAN_POINT('',(124.53109881801,47.031545715521,
    52.92705482105));
#1048 = CARTESIAN_POINT('',(124.35668193537,47.045648193376,
    52.983098684314));
#1049 = CARTESIAN_POINT('',(124.17334996965,47.053709081456,
    53.014412823855));
#1050 = CARTESIAN_POINT('',(123.9868054694,47.054838819697,
    53.019317177276));
#1051 = CARTESIAN_POINT('',(123.80288405223,47.049356235272,
    52.998043033807));
#1052 = CARTESIAN_POINT('',(123.44808115331,47.027437863422,
    52.906945132832));
#1053 = CARTESIAN_POINT('',(123.28281430364,47.011148591422,
    52.837681639478));
#1054 = CARTESIAN_POINT('',(123.13316950706,46.991321878295,
    52.749350771963));
#1055 = CARTESIAN_POINT('',(123.00029926678,46.969801165234,
    52.645647664648));
#1056 = CARTESIAN_POINT('',(122.88480208028,46.948278153803,
    52.529871145423));
#1057 = CARTESIAN_POINT('',(122.78686868016,46.928144118113,
    52.405012086157));
#1058 = CARTESIAN_POINT('',(122.70634233679,46.910432038535,
    52.273789510742));
#1059 = CARTESIAN_POINT('',(122.571823984,46.879465261578,
    51.987923459786));
#1060 = CARTESIAN_POINT('',(122.5206401596,46.866655512421,
    51.829484582129));
#1061 = CARTESIAN_POINT('',(122.48973943337,46.858477058496,
    51.665993737746));
#1062 = CARTESIAN_POINT('',(122.47940903574,46.855665373642,
    51.500000000001));
#1063 = CARTESIAN_POINT('',(122.48973943337,46.858477058496,
    51.334006262255));
#1064 = CARTESIAN_POINT('',(122.5206401596,46.866655512421,
    51.17051541787));
#1065 = CARTESIAN_POINT('',(122.571823984,46.879465261578,
    51.012076540212));
#1066 = CARTESIAN_POINT('',(122.70232842069,46.909508015588,
    50.734740495181));
#1067 = CARTESIAN_POINT('',(122.77664821024,46.92589233825,
    50.611828364817));
#1068 = CARTESIAN_POINT('',(122.86606197625,46.944406860194,
    50.494453847585));
#1069 = CARTESIAN_POINT('',(122.97074478097,46.964240840418,
    50.384701527502));
#1070 = CARTESIAN_POINT('',(123.09065732837,46.984318543706,
    50.284906165476));
#1071 = CARTESIAN_POINT('',(123.22548615078,47.003321919488,
    50.197689875354));
#1072 = CARTESIAN_POINT('',(123.37452778525,47.019772928371,
    50.126034905661));
#1073 = CARTESIAN_POINT('',(123.69282578565,47.044231470342,
    50.022613616059));
#1074 = CARTESIAN_POINT('',(123.85918192867,47.052354831896,
    49.990212580142));
#1075 = CARTESIAN_POINT('',(124.0311447239,47.055248636998,
    49.979405886048));
#1076 = CARTESIAN_POINT('',(124.20369958833,47.052145604655,
    49.991498707154));
#1077 = CARTESIAN_POINT('',(124.37167923144,47.043274457665,
    50.026036647391));
#1078 = CARTESIAN_POINT('',(124.53021983616,47.029830025455,
    50.080836909253));
#1079 = CARTESIAN_POINT('',(124.67521093949,47.01360181189,
    50.15194096751));
#1080 = CARTESIAN_POINT('',(124.98080681706,46.972640442977,
    50.345878008664));
#1081 = CARTESIAN_POINT('',(125.13159600088,46.94634596704,
    50.481257761294));
#1082 = CARTESIAN_POINT('',(125.25586452236,46.920587686809,
    50.632966487302));
#1083 = CARTESIAN_POINT('',(125.35418851269,46.897820017605,
    50.796211648455));
#1084 = CARTESIAN_POINT('',(125.42727076533,46.879713125991,
    50.96728419304));
#1085 = CARTESIAN_POINT('',(125.47574325373,46.867308613373,
    51.143227809247));
#1086 = CARTESIAN_POINT('',(125.5,46.861100579243,51.321570882454));
#1087 = CARTESIAN_POINT('',(125.5,46.861100579243,51.5));
#1088 = CYLINDRICAL_SURFACE('',#1089,6.05);
#1089 = AXIS2_PLACEMENT_3D('',#1090,#1091,#1092);
#1090 = CARTESIAN_POINT('',(124.,41.,41.));
#1091 = DIRECTION('',(-0.,-0.,-1.));
#1092 = DIRECTION('',(1.,0.,0.));
#1093 = ADVANCED_FACE('',(#1094),#1114,.F.);
#1094 = FACE_BOUND('',#1095,.T.);
#1095 = EDGE_LOOP('',(#1096,#1097,#1102,#1103,#1104,#1105,#1106,#1107));
#1096 = ORIENTED_EDGE('',*,*,#919,.T.);
#1097 = ORIENTED_EDGE('',*,*,#1098,.T.);
#1098 = EDGE_CURVE('',#920,#1034,#1099,.T.);
#1099 = B_SPLINE_CURVE_WITH_KNOTS('',1,(#1100,#1101),.UNSPECIFIED.,.F.,
  .F.,(2,2),(-5.861100579243,5.861100579243),.PIECEWISE_BEZIER_KNOTS.);
#1100 = CARTESIAN_POINT('',(125.5,35.138899420757,51.5));
#1101 = CARTESIAN_POINT('',(125.5,46.861100579243,51.5));
#1102 = ORIENTED_EDGE('',*,*,#1033,.F.);
#1103 = ORIENTED_EDGE('',*,*,#1098,.F.);
#1104 = ORIENTED_EDGE('',*,*,#975,.T.);
#1105 = ORIENTED_EDGE('',*,*,#651,.F.);
#1106 = ORIENTED_EDGE('',*,*,#829,.T.);
#1107 = ORIENTED_EDGE('',*,*,#1108,.F.);
#1108 = EDGE_CURVE('',#912,#830,#1109,.T.);
#1109 = CIRCLE('',#1110,1.5);
#1110 = AXIS2_PLACEMENT_3D('',#1111,#1112,#1113);
#1111 = CARTESIAN_POINT('',(124.,35.1,51.5));
#1112 = DIRECTION('',(0.,1.,-2.2E-16));
#1113 = DIRECTION('',(1.,0.,0.));
#1114 = CYLINDRICAL_SURFACE('',#1115,1.5);
#1115 = AXIS2_PLACEMENT_3D('',#1116,#1117,#1118);
#1116 = CARTESIAN_POINT('',(124.,41.,51.5));
#1117 = DIRECTION('',(0.,1.,-2.2E-16));
#1118 = DIRECTION('',(1.,0.,0.));
#1119 = ADVANCED_FACE('',(#1120),#1131,.F.);
#1120 = FACE_BOUND('',#1121,.F.);
#1121 = EDGE_LOOP('',(#1122,#1123,#1124,#1125));
#1122 = ORIENTED_EDGE('',*,*,#885,.F.);
#1123 = ORIENTED_EDGE('',*,*,#1108,.F.);
#1124 = ORIENTED_EDGE('',*,*,#911,.T.);
#1125 = ORIENTED_EDGE('',*,*,#1126,.T.);
#1126 = EDGE_CURVE('',#903,#886,#1127,.T.);
#1127 = LINE('',#1128,#1129);
#1128 = CARTESIAN_POINT('',(125.3388427839,35.1,42.));
#1129 = VECTOR('',#1130,1.);
#1130 = DIRECTION('',(-1.,0.,0.));
#1131 = PLANE('',#1132);
#1132 = AXIS2_PLACEMENT_3D('',#1133,#1134,#1135);
#1133 = CARTESIAN_POINT('',(123.7664225,35.1,26.856498336681));
#1134 = DIRECTION('',(0.,1.,0.));
#1135 = DIRECTION('',(0.,0.,1.));
#1136 = ADVANCED_FACE('',(#1137,#1142),#1153,.F.);
#1137 = FACE_BOUND('',#1138,.F.);
#1138 = EDGE_LOOP('',(#1139,#1140,#1141));
#1139 = ORIENTED_EDGE('',*,*,#902,.T.);
#1140 = ORIENTED_EDGE('',*,*,#893,.T.);
#1141 = ORIENTED_EDGE('',*,*,#1126,.F.);
#1142 = FACE_BOUND('',#1143,.F.);
#1143 = EDGE_LOOP('',(#1144));
#1144 = ORIENTED_EDGE('',*,*,#1145,.T.);
#1145 = EDGE_CURVE('',#1146,#1146,#1148,.T.);
#1146 = VERTEX_POINT('',#1147);
#1147 = CARTESIAN_POINT('',(125.2,41.,42.));
#1148 = CIRCLE('',#1149,1.2);
#1149 = AXIS2_PLACEMENT_3D('',#1150,#1151,#1152);
#1150 = CARTESIAN_POINT('',(124.,41.,42.));
#1151 = DIRECTION('',(0.,0.,-1.));
#1152 = DIRECTION('',(1.,0.,0.));
#1153 = PLANE('',#1154);
#1154 = AXIS2_PLACEMENT_3D('',#1155,#1156,#1157);
#1155 = CARTESIAN_POINT('',(124.20715739871,40.740440817986,42.));
#1156 = DIRECTION('',(0.,0.,1.));
#1157 = DIRECTION('',(1.,0.,0.));
#1158 = ADVANCED_FACE('',(#1159),#1196,.F.);
#1159 = FACE_BOUND('',#1160,.F.);
#1160 = EDGE_LOOP('',(#1161,#1162,#1170,#1179,#1188,#1195));
#1161 = ORIENTED_EDGE('',*,*,#1145,.F.);
#1162 = ORIENTED_EDGE('',*,*,#1163,.T.);
#1163 = EDGE_CURVE('',#1146,#1164,#1166,.T.);
#1164 = VERTEX_POINT('',#1165);
#1165 = CARTESIAN_POINT('',(125.2,41.,50.));
#1166 = LINE('',#1167,#1168);
#1167 = CARTESIAN_POINT('',(125.2,41.,41.));
#1168 = VECTOR('',#1169,1.);
#1169 = DIRECTION('',(0.,0.,1.));
#1170 = ORIENTED_EDGE('',*,*,#1171,.T.);
#1171 = EDGE_CURVE('',#1164,#1172,#1174,.T.);
#1172 = VERTEX_POINT('',#1173);
#1173 = CARTESIAN_POINT('',(124.,39.8,50.));
#1174 = CIRCLE('',#1175,1.2);
#1175 = AXIS2_PLACEMENT_3D('',#1176,#1177,#1178);
#1176 = CARTESIAN_POINT('',(124.,41.,50.));
#1177 = DIRECTION('',(0.,0.,-1.));
#1178 = DIRECTION('',(1.,0.,0.));
#1179 = ORIENTED_EDGE('',*,*,#1180,.T.);
#1180 = EDGE_CURVE('',#1172,#1181,#1183,.T.);
#1181 = VERTEX_POINT('',#1182);
#1182 = CARTESIAN_POINT('',(124.,42.2,50.));
#1183 = CIRCLE('',#1184,1.2);
#1184 = AXIS2_PLACEMENT_3D('',#1185,#1186,#1187);
#1185 = CARTESIAN_POINT('',(124.,41.,50.));
#1186 = DIRECTION('',(0.,0.,-1.));
#1187 = DIRECTION('',(1.,0.,0.));
#1188 = ORIENTED_EDGE('',*,*,#1189,.T.);
#1189 = EDGE_CURVE('',#1181,#1164,#1190,.T.);
#1190 = CIRCLE('',#1191,1.2);
#1191 = AXIS2_PLACEMENT_3D('',#1192,#1193,#1194);
#1192 = CARTESIAN_POINT('',(124.,41.,50.));
#1193 = DIRECTION('',(0.,0.,-1.));
#1194 = DIRECTION('',(1.,0.,0.));
#1195 = ORIENTED_EDGE('',*,*,#1163,.F.);
#1196 = CYLINDRICAL_SURFACE('',#1197,1.2);
#1197 = AXIS2_PLACEMENT_3D('',#1198,#1199,#1200);
#1198 = CARTESIAN_POINT('',(124.,41.,41.));
#1199 = DIRECTION('',(0.,0.,-1.));
#1200 = DIRECTION('',(1.,0.,0.));
#1201 = ADVANCED_FACE('',(#1202),#1212,.F.);
#1202 = FACE_BOUND('',#1203,.F.);
#1203 = EDGE_LOOP('',(#1204,#1205,#1206));
#1204 = ORIENTED_EDGE('',*,*,#1171,.F.);
#1205 = ORIENTED_EDGE('',*,*,#1189,.F.);
#1206 = ORIENTED_EDGE('',*,*,#1207,.F.);
#1207 = EDGE_CURVE('',#1172,#1181,#1208,.T.);
#1208 = LINE('',#1209,#1210);
#1209 = CARTESIAN_POINT('',(124.,41.,50.));
#1210 = VECTOR('',#1211,1.);
#1211 = DIRECTION('',(0.,1.,-2.2E-16));
#1212 = PLANE('',#1213);
#1213 = AXIS2_PLACEMENT_3D('',#1214,#1215,#1216);
#1214 = CARTESIAN_POINT('',(124.,41.,50.));
#1215 = DIRECTION('',(0.,0.,1.));
#1216 = DIRECTION('',(1.,0.,0.));
#1217 = ADVANCED_FACE('',(#1218),#1222,.F.);
#1218 = FACE_BOUND('',#1219,.F.);
#1219 = EDGE_LOOP('',(#1220,#1221));
#1220 = ORIENTED_EDGE('',*,*,#1180,.F.);
#1221 = ORIENTED_EDGE('',*,*,#1207,.T.);
#1222 = PLANE('',#1223);
#1223 = AXIS2_PLACEMENT_3D('',#1224,#1225,#1226);
#1224 = CARTESIAN_POINT('',(124.,41.,50.));
#1225 = DIRECTION('',(0.,0.,1.));
#1226 = DIRECTION('',(1.,0.,0.));
#1227 = ( GEOMETRIC_REPRESENTATION_CONTEXT(3) 
GLOBAL_UNCERTAINTY_ASSIGNED_CONTEXT((#1231)) 
GLOBAL_UNIT_ASSIGNED_CONTEXT((#1228,#1229,#1230)) REPRESENTATION_CONTEXT
('Context #1','3D Context with UNIT and UNCERTAINTY') );
#1228 = ( LENGTH_UNIT() NAMED_UNIT(*) SI_UNIT(.MILLI.,.METRE.) );
#1229 = ( NAMED_UNIT(*) PLANE_ANGLE_UNIT() SI_UNIT($,.RADIAN.) );
#1230 = ( NAMED_UNIT(*) SI_UNIT($,.STERADIAN.) SOLID_ANGLE_UNIT() );
#1231 = UNCERTAINTY_MEASURE_WITH_UNIT(LENGTH_MEASURE(2.E-05),#1228,
  'distance_accuracy_value','confusion accuracy');
#1232 = PRODUCT_RELATED_PRODUCT_CATEGORY('part',$,(#7));
ENDSEC;
END-ISO-10303-21;
