ISO-10303-21;
HEADER;
FILE_DESCRIPTION(('FreeCAD Model'),'2;1');
FILE_NAME('Open CASCADE Shape Model','2026-08-28T13:04:04',('FreeCAD'),(
    'FreeCAD'),'Open CASCADE STEP processor 7.8','FreeCAD','Unknown');
FILE_SCHEMA(('AUTOMOTIVE_DESIGN { 1 0 10303 214 1 1 1 1 }'));
ENDSEC;
DATA;
#1 = APPLICATION_PROTOCOL_DEFINITION('international standard',
  'automotive_design',2000,#2);
#2 = APPLICATION_CONTEXT(
  'core data for automotive mechanical design processes');
#3 = SHAPE_DEFINITION_REPRESENTATION(#4,#10);
#4 = PRODUCT_DEFINITION_SHAPE('','',#5);
#5 = PRODUCT_DEFINITION('design','',#6,#9);
#6 = PRODUCT_DEFINITION_FORMATION('','',#7);
#7 = PRODUCT('Open CASCADE STEP translator 7.8 44',
  'Open CASCADE STEP translator 7.8 44','',(#8));
#8 = PRODUCT_CONTEXT('',#2,'mechanical');
#9 = PRODUCT_DEFINITION_CONTEXT('part definition',#2,'design');
#10 = ADVANCED_BREP_SHAPE_REPRESENTATION('',(#11,#15),#915);
#11 = AXIS2_PLACEMENT_3D('',#12,#13,#14);
#12 = CARTESIAN_POINT('',(0.,0.,0.));
#13 = DIRECTION('',(0.,0.,1.));
#14 = DIRECTION('',(1.,0.,-0.));
#15 = MANIFOLD_SOLID_BREP('',#16);
#16 = CLOSED_SHELL('',(#17,#245,#276,#301,#326,#350,#374,#399,#424,#448,
    #472,#497,#522,#546,#570,#595,#620,#644,#668,#693,#717,#741,#766,
    #791,#815,#839,#864,#881));
#17 = ADVANCED_FACE('',(#18),#240,.F.);
#18 = FACE_BOUND('',#19,.F.);
#19 = EDGE_LOOP('',(#20,#30,#39,#47,#56,#64,#73,#81,#90,#98,#106,#115,
    #123,#132,#140,#148,#157,#165,#174,#182,#191,#199,#208,#216,#225,
    #233));
#20 = ORIENTED_EDGE('',*,*,#21,.T.);
#21 = EDGE_CURVE('',#22,#24,#26,.T.);
#22 = VERTEX_POINT('',#23);
#23 = CARTESIAN_POINT('',(2.121945304372,-6.473155184457,0.));
#24 = VERTEX_POINT('',#25);
#25 = CARTESIAN_POINT('',(2.121945304372,-11.47315518445,0.));
#26 = LINE('',#27,#28);
#27 = CARTESIAN_POINT('',(2.121945304372,-5.473155184457,0.));
#28 = VECTOR('',#29,1.);
#29 = DIRECTION('',(0.,-1.,0.));
#30 = ORIENTED_EDGE('',*,*,#31,.F.);
#31 = EDGE_CURVE('',#32,#24,#34,.T.);
#32 = VERTEX_POINT('',#33);
#33 = CARTESIAN_POINT('',(3.121945304372,-12.47315518445,0.));
#34 = CIRCLE('',#35,1.);
#35 = AXIS2_PLACEMENT_3D('',#36,#37,#38);
#36 = CARTESIAN_POINT('',(3.121945304372,-11.47315518445,0.));
#37 = DIRECTION('',(-0.,-0.,-1.));
#38 = DIRECTION('',(0.,-1.,0.));
#39 = ORIENTED_EDGE('',*,*,#40,.T.);
#40 = EDGE_CURVE('',#32,#41,#43,.T.);
#41 = VERTEX_POINT('',#42);
#42 = CARTESIAN_POINT('',(4.121945304372,-12.47315518445,0.));
#43 = LINE('',#44,#45);
#44 = CARTESIAN_POINT('',(2.121945304372,-12.47315518445,0.));
#45 = VECTOR('',#46,1.);
#46 = DIRECTION('',(1.,0.,0.));
#47 = ORIENTED_EDGE('',*,*,#48,.F.);
#48 = EDGE_CURVE('',#49,#41,#51,.T.);
#49 = VERTEX_POINT('',#50);
#50 = CARTESIAN_POINT('',(5.121945304372,-11.47315518445,0.));
#51 = CIRCLE('',#52,1.);
#52 = AXIS2_PLACEMENT_3D('',#53,#54,#55);
#53 = CARTESIAN_POINT('',(4.121945304372,-11.47315518445,0.));
#54 = DIRECTION('',(-0.,-0.,-1.));
#55 = DIRECTION('',(0.,-1.,0.));
#56 = ORIENTED_EDGE('',*,*,#57,.T.);
#57 = EDGE_CURVE('',#49,#58,#60,.T.);
#58 = VERTEX_POINT('',#59);
#59 = CARTESIAN_POINT('',(5.121945304372,-3.993337410395,0.));
#60 = LINE('',#61,#62);
#61 = CARTESIAN_POINT('',(5.121945304372,-12.47315518445,0.));
#62 = VECTOR('',#63,1.);
#63 = DIRECTION('',(0.,1.,0.));
#64 = ORIENTED_EDGE('',*,*,#65,.F.);
#65 = EDGE_CURVE('',#66,#58,#68,.T.);
#66 = VERTEX_POINT('',#67);
#67 = CARTESIAN_POINT('',(4.595384714587,-2.640940906249,0.));
#68 = CIRCLE('',#69,2.);
#69 = AXIS2_PLACEMENT_3D('',#70,#71,#72);
#70 = CARTESIAN_POINT('',(3.121945304372,-3.993337410395,0.));
#71 = DIRECTION('',(-0.,-0.,-1.));
#72 = DIRECTION('',(0.,-1.,0.));
#73 = ORIENTED_EDGE('',*,*,#74,.F.);
#74 = EDGE_CURVE('',#75,#66,#77,.T.);
#75 = VERTEX_POINT('',#76);
#76 = CARTESIAN_POINT('',(3.933184864831,-1.919472495855,0.));
#77 = LINE('',#78,#79);
#78 = CARTESIAN_POINT('',(3.338781933978,-1.271869,0.));
#79 = VECTOR('',#80,1.);
#80 = DIRECTION('',(0.676198252073,-0.736719705108,0.));
#81 = ORIENTED_EDGE('',*,*,#82,.F.);
#82 = EDGE_CURVE('',#83,#75,#85,.T.);
#83 = VERTEX_POINT('',#84);
#84 = CARTESIAN_POINT('',(2.459745454616,-1.271869,0.));
#85 = CIRCLE('',#86,2.);
#86 = AXIS2_PLACEMENT_3D('',#87,#88,#89);
#87 = CARTESIAN_POINT('',(2.459745454616,-3.271869,0.));
#88 = DIRECTION('',(-0.,-0.,-1.));
#89 = DIRECTION('',(0.,-1.,0.));
#90 = ORIENTED_EDGE('',*,*,#91,.T.);
#91 = EDGE_CURVE('',#83,#92,#94,.T.);
#92 = VERTEX_POINT('',#93);
#93 = CARTESIAN_POINT('',(2.121945304372,-1.271869,0.));
#94 = LINE('',#95,#96);
#95 = CARTESIAN_POINT('',(3.338781933978,-1.271869,0.));
#96 = VECTOR('',#97,1.);
#97 = DIRECTION('',(-1.,0.,0.));
#98 = ORIENTED_EDGE('',*,*,#99,.F.);
#99 = EDGE_CURVE('',#100,#92,#102,.T.);
#100 = VERTEX_POINT('',#101);
#101 = CARTESIAN_POINT('',(2.121945304372,26.728131,0.));
#102 = LINE('',#103,#104);
#103 = CARTESIAN_POINT('',(2.121945304372,28.728131,0.));
#104 = VECTOR('',#105,1.);
#105 = DIRECTION('',(0.,-1.,0.));
#106 = ORIENTED_EDGE('',*,*,#107,.T.);
#107 = EDGE_CURVE('',#100,#108,#110,.T.);
#108 = VERTEX_POINT('',#109);
#109 = CARTESIAN_POINT('',(0.121945304372,28.728131,0.));
#110 = CIRCLE('',#111,2.);
#111 = AXIS2_PLACEMENT_3D('',#112,#113,#114);
#112 = CARTESIAN_POINT('',(0.121945304372,26.728131,0.));
#113 = DIRECTION('',(-0.,0.,1.));
#114 = DIRECTION('',(0.,-1.,0.));
#115 = ORIENTED_EDGE('',*,*,#116,.T.);
#116 = EDGE_CURVE('',#108,#117,#119,.T.);
#117 = VERTEX_POINT('',#118);
#118 = CARTESIAN_POINT('',(-7.805469562819E-02,28.728131,0.));
#119 = LINE('',#120,#121);
#120 = CARTESIAN_POINT('',(2.121945304372,28.728131,0.));
#121 = VECTOR('',#122,1.);
#122 = DIRECTION('',(-1.,0.,0.));
#123 = ORIENTED_EDGE('',*,*,#124,.T.);
#124 = EDGE_CURVE('',#117,#125,#127,.T.);
#125 = VERTEX_POINT('',#126);
#126 = CARTESIAN_POINT('',(-2.078054695628,26.728131,0.));
#127 = CIRCLE('',#128,2.);
#128 = AXIS2_PLACEMENT_3D('',#129,#130,#131);
#129 = CARTESIAN_POINT('',(-7.805469562819E-02,26.728131,0.));
#130 = DIRECTION('',(-0.,0.,1.));
#131 = DIRECTION('',(0.,-1.,0.));
#132 = ORIENTED_EDGE('',*,*,#133,.T.);
#133 = EDGE_CURVE('',#125,#134,#136,.T.);
#134 = VERTEX_POINT('',#135);
#135 = CARTESIAN_POINT('',(-2.078054695628,-1.271869,0.));
#136 = LINE('',#137,#138);
#137 = CARTESIAN_POINT('',(-2.078054695628,28.728131,0.));
#138 = VECTOR('',#139,1.);
#139 = DIRECTION('',(0.,-1.,0.));
#140 = ORIENTED_EDGE('',*,*,#141,.F.);
#141 = EDGE_CURVE('',#142,#134,#144,.T.);
#142 = VERTEX_POINT('',#143);
#143 = CARTESIAN_POINT('',(-2.415854845872,-1.271869,0.));
#144 = LINE('',#145,#146);
#145 = CARTESIAN_POINT('',(-3.294891325234,-1.271869,0.));
#146 = VECTOR('',#147,1.);
#147 = DIRECTION('',(1.,0.,0.));
#148 = ORIENTED_EDGE('',*,*,#149,.T.);
#149 = EDGE_CURVE('',#142,#150,#152,.T.);
#150 = VERTEX_POINT('',#151);
#151 = CARTESIAN_POINT('',(-3.889294256087,-1.919472495855,0.));
#152 = CIRCLE('',#153,2.);
#153 = AXIS2_PLACEMENT_3D('',#154,#155,#156);
#154 = CARTESIAN_POINT('',(-2.415854845872,-3.271869,0.));
#155 = DIRECTION('',(-0.,0.,1.));
#156 = DIRECTION('',(0.,-1.,0.));
#157 = ORIENTED_EDGE('',*,*,#158,.F.);
#158 = EDGE_CURVE('',#159,#150,#161,.T.);
#159 = VERTEX_POINT('',#160);
#160 = CARTESIAN_POINT('',(-4.551494105843,-2.640940906249,0.));
#161 = LINE('',#162,#163);
#162 = CARTESIAN_POINT('',(-5.078054695628,-3.21463,0.));
#163 = VECTOR('',#164,1.);
#164 = DIRECTION('',(0.676198252073,0.736719705108,0.));
#165 = ORIENTED_EDGE('',*,*,#166,.T.);
#166 = EDGE_CURVE('',#159,#167,#169,.T.);
#167 = VERTEX_POINT('',#168);
#168 = CARTESIAN_POINT('',(-5.078054695628,-3.993337410395,0.));
#169 = CIRCLE('',#170,2.);
#170 = AXIS2_PLACEMENT_3D('',#171,#172,#173);
#171 = CARTESIAN_POINT('',(-3.078054695628,-3.993337410395,0.));
#172 = DIRECTION('',(-0.,0.,1.));
#173 = DIRECTION('',(0.,-1.,0.));
#174 = ORIENTED_EDGE('',*,*,#175,.T.);
#175 = EDGE_CURVE('',#167,#176,#178,.T.);
#176 = VERTEX_POINT('',#177);
#177 = CARTESIAN_POINT('',(-5.078054695628,-11.47315518445,0.));
#178 = LINE('',#179,#180);
#179 = CARTESIAN_POINT('',(-5.078054695628,-3.21463,0.));
#180 = VECTOR('',#181,1.);
#181 = DIRECTION('',(0.,-1.,0.));
#182 = ORIENTED_EDGE('',*,*,#183,.F.);
#183 = EDGE_CURVE('',#184,#176,#186,.T.);
#184 = VERTEX_POINT('',#185);
#185 = CARTESIAN_POINT('',(-4.078054695628,-12.47315518445,0.));
#186 = CIRCLE('',#187,1.);
#187 = AXIS2_PLACEMENT_3D('',#188,#189,#190);
#188 = CARTESIAN_POINT('',(-4.078054695628,-11.47315518445,0.));
#189 = DIRECTION('',(-0.,-0.,-1.));
#190 = DIRECTION('',(0.,-1.,0.));
#191 = ORIENTED_EDGE('',*,*,#192,.T.);
#192 = EDGE_CURVE('',#184,#193,#195,.T.);
#193 = VERTEX_POINT('',#194);
#194 = CARTESIAN_POINT('',(-3.078054695628,-12.47315518445,0.));
#195 = LINE('',#196,#197);
#196 = CARTESIAN_POINT('',(-5.078054695628,-12.47315518445,0.));
#197 = VECTOR('',#198,1.);
#198 = DIRECTION('',(1.,0.,0.));
#199 = ORIENTED_EDGE('',*,*,#200,.F.);
#200 = EDGE_CURVE('',#201,#193,#203,.T.);
#201 = VERTEX_POINT('',#202);
#202 = CARTESIAN_POINT('',(-2.078054695628,-11.47315518445,0.));
#203 = CIRCLE('',#204,1.);
#204 = AXIS2_PLACEMENT_3D('',#205,#206,#207);
#205 = CARTESIAN_POINT('',(-3.078054695628,-11.47315518445,0.));
#206 = DIRECTION('',(-0.,-0.,-1.));
#207 = DIRECTION('',(0.,-1.,0.));
#208 = ORIENTED_EDGE('',*,*,#209,.T.);
#209 = EDGE_CURVE('',#201,#210,#212,.T.);
#210 = VERTEX_POINT('',#211);
#211 = CARTESIAN_POINT('',(-2.078054695628,-6.473155184457,0.));
#212 = LINE('',#213,#214);
#213 = CARTESIAN_POINT('',(-2.078054695628,-12.47315518445,0.));
#214 = VECTOR('',#215,1.);
#215 = DIRECTION('',(0.,1.,0.));
#216 = ORIENTED_EDGE('',*,*,#217,.F.);
#217 = EDGE_CURVE('',#218,#210,#220,.T.);
#218 = VERTEX_POINT('',#219);
#219 = CARTESIAN_POINT('',(-1.078054695628,-5.473155184457,0.));
#220 = CIRCLE('',#221,1.);
#221 = AXIS2_PLACEMENT_3D('',#222,#223,#224);
#222 = CARTESIAN_POINT('',(-1.078054695628,-6.473155184457,0.));
#223 = DIRECTION('',(-0.,0.,1.));
#224 = DIRECTION('',(0.,-1.,0.));
#225 = ORIENTED_EDGE('',*,*,#226,.T.);
#226 = EDGE_CURVE('',#218,#227,#229,.T.);
#227 = VERTEX_POINT('',#228);
#228 = CARTESIAN_POINT('',(1.121945304372,-5.473155184457,0.));
#229 = LINE('',#230,#231);
#230 = CARTESIAN_POINT('',(-2.078054695628,-5.473155184457,0.));
#231 = VECTOR('',#232,1.);
#232 = DIRECTION('',(1.,0.,0.));
#233 = ORIENTED_EDGE('',*,*,#234,.F.);
#234 = EDGE_CURVE('',#22,#227,#235,.T.);
#235 = CIRCLE('',#236,1.);
#236 = AXIS2_PLACEMENT_3D('',#237,#238,#239);
#237 = CARTESIAN_POINT('',(1.121945304372,-6.473155184457,0.));
#238 = DIRECTION('',(-0.,0.,1.));
#239 = DIRECTION('',(0.,-1.,0.));
#240 = PLANE('',#241);
#241 = AXIS2_PLACEMENT_3D('',#242,#243,#244);
#242 = CARTESIAN_POINT('',(2.194530437181E-02,4.891816252213,0.));
#243 = DIRECTION('',(0.,0.,1.));
#244 = DIRECTION('',(1.,0.,0.));
#245 = ADVANCED_FACE('',(#246),#271,.F.);
#246 = FACE_BOUND('',#247,.F.);
#247 = EDGE_LOOP('',(#248,#249,#257,#265));
#248 = ORIENTED_EDGE('',*,*,#21,.F.);
#249 = ORIENTED_EDGE('',*,*,#250,.T.);
#250 = EDGE_CURVE('',#22,#251,#253,.T.);
#251 = VERTEX_POINT('',#252);
#252 = CARTESIAN_POINT('',(2.121945304372,-6.473155184457,5.));
#253 = LINE('',#254,#255);
#254 = CARTESIAN_POINT('',(2.121945304372,-6.473155184457,0.));
#255 = VECTOR('',#256,1.);
#256 = DIRECTION('',(0.,0.,1.));
#257 = ORIENTED_EDGE('',*,*,#258,.T.);
#258 = EDGE_CURVE('',#251,#259,#261,.T.);
#259 = VERTEX_POINT('',#260);
#260 = CARTESIAN_POINT('',(2.121945304372,-11.47315518445,5.));
#261 = LINE('',#262,#263);
#262 = CARTESIAN_POINT('',(2.121945304372,-5.473155184457,5.));
#263 = VECTOR('',#264,1.);
#264 = DIRECTION('',(0.,-1.,0.));
#265 = ORIENTED_EDGE('',*,*,#266,.F.);
#266 = EDGE_CURVE('',#24,#259,#267,.T.);
#267 = LINE('',#268,#269);
#268 = CARTESIAN_POINT('',(2.121945304372,-11.47315518445,0.));
#269 = VECTOR('',#270,1.);
#270 = DIRECTION('',(0.,0.,1.));
#271 = PLANE('',#272);
#272 = AXIS2_PLACEMENT_3D('',#273,#274,#275);
#273 = CARTESIAN_POINT('',(2.121945304372,-5.473155184457,0.));
#274 = DIRECTION('',(1.,0.,0.));
#275 = DIRECTION('',(0.,-1.,0.));
#276 = ADVANCED_FACE('',(#277),#296,.F.);
#277 = FACE_BOUND('',#278,.F.);
#278 = EDGE_LOOP('',(#279,#280,#288,#295));
#279 = ORIENTED_EDGE('',*,*,#234,.T.);
#280 = ORIENTED_EDGE('',*,*,#281,.T.);
#281 = EDGE_CURVE('',#227,#282,#284,.T.);
#282 = VERTEX_POINT('',#283);
#283 = CARTESIAN_POINT('',(1.121945304372,-5.473155184457,5.));
#284 = LINE('',#285,#286);
#285 = CARTESIAN_POINT('',(1.121945304372,-5.473155184457,0.));
#286 = VECTOR('',#287,1.);
#287 = DIRECTION('',(0.,0.,1.));
#288 = ORIENTED_EDGE('',*,*,#289,.F.);
#289 = EDGE_CURVE('',#251,#282,#290,.T.);
#290 = CIRCLE('',#291,1.);
#291 = AXIS2_PLACEMENT_3D('',#292,#293,#294);
#292 = CARTESIAN_POINT('',(1.121945304372,-6.473155184457,5.));
#293 = DIRECTION('',(-0.,0.,1.));
#294 = DIRECTION('',(0.,-1.,0.));
#295 = ORIENTED_EDGE('',*,*,#250,.F.);
#296 = CYLINDRICAL_SURFACE('',#297,1.);
#297 = AXIS2_PLACEMENT_3D('',#298,#299,#300);
#298 = CARTESIAN_POINT('',(1.121945304372,-6.473155184457,0.));
#299 = DIRECTION('',(0.,0.,1.));
#300 = DIRECTION('',(1.,0.,0.));
#301 = ADVANCED_FACE('',(#302),#321,.T.);
#302 = FACE_BOUND('',#303,.F.);
#303 = EDGE_LOOP('',(#304,#305,#306,#315));
#304 = ORIENTED_EDGE('',*,*,#31,.T.);
#305 = ORIENTED_EDGE('',*,*,#266,.T.);
#306 = ORIENTED_EDGE('',*,*,#307,.F.);
#307 = EDGE_CURVE('',#308,#259,#310,.T.);
#308 = VERTEX_POINT('',#309);
#309 = CARTESIAN_POINT('',(3.121945304372,-12.47315518445,5.));
#310 = CIRCLE('',#311,1.);
#311 = AXIS2_PLACEMENT_3D('',#312,#313,#314);
#312 = CARTESIAN_POINT('',(3.121945304372,-11.47315518445,5.));
#313 = DIRECTION('',(-0.,-0.,-1.));
#314 = DIRECTION('',(0.,-1.,0.));
#315 = ORIENTED_EDGE('',*,*,#316,.F.);
#316 = EDGE_CURVE('',#32,#308,#317,.T.);
#317 = LINE('',#318,#319);
#318 = CARTESIAN_POINT('',(3.121945304372,-12.47315518445,0.));
#319 = VECTOR('',#320,1.);
#320 = DIRECTION('',(0.,0.,1.));
#321 = CYLINDRICAL_SURFACE('',#322,1.);
#322 = AXIS2_PLACEMENT_3D('',#323,#324,#325);
#323 = CARTESIAN_POINT('',(3.121945304372,-11.47315518445,0.));
#324 = DIRECTION('',(0.,0.,1.));
#325 = DIRECTION('',(0.,-1.,0.));
#326 = ADVANCED_FACE('',(#327),#345,.F.);
#327 = FACE_BOUND('',#328,.F.);
#328 = EDGE_LOOP('',(#329,#330,#338,#344));
#329 = ORIENTED_EDGE('',*,*,#226,.F.);
#330 = ORIENTED_EDGE('',*,*,#331,.T.);
#331 = EDGE_CURVE('',#218,#332,#334,.T.);
#332 = VERTEX_POINT('',#333);
#333 = CARTESIAN_POINT('',(-1.078054695628,-5.473155184457,5.));
#334 = LINE('',#335,#336);
#335 = CARTESIAN_POINT('',(-1.078054695628,-5.473155184457,0.));
#336 = VECTOR('',#337,1.);
#337 = DIRECTION('',(0.,0.,1.));
#338 = ORIENTED_EDGE('',*,*,#339,.T.);
#339 = EDGE_CURVE('',#332,#282,#340,.T.);
#340 = LINE('',#341,#342);
#341 = CARTESIAN_POINT('',(-2.078054695628,-5.473155184457,5.));
#342 = VECTOR('',#343,1.);
#343 = DIRECTION('',(1.,0.,0.));
#344 = ORIENTED_EDGE('',*,*,#281,.F.);
#345 = PLANE('',#346);
#346 = AXIS2_PLACEMENT_3D('',#347,#348,#349);
#347 = CARTESIAN_POINT('',(-2.078054695628,-5.473155184457,0.));
#348 = DIRECTION('',(0.,1.,0.));
#349 = DIRECTION('',(1.,0.,0.));
#350 = ADVANCED_FACE('',(#351),#369,.F.);
#351 = FACE_BOUND('',#352,.F.);
#352 = EDGE_LOOP('',(#353,#354,#355,#363));
#353 = ORIENTED_EDGE('',*,*,#40,.F.);
#354 = ORIENTED_EDGE('',*,*,#316,.T.);
#355 = ORIENTED_EDGE('',*,*,#356,.T.);
#356 = EDGE_CURVE('',#308,#357,#359,.T.);
#357 = VERTEX_POINT('',#358);
#358 = CARTESIAN_POINT('',(4.121945304372,-12.47315518445,5.));
#359 = LINE('',#360,#361);
#360 = CARTESIAN_POINT('',(2.121945304372,-12.47315518445,5.));
#361 = VECTOR('',#362,1.);
#362 = DIRECTION('',(1.,0.,0.));
#363 = ORIENTED_EDGE('',*,*,#364,.F.);
#364 = EDGE_CURVE('',#41,#357,#365,.T.);
#365 = LINE('',#366,#367);
#366 = CARTESIAN_POINT('',(4.121945304372,-12.47315518445,0.));
#367 = VECTOR('',#368,1.);
#368 = DIRECTION('',(0.,0.,1.));
#369 = PLANE('',#370);
#370 = AXIS2_PLACEMENT_3D('',#371,#372,#373);
#371 = CARTESIAN_POINT('',(2.121945304372,-12.47315518445,0.));
#372 = DIRECTION('',(0.,1.,0.));
#373 = DIRECTION('',(1.,0.,0.));
#374 = ADVANCED_FACE('',(#375),#394,.F.);
#375 = FACE_BOUND('',#376,.F.);
#376 = EDGE_LOOP('',(#377,#378,#386,#393));
#377 = ORIENTED_EDGE('',*,*,#217,.T.);
#378 = ORIENTED_EDGE('',*,*,#379,.T.);
#379 = EDGE_CURVE('',#210,#380,#382,.T.);
#380 = VERTEX_POINT('',#381);
#381 = CARTESIAN_POINT('',(-2.078054695628,-6.473155184457,5.));
#382 = LINE('',#383,#384);
#383 = CARTESIAN_POINT('',(-2.078054695628,-6.473155184457,0.));
#384 = VECTOR('',#385,1.);
#385 = DIRECTION('',(0.,0.,1.));
#386 = ORIENTED_EDGE('',*,*,#387,.F.);
#387 = EDGE_CURVE('',#332,#380,#388,.T.);
#388 = CIRCLE('',#389,1.);
#389 = AXIS2_PLACEMENT_3D('',#390,#391,#392);
#390 = CARTESIAN_POINT('',(-1.078054695628,-6.473155184457,5.));
#391 = DIRECTION('',(-0.,0.,1.));
#392 = DIRECTION('',(0.,-1.,0.));
#393 = ORIENTED_EDGE('',*,*,#331,.F.);
#394 = CYLINDRICAL_SURFACE('',#395,1.);
#395 = AXIS2_PLACEMENT_3D('',#396,#397,#398);
#396 = CARTESIAN_POINT('',(-1.078054695628,-6.473155184457,0.));
#397 = DIRECTION('',(0.,0.,1.));
#398 = DIRECTION('',(0.,1.,0.));
#399 = ADVANCED_FACE('',(#400),#419,.T.);
#400 = FACE_BOUND('',#401,.F.);
#401 = EDGE_LOOP('',(#402,#403,#404,#413));
#402 = ORIENTED_EDGE('',*,*,#48,.T.);
#403 = ORIENTED_EDGE('',*,*,#364,.T.);
#404 = ORIENTED_EDGE('',*,*,#405,.F.);
#405 = EDGE_CURVE('',#406,#357,#408,.T.);
#406 = VERTEX_POINT('',#407);
#407 = CARTESIAN_POINT('',(5.121945304372,-11.47315518445,5.));
#408 = CIRCLE('',#409,1.);
#409 = AXIS2_PLACEMENT_3D('',#410,#411,#412);
#410 = CARTESIAN_POINT('',(4.121945304372,-11.47315518445,5.));
#411 = DIRECTION('',(-0.,-0.,-1.));
#412 = DIRECTION('',(0.,-1.,0.));
#413 = ORIENTED_EDGE('',*,*,#414,.F.);
#414 = EDGE_CURVE('',#49,#406,#415,.T.);
#415 = LINE('',#416,#417);
#416 = CARTESIAN_POINT('',(5.121945304372,-11.47315518445,0.));
#417 = VECTOR('',#418,1.);
#418 = DIRECTION('',(0.,0.,1.));
#419 = CYLINDRICAL_SURFACE('',#420,1.);
#420 = AXIS2_PLACEMENT_3D('',#421,#422,#423);
#421 = CARTESIAN_POINT('',(4.121945304372,-11.47315518445,0.));
#422 = DIRECTION('',(0.,0.,1.));
#423 = DIRECTION('',(1.,0.,0.));
#424 = ADVANCED_FACE('',(#425),#443,.F.);
#425 = FACE_BOUND('',#426,.F.);
#426 = EDGE_LOOP('',(#427,#428,#436,#442));
#427 = ORIENTED_EDGE('',*,*,#209,.F.);
#428 = ORIENTED_EDGE('',*,*,#429,.T.);
#429 = EDGE_CURVE('',#201,#430,#432,.T.);
#430 = VERTEX_POINT('',#431);
#431 = CARTESIAN_POINT('',(-2.078054695628,-11.47315518445,5.));
#432 = LINE('',#433,#434);
#433 = CARTESIAN_POINT('',(-2.078054695628,-11.47315518445,0.));
#434 = VECTOR('',#435,1.);
#435 = DIRECTION('',(0.,0.,1.));
#436 = ORIENTED_EDGE('',*,*,#437,.T.);
#437 = EDGE_CURVE('',#430,#380,#438,.T.);
#438 = LINE('',#439,#440);
#439 = CARTESIAN_POINT('',(-2.078054695628,-12.47315518445,5.));
#440 = VECTOR('',#441,1.);
#441 = DIRECTION('',(0.,1.,0.));
#442 = ORIENTED_EDGE('',*,*,#379,.F.);
#443 = PLANE('',#444);
#444 = AXIS2_PLACEMENT_3D('',#445,#446,#447);
#445 = CARTESIAN_POINT('',(-2.078054695628,-12.47315518445,0.));
#446 = DIRECTION('',(-1.,0.,0.));
#447 = DIRECTION('',(0.,1.,0.));
#448 = ADVANCED_FACE('',(#449),#467,.F.);
#449 = FACE_BOUND('',#450,.F.);
#450 = EDGE_LOOP('',(#451,#452,#453,#461));
#451 = ORIENTED_EDGE('',*,*,#57,.F.);
#452 = ORIENTED_EDGE('',*,*,#414,.T.);
#453 = ORIENTED_EDGE('',*,*,#454,.T.);
#454 = EDGE_CURVE('',#406,#455,#457,.T.);
#455 = VERTEX_POINT('',#456);
#456 = CARTESIAN_POINT('',(5.121945304372,-3.993337410395,5.));
#457 = LINE('',#458,#459);
#458 = CARTESIAN_POINT('',(5.121945304372,-12.47315518445,5.));
#459 = VECTOR('',#460,1.);
#460 = DIRECTION('',(0.,1.,0.));
#461 = ORIENTED_EDGE('',*,*,#462,.F.);
#462 = EDGE_CURVE('',#58,#455,#463,.T.);
#463 = LINE('',#464,#465);
#464 = CARTESIAN_POINT('',(5.121945304372,-3.993337410395,0.));
#465 = VECTOR('',#466,1.);
#466 = DIRECTION('',(0.,0.,1.));
#467 = PLANE('',#468);
#468 = AXIS2_PLACEMENT_3D('',#469,#470,#471);
#469 = CARTESIAN_POINT('',(5.121945304372,-12.47315518445,0.));
#470 = DIRECTION('',(-1.,0.,0.));
#471 = DIRECTION('',(0.,1.,0.));
#472 = ADVANCED_FACE('',(#473),#492,.T.);
#473 = FACE_BOUND('',#474,.F.);
#474 = EDGE_LOOP('',(#475,#476,#484,#491));
#475 = ORIENTED_EDGE('',*,*,#200,.T.);
#476 = ORIENTED_EDGE('',*,*,#477,.T.);
#477 = EDGE_CURVE('',#193,#478,#480,.T.);
#478 = VERTEX_POINT('',#479);
#479 = CARTESIAN_POINT('',(-3.078054695628,-12.47315518445,5.));
#480 = LINE('',#481,#482);
#481 = CARTESIAN_POINT('',(-3.078054695628,-12.47315518445,0.));
#482 = VECTOR('',#483,1.);
#483 = DIRECTION('',(0.,0.,1.));
#484 = ORIENTED_EDGE('',*,*,#485,.F.);
#485 = EDGE_CURVE('',#430,#478,#486,.T.);
#486 = CIRCLE('',#487,1.);
#487 = AXIS2_PLACEMENT_3D('',#488,#489,#490);
#488 = CARTESIAN_POINT('',(-3.078054695628,-11.47315518445,5.));
#489 = DIRECTION('',(-0.,-0.,-1.));
#490 = DIRECTION('',(0.,-1.,0.));
#491 = ORIENTED_EDGE('',*,*,#429,.F.);
#492 = CYLINDRICAL_SURFACE('',#493,1.);
#493 = AXIS2_PLACEMENT_3D('',#494,#495,#496);
#494 = CARTESIAN_POINT('',(-3.078054695628,-11.47315518445,0.));
#495 = DIRECTION('',(0.,0.,1.));
#496 = DIRECTION('',(1.,0.,0.));
#497 = ADVANCED_FACE('',(#498),#517,.T.);
#498 = FACE_BOUND('',#499,.F.);
#499 = EDGE_LOOP('',(#500,#501,#502,#511));
#500 = ORIENTED_EDGE('',*,*,#65,.T.);
#501 = ORIENTED_EDGE('',*,*,#462,.T.);
#502 = ORIENTED_EDGE('',*,*,#503,.F.);
#503 = EDGE_CURVE('',#504,#455,#506,.T.);
#504 = VERTEX_POINT('',#505);
#505 = CARTESIAN_POINT('',(4.595384714587,-2.640940906249,5.));
#506 = CIRCLE('',#507,2.);
#507 = AXIS2_PLACEMENT_3D('',#508,#509,#510);
#508 = CARTESIAN_POINT('',(3.121945304372,-3.993337410395,5.));
#509 = DIRECTION('',(-0.,-0.,-1.));
#510 = DIRECTION('',(0.,-1.,0.));
#511 = ORIENTED_EDGE('',*,*,#512,.F.);
#512 = EDGE_CURVE('',#66,#504,#513,.T.);
#513 = LINE('',#514,#515);
#514 = CARTESIAN_POINT('',(4.595384714587,-2.640940906249,0.));
#515 = VECTOR('',#516,1.);
#516 = DIRECTION('',(0.,0.,1.));
#517 = CYLINDRICAL_SURFACE('',#518,2.);
#518 = AXIS2_PLACEMENT_3D('',#519,#520,#521);
#519 = CARTESIAN_POINT('',(3.121945304372,-3.993337410395,0.));
#520 = DIRECTION('',(0.,0.,1.));
#521 = DIRECTION('',(0.736719705108,0.676198252073,0.));
#522 = ADVANCED_FACE('',(#523),#541,.F.);
#523 = FACE_BOUND('',#524,.F.);
#524 = EDGE_LOOP('',(#525,#526,#534,#540));
#525 = ORIENTED_EDGE('',*,*,#192,.F.);
#526 = ORIENTED_EDGE('',*,*,#527,.T.);
#527 = EDGE_CURVE('',#184,#528,#530,.T.);
#528 = VERTEX_POINT('',#529);
#529 = CARTESIAN_POINT('',(-4.078054695628,-12.47315518445,5.));
#530 = LINE('',#531,#532);
#531 = CARTESIAN_POINT('',(-4.078054695628,-12.47315518445,0.));
#532 = VECTOR('',#533,1.);
#533 = DIRECTION('',(0.,0.,1.));
#534 = ORIENTED_EDGE('',*,*,#535,.T.);
#535 = EDGE_CURVE('',#528,#478,#536,.T.);
#536 = LINE('',#537,#538);
#537 = CARTESIAN_POINT('',(-5.078054695628,-12.47315518445,5.));
#538 = VECTOR('',#539,1.);
#539 = DIRECTION('',(1.,0.,0.));
#540 = ORIENTED_EDGE('',*,*,#477,.F.);
#541 = PLANE('',#542);
#542 = AXIS2_PLACEMENT_3D('',#543,#544,#545);
#543 = CARTESIAN_POINT('',(-5.078054695628,-12.47315518445,0.));
#544 = DIRECTION('',(0.,1.,0.));
#545 = DIRECTION('',(1.,0.,0.));
#546 = ADVANCED_FACE('',(#547),#565,.T.);
#547 = FACE_BOUND('',#548,.T.);
#548 = EDGE_LOOP('',(#549,#550,#558,#564));
#549 = ORIENTED_EDGE('',*,*,#74,.F.);
#550 = ORIENTED_EDGE('',*,*,#551,.T.);
#551 = EDGE_CURVE('',#75,#552,#554,.T.);
#552 = VERTEX_POINT('',#553);
#553 = CARTESIAN_POINT('',(3.933184864831,-1.919472495855,5.));
#554 = LINE('',#555,#556);
#555 = CARTESIAN_POINT('',(3.933184864831,-1.919472495855,0.));
#556 = VECTOR('',#557,1.);
#557 = DIRECTION('',(0.,0.,1.));
#558 = ORIENTED_EDGE('',*,*,#559,.T.);
#559 = EDGE_CURVE('',#552,#504,#560,.T.);
#560 = LINE('',#561,#562);
#561 = CARTESIAN_POINT('',(3.338781933978,-1.271869,5.));
#562 = VECTOR('',#563,1.);
#563 = DIRECTION('',(0.676198252073,-0.736719705108,0.));
#564 = ORIENTED_EDGE('',*,*,#512,.F.);
#565 = PLANE('',#566);
#566 = AXIS2_PLACEMENT_3D('',#567,#568,#569);
#567 = CARTESIAN_POINT('',(3.338781933978,-1.271869,0.));
#568 = DIRECTION('',(0.736719705108,0.676198252073,0.));
#569 = DIRECTION('',(0.676198252073,-0.736719705108,0.));
#570 = ADVANCED_FACE('',(#571),#590,.T.);
#571 = FACE_BOUND('',#572,.F.);
#572 = EDGE_LOOP('',(#573,#574,#582,#589));
#573 = ORIENTED_EDGE('',*,*,#183,.T.);
#574 = ORIENTED_EDGE('',*,*,#575,.T.);
#575 = EDGE_CURVE('',#176,#576,#578,.T.);
#576 = VERTEX_POINT('',#577);
#577 = CARTESIAN_POINT('',(-5.078054695628,-11.47315518445,5.));
#578 = LINE('',#579,#580);
#579 = CARTESIAN_POINT('',(-5.078054695628,-11.47315518445,0.));
#580 = VECTOR('',#581,1.);
#581 = DIRECTION('',(0.,0.,1.));
#582 = ORIENTED_EDGE('',*,*,#583,.F.);
#583 = EDGE_CURVE('',#528,#576,#584,.T.);
#584 = CIRCLE('',#585,1.);
#585 = AXIS2_PLACEMENT_3D('',#586,#587,#588);
#586 = CARTESIAN_POINT('',(-4.078054695628,-11.47315518445,5.));
#587 = DIRECTION('',(-0.,-0.,-1.));
#588 = DIRECTION('',(0.,-1.,0.));
#589 = ORIENTED_EDGE('',*,*,#527,.F.);
#590 = CYLINDRICAL_SURFACE('',#591,1.);
#591 = AXIS2_PLACEMENT_3D('',#592,#593,#594);
#592 = CARTESIAN_POINT('',(-4.078054695628,-11.47315518445,0.));
#593 = DIRECTION('',(0.,0.,1.));
#594 = DIRECTION('',(0.,-1.,0.));
#595 = ADVANCED_FACE('',(#596),#615,.T.);
#596 = FACE_BOUND('',#597,.F.);
#597 = EDGE_LOOP('',(#598,#599,#600,#609));
#598 = ORIENTED_EDGE('',*,*,#82,.T.);
#599 = ORIENTED_EDGE('',*,*,#551,.T.);
#600 = ORIENTED_EDGE('',*,*,#601,.F.);
#601 = EDGE_CURVE('',#602,#552,#604,.T.);
#602 = VERTEX_POINT('',#603);
#603 = CARTESIAN_POINT('',(2.459745454616,-1.271869,5.));
#604 = CIRCLE('',#605,2.);
#605 = AXIS2_PLACEMENT_3D('',#606,#607,#608);
#606 = CARTESIAN_POINT('',(2.459745454616,-3.271869,5.));
#607 = DIRECTION('',(-0.,-0.,-1.));
#608 = DIRECTION('',(0.,-1.,0.));
#609 = ORIENTED_EDGE('',*,*,#610,.F.);
#610 = EDGE_CURVE('',#83,#602,#611,.T.);
#611 = LINE('',#612,#613);
#612 = CARTESIAN_POINT('',(2.459745454616,-1.271869,0.));
#613 = VECTOR('',#614,1.);
#614 = DIRECTION('',(0.,0.,1.));
#615 = CYLINDRICAL_SURFACE('',#616,2.);
#616 = AXIS2_PLACEMENT_3D('',#617,#618,#619);
#617 = CARTESIAN_POINT('',(2.459745454616,-3.271869,0.));
#618 = DIRECTION('',(0.,0.,1.));
#619 = DIRECTION('',(0.,1.,0.));
#620 = ADVANCED_FACE('',(#621),#639,.F.);
#621 = FACE_BOUND('',#622,.F.);
#622 = EDGE_LOOP('',(#623,#624,#632,#638));
#623 = ORIENTED_EDGE('',*,*,#175,.F.);
#624 = ORIENTED_EDGE('',*,*,#625,.T.);
#625 = EDGE_CURVE('',#167,#626,#628,.T.);
#626 = VERTEX_POINT('',#627);
#627 = CARTESIAN_POINT('',(-5.078054695628,-3.993337410395,5.));
#628 = LINE('',#629,#630);
#629 = CARTESIAN_POINT('',(-5.078054695628,-3.993337410395,0.));
#630 = VECTOR('',#631,1.);
#631 = DIRECTION('',(0.,0.,1.));
#632 = ORIENTED_EDGE('',*,*,#633,.T.);
#633 = EDGE_CURVE('',#626,#576,#634,.T.);
#634 = LINE('',#635,#636);
#635 = CARTESIAN_POINT('',(-5.078054695628,-3.21463,5.));
#636 = VECTOR('',#637,1.);
#637 = DIRECTION('',(0.,-1.,0.));
#638 = ORIENTED_EDGE('',*,*,#575,.F.);
#639 = PLANE('',#640);
#640 = AXIS2_PLACEMENT_3D('',#641,#642,#643);
#641 = CARTESIAN_POINT('',(-5.078054695628,-3.21463,0.));
#642 = DIRECTION('',(1.,0.,0.));
#643 = DIRECTION('',(0.,-1.,0.));
#644 = ADVANCED_FACE('',(#645),#663,.F.);
#645 = FACE_BOUND('',#646,.F.);
#646 = EDGE_LOOP('',(#647,#648,#649,#657));
#647 = ORIENTED_EDGE('',*,*,#91,.F.);
#648 = ORIENTED_EDGE('',*,*,#610,.T.);
#649 = ORIENTED_EDGE('',*,*,#650,.T.);
#650 = EDGE_CURVE('',#602,#651,#653,.T.);
#651 = VERTEX_POINT('',#652);
#652 = CARTESIAN_POINT('',(2.121945304372,-1.271869,5.));
#653 = LINE('',#654,#655);
#654 = CARTESIAN_POINT('',(3.338781933978,-1.271869,5.));
#655 = VECTOR('',#656,1.);
#656 = DIRECTION('',(-1.,0.,0.));
#657 = ORIENTED_EDGE('',*,*,#658,.F.);
#658 = EDGE_CURVE('',#92,#651,#659,.T.);
#659 = LINE('',#660,#661);
#660 = CARTESIAN_POINT('',(2.121945304372,-1.271869,0.));
#661 = VECTOR('',#662,1.);
#662 = DIRECTION('',(0.,0.,1.));
#663 = PLANE('',#664);
#664 = AXIS2_PLACEMENT_3D('',#665,#666,#667);
#665 = CARTESIAN_POINT('',(3.338781933978,-1.271869,0.));
#666 = DIRECTION('',(0.,-1.,0.));
#667 = DIRECTION('',(-1.,0.,0.));
#668 = ADVANCED_FACE('',(#669),#688,.T.);
#669 = FACE_BOUND('',#670,.T.);
#670 = EDGE_LOOP('',(#671,#672,#673,#682));
#671 = ORIENTED_EDGE('',*,*,#166,.T.);
#672 = ORIENTED_EDGE('',*,*,#625,.T.);
#673 = ORIENTED_EDGE('',*,*,#674,.F.);
#674 = EDGE_CURVE('',#675,#626,#677,.T.);
#675 = VERTEX_POINT('',#676);
#676 = CARTESIAN_POINT('',(-4.551494105843,-2.640940906249,5.));
#677 = CIRCLE('',#678,2.);
#678 = AXIS2_PLACEMENT_3D('',#679,#680,#681);
#679 = CARTESIAN_POINT('',(-3.078054695628,-3.993337410395,5.));
#680 = DIRECTION('',(-0.,0.,1.));
#681 = DIRECTION('',(0.,-1.,0.));
#682 = ORIENTED_EDGE('',*,*,#683,.F.);
#683 = EDGE_CURVE('',#159,#675,#684,.T.);
#684 = LINE('',#685,#686);
#685 = CARTESIAN_POINT('',(-4.551494105843,-2.640940906249,0.));
#686 = VECTOR('',#687,1.);
#687 = DIRECTION('',(0.,0.,1.));
#688 = CYLINDRICAL_SURFACE('',#689,2.);
#689 = AXIS2_PLACEMENT_3D('',#690,#691,#692);
#690 = CARTESIAN_POINT('',(-3.078054695628,-3.993337410395,0.));
#691 = DIRECTION('',(0.,0.,1.));
#692 = DIRECTION('',(-0.736719705108,0.676198252073,0.));
#693 = ADVANCED_FACE('',(#694),#712,.T.);
#694 = FACE_BOUND('',#695,.T.);
#695 = EDGE_LOOP('',(#696,#697,#705,#711));
#696 = ORIENTED_EDGE('',*,*,#99,.F.);
#697 = ORIENTED_EDGE('',*,*,#698,.T.);
#698 = EDGE_CURVE('',#100,#699,#701,.T.);
#699 = VERTEX_POINT('',#700);
#700 = CARTESIAN_POINT('',(2.121945304372,26.728131,5.));
#701 = LINE('',#702,#703);
#702 = CARTESIAN_POINT('',(2.121945304372,26.728131,0.));
#703 = VECTOR('',#704,1.);
#704 = DIRECTION('',(0.,0.,1.));
#705 = ORIENTED_EDGE('',*,*,#706,.T.);
#706 = EDGE_CURVE('',#699,#651,#707,.T.);
#707 = LINE('',#708,#709);
#708 = CARTESIAN_POINT('',(2.121945304372,28.728131,5.));
#709 = VECTOR('',#710,1.);
#710 = DIRECTION('',(0.,-1.,0.));
#711 = ORIENTED_EDGE('',*,*,#658,.F.);
#712 = PLANE('',#713);
#713 = AXIS2_PLACEMENT_3D('',#714,#715,#716);
#714 = CARTESIAN_POINT('',(2.121945304372,28.728131,0.));
#715 = DIRECTION('',(1.,0.,0.));
#716 = DIRECTION('',(0.,-1.,0.));
#717 = ADVANCED_FACE('',(#718),#736,.T.);
#718 = FACE_BOUND('',#719,.T.);
#719 = EDGE_LOOP('',(#720,#721,#722,#730));
#720 = ORIENTED_EDGE('',*,*,#158,.F.);
#721 = ORIENTED_EDGE('',*,*,#683,.T.);
#722 = ORIENTED_EDGE('',*,*,#723,.T.);
#723 = EDGE_CURVE('',#675,#724,#726,.T.);
#724 = VERTEX_POINT('',#725);
#725 = CARTESIAN_POINT('',(-3.889294256087,-1.919472495855,5.));
#726 = LINE('',#727,#728);
#727 = CARTESIAN_POINT('',(-5.078054695628,-3.21463,5.));
#728 = VECTOR('',#729,1.);
#729 = DIRECTION('',(0.676198252073,0.736719705108,0.));
#730 = ORIENTED_EDGE('',*,*,#731,.F.);
#731 = EDGE_CURVE('',#150,#724,#732,.T.);
#732 = LINE('',#733,#734);
#733 = CARTESIAN_POINT('',(-3.889294256087,-1.919472495855,0.));
#734 = VECTOR('',#735,1.);
#735 = DIRECTION('',(0.,0.,1.));
#736 = PLANE('',#737);
#737 = AXIS2_PLACEMENT_3D('',#738,#739,#740);
#738 = CARTESIAN_POINT('',(-5.078054695628,-3.21463,0.));
#739 = DIRECTION('',(-0.736719705108,0.676198252073,0.));
#740 = DIRECTION('',(0.676198252073,0.736719705108,0.));
#741 = ADVANCED_FACE('',(#742),#761,.T.);
#742 = FACE_BOUND('',#743,.T.);
#743 = EDGE_LOOP('',(#744,#745,#753,#760));
#744 = ORIENTED_EDGE('',*,*,#107,.T.);
#745 = ORIENTED_EDGE('',*,*,#746,.T.);
#746 = EDGE_CURVE('',#108,#747,#749,.T.);
#747 = VERTEX_POINT('',#748);
#748 = CARTESIAN_POINT('',(0.121945304372,28.728131,5.));
#749 = LINE('',#750,#751);
#750 = CARTESIAN_POINT('',(0.121945304372,28.728131,0.));
#751 = VECTOR('',#752,1.);
#752 = DIRECTION('',(0.,0.,1.));
#753 = ORIENTED_EDGE('',*,*,#754,.F.);
#754 = EDGE_CURVE('',#699,#747,#755,.T.);
#755 = CIRCLE('',#756,2.);
#756 = AXIS2_PLACEMENT_3D('',#757,#758,#759);
#757 = CARTESIAN_POINT('',(0.121945304372,26.728131,5.));
#758 = DIRECTION('',(-0.,0.,1.));
#759 = DIRECTION('',(0.,-1.,0.));
#760 = ORIENTED_EDGE('',*,*,#698,.F.);
#761 = CYLINDRICAL_SURFACE('',#762,2.);
#762 = AXIS2_PLACEMENT_3D('',#763,#764,#765);
#763 = CARTESIAN_POINT('',(0.121945304372,26.728131,0.));
#764 = DIRECTION('',(0.,0.,1.));
#765 = DIRECTION('',(1.,0.,0.));
#766 = ADVANCED_FACE('',(#767),#786,.T.);
#767 = FACE_BOUND('',#768,.T.);
#768 = EDGE_LOOP('',(#769,#770,#771,#780));
#769 = ORIENTED_EDGE('',*,*,#149,.T.);
#770 = ORIENTED_EDGE('',*,*,#731,.T.);
#771 = ORIENTED_EDGE('',*,*,#772,.F.);
#772 = EDGE_CURVE('',#773,#724,#775,.T.);
#773 = VERTEX_POINT('',#774);
#774 = CARTESIAN_POINT('',(-2.415854845872,-1.271869,5.));
#775 = CIRCLE('',#776,2.);
#776 = AXIS2_PLACEMENT_3D('',#777,#778,#779);
#777 = CARTESIAN_POINT('',(-2.415854845872,-3.271869,5.));
#778 = DIRECTION('',(-0.,0.,1.));
#779 = DIRECTION('',(0.,-1.,0.));
#780 = ORIENTED_EDGE('',*,*,#781,.F.);
#781 = EDGE_CURVE('',#142,#773,#782,.T.);
#782 = LINE('',#783,#784);
#783 = CARTESIAN_POINT('',(-2.415854845872,-1.271869,0.));
#784 = VECTOR('',#785,1.);
#785 = DIRECTION('',(0.,0.,1.));
#786 = CYLINDRICAL_SURFACE('',#787,2.);
#787 = AXIS2_PLACEMENT_3D('',#788,#789,#790);
#788 = CARTESIAN_POINT('',(-2.415854845872,-3.271869,0.));
#789 = DIRECTION('',(0.,0.,1.));
#790 = DIRECTION('',(0.,1.,0.));
#791 = ADVANCED_FACE('',(#792),#810,.F.);
#792 = FACE_BOUND('',#793,.F.);
#793 = EDGE_LOOP('',(#794,#795,#796,#804));
#794 = ORIENTED_EDGE('',*,*,#116,.F.);
#795 = ORIENTED_EDGE('',*,*,#746,.T.);
#796 = ORIENTED_EDGE('',*,*,#797,.T.);
#797 = EDGE_CURVE('',#747,#798,#800,.T.);
#798 = VERTEX_POINT('',#799);
#799 = CARTESIAN_POINT('',(-7.805469562819E-02,28.728131,5.));
#800 = LINE('',#801,#802);
#801 = CARTESIAN_POINT('',(2.121945304372,28.728131,5.));
#802 = VECTOR('',#803,1.);
#803 = DIRECTION('',(-1.,0.,0.));
#804 = ORIENTED_EDGE('',*,*,#805,.F.);
#805 = EDGE_CURVE('',#117,#798,#806,.T.);
#806 = LINE('',#807,#808);
#807 = CARTESIAN_POINT('',(-7.805469562819E-02,28.728131,0.));
#808 = VECTOR('',#809,1.);
#809 = DIRECTION('',(0.,0.,1.));
#810 = PLANE('',#811);
#811 = AXIS2_PLACEMENT_3D('',#812,#813,#814);
#812 = CARTESIAN_POINT('',(2.121945304372,28.728131,0.));
#813 = DIRECTION('',(0.,-1.,0.));
#814 = DIRECTION('',(-1.,0.,0.));
#815 = ADVANCED_FACE('',(#816),#834,.T.);
#816 = FACE_BOUND('',#817,.T.);
#817 = EDGE_LOOP('',(#818,#819,#820,#828));
#818 = ORIENTED_EDGE('',*,*,#141,.F.);
#819 = ORIENTED_EDGE('',*,*,#781,.T.);
#820 = ORIENTED_EDGE('',*,*,#821,.T.);
#821 = EDGE_CURVE('',#773,#822,#824,.T.);
#822 = VERTEX_POINT('',#823);
#823 = CARTESIAN_POINT('',(-2.078054695628,-1.271869,5.));
#824 = LINE('',#825,#826);
#825 = CARTESIAN_POINT('',(-3.294891325234,-1.271869,5.));
#826 = VECTOR('',#827,1.);
#827 = DIRECTION('',(1.,0.,0.));
#828 = ORIENTED_EDGE('',*,*,#829,.F.);
#829 = EDGE_CURVE('',#134,#822,#830,.T.);
#830 = LINE('',#831,#832);
#831 = CARTESIAN_POINT('',(-2.078054695628,-1.271869,0.));
#832 = VECTOR('',#833,1.);
#833 = DIRECTION('',(0.,0.,1.));
#834 = PLANE('',#835);
#835 = AXIS2_PLACEMENT_3D('',#836,#837,#838);
#836 = CARTESIAN_POINT('',(-3.294891325234,-1.271869,0.));
#837 = DIRECTION('',(0.,1.,0.));
#838 = DIRECTION('',(1.,0.,0.));
#839 = ADVANCED_FACE('',(#840),#859,.T.);
#840 = FACE_BOUND('',#841,.T.);
#841 = EDGE_LOOP('',(#842,#843,#851,#858));
#842 = ORIENTED_EDGE('',*,*,#124,.T.);
#843 = ORIENTED_EDGE('',*,*,#844,.T.);
#844 = EDGE_CURVE('',#125,#845,#847,.T.);
#845 = VERTEX_POINT('',#846);
#846 = CARTESIAN_POINT('',(-2.078054695628,26.728131,5.));
#847 = LINE('',#848,#849);
#848 = CARTESIAN_POINT('',(-2.078054695628,26.728131,0.));
#849 = VECTOR('',#850,1.);
#850 = DIRECTION('',(0.,0.,1.));
#851 = ORIENTED_EDGE('',*,*,#852,.F.);
#852 = EDGE_CURVE('',#798,#845,#853,.T.);
#853 = CIRCLE('',#854,2.);
#854 = AXIS2_PLACEMENT_3D('',#855,#856,#857);
#855 = CARTESIAN_POINT('',(-7.805469562819E-02,26.728131,5.));
#856 = DIRECTION('',(-0.,0.,1.));
#857 = DIRECTION('',(0.,-1.,0.));
#858 = ORIENTED_EDGE('',*,*,#805,.F.);
#859 = CYLINDRICAL_SURFACE('',#860,2.);
#860 = AXIS2_PLACEMENT_3D('',#861,#862,#863);
#861 = CARTESIAN_POINT('',(-7.805469562819E-02,26.728131,0.));
#862 = DIRECTION('',(0.,0.,1.));
#863 = DIRECTION('',(0.,1.,0.));
#864 = ADVANCED_FACE('',(#865),#876,.F.);
#865 = FACE_BOUND('',#866,.F.);
#866 = EDGE_LOOP('',(#867,#868,#869,#875));
#867 = ORIENTED_EDGE('',*,*,#133,.F.);
#868 = ORIENTED_EDGE('',*,*,#844,.T.);
#869 = ORIENTED_EDGE('',*,*,#870,.T.);
#870 = EDGE_CURVE('',#845,#822,#871,.T.);
#871 = LINE('',#872,#873);
#872 = CARTESIAN_POINT('',(-2.078054695628,28.728131,5.));
#873 = VECTOR('',#874,1.);
#874 = DIRECTION('',(0.,-1.,0.));
#875 = ORIENTED_EDGE('',*,*,#829,.F.);
#876 = PLANE('',#877);
#877 = AXIS2_PLACEMENT_3D('',#878,#879,#880);
#878 = CARTESIAN_POINT('',(-2.078054695628,28.728131,0.));
#879 = DIRECTION('',(1.,0.,0.));
#880 = DIRECTION('',(0.,-1.,0.));
#881 = ADVANCED_FACE('',(#882),#910,.T.);
#882 = FACE_BOUND('',#883,.T.);
#883 = EDGE_LOOP('',(#884,#885,#886,#887,#888,#889,#890,#891,#892,#893,
    #894,#895,#896,#897,#898,#899,#900,#901,#902,#903,#904,#905,#906,
    #907,#908,#909));
#884 = ORIENTED_EDGE('',*,*,#258,.T.);
#885 = ORIENTED_EDGE('',*,*,#307,.F.);
#886 = ORIENTED_EDGE('',*,*,#356,.T.);
#887 = ORIENTED_EDGE('',*,*,#405,.F.);
#888 = ORIENTED_EDGE('',*,*,#454,.T.);
#889 = ORIENTED_EDGE('',*,*,#503,.F.);
#890 = ORIENTED_EDGE('',*,*,#559,.F.);
#891 = ORIENTED_EDGE('',*,*,#601,.F.);
#892 = ORIENTED_EDGE('',*,*,#650,.T.);
#893 = ORIENTED_EDGE('',*,*,#706,.F.);
#894 = ORIENTED_EDGE('',*,*,#754,.T.);
#895 = ORIENTED_EDGE('',*,*,#797,.T.);
#896 = ORIENTED_EDGE('',*,*,#852,.T.);
#897 = ORIENTED_EDGE('',*,*,#870,.T.);
#898 = ORIENTED_EDGE('',*,*,#821,.F.);
#899 = ORIENTED_EDGE('',*,*,#772,.T.);
#900 = ORIENTED_EDGE('',*,*,#723,.F.);
#901 = ORIENTED_EDGE('',*,*,#674,.T.);
#902 = ORIENTED_EDGE('',*,*,#633,.T.);
#903 = ORIENTED_EDGE('',*,*,#583,.F.);
#904 = ORIENTED_EDGE('',*,*,#535,.T.);
#905 = ORIENTED_EDGE('',*,*,#485,.F.);
#906 = ORIENTED_EDGE('',*,*,#437,.T.);
#907 = ORIENTED_EDGE('',*,*,#387,.F.);
#908 = ORIENTED_EDGE('',*,*,#339,.T.);
#909 = ORIENTED_EDGE('',*,*,#289,.F.);
#910 = PLANE('',#911);
#911 = AXIS2_PLACEMENT_3D('',#912,#913,#914);
#912 = CARTESIAN_POINT('',(2.194530437181E-02,4.891816252213,5.));
#913 = DIRECTION('',(0.,0.,1.));
#914 = DIRECTION('',(1.,0.,0.));
#915 = ( GEOMETRIC_REPRESENTATION_CONTEXT(3) 
GLOBAL_UNCERTAINTY_ASSIGNED_CONTEXT((#919)) GLOBAL_UNIT_ASSIGNED_CONTEXT
((#916,#917,#918)) REPRESENTATION_CONTEXT('Context #1',
  '3D Context with UNIT and UNCERTAINTY') );
#916 = ( LENGTH_UNIT() NAMED_UNIT(*) SI_UNIT(.MILLI.,.METRE.) );
#917 = ( NAMED_UNIT(*) PLANE_ANGLE_UNIT() SI_UNIT($,.RADIAN.) );
#918 = ( NAMED_UNIT(*) SI_UNIT($,.STERADIAN.) SOLID_ANGLE_UNIT() );
#919 = UNCERTAINTY_MEASURE_WITH_UNIT(LENGTH_MEASURE(1.E-07),#916,
  'distance_accuracy_value','confusion accuracy');
#920 = PRODUCT_RELATED_PRODUCT_CATEGORY('part',$,(#7));
ENDSEC;
END-ISO-10303-21;
