ISO-10303-21;
HEADER;
FILE_DESCRIPTION(('FreeCAD Model'),'2;1');
FILE_NAME('Open CASCADE Shape Model','2026-08-28T13:03:57',('FreeCAD'),(
    'FreeCAD'),'Open CASCADE STEP processor 7.8','FreeCAD','Unknown');
FILE_SCHEMA(('AUTOMOTIVE_DESIGN { 1 0 10303 214 1 1 1 1 }'));
ENDSEC;
DATA;
#1 = APPLICATION_PROTOCOL_DEFINITION('international standard',
  'automotive_design',2000,#2);
#2 = APPLICATION_CONTEXT(
  'core data for automotive mechanical design processes');
#3 = SHAPE_DEFINITION_REPRESENTATION(#4,#10);
#4 = PRODUCT_DEFINITION_SHAPE('','',#5);
#5 = PRODUCT_DEFINITION('design','',#6,#9);
#6 = PRODUCT_DEFINITION_FORMATION('','',#7);
#7 = PRODUCT('Open CASCADE STEP translator 7.8 11',
  'Open CASCADE STEP translator 7.8 11','',(#8));
#8 = PRODUCT_CONTEXT('',#2,'mechanical');
#9 = PRODUCT_DEFINITION_CONTEXT('part definition',#2,'design');
#10 = ADVANCED_BREP_SHAPE_REPRESENTATION('',(#11,#15),#610);
#11 = AXIS2_PLACEMENT_3D('',#12,#13,#14);
#12 = CARTESIAN_POINT('',(0.,0.,0.));
#13 = DIRECTION('',(0.,0.,1.));
#14 = DIRECTION('',(1.,0.,-0.));
#15 = MANIFOLD_SOLID_BREP('',#16);
#16 = CLOSED_SHELL('',(#17,#91,#164,#190,#215,#250,#286,#322,#395,#404,
    #413,#469,#495,#520,#556,#592,#601));
#17 = ADVANCED_FACE('',(#18,#75),#86,.T.);
#18 = FACE_BOUND('',#19,.T.);
#19 = EDGE_LOOP('',(#20,#31,#48,#49,#58,#67,#68));
#20 = ORIENTED_EDGE('',*,*,#21,.T.);
#21 = EDGE_CURVE('',#22,#24,#26,.T.);
#22 = VERTEX_POINT('',#23);
#23 = CARTESIAN_POINT('',(3.708099243548,-1.E-15,1.5));
#24 = VERTEX_POINT('',#25);
#25 = CARTESIAN_POINT('',(2.514285714286,-1.E-15,3.111007448872));
#26 = CIRCLE('',#27,4.);
#27 = AXIS2_PLACEMENT_3D('',#28,#29,#30);
#28 = CARTESIAN_POINT('',(0.,0.,0.));
#29 = DIRECTION('',(-2.4E-16,-1.,0.));
#30 = DIRECTION('',(1.,-2.4E-16,0.));
#31 = ORIENTED_EDGE('',*,*,#32,.T.);
#32 = EDGE_CURVE('',#24,#24,#33,.T.);
#33 = ( BOUNDED_CURVE() B_SPLINE_CURVE(13,(#34,#35,#36,#37,#38,#39,#40,
    #41,#42,#43,#44,#45,#46,#47),.UNSPECIFIED.,.T.,.F.) 
B_SPLINE_CURVE_WITH_KNOTS((14,14),(6.1E-16,8.796459430051),
.PIECEWISE_BEZIER_KNOTS.) CURVE() GEOMETRIC_REPRESENTATION_ITEM() 
RATIONAL_B_SPLINE_CURVE((1.,1.,1.000000000001,0.999999999998,
    1.000000000004,0.999999999995,1.000000000006,0.999999999994,
    1.000000000004,0.999999999998,1.000000000001,1.,1.,1.)) 
REPRESENTATION_ITEM('') );
#34 = CARTESIAN_POINT('',(2.514285714286,-6.2E-16,3.111007448872));
#35 = CARTESIAN_POINT('',(2.514285714287,-1.197630606117,3.111007448872)
  );
#36 = CARTESIAN_POINT('',(1.895310703111,-2.422879476533,3.111007448872)
  );
#37 = CARTESIAN_POINT('',(0.62154680174,-3.298984551288,3.111007448873)
  );
#38 = CARTESIAN_POINT('',(-1.131314005885,-3.43353759419,3.111007448873)
  );
#39 = CARTESIAN_POINT('',(-2.645577107492,-2.499748266198,3.111007448868
    ));
#40 = CARTESIAN_POINT('',(-3.756130026627,-1.136624464227,3.111007448882
    ));
#41 = CARTESIAN_POINT('',(-3.756130026662,1.13662446424,3.11100744886));
#42 = CARTESIAN_POINT('',(-2.645577107478,2.499748266175,3.111007448882)
  );
#43 = CARTESIAN_POINT('',(-1.131314005881,3.43353759421,3.111007448867)
  );
#44 = CARTESIAN_POINT('',(0.62154680173,3.298984551278,3.111007448874));
#45 = CARTESIAN_POINT('',(1.895310703116,2.422879476535,3.111007448872)
  );
#46 = CARTESIAN_POINT('',(2.514285714285,1.197630606117,3.111007448872)
  );
#47 = CARTESIAN_POINT('',(2.514285714286,0.,3.111007448872));
#48 = ORIENTED_EDGE('',*,*,#21,.F.);
#49 = ORIENTED_EDGE('',*,*,#50,.T.);
#50 = EDGE_CURVE('',#22,#51,#53,.T.);
#51 = VERTEX_POINT('',#52);
#52 = CARTESIAN_POINT('',(3.708099243548,-1.E-15,-1.5));
#53 = CIRCLE('',#54,1.5);
#54 = AXIS2_PLACEMENT_3D('',#55,#56,#57);
#55 = CARTESIAN_POINT('',(3.708099243548,0.,-8.2E-16));
#56 = DIRECTION('',(-1.,0.,2.2E-16));
#57 = DIRECTION('',(-2.2E-16,0.,-1.));
#58 = ORIENTED_EDGE('',*,*,#59,.F.);
#59 = EDGE_CURVE('',#60,#51,#62,.T.);
#60 = VERTEX_POINT('',#61);
#61 = CARTESIAN_POINT('',(0.,0.,-4.));
#62 = CIRCLE('',#63,4.);
#63 = AXIS2_PLACEMENT_3D('',#64,#65,#66);
#64 = CARTESIAN_POINT('',(0.,0.,0.));
#65 = DIRECTION('',(-2.4E-16,-1.,0.));
#66 = DIRECTION('',(1.,-2.4E-16,0.));
#67 = ORIENTED_EDGE('',*,*,#59,.T.);
#68 = ORIENTED_EDGE('',*,*,#69,.T.);
#69 = EDGE_CURVE('',#51,#22,#70,.T.);
#70 = CIRCLE('',#71,1.5);
#71 = AXIS2_PLACEMENT_3D('',#72,#73,#74);
#72 = CARTESIAN_POINT('',(3.708099243548,0.,-8.2E-16));
#73 = DIRECTION('',(-1.,0.,2.2E-16));
#74 = DIRECTION('',(-2.2E-16,0.,-1.));
#75 = FACE_BOUND('',#76,.T.);
#76 = EDGE_LOOP('',(#77));
#77 = ORIENTED_EDGE('',*,*,#78,.F.);
#78 = EDGE_CURVE('',#79,#79,#81,.T.);
#79 = VERTEX_POINT('',#80);
#80 = CARTESIAN_POINT('',(-3.708099243548,0.,-1.5));
#81 = CIRCLE('',#82,1.5);
#82 = AXIS2_PLACEMENT_3D('',#83,#84,#85);
#83 = CARTESIAN_POINT('',(-3.708099243548,0.,8.2E-16));
#84 = DIRECTION('',(-1.,0.,2.2E-16));
#85 = DIRECTION('',(-2.2E-16,0.,-1.));
#86 = SPHERICAL_SURFACE('',#87,4.);
#87 = AXIS2_PLACEMENT_3D('',#88,#89,#90);
#88 = CARTESIAN_POINT('',(0.,0.,0.));
#89 = DIRECTION('',(0.,0.,1.));
#90 = DIRECTION('',(1.,0.,0.));
#91 = ADVANCED_FACE('',(#92),#121,.T.);
#92 = FACE_BOUND('',#93,.T.);
#93 = EDGE_LOOP('',(#94,#102,#119,#120));
#94 = ORIENTED_EDGE('',*,*,#95,.T.);
#95 = EDGE_CURVE('',#24,#96,#98,.T.);
#96 = VERTEX_POINT('',#97);
#97 = CARTESIAN_POINT('',(1.4,0.,5.444263035526));
#98 = ( BOUNDED_CURVE() B_SPLINE_CURVE(2,(#99,#100,#101),.UNSPECIFIED.,
.F.,.F.) B_SPLINE_CURVE_WITH_KNOTS((3,3),(0.,8.796459430051),
.PIECEWISE_BEZIER_KNOTS.) CURVE() GEOMETRIC_REPRESENTATION_ITEM() 
RATIONAL_B_SPLINE_CURVE((1.,0.902377811277,1.)) REPRESENTATION_ITEM('') 
  );
#99 = CARTESIAN_POINT('',(2.514285714286,-6.2E-16,3.111007448872));
#100 = CARTESIAN_POINT('',(1.4,2.9E-16,4.011562236704));
#101 = CARTESIAN_POINT('',(1.4,-3.4E-16,5.444263035526));
#102 = ORIENTED_EDGE('',*,*,#103,.T.);
#103 = EDGE_CURVE('',#96,#96,#104,.T.);
#104 = ( BOUNDED_CURVE() B_SPLINE_CURVE(13,(#105,#106,#107,#108,#109,
    #110,#111,#112,#113,#114,#115,#116,#117,#118),.UNSPECIFIED.,.T.,.F.)
 B_SPLINE_CURVE_WITH_KNOTS((14,14),(6.1E-16,8.796459430051),
.PIECEWISE_BEZIER_KNOTS.) CURVE() GEOMETRIC_REPRESENTATION_ITEM() 
RATIONAL_B_SPLINE_CURVE((1.,1.,1.000000000001,0.999999999998,
    1.000000000004,0.999999999995,1.000000000006,0.999999999994,
    1.000000000004,0.999999999998,1.000000000001,1.,1.,1.)) 
REPRESENTATION_ITEM('') );
#105 = CARTESIAN_POINT('',(1.4,-3.4E-16,5.444263035526));
#106 = CARTESIAN_POINT('',(1.4,-0.666862496588,5.444263035527));
#107 = CARTESIAN_POINT('',(1.055343459688,-1.349103344887,5.444263035526
    ));
#108 = CARTESIAN_POINT('',(0.346088560057,-1.836934579694,5.444263035527
    ));
#109 = CARTESIAN_POINT('',(-0.629936207819,-1.911856160404,
    5.444263035528));
#110 = CARTESIAN_POINT('',(-1.473105434856,-1.391905284579,
    5.444263035521));
#111 = CARTESIAN_POINT('',(-2.091481492099,-0.632893167594,
    5.444263035537));
#112 = CARTESIAN_POINT('',(-2.091481492117,0.632893167601,5.444263035514
    ));
#113 = CARTESIAN_POINT('',(-1.473105434847,1.391905284566,5.444263035536
    ));
#114 = CARTESIAN_POINT('',(-0.62993620782,1.911856160416,5.444263035521)
  );
#115 = CARTESIAN_POINT('',(0.346088560055,1.836934579688,5.444263035528)
  );
#116 = CARTESIAN_POINT('',(1.055343459689,1.349103344889,5.444263035526)
  );
#117 = CARTESIAN_POINT('',(1.4,0.666862496588,5.444263035526));
#118 = CARTESIAN_POINT('',(1.4,0.,5.444263035526));
#119 = ORIENTED_EDGE('',*,*,#95,.F.);
#120 = ORIENTED_EDGE('',*,*,#32,.F.);
#121 = ( BOUNDED_SURFACE() B_SPLINE_SURFACE(2,13,(
    (#122,#123,#124,#125,#126,#127,#128,#129,#130,#131,#132,#133,#134
      ,#135)
    ,(#136,#137,#138,#139,#140,#141,#142,#143,#144,#145,#146,#147,#148
      ,#149)
    ,(#150,#151,#152,#153,#154,#155,#156,#157,#158,#159,#160,#161,#162
,#163
    )),.UNSPECIFIED.,.F.,.T.,.F.) B_SPLINE_SURFACE_WITH_KNOTS((3,3),(14,
    14),(0.,8.796459430051),(6.1E-16,8.796459430051),
.PIECEWISE_BEZIER_KNOTS.) GEOMETRIC_REPRESENTATION_ITEM() 
RATIONAL_B_SPLINE_SURFACE((
    (1.,1.,1.000000000001,0.999999999998,1.000000000004,0.999999999995
      ,1.000000000006,0.999999999994,1.000000000004,0.999999999998
      ,1.000000000001,1.,1.,1.)
    ,(0.902377811277,0.902377811277,0.902377811278,0.902377811275
      ,0.902377811282,0.90237781127,0.902377811285,0.90237781127
      ,0.902377811283,0.902377811274,0.902377811279,0.902377811277
      ,0.902377811278,0.902377811277)
    ,(1.,1.,1.000000000001,0.999999999998,1.000000000004,0.999999999995
      ,1.000000000006,0.999999999994,1.000000000004,0.999999999998
,1.000000000001,1.,1.,1.))) REPRESENTATION_ITEM('') SURFACE() );
#122 = CARTESIAN_POINT('',(2.514285714286,-6.2E-16,3.111007448872));
#123 = CARTESIAN_POINT('',(2.514285714287,-1.197630606117,3.111007448872
    ));
#124 = CARTESIAN_POINT('',(1.895310703111,-2.422879476533,3.111007448872
    ));
#125 = CARTESIAN_POINT('',(0.62154680174,-3.298984551288,3.111007448873)
  );
#126 = CARTESIAN_POINT('',(-1.131314005885,-3.43353759419,3.111007448873
    ));
#127 = CARTESIAN_POINT('',(-2.645577107492,-2.499748266198,
    3.111007448868));
#128 = CARTESIAN_POINT('',(-3.756130026627,-1.136624464227,
    3.111007448882));
#129 = CARTESIAN_POINT('',(-3.756130026662,1.13662446424,3.11100744886)
  );
#130 = CARTESIAN_POINT('',(-2.645577107478,2.499748266175,3.111007448882
    ));
#131 = CARTESIAN_POINT('',(-1.131314005881,3.43353759421,3.111007448867)
  );
#132 = CARTESIAN_POINT('',(0.62154680173,3.298984551278,3.111007448874)
  );
#133 = CARTESIAN_POINT('',(1.895310703116,2.422879476535,3.111007448872)
  );
#134 = CARTESIAN_POINT('',(2.514285714285,1.197630606117,3.111007448872)
  );
#135 = CARTESIAN_POINT('',(2.514285714286,0.,3.111007448872));
#136 = CARTESIAN_POINT('',(1.4,2.9E-16,4.011562236704));
#137 = CARTESIAN_POINT('',(1.400000000001,-0.666862496588,4.011562236704
    ));
#138 = CARTESIAN_POINT('',(1.055343459687,-1.349103344887,4.011562236704
    ));
#139 = CARTESIAN_POINT('',(0.34608856006,-1.836934579696,4.011562236704)
  );
#140 = CARTESIAN_POINT('',(-0.629936207821,-1.911856160397,
    4.011562236705));
#141 = CARTESIAN_POINT('',(-1.473105434859,-1.391905284594,
    4.011562236701));
#142 = CARTESIAN_POINT('',(-2.09148149209,-0.632893167574,4.011562236709
    ));
#143 = CARTESIAN_POINT('',(-2.091481492127,0.632893167585,4.011562236697
    ));
#144 = CARTESIAN_POINT('',(-1.47310543484,1.391905284575,4.011562236709)
  );
#145 = CARTESIAN_POINT('',(-0.629936207822,1.911856160415,4.011562236701
    ));
#146 = CARTESIAN_POINT('',(0.346088560054,1.836934579687,4.011562236705)
  );
#147 = CARTESIAN_POINT('',(1.05534345969,1.34910334489,4.011562236704));
#148 = CARTESIAN_POINT('',(1.4,0.666862496588,4.011562236704));
#149 = CARTESIAN_POINT('',(1.4,-2.13E-15,4.011562236704));
#150 = CARTESIAN_POINT('',(1.4,-3.4E-16,5.444263035526));
#151 = CARTESIAN_POINT('',(1.4,-0.666862496588,5.444263035527));
#152 = CARTESIAN_POINT('',(1.055343459688,-1.349103344887,5.444263035526
    ));
#153 = CARTESIAN_POINT('',(0.346088560057,-1.836934579694,5.444263035527
    ));
#154 = CARTESIAN_POINT('',(-0.629936207819,-1.911856160404,
    5.444263035528));
#155 = CARTESIAN_POINT('',(-1.473105434856,-1.391905284579,
    5.444263035521));
#156 = CARTESIAN_POINT('',(-2.091481492099,-0.632893167594,
    5.444263035537));
#157 = CARTESIAN_POINT('',(-2.091481492117,0.632893167601,5.444263035514
    ));
#158 = CARTESIAN_POINT('',(-1.473105434847,1.391905284566,5.444263035536
    ));
#159 = CARTESIAN_POINT('',(-0.62993620782,1.911856160416,5.444263035521)
  );
#160 = CARTESIAN_POINT('',(0.346088560055,1.836934579688,5.444263035528)
  );
#161 = CARTESIAN_POINT('',(1.055343459689,1.349103344889,5.444263035526)
  );
#162 = CARTESIAN_POINT('',(1.4,0.666862496588,5.444263035526));
#163 = CARTESIAN_POINT('',(1.4,0.,5.444263035526));
#164 = ADVANCED_FACE('',(#165),#185,.T.);
#165 = FACE_BOUND('',#166,.F.);
#166 = EDGE_LOOP('',(#167,#168,#176,#183,#184));
#167 = ORIENTED_EDGE('',*,*,#50,.T.);
#168 = ORIENTED_EDGE('',*,*,#169,.T.);
#169 = EDGE_CURVE('',#51,#170,#172,.T.);
#170 = VERTEX_POINT('',#171);
#171 = CARTESIAN_POINT('',(5.,0.,-1.5));
#172 = LINE('',#173,#174);
#173 = CARTESIAN_POINT('',(-6.,-3.7E-16,-1.5));
#174 = VECTOR('',#175,1.);
#175 = DIRECTION('',(1.,0.,0.));
#176 = ORIENTED_EDGE('',*,*,#177,.T.);
#177 = EDGE_CURVE('',#170,#170,#178,.T.);
#178 = CIRCLE('',#179,1.5);
#179 = AXIS2_PLACEMENT_3D('',#180,#181,#182);
#180 = CARTESIAN_POINT('',(5.,0.,-2.44E-15));
#181 = DIRECTION('',(1.,0.,-2.2E-16));
#182 = DIRECTION('',(-2.2E-16,0.,-1.));
#183 = ORIENTED_EDGE('',*,*,#169,.F.);
#184 = ORIENTED_EDGE('',*,*,#69,.T.);
#185 = CYLINDRICAL_SURFACE('',#186,1.5);
#186 = AXIS2_PLACEMENT_3D('',#187,#188,#189);
#187 = CARTESIAN_POINT('',(-6.,0.,0.));
#188 = DIRECTION('',(-1.,-0.,0.));
#189 = DIRECTION('',(0.,0.,-1.));
#190 = ADVANCED_FACE('',(#191),#210,.T.);
#191 = FACE_BOUND('',#192,.F.);
#192 = EDGE_LOOP('',(#193,#194,#202,#209));
#193 = ORIENTED_EDGE('',*,*,#78,.F.);
#194 = ORIENTED_EDGE('',*,*,#195,.F.);
#195 = EDGE_CURVE('',#196,#79,#198,.T.);
#196 = VERTEX_POINT('',#197);
#197 = CARTESIAN_POINT('',(-5.,0.,-1.5));
#198 = LINE('',#199,#200);
#199 = CARTESIAN_POINT('',(-6.,-3.7E-16,-1.5));
#200 = VECTOR('',#201,1.);
#201 = DIRECTION('',(1.,0.,0.));
#202 = ORIENTED_EDGE('',*,*,#203,.F.);
#203 = EDGE_CURVE('',#196,#196,#204,.T.);
#204 = CIRCLE('',#205,1.5);
#205 = AXIS2_PLACEMENT_3D('',#206,#207,#208);
#206 = CARTESIAN_POINT('',(-5.,0.,-2.2E-16));
#207 = DIRECTION('',(1.,0.,-2.2E-16));
#208 = DIRECTION('',(-2.2E-16,0.,-1.));
#209 = ORIENTED_EDGE('',*,*,#195,.T.);
#210 = CYLINDRICAL_SURFACE('',#211,1.5);
#211 = AXIS2_PLACEMENT_3D('',#212,#213,#214);
#212 = CARTESIAN_POINT('',(-6.,0.,0.));
#213 = DIRECTION('',(-1.,-0.,0.));
#214 = DIRECTION('',(0.,0.,-1.));
#215 = ADVANCED_FACE('',(#216),#245,.T.);
#216 = FACE_BOUND('',#217,.F.);
#217 = EDGE_LOOP('',(#218,#226,#227,#228));
#218 = ORIENTED_EDGE('',*,*,#219,.F.);
#219 = EDGE_CURVE('',#96,#220,#222,.T.);
#220 = VERTEX_POINT('',#221);
#221 = CARTESIAN_POINT('',(1.4,0.,22.555736964474));
#222 = LINE('',#223,#224);
#223 = CARTESIAN_POINT('',(1.4,-3.4E-16,0.));
#224 = VECTOR('',#225,1.);
#225 = DIRECTION('',(0.,0.,1.));
#226 = ORIENTED_EDGE('',*,*,#103,.T.);
#227 = ORIENTED_EDGE('',*,*,#219,.T.);
#228 = ORIENTED_EDGE('',*,*,#229,.F.);
#229 = EDGE_CURVE('',#220,#220,#230,.T.);
#230 = ( BOUNDED_CURVE() B_SPLINE_CURVE(13,(#231,#232,#233,#234,#235,
    #236,#237,#238,#239,#240,#241,#242,#243,#244),.UNSPECIFIED.,.T.,.F.)
 B_SPLINE_CURVE_WITH_KNOTS((14,14),(6.1E-16,8.796459430051),
.PIECEWISE_BEZIER_KNOTS.) CURVE() GEOMETRIC_REPRESENTATION_ITEM() 
RATIONAL_B_SPLINE_CURVE((1.,1.,1.000000000001,0.999999999998,
    1.000000000004,0.999999999995,1.000000000006,0.999999999994,
    1.000000000004,0.999999999998,1.000000000001,1.,1.,1.)) 
REPRESENTATION_ITEM('') );
#231 = CARTESIAN_POINT('',(1.4,-3.4E-16,22.555736964474));
#232 = CARTESIAN_POINT('',(1.4,-0.666862496588,22.555736964474));
#233 = CARTESIAN_POINT('',(1.055343459687,-1.349103344887,
    22.555736964473));
#234 = CARTESIAN_POINT('',(0.346088560059,-1.836934579694,
    22.555736964475));
#235 = CARTESIAN_POINT('',(-0.629936207822,-1.911856160405,
    22.55573696447));
#236 = CARTESIAN_POINT('',(-1.473105434851,-1.391905284577,
    22.555736964482));
#237 = CARTESIAN_POINT('',(-2.091481492105,-0.632893167597,
    22.555736964459));
#238 = CARTESIAN_POINT('',(-2.091481492112,0.632893167605,22.55573696449
    ));
#239 = CARTESIAN_POINT('',(-1.47310543485,1.391905284563,22.55573696446)
  );
#240 = CARTESIAN_POINT('',(-0.629936207818,1.911856160418,
    22.555736964481));
#241 = CARTESIAN_POINT('',(0.346088560054,1.836934579688,22.555736964471
    ));
#242 = CARTESIAN_POINT('',(1.05534345969,1.349103344889,22.555736964474)
  );
#243 = CARTESIAN_POINT('',(1.4,0.666862496588,22.555736964473));
#244 = CARTESIAN_POINT('',(1.4,0.,22.555736964474));
#245 = CYLINDRICAL_SURFACE('',#246,1.4);
#246 = AXIS2_PLACEMENT_3D('',#247,#248,#249);
#247 = CARTESIAN_POINT('',(0.,0.,0.));
#248 = DIRECTION('',(-0.,-0.,-1.));
#249 = DIRECTION('',(1.,0.,0.));
#250 = ADVANCED_FACE('',(#251),#271,.T.);
#251 = FACE_BOUND('',#252,.T.);
#252 = EDGE_LOOP('',(#253,#262,#263,#264));
#253 = ORIENTED_EDGE('',*,*,#254,.F.);
#254 = EDGE_CURVE('',#170,#255,#257,.T.);
#255 = VERTEX_POINT('',#256);
#256 = CARTESIAN_POINT('',(6.,0.,-0.5));
#257 = CIRCLE('',#258,1.);
#258 = AXIS2_PLACEMENT_3D('',#259,#260,#261);
#259 = CARTESIAN_POINT('',(5.,0.,-0.5));
#260 = DIRECTION('',(0.,-1.,-0.));
#261 = DIRECTION('',(-2.2E-16,0.,-1.));
#262 = ORIENTED_EDGE('',*,*,#177,.T.);
#263 = ORIENTED_EDGE('',*,*,#254,.T.);
#264 = ORIENTED_EDGE('',*,*,#265,.F.);
#265 = EDGE_CURVE('',#255,#255,#266,.T.);
#266 = CIRCLE('',#267,0.5);
#267 = AXIS2_PLACEMENT_3D('',#268,#269,#270);
#268 = CARTESIAN_POINT('',(6.,0.,-2.66E-15));
#269 = DIRECTION('',(1.,0.,-2.2E-16));
#270 = DIRECTION('',(-2.2E-16,0.,-1.));
#271 = SURFACE_OF_REVOLUTION('',#272,#283);
#272 = B_SPLINE_CURVE_WITH_KNOTS('',5,(#273,#274,#275,#276,#277,#278,
    #279,#280,#281,#282),.UNSPECIFIED.,.F.,.F.,(6,4,6),(0.,
    0.785398163397,1.570796326795),.UNSPECIFIED.);
#273 = CARTESIAN_POINT('',(5.,0.,-1.5));
#274 = CARTESIAN_POINT('',(5.157079632679,0.,-1.5));
#275 = CARTESIAN_POINT('',(5.314161753982,0.,-1.469164407054));
#276 = CARTESIAN_POINT('',(5.463156817683,0.,-1.407448630943));
#277 = CARTESIAN_POINT('',(5.596034707733,0.,-1.318178854641));
#278 = CARTESIAN_POINT('',(5.818178854641,0.,-1.096034707733));
#279 = CARTESIAN_POINT('',(5.907448630943,0.,-0.963156817683));
#280 = CARTESIAN_POINT('',(5.969164407054,0.,-0.814161753982));
#281 = CARTESIAN_POINT('',(6.,0.,-0.657079632679));
#282 = CARTESIAN_POINT('',(6.,0.,-0.5));
#283 = AXIS1_PLACEMENT('',#284,#285);
#284 = CARTESIAN_POINT('',(5.,0.,-2.44E-15));
#285 = DIRECTION('',(1.,0.,-2.2E-16));
#286 = ADVANCED_FACE('',(#287),#307,.T.);
#287 = FACE_BOUND('',#288,.F.);
#288 = EDGE_LOOP('',(#289,#298,#299,#300));
#289 = ORIENTED_EDGE('',*,*,#290,.F.);
#290 = EDGE_CURVE('',#196,#291,#293,.T.);
#291 = VERTEX_POINT('',#292);
#292 = CARTESIAN_POINT('',(-6.,0.,-0.5));
#293 = CIRCLE('',#294,1.);
#294 = AXIS2_PLACEMENT_3D('',#295,#296,#297);
#295 = CARTESIAN_POINT('',(-5.,0.,-0.5));
#296 = DIRECTION('',(0.,1.,0.));
#297 = DIRECTION('',(-2.2E-16,0.,-1.));
#298 = ORIENTED_EDGE('',*,*,#203,.F.);
#299 = ORIENTED_EDGE('',*,*,#290,.T.);
#300 = ORIENTED_EDGE('',*,*,#301,.T.);
#301 = EDGE_CURVE('',#291,#291,#302,.T.);
#302 = CIRCLE('',#303,0.5);
#303 = AXIS2_PLACEMENT_3D('',#304,#305,#306);
#304 = CARTESIAN_POINT('',(-6.,0.,0.));
#305 = DIRECTION('',(1.,0.,-2.2E-16));
#306 = DIRECTION('',(-2.2E-16,0.,-1.));
#307 = SURFACE_OF_REVOLUTION('',#308,#319);
#308 = B_SPLINE_CURVE_WITH_KNOTS('',5,(#309,#310,#311,#312,#313,#314,
    #315,#316,#317,#318),.UNSPECIFIED.,.F.,.F.,(6,4,6),(0.,
    0.785398163397,1.570796326795),.UNSPECIFIED.);
#309 = CARTESIAN_POINT('',(-5.,0.,-1.5));
#310 = CARTESIAN_POINT('',(-5.157079632679,0.,-1.5));
#311 = CARTESIAN_POINT('',(-5.314161753982,0.,-1.469164407054));
#312 = CARTESIAN_POINT('',(-5.463156817683,0.,-1.407448630943));
#313 = CARTESIAN_POINT('',(-5.596034707733,0.,-1.318178854641));
#314 = CARTESIAN_POINT('',(-5.818178854641,0.,-1.096034707733));
#315 = CARTESIAN_POINT('',(-5.907448630943,0.,-0.963156817683));
#316 = CARTESIAN_POINT('',(-5.969164407054,0.,-0.814161753982));
#317 = CARTESIAN_POINT('',(-6.,0.,-0.657079632679));
#318 = CARTESIAN_POINT('',(-6.,0.,-0.5));
#319 = AXIS1_PLACEMENT('',#320,#321);
#320 = CARTESIAN_POINT('',(-5.,0.,-2.2E-16));
#321 = DIRECTION('',(-1.,0.,2.2E-16));
#322 = ADVANCED_FACE('',(#323),#352,.T.);
#323 = FACE_BOUND('',#324,.T.);
#324 = EDGE_LOOP('',(#325,#333,#350,#351));
#325 = ORIENTED_EDGE('',*,*,#326,.T.);
#326 = EDGE_CURVE('',#220,#327,#329,.T.);
#327 = VERTEX_POINT('',#328);
#328 = CARTESIAN_POINT('',(2.514285714286,-1.E-15,24.888992551128));
#329 = ( BOUNDED_CURVE() B_SPLINE_CURVE(2,(#330,#331,#332),
.UNSPECIFIED.,.F.,.F.) B_SPLINE_CURVE_WITH_KNOTS((3,3),(0.,
8.796459430051),.PIECEWISE_BEZIER_KNOTS.) CURVE() 
GEOMETRIC_REPRESENTATION_ITEM() RATIONAL_B_SPLINE_CURVE((1.,
0.902377811277,1.)) REPRESENTATION_ITEM('') );
#330 = CARTESIAN_POINT('',(1.4,-3.4E-16,22.555736964474));
#331 = CARTESIAN_POINT('',(1.4,9.8E-16,23.988437763296));
#332 = CARTESIAN_POINT('',(2.514285714286,-6.2E-16,24.888992551128));
#333 = ORIENTED_EDGE('',*,*,#334,.T.);
#334 = EDGE_CURVE('',#327,#327,#335,.T.);
#335 = ( BOUNDED_CURVE() B_SPLINE_CURVE(13,(#336,#337,#338,#339,#340,
    #341,#342,#343,#344,#345,#346,#347,#348,#349),.UNSPECIFIED.,.T.,.F.)
 B_SPLINE_CURVE_WITH_KNOTS((14,14),(6.1E-16,8.796459430051),
.PIECEWISE_BEZIER_KNOTS.) CURVE() GEOMETRIC_REPRESENTATION_ITEM() 
RATIONAL_B_SPLINE_CURVE((1.,1.,1.000000000001,0.999999999998,
    1.000000000004,0.999999999995,1.000000000006,0.999999999994,
    1.000000000004,0.999999999998,1.000000000001,1.,1.,1.)) 
REPRESENTATION_ITEM('') );
#336 = CARTESIAN_POINT('',(2.514285714286,-6.2E-16,24.888992551128));
#337 = CARTESIAN_POINT('',(2.514285714287,-1.197630606117,
    24.888992551128));
#338 = CARTESIAN_POINT('',(1.895310703111,-2.422879476533,
    24.888992551128));
#339 = CARTESIAN_POINT('',(0.621546801739,-3.298984551287,
    24.888992551128));
#340 = CARTESIAN_POINT('',(-1.131314005884,-3.433537594192,
    24.888992551126));
#341 = CARTESIAN_POINT('',(-2.645577107493,-2.499748266196,
    24.888992551134));
#342 = CARTESIAN_POINT('',(-3.756130026625,-1.136624464228,
    24.888992551116));
#343 = CARTESIAN_POINT('',(-3.756130026664,1.13662446424,24.888992551141
    ));
#344 = CARTESIAN_POINT('',(-2.645577107477,2.499748266176,
    24.888992551117));
#345 = CARTESIAN_POINT('',(-1.131314005881,3.43353759421,24.888992551133
    ));
#346 = CARTESIAN_POINT('',(0.621546801731,3.298984551278,24.888992551126
    ));
#347 = CARTESIAN_POINT('',(1.895310703116,2.422879476535,24.888992551128
    ));
#348 = CARTESIAN_POINT('',(2.514285714285,1.197630606117,24.888992551128
    ));
#349 = CARTESIAN_POINT('',(2.514285714286,0.,24.888992551128));
#350 = ORIENTED_EDGE('',*,*,#326,.F.);
#351 = ORIENTED_EDGE('',*,*,#229,.F.);
#352 = ( BOUNDED_SURFACE() B_SPLINE_SURFACE(2,13,(
    (#353,#354,#355,#356,#357,#358,#359,#360,#361,#362,#363,#364,#365
      ,#366)
    ,(#367,#368,#369,#370,#371,#372,#373,#374,#375,#376,#377,#378,#379
      ,#380)
    ,(#381,#382,#383,#384,#385,#386,#387,#388,#389,#390,#391,#392,#393
,#394
    )),.UNSPECIFIED.,.F.,.T.,.F.) B_SPLINE_SURFACE_WITH_KNOTS((3,3),(14,
    14),(0.,8.796459430051),(6.1E-16,8.796459430051),
.PIECEWISE_BEZIER_KNOTS.) GEOMETRIC_REPRESENTATION_ITEM() 
RATIONAL_B_SPLINE_SURFACE((
    (1.,1.,1.000000000001,0.999999999998,1.000000000004,0.999999999995
      ,1.000000000006,0.999999999994,1.000000000004,0.999999999998
      ,1.000000000001,1.,1.,1.)
    ,(0.902377811277,0.902377811277,0.902377811278,0.902377811275
      ,0.902377811281,0.902377811272,0.902377811283,0.902377811272
      ,0.902377811281,0.902377811275,0.902377811279,0.902377811277
      ,0.902377811277,0.902377811277)
    ,(1.,1.,1.000000000001,0.999999999998,1.000000000004,0.999999999995
      ,1.000000000006,0.999999999994,1.000000000004,0.999999999998
,1.000000000001,1.,1.,1.))) REPRESENTATION_ITEM('') SURFACE() );
#353 = CARTESIAN_POINT('',(1.4,-3.4E-16,22.555736964474));
#354 = CARTESIAN_POINT('',(1.4,-0.666862496588,22.555736964474));
#355 = CARTESIAN_POINT('',(1.055343459687,-1.349103344887,
    22.555736964473));
#356 = CARTESIAN_POINT('',(0.346088560059,-1.836934579694,
    22.555736964475));
#357 = CARTESIAN_POINT('',(-0.629936207822,-1.911856160405,
    22.55573696447));
#358 = CARTESIAN_POINT('',(-1.473105434851,-1.391905284577,
    22.555736964482));
#359 = CARTESIAN_POINT('',(-2.091481492105,-0.632893167597,
    22.555736964459));
#360 = CARTESIAN_POINT('',(-2.091481492112,0.632893167605,22.55573696449
    ));
#361 = CARTESIAN_POINT('',(-1.47310543485,1.391905284563,22.55573696446)
  );
#362 = CARTESIAN_POINT('',(-0.629936207818,1.911856160418,
    22.555736964481));
#363 = CARTESIAN_POINT('',(0.346088560054,1.836934579688,22.555736964471
    ));
#364 = CARTESIAN_POINT('',(1.05534345969,1.349103344889,22.555736964474)
  );
#365 = CARTESIAN_POINT('',(1.4,0.666862496588,22.555736964473));
#366 = CARTESIAN_POINT('',(1.4,0.,22.555736964474));
#367 = CARTESIAN_POINT('',(1.4,9.8E-16,23.988437763296));
#368 = CARTESIAN_POINT('',(1.400000000001,-0.666862496588,
    23.988437763296));
#369 = CARTESIAN_POINT('',(1.055343459687,-1.349103344887,
    23.988437763296));
#370 = CARTESIAN_POINT('',(0.34608856006,-1.836934579697,23.988437763297
    ));
#371 = CARTESIAN_POINT('',(-0.629936207822,-1.911856160394,
    23.988437763295));
#372 = CARTESIAN_POINT('',(-1.473105434856,-1.391905284602,
    23.988437763301));
#373 = CARTESIAN_POINT('',(-2.091481492093,-0.63289316756,
    23.988437763287));
#374 = CARTESIAN_POINT('',(-2.091481492125,0.632893167567,
    23.988437763307));
#375 = CARTESIAN_POINT('',(-1.473105434841,1.39190528459,23.988437763288
    ));
#376 = CARTESIAN_POINT('',(-0.629936207822,1.911856160405,
    23.988437763301));
#377 = CARTESIAN_POINT('',(0.346088560055,1.836934579691,23.988437763295
    ));
#378 = CARTESIAN_POINT('',(1.05534345969,1.349103344889,23.988437763297)
  );
#379 = CARTESIAN_POINT('',(1.4,0.666862496588,23.988437763296));
#380 = CARTESIAN_POINT('',(1.4,-3.41E-15,23.988437763296));
#381 = CARTESIAN_POINT('',(2.514285714286,-6.2E-16,24.888992551128));
#382 = CARTESIAN_POINT('',(2.514285714287,-1.197630606117,
    24.888992551128));
#383 = CARTESIAN_POINT('',(1.895310703111,-2.422879476533,
    24.888992551128));
#384 = CARTESIAN_POINT('',(0.621546801739,-3.298984551287,
    24.888992551128));
#385 = CARTESIAN_POINT('',(-1.131314005884,-3.433537594192,
    24.888992551126));
#386 = CARTESIAN_POINT('',(-2.645577107493,-2.499748266196,
    24.888992551134));
#387 = CARTESIAN_POINT('',(-3.756130026625,-1.136624464228,
    24.888992551116));
#388 = CARTESIAN_POINT('',(-3.756130026664,1.13662446424,24.888992551141
    ));
#389 = CARTESIAN_POINT('',(-2.645577107477,2.499748266176,
    24.888992551117));
#390 = CARTESIAN_POINT('',(-1.131314005881,3.43353759421,24.888992551133
    ));
#391 = CARTESIAN_POINT('',(0.621546801731,3.298984551278,24.888992551126
    ));
#392 = CARTESIAN_POINT('',(1.895310703116,2.422879476535,24.888992551128
    ));
#393 = CARTESIAN_POINT('',(2.514285714285,1.197630606117,24.888992551128
    ));
#394 = CARTESIAN_POINT('',(2.514285714286,0.,24.888992551128));
#395 = ADVANCED_FACE('',(#396),#399,.T.);
#396 = FACE_BOUND('',#397,.T.);
#397 = EDGE_LOOP('',(#398));
#398 = ORIENTED_EDGE('',*,*,#265,.T.);
#399 = PLANE('',#400);
#400 = AXIS2_PLACEMENT_3D('',#401,#402,#403);
#401 = CARTESIAN_POINT('',(6.,0.,0.));
#402 = DIRECTION('',(1.,0.,0.));
#403 = DIRECTION('',(0.,0.,-1.));
#404 = ADVANCED_FACE('',(#405),#408,.F.);
#405 = FACE_BOUND('',#406,.F.);
#406 = EDGE_LOOP('',(#407));
#407 = ORIENTED_EDGE('',*,*,#301,.T.);
#408 = PLANE('',#409);
#409 = AXIS2_PLACEMENT_3D('',#410,#411,#412);
#410 = CARTESIAN_POINT('',(-6.,0.,0.));
#411 = DIRECTION('',(1.,0.,0.));
#412 = DIRECTION('',(0.,0.,-1.));
#413 = ADVANCED_FACE('',(#414,#453),#464,.T.);
#414 = FACE_BOUND('',#415,.T.);
#415 = EDGE_LOOP('',(#416,#425,#426,#427,#436,#445,#446));
#416 = ORIENTED_EDGE('',*,*,#417,.F.);
#417 = EDGE_CURVE('',#327,#418,#420,.T.);
#418 = VERTEX_POINT('',#419);
#419 = CARTESIAN_POINT('',(3.708099243548,-1.E-15,26.5));
#420 = CIRCLE('',#421,4.);
#421 = AXIS2_PLACEMENT_3D('',#422,#423,#424);
#422 = CARTESIAN_POINT('',(0.,0.,28.));
#423 = DIRECTION('',(-2.4E-16,-1.,0.));
#424 = DIRECTION('',(1.,-2.4E-16,0.));
#425 = ORIENTED_EDGE('',*,*,#334,.F.);
#426 = ORIENTED_EDGE('',*,*,#417,.T.);
#427 = ORIENTED_EDGE('',*,*,#428,.T.);
#428 = EDGE_CURVE('',#418,#429,#431,.T.);
#429 = VERTEX_POINT('',#430);
#430 = CARTESIAN_POINT('',(3.708099243548,-1.E-15,29.5));
#431 = CIRCLE('',#432,1.5);
#432 = AXIS2_PLACEMENT_3D('',#433,#434,#435);
#433 = CARTESIAN_POINT('',(3.708099243548,0.,28.));
#434 = DIRECTION('',(-1.,0.,2.2E-16));
#435 = DIRECTION('',(-2.2E-16,0.,-1.));
#436 = ORIENTED_EDGE('',*,*,#437,.T.);
#437 = EDGE_CURVE('',#429,#438,#440,.T.);
#438 = VERTEX_POINT('',#439);
#439 = CARTESIAN_POINT('',(0.,0.,32.));
#440 = CIRCLE('',#441,4.);
#441 = AXIS2_PLACEMENT_3D('',#442,#443,#444);
#442 = CARTESIAN_POINT('',(0.,0.,28.));
#443 = DIRECTION('',(-2.4E-16,-1.,0.));
#444 = DIRECTION('',(1.,-2.4E-16,0.));
#445 = ORIENTED_EDGE('',*,*,#437,.F.);
#446 = ORIENTED_EDGE('',*,*,#447,.T.);
#447 = EDGE_CURVE('',#429,#418,#448,.T.);
#448 = CIRCLE('',#449,1.5);
#449 = AXIS2_PLACEMENT_3D('',#450,#451,#452);
#450 = CARTESIAN_POINT('',(3.708099243548,0.,28.));
#451 = DIRECTION('',(-1.,0.,2.2E-16));
#452 = DIRECTION('',(-2.2E-16,0.,-1.));
#453 = FACE_BOUND('',#454,.T.);
#454 = EDGE_LOOP('',(#455));
#455 = ORIENTED_EDGE('',*,*,#456,.F.);
#456 = EDGE_CURVE('',#457,#457,#459,.T.);
#457 = VERTEX_POINT('',#458);
#458 = CARTESIAN_POINT('',(-3.708099243548,0.,26.5));
#459 = CIRCLE('',#460,1.5);
#460 = AXIS2_PLACEMENT_3D('',#461,#462,#463);
#461 = CARTESIAN_POINT('',(-3.708099243548,0.,28.));
#462 = DIRECTION('',(-1.,0.,2.2E-16));
#463 = DIRECTION('',(-2.2E-16,0.,-1.));
#464 = SPHERICAL_SURFACE('',#465,4.);
#465 = AXIS2_PLACEMENT_3D('',#466,#467,#468);
#466 = CARTESIAN_POINT('',(0.,0.,28.));
#467 = DIRECTION('',(0.,0.,1.));
#468 = DIRECTION('',(1.,0.,0.));
#469 = ADVANCED_FACE('',(#470),#490,.T.);
#470 = FACE_BOUND('',#471,.F.);
#471 = EDGE_LOOP('',(#472,#473,#481,#488,#489));
#472 = ORIENTED_EDGE('',*,*,#447,.T.);
#473 = ORIENTED_EDGE('',*,*,#474,.T.);
#474 = EDGE_CURVE('',#418,#475,#477,.T.);
#475 = VERTEX_POINT('',#476);
#476 = CARTESIAN_POINT('',(7.,0.,26.5));
#477 = LINE('',#478,#479);
#478 = CARTESIAN_POINT('',(-8.,-3.7E-16,26.5));
#479 = VECTOR('',#480,1.);
#480 = DIRECTION('',(1.,0.,0.));
#481 = ORIENTED_EDGE('',*,*,#482,.T.);
#482 = EDGE_CURVE('',#475,#475,#483,.T.);
#483 = CIRCLE('',#484,1.5);
#484 = AXIS2_PLACEMENT_3D('',#485,#486,#487);
#485 = CARTESIAN_POINT('',(7.,0.,28.));
#486 = DIRECTION('',(1.,0.,-2.2E-16));
#487 = DIRECTION('',(-2.2E-16,0.,-1.));
#488 = ORIENTED_EDGE('',*,*,#474,.F.);
#489 = ORIENTED_EDGE('',*,*,#428,.T.);
#490 = CYLINDRICAL_SURFACE('',#491,1.5);
#491 = AXIS2_PLACEMENT_3D('',#492,#493,#494);
#492 = CARTESIAN_POINT('',(-8.,0.,28.));
#493 = DIRECTION('',(-1.,-0.,0.));
#494 = DIRECTION('',(0.,0.,-1.));
#495 = ADVANCED_FACE('',(#496),#515,.T.);
#496 = FACE_BOUND('',#497,.F.);
#497 = EDGE_LOOP('',(#498,#499,#507,#514));
#498 = ORIENTED_EDGE('',*,*,#456,.F.);
#499 = ORIENTED_EDGE('',*,*,#500,.F.);
#500 = EDGE_CURVE('',#501,#457,#503,.T.);
#501 = VERTEX_POINT('',#502);
#502 = CARTESIAN_POINT('',(-7.,0.,26.5));
#503 = LINE('',#504,#505);
#504 = CARTESIAN_POINT('',(-8.,-3.7E-16,26.5));
#505 = VECTOR('',#506,1.);
#506 = DIRECTION('',(1.,0.,0.));
#507 = ORIENTED_EDGE('',*,*,#508,.F.);
#508 = EDGE_CURVE('',#501,#501,#509,.T.);
#509 = CIRCLE('',#510,1.5);
#510 = AXIS2_PLACEMENT_3D('',#511,#512,#513);
#511 = CARTESIAN_POINT('',(-7.,0.,28.));
#512 = DIRECTION('',(1.,0.,-2.2E-16));
#513 = DIRECTION('',(-2.2E-16,0.,-1.));
#514 = ORIENTED_EDGE('',*,*,#500,.T.);
#515 = CYLINDRICAL_SURFACE('',#516,1.5);
#516 = AXIS2_PLACEMENT_3D('',#517,#518,#519);
#517 = CARTESIAN_POINT('',(-8.,0.,28.));
#518 = DIRECTION('',(-1.,-0.,0.));
#519 = DIRECTION('',(0.,0.,-1.));
#520 = ADVANCED_FACE('',(#521),#541,.T.);
#521 = FACE_BOUND('',#522,.T.);
#522 = EDGE_LOOP('',(#523,#532,#533,#534));
#523 = ORIENTED_EDGE('',*,*,#524,.F.);
#524 = EDGE_CURVE('',#475,#525,#527,.T.);
#525 = VERTEX_POINT('',#526);
#526 = CARTESIAN_POINT('',(8.,0.,27.5));
#527 = CIRCLE('',#528,1.);
#528 = AXIS2_PLACEMENT_3D('',#529,#530,#531);
#529 = CARTESIAN_POINT('',(7.,0.,27.5));
#530 = DIRECTION('',(0.,-1.,-0.));
#531 = DIRECTION('',(-2.2E-16,0.,-1.));
#532 = ORIENTED_EDGE('',*,*,#482,.T.);
#533 = ORIENTED_EDGE('',*,*,#524,.T.);
#534 = ORIENTED_EDGE('',*,*,#535,.F.);
#535 = EDGE_CURVE('',#525,#525,#536,.T.);
#536 = CIRCLE('',#537,0.5);
#537 = AXIS2_PLACEMENT_3D('',#538,#539,#540);
#538 = CARTESIAN_POINT('',(8.,0.,28.));
#539 = DIRECTION('',(1.,0.,-2.2E-16));
#540 = DIRECTION('',(-2.2E-16,0.,-1.));
#541 = SURFACE_OF_REVOLUTION('',#542,#553);
#542 = B_SPLINE_CURVE_WITH_KNOTS('',5,(#543,#544,#545,#546,#547,#548,
    #549,#550,#551,#552),.UNSPECIFIED.,.F.,.F.,(6,4,6),(0.,
    0.785398163397,1.570796326795),.UNSPECIFIED.);
#543 = CARTESIAN_POINT('',(7.,0.,26.5));
#544 = CARTESIAN_POINT('',(7.157079632679,0.,26.5));
#545 = CARTESIAN_POINT('',(7.314161753982,0.,26.530835592946));
#546 = CARTESIAN_POINT('',(7.463156817683,0.,26.592551369057));
#547 = CARTESIAN_POINT('',(7.596034707733,0.,26.68182114536));
#548 = CARTESIAN_POINT('',(7.818178854641,0.,26.903965292267));
#549 = CARTESIAN_POINT('',(7.907448630943,0.,27.036843182317));
#550 = CARTESIAN_POINT('',(7.969164407054,0.,27.185838246018));
#551 = CARTESIAN_POINT('',(8.,0.,27.342920367321));
#552 = CARTESIAN_POINT('',(8.,0.,27.5));
#553 = AXIS1_PLACEMENT('',#554,#555);
#554 = CARTESIAN_POINT('',(7.,0.,28.));
#555 = DIRECTION('',(1.,0.,-2.2E-16));
#556 = ADVANCED_FACE('',(#557),#577,.T.);
#557 = FACE_BOUND('',#558,.F.);
#558 = EDGE_LOOP('',(#559,#568,#569,#570));
#559 = ORIENTED_EDGE('',*,*,#560,.F.);
#560 = EDGE_CURVE('',#501,#561,#563,.T.);
#561 = VERTEX_POINT('',#562);
#562 = CARTESIAN_POINT('',(-8.,0.,27.5));
#563 = CIRCLE('',#564,1.);
#564 = AXIS2_PLACEMENT_3D('',#565,#566,#567);
#565 = CARTESIAN_POINT('',(-7.,0.,27.5));
#566 = DIRECTION('',(0.,1.,0.));
#567 = DIRECTION('',(-2.2E-16,0.,-1.));
#568 = ORIENTED_EDGE('',*,*,#508,.F.);
#569 = ORIENTED_EDGE('',*,*,#560,.T.);
#570 = ORIENTED_EDGE('',*,*,#571,.T.);
#571 = EDGE_CURVE('',#561,#561,#572,.T.);
#572 = CIRCLE('',#573,0.5);
#573 = AXIS2_PLACEMENT_3D('',#574,#575,#576);
#574 = CARTESIAN_POINT('',(-8.,0.,28.));
#575 = DIRECTION('',(1.,0.,-2.2E-16));
#576 = DIRECTION('',(-2.2E-16,0.,-1.));
#577 = SURFACE_OF_REVOLUTION('',#578,#589);
#578 = B_SPLINE_CURVE_WITH_KNOTS('',5,(#579,#580,#581,#582,#583,#584,
    #585,#586,#587,#588),.UNSPECIFIED.,.F.,.F.,(6,4,6),(0.,
    0.785398163397,1.570796326795),.UNSPECIFIED.);
#579 = CARTESIAN_POINT('',(-7.,0.,26.5));
#580 = CARTESIAN_POINT('',(-7.157079632679,0.,26.5));
#581 = CARTESIAN_POINT('',(-7.314161753982,0.,26.530835592946));
#582 = CARTESIAN_POINT('',(-7.463156817683,0.,26.592551369057));
#583 = CARTESIAN_POINT('',(-7.596034707733,0.,26.68182114536));
#584 = CARTESIAN_POINT('',(-7.818178854641,0.,26.903965292267));
#585 = CARTESIAN_POINT('',(-7.907448630943,0.,27.036843182317));
#586 = CARTESIAN_POINT('',(-7.969164407054,0.,27.185838246018));
#587 = CARTESIAN_POINT('',(-8.,0.,27.342920367321));
#588 = CARTESIAN_POINT('',(-8.,0.,27.5));
#589 = AXIS1_PLACEMENT('',#590,#591);
#590 = CARTESIAN_POINT('',(-7.,0.,28.));
#591 = DIRECTION('',(-1.,0.,2.2E-16));
#592 = ADVANCED_FACE('',(#593),#596,.T.);
#593 = FACE_BOUND('',#594,.T.);
#594 = EDGE_LOOP('',(#595));
#595 = ORIENTED_EDGE('',*,*,#535,.T.);
#596 = PLANE('',#597);
#597 = AXIS2_PLACEMENT_3D('',#598,#599,#600);
#598 = CARTESIAN_POINT('',(8.,0.,28.));
#599 = DIRECTION('',(1.,0.,0.));
#600 = DIRECTION('',(0.,0.,-1.));
#601 = ADVANCED_FACE('',(#602),#605,.F.);
#602 = FACE_BOUND('',#603,.F.);
#603 = EDGE_LOOP('',(#604));
#604 = ORIENTED_EDGE('',*,*,#571,.T.);
#605 = PLANE('',#606);
#606 = AXIS2_PLACEMENT_3D('',#607,#608,#609);
#607 = CARTESIAN_POINT('',(-8.,0.,28.));
#608 = DIRECTION('',(1.,0.,0.));
#609 = DIRECTION('',(0.,0.,-1.));
#610 = ( GEOMETRIC_REPRESENTATION_CONTEXT(3) 
GLOBAL_UNCERTAINTY_ASSIGNED_CONTEXT((#614)) GLOBAL_UNIT_ASSIGNED_CONTEXT
((#611,#612,#613)) REPRESENTATION_CONTEXT('Context #1',
  '3D Context with UNIT and UNCERTAINTY') );
#611 = ( LENGTH_UNIT() NAMED_UNIT(*) SI_UNIT(.MILLI.,.METRE.) );
#612 = ( NAMED_UNIT(*) PLANE_ANGLE_UNIT() SI_UNIT($,.RADIAN.) );
#613 = ( NAMED_UNIT(*) SI_UNIT($,.STERADIAN.) SOLID_ANGLE_UNIT() );
#614 = UNCERTAINTY_MEASURE_WITH_UNIT(LENGTH_MEASURE(5.E-06),#611,
  'distance_accuracy_value','confusion accuracy');
#615 = PRODUCT_RELATED_PRODUCT_CATEGORY('part',$,(#7));
ENDSEC;
END-ISO-10303-21;
