ISO-10303-21;
HEADER;
FILE_DESCRIPTION(('FreeCAD Model'),'2;1');
FILE_NAME('Open CASCADE Shape Model','2026-08-28T13:04:06',('FreeCAD'),(
    'FreeCAD'),'Open CASCADE STEP processor 7.8','FreeCAD','Unknown');
FILE_SCHEMA(('AUTOMOTIVE_DESIGN { 1 0 10303 214 1 1 1 1 }'));
ENDSEC;
DATA;
#1 = APPLICATION_PROTOCOL_DEFINITION('international standard',
  'automotive_design',2000,#2);
#2 = APPLICATION_CONTEXT(
  'core data for automotive mechanical design processes');
#3 = SHAPE_DEFINITION_REPRESENTATION(#4,#10);
#4 = PRODUCT_DEFINITION_SHAPE('','',#5);
#5 = PRODUCT_DEFINITION('design','',#6,#9);
#6 = PRODUCT_DEFINITION_FORMATION('','',#7);
#7 = PRODUCT('Open CASCADE STEP translator 7.8 100',
  'Open CASCADE STEP translator 7.8 100','',(#8));
#8 = PRODUCT_CONTEXT('',#2,'mechanical');
#9 = PRODUCT_DEFINITION_CONTEXT('part definition',#2,'design');
#10 = ADVANCED_BREP_SHAPE_REPRESENTATION('',(#11,#15),#1277);
#11 = AXIS2_PLACEMENT_3D('',#12,#13,#14);
#12 = CARTESIAN_POINT('',(0.,0.,0.));
#13 = DIRECTION('',(0.,0.,1.));
#14 = DIRECTION('',(1.,0.,-0.));
#15 = MANIFOLD_SOLID_BREP('',#16);
#16 = CLOSED_SHELL('',(#17,#57,#120,#151,#233,#315,#350,#374,#398,#422,
    #450,#467,#491,#508,#520,#1103,#1120,#1137,#1180,#1192,#1235,#1246,
    #1257,#1267));
#17 = ADVANCED_FACE('',(#18),#52,.F.);
#18 = FACE_BOUND('',#19,.F.);
#19 = EDGE_LOOP('',(#20,#30,#38,#46));
#20 = ORIENTED_EDGE('',*,*,#21,.T.);
#21 = EDGE_CURVE('',#22,#24,#26,.T.);
#22 = VERTEX_POINT('',#23);
#23 = CARTESIAN_POINT('',(136.14514304774,-47.75026111292,0.));
#24 = VERTEX_POINT('',#25);
#25 = CARTESIAN_POINT('',(136.14514304774,-47.75026111292,27.));
#26 = LINE('',#27,#28);
#27 = CARTESIAN_POINT('',(136.14514304774,-47.75026111292,0.));
#28 = VECTOR('',#29,1.);
#29 = DIRECTION('',(0.,0.,1.));
#30 = ORIENTED_EDGE('',*,*,#31,.T.);
#31 = EDGE_CURVE('',#24,#32,#34,.T.);
#32 = VERTEX_POINT('',#33);
#33 = CARTESIAN_POINT('',(148.14514304774,-47.75026111292,27.));
#34 = LINE('',#35,#36);
#35 = CARTESIAN_POINT('',(136.14514304774,-47.75026111292,27.));
#36 = VECTOR('',#37,1.);
#37 = DIRECTION('',(1.,0.,0.));
#38 = ORIENTED_EDGE('',*,*,#39,.F.);
#39 = EDGE_CURVE('',#40,#32,#42,.T.);
#40 = VERTEX_POINT('',#41);
#41 = CARTESIAN_POINT('',(148.14514304774,-47.75026111292,0.));
#42 = LINE('',#43,#44);
#43 = CARTESIAN_POINT('',(148.14514304774,-47.75026111292,0.));
#44 = VECTOR('',#45,1.);
#45 = DIRECTION('',(0.,0.,1.));
#46 = ORIENTED_EDGE('',*,*,#47,.F.);
#47 = EDGE_CURVE('',#22,#40,#48,.T.);
#48 = LINE('',#49,#50);
#49 = CARTESIAN_POINT('',(136.14514304774,-47.75026111292,0.));
#50 = VECTOR('',#51,1.);
#51 = DIRECTION('',(1.,0.,0.));
#52 = PLANE('',#53);
#53 = AXIS2_PLACEMENT_3D('',#54,#55,#56);
#54 = CARTESIAN_POINT('',(136.14514304774,-47.75026111292,0.));
#55 = DIRECTION('',(0.,1.,0.));
#56 = DIRECTION('',(1.,0.,0.));
#57 = ADVANCED_FACE('',(#58),#115,.T.);
#58 = FACE_BOUND('',#59,.T.);
#59 = EDGE_LOOP('',(#60,#68,#69,#77,#85,#93,#101,#109));
#60 = ORIENTED_EDGE('',*,*,#61,.F.);
#61 = EDGE_CURVE('',#22,#62,#64,.T.);
#62 = VERTEX_POINT('',#63);
#63 = CARTESIAN_POINT('',(136.14514304774,-54.75026111292,-1.E-15));
#64 = LINE('',#65,#66);
#65 = CARTESIAN_POINT('',(136.14514304774,-47.75026111292,0.));
#66 = VECTOR('',#67,1.);
#67 = DIRECTION('',(0.,-1.,0.));
#68 = ORIENTED_EDGE('',*,*,#21,.T.);
#69 = ORIENTED_EDGE('',*,*,#70,.T.);
#70 = EDGE_CURVE('',#24,#71,#73,.T.);
#71 = VERTEX_POINT('',#72);
#72 = CARTESIAN_POINT('',(136.14514304774,-54.75026111292,27.));
#73 = LINE('',#74,#75);
#74 = CARTESIAN_POINT('',(136.14514304774,-47.75026111292,27.));
#75 = VECTOR('',#76,1.);
#76 = DIRECTION('',(0.,-1.,0.));
#77 = ORIENTED_EDGE('',*,*,#78,.F.);
#78 = EDGE_CURVE('',#79,#71,#81,.T.);
#79 = VERTEX_POINT('',#80);
#80 = CARTESIAN_POINT('',(136.14514304774,-54.75026111292,17.));
#81 = LINE('',#82,#83);
#82 = CARTESIAN_POINT('',(136.14514304774,-54.75026111292,17.));
#83 = VECTOR('',#84,1.);
#84 = DIRECTION('',(0.,0.,1.));
#85 = ORIENTED_EDGE('',*,*,#86,.F.);
#86 = EDGE_CURVE('',#87,#79,#89,.T.);
#87 = VERTEX_POINT('',#88);
#88 = CARTESIAN_POINT('',(136.14514304774,-58.75026111292,17.));
#89 = LINE('',#90,#91);
#90 = CARTESIAN_POINT('',(136.14514304774,-58.75026111292,17.));
#91 = VECTOR('',#92,1.);
#92 = DIRECTION('',(0.,1.,-2.2E-16));
#93 = ORIENTED_EDGE('',*,*,#94,.F.);
#94 = EDGE_CURVE('',#95,#87,#97,.T.);
#95 = VERTEX_POINT('',#96);
#96 = CARTESIAN_POINT('',(136.14514304774,-58.75026111292,10.));
#97 = LINE('',#98,#99);
#98 = CARTESIAN_POINT('',(136.14514304774,-58.75026111292,0.));
#99 = VECTOR('',#100,1.);
#100 = DIRECTION('',(0.,0.,1.));
#101 = ORIENTED_EDGE('',*,*,#102,.T.);
#102 = EDGE_CURVE('',#95,#103,#105,.T.);
#103 = VERTEX_POINT('',#104);
#104 = CARTESIAN_POINT('',(136.14514304774,-54.75026111292,10.));
#105 = LINE('',#106,#107);
#106 = CARTESIAN_POINT('',(136.14514304774,-58.75026111292,10.));
#107 = VECTOR('',#108,1.);
#108 = DIRECTION('',(0.,1.,-2.2E-16));
#109 = ORIENTED_EDGE('',*,*,#110,.F.);
#110 = EDGE_CURVE('',#62,#103,#111,.T.);
#111 = LINE('',#112,#113);
#112 = CARTESIAN_POINT('',(136.14514304774,-54.75026111292,-1.E-15));
#113 = VECTOR('',#114,1.);
#114 = DIRECTION('',(0.,0.,1.));
#115 = PLANE('',#116);
#116 = AXIS2_PLACEMENT_3D('',#117,#118,#119);
#117 = CARTESIAN_POINT('',(136.14514304774,-47.75026111292,0.));
#118 = DIRECTION('',(1.,0.,0.));
#119 = DIRECTION('',(0.,-1.,0.));
#120 = ADVANCED_FACE('',(#121),#146,.F.);
#121 = FACE_BOUND('',#122,.F.);
#122 = EDGE_LOOP('',(#123,#124,#132,#140));
#123 = ORIENTED_EDGE('',*,*,#39,.T.);
#124 = ORIENTED_EDGE('',*,*,#125,.T.);
#125 = EDGE_CURVE('',#32,#126,#128,.T.);
#126 = VERTEX_POINT('',#127);
#127 = CARTESIAN_POINT('',(148.14514304774,-39.75026111292,27.));
#128 = LINE('',#129,#130);
#129 = CARTESIAN_POINT('',(148.14514304774,-47.75026111292,27.));
#130 = VECTOR('',#131,1.);
#131 = DIRECTION('',(0.,1.,0.));
#132 = ORIENTED_EDGE('',*,*,#133,.F.);
#133 = EDGE_CURVE('',#134,#126,#136,.T.);
#134 = VERTEX_POINT('',#135);
#135 = CARTESIAN_POINT('',(148.14514304774,-39.75026111292,0.));
#136 = LINE('',#137,#138);
#137 = CARTESIAN_POINT('',(148.14514304774,-39.75026111292,0.));
#138 = VECTOR('',#139,1.);
#139 = DIRECTION('',(0.,0.,1.));
#140 = ORIENTED_EDGE('',*,*,#141,.F.);
#141 = EDGE_CURVE('',#40,#134,#142,.T.);
#142 = LINE('',#143,#144);
#143 = CARTESIAN_POINT('',(148.14514304774,-47.75026111292,0.));
#144 = VECTOR('',#145,1.);
#145 = DIRECTION('',(0.,1.,0.));
#146 = PLANE('',#147);
#147 = AXIS2_PLACEMENT_3D('',#148,#149,#150);
#148 = CARTESIAN_POINT('',(148.14514304774,-47.75026111292,0.));
#149 = DIRECTION('',(-1.,0.,0.));
#150 = DIRECTION('',(0.,1.,0.));
#151 = ADVANCED_FACE('',(#152,#195,#206,#217),#228,.F.);
#152 = FACE_BOUND('',#153,.F.);
#153 = EDGE_LOOP('',(#154,#155,#156,#157,#165,#173,#181,#189));
#154 = ORIENTED_EDGE('',*,*,#61,.F.);
#155 = ORIENTED_EDGE('',*,*,#47,.T.);
#156 = ORIENTED_EDGE('',*,*,#141,.T.);
#157 = ORIENTED_EDGE('',*,*,#158,.T.);
#158 = EDGE_CURVE('',#134,#159,#161,.T.);
#159 = VERTEX_POINT('',#160);
#160 = CARTESIAN_POINT('',(136.14514304774,-39.75026111292,0.));
#161 = LINE('',#162,#163);
#162 = CARTESIAN_POINT('',(148.14514304774,-39.75026111292,0.));
#163 = VECTOR('',#164,1.);
#164 = DIRECTION('',(-1.,0.,0.));
#165 = ORIENTED_EDGE('',*,*,#166,.F.);
#166 = EDGE_CURVE('',#167,#159,#169,.T.);
#167 = VERTEX_POINT('',#168);
#168 = CARTESIAN_POINT('',(136.14514304774,-18.75026111292,0.));
#169 = LINE('',#170,#171);
#170 = CARTESIAN_POINT('',(136.14514304774,-18.75026111292,0.));
#171 = VECTOR('',#172,1.);
#172 = DIRECTION('',(0.,-1.,0.));
#173 = ORIENTED_EDGE('',*,*,#174,.T.);
#174 = EDGE_CURVE('',#167,#175,#177,.T.);
#175 = VERTEX_POINT('',#176);
#176 = CARTESIAN_POINT('',(128.14514304774,-18.75026111292,0.));
#177 = LINE('',#178,#179);
#178 = CARTESIAN_POINT('',(136.14514304774,-18.75026111292,0.));
#179 = VECTOR('',#180,1.);
#180 = DIRECTION('',(-1.,0.,0.));
#181 = ORIENTED_EDGE('',*,*,#182,.T.);
#182 = EDGE_CURVE('',#175,#183,#185,.T.);
#183 = VERTEX_POINT('',#184);
#184 = CARTESIAN_POINT('',(128.14514304774,-54.75026111292,0.));
#185 = LINE('',#186,#187);
#186 = CARTESIAN_POINT('',(128.14514304774,-18.75026111292,0.));
#187 = VECTOR('',#188,1.);
#188 = DIRECTION('',(0.,-1.,0.));
#189 = ORIENTED_EDGE('',*,*,#190,.T.);
#190 = EDGE_CURVE('',#183,#62,#191,.T.);
#191 = LINE('',#192,#193);
#192 = CARTESIAN_POINT('',(128.14514304774,-54.75026111292,-1.E-15));
#193 = VECTOR('',#194,1.);
#194 = DIRECTION('',(1.,0.,0.));
#195 = FACE_BOUND('',#196,.F.);
#196 = EDGE_LOOP('',(#197));
#197 = ORIENTED_EDGE('',*,*,#198,.T.);
#198 = EDGE_CURVE('',#199,#199,#201,.T.);
#199 = VERTEX_POINT('',#200);
#200 = CARTESIAN_POINT('',(133.34514304774,-44.75026111292,0.));
#201 = CIRCLE('',#202,1.2);
#202 = AXIS2_PLACEMENT_3D('',#203,#204,#205);
#203 = CARTESIAN_POINT('',(132.14514304774,-44.75026111292,0.));
#204 = DIRECTION('',(0.,0.,-1.));
#205 = DIRECTION('',(1.,0.,0.));
#206 = FACE_BOUND('',#207,.F.);
#207 = EDGE_LOOP('',(#208));
#208 = ORIENTED_EDGE('',*,*,#209,.F.);
#209 = EDGE_CURVE('',#210,#210,#212,.T.);
#210 = VERTEX_POINT('',#211);
#211 = CARTESIAN_POINT('',(144.14514304774,-43.75026111292,0.));
#212 = CIRCLE('',#213,1.2);
#213 = AXIS2_PLACEMENT_3D('',#214,#215,#216);
#214 = CARTESIAN_POINT('',(142.94514304774,-43.75026111292,0.));
#215 = DIRECTION('',(0.,0.,1.));
#216 = DIRECTION('',(1.,0.,0.));
#217 = FACE_BOUND('',#218,.F.);
#218 = EDGE_LOOP('',(#219));
#219 = ORIENTED_EDGE('',*,*,#220,.T.);
#220 = EDGE_CURVE('',#221,#221,#223,.T.);
#221 = VERTEX_POINT('',#222);
#222 = CARTESIAN_POINT('',(133.34514304774,-24.75026111292,0.));
#223 = CIRCLE('',#224,1.2);
#224 = AXIS2_PLACEMENT_3D('',#225,#226,#227);
#225 = CARTESIAN_POINT('',(132.14514304774,-24.75026111292,0.));
#226 = DIRECTION('',(0.,0.,-1.));
#227 = DIRECTION('',(1.,0.,0.));
#228 = PLANE('',#229);
#229 = AXIS2_PLACEMENT_3D('',#230,#231,#232);
#230 = CARTESIAN_POINT('',(135.34030217119,-39.94784067465,0.));
#231 = DIRECTION('',(0.,0.,1.));
#232 = DIRECTION('',(1.,0.,0.));
#233 = ADVANCED_FACE('',(#234,#277,#288,#299),#310,.T.);
#234 = FACE_BOUND('',#235,.T.);
#235 = EDGE_LOOP('',(#236,#237,#238,#239,#247,#255,#263,#271));
#236 = ORIENTED_EDGE('',*,*,#70,.F.);
#237 = ORIENTED_EDGE('',*,*,#31,.T.);
#238 = ORIENTED_EDGE('',*,*,#125,.T.);
#239 = ORIENTED_EDGE('',*,*,#240,.T.);
#240 = EDGE_CURVE('',#126,#241,#243,.T.);
#241 = VERTEX_POINT('',#242);
#242 = CARTESIAN_POINT('',(136.14514304774,-39.75026111292,27.));
#243 = LINE('',#244,#245);
#244 = CARTESIAN_POINT('',(148.14514304774,-39.75026111292,27.));
#245 = VECTOR('',#246,1.);
#246 = DIRECTION('',(-1.,0.,0.));
#247 = ORIENTED_EDGE('',*,*,#248,.F.);
#248 = EDGE_CURVE('',#249,#241,#251,.T.);
#249 = VERTEX_POINT('',#250);
#250 = CARTESIAN_POINT('',(136.14514304774,-18.75026111292,27.));
#251 = LINE('',#252,#253);
#252 = CARTESIAN_POINT('',(136.14514304774,-18.75026111292,27.));
#253 = VECTOR('',#254,1.);
#254 = DIRECTION('',(0.,-1.,0.));
#255 = ORIENTED_EDGE('',*,*,#256,.T.);
#256 = EDGE_CURVE('',#249,#257,#259,.T.);
#257 = VERTEX_POINT('',#258);
#258 = CARTESIAN_POINT('',(128.14514304774,-18.75026111292,27.));
#259 = LINE('',#260,#261);
#260 = CARTESIAN_POINT('',(136.14514304774,-18.75026111292,27.));
#261 = VECTOR('',#262,1.);
#262 = DIRECTION('',(-1.,0.,0.));
#263 = ORIENTED_EDGE('',*,*,#264,.T.);
#264 = EDGE_CURVE('',#257,#265,#267,.T.);
#265 = VERTEX_POINT('',#266);
#266 = CARTESIAN_POINT('',(128.14514304774,-54.75026111292,27.));
#267 = LINE('',#268,#269);
#268 = CARTESIAN_POINT('',(128.14514304774,-18.75026111292,27.));
#269 = VECTOR('',#270,1.);
#270 = DIRECTION('',(0.,-1.,0.));
#271 = ORIENTED_EDGE('',*,*,#272,.F.);
#272 = EDGE_CURVE('',#71,#265,#273,.T.);
#273 = LINE('',#274,#275);
#274 = CARTESIAN_POINT('',(136.14514304774,-54.75026111292,27.));
#275 = VECTOR('',#276,1.);
#276 = DIRECTION('',(-1.,0.,0.));
#277 = FACE_BOUND('',#278,.T.);
#278 = EDGE_LOOP('',(#279));
#279 = ORIENTED_EDGE('',*,*,#280,.T.);
#280 = EDGE_CURVE('',#281,#281,#283,.T.);
#281 = VERTEX_POINT('',#282);
#282 = CARTESIAN_POINT('',(133.34514304774,-44.75026111292,27.));
#283 = CIRCLE('',#284,1.2);
#284 = AXIS2_PLACEMENT_3D('',#285,#286,#287);
#285 = CARTESIAN_POINT('',(132.14514304774,-44.75026111292,27.));
#286 = DIRECTION('',(0.,0.,-1.));
#287 = DIRECTION('',(1.,0.,0.));
#288 = FACE_BOUND('',#289,.T.);
#289 = EDGE_LOOP('',(#290));
#290 = ORIENTED_EDGE('',*,*,#291,.F.);
#291 = EDGE_CURVE('',#292,#292,#294,.T.);
#292 = VERTEX_POINT('',#293);
#293 = CARTESIAN_POINT('',(144.14514304774,-43.75026111292,27.));
#294 = CIRCLE('',#295,1.2);
#295 = AXIS2_PLACEMENT_3D('',#296,#297,#298);
#296 = CARTESIAN_POINT('',(142.94514304774,-43.75026111292,27.));
#297 = DIRECTION('',(0.,0.,1.));
#298 = DIRECTION('',(1.,0.,0.));
#299 = FACE_BOUND('',#300,.T.);
#300 = EDGE_LOOP('',(#301));
#301 = ORIENTED_EDGE('',*,*,#302,.T.);
#302 = EDGE_CURVE('',#303,#303,#305,.T.);
#303 = VERTEX_POINT('',#304);
#304 = CARTESIAN_POINT('',(133.34514304774,-24.75026111292,27.));
#305 = CIRCLE('',#306,1.2);
#306 = AXIS2_PLACEMENT_3D('',#307,#308,#309);
#307 = CARTESIAN_POINT('',(132.14514304774,-24.75026111292,27.));
#308 = DIRECTION('',(0.,0.,-1.));
#309 = DIRECTION('',(1.,0.,0.));
#310 = PLANE('',#311);
#311 = AXIS2_PLACEMENT_3D('',#312,#313,#314);
#312 = CARTESIAN_POINT('',(135.34030217119,-39.94784067465,27.));
#313 = DIRECTION('',(0.,0.,1.));
#314 = DIRECTION('',(1.,0.,0.));
#315 = ADVANCED_FACE('',(#316,#334),#345,.F.);
#316 = FACE_BOUND('',#317,.F.);
#317 = EDGE_LOOP('',(#318,#319,#327,#333));
#318 = ORIENTED_EDGE('',*,*,#190,.F.);
#319 = ORIENTED_EDGE('',*,*,#320,.T.);
#320 = EDGE_CURVE('',#183,#321,#323,.T.);
#321 = VERTEX_POINT('',#322);
#322 = CARTESIAN_POINT('',(128.14514304774,-54.75026111292,10.));
#323 = LINE('',#324,#325);
#324 = CARTESIAN_POINT('',(128.14514304774,-54.75026111292,0.));
#325 = VECTOR('',#326,1.);
#326 = DIRECTION('',(0.,0.,1.));
#327 = ORIENTED_EDGE('',*,*,#328,.F.);
#328 = EDGE_CURVE('',#103,#321,#329,.T.);
#329 = LINE('',#330,#331);
#330 = CARTESIAN_POINT('',(136.14514304774,-54.75026111292,10.));
#331 = VECTOR('',#332,1.);
#332 = DIRECTION('',(-1.,0.,0.));
#333 = ORIENTED_EDGE('',*,*,#110,.F.);
#334 = FACE_BOUND('',#335,.F.);
#335 = EDGE_LOOP('',(#336));
#336 = ORIENTED_EDGE('',*,*,#337,.T.);
#337 = EDGE_CURVE('',#338,#338,#340,.T.);
#338 = VERTEX_POINT('',#339);
#339 = CARTESIAN_POINT('',(133.39514304774,-54.75026111292,3.));
#340 = CIRCLE('',#341,1.25);
#341 = AXIS2_PLACEMENT_3D('',#342,#343,#344);
#342 = CARTESIAN_POINT('',(132.14514304774,-54.75026111292,3.));
#343 = DIRECTION('',(0.,-1.,2.2E-16));
#344 = DIRECTION('',(1.,0.,0.));
#345 = PLANE('',#346);
#346 = AXIS2_PLACEMENT_3D('',#347,#348,#349);
#347 = CARTESIAN_POINT('',(132.14514304774,-54.75026111292,13.5));
#348 = DIRECTION('',(0.,1.,-3.1E-16));
#349 = DIRECTION('',(0.,3.1E-16,1.));
#350 = ADVANCED_FACE('',(#351),#369,.F.);
#351 = FACE_BOUND('',#352,.F.);
#352 = EDGE_LOOP('',(#353,#354,#355,#363));
#353 = ORIENTED_EDGE('',*,*,#102,.T.);
#354 = ORIENTED_EDGE('',*,*,#328,.T.);
#355 = ORIENTED_EDGE('',*,*,#356,.F.);
#356 = EDGE_CURVE('',#357,#321,#359,.T.);
#357 = VERTEX_POINT('',#358);
#358 = CARTESIAN_POINT('',(128.14514304774,-58.75026111292,10.));
#359 = LINE('',#360,#361);
#360 = CARTESIAN_POINT('',(128.14514304774,-58.75026111292,10.));
#361 = VECTOR('',#362,1.);
#362 = DIRECTION('',(0.,1.,-2.2E-16));
#363 = ORIENTED_EDGE('',*,*,#364,.F.);
#364 = EDGE_CURVE('',#95,#357,#365,.T.);
#365 = LINE('',#366,#367);
#366 = CARTESIAN_POINT('',(136.14514304774,-58.75026111292,10.));
#367 = VECTOR('',#368,1.);
#368 = DIRECTION('',(-1.,0.,0.));
#369 = PLANE('',#370);
#370 = AXIS2_PLACEMENT_3D('',#371,#372,#373);
#371 = CARTESIAN_POINT('',(136.14514304774,-58.75026111292,10.));
#372 = DIRECTION('',(0.,2.2E-16,1.));
#373 = DIRECTION('',(-1.,0.,0.));
#374 = ADVANCED_FACE('',(#375),#393,.F.);
#375 = FACE_BOUND('',#376,.F.);
#376 = EDGE_LOOP('',(#377,#378,#386,#392));
#377 = ORIENTED_EDGE('',*,*,#364,.T.);
#378 = ORIENTED_EDGE('',*,*,#379,.T.);
#379 = EDGE_CURVE('',#357,#380,#382,.T.);
#380 = VERTEX_POINT('',#381);
#381 = CARTESIAN_POINT('',(128.14514304774,-58.75026111292,17.));
#382 = LINE('',#383,#384);
#383 = CARTESIAN_POINT('',(128.14514304774,-58.75026111292,0.));
#384 = VECTOR('',#385,1.);
#385 = DIRECTION('',(0.,0.,1.));
#386 = ORIENTED_EDGE('',*,*,#387,.T.);
#387 = EDGE_CURVE('',#380,#87,#388,.T.);
#388 = LINE('',#389,#390);
#389 = CARTESIAN_POINT('',(128.14514304774,-58.75026111292,17.));
#390 = VECTOR('',#391,1.);
#391 = DIRECTION('',(1.,0.,0.));
#392 = ORIENTED_EDGE('',*,*,#94,.F.);
#393 = PLANE('',#394);
#394 = AXIS2_PLACEMENT_3D('',#395,#396,#397);
#395 = CARTESIAN_POINT('',(128.14514304774,-58.75026111292,0.));
#396 = DIRECTION('',(0.,1.,0.));
#397 = DIRECTION('',(1.,0.,0.));
#398 = ADVANCED_FACE('',(#399),#417,.F.);
#399 = FACE_BOUND('',#400,.F.);
#400 = EDGE_LOOP('',(#401,#409,#415,#416));
#401 = ORIENTED_EDGE('',*,*,#402,.T.);
#402 = EDGE_CURVE('',#380,#403,#405,.T.);
#403 = VERTEX_POINT('',#404);
#404 = CARTESIAN_POINT('',(128.14514304774,-54.75026111292,17.));
#405 = LINE('',#406,#407);
#406 = CARTESIAN_POINT('',(128.14514304774,-58.75026111292,17.));
#407 = VECTOR('',#408,1.);
#408 = DIRECTION('',(0.,1.,-2.2E-16));
#409 = ORIENTED_EDGE('',*,*,#410,.T.);
#410 = EDGE_CURVE('',#403,#79,#411,.T.);
#411 = LINE('',#412,#413);
#412 = CARTESIAN_POINT('',(128.14514304774,-54.75026111292,17.));
#413 = VECTOR('',#414,1.);
#414 = DIRECTION('',(1.,0.,0.));
#415 = ORIENTED_EDGE('',*,*,#86,.F.);
#416 = ORIENTED_EDGE('',*,*,#387,.F.);
#417 = PLANE('',#418);
#418 = AXIS2_PLACEMENT_3D('',#419,#420,#421);
#419 = CARTESIAN_POINT('',(128.14514304774,-58.75026111292,17.));
#420 = DIRECTION('',(0.,-2.2E-16,-1.));
#421 = DIRECTION('',(1.,0.,0.));
#422 = ADVANCED_FACE('',(#423,#434),#445,.F.);
#423 = FACE_BOUND('',#424,.F.);
#424 = EDGE_LOOP('',(#425,#431,#432,#433));
#425 = ORIENTED_EDGE('',*,*,#426,.T.);
#426 = EDGE_CURVE('',#403,#265,#427,.T.);
#427 = LINE('',#428,#429);
#428 = CARTESIAN_POINT('',(128.14514304774,-54.75026111292,0.));
#429 = VECTOR('',#430,1.);
#430 = DIRECTION('',(0.,0.,1.));
#431 = ORIENTED_EDGE('',*,*,#272,.F.);
#432 = ORIENTED_EDGE('',*,*,#78,.F.);
#433 = ORIENTED_EDGE('',*,*,#410,.F.);
#434 = FACE_BOUND('',#435,.F.);
#435 = EDGE_LOOP('',(#436));
#436 = ORIENTED_EDGE('',*,*,#437,.T.);
#437 = EDGE_CURVE('',#438,#438,#440,.T.);
#438 = VERTEX_POINT('',#439);
#439 = CARTESIAN_POINT('',(133.39514304774,-54.75026111292,24.));
#440 = CIRCLE('',#441,1.25);
#441 = AXIS2_PLACEMENT_3D('',#442,#443,#444);
#442 = CARTESIAN_POINT('',(132.14514304774,-54.75026111292,24.));
#443 = DIRECTION('',(0.,-1.,2.2E-16));
#444 = DIRECTION('',(1.,0.,0.));
#445 = PLANE('',#446);
#446 = AXIS2_PLACEMENT_3D('',#447,#448,#449);
#447 = CARTESIAN_POINT('',(132.14514304774,-54.75026111292,13.5));
#448 = DIRECTION('',(0.,1.,-3.1E-16));
#449 = DIRECTION('',(0.,3.1E-16,1.));
#450 = ADVANCED_FACE('',(#451),#462,.F.);
#451 = FACE_BOUND('',#452,.F.);
#452 = EDGE_LOOP('',(#453,#454,#455,#461));
#453 = ORIENTED_EDGE('',*,*,#133,.T.);
#454 = ORIENTED_EDGE('',*,*,#240,.T.);
#455 = ORIENTED_EDGE('',*,*,#456,.F.);
#456 = EDGE_CURVE('',#159,#241,#457,.T.);
#457 = LINE('',#458,#459);
#458 = CARTESIAN_POINT('',(136.14514304774,-39.75026111292,0.));
#459 = VECTOR('',#460,1.);
#460 = DIRECTION('',(0.,0.,1.));
#461 = ORIENTED_EDGE('',*,*,#158,.F.);
#462 = PLANE('',#463);
#463 = AXIS2_PLACEMENT_3D('',#464,#465,#466);
#464 = CARTESIAN_POINT('',(148.14514304774,-39.75026111292,0.));
#465 = DIRECTION('',(0.,-1.,0.));
#466 = DIRECTION('',(-1.,0.,0.));
#467 = ADVANCED_FACE('',(#468),#486,.F.);
#468 = FACE_BOUND('',#469,.F.);
#469 = EDGE_LOOP('',(#470,#476,#477,#478,#484,#485));
#470 = ORIENTED_EDGE('',*,*,#471,.T.);
#471 = EDGE_CURVE('',#175,#257,#472,.T.);
#472 = LINE('',#473,#474);
#473 = CARTESIAN_POINT('',(128.14514304774,-18.75026111292,0.));
#474 = VECTOR('',#475,1.);
#475 = DIRECTION('',(0.,0.,1.));
#476 = ORIENTED_EDGE('',*,*,#264,.T.);
#477 = ORIENTED_EDGE('',*,*,#426,.F.);
#478 = ORIENTED_EDGE('',*,*,#479,.F.);
#479 = EDGE_CURVE('',#321,#403,#480,.T.);
#480 = LINE('',#481,#482);
#481 = CARTESIAN_POINT('',(128.14514304774,-54.75026111292,0.));
#482 = VECTOR('',#483,1.);
#483 = DIRECTION('',(0.,0.,1.));
#484 = ORIENTED_EDGE('',*,*,#320,.F.);
#485 = ORIENTED_EDGE('',*,*,#182,.F.);
#486 = PLANE('',#487);
#487 = AXIS2_PLACEMENT_3D('',#488,#489,#490);
#488 = CARTESIAN_POINT('',(128.14514304774,-18.75026111292,0.));
#489 = DIRECTION('',(1.,0.,0.));
#490 = DIRECTION('',(0.,-1.,0.));
#491 = ADVANCED_FACE('',(#492),#503,.F.);
#492 = FACE_BOUND('',#493,.F.);
#493 = EDGE_LOOP('',(#494,#500,#501,#502));
#494 = ORIENTED_EDGE('',*,*,#495,.T.);
#495 = EDGE_CURVE('',#167,#249,#496,.T.);
#496 = LINE('',#497,#498);
#497 = CARTESIAN_POINT('',(136.14514304774,-18.75026111292,0.));
#498 = VECTOR('',#499,1.);
#499 = DIRECTION('',(0.,0.,1.));
#500 = ORIENTED_EDGE('',*,*,#256,.T.);
#501 = ORIENTED_EDGE('',*,*,#471,.F.);
#502 = ORIENTED_EDGE('',*,*,#174,.F.);
#503 = PLANE('',#504);
#504 = AXIS2_PLACEMENT_3D('',#505,#506,#507);
#505 = CARTESIAN_POINT('',(136.14514304774,-18.75026111292,0.));
#506 = DIRECTION('',(0.,-1.,0.));
#507 = DIRECTION('',(-1.,0.,0.));
#508 = ADVANCED_FACE('',(#509),#515,.T.);
#509 = FACE_BOUND('',#510,.T.);
#510 = EDGE_LOOP('',(#511,#512,#513,#514));
#511 = ORIENTED_EDGE('',*,*,#495,.T.);
#512 = ORIENTED_EDGE('',*,*,#248,.T.);
#513 = ORIENTED_EDGE('',*,*,#456,.F.);
#514 = ORIENTED_EDGE('',*,*,#166,.F.);
#515 = PLANE('',#516);
#516 = AXIS2_PLACEMENT_3D('',#517,#518,#519);
#517 = CARTESIAN_POINT('',(136.14514304774,-18.75026111292,0.));
#518 = DIRECTION('',(1.,0.,0.));
#519 = DIRECTION('',(0.,-1.,0.));
#520 = ADVANCED_FACE('',(#521),#1098,.F.);
#521 = FACE_BOUND('',#522,.F.);
#522 = EDGE_LOOP('',(#523,#531,#532,#533,#638,#646,#751,#759,#864,#872,
    #977,#983,#984,#985,#1010,#1018,#1041,#1042,#1067,#1075));
#523 = ORIENTED_EDGE('',*,*,#524,.F.);
#524 = EDGE_CURVE('',#199,#525,#527,.T.);
#525 = VERTEX_POINT('',#526);
#526 = CARTESIAN_POINT('',(133.34514304774,-44.75026111292,
    2.650000000001));
#527 = LINE('',#528,#529);
#528 = CARTESIAN_POINT('',(133.34514304774,-44.75026111292,0.));
#529 = VECTOR('',#530,1.);
#530 = DIRECTION('',(0.,0.,1.));
#531 = ORIENTED_EDGE('',*,*,#198,.F.);
#532 = ORIENTED_EDGE('',*,*,#524,.T.);
#533 = ORIENTED_EDGE('',*,*,#534,.T.);
#534 = EDGE_CURVE('',#525,#535,#537,.T.);
#535 = VERTEX_POINT('',#536);
#536 = CARTESIAN_POINT('',(131.48181808967,-43.75026111292,
    1.940518994979));
#537 = B_SPLINE_CURVE_WITH_KNOTS('',8,(#538,#539,#540,#541,#542,#543,
    #544,#545,#546,#547,#548,#549,#550,#551,#552,#553,#554,#555,#556,
    #557,#558,#559,#560,#561,#562,#563,#564,#565,#566,#567,#568,#569,
    #570,#571,#572,#573,#574,#575,#576,#577,#578,#579,#580,#581,#582,
    #583,#584,#585,#586,#587,#588,#589,#590,#591,#592,#593,#594,#595,
    #596,#597,#598,#599,#600,#601,#602,#603,#604,#605,#606,#607,#608,
    #609,#610,#611,#612,#613,#614,#615,#616,#617,#618,#619,#620,#621,
    #622,#623,#624,#625,#626,#627,#628,#629,#630,#631,#632,#633,#634,
    #635,#636,#637),.UNSPECIFIED.,.F.,.F.,(9,7,7,7,7,7,7,7,7,7,7,7,7,7,9
    ),(0.,3.108655011868E-02,7.893949836918E-02,0.127281570047,
    0.27314328898,0.330911531565,0.417385543876,0.477691913716,
    0.623575971983,0.707164688122,0.751201664899,0.770517651461,
    0.830065933247,0.878265110394,1.),.UNSPECIFIED.);
#538 = CARTESIAN_POINT('',(133.34514304774,-44.75026111292,2.65));
#539 = CARTESIAN_POINT('',(133.34514304774,-44.77170083822,2.65));
#540 = CARTESIAN_POINT('',(133.3447052514,-44.79295693553,2.648499125283
    ));
#541 = CARTESIAN_POINT('',(133.3438428832,-44.81402965612,2.645542090132
    ));
#542 = CARTESIAN_POINT('',(133.3425678335,-44.8349060649,2.641209734189)
  );
#543 = CARTESIAN_POINT('',(133.34089359282,-44.8555506985,2.635620451876
    ));
#544 = CARTESIAN_POINT('',(133.33884014832,-44.87589666981,
    2.628931158489));
#545 = CARTESIAN_POINT('',(133.33644084217,-44.89583721889,
    2.621337792984));
#546 = CARTESIAN_POINT('',(133.32961089088,-44.94505098703,2.60035661256
    ));
#547 = CARTESIAN_POINT('',(133.32470376921,-44.97412454695,2.58581007702
    ));
#548 = CARTESIAN_POINT('',(133.31909085527,-45.00247133447,
    2.569899289091));
#549 = CARTESIAN_POINT('',(133.31282602649,-45.03010832772,
    2.553012750821));
#550 = CARTESIAN_POINT('',(133.30595692375,-45.05706639842,
    2.535444614524));
#551 = CARTESIAN_POINT('',(133.29851420642,-45.08341920967,
    2.517379692947));
#552 = CARTESIAN_POINT('',(133.29048914814,-45.1093111517,2.498882793126
    ));
#553 = CARTESIAN_POINT('',(133.27302117915,-45.16091989482,
    2.460707846358));
#554 = CARTESIAN_POINT('',(133.26361184516,-45.18649204132,
    2.441122877038));
#555 = CARTESIAN_POINT('',(133.25359057336,-45.21168646474,
    2.421279544712));
#556 = CARTESIAN_POINT('',(133.2429698684,-45.23650659024,2.401277865642
    ));
#557 = CARTESIAN_POINT('',(133.23175360982,-45.26097040984,
    2.381182872581));
#558 = CARTESIAN_POINT('',(133.21993492418,-45.28510733377,
    2.361031693715));
#559 = CARTESIAN_POINT('',(133.20749405728,-45.30895504184,
    2.340840631627));
#560 = CARTESIAN_POINT('',(133.1548764416,-45.40376811857,2.259577463545
    ));
#561 = CARTESIAN_POINT('',(133.10961282027,-45.47231193814,
    2.198565892144));
#562 = CARTESIAN_POINT('',(133.05839287168,-45.53831324034,
    2.138575882515));
#563 = CARTESIAN_POINT('',(133.00090961574,-45.60150808598,
    2.080244658263));
#564 = CARTESIAN_POINT('',(132.93682127834,-45.66143766708,
    2.024341444747));
#565 = CARTESIAN_POINT('',(132.86581552691,-45.71737112058,
    1.971740624573));
#566 = CARTESIAN_POINT('',(132.78763749601,-45.76835173005,
    1.923518556769));
#567 = CARTESIAN_POINT('',(132.66834293567,-45.83087289104,
    1.864134233663));
#568 = CARTESIAN_POINT('',(132.63334866744,-45.84764326633,
    1.848173830504));
#569 = CARTESIAN_POINT('',(132.59724786176,-45.86334162341,
    1.833208132045));
#570 = CARTESIAN_POINT('',(132.56009174032,-45.87786750832,
    1.819339961293));
#571 = CARTESIAN_POINT('',(132.52193761771,-45.89112562175,
    1.806666650463));
#572 = CARTESIAN_POINT('',(132.48284856084,-45.90302580312,
    1.795279962618));
#573 = CARTESIAN_POINT('',(132.44289304829,-45.91348301466,
    1.785266013303));
#574 = CARTESIAN_POINT('',(132.34114780717,-45.93579120845,
    1.763890390872));
#575 = CARTESIAN_POINT('',(132.27839085293,-45.94574889294,
    1.754335030702));
#576 = CARTESIAN_POINT('',(132.21442466497,-45.95195943838,
    1.748369888734));
#577 = CARTESIAN_POINT('',(132.14983030565,-45.95422203665,
    1.746195714424));
#578 = CARTESIAN_POINT('',(132.08520414218,-45.95246595025,
    1.747883257916));
#579 = CARTESIAN_POINT('',(132.021142987,-45.94675045038,1.753373298337)
  );
#580 = CARTESIAN_POINT('',(131.95822923816,-45.93726475504,
    1.762476672094));
#581 = CARTESIAN_POINT('',(131.85432635032,-45.91530594181,
    1.783520320749));
#582 = CARTESIAN_POINT('',(131.81248447371,-45.90460990055,
    1.793764386185));
#583 = CARTESIAN_POINT('',(131.77157551488,-45.89232965579,
    1.805516245165));
#584 = CARTESIAN_POINT('',(131.73167863868,-45.87856124159,
    1.818678680343));
#585 = CARTESIAN_POINT('',(131.69286661383,-45.8634069334,1.833147608194
    ));
#586 = CARTESIAN_POINT('',(131.6552053772,-45.84697526781,1.848812177879
    ));
#587 = CARTESIAN_POINT('',(131.61875359786,-45.82938106234,
    1.865554870105));
#588 = CARTESIAN_POINT('',(131.49843262861,-45.76566494178,
    1.926060841456));
#589 = CARTESIAN_POINT('',(131.4205783704,-45.7144368331,1.974503337613)
  );
#590 = CARTESIAN_POINT('',(131.34989124171,-45.65829632124,
    2.027279994769));
#591 = CARTESIAN_POINT('',(131.28611193636,-45.59819139654,
    2.083320966122));
#592 = CARTESIAN_POINT('',(131.22892610408,-45.53484495578,
    2.141757712388));
#593 = CARTESIAN_POINT('',(131.17799086388,-45.46870623261,
    2.201824525123));
#594 = CARTESIAN_POINT('',(131.13300065164,-45.40002994225,
    2.262887328161));
#595 = CARTESIAN_POINT('',(131.07125614941,-45.28779639624,
    2.358910126476));
#596 = CARTESIAN_POINT('',(131.05117445161,-45.24699213482,
    2.393062600373));
#597 = CARTESIAN_POINT('',(131.03287691471,-45.20552446919,
    2.426878057524));
#598 = CARTESIAN_POINT('',(131.016075505,-45.16272386603,2.460643200374)
  );
#599 = CARTESIAN_POINT('',(131.00082967867,-45.11825477272,
    2.494201668651));
#600 = CARTESIAN_POINT('',(130.98736737185,-45.0721572391,2.526803905243
    ));
#601 = CARTESIAN_POINT('',(130.97589475317,-45.02469419793,
    2.557121709453));
#602 = CARTESIAN_POINT('',(130.96166139031,-44.95039250732,
    2.597397939286));
#603 = CARTESIAN_POINT('',(130.95719178974,-44.92361145163,
    2.610640953795));
#604 = CARTESIAN_POINT('',(130.95332093051,-44.89602284494,2.62268053218
    ));
#605 = CARTESIAN_POINT('',(130.95013843497,-44.86784969093,
    2.633027750154));
#606 = CARTESIAN_POINT('',(130.94769255693,-44.83920851287,
    2.641257663115));
#607 = CARTESIAN_POINT('',(130.94601480752,-44.81011867161,
    2.647011875817));
#608 = CARTESIAN_POINT('',(130.94514304774,-44.7805146227,2.65));
#609 = CARTESIAN_POINT('',(130.94514304774,-44.73699098334,2.65));
#610 = CARTESIAN_POINT('',(130.94531075685,-44.72374697952,
    2.649425209774));
#611 = CARTESIAN_POINT('',(130.94564502403,-44.71054051486,
    2.648278884386));
#612 = CARTESIAN_POINT('',(130.94614401931,-44.6973872863,2.646573599724
    ));
#613 = CARTESIAN_POINT('',(130.94680476339,-44.68430735775,
    2.644331182261));
#614 = CARTESIAN_POINT('',(130.94762265707,-44.67132524352,2.64158263881
    ));
#615 = CARTESIAN_POINT('',(130.94859101075,-44.65846999171,
    2.638368086288));
#616 = CARTESIAN_POINT('',(130.95312119042,-44.60663934246,
    2.623541606533));
#617 = CARTESIAN_POINT('',(130.95788863584,-44.56897365532,
    2.608367282804));
#618 = CARTESIAN_POINT('',(130.9638496621,-44.53251247347,2.590253753823
    ));
#619 = CARTESIAN_POINT('',(130.97090118894,-44.49720551661,
    2.570134604632));
#620 = CARTESIAN_POINT('',(130.9789303286,-44.46304246011,2.548731635353
    ));
#621 = CARTESIAN_POINT('',(130.9878444521,-44.4299220387,2.52649613435)
  );
#622 = CARTESIAN_POINT('',(130.9976434727,-44.39757346917,2.503589051731
    ));
#623 = CARTESIAN_POINT('',(131.01726303153,-44.3396078996,2.46071196543)
  );
#624 = CARTESIAN_POINT('',(131.02667154604,-44.31403725217,2.44112839361
    ));
#625 = CARTESIAN_POINT('',(131.03669306266,-44.2888414115,2.421284163459
    ));
#626 = CARTESIAN_POINT('',(131.04731487031,-44.2640182204,2.401280094474
    ));
#627 = CARTESIAN_POINT('',(131.05853267201,-44.23955101214,
    2.381182274492));
#628 = CARTESIAN_POINT('',(131.07035270706,-44.21541170177,
    2.361029013509));
#629 = CARTESIAN_POINT('',(131.08279387328,-44.19156387732,
    2.340837797501));
#630 = CARTESIAN_POINT('',(131.12896587413,-44.10836532483,
    2.269529300954));
#631 = CARTESIAN_POINT('',(131.16606823821,-44.05062810315,
    2.218458281535));
#632 = CARTESIAN_POINT('',(131.20731365845,-43.99469950894,
    2.167997672032));
#633 = CARTESIAN_POINT('',(131.25286512758,-43.94069497896,
    2.118563121215));
#634 = CARTESIAN_POINT('',(131.30291767002,-43.88883730122,
    2.070570273588));
#635 = CARTESIAN_POINT('',(131.35767217933,-43.83946140489,
    2.024496590085));
#636 = CARTESIAN_POINT('',(131.41730942506,-43.79303660635,
    1.980893464767));
#637 = CARTESIAN_POINT('',(131.48197631675,-43.75015617497,
    1.940419947851));
#638 = ORIENTED_EDGE('',*,*,#639,.F.);
#639 = EDGE_CURVE('',#640,#535,#642,.T.);
#640 = VERTEX_POINT('',#641);
#641 = CARTESIAN_POINT('',(131.48181808967,-43.75026111292,
    4.059481005021));
#642 = LINE('',#643,#644);
#643 = CARTESIAN_POINT('',(131.48181808966,-43.75026111292,-3.4E-16));
#644 = VECTOR('',#645,1.);
#645 = DIRECTION('',(0.,0.,-1.));
#646 = ORIENTED_EDGE('',*,*,#647,.F.);
#647 = EDGE_CURVE('',#648,#640,#650,.T.);
#648 = VERTEX_POINT('',#649);
#649 = CARTESIAN_POINT('',(133.34514304774,-44.75026111292,
    3.349999999999));
#650 = B_SPLINE_CURVE_WITH_KNOTS('',8,(#651,#652,#653,#654,#655,#656,
    #657,#658,#659,#660,#661,#662,#663,#664,#665,#666,#667,#668,#669,
    #670,#671,#672,#673,#674,#675,#676,#677,#678,#679,#680,#681,#682,
    #683,#684,#685,#686,#687,#688,#689,#690,#691,#692,#693,#694,#695,
    #696,#697,#698,#699,#700,#701,#702,#703,#704,#705,#706,#707,#708,
    #709,#710,#711,#712,#713,#714,#715,#716,#717,#718,#719,#720,#721,
    #722,#723,#724,#725,#726,#727,#728,#729,#730,#731,#732,#733,#734,
    #735,#736,#737,#738,#739,#740,#741,#742,#743,#744,#745,#746,#747,
    #748,#749,#750),.UNSPECIFIED.,.F.,.F.,(9,7,7,7,7,7,7,7,7,7,7,7,7,7,9
    ),(0.,3.10865501203E-02,7.893949837339E-02,0.127281570054,
    0.273143288995,0.330911531584,0.4173855439,0.477691913744,
    0.623575972019,0.707164688164,0.751201664863,0.770517651428,
    0.830065933223,0.878265110377,1.),.UNSPECIFIED.);
#651 = CARTESIAN_POINT('',(133.34514304774,-44.75026111292,3.35));
#652 = CARTESIAN_POINT('',(133.34514304774,-44.77170083822,3.35));
#653 = CARTESIAN_POINT('',(133.3447052514,-44.79295693553,3.351500874717
    ));
#654 = CARTESIAN_POINT('',(133.3438428832,-44.81402965612,3.354457909868
    ));
#655 = CARTESIAN_POINT('',(133.3425678335,-44.8349060649,3.358790265811)
  );
#656 = CARTESIAN_POINT('',(133.34089359282,-44.8555506985,3.364379548124
    ));
#657 = CARTESIAN_POINT('',(133.33884014832,-44.87589666981,
    3.371068841511));
#658 = CARTESIAN_POINT('',(133.33644084217,-44.89583721889,
    3.378662207016));
#659 = CARTESIAN_POINT('',(133.32961089088,-44.94505098703,3.39964338744
    ));
#660 = CARTESIAN_POINT('',(133.32470376921,-44.97412454695,3.41418992298
    ));
#661 = CARTESIAN_POINT('',(133.31909085527,-45.00247133447,
    3.430100710909));
#662 = CARTESIAN_POINT('',(133.31282602649,-45.03010832772,
    3.446987249179));
#663 = CARTESIAN_POINT('',(133.30595692375,-45.05706639842,
    3.464555385476));
#664 = CARTESIAN_POINT('',(133.29851420642,-45.08341920967,
    3.482620307053));
#665 = CARTESIAN_POINT('',(133.29048914814,-45.10931115171,
    3.501117206874));
#666 = CARTESIAN_POINT('',(133.27302117915,-45.16091989482,
    3.539292153642));
#667 = CARTESIAN_POINT('',(133.26361184516,-45.18649204132,
    3.558877122962));
#668 = CARTESIAN_POINT('',(133.25359057336,-45.21168646474,
    3.578720455288));
#669 = CARTESIAN_POINT('',(133.2429698684,-45.23650659024,3.598722134357
    ));
#670 = CARTESIAN_POINT('',(133.23175360982,-45.26097040984,
    3.618817127419));
#671 = CARTESIAN_POINT('',(133.21993492418,-45.28510733377,
    3.638968306285));
#672 = CARTESIAN_POINT('',(133.20749405728,-45.30895504184,
    3.659159368373));
#673 = CARTESIAN_POINT('',(133.1548764416,-45.40376811857,3.740422536455
    ));
#674 = CARTESIAN_POINT('',(133.10961282027,-45.47231193814,
    3.801434107857));
#675 = CARTESIAN_POINT('',(133.05839287169,-45.53831324034,
    3.861424117483));
#676 = CARTESIAN_POINT('',(133.00090961573,-45.60150808598,
    3.919755341739));
#677 = CARTESIAN_POINT('',(132.93682127834,-45.66143766708,
    3.975658555251));
#678 = CARTESIAN_POINT('',(132.86581552691,-45.71737112058,
    4.028259375428));
#679 = CARTESIAN_POINT('',(132.78763749601,-45.76835173005,
    4.076481443231));
#680 = CARTESIAN_POINT('',(132.66834293567,-45.83087289104,
    4.135865766337));
#681 = CARTESIAN_POINT('',(132.63334866744,-45.84764326633,
    4.151826169496));
#682 = CARTESIAN_POINT('',(132.59724786176,-45.86334162341,
    4.166791867955));
#683 = CARTESIAN_POINT('',(132.56009174032,-45.87786750832,
    4.180660038707));
#684 = CARTESIAN_POINT('',(132.52193761771,-45.89112562175,
    4.193333349537));
#685 = CARTESIAN_POINT('',(132.48284856084,-45.90302580312,
    4.204720037382));
#686 = CARTESIAN_POINT('',(132.44289304829,-45.91348301466,
    4.214733986697));
#687 = CARTESIAN_POINT('',(132.34114780717,-45.93579120845,
    4.236109609128));
#688 = CARTESIAN_POINT('',(132.27839085293,-45.94574889294,
    4.245664969298));
#689 = CARTESIAN_POINT('',(132.21442466497,-45.95195943838,
    4.251630111266));
#690 = CARTESIAN_POINT('',(132.14983030565,-45.95422203665,
    4.253804285576));
#691 = CARTESIAN_POINT('',(132.08520414218,-45.95246595025,
    4.252116742084));
#692 = CARTESIAN_POINT('',(132.021142987,-45.94675045038,4.246626701663)
  );
#693 = CARTESIAN_POINT('',(131.95822923816,-45.93726475504,
    4.237523327906));
#694 = CARTESIAN_POINT('',(131.85432635032,-45.91530594181,
    4.216479679251));
#695 = CARTESIAN_POINT('',(131.81248447371,-45.90460990055,
    4.206235613815));
#696 = CARTESIAN_POINT('',(131.77157551488,-45.89232965579,
    4.194483754835));
#697 = CARTESIAN_POINT('',(131.73167863868,-45.87856124159,
    4.181321319657));
#698 = CARTESIAN_POINT('',(131.69286661383,-45.8634069334,4.166852391806
    ));
#699 = CARTESIAN_POINT('',(131.6552053772,-45.84697526781,4.151187822121
    ));
#700 = CARTESIAN_POINT('',(131.61875359786,-45.82938106234,
    4.134445129895));
#701 = CARTESIAN_POINT('',(131.49843262861,-45.76566494177,
    4.073939158544));
#702 = CARTESIAN_POINT('',(131.4205783704,-45.7144368331,4.025496662388)
  );
#703 = CARTESIAN_POINT('',(131.34989124171,-45.65829632124,
    3.972720005231));
#704 = CARTESIAN_POINT('',(131.28611193636,-45.59819139654,
    3.916679033879));
#705 = CARTESIAN_POINT('',(131.22892610408,-45.53484495578,
    3.858242287611));
#706 = CARTESIAN_POINT('',(131.17799086388,-45.46870623261,
    3.798175474878));
#707 = CARTESIAN_POINT('',(131.13300065164,-45.40002994225,
    3.737112671839));
#708 = CARTESIAN_POINT('',(131.07125614941,-45.28779639624,
    3.641089873524));
#709 = CARTESIAN_POINT('',(131.05117445161,-45.24699213482,
    3.606937399627));
#710 = CARTESIAN_POINT('',(131.03287691471,-45.20552446919,
    3.573121942476));
#711 = CARTESIAN_POINT('',(131.016075505,-45.16272386603,3.539356799626)
  );
#712 = CARTESIAN_POINT('',(131.00082967867,-45.11825477272,
    3.505798331349));
#713 = CARTESIAN_POINT('',(130.98736737185,-45.0721572391,3.473196094758
    ));
#714 = CARTESIAN_POINT('',(130.97589475317,-45.02469419793,
    3.442878290547));
#715 = CARTESIAN_POINT('',(130.96166139032,-44.95039250737,3.40260206074
    ));
#716 = CARTESIAN_POINT('',(130.95719178973,-44.9236114516,3.389359046181
    ));
#717 = CARTESIAN_POINT('',(130.9533209305,-44.89602284489,3.377319467805
    ));
#718 = CARTESIAN_POINT('',(130.95013843498,-44.86784969092,
    3.366972249859));
#719 = CARTESIAN_POINT('',(130.94769255694,-44.83920851293,
    3.358742336897));
#720 = CARTESIAN_POINT('',(130.94601480752,-44.81011867164,
    3.352988124175));
#721 = CARTESIAN_POINT('',(130.94514304774,-44.78051462264,3.35));
#722 = CARTESIAN_POINT('',(130.94514304774,-44.73699098334,3.35));
#723 = CARTESIAN_POINT('',(130.94531075685,-44.72374697952,
    3.350574790226));
#724 = CARTESIAN_POINT('',(130.94564502403,-44.71054051486,
    3.351721115614));
#725 = CARTESIAN_POINT('',(130.94614401931,-44.6973872863,3.353426400276
    ));
#726 = CARTESIAN_POINT('',(130.94680476339,-44.68430735775,
    3.355668817739));
#727 = CARTESIAN_POINT('',(130.94762265707,-44.67132524352,3.35841736119
    ));
#728 = CARTESIAN_POINT('',(130.94859101075,-44.65846999171,
    3.361631913712));
#729 = CARTESIAN_POINT('',(130.95312119042,-44.60663934246,
    3.376458393467));
#730 = CARTESIAN_POINT('',(130.95788863584,-44.56897365532,
    3.391632717196));
#731 = CARTESIAN_POINT('',(130.9638496621,-44.53251247347,3.409746246176
    ));
#732 = CARTESIAN_POINT('',(130.97090118894,-44.49720551661,
    3.429865395368));
#733 = CARTESIAN_POINT('',(130.9789303286,-44.46304246011,3.451268364647
    ));
#734 = CARTESIAN_POINT('',(130.9878444521,-44.4299220387,3.47350386565)
  );
#735 = CARTESIAN_POINT('',(130.9976434727,-44.39757346917,3.49641094827)
  );
#736 = CARTESIAN_POINT('',(131.01726303153,-44.3396078996,3.53928803457)
  );
#737 = CARTESIAN_POINT('',(131.02667154604,-44.31403725217,3.55887160639
    ));
#738 = CARTESIAN_POINT('',(131.03669306266,-44.2888414115,3.578715836541
    ));
#739 = CARTESIAN_POINT('',(131.04731487031,-44.2640182204,3.598719905526
    ));
#740 = CARTESIAN_POINT('',(131.05853267201,-44.23955101214,
    3.618817725508));
#741 = CARTESIAN_POINT('',(131.07035270706,-44.21541170177,
    3.638970986491));
#742 = CARTESIAN_POINT('',(131.08279387328,-44.19156387732,
    3.659162202499));
#743 = CARTESIAN_POINT('',(131.12896587413,-44.10836532483,
    3.730470699046));
#744 = CARTESIAN_POINT('',(131.16606823821,-44.05062810315,
    3.781541718465));
#745 = CARTESIAN_POINT('',(131.20731365845,-43.99469950894,
    3.832002327968));
#746 = CARTESIAN_POINT('',(131.25286512758,-43.94069497896,
    3.881436878785));
#747 = CARTESIAN_POINT('',(131.30291767002,-43.88883730122,
    3.929429726412));
#748 = CARTESIAN_POINT('',(131.35767217933,-43.83946140489,
    3.975503409915));
#749 = CARTESIAN_POINT('',(131.41730942506,-43.79303660635,
    4.019106535233));
#750 = CARTESIAN_POINT('',(131.48197631675,-43.75015617497,
    4.059580052149));
#751 = ORIENTED_EDGE('',*,*,#752,.T.);
#752 = EDGE_CURVE('',#648,#753,#755,.T.);
#753 = VERTEX_POINT('',#754);
#754 = CARTESIAN_POINT('',(133.34514304774,-44.75026111292,23.65));
#755 = LINE('',#756,#757);
#756 = CARTESIAN_POINT('',(133.34514304774,-44.75026111292,0.));
#757 = VECTOR('',#758,1.);
#758 = DIRECTION('',(0.,0.,1.));
#759 = ORIENTED_EDGE('',*,*,#760,.T.);
#760 = EDGE_CURVE('',#753,#761,#763,.T.);
#761 = VERTEX_POINT('',#762);
#762 = CARTESIAN_POINT('',(131.48181808966,-43.75026111292,
    22.940518994979));
#763 = B_SPLINE_CURVE_WITH_KNOTS('',8,(#764,#765,#766,#767,#768,#769,
    #770,#771,#772,#773,#774,#775,#776,#777,#778,#779,#780,#781,#782,
    #783,#784,#785,#786,#787,#788,#789,#790,#791,#792,#793,#794,#795,
    #796,#797,#798,#799,#800,#801,#802,#803,#804,#805,#806,#807,#808,
    #809,#810,#811,#812,#813,#814,#815,#816,#817,#818,#819,#820,#821,
    #822,#823,#824,#825,#826,#827,#828,#829,#830,#831,#832,#833,#834,
    #835,#836,#837,#838,#839,#840,#841,#842,#843,#844,#845,#846,#847,
    #848,#849,#850,#851,#852,#853,#854,#855,#856,#857,#858,#859,#860,
    #861,#862,#863),.UNSPECIFIED.,.F.,.F.,(9,7,7,7,7,7,7,7,7,7,7,7,7,7,9
    ),(0.,3.108655010978E-02,7.893949834657E-02,0.127281570011,
    0.2731432889,0.330911531468,0.417385543754,0.477691913595,
    0.623575971904,0.707164688068,0.751201664858,0.770517651424,
    0.830065933217,0.878265110372,1.),.UNSPECIFIED.);
#764 = CARTESIAN_POINT('',(133.34514304774,-44.75026111292,23.65));
#765 = CARTESIAN_POINT('',(133.34514304774,-44.77170083822,23.65));
#766 = CARTESIAN_POINT('',(133.3447052514,-44.79295693553,
    23.648499125283));
#767 = CARTESIAN_POINT('',(133.3438428832,-44.81402965612,
    23.645542090132));
#768 = CARTESIAN_POINT('',(133.3425678335,-44.8349060649,23.641209734189
    ));
#769 = CARTESIAN_POINT('',(133.34089359282,-44.8555506985,
    23.635620451876));
#770 = CARTESIAN_POINT('',(133.33884014832,-44.87589666981,
    23.628931158489));
#771 = CARTESIAN_POINT('',(133.33644084217,-44.89583721889,
    23.621337792984));
#772 = CARTESIAN_POINT('',(133.32961089088,-44.94505098703,
    23.60035661256));
#773 = CARTESIAN_POINT('',(133.32470376921,-44.97412454695,
    23.58581007702));
#774 = CARTESIAN_POINT('',(133.31909085527,-45.00247133447,
    23.569899289091));
#775 = CARTESIAN_POINT('',(133.31282602649,-45.03010832772,
    23.553012750821));
#776 = CARTESIAN_POINT('',(133.30595692375,-45.05706639842,
    23.535444614524));
#777 = CARTESIAN_POINT('',(133.29851420642,-45.08341920967,
    23.517379692947));
#778 = CARTESIAN_POINT('',(133.29048914814,-45.1093111517,
    23.498882793126));
#779 = CARTESIAN_POINT('',(133.27302117915,-45.16091989482,
    23.460707846358));
#780 = CARTESIAN_POINT('',(133.26361184516,-45.18649204132,
    23.441122877038));
#781 = CARTESIAN_POINT('',(133.25359057336,-45.21168646474,
    23.421279544712));
#782 = CARTESIAN_POINT('',(133.2429698684,-45.23650659024,
    23.401277865642));
#783 = CARTESIAN_POINT('',(133.23175360982,-45.26097040984,
    23.381182872581));
#784 = CARTESIAN_POINT('',(133.21993492418,-45.28510733377,
    23.361031693715));
#785 = CARTESIAN_POINT('',(133.20749405728,-45.30895504184,
    23.340840631627));
#786 = CARTESIAN_POINT('',(133.1548764416,-45.40376811857,
    23.259577463545));
#787 = CARTESIAN_POINT('',(133.10961282027,-45.47231193814,
    23.198565892144));
#788 = CARTESIAN_POINT('',(133.05839287168,-45.53831324034,
    23.138575882516));
#789 = CARTESIAN_POINT('',(133.00090961573,-45.60150808598,
    23.080244658262));
#790 = CARTESIAN_POINT('',(132.93682127834,-45.66143766708,
    23.024341444749));
#791 = CARTESIAN_POINT('',(132.86581552691,-45.71737112058,
    22.971740624572));
#792 = CARTESIAN_POINT('',(132.78763749601,-45.76835173005,
    22.923518556769));
#793 = CARTESIAN_POINT('',(132.66834293567,-45.83087289104,
    22.864134233663));
#794 = CARTESIAN_POINT('',(132.63334866744,-45.84764326633,
    22.848173830504));
#795 = CARTESIAN_POINT('',(132.59724786176,-45.86334162341,
    22.833208132045));
#796 = CARTESIAN_POINT('',(132.56009174032,-45.87786750832,
    22.819339961293));
#797 = CARTESIAN_POINT('',(132.52193761771,-45.89112562175,
    22.806666650463));
#798 = CARTESIAN_POINT('',(132.48284856084,-45.90302580312,
    22.795279962618));
#799 = CARTESIAN_POINT('',(132.44289304829,-45.91348301466,
    22.785266013303));
#800 = CARTESIAN_POINT('',(132.34114780717,-45.93579120845,
    22.763890390872));
#801 = CARTESIAN_POINT('',(132.27839085293,-45.94574889294,
    22.754335030702));
#802 = CARTESIAN_POINT('',(132.21442466497,-45.95195943838,
    22.748369888734));
#803 = CARTESIAN_POINT('',(132.14983030565,-45.95422203665,
    22.746195714424));
#804 = CARTESIAN_POINT('',(132.08520414218,-45.95246595025,
    22.747883257916));
#805 = CARTESIAN_POINT('',(132.021142987,-45.94675045038,22.753373298337
    ));
#806 = CARTESIAN_POINT('',(131.95822923816,-45.93726475504,
    22.762476672094));
#807 = CARTESIAN_POINT('',(131.85432635031,-45.91530594181,
    22.783520320752));
#808 = CARTESIAN_POINT('',(131.8124844737,-45.90460990055,
    22.793764386187));
#809 = CARTESIAN_POINT('',(131.77157551489,-45.89232965579,
    22.805516245164));
#810 = CARTESIAN_POINT('',(131.73167863869,-45.87856124159,
    22.818678680339));
#811 = CARTESIAN_POINT('',(131.69286661384,-45.8634069334,
    22.833147608191));
#812 = CARTESIAN_POINT('',(131.6552053772,-45.84697526781,22.84881217788
    ));
#813 = CARTESIAN_POINT('',(131.61875359785,-45.82938106234,
    22.86555487011));
#814 = CARTESIAN_POINT('',(131.49843262861,-45.76566494178,
    22.926060841456));
#815 = CARTESIAN_POINT('',(131.4205783704,-45.7144368331,22.974503337612
    ));
#816 = CARTESIAN_POINT('',(131.34989124171,-45.65829632124,
    23.027279994768));
#817 = CARTESIAN_POINT('',(131.28611193636,-45.59819139654,
    23.083320966122));
#818 = CARTESIAN_POINT('',(131.22892610408,-45.53484495578,
    23.141757712389));
#819 = CARTESIAN_POINT('',(131.17799086388,-45.46870623261,
    23.201824525122));
#820 = CARTESIAN_POINT('',(131.13300065164,-45.40002994225,
    23.262887328161));
#821 = CARTESIAN_POINT('',(131.07125614941,-45.28779639624,
    23.358910126476));
#822 = CARTESIAN_POINT('',(131.05117445161,-45.24699213482,
    23.393062600373));
#823 = CARTESIAN_POINT('',(131.03287691471,-45.20552446919,
    23.426878057524));
#824 = CARTESIAN_POINT('',(131.016075505,-45.16272386603,23.460643200374
    ));
#825 = CARTESIAN_POINT('',(131.00082967867,-45.11825477272,
    23.494201668651));
#826 = CARTESIAN_POINT('',(130.98736737185,-45.0721572391,
    23.526803905243));
#827 = CARTESIAN_POINT('',(130.97589475317,-45.02469419793,
    23.557121709453));
#828 = CARTESIAN_POINT('',(130.96166139031,-44.95039250732,
    23.597397939286));
#829 = CARTESIAN_POINT('',(130.95719178974,-44.92361145163,
    23.610640953795));
#830 = CARTESIAN_POINT('',(130.95332093051,-44.89602284494,
    23.62268053218));
#831 = CARTESIAN_POINT('',(130.95013843497,-44.86784969093,
    23.633027750154));
#832 = CARTESIAN_POINT('',(130.94769255693,-44.83920851287,
    23.641257663115));
#833 = CARTESIAN_POINT('',(130.94601480752,-44.81011867161,
    23.647011875817));
#834 = CARTESIAN_POINT('',(130.94514304774,-44.7805146227,23.65));
#835 = CARTESIAN_POINT('',(130.94514304774,-44.73699098334,23.65));
#836 = CARTESIAN_POINT('',(130.94531075685,-44.72374697952,
    23.649425209774));
#837 = CARTESIAN_POINT('',(130.94564502403,-44.71054051486,
    23.648278884386));
#838 = CARTESIAN_POINT('',(130.94614401931,-44.69738728629,
    23.646573599724));
#839 = CARTESIAN_POINT('',(130.94680476339,-44.68430735775,
    23.644331182261));
#840 = CARTESIAN_POINT('',(130.94762265707,-44.67132524352,
    23.64158263881));
#841 = CARTESIAN_POINT('',(130.94859101075,-44.65846999171,
    23.638368086288));
#842 = CARTESIAN_POINT('',(130.95312119042,-44.60663934246,
    23.623541606533));
#843 = CARTESIAN_POINT('',(130.95788863584,-44.56897365532,
    23.608367282804));
#844 = CARTESIAN_POINT('',(130.9638496621,-44.53251247347,
    23.590253753824));
#845 = CARTESIAN_POINT('',(130.97090118894,-44.49720551661,
    23.570134604632));
#846 = CARTESIAN_POINT('',(130.9789303286,-44.46304246011,
    23.548731635353));
#847 = CARTESIAN_POINT('',(130.9878444521,-44.4299220387,23.52649613435)
  );
#848 = CARTESIAN_POINT('',(130.9976434727,-44.39757346917,
    23.503589051731));
#849 = CARTESIAN_POINT('',(131.01726303153,-44.3396078996,
    23.460711965429));
#850 = CARTESIAN_POINT('',(131.02667154604,-44.31403725217,
    23.44112839361));
#851 = CARTESIAN_POINT('',(131.03669306266,-44.2888414115,
    23.421284163459));
#852 = CARTESIAN_POINT('',(131.04731487031,-44.2640182204,
    23.401280094475));
#853 = CARTESIAN_POINT('',(131.05853267201,-44.23955101214,
    23.381182274493));
#854 = CARTESIAN_POINT('',(131.07035270706,-44.21541170177,
    23.361029013509));
#855 = CARTESIAN_POINT('',(131.08279387328,-44.19156387732,23.3408377975
    ));
#856 = CARTESIAN_POINT('',(131.12896587413,-44.10836532483,
    23.269529300955));
#857 = CARTESIAN_POINT('',(131.16606823821,-44.05062810315,
    23.218458281534));
#858 = CARTESIAN_POINT('',(131.20731365845,-43.99469950894,
    23.167997672032));
#859 = CARTESIAN_POINT('',(131.25286512758,-43.94069497896,
    23.118563121215));
#860 = CARTESIAN_POINT('',(131.30291767002,-43.88883730122,
    23.070570273588));
#861 = CARTESIAN_POINT('',(131.35767217933,-43.83946140489,
    23.024496590085));
#862 = CARTESIAN_POINT('',(131.41730942506,-43.79303660635,
    22.980893464767));
#863 = CARTESIAN_POINT('',(131.48197631675,-43.75015617497,
    22.940419947851));
#864 = ORIENTED_EDGE('',*,*,#865,.F.);
#865 = EDGE_CURVE('',#866,#761,#868,.T.);
#866 = VERTEX_POINT('',#867);
#867 = CARTESIAN_POINT('',(131.48181808966,-43.75026111292,
    25.059481005021));
#868 = LINE('',#869,#870);
#869 = CARTESIAN_POINT('',(131.48181808966,-43.75026111292,-3.4E-16));
#870 = VECTOR('',#871,1.);
#871 = DIRECTION('',(0.,0.,-1.));
#872 = ORIENTED_EDGE('',*,*,#873,.F.);
#873 = EDGE_CURVE('',#874,#866,#876,.T.);
#874 = VERTEX_POINT('',#875);
#875 = CARTESIAN_POINT('',(133.34514304774,-44.75026111292,24.35));
#876 = B_SPLINE_CURVE_WITH_KNOTS('',8,(#877,#878,#879,#880,#881,#882,
    #883,#884,#885,#886,#887,#888,#889,#890,#891,#892,#893,#894,#895,
    #896,#897,#898,#899,#900,#901,#902,#903,#904,#905,#906,#907,#908,
    #909,#910,#911,#912,#913,#914,#915,#916,#917,#918,#919,#920,#921,
    #922,#923,#924,#925,#926,#927,#928,#929,#930,#931,#932,#933,#934,
    #935,#936,#937,#938,#939,#940,#941,#942,#943,#944,#945,#946,#947,
    #948,#949,#950,#951,#952,#953,#954,#955,#956,#957,#958,#959,#960,
    #961,#962,#963,#964,#965,#966,#967,#968,#969,#970,#971,#972,#973,
    #974,#975,#976),.UNSPECIFIED.,.F.,.F.,(9,7,7,7,7,7,7,7,7,7,7,7,7,7,9
    ),(0.,3.108655012184E-02,7.893949837725E-02,0.127281570061,
    0.273143289008,0.330911531597,0.417385543908,0.477691913749,
    0.623575972017,0.707164688157,0.751201664935,0.770517651496,
    0.830065933272,0.878265110412,1.),.UNSPECIFIED.);
#877 = CARTESIAN_POINT('',(133.34514304774,-44.75026111292,24.35));
#878 = CARTESIAN_POINT('',(133.34514304774,-44.77170083822,24.35));
#879 = CARTESIAN_POINT('',(133.3447052514,-44.79295693553,
    24.351500874717));
#880 = CARTESIAN_POINT('',(133.3438428832,-44.81402965612,
    24.354457909868));
#881 = CARTESIAN_POINT('',(133.3425678335,-44.8349060649,24.358790265811
    ));
#882 = CARTESIAN_POINT('',(133.34089359282,-44.8555506985,
    24.364379548124));
#883 = CARTESIAN_POINT('',(133.33884014832,-44.87589666981,
    24.371068841511));
#884 = CARTESIAN_POINT('',(133.33644084217,-44.89583721889,
    24.378662207016));
#885 = CARTESIAN_POINT('',(133.32961089088,-44.94505098703,
    24.399643387441));
#886 = CARTESIAN_POINT('',(133.32470376921,-44.97412454695,
    24.41418992298));
#887 = CARTESIAN_POINT('',(133.31909085527,-45.00247133447,
    24.430100710909));
#888 = CARTESIAN_POINT('',(133.31282602649,-45.03010832772,
    24.446987249179));
#889 = CARTESIAN_POINT('',(133.30595692375,-45.05706639842,
    24.464555385476));
#890 = CARTESIAN_POINT('',(133.29851420642,-45.08341920967,
    24.482620307053));
#891 = CARTESIAN_POINT('',(133.29048914814,-45.10931115171,
    24.501117206874));
#892 = CARTESIAN_POINT('',(133.27302117915,-45.16091989482,
    24.539292153642));
#893 = CARTESIAN_POINT('',(133.26361184516,-45.18649204132,
    24.558877122962));
#894 = CARTESIAN_POINT('',(133.25359057336,-45.21168646474,
    24.578720455288));
#895 = CARTESIAN_POINT('',(133.2429698684,-45.23650659024,
    24.598722134358));
#896 = CARTESIAN_POINT('',(133.23175360982,-45.26097040984,
    24.618817127419));
#897 = CARTESIAN_POINT('',(133.21993492418,-45.28510733377,
    24.638968306285));
#898 = CARTESIAN_POINT('',(133.20749405728,-45.30895504184,
    24.659159368373));
#899 = CARTESIAN_POINT('',(133.1548764416,-45.40376811857,
    24.740422536455));
#900 = CARTESIAN_POINT('',(133.10961282027,-45.47231193814,
    24.801434107857));
#901 = CARTESIAN_POINT('',(133.05839287169,-45.53831324034,
    24.861424117484));
#902 = CARTESIAN_POINT('',(133.00090961573,-45.60150808598,
    24.919755341739));
#903 = CARTESIAN_POINT('',(132.93682127834,-45.66143766708,
    24.975658555251));
#904 = CARTESIAN_POINT('',(132.86581552691,-45.71737112058,
    25.028259375428));
#905 = CARTESIAN_POINT('',(132.78763749601,-45.76835173005,
    25.076481443231));
#906 = CARTESIAN_POINT('',(132.66834293567,-45.83087289104,
    25.135865766336));
#907 = CARTESIAN_POINT('',(132.63334866744,-45.84764326633,
    25.151826169496));
#908 = CARTESIAN_POINT('',(132.59724786176,-45.86334162341,
    25.166791867956));
#909 = CARTESIAN_POINT('',(132.56009174032,-45.87786750832,
    25.180660038708));
#910 = CARTESIAN_POINT('',(132.52193761771,-45.89112562175,
    25.193333349537));
#911 = CARTESIAN_POINT('',(132.48284856084,-45.90302580312,
    25.204720037382));
#912 = CARTESIAN_POINT('',(132.4428930483,-45.91348301466,
    25.214733986697));
#913 = CARTESIAN_POINT('',(132.34114780717,-45.93579120845,
    25.236109609128));
#914 = CARTESIAN_POINT('',(132.27839085293,-45.94574889294,
    25.245664969299));
#915 = CARTESIAN_POINT('',(132.21442466497,-45.95195943838,
    25.251630111266));
#916 = CARTESIAN_POINT('',(132.14983030565,-45.95422203665,
    25.253804285576));
#917 = CARTESIAN_POINT('',(132.08520414218,-45.95246595025,
    25.252116742084));
#918 = CARTESIAN_POINT('',(132.021142987,-45.94675045038,25.246626701663
    ));
#919 = CARTESIAN_POINT('',(131.95822923816,-45.93726475504,
    25.237523327906));
#920 = CARTESIAN_POINT('',(131.85432635032,-45.91530594181,
    25.216479679251));
#921 = CARTESIAN_POINT('',(131.81248447371,-45.90460990055,
    25.206235613815));
#922 = CARTESIAN_POINT('',(131.77157551488,-45.89232965579,
    25.194483754835));
#923 = CARTESIAN_POINT('',(131.73167863868,-45.87856124159,
    25.181321319657));
#924 = CARTESIAN_POINT('',(131.69286661383,-45.8634069334,
    25.166852391806));
#925 = CARTESIAN_POINT('',(131.6552053772,-45.84697526781,
    25.151187822121));
#926 = CARTESIAN_POINT('',(131.61875359786,-45.82938106234,
    25.134445129895));
#927 = CARTESIAN_POINT('',(131.49843262861,-45.76566494177,
    25.073939158544));
#928 = CARTESIAN_POINT('',(131.4205783704,-45.7144368331,25.025496662388
    ));
#929 = CARTESIAN_POINT('',(131.34989124171,-45.65829632124,
    24.972720005231));
#930 = CARTESIAN_POINT('',(131.28611193636,-45.59819139654,
    24.916679033878));
#931 = CARTESIAN_POINT('',(131.22892610408,-45.53484495578,
    24.858242287611));
#932 = CARTESIAN_POINT('',(131.17799086388,-45.46870623261,
    24.798175474878));
#933 = CARTESIAN_POINT('',(131.13300065164,-45.40002994225,
    24.737112671839));
#934 = CARTESIAN_POINT('',(131.07125614941,-45.28779639624,
    24.641089873524));
#935 = CARTESIAN_POINT('',(131.05117445161,-45.24699213482,
    24.606937399627));
#936 = CARTESIAN_POINT('',(131.03287691471,-45.20552446919,
    24.573121942476));
#937 = CARTESIAN_POINT('',(131.016075505,-45.16272386603,24.539356799626
    ));
#938 = CARTESIAN_POINT('',(131.00082967867,-45.11825477272,
    24.505798331349));
#939 = CARTESIAN_POINT('',(130.98736737185,-45.0721572391,
    24.473196094757));
#940 = CARTESIAN_POINT('',(130.97589475317,-45.02469419793,
    24.442878290547));
#941 = CARTESIAN_POINT('',(130.96166139031,-44.95039250732,
    24.402602060714));
#942 = CARTESIAN_POINT('',(130.95719178974,-44.92361145163,
    24.389359046205));
#943 = CARTESIAN_POINT('',(130.95332093051,-44.89602284494,
    24.37731946782));
#944 = CARTESIAN_POINT('',(130.95013843497,-44.86784969093,
    24.366972249846));
#945 = CARTESIAN_POINT('',(130.94769255693,-44.83920851287,
    24.358742336885));
#946 = CARTESIAN_POINT('',(130.94601480752,-44.81011867161,
    24.352988124183));
#947 = CARTESIAN_POINT('',(130.94514304774,-44.7805146227,24.35));
#948 = CARTESIAN_POINT('',(130.94514304774,-44.73699098334,24.35));
#949 = CARTESIAN_POINT('',(130.94531075685,-44.72374697952,
    24.350574790226));
#950 = CARTESIAN_POINT('',(130.94564502403,-44.71054051486,
    24.351721115614));
#951 = CARTESIAN_POINT('',(130.94614401931,-44.69738728629,
    24.353426400276));
#952 = CARTESIAN_POINT('',(130.94680476339,-44.68430735775,
    24.35566881774));
#953 = CARTESIAN_POINT('',(130.94762265707,-44.67132524352,
    24.35841736119));
#954 = CARTESIAN_POINT('',(130.94859101075,-44.65846999171,
    24.361631913712));
#955 = CARTESIAN_POINT('',(130.95312119042,-44.60663934246,
    24.376458393467));
#956 = CARTESIAN_POINT('',(130.95788863584,-44.56897365532,
    24.391632717196));
#957 = CARTESIAN_POINT('',(130.9638496621,-44.53251247347,
    24.409746246177));
#958 = CARTESIAN_POINT('',(130.97090118894,-44.49720551661,
    24.429865395368));
#959 = CARTESIAN_POINT('',(130.9789303286,-44.46304246011,
    24.451268364647));
#960 = CARTESIAN_POINT('',(130.9878444521,-44.4299220387,24.47350386565)
  );
#961 = CARTESIAN_POINT('',(130.9976434727,-44.39757346917,
    24.496410948269));
#962 = CARTESIAN_POINT('',(131.01726303153,-44.3396078996,24.53928803457
    ));
#963 = CARTESIAN_POINT('',(131.02667154604,-44.31403725217,
    24.55887160639));
#964 = CARTESIAN_POINT('',(131.03669306266,-44.2888414115,
    24.578715836541));
#965 = CARTESIAN_POINT('',(131.04731487031,-44.2640182204,
    24.598719905526));
#966 = CARTESIAN_POINT('',(131.05853267201,-44.23955101214,
    24.618817725508));
#967 = CARTESIAN_POINT('',(131.07035270706,-44.21541170177,
    24.638970986491));
#968 = CARTESIAN_POINT('',(131.08279387328,-44.19156387732,24.6591622025
    ));
#969 = CARTESIAN_POINT('',(131.12896587413,-44.10836532483,
    24.730470699046));
#970 = CARTESIAN_POINT('',(131.16606823821,-44.05062810315,
    24.781541718466));
#971 = CARTESIAN_POINT('',(131.20731365845,-43.99469950894,
    24.832002327968));
#972 = CARTESIAN_POINT('',(131.25286512758,-43.94069497896,
    24.881436878785));
#973 = CARTESIAN_POINT('',(131.30291767002,-43.88883730122,
    24.929429726412));
#974 = CARTESIAN_POINT('',(131.35767217933,-43.83946140489,
    24.975503409915));
#975 = CARTESIAN_POINT('',(131.41730942506,-43.79303660635,
    25.019106535234));
#976 = CARTESIAN_POINT('',(131.48197631675,-43.75015617497,
    25.059580052149));
#977 = ORIENTED_EDGE('',*,*,#978,.T.);
#978 = EDGE_CURVE('',#874,#281,#979,.T.);
#979 = LINE('',#980,#981);
#980 = CARTESIAN_POINT('',(133.34514304774,-44.75026111292,0.));
#981 = VECTOR('',#982,1.);
#982 = DIRECTION('',(0.,0.,1.));
#983 = ORIENTED_EDGE('',*,*,#280,.T.);
#984 = ORIENTED_EDGE('',*,*,#978,.F.);
#985 = ORIENTED_EDGE('',*,*,#986,.F.);
#986 = EDGE_CURVE('',#987,#874,#989,.T.);
#987 = VERTEX_POINT('',#988);
#988 = CARTESIAN_POINT('',(132.80846800581,-43.75026111292,
    25.059481005021));
#989 = B_SPLINE_CURVE_WITH_KNOTS('',7,(#990,#991,#992,#993,#994,#995,
    #996,#997,#998,#999,#1000,#1001,#1002,#1003,#1004,#1005,#1006,#1007,
    #1008,#1009),.UNSPECIFIED.,.F.,.F.,(8,6,6,8),(0.,0.487207829832,
    0.825700196464,1.),.UNSPECIFIED.);
#990 = CARTESIAN_POINT('',(132.80830977872,-43.75015617497,
    25.059580052149));
#991 = CARTESIAN_POINT('',(132.88224029868,-43.79917929183,
    25.013308643829));
#992 = CARTESIAN_POINT('',(132.9494596995,-43.8529312948,24.962861726106
    ));
#993 = CARTESIAN_POINT('',(133.01020371135,-43.91046213575,
    24.909294741704));
#994 = CARTESIAN_POINT('',(133.06477559108,-43.97107008271,
    24.853447353498));
#995 = CARTESIAN_POINT('',(133.11350926625,-44.03432926504,
    24.796034145077));
#996 = CARTESIAN_POINT('',(133.15668416168,-44.09998645158,
    24.737647776684));
#997 = CARTESIAN_POINT('',(133.22075108491,-44.21547281754,
    24.638673167271));
#998 = CARTESIAN_POINT('',(133.24372570765,-44.26275925292,
    24.599170258185));
#999 = CARTESIAN_POINT('',(133.26444619541,-44.31122616407,
    24.559926160519));
#1000 = CARTESIAN_POINT('',(133.28320507899,-44.36185524736,
    24.520622145989));
#1001 = CARTESIAN_POINT('',(133.29962549958,-44.41491026782,
    24.481919245764));
#1002 = CARTESIAN_POINT('',(133.31332494129,-44.46979996477,
    24.445974915894));
#1003 = CARTESIAN_POINT('',(133.32958521538,-44.55539265626,
    24.39984145562));
#1004 = CARTESIAN_POINT('',(133.33452946935,-44.58598616455,
    24.385038518592));
#1005 = CARTESIAN_POINT('',(133.33864543814,-44.61755075633,
    24.371976521929));
#1006 = CARTESIAN_POINT('',(133.34181949546,-44.64977980149,
    24.361397423503));
#1007 = CARTESIAN_POINT('',(133.34400147305,-44.68257085354,
    24.353912982473));
#1008 = CARTESIAN_POINT('',(133.34514304774,-44.71599602657,24.35));
#1009 = CARTESIAN_POINT('',(133.34514304774,-44.75026111292,24.35));
#1010 = ORIENTED_EDGE('',*,*,#1011,.T.);
#1011 = EDGE_CURVE('',#987,#1012,#1014,.T.);
#1012 = VERTEX_POINT('',#1013);
#1013 = CARTESIAN_POINT('',(132.80846800581,-43.75026111292,
    22.940518994979));
#1014 = LINE('',#1015,#1016);
#1015 = CARTESIAN_POINT('',(132.80846800581,-43.75026111292,-3.4E-16));
#1016 = VECTOR('',#1017,1.);
#1017 = DIRECTION('',(0.,0.,-1.));
#1018 = ORIENTED_EDGE('',*,*,#1019,.T.);
#1019 = EDGE_CURVE('',#1012,#753,#1020,.T.);
#1020 = B_SPLINE_CURVE_WITH_KNOTS('',7,(#1021,#1022,#1023,#1024,#1025,
    #1026,#1027,#1028,#1029,#1030,#1031,#1032,#1033,#1034,#1035,#1036,
    #1037,#1038,#1039,#1040),.UNSPECIFIED.,.F.,.F.,(8,6,6,8),(0.,
    0.487207829831,0.825700196464,1.),.UNSPECIFIED.);
#1021 = CARTESIAN_POINT('',(132.80830977872,-43.75015617497,
    22.940419947851));
#1022 = CARTESIAN_POINT('',(132.88224029868,-43.79917929183,
    22.986691356171));
#1023 = CARTESIAN_POINT('',(132.9494596995,-43.8529312948,
    23.037138273894));
#1024 = CARTESIAN_POINT('',(133.01020371135,-43.91046213575,
    23.090705258295));
#1025 = CARTESIAN_POINT('',(133.06477559108,-43.97107008271,
    23.146552646502));
#1026 = CARTESIAN_POINT('',(133.11350926625,-44.03432926504,
    23.203965854923));
#1027 = CARTESIAN_POINT('',(133.15668416168,-44.09998645158,
    23.262352223316));
#1028 = CARTESIAN_POINT('',(133.22075108491,-44.21547281754,
    23.361326832729));
#1029 = CARTESIAN_POINT('',(133.24372570765,-44.26275925292,
    23.400829741815));
#1030 = CARTESIAN_POINT('',(133.26444619541,-44.31122616407,
    23.440073839481));
#1031 = CARTESIAN_POINT('',(133.28320507899,-44.36185524736,
    23.479377854012));
#1032 = CARTESIAN_POINT('',(133.29962549958,-44.41491026782,
    23.518080754236));
#1033 = CARTESIAN_POINT('',(133.31332494129,-44.46979996477,
    23.554025084106));
#1034 = CARTESIAN_POINT('',(133.32958521538,-44.55539265626,
    23.60015854438));
#1035 = CARTESIAN_POINT('',(133.33452946935,-44.58598616455,
    23.614961481408));
#1036 = CARTESIAN_POINT('',(133.33864543814,-44.61755075633,
    23.628023478071));
#1037 = CARTESIAN_POINT('',(133.34181949546,-44.64977980149,
    23.638602576497));
#1038 = CARTESIAN_POINT('',(133.34400147305,-44.68257085354,
    23.646087017527));
#1039 = CARTESIAN_POINT('',(133.34514304774,-44.71599602657,23.65));
#1040 = CARTESIAN_POINT('',(133.34514304774,-44.75026111292,23.65));
#1041 = ORIENTED_EDGE('',*,*,#752,.F.);
#1042 = ORIENTED_EDGE('',*,*,#1043,.F.);
#1043 = EDGE_CURVE('',#1044,#648,#1046,.T.);
#1044 = VERTEX_POINT('',#1045);
#1045 = CARTESIAN_POINT('',(132.80846800581,-43.75026111292,
    4.059481005021));
#1046 = B_SPLINE_CURVE_WITH_KNOTS('',7,(#1047,#1048,#1049,#1050,#1051,
    #1052,#1053,#1054,#1055,#1056,#1057,#1058,#1059,#1060,#1061,#1062,
    #1063,#1064,#1065,#1066),.UNSPECIFIED.,.F.,.F.,(8,6,6,8),(0.,
    0.487207829828,0.825700196462,1.),.UNSPECIFIED.);
#1047 = CARTESIAN_POINT('',(132.80830977872,-43.75015617497,
    4.059580052149));
#1048 = CARTESIAN_POINT('',(132.88224029868,-43.79917929183,
    4.013308643829));
#1049 = CARTESIAN_POINT('',(132.9494596995,-43.8529312948,3.962861726106
    ));
#1050 = CARTESIAN_POINT('',(133.01020371135,-43.91046213575,
    3.909294741705));
#1051 = CARTESIAN_POINT('',(133.06477559108,-43.97107008271,
    3.853447353498));
#1052 = CARTESIAN_POINT('',(133.11350926625,-44.03432926504,
    3.796034145077));
#1053 = CARTESIAN_POINT('',(133.15668416168,-44.09998645158,
    3.737647776684));
#1054 = CARTESIAN_POINT('',(133.22075108491,-44.21547281754,
    3.63867316727));
#1055 = CARTESIAN_POINT('',(133.24372570765,-44.26275925292,
    3.599170258186));
#1056 = CARTESIAN_POINT('',(133.26444619541,-44.31122616407,
    3.559926160518));
#1057 = CARTESIAN_POINT('',(133.28320507899,-44.36185524736,
    3.520622145989));
#1058 = CARTESIAN_POINT('',(133.29962549958,-44.41491026782,
    3.481919245764));
#1059 = CARTESIAN_POINT('',(133.31332494129,-44.46979996477,
    3.445974915894));
#1060 = CARTESIAN_POINT('',(133.32958521538,-44.55539265626,
    3.39984145562));
#1061 = CARTESIAN_POINT('',(133.33452946935,-44.58598616455,
    3.385038518592));
#1062 = CARTESIAN_POINT('',(133.33864543814,-44.61755075633,
    3.371976521929));
#1063 = CARTESIAN_POINT('',(133.34181949546,-44.64977980149,
    3.361397423503));
#1064 = CARTESIAN_POINT('',(133.34400147305,-44.68257085354,
    3.353912982473));
#1065 = CARTESIAN_POINT('',(133.34514304774,-44.71599602657,3.35));
#1066 = CARTESIAN_POINT('',(133.34514304774,-44.75026111292,3.35));
#1067 = ORIENTED_EDGE('',*,*,#1068,.T.);
#1068 = EDGE_CURVE('',#1044,#1069,#1071,.T.);
#1069 = VERTEX_POINT('',#1070);
#1070 = CARTESIAN_POINT('',(132.80846800581,-43.75026111292,
    1.940518994979));
#1071 = LINE('',#1072,#1073);
#1072 = CARTESIAN_POINT('',(132.80846800581,-43.75026111292,-3.4E-16));
#1073 = VECTOR('',#1074,1.);
#1074 = DIRECTION('',(0.,0.,-1.));
#1075 = ORIENTED_EDGE('',*,*,#1076,.T.);
#1076 = EDGE_CURVE('',#1069,#525,#1077,.T.);
#1077 = B_SPLINE_CURVE_WITH_KNOTS('',7,(#1078,#1079,#1080,#1081,#1082,
    #1083,#1084,#1085,#1086,#1087,#1088,#1089,#1090,#1091,#1092,#1093,
    #1094,#1095,#1096,#1097),.UNSPECIFIED.,.F.,.F.,(8,6,6,8),(0.,
    0.487207829832,0.825700196464,1.),.UNSPECIFIED.);
#1078 = CARTESIAN_POINT('',(132.80830977872,-43.75015617497,
    1.940419947851));
#1079 = CARTESIAN_POINT('',(132.88224029868,-43.79917929183,
    1.986691356171));
#1080 = CARTESIAN_POINT('',(132.9494596995,-43.8529312948,2.037138273894
    ));
#1081 = CARTESIAN_POINT('',(133.01020371135,-43.91046213575,
    2.090705258295));
#1082 = CARTESIAN_POINT('',(133.06477559108,-43.97107008271,
    2.146552646502));
#1083 = CARTESIAN_POINT('',(133.11350926625,-44.03432926504,
    2.203965854923));
#1084 = CARTESIAN_POINT('',(133.15668416168,-44.09998645158,
    2.262352223316));
#1085 = CARTESIAN_POINT('',(133.22075108491,-44.21547281754,
    2.361326832729));
#1086 = CARTESIAN_POINT('',(133.24372570765,-44.26275925292,
    2.400829741815));
#1087 = CARTESIAN_POINT('',(133.26444619541,-44.31122616407,
    2.440073839481));
#1088 = CARTESIAN_POINT('',(133.28320507899,-44.36185524736,
    2.479377854012));
#1089 = CARTESIAN_POINT('',(133.29962549958,-44.41491026782,
    2.518080754236));
#1090 = CARTESIAN_POINT('',(133.31332494129,-44.46979996477,
    2.554025084106));
#1091 = CARTESIAN_POINT('',(133.32958521538,-44.55539265626,
    2.60015854438));
#1092 = CARTESIAN_POINT('',(133.33452946935,-44.58598616455,
    2.614961481408));
#1093 = CARTESIAN_POINT('',(133.33864543814,-44.61755075633,
    2.628023478071));
#1094 = CARTESIAN_POINT('',(133.34181949546,-44.64977980149,
    2.638602576497));
#1095 = CARTESIAN_POINT('',(133.34400147305,-44.68257085354,
    2.646087017527));
#1096 = CARTESIAN_POINT('',(133.34514304774,-44.71599602657,2.65));
#1097 = CARTESIAN_POINT('',(133.34514304774,-44.75026111292,2.65));
#1098 = CYLINDRICAL_SURFACE('',#1099,1.2);
#1099 = AXIS2_PLACEMENT_3D('',#1100,#1101,#1102);
#1100 = CARTESIAN_POINT('',(132.14514304774,-44.75026111292,0.));
#1101 = DIRECTION('',(0.,0.,-1.));
#1102 = DIRECTION('',(1.,0.,0.));
#1103 = ADVANCED_FACE('',(#1104),#1115,.F.);
#1104 = FACE_BOUND('',#1105,.T.);
#1105 = EDGE_LOOP('',(#1106,#1112,#1113,#1114));
#1106 = ORIENTED_EDGE('',*,*,#1107,.T.);
#1107 = EDGE_CURVE('',#210,#292,#1108,.T.);
#1108 = LINE('',#1109,#1110);
#1109 = CARTESIAN_POINT('',(144.14514304774,-43.75026111292,0.));
#1110 = VECTOR('',#1111,1.);
#1111 = DIRECTION('',(0.,0.,1.));
#1112 = ORIENTED_EDGE('',*,*,#291,.T.);
#1113 = ORIENTED_EDGE('',*,*,#1107,.F.);
#1114 = ORIENTED_EDGE('',*,*,#209,.F.);
#1115 = CYLINDRICAL_SURFACE('',#1116,1.2);
#1116 = AXIS2_PLACEMENT_3D('',#1117,#1118,#1119);
#1117 = CARTESIAN_POINT('',(142.94514304774,-43.75026111292,0.));
#1118 = DIRECTION('',(-0.,-0.,-1.));
#1119 = DIRECTION('',(1.,0.,0.));
#1120 = ADVANCED_FACE('',(#1121),#1132,.F.);
#1121 = FACE_BOUND('',#1122,.F.);
#1122 = EDGE_LOOP('',(#1123,#1124,#1130,#1131));
#1123 = ORIENTED_EDGE('',*,*,#220,.F.);
#1124 = ORIENTED_EDGE('',*,*,#1125,.T.);
#1125 = EDGE_CURVE('',#221,#303,#1126,.T.);
#1126 = LINE('',#1127,#1128);
#1127 = CARTESIAN_POINT('',(133.34514304774,-24.75026111292,0.));
#1128 = VECTOR('',#1129,1.);
#1129 = DIRECTION('',(0.,0.,1.));
#1130 = ORIENTED_EDGE('',*,*,#302,.T.);
#1131 = ORIENTED_EDGE('',*,*,#1125,.F.);
#1132 = CYLINDRICAL_SURFACE('',#1133,1.2);
#1133 = AXIS2_PLACEMENT_3D('',#1134,#1135,#1136);
#1134 = CARTESIAN_POINT('',(132.14514304774,-24.75026111292,0.));
#1135 = DIRECTION('',(0.,0.,-1.));
#1136 = DIRECTION('',(1.,0.,0.));
#1137 = ADVANCED_FACE('',(#1138),#1175,.F.);
#1138 = FACE_BOUND('',#1139,.F.);
#1139 = EDGE_LOOP('',(#1140,#1141,#1149,#1156,#1157,#1158,#1165,#1166,
    #1167,#1174));
#1140 = ORIENTED_EDGE('',*,*,#337,.F.);
#1141 = ORIENTED_EDGE('',*,*,#1142,.T.);
#1142 = EDGE_CURVE('',#338,#1143,#1145,.T.);
#1143 = VERTEX_POINT('',#1144);
#1144 = CARTESIAN_POINT('',(133.39514304774,-43.75026111292,3.));
#1145 = LINE('',#1146,#1147);
#1146 = CARTESIAN_POINT('',(133.39514304774,-58.75026111292,3.));
#1147 = VECTOR('',#1148,1.);
#1148 = DIRECTION('',(0.,1.,-2.2E-16));
#1149 = ORIENTED_EDGE('',*,*,#1150,.T.);
#1150 = EDGE_CURVE('',#1143,#1044,#1151,.T.);
#1151 = CIRCLE('',#1152,1.25);
#1152 = AXIS2_PLACEMENT_3D('',#1153,#1154,#1155);
#1153 = CARTESIAN_POINT('',(132.14514304774,-43.75026111292,3.));
#1154 = DIRECTION('',(0.,-1.,0.));
#1155 = DIRECTION('',(1.,0.,0.));
#1156 = ORIENTED_EDGE('',*,*,#1043,.T.);
#1157 = ORIENTED_EDGE('',*,*,#647,.T.);
#1158 = ORIENTED_EDGE('',*,*,#1159,.T.);
#1159 = EDGE_CURVE('',#640,#535,#1160,.T.);
#1160 = CIRCLE('',#1161,1.25);
#1161 = AXIS2_PLACEMENT_3D('',#1162,#1163,#1164);
#1162 = CARTESIAN_POINT('',(132.14514304774,-43.75026111292,3.));
#1163 = DIRECTION('',(0.,-1.,0.));
#1164 = DIRECTION('',(1.,0.,0.));
#1165 = ORIENTED_EDGE('',*,*,#534,.F.);
#1166 = ORIENTED_EDGE('',*,*,#1076,.F.);
#1167 = ORIENTED_EDGE('',*,*,#1168,.T.);
#1168 = EDGE_CURVE('',#1069,#1143,#1169,.T.);
#1169 = CIRCLE('',#1170,1.25);
#1170 = AXIS2_PLACEMENT_3D('',#1171,#1172,#1173);
#1171 = CARTESIAN_POINT('',(132.14514304774,-43.75026111292,3.));
#1172 = DIRECTION('',(0.,-1.,0.));
#1173 = DIRECTION('',(1.,0.,0.));
#1174 = ORIENTED_EDGE('',*,*,#1142,.F.);
#1175 = CYLINDRICAL_SURFACE('',#1176,1.25);
#1176 = AXIS2_PLACEMENT_3D('',#1177,#1178,#1179);
#1177 = CARTESIAN_POINT('',(132.14514304774,-58.75026111292,3.));
#1178 = DIRECTION('',(0.,-1.,2.2E-16));
#1179 = DIRECTION('',(1.,0.,0.));
#1180 = ADVANCED_FACE('',(#1181),#1187,.F.);
#1181 = FACE_BOUND('',#1182,.F.);
#1182 = EDGE_LOOP('',(#1183,#1184,#1185,#1186));
#1183 = ORIENTED_EDGE('',*,*,#356,.T.);
#1184 = ORIENTED_EDGE('',*,*,#479,.T.);
#1185 = ORIENTED_EDGE('',*,*,#402,.F.);
#1186 = ORIENTED_EDGE('',*,*,#379,.F.);
#1187 = PLANE('',#1188);
#1188 = AXIS2_PLACEMENT_3D('',#1189,#1190,#1191);
#1189 = CARTESIAN_POINT('',(128.14514304774,-54.75026111292,0.));
#1190 = DIRECTION('',(1.,0.,0.));
#1191 = DIRECTION('',(0.,-1.,0.));
#1192 = ADVANCED_FACE('',(#1193),#1230,.F.);
#1193 = FACE_BOUND('',#1194,.F.);
#1194 = EDGE_LOOP('',(#1195,#1196,#1204,#1211,#1212,#1213,#1220,#1221,
    #1222,#1229));
#1195 = ORIENTED_EDGE('',*,*,#437,.F.);
#1196 = ORIENTED_EDGE('',*,*,#1197,.T.);
#1197 = EDGE_CURVE('',#438,#1198,#1200,.T.);
#1198 = VERTEX_POINT('',#1199);
#1199 = CARTESIAN_POINT('',(133.39514304774,-43.75026111292,24.));
#1200 = LINE('',#1201,#1202);
#1201 = CARTESIAN_POINT('',(133.39514304774,-58.75026111292,24.));
#1202 = VECTOR('',#1203,1.);
#1203 = DIRECTION('',(0.,1.,-2.2E-16));
#1204 = ORIENTED_EDGE('',*,*,#1205,.T.);
#1205 = EDGE_CURVE('',#1198,#987,#1206,.T.);
#1206 = CIRCLE('',#1207,1.25);
#1207 = AXIS2_PLACEMENT_3D('',#1208,#1209,#1210);
#1208 = CARTESIAN_POINT('',(132.14514304774,-43.75026111292,24.));
#1209 = DIRECTION('',(0.,-1.,0.));
#1210 = DIRECTION('',(1.,0.,0.));
#1211 = ORIENTED_EDGE('',*,*,#986,.T.);
#1212 = ORIENTED_EDGE('',*,*,#873,.T.);
#1213 = ORIENTED_EDGE('',*,*,#1214,.T.);
#1214 = EDGE_CURVE('',#866,#761,#1215,.T.);
#1215 = CIRCLE('',#1216,1.25);
#1216 = AXIS2_PLACEMENT_3D('',#1217,#1218,#1219);
#1217 = CARTESIAN_POINT('',(132.14514304774,-43.75026111292,24.));
#1218 = DIRECTION('',(0.,-1.,0.));
#1219 = DIRECTION('',(1.,0.,0.));
#1220 = ORIENTED_EDGE('',*,*,#760,.F.);
#1221 = ORIENTED_EDGE('',*,*,#1019,.F.);
#1222 = ORIENTED_EDGE('',*,*,#1223,.T.);
#1223 = EDGE_CURVE('',#1012,#1198,#1224,.T.);
#1224 = CIRCLE('',#1225,1.25);
#1225 = AXIS2_PLACEMENT_3D('',#1226,#1227,#1228);
#1226 = CARTESIAN_POINT('',(132.14514304774,-43.75026111292,24.));
#1227 = DIRECTION('',(0.,-1.,0.));
#1228 = DIRECTION('',(1.,0.,0.));
#1229 = ORIENTED_EDGE('',*,*,#1197,.F.);
#1230 = CYLINDRICAL_SURFACE('',#1231,1.25);
#1231 = AXIS2_PLACEMENT_3D('',#1232,#1233,#1234);
#1232 = CARTESIAN_POINT('',(132.14514304774,-58.75026111292,24.));
#1233 = DIRECTION('',(0.,-1.,2.2E-16));
#1234 = DIRECTION('',(1.,0.,0.));
#1235 = ADVANCED_FACE('',(#1236),#1241,.F.);
#1236 = FACE_BOUND('',#1237,.F.);
#1237 = EDGE_LOOP('',(#1238,#1239,#1240));
#1238 = ORIENTED_EDGE('',*,*,#1150,.F.);
#1239 = ORIENTED_EDGE('',*,*,#1168,.F.);
#1240 = ORIENTED_EDGE('',*,*,#1068,.F.);
#1241 = PLANE('',#1242);
#1242 = AXIS2_PLACEMENT_3D('',#1243,#1244,#1245);
#1243 = CARTESIAN_POINT('',(132.14514304774,-43.75026111292,13.5));
#1244 = DIRECTION('',(0.,1.,-3.4E-16));
#1245 = DIRECTION('',(0.,3.4E-16,1.));
#1246 = ADVANCED_FACE('',(#1247),#1252,.F.);
#1247 = FACE_BOUND('',#1248,.F.);
#1248 = EDGE_LOOP('',(#1249,#1250,#1251));
#1249 = ORIENTED_EDGE('',*,*,#1205,.F.);
#1250 = ORIENTED_EDGE('',*,*,#1223,.F.);
#1251 = ORIENTED_EDGE('',*,*,#1011,.F.);
#1252 = PLANE('',#1253);
#1253 = AXIS2_PLACEMENT_3D('',#1254,#1255,#1256);
#1254 = CARTESIAN_POINT('',(132.14514304774,-43.75026111292,13.5));
#1255 = DIRECTION('',(0.,1.,-3.4E-16));
#1256 = DIRECTION('',(0.,3.4E-16,1.));
#1257 = ADVANCED_FACE('',(#1258),#1262,.F.);
#1258 = FACE_BOUND('',#1259,.F.);
#1259 = EDGE_LOOP('',(#1260,#1261));
#1260 = ORIENTED_EDGE('',*,*,#1214,.F.);
#1261 = ORIENTED_EDGE('',*,*,#865,.T.);
#1262 = PLANE('',#1263);
#1263 = AXIS2_PLACEMENT_3D('',#1264,#1265,#1266);
#1264 = CARTESIAN_POINT('',(132.14514304774,-43.75026111292,13.5));
#1265 = DIRECTION('',(0.,1.,-3.4E-16));
#1266 = DIRECTION('',(0.,3.4E-16,1.));
#1267 = ADVANCED_FACE('',(#1268),#1272,.F.);
#1268 = FACE_BOUND('',#1269,.F.);
#1269 = EDGE_LOOP('',(#1270,#1271));
#1270 = ORIENTED_EDGE('',*,*,#1159,.F.);
#1271 = ORIENTED_EDGE('',*,*,#639,.T.);
#1272 = PLANE('',#1273);
#1273 = AXIS2_PLACEMENT_3D('',#1274,#1275,#1276);
#1274 = CARTESIAN_POINT('',(132.14514304774,-43.75026111292,13.5));
#1275 = DIRECTION('',(0.,1.,-3.4E-16));
#1276 = DIRECTION('',(0.,3.4E-16,1.));
#1277 = ( GEOMETRIC_REPRESENTATION_CONTEXT(3) 
GLOBAL_UNCERTAINTY_ASSIGNED_CONTEXT((#1281)) 
GLOBAL_UNIT_ASSIGNED_CONTEXT((#1278,#1279,#1280)) REPRESENTATION_CONTEXT
('Context #1','3D Context with UNIT and UNCERTAINTY') );
#1278 = ( LENGTH_UNIT() NAMED_UNIT(*) SI_UNIT(.MILLI.,.METRE.) );
#1279 = ( NAMED_UNIT(*) PLANE_ANGLE_UNIT() SI_UNIT($,.RADIAN.) );
#1280 = ( NAMED_UNIT(*) SI_UNIT($,.STERADIAN.) SOLID_ANGLE_UNIT() );
#1281 = UNCERTAINTY_MEASURE_WITH_UNIT(LENGTH_MEASURE(1.E-07),#1278,
  'distance_accuracy_value','confusion accuracy');
#1282 = PRODUCT_RELATED_PRODUCT_CATEGORY('part',$,(#7));
ENDSEC;
END-ISO-10303-21;
