ISO-10303-21;
HEADER;
FILE_DESCRIPTION(('FreeCAD Model'),'2;1');
FILE_NAME('Open CASCADE Shape Model','2026-08-28T13:04:07',('FreeCAD'),(
    'FreeCAD'),'Open CASCADE STEP processor 7.8','FreeCAD','Unknown');
FILE_SCHEMA(('AUTOMOTIVE_DESIGN { 1 0 10303 214 1 1 1 1 }'));
ENDSEC;
DATA;
#1 = APPLICATION_PROTOCOL_DEFINITION('international standard',
  'automotive_design',2000,#2);
#2 = APPLICATION_CONTEXT(
  'core data for automotive mechanical design processes');
#3 = SHAPE_DEFINITION_REPRESENTATION(#4,#10);
#4 = PRODUCT_DEFINITION_SHAPE('','',#5);
#5 = PRODUCT_DEFINITION('design','',#6,#9);
#6 = PRODUCT_DEFINITION_FORMATION('','',#7);
#7 = PRODUCT('Open CASCADE STEP translator 7.8 114',
  'Open CASCADE STEP translator 7.8 114','',(#8));
#8 = PRODUCT_CONTEXT('',#2,'mechanical');
#9 = PRODUCT_DEFINITION_CONTEXT('part definition',#2,'design');
#10 = ADVANCED_BREP_SHAPE_REPRESENTATION('',(#11,#15),#1146);
#11 = AXIS2_PLACEMENT_3D('',#12,#13,#14);
#12 = CARTESIAN_POINT('',(0.,0.,0.));
#13 = DIRECTION('',(0.,0.,1.));
#14 = DIRECTION('',(1.,0.,-0.));
#15 = MANIFOLD_SOLID_BREP('',#16);
#16 = CLOSED_SHELL('',(#17,#197,#228,#253,#278,#324,#370,#395,#420,#437,
    #468,#569,#670,#687,#718,#743,#768,#814,#860,#885,#910,#927,#959,
    #976,#993,#1010,#1027,#1044,#1061,#1078,#1095,#1112,#1129));
#17 = ADVANCED_FACE('',(#18,#88,#122),#192,.F.);
#18 = FACE_BOUND('',#19,.F.);
#19 = EDGE_LOOP('',(#20,#30,#39,#47,#56,#64,#73,#81));
#20 = ORIENTED_EDGE('',*,*,#21,.F.);
#21 = EDGE_CURVE('',#22,#24,#26,.T.);
#22 = VERTEX_POINT('',#23);
#23 = CARTESIAN_POINT('',(66.,4.,11.5));
#24 = VERTEX_POINT('',#25);
#25 = CARTESIAN_POINT('',(66.,4.,15.5));
#26 = LINE('',#27,#28);
#27 = CARTESIAN_POINT('',(66.,4.,4.25));
#28 = VECTOR('',#29,1.);
#29 = DIRECTION('',(0.,0.,1.));
#30 = ORIENTED_EDGE('',*,*,#31,.T.);
#31 = EDGE_CURVE('',#22,#32,#34,.T.);
#32 = VERTEX_POINT('',#33);
#33 = CARTESIAN_POINT('',(63.,4.,8.5));
#34 = CIRCLE('',#35,3.);
#35 = AXIS2_PLACEMENT_3D('',#36,#37,#38);
#36 = CARTESIAN_POINT('',(63.,4.,11.5));
#37 = DIRECTION('',(0.,1.,-2.2E-16));
#38 = DIRECTION('',(0.,2.2E-16,1.));
#39 = ORIENTED_EDGE('',*,*,#40,.F.);
#40 = EDGE_CURVE('',#41,#32,#43,.T.);
#41 = VERTEX_POINT('',#42);
#42 = CARTESIAN_POINT('',(9.,4.,8.5));
#43 = LINE('',#44,#45);
#44 = CARTESIAN_POINT('',(41.5,4.,8.5));
#45 = VECTOR('',#46,1.);
#46 = DIRECTION('',(1.,0.,0.));
#47 = ORIENTED_EDGE('',*,*,#48,.F.);
#48 = EDGE_CURVE('',#49,#41,#51,.T.);
#49 = VERTEX_POINT('',#50);
#50 = CARTESIAN_POINT('',(6.,4.,11.5));
#51 = CIRCLE('',#52,3.);
#52 = AXIS2_PLACEMENT_3D('',#53,#54,#55);
#53 = CARTESIAN_POINT('',(9.,4.,11.5));
#54 = DIRECTION('',(0.,-1.,2.2E-16));
#55 = DIRECTION('',(0.,2.2E-16,1.));
#56 = ORIENTED_EDGE('',*,*,#57,.F.);
#57 = EDGE_CURVE('',#58,#49,#60,.T.);
#58 = VERTEX_POINT('',#59);
#59 = CARTESIAN_POINT('',(6.,4.,15.5));
#60 = LINE('',#61,#62);
#61 = CARTESIAN_POINT('',(6.,4.,9.25));
#62 = VECTOR('',#63,1.);
#63 = DIRECTION('',(0.,0.,-1.));
#64 = ORIENTED_EDGE('',*,*,#65,.F.);
#65 = EDGE_CURVE('',#66,#58,#68,.T.);
#66 = VERTEX_POINT('',#67);
#67 = CARTESIAN_POINT('',(9.,4.,18.5));
#68 = CIRCLE('',#69,3.);
#69 = AXIS2_PLACEMENT_3D('',#70,#71,#72);
#70 = CARTESIAN_POINT('',(9.,4.,15.5));
#71 = DIRECTION('',(0.,-1.,2.2E-16));
#72 = DIRECTION('',(0.,2.2E-16,1.));
#73 = ORIENTED_EDGE('',*,*,#74,.F.);
#74 = EDGE_CURVE('',#75,#66,#77,.T.);
#75 = VERTEX_POINT('',#76);
#76 = CARTESIAN_POINT('',(63.,4.,18.5));
#77 = LINE('',#78,#79);
#78 = CARTESIAN_POINT('',(71.5,4.,18.5));
#79 = VECTOR('',#80,1.);
#80 = DIRECTION('',(-1.,0.,0.));
#81 = ORIENTED_EDGE('',*,*,#82,.F.);
#82 = EDGE_CURVE('',#24,#75,#83,.T.);
#83 = CIRCLE('',#84,3.);
#84 = AXIS2_PLACEMENT_3D('',#85,#86,#87);
#85 = CARTESIAN_POINT('',(63.,4.,15.5));
#86 = DIRECTION('',(0.,-1.,2.2E-16));
#87 = DIRECTION('',(0.,2.2E-16,1.));
#88 = FACE_BOUND('',#89,.F.);
#89 = EDGE_LOOP('',(#90,#100,#108,#116));
#90 = ORIENTED_EDGE('',*,*,#91,.T.);
#91 = EDGE_CURVE('',#92,#94,#96,.T.);
#92 = VERTEX_POINT('',#93);
#93 = CARTESIAN_POINT('',(77.,4.,0.));
#94 = VERTEX_POINT('',#95);
#95 = CARTESIAN_POINT('',(77.,4.,27.));
#96 = LINE('',#97,#98);
#97 = CARTESIAN_POINT('',(77.,4.,0.));
#98 = VECTOR('',#99,1.);
#99 = DIRECTION('',(0.,0.,1.));
#100 = ORIENTED_EDGE('',*,*,#101,.T.);
#101 = EDGE_CURVE('',#94,#102,#104,.T.);
#102 = VERTEX_POINT('',#103);
#103 = CARTESIAN_POINT('',(-85.,4.,27.));
#104 = LINE('',#105,#106);
#105 = CARTESIAN_POINT('',(77.,4.,27.));
#106 = VECTOR('',#107,1.);
#107 = DIRECTION('',(-1.,0.,0.));
#108 = ORIENTED_EDGE('',*,*,#109,.F.);
#109 = EDGE_CURVE('',#110,#102,#112,.T.);
#110 = VERTEX_POINT('',#111);
#111 = CARTESIAN_POINT('',(-85.,4.,0.));
#112 = LINE('',#113,#114);
#113 = CARTESIAN_POINT('',(-85.,4.,0.));
#114 = VECTOR('',#115,1.);
#115 = DIRECTION('',(0.,0.,1.));
#116 = ORIENTED_EDGE('',*,*,#117,.F.);
#117 = EDGE_CURVE('',#92,#110,#118,.T.);
#118 = LINE('',#119,#120);
#119 = CARTESIAN_POINT('',(77.,4.,0.));
#120 = VECTOR('',#121,1.);
#121 = DIRECTION('',(-1.,0.,0.));
#122 = FACE_BOUND('',#123,.F.);
#123 = EDGE_LOOP('',(#124,#134,#143,#151,#160,#168,#177,#185));
#124 = ORIENTED_EDGE('',*,*,#125,.F.);
#125 = EDGE_CURVE('',#126,#128,#130,.T.);
#126 = VERTEX_POINT('',#127);
#127 = CARTESIAN_POINT('',(-74.,4.,15.5));
#128 = VERTEX_POINT('',#129);
#129 = CARTESIAN_POINT('',(-74.,4.,11.5));
#130 = LINE('',#131,#132);
#131 = CARTESIAN_POINT('',(-74.,4.,9.25));
#132 = VECTOR('',#133,1.);
#133 = DIRECTION('',(0.,0.,-1.));
#134 = ORIENTED_EDGE('',*,*,#135,.T.);
#135 = EDGE_CURVE('',#126,#136,#138,.T.);
#136 = VERTEX_POINT('',#137);
#137 = CARTESIAN_POINT('',(-71.,4.,18.5));
#138 = CIRCLE('',#139,3.);
#139 = AXIS2_PLACEMENT_3D('',#140,#141,#142);
#140 = CARTESIAN_POINT('',(-71.,4.,15.5));
#141 = DIRECTION('',(0.,1.,-2.2E-16));
#142 = DIRECTION('',(0.,2.2E-16,1.));
#143 = ORIENTED_EDGE('',*,*,#144,.F.);
#144 = EDGE_CURVE('',#145,#136,#147,.T.);
#145 = VERTEX_POINT('',#146);
#146 = CARTESIAN_POINT('',(-17.,4.,18.5));
#147 = LINE('',#148,#149);
#148 = CARTESIAN_POINT('',(31.5,4.,18.5));
#149 = VECTOR('',#150,1.);
#150 = DIRECTION('',(-1.,0.,0.));
#151 = ORIENTED_EDGE('',*,*,#152,.F.);
#152 = EDGE_CURVE('',#153,#145,#155,.T.);
#153 = VERTEX_POINT('',#154);
#154 = CARTESIAN_POINT('',(-14.,4.,15.5));
#155 = CIRCLE('',#156,3.);
#156 = AXIS2_PLACEMENT_3D('',#157,#158,#159);
#157 = CARTESIAN_POINT('',(-17.,4.,15.5));
#158 = DIRECTION('',(0.,-1.,2.2E-16));
#159 = DIRECTION('',(0.,2.2E-16,1.));
#160 = ORIENTED_EDGE('',*,*,#161,.T.);
#161 = EDGE_CURVE('',#153,#162,#164,.T.);
#162 = VERTEX_POINT('',#163);
#163 = CARTESIAN_POINT('',(-14.,4.,11.5));
#164 = LINE('',#165,#166);
#165 = CARTESIAN_POINT('',(-14.,4.,9.25));
#166 = VECTOR('',#167,1.);
#167 = DIRECTION('',(0.,0.,-1.));
#168 = ORIENTED_EDGE('',*,*,#169,.F.);
#169 = EDGE_CURVE('',#170,#162,#172,.T.);
#170 = VERTEX_POINT('',#171);
#171 = CARTESIAN_POINT('',(-17.,4.,8.5));
#172 = CIRCLE('',#173,3.);
#173 = AXIS2_PLACEMENT_3D('',#174,#175,#176);
#174 = CARTESIAN_POINT('',(-17.,4.,11.5));
#175 = DIRECTION('',(0.,-1.,2.2E-16));
#176 = DIRECTION('',(0.,2.2E-16,1.));
#177 = ORIENTED_EDGE('',*,*,#178,.F.);
#178 = EDGE_CURVE('',#179,#170,#181,.T.);
#179 = VERTEX_POINT('',#180);
#180 = CARTESIAN_POINT('',(-71.,4.,8.5));
#181 = LINE('',#182,#183);
#182 = CARTESIAN_POINT('',(1.5,4.,8.5));
#183 = VECTOR('',#184,1.);
#184 = DIRECTION('',(1.,0.,0.));
#185 = ORIENTED_EDGE('',*,*,#186,.F.);
#186 = EDGE_CURVE('',#128,#179,#187,.T.);
#187 = CIRCLE('',#188,3.);
#188 = AXIS2_PLACEMENT_3D('',#189,#190,#191);
#189 = CARTESIAN_POINT('',(-71.,4.,11.5));
#190 = DIRECTION('',(0.,-1.,2.2E-16));
#191 = DIRECTION('',(0.,2.2E-16,1.));
#192 = PLANE('',#193);
#193 = AXIS2_PLACEMENT_3D('',#194,#195,#196);
#194 = CARTESIAN_POINT('',(77.,4.,0.));
#195 = DIRECTION('',(0.,-1.,0.));
#196 = DIRECTION('',(-1.,0.,0.));
#197 = ADVANCED_FACE('',(#198),#223,.F.);
#198 = FACE_BOUND('',#199,.F.);
#199 = EDGE_LOOP('',(#200,#210,#216,#217));
#200 = ORIENTED_EDGE('',*,*,#201,.F.);
#201 = EDGE_CURVE('',#202,#204,#206,.T.);
#202 = VERTEX_POINT('',#203);
#203 = CARTESIAN_POINT('',(66.,-4.,11.5));
#204 = VERTEX_POINT('',#205);
#205 = CARTESIAN_POINT('',(66.,-4.,15.5));
#206 = LINE('',#207,#208);
#207 = CARTESIAN_POINT('',(66.,-4.,8.5));
#208 = VECTOR('',#209,1.);
#209 = DIRECTION('',(0.,0.,1.));
#210 = ORIENTED_EDGE('',*,*,#211,.T.);
#211 = EDGE_CURVE('',#202,#22,#212,.T.);
#212 = LINE('',#213,#214);
#213 = CARTESIAN_POINT('',(66.,-4.,11.5));
#214 = VECTOR('',#215,1.);
#215 = DIRECTION('',(0.,1.,-2.2E-16));
#216 = ORIENTED_EDGE('',*,*,#21,.T.);
#217 = ORIENTED_EDGE('',*,*,#218,.F.);
#218 = EDGE_CURVE('',#204,#24,#219,.T.);
#219 = LINE('',#220,#221);
#220 = CARTESIAN_POINT('',(66.,-4.,15.5));
#221 = VECTOR('',#222,1.);
#222 = DIRECTION('',(0.,1.,-2.2E-16));
#223 = PLANE('',#224);
#224 = AXIS2_PLACEMENT_3D('',#225,#226,#227);
#225 = CARTESIAN_POINT('',(66.,-4.,8.5));
#226 = DIRECTION('',(1.,0.,0.));
#227 = DIRECTION('',(0.,2.2E-16,1.));
#228 = ADVANCED_FACE('',(#229),#248,.F.);
#229 = FACE_BOUND('',#230,.F.);
#230 = EDGE_LOOP('',(#231,#240,#246,#247));
#231 = ORIENTED_EDGE('',*,*,#232,.T.);
#232 = EDGE_CURVE('',#202,#233,#235,.T.);
#233 = VERTEX_POINT('',#234);
#234 = CARTESIAN_POINT('',(63.,-4.,8.5));
#235 = CIRCLE('',#236,3.);
#236 = AXIS2_PLACEMENT_3D('',#237,#238,#239);
#237 = CARTESIAN_POINT('',(63.,-4.,11.5));
#238 = DIRECTION('',(0.,1.,-2.2E-16));
#239 = DIRECTION('',(0.,2.2E-16,1.));
#240 = ORIENTED_EDGE('',*,*,#241,.T.);
#241 = EDGE_CURVE('',#233,#32,#242,.T.);
#242 = LINE('',#243,#244);
#243 = CARTESIAN_POINT('',(63.,-4.,8.5));
#244 = VECTOR('',#245,1.);
#245 = DIRECTION('',(0.,1.,-2.2E-16));
#246 = ORIENTED_EDGE('',*,*,#31,.F.);
#247 = ORIENTED_EDGE('',*,*,#211,.F.);
#248 = CYLINDRICAL_SURFACE('',#249,3.);
#249 = AXIS2_PLACEMENT_3D('',#250,#251,#252);
#250 = CARTESIAN_POINT('',(63.,-4.,11.5));
#251 = DIRECTION('',(0.,1.,-2.2E-16));
#252 = DIRECTION('',(1.,0.,0.));
#253 = ADVANCED_FACE('',(#254),#273,.F.);
#254 = FACE_BOUND('',#255,.T.);
#255 = EDGE_LOOP('',(#256,#265,#271,#272));
#256 = ORIENTED_EDGE('',*,*,#257,.T.);
#257 = EDGE_CURVE('',#204,#258,#260,.T.);
#258 = VERTEX_POINT('',#259);
#259 = CARTESIAN_POINT('',(63.,-4.,18.5));
#260 = CIRCLE('',#261,3.);
#261 = AXIS2_PLACEMENT_3D('',#262,#263,#264);
#262 = CARTESIAN_POINT('',(63.,-4.,15.5));
#263 = DIRECTION('',(0.,-1.,2.2E-16));
#264 = DIRECTION('',(0.,2.2E-16,1.));
#265 = ORIENTED_EDGE('',*,*,#266,.T.);
#266 = EDGE_CURVE('',#258,#75,#267,.T.);
#267 = LINE('',#268,#269);
#268 = CARTESIAN_POINT('',(63.,-4.,18.5));
#269 = VECTOR('',#270,1.);
#270 = DIRECTION('',(0.,1.,-2.2E-16));
#271 = ORIENTED_EDGE('',*,*,#82,.F.);
#272 = ORIENTED_EDGE('',*,*,#218,.F.);
#273 = CYLINDRICAL_SURFACE('',#274,3.);
#274 = AXIS2_PLACEMENT_3D('',#275,#276,#277);
#275 = CARTESIAN_POINT('',(63.,-4.,15.5));
#276 = DIRECTION('',(0.,1.,-2.2E-16));
#277 = DIRECTION('',(1.,0.,0.));
#278 = ADVANCED_FACE('',(#279,#297,#308),#319,.F.);
#279 = FACE_BOUND('',#280,.F.);
#280 = EDGE_LOOP('',(#281,#289,#295,#296));
#281 = ORIENTED_EDGE('',*,*,#282,.F.);
#282 = EDGE_CURVE('',#283,#233,#285,.T.);
#283 = VERTEX_POINT('',#284);
#284 = CARTESIAN_POINT('',(9.,-4.,8.5));
#285 = LINE('',#286,#287);
#286 = CARTESIAN_POINT('',(6.,-4.,8.5));
#287 = VECTOR('',#288,1.);
#288 = DIRECTION('',(1.,0.,0.));
#289 = ORIENTED_EDGE('',*,*,#290,.T.);
#290 = EDGE_CURVE('',#283,#41,#291,.T.);
#291 = LINE('',#292,#293);
#292 = CARTESIAN_POINT('',(9.,-4.,8.5));
#293 = VECTOR('',#294,1.);
#294 = DIRECTION('',(0.,1.,-2.2E-16));
#295 = ORIENTED_EDGE('',*,*,#40,.T.);
#296 = ORIENTED_EDGE('',*,*,#241,.F.);
#297 = FACE_BOUND('',#298,.F.);
#298 = EDGE_LOOP('',(#299));
#299 = ORIENTED_EDGE('',*,*,#300,.F.);
#300 = EDGE_CURVE('',#301,#301,#303,.T.);
#301 = VERTEX_POINT('',#302);
#302 = CARTESIAN_POINT('',(31.2,0.,8.5));
#303 = CIRCLE('',#304,1.2);
#304 = AXIS2_PLACEMENT_3D('',#305,#306,#307);
#305 = CARTESIAN_POINT('',(30.,0.,8.5));
#306 = DIRECTION('',(0.,0.,-1.));
#307 = DIRECTION('',(1.,0.,0.));
#308 = FACE_BOUND('',#309,.F.);
#309 = EDGE_LOOP('',(#310));
#310 = ORIENTED_EDGE('',*,*,#311,.F.);
#311 = EDGE_CURVE('',#312,#312,#314,.T.);
#312 = VERTEX_POINT('',#313);
#313 = CARTESIAN_POINT('',(61.2,0.,8.5));
#314 = CIRCLE('',#315,1.2);
#315 = AXIS2_PLACEMENT_3D('',#316,#317,#318);
#316 = CARTESIAN_POINT('',(60.,0.,8.5));
#317 = DIRECTION('',(0.,0.,-1.));
#318 = DIRECTION('',(1.,0.,0.));
#319 = PLANE('',#320);
#320 = AXIS2_PLACEMENT_3D('',#321,#322,#323);
#321 = CARTESIAN_POINT('',(6.,-4.,8.5));
#322 = DIRECTION('',(0.,-2.2E-16,-1.));
#323 = DIRECTION('',(1.,0.,0.));
#324 = ADVANCED_FACE('',(#325,#343,#354),#365,.F.);
#325 = FACE_BOUND('',#326,.F.);
#326 = EDGE_LOOP('',(#327,#335,#336,#337));
#327 = ORIENTED_EDGE('',*,*,#328,.F.);
#328 = EDGE_CURVE('',#258,#329,#331,.T.);
#329 = VERTEX_POINT('',#330);
#330 = CARTESIAN_POINT('',(9.,-4.,18.5));
#331 = LINE('',#332,#333);
#332 = CARTESIAN_POINT('',(66.,-4.,18.5));
#333 = VECTOR('',#334,1.);
#334 = DIRECTION('',(-1.,0.,0.));
#335 = ORIENTED_EDGE('',*,*,#266,.T.);
#336 = ORIENTED_EDGE('',*,*,#74,.T.);
#337 = ORIENTED_EDGE('',*,*,#338,.F.);
#338 = EDGE_CURVE('',#329,#66,#339,.T.);
#339 = LINE('',#340,#341);
#340 = CARTESIAN_POINT('',(9.,-4.,18.5));
#341 = VECTOR('',#342,1.);
#342 = DIRECTION('',(0.,1.,-2.2E-16));
#343 = FACE_BOUND('',#344,.F.);
#344 = EDGE_LOOP('',(#345));
#345 = ORIENTED_EDGE('',*,*,#346,.T.);
#346 = EDGE_CURVE('',#347,#347,#349,.T.);
#347 = VERTEX_POINT('',#348);
#348 = CARTESIAN_POINT('',(61.2,0.,18.5));
#349 = CIRCLE('',#350,1.2);
#350 = AXIS2_PLACEMENT_3D('',#351,#352,#353);
#351 = CARTESIAN_POINT('',(60.,0.,18.5));
#352 = DIRECTION('',(0.,0.,-1.));
#353 = DIRECTION('',(1.,0.,0.));
#354 = FACE_BOUND('',#355,.F.);
#355 = EDGE_LOOP('',(#356));
#356 = ORIENTED_EDGE('',*,*,#357,.T.);
#357 = EDGE_CURVE('',#358,#358,#360,.T.);
#358 = VERTEX_POINT('',#359);
#359 = CARTESIAN_POINT('',(31.2,0.,18.5));
#360 = CIRCLE('',#361,1.2);
#361 = AXIS2_PLACEMENT_3D('',#362,#363,#364);
#362 = CARTESIAN_POINT('',(30.,0.,18.5));
#363 = DIRECTION('',(0.,0.,-1.));
#364 = DIRECTION('',(1.,0.,0.));
#365 = PLANE('',#366);
#366 = AXIS2_PLACEMENT_3D('',#367,#368,#369);
#367 = CARTESIAN_POINT('',(66.,-4.,18.5));
#368 = DIRECTION('',(0.,2.2E-16,1.));
#369 = DIRECTION('',(-1.,0.,0.));
#370 = ADVANCED_FACE('',(#371),#390,.F.);
#371 = FACE_BOUND('',#372,.T.);
#372 = EDGE_LOOP('',(#373,#382,#383,#384));
#373 = ORIENTED_EDGE('',*,*,#374,.T.);
#374 = EDGE_CURVE('',#375,#283,#377,.T.);
#375 = VERTEX_POINT('',#376);
#376 = CARTESIAN_POINT('',(6.,-4.,11.5));
#377 = CIRCLE('',#378,3.);
#378 = AXIS2_PLACEMENT_3D('',#379,#380,#381);
#379 = CARTESIAN_POINT('',(9.,-4.,11.5));
#380 = DIRECTION('',(0.,-1.,2.2E-16));
#381 = DIRECTION('',(0.,2.2E-16,1.));
#382 = ORIENTED_EDGE('',*,*,#290,.T.);
#383 = ORIENTED_EDGE('',*,*,#48,.F.);
#384 = ORIENTED_EDGE('',*,*,#385,.F.);
#385 = EDGE_CURVE('',#375,#49,#386,.T.);
#386 = LINE('',#387,#388);
#387 = CARTESIAN_POINT('',(6.,-4.,11.5));
#388 = VECTOR('',#389,1.);
#389 = DIRECTION('',(0.,1.,-2.2E-16));
#390 = CYLINDRICAL_SURFACE('',#391,3.);
#391 = AXIS2_PLACEMENT_3D('',#392,#393,#394);
#392 = CARTESIAN_POINT('',(9.,-4.,11.5));
#393 = DIRECTION('',(0.,1.,-2.2E-16));
#394 = DIRECTION('',(-1.,0.,0.));
#395 = ADVANCED_FACE('',(#396),#415,.F.);
#396 = FACE_BOUND('',#397,.T.);
#397 = EDGE_LOOP('',(#398,#407,#413,#414));
#398 = ORIENTED_EDGE('',*,*,#399,.T.);
#399 = EDGE_CURVE('',#329,#400,#402,.T.);
#400 = VERTEX_POINT('',#401);
#401 = CARTESIAN_POINT('',(6.,-4.,15.5));
#402 = CIRCLE('',#403,3.);
#403 = AXIS2_PLACEMENT_3D('',#404,#405,#406);
#404 = CARTESIAN_POINT('',(9.,-4.,15.5));
#405 = DIRECTION('',(0.,-1.,2.2E-16));
#406 = DIRECTION('',(0.,2.2E-16,1.));
#407 = ORIENTED_EDGE('',*,*,#408,.T.);
#408 = EDGE_CURVE('',#400,#58,#409,.T.);
#409 = LINE('',#410,#411);
#410 = CARTESIAN_POINT('',(6.,-4.,15.5));
#411 = VECTOR('',#412,1.);
#412 = DIRECTION('',(0.,1.,-2.2E-16));
#413 = ORIENTED_EDGE('',*,*,#65,.F.);
#414 = ORIENTED_EDGE('',*,*,#338,.F.);
#415 = CYLINDRICAL_SURFACE('',#416,3.);
#416 = AXIS2_PLACEMENT_3D('',#417,#418,#419);
#417 = CARTESIAN_POINT('',(9.,-4.,15.5));
#418 = DIRECTION('',(0.,1.,-2.2E-16));
#419 = DIRECTION('',(0.,2.2E-16,1.));
#420 = ADVANCED_FACE('',(#421),#432,.F.);
#421 = FACE_BOUND('',#422,.F.);
#422 = EDGE_LOOP('',(#423,#429,#430,#431));
#423 = ORIENTED_EDGE('',*,*,#424,.F.);
#424 = EDGE_CURVE('',#400,#375,#425,.T.);
#425 = LINE('',#426,#427);
#426 = CARTESIAN_POINT('',(6.,-4.,18.5));
#427 = VECTOR('',#428,1.);
#428 = DIRECTION('',(0.,0.,-1.));
#429 = ORIENTED_EDGE('',*,*,#408,.T.);
#430 = ORIENTED_EDGE('',*,*,#57,.T.);
#431 = ORIENTED_EDGE('',*,*,#385,.F.);
#432 = PLANE('',#433);
#433 = AXIS2_PLACEMENT_3D('',#434,#435,#436);
#434 = CARTESIAN_POINT('',(6.,-4.,18.5));
#435 = DIRECTION('',(-1.,0.,0.));
#436 = DIRECTION('',(-0.,-2.2E-16,-1.));
#437 = ADVANCED_FACE('',(#438),#463,.T.);
#438 = FACE_BOUND('',#439,.T.);
#439 = EDGE_LOOP('',(#440,#441,#449,#457));
#440 = ORIENTED_EDGE('',*,*,#91,.T.);
#441 = ORIENTED_EDGE('',*,*,#442,.T.);
#442 = EDGE_CURVE('',#94,#443,#445,.T.);
#443 = VERTEX_POINT('',#444);
#444 = CARTESIAN_POINT('',(77.,-4.,27.));
#445 = LINE('',#446,#447);
#446 = CARTESIAN_POINT('',(77.,4.,27.));
#447 = VECTOR('',#448,1.);
#448 = DIRECTION('',(0.,-1.,0.));
#449 = ORIENTED_EDGE('',*,*,#450,.F.);
#450 = EDGE_CURVE('',#451,#443,#453,.T.);
#451 = VERTEX_POINT('',#452);
#452 = CARTESIAN_POINT('',(77.,-4.,0.));
#453 = LINE('',#454,#455);
#454 = CARTESIAN_POINT('',(77.,-4.,0.));
#455 = VECTOR('',#456,1.);
#456 = DIRECTION('',(0.,0.,1.));
#457 = ORIENTED_EDGE('',*,*,#458,.F.);
#458 = EDGE_CURVE('',#92,#451,#459,.T.);
#459 = LINE('',#460,#461);
#460 = CARTESIAN_POINT('',(77.,4.,0.));
#461 = VECTOR('',#462,1.);
#462 = DIRECTION('',(0.,-1.,0.));
#463 = PLANE('',#464);
#464 = AXIS2_PLACEMENT_3D('',#465,#466,#467);
#465 = CARTESIAN_POINT('',(77.,4.,0.));
#466 = DIRECTION('',(1.,0.,0.));
#467 = DIRECTION('',(0.,-1.,0.));
#468 = ADVANCED_FACE('',(#469,#487,#498,#509,#520,#531,#542,#553),#564,
  .F.);
#469 = FACE_BOUND('',#470,.F.);
#470 = EDGE_LOOP('',(#471,#479,#485,#486));
#471 = ORIENTED_EDGE('',*,*,#472,.T.);
#472 = EDGE_CURVE('',#110,#473,#475,.T.);
#473 = VERTEX_POINT('',#474);
#474 = CARTESIAN_POINT('',(-85.,-4.,0.));
#475 = LINE('',#476,#477);
#476 = CARTESIAN_POINT('',(-85.,4.,0.));
#477 = VECTOR('',#478,1.);
#478 = DIRECTION('',(1.78E-15,-1.,0.));
#479 = ORIENTED_EDGE('',*,*,#480,.T.);
#480 = EDGE_CURVE('',#473,#451,#481,.T.);
#481 = LINE('',#482,#483);
#482 = CARTESIAN_POINT('',(-85.,-4.,0.));
#483 = VECTOR('',#484,1.);
#484 = DIRECTION('',(1.,0.,0.));
#485 = ORIENTED_EDGE('',*,*,#458,.F.);
#486 = ORIENTED_EDGE('',*,*,#117,.T.);
#487 = FACE_BOUND('',#488,.T.);
#488 = EDGE_LOOP('',(#489));
#489 = ORIENTED_EDGE('',*,*,#490,.T.);
#490 = EDGE_CURVE('',#491,#491,#493,.T.);
#491 = VERTEX_POINT('',#492);
#492 = CARTESIAN_POINT('',(-58.8,0.,0.));
#493 = CIRCLE('',#494,1.2);
#494 = AXIS2_PLACEMENT_3D('',#495,#496,#497);
#495 = CARTESIAN_POINT('',(-60.,0.,0.));
#496 = DIRECTION('',(0.,0.,1.));
#497 = DIRECTION('',(1.,0.,0.));
#498 = FACE_BOUND('',#499,.T.);
#499 = EDGE_LOOP('',(#500));
#500 = ORIENTED_EDGE('',*,*,#501,.T.);
#501 = EDGE_CURVE('',#502,#502,#504,.T.);
#502 = VERTEX_POINT('',#503);
#503 = CARTESIAN_POINT('',(1.2,0.,0.));
#504 = CIRCLE('',#505,1.2);
#505 = AXIS2_PLACEMENT_3D('',#506,#507,#508);
#506 = CARTESIAN_POINT('',(0.,0.,0.));
#507 = DIRECTION('',(0.,0.,1.));
#508 = DIRECTION('',(1.,0.,0.));
#509 = FACE_BOUND('',#510,.T.);
#510 = EDGE_LOOP('',(#511));
#511 = ORIENTED_EDGE('',*,*,#512,.T.);
#512 = EDGE_CURVE('',#513,#513,#515,.T.);
#513 = VERTEX_POINT('',#514);
#514 = CARTESIAN_POINT('',(61.2,0.,0.));
#515 = CIRCLE('',#516,1.2);
#516 = AXIS2_PLACEMENT_3D('',#517,#518,#519);
#517 = CARTESIAN_POINT('',(60.,0.,0.));
#518 = DIRECTION('',(0.,0.,1.));
#519 = DIRECTION('',(1.,0.,0.));
#520 = FACE_BOUND('',#521,.T.);
#521 = EDGE_LOOP('',(#522));
#522 = ORIENTED_EDGE('',*,*,#523,.T.);
#523 = EDGE_CURVE('',#524,#524,#526,.T.);
#524 = VERTEX_POINT('',#525);
#525 = CARTESIAN_POINT('',(-78.8,0.,0.));
#526 = CIRCLE('',#527,1.2);
#527 = AXIS2_PLACEMENT_3D('',#528,#529,#530);
#528 = CARTESIAN_POINT('',(-80.,0.,0.));
#529 = DIRECTION('',(0.,0.,1.));
#530 = DIRECTION('',(1.,0.,0.));
#531 = FACE_BOUND('',#532,.T.);
#532 = EDGE_LOOP('',(#533));
#533 = ORIENTED_EDGE('',*,*,#534,.T.);
#534 = EDGE_CURVE('',#535,#535,#537,.T.);
#535 = VERTEX_POINT('',#536);
#536 = CARTESIAN_POINT('',(73.2,0.,0.));
#537 = CIRCLE('',#538,1.2);
#538 = AXIS2_PLACEMENT_3D('',#539,#540,#541);
#539 = CARTESIAN_POINT('',(72.,0.,0.));
#540 = DIRECTION('',(0.,0.,1.));
#541 = DIRECTION('',(1.,0.,0.));
#542 = FACE_BOUND('',#543,.T.);
#543 = EDGE_LOOP('',(#544));
#544 = ORIENTED_EDGE('',*,*,#545,.T.);
#545 = EDGE_CURVE('',#546,#546,#548,.T.);
#546 = VERTEX_POINT('',#547);
#547 = CARTESIAN_POINT('',(-28.8,0.,0.));
#548 = CIRCLE('',#549,1.2);
#549 = AXIS2_PLACEMENT_3D('',#550,#551,#552);
#550 = CARTESIAN_POINT('',(-30.,0.,0.));
#551 = DIRECTION('',(0.,0.,1.));
#552 = DIRECTION('',(1.,0.,0.));
#553 = FACE_BOUND('',#554,.T.);
#554 = EDGE_LOOP('',(#555));
#555 = ORIENTED_EDGE('',*,*,#556,.T.);
#556 = EDGE_CURVE('',#557,#557,#559,.T.);
#557 = VERTEX_POINT('',#558);
#558 = CARTESIAN_POINT('',(31.2,0.,0.));
#559 = CIRCLE('',#560,1.2);
#560 = AXIS2_PLACEMENT_3D('',#561,#562,#563);
#561 = CARTESIAN_POINT('',(30.,0.,0.));
#562 = DIRECTION('',(0.,0.,1.));
#563 = DIRECTION('',(1.,0.,0.));
#564 = PLANE('',#565);
#565 = AXIS2_PLACEMENT_3D('',#566,#567,#568);
#566 = CARTESIAN_POINT('',(-3.674942233377,1.E-17,0.));
#567 = DIRECTION('',(0.,0.,1.));
#568 = DIRECTION('',(1.,0.,0.));
#569 = ADVANCED_FACE('',(#570,#588,#599,#610,#621,#632,#643,#654),#665,
  .T.);
#570 = FACE_BOUND('',#571,.T.);
#571 = EDGE_LOOP('',(#572,#580,#586,#587));
#572 = ORIENTED_EDGE('',*,*,#573,.T.);
#573 = EDGE_CURVE('',#102,#574,#576,.T.);
#574 = VERTEX_POINT('',#575);
#575 = CARTESIAN_POINT('',(-85.,-4.,27.));
#576 = LINE('',#577,#578);
#577 = CARTESIAN_POINT('',(-85.,4.,27.));
#578 = VECTOR('',#579,1.);
#579 = DIRECTION('',(1.78E-15,-1.,0.));
#580 = ORIENTED_EDGE('',*,*,#581,.T.);
#581 = EDGE_CURVE('',#574,#443,#582,.T.);
#582 = LINE('',#583,#584);
#583 = CARTESIAN_POINT('',(-85.,-4.,27.));
#584 = VECTOR('',#585,1.);
#585 = DIRECTION('',(1.,0.,0.));
#586 = ORIENTED_EDGE('',*,*,#442,.F.);
#587 = ORIENTED_EDGE('',*,*,#101,.T.);
#588 = FACE_BOUND('',#589,.F.);
#589 = EDGE_LOOP('',(#590));
#590 = ORIENTED_EDGE('',*,*,#591,.T.);
#591 = EDGE_CURVE('',#592,#592,#594,.T.);
#592 = VERTEX_POINT('',#593);
#593 = CARTESIAN_POINT('',(-58.8,0.,27.));
#594 = CIRCLE('',#595,1.2);
#595 = AXIS2_PLACEMENT_3D('',#596,#597,#598);
#596 = CARTESIAN_POINT('',(-60.,0.,27.));
#597 = DIRECTION('',(0.,0.,1.));
#598 = DIRECTION('',(1.,0.,0.));
#599 = FACE_BOUND('',#600,.F.);
#600 = EDGE_LOOP('',(#601));
#601 = ORIENTED_EDGE('',*,*,#602,.T.);
#602 = EDGE_CURVE('',#603,#603,#605,.T.);
#603 = VERTEX_POINT('',#604);
#604 = CARTESIAN_POINT('',(1.2,0.,27.));
#605 = CIRCLE('',#606,1.2);
#606 = AXIS2_PLACEMENT_3D('',#607,#608,#609);
#607 = CARTESIAN_POINT('',(0.,0.,27.));
#608 = DIRECTION('',(0.,0.,1.));
#609 = DIRECTION('',(1.,0.,0.));
#610 = FACE_BOUND('',#611,.F.);
#611 = EDGE_LOOP('',(#612));
#612 = ORIENTED_EDGE('',*,*,#613,.T.);
#613 = EDGE_CURVE('',#614,#614,#616,.T.);
#614 = VERTEX_POINT('',#615);
#615 = CARTESIAN_POINT('',(61.2,0.,27.));
#616 = CIRCLE('',#617,1.2);
#617 = AXIS2_PLACEMENT_3D('',#618,#619,#620);
#618 = CARTESIAN_POINT('',(60.,0.,27.));
#619 = DIRECTION('',(0.,0.,1.));
#620 = DIRECTION('',(1.,0.,0.));
#621 = FACE_BOUND('',#622,.F.);
#622 = EDGE_LOOP('',(#623));
#623 = ORIENTED_EDGE('',*,*,#624,.T.);
#624 = EDGE_CURVE('',#625,#625,#627,.T.);
#625 = VERTEX_POINT('',#626);
#626 = CARTESIAN_POINT('',(-78.8,0.,27.));
#627 = CIRCLE('',#628,1.2);
#628 = AXIS2_PLACEMENT_3D('',#629,#630,#631);
#629 = CARTESIAN_POINT('',(-80.,0.,27.));
#630 = DIRECTION('',(0.,0.,1.));
#631 = DIRECTION('',(1.,0.,0.));
#632 = FACE_BOUND('',#633,.F.);
#633 = EDGE_LOOP('',(#634));
#634 = ORIENTED_EDGE('',*,*,#635,.T.);
#635 = EDGE_CURVE('',#636,#636,#638,.T.);
#636 = VERTEX_POINT('',#637);
#637 = CARTESIAN_POINT('',(73.2,0.,27.));
#638 = CIRCLE('',#639,1.2);
#639 = AXIS2_PLACEMENT_3D('',#640,#641,#642);
#640 = CARTESIAN_POINT('',(72.,0.,27.));
#641 = DIRECTION('',(0.,0.,1.));
#642 = DIRECTION('',(1.,0.,0.));
#643 = FACE_BOUND('',#644,.F.);
#644 = EDGE_LOOP('',(#645));
#645 = ORIENTED_EDGE('',*,*,#646,.T.);
#646 = EDGE_CURVE('',#647,#647,#649,.T.);
#647 = VERTEX_POINT('',#648);
#648 = CARTESIAN_POINT('',(-28.8,0.,27.));
#649 = CIRCLE('',#650,1.2);
#650 = AXIS2_PLACEMENT_3D('',#651,#652,#653);
#651 = CARTESIAN_POINT('',(-30.,0.,27.));
#652 = DIRECTION('',(0.,0.,1.));
#653 = DIRECTION('',(1.,0.,0.));
#654 = FACE_BOUND('',#655,.F.);
#655 = EDGE_LOOP('',(#656));
#656 = ORIENTED_EDGE('',*,*,#657,.T.);
#657 = EDGE_CURVE('',#658,#658,#660,.T.);
#658 = VERTEX_POINT('',#659);
#659 = CARTESIAN_POINT('',(31.2,0.,27.));
#660 = CIRCLE('',#661,1.2);
#661 = AXIS2_PLACEMENT_3D('',#662,#663,#664);
#662 = CARTESIAN_POINT('',(30.,0.,27.));
#663 = DIRECTION('',(0.,0.,1.));
#664 = DIRECTION('',(1.,0.,0.));
#665 = PLANE('',#666);
#666 = AXIS2_PLACEMENT_3D('',#667,#668,#669);
#667 = CARTESIAN_POINT('',(-3.674942233377,1.E-17,27.));
#668 = DIRECTION('',(0.,0.,1.));
#669 = DIRECTION('',(1.,0.,0.));
#670 = ADVANCED_FACE('',(#671),#682,.F.);
#671 = FACE_BOUND('',#672,.F.);
#672 = EDGE_LOOP('',(#673,#674,#675,#681));
#673 = ORIENTED_EDGE('',*,*,#109,.T.);
#674 = ORIENTED_EDGE('',*,*,#573,.T.);
#675 = ORIENTED_EDGE('',*,*,#676,.F.);
#676 = EDGE_CURVE('',#473,#574,#677,.T.);
#677 = LINE('',#678,#679);
#678 = CARTESIAN_POINT('',(-85.,-4.,0.));
#679 = VECTOR('',#680,1.);
#680 = DIRECTION('',(0.,0.,1.));
#681 = ORIENTED_EDGE('',*,*,#472,.F.);
#682 = PLANE('',#683);
#683 = AXIS2_PLACEMENT_3D('',#684,#685,#686);
#684 = CARTESIAN_POINT('',(-85.,4.,0.));
#685 = DIRECTION('',(1.,1.78E-15,0.));
#686 = DIRECTION('',(1.78E-15,-1.,0.));
#687 = ADVANCED_FACE('',(#688),#713,.F.);
#688 = FACE_BOUND('',#689,.F.);
#689 = EDGE_LOOP('',(#690,#700,#706,#707));
#690 = ORIENTED_EDGE('',*,*,#691,.F.);
#691 = EDGE_CURVE('',#692,#694,#696,.T.);
#692 = VERTEX_POINT('',#693);
#693 = CARTESIAN_POINT('',(-74.,-4.,15.5));
#694 = VERTEX_POINT('',#695);
#695 = CARTESIAN_POINT('',(-74.,-4.,11.5));
#696 = LINE('',#697,#698);
#697 = CARTESIAN_POINT('',(-74.,-4.,18.5));
#698 = VECTOR('',#699,1.);
#699 = DIRECTION('',(0.,0.,-1.));
#700 = ORIENTED_EDGE('',*,*,#701,.T.);
#701 = EDGE_CURVE('',#692,#126,#702,.T.);
#702 = LINE('',#703,#704);
#703 = CARTESIAN_POINT('',(-74.,-4.,15.5));
#704 = VECTOR('',#705,1.);
#705 = DIRECTION('',(0.,1.,-2.2E-16));
#706 = ORIENTED_EDGE('',*,*,#125,.T.);
#707 = ORIENTED_EDGE('',*,*,#708,.F.);
#708 = EDGE_CURVE('',#694,#128,#709,.T.);
#709 = LINE('',#710,#711);
#710 = CARTESIAN_POINT('',(-74.,-4.,11.5));
#711 = VECTOR('',#712,1.);
#712 = DIRECTION('',(0.,1.,-2.2E-16));
#713 = PLANE('',#714);
#714 = AXIS2_PLACEMENT_3D('',#715,#716,#717);
#715 = CARTESIAN_POINT('',(-74.,-4.,18.5));
#716 = DIRECTION('',(-1.,0.,0.));
#717 = DIRECTION('',(-0.,-2.2E-16,-1.));
#718 = ADVANCED_FACE('',(#719),#738,.F.);
#719 = FACE_BOUND('',#720,.F.);
#720 = EDGE_LOOP('',(#721,#730,#736,#737));
#721 = ORIENTED_EDGE('',*,*,#722,.T.);
#722 = EDGE_CURVE('',#692,#723,#725,.T.);
#723 = VERTEX_POINT('',#724);
#724 = CARTESIAN_POINT('',(-71.,-4.,18.5));
#725 = CIRCLE('',#726,3.);
#726 = AXIS2_PLACEMENT_3D('',#727,#728,#729);
#727 = CARTESIAN_POINT('',(-71.,-4.,15.5));
#728 = DIRECTION('',(0.,1.,-2.2E-16));
#729 = DIRECTION('',(0.,2.2E-16,1.));
#730 = ORIENTED_EDGE('',*,*,#731,.T.);
#731 = EDGE_CURVE('',#723,#136,#732,.T.);
#732 = LINE('',#733,#734);
#733 = CARTESIAN_POINT('',(-71.,-4.,18.5));
#734 = VECTOR('',#735,1.);
#735 = DIRECTION('',(0.,1.,-2.2E-16));
#736 = ORIENTED_EDGE('',*,*,#135,.F.);
#737 = ORIENTED_EDGE('',*,*,#701,.F.);
#738 = CYLINDRICAL_SURFACE('',#739,3.);
#739 = AXIS2_PLACEMENT_3D('',#740,#741,#742);
#740 = CARTESIAN_POINT('',(-71.,-4.,15.5));
#741 = DIRECTION('',(0.,1.,-2.2E-16));
#742 = DIRECTION('',(-1.,0.,0.));
#743 = ADVANCED_FACE('',(#744),#763,.F.);
#744 = FACE_BOUND('',#745,.T.);
#745 = EDGE_LOOP('',(#746,#755,#761,#762));
#746 = ORIENTED_EDGE('',*,*,#747,.T.);
#747 = EDGE_CURVE('',#694,#748,#750,.T.);
#748 = VERTEX_POINT('',#749);
#749 = CARTESIAN_POINT('',(-71.,-4.,8.5));
#750 = CIRCLE('',#751,3.);
#751 = AXIS2_PLACEMENT_3D('',#752,#753,#754);
#752 = CARTESIAN_POINT('',(-71.,-4.,11.5));
#753 = DIRECTION('',(0.,-1.,2.2E-16));
#754 = DIRECTION('',(0.,2.2E-16,1.));
#755 = ORIENTED_EDGE('',*,*,#756,.T.);
#756 = EDGE_CURVE('',#748,#179,#757,.T.);
#757 = LINE('',#758,#759);
#758 = CARTESIAN_POINT('',(-71.,-4.,8.5));
#759 = VECTOR('',#760,1.);
#760 = DIRECTION('',(0.,1.,-2.2E-16));
#761 = ORIENTED_EDGE('',*,*,#186,.F.);
#762 = ORIENTED_EDGE('',*,*,#708,.F.);
#763 = CYLINDRICAL_SURFACE('',#764,3.);
#764 = AXIS2_PLACEMENT_3D('',#765,#766,#767);
#765 = CARTESIAN_POINT('',(-71.,-4.,11.5));
#766 = DIRECTION('',(0.,1.,-2.2E-16));
#767 = DIRECTION('',(-1.,0.,0.));
#768 = ADVANCED_FACE('',(#769,#787,#798),#809,.F.);
#769 = FACE_BOUND('',#770,.F.);
#770 = EDGE_LOOP('',(#771,#779,#785,#786));
#771 = ORIENTED_EDGE('',*,*,#772,.F.);
#772 = EDGE_CURVE('',#773,#723,#775,.T.);
#773 = VERTEX_POINT('',#774);
#774 = CARTESIAN_POINT('',(-17.,-4.,18.5));
#775 = LINE('',#776,#777);
#776 = CARTESIAN_POINT('',(-14.,-4.,18.5));
#777 = VECTOR('',#778,1.);
#778 = DIRECTION('',(-1.,0.,0.));
#779 = ORIENTED_EDGE('',*,*,#780,.T.);
#780 = EDGE_CURVE('',#773,#145,#781,.T.);
#781 = LINE('',#782,#783);
#782 = CARTESIAN_POINT('',(-17.,-4.,18.5));
#783 = VECTOR('',#784,1.);
#784 = DIRECTION('',(0.,1.,-2.2E-16));
#785 = ORIENTED_EDGE('',*,*,#144,.T.);
#786 = ORIENTED_EDGE('',*,*,#731,.F.);
#787 = FACE_BOUND('',#788,.F.);
#788 = EDGE_LOOP('',(#789));
#789 = ORIENTED_EDGE('',*,*,#790,.T.);
#790 = EDGE_CURVE('',#791,#791,#793,.T.);
#791 = VERTEX_POINT('',#792);
#792 = CARTESIAN_POINT('',(-28.8,0.,18.5));
#793 = CIRCLE('',#794,1.2);
#794 = AXIS2_PLACEMENT_3D('',#795,#796,#797);
#795 = CARTESIAN_POINT('',(-30.,0.,18.5));
#796 = DIRECTION('',(0.,0.,-1.));
#797 = DIRECTION('',(1.,0.,0.));
#798 = FACE_BOUND('',#799,.F.);
#799 = EDGE_LOOP('',(#800));
#800 = ORIENTED_EDGE('',*,*,#801,.T.);
#801 = EDGE_CURVE('',#802,#802,#804,.T.);
#802 = VERTEX_POINT('',#803);
#803 = CARTESIAN_POINT('',(-58.8,0.,18.5));
#804 = CIRCLE('',#805,1.2);
#805 = AXIS2_PLACEMENT_3D('',#806,#807,#808);
#806 = CARTESIAN_POINT('',(-60.,0.,18.5));
#807 = DIRECTION('',(0.,0.,-1.));
#808 = DIRECTION('',(1.,0.,0.));
#809 = PLANE('',#810);
#810 = AXIS2_PLACEMENT_3D('',#811,#812,#813);
#811 = CARTESIAN_POINT('',(-14.,-4.,18.5));
#812 = DIRECTION('',(0.,2.2E-16,1.));
#813 = DIRECTION('',(-1.,0.,0.));
#814 = ADVANCED_FACE('',(#815,#833,#844),#855,.F.);
#815 = FACE_BOUND('',#816,.F.);
#816 = EDGE_LOOP('',(#817,#825,#826,#827));
#817 = ORIENTED_EDGE('',*,*,#818,.F.);
#818 = EDGE_CURVE('',#748,#819,#821,.T.);
#819 = VERTEX_POINT('',#820);
#820 = CARTESIAN_POINT('',(-17.,-4.,8.5));
#821 = LINE('',#822,#823);
#822 = CARTESIAN_POINT('',(-74.,-4.,8.5));
#823 = VECTOR('',#824,1.);
#824 = DIRECTION('',(1.,0.,0.));
#825 = ORIENTED_EDGE('',*,*,#756,.T.);
#826 = ORIENTED_EDGE('',*,*,#178,.T.);
#827 = ORIENTED_EDGE('',*,*,#828,.F.);
#828 = EDGE_CURVE('',#819,#170,#829,.T.);
#829 = LINE('',#830,#831);
#830 = CARTESIAN_POINT('',(-17.,-4.,8.5));
#831 = VECTOR('',#832,1.);
#832 = DIRECTION('',(0.,1.,-2.2E-16));
#833 = FACE_BOUND('',#834,.F.);
#834 = EDGE_LOOP('',(#835));
#835 = ORIENTED_EDGE('',*,*,#836,.F.);
#836 = EDGE_CURVE('',#837,#837,#839,.T.);
#837 = VERTEX_POINT('',#838);
#838 = CARTESIAN_POINT('',(-58.8,0.,8.5));
#839 = CIRCLE('',#840,1.2);
#840 = AXIS2_PLACEMENT_3D('',#841,#842,#843);
#841 = CARTESIAN_POINT('',(-60.,0.,8.5));
#842 = DIRECTION('',(0.,0.,-1.));
#843 = DIRECTION('',(1.,0.,0.));
#844 = FACE_BOUND('',#845,.F.);
#845 = EDGE_LOOP('',(#846));
#846 = ORIENTED_EDGE('',*,*,#847,.F.);
#847 = EDGE_CURVE('',#848,#848,#850,.T.);
#848 = VERTEX_POINT('',#849);
#849 = CARTESIAN_POINT('',(-28.8,0.,8.5));
#850 = CIRCLE('',#851,1.2);
#851 = AXIS2_PLACEMENT_3D('',#852,#853,#854);
#852 = CARTESIAN_POINT('',(-30.,0.,8.5));
#853 = DIRECTION('',(0.,0.,-1.));
#854 = DIRECTION('',(1.,0.,0.));
#855 = PLANE('',#856);
#856 = AXIS2_PLACEMENT_3D('',#857,#858,#859);
#857 = CARTESIAN_POINT('',(-74.,-4.,8.5));
#858 = DIRECTION('',(0.,-2.2E-16,-1.));
#859 = DIRECTION('',(1.,0.,0.));
#860 = ADVANCED_FACE('',(#861),#880,.F.);
#861 = FACE_BOUND('',#862,.T.);
#862 = EDGE_LOOP('',(#863,#872,#873,#874));
#863 = ORIENTED_EDGE('',*,*,#864,.T.);
#864 = EDGE_CURVE('',#865,#773,#867,.T.);
#865 = VERTEX_POINT('',#866);
#866 = CARTESIAN_POINT('',(-14.,-4.,15.5));
#867 = CIRCLE('',#868,3.);
#868 = AXIS2_PLACEMENT_3D('',#869,#870,#871);
#869 = CARTESIAN_POINT('',(-17.,-4.,15.5));
#870 = DIRECTION('',(0.,-1.,2.2E-16));
#871 = DIRECTION('',(0.,2.2E-16,1.));
#872 = ORIENTED_EDGE('',*,*,#780,.T.);
#873 = ORIENTED_EDGE('',*,*,#152,.F.);
#874 = ORIENTED_EDGE('',*,*,#875,.F.);
#875 = EDGE_CURVE('',#865,#153,#876,.T.);
#876 = LINE('',#877,#878);
#877 = CARTESIAN_POINT('',(-14.,-4.,15.5));
#878 = VECTOR('',#879,1.);
#879 = DIRECTION('',(0.,1.,-2.2E-16));
#880 = CYLINDRICAL_SURFACE('',#881,3.);
#881 = AXIS2_PLACEMENT_3D('',#882,#883,#884);
#882 = CARTESIAN_POINT('',(-17.,-4.,15.5));
#883 = DIRECTION('',(0.,1.,-2.2E-16));
#884 = DIRECTION('',(1.,0.,0.));
#885 = ADVANCED_FACE('',(#886),#905,.F.);
#886 = FACE_BOUND('',#887,.T.);
#887 = EDGE_LOOP('',(#888,#897,#903,#904));
#888 = ORIENTED_EDGE('',*,*,#889,.T.);
#889 = EDGE_CURVE('',#819,#890,#892,.T.);
#890 = VERTEX_POINT('',#891);
#891 = CARTESIAN_POINT('',(-14.,-4.,11.5));
#892 = CIRCLE('',#893,3.);
#893 = AXIS2_PLACEMENT_3D('',#894,#895,#896);
#894 = CARTESIAN_POINT('',(-17.,-4.,11.5));
#895 = DIRECTION('',(0.,-1.,2.2E-16));
#896 = DIRECTION('',(0.,2.2E-16,1.));
#897 = ORIENTED_EDGE('',*,*,#898,.T.);
#898 = EDGE_CURVE('',#890,#162,#899,.T.);
#899 = LINE('',#900,#901);
#900 = CARTESIAN_POINT('',(-14.,-4.,11.5));
#901 = VECTOR('',#902,1.);
#902 = DIRECTION('',(0.,1.,-2.2E-16));
#903 = ORIENTED_EDGE('',*,*,#169,.F.);
#904 = ORIENTED_EDGE('',*,*,#828,.F.);
#905 = CYLINDRICAL_SURFACE('',#906,3.);
#906 = AXIS2_PLACEMENT_3D('',#907,#908,#909);
#907 = CARTESIAN_POINT('',(-17.,-4.,11.5));
#908 = DIRECTION('',(0.,1.,-2.2E-16));
#909 = DIRECTION('',(0.,-2.2E-16,-1.));
#910 = ADVANCED_FACE('',(#911),#922,.T.);
#911 = FACE_BOUND('',#912,.T.);
#912 = EDGE_LOOP('',(#913,#919,#920,#921));
#913 = ORIENTED_EDGE('',*,*,#914,.F.);
#914 = EDGE_CURVE('',#865,#890,#915,.T.);
#915 = LINE('',#916,#917);
#916 = CARTESIAN_POINT('',(-14.,-4.,18.5));
#917 = VECTOR('',#918,1.);
#918 = DIRECTION('',(0.,0.,-1.));
#919 = ORIENTED_EDGE('',*,*,#875,.T.);
#920 = ORIENTED_EDGE('',*,*,#161,.T.);
#921 = ORIENTED_EDGE('',*,*,#898,.F.);
#922 = PLANE('',#923);
#923 = AXIS2_PLACEMENT_3D('',#924,#925,#926);
#924 = CARTESIAN_POINT('',(-14.,-4.,18.5));
#925 = DIRECTION('',(-1.,0.,0.));
#926 = DIRECTION('',(-0.,-2.2E-16,-1.));
#927 = ADVANCED_FACE('',(#928,#938,#944),#954,.F.);
#928 = FACE_BOUND('',#929,.F.);
#929 = EDGE_LOOP('',(#930,#931,#932,#933,#934,#935,#936,#937));
#930 = ORIENTED_EDGE('',*,*,#282,.T.);
#931 = ORIENTED_EDGE('',*,*,#232,.F.);
#932 = ORIENTED_EDGE('',*,*,#201,.T.);
#933 = ORIENTED_EDGE('',*,*,#257,.T.);
#934 = ORIENTED_EDGE('',*,*,#328,.T.);
#935 = ORIENTED_EDGE('',*,*,#399,.T.);
#936 = ORIENTED_EDGE('',*,*,#424,.T.);
#937 = ORIENTED_EDGE('',*,*,#374,.T.);
#938 = FACE_BOUND('',#939,.F.);
#939 = EDGE_LOOP('',(#940,#941,#942,#943));
#940 = ORIENTED_EDGE('',*,*,#676,.T.);
#941 = ORIENTED_EDGE('',*,*,#581,.T.);
#942 = ORIENTED_EDGE('',*,*,#450,.F.);
#943 = ORIENTED_EDGE('',*,*,#480,.F.);
#944 = FACE_BOUND('',#945,.F.);
#945 = EDGE_LOOP('',(#946,#947,#948,#949,#950,#951,#952,#953));
#946 = ORIENTED_EDGE('',*,*,#772,.T.);
#947 = ORIENTED_EDGE('',*,*,#722,.F.);
#948 = ORIENTED_EDGE('',*,*,#691,.T.);
#949 = ORIENTED_EDGE('',*,*,#747,.T.);
#950 = ORIENTED_EDGE('',*,*,#818,.T.);
#951 = ORIENTED_EDGE('',*,*,#889,.T.);
#952 = ORIENTED_EDGE('',*,*,#914,.F.);
#953 = ORIENTED_EDGE('',*,*,#864,.T.);
#954 = PLANE('',#955);
#955 = AXIS2_PLACEMENT_3D('',#956,#957,#958);
#956 = CARTESIAN_POINT('',(-85.,-4.,0.));
#957 = DIRECTION('',(0.,1.,0.));
#958 = DIRECTION('',(1.,0.,0.));
#959 = ADVANCED_FACE('',(#960),#971,.F.);
#960 = FACE_BOUND('',#961,.T.);
#961 = EDGE_LOOP('',(#962,#963,#969,#970));
#962 = ORIENTED_EDGE('',*,*,#556,.F.);
#963 = ORIENTED_EDGE('',*,*,#964,.T.);
#964 = EDGE_CURVE('',#557,#301,#965,.T.);
#965 = LINE('',#966,#967);
#966 = CARTESIAN_POINT('',(31.2,0.,0.));
#967 = VECTOR('',#968,1.);
#968 = DIRECTION('',(0.,0.,1.));
#969 = ORIENTED_EDGE('',*,*,#300,.F.);
#970 = ORIENTED_EDGE('',*,*,#964,.F.);
#971 = CYLINDRICAL_SURFACE('',#972,1.2);
#972 = AXIS2_PLACEMENT_3D('',#973,#974,#975);
#973 = CARTESIAN_POINT('',(30.,0.,0.));
#974 = DIRECTION('',(-0.,-0.,-1.));
#975 = DIRECTION('',(1.,0.,0.));
#976 = ADVANCED_FACE('',(#977),#988,.F.);
#977 = FACE_BOUND('',#978,.T.);
#978 = EDGE_LOOP('',(#979,#980,#986,#987));
#979 = ORIENTED_EDGE('',*,*,#512,.F.);
#980 = ORIENTED_EDGE('',*,*,#981,.T.);
#981 = EDGE_CURVE('',#513,#312,#982,.T.);
#982 = LINE('',#983,#984);
#983 = CARTESIAN_POINT('',(61.2,0.,0.));
#984 = VECTOR('',#985,1.);
#985 = DIRECTION('',(0.,0.,1.));
#986 = ORIENTED_EDGE('',*,*,#311,.F.);
#987 = ORIENTED_EDGE('',*,*,#981,.F.);
#988 = CYLINDRICAL_SURFACE('',#989,1.2);
#989 = AXIS2_PLACEMENT_3D('',#990,#991,#992);
#990 = CARTESIAN_POINT('',(60.,0.,0.));
#991 = DIRECTION('',(-0.,-0.,-1.));
#992 = DIRECTION('',(1.,0.,0.));
#993 = ADVANCED_FACE('',(#994),#1005,.F.);
#994 = FACE_BOUND('',#995,.T.);
#995 = EDGE_LOOP('',(#996,#997,#1003,#1004));
#996 = ORIENTED_EDGE('',*,*,#346,.T.);
#997 = ORIENTED_EDGE('',*,*,#998,.T.);
#998 = EDGE_CURVE('',#347,#614,#999,.T.);
#999 = LINE('',#1000,#1001);
#1000 = CARTESIAN_POINT('',(61.2,0.,0.));
#1001 = VECTOR('',#1002,1.);
#1002 = DIRECTION('',(0.,0.,1.));
#1003 = ORIENTED_EDGE('',*,*,#613,.T.);
#1004 = ORIENTED_EDGE('',*,*,#998,.F.);
#1005 = CYLINDRICAL_SURFACE('',#1006,1.2);
#1006 = AXIS2_PLACEMENT_3D('',#1007,#1008,#1009);
#1007 = CARTESIAN_POINT('',(60.,0.,0.));
#1008 = DIRECTION('',(-0.,-0.,-1.));
#1009 = DIRECTION('',(1.,0.,0.));
#1010 = ADVANCED_FACE('',(#1011),#1022,.F.);
#1011 = FACE_BOUND('',#1012,.T.);
#1012 = EDGE_LOOP('',(#1013,#1014,#1020,#1021));
#1013 = ORIENTED_EDGE('',*,*,#357,.T.);
#1014 = ORIENTED_EDGE('',*,*,#1015,.T.);
#1015 = EDGE_CURVE('',#358,#658,#1016,.T.);
#1016 = LINE('',#1017,#1018);
#1017 = CARTESIAN_POINT('',(31.2,0.,0.));
#1018 = VECTOR('',#1019,1.);
#1019 = DIRECTION('',(0.,0.,1.));
#1020 = ORIENTED_EDGE('',*,*,#657,.T.);
#1021 = ORIENTED_EDGE('',*,*,#1015,.F.);
#1022 = CYLINDRICAL_SURFACE('',#1023,1.2);
#1023 = AXIS2_PLACEMENT_3D('',#1024,#1025,#1026);
#1024 = CARTESIAN_POINT('',(30.,0.,0.));
#1025 = DIRECTION('',(-0.,-0.,-1.));
#1026 = DIRECTION('',(1.,0.,0.));
#1027 = ADVANCED_FACE('',(#1028),#1039,.F.);
#1028 = FACE_BOUND('',#1029,.T.);
#1029 = EDGE_LOOP('',(#1030,#1031,#1037,#1038));
#1030 = ORIENTED_EDGE('',*,*,#490,.F.);
#1031 = ORIENTED_EDGE('',*,*,#1032,.T.);
#1032 = EDGE_CURVE('',#491,#837,#1033,.T.);
#1033 = LINE('',#1034,#1035);
#1034 = CARTESIAN_POINT('',(-58.8,0.,0.));
#1035 = VECTOR('',#1036,1.);
#1036 = DIRECTION('',(0.,0.,1.));
#1037 = ORIENTED_EDGE('',*,*,#836,.F.);
#1038 = ORIENTED_EDGE('',*,*,#1032,.F.);
#1039 = CYLINDRICAL_SURFACE('',#1040,1.2);
#1040 = AXIS2_PLACEMENT_3D('',#1041,#1042,#1043);
#1041 = CARTESIAN_POINT('',(-60.,0.,0.));
#1042 = DIRECTION('',(-0.,-0.,-1.));
#1043 = DIRECTION('',(1.,0.,0.));
#1044 = ADVANCED_FACE('',(#1045),#1056,.F.);
#1045 = FACE_BOUND('',#1046,.T.);
#1046 = EDGE_LOOP('',(#1047,#1053,#1054,#1055));
#1047 = ORIENTED_EDGE('',*,*,#1048,.T.);
#1048 = EDGE_CURVE('',#502,#603,#1049,.T.);
#1049 = LINE('',#1050,#1051);
#1050 = CARTESIAN_POINT('',(1.2,0.,0.));
#1051 = VECTOR('',#1052,1.);
#1052 = DIRECTION('',(0.,0.,1.));
#1053 = ORIENTED_EDGE('',*,*,#602,.T.);
#1054 = ORIENTED_EDGE('',*,*,#1048,.F.);
#1055 = ORIENTED_EDGE('',*,*,#501,.F.);
#1056 = CYLINDRICAL_SURFACE('',#1057,1.2);
#1057 = AXIS2_PLACEMENT_3D('',#1058,#1059,#1060);
#1058 = CARTESIAN_POINT('',(0.,0.,0.));
#1059 = DIRECTION('',(-0.,-0.,-1.));
#1060 = DIRECTION('',(1.,0.,0.));
#1061 = ADVANCED_FACE('',(#1062),#1073,.F.);
#1062 = FACE_BOUND('',#1063,.T.);
#1063 = EDGE_LOOP('',(#1064,#1070,#1071,#1072));
#1064 = ORIENTED_EDGE('',*,*,#1065,.T.);
#1065 = EDGE_CURVE('',#524,#625,#1066,.T.);
#1066 = LINE('',#1067,#1068);
#1067 = CARTESIAN_POINT('',(-78.8,0.,0.));
#1068 = VECTOR('',#1069,1.);
#1069 = DIRECTION('',(0.,0.,1.));
#1070 = ORIENTED_EDGE('',*,*,#624,.T.);
#1071 = ORIENTED_EDGE('',*,*,#1065,.F.);
#1072 = ORIENTED_EDGE('',*,*,#523,.F.);
#1073 = CYLINDRICAL_SURFACE('',#1074,1.2);
#1074 = AXIS2_PLACEMENT_3D('',#1075,#1076,#1077);
#1075 = CARTESIAN_POINT('',(-80.,0.,0.));
#1076 = DIRECTION('',(-0.,-0.,-1.));
#1077 = DIRECTION('',(1.,0.,0.));
#1078 = ADVANCED_FACE('',(#1079),#1090,.F.);
#1079 = FACE_BOUND('',#1080,.T.);
#1080 = EDGE_LOOP('',(#1081,#1087,#1088,#1089));
#1081 = ORIENTED_EDGE('',*,*,#1082,.T.);
#1082 = EDGE_CURVE('',#535,#636,#1083,.T.);
#1083 = LINE('',#1084,#1085);
#1084 = CARTESIAN_POINT('',(73.2,0.,0.));
#1085 = VECTOR('',#1086,1.);
#1086 = DIRECTION('',(0.,0.,1.));
#1087 = ORIENTED_EDGE('',*,*,#635,.T.);
#1088 = ORIENTED_EDGE('',*,*,#1082,.F.);
#1089 = ORIENTED_EDGE('',*,*,#534,.F.);
#1090 = CYLINDRICAL_SURFACE('',#1091,1.2);
#1091 = AXIS2_PLACEMENT_3D('',#1092,#1093,#1094);
#1092 = CARTESIAN_POINT('',(72.,0.,0.));
#1093 = DIRECTION('',(-0.,-0.,-1.));
#1094 = DIRECTION('',(1.,0.,0.));
#1095 = ADVANCED_FACE('',(#1096),#1107,.F.);
#1096 = FACE_BOUND('',#1097,.T.);
#1097 = EDGE_LOOP('',(#1098,#1099,#1105,#1106));
#1098 = ORIENTED_EDGE('',*,*,#545,.F.);
#1099 = ORIENTED_EDGE('',*,*,#1100,.T.);
#1100 = EDGE_CURVE('',#546,#848,#1101,.T.);
#1101 = LINE('',#1102,#1103);
#1102 = CARTESIAN_POINT('',(-28.8,0.,0.));
#1103 = VECTOR('',#1104,1.);
#1104 = DIRECTION('',(0.,0.,1.));
#1105 = ORIENTED_EDGE('',*,*,#847,.F.);
#1106 = ORIENTED_EDGE('',*,*,#1100,.F.);
#1107 = CYLINDRICAL_SURFACE('',#1108,1.2);
#1108 = AXIS2_PLACEMENT_3D('',#1109,#1110,#1111);
#1109 = CARTESIAN_POINT('',(-30.,0.,0.));
#1110 = DIRECTION('',(-0.,-0.,-1.));
#1111 = DIRECTION('',(1.,0.,0.));
#1112 = ADVANCED_FACE('',(#1113),#1124,.F.);
#1113 = FACE_BOUND('',#1114,.T.);
#1114 = EDGE_LOOP('',(#1115,#1116,#1122,#1123));
#1115 = ORIENTED_EDGE('',*,*,#801,.T.);
#1116 = ORIENTED_EDGE('',*,*,#1117,.T.);
#1117 = EDGE_CURVE('',#802,#592,#1118,.T.);
#1118 = LINE('',#1119,#1120);
#1119 = CARTESIAN_POINT('',(-58.8,0.,0.));
#1120 = VECTOR('',#1121,1.);
#1121 = DIRECTION('',(0.,0.,1.));
#1122 = ORIENTED_EDGE('',*,*,#591,.T.);
#1123 = ORIENTED_EDGE('',*,*,#1117,.F.);
#1124 = CYLINDRICAL_SURFACE('',#1125,1.2);
#1125 = AXIS2_PLACEMENT_3D('',#1126,#1127,#1128);
#1126 = CARTESIAN_POINT('',(-60.,0.,0.));
#1127 = DIRECTION('',(-0.,-0.,-1.));
#1128 = DIRECTION('',(1.,0.,0.));
#1129 = ADVANCED_FACE('',(#1130),#1141,.F.);
#1130 = FACE_BOUND('',#1131,.T.);
#1131 = EDGE_LOOP('',(#1132,#1133,#1139,#1140));
#1132 = ORIENTED_EDGE('',*,*,#790,.T.);
#1133 = ORIENTED_EDGE('',*,*,#1134,.T.);
#1134 = EDGE_CURVE('',#791,#647,#1135,.T.);
#1135 = LINE('',#1136,#1137);
#1136 = CARTESIAN_POINT('',(-28.8,0.,0.));
#1137 = VECTOR('',#1138,1.);
#1138 = DIRECTION('',(0.,0.,1.));
#1139 = ORIENTED_EDGE('',*,*,#646,.T.);
#1140 = ORIENTED_EDGE('',*,*,#1134,.F.);
#1141 = CYLINDRICAL_SURFACE('',#1142,1.2);
#1142 = AXIS2_PLACEMENT_3D('',#1143,#1144,#1145);
#1143 = CARTESIAN_POINT('',(-30.,0.,0.));
#1144 = DIRECTION('',(-0.,-0.,-1.));
#1145 = DIRECTION('',(1.,0.,0.));
#1146 = ( GEOMETRIC_REPRESENTATION_CONTEXT(3) 
GLOBAL_UNCERTAINTY_ASSIGNED_CONTEXT((#1150)) 
GLOBAL_UNIT_ASSIGNED_CONTEXT((#1147,#1148,#1149)) REPRESENTATION_CONTEXT
('Context #1','3D Context with UNIT and UNCERTAINTY') );
#1147 = ( LENGTH_UNIT() NAMED_UNIT(*) SI_UNIT(.MILLI.,.METRE.) );
#1148 = ( NAMED_UNIT(*) PLANE_ANGLE_UNIT() SI_UNIT($,.RADIAN.) );
#1149 = ( NAMED_UNIT(*) SI_UNIT($,.STERADIAN.) SOLID_ANGLE_UNIT() );
#1150 = UNCERTAINTY_MEASURE_WITH_UNIT(LENGTH_MEASURE(2.E-05),#1147,
  'distance_accuracy_value','confusion accuracy');
#1151 = PRODUCT_RELATED_PRODUCT_CATEGORY('part',$,(#7));
ENDSEC;
END-ISO-10303-21;
