ISO-10303-21;
HEADER;
FILE_DESCRIPTION(('FreeCAD Model'),'2;1');
FILE_NAME('Open CASCADE Shape Model','2026-08-28T13:04:06',('FreeCAD'),(
    'FreeCAD'),'Open CASCADE STEP processor 7.8','FreeCAD','Unknown');
FILE_SCHEMA(('AUTOMOTIVE_DESIGN { 1 0 10303 214 1 1 1 1 }'));
ENDSEC;
DATA;
#1 = APPLICATION_PROTOCOL_DEFINITION('international standard',
  'automotive_design',2000,#2);
#2 = APPLICATION_CONTEXT(
  'core data for automotive mechanical design processes');
#3 = SHAPE_DEFINITION_REPRESENTATION(#4,#10);
#4 = PRODUCT_DEFINITION_SHAPE('','',#5);
#5 = PRODUCT_DEFINITION('design','',#6,#9);
#6 = PRODUCT_DEFINITION_FORMATION('','',#7);
#7 = PRODUCT('Open CASCADE STEP translator 7.8 98',
  'Open CASCADE STEP translator 7.8 98','',(#8));
#8 = PRODUCT_CONTEXT('',#2,'mechanical');
#9 = PRODUCT_DEFINITION_CONTEXT('part definition',#2,'design');
#10 = ADVANCED_BREP_SHAPE_REPRESENTATION('',(#11,#15),#1385);
#11 = AXIS2_PLACEMENT_3D('',#12,#13,#14);
#12 = CARTESIAN_POINT('',(0.,0.,0.));
#13 = DIRECTION('',(0.,0.,1.));
#14 = DIRECTION('',(1.,0.,-0.));
#15 = MANIFOLD_SOLID_BREP('',#16);
#16 = CLOSED_SHELL('',(#17,#123,#154,#189,#246,#270,#327,#362,#386,#425,
    #456,#480,#504,#521,#538,#558,#601,#618,#815,#849,#883,#916,#959,
    #1002,#1043,#1068,#1112,#1122,#1147,#1197,#1207,#1232,#1268,#1278,
    #1303,#1333,#1343,#1364));
#17 = ADVANCED_FACE('',(#18,#84),#118,.F.);
#18 = FACE_BOUND('',#19,.F.);
#19 = EDGE_LOOP('',(#20,#30,#38,#46,#54,#62,#70,#78));
#20 = ORIENTED_EDGE('',*,*,#21,.F.);
#21 = EDGE_CURVE('',#22,#24,#26,.T.);
#22 = VERTEX_POINT('',#23);
#23 = CARTESIAN_POINT('',(-78.25536400562,54.964546,8.));
#24 = VERTEX_POINT('',#25);
#25 = CARTESIAN_POINT('',(-78.25536400562,50.964546,8.));
#26 = LINE('',#27,#28);
#27 = CARTESIAN_POINT('',(-78.25536400562,54.964546,8.));
#28 = VECTOR('',#29,1.);
#29 = DIRECTION('',(0.,-1.,2.2E-16));
#30 = ORIENTED_EDGE('',*,*,#31,.T.);
#31 = EDGE_CURVE('',#22,#32,#34,.T.);
#32 = VERTEX_POINT('',#33);
#33 = CARTESIAN_POINT('',(-78.25536400562,54.964546,19.));
#34 = LINE('',#35,#36);
#35 = CARTESIAN_POINT('',(-78.25536400562,54.964546,0.));
#36 = VECTOR('',#37,1.);
#37 = DIRECTION('',(0.,0.,1.));
#38 = ORIENTED_EDGE('',*,*,#39,.T.);
#39 = EDGE_CURVE('',#32,#40,#42,.T.);
#40 = VERTEX_POINT('',#41);
#41 = CARTESIAN_POINT('',(-78.25536400562,50.964546,19.));
#42 = LINE('',#43,#44);
#43 = CARTESIAN_POINT('',(-78.25536400562,54.964546,19.));
#44 = VECTOR('',#45,1.);
#45 = DIRECTION('',(0.,-1.,2.2E-16));
#46 = ORIENTED_EDGE('',*,*,#47,.T.);
#47 = EDGE_CURVE('',#40,#48,#50,.T.);
#48 = VERTEX_POINT('',#49);
#49 = CARTESIAN_POINT('',(-78.25536400562,50.964546,27.));
#50 = LINE('',#51,#52);
#51 = CARTESIAN_POINT('',(-78.25536400562,50.964546,19.));
#52 = VECTOR('',#53,1.);
#53 = DIRECTION('',(0.,0.,1.));
#54 = ORIENTED_EDGE('',*,*,#55,.T.);
#55 = EDGE_CURVE('',#48,#56,#58,.T.);
#56 = VERTEX_POINT('',#57);
#57 = CARTESIAN_POINT('',(-78.25536400562,14.964546,27.));
#58 = LINE('',#59,#60);
#59 = CARTESIAN_POINT('',(-78.25536400562,54.964546,27.));
#60 = VECTOR('',#61,1.);
#61 = DIRECTION('',(0.,-1.,0.));
#62 = ORIENTED_EDGE('',*,*,#63,.F.);
#63 = EDGE_CURVE('',#64,#56,#66,.T.);
#64 = VERTEX_POINT('',#65);
#65 = CARTESIAN_POINT('',(-78.25536400562,14.964546,0.));
#66 = LINE('',#67,#68);
#67 = CARTESIAN_POINT('',(-78.25536400562,14.964546,0.));
#68 = VECTOR('',#69,1.);
#69 = DIRECTION('',(0.,0.,1.));
#70 = ORIENTED_EDGE('',*,*,#71,.F.);
#71 = EDGE_CURVE('',#72,#64,#74,.T.);
#72 = VERTEX_POINT('',#73);
#73 = CARTESIAN_POINT('',(-78.25536400562,50.964546,1.E-15));
#74 = LINE('',#75,#76);
#75 = CARTESIAN_POINT('',(-78.25536400562,54.964546,0.));
#76 = VECTOR('',#77,1.);
#77 = DIRECTION('',(0.,-1.,0.));
#78 = ORIENTED_EDGE('',*,*,#79,.T.);
#79 = EDGE_CURVE('',#72,#24,#80,.T.);
#80 = LINE('',#81,#82);
#81 = CARTESIAN_POINT('',(-78.25536400562,50.964546,1.E-15));
#82 = VECTOR('',#83,1.);
#83 = DIRECTION('',(0.,0.,1.));
#84 = FACE_BOUND('',#85,.F.);
#85 = EDGE_LOOP('',(#86,#96,#104,#112));
#86 = ORIENTED_EDGE('',*,*,#87,.T.);
#87 = EDGE_CURVE('',#88,#90,#92,.T.);
#88 = VERTEX_POINT('',#89);
#89 = CARTESIAN_POINT('',(-78.25536400562,24.003087666667,21.));
#90 = VERTEX_POINT('',#91);
#91 = CARTESIAN_POINT('',(-78.25536400562,38.003087666667,21.));
#92 = LINE('',#93,#94);
#93 = CARTESIAN_POINT('',(-78.25536400562,24.003087666667,21.));
#94 = VECTOR('',#95,1.);
#95 = DIRECTION('',(0.,1.,0.));
#96 = ORIENTED_EDGE('',*,*,#97,.T.);
#97 = EDGE_CURVE('',#90,#98,#100,.T.);
#98 = VERTEX_POINT('',#99);
#99 = CARTESIAN_POINT('',(-78.25536400562,38.003087666667,6.));
#100 = LINE('',#101,#102);
#101 = CARTESIAN_POINT('',(-78.25536400562,38.003087666667,21.));
#102 = VECTOR('',#103,1.);
#103 = DIRECTION('',(0.,0.,-1.));
#104 = ORIENTED_EDGE('',*,*,#105,.T.);
#105 = EDGE_CURVE('',#98,#106,#108,.T.);
#106 = VERTEX_POINT('',#107);
#107 = CARTESIAN_POINT('',(-78.25536400562,24.003087666667,6.));
#108 = LINE('',#109,#110);
#109 = CARTESIAN_POINT('',(-78.25536400562,38.003087666667,6.));
#110 = VECTOR('',#111,1.);
#111 = DIRECTION('',(0.,-1.,0.));
#112 = ORIENTED_EDGE('',*,*,#113,.T.);
#113 = EDGE_CURVE('',#106,#88,#114,.T.);
#114 = LINE('',#115,#116);
#115 = CARTESIAN_POINT('',(-78.25536400562,24.003087666667,6.));
#116 = VECTOR('',#117,1.);
#117 = DIRECTION('',(0.,0.,1.));
#118 = PLANE('',#119);
#119 = AXIS2_PLACEMENT_3D('',#120,#121,#122);
#120 = CARTESIAN_POINT('',(-78.25536400562,54.964546,0.));
#121 = DIRECTION('',(1.,0.,0.));
#122 = DIRECTION('',(0.,-1.,0.));
#123 = ADVANCED_FACE('',(#124),#149,.F.);
#124 = FACE_BOUND('',#125,.F.);
#125 = EDGE_LOOP('',(#126,#127,#135,#143));
#126 = ORIENTED_EDGE('',*,*,#21,.T.);
#127 = ORIENTED_EDGE('',*,*,#128,.T.);
#128 = EDGE_CURVE('',#24,#129,#131,.T.);
#129 = VERTEX_POINT('',#130);
#130 = CARTESIAN_POINT('',(-70.25536400562,50.964546,8.));
#131 = LINE('',#132,#133);
#132 = CARTESIAN_POINT('',(-78.25536400562,50.964546,8.));
#133 = VECTOR('',#134,1.);
#134 = DIRECTION('',(1.,0.,0.));
#135 = ORIENTED_EDGE('',*,*,#136,.F.);
#136 = EDGE_CURVE('',#137,#129,#139,.T.);
#137 = VERTEX_POINT('',#138);
#138 = CARTESIAN_POINT('',(-70.25536400562,54.964546,8.));
#139 = LINE('',#140,#141);
#140 = CARTESIAN_POINT('',(-70.25536400562,54.964546,8.));
#141 = VECTOR('',#142,1.);
#142 = DIRECTION('',(0.,-1.,2.2E-16));
#143 = ORIENTED_EDGE('',*,*,#144,.F.);
#144 = EDGE_CURVE('',#22,#137,#145,.T.);
#145 = LINE('',#146,#147);
#146 = CARTESIAN_POINT('',(-78.25536400562,54.964546,8.));
#147 = VECTOR('',#148,1.);
#148 = DIRECTION('',(1.,0.,0.));
#149 = PLANE('',#150);
#150 = AXIS2_PLACEMENT_3D('',#151,#152,#153);
#151 = CARTESIAN_POINT('',(-78.25536400562,54.964546,8.));
#152 = DIRECTION('',(0.,2.2E-16,1.));
#153 = DIRECTION('',(1.,0.,0.));
#154 = ADVANCED_FACE('',(#155,#173),#184,.T.);
#155 = FACE_BOUND('',#156,.T.);
#156 = EDGE_LOOP('',(#157,#158,#159,#167));
#157 = ORIENTED_EDGE('',*,*,#79,.T.);
#158 = ORIENTED_EDGE('',*,*,#128,.T.);
#159 = ORIENTED_EDGE('',*,*,#160,.F.);
#160 = EDGE_CURVE('',#161,#129,#163,.T.);
#161 = VERTEX_POINT('',#162);
#162 = CARTESIAN_POINT('',(-70.25536400562,50.964546,0.));
#163 = LINE('',#164,#165);
#164 = CARTESIAN_POINT('',(-70.25536400562,50.964546,0.));
#165 = VECTOR('',#166,1.);
#166 = DIRECTION('',(0.,0.,1.));
#167 = ORIENTED_EDGE('',*,*,#168,.T.);
#168 = EDGE_CURVE('',#161,#72,#169,.T.);
#169 = LINE('',#170,#171);
#170 = CARTESIAN_POINT('',(-70.25536400562,50.964546,1.E-15));
#171 = VECTOR('',#172,1.);
#172 = DIRECTION('',(-1.,0.,0.));
#173 = FACE_BOUND('',#174,.T.);
#174 = EDGE_LOOP('',(#175));
#175 = ORIENTED_EDGE('',*,*,#176,.F.);
#176 = EDGE_CURVE('',#177,#177,#179,.T.);
#177 = VERTEX_POINT('',#178);
#178 = CARTESIAN_POINT('',(-75.45536400562,50.964546,3.));
#179 = CIRCLE('',#180,1.2);
#180 = AXIS2_PLACEMENT_3D('',#181,#182,#183);
#181 = CARTESIAN_POINT('',(-74.25536400562,50.964546,3.));
#182 = DIRECTION('',(0.,1.,-2.2E-16));
#183 = DIRECTION('',(-1.,0.,0.));
#184 = PLANE('',#185);
#185 = AXIS2_PLACEMENT_3D('',#186,#187,#188);
#186 = CARTESIAN_POINT('',(-74.25536400562,50.964546,13.5));
#187 = DIRECTION('',(0.,1.,-3.2E-16));
#188 = DIRECTION('',(0.,3.2E-16,1.));
#189 = ADVANCED_FACE('',(#190,#208,#219,#230),#241,.F.);
#190 = FACE_BOUND('',#191,.F.);
#191 = EDGE_LOOP('',(#192,#193,#194,#202));
#192 = ORIENTED_EDGE('',*,*,#168,.T.);
#193 = ORIENTED_EDGE('',*,*,#71,.T.);
#194 = ORIENTED_EDGE('',*,*,#195,.T.);
#195 = EDGE_CURVE('',#64,#196,#198,.T.);
#196 = VERTEX_POINT('',#197);
#197 = CARTESIAN_POINT('',(-70.25536400562,14.964546,0.));
#198 = LINE('',#199,#200);
#199 = CARTESIAN_POINT('',(-78.25536400562,14.964546,0.));
#200 = VECTOR('',#201,1.);
#201 = DIRECTION('',(1.,0.,0.));
#202 = ORIENTED_EDGE('',*,*,#203,.T.);
#203 = EDGE_CURVE('',#196,#161,#204,.T.);
#204 = LINE('',#205,#206);
#205 = CARTESIAN_POINT('',(-70.25536400562,14.964546,0.));
#206 = VECTOR('',#207,1.);
#207 = DIRECTION('',(0.,1.,0.));
#208 = FACE_BOUND('',#209,.F.);
#209 = EDGE_LOOP('',(#210));
#210 = ORIENTED_EDGE('',*,*,#211,.F.);
#211 = EDGE_CURVE('',#212,#212,#214,.T.);
#212 = VERTEX_POINT('',#213);
#213 = CARTESIAN_POINT('',(-73.05536400562,20.964546,0.));
#214 = CIRCLE('',#215,1.2);
#215 = AXIS2_PLACEMENT_3D('',#216,#217,#218);
#216 = CARTESIAN_POINT('',(-74.25536400562,20.964546,0.));
#217 = DIRECTION('',(0.,0.,1.));
#218 = DIRECTION('',(1.,0.,0.));
#219 = FACE_BOUND('',#220,.F.);
#220 = EDGE_LOOP('',(#221));
#221 = ORIENTED_EDGE('',*,*,#222,.F.);
#222 = EDGE_CURVE('',#223,#223,#225,.T.);
#223 = VERTEX_POINT('',#224);
#224 = CARTESIAN_POINT('',(-73.05536400562,40.964546,0.));
#225 = CIRCLE('',#226,1.2);
#226 = AXIS2_PLACEMENT_3D('',#227,#228,#229);
#227 = CARTESIAN_POINT('',(-74.25536400562,40.964546,0.));
#228 = DIRECTION('',(0.,0.,1.));
#229 = DIRECTION('',(1.,0.,0.));
#230 = FACE_BOUND('',#231,.F.);
#231 = EDGE_LOOP('',(#232));
#232 = ORIENTED_EDGE('',*,*,#233,.F.);
#233 = EDGE_CURVE('',#234,#234,#236,.T.);
#234 = VERTEX_POINT('',#235);
#235 = CARTESIAN_POINT('',(-73.05536400562,46.964546,0.));
#236 = CIRCLE('',#237,1.2);
#237 = AXIS2_PLACEMENT_3D('',#238,#239,#240);
#238 = CARTESIAN_POINT('',(-74.25536400562,46.964546,0.));
#239 = DIRECTION('',(0.,0.,1.));
#240 = DIRECTION('',(1.,0.,0.));
#241 = PLANE('',#242);
#242 = AXIS2_PLACEMENT_3D('',#243,#244,#245);
#243 = CARTESIAN_POINT('',(-74.25536400562,35.181984488755,0.));
#244 = DIRECTION('',(0.,0.,1.));
#245 = DIRECTION('',(1.,0.,0.));
#246 = ADVANCED_FACE('',(#247),#265,.F.);
#247 = FACE_BOUND('',#248,.F.);
#248 = EDGE_LOOP('',(#249,#250,#258,#264));
#249 = ORIENTED_EDGE('',*,*,#63,.T.);
#250 = ORIENTED_EDGE('',*,*,#251,.T.);
#251 = EDGE_CURVE('',#56,#252,#254,.T.);
#252 = VERTEX_POINT('',#253);
#253 = CARTESIAN_POINT('',(-70.25536400562,14.964546,27.));
#254 = LINE('',#255,#256);
#255 = CARTESIAN_POINT('',(-78.25536400562,14.964546,27.));
#256 = VECTOR('',#257,1.);
#257 = DIRECTION('',(1.,0.,0.));
#258 = ORIENTED_EDGE('',*,*,#259,.F.);
#259 = EDGE_CURVE('',#196,#252,#260,.T.);
#260 = LINE('',#261,#262);
#261 = CARTESIAN_POINT('',(-70.25536400562,14.964546,0.));
#262 = VECTOR('',#263,1.);
#263 = DIRECTION('',(0.,0.,1.));
#264 = ORIENTED_EDGE('',*,*,#195,.F.);
#265 = PLANE('',#266);
#266 = AXIS2_PLACEMENT_3D('',#267,#268,#269);
#267 = CARTESIAN_POINT('',(-78.25536400562,14.964546,0.));
#268 = DIRECTION('',(0.,1.,0.));
#269 = DIRECTION('',(1.,0.,0.));
#270 = ADVANCED_FACE('',(#271,#289,#300,#311),#322,.T.);
#271 = FACE_BOUND('',#272,.T.);
#272 = EDGE_LOOP('',(#273,#281,#282,#283));
#273 = ORIENTED_EDGE('',*,*,#274,.F.);
#274 = EDGE_CURVE('',#48,#275,#277,.T.);
#275 = VERTEX_POINT('',#276);
#276 = CARTESIAN_POINT('',(-70.25536400562,50.964546,27.));
#277 = LINE('',#278,#279);
#278 = CARTESIAN_POINT('',(-78.25536400562,50.964546,27.));
#279 = VECTOR('',#280,1.);
#280 = DIRECTION('',(1.,0.,0.));
#281 = ORIENTED_EDGE('',*,*,#55,.T.);
#282 = ORIENTED_EDGE('',*,*,#251,.T.);
#283 = ORIENTED_EDGE('',*,*,#284,.T.);
#284 = EDGE_CURVE('',#252,#275,#285,.T.);
#285 = LINE('',#286,#287);
#286 = CARTESIAN_POINT('',(-70.25536400562,14.964546,27.));
#287 = VECTOR('',#288,1.);
#288 = DIRECTION('',(0.,1.,0.));
#289 = FACE_BOUND('',#290,.T.);
#290 = EDGE_LOOP('',(#291));
#291 = ORIENTED_EDGE('',*,*,#292,.F.);
#292 = EDGE_CURVE('',#293,#293,#295,.T.);
#293 = VERTEX_POINT('',#294);
#294 = CARTESIAN_POINT('',(-73.05536400562,20.964546,27.));
#295 = CIRCLE('',#296,1.2);
#296 = AXIS2_PLACEMENT_3D('',#297,#298,#299);
#297 = CARTESIAN_POINT('',(-74.25536400562,20.964546,27.));
#298 = DIRECTION('',(0.,0.,1.));
#299 = DIRECTION('',(1.,0.,0.));
#300 = FACE_BOUND('',#301,.T.);
#301 = EDGE_LOOP('',(#302));
#302 = ORIENTED_EDGE('',*,*,#303,.F.);
#303 = EDGE_CURVE('',#304,#304,#306,.T.);
#304 = VERTEX_POINT('',#305);
#305 = CARTESIAN_POINT('',(-73.05536400562,40.964546,27.));
#306 = CIRCLE('',#307,1.2);
#307 = AXIS2_PLACEMENT_3D('',#308,#309,#310);
#308 = CARTESIAN_POINT('',(-74.25536400562,40.964546,27.));
#309 = DIRECTION('',(0.,0.,1.));
#310 = DIRECTION('',(1.,0.,0.));
#311 = FACE_BOUND('',#312,.T.);
#312 = EDGE_LOOP('',(#313));
#313 = ORIENTED_EDGE('',*,*,#314,.F.);
#314 = EDGE_CURVE('',#315,#315,#317,.T.);
#315 = VERTEX_POINT('',#316);
#316 = CARTESIAN_POINT('',(-73.05536400562,46.964546,27.));
#317 = CIRCLE('',#318,1.2);
#318 = AXIS2_PLACEMENT_3D('',#319,#320,#321);
#319 = CARTESIAN_POINT('',(-74.25536400562,46.964546,27.));
#320 = DIRECTION('',(0.,0.,1.));
#321 = DIRECTION('',(1.,0.,0.));
#322 = PLANE('',#323);
#323 = AXIS2_PLACEMENT_3D('',#324,#325,#326);
#324 = CARTESIAN_POINT('',(-74.25536400562,35.181984488755,27.));
#325 = DIRECTION('',(0.,0.,1.));
#326 = DIRECTION('',(1.,0.,0.));
#327 = ADVANCED_FACE('',(#328,#346),#357,.T.);
#328 = FACE_BOUND('',#329,.T.);
#329 = EDGE_LOOP('',(#330,#338,#344,#345));
#330 = ORIENTED_EDGE('',*,*,#331,.F.);
#331 = EDGE_CURVE('',#332,#275,#334,.T.);
#332 = VERTEX_POINT('',#333);
#333 = CARTESIAN_POINT('',(-70.25536400562,50.964546,19.));
#334 = LINE('',#335,#336);
#335 = CARTESIAN_POINT('',(-70.25536400562,50.964546,0.));
#336 = VECTOR('',#337,1.);
#337 = DIRECTION('',(0.,0.,1.));
#338 = ORIENTED_EDGE('',*,*,#339,.T.);
#339 = EDGE_CURVE('',#332,#40,#340,.T.);
#340 = LINE('',#341,#342);
#341 = CARTESIAN_POINT('',(-70.25536400562,50.964546,19.));
#342 = VECTOR('',#343,1.);
#343 = DIRECTION('',(-1.,0.,0.));
#344 = ORIENTED_EDGE('',*,*,#47,.T.);
#345 = ORIENTED_EDGE('',*,*,#274,.T.);
#346 = FACE_BOUND('',#347,.T.);
#347 = EDGE_LOOP('',(#348));
#348 = ORIENTED_EDGE('',*,*,#349,.F.);
#349 = EDGE_CURVE('',#350,#350,#352,.T.);
#350 = VERTEX_POINT('',#351);
#351 = CARTESIAN_POINT('',(-75.45536400562,50.964546,24.));
#352 = CIRCLE('',#353,1.2);
#353 = AXIS2_PLACEMENT_3D('',#354,#355,#356);
#354 = CARTESIAN_POINT('',(-74.25536400562,50.964546,24.));
#355 = DIRECTION('',(0.,1.,-2.2E-16));
#356 = DIRECTION('',(-1.,0.,0.));
#357 = PLANE('',#358);
#358 = AXIS2_PLACEMENT_3D('',#359,#360,#361);
#359 = CARTESIAN_POINT('',(-74.25536400562,50.964546,13.5));
#360 = DIRECTION('',(0.,1.,-3.2E-16));
#361 = DIRECTION('',(0.,3.2E-16,1.));
#362 = ADVANCED_FACE('',(#363),#381,.F.);
#363 = FACE_BOUND('',#364,.F.);
#364 = EDGE_LOOP('',(#365,#373,#374,#375));
#365 = ORIENTED_EDGE('',*,*,#366,.T.);
#366 = EDGE_CURVE('',#367,#332,#369,.T.);
#367 = VERTEX_POINT('',#368);
#368 = CARTESIAN_POINT('',(-70.25536400562,54.964546,19.));
#369 = LINE('',#370,#371);
#370 = CARTESIAN_POINT('',(-70.25536400562,54.964546,19.));
#371 = VECTOR('',#372,1.);
#372 = DIRECTION('',(0.,-1.,2.2E-16));
#373 = ORIENTED_EDGE('',*,*,#339,.T.);
#374 = ORIENTED_EDGE('',*,*,#39,.F.);
#375 = ORIENTED_EDGE('',*,*,#376,.F.);
#376 = EDGE_CURVE('',#367,#32,#377,.T.);
#377 = LINE('',#378,#379);
#378 = CARTESIAN_POINT('',(-70.25536400562,54.964546,19.));
#379 = VECTOR('',#380,1.);
#380 = DIRECTION('',(-1.,0.,0.));
#381 = PLANE('',#382);
#382 = AXIS2_PLACEMENT_3D('',#383,#384,#385);
#383 = CARTESIAN_POINT('',(-70.25536400562,54.964546,19.));
#384 = DIRECTION('',(-0.,-2.2E-16,-1.));
#385 = DIRECTION('',(-1.,0.,0.));
#386 = ADVANCED_FACE('',(#387,#398,#409),#420,.T.);
#387 = FACE_BOUND('',#388,.T.);
#388 = EDGE_LOOP('',(#389,#390,#391,#392));
#389 = ORIENTED_EDGE('',*,*,#144,.F.);
#390 = ORIENTED_EDGE('',*,*,#31,.T.);
#391 = ORIENTED_EDGE('',*,*,#376,.F.);
#392 = ORIENTED_EDGE('',*,*,#393,.F.);
#393 = EDGE_CURVE('',#137,#367,#394,.T.);
#394 = LINE('',#395,#396);
#395 = CARTESIAN_POINT('',(-70.25536400562,54.964546,0.));
#396 = VECTOR('',#397,1.);
#397 = DIRECTION('',(0.,0.,1.));
#398 = FACE_BOUND('',#399,.T.);
#399 = EDGE_LOOP('',(#400));
#400 = ORIENTED_EDGE('',*,*,#401,.F.);
#401 = EDGE_CURVE('',#402,#402,#404,.T.);
#402 = VERTEX_POINT('',#403);
#403 = CARTESIAN_POINT('',(-75.45536400562,54.964546,16.));
#404 = CIRCLE('',#405,1.2);
#405 = AXIS2_PLACEMENT_3D('',#406,#407,#408);
#406 = CARTESIAN_POINT('',(-74.25536400562,54.964546,16.));
#407 = DIRECTION('',(0.,1.,-0.));
#408 = DIRECTION('',(-1.,0.,0.));
#409 = FACE_BOUND('',#410,.T.);
#410 = EDGE_LOOP('',(#411));
#411 = ORIENTED_EDGE('',*,*,#412,.F.);
#412 = EDGE_CURVE('',#413,#413,#415,.T.);
#413 = VERTEX_POINT('',#414);
#414 = CARTESIAN_POINT('',(-75.45536400562,54.964546,11.));
#415 = CIRCLE('',#416,1.2);
#416 = AXIS2_PLACEMENT_3D('',#417,#418,#419);
#417 = CARTESIAN_POINT('',(-74.25536400562,54.964546,11.));
#418 = DIRECTION('',(0.,1.,-0.));
#419 = DIRECTION('',(-1.,0.,0.));
#420 = PLANE('',#421);
#421 = AXIS2_PLACEMENT_3D('',#422,#423,#424);
#422 = CARTESIAN_POINT('',(-78.25536400562,54.964546,0.));
#423 = DIRECTION('',(0.,1.,0.));
#424 = DIRECTION('',(1.,0.,0.));
#425 = ADVANCED_FACE('',(#426),#451,.F.);
#426 = FACE_BOUND('',#427,.F.);
#427 = EDGE_LOOP('',(#428,#429,#437,#445));
#428 = ORIENTED_EDGE('',*,*,#87,.F.);
#429 = ORIENTED_EDGE('',*,*,#430,.T.);
#430 = EDGE_CURVE('',#88,#431,#433,.T.);
#431 = VERTEX_POINT('',#432);
#432 = CARTESIAN_POINT('',(-70.25536400562,24.003087666667,21.));
#433 = LINE('',#434,#435);
#434 = CARTESIAN_POINT('',(-78.25536400562,24.003087666667,21.));
#435 = VECTOR('',#436,1.);
#436 = DIRECTION('',(1.,0.,0.));
#437 = ORIENTED_EDGE('',*,*,#438,.T.);
#438 = EDGE_CURVE('',#431,#439,#441,.T.);
#439 = VERTEX_POINT('',#440);
#440 = CARTESIAN_POINT('',(-70.25536400562,38.003087666667,21.));
#441 = LINE('',#442,#443);
#442 = CARTESIAN_POINT('',(-70.25536400562,19.483816833333,21.));
#443 = VECTOR('',#444,1.);
#444 = DIRECTION('',(0.,1.,0.));
#445 = ORIENTED_EDGE('',*,*,#446,.F.);
#446 = EDGE_CURVE('',#90,#439,#447,.T.);
#447 = LINE('',#448,#449);
#448 = CARTESIAN_POINT('',(-78.25536400562,38.003087666667,21.));
#449 = VECTOR('',#450,1.);
#450 = DIRECTION('',(1.,0.,0.));
#451 = PLANE('',#452);
#452 = AXIS2_PLACEMENT_3D('',#453,#454,#455);
#453 = CARTESIAN_POINT('',(-78.25536400562,24.003087666667,21.));
#454 = DIRECTION('',(0.,0.,1.));
#455 = DIRECTION('',(0.,1.,0.));
#456 = ADVANCED_FACE('',(#457),#475,.F.);
#457 = FACE_BOUND('',#458,.F.);
#458 = EDGE_LOOP('',(#459,#460,#468,#474));
#459 = ORIENTED_EDGE('',*,*,#113,.F.);
#460 = ORIENTED_EDGE('',*,*,#461,.T.);
#461 = EDGE_CURVE('',#106,#462,#464,.T.);
#462 = VERTEX_POINT('',#463);
#463 = CARTESIAN_POINT('',(-70.25536400562,24.003087666667,6.));
#464 = LINE('',#465,#466);
#465 = CARTESIAN_POINT('',(-78.25536400562,24.003087666667,6.));
#466 = VECTOR('',#467,1.);
#467 = DIRECTION('',(1.,0.,0.));
#468 = ORIENTED_EDGE('',*,*,#469,.T.);
#469 = EDGE_CURVE('',#462,#431,#470,.T.);
#470 = LINE('',#471,#472);
#471 = CARTESIAN_POINT('',(-70.25536400562,24.003087666667,3.));
#472 = VECTOR('',#473,1.);
#473 = DIRECTION('',(0.,0.,1.));
#474 = ORIENTED_EDGE('',*,*,#430,.F.);
#475 = PLANE('',#476);
#476 = AXIS2_PLACEMENT_3D('',#477,#478,#479);
#477 = CARTESIAN_POINT('',(-78.25536400562,24.003087666667,6.));
#478 = DIRECTION('',(0.,-1.,0.));
#479 = DIRECTION('',(0.,0.,1.));
#480 = ADVANCED_FACE('',(#481),#499,.F.);
#481 = FACE_BOUND('',#482,.F.);
#482 = EDGE_LOOP('',(#483,#484,#485,#493));
#483 = ORIENTED_EDGE('',*,*,#97,.F.);
#484 = ORIENTED_EDGE('',*,*,#446,.T.);
#485 = ORIENTED_EDGE('',*,*,#486,.T.);
#486 = EDGE_CURVE('',#439,#487,#489,.T.);
#487 = VERTEX_POINT('',#488);
#488 = CARTESIAN_POINT('',(-70.25536400562,38.003087666667,6.));
#489 = LINE('',#490,#491);
#490 = CARTESIAN_POINT('',(-70.25536400562,38.003087666667,10.5));
#491 = VECTOR('',#492,1.);
#492 = DIRECTION('',(0.,0.,-1.));
#493 = ORIENTED_EDGE('',*,*,#494,.F.);
#494 = EDGE_CURVE('',#98,#487,#495,.T.);
#495 = LINE('',#496,#497);
#496 = CARTESIAN_POINT('',(-78.25536400562,38.003087666667,6.));
#497 = VECTOR('',#498,1.);
#498 = DIRECTION('',(1.,0.,0.));
#499 = PLANE('',#500);
#500 = AXIS2_PLACEMENT_3D('',#501,#502,#503);
#501 = CARTESIAN_POINT('',(-78.25536400562,38.003087666667,21.));
#502 = DIRECTION('',(0.,1.,0.));
#503 = DIRECTION('',(0.,0.,-1.));
#504 = ADVANCED_FACE('',(#505),#516,.F.);
#505 = FACE_BOUND('',#506,.F.);
#506 = EDGE_LOOP('',(#507,#508,#509,#515));
#507 = ORIENTED_EDGE('',*,*,#105,.F.);
#508 = ORIENTED_EDGE('',*,*,#494,.T.);
#509 = ORIENTED_EDGE('',*,*,#510,.T.);
#510 = EDGE_CURVE('',#487,#462,#511,.T.);
#511 = LINE('',#512,#513);
#512 = CARTESIAN_POINT('',(-70.25536400562,26.483816833333,6.));
#513 = VECTOR('',#514,1.);
#514 = DIRECTION('',(-0.,-1.,-0.));
#515 = ORIENTED_EDGE('',*,*,#461,.F.);
#516 = PLANE('',#517);
#517 = AXIS2_PLACEMENT_3D('',#518,#519,#520);
#518 = CARTESIAN_POINT('',(-78.25536400562,38.003087666667,6.));
#519 = DIRECTION('',(0.,0.,-1.));
#520 = DIRECTION('',(0.,-1.,0.));
#521 = ADVANCED_FACE('',(#522),#533,.F.);
#522 = FACE_BOUND('',#523,.F.);
#523 = EDGE_LOOP('',(#524,#525,#531,#532));
#524 = ORIENTED_EDGE('',*,*,#136,.T.);
#525 = ORIENTED_EDGE('',*,*,#526,.T.);
#526 = EDGE_CURVE('',#129,#332,#527,.T.);
#527 = LINE('',#528,#529);
#528 = CARTESIAN_POINT('',(-70.25536400562,50.964546,0.));
#529 = VECTOR('',#530,1.);
#530 = DIRECTION('',(0.,0.,1.));
#531 = ORIENTED_EDGE('',*,*,#366,.F.);
#532 = ORIENTED_EDGE('',*,*,#393,.F.);
#533 = PLANE('',#534);
#534 = AXIS2_PLACEMENT_3D('',#535,#536,#537);
#535 = CARTESIAN_POINT('',(-70.25536400562,50.964546,0.));
#536 = DIRECTION('',(-1.,0.,0.));
#537 = DIRECTION('',(0.,1.,0.));
#538 = ADVANCED_FACE('',(#539,#547),#553,.F.);
#539 = FACE_BOUND('',#540,.F.);
#540 = EDGE_LOOP('',(#541,#542,#543,#544,#545,#546));
#541 = ORIENTED_EDGE('',*,*,#259,.T.);
#542 = ORIENTED_EDGE('',*,*,#284,.T.);
#543 = ORIENTED_EDGE('',*,*,#331,.F.);
#544 = ORIENTED_EDGE('',*,*,#526,.F.);
#545 = ORIENTED_EDGE('',*,*,#160,.F.);
#546 = ORIENTED_EDGE('',*,*,#203,.F.);
#547 = FACE_BOUND('',#548,.F.);
#548 = EDGE_LOOP('',(#549,#550,#551,#552));
#549 = ORIENTED_EDGE('',*,*,#486,.F.);
#550 = ORIENTED_EDGE('',*,*,#438,.F.);
#551 = ORIENTED_EDGE('',*,*,#469,.F.);
#552 = ORIENTED_EDGE('',*,*,#510,.F.);
#553 = PLANE('',#554);
#554 = AXIS2_PLACEMENT_3D('',#555,#556,#557);
#555 = CARTESIAN_POINT('',(-70.25536400562,14.964546,0.));
#556 = DIRECTION('',(-1.,0.,0.));
#557 = DIRECTION('',(0.,1.,0.));
#558 = ADVANCED_FACE('',(#559),#596,.F.);
#559 = FACE_BOUND('',#560,.F.);
#560 = EDGE_LOOP('',(#561,#562,#570,#579,#588,#595));
#561 = ORIENTED_EDGE('',*,*,#176,.F.);
#562 = ORIENTED_EDGE('',*,*,#563,.T.);
#563 = EDGE_CURVE('',#177,#564,#566,.T.);
#564 = VERTEX_POINT('',#565);
#565 = CARTESIAN_POINT('',(-75.45536400562,46.964546,3.));
#566 = LINE('',#567,#568);
#567 = CARTESIAN_POINT('',(-75.45536400562,54.964546,3.));
#568 = VECTOR('',#569,1.);
#569 = DIRECTION('',(0.,-1.,2.2E-16));
#570 = ORIENTED_EDGE('',*,*,#571,.T.);
#571 = EDGE_CURVE('',#564,#572,#574,.T.);
#572 = VERTEX_POINT('',#573);
#573 = CARTESIAN_POINT('',(-73.05536400562,46.964546,3.));
#574 = ELLIPSE('',#575,1.697056274848,1.2);
#575 = AXIS2_PLACEMENT_3D('',#576,#577,#578);
#576 = CARTESIAN_POINT('',(-74.25536400562,46.964546,3.));
#577 = DIRECTION('',(0.,0.707106781187,-0.707106781187));
#578 = DIRECTION('',(0.,-0.707106781187,-0.707106781187));
#579 = ORIENTED_EDGE('',*,*,#580,.F.);
#580 = EDGE_CURVE('',#581,#572,#583,.T.);
#581 = VERTEX_POINT('',#582);
#582 = CARTESIAN_POINT('',(-74.25536400562,48.164546,1.8));
#583 = ELLIPSE('',#584,1.697056274848,1.2);
#584 = AXIS2_PLACEMENT_3D('',#585,#586,#587);
#585 = CARTESIAN_POINT('',(-74.25536400562,46.964546,3.));
#586 = DIRECTION('',(0.,-0.707106781187,-0.707106781187));
#587 = DIRECTION('',(0.,0.707106781187,-0.707106781187));
#588 = ORIENTED_EDGE('',*,*,#589,.F.);
#589 = EDGE_CURVE('',#564,#581,#590,.T.);
#590 = ELLIPSE('',#591,1.697056274848,1.2);
#591 = AXIS2_PLACEMENT_3D('',#592,#593,#594);
#592 = CARTESIAN_POINT('',(-74.25536400562,46.964546,3.));
#593 = DIRECTION('',(0.,-0.707106781187,-0.707106781187));
#594 = DIRECTION('',(0.,0.707106781187,-0.707106781187));
#595 = ORIENTED_EDGE('',*,*,#563,.F.);
#596 = CYLINDRICAL_SURFACE('',#597,1.2);
#597 = AXIS2_PLACEMENT_3D('',#598,#599,#600);
#598 = CARTESIAN_POINT('',(-74.25536400562,54.964546,3.));
#599 = DIRECTION('',(0.,1.,-2.2E-16));
#600 = DIRECTION('',(-1.,0.,0.));
#601 = ADVANCED_FACE('',(#602),#613,.F.);
#602 = FACE_BOUND('',#603,.T.);
#603 = EDGE_LOOP('',(#604,#610,#611,#612));
#604 = ORIENTED_EDGE('',*,*,#605,.T.);
#605 = EDGE_CURVE('',#212,#293,#606,.T.);
#606 = LINE('',#607,#608);
#607 = CARTESIAN_POINT('',(-73.05536400562,20.964546,0.));
#608 = VECTOR('',#609,1.);
#609 = DIRECTION('',(0.,0.,1.));
#610 = ORIENTED_EDGE('',*,*,#292,.T.);
#611 = ORIENTED_EDGE('',*,*,#605,.F.);
#612 = ORIENTED_EDGE('',*,*,#211,.F.);
#613 = CYLINDRICAL_SURFACE('',#614,1.2);
#614 = AXIS2_PLACEMENT_3D('',#615,#616,#617);
#615 = CARTESIAN_POINT('',(-74.25536400562,20.964546,0.));
#616 = DIRECTION('',(-0.,-0.,-1.));
#617 = DIRECTION('',(1.,0.,0.));
#618 = ADVANCED_FACE('',(#619,#630,#675,#720,#765),#810,.F.);
#619 = FACE_BOUND('',#620,.T.);
#620 = EDGE_LOOP('',(#621,#622,#628,#629));
#621 = ORIENTED_EDGE('',*,*,#222,.F.);
#622 = ORIENTED_EDGE('',*,*,#623,.T.);
#623 = EDGE_CURVE('',#223,#304,#624,.T.);
#624 = LINE('',#625,#626);
#625 = CARTESIAN_POINT('',(-73.05536400562,40.964546,0.));
#626 = VECTOR('',#627,1.);
#627 = DIRECTION('',(0.,0.,1.));
#628 = ORIENTED_EDGE('',*,*,#303,.T.);
#629 = ORIENTED_EDGE('',*,*,#623,.F.);
#630 = FACE_BOUND('',#631,.T.);
#631 = EDGE_LOOP('',(#632,#642,#651,#659,#668));
#632 = ORIENTED_EDGE('',*,*,#633,.F.);
#633 = EDGE_CURVE('',#634,#636,#638,.T.);
#634 = VERTEX_POINT('',#635);
#635 = CARTESIAN_POINT('',(-74.91868896369,41.964546,25.));
#636 = VERTEX_POINT('',#637);
#637 = CARTESIAN_POINT('',(-74.91868896369,41.964546,23.));
#638 = LINE('',#639,#640);
#639 = CARTESIAN_POINT('',(-74.91868896369,41.964546,-3.8E-16));
#640 = VECTOR('',#641,1.);
#641 = DIRECTION('',(-0.,-0.,-1.));
#642 = ORIENTED_EDGE('',*,*,#643,.T.);
#643 = EDGE_CURVE('',#634,#644,#646,.T.);
#644 = VERTEX_POINT('',#645);
#645 = CARTESIAN_POINT('',(-73.59203904755,41.964546,25.));
#646 = ELLIPSE('',#647,1.697056274848,1.2);
#647 = AXIS2_PLACEMENT_3D('',#648,#649,#650);
#648 = CARTESIAN_POINT('',(-74.25536400562,40.964546,24.));
#649 = DIRECTION('',(0.,0.707106781187,-0.707106781187));
#650 = DIRECTION('',(0.,-0.707106781187,-0.707106781187));
#651 = ORIENTED_EDGE('',*,*,#652,.T.);
#652 = EDGE_CURVE('',#644,#653,#655,.T.);
#653 = VERTEX_POINT('',#654);
#654 = CARTESIAN_POINT('',(-73.59203904755,41.964546,23.));
#655 = LINE('',#656,#657);
#656 = CARTESIAN_POINT('',(-73.59203904755,41.964546,-3.8E-16));
#657 = VECTOR('',#658,1.);
#658 = DIRECTION('',(-0.,-0.,-1.));
#659 = ORIENTED_EDGE('',*,*,#660,.F.);
#660 = EDGE_CURVE('',#661,#653,#663,.T.);
#661 = VERTEX_POINT('',#662);
#662 = CARTESIAN_POINT('',(-74.25536400562,42.164546,22.8));
#663 = ELLIPSE('',#664,1.697056274848,1.2);
#664 = AXIS2_PLACEMENT_3D('',#665,#666,#667);
#665 = CARTESIAN_POINT('',(-74.25536400562,40.964546,24.));
#666 = DIRECTION('',(0.,-0.707106781187,-0.707106781187));
#667 = DIRECTION('',(0.,0.707106781187,-0.707106781187));
#668 = ORIENTED_EDGE('',*,*,#669,.F.);
#669 = EDGE_CURVE('',#636,#661,#670,.T.);
#670 = ELLIPSE('',#671,1.697056274848,1.2);
#671 = AXIS2_PLACEMENT_3D('',#672,#673,#674);
#672 = CARTESIAN_POINT('',(-74.25536400562,40.964546,24.));
#673 = DIRECTION('',(0.,-0.707106781187,-0.707106781187));
#674 = DIRECTION('',(0.,0.707106781187,-0.707106781187));
#675 = FACE_BOUND('',#676,.T.);
#676 = EDGE_LOOP('',(#677,#687,#696,#704,#713));
#677 = ORIENTED_EDGE('',*,*,#678,.F.);
#678 = EDGE_CURVE('',#679,#681,#683,.T.);
#679 = VERTEX_POINT('',#680);
#680 = CARTESIAN_POINT('',(-74.91868896369,41.964546,17.));
#681 = VERTEX_POINT('',#682);
#682 = CARTESIAN_POINT('',(-74.91868896369,41.964546,15.));
#683 = LINE('',#684,#685);
#684 = CARTESIAN_POINT('',(-74.91868896369,41.964546,-3.8E-16));
#685 = VECTOR('',#686,1.);
#686 = DIRECTION('',(-0.,-0.,-1.));
#687 = ORIENTED_EDGE('',*,*,#688,.T.);
#688 = EDGE_CURVE('',#679,#689,#691,.T.);
#689 = VERTEX_POINT('',#690);
#690 = CARTESIAN_POINT('',(-73.59203904755,41.964546,17.));
#691 = ELLIPSE('',#692,1.697056274848,1.2);
#692 = AXIS2_PLACEMENT_3D('',#693,#694,#695);
#693 = CARTESIAN_POINT('',(-74.25536400562,40.964546,16.));
#694 = DIRECTION('',(0.,0.707106781187,-0.707106781187));
#695 = DIRECTION('',(0.,-0.707106781187,-0.707106781187));
#696 = ORIENTED_EDGE('',*,*,#697,.T.);
#697 = EDGE_CURVE('',#689,#698,#700,.T.);
#698 = VERTEX_POINT('',#699);
#699 = CARTESIAN_POINT('',(-73.59203904755,41.964546,15.));
#700 = LINE('',#701,#702);
#701 = CARTESIAN_POINT('',(-73.59203904755,41.964546,-3.8E-16));
#702 = VECTOR('',#703,1.);
#703 = DIRECTION('',(-0.,-0.,-1.));
#704 = ORIENTED_EDGE('',*,*,#705,.F.);
#705 = EDGE_CURVE('',#706,#698,#708,.T.);
#706 = VERTEX_POINT('',#707);
#707 = CARTESIAN_POINT('',(-74.25536400562,42.164546,14.8));
#708 = ELLIPSE('',#709,1.697056274848,1.2);
#709 = AXIS2_PLACEMENT_3D('',#710,#711,#712);
#710 = CARTESIAN_POINT('',(-74.25536400562,40.964546,16.));
#711 = DIRECTION('',(0.,-0.707106781187,-0.707106781187));
#712 = DIRECTION('',(0.,0.707106781187,-0.707106781187));
#713 = ORIENTED_EDGE('',*,*,#714,.F.);
#714 = EDGE_CURVE('',#681,#706,#715,.T.);
#715 = ELLIPSE('',#716,1.697056274848,1.2);
#716 = AXIS2_PLACEMENT_3D('',#717,#718,#719);
#717 = CARTESIAN_POINT('',(-74.25536400562,40.964546,16.));
#718 = DIRECTION('',(0.,-0.707106781187,-0.707106781187));
#719 = DIRECTION('',(0.,0.707106781187,-0.707106781187));
#720 = FACE_BOUND('',#721,.T.);
#721 = EDGE_LOOP('',(#722,#732,#741,#749,#758));
#722 = ORIENTED_EDGE('',*,*,#723,.F.);
#723 = EDGE_CURVE('',#724,#726,#728,.T.);
#724 = VERTEX_POINT('',#725);
#725 = CARTESIAN_POINT('',(-74.91868896369,41.964546,12.));
#726 = VERTEX_POINT('',#727);
#727 = CARTESIAN_POINT('',(-74.91868896369,41.964546,10.));
#728 = LINE('',#729,#730);
#729 = CARTESIAN_POINT('',(-74.91868896369,41.964546,-3.8E-16));
#730 = VECTOR('',#731,1.);
#731 = DIRECTION('',(-0.,-0.,-1.));
#732 = ORIENTED_EDGE('',*,*,#733,.T.);
#733 = EDGE_CURVE('',#724,#734,#736,.T.);
#734 = VERTEX_POINT('',#735);
#735 = CARTESIAN_POINT('',(-73.59203904755,41.964546,12.));
#736 = ELLIPSE('',#737,1.697056274848,1.2);
#737 = AXIS2_PLACEMENT_3D('',#738,#739,#740);
#738 = CARTESIAN_POINT('',(-74.25536400562,40.964546,11.));
#739 = DIRECTION('',(0.,0.707106781187,-0.707106781187));
#740 = DIRECTION('',(0.,-0.707106781187,-0.707106781187));
#741 = ORIENTED_EDGE('',*,*,#742,.T.);
#742 = EDGE_CURVE('',#734,#743,#745,.T.);
#743 = VERTEX_POINT('',#744);
#744 = CARTESIAN_POINT('',(-73.59203904755,41.964546,10.));
#745 = LINE('',#746,#747);
#746 = CARTESIAN_POINT('',(-73.59203904755,41.964546,-3.8E-16));
#747 = VECTOR('',#748,1.);
#748 = DIRECTION('',(-0.,-0.,-1.));
#749 = ORIENTED_EDGE('',*,*,#750,.F.);
#750 = EDGE_CURVE('',#751,#743,#753,.T.);
#751 = VERTEX_POINT('',#752);
#752 = CARTESIAN_POINT('',(-74.25536400562,42.164546,9.8));
#753 = ELLIPSE('',#754,1.697056274848,1.2);
#754 = AXIS2_PLACEMENT_3D('',#755,#756,#757);
#755 = CARTESIAN_POINT('',(-74.25536400562,40.964546,11.));
#756 = DIRECTION('',(0.,-0.707106781187,-0.707106781187));
#757 = DIRECTION('',(0.,0.707106781187,-0.707106781187));
#758 = ORIENTED_EDGE('',*,*,#759,.F.);
#759 = EDGE_CURVE('',#726,#751,#760,.T.);
#760 = ELLIPSE('',#761,1.697056274848,1.2);
#761 = AXIS2_PLACEMENT_3D('',#762,#763,#764);
#762 = CARTESIAN_POINT('',(-74.25536400562,40.964546,11.));
#763 = DIRECTION('',(0.,-0.707106781187,-0.707106781187));
#764 = DIRECTION('',(0.,0.707106781187,-0.707106781187));
#765 = FACE_BOUND('',#766,.T.);
#766 = EDGE_LOOP('',(#767,#777,#786,#794,#803));
#767 = ORIENTED_EDGE('',*,*,#768,.F.);
#768 = EDGE_CURVE('',#769,#771,#773,.T.);
#769 = VERTEX_POINT('',#770);
#770 = CARTESIAN_POINT('',(-74.91868896369,41.964546,4.));
#771 = VERTEX_POINT('',#772);
#772 = CARTESIAN_POINT('',(-74.91868896369,41.964546,2.));
#773 = LINE('',#774,#775);
#774 = CARTESIAN_POINT('',(-74.91868896369,41.964546,-3.8E-16));
#775 = VECTOR('',#776,1.);
#776 = DIRECTION('',(-0.,-0.,-1.));
#777 = ORIENTED_EDGE('',*,*,#778,.T.);
#778 = EDGE_CURVE('',#769,#779,#781,.T.);
#779 = VERTEX_POINT('',#780);
#780 = CARTESIAN_POINT('',(-73.59203904755,41.964546,4.));
#781 = ELLIPSE('',#782,1.697056274848,1.2);
#782 = AXIS2_PLACEMENT_3D('',#783,#784,#785);
#783 = CARTESIAN_POINT('',(-74.25536400562,40.964546,3.));
#784 = DIRECTION('',(0.,0.707106781187,-0.707106781187));
#785 = DIRECTION('',(0.,-0.707106781187,-0.707106781187));
#786 = ORIENTED_EDGE('',*,*,#787,.T.);
#787 = EDGE_CURVE('',#779,#788,#790,.T.);
#788 = VERTEX_POINT('',#789);
#789 = CARTESIAN_POINT('',(-73.59203904755,41.964546,2.));
#790 = LINE('',#791,#792);
#791 = CARTESIAN_POINT('',(-73.59203904755,41.964546,-3.8E-16));
#792 = VECTOR('',#793,1.);
#793 = DIRECTION('',(-0.,-0.,-1.));
#794 = ORIENTED_EDGE('',*,*,#795,.F.);
#795 = EDGE_CURVE('',#796,#788,#798,.T.);
#796 = VERTEX_POINT('',#797);
#797 = CARTESIAN_POINT('',(-74.25536400562,42.164546,1.8));
#798 = ELLIPSE('',#799,1.697056274848,1.2);
#799 = AXIS2_PLACEMENT_3D('',#800,#801,#802);
#800 = CARTESIAN_POINT('',(-74.25536400562,40.964546,3.));
#801 = DIRECTION('',(0.,-0.707106781187,-0.707106781187));
#802 = DIRECTION('',(0.,0.707106781187,-0.707106781187));
#803 = ORIENTED_EDGE('',*,*,#804,.F.);
#804 = EDGE_CURVE('',#771,#796,#805,.T.);
#805 = ELLIPSE('',#806,1.697056274848,1.2);
#806 = AXIS2_PLACEMENT_3D('',#807,#808,#809);
#807 = CARTESIAN_POINT('',(-74.25536400562,40.964546,3.));
#808 = DIRECTION('',(0.,-0.707106781187,-0.707106781187));
#809 = DIRECTION('',(0.,0.707106781187,-0.707106781187));
#810 = CYLINDRICAL_SURFACE('',#811,1.2);
#811 = AXIS2_PLACEMENT_3D('',#812,#813,#814);
#812 = CARTESIAN_POINT('',(-74.25536400562,40.964546,0.));
#813 = DIRECTION('',(-0.,-0.,-1.));
#814 = DIRECTION('',(1.,0.,0.));
#815 = ADVANCED_FACE('',(#816),#844,.F.);
#816 = FACE_BOUND('',#817,.T.);
#817 = EDGE_LOOP('',(#818,#819,#825,#826,#827,#836,#843));
#818 = ORIENTED_EDGE('',*,*,#233,.F.);
#819 = ORIENTED_EDGE('',*,*,#820,.T.);
#820 = EDGE_CURVE('',#234,#572,#821,.T.);
#821 = LINE('',#822,#823);
#822 = CARTESIAN_POINT('',(-73.05536400562,46.964546,0.));
#823 = VECTOR('',#824,1.);
#824 = DIRECTION('',(0.,0.,1.));
#825 = ORIENTED_EDGE('',*,*,#580,.F.);
#826 = ORIENTED_EDGE('',*,*,#589,.F.);
#827 = ORIENTED_EDGE('',*,*,#828,.F.);
#828 = EDGE_CURVE('',#829,#564,#831,.T.);
#829 = VERTEX_POINT('',#830);
#830 = CARTESIAN_POINT('',(-74.25536400562,45.764546,1.8));
#831 = ELLIPSE('',#832,1.697056274848,1.2);
#832 = AXIS2_PLACEMENT_3D('',#833,#834,#835);
#833 = CARTESIAN_POINT('',(-74.25536400562,46.964546,3.));
#834 = DIRECTION('',(0.,0.707106781187,-0.707106781187));
#835 = DIRECTION('',(0.,-0.707106781187,-0.707106781187));
#836 = ORIENTED_EDGE('',*,*,#837,.F.);
#837 = EDGE_CURVE('',#572,#829,#838,.T.);
#838 = ELLIPSE('',#839,1.697056274848,1.2);
#839 = AXIS2_PLACEMENT_3D('',#840,#841,#842);
#840 = CARTESIAN_POINT('',(-74.25536400562,46.964546,3.));
#841 = DIRECTION('',(0.,0.707106781187,-0.707106781187));
#842 = DIRECTION('',(0.,-0.707106781187,-0.707106781187));
#843 = ORIENTED_EDGE('',*,*,#820,.F.);
#844 = CYLINDRICAL_SURFACE('',#845,1.2);
#845 = AXIS2_PLACEMENT_3D('',#846,#847,#848);
#846 = CARTESIAN_POINT('',(-74.25536400562,46.964546,0.));
#847 = DIRECTION('',(-0.,-0.,-1.));
#848 = DIRECTION('',(1.,0.,0.));
#849 = ADVANCED_FACE('',(#850),#878,.F.);
#850 = FACE_BOUND('',#851,.T.);
#851 = EDGE_LOOP('',(#852,#863,#869,#870,#871));
#852 = ORIENTED_EDGE('',*,*,#853,.T.);
#853 = EDGE_CURVE('',#854,#856,#858,.T.);
#854 = VERTEX_POINT('',#855);
#855 = CARTESIAN_POINT('',(-75.45536400562,46.964546,24.));
#856 = VERTEX_POINT('',#857);
#857 = CARTESIAN_POINT('',(-73.05536400562,46.964546,24.));
#858 = ELLIPSE('',#859,1.697056274848,1.2);
#859 = AXIS2_PLACEMENT_3D('',#860,#861,#862);
#860 = CARTESIAN_POINT('',(-74.25536400562,46.964546,24.));
#861 = DIRECTION('',(0.,0.707106781187,-0.707106781187));
#862 = DIRECTION('',(0.,-0.707106781187,-0.707106781187));
#863 = ORIENTED_EDGE('',*,*,#864,.T.);
#864 = EDGE_CURVE('',#856,#315,#865,.T.);
#865 = LINE('',#866,#867);
#866 = CARTESIAN_POINT('',(-73.05536400562,46.964546,0.));
#867 = VECTOR('',#868,1.);
#868 = DIRECTION('',(0.,0.,1.));
#869 = ORIENTED_EDGE('',*,*,#314,.T.);
#870 = ORIENTED_EDGE('',*,*,#864,.F.);
#871 = ORIENTED_EDGE('',*,*,#872,.T.);
#872 = EDGE_CURVE('',#856,#854,#873,.T.);
#873 = ELLIPSE('',#874,1.697056274848,1.2);
#874 = AXIS2_PLACEMENT_3D('',#875,#876,#877);
#875 = CARTESIAN_POINT('',(-74.25536400562,46.964546,24.));
#876 = DIRECTION('',(0.,-0.707106781187,-0.707106781187));
#877 = DIRECTION('',(0.,0.707106781187,-0.707106781187));
#878 = CYLINDRICAL_SURFACE('',#879,1.2);
#879 = AXIS2_PLACEMENT_3D('',#880,#881,#882);
#880 = CARTESIAN_POINT('',(-74.25536400562,46.964546,0.));
#881 = DIRECTION('',(-0.,-0.,-1.));
#882 = DIRECTION('',(1.,0.,0.));
#883 = ADVANCED_FACE('',(#884),#911,.F.);
#884 = FACE_BOUND('',#885,.F.);
#885 = EDGE_LOOP('',(#886,#887,#893,#894,#903,#910));
#886 = ORIENTED_EDGE('',*,*,#349,.F.);
#887 = ORIENTED_EDGE('',*,*,#888,.T.);
#888 = EDGE_CURVE('',#350,#854,#889,.T.);
#889 = LINE('',#890,#891);
#890 = CARTESIAN_POINT('',(-75.45536400562,54.964546,24.));
#891 = VECTOR('',#892,1.);
#892 = DIRECTION('',(0.,-1.,2.2E-16));
#893 = ORIENTED_EDGE('',*,*,#853,.T.);
#894 = ORIENTED_EDGE('',*,*,#895,.F.);
#895 = EDGE_CURVE('',#896,#856,#898,.T.);
#896 = VERTEX_POINT('',#897);
#897 = CARTESIAN_POINT('',(-74.25536400562,48.164546,22.8));
#898 = ELLIPSE('',#899,1.697056274848,1.2);
#899 = AXIS2_PLACEMENT_3D('',#900,#901,#902);
#900 = CARTESIAN_POINT('',(-74.25536400562,46.964546,24.));
#901 = DIRECTION('',(0.,-0.707106781187,-0.707106781187));
#902 = DIRECTION('',(0.,0.707106781187,-0.707106781187));
#903 = ORIENTED_EDGE('',*,*,#904,.F.);
#904 = EDGE_CURVE('',#854,#896,#905,.T.);
#905 = ELLIPSE('',#906,1.697056274848,1.2);
#906 = AXIS2_PLACEMENT_3D('',#907,#908,#909);
#907 = CARTESIAN_POINT('',(-74.25536400562,46.964546,24.));
#908 = DIRECTION('',(0.,-0.707106781187,-0.707106781187));
#909 = DIRECTION('',(0.,0.707106781187,-0.707106781187));
#910 = ORIENTED_EDGE('',*,*,#888,.F.);
#911 = CYLINDRICAL_SURFACE('',#912,1.2);
#912 = AXIS2_PLACEMENT_3D('',#913,#914,#915);
#913 = CARTESIAN_POINT('',(-74.25536400562,54.964546,24.));
#914 = DIRECTION('',(0.,1.,-2.2E-16));
#915 = DIRECTION('',(-1.,0.,0.));
#916 = ADVANCED_FACE('',(#917),#954,.F.);
#917 = FACE_BOUND('',#918,.F.);
#918 = EDGE_LOOP('',(#919,#920,#928,#937,#946,#953));
#919 = ORIENTED_EDGE('',*,*,#401,.F.);
#920 = ORIENTED_EDGE('',*,*,#921,.T.);
#921 = EDGE_CURVE('',#402,#922,#924,.T.);
#922 = VERTEX_POINT('',#923);
#923 = CARTESIAN_POINT('',(-75.45536400562,46.964546,16.));
#924 = LINE('',#925,#926);
#925 = CARTESIAN_POINT('',(-75.45536400562,54.964546,16.));
#926 = VECTOR('',#927,1.);
#927 = DIRECTION('',(0.,-1.,2.2E-16));
#928 = ORIENTED_EDGE('',*,*,#929,.T.);
#929 = EDGE_CURVE('',#922,#930,#932,.T.);
#930 = VERTEX_POINT('',#931);
#931 = CARTESIAN_POINT('',(-73.05536400562,46.964546,16.));
#932 = ELLIPSE('',#933,1.697056274848,1.2);
#933 = AXIS2_PLACEMENT_3D('',#934,#935,#936);
#934 = CARTESIAN_POINT('',(-74.25536400562,46.964546,16.));
#935 = DIRECTION('',(0.,0.707106781187,-0.707106781187));
#936 = DIRECTION('',(0.,-0.707106781187,-0.707106781187));
#937 = ORIENTED_EDGE('',*,*,#938,.F.);
#938 = EDGE_CURVE('',#939,#930,#941,.T.);
#939 = VERTEX_POINT('',#940);
#940 = CARTESIAN_POINT('',(-74.25536400562,48.164546,14.8));
#941 = ELLIPSE('',#942,1.697056274848,1.2);
#942 = AXIS2_PLACEMENT_3D('',#943,#944,#945);
#943 = CARTESIAN_POINT('',(-74.25536400562,46.964546,16.));
#944 = DIRECTION('',(0.,-0.707106781187,-0.707106781187));
#945 = DIRECTION('',(0.,0.707106781187,-0.707106781187));
#946 = ORIENTED_EDGE('',*,*,#947,.F.);
#947 = EDGE_CURVE('',#922,#939,#948,.T.);
#948 = ELLIPSE('',#949,1.697056274848,1.2);
#949 = AXIS2_PLACEMENT_3D('',#950,#951,#952);
#950 = CARTESIAN_POINT('',(-74.25536400562,46.964546,16.));
#951 = DIRECTION('',(0.,-0.707106781187,-0.707106781187));
#952 = DIRECTION('',(0.,0.707106781187,-0.707106781187));
#953 = ORIENTED_EDGE('',*,*,#921,.F.);
#954 = CYLINDRICAL_SURFACE('',#955,1.2);
#955 = AXIS2_PLACEMENT_3D('',#956,#957,#958);
#956 = CARTESIAN_POINT('',(-74.25536400562,54.964546,16.));
#957 = DIRECTION('',(0.,1.,-2.2E-16));
#958 = DIRECTION('',(-1.,0.,0.));
#959 = ADVANCED_FACE('',(#960),#997,.F.);
#960 = FACE_BOUND('',#961,.F.);
#961 = EDGE_LOOP('',(#962,#963,#971,#980,#989,#996));
#962 = ORIENTED_EDGE('',*,*,#412,.F.);
#963 = ORIENTED_EDGE('',*,*,#964,.T.);
#964 = EDGE_CURVE('',#413,#965,#967,.T.);
#965 = VERTEX_POINT('',#966);
#966 = CARTESIAN_POINT('',(-75.45536400562,46.964546,11.));
#967 = LINE('',#968,#969);
#968 = CARTESIAN_POINT('',(-75.45536400562,54.964546,11.));
#969 = VECTOR('',#970,1.);
#970 = DIRECTION('',(0.,-1.,2.2E-16));
#971 = ORIENTED_EDGE('',*,*,#972,.T.);
#972 = EDGE_CURVE('',#965,#973,#975,.T.);
#973 = VERTEX_POINT('',#974);
#974 = CARTESIAN_POINT('',(-73.05536400562,46.964546,11.));
#975 = ELLIPSE('',#976,1.697056274848,1.2);
#976 = AXIS2_PLACEMENT_3D('',#977,#978,#979);
#977 = CARTESIAN_POINT('',(-74.25536400562,46.964546,11.));
#978 = DIRECTION('',(0.,0.707106781187,-0.707106781187));
#979 = DIRECTION('',(0.,-0.707106781187,-0.707106781187));
#980 = ORIENTED_EDGE('',*,*,#981,.F.);
#981 = EDGE_CURVE('',#982,#973,#984,.T.);
#982 = VERTEX_POINT('',#983);
#983 = CARTESIAN_POINT('',(-74.25536400562,48.164546,9.8));
#984 = ELLIPSE('',#985,1.697056274848,1.2);
#985 = AXIS2_PLACEMENT_3D('',#986,#987,#988);
#986 = CARTESIAN_POINT('',(-74.25536400562,46.964546,11.));
#987 = DIRECTION('',(0.,-0.707106781187,-0.707106781187));
#988 = DIRECTION('',(0.,0.707106781187,-0.707106781187));
#989 = ORIENTED_EDGE('',*,*,#990,.F.);
#990 = EDGE_CURVE('',#965,#982,#991,.T.);
#991 = ELLIPSE('',#992,1.697056274848,1.2);
#992 = AXIS2_PLACEMENT_3D('',#993,#994,#995);
#993 = CARTESIAN_POINT('',(-74.25536400562,46.964546,11.));
#994 = DIRECTION('',(0.,-0.707106781187,-0.707106781187));
#995 = DIRECTION('',(0.,0.707106781187,-0.707106781187));
#996 = ORIENTED_EDGE('',*,*,#964,.F.);
#997 = CYLINDRICAL_SURFACE('',#998,1.2);
#998 = AXIS2_PLACEMENT_3D('',#999,#1000,#1001);
#999 = CARTESIAN_POINT('',(-74.25536400562,54.964546,11.));
#1000 = DIRECTION('',(0.,1.,-2.2E-16));
#1001 = DIRECTION('',(-1.,0.,0.));
#1002 = ADVANCED_FACE('',(#1003),#1038,.F.);
#1003 = FACE_BOUND('',#1004,.T.);
#1004 = EDGE_LOOP('',(#1005,#1006,#1012,#1013,#1014,#1023,#1030,#1031));
#1005 = ORIENTED_EDGE('',*,*,#571,.T.);
#1006 = ORIENTED_EDGE('',*,*,#1007,.T.);
#1007 = EDGE_CURVE('',#572,#973,#1008,.T.);
#1008 = LINE('',#1009,#1010);
#1009 = CARTESIAN_POINT('',(-73.05536400562,46.964546,0.));
#1010 = VECTOR('',#1011,1.);
#1011 = DIRECTION('',(0.,0.,1.));
#1012 = ORIENTED_EDGE('',*,*,#981,.F.);
#1013 = ORIENTED_EDGE('',*,*,#990,.F.);
#1014 = ORIENTED_EDGE('',*,*,#1015,.F.);
#1015 = EDGE_CURVE('',#1016,#965,#1018,.T.);
#1016 = VERTEX_POINT('',#1017);
#1017 = CARTESIAN_POINT('',(-74.25536400562,45.764546,9.8));
#1018 = ELLIPSE('',#1019,1.697056274848,1.2);
#1019 = AXIS2_PLACEMENT_3D('',#1020,#1021,#1022);
#1020 = CARTESIAN_POINT('',(-74.25536400562,46.964546,11.));
#1021 = DIRECTION('',(0.,0.707106781187,-0.707106781187));
#1022 = DIRECTION('',(0.,-0.707106781187,-0.707106781187));
#1023 = ORIENTED_EDGE('',*,*,#1024,.F.);
#1024 = EDGE_CURVE('',#973,#1016,#1025,.T.);
#1025 = ELLIPSE('',#1026,1.697056274848,1.2);
#1026 = AXIS2_PLACEMENT_3D('',#1027,#1028,#1029);
#1027 = CARTESIAN_POINT('',(-74.25536400562,46.964546,11.));
#1028 = DIRECTION('',(0.,0.707106781187,-0.707106781187));
#1029 = DIRECTION('',(0.,-0.707106781187,-0.707106781187));
#1030 = ORIENTED_EDGE('',*,*,#1007,.F.);
#1031 = ORIENTED_EDGE('',*,*,#1032,.T.);
#1032 = EDGE_CURVE('',#572,#564,#1033,.T.);
#1033 = ELLIPSE('',#1034,1.697056274848,1.2);
#1034 = AXIS2_PLACEMENT_3D('',#1035,#1036,#1037);
#1035 = CARTESIAN_POINT('',(-74.25536400562,46.964546,3.));
#1036 = DIRECTION('',(0.,-0.707106781187,-0.707106781187));
#1037 = DIRECTION('',(0.,0.707106781187,-0.707106781187));
#1038 = CYLINDRICAL_SURFACE('',#1039,1.2);
#1039 = AXIS2_PLACEMENT_3D('',#1040,#1041,#1042);
#1040 = CARTESIAN_POINT('',(-74.25536400562,46.964546,0.));
#1041 = DIRECTION('',(-0.,-0.,-1.));
#1042 = DIRECTION('',(1.,0.,0.));
#1043 = ADVANCED_FACE('',(#1044),#1063,.T.);
#1044 = FACE_BOUND('',#1045,.T.);
#1045 = EDGE_LOOP('',(#1046,#1055,#1062));
#1046 = ORIENTED_EDGE('',*,*,#1047,.T.);
#1047 = EDGE_CURVE('',#636,#1048,#1050,.T.);
#1048 = VERTEX_POINT('',#1049);
#1049 = CARTESIAN_POINT('',(-75.45536400562,41.964546,24.));
#1050 = CIRCLE('',#1051,1.2);
#1051 = AXIS2_PLACEMENT_3D('',#1052,#1053,#1054);
#1052 = CARTESIAN_POINT('',(-74.25536400562,41.964546,24.));
#1053 = DIRECTION('',(0.,1.,-0.));
#1054 = DIRECTION('',(-1.,0.,0.));
#1055 = ORIENTED_EDGE('',*,*,#1056,.T.);
#1056 = EDGE_CURVE('',#1048,#634,#1057,.T.);
#1057 = CIRCLE('',#1058,1.2);
#1058 = AXIS2_PLACEMENT_3D('',#1059,#1060,#1061);
#1059 = CARTESIAN_POINT('',(-74.25536400562,41.964546,24.));
#1060 = DIRECTION('',(0.,1.,-0.));
#1061 = DIRECTION('',(-1.,0.,0.));
#1062 = ORIENTED_EDGE('',*,*,#633,.T.);
#1063 = PLANE('',#1064);
#1064 = AXIS2_PLACEMENT_3D('',#1065,#1066,#1067);
#1065 = CARTESIAN_POINT('',(-74.25536400562,41.964546,13.5));
#1066 = DIRECTION('',(4.9E-16,1.,-3.8E-16));
#1067 = DIRECTION('',(1.,-4.9E-16,0.));
#1068 = ADVANCED_FACE('',(#1069),#1107,.F.);
#1069 = FACE_BOUND('',#1070,.F.);
#1070 = EDGE_LOOP('',(#1071,#1072,#1078,#1079,#1080,#1087,#1088,#1089,
    #1090,#1091,#1100));
#1071 = ORIENTED_EDGE('',*,*,#872,.T.);
#1072 = ORIENTED_EDGE('',*,*,#1073,.T.);
#1073 = EDGE_CURVE('',#854,#1048,#1074,.T.);
#1074 = LINE('',#1075,#1076);
#1075 = CARTESIAN_POINT('',(-75.45536400562,54.964546,24.));
#1076 = VECTOR('',#1077,1.);
#1077 = DIRECTION('',(0.,-1.,2.2E-16));
#1078 = ORIENTED_EDGE('',*,*,#1056,.T.);
#1079 = ORIENTED_EDGE('',*,*,#643,.T.);
#1080 = ORIENTED_EDGE('',*,*,#1081,.T.);
#1081 = EDGE_CURVE('',#644,#653,#1082,.T.);
#1082 = CIRCLE('',#1083,1.2);
#1083 = AXIS2_PLACEMENT_3D('',#1084,#1085,#1086);
#1084 = CARTESIAN_POINT('',(-74.25536400562,41.964546,24.));
#1085 = DIRECTION('',(0.,1.,-0.));
#1086 = DIRECTION('',(-1.,0.,0.));
#1087 = ORIENTED_EDGE('',*,*,#660,.F.);
#1088 = ORIENTED_EDGE('',*,*,#669,.F.);
#1089 = ORIENTED_EDGE('',*,*,#1047,.T.);
#1090 = ORIENTED_EDGE('',*,*,#1073,.F.);
#1091 = ORIENTED_EDGE('',*,*,#1092,.F.);
#1092 = EDGE_CURVE('',#1093,#854,#1095,.T.);
#1093 = VERTEX_POINT('',#1094);
#1094 = CARTESIAN_POINT('',(-74.25536400562,45.764546,22.8));
#1095 = ELLIPSE('',#1096,1.697056274848,1.2);
#1096 = AXIS2_PLACEMENT_3D('',#1097,#1098,#1099);
#1097 = CARTESIAN_POINT('',(-74.25536400562,46.964546,24.));
#1098 = DIRECTION('',(0.,0.707106781187,-0.707106781187));
#1099 = DIRECTION('',(0.,-0.707106781187,-0.707106781187));
#1100 = ORIENTED_EDGE('',*,*,#1101,.F.);
#1101 = EDGE_CURVE('',#856,#1093,#1102,.T.);
#1102 = ELLIPSE('',#1103,1.697056274848,1.2);
#1103 = AXIS2_PLACEMENT_3D('',#1104,#1105,#1106);
#1104 = CARTESIAN_POINT('',(-74.25536400562,46.964546,24.));
#1105 = DIRECTION('',(0.,0.707106781187,-0.707106781187));
#1106 = DIRECTION('',(0.,-0.707106781187,-0.707106781187));
#1107 = CYLINDRICAL_SURFACE('',#1108,1.2);
#1108 = AXIS2_PLACEMENT_3D('',#1109,#1110,#1111);
#1109 = CARTESIAN_POINT('',(-74.25536400562,54.964546,24.));
#1110 = DIRECTION('',(0.,1.,-2.2E-16));
#1111 = DIRECTION('',(-1.,0.,0.));
#1112 = ADVANCED_FACE('',(#1113),#1117,.T.);
#1113 = FACE_BOUND('',#1114,.T.);
#1114 = EDGE_LOOP('',(#1115,#1116));
#1115 = ORIENTED_EDGE('',*,*,#652,.F.);
#1116 = ORIENTED_EDGE('',*,*,#1081,.T.);
#1117 = PLANE('',#1118);
#1118 = AXIS2_PLACEMENT_3D('',#1119,#1120,#1121);
#1119 = CARTESIAN_POINT('',(-74.25536400562,41.964546,13.5));
#1120 = DIRECTION('',(4.9E-16,1.,-3.8E-16));
#1121 = DIRECTION('',(1.,-4.9E-16,0.));
#1122 = ADVANCED_FACE('',(#1123),#1142,.T.);
#1123 = FACE_BOUND('',#1124,.T.);
#1124 = EDGE_LOOP('',(#1125,#1134,#1141));
#1125 = ORIENTED_EDGE('',*,*,#1126,.T.);
#1126 = EDGE_CURVE('',#681,#1127,#1129,.T.);
#1127 = VERTEX_POINT('',#1128);
#1128 = CARTESIAN_POINT('',(-75.45536400562,41.964546,16.));
#1129 = CIRCLE('',#1130,1.2);
#1130 = AXIS2_PLACEMENT_3D('',#1131,#1132,#1133);
#1131 = CARTESIAN_POINT('',(-74.25536400562,41.964546,16.));
#1132 = DIRECTION('',(0.,1.,-0.));
#1133 = DIRECTION('',(-1.,0.,0.));
#1134 = ORIENTED_EDGE('',*,*,#1135,.T.);
#1135 = EDGE_CURVE('',#1127,#679,#1136,.T.);
#1136 = CIRCLE('',#1137,1.2);
#1137 = AXIS2_PLACEMENT_3D('',#1138,#1139,#1140);
#1138 = CARTESIAN_POINT('',(-74.25536400562,41.964546,16.));
#1139 = DIRECTION('',(0.,1.,-0.));
#1140 = DIRECTION('',(-1.,0.,0.));
#1141 = ORIENTED_EDGE('',*,*,#678,.T.);
#1142 = PLANE('',#1143);
#1143 = AXIS2_PLACEMENT_3D('',#1144,#1145,#1146);
#1144 = CARTESIAN_POINT('',(-74.25536400562,41.964546,13.5));
#1145 = DIRECTION('',(4.9E-16,1.,-3.8E-16));
#1146 = DIRECTION('',(1.,-4.9E-16,0.));
#1147 = ADVANCED_FACE('',(#1148),#1192,.F.);
#1148 = FACE_BOUND('',#1149,.F.);
#1149 = EDGE_LOOP('',(#1150,#1157,#1163,#1164,#1165,#1172,#1173,#1174,
    #1175,#1176,#1185));
#1150 = ORIENTED_EDGE('',*,*,#1151,.T.);
#1151 = EDGE_CURVE('',#930,#922,#1152,.T.);
#1152 = ELLIPSE('',#1153,1.697056274848,1.2);
#1153 = AXIS2_PLACEMENT_3D('',#1154,#1155,#1156);
#1154 = CARTESIAN_POINT('',(-74.25536400562,46.964546,16.));
#1155 = DIRECTION('',(0.,-0.707106781187,-0.707106781187));
#1156 = DIRECTION('',(0.,0.707106781187,-0.707106781187));
#1157 = ORIENTED_EDGE('',*,*,#1158,.T.);
#1158 = EDGE_CURVE('',#922,#1127,#1159,.T.);
#1159 = LINE('',#1160,#1161);
#1160 = CARTESIAN_POINT('',(-75.45536400562,54.964546,16.));
#1161 = VECTOR('',#1162,1.);
#1162 = DIRECTION('',(0.,-1.,2.2E-16));
#1163 = ORIENTED_EDGE('',*,*,#1135,.T.);
#1164 = ORIENTED_EDGE('',*,*,#688,.T.);
#1165 = ORIENTED_EDGE('',*,*,#1166,.T.);
#1166 = EDGE_CURVE('',#689,#698,#1167,.T.);
#1167 = CIRCLE('',#1168,1.2);
#1168 = AXIS2_PLACEMENT_3D('',#1169,#1170,#1171);
#1169 = CARTESIAN_POINT('',(-74.25536400562,41.964546,16.));
#1170 = DIRECTION('',(0.,1.,-0.));
#1171 = DIRECTION('',(-1.,0.,0.));
#1172 = ORIENTED_EDGE('',*,*,#705,.F.);
#1173 = ORIENTED_EDGE('',*,*,#714,.F.);
#1174 = ORIENTED_EDGE('',*,*,#1126,.T.);
#1175 = ORIENTED_EDGE('',*,*,#1158,.F.);
#1176 = ORIENTED_EDGE('',*,*,#1177,.F.);
#1177 = EDGE_CURVE('',#1178,#922,#1180,.T.);
#1178 = VERTEX_POINT('',#1179);
#1179 = CARTESIAN_POINT('',(-74.25536400562,45.764546,14.8));
#1180 = ELLIPSE('',#1181,1.697056274848,1.2);
#1181 = AXIS2_PLACEMENT_3D('',#1182,#1183,#1184);
#1182 = CARTESIAN_POINT('',(-74.25536400562,46.964546,16.));
#1183 = DIRECTION('',(0.,0.707106781187,-0.707106781187));
#1184 = DIRECTION('',(0.,-0.707106781187,-0.707106781187));
#1185 = ORIENTED_EDGE('',*,*,#1186,.F.);
#1186 = EDGE_CURVE('',#930,#1178,#1187,.T.);
#1187 = ELLIPSE('',#1188,1.697056274848,1.2);
#1188 = AXIS2_PLACEMENT_3D('',#1189,#1190,#1191);
#1189 = CARTESIAN_POINT('',(-74.25536400562,46.964546,16.));
#1190 = DIRECTION('',(0.,0.707106781187,-0.707106781187));
#1191 = DIRECTION('',(0.,-0.707106781187,-0.707106781187));
#1192 = CYLINDRICAL_SURFACE('',#1193,1.2);
#1193 = AXIS2_PLACEMENT_3D('',#1194,#1195,#1196);
#1194 = CARTESIAN_POINT('',(-74.25536400562,54.964546,16.));
#1195 = DIRECTION('',(0.,1.,-2.2E-16));
#1196 = DIRECTION('',(-1.,0.,0.));
#1197 = ADVANCED_FACE('',(#1198),#1202,.T.);
#1198 = FACE_BOUND('',#1199,.T.);
#1199 = EDGE_LOOP('',(#1200,#1201));
#1200 = ORIENTED_EDGE('',*,*,#697,.F.);
#1201 = ORIENTED_EDGE('',*,*,#1166,.T.);
#1202 = PLANE('',#1203);
#1203 = AXIS2_PLACEMENT_3D('',#1204,#1205,#1206);
#1204 = CARTESIAN_POINT('',(-74.25536400562,41.964546,13.5));
#1205 = DIRECTION('',(4.9E-16,1.,-3.8E-16));
#1206 = DIRECTION('',(1.,-4.9E-16,0.));
#1207 = ADVANCED_FACE('',(#1208),#1227,.T.);
#1208 = FACE_BOUND('',#1209,.T.);
#1209 = EDGE_LOOP('',(#1210,#1219,#1226));
#1210 = ORIENTED_EDGE('',*,*,#1211,.T.);
#1211 = EDGE_CURVE('',#726,#1212,#1214,.T.);
#1212 = VERTEX_POINT('',#1213);
#1213 = CARTESIAN_POINT('',(-75.45536400562,41.964546,11.));
#1214 = CIRCLE('',#1215,1.2);
#1215 = AXIS2_PLACEMENT_3D('',#1216,#1217,#1218);
#1216 = CARTESIAN_POINT('',(-74.25536400562,41.964546,11.));
#1217 = DIRECTION('',(0.,1.,-0.));
#1218 = DIRECTION('',(-1.,0.,0.));
#1219 = ORIENTED_EDGE('',*,*,#1220,.T.);
#1220 = EDGE_CURVE('',#1212,#724,#1221,.T.);
#1221 = CIRCLE('',#1222,1.2);
#1222 = AXIS2_PLACEMENT_3D('',#1223,#1224,#1225);
#1223 = CARTESIAN_POINT('',(-74.25536400562,41.964546,11.));
#1224 = DIRECTION('',(0.,1.,-0.));
#1225 = DIRECTION('',(-1.,0.,0.));
#1226 = ORIENTED_EDGE('',*,*,#723,.T.);
#1227 = PLANE('',#1228);
#1228 = AXIS2_PLACEMENT_3D('',#1229,#1230,#1231);
#1229 = CARTESIAN_POINT('',(-74.25536400562,41.964546,13.5));
#1230 = DIRECTION('',(4.9E-16,1.,-3.8E-16));
#1231 = DIRECTION('',(1.,-4.9E-16,0.));
#1232 = ADVANCED_FACE('',(#1233),#1263,.F.);
#1233 = FACE_BOUND('',#1234,.F.);
#1234 = EDGE_LOOP('',(#1235,#1242,#1248,#1249,#1250,#1257,#1258,#1259,
    #1260,#1261,#1262));
#1235 = ORIENTED_EDGE('',*,*,#1236,.T.);
#1236 = EDGE_CURVE('',#973,#965,#1237,.T.);
#1237 = ELLIPSE('',#1238,1.697056274848,1.2);
#1238 = AXIS2_PLACEMENT_3D('',#1239,#1240,#1241);
#1239 = CARTESIAN_POINT('',(-74.25536400562,46.964546,11.));
#1240 = DIRECTION('',(0.,-0.707106781187,-0.707106781187));
#1241 = DIRECTION('',(0.,0.707106781187,-0.707106781187));
#1242 = ORIENTED_EDGE('',*,*,#1243,.T.);
#1243 = EDGE_CURVE('',#965,#1212,#1244,.T.);
#1244 = LINE('',#1245,#1246);
#1245 = CARTESIAN_POINT('',(-75.45536400562,54.964546,11.));
#1246 = VECTOR('',#1247,1.);
#1247 = DIRECTION('',(0.,-1.,2.2E-16));
#1248 = ORIENTED_EDGE('',*,*,#1220,.T.);
#1249 = ORIENTED_EDGE('',*,*,#733,.T.);
#1250 = ORIENTED_EDGE('',*,*,#1251,.T.);
#1251 = EDGE_CURVE('',#734,#743,#1252,.T.);
#1252 = CIRCLE('',#1253,1.2);
#1253 = AXIS2_PLACEMENT_3D('',#1254,#1255,#1256);
#1254 = CARTESIAN_POINT('',(-74.25536400562,41.964546,11.));
#1255 = DIRECTION('',(0.,1.,-0.));
#1256 = DIRECTION('',(-1.,0.,0.));
#1257 = ORIENTED_EDGE('',*,*,#750,.F.);
#1258 = ORIENTED_EDGE('',*,*,#759,.F.);
#1259 = ORIENTED_EDGE('',*,*,#1211,.T.);
#1260 = ORIENTED_EDGE('',*,*,#1243,.F.);
#1261 = ORIENTED_EDGE('',*,*,#1015,.F.);
#1262 = ORIENTED_EDGE('',*,*,#1024,.F.);
#1263 = CYLINDRICAL_SURFACE('',#1264,1.2);
#1264 = AXIS2_PLACEMENT_3D('',#1265,#1266,#1267);
#1265 = CARTESIAN_POINT('',(-74.25536400562,54.964546,11.));
#1266 = DIRECTION('',(0.,1.,-2.2E-16));
#1267 = DIRECTION('',(-1.,0.,0.));
#1268 = ADVANCED_FACE('',(#1269),#1273,.T.);
#1269 = FACE_BOUND('',#1270,.T.);
#1270 = EDGE_LOOP('',(#1271,#1272));
#1271 = ORIENTED_EDGE('',*,*,#742,.F.);
#1272 = ORIENTED_EDGE('',*,*,#1251,.T.);
#1273 = PLANE('',#1274);
#1274 = AXIS2_PLACEMENT_3D('',#1275,#1276,#1277);
#1275 = CARTESIAN_POINT('',(-74.25536400562,41.964546,13.5));
#1276 = DIRECTION('',(4.9E-16,1.,-3.8E-16));
#1277 = DIRECTION('',(1.,-4.9E-16,0.));
#1278 = ADVANCED_FACE('',(#1279),#1298,.T.);
#1279 = FACE_BOUND('',#1280,.T.);
#1280 = EDGE_LOOP('',(#1281,#1290,#1297));
#1281 = ORIENTED_EDGE('',*,*,#1282,.T.);
#1282 = EDGE_CURVE('',#771,#1283,#1285,.T.);
#1283 = VERTEX_POINT('',#1284);
#1284 = CARTESIAN_POINT('',(-75.45536400562,41.964546,3.));
#1285 = CIRCLE('',#1286,1.2);
#1286 = AXIS2_PLACEMENT_3D('',#1287,#1288,#1289);
#1287 = CARTESIAN_POINT('',(-74.25536400562,41.964546,3.));
#1288 = DIRECTION('',(0.,1.,-0.));
#1289 = DIRECTION('',(-1.,0.,0.));
#1290 = ORIENTED_EDGE('',*,*,#1291,.T.);
#1291 = EDGE_CURVE('',#1283,#769,#1292,.T.);
#1292 = CIRCLE('',#1293,1.2);
#1293 = AXIS2_PLACEMENT_3D('',#1294,#1295,#1296);
#1294 = CARTESIAN_POINT('',(-74.25536400562,41.964546,3.));
#1295 = DIRECTION('',(0.,1.,-0.));
#1296 = DIRECTION('',(-1.,0.,0.));
#1297 = ORIENTED_EDGE('',*,*,#768,.T.);
#1298 = PLANE('',#1299);
#1299 = AXIS2_PLACEMENT_3D('',#1300,#1301,#1302);
#1300 = CARTESIAN_POINT('',(-74.25536400562,41.964546,13.5));
#1301 = DIRECTION('',(4.9E-16,1.,-3.8E-16));
#1302 = DIRECTION('',(1.,-4.9E-16,0.));
#1303 = ADVANCED_FACE('',(#1304),#1328,.F.);
#1304 = FACE_BOUND('',#1305,.F.);
#1305 = EDGE_LOOP('',(#1306,#1307,#1313,#1314,#1315,#1322,#1323,#1324,
    #1325,#1326,#1327));
#1306 = ORIENTED_EDGE('',*,*,#1032,.T.);
#1307 = ORIENTED_EDGE('',*,*,#1308,.T.);
#1308 = EDGE_CURVE('',#564,#1283,#1309,.T.);
#1309 = LINE('',#1310,#1311);
#1310 = CARTESIAN_POINT('',(-75.45536400562,54.964546,3.));
#1311 = VECTOR('',#1312,1.);
#1312 = DIRECTION('',(0.,-1.,2.2E-16));
#1313 = ORIENTED_EDGE('',*,*,#1291,.T.);
#1314 = ORIENTED_EDGE('',*,*,#778,.T.);
#1315 = ORIENTED_EDGE('',*,*,#1316,.T.);
#1316 = EDGE_CURVE('',#779,#788,#1317,.T.);
#1317 = CIRCLE('',#1318,1.2);
#1318 = AXIS2_PLACEMENT_3D('',#1319,#1320,#1321);
#1319 = CARTESIAN_POINT('',(-74.25536400562,41.964546,3.));
#1320 = DIRECTION('',(0.,1.,-0.));
#1321 = DIRECTION('',(-1.,0.,0.));
#1322 = ORIENTED_EDGE('',*,*,#795,.F.);
#1323 = ORIENTED_EDGE('',*,*,#804,.F.);
#1324 = ORIENTED_EDGE('',*,*,#1282,.T.);
#1325 = ORIENTED_EDGE('',*,*,#1308,.F.);
#1326 = ORIENTED_EDGE('',*,*,#828,.F.);
#1327 = ORIENTED_EDGE('',*,*,#837,.F.);
#1328 = CYLINDRICAL_SURFACE('',#1329,1.2);
#1329 = AXIS2_PLACEMENT_3D('',#1330,#1331,#1332);
#1330 = CARTESIAN_POINT('',(-74.25536400562,54.964546,3.));
#1331 = DIRECTION('',(0.,1.,-2.2E-16));
#1332 = DIRECTION('',(-1.,0.,0.));
#1333 = ADVANCED_FACE('',(#1334),#1338,.T.);
#1334 = FACE_BOUND('',#1335,.T.);
#1335 = EDGE_LOOP('',(#1336,#1337));
#1336 = ORIENTED_EDGE('',*,*,#787,.F.);
#1337 = ORIENTED_EDGE('',*,*,#1316,.T.);
#1338 = PLANE('',#1339);
#1339 = AXIS2_PLACEMENT_3D('',#1340,#1341,#1342);
#1340 = CARTESIAN_POINT('',(-74.25536400562,41.964546,13.5));
#1341 = DIRECTION('',(4.9E-16,1.,-3.8E-16));
#1342 = DIRECTION('',(1.,-4.9E-16,0.));
#1343 = ADVANCED_FACE('',(#1344),#1359,.F.);
#1344 = FACE_BOUND('',#1345,.T.);
#1345 = EDGE_LOOP('',(#1346,#1347,#1353,#1354,#1355,#1356,#1357,#1358));
#1346 = ORIENTED_EDGE('',*,*,#929,.T.);
#1347 = ORIENTED_EDGE('',*,*,#1348,.T.);
#1348 = EDGE_CURVE('',#930,#856,#1349,.T.);
#1349 = LINE('',#1350,#1351);
#1350 = CARTESIAN_POINT('',(-73.05536400562,46.964546,0.));
#1351 = VECTOR('',#1352,1.);
#1352 = DIRECTION('',(0.,0.,1.));
#1353 = ORIENTED_EDGE('',*,*,#895,.F.);
#1354 = ORIENTED_EDGE('',*,*,#904,.F.);
#1355 = ORIENTED_EDGE('',*,*,#1092,.F.);
#1356 = ORIENTED_EDGE('',*,*,#1101,.F.);
#1357 = ORIENTED_EDGE('',*,*,#1348,.F.);
#1358 = ORIENTED_EDGE('',*,*,#1151,.T.);
#1359 = CYLINDRICAL_SURFACE('',#1360,1.2);
#1360 = AXIS2_PLACEMENT_3D('',#1361,#1362,#1363);
#1361 = CARTESIAN_POINT('',(-74.25536400562,46.964546,0.));
#1362 = DIRECTION('',(-0.,-0.,-1.));
#1363 = DIRECTION('',(1.,0.,0.));
#1364 = ADVANCED_FACE('',(#1365),#1380,.F.);
#1365 = FACE_BOUND('',#1366,.T.);
#1366 = EDGE_LOOP('',(#1367,#1368,#1374,#1375,#1376,#1377,#1378,#1379));
#1367 = ORIENTED_EDGE('',*,*,#972,.T.);
#1368 = ORIENTED_EDGE('',*,*,#1369,.T.);
#1369 = EDGE_CURVE('',#973,#930,#1370,.T.);
#1370 = LINE('',#1371,#1372);
#1371 = CARTESIAN_POINT('',(-73.05536400562,46.964546,0.));
#1372 = VECTOR('',#1373,1.);
#1373 = DIRECTION('',(0.,0.,1.));
#1374 = ORIENTED_EDGE('',*,*,#938,.F.);
#1375 = ORIENTED_EDGE('',*,*,#947,.F.);
#1376 = ORIENTED_EDGE('',*,*,#1177,.F.);
#1377 = ORIENTED_EDGE('',*,*,#1186,.F.);
#1378 = ORIENTED_EDGE('',*,*,#1369,.F.);
#1379 = ORIENTED_EDGE('',*,*,#1236,.T.);
#1380 = CYLINDRICAL_SURFACE('',#1381,1.2);
#1381 = AXIS2_PLACEMENT_3D('',#1382,#1383,#1384);
#1382 = CARTESIAN_POINT('',(-74.25536400562,46.964546,0.));
#1383 = DIRECTION('',(-0.,-0.,-1.));
#1384 = DIRECTION('',(1.,0.,0.));
#1385 = ( GEOMETRIC_REPRESENTATION_CONTEXT(3) 
GLOBAL_UNCERTAINTY_ASSIGNED_CONTEXT((#1389)) 
GLOBAL_UNIT_ASSIGNED_CONTEXT((#1386,#1387,#1388)) REPRESENTATION_CONTEXT
('Context #1','3D Context with UNIT and UNCERTAINTY') );
#1386 = ( LENGTH_UNIT() NAMED_UNIT(*) SI_UNIT(.MILLI.,.METRE.) );
#1387 = ( NAMED_UNIT(*) PLANE_ANGLE_UNIT() SI_UNIT($,.RADIAN.) );
#1388 = ( NAMED_UNIT(*) SI_UNIT($,.STERADIAN.) SOLID_ANGLE_UNIT() );
#1389 = UNCERTAINTY_MEASURE_WITH_UNIT(LENGTH_MEASURE(2.E-06),#1386,
  'distance_accuracy_value','confusion accuracy');
#1390 = PRODUCT_RELATED_PRODUCT_CATEGORY('part',$,(#7));
ENDSEC;
END-ISO-10303-21;
