ISO-10303-21;
HEADER;
FILE_DESCRIPTION(('FreeCAD Model'),'2;1');
FILE_NAME('Open CASCADE Shape Model','2026-08-28T13:04:06',('FreeCAD'),(
    'FreeCAD'),'Open CASCADE STEP processor 7.8','FreeCAD','Unknown');
FILE_SCHEMA(('AUTOMOTIVE_DESIGN { 1 0 10303 214 1 1 1 1 }'));
ENDSEC;
DATA;
#1 = APPLICATION_PROTOCOL_DEFINITION('international standard',
  'automotive_design',2000,#2);
#2 = APPLICATION_CONTEXT(
  'core data for automotive mechanical design processes');
#3 = SHAPE_DEFINITION_REPRESENTATION(#4,#10);
#4 = PRODUCT_DEFINITION_SHAPE('','',#5);
#5 = PRODUCT_DEFINITION('design','',#6,#9);
#6 = PRODUCT_DEFINITION_FORMATION('','',#7);
#7 = PRODUCT('Open CASCADE STEP translator 7.8 99',
  'Open CASCADE STEP translator 7.8 99','',(#8));
#8 = PRODUCT_CONTEXT('',#2,'mechanical');
#9 = PRODUCT_DEFINITION_CONTEXT('part definition',#2,'design');
#10 = ADVANCED_BREP_SHAPE_REPRESENTATION('',(#11,#15),#890);
#11 = AXIS2_PLACEMENT_3D('',#12,#13,#14);
#12 = CARTESIAN_POINT('',(0.,0.,0.));
#13 = DIRECTION('',(0.,0.,1.));
#14 = DIRECTION('',(1.,0.,-0.));
#15 = MANIFOLD_SOLID_BREP('',#16);
#16 = CLOSED_SHELL('',(#17,#241,#272,#297,#322,#346,#370,#395,#420,#444,
    #468,#492,#517,#542,#566,#590,#615,#640,#657,#689,#713,#738,#755,
    #787,#811,#836,#853));
#17 = ADVANCED_FACE('',(#18,#164,#200),#236,.T.);
#18 = FACE_BOUND('',#19,.T.);
#19 = EDGE_LOOP('',(#20,#30,#39,#47,#56,#64,#73,#81,#90,#98,#107,#115,
    #124,#132,#140,#149,#157));
#20 = ORIENTED_EDGE('',*,*,#21,.T.);
#21 = EDGE_CURVE('',#22,#24,#26,.T.);
#22 = VERTEX_POINT('',#23);
#23 = CARTESIAN_POINT('',(42.,2.E-15,7.8));
#24 = VERTEX_POINT('',#25);
#25 = CARTESIAN_POINT('',(77.,2.E-15,7.8));
#26 = LINE('',#27,#28);
#27 = CARTESIAN_POINT('',(40.,0.,7.8));
#28 = VECTOR('',#29,1.);
#29 = DIRECTION('',(1.,0.,0.));
#30 = ORIENTED_EDGE('',*,*,#31,.T.);
#31 = EDGE_CURVE('',#24,#32,#34,.T.);
#32 = VERTEX_POINT('',#33);
#33 = CARTESIAN_POINT('',(80.,1.E-15,4.8));
#34 = CIRCLE('',#35,3.);
#35 = AXIS2_PLACEMENT_3D('',#36,#37,#38);
#36 = CARTESIAN_POINT('',(77.,1.19E-15,4.8));
#37 = DIRECTION('',(0.,1.,-2.2E-16));
#38 = DIRECTION('',(0.,-2.2E-16,-1.));
#39 = ORIENTED_EDGE('',*,*,#40,.F.);
#40 = EDGE_CURVE('',#41,#32,#43,.T.);
#41 = VERTEX_POINT('',#42);
#42 = CARTESIAN_POINT('',(80.,1.E-15,3.));
#43 = LINE('',#44,#45);
#44 = CARTESIAN_POINT('',(80.,0.,0.));
#45 = VECTOR('',#46,1.);
#46 = DIRECTION('',(0.,0.,1.));
#47 = ORIENTED_EDGE('',*,*,#48,.T.);
#48 = EDGE_CURVE('',#41,#49,#51,.T.);
#49 = VERTEX_POINT('',#50);
#50 = CARTESIAN_POINT('',(77.,0.,0.));
#51 = CIRCLE('',#52,3.);
#52 = AXIS2_PLACEMENT_3D('',#53,#54,#55);
#53 = CARTESIAN_POINT('',(77.,1.19E-15,3.));
#54 = DIRECTION('',(0.,1.,-2.2E-16));
#55 = DIRECTION('',(0.,-2.2E-16,-1.));
#56 = ORIENTED_EDGE('',*,*,#57,.F.);
#57 = EDGE_CURVE('',#58,#49,#60,.T.);
#58 = VERTEX_POINT('',#59);
#59 = CARTESIAN_POINT('',(-77.,0.,0.));
#60 = LINE('',#61,#62);
#61 = CARTESIAN_POINT('',(-80.,0.,0.));
#62 = VECTOR('',#63,1.);
#63 = DIRECTION('',(1.,0.,0.));
#64 = ORIENTED_EDGE('',*,*,#65,.T.);
#65 = EDGE_CURVE('',#58,#66,#68,.T.);
#66 = VERTEX_POINT('',#67);
#67 = CARTESIAN_POINT('',(-80.,1.E-15,3.));
#68 = CIRCLE('',#69,3.);
#69 = AXIS2_PLACEMENT_3D('',#70,#71,#72);
#70 = CARTESIAN_POINT('',(-77.,1.19E-15,3.));
#71 = DIRECTION('',(0.,1.,-2.2E-16));
#72 = DIRECTION('',(0.,-2.2E-16,-1.));
#73 = ORIENTED_EDGE('',*,*,#74,.F.);
#74 = EDGE_CURVE('',#75,#66,#77,.T.);
#75 = VERTEX_POINT('',#76);
#76 = CARTESIAN_POINT('',(-80.,1.E-15,4.8));
#77 = LINE('',#78,#79);
#78 = CARTESIAN_POINT('',(-80.,0.,7.8));
#79 = VECTOR('',#80,1.);
#80 = DIRECTION('',(0.,0.,-1.));
#81 = ORIENTED_EDGE('',*,*,#82,.T.);
#82 = EDGE_CURVE('',#75,#83,#85,.T.);
#83 = VERTEX_POINT('',#84);
#84 = CARTESIAN_POINT('',(-77.,2.E-15,7.8));
#85 = CIRCLE('',#86,3.);
#86 = AXIS2_PLACEMENT_3D('',#87,#88,#89);
#87 = CARTESIAN_POINT('',(-77.,1.19E-15,4.8));
#88 = DIRECTION('',(0.,1.,-2.2E-16));
#89 = DIRECTION('',(0.,-2.2E-16,-1.));
#90 = ORIENTED_EDGE('',*,*,#91,.T.);
#91 = EDGE_CURVE('',#83,#92,#94,.T.);
#92 = VERTEX_POINT('',#93);
#93 = CARTESIAN_POINT('',(-42.,2.E-15,7.8));
#94 = LINE('',#95,#96);
#95 = CARTESIAN_POINT('',(-80.,0.,7.8));
#96 = VECTOR('',#97,1.);
#97 = DIRECTION('',(1.,0.,0.));
#98 = ORIENTED_EDGE('',*,*,#99,.F.);
#99 = EDGE_CURVE('',#100,#92,#102,.T.);
#100 = VERTEX_POINT('',#101);
#101 = CARTESIAN_POINT('',(-40.,2.E-15,9.8));
#102 = CIRCLE('',#103,2.);
#103 = AXIS2_PLACEMENT_3D('',#104,#105,#106);
#104 = CARTESIAN_POINT('',(-42.,1.19E-15,9.8));
#105 = DIRECTION('',(0.,1.,-2.2E-16));
#106 = DIRECTION('',(0.,-2.2E-16,-1.));
#107 = ORIENTED_EDGE('',*,*,#108,.T.);
#108 = EDGE_CURVE('',#100,#109,#111,.T.);
#109 = VERTEX_POINT('',#110);
#110 = CARTESIAN_POINT('',(-40.,2.E-15,10.8));
#111 = LINE('',#112,#113);
#112 = CARTESIAN_POINT('',(-40.,0.,7.8));
#113 = VECTOR('',#114,1.);
#114 = DIRECTION('',(0.,0.,1.));
#115 = ORIENTED_EDGE('',*,*,#116,.F.);
#116 = EDGE_CURVE('',#117,#109,#119,.T.);
#117 = VERTEX_POINT('',#118);
#118 = CARTESIAN_POINT('',(-37.,3.E-15,13.8));
#119 = CIRCLE('',#120,3.);
#120 = AXIS2_PLACEMENT_3D('',#121,#122,#123);
#121 = CARTESIAN_POINT('',(-37.,1.19E-15,10.8));
#122 = DIRECTION('',(0.,-1.,2.2E-16));
#123 = DIRECTION('',(0.,-2.2E-16,-1.));
#124 = ORIENTED_EDGE('',*,*,#125,.T.);
#125 = EDGE_CURVE('',#117,#126,#128,.T.);
#126 = VERTEX_POINT('',#127);
#127 = CARTESIAN_POINT('',(0.,3.E-15,13.8));
#128 = LINE('',#129,#130);
#129 = CARTESIAN_POINT('',(-40.,0.,13.8));
#130 = VECTOR('',#131,1.);
#131 = DIRECTION('',(1.,0.,0.));
#132 = ORIENTED_EDGE('',*,*,#133,.T.);
#133 = EDGE_CURVE('',#126,#134,#136,.T.);
#134 = VERTEX_POINT('',#135);
#135 = CARTESIAN_POINT('',(37.,3.E-15,13.8));
#136 = LINE('',#137,#138);
#137 = CARTESIAN_POINT('',(0.,0.,13.8));
#138 = VECTOR('',#139,1.);
#139 = DIRECTION('',(1.,0.,0.));
#140 = ORIENTED_EDGE('',*,*,#141,.F.);
#141 = EDGE_CURVE('',#142,#134,#144,.T.);
#142 = VERTEX_POINT('',#143);
#143 = CARTESIAN_POINT('',(40.,2.E-15,10.8));
#144 = CIRCLE('',#145,3.);
#145 = AXIS2_PLACEMENT_3D('',#146,#147,#148);
#146 = CARTESIAN_POINT('',(37.,1.19E-15,10.8));
#147 = DIRECTION('',(0.,-1.,2.2E-16));
#148 = DIRECTION('',(0.,-2.2E-16,-1.));
#149 = ORIENTED_EDGE('',*,*,#150,.T.);
#150 = EDGE_CURVE('',#142,#151,#153,.T.);
#151 = VERTEX_POINT('',#152);
#152 = CARTESIAN_POINT('',(40.,2.E-15,9.8));
#153 = LINE('',#154,#155);
#154 = CARTESIAN_POINT('',(40.,0.,13.8));
#155 = VECTOR('',#156,1.);
#156 = DIRECTION('',(0.,0.,-1.));
#157 = ORIENTED_EDGE('',*,*,#158,.F.);
#158 = EDGE_CURVE('',#22,#151,#159,.T.);
#159 = CIRCLE('',#160,2.);
#160 = AXIS2_PLACEMENT_3D('',#161,#162,#163);
#161 = CARTESIAN_POINT('',(42.,1.19E-15,9.8));
#162 = DIRECTION('',(0.,1.,-2.2E-16));
#163 = DIRECTION('',(0.,-2.2E-16,-1.));
#164 = FACE_BOUND('',#165,.T.);
#165 = EDGE_LOOP('',(#166,#177,#185,#194));
#166 = ORIENTED_EDGE('',*,*,#167,.T.);
#167 = EDGE_CURVE('',#168,#170,#172,.T.);
#168 = VERTEX_POINT('',#169);
#169 = CARTESIAN_POINT('',(-75.42496738545,1.E-15,5.5));
#170 = VERTEX_POINT('',#171);
#171 = CARTESIAN_POINT('',(-75.42496738545,1.E-15,2.3));
#172 = CIRCLE('',#173,1.6);
#173 = AXIS2_PLACEMENT_3D('',#174,#175,#176);
#174 = CARTESIAN_POINT('',(-75.42496738545,0.,3.9));
#175 = DIRECTION('',(0.,-1.,0.));
#176 = DIRECTION('',(1.,0.,0.));
#177 = ORIENTED_EDGE('',*,*,#178,.T.);
#178 = EDGE_CURVE('',#170,#179,#181,.T.);
#179 = VERTEX_POINT('',#180);
#180 = CARTESIAN_POINT('',(-70.42496738545,1.E-15,2.3));
#181 = LINE('',#182,#183);
#182 = CARTESIAN_POINT('',(-75.42496738545,0.,2.3));
#183 = VECTOR('',#184,1.);
#184 = DIRECTION('',(1.,0.,0.));
#185 = ORIENTED_EDGE('',*,*,#186,.T.);
#186 = EDGE_CURVE('',#179,#187,#189,.T.);
#187 = VERTEX_POINT('',#188);
#188 = CARTESIAN_POINT('',(-70.42496738545,1.E-15,5.5));
#189 = CIRCLE('',#190,1.6);
#190 = AXIS2_PLACEMENT_3D('',#191,#192,#193);
#191 = CARTESIAN_POINT('',(-70.42496738545,0.,3.9));
#192 = DIRECTION('',(0.,-1.,0.));
#193 = DIRECTION('',(1.,0.,0.));
#194 = ORIENTED_EDGE('',*,*,#195,.F.);
#195 = EDGE_CURVE('',#168,#187,#196,.T.);
#196 = LINE('',#197,#198);
#197 = CARTESIAN_POINT('',(-75.42496738545,0.,5.5));
#198 = VECTOR('',#199,1.);
#199 = DIRECTION('',(1.,0.,0.));
#200 = FACE_BOUND('',#201,.T.);
#201 = EDGE_LOOP('',(#202,#213,#221,#230));
#202 = ORIENTED_EDGE('',*,*,#203,.T.);
#203 = EDGE_CURVE('',#204,#206,#208,.T.);
#204 = VERTEX_POINT('',#205);
#205 = CARTESIAN_POINT('',(74.575032614548,1.E-15,2.3));
#206 = VERTEX_POINT('',#207);
#207 = CARTESIAN_POINT('',(74.575032614548,1.E-15,5.5));
#208 = CIRCLE('',#209,1.6);
#209 = AXIS2_PLACEMENT_3D('',#210,#211,#212);
#210 = CARTESIAN_POINT('',(74.575032614548,0.,3.9));
#211 = DIRECTION('',(0.,-1.,0.));
#212 = DIRECTION('',(1.,0.,0.));
#213 = ORIENTED_EDGE('',*,*,#214,.T.);
#214 = EDGE_CURVE('',#206,#215,#217,.T.);
#215 = VERTEX_POINT('',#216);
#216 = CARTESIAN_POINT('',(69.575032614548,1.E-15,5.5));
#217 = LINE('',#218,#219);
#218 = CARTESIAN_POINT('',(74.575032614548,0.,5.5));
#219 = VECTOR('',#220,1.);
#220 = DIRECTION('',(-1.,0.,0.));
#221 = ORIENTED_EDGE('',*,*,#222,.T.);
#222 = EDGE_CURVE('',#215,#223,#225,.T.);
#223 = VERTEX_POINT('',#224);
#224 = CARTESIAN_POINT('',(69.575032614548,1.E-15,2.3));
#225 = CIRCLE('',#226,1.6);
#226 = AXIS2_PLACEMENT_3D('',#227,#228,#229);
#227 = CARTESIAN_POINT('',(69.575032614548,0.,3.9));
#228 = DIRECTION('',(0.,-1.,0.));
#229 = DIRECTION('',(1.,0.,0.));
#230 = ORIENTED_EDGE('',*,*,#231,.F.);
#231 = EDGE_CURVE('',#204,#223,#232,.T.);
#232 = LINE('',#233,#234);
#233 = CARTESIAN_POINT('',(74.575032614548,0.,2.3));
#234 = VECTOR('',#235,1.);
#235 = DIRECTION('',(-1.,0.,0.));
#236 = PLANE('',#237);
#237 = AXIS2_PLACEMENT_3D('',#238,#239,#240);
#238 = CARTESIAN_POINT('',(-4.306804940467E-02,1.19E-15,5.355015511892)
  );
#239 = DIRECTION('',(0.,1.,0.));
#240 = DIRECTION('',(0.,0.,1.));
#241 = ADVANCED_FACE('',(#242),#267,.T.);
#242 = FACE_BOUND('',#243,.T.);
#243 = EDGE_LOOP('',(#244,#245,#253,#261));
#244 = ORIENTED_EDGE('',*,*,#21,.F.);
#245 = ORIENTED_EDGE('',*,*,#246,.T.);
#246 = EDGE_CURVE('',#22,#247,#249,.T.);
#247 = VERTEX_POINT('',#248);
#248 = CARTESIAN_POINT('',(42.,-4.,7.8));
#249 = LINE('',#250,#251);
#250 = CARTESIAN_POINT('',(42.,1.73E-15,7.8));
#251 = VECTOR('',#252,1.);
#252 = DIRECTION('',(0.,-1.,2.2E-16));
#253 = ORIENTED_EDGE('',*,*,#254,.T.);
#254 = EDGE_CURVE('',#247,#255,#257,.T.);
#255 = VERTEX_POINT('',#256);
#256 = CARTESIAN_POINT('',(77.,-4.,7.8));
#257 = LINE('',#258,#259);
#258 = CARTESIAN_POINT('',(40.,-4.,7.8));
#259 = VECTOR('',#260,1.);
#260 = DIRECTION('',(1.,0.,0.));
#261 = ORIENTED_EDGE('',*,*,#262,.F.);
#262 = EDGE_CURVE('',#24,#255,#263,.T.);
#263 = LINE('',#264,#265);
#264 = CARTESIAN_POINT('',(77.,1.73E-15,7.8));
#265 = VECTOR('',#266,1.);
#266 = DIRECTION('',(0.,-1.,2.2E-16));
#267 = PLANE('',#268);
#268 = AXIS2_PLACEMENT_3D('',#269,#270,#271);
#269 = CARTESIAN_POINT('',(40.,1.73E-15,7.8));
#270 = DIRECTION('',(0.,2.2E-16,1.));
#271 = DIRECTION('',(1.,0.,0.));
#272 = ADVANCED_FACE('',(#273),#292,.F.);
#273 = FACE_BOUND('',#274,.T.);
#274 = EDGE_LOOP('',(#275,#276,#284,#291));
#275 = ORIENTED_EDGE('',*,*,#158,.T.);
#276 = ORIENTED_EDGE('',*,*,#277,.T.);
#277 = EDGE_CURVE('',#151,#278,#280,.T.);
#278 = VERTEX_POINT('',#279);
#279 = CARTESIAN_POINT('',(40.,-4.,9.8));
#280 = LINE('',#281,#282);
#281 = CARTESIAN_POINT('',(40.,2.18E-15,9.8));
#282 = VECTOR('',#283,1.);
#283 = DIRECTION('',(0.,-1.,2.2E-16));
#284 = ORIENTED_EDGE('',*,*,#285,.F.);
#285 = EDGE_CURVE('',#247,#278,#286,.T.);
#286 = CIRCLE('',#287,2.);
#287 = AXIS2_PLACEMENT_3D('',#288,#289,#290);
#288 = CARTESIAN_POINT('',(42.,-4.,9.8));
#289 = DIRECTION('',(0.,1.,-2.2E-16));
#290 = DIRECTION('',(0.,-2.2E-16,-1.));
#291 = ORIENTED_EDGE('',*,*,#246,.F.);
#292 = CYLINDRICAL_SURFACE('',#293,2.);
#293 = AXIS2_PLACEMENT_3D('',#294,#295,#296);
#294 = CARTESIAN_POINT('',(42.,2.18E-15,9.8));
#295 = DIRECTION('',(0.,-1.,2.2E-16));
#296 = DIRECTION('',(0.,-2.2E-16,-1.));
#297 = ADVANCED_FACE('',(#298),#317,.T.);
#298 = FACE_BOUND('',#299,.F.);
#299 = EDGE_LOOP('',(#300,#301,#309,#316));
#300 = ORIENTED_EDGE('',*,*,#31,.T.);
#301 = ORIENTED_EDGE('',*,*,#302,.T.);
#302 = EDGE_CURVE('',#32,#303,#305,.T.);
#303 = VERTEX_POINT('',#304);
#304 = CARTESIAN_POINT('',(80.,-4.,4.8));
#305 = LINE('',#306,#307);
#306 = CARTESIAN_POINT('',(80.,1.07E-15,4.8));
#307 = VECTOR('',#308,1.);
#308 = DIRECTION('',(0.,-1.,2.2E-16));
#309 = ORIENTED_EDGE('',*,*,#310,.F.);
#310 = EDGE_CURVE('',#255,#303,#311,.T.);
#311 = CIRCLE('',#312,3.);
#312 = AXIS2_PLACEMENT_3D('',#313,#314,#315);
#313 = CARTESIAN_POINT('',(77.,-4.,4.8));
#314 = DIRECTION('',(0.,1.,-2.2E-16));
#315 = DIRECTION('',(0.,-2.2E-16,-1.));
#316 = ORIENTED_EDGE('',*,*,#262,.F.);
#317 = CYLINDRICAL_SURFACE('',#318,3.);
#318 = AXIS2_PLACEMENT_3D('',#319,#320,#321);
#319 = CARTESIAN_POINT('',(77.,1.07E-15,4.8));
#320 = DIRECTION('',(0.,-1.,2.2E-16));
#321 = DIRECTION('',(0.,2.2E-16,1.));
#322 = ADVANCED_FACE('',(#323),#341,.T.);
#323 = FACE_BOUND('',#324,.T.);
#324 = EDGE_LOOP('',(#325,#326,#334,#340));
#325 = ORIENTED_EDGE('',*,*,#150,.F.);
#326 = ORIENTED_EDGE('',*,*,#327,.T.);
#327 = EDGE_CURVE('',#142,#328,#330,.T.);
#328 = VERTEX_POINT('',#329);
#329 = CARTESIAN_POINT('',(40.,-4.,10.8));
#330 = LINE('',#331,#332);
#331 = CARTESIAN_POINT('',(40.,2.4E-15,10.8));
#332 = VECTOR('',#333,1.);
#333 = DIRECTION('',(0.,-1.,2.2E-16));
#334 = ORIENTED_EDGE('',*,*,#335,.T.);
#335 = EDGE_CURVE('',#328,#278,#336,.T.);
#336 = LINE('',#337,#338);
#337 = CARTESIAN_POINT('',(40.,-4.,13.8));
#338 = VECTOR('',#339,1.);
#339 = DIRECTION('',(0.,0.,-1.));
#340 = ORIENTED_EDGE('',*,*,#277,.F.);
#341 = PLANE('',#342);
#342 = AXIS2_PLACEMENT_3D('',#343,#344,#345);
#343 = CARTESIAN_POINT('',(40.,3.06E-15,13.8));
#344 = DIRECTION('',(1.,0.,0.));
#345 = DIRECTION('',(0.,-2.2E-16,-1.));
#346 = ADVANCED_FACE('',(#347),#365,.F.);
#347 = FACE_BOUND('',#348,.F.);
#348 = EDGE_LOOP('',(#349,#350,#358,#364));
#349 = ORIENTED_EDGE('',*,*,#40,.F.);
#350 = ORIENTED_EDGE('',*,*,#351,.T.);
#351 = EDGE_CURVE('',#41,#352,#354,.T.);
#352 = VERTEX_POINT('',#353);
#353 = CARTESIAN_POINT('',(80.,-4.,3.));
#354 = LINE('',#355,#356);
#355 = CARTESIAN_POINT('',(80.,6.7E-16,3.));
#356 = VECTOR('',#357,1.);
#357 = DIRECTION('',(0.,-1.,2.2E-16));
#358 = ORIENTED_EDGE('',*,*,#359,.T.);
#359 = EDGE_CURVE('',#352,#303,#360,.T.);
#360 = LINE('',#361,#362);
#361 = CARTESIAN_POINT('',(80.,-4.,1.E-15));
#362 = VECTOR('',#363,1.);
#363 = DIRECTION('',(0.,0.,1.));
#364 = ORIENTED_EDGE('',*,*,#302,.F.);
#365 = PLANE('',#366);
#366 = AXIS2_PLACEMENT_3D('',#367,#368,#369);
#367 = CARTESIAN_POINT('',(80.,0.,0.));
#368 = DIRECTION('',(-1.,0.,0.));
#369 = DIRECTION('',(0.,2.2E-16,1.));
#370 = ADVANCED_FACE('',(#371),#390,.T.);
#371 = FACE_BOUND('',#372,.T.);
#372 = EDGE_LOOP('',(#373,#374,#382,#389));
#373 = ORIENTED_EDGE('',*,*,#141,.T.);
#374 = ORIENTED_EDGE('',*,*,#375,.T.);
#375 = EDGE_CURVE('',#134,#376,#378,.T.);
#376 = VERTEX_POINT('',#377);
#377 = CARTESIAN_POINT('',(37.,-4.,13.8));
#378 = LINE('',#379,#380);
#379 = CARTESIAN_POINT('',(37.,3.06E-15,13.8));
#380 = VECTOR('',#381,1.);
#381 = DIRECTION('',(0.,-1.,2.2E-16));
#382 = ORIENTED_EDGE('',*,*,#383,.F.);
#383 = EDGE_CURVE('',#328,#376,#384,.T.);
#384 = CIRCLE('',#385,3.);
#385 = AXIS2_PLACEMENT_3D('',#386,#387,#388);
#386 = CARTESIAN_POINT('',(37.,-4.,10.8));
#387 = DIRECTION('',(0.,-1.,2.2E-16));
#388 = DIRECTION('',(0.,-2.2E-16,-1.));
#389 = ORIENTED_EDGE('',*,*,#327,.F.);
#390 = CYLINDRICAL_SURFACE('',#391,3.);
#391 = AXIS2_PLACEMENT_3D('',#392,#393,#394);
#392 = CARTESIAN_POINT('',(37.,2.4E-15,10.8));
#393 = DIRECTION('',(0.,-1.,2.2E-16));
#394 = DIRECTION('',(1.,0.,0.));
#395 = ADVANCED_FACE('',(#396),#415,.T.);
#396 = FACE_BOUND('',#397,.F.);
#397 = EDGE_LOOP('',(#398,#399,#407,#414));
#398 = ORIENTED_EDGE('',*,*,#48,.T.);
#399 = ORIENTED_EDGE('',*,*,#400,.T.);
#400 = EDGE_CURVE('',#49,#401,#403,.T.);
#401 = VERTEX_POINT('',#402);
#402 = CARTESIAN_POINT('',(77.,-4.,0.));
#403 = LINE('',#404,#405);
#404 = CARTESIAN_POINT('',(77.,0.,-4.4E-16));
#405 = VECTOR('',#406,1.);
#406 = DIRECTION('',(0.,-1.,2.2E-16));
#407 = ORIENTED_EDGE('',*,*,#408,.F.);
#408 = EDGE_CURVE('',#352,#401,#409,.T.);
#409 = CIRCLE('',#410,3.);
#410 = AXIS2_PLACEMENT_3D('',#411,#412,#413);
#411 = CARTESIAN_POINT('',(77.,-4.,3.));
#412 = DIRECTION('',(0.,1.,-2.2E-16));
#413 = DIRECTION('',(0.,-2.2E-16,-1.));
#414 = ORIENTED_EDGE('',*,*,#351,.F.);
#415 = CYLINDRICAL_SURFACE('',#416,3.);
#416 = AXIS2_PLACEMENT_3D('',#417,#418,#419);
#417 = CARTESIAN_POINT('',(77.,6.7E-16,3.));
#418 = DIRECTION('',(0.,-1.,2.2E-16));
#419 = DIRECTION('',(1.,0.,0.));
#420 = ADVANCED_FACE('',(#421),#439,.T.);
#421 = FACE_BOUND('',#422,.T.);
#422 = EDGE_LOOP('',(#423,#424,#432,#438));
#423 = ORIENTED_EDGE('',*,*,#133,.F.);
#424 = ORIENTED_EDGE('',*,*,#425,.T.);
#425 = EDGE_CURVE('',#126,#426,#428,.T.);
#426 = VERTEX_POINT('',#427);
#427 = CARTESIAN_POINT('',(0.,-4.,13.8));
#428 = LINE('',#429,#430);
#429 = CARTESIAN_POINT('',(0.,3.06E-15,13.8));
#430 = VECTOR('',#431,1.);
#431 = DIRECTION('',(0.,-1.,2.2E-16));
#432 = ORIENTED_EDGE('',*,*,#433,.T.);
#433 = EDGE_CURVE('',#426,#376,#434,.T.);
#434 = LINE('',#435,#436);
#435 = CARTESIAN_POINT('',(0.,-4.,13.8));
#436 = VECTOR('',#437,1.);
#437 = DIRECTION('',(1.,0.,0.));
#438 = ORIENTED_EDGE('',*,*,#375,.F.);
#439 = PLANE('',#440);
#440 = AXIS2_PLACEMENT_3D('',#441,#442,#443);
#441 = CARTESIAN_POINT('',(0.,3.06E-15,13.8));
#442 = DIRECTION('',(0.,2.2E-16,1.));
#443 = DIRECTION('',(1.,0.,0.));
#444 = ADVANCED_FACE('',(#445),#463,.F.);
#445 = FACE_BOUND('',#446,.F.);
#446 = EDGE_LOOP('',(#447,#448,#456,#462));
#447 = ORIENTED_EDGE('',*,*,#57,.F.);
#448 = ORIENTED_EDGE('',*,*,#449,.T.);
#449 = EDGE_CURVE('',#58,#450,#452,.T.);
#450 = VERTEX_POINT('',#451);
#451 = CARTESIAN_POINT('',(-77.,-4.,0.));
#452 = LINE('',#453,#454);
#453 = CARTESIAN_POINT('',(-77.,0.,-4.4E-16));
#454 = VECTOR('',#455,1.);
#455 = DIRECTION('',(0.,-1.,2.2E-16));
#456 = ORIENTED_EDGE('',*,*,#457,.T.);
#457 = EDGE_CURVE('',#450,#401,#458,.T.);
#458 = LINE('',#459,#460);
#459 = CARTESIAN_POINT('',(-80.,-4.,1.E-15));
#460 = VECTOR('',#461,1.);
#461 = DIRECTION('',(1.,0.,0.));
#462 = ORIENTED_EDGE('',*,*,#400,.F.);
#463 = PLANE('',#464);
#464 = AXIS2_PLACEMENT_3D('',#465,#466,#467);
#465 = CARTESIAN_POINT('',(-80.,0.,0.));
#466 = DIRECTION('',(0.,2.2E-16,1.));
#467 = DIRECTION('',(1.,0.,0.));
#468 = ADVANCED_FACE('',(#469),#487,.T.);
#469 = FACE_BOUND('',#470,.T.);
#470 = EDGE_LOOP('',(#471,#472,#480,#486));
#471 = ORIENTED_EDGE('',*,*,#125,.F.);
#472 = ORIENTED_EDGE('',*,*,#473,.T.);
#473 = EDGE_CURVE('',#117,#474,#476,.T.);
#474 = VERTEX_POINT('',#475);
#475 = CARTESIAN_POINT('',(-37.,-4.,13.8));
#476 = LINE('',#477,#478);
#477 = CARTESIAN_POINT('',(-37.,3.06E-15,13.8));
#478 = VECTOR('',#479,1.);
#479 = DIRECTION('',(0.,-1.,2.2E-16));
#480 = ORIENTED_EDGE('',*,*,#481,.T.);
#481 = EDGE_CURVE('',#474,#426,#482,.T.);
#482 = LINE('',#483,#484);
#483 = CARTESIAN_POINT('',(-40.,-4.,13.8));
#484 = VECTOR('',#485,1.);
#485 = DIRECTION('',(1.,0.,0.));
#486 = ORIENTED_EDGE('',*,*,#425,.F.);
#487 = PLANE('',#488);
#488 = AXIS2_PLACEMENT_3D('',#489,#490,#491);
#489 = CARTESIAN_POINT('',(-40.,3.06E-15,13.8));
#490 = DIRECTION('',(0.,2.2E-16,1.));
#491 = DIRECTION('',(1.,0.,0.));
#492 = ADVANCED_FACE('',(#493),#512,.T.);
#493 = FACE_BOUND('',#494,.F.);
#494 = EDGE_LOOP('',(#495,#496,#504,#511));
#495 = ORIENTED_EDGE('',*,*,#65,.T.);
#496 = ORIENTED_EDGE('',*,*,#497,.T.);
#497 = EDGE_CURVE('',#66,#498,#500,.T.);
#498 = VERTEX_POINT('',#499);
#499 = CARTESIAN_POINT('',(-80.,-4.,3.));
#500 = LINE('',#501,#502);
#501 = CARTESIAN_POINT('',(-80.,6.7E-16,3.));
#502 = VECTOR('',#503,1.);
#503 = DIRECTION('',(0.,-1.,2.2E-16));
#504 = ORIENTED_EDGE('',*,*,#505,.F.);
#505 = EDGE_CURVE('',#450,#498,#506,.T.);
#506 = CIRCLE('',#507,3.);
#507 = AXIS2_PLACEMENT_3D('',#508,#509,#510);
#508 = CARTESIAN_POINT('',(-77.,-4.,3.));
#509 = DIRECTION('',(0.,1.,-2.2E-16));
#510 = DIRECTION('',(0.,-2.2E-16,-1.));
#511 = ORIENTED_EDGE('',*,*,#449,.F.);
#512 = CYLINDRICAL_SURFACE('',#513,3.);
#513 = AXIS2_PLACEMENT_3D('',#514,#515,#516);
#514 = CARTESIAN_POINT('',(-77.,6.7E-16,3.));
#515 = DIRECTION('',(0.,-1.,2.2E-16));
#516 = DIRECTION('',(-0.,-2.2E-16,-1.));
#517 = ADVANCED_FACE('',(#518),#537,.T.);
#518 = FACE_BOUND('',#519,.T.);
#519 = EDGE_LOOP('',(#520,#521,#529,#536));
#520 = ORIENTED_EDGE('',*,*,#116,.T.);
#521 = ORIENTED_EDGE('',*,*,#522,.T.);
#522 = EDGE_CURVE('',#109,#523,#525,.T.);
#523 = VERTEX_POINT('',#524);
#524 = CARTESIAN_POINT('',(-40.,-4.,10.8));
#525 = LINE('',#526,#527);
#526 = CARTESIAN_POINT('',(-40.,2.4E-15,10.8));
#527 = VECTOR('',#528,1.);
#528 = DIRECTION('',(0.,-1.,2.2E-16));
#529 = ORIENTED_EDGE('',*,*,#530,.F.);
#530 = EDGE_CURVE('',#474,#523,#531,.T.);
#531 = CIRCLE('',#532,3.);
#532 = AXIS2_PLACEMENT_3D('',#533,#534,#535);
#533 = CARTESIAN_POINT('',(-37.,-4.,10.8));
#534 = DIRECTION('',(0.,-1.,2.2E-16));
#535 = DIRECTION('',(0.,-2.2E-16,-1.));
#536 = ORIENTED_EDGE('',*,*,#473,.F.);
#537 = CYLINDRICAL_SURFACE('',#538,3.);
#538 = AXIS2_PLACEMENT_3D('',#539,#540,#541);
#539 = CARTESIAN_POINT('',(-37.,2.4E-15,10.8));
#540 = DIRECTION('',(0.,-1.,2.2E-16));
#541 = DIRECTION('',(0.,2.2E-16,1.));
#542 = ADVANCED_FACE('',(#543),#561,.F.);
#543 = FACE_BOUND('',#544,.F.);
#544 = EDGE_LOOP('',(#545,#546,#554,#560));
#545 = ORIENTED_EDGE('',*,*,#74,.F.);
#546 = ORIENTED_EDGE('',*,*,#547,.T.);
#547 = EDGE_CURVE('',#75,#548,#550,.T.);
#548 = VERTEX_POINT('',#549);
#549 = CARTESIAN_POINT('',(-80.,-4.,4.8));
#550 = LINE('',#551,#552);
#551 = CARTESIAN_POINT('',(-80.,1.07E-15,4.8));
#552 = VECTOR('',#553,1.);
#553 = DIRECTION('',(0.,-1.,2.2E-16));
#554 = ORIENTED_EDGE('',*,*,#555,.T.);
#555 = EDGE_CURVE('',#548,#498,#556,.T.);
#556 = LINE('',#557,#558);
#557 = CARTESIAN_POINT('',(-80.,-4.,7.8));
#558 = VECTOR('',#559,1.);
#559 = DIRECTION('',(0.,0.,-1.));
#560 = ORIENTED_EDGE('',*,*,#497,.F.);
#561 = PLANE('',#562);
#562 = AXIS2_PLACEMENT_3D('',#563,#564,#565);
#563 = CARTESIAN_POINT('',(-80.,1.73E-15,7.8));
#564 = DIRECTION('',(1.,0.,0.));
#565 = DIRECTION('',(0.,-2.2E-16,-1.));
#566 = ADVANCED_FACE('',(#567),#585,.T.);
#567 = FACE_BOUND('',#568,.T.);
#568 = EDGE_LOOP('',(#569,#570,#578,#584));
#569 = ORIENTED_EDGE('',*,*,#108,.F.);
#570 = ORIENTED_EDGE('',*,*,#571,.T.);
#571 = EDGE_CURVE('',#100,#572,#574,.T.);
#572 = VERTEX_POINT('',#573);
#573 = CARTESIAN_POINT('',(-40.,-4.,9.8));
#574 = LINE('',#575,#576);
#575 = CARTESIAN_POINT('',(-40.,2.18E-15,9.8));
#576 = VECTOR('',#577,1.);
#577 = DIRECTION('',(0.,-1.,2.2E-16));
#578 = ORIENTED_EDGE('',*,*,#579,.T.);
#579 = EDGE_CURVE('',#572,#523,#580,.T.);
#580 = LINE('',#581,#582);
#581 = CARTESIAN_POINT('',(-40.,-4.,7.8));
#582 = VECTOR('',#583,1.);
#583 = DIRECTION('',(0.,0.,1.));
#584 = ORIENTED_EDGE('',*,*,#522,.F.);
#585 = PLANE('',#586);
#586 = AXIS2_PLACEMENT_3D('',#587,#588,#589);
#587 = CARTESIAN_POINT('',(-40.,1.73E-15,7.8));
#588 = DIRECTION('',(-1.,0.,0.));
#589 = DIRECTION('',(0.,2.2E-16,1.));
#590 = ADVANCED_FACE('',(#591),#610,.T.);
#591 = FACE_BOUND('',#592,.F.);
#592 = EDGE_LOOP('',(#593,#594,#602,#609));
#593 = ORIENTED_EDGE('',*,*,#82,.T.);
#594 = ORIENTED_EDGE('',*,*,#595,.T.);
#595 = EDGE_CURVE('',#83,#596,#598,.T.);
#596 = VERTEX_POINT('',#597);
#597 = CARTESIAN_POINT('',(-77.,-4.,7.8));
#598 = LINE('',#599,#600);
#599 = CARTESIAN_POINT('',(-77.,1.73E-15,7.8));
#600 = VECTOR('',#601,1.);
#601 = DIRECTION('',(0.,-1.,2.2E-16));
#602 = ORIENTED_EDGE('',*,*,#603,.F.);
#603 = EDGE_CURVE('',#548,#596,#604,.T.);
#604 = CIRCLE('',#605,3.);
#605 = AXIS2_PLACEMENT_3D('',#606,#607,#608);
#606 = CARTESIAN_POINT('',(-77.,-4.,4.8));
#607 = DIRECTION('',(0.,1.,-2.2E-16));
#608 = DIRECTION('',(0.,-2.2E-16,-1.));
#609 = ORIENTED_EDGE('',*,*,#547,.F.);
#610 = CYLINDRICAL_SURFACE('',#611,3.);
#611 = AXIS2_PLACEMENT_3D('',#612,#613,#614);
#612 = CARTESIAN_POINT('',(-77.,1.07E-15,4.8));
#613 = DIRECTION('',(0.,-1.,2.2E-16));
#614 = DIRECTION('',(-1.,0.,0.));
#615 = ADVANCED_FACE('',(#616),#635,.F.);
#616 = FACE_BOUND('',#617,.T.);
#617 = EDGE_LOOP('',(#618,#619,#627,#634));
#618 = ORIENTED_EDGE('',*,*,#99,.T.);
#619 = ORIENTED_EDGE('',*,*,#620,.T.);
#620 = EDGE_CURVE('',#92,#621,#623,.T.);
#621 = VERTEX_POINT('',#622);
#622 = CARTESIAN_POINT('',(-42.,-4.,7.8));
#623 = LINE('',#624,#625);
#624 = CARTESIAN_POINT('',(-42.,1.73E-15,7.8));
#625 = VECTOR('',#626,1.);
#626 = DIRECTION('',(0.,-1.,2.2E-16));
#627 = ORIENTED_EDGE('',*,*,#628,.F.);
#628 = EDGE_CURVE('',#572,#621,#629,.T.);
#629 = CIRCLE('',#630,2.);
#630 = AXIS2_PLACEMENT_3D('',#631,#632,#633);
#631 = CARTESIAN_POINT('',(-42.,-4.,9.8));
#632 = DIRECTION('',(0.,1.,-2.2E-16));
#633 = DIRECTION('',(0.,-2.2E-16,-1.));
#634 = ORIENTED_EDGE('',*,*,#571,.F.);
#635 = CYLINDRICAL_SURFACE('',#636,2.);
#636 = AXIS2_PLACEMENT_3D('',#637,#638,#639);
#637 = CARTESIAN_POINT('',(-42.,2.18E-15,9.8));
#638 = DIRECTION('',(0.,-1.,2.2E-16));
#639 = DIRECTION('',(1.,0.,0.));
#640 = ADVANCED_FACE('',(#641),#652,.T.);
#641 = FACE_BOUND('',#642,.T.);
#642 = EDGE_LOOP('',(#643,#644,#645,#651));
#643 = ORIENTED_EDGE('',*,*,#91,.F.);
#644 = ORIENTED_EDGE('',*,*,#595,.T.);
#645 = ORIENTED_EDGE('',*,*,#646,.T.);
#646 = EDGE_CURVE('',#596,#621,#647,.T.);
#647 = LINE('',#648,#649);
#648 = CARTESIAN_POINT('',(-80.,-4.,7.8));
#649 = VECTOR('',#650,1.);
#650 = DIRECTION('',(1.,0.,0.));
#651 = ORIENTED_EDGE('',*,*,#620,.F.);
#652 = PLANE('',#653);
#653 = AXIS2_PLACEMENT_3D('',#654,#655,#656);
#654 = CARTESIAN_POINT('',(-80.,1.73E-15,7.8));
#655 = DIRECTION('',(0.,2.2E-16,1.));
#656 = DIRECTION('',(1.,0.,0.));
#657 = ADVANCED_FACE('',(#658),#684,.F.);
#658 = FACE_BOUND('',#659,.T.);
#659 = EDGE_LOOP('',(#660,#668,#677,#683));
#660 = ORIENTED_EDGE('',*,*,#661,.T.);
#661 = EDGE_CURVE('',#168,#662,#664,.T.);
#662 = VERTEX_POINT('',#663);
#663 = CARTESIAN_POINT('',(-75.42496738545,-4.,5.5));
#664 = LINE('',#665,#666);
#665 = CARTESIAN_POINT('',(-75.42496738545,1.22E-15,5.5));
#666 = VECTOR('',#667,1.);
#667 = DIRECTION('',(0.,-1.,2.2E-16));
#668 = ORIENTED_EDGE('',*,*,#669,.T.);
#669 = EDGE_CURVE('',#662,#670,#672,.T.);
#670 = VERTEX_POINT('',#671);
#671 = CARTESIAN_POINT('',(-75.42496738545,-4.,2.3));
#672 = CIRCLE('',#673,1.6);
#673 = AXIS2_PLACEMENT_3D('',#674,#675,#676);
#674 = CARTESIAN_POINT('',(-75.42496738545,-4.,3.9));
#675 = DIRECTION('',(0.,-1.,0.));
#676 = DIRECTION('',(1.,0.,0.));
#677 = ORIENTED_EDGE('',*,*,#678,.F.);
#678 = EDGE_CURVE('',#170,#670,#679,.T.);
#679 = LINE('',#680,#681);
#680 = CARTESIAN_POINT('',(-75.42496738545,5.1E-16,2.3));
#681 = VECTOR('',#682,1.);
#682 = DIRECTION('',(0.,-1.,2.2E-16));
#683 = ORIENTED_EDGE('',*,*,#167,.F.);
#684 = CYLINDRICAL_SURFACE('',#685,1.6);
#685 = AXIS2_PLACEMENT_3D('',#686,#687,#688);
#686 = CARTESIAN_POINT('',(-75.42496738545,8.7E-16,3.9));
#687 = DIRECTION('',(0.,1.,-2.2E-16));
#688 = DIRECTION('',(1.,0.,0.));
#689 = ADVANCED_FACE('',(#690),#708,.T.);
#690 = FACE_BOUND('',#691,.T.);
#691 = EDGE_LOOP('',(#692,#693,#701,#707));
#692 = ORIENTED_EDGE('',*,*,#678,.T.);
#693 = ORIENTED_EDGE('',*,*,#694,.T.);
#694 = EDGE_CURVE('',#670,#695,#697,.T.);
#695 = VERTEX_POINT('',#696);
#696 = CARTESIAN_POINT('',(-70.42496738545,-4.,2.3));
#697 = LINE('',#698,#699);
#698 = CARTESIAN_POINT('',(-75.42496738545,-4.,2.3));
#699 = VECTOR('',#700,1.);
#700 = DIRECTION('',(1.,0.,0.));
#701 = ORIENTED_EDGE('',*,*,#702,.F.);
#702 = EDGE_CURVE('',#179,#695,#703,.T.);
#703 = LINE('',#704,#705);
#704 = CARTESIAN_POINT('',(-70.42496738545,5.1E-16,2.3));
#705 = VECTOR('',#706,1.);
#706 = DIRECTION('',(0.,-1.,2.2E-16));
#707 = ORIENTED_EDGE('',*,*,#178,.F.);
#708 = PLANE('',#709);
#709 = AXIS2_PLACEMENT_3D('',#710,#711,#712);
#710 = CARTESIAN_POINT('',(-75.42496738545,5.1E-16,2.3));
#711 = DIRECTION('',(0.,2.2E-16,1.));
#712 = DIRECTION('',(1.,0.,0.));
#713 = ADVANCED_FACE('',(#714),#733,.F.);
#714 = FACE_BOUND('',#715,.T.);
#715 = EDGE_LOOP('',(#716,#717,#726,#732));
#716 = ORIENTED_EDGE('',*,*,#702,.T.);
#717 = ORIENTED_EDGE('',*,*,#718,.T.);
#718 = EDGE_CURVE('',#695,#719,#721,.T.);
#719 = VERTEX_POINT('',#720);
#720 = CARTESIAN_POINT('',(-70.42496738545,-4.,5.5));
#721 = CIRCLE('',#722,1.6);
#722 = AXIS2_PLACEMENT_3D('',#723,#724,#725);
#723 = CARTESIAN_POINT('',(-70.42496738545,-4.,3.9));
#724 = DIRECTION('',(0.,-1.,0.));
#725 = DIRECTION('',(1.,0.,0.));
#726 = ORIENTED_EDGE('',*,*,#727,.F.);
#727 = EDGE_CURVE('',#187,#719,#728,.T.);
#728 = LINE('',#729,#730);
#729 = CARTESIAN_POINT('',(-70.42496738545,1.22E-15,5.5));
#730 = VECTOR('',#731,1.);
#731 = DIRECTION('',(0.,-1.,2.2E-16));
#732 = ORIENTED_EDGE('',*,*,#186,.F.);
#733 = CYLINDRICAL_SURFACE('',#734,1.6);
#734 = AXIS2_PLACEMENT_3D('',#735,#736,#737);
#735 = CARTESIAN_POINT('',(-70.42496738545,8.7E-16,3.9));
#736 = DIRECTION('',(0.,1.,-2.2E-16));
#737 = DIRECTION('',(1.,0.,0.));
#738 = ADVANCED_FACE('',(#739),#750,.F.);
#739 = FACE_BOUND('',#740,.F.);
#740 = EDGE_LOOP('',(#741,#742,#748,#749));
#741 = ORIENTED_EDGE('',*,*,#661,.T.);
#742 = ORIENTED_EDGE('',*,*,#743,.T.);
#743 = EDGE_CURVE('',#662,#719,#744,.T.);
#744 = LINE('',#745,#746);
#745 = CARTESIAN_POINT('',(-75.42496738545,-4.,5.5));
#746 = VECTOR('',#747,1.);
#747 = DIRECTION('',(1.,0.,0.));
#748 = ORIENTED_EDGE('',*,*,#727,.F.);
#749 = ORIENTED_EDGE('',*,*,#195,.F.);
#750 = PLANE('',#751);
#751 = AXIS2_PLACEMENT_3D('',#752,#753,#754);
#752 = CARTESIAN_POINT('',(-75.42496738545,1.22E-15,5.5));
#753 = DIRECTION('',(0.,2.2E-16,1.));
#754 = DIRECTION('',(1.,0.,0.));
#755 = ADVANCED_FACE('',(#756),#782,.F.);
#756 = FACE_BOUND('',#757,.T.);
#757 = EDGE_LOOP('',(#758,#766,#775,#781));
#758 = ORIENTED_EDGE('',*,*,#759,.T.);
#759 = EDGE_CURVE('',#204,#760,#762,.T.);
#760 = VERTEX_POINT('',#761);
#761 = CARTESIAN_POINT('',(74.575032614548,-4.,2.3));
#762 = LINE('',#763,#764);
#763 = CARTESIAN_POINT('',(74.575032614548,5.1E-16,2.3));
#764 = VECTOR('',#765,1.);
#765 = DIRECTION('',(0.,-1.,2.2E-16));
#766 = ORIENTED_EDGE('',*,*,#767,.T.);
#767 = EDGE_CURVE('',#760,#768,#770,.T.);
#768 = VERTEX_POINT('',#769);
#769 = CARTESIAN_POINT('',(74.575032614548,-4.,5.5));
#770 = CIRCLE('',#771,1.6);
#771 = AXIS2_PLACEMENT_3D('',#772,#773,#774);
#772 = CARTESIAN_POINT('',(74.575032614548,-4.,3.9));
#773 = DIRECTION('',(0.,-1.,0.));
#774 = DIRECTION('',(1.,0.,0.));
#775 = ORIENTED_EDGE('',*,*,#776,.F.);
#776 = EDGE_CURVE('',#206,#768,#777,.T.);
#777 = LINE('',#778,#779);
#778 = CARTESIAN_POINT('',(74.575032614548,1.22E-15,5.5));
#779 = VECTOR('',#780,1.);
#780 = DIRECTION('',(0.,-1.,2.2E-16));
#781 = ORIENTED_EDGE('',*,*,#203,.F.);
#782 = CYLINDRICAL_SURFACE('',#783,1.6);
#783 = AXIS2_PLACEMENT_3D('',#784,#785,#786);
#784 = CARTESIAN_POINT('',(74.575032614548,8.7E-16,3.9));
#785 = DIRECTION('',(0.,1.,-2.2E-16));
#786 = DIRECTION('',(1.,0.,0.));
#787 = ADVANCED_FACE('',(#788),#806,.T.);
#788 = FACE_BOUND('',#789,.T.);
#789 = EDGE_LOOP('',(#790,#791,#799,#805));
#790 = ORIENTED_EDGE('',*,*,#776,.T.);
#791 = ORIENTED_EDGE('',*,*,#792,.T.);
#792 = EDGE_CURVE('',#768,#793,#795,.T.);
#793 = VERTEX_POINT('',#794);
#794 = CARTESIAN_POINT('',(69.575032614548,-4.,5.5));
#795 = LINE('',#796,#797);
#796 = CARTESIAN_POINT('',(74.575032614548,-4.,5.5));
#797 = VECTOR('',#798,1.);
#798 = DIRECTION('',(-1.,0.,0.));
#799 = ORIENTED_EDGE('',*,*,#800,.F.);
#800 = EDGE_CURVE('',#215,#793,#801,.T.);
#801 = LINE('',#802,#803);
#802 = CARTESIAN_POINT('',(69.575032614548,1.22E-15,5.5));
#803 = VECTOR('',#804,1.);
#804 = DIRECTION('',(0.,-1.,2.2E-16));
#805 = ORIENTED_EDGE('',*,*,#214,.F.);
#806 = PLANE('',#807);
#807 = AXIS2_PLACEMENT_3D('',#808,#809,#810);
#808 = CARTESIAN_POINT('',(74.575032614548,1.22E-15,5.5));
#809 = DIRECTION('',(-0.,-2.2E-16,-1.));
#810 = DIRECTION('',(-1.,0.,0.));
#811 = ADVANCED_FACE('',(#812),#831,.F.);
#812 = FACE_BOUND('',#813,.T.);
#813 = EDGE_LOOP('',(#814,#815,#824,#830));
#814 = ORIENTED_EDGE('',*,*,#800,.T.);
#815 = ORIENTED_EDGE('',*,*,#816,.T.);
#816 = EDGE_CURVE('',#793,#817,#819,.T.);
#817 = VERTEX_POINT('',#818);
#818 = CARTESIAN_POINT('',(69.575032614548,-4.,2.3));
#819 = CIRCLE('',#820,1.6);
#820 = AXIS2_PLACEMENT_3D('',#821,#822,#823);
#821 = CARTESIAN_POINT('',(69.575032614548,-4.,3.9));
#822 = DIRECTION('',(0.,-1.,0.));
#823 = DIRECTION('',(1.,0.,0.));
#824 = ORIENTED_EDGE('',*,*,#825,.F.);
#825 = EDGE_CURVE('',#223,#817,#826,.T.);
#826 = LINE('',#827,#828);
#827 = CARTESIAN_POINT('',(69.575032614548,5.1E-16,2.3));
#828 = VECTOR('',#829,1.);
#829 = DIRECTION('',(0.,-1.,2.2E-16));
#830 = ORIENTED_EDGE('',*,*,#222,.F.);
#831 = CYLINDRICAL_SURFACE('',#832,1.6);
#832 = AXIS2_PLACEMENT_3D('',#833,#834,#835);
#833 = CARTESIAN_POINT('',(69.575032614548,8.7E-16,3.9));
#834 = DIRECTION('',(0.,1.,-2.2E-16));
#835 = DIRECTION('',(1.,0.,0.));
#836 = ADVANCED_FACE('',(#837),#848,.F.);
#837 = FACE_BOUND('',#838,.F.);
#838 = EDGE_LOOP('',(#839,#840,#846,#847));
#839 = ORIENTED_EDGE('',*,*,#759,.T.);
#840 = ORIENTED_EDGE('',*,*,#841,.T.);
#841 = EDGE_CURVE('',#760,#817,#842,.T.);
#842 = LINE('',#843,#844);
#843 = CARTESIAN_POINT('',(74.575032614548,-4.,2.3));
#844 = VECTOR('',#845,1.);
#845 = DIRECTION('',(-1.,0.,0.));
#846 = ORIENTED_EDGE('',*,*,#825,.F.);
#847 = ORIENTED_EDGE('',*,*,#231,.F.);
#848 = PLANE('',#849);
#849 = AXIS2_PLACEMENT_3D('',#850,#851,#852);
#850 = CARTESIAN_POINT('',(74.575032614548,5.1E-16,2.3));
#851 = DIRECTION('',(-0.,-2.2E-16,-1.));
#852 = DIRECTION('',(-1.,0.,0.));
#853 = ADVANCED_FACE('',(#854,#873,#879),#885,.F.);
#854 = FACE_BOUND('',#855,.F.);
#855 = EDGE_LOOP('',(#856,#857,#858,#859,#860,#861,#862,#863,#864,#865,
    #866,#867,#868,#869,#870,#871,#872));
#856 = ORIENTED_EDGE('',*,*,#254,.T.);
#857 = ORIENTED_EDGE('',*,*,#310,.T.);
#858 = ORIENTED_EDGE('',*,*,#359,.F.);
#859 = ORIENTED_EDGE('',*,*,#408,.T.);
#860 = ORIENTED_EDGE('',*,*,#457,.F.);
#861 = ORIENTED_EDGE('',*,*,#505,.T.);
#862 = ORIENTED_EDGE('',*,*,#555,.F.);
#863 = ORIENTED_EDGE('',*,*,#603,.T.);
#864 = ORIENTED_EDGE('',*,*,#646,.T.);
#865 = ORIENTED_EDGE('',*,*,#628,.F.);
#866 = ORIENTED_EDGE('',*,*,#579,.T.);
#867 = ORIENTED_EDGE('',*,*,#530,.F.);
#868 = ORIENTED_EDGE('',*,*,#481,.T.);
#869 = ORIENTED_EDGE('',*,*,#433,.T.);
#870 = ORIENTED_EDGE('',*,*,#383,.F.);
#871 = ORIENTED_EDGE('',*,*,#335,.T.);
#872 = ORIENTED_EDGE('',*,*,#285,.F.);
#873 = FACE_BOUND('',#874,.F.);
#874 = EDGE_LOOP('',(#875,#876,#877,#878));
#875 = ORIENTED_EDGE('',*,*,#669,.T.);
#876 = ORIENTED_EDGE('',*,*,#694,.T.);
#877 = ORIENTED_EDGE('',*,*,#718,.T.);
#878 = ORIENTED_EDGE('',*,*,#743,.F.);
#879 = FACE_BOUND('',#880,.F.);
#880 = EDGE_LOOP('',(#881,#882,#883,#884));
#881 = ORIENTED_EDGE('',*,*,#767,.T.);
#882 = ORIENTED_EDGE('',*,*,#792,.T.);
#883 = ORIENTED_EDGE('',*,*,#816,.T.);
#884 = ORIENTED_EDGE('',*,*,#841,.F.);
#885 = PLANE('',#886);
#886 = AXIS2_PLACEMENT_3D('',#887,#888,#889);
#887 = CARTESIAN_POINT('',(-4.306804940467E-02,-4.,5.355015511892));
#888 = DIRECTION('',(0.,1.,0.));
#889 = DIRECTION('',(0.,0.,1.));
#890 = ( GEOMETRIC_REPRESENTATION_CONTEXT(3) 
GLOBAL_UNCERTAINTY_ASSIGNED_CONTEXT((#894)) GLOBAL_UNIT_ASSIGNED_CONTEXT
((#891,#892,#893)) REPRESENTATION_CONTEXT('Context #1',
  '3D Context with UNIT and UNCERTAINTY') );
#891 = ( LENGTH_UNIT() NAMED_UNIT(*) SI_UNIT(.MILLI.,.METRE.) );
#892 = ( NAMED_UNIT(*) PLANE_ANGLE_UNIT() SI_UNIT($,.RADIAN.) );
#893 = ( NAMED_UNIT(*) SI_UNIT($,.STERADIAN.) SOLID_ANGLE_UNIT() );
#894 = UNCERTAINTY_MEASURE_WITH_UNIT(LENGTH_MEASURE(1.E-07),#891,
  'distance_accuracy_value','confusion accuracy');
#895 = PRODUCT_RELATED_PRODUCT_CATEGORY('part',$,(#7));
ENDSEC;
END-ISO-10303-21;
