ISO-10303-21;
HEADER;
FILE_DESCRIPTION(('FreeCAD Model'),'2;1');
FILE_NAME('Open CASCADE Shape Model','2026-08-28T13:04:04',('FreeCAD'),(
    'FreeCAD'),'Open CASCADE STEP processor 7.8','FreeCAD','Unknown');
FILE_SCHEMA(('AUTOMOTIVE_DESIGN { 1 0 10303 214 1 1 1 1 }'));
ENDSEC;
DATA;
#1 = APPLICATION_PROTOCOL_DEFINITION('international standard',
  'automotive_design',2000,#2);
#2 = APPLICATION_CONTEXT(
  'core data for automotive mechanical design processes');
#3 = SHAPE_DEFINITION_REPRESENTATION(#4,#10);
#4 = PRODUCT_DEFINITION_SHAPE('','',#5);
#5 = PRODUCT_DEFINITION('design','',#6,#9);
#6 = PRODUCT_DEFINITION_FORMATION('','',#7);
#7 = PRODUCT('Open CASCADE STEP translator 7.8 45',
  'Open CASCADE STEP translator 7.8 45','',(#8));
#8 = PRODUCT_CONTEXT('',#2,'mechanical');
#9 = PRODUCT_DEFINITION_CONTEXT('part definition',#2,'design');
#10 = ADVANCED_BREP_SHAPE_REPRESENTATION('',(#11,#15),#1079);
#11 = AXIS2_PLACEMENT_3D('',#12,#13,#14);
#12 = CARTESIAN_POINT('',(0.,0.,0.));
#13 = DIRECTION('',(0.,0.,1.));
#14 = DIRECTION('',(1.,0.,-0.));
#15 = MANIFOLD_SOLID_BREP('',#16);
#16 = CLOSED_SHELL('',(#17,#59,#106,#157,#210,#260,#284,#511,#531,#617,
    #681,#759,#806,#831,#871,#917,#949,#987,#1010,#1022,#1034,#1046));
#17 = ADVANCED_FACE('',(#18),#54,.F.);
#18 = FACE_BOUND('',#19,.F.);
#19 = EDGE_LOOP('',(#20,#30,#39,#47));
#20 = ORIENTED_EDGE('',*,*,#21,.F.);
#21 = EDGE_CURVE('',#22,#24,#26,.T.);
#22 = VERTEX_POINT('',#23);
#23 = CARTESIAN_POINT('',(5.843586227652,1.75,4.));
#24 = VERTEX_POINT('',#25);
#25 = CARTESIAN_POINT('',(4.683748498799,1.75,4.));
#26 = LINE('',#27,#28);
#27 = CARTESIAN_POINT('',(7.25,1.75,4.));
#28 = VECTOR('',#29,1.);
#29 = DIRECTION('',(-1.,0.,0.));
#30 = ORIENTED_EDGE('',*,*,#31,.F.);
#31 = EDGE_CURVE('',#32,#22,#34,.T.);
#32 = VERTEX_POINT('',#33);
#33 = CARTESIAN_POINT('',(-5.843586227652,1.75,4.));
#34 = CIRCLE('',#35,6.1);
#35 = AXIS2_PLACEMENT_3D('',#36,#37,#38);
#36 = CARTESIAN_POINT('',(0.,0.,4.));
#37 = DIRECTION('',(0.,0.,-1.));
#38 = DIRECTION('',(1.,0.,0.));
#39 = ORIENTED_EDGE('',*,*,#40,.F.);
#40 = EDGE_CURVE('',#41,#32,#43,.T.);
#41 = VERTEX_POINT('',#42);
#42 = CARTESIAN_POINT('',(-4.683748498799,1.75,4.));
#43 = LINE('',#44,#45);
#44 = CARTESIAN_POINT('',(7.25,1.75,4.));
#45 = VECTOR('',#46,1.);
#46 = DIRECTION('',(-1.,0.,0.));
#47 = ORIENTED_EDGE('',*,*,#48,.F.);
#48 = EDGE_CURVE('',#24,#41,#49,.T.);
#49 = CIRCLE('',#50,5.);
#50 = AXIS2_PLACEMENT_3D('',#51,#52,#53);
#51 = CARTESIAN_POINT('',(0.,0.,4.));
#52 = DIRECTION('',(0.,0.,1.));
#53 = DIRECTION('',(1.,0.,0.));
#54 = PLANE('',#55);
#55 = AXIS2_PLACEMENT_3D('',#56,#57,#58);
#56 = CARTESIAN_POINT('',(-3.4E-16,-1.7E-16,4.));
#57 = DIRECTION('',(0.,0.,1.));
#58 = DIRECTION('',(1.,0.,0.));
#59 = ADVANCED_FACE('',(#60),#101,.T.);
#60 = FACE_BOUND('',#61,.T.);
#61 = EDGE_LOOP('',(#62,#63,#71,#79,#87,#95));
#62 = ORIENTED_EDGE('',*,*,#21,.F.);
#63 = ORIENTED_EDGE('',*,*,#64,.T.);
#64 = EDGE_CURVE('',#22,#65,#67,.T.);
#65 = VERTEX_POINT('',#66);
#66 = CARTESIAN_POINT('',(5.843586227652,1.75,6.));
#67 = LINE('',#68,#69);
#68 = CARTESIAN_POINT('',(5.843586227652,1.75,4.));
#69 = VECTOR('',#70,1.);
#70 = DIRECTION('',(0.,0.,1.));
#71 = ORIENTED_EDGE('',*,*,#72,.F.);
#72 = EDGE_CURVE('',#73,#65,#75,.T.);
#73 = VERTEX_POINT('',#74);
#74 = CARTESIAN_POINT('',(7.25,1.75,6.));
#75 = LINE('',#76,#77);
#76 = CARTESIAN_POINT('',(7.25,1.75,6.));
#77 = VECTOR('',#78,1.);
#78 = DIRECTION('',(-1.,0.,0.));
#79 = ORIENTED_EDGE('',*,*,#80,.F.);
#80 = EDGE_CURVE('',#81,#73,#83,.T.);
#81 = VERTEX_POINT('',#82);
#82 = CARTESIAN_POINT('',(7.25,1.75,24.));
#83 = LINE('',#84,#85);
#84 = CARTESIAN_POINT('',(7.25,1.75,20.));
#85 = VECTOR('',#86,1.);
#86 = DIRECTION('',(-0.,-0.,-1.));
#87 = ORIENTED_EDGE('',*,*,#88,.T.);
#88 = EDGE_CURVE('',#81,#89,#91,.T.);
#89 = VERTEX_POINT('',#90);
#90 = CARTESIAN_POINT('',(4.683748498799,1.75,24.));
#91 = LINE('',#92,#93);
#92 = CARTESIAN_POINT('',(7.25,1.75,24.));
#93 = VECTOR('',#94,1.);
#94 = DIRECTION('',(-1.,0.,0.));
#95 = ORIENTED_EDGE('',*,*,#96,.F.);
#96 = EDGE_CURVE('',#24,#89,#97,.T.);
#97 = LINE('',#98,#99);
#98 = CARTESIAN_POINT('',(4.683748498799,1.75,20.));
#99 = VECTOR('',#100,1.);
#100 = DIRECTION('',(0.,0.,1.));
#101 = PLANE('',#102);
#102 = AXIS2_PLACEMENT_3D('',#103,#104,#105);
#103 = CARTESIAN_POINT('',(5.966874249399,1.75,14.));
#104 = DIRECTION('',(4.21E-15,-1.,-5.9E-16));
#105 = DIRECTION('',(-1.,-4.21E-15,0.));
#106 = ADVANCED_FACE('',(#107,#141),#152,.T.);
#107 = FACE_BOUND('',#108,.T.);
#108 = EDGE_LOOP('',(#109,#119,#127,#135));
#109 = ORIENTED_EDGE('',*,*,#110,.T.);
#110 = EDGE_CURVE('',#111,#113,#115,.T.);
#111 = VERTEX_POINT('',#112);
#112 = CARTESIAN_POINT('',(3.346640106136,-5.1,-6.));
#113 = VERTEX_POINT('',#114);
#114 = CARTESIAN_POINT('',(-3.346640106136,-5.1,-6.));
#115 = LINE('',#116,#117);
#116 = CARTESIAN_POINT('',(0.,-5.1,-6.));
#117 = VECTOR('',#118,1.);
#118 = DIRECTION('',(-1.,0.,0.));
#119 = ORIENTED_EDGE('',*,*,#120,.F.);
#120 = EDGE_CURVE('',#121,#113,#123,.T.);
#121 = VERTEX_POINT('',#122);
#122 = CARTESIAN_POINT('',(-3.346640106136,-5.1,4.));
#123 = LINE('',#124,#125);
#124 = CARTESIAN_POINT('',(-3.346640106136,-5.1,-12.));
#125 = VECTOR('',#126,1.);
#126 = DIRECTION('',(-0.,-0.,-1.));
#127 = ORIENTED_EDGE('',*,*,#128,.T.);
#128 = EDGE_CURVE('',#121,#129,#131,.T.);
#129 = VERTEX_POINT('',#130);
#130 = CARTESIAN_POINT('',(3.346640106136,-5.1,4.));
#131 = LINE('',#132,#133);
#132 = CARTESIAN_POINT('',(0.,-5.1,4.));
#133 = VECTOR('',#134,1.);
#134 = DIRECTION('',(1.,0.,0.));
#135 = ORIENTED_EDGE('',*,*,#136,.T.);
#136 = EDGE_CURVE('',#129,#111,#137,.T.);
#137 = LINE('',#138,#139);
#138 = CARTESIAN_POINT('',(3.346640106136,-5.1,-12.));
#139 = VECTOR('',#140,1.);
#140 = DIRECTION('',(-0.,-0.,-1.));
#141 = FACE_BOUND('',#142,.T.);
#142 = EDGE_LOOP('',(#143));
#143 = ORIENTED_EDGE('',*,*,#144,.T.);
#144 = EDGE_CURVE('',#145,#145,#147,.T.);
#145 = VERTEX_POINT('',#146);
#146 = CARTESIAN_POINT('',(1.25,-5.1,-1.5));
#147 = CIRCLE('',#148,1.25);
#148 = AXIS2_PLACEMENT_3D('',#149,#150,#151);
#149 = CARTESIAN_POINT('',(0.,-5.1,-1.5));
#150 = DIRECTION('',(0.,-1.,2.2E-16));
#151 = DIRECTION('',(1.,0.,0.));
#152 = PLANE('',#153);
#153 = AXIS2_PLACEMENT_3D('',#154,#155,#156);
#154 = CARTESIAN_POINT('',(0.,-5.1,-1.));
#155 = DIRECTION('',(0.,1.,0.));
#156 = DIRECTION('',(0.,0.,1.));
#157 = ADVANCED_FACE('',(#158,#186),#205,.F.);
#158 = FACE_BOUND('',#159,.F.);
#159 = EDGE_LOOP('',(#160,#171,#180));
#160 = ORIENTED_EDGE('',*,*,#161,.F.);
#161 = EDGE_CURVE('',#162,#164,#166,.T.);
#162 = VERTEX_POINT('',#163);
#163 = CARTESIAN_POINT('',(10.,0.,-6.));
#164 = VERTEX_POINT('',#165);
#165 = CARTESIAN_POINT('',(4.358898943541,-9.,-6.));
#166 = CIRCLE('',#167,10.);
#167 = AXIS2_PLACEMENT_3D('',#168,#169,#170);
#168 = CARTESIAN_POINT('',(0.,0.,-6.));
#169 = DIRECTION('',(0.,0.,-1.));
#170 = DIRECTION('',(1.,0.,0.));
#171 = ORIENTED_EDGE('',*,*,#172,.F.);
#172 = EDGE_CURVE('',#173,#162,#175,.T.);
#173 = VERTEX_POINT('',#174);
#174 = CARTESIAN_POINT('',(-4.358898943541,-9.,-6.));
#175 = CIRCLE('',#176,10.);
#176 = AXIS2_PLACEMENT_3D('',#177,#178,#179);
#177 = CARTESIAN_POINT('',(0.,0.,-6.));
#178 = DIRECTION('',(0.,0.,-1.));
#179 = DIRECTION('',(1.,0.,0.));
#180 = ORIENTED_EDGE('',*,*,#181,.F.);
#181 = EDGE_CURVE('',#164,#173,#182,.T.);
#182 = LINE('',#183,#184);
#183 = CARTESIAN_POINT('',(-2.6E-16,-9.,-6.));
#184 = VECTOR('',#185,1.);
#185 = DIRECTION('',(-1.,0.,0.));
#186 = FACE_BOUND('',#187,.F.);
#187 = EDGE_LOOP('',(#188,#197,#198));
#188 = ORIENTED_EDGE('',*,*,#189,.T.);
#189 = EDGE_CURVE('',#190,#111,#192,.T.);
#190 = VERTEX_POINT('',#191);
#191 = CARTESIAN_POINT('',(6.1,0.,-6.));
#192 = CIRCLE('',#193,6.1);
#193 = AXIS2_PLACEMENT_3D('',#194,#195,#196);
#194 = CARTESIAN_POINT('',(0.,0.,-6.));
#195 = DIRECTION('',(0.,0.,-1.));
#196 = DIRECTION('',(1.,0.,0.));
#197 = ORIENTED_EDGE('',*,*,#110,.T.);
#198 = ORIENTED_EDGE('',*,*,#199,.T.);
#199 = EDGE_CURVE('',#113,#190,#200,.T.);
#200 = CIRCLE('',#201,6.1);
#201 = AXIS2_PLACEMENT_3D('',#202,#203,#204);
#202 = CARTESIAN_POINT('',(0.,0.,-6.));
#203 = DIRECTION('',(0.,0.,-1.));
#204 = DIRECTION('',(1.,0.,0.));
#205 = PLANE('',#206);
#206 = AXIS2_PLACEMENT_3D('',#207,#208,#209);
#207 = CARTESIAN_POINT('',(-5.2E-16,-2.E-16,-6.));
#208 = DIRECTION('',(0.,0.,1.));
#209 = DIRECTION('',(1.,0.,0.));
#210 = ADVANCED_FACE('',(#211),#255,.F.);
#211 = FACE_BOUND('',#212,.F.);
#212 = EDGE_LOOP('',(#213,#222,#230,#239,#247,#254));
#213 = ORIENTED_EDGE('',*,*,#214,.F.);
#214 = EDGE_CURVE('',#215,#129,#217,.T.);
#215 = VERTEX_POINT('',#216);
#216 = CARTESIAN_POINT('',(5.843586227652,-1.75,4.));
#217 = CIRCLE('',#218,6.1);
#218 = AXIS2_PLACEMENT_3D('',#219,#220,#221);
#219 = CARTESIAN_POINT('',(0.,0.,4.));
#220 = DIRECTION('',(0.,0.,-1.));
#221 = DIRECTION('',(1.,0.,0.));
#222 = ORIENTED_EDGE('',*,*,#223,.F.);
#223 = EDGE_CURVE('',#224,#215,#226,.T.);
#224 = VERTEX_POINT('',#225);
#225 = CARTESIAN_POINT('',(4.683748498799,-1.75,4.));
#226 = LINE('',#227,#228);
#227 = CARTESIAN_POINT('',(-7.25,-1.75,4.));
#228 = VECTOR('',#229,1.);
#229 = DIRECTION('',(1.,0.,0.));
#230 = ORIENTED_EDGE('',*,*,#231,.F.);
#231 = EDGE_CURVE('',#232,#224,#234,.T.);
#232 = VERTEX_POINT('',#233);
#233 = CARTESIAN_POINT('',(-4.683748498799,-1.75,4.));
#234 = CIRCLE('',#235,5.);
#235 = AXIS2_PLACEMENT_3D('',#236,#237,#238);
#236 = CARTESIAN_POINT('',(0.,0.,4.));
#237 = DIRECTION('',(0.,0.,1.));
#238 = DIRECTION('',(1.,0.,0.));
#239 = ORIENTED_EDGE('',*,*,#240,.F.);
#240 = EDGE_CURVE('',#241,#232,#243,.T.);
#241 = VERTEX_POINT('',#242);
#242 = CARTESIAN_POINT('',(-5.843586227652,-1.75,4.));
#243 = LINE('',#244,#245);
#244 = CARTESIAN_POINT('',(-7.25,-1.75,4.));
#245 = VECTOR('',#246,1.);
#246 = DIRECTION('',(1.,0.,0.));
#247 = ORIENTED_EDGE('',*,*,#248,.F.);
#248 = EDGE_CURVE('',#121,#241,#249,.T.);
#249 = CIRCLE('',#250,6.1);
#250 = AXIS2_PLACEMENT_3D('',#251,#252,#253);
#251 = CARTESIAN_POINT('',(0.,0.,4.));
#252 = DIRECTION('',(0.,0.,-1.));
#253 = DIRECTION('',(1.,0.,0.));
#254 = ORIENTED_EDGE('',*,*,#128,.T.);
#255 = PLANE('',#256);
#256 = AXIS2_PLACEMENT_3D('',#257,#258,#259);
#257 = CARTESIAN_POINT('',(-3.4E-16,-1.7E-16,4.));
#258 = DIRECTION('',(0.,0.,1.));
#259 = DIRECTION('',(1.,0.,0.));
#260 = ADVANCED_FACE('',(#261),#279,.F.);
#261 = FACE_BOUND('',#262,.F.);
#262 = EDGE_LOOP('',(#263,#272,#277,#278));
#263 = ORIENTED_EDGE('',*,*,#264,.F.);
#264 = EDGE_CURVE('',#265,#265,#267,.T.);
#265 = VERTEX_POINT('',#266);
#266 = CARTESIAN_POINT('',(1.25,-9.,-1.5));
#267 = CIRCLE('',#268,1.25);
#268 = AXIS2_PLACEMENT_3D('',#269,#270,#271);
#269 = CARTESIAN_POINT('',(0.,-9.,-1.5));
#270 = DIRECTION('',(0.,-1.,2.2E-16));
#271 = DIRECTION('',(1.,0.,0.));
#272 = ORIENTED_EDGE('',*,*,#273,.F.);
#273 = EDGE_CURVE('',#145,#265,#274,.T.);
#274 = B_SPLINE_CURVE_WITH_KNOTS('',1,(#275,#276),.UNSPECIFIED.,.F.,.F.,
  (2,2),(-77.49088394131,77.490883941318),.PIECEWISE_BEZIER_KNOTS.);
#275 = CARTESIAN_POINT('',(1.25,77.490883941318,-1.5));
#276 = CARTESIAN_POINT('',(1.25,-77.49088394131,-1.5));
#277 = ORIENTED_EDGE('',*,*,#144,.T.);
#278 = ORIENTED_EDGE('',*,*,#273,.T.);
#279 = CYLINDRICAL_SURFACE('',#280,1.25);
#280 = AXIS2_PLACEMENT_3D('',#281,#282,#283);
#281 = CARTESIAN_POINT('',(0.,2.33E-15,-1.5));
#282 = DIRECTION('',(0.,-1.,2.2E-16));
#283 = DIRECTION('',(1.,0.,0.));
#284 = ADVANCED_FACE('',(#285,#321,#378,#455),#506,.T.);
#285 = FACE_BOUND('',#286,.F.);
#286 = EDGE_LOOP('',(#287,#295,#296,#297,#305,#314));
#287 = ORIENTED_EDGE('',*,*,#288,.F.);
#288 = EDGE_CURVE('',#173,#289,#291,.T.);
#289 = VERTEX_POINT('',#290);
#290 = CARTESIAN_POINT('',(-4.358898943541,-9.,24.));
#291 = LINE('',#292,#293);
#292 = CARTESIAN_POINT('',(-4.358898943541,-9.,20.));
#293 = VECTOR('',#294,1.);
#294 = DIRECTION('',(0.,0.,1.));
#295 = ORIENTED_EDGE('',*,*,#172,.T.);
#296 = ORIENTED_EDGE('',*,*,#161,.T.);
#297 = ORIENTED_EDGE('',*,*,#298,.F.);
#298 = EDGE_CURVE('',#299,#164,#301,.T.);
#299 = VERTEX_POINT('',#300);
#300 = CARTESIAN_POINT('',(4.35889894354,-9.,24.));
#301 = LINE('',#302,#303);
#302 = CARTESIAN_POINT('',(4.358898943541,-9.,-12.));
#303 = VECTOR('',#304,1.);
#304 = DIRECTION('',(-0.,-0.,-1.));
#305 = ORIENTED_EDGE('',*,*,#306,.T.);
#306 = EDGE_CURVE('',#299,#307,#309,.T.);
#307 = VERTEX_POINT('',#308);
#308 = CARTESIAN_POINT('',(10.,-1.E-15,24.));
#309 = CIRCLE('',#310,10.);
#310 = AXIS2_PLACEMENT_3D('',#311,#312,#313);
#311 = CARTESIAN_POINT('',(0.,0.,24.));
#312 = DIRECTION('',(0.,0.,1.));
#313 = DIRECTION('',(1.,0.,0.));
#314 = ORIENTED_EDGE('',*,*,#315,.T.);
#315 = EDGE_CURVE('',#307,#289,#316,.T.);
#316 = CIRCLE('',#317,10.);
#317 = AXIS2_PLACEMENT_3D('',#318,#319,#320);
#318 = CARTESIAN_POINT('',(0.,0.,24.));
#319 = DIRECTION('',(0.,0.,1.));
#320 = DIRECTION('',(1.,0.,0.));
#321 = FACE_BOUND('',#322,.F.);
#322 = EDGE_LOOP('',(#323));
#323 = ORIENTED_EDGE('',*,*,#324,.F.);
#324 = EDGE_CURVE('',#325,#325,#327,.T.);
#325 = VERTEX_POINT('',#326);
#326 = CARTESIAN_POINT('',(-9.901515035589,1.4,-1.5));
#327 = B_SPLINE_CURVE_WITH_KNOTS('',7,(#328,#329,#330,#331,#332,#333,
    #334,#335,#336,#337,#338,#339,#340,#341,#342,#343,#344,#345,#346,
    #347,#348,#349,#350,#351,#352,#353,#354,#355,#356,#357,#358,#359,
    #360,#361,#362,#363,#364,#365,#366,#367,#368,#369,#370,#371,#372,
    #373,#374,#375,#376,#377),.UNSPECIFIED.,.T.,.F.,(8,6,6,6,6,6,6,6,8),
  (0.,0.119518182796,0.214420177626,0.301785743823,0.437600293702,
    0.587226124545,0.713821961503,0.834132990792,1.),.UNSPECIFIED.);
#328 = CARTESIAN_POINT('',(-9.901515035589,1.4,-1.5));
#329 = CARTESIAN_POINT('',(-9.901515035589,1.4,-1.365701957375));
#330 = CARTESIAN_POINT('',(-9.903640130927,1.384970159846,
    -1.231410865965));
#331 = CARTESIAN_POINT('',(-9.907890140621,1.354912338271,
    -1.098339307427));
#332 = CARTESIAN_POINT('',(-9.914145917348,1.309630361662,
    -0.967763835367));
#333 = CARTESIAN_POINT('',(-9.922162754444,1.248786393712,
    -0.841151925913));
#334 = CARTESIAN_POINT('',(-9.931531765571,1.171952054144,
    -0.720306373189));
#335 = CARTESIAN_POINT('',(-9.94968079824,1.004687574211,-0.51811834935)
  );
#336 = CARTESIAN_POINT('',(-9.958232737844,0.919873700847,
    -0.433230587726));
#337 = CARTESIAN_POINT('',(-9.966956040676,0.824361621756,
    -0.354863982329));
#338 = CARTESIAN_POINT('',(-9.975398768005,0.718562880125,-0.28490993923
    ));
#339 = CARTESIAN_POINT('',(-9.983043619941,0.603192827323,
    -0.225227152697));
#340 = CARTESIAN_POINT('',(-9.989369682349,0.479273990674,-0.17764642548
    ));
#341 = CARTESIAN_POINT('',(-9.998141978218,0.227469352355,
    -0.112993983022));
#342 = CARTESIAN_POINT('',(-10.00082825987,0.101488944721,
    -9.400753021567E-02));
#343 = CARTESIAN_POINT('',(-10.00164311845,-2.726891336371E-02,
    -8.849047738574E-02));
#344 = CARTESIAN_POINT('',(-10.00041840323,-0.156028867266,
    -9.698220603143E-02));
#345 = CARTESIAN_POINT('',(-9.997262542013,-0.281977177175,
    -0.11911519809));
#346 = CARTESIAN_POINT('',(-9.992536035448,-0.402492131791,
    -0.153619678465));
#347 = CARTESIAN_POINT('',(-9.977654724771,-0.690855991398,
    -0.267791007209));
#348 = CARTESIAN_POINT('',(-9.965964502636,-0.847487085982,
    -0.361731206274));
#349 = CARTESIAN_POINT('',(-9.953115379826,-0.98346187542,
    -0.474233851716));
#350 = CARTESIAN_POINT('',(-9.940516638135,-1.098213542643,
    -0.600571808905));
#351 = CARTESIAN_POINT('',(-9.929204245355,-1.191771598705,
    -0.736770973558));
#352 = CARTESIAN_POINT('',(-9.919864648536,-1.264558787616,
    -0.879458445726));
#353 = CARTESIAN_POINT('',(-9.905154020281,-1.375263930011,
    -1.186953808007));
#354 = CARTESIAN_POINT('',(-9.900241463222,-1.409198406102,
    -1.353409606335));
#355 = CARTESIAN_POINT('',(-9.898628540773,-1.419791882425,
    -1.522386269395));
#356 = CARTESIAN_POINT('',(-9.900494013008,-1.407206948488,
    -1.691600454594));
#357 = CARTESIAN_POINT('',(-9.905760637218,-1.371205215034,
    -1.858677437017));
#358 = CARTESIAN_POINT('',(-9.914019184196,-1.311283782986,
    -2.020833104187));
#359 = CARTESIAN_POINT('',(-9.933292255,-1.155373913468,-2.304432104025)
  );
#360 = CARTESIAN_POINT('',(-9.943783687376,-1.06557307579,
    -2.429724218852));
#361 = CARTESIAN_POINT('',(-9.955433560479,-0.9569366302,-2.546850556415
    ));
#362 = CARTESIAN_POINT('',(-9.96742066582,-0.829639664916,
    -2.652108310874));
#363 = CARTESIAN_POINT('',(-9.978641229079,-0.684517315964,
    -2.741580443341));
#364 = CARTESIAN_POINT('',(-9.987841646498,-0.523135543034,
    -2.811091841976));
#365 = CARTESIAN_POINT('',(-9.999730121203,-0.181882452878,
    -2.898710743369));
#366 = CARTESIAN_POINT('',(-10.00259595085,-6.840110047545E-03,
    -2.918296855006));
#367 = CARTESIAN_POINT('',(-10.00172751121,0.171043686865,-2.91179774847
    ));
#368 = CARTESIAN_POINT('',(-9.996911928528,0.345120031452,
    -2.878956151474));
#369 = CARTESIAN_POINT('',(-9.988951302499,0.508997089604,
    -2.822070112128));
#370 = CARTESIAN_POINT('',(-9.979215750304,0.657372930735,-2.74595067837
    ));
#371 = CARTESIAN_POINT('',(-9.954892304282,0.965512511155,
    -2.536539235761));
#372 = CARTESIAN_POINT('',(-9.939497120216,1.11295503375,-2.389357232663
    ));
#373 = CARTESIAN_POINT('',(-9.925157969272,1.22907716077,-2.225295583684
    ));
#374 = CARTESIAN_POINT('',(-9.913539716174,1.314966642174,
    -2.050287441167));
#375 = CARTESIAN_POINT('',(-9.905520627468,1.371667636053,
    -1.868844715279));
#376 = CARTESIAN_POINT('',(-9.901515035589,1.4,-1.684386142996));
#377 = CARTESIAN_POINT('',(-9.901515035589,1.4,-1.5));
#378 = FACE_BOUND('',#379,.F.);
#379 = EDGE_LOOP('',(#380,#407,#438));
#380 = ORIENTED_EDGE('',*,*,#381,.T.);
#381 = EDGE_CURVE('',#382,#384,#386,.T.);
#382 = VERTEX_POINT('',#383);
#383 = CARTESIAN_POINT('',(9.901515035589,1.4,-1.5));
#384 = VERTEX_POINT('',#385);
#385 = CARTESIAN_POINT('',(10.,0.,-0.1));
#386 = B_SPLINE_CURVE_WITH_KNOTS('',7,(#387,#388,#389,#390,#391,#392,
    #393,#394,#395,#396,#397,#398,#399,#400,#401,#402,#403,#404,#405,
    #406),.UNSPECIFIED.,.F.,.F.,(8,6,6,8),(0.,0.479122698656,
    0.788471640281,1.),.UNSPECIFIED.);
#387 = CARTESIAN_POINT('',(9.901515035589,1.4,-1.5));
#388 = CARTESIAN_POINT('',(9.901515035589,1.4,-1.365701957375));
#389 = CARTESIAN_POINT('',(9.903640130927,1.384970159846,-1.231410865965
    ));
#390 = CARTESIAN_POINT('',(9.907890140621,1.354912338271,-1.098339307427
    ));
#391 = CARTESIAN_POINT('',(9.914145917348,1.309630361663,-0.967763835367
    ));
#392 = CARTESIAN_POINT('',(9.922162754444,1.248786393711,-0.841151925913
    ));
#393 = CARTESIAN_POINT('',(9.931531765571,1.171952054144,-0.720306373189
    ));
#394 = CARTESIAN_POINT('',(9.948179730154,1.018521665389,-0.534840892941
    ));
#395 = CARTESIAN_POINT('',(9.955038071414,0.951348878911,-0.465302570061
    ));
#396 = CARTESIAN_POINT('',(9.962042494823,0.877220953439,-0.399887269714
    ));
#397 = CARTESIAN_POINT('',(9.968971917955,0.796263869714,-0.33951526126)
  );
#398 = CARTESIAN_POINT('',(9.97557253399,0.708712220676,-0.285134282205)
  );
#399 = CARTESIAN_POINT('',(9.981573511394,0.614919371291,-0.237725572415
    ));
#400 = CARTESIAN_POINT('',(9.990223321868,0.4473069353,-0.171363114384)
  );
#401 = CARTESIAN_POINT('',(9.993330588733,0.376585741878,-0.148166194873
    ));
#402 = CARTESIAN_POINT('',(9.995933260826,0.303648928901,-0.129152017277
    ));
#403 = CARTESIAN_POINT('',(9.997948600515,0.228986458656,-0.114650672468
    ));
#404 = CARTESIAN_POINT('',(9.999315553896,0.153124780768,-0.104891149671
    ));
#405 = CARTESIAN_POINT('',(10.,7.661149265726E-02,-1.E-01));
#406 = CARTESIAN_POINT('',(10.,2.1E-16,-1.E-01));
#407 = ORIENTED_EDGE('',*,*,#408,.T.);
#408 = EDGE_CURVE('',#384,#409,#411,.T.);
#409 = VERTEX_POINT('',#410);
#410 = CARTESIAN_POINT('',(10.,0.,-2.9));
#411 = B_SPLINE_CURVE_WITH_KNOTS('',7,(#412,#413,#414,#415,#416,#417,
    #418,#419,#420,#421,#422,#423,#424,#425,#426,#427,#428,#429,#430,
    #431,#432,#433,#434,#435,#436,#437),.UNSPECIFIED.,.F.,.F.,(8,6,6,6,8
    ),(0.,0.259233249005,0.500026793407,0.740841771471,1.),
  .UNSPECIFIED.);
#412 = CARTESIAN_POINT('',(10.,-1.11E-15,-1.E-01));
#413 = CARTESIAN_POINT('',(10.,-0.190635546013,-1.E-01));
#414 = CARTESIAN_POINT('',(9.99575997734,-0.376798379062,-0.130284696226
    ));
#415 = CARTESIAN_POINT('',(9.987639043286,-0.552869533635,
    -0.188297741018));
#416 = CARTESIAN_POINT('',(9.976717520861,-0.714070276914,-0.27033710015
    ));
#417 = CARTESIAN_POINT('',(9.96454544228,-0.856667749464,-0.371607132969
    ));
#418 = CARTESIAN_POINT('',(9.952538717575,-0.978348518018,
    -0.486279899707));
#419 = CARTESIAN_POINT('',(9.931532089328,-1.171949070345,
    -0.720302766395));
#420 = CARTESIAN_POINT('',(9.922163217262,-1.24878272688,-0.841145699404
    ));
#421 = CARTESIAN_POINT('',(9.914146162441,-1.309628935861,
    -0.967758376611));
#422 = CARTESIAN_POINT('',(9.90788989437,-1.354914097307,-1.0983393996)
  );
#423 = CARTESIAN_POINT('',(9.903639753547,-1.384972827377,
    -1.231419161805));
#424 = CARTESIAN_POINT('',(9.901515035589,-1.4,-1.365713912918));
#425 = CARTESIAN_POINT('',(9.901515035589,-1.4,-1.634298040237));
#426 = CARTESIAN_POINT('',(9.903640130875,-1.384970160413,
    -1.768589139922));
#427 = CARTESIAN_POINT('',(9.907890140904,-1.354912335546,
    -1.901660688283));
#428 = CARTESIAN_POINT('',(9.914145916786,-1.309630366842,
    -2.032236162476));
#429 = CARTESIAN_POINT('',(9.922162754959,-1.248786389021,-2.15884807891
    ));
#430 = CARTESIAN_POINT('',(9.931531765376,-1.171952055942,
    -2.279693624638));
#431 = CARTESIAN_POINT('',(9.952534945479,-0.978383282275,
    -2.513678077525));
#432 = CARTESIAN_POINT('',(9.964542600623,-0.85670155308,-2.628374489201
    ));
#433 = CARTESIAN_POINT('',(9.97671905319,-0.714067881061,-2.729680802658
    ));
#434 = CARTESIAN_POINT('',(9.987644027642,-0.552815610009,
    -2.811737778665));
#435 = CARTESIAN_POINT('',(9.995763498341,-0.376708006593,
    -2.869740461744));
#436 = CARTESIAN_POINT('',(10.,-0.190556349915,-2.9));
#437 = CARTESIAN_POINT('',(10.,0.,-2.9));
#438 = ORIENTED_EDGE('',*,*,#439,.T.);
#439 = EDGE_CURVE('',#409,#382,#440,.T.);
#440 = B_SPLINE_CURVE_WITH_KNOTS('',7,(#441,#442,#443,#444,#445,#446,
    #447,#448,#449,#450,#451,#452,#453,#454),.UNSPECIFIED.,.F.,.F.,(8,6,
    8),(0.,0.4580737268,1.),.UNSPECIFIED.);
#441 = CARTESIAN_POINT('',(10.,1.11E-15,-2.9));
#442 = CARTESIAN_POINT('',(10.,0.167747739612,-2.9));
#443 = CARTESIAN_POINT('',(9.996717003785,0.332690941998,-2.876550683554
    ));
#444 = CARTESIAN_POINT('',(9.990349183427,0.490676962249,-2.831062723813
    ));
#445 = CARTESIAN_POINT('',(9.981567826941,0.637973209536,-2.765922651769
    ));
#446 = CARTESIAN_POINT('',(9.971407440037,0.77150280057,-2.684434336093)
  );
#447 = CARTESIAN_POINT('',(9.960910095179,0.889121466665,-2.590777520658
    ));
#448 = CARTESIAN_POINT('',(9.939012447563,1.109234564399,-2.370664422924
    ));
#449 = CARTESIAN_POINT('',(9.927557193253,1.207446233009,-2.238915457417
    ));
#450 = CARTESIAN_POINT('',(9.917530549097,1.28505205314,-2.098587393592)
  );
#451 = CARTESIAN_POINT('',(9.909618525285,1.342689239539,-1.952487144987
    ));
#452 = CARTESIAN_POINT('',(9.904216270258,1.38089518428,-1.802814544181)
  );
#453 = CARTESIAN_POINT('',(9.901515035589,1.4,-1.651413912999));
#454 = CARTESIAN_POINT('',(9.901515035589,1.4,-1.5));
#455 = FACE_BOUND('',#456,.F.);
#456 = EDGE_LOOP('',(#457));
#457 = ORIENTED_EDGE('',*,*,#458,.F.);
#458 = EDGE_CURVE('',#459,#459,#461,.T.);
#459 = VERTEX_POINT('',#460);
#460 = CARTESIAN_POINT('',(1.25,9.921567416492,-1.5));
#461 = B_SPLINE_CURVE_WITH_KNOTS('',7,(#462,#463,#464,#465,#466,#467,
    #468,#469,#470,#471,#472,#473,#474,#475,#476,#477,#478,#479,#480,
    #481,#482,#483,#484,#485,#486,#487,#488,#489,#490,#491,#492,#493,
    #494,#495,#496,#497,#498,#499,#500,#501,#502,#503,#504,#505),
  .UNSPECIFIED.,.T.,.F.,(8,6,6,6,6,6,6,8),(0.,0.151170084297,
    0.287095302005,0.424410363586,0.587039539546,0.713643207595,
    0.839624994593,1.),.UNSPECIFIED.);
#462 = CARTESIAN_POINT('',(1.25,9.921567416492,-1.5));
#463 = CARTESIAN_POINT('',(1.25,9.921567416492,-1.349612408282));
#464 = CARTESIAN_POINT('',(1.228891782564,9.924226705511,-1.199163632864
    ));
#465 = CARTESIAN_POINT('',(1.186641228027,9.929550273182,-1.050848285353
    ));
#466 = CARTESIAN_POINT('',(1.12283106801,9.937300907635,-0.907068137573)
  );
#467 = CARTESIAN_POINT('',(1.036883825711,9.946979307413,-0.770740945402
    ));
#468 = CARTESIAN_POINT('',(0.928225270044,9.957699839883,-0.64559944147)
  );
#469 = CARTESIAN_POINT('',(0.678590407731,9.977653686302,-0.439083523141
    ));
#470 = CARTESIAN_POINT('',(0.538792120279,9.9871819351,-0.351932070133)
  );
#471 = CARTESIAN_POINT('',(0.380285368992,9.995488843209,-0.284419042946
    ));
#472 = CARTESIAN_POINT('',(0.208722415229,10.000979987875,
    -0.242681652581));
#473 = CARTESIAN_POINT('',(3.134647356825E-02,10.002562379867,
    -0.229951708327));
#474 = CARTESIAN_POINT('',(-0.144156959184,10.000351810964,
    -0.24646837689));
#475 = CARTESIAN_POINT('',(-0.47927233189,9.9899292983,-0.332511380289)
  );
#476 = CARTESIAN_POINT('',(-0.633848203477,9.981808020268,-0.40133077709
    ));
#477 = CARTESIAN_POINT('',(-0.771567376741,9.97187047182,-0.490711032895
    ));
#478 = CARTESIAN_POINT('',(-0.890693284493,9.961375681813,
    -0.596149977835));
#479 = CARTESIAN_POINT('',(-0.990303584248,9.95141218043,-0.713423808914
    ));
#480 = CARTESIAN_POINT('',(-1.070222387532,9.942754648014,
    -0.838545022772));
#481 = CARTESIAN_POINT('',(-1.203055867054,9.927633704604,
    -1.120830535773));
#482 = CARTESIAN_POINT('',(-1.250319332907,9.921636595156,
    -1.283991553914));
#483 = CARTESIAN_POINT('',(-1.271671564515,9.918733202349,-1.45294522174
    ));
#484 = CARTESIAN_POINT('',(-1.266607431934,9.919415538242,
    -1.623440446726));
#485 = CARTESIAN_POINT('',(-1.235150536581,9.923616688586,
    -1.791285182031));
#486 = CARTESIAN_POINT('',(-1.177778598962,9.930745641525,
    -1.952315691258));
#487 = CARTESIAN_POINT('',(-1.0312402424,9.946894383009,-2.21886797231)
  );
#488 = CARTESIAN_POINT('',(-0.950611791992,9.95529093995,-2.331185819403
    ));
#489 = CARTESIAN_POINT('',(-0.853155651754,9.964602633139,
    -2.435939203981));
#490 = CARTESIAN_POINT('',(-0.739178987161,9.974157046811,
    -2.529793389674));
#491 = CARTESIAN_POINT('',(-0.609604290151,9.983063743066,-2.60930408435
    ));
#492 = CARTESIAN_POINT('',(-0.466001521351,9.990342037321,
    -2.670895984724));
#493 = CARTESIAN_POINT('',(-0.156485244825,9.999968385662,
    -2.750366257359));
#494 = CARTESIAN_POINT('',(5.924766717661E-03,10.002234559747,
    -2.767587484891));
#495 = CARTESIAN_POINT('',(0.170674041709,10.001276376808,
    -2.759709001487));
#496 = CARTESIAN_POINT('',(0.331380907589,9.996938146052,-2.726625121223
    ));
#497 = CARTESIAN_POINT('',(0.481954273442,9.989974893047,-2.67065923748)
  );
#498 = CARTESIAN_POINT('',(0.617398219925,9.981616165453,-2.596518908384
    ));
#499 = CARTESIAN_POINT('',(0.884097091589,9.961967851948,-2.40275083595)
  );
#500 = CARTESIAN_POINT('',(1.007785773621,9.950231135056,-2.273562516233
    ));
#501 = CARTESIAN_POINT('',(1.105575889579,9.939391662358,-2.130469412241
    ));
#502 = CARTESIAN_POINT('',(1.178098544871,9.930626910433,-1.978215621101
    ));
#503 = CARTESIAN_POINT('',(1.226056189354,9.924583870031,-1.820463574158
    ));
#504 = CARTESIAN_POINT('',(1.25,9.921567416492,-1.660171177131));
#505 = CARTESIAN_POINT('',(1.25,9.921567416492,-1.5));
#506 = CYLINDRICAL_SURFACE('',#507,10.);
#507 = AXIS2_PLACEMENT_3D('',#508,#509,#510);
#508 = CARTESIAN_POINT('',(0.,0.,-12.));
#509 = DIRECTION('',(-0.,-0.,-1.));
#510 = DIRECTION('',(1.,0.,0.));
#511 = ADVANCED_FACE('',(#512,#523),#526,.T.);
#512 = FACE_BOUND('',#513,.T.);
#513 = EDGE_LOOP('',(#514,#515,#516,#522));
#514 = ORIENTED_EDGE('',*,*,#181,.F.);
#515 = ORIENTED_EDGE('',*,*,#298,.F.);
#516 = ORIENTED_EDGE('',*,*,#517,.T.);
#517 = EDGE_CURVE('',#299,#289,#518,.T.);
#518 = LINE('',#519,#520);
#519 = CARTESIAN_POINT('',(4.35889894354,-9.,24.));
#520 = VECTOR('',#521,1.);
#521 = DIRECTION('',(-1.,0.,0.));
#522 = ORIENTED_EDGE('',*,*,#288,.F.);
#523 = FACE_BOUND('',#524,.T.);
#524 = EDGE_LOOP('',(#525));
#525 = ORIENTED_EDGE('',*,*,#264,.F.);
#526 = PLANE('',#527);
#527 = AXIS2_PLACEMENT_3D('',#528,#529,#530);
#528 = CARTESIAN_POINT('',(-1.881E-14,-9.,9.));
#529 = DIRECTION('',(-4.6E-16,-1.,-2.5E-16));
#530 = DIRECTION('',(-1.,4.6E-16,0.));
#531 = ADVANCED_FACE('',(#532),#612,.F.);
#532 = FACE_BOUND('',#533,.F.);
#533 = EDGE_LOOP('',(#534,#535,#542,#561,#592,#609,#610,#611));
#534 = ORIENTED_EDGE('',*,*,#381,.F.);
#535 = ORIENTED_EDGE('',*,*,#536,.F.);
#536 = EDGE_CURVE('',#537,#382,#539,.T.);
#537 = VERTEX_POINT('',#538);
#538 = CARTESIAN_POINT('',(5.937171043519,1.4,-1.5));
#539 = B_SPLINE_CURVE_WITH_KNOTS('',1,(#540,#541),.UNSPECIFIED.,.F.,.F.,
  (2,2),(-77.49088394131,77.490883941318),.PIECEWISE_BEZIER_KNOTS.);
#540 = CARTESIAN_POINT('',(-77.49088394131,1.4,-1.5));
#541 = CARTESIAN_POINT('',(77.490883941318,1.4,-1.5));
#542 = ORIENTED_EDGE('',*,*,#543,.T.);
#543 = EDGE_CURVE('',#537,#544,#546,.T.);
#544 = VERTEX_POINT('',#545);
#545 = CARTESIAN_POINT('',(6.1,0.,-0.1));
#546 = B_SPLINE_CURVE_WITH_KNOTS('',7,(#547,#548,#549,#550,#551,#552,
    #553,#554,#555,#556,#557,#558,#559,#560),.UNSPECIFIED.,.F.,.F.,(8,6,
    8),(0.,0.521161416404,1.),.UNSPECIFIED.);
#547 = CARTESIAN_POINT('',(5.937171043519,1.4,-1.5));
#548 = CARTESIAN_POINT('',(5.937171043519,1.4,-1.353845108101));
#549 = CARTESIAN_POINT('',(5.941368508763,1.382199166888,-1.207789502675
    ));
#550 = CARTESIAN_POINT('',(5.949753649466,1.346639495182,-1.063392303843
    ));
#551 = CARTESIAN_POINT('',(5.962027196843,1.293083457839,-0.922330295296
    ));
#552 = CARTESIAN_POINT('',(5.977575440068,1.221145387122,-0.786579630642
    ));
#553 = CARTESIAN_POINT('',(5.995383622,1.130392237463,-0.65859768127));
#554 = CARTESIAN_POINT('',(6.031147525537,0.919639569257,-0.43416888457)
  );
#555 = CARTESIAN_POINT('',(6.049351339623,0.800387427641,-0.333634278364
    ));
#556 = CARTESIAN_POINT('',(6.067198826436,0.663577154032,-0.245707428713
    ));
#557 = CARTESIAN_POINT('',(6.082760137578,0.511470527534,-0.175121580564
    ));
#558 = CARTESIAN_POINT('',(6.09411797644,0.347382824519,-0.125627712132)
  );
#559 = CARTESIAN_POINT('',(6.1,0.175366554932,-1.E-01));
#560 = CARTESIAN_POINT('',(6.1,2.1E-16,-1.E-01));
#561 = ORIENTED_EDGE('',*,*,#562,.T.);
#562 = EDGE_CURVE('',#544,#563,#565,.T.);
#563 = VERTEX_POINT('',#564);
#564 = CARTESIAN_POINT('',(6.1,0.,-2.9));
#565 = B_SPLINE_CURVE_WITH_KNOTS('',7,(#566,#567,#568,#569,#570,#571,
    #572,#573,#574,#575,#576,#577,#578,#579,#580,#581,#582,#583,#584,
    #585,#586,#587,#588,#589,#590,#591),.UNSPECIFIED.,.F.,.F.,(8,6,6,6,8
    ),(0.,0.239552310575,0.50003074682,0.760503208743,1.),
  .UNSPECIFIED.);
#566 = CARTESIAN_POINT('',(6.1,-4.4E-16,-1.E-01));
#567 = CARTESIAN_POINT('',(6.1,-0.17559025125,-1.E-01));
#568 = CARTESIAN_POINT('',(6.094102942367,-0.347632829169,
    -0.125693117432));
#569 = CARTESIAN_POINT('',(6.082739481653,-0.511615732262,-0.17521166473
    ));
#570 = CARTESIAN_POINT('',(6.067192562799,-0.663577716698,
    -0.245749221958));
#571 = CARTESIAN_POINT('',(6.049364271524,-0.800286581034,
    -0.333581688611));
#572 = CARTESIAN_POINT('',(6.031165230124,-0.919535238109,
    -0.434057783182));
#573 = CARTESIAN_POINT('',(5.9953820318,-1.130401608335,-0.658607660234)
  );
#574 = CARTESIAN_POINT('',(5.977574279012,-1.221149790445,
    -0.786589655237));
#575 = CARTESIAN_POINT('',(5.962027463952,-1.293082072226,-0.92233261624
    ));
#576 = CARTESIAN_POINT('',(5.94975428733,-1.346636830821,-1.063386902647
    ));
#577 = CARTESIAN_POINT('',(5.941368701158,-1.382198343564,
    -1.207782278211));
#578 = CARTESIAN_POINT('',(5.937171043519,-1.4,-1.353841755821));
#579 = CARTESIAN_POINT('',(5.937171043519,-1.4,-1.646154891899));
#580 = CARTESIAN_POINT('',(5.941368508763,-1.382199166888,
    -1.792210497325));
#581 = CARTESIAN_POINT('',(5.949753649466,-1.346639495182,
    -1.936607696157));
#582 = CARTESIAN_POINT('',(5.962027196843,-1.293083457839,
    -2.077669704705));
#583 = CARTESIAN_POINT('',(5.977575440068,-1.221145387122,
    -2.213420369358));
#584 = CARTESIAN_POINT('',(5.995383622,-1.130392237463,-2.34140231873));
#585 = CARTESIAN_POINT('',(6.031160188014,-0.919564950699,
    -2.565910576124));
#586 = CARTESIAN_POINT('',(6.04936093595,-0.80031327674,-2.666405495841)
  );
#587 = CARTESIAN_POINT('',(6.067194903621,-0.663573357761,
    -2.754265220272));
#588 = CARTESIAN_POINT('',(6.082745673812,-0.511569993959,
    -2.824815240281));
#589 = CARTESIAN_POINT('',(6.094107215185,-0.347559218634,
    -2.874325516135));
#590 = CARTESIAN_POINT('',(6.1,-0.175526581043,-2.9));
#591 = CARTESIAN_POINT('',(6.1,-8.9E-16,-2.9));
#592 = ORIENTED_EDGE('',*,*,#593,.T.);
#593 = EDGE_CURVE('',#563,#537,#594,.T.);
#594 = B_SPLINE_CURVE_WITH_KNOTS('',7,(#595,#596,#597,#598,#599,#600,
    #601,#602,#603,#604,#605,#606,#607,#608),.UNSPECIFIED.,.F.,.F.,(8,6,
    8),(0.,0.460045149199,1.),.UNSPECIFIED.);
#595 = CARTESIAN_POINT('',(6.1,-1.3E-16,-2.9));
#596 = CARTESIAN_POINT('',(6.1,0.168025498597,-2.9));
#597 = CARTESIAN_POINT('',(6.094600145169,0.333029417916,-2.876472982084
    ));
#598 = CARTESIAN_POINT('',(6.084151340304,0.490942969626,-2.830941226658
    ));
#599 = CARTESIAN_POINT('',(6.069743373656,0.638130373483,-2.765816697977
    ));
#600 = CARTESIAN_POINT('',(6.053028491682,0.771575050713,-2.684373215258
    ));
#601 = CARTESIAN_POINT('',(6.035715195319,0.889144828592,-2.59075415873)
  );
#602 = CARTESIAN_POINT('',(5.999677330985,1.108263898197,-2.371635089125
    ));
#603 = CARTESIAN_POINT('',(5.980725463173,1.206552527214,-2.240352395482
    ));
#604 = CARTESIAN_POINT('',(5.963980487878,1.284573424023,-2.099884137944
    ));
#605 = CARTESIAN_POINT('',(5.950716693268,1.34255482236,-1.953296564348)
  );
#606 = CARTESIAN_POINT('',(5.941675002556,1.38089950561,-1.803105890236)
  );
#607 = CARTESIAN_POINT('',(5.937171043519,1.4,-1.651396170104));
#608 = CARTESIAN_POINT('',(5.937171043519,1.4,-1.5));
#609 = ORIENTED_EDGE('',*,*,#536,.T.);
#610 = ORIENTED_EDGE('',*,*,#439,.F.);
#611 = ORIENTED_EDGE('',*,*,#408,.F.);
#612 = CYLINDRICAL_SURFACE('',#613,1.4);
#613 = AXIS2_PLACEMENT_3D('',#614,#615,#616);
#614 = CARTESIAN_POINT('',(0.,0.,-1.5));
#615 = DIRECTION('',(1.,0.,0.));
#616 = DIRECTION('',(0.,1.,0.));
#617 = ADVANCED_FACE('',(#618),#676,.F.);
#618 = FACE_BOUND('',#619,.F.);
#619 = EDGE_LOOP('',(#620,#669,#674,#675));
#620 = ORIENTED_EDGE('',*,*,#621,.F.);
#621 = EDGE_CURVE('',#622,#622,#624,.T.);
#622 = VERTEX_POINT('',#623);
#623 = CARTESIAN_POINT('',(1.25,5.970552738231,-1.5));
#624 = B_SPLINE_CURVE_WITH_KNOTS('',7,(#625,#626,#627,#628,#629,#630,
    #631,#632,#633,#634,#635,#636,#637,#638,#639,#640,#641,#642,#643,
    #644,#645,#646,#647,#648,#649,#650,#651,#652,#653,#654,#655,#656,
    #657,#658,#659,#660,#661,#662,#663,#664,#665,#666,#667,#668),
  .UNSPECIFIED.,.T.,.F.,(8,6,6,6,6,6,6,8),(0.,0.150708805786,
    0.28657433422,0.423645052814,0.586517652667,0.713330961408,
    0.839634369757,1.),.UNSPECIFIED.);
#625 = CARTESIAN_POINT('',(1.25,5.970552738231,-1.5));
#626 = CARTESIAN_POINT('',(1.25,5.970552738231,-1.349214835607));
#627 = CARTESIAN_POINT('',(1.228779965782,5.974995266877,-1.198420678936
    ));
#628 = CARTESIAN_POINT('',(1.186332571935,5.983882681626,-1.049902430741
    ));
#629 = CARTESIAN_POINT('',(1.1223227317,5.996786388561,-0.906119336446)
  );
#630 = CARTESIAN_POINT('',(1.036284434008,6.012817113471,-0.769996070663
    ));
#631 = CARTESIAN_POINT('',(0.92775998971,6.030482148732,-0.645214528102)
  );
#632 = CARTESIAN_POINT('',(0.678700176491,6.063295385105,-0.439174331756
    ));
#633 = CARTESIAN_POINT('',(0.538921965228,6.078973362372,-0.351986347036
    ));
#634 = CARTESIAN_POINT('',(0.380406995847,6.092610470462,-0.284456375317
    ));
#635 = CARTESIAN_POINT('',(0.208862826832,6.10159480249,-0.242712718524)
  );
#636 = CARTESIAN_POINT('',(3.149851841331E-02,6.104199740654,
    -0.229949400653));
#637 = CARTESIAN_POINT('',(-0.144049578906,6.100585928972,
    -0.246440806321));
#638 = CARTESIAN_POINT('',(-0.47915484562,6.083486396834,-0.332481214942
    ));
#639 = CARTESIAN_POINT('',(-0.633569704221,6.070168794479,
    -0.401218609018));
#640 = CARTESIAN_POINT('',(-0.771160952067,6.053855135217,
    -0.490454724075));
#641 = CARTESIAN_POINT('',(-0.890251722993,6.036571729409,
    -0.595738817638));
#642 = CARTESIAN_POINT('',(-0.989942793429,6.020099359759,-0.71293100121
    ));
#643 = CARTESIAN_POINT('',(-1.070036400328,6.005736861836,
    -0.838149779845));
#644 = CARTESIAN_POINT('',(-1.203513245972,5.980551493458,-1.12180251545
    ));
#645 = CARTESIAN_POINT('',(-1.250361794584,5.970653012309,
    -1.284879937965));
#646 = CARTESIAN_POINT('',(-1.271475281853,5.965888803586,
    -1.453137232459));
#647 = CARTESIAN_POINT('',(-1.266538146233,5.966983795662,
    -1.623009324778));
#648 = CARTESIAN_POINT('',(-1.235329108632,5.973928738005,
    -1.790686331306));
#649 = CARTESIAN_POINT('',(-1.177977513013,5.9857679606,-1.951953867942)
  );
#650 = CARTESIAN_POINT('',(-1.031075178534,6.012583248003,
    -2.219168222369));
#651 = CARTESIAN_POINT('',(-0.950313281976,6.026494460325,-2.33155183026
    ));
#652 = CARTESIAN_POINT('',(-0.852808626498,6.041873311611,
    -2.436235057201));
#653 = CARTESIAN_POINT('',(-0.738876984486,6.057599786589,
    -2.529968647273));
#654 = CARTESIAN_POINT('',(-0.609414116913,6.072222296954,
    -2.609374279129));
#655 = CARTESIAN_POINT('',(-0.465934529496,6.084160994469,
    -2.670913185309));
#656 = CARTESIAN_POINT('',(-0.156413714143,6.099955019975,
    -2.750384623317));
#657 = CARTESIAN_POINT('',(6.043052212795E-03,6.103663963507,
    -2.767595148942));
#658 = CARTESIAN_POINT('',(0.170806234121,6.102084569031,-2.759691709589
    ));
#659 = CARTESIAN_POINT('',(0.331518724422,6.094982479877,-2.726592369114
    ));
#660 = CARTESIAN_POINT('',(0.482103265044,6.083555132547,-2.670601576754
    ));
#661 = CARTESIAN_POINT('',(0.617520414973,6.069811301678,-2.596430128485
    ));
#662 = CARTESIAN_POINT('',(0.883552885787,6.037533281594,-2.403146224609
    ));
#663 = CARTESIAN_POINT('',(1.0070743372,6.018216191107,-2.274365262353)
  );
#664 = CARTESIAN_POINT('',(1.104962539749,6.000277043064,-2.131522287617
    ));
#665 = CARTESIAN_POINT('',(1.17771893253,5.985686485521,-1.97928989602)
  );
#666 = CARTESIAN_POINT('',(1.225915242897,5.975594919167,-1.821325193088
    ));
#667 = CARTESIAN_POINT('',(1.25,5.970552738231,-1.660641575963));
#668 = CARTESIAN_POINT('',(1.25,5.970552738231,-1.5));
#669 = ORIENTED_EDGE('',*,*,#670,.F.);
#670 = EDGE_CURVE('',#459,#622,#671,.T.);
#671 = B_SPLINE_CURVE_WITH_KNOTS('',1,(#672,#673),.UNSPECIFIED.,.F.,.F.,
  (2,2),(-77.49088394131,77.490883941318),.PIECEWISE_BEZIER_KNOTS.);
#672 = CARTESIAN_POINT('',(1.25,77.490883941318,-1.5));
#673 = CARTESIAN_POINT('',(1.25,-77.49088394131,-1.5));
#674 = ORIENTED_EDGE('',*,*,#458,.T.);
#675 = ORIENTED_EDGE('',*,*,#670,.T.);
#676 = CYLINDRICAL_SURFACE('',#677,1.25);
#677 = AXIS2_PLACEMENT_3D('',#678,#679,#680);
#678 = CARTESIAN_POINT('',(0.,2.33E-15,-1.5));
#679 = DIRECTION('',(0.,-1.,2.2E-16));
#680 = DIRECTION('',(1.,0.,0.));
#681 = ADVANCED_FACE('',(#682),#754,.F.);
#682 = FACE_BOUND('',#683,.F.);
#683 = EDGE_LOOP('',(#684,#747,#752,#753));
#684 = ORIENTED_EDGE('',*,*,#685,.F.);
#685 = EDGE_CURVE('',#686,#686,#688,.T.);
#686 = VERTEX_POINT('',#687);
#687 = CARTESIAN_POINT('',(-5.937171043519,1.4,-1.5));
#688 = B_SPLINE_CURVE_WITH_KNOTS('',8,(#689,#690,#691,#692,#693,#694,
    #695,#696,#697,#698,#699,#700,#701,#702,#703,#704,#705,#706,#707,
    #708,#709,#710,#711,#712,#713,#714,#715,#716,#717,#718,#719,#720,
    #721,#722,#723,#724,#725,#726,#727,#728,#729,#730,#731,#732,#733,
    #734,#735,#736,#737,#738,#739,#740,#741,#742,#743,#744,#745,#746),
  .UNSPECIFIED.,.T.,.F.,(9,7,7,7,7,7,7,7,9),(0.,0.129020251787,
    0.21812288771,0.329088613402,0.426649054555,0.57023436567,
    0.700296947099,0.797140998241,1.),.UNSPECIFIED.);
#689 = CARTESIAN_POINT('',(-5.937171043519,1.4,-1.5));
#690 = CARTESIAN_POINT('',(-5.937171043519,1.4,-1.372114469588));
#691 = CARTESIAN_POINT('',(-5.940319142452,1.386649375166,
    -1.244303404032));
#692 = CARTESIAN_POINT('',(-5.946609221702,1.359974372071,
    -1.117541253405));
#693 = CARTESIAN_POINT('',(-5.955890423154,1.31986147651,-0.992861299569
    ));
#694 = CARTESIAN_POINT('',(-5.967857788052,1.26610668132,-0.87142379605)
  );
#695 = CARTESIAN_POINT('',(-5.982027485551,1.198457099707,
    -0.754584143299));
#696 = CARTESIAN_POINT('',(-5.997713467828,1.116662717579,
    -0.643977227573));
#697 = CARTESIAN_POINT('',(-6.025285487337,0.954183902217,
    -0.470954862869));
#698 = CARTESIAN_POINT('',(-6.036905972908,0.880629869487,
    -0.403838427226));
#699 = CARTESIAN_POINT('',(-6.048542258104,0.800025528546,
    -0.341362837133));
#700 = CARTESIAN_POINT('',(-6.059792350574,0.71264608536,-0.284568696712
    ));
#701 = CARTESIAN_POINT('',(-6.07022035103,0.618899005555,-0.234458370196
    ));
#702 = CARTESIAN_POINT('',(-6.079386147792,0.519317237802,
    -0.191997087409));
#703 = CARTESIAN_POINT('',(-6.086878307672,0.414557058525,
    -0.158115906414));
#704 = CARTESIAN_POINT('',(-6.099164646513,0.169460311344,
    -0.103330292547));
#705 = CARTESIAN_POINT('',(-6.1027540008,2.85247146694E-02,
    -8.805742113933E-02));
#706 = CARTESIAN_POINT('',(-6.102536770864,-0.114383112175,
    -8.921812495037E-02));
#707 = CARTESIAN_POINT('',(-6.098317841024,-0.256016098257,
    -0.107105366421));
#708 = CARTESIAN_POINT('',(-6.090424239159,-0.39314728173,
    -0.141041585579));
#709 = CARTESIAN_POINT('',(-6.079647454284,-0.522788577746,
    -0.189393778376));
#710 = CARTESIAN_POINT('',(-6.067050549169,-0.642406556401,
    -0.249560067929));
#711 = CARTESIAN_POINT('',(-6.041959170584,-0.844891547214,
    -0.378060950562));
#712 = CARTESIAN_POINT('',(-6.02947825214,-0.931727551892,-0.44533991691
    ));
#713 = CARTESIAN_POINT('',(-6.016761070524,-1.010535310881,
    -0.518621183754));
#714 = CARTESIAN_POINT('',(-6.004260129654,-1.081282512211,
    -0.596900675535));
#715 = CARTESIAN_POINT('',(-5.992363315374,-1.14400394365,
    -0.679302909477));
#716 = CARTESIAN_POINT('',(-5.981388898335,-1.198775523161,
    -0.765059751521));
#717 = CARTESIAN_POINT('',(-5.971587185301,-1.245693164213,
    -0.853491879435));
#718 = CARTESIAN_POINT('',(-5.950729589817,-1.342495373801,
    -1.077188587187));
#719 = CARTESIAN_POINT('',(-5.941215483738,-1.38355918645,
    -1.215375905406));
#720 = CARTESIAN_POINT('',(-5.935239054516,-1.408197789715,-1.3568154268
    ));
#721 = CARTESIAN_POINT('',(-5.933193229466,-1.41643867498,
    -1.499918966511));
#722 = CARTESIAN_POINT('',(-5.935226298391,-1.408245405174,
    -1.643111269035));
#723 = CARTESIAN_POINT('',(-5.941215581,-1.383568694411,-1.784741475411)
  );
#724 = CARTESIAN_POINT('',(-5.950749628973,-1.342402370051,
    -1.923026331798));
#725 = CARTESIAN_POINT('',(-5.974380264745,-1.232730200099,
    -2.176463763182));
#726 = CARTESIAN_POINT('',(-5.988064464307,-1.166690816903,
    -2.293662479872));
#727 = CARTESIAN_POINT('',(-6.003762343112,-1.086435977875,
    -2.405906326401));
#728 = CARTESIAN_POINT('',(-6.020802948599,-0.991803302599,
    -2.511293866839));
#729 = CARTESIAN_POINT('',(-6.038283097822,-0.882814540912,
    -2.607694217461));
#730 = CARTESIAN_POINT('',(-6.055081713225,-0.75973087143,
    -2.692711328028));
#731 = CARTESIAN_POINT('',(-6.069924907599,-0.623157170838,
    -2.763617107708));
#732 = CARTESIAN_POINT('',(-6.090184849269,-0.36334484283,
    -2.857155301439));
#733 = CARTESIAN_POINT('',(-6.097007036161,-0.246043167277,
    -2.887335399301));
#734 = CARTESIAN_POINT('',(-6.10140042854,-0.124217391071,
    -2.906113865844));
#735 = CARTESIAN_POINT('',(-6.102921331139,-4.031488887546E-05,
    -2.91249346975));
#736 = CARTESIAN_POINT('',(-6.101404569418,0.124166339353,
    -2.906130627941));
#737 = CARTESIAN_POINT('',(-6.097008336712,0.24605929853,-2.887342870631
    ));
#738 = CARTESIAN_POINT('',(-6.090180087385,0.363405908964,
    -2.857133316278));
#739 = CARTESIAN_POINT('',(-6.063435066886,0.706382515296,
    -2.733654140004));
#740 = CARTESIAN_POINT('',(-6.037568185335,0.907421134071,
    -2.608457327847));
#741 = CARTESIAN_POINT('',(-6.008861672599,1.074005592598,
    -2.454204581221));
#742 = CARTESIAN_POINT('',(-5.981936593858,1.205840023023,
    -2.279820583946));
#743 = CARTESIAN_POINT('',(-5.959927459254,1.303480830644,
    -2.092270065585));
#744 = CARTESIAN_POINT('',(-5.944739462536,1.367906263247,
    -1.896977776009));
#745 = CARTESIAN_POINT('',(-5.937171043519,1.4,-1.698279957666));
#746 = CARTESIAN_POINT('',(-5.937171043519,1.4,-1.5));
#747 = ORIENTED_EDGE('',*,*,#748,.F.);
#748 = EDGE_CURVE('',#325,#686,#749,.T.);
#749 = B_SPLINE_CURVE_WITH_KNOTS('',1,(#750,#751),.UNSPECIFIED.,.F.,.F.,
  (2,2),(-77.49088394131,77.490883941318),.PIECEWISE_BEZIER_KNOTS.);
#750 = CARTESIAN_POINT('',(-77.49088394131,1.4,-1.5));
#751 = CARTESIAN_POINT('',(77.490883941318,1.4,-1.5));
#752 = ORIENTED_EDGE('',*,*,#324,.T.);
#753 = ORIENTED_EDGE('',*,*,#748,.T.);
#754 = CYLINDRICAL_SURFACE('',#755,1.4);
#755 = AXIS2_PLACEMENT_3D('',#756,#757,#758);
#756 = CARTESIAN_POINT('',(0.,0.,-1.5));
#757 = DIRECTION('',(1.,0.,0.));
#758 = DIRECTION('',(0.,1.,0.));
#759 = ADVANCED_FACE('',(#760),#801,.T.);
#760 = FACE_BOUND('',#761,.T.);
#761 = EDGE_LOOP('',(#762,#763,#771,#779,#787,#795));
#762 = ORIENTED_EDGE('',*,*,#240,.F.);
#763 = ORIENTED_EDGE('',*,*,#764,.T.);
#764 = EDGE_CURVE('',#241,#765,#767,.T.);
#765 = VERTEX_POINT('',#766);
#766 = CARTESIAN_POINT('',(-5.843586227652,-1.75,6.));
#767 = LINE('',#768,#769);
#768 = CARTESIAN_POINT('',(-5.843586227652,-1.75,4.));
#769 = VECTOR('',#770,1.);
#770 = DIRECTION('',(0.,0.,1.));
#771 = ORIENTED_EDGE('',*,*,#772,.F.);
#772 = EDGE_CURVE('',#773,#765,#775,.T.);
#773 = VERTEX_POINT('',#774);
#774 = CARTESIAN_POINT('',(-7.25,-1.75,6.));
#775 = LINE('',#776,#777);
#776 = CARTESIAN_POINT('',(-7.25,-1.75,6.));
#777 = VECTOR('',#778,1.);
#778 = DIRECTION('',(1.,0.,0.));
#779 = ORIENTED_EDGE('',*,*,#780,.F.);
#780 = EDGE_CURVE('',#781,#773,#783,.T.);
#781 = VERTEX_POINT('',#782);
#782 = CARTESIAN_POINT('',(-7.25,-1.75,24.));
#783 = LINE('',#784,#785);
#784 = CARTESIAN_POINT('',(-7.25,-1.75,20.));
#785 = VECTOR('',#786,1.);
#786 = DIRECTION('',(-0.,-0.,-1.));
#787 = ORIENTED_EDGE('',*,*,#788,.T.);
#788 = EDGE_CURVE('',#781,#789,#791,.T.);
#789 = VERTEX_POINT('',#790);
#790 = CARTESIAN_POINT('',(-4.683748498799,-1.75,24.));
#791 = LINE('',#792,#793);
#792 = CARTESIAN_POINT('',(-7.25,-1.75,24.));
#793 = VECTOR('',#794,1.);
#794 = DIRECTION('',(1.,0.,0.));
#795 = ORIENTED_EDGE('',*,*,#796,.F.);
#796 = EDGE_CURVE('',#232,#789,#797,.T.);
#797 = LINE('',#798,#799);
#798 = CARTESIAN_POINT('',(-4.683748498799,-1.75,20.));
#799 = VECTOR('',#800,1.);
#800 = DIRECTION('',(0.,0.,1.));
#801 = PLANE('',#802);
#802 = AXIS2_PLACEMENT_3D('',#803,#804,#805);
#803 = CARTESIAN_POINT('',(-5.966874249399,-1.75,14.));
#804 = DIRECTION('',(1.26E-15,1.,0.));
#805 = DIRECTION('',(1.,-1.26E-15,0.));
#806 = ADVANCED_FACE('',(#807),#826,.F.);
#807 = FACE_BOUND('',#808,.F.);
#808 = EDGE_LOOP('',(#809,#810,#811,#819));
#809 = ORIENTED_EDGE('',*,*,#796,.F.);
#810 = ORIENTED_EDGE('',*,*,#231,.T.);
#811 = ORIENTED_EDGE('',*,*,#812,.T.);
#812 = EDGE_CURVE('',#224,#813,#815,.T.);
#813 = VERTEX_POINT('',#814);
#814 = CARTESIAN_POINT('',(4.683748498799,-1.75,24.));
#815 = LINE('',#816,#817);
#816 = CARTESIAN_POINT('',(4.683748498799,-1.75,20.));
#817 = VECTOR('',#818,1.);
#818 = DIRECTION('',(0.,0.,1.));
#819 = ORIENTED_EDGE('',*,*,#820,.F.);
#820 = EDGE_CURVE('',#789,#813,#821,.T.);
#821 = CIRCLE('',#822,5.);
#822 = AXIS2_PLACEMENT_3D('',#823,#824,#825);
#823 = CARTESIAN_POINT('',(0.,0.,24.));
#824 = DIRECTION('',(0.,0.,1.));
#825 = DIRECTION('',(1.,0.,0.));
#826 = CYLINDRICAL_SURFACE('',#827,5.);
#827 = AXIS2_PLACEMENT_3D('',#828,#829,#830);
#828 = CARTESIAN_POINT('',(0.,0.,20.));
#829 = DIRECTION('',(0.,0.,1.));
#830 = DIRECTION('',(1.,0.,0.));
#831 = ADVANCED_FACE('',(#832),#866,.T.);
#832 = FACE_BOUND('',#833,.T.);
#833 = EDGE_LOOP('',(#834,#842,#843,#844,#852,#860));
#834 = ORIENTED_EDGE('',*,*,#835,.F.);
#835 = EDGE_CURVE('',#215,#836,#838,.T.);
#836 = VERTEX_POINT('',#837);
#837 = CARTESIAN_POINT('',(5.843586227652,-1.75,6.));
#838 = LINE('',#839,#840);
#839 = CARTESIAN_POINT('',(5.843586227652,-1.75,4.));
#840 = VECTOR('',#841,1.);
#841 = DIRECTION('',(0.,0.,1.));
#842 = ORIENTED_EDGE('',*,*,#223,.F.);
#843 = ORIENTED_EDGE('',*,*,#812,.T.);
#844 = ORIENTED_EDGE('',*,*,#845,.T.);
#845 = EDGE_CURVE('',#813,#846,#848,.T.);
#846 = VERTEX_POINT('',#847);
#847 = CARTESIAN_POINT('',(7.25,-1.75,24.));
#848 = LINE('',#849,#850);
#849 = CARTESIAN_POINT('',(4.683748498799,-1.75,24.));
#850 = VECTOR('',#851,1.);
#851 = DIRECTION('',(1.,0.,0.));
#852 = ORIENTED_EDGE('',*,*,#853,.F.);
#853 = EDGE_CURVE('',#854,#846,#856,.T.);
#854 = VERTEX_POINT('',#855);
#855 = CARTESIAN_POINT('',(7.25,-1.75,6.));
#856 = LINE('',#857,#858);
#857 = CARTESIAN_POINT('',(7.25,-1.75,20.));
#858 = VECTOR('',#859,1.);
#859 = DIRECTION('',(0.,0.,1.));
#860 = ORIENTED_EDGE('',*,*,#861,.F.);
#861 = EDGE_CURVE('',#836,#854,#862,.T.);
#862 = LINE('',#863,#864);
#863 = CARTESIAN_POINT('',(5.843586227652,-1.75,6.));
#864 = VECTOR('',#865,1.);
#865 = DIRECTION('',(1.,0.,0.));
#866 = PLANE('',#867);
#867 = AXIS2_PLACEMENT_3D('',#868,#869,#870);
#868 = CARTESIAN_POINT('',(5.966874249399,-1.75,14.));
#869 = DIRECTION('',(4.13E-15,1.,-5.8E-16));
#870 = DIRECTION('',(1.,-4.13E-15,0.));
#871 = ADVANCED_FACE('',(#872,#877),#912,.T.);
#872 = FACE_BOUND('',#873,.T.);
#873 = EDGE_LOOP('',(#874,#875,#876));
#874 = ORIENTED_EDGE('',*,*,#306,.T.);
#875 = ORIENTED_EDGE('',*,*,#315,.T.);
#876 = ORIENTED_EDGE('',*,*,#517,.F.);
#877 = FACE_BOUND('',#878,.F.);
#878 = EDGE_LOOP('',(#879,#888,#896,#902,#903,#904,#905,#911));
#879 = ORIENTED_EDGE('',*,*,#880,.T.);
#880 = EDGE_CURVE('',#89,#881,#883,.T.);
#881 = VERTEX_POINT('',#882);
#882 = CARTESIAN_POINT('',(-4.683748498799,1.75,24.));
#883 = CIRCLE('',#884,5.);
#884 = AXIS2_PLACEMENT_3D('',#885,#886,#887);
#885 = CARTESIAN_POINT('',(0.,0.,24.));
#886 = DIRECTION('',(0.,0.,1.));
#887 = DIRECTION('',(1.,0.,0.));
#888 = ORIENTED_EDGE('',*,*,#889,.T.);
#889 = EDGE_CURVE('',#881,#890,#892,.T.);
#890 = VERTEX_POINT('',#891);
#891 = CARTESIAN_POINT('',(-7.25,1.75,24.));
#892 = LINE('',#893,#894);
#893 = CARTESIAN_POINT('',(-4.683748498799,1.75,24.));
#894 = VECTOR('',#895,1.);
#895 = DIRECTION('',(-1.,0.,0.));
#896 = ORIENTED_EDGE('',*,*,#897,.T.);
#897 = EDGE_CURVE('',#890,#781,#898,.T.);
#898 = LINE('',#899,#900);
#899 = CARTESIAN_POINT('',(-7.25,1.75,24.));
#900 = VECTOR('',#901,1.);
#901 = DIRECTION('',(0.,-1.,0.));
#902 = ORIENTED_EDGE('',*,*,#788,.T.);
#903 = ORIENTED_EDGE('',*,*,#820,.T.);
#904 = ORIENTED_EDGE('',*,*,#845,.T.);
#905 = ORIENTED_EDGE('',*,*,#906,.T.);
#906 = EDGE_CURVE('',#846,#81,#907,.T.);
#907 = LINE('',#908,#909);
#908 = CARTESIAN_POINT('',(7.25,-1.75,24.));
#909 = VECTOR('',#910,1.);
#910 = DIRECTION('',(0.,1.,0.));
#911 = ORIENTED_EDGE('',*,*,#88,.T.);
#912 = PLANE('',#913);
#913 = AXIS2_PLACEMENT_3D('',#914,#915,#916);
#914 = CARTESIAN_POINT('',(0.202294051757,-0.250594522473,24.));
#915 = DIRECTION('',(0.,0.,1.));
#916 = DIRECTION('',(1.,0.,0.));
#917 = ADVANCED_FACE('',(#918),#944,.T.);
#918 = FACE_BOUND('',#919,.T.);
#919 = EDGE_LOOP('',(#920,#921,#930,#937,#938));
#920 = ORIENTED_EDGE('',*,*,#72,.T.);
#921 = ORIENTED_EDGE('',*,*,#922,.T.);
#922 = EDGE_CURVE('',#65,#923,#925,.T.);
#923 = VERTEX_POINT('',#924);
#924 = CARTESIAN_POINT('',(6.1,1.E-15,6.));
#925 = CIRCLE('',#926,6.1);
#926 = AXIS2_PLACEMENT_3D('',#927,#928,#929);
#927 = CARTESIAN_POINT('',(0.,0.,6.));
#928 = DIRECTION('',(0.,0.,-1.));
#929 = DIRECTION('',(1.,0.,0.));
#930 = ORIENTED_EDGE('',*,*,#931,.T.);
#931 = EDGE_CURVE('',#923,#836,#932,.T.);
#932 = CIRCLE('',#933,6.1);
#933 = AXIS2_PLACEMENT_3D('',#934,#935,#936);
#934 = CARTESIAN_POINT('',(0.,0.,6.));
#935 = DIRECTION('',(0.,0.,-1.));
#936 = DIRECTION('',(1.,0.,0.));
#937 = ORIENTED_EDGE('',*,*,#861,.T.);
#938 = ORIENTED_EDGE('',*,*,#939,.T.);
#939 = EDGE_CURVE('',#854,#73,#940,.T.);
#940 = LINE('',#941,#942);
#941 = CARTESIAN_POINT('',(7.25,-1.75,6.));
#942 = VECTOR('',#943,1.);
#943 = DIRECTION('',(0.,1.,0.));
#944 = PLANE('',#945);
#945 = AXIS2_PLACEMENT_3D('',#946,#947,#948);
#946 = CARTESIAN_POINT('',(3.815889482542E-03,1.8E-16,6.));
#947 = DIRECTION('',(0.,0.,1.));
#948 = DIRECTION('',(1.,0.,0.));
#949 = ADVANCED_FACE('',(#950),#982,.T.);
#950 = FACE_BOUND('',#951,.T.);
#951 = EDGE_LOOP('',(#952,#960,#961,#967,#968,#976));
#952 = ORIENTED_EDGE('',*,*,#953,.F.);
#953 = EDGE_CURVE('',#32,#954,#956,.T.);
#954 = VERTEX_POINT('',#955);
#955 = CARTESIAN_POINT('',(-5.843586227652,1.75,6.));
#956 = LINE('',#957,#958);
#957 = CARTESIAN_POINT('',(-5.843586227652,1.75,4.));
#958 = VECTOR('',#959,1.);
#959 = DIRECTION('',(0.,0.,1.));
#960 = ORIENTED_EDGE('',*,*,#40,.F.);
#961 = ORIENTED_EDGE('',*,*,#962,.T.);
#962 = EDGE_CURVE('',#41,#881,#963,.T.);
#963 = LINE('',#964,#965);
#964 = CARTESIAN_POINT('',(-4.683748498799,1.75,20.));
#965 = VECTOR('',#966,1.);
#966 = DIRECTION('',(0.,0.,1.));
#967 = ORIENTED_EDGE('',*,*,#889,.T.);
#968 = ORIENTED_EDGE('',*,*,#969,.F.);
#969 = EDGE_CURVE('',#970,#890,#972,.T.);
#970 = VERTEX_POINT('',#971);
#971 = CARTESIAN_POINT('',(-7.25,1.75,6.));
#972 = LINE('',#973,#974);
#973 = CARTESIAN_POINT('',(-7.25,1.75,20.));
#974 = VECTOR('',#975,1.);
#975 = DIRECTION('',(0.,0.,1.));
#976 = ORIENTED_EDGE('',*,*,#977,.F.);
#977 = EDGE_CURVE('',#954,#970,#978,.T.);
#978 = LINE('',#979,#980);
#979 = CARTESIAN_POINT('',(-5.843586227652,1.75,6.));
#980 = VECTOR('',#981,1.);
#981 = DIRECTION('',(-1.,0.,0.));
#982 = PLANE('',#983);
#983 = AXIS2_PLACEMENT_3D('',#984,#985,#986);
#984 = CARTESIAN_POINT('',(-5.966874249399,1.75,14.));
#985 = DIRECTION('',(1.29E-15,-1.,0.));
#986 = DIRECTION('',(-1.,-1.29E-15,0.));
#987 = ADVANCED_FACE('',(#988),#1005,.T.);
#988 = FACE_BOUND('',#989,.T.);
#989 = EDGE_LOOP('',(#990,#991,#997,#998));
#990 = ORIENTED_EDGE('',*,*,#977,.T.);
#991 = ORIENTED_EDGE('',*,*,#992,.T.);
#992 = EDGE_CURVE('',#970,#773,#993,.T.);
#993 = LINE('',#994,#995);
#994 = CARTESIAN_POINT('',(-7.25,1.75,6.));
#995 = VECTOR('',#996,1.);
#996 = DIRECTION('',(0.,-1.,0.));
#997 = ORIENTED_EDGE('',*,*,#772,.T.);
#998 = ORIENTED_EDGE('',*,*,#999,.T.);
#999 = EDGE_CURVE('',#765,#954,#1000,.T.);
#1000 = CIRCLE('',#1001,6.1);
#1001 = AXIS2_PLACEMENT_3D('',#1002,#1003,#1004);
#1002 = CARTESIAN_POINT('',(0.,0.,6.));
#1003 = DIRECTION('',(0.,0.,-1.));
#1004 = DIRECTION('',(1.,0.,0.));
#1005 = PLANE('',#1006);
#1006 = AXIS2_PLACEMENT_3D('',#1007,#1008,#1009);
#1007 = CARTESIAN_POINT('',(3.815889482542E-03,1.8E-16,6.));
#1008 = DIRECTION('',(0.,0.,1.));
#1009 = DIRECTION('',(1.,0.,0.));
#1010 = ADVANCED_FACE('',(#1011),#1017,.F.);
#1011 = FACE_BOUND('',#1012,.F.);
#1012 = EDGE_LOOP('',(#1013,#1014,#1015,#1016));
#1013 = ORIENTED_EDGE('',*,*,#96,.F.);
#1014 = ORIENTED_EDGE('',*,*,#48,.T.);
#1015 = ORIENTED_EDGE('',*,*,#962,.T.);
#1016 = ORIENTED_EDGE('',*,*,#880,.F.);
#1017 = CYLINDRICAL_SURFACE('',#1018,5.);
#1018 = AXIS2_PLACEMENT_3D('',#1019,#1020,#1021);
#1019 = CARTESIAN_POINT('',(0.,0.,20.));
#1020 = DIRECTION('',(0.,0.,1.));
#1021 = DIRECTION('',(1.,0.,0.));
#1022 = ADVANCED_FACE('',(#1023),#1029,.T.);
#1023 = FACE_BOUND('',#1024,.T.);
#1024 = EDGE_LOOP('',(#1025,#1026,#1027,#1028));
#1025 = ORIENTED_EDGE('',*,*,#992,.F.);
#1026 = ORIENTED_EDGE('',*,*,#969,.T.);
#1027 = ORIENTED_EDGE('',*,*,#897,.T.);
#1028 = ORIENTED_EDGE('',*,*,#780,.T.);
#1029 = PLANE('',#1030);
#1030 = AXIS2_PLACEMENT_3D('',#1031,#1032,#1033);
#1031 = CARTESIAN_POINT('',(-7.25,0.,14.));
#1032 = DIRECTION('',(1.,0.,0.));
#1033 = DIRECTION('',(0.,0.,1.));
#1034 = ADVANCED_FACE('',(#1035),#1041,.T.);
#1035 = FACE_BOUND('',#1036,.T.);
#1036 = EDGE_LOOP('',(#1037,#1038,#1039,#1040));
#1037 = ORIENTED_EDGE('',*,*,#939,.F.);
#1038 = ORIENTED_EDGE('',*,*,#853,.T.);
#1039 = ORIENTED_EDGE('',*,*,#906,.T.);
#1040 = ORIENTED_EDGE('',*,*,#80,.T.);
#1041 = PLANE('',#1042);
#1042 = AXIS2_PLACEMENT_3D('',#1043,#1044,#1045);
#1043 = CARTESIAN_POINT('',(7.25,0.,14.));
#1044 = DIRECTION('',(-1.,-0.,-0.));
#1045 = DIRECTION('',(0.,0.,-1.));
#1046 = ADVANCED_FACE('',(#1047,#1063,#1066,#1071),#1074,.F.);
#1047 = FACE_BOUND('',#1048,.T.);
#1048 = EDGE_LOOP('',(#1049,#1050,#1051,#1052,#1053,#1054,#1055,#1056,
    #1057,#1058,#1059,#1060,#1061,#1062));
#1049 = ORIENTED_EDGE('',*,*,#999,.F.);
#1050 = ORIENTED_EDGE('',*,*,#764,.F.);
#1051 = ORIENTED_EDGE('',*,*,#248,.F.);
#1052 = ORIENTED_EDGE('',*,*,#120,.T.);
#1053 = ORIENTED_EDGE('',*,*,#199,.T.);
#1054 = ORIENTED_EDGE('',*,*,#189,.T.);
#1055 = ORIENTED_EDGE('',*,*,#136,.F.);
#1056 = ORIENTED_EDGE('',*,*,#214,.F.);
#1057 = ORIENTED_EDGE('',*,*,#835,.T.);
#1058 = ORIENTED_EDGE('',*,*,#931,.F.);
#1059 = ORIENTED_EDGE('',*,*,#922,.F.);
#1060 = ORIENTED_EDGE('',*,*,#64,.F.);
#1061 = ORIENTED_EDGE('',*,*,#31,.F.);
#1062 = ORIENTED_EDGE('',*,*,#953,.T.);
#1063 = FACE_BOUND('',#1064,.T.);
#1064 = EDGE_LOOP('',(#1065));
#1065 = ORIENTED_EDGE('',*,*,#685,.F.);
#1066 = FACE_BOUND('',#1067,.T.);
#1067 = EDGE_LOOP('',(#1068,#1069,#1070));
#1068 = ORIENTED_EDGE('',*,*,#593,.T.);
#1069 = ORIENTED_EDGE('',*,*,#543,.T.);
#1070 = ORIENTED_EDGE('',*,*,#562,.T.);
#1071 = FACE_BOUND('',#1072,.T.);
#1072 = EDGE_LOOP('',(#1073));
#1073 = ORIENTED_EDGE('',*,*,#621,.F.);
#1074 = CYLINDRICAL_SURFACE('',#1075,6.1);
#1075 = AXIS2_PLACEMENT_3D('',#1076,#1077,#1078);
#1076 = CARTESIAN_POINT('',(0.,0.,-12.));
#1077 = DIRECTION('',(-0.,-0.,-1.));
#1078 = DIRECTION('',(1.,0.,0.));
#1079 = ( GEOMETRIC_REPRESENTATION_CONTEXT(3) 
GLOBAL_UNCERTAINTY_ASSIGNED_CONTEXT((#1083)) 
GLOBAL_UNIT_ASSIGNED_CONTEXT((#1080,#1081,#1082)) REPRESENTATION_CONTEXT
('Context #1','3D Context with UNIT and UNCERTAINTY') );
#1080 = ( LENGTH_UNIT() NAMED_UNIT(*) SI_UNIT(.MILLI.,.METRE.) );
#1081 = ( NAMED_UNIT(*) PLANE_ANGLE_UNIT() SI_UNIT($,.RADIAN.) );
#1082 = ( NAMED_UNIT(*) SI_UNIT($,.STERADIAN.) SOLID_ANGLE_UNIT() );
#1083 = UNCERTAINTY_MEASURE_WITH_UNIT(LENGTH_MEASURE(5.E-06),#1080,
  'distance_accuracy_value','confusion accuracy');
#1084 = PRODUCT_RELATED_PRODUCT_CATEGORY('part',$,(#7));
ENDSEC;
END-ISO-10303-21;
