ISO-10303-21;
HEADER;
FILE_DESCRIPTION(('FreeCAD Model'),'2;1');
FILE_NAME('Open CASCADE Shape Model','2026-08-28T13:04:06',('FreeCAD'),(
    'FreeCAD'),'Open CASCADE STEP processor 7.8','FreeCAD','Unknown');
FILE_SCHEMA(('AUTOMOTIVE_DESIGN { 1 0 10303 214 1 1 1 1 }'));
ENDSEC;
DATA;
#1 = APPLICATION_PROTOCOL_DEFINITION('international standard',
  'automotive_design',2000,#2);
#2 = APPLICATION_CONTEXT(
  'core data for automotive mechanical design processes');
#3 = SHAPE_DEFINITION_REPRESENTATION(#4,#10);
#4 = PRODUCT_DEFINITION_SHAPE('','',#5);
#5 = PRODUCT_DEFINITION('design','',#6,#9);
#6 = PRODUCT_DEFINITION_FORMATION('','',#7);
#7 = PRODUCT('Open CASCADE STEP translator 7.8 103',
  'Open CASCADE STEP translator 7.8 103','',(#8));
#8 = PRODUCT_CONTEXT('',#2,'mechanical');
#9 = PRODUCT_DEFINITION_CONTEXT('part definition',#2,'design');
#10 = ADVANCED_BREP_SHAPE_REPRESENTATION('',(#11,#15),#1073);
#11 = AXIS2_PLACEMENT_3D('',#12,#13,#14);
#12 = CARTESIAN_POINT('',(0.,0.,0.));
#13 = DIRECTION('',(0.,0.,1.));
#14 = DIRECTION('',(1.,0.,-0.));
#15 = MANIFOLD_SOLID_BREP('',#16);
#16 = CLOSED_SHELL('',(#17,#59,#106,#157,#219,#261,#311,#353,#369,#416,
    #441,#472,#519,#543,#561,#579,#605,#814,#906,#976,#1040));
#17 = ADVANCED_FACE('',(#18),#54,.F.);
#18 = FACE_BOUND('',#19,.F.);
#19 = EDGE_LOOP('',(#20,#30,#39,#47));
#20 = ORIENTED_EDGE('',*,*,#21,.F.);
#21 = EDGE_CURVE('',#22,#24,#26,.T.);
#22 = VERTEX_POINT('',#23);
#23 = CARTESIAN_POINT('',(5.843586227652,1.75,4.));
#24 = VERTEX_POINT('',#25);
#25 = CARTESIAN_POINT('',(3.872983346207,1.75,4.));
#26 = LINE('',#27,#28);
#27 = CARTESIAN_POINT('',(11.,1.75,4.));
#28 = VECTOR('',#29,1.);
#29 = DIRECTION('',(-1.,0.,0.));
#30 = ORIENTED_EDGE('',*,*,#31,.F.);
#31 = EDGE_CURVE('',#32,#22,#34,.T.);
#32 = VERTEX_POINT('',#33);
#33 = CARTESIAN_POINT('',(-5.843586227652,1.75,4.));
#34 = CIRCLE('',#35,6.1);
#35 = AXIS2_PLACEMENT_3D('',#36,#37,#38);
#36 = CARTESIAN_POINT('',(0.,0.,4.));
#37 = DIRECTION('',(0.,0.,-1.));
#38 = DIRECTION('',(1.,0.,0.));
#39 = ORIENTED_EDGE('',*,*,#40,.F.);
#40 = EDGE_CURVE('',#41,#32,#43,.T.);
#41 = VERTEX_POINT('',#42);
#42 = CARTESIAN_POINT('',(-3.872983346208,1.75,4.));
#43 = LINE('',#44,#45);
#44 = CARTESIAN_POINT('',(11.,1.75,4.));
#45 = VECTOR('',#46,1.);
#46 = DIRECTION('',(-1.,0.,0.));
#47 = ORIENTED_EDGE('',*,*,#48,.F.);
#48 = EDGE_CURVE('',#24,#41,#49,.T.);
#49 = CIRCLE('',#50,4.25);
#50 = AXIS2_PLACEMENT_3D('',#51,#52,#53);
#51 = CARTESIAN_POINT('',(0.,0.,4.));
#52 = DIRECTION('',(0.,0.,1.));
#53 = DIRECTION('',(1.,0.,0.));
#54 = PLANE('',#55);
#55 = AXIS2_PLACEMENT_3D('',#56,#57,#58);
#56 = CARTESIAN_POINT('',(-3.6E-16,-1.8E-16,4.));
#57 = DIRECTION('',(0.,0.,1.));
#58 = DIRECTION('',(1.,0.,0.));
#59 = ADVANCED_FACE('',(#60),#101,.T.);
#60 = FACE_BOUND('',#61,.T.);
#61 = EDGE_LOOP('',(#62,#63,#71,#79,#87,#95));
#62 = ORIENTED_EDGE('',*,*,#21,.F.);
#63 = ORIENTED_EDGE('',*,*,#64,.T.);
#64 = EDGE_CURVE('',#22,#65,#67,.T.);
#65 = VERTEX_POINT('',#66);
#66 = CARTESIAN_POINT('',(5.843586227652,1.75,6.));
#67 = LINE('',#68,#69);
#68 = CARTESIAN_POINT('',(5.843586227652,1.75,4.));
#69 = VECTOR('',#70,1.);
#70 = DIRECTION('',(0.,0.,1.));
#71 = ORIENTED_EDGE('',*,*,#72,.F.);
#72 = EDGE_CURVE('',#73,#65,#75,.T.);
#73 = VERTEX_POINT('',#74);
#74 = CARTESIAN_POINT('',(9.845684333758,1.75,6.));
#75 = LINE('',#76,#77);
#76 = CARTESIAN_POINT('',(9.845684333758,1.75,6.));
#77 = VECTOR('',#78,1.);
#78 = DIRECTION('',(-1.,0.,0.));
#79 = ORIENTED_EDGE('',*,*,#80,.F.);
#80 = EDGE_CURVE('',#81,#73,#83,.T.);
#81 = VERTEX_POINT('',#82);
#82 = CARTESIAN_POINT('',(9.845684333758,1.75,24.));
#83 = LINE('',#84,#85);
#84 = CARTESIAN_POINT('',(9.845684333758,1.75,-12.));
#85 = VECTOR('',#86,1.);
#86 = DIRECTION('',(-0.,-0.,-1.));
#87 = ORIENTED_EDGE('',*,*,#88,.T.);
#88 = EDGE_CURVE('',#81,#89,#91,.T.);
#89 = VERTEX_POINT('',#90);
#90 = CARTESIAN_POINT('',(3.872983346207,1.75,24.));
#91 = LINE('',#92,#93);
#92 = CARTESIAN_POINT('',(9.845684333758,1.75,24.));
#93 = VECTOR('',#94,1.);
#94 = DIRECTION('',(-1.,0.,0.));
#95 = ORIENTED_EDGE('',*,*,#96,.F.);
#96 = EDGE_CURVE('',#24,#89,#97,.T.);
#97 = LINE('',#98,#99);
#98 = CARTESIAN_POINT('',(3.872983346207,1.75,20.));
#99 = VECTOR('',#100,1.);
#100 = DIRECTION('',(0.,0.,1.));
#101 = PLANE('',#102);
#102 = AXIS2_PLACEMENT_3D('',#103,#104,#105);
#103 = CARTESIAN_POINT('',(6.859333839983,1.75,14.));
#104 = DIRECTION('',(3.7E-15,-1.,7.5E-16));
#105 = DIRECTION('',(-1.,-3.7E-15,0.));
#106 = ADVANCED_FACE('',(#107),#152,.T.);
#107 = FACE_BOUND('',#108,.T.);
#108 = EDGE_LOOP('',(#109,#110,#119,#128,#136,#145));
#109 = ORIENTED_EDGE('',*,*,#72,.T.);
#110 = ORIENTED_EDGE('',*,*,#111,.T.);
#111 = EDGE_CURVE('',#65,#112,#114,.T.);
#112 = VERTEX_POINT('',#113);
#113 = CARTESIAN_POINT('',(6.1,1.E-15,6.));
#114 = CIRCLE('',#115,6.1);
#115 = AXIS2_PLACEMENT_3D('',#116,#117,#118);
#116 = CARTESIAN_POINT('',(0.,0.,6.));
#117 = DIRECTION('',(0.,0.,-1.));
#118 = DIRECTION('',(1.,0.,0.));
#119 = ORIENTED_EDGE('',*,*,#120,.T.);
#120 = EDGE_CURVE('',#112,#121,#123,.T.);
#121 = VERTEX_POINT('',#122);
#122 = CARTESIAN_POINT('',(5.843586227652,-1.75,6.));
#123 = CIRCLE('',#124,6.1);
#124 = AXIS2_PLACEMENT_3D('',#125,#126,#127);
#125 = CARTESIAN_POINT('',(0.,0.,6.));
#126 = DIRECTION('',(0.,0.,-1.));
#127 = DIRECTION('',(1.,0.,0.));
#128 = ORIENTED_EDGE('',*,*,#129,.T.);
#129 = EDGE_CURVE('',#121,#130,#132,.T.);
#130 = VERTEX_POINT('',#131);
#131 = CARTESIAN_POINT('',(9.845684333758,-1.75,6.));
#132 = LINE('',#133,#134);
#133 = CARTESIAN_POINT('',(5.843586227652,-1.75,6.));
#134 = VECTOR('',#135,1.);
#135 = DIRECTION('',(1.,0.,0.));
#136 = ORIENTED_EDGE('',*,*,#137,.F.);
#137 = EDGE_CURVE('',#138,#130,#140,.T.);
#138 = VERTEX_POINT('',#139);
#139 = CARTESIAN_POINT('',(10.,1.E-15,6.));
#140 = CIRCLE('',#141,10.);
#141 = AXIS2_PLACEMENT_3D('',#142,#143,#144);
#142 = CARTESIAN_POINT('',(0.,0.,6.));
#143 = DIRECTION('',(0.,0.,-1.));
#144 = DIRECTION('',(1.,0.,0.));
#145 = ORIENTED_EDGE('',*,*,#146,.F.);
#146 = EDGE_CURVE('',#73,#138,#147,.T.);
#147 = CIRCLE('',#148,10.);
#148 = AXIS2_PLACEMENT_3D('',#149,#150,#151);
#149 = CARTESIAN_POINT('',(0.,0.,6.));
#150 = DIRECTION('',(0.,0.,-1.));
#151 = DIRECTION('',(1.,0.,0.));
#152 = PLANE('',#153);
#153 = AXIS2_PLACEMENT_3D('',#154,#155,#156);
#154 = CARTESIAN_POINT('',(3.993782785761E-03,-1.5E-16,6.));
#155 = DIRECTION('',(0.,0.,1.));
#156 = DIRECTION('',(1.,0.,0.));
#157 = ADVANCED_FACE('',(#158,#186),#214,.F.);
#158 = FACE_BOUND('',#159,.F.);
#159 = EDGE_LOOP('',(#160,#171,#180));
#160 = ORIENTED_EDGE('',*,*,#161,.F.);
#161 = EDGE_CURVE('',#162,#164,#166,.T.);
#162 = VERTEX_POINT('',#163);
#163 = CARTESIAN_POINT('',(10.,0.,-6.));
#164 = VERTEX_POINT('',#165);
#165 = CARTESIAN_POINT('',(4.358898943541,-9.,-6.));
#166 = CIRCLE('',#167,10.);
#167 = AXIS2_PLACEMENT_3D('',#168,#169,#170);
#168 = CARTESIAN_POINT('',(0.,0.,-6.));
#169 = DIRECTION('',(0.,0.,-1.));
#170 = DIRECTION('',(1.,0.,0.));
#171 = ORIENTED_EDGE('',*,*,#172,.F.);
#172 = EDGE_CURVE('',#173,#162,#175,.T.);
#173 = VERTEX_POINT('',#174);
#174 = CARTESIAN_POINT('',(-4.358898943541,-9.,-6.));
#175 = CIRCLE('',#176,10.);
#176 = AXIS2_PLACEMENT_3D('',#177,#178,#179);
#177 = CARTESIAN_POINT('',(0.,0.,-6.));
#178 = DIRECTION('',(0.,0.,-1.));
#179 = DIRECTION('',(1.,0.,0.));
#180 = ORIENTED_EDGE('',*,*,#181,.F.);
#181 = EDGE_CURVE('',#164,#173,#182,.T.);
#182 = LINE('',#183,#184);
#183 = CARTESIAN_POINT('',(-2.6E-16,-9.,-6.));
#184 = VECTOR('',#185,1.);
#185 = DIRECTION('',(-1.,0.,0.));
#186 = FACE_BOUND('',#187,.F.);
#187 = EDGE_LOOP('',(#188,#199,#207));
#188 = ORIENTED_EDGE('',*,*,#189,.T.);
#189 = EDGE_CURVE('',#190,#192,#194,.T.);
#190 = VERTEX_POINT('',#191);
#191 = CARTESIAN_POINT('',(6.1,0.,-6.));
#192 = VERTEX_POINT('',#193);
#193 = CARTESIAN_POINT('',(3.346640106136,-5.1,-6.));
#194 = CIRCLE('',#195,6.1);
#195 = AXIS2_PLACEMENT_3D('',#196,#197,#198);
#196 = CARTESIAN_POINT('',(0.,0.,-6.));
#197 = DIRECTION('',(0.,0.,-1.));
#198 = DIRECTION('',(1.,0.,0.));
#199 = ORIENTED_EDGE('',*,*,#200,.T.);
#200 = EDGE_CURVE('',#192,#201,#203,.T.);
#201 = VERTEX_POINT('',#202);
#202 = CARTESIAN_POINT('',(-3.346640106136,-5.1,-6.));
#203 = LINE('',#204,#205);
#204 = CARTESIAN_POINT('',(0.,-5.1,-6.));
#205 = VECTOR('',#206,1.);
#206 = DIRECTION('',(-1.,0.,0.));
#207 = ORIENTED_EDGE('',*,*,#208,.T.);
#208 = EDGE_CURVE('',#201,#190,#209,.T.);
#209 = CIRCLE('',#210,6.1);
#210 = AXIS2_PLACEMENT_3D('',#211,#212,#213);
#211 = CARTESIAN_POINT('',(0.,0.,-6.));
#212 = DIRECTION('',(0.,0.,-1.));
#213 = DIRECTION('',(1.,0.,0.));
#214 = PLANE('',#215);
#215 = AXIS2_PLACEMENT_3D('',#216,#217,#218);
#216 = CARTESIAN_POINT('',(-5.2E-16,-2.E-16,-6.));
#217 = DIRECTION('',(0.,0.,1.));
#218 = DIRECTION('',(1.,0.,0.));
#219 = ADVANCED_FACE('',(#220,#245),#256,.T.);
#220 = FACE_BOUND('',#221,.T.);
#221 = EDGE_LOOP('',(#222,#223,#231,#239));
#222 = ORIENTED_EDGE('',*,*,#200,.T.);
#223 = ORIENTED_EDGE('',*,*,#224,.F.);
#224 = EDGE_CURVE('',#225,#201,#227,.T.);
#225 = VERTEX_POINT('',#226);
#226 = CARTESIAN_POINT('',(-3.346640106136,-5.1,4.));
#227 = LINE('',#228,#229);
#228 = CARTESIAN_POINT('',(-3.346640106136,-5.1,-12.));
#229 = VECTOR('',#230,1.);
#230 = DIRECTION('',(-0.,-0.,-1.));
#231 = ORIENTED_EDGE('',*,*,#232,.T.);
#232 = EDGE_CURVE('',#225,#233,#235,.T.);
#233 = VERTEX_POINT('',#234);
#234 = CARTESIAN_POINT('',(3.346640106136,-5.1,4.));
#235 = LINE('',#236,#237);
#236 = CARTESIAN_POINT('',(0.,-5.1,4.));
#237 = VECTOR('',#238,1.);
#238 = DIRECTION('',(1.,0.,0.));
#239 = ORIENTED_EDGE('',*,*,#240,.T.);
#240 = EDGE_CURVE('',#233,#192,#241,.T.);
#241 = LINE('',#242,#243);
#242 = CARTESIAN_POINT('',(3.346640106136,-5.1,-12.));
#243 = VECTOR('',#244,1.);
#244 = DIRECTION('',(-0.,-0.,-1.));
#245 = FACE_BOUND('',#246,.T.);
#246 = EDGE_LOOP('',(#247));
#247 = ORIENTED_EDGE('',*,*,#248,.T.);
#248 = EDGE_CURVE('',#249,#249,#251,.T.);
#249 = VERTEX_POINT('',#250);
#250 = CARTESIAN_POINT('',(1.25,-5.1,-1.5));
#251 = CIRCLE('',#252,1.25);
#252 = AXIS2_PLACEMENT_3D('',#253,#254,#255);
#253 = CARTESIAN_POINT('',(0.,-5.1,-1.5));
#254 = DIRECTION('',(0.,-1.,2.2E-16));
#255 = DIRECTION('',(1.,0.,0.));
#256 = PLANE('',#257);
#257 = AXIS2_PLACEMENT_3D('',#258,#259,#260);
#258 = CARTESIAN_POINT('',(0.,-5.1,-1.));
#259 = DIRECTION('',(0.,1.,0.));
#260 = DIRECTION('',(0.,0.,1.));
#261 = ADVANCED_FACE('',(#262),#306,.F.);
#262 = FACE_BOUND('',#263,.F.);
#263 = EDGE_LOOP('',(#264,#273,#281,#290,#298,#305));
#264 = ORIENTED_EDGE('',*,*,#265,.F.);
#265 = EDGE_CURVE('',#266,#233,#268,.T.);
#266 = VERTEX_POINT('',#267);
#267 = CARTESIAN_POINT('',(5.843586227652,-1.75,4.));
#268 = CIRCLE('',#269,6.1);
#269 = AXIS2_PLACEMENT_3D('',#270,#271,#272);
#270 = CARTESIAN_POINT('',(0.,0.,4.));
#271 = DIRECTION('',(0.,0.,-1.));
#272 = DIRECTION('',(1.,0.,0.));
#273 = ORIENTED_EDGE('',*,*,#274,.F.);
#274 = EDGE_CURVE('',#275,#266,#277,.T.);
#275 = VERTEX_POINT('',#276);
#276 = CARTESIAN_POINT('',(3.872983346207,-1.75,4.));
#277 = LINE('',#278,#279);
#278 = CARTESIAN_POINT('',(-11.,-1.75,4.));
#279 = VECTOR('',#280,1.);
#280 = DIRECTION('',(1.,0.,0.));
#281 = ORIENTED_EDGE('',*,*,#282,.F.);
#282 = EDGE_CURVE('',#283,#275,#285,.T.);
#283 = VERTEX_POINT('',#284);
#284 = CARTESIAN_POINT('',(-3.872983346208,-1.75,4.));
#285 = CIRCLE('',#286,4.25);
#286 = AXIS2_PLACEMENT_3D('',#287,#288,#289);
#287 = CARTESIAN_POINT('',(0.,0.,4.));
#288 = DIRECTION('',(0.,0.,1.));
#289 = DIRECTION('',(1.,0.,0.));
#290 = ORIENTED_EDGE('',*,*,#291,.F.);
#291 = EDGE_CURVE('',#292,#283,#294,.T.);
#292 = VERTEX_POINT('',#293);
#293 = CARTESIAN_POINT('',(-5.843586227652,-1.75,4.));
#294 = LINE('',#295,#296);
#295 = CARTESIAN_POINT('',(-11.,-1.75,4.));
#296 = VECTOR('',#297,1.);
#297 = DIRECTION('',(1.,0.,0.));
#298 = ORIENTED_EDGE('',*,*,#299,.F.);
#299 = EDGE_CURVE('',#225,#292,#300,.T.);
#300 = CIRCLE('',#301,6.1);
#301 = AXIS2_PLACEMENT_3D('',#302,#303,#304);
#302 = CARTESIAN_POINT('',(0.,0.,4.));
#303 = DIRECTION('',(0.,0.,-1.));
#304 = DIRECTION('',(1.,0.,0.));
#305 = ORIENTED_EDGE('',*,*,#232,.T.);
#306 = PLANE('',#307);
#307 = AXIS2_PLACEMENT_3D('',#308,#309,#310);
#308 = CARTESIAN_POINT('',(-3.6E-16,-1.8E-16,4.));
#309 = DIRECTION('',(0.,0.,1.));
#310 = DIRECTION('',(1.,0.,0.));
#311 = ADVANCED_FACE('',(#312,#337),#348,.T.);
#312 = FACE_BOUND('',#313,.T.);
#313 = EDGE_LOOP('',(#314,#315,#323,#331));
#314 = ORIENTED_EDGE('',*,*,#181,.F.);
#315 = ORIENTED_EDGE('',*,*,#316,.F.);
#316 = EDGE_CURVE('',#317,#164,#319,.T.);
#317 = VERTEX_POINT('',#318);
#318 = CARTESIAN_POINT('',(4.358898943541,-9.,24.));
#319 = LINE('',#320,#321);
#320 = CARTESIAN_POINT('',(4.358898943541,-9.,-12.));
#321 = VECTOR('',#322,1.);
#322 = DIRECTION('',(-0.,-0.,-1.));
#323 = ORIENTED_EDGE('',*,*,#324,.T.);
#324 = EDGE_CURVE('',#317,#325,#327,.T.);
#325 = VERTEX_POINT('',#326);
#326 = CARTESIAN_POINT('',(-4.358898943541,-9.,24.));
#327 = LINE('',#328,#329);
#328 = CARTESIAN_POINT('',(4.358898943541,-9.,24.));
#329 = VECTOR('',#330,1.);
#330 = DIRECTION('',(-1.,0.,0.));
#331 = ORIENTED_EDGE('',*,*,#332,.F.);
#332 = EDGE_CURVE('',#173,#325,#333,.T.);
#333 = LINE('',#334,#335);
#334 = CARTESIAN_POINT('',(-4.358898943541,-9.,20.));
#335 = VECTOR('',#336,1.);
#336 = DIRECTION('',(0.,0.,1.));
#337 = FACE_BOUND('',#338,.T.);
#338 = EDGE_LOOP('',(#339));
#339 = ORIENTED_EDGE('',*,*,#340,.F.);
#340 = EDGE_CURVE('',#341,#341,#343,.T.);
#341 = VERTEX_POINT('',#342);
#342 = CARTESIAN_POINT('',(1.25,-9.,-1.5));
#343 = CIRCLE('',#344,1.25);
#344 = AXIS2_PLACEMENT_3D('',#345,#346,#347);
#345 = CARTESIAN_POINT('',(0.,-9.,-1.5));
#346 = DIRECTION('',(0.,-1.,2.2E-16));
#347 = DIRECTION('',(1.,0.,0.));
#348 = PLANE('',#349);
#349 = AXIS2_PLACEMENT_3D('',#350,#351,#352);
#350 = CARTESIAN_POINT('',(1.01E-15,-9.,9.));
#351 = DIRECTION('',(-0.,-1.,-2.4E-16));
#352 = DIRECTION('',(0.,2.4E-16,-1.));
#353 = ADVANCED_FACE('',(#354),#364,.F.);
#354 = FACE_BOUND('',#355,.F.);
#355 = EDGE_LOOP('',(#356,#357,#362,#363));
#356 = ORIENTED_EDGE('',*,*,#340,.F.);
#357 = ORIENTED_EDGE('',*,*,#358,.F.);
#358 = EDGE_CURVE('',#249,#341,#359,.T.);
#359 = B_SPLINE_CURVE_WITH_KNOTS('',1,(#360,#361),.UNSPECIFIED.,.F.,.F.,
  (2,2),(-77.60859571086,77.608595710867),.PIECEWISE_BEZIER_KNOTS.);
#360 = CARTESIAN_POINT('',(1.25,77.608595710867,-1.5));
#361 = CARTESIAN_POINT('',(1.25,-77.60859571086,-1.5));
#362 = ORIENTED_EDGE('',*,*,#248,.T.);
#363 = ORIENTED_EDGE('',*,*,#358,.T.);
#364 = CYLINDRICAL_SURFACE('',#365,1.25);
#365 = AXIS2_PLACEMENT_3D('',#366,#367,#368);
#366 = CARTESIAN_POINT('',(0.,2.33E-15,-1.5));
#367 = DIRECTION('',(0.,-1.,2.2E-16));
#368 = DIRECTION('',(1.,0.,0.));
#369 = ADVANCED_FACE('',(#370),#411,.T.);
#370 = FACE_BOUND('',#371,.T.);
#371 = EDGE_LOOP('',(#372,#373,#381,#389,#397,#405));
#372 = ORIENTED_EDGE('',*,*,#291,.F.);
#373 = ORIENTED_EDGE('',*,*,#374,.T.);
#374 = EDGE_CURVE('',#292,#375,#377,.T.);
#375 = VERTEX_POINT('',#376);
#376 = CARTESIAN_POINT('',(-5.843586227652,-1.75,6.));
#377 = LINE('',#378,#379);
#378 = CARTESIAN_POINT('',(-5.843586227652,-1.75,4.));
#379 = VECTOR('',#380,1.);
#380 = DIRECTION('',(0.,0.,1.));
#381 = ORIENTED_EDGE('',*,*,#382,.F.);
#382 = EDGE_CURVE('',#383,#375,#385,.T.);
#383 = VERTEX_POINT('',#384);
#384 = CARTESIAN_POINT('',(-9.845684333758,-1.75,6.));
#385 = LINE('',#386,#387);
#386 = CARTESIAN_POINT('',(-9.845684333758,-1.75,6.));
#387 = VECTOR('',#388,1.);
#388 = DIRECTION('',(1.,0.,0.));
#389 = ORIENTED_EDGE('',*,*,#390,.F.);
#390 = EDGE_CURVE('',#391,#383,#393,.T.);
#391 = VERTEX_POINT('',#392);
#392 = CARTESIAN_POINT('',(-9.845684333758,-1.75,24.));
#393 = LINE('',#394,#395);
#394 = CARTESIAN_POINT('',(-9.845684333758,-1.75,-12.));
#395 = VECTOR('',#396,1.);
#396 = DIRECTION('',(-0.,-0.,-1.));
#397 = ORIENTED_EDGE('',*,*,#398,.T.);
#398 = EDGE_CURVE('',#391,#399,#401,.T.);
#399 = VERTEX_POINT('',#400);
#400 = CARTESIAN_POINT('',(-3.872983346207,-1.75,24.));
#401 = LINE('',#402,#403);
#402 = CARTESIAN_POINT('',(-9.845684333758,-1.75,24.));
#403 = VECTOR('',#404,1.);
#404 = DIRECTION('',(1.,0.,0.));
#405 = ORIENTED_EDGE('',*,*,#406,.F.);
#406 = EDGE_CURVE('',#283,#399,#407,.T.);
#407 = LINE('',#408,#409);
#408 = CARTESIAN_POINT('',(-3.872983346207,-1.75,20.));
#409 = VECTOR('',#410,1.);
#410 = DIRECTION('',(0.,0.,1.));
#411 = PLANE('',#412);
#412 = AXIS2_PLACEMENT_3D('',#413,#414,#415);
#413 = CARTESIAN_POINT('',(-6.859333839983,-1.75,14.));
#414 = DIRECTION('',(-1.36E-15,1.,-4.8E-16));
#415 = DIRECTION('',(1.,1.36E-15,0.));
#416 = ADVANCED_FACE('',(#417),#436,.F.);
#417 = FACE_BOUND('',#418,.F.);
#418 = EDGE_LOOP('',(#419,#420,#421,#429));
#419 = ORIENTED_EDGE('',*,*,#406,.F.);
#420 = ORIENTED_EDGE('',*,*,#282,.T.);
#421 = ORIENTED_EDGE('',*,*,#422,.T.);
#422 = EDGE_CURVE('',#275,#423,#425,.T.);
#423 = VERTEX_POINT('',#424);
#424 = CARTESIAN_POINT('',(3.872983346207,-1.75,24.));
#425 = LINE('',#426,#427);
#426 = CARTESIAN_POINT('',(3.872983346207,-1.75,20.));
#427 = VECTOR('',#428,1.);
#428 = DIRECTION('',(0.,0.,1.));
#429 = ORIENTED_EDGE('',*,*,#430,.F.);
#430 = EDGE_CURVE('',#399,#423,#431,.T.);
#431 = CIRCLE('',#432,4.25);
#432 = AXIS2_PLACEMENT_3D('',#433,#434,#435);
#433 = CARTESIAN_POINT('',(0.,0.,24.));
#434 = DIRECTION('',(0.,0.,1.));
#435 = DIRECTION('',(1.,0.,0.));
#436 = CYLINDRICAL_SURFACE('',#437,4.25);
#437 = AXIS2_PLACEMENT_3D('',#438,#439,#440);
#438 = CARTESIAN_POINT('',(0.,0.,20.));
#439 = DIRECTION('',(0.,0.,1.));
#440 = DIRECTION('',(1.,0.,0.));
#441 = ADVANCED_FACE('',(#442),#467,.T.);
#442 = FACE_BOUND('',#443,.T.);
#443 = EDGE_LOOP('',(#444,#450,#451,#452,#460,#466));
#444 = ORIENTED_EDGE('',*,*,#445,.F.);
#445 = EDGE_CURVE('',#266,#121,#446,.T.);
#446 = LINE('',#447,#448);
#447 = CARTESIAN_POINT('',(5.843586227652,-1.75,4.));
#448 = VECTOR('',#449,1.);
#449 = DIRECTION('',(0.,0.,1.));
#450 = ORIENTED_EDGE('',*,*,#274,.F.);
#451 = ORIENTED_EDGE('',*,*,#422,.T.);
#452 = ORIENTED_EDGE('',*,*,#453,.T.);
#453 = EDGE_CURVE('',#423,#454,#456,.T.);
#454 = VERTEX_POINT('',#455);
#455 = CARTESIAN_POINT('',(9.845684333758,-1.75,24.));
#456 = LINE('',#457,#458);
#457 = CARTESIAN_POINT('',(3.872983346207,-1.75,24.));
#458 = VECTOR('',#459,1.);
#459 = DIRECTION('',(1.,0.,0.));
#460 = ORIENTED_EDGE('',*,*,#461,.F.);
#461 = EDGE_CURVE('',#130,#454,#462,.T.);
#462 = LINE('',#463,#464);
#463 = CARTESIAN_POINT('',(9.845684333758,-1.75,20.));
#464 = VECTOR('',#465,1.);
#465 = DIRECTION('',(0.,0.,1.));
#466 = ORIENTED_EDGE('',*,*,#129,.F.);
#467 = PLANE('',#468);
#468 = AXIS2_PLACEMENT_3D('',#469,#470,#471);
#469 = CARTESIAN_POINT('',(6.859333839983,-1.75,14.));
#470 = DIRECTION('',(3.68E-15,1.,7.4E-16));
#471 = DIRECTION('',(1.,-3.68E-15,0.));
#472 = ADVANCED_FACE('',(#473),#514,.T.);
#473 = FACE_BOUND('',#474,.T.);
#474 = EDGE_LOOP('',(#475,#483,#484,#492,#500,#508));
#475 = ORIENTED_EDGE('',*,*,#476,.F.);
#476 = EDGE_CURVE('',#32,#477,#479,.T.);
#477 = VERTEX_POINT('',#478);
#478 = CARTESIAN_POINT('',(-5.843586227652,1.75,6.));
#479 = LINE('',#480,#481);
#480 = CARTESIAN_POINT('',(-5.843586227652,1.75,4.));
#481 = VECTOR('',#482,1.);
#482 = DIRECTION('',(0.,0.,1.));
#483 = ORIENTED_EDGE('',*,*,#40,.F.);
#484 = ORIENTED_EDGE('',*,*,#485,.T.);
#485 = EDGE_CURVE('',#41,#486,#488,.T.);
#486 = VERTEX_POINT('',#487);
#487 = CARTESIAN_POINT('',(-3.872983346207,1.75,24.));
#488 = LINE('',#489,#490);
#489 = CARTESIAN_POINT('',(-3.872983346207,1.75,20.));
#490 = VECTOR('',#491,1.);
#491 = DIRECTION('',(0.,0.,1.));
#492 = ORIENTED_EDGE('',*,*,#493,.T.);
#493 = EDGE_CURVE('',#486,#494,#496,.T.);
#494 = VERTEX_POINT('',#495);
#495 = CARTESIAN_POINT('',(-9.845684333758,1.75,24.));
#496 = LINE('',#497,#498);
#497 = CARTESIAN_POINT('',(-3.872983346208,1.75,24.));
#498 = VECTOR('',#499,1.);
#499 = DIRECTION('',(-1.,0.,0.));
#500 = ORIENTED_EDGE('',*,*,#501,.F.);
#501 = EDGE_CURVE('',#502,#494,#504,.T.);
#502 = VERTEX_POINT('',#503);
#503 = CARTESIAN_POINT('',(-9.845684333758,1.75,6.));
#504 = LINE('',#505,#506);
#505 = CARTESIAN_POINT('',(-9.845684333758,1.75,20.));
#506 = VECTOR('',#507,1.);
#507 = DIRECTION('',(0.,0.,1.));
#508 = ORIENTED_EDGE('',*,*,#509,.F.);
#509 = EDGE_CURVE('',#477,#502,#510,.T.);
#510 = LINE('',#511,#512);
#511 = CARTESIAN_POINT('',(-5.843586227652,1.75,6.));
#512 = VECTOR('',#513,1.);
#513 = DIRECTION('',(-1.,0.,0.));
#514 = PLANE('',#515);
#515 = AXIS2_PLACEMENT_3D('',#516,#517,#518);
#516 = CARTESIAN_POINT('',(-6.859333839983,1.75,14.));
#517 = DIRECTION('',(-1.39E-15,-1.,-4.7E-16));
#518 = DIRECTION('',(-1.,1.39E-15,0.));
#519 = ADVANCED_FACE('',(#520),#538,.T.);
#520 = FACE_BOUND('',#521,.T.);
#521 = EDGE_LOOP('',(#522,#523,#530,#531));
#522 = ORIENTED_EDGE('',*,*,#509,.T.);
#523 = ORIENTED_EDGE('',*,*,#524,.F.);
#524 = EDGE_CURVE('',#383,#502,#525,.T.);
#525 = CIRCLE('',#526,10.);
#526 = AXIS2_PLACEMENT_3D('',#527,#528,#529);
#527 = CARTESIAN_POINT('',(0.,0.,6.));
#528 = DIRECTION('',(0.,0.,-1.));
#529 = DIRECTION('',(1.,0.,0.));
#530 = ORIENTED_EDGE('',*,*,#382,.T.);
#531 = ORIENTED_EDGE('',*,*,#532,.T.);
#532 = EDGE_CURVE('',#375,#477,#533,.T.);
#533 = CIRCLE('',#534,6.1);
#534 = AXIS2_PLACEMENT_3D('',#535,#536,#537);
#535 = CARTESIAN_POINT('',(0.,0.,6.));
#536 = DIRECTION('',(0.,0.,-1.));
#537 = DIRECTION('',(1.,0.,0.));
#538 = PLANE('',#539);
#539 = AXIS2_PLACEMENT_3D('',#540,#541,#542);
#540 = CARTESIAN_POINT('',(3.993782785761E-03,-1.5E-16,6.));
#541 = DIRECTION('',(0.,0.,1.));
#542 = DIRECTION('',(1.,0.,0.));
#543 = ADVANCED_FACE('',(#544),#556,.F.);
#544 = FACE_BOUND('',#545,.F.);
#545 = EDGE_LOOP('',(#546,#547,#548,#549));
#546 = ORIENTED_EDGE('',*,*,#96,.F.);
#547 = ORIENTED_EDGE('',*,*,#48,.T.);
#548 = ORIENTED_EDGE('',*,*,#485,.T.);
#549 = ORIENTED_EDGE('',*,*,#550,.F.);
#550 = EDGE_CURVE('',#89,#486,#551,.T.);
#551 = CIRCLE('',#552,4.25);
#552 = AXIS2_PLACEMENT_3D('',#553,#554,#555);
#553 = CARTESIAN_POINT('',(0.,0.,24.));
#554 = DIRECTION('',(0.,0.,1.));
#555 = DIRECTION('',(1.,0.,0.));
#556 = CYLINDRICAL_SURFACE('',#557,4.25);
#557 = AXIS2_PLACEMENT_3D('',#558,#559,#560);
#558 = CARTESIAN_POINT('',(0.,0.,20.));
#559 = DIRECTION('',(0.,0.,1.));
#560 = DIRECTION('',(1.,0.,0.));
#561 = ADVANCED_FACE('',(#562),#574,.T.);
#562 = FACE_BOUND('',#563,.F.);
#563 = EDGE_LOOP('',(#564,#565,#566,#567));
#564 = ORIENTED_EDGE('',*,*,#88,.T.);
#565 = ORIENTED_EDGE('',*,*,#550,.T.);
#566 = ORIENTED_EDGE('',*,*,#493,.T.);
#567 = ORIENTED_EDGE('',*,*,#568,.F.);
#568 = EDGE_CURVE('',#81,#494,#569,.T.);
#569 = CIRCLE('',#570,10.);
#570 = AXIS2_PLACEMENT_3D('',#571,#572,#573);
#571 = CARTESIAN_POINT('',(0.,0.,24.));
#572 = DIRECTION('',(0.,0.,1.));
#573 = DIRECTION('',(1.,0.,0.));
#574 = PLANE('',#575);
#575 = AXIS2_PLACEMENT_3D('',#576,#577,#578);
#576 = CARTESIAN_POINT('',(-6.252E-14,-0.111291676682,24.));
#577 = DIRECTION('',(0.,0.,1.));
#578 = DIRECTION('',(1.,0.,0.));
#579 = ADVANCED_FACE('',(#580),#600,.T.);
#580 = FACE_BOUND('',#581,.F.);
#581 = EDGE_LOOP('',(#582,#583,#584,#585,#592,#593));
#582 = ORIENTED_EDGE('',*,*,#398,.T.);
#583 = ORIENTED_EDGE('',*,*,#430,.T.);
#584 = ORIENTED_EDGE('',*,*,#453,.T.);
#585 = ORIENTED_EDGE('',*,*,#586,.F.);
#586 = EDGE_CURVE('',#317,#454,#587,.T.);
#587 = CIRCLE('',#588,10.);
#588 = AXIS2_PLACEMENT_3D('',#589,#590,#591);
#589 = CARTESIAN_POINT('',(0.,0.,24.));
#590 = DIRECTION('',(0.,0.,1.));
#591 = DIRECTION('',(1.,0.,0.));
#592 = ORIENTED_EDGE('',*,*,#324,.T.);
#593 = ORIENTED_EDGE('',*,*,#594,.F.);
#594 = EDGE_CURVE('',#391,#325,#595,.T.);
#595 = CIRCLE('',#596,10.);
#596 = AXIS2_PLACEMENT_3D('',#597,#598,#599);
#597 = CARTESIAN_POINT('',(0.,0.,24.));
#598 = DIRECTION('',(0.,0.,1.));
#599 = DIRECTION('',(1.,0.,0.));
#600 = PLANE('',#601);
#601 = AXIS2_PLACEMENT_3D('',#602,#603,#604);
#602 = CARTESIAN_POINT('',(-6.252E-14,-0.111291676682,24.));
#603 = DIRECTION('',(0.,0.,1.));
#604 = DIRECTION('',(1.,0.,0.));
#605 = ADVANCED_FACE('',(#606,#622,#693,#758),#809,.F.);
#606 = FACE_BOUND('',#607,.T.);
#607 = EDGE_LOOP('',(#608,#609,#610,#611,#612,#613,#614,#615,#616,#617,
    #618,#619,#620,#621));
#608 = ORIENTED_EDGE('',*,*,#532,.F.);
#609 = ORIENTED_EDGE('',*,*,#374,.F.);
#610 = ORIENTED_EDGE('',*,*,#299,.F.);
#611 = ORIENTED_EDGE('',*,*,#224,.T.);
#612 = ORIENTED_EDGE('',*,*,#208,.T.);
#613 = ORIENTED_EDGE('',*,*,#189,.T.);
#614 = ORIENTED_EDGE('',*,*,#240,.F.);
#615 = ORIENTED_EDGE('',*,*,#265,.F.);
#616 = ORIENTED_EDGE('',*,*,#445,.T.);
#617 = ORIENTED_EDGE('',*,*,#120,.F.);
#618 = ORIENTED_EDGE('',*,*,#111,.F.);
#619 = ORIENTED_EDGE('',*,*,#64,.F.);
#620 = ORIENTED_EDGE('',*,*,#31,.F.);
#621 = ORIENTED_EDGE('',*,*,#476,.T.);
#622 = FACE_BOUND('',#623,.T.);
#623 = EDGE_LOOP('',(#624,#645,#664));
#624 = ORIENTED_EDGE('',*,*,#625,.T.);
#625 = EDGE_CURVE('',#626,#628,#630,.T.);
#626 = VERTEX_POINT('',#627);
#627 = CARTESIAN_POINT('',(6.1,0.,-2.9));
#628 = VERTEX_POINT('',#629);
#629 = CARTESIAN_POINT('',(5.937171043519,1.4,-1.5));
#630 = B_SPLINE_CURVE_WITH_KNOTS('',7,(#631,#632,#633,#634,#635,#636,
    #637,#638,#639,#640,#641,#642,#643,#644),.UNSPECIFIED.,.F.,.F.,(8,6,
    8),(0.,0.460045149199,1.),.UNSPECIFIED.);
#631 = CARTESIAN_POINT('',(6.1,-1.3E-16,-2.9));
#632 = CARTESIAN_POINT('',(6.1,0.168025498597,-2.9));
#633 = CARTESIAN_POINT('',(6.094600145169,0.333029417916,-2.876472982084
    ));
#634 = CARTESIAN_POINT('',(6.084151340304,0.490942969626,-2.830941226658
    ));
#635 = CARTESIAN_POINT('',(6.069743373656,0.638130373483,-2.765816697977
    ));
#636 = CARTESIAN_POINT('',(6.053028491682,0.771575050713,-2.684373215258
    ));
#637 = CARTESIAN_POINT('',(6.035715195319,0.889144828592,-2.59075415873)
  );
#638 = CARTESIAN_POINT('',(5.999677330985,1.108263898197,-2.371635089125
    ));
#639 = CARTESIAN_POINT('',(5.980725463173,1.206552527214,-2.240352395482
    ));
#640 = CARTESIAN_POINT('',(5.963980487878,1.284573424023,-2.099884137944
    ));
#641 = CARTESIAN_POINT('',(5.950716693268,1.34255482236,-1.953296564348)
  );
#642 = CARTESIAN_POINT('',(5.941675002556,1.38089950561,-1.803105890236)
  );
#643 = CARTESIAN_POINT('',(5.937171043519,1.4,-1.651396170104));
#644 = CARTESIAN_POINT('',(5.937171043519,1.4,-1.5));
#645 = ORIENTED_EDGE('',*,*,#646,.T.);
#646 = EDGE_CURVE('',#628,#647,#649,.T.);
#647 = VERTEX_POINT('',#648);
#648 = CARTESIAN_POINT('',(6.1,0.,-0.1));
#649 = B_SPLINE_CURVE_WITH_KNOTS('',7,(#650,#651,#652,#653,#654,#655,
    #656,#657,#658,#659,#660,#661,#662,#663),.UNSPECIFIED.,.F.,.F.,(8,6,
    8),(0.,0.521161416404,1.),.UNSPECIFIED.);
#650 = CARTESIAN_POINT('',(5.937171043519,1.4,-1.5));
#651 = CARTESIAN_POINT('',(5.937171043519,1.4,-1.353845108101));
#652 = CARTESIAN_POINT('',(5.941368508763,1.382199166888,-1.207789502675
    ));
#653 = CARTESIAN_POINT('',(5.949753649466,1.346639495182,-1.063392303843
    ));
#654 = CARTESIAN_POINT('',(5.962027196843,1.293083457839,-0.922330295296
    ));
#655 = CARTESIAN_POINT('',(5.977575440068,1.221145387122,-0.786579630642
    ));
#656 = CARTESIAN_POINT('',(5.995383622,1.130392237463,-0.65859768127));
#657 = CARTESIAN_POINT('',(6.031147525537,0.919639569257,-0.43416888457)
  );
#658 = CARTESIAN_POINT('',(6.049351339623,0.800387427641,-0.333634278364
    ));
#659 = CARTESIAN_POINT('',(6.067198826436,0.663577154032,-0.245707428713
    ));
#660 = CARTESIAN_POINT('',(6.082760137578,0.511470527534,-0.175121580564
    ));
#661 = CARTESIAN_POINT('',(6.09411797644,0.347382824519,-0.125627712132)
  );
#662 = CARTESIAN_POINT('',(6.1,0.175366554932,-1.E-01));
#663 = CARTESIAN_POINT('',(6.1,2.1E-16,-1.E-01));
#664 = ORIENTED_EDGE('',*,*,#665,.T.);
#665 = EDGE_CURVE('',#647,#626,#666,.T.);
#666 = B_SPLINE_CURVE_WITH_KNOTS('',7,(#667,#668,#669,#670,#671,#672,
    #673,#674,#675,#676,#677,#678,#679,#680,#681,#682,#683,#684,#685,
    #686,#687,#688,#689,#690,#691,#692),.UNSPECIFIED.,.F.,.F.,(8,6,6,6,8
    ),(0.,0.239552310575,0.50003074682,0.760503208743,1.),
  .UNSPECIFIED.);
#667 = CARTESIAN_POINT('',(6.1,-4.4E-16,-1.E-01));
#668 = CARTESIAN_POINT('',(6.1,-0.17559025125,-1.E-01));
#669 = CARTESIAN_POINT('',(6.094102942367,-0.347632829169,
    -0.125693117432));
#670 = CARTESIAN_POINT('',(6.082739481653,-0.511615732262,-0.17521166473
    ));
#671 = CARTESIAN_POINT('',(6.067192562799,-0.663577716698,
    -0.245749221958));
#672 = CARTESIAN_POINT('',(6.049364271524,-0.800286581034,
    -0.333581688611));
#673 = CARTESIAN_POINT('',(6.031165230124,-0.919535238109,
    -0.434057783182));
#674 = CARTESIAN_POINT('',(5.9953820318,-1.130401608335,-0.658607660234)
  );
#675 = CARTESIAN_POINT('',(5.977574279012,-1.221149790445,
    -0.786589655237));
#676 = CARTESIAN_POINT('',(5.962027463952,-1.293082072226,-0.92233261624
    ));
#677 = CARTESIAN_POINT('',(5.94975428733,-1.346636830821,-1.063386902647
    ));
#678 = CARTESIAN_POINT('',(5.941368701158,-1.382198343564,
    -1.207782278211));
#679 = CARTESIAN_POINT('',(5.937171043519,-1.4,-1.353841755821));
#680 = CARTESIAN_POINT('',(5.937171043519,-1.4,-1.646154891899));
#681 = CARTESIAN_POINT('',(5.941368508763,-1.382199166888,
    -1.792210497325));
#682 = CARTESIAN_POINT('',(5.949753649466,-1.346639495182,
    -1.936607696157));
#683 = CARTESIAN_POINT('',(5.962027196843,-1.293083457839,
    -2.077669704705));
#684 = CARTESIAN_POINT('',(5.977575440068,-1.221145387122,
    -2.213420369358));
#685 = CARTESIAN_POINT('',(5.995383622,-1.130392237463,-2.34140231873));
#686 = CARTESIAN_POINT('',(6.031160188014,-0.919564950699,
    -2.565910576124));
#687 = CARTESIAN_POINT('',(6.04936093595,-0.80031327674,-2.666405495841)
  );
#688 = CARTESIAN_POINT('',(6.067194903621,-0.663573357761,
    -2.754265220272));
#689 = CARTESIAN_POINT('',(6.082745673812,-0.511569993959,
    -2.824815240281));
#690 = CARTESIAN_POINT('',(6.094107215185,-0.347559218634,
    -2.874325516135));
#691 = CARTESIAN_POINT('',(6.1,-0.175526581043,-2.9));
#692 = CARTESIAN_POINT('',(6.1,-8.9E-16,-2.9));
#693 = FACE_BOUND('',#694,.T.);
#694 = EDGE_LOOP('',(#695));
#695 = ORIENTED_EDGE('',*,*,#696,.F.);
#696 = EDGE_CURVE('',#697,#697,#699,.T.);
#697 = VERTEX_POINT('',#698);
#698 = CARTESIAN_POINT('',(-5.937171043519,1.4,-1.5));
#699 = B_SPLINE_CURVE_WITH_KNOTS('',8,(#700,#701,#702,#703,#704,#705,
    #706,#707,#708,#709,#710,#711,#712,#713,#714,#715,#716,#717,#718,
    #719,#720,#721,#722,#723,#724,#725,#726,#727,#728,#729,#730,#731,
    #732,#733,#734,#735,#736,#737,#738,#739,#740,#741,#742,#743,#744,
    #745,#746,#747,#748,#749,#750,#751,#752,#753,#754,#755,#756,#757),
  .UNSPECIFIED.,.T.,.F.,(9,7,7,7,7,7,7,7,9),(0.,0.129020251787,
    0.21812288771,0.329088613402,0.426649054555,0.57023436567,
    0.700296947099,0.797140998241,1.),.UNSPECIFIED.);
#700 = CARTESIAN_POINT('',(-5.937171043519,1.4,-1.5));
#701 = CARTESIAN_POINT('',(-5.937171043519,1.4,-1.372114469588));
#702 = CARTESIAN_POINT('',(-5.940319142452,1.386649375166,
    -1.244303404032));
#703 = CARTESIAN_POINT('',(-5.946609221702,1.359974372071,
    -1.117541253405));
#704 = CARTESIAN_POINT('',(-5.955890423154,1.31986147651,-0.992861299569
    ));
#705 = CARTESIAN_POINT('',(-5.967857788052,1.26610668132,-0.87142379605)
  );
#706 = CARTESIAN_POINT('',(-5.982027485551,1.198457099707,
    -0.754584143299));
#707 = CARTESIAN_POINT('',(-5.997713467828,1.116662717579,
    -0.643977227573));
#708 = CARTESIAN_POINT('',(-6.025285487337,0.954183902217,
    -0.470954862869));
#709 = CARTESIAN_POINT('',(-6.036905972908,0.880629869487,
    -0.403838427226));
#710 = CARTESIAN_POINT('',(-6.048542258104,0.800025528546,
    -0.341362837133));
#711 = CARTESIAN_POINT('',(-6.059792350574,0.71264608536,-0.284568696712
    ));
#712 = CARTESIAN_POINT('',(-6.07022035103,0.618899005555,-0.234458370196
    ));
#713 = CARTESIAN_POINT('',(-6.079386147792,0.519317237802,
    -0.191997087409));
#714 = CARTESIAN_POINT('',(-6.086878307672,0.414557058525,
    -0.158115906414));
#715 = CARTESIAN_POINT('',(-6.099164646513,0.169460311344,
    -0.103330292547));
#716 = CARTESIAN_POINT('',(-6.1027540008,2.85247146694E-02,
    -8.805742113933E-02));
#717 = CARTESIAN_POINT('',(-6.102536770864,-0.114383112175,
    -8.921812495037E-02));
#718 = CARTESIAN_POINT('',(-6.098317841024,-0.256016098257,
    -0.107105366421));
#719 = CARTESIAN_POINT('',(-6.090424239159,-0.39314728173,
    -0.141041585579));
#720 = CARTESIAN_POINT('',(-6.079647454284,-0.522788577746,
    -0.189393778376));
#721 = CARTESIAN_POINT('',(-6.067050549169,-0.642406556401,
    -0.249560067929));
#722 = CARTESIAN_POINT('',(-6.041959170584,-0.844891547214,
    -0.378060950562));
#723 = CARTESIAN_POINT('',(-6.02947825214,-0.931727551892,-0.44533991691
    ));
#724 = CARTESIAN_POINT('',(-6.016761070524,-1.010535310881,
    -0.518621183754));
#725 = CARTESIAN_POINT('',(-6.004260129654,-1.081282512211,
    -0.596900675535));
#726 = CARTESIAN_POINT('',(-5.992363315374,-1.14400394365,
    -0.679302909477));
#727 = CARTESIAN_POINT('',(-5.981388898335,-1.198775523161,
    -0.765059751521));
#728 = CARTESIAN_POINT('',(-5.971587185301,-1.245693164213,
    -0.853491879435));
#729 = CARTESIAN_POINT('',(-5.950729589817,-1.342495373801,
    -1.077188587187));
#730 = CARTESIAN_POINT('',(-5.941215483738,-1.38355918645,
    -1.215375905406));
#731 = CARTESIAN_POINT('',(-5.935239054516,-1.408197789715,-1.3568154268
    ));
#732 = CARTESIAN_POINT('',(-5.933193229466,-1.41643867498,
    -1.499918966511));
#733 = CARTESIAN_POINT('',(-5.935226298391,-1.408245405174,
    -1.643111269035));
#734 = CARTESIAN_POINT('',(-5.941215581,-1.383568694411,-1.784741475411)
  );
#735 = CARTESIAN_POINT('',(-5.950749628973,-1.342402370051,
    -1.923026331798));
#736 = CARTESIAN_POINT('',(-5.974380264745,-1.232730200099,
    -2.176463763182));
#737 = CARTESIAN_POINT('',(-5.988064464307,-1.166690816903,
    -2.293662479872));
#738 = CARTESIAN_POINT('',(-6.003762343112,-1.086435977875,
    -2.405906326401));
#739 = CARTESIAN_POINT('',(-6.020802948599,-0.991803302599,
    -2.511293866839));
#740 = CARTESIAN_POINT('',(-6.038283097822,-0.882814540912,
    -2.607694217461));
#741 = CARTESIAN_POINT('',(-6.055081713225,-0.75973087143,
    -2.692711328028));
#742 = CARTESIAN_POINT('',(-6.069924907599,-0.623157170838,
    -2.763617107708));
#743 = CARTESIAN_POINT('',(-6.090184849269,-0.36334484283,
    -2.857155301439));
#744 = CARTESIAN_POINT('',(-6.097007036161,-0.246043167277,
    -2.887335399301));
#745 = CARTESIAN_POINT('',(-6.10140042854,-0.124217391071,
    -2.906113865844));
#746 = CARTESIAN_POINT('',(-6.102921331139,-4.031488887546E-05,
    -2.91249346975));
#747 = CARTESIAN_POINT('',(-6.101404569418,0.124166339353,
    -2.906130627941));
#748 = CARTESIAN_POINT('',(-6.097008336712,0.24605929853,-2.887342870631
    ));
#749 = CARTESIAN_POINT('',(-6.090180087385,0.363405908964,
    -2.857133316278));
#750 = CARTESIAN_POINT('',(-6.063435066886,0.706382515296,
    -2.733654140004));
#751 = CARTESIAN_POINT('',(-6.037568185335,0.907421134071,
    -2.608457327847));
#752 = CARTESIAN_POINT('',(-6.008861672599,1.074005592598,
    -2.454204581221));
#753 = CARTESIAN_POINT('',(-5.981936593858,1.205840023023,
    -2.279820583946));
#754 = CARTESIAN_POINT('',(-5.959927459254,1.303480830644,
    -2.092270065585));
#755 = CARTESIAN_POINT('',(-5.944739462536,1.367906263247,
    -1.896977776009));
#756 = CARTESIAN_POINT('',(-5.937171043519,1.4,-1.698279957666));
#757 = CARTESIAN_POINT('',(-5.937171043519,1.4,-1.5));
#758 = FACE_BOUND('',#759,.T.);
#759 = EDGE_LOOP('',(#760));
#760 = ORIENTED_EDGE('',*,*,#761,.F.);
#761 = EDGE_CURVE('',#762,#762,#764,.T.);
#762 = VERTEX_POINT('',#763);
#763 = CARTESIAN_POINT('',(1.25,5.970552738231,-1.5));
#764 = B_SPLINE_CURVE_WITH_KNOTS('',7,(#765,#766,#767,#768,#769,#770,
    #771,#772,#773,#774,#775,#776,#777,#778,#779,#780,#781,#782,#783,
    #784,#785,#786,#787,#788,#789,#790,#791,#792,#793,#794,#795,#796,
    #797,#798,#799,#800,#801,#802,#803,#804,#805,#806,#807,#808),
  .UNSPECIFIED.,.T.,.F.,(8,6,6,6,6,6,6,8),(0.,0.150708805786,
    0.28657433422,0.423645052814,0.586517652667,0.713330961408,
    0.839634369757,1.),.UNSPECIFIED.);
#765 = CARTESIAN_POINT('',(1.25,5.970552738231,-1.5));
#766 = CARTESIAN_POINT('',(1.25,5.970552738231,-1.349214835607));
#767 = CARTESIAN_POINT('',(1.228779965782,5.974995266877,-1.198420678936
    ));
#768 = CARTESIAN_POINT('',(1.186332571935,5.983882681626,-1.049902430741
    ));
#769 = CARTESIAN_POINT('',(1.1223227317,5.996786388561,-0.906119336446)
  );
#770 = CARTESIAN_POINT('',(1.036284434008,6.012817113471,-0.769996070663
    ));
#771 = CARTESIAN_POINT('',(0.92775998971,6.030482148732,-0.645214528102)
  );
#772 = CARTESIAN_POINT('',(0.678700176491,6.063295385105,-0.439174331756
    ));
#773 = CARTESIAN_POINT('',(0.538921965228,6.078973362372,-0.351986347036
    ));
#774 = CARTESIAN_POINT('',(0.380406995847,6.092610470462,-0.284456375317
    ));
#775 = CARTESIAN_POINT('',(0.208862826832,6.10159480249,-0.242712718524)
  );
#776 = CARTESIAN_POINT('',(3.149851841331E-02,6.104199740654,
    -0.229949400653));
#777 = CARTESIAN_POINT('',(-0.144049578906,6.100585928972,
    -0.246440806321));
#778 = CARTESIAN_POINT('',(-0.47915484562,6.083486396834,-0.332481214942
    ));
#779 = CARTESIAN_POINT('',(-0.633569704221,6.070168794479,
    -0.401218609018));
#780 = CARTESIAN_POINT('',(-0.771160952067,6.053855135217,
    -0.490454724075));
#781 = CARTESIAN_POINT('',(-0.890251722993,6.036571729409,
    -0.595738817638));
#782 = CARTESIAN_POINT('',(-0.989942793429,6.020099359759,-0.71293100121
    ));
#783 = CARTESIAN_POINT('',(-1.070036400328,6.005736861836,
    -0.838149779845));
#784 = CARTESIAN_POINT('',(-1.203513245972,5.980551493458,-1.12180251545
    ));
#785 = CARTESIAN_POINT('',(-1.250361794584,5.970653012309,
    -1.284879937965));
#786 = CARTESIAN_POINT('',(-1.271475281853,5.965888803586,
    -1.453137232459));
#787 = CARTESIAN_POINT('',(-1.266538146233,5.966983795662,
    -1.623009324778));
#788 = CARTESIAN_POINT('',(-1.235329108632,5.973928738005,
    -1.790686331306));
#789 = CARTESIAN_POINT('',(-1.177977513013,5.9857679606,-1.951953867942)
  );
#790 = CARTESIAN_POINT('',(-1.031075178534,6.012583248003,
    -2.219168222369));
#791 = CARTESIAN_POINT('',(-0.950313281976,6.026494460325,-2.33155183026
    ));
#792 = CARTESIAN_POINT('',(-0.852808626498,6.041873311611,
    -2.436235057201));
#793 = CARTESIAN_POINT('',(-0.738876984486,6.057599786589,
    -2.529968647273));
#794 = CARTESIAN_POINT('',(-0.609414116913,6.072222296954,
    -2.609374279129));
#795 = CARTESIAN_POINT('',(-0.465934529496,6.084160994469,
    -2.670913185309));
#796 = CARTESIAN_POINT('',(-0.156413714143,6.099955019975,
    -2.750384623317));
#797 = CARTESIAN_POINT('',(6.043052212795E-03,6.103663963507,
    -2.767595148942));
#798 = CARTESIAN_POINT('',(0.170806234121,6.102084569031,-2.759691709589
    ));
#799 = CARTESIAN_POINT('',(0.331518724422,6.094982479877,-2.726592369114
    ));
#800 = CARTESIAN_POINT('',(0.482103265044,6.083555132547,-2.670601576754
    ));
#801 = CARTESIAN_POINT('',(0.617520414973,6.069811301678,-2.596430128485
    ));
#802 = CARTESIAN_POINT('',(0.883552885787,6.037533281594,-2.403146224609
    ));
#803 = CARTESIAN_POINT('',(1.0070743372,6.018216191107,-2.274365262353)
  );
#804 = CARTESIAN_POINT('',(1.104962539749,6.000277043064,-2.131522287617
    ));
#805 = CARTESIAN_POINT('',(1.17771893253,5.985686485521,-1.97928989602)
  );
#806 = CARTESIAN_POINT('',(1.225915242897,5.975594919167,-1.821325193088
    ));
#807 = CARTESIAN_POINT('',(1.25,5.970552738231,-1.660641575963));
#808 = CARTESIAN_POINT('',(1.25,5.970552738231,-1.5));
#809 = CYLINDRICAL_SURFACE('',#810,6.1);
#810 = AXIS2_PLACEMENT_3D('',#811,#812,#813);
#811 = CARTESIAN_POINT('',(0.,0.,-12.));
#812 = DIRECTION('',(-0.,-0.,-1.));
#813 = DIRECTION('',(1.,0.,0.));
#814 = ADVANCED_FACE('',(#815),#901,.F.);
#815 = FACE_BOUND('',#816,.F.);
#816 = EDGE_LOOP('',(#817,#844,#849,#850,#851,#852,#853,#872));
#817 = ORIENTED_EDGE('',*,*,#818,.F.);
#818 = EDGE_CURVE('',#819,#821,#823,.T.);
#819 = VERTEX_POINT('',#820);
#820 = CARTESIAN_POINT('',(9.901515035589,1.4,-1.5));
#821 = VERTEX_POINT('',#822);
#822 = CARTESIAN_POINT('',(10.,0.,-0.1));
#823 = B_SPLINE_CURVE_WITH_KNOTS('',7,(#824,#825,#826,#827,#828,#829,
    #830,#831,#832,#833,#834,#835,#836,#837,#838,#839,#840,#841,#842,
    #843),.UNSPECIFIED.,.F.,.F.,(8,6,6,8),(0.,0.479122698656,
    0.788471640281,1.),.UNSPECIFIED.);
#824 = CARTESIAN_POINT('',(9.901515035589,1.4,-1.5));
#825 = CARTESIAN_POINT('',(9.901515035589,1.4,-1.365701957375));
#826 = CARTESIAN_POINT('',(9.903640130927,1.384970159846,-1.231410865965
    ));
#827 = CARTESIAN_POINT('',(9.907890140621,1.354912338271,-1.098339307427
    ));
#828 = CARTESIAN_POINT('',(9.914145917348,1.309630361663,-0.967763835367
    ));
#829 = CARTESIAN_POINT('',(9.922162754444,1.248786393711,-0.841151925913
    ));
#830 = CARTESIAN_POINT('',(9.931531765571,1.171952054144,-0.720306373189
    ));
#831 = CARTESIAN_POINT('',(9.948179730154,1.018521665389,-0.534840892941
    ));
#832 = CARTESIAN_POINT('',(9.955038071414,0.951348878911,-0.465302570061
    ));
#833 = CARTESIAN_POINT('',(9.962042494823,0.877220953439,-0.399887269714
    ));
#834 = CARTESIAN_POINT('',(9.968971917955,0.796263869714,-0.33951526126)
  );
#835 = CARTESIAN_POINT('',(9.97557253399,0.708712220676,-0.285134282205)
  );
#836 = CARTESIAN_POINT('',(9.981573511394,0.614919371291,-0.237725572415
    ));
#837 = CARTESIAN_POINT('',(9.990223321868,0.4473069353,-0.171363114384)
  );
#838 = CARTESIAN_POINT('',(9.993330588733,0.376585741878,-0.148166194873
    ));
#839 = CARTESIAN_POINT('',(9.995933260826,0.303648928901,-0.129152017277
    ));
#840 = CARTESIAN_POINT('',(9.997948600515,0.228986458656,-0.114650672468
    ));
#841 = CARTESIAN_POINT('',(9.999315553896,0.153124780768,-0.104891149671
    ));
#842 = CARTESIAN_POINT('',(10.,7.661149265726E-02,-1.E-01));
#843 = CARTESIAN_POINT('',(10.,2.1E-16,-1.E-01));
#844 = ORIENTED_EDGE('',*,*,#845,.F.);
#845 = EDGE_CURVE('',#628,#819,#846,.T.);
#846 = B_SPLINE_CURVE_WITH_KNOTS('',1,(#847,#848),.UNSPECIFIED.,.F.,.F.,
  (2,2),(-77.60586575768,77.605865757686),.PIECEWISE_BEZIER_KNOTS.);
#847 = CARTESIAN_POINT('',(-77.60586575768,1.4,-1.5));
#848 = CARTESIAN_POINT('',(77.605865757686,1.4,-1.5));
#849 = ORIENTED_EDGE('',*,*,#646,.T.);
#850 = ORIENTED_EDGE('',*,*,#665,.T.);
#851 = ORIENTED_EDGE('',*,*,#625,.T.);
#852 = ORIENTED_EDGE('',*,*,#845,.T.);
#853 = ORIENTED_EDGE('',*,*,#854,.F.);
#854 = EDGE_CURVE('',#855,#819,#857,.T.);
#855 = VERTEX_POINT('',#856);
#856 = CARTESIAN_POINT('',(10.,0.,-2.9));
#857 = B_SPLINE_CURVE_WITH_KNOTS('',7,(#858,#859,#860,#861,#862,#863,
    #864,#865,#866,#867,#868,#869,#870,#871),.UNSPECIFIED.,.F.,.F.,(8,6,
    8),(0.,0.4580737268,1.),.UNSPECIFIED.);
#858 = CARTESIAN_POINT('',(10.,1.11E-15,-2.9));
#859 = CARTESIAN_POINT('',(10.,0.167747739612,-2.9));
#860 = CARTESIAN_POINT('',(9.996717003785,0.332690941998,-2.876550683554
    ));
#861 = CARTESIAN_POINT('',(9.990349183427,0.490676962249,-2.831062723813
    ));
#862 = CARTESIAN_POINT('',(9.981567826941,0.637973209536,-2.765922651769
    ));
#863 = CARTESIAN_POINT('',(9.971407440037,0.77150280057,-2.684434336093)
  );
#864 = CARTESIAN_POINT('',(9.960910095179,0.889121466665,-2.590777520658
    ));
#865 = CARTESIAN_POINT('',(9.939012447563,1.109234564399,-2.370664422924
    ));
#866 = CARTESIAN_POINT('',(9.927557193253,1.207446233009,-2.238915457417
    ));
#867 = CARTESIAN_POINT('',(9.917530549097,1.28505205314,-2.098587393592)
  );
#868 = CARTESIAN_POINT('',(9.909618525285,1.342689239539,-1.952487144987
    ));
#869 = CARTESIAN_POINT('',(9.904216270258,1.38089518428,-1.802814544181)
  );
#870 = CARTESIAN_POINT('',(9.901515035589,1.4,-1.651413912999));
#871 = CARTESIAN_POINT('',(9.901515035589,1.4,-1.5));
#872 = ORIENTED_EDGE('',*,*,#873,.F.);
#873 = EDGE_CURVE('',#821,#855,#874,.T.);
#874 = B_SPLINE_CURVE_WITH_KNOTS('',7,(#875,#876,#877,#878,#879,#880,
    #881,#882,#883,#884,#885,#886,#887,#888,#889,#890,#891,#892,#893,
    #894,#895,#896,#897,#898,#899,#900),.UNSPECIFIED.,.F.,.F.,(8,6,6,6,8
    ),(0.,0.259233249005,0.500026793407,0.740841771471,1.),
  .UNSPECIFIED.);
#875 = CARTESIAN_POINT('',(10.,-1.11E-15,-1.E-01));
#876 = CARTESIAN_POINT('',(10.,-0.190635546013,-1.E-01));
#877 = CARTESIAN_POINT('',(9.99575997734,-0.376798379062,-0.130284696226
    ));
#878 = CARTESIAN_POINT('',(9.987639043286,-0.552869533635,
    -0.188297741018));
#879 = CARTESIAN_POINT('',(9.976717520861,-0.714070276914,-0.27033710015
    ));
#880 = CARTESIAN_POINT('',(9.96454544228,-0.856667749464,-0.371607132969
    ));
#881 = CARTESIAN_POINT('',(9.952538717575,-0.978348518018,
    -0.486279899707));
#882 = CARTESIAN_POINT('',(9.931532089328,-1.171949070345,
    -0.720302766395));
#883 = CARTESIAN_POINT('',(9.922163217262,-1.24878272688,-0.841145699404
    ));
#884 = CARTESIAN_POINT('',(9.914146162441,-1.309628935861,
    -0.967758376611));
#885 = CARTESIAN_POINT('',(9.90788989437,-1.354914097307,-1.0983393996)
  );
#886 = CARTESIAN_POINT('',(9.903639753547,-1.384972827377,
    -1.231419161805));
#887 = CARTESIAN_POINT('',(9.901515035589,-1.4,-1.365713912918));
#888 = CARTESIAN_POINT('',(9.901515035589,-1.4,-1.634298040237));
#889 = CARTESIAN_POINT('',(9.903640130875,-1.384970160413,
    -1.768589139922));
#890 = CARTESIAN_POINT('',(9.907890140904,-1.354912335546,
    -1.901660688283));
#891 = CARTESIAN_POINT('',(9.914145916786,-1.309630366842,
    -2.032236162476));
#892 = CARTESIAN_POINT('',(9.922162754959,-1.248786389021,-2.15884807891
    ));
#893 = CARTESIAN_POINT('',(9.931531765376,-1.171952055942,
    -2.279693624638));
#894 = CARTESIAN_POINT('',(9.952534945479,-0.978383282275,
    -2.513678077525));
#895 = CARTESIAN_POINT('',(9.964542600623,-0.85670155308,-2.628374489201
    ));
#896 = CARTESIAN_POINT('',(9.97671905319,-0.714067881061,-2.729680802658
    ));
#897 = CARTESIAN_POINT('',(9.987644027642,-0.552815610009,
    -2.811737778665));
#898 = CARTESIAN_POINT('',(9.995763498341,-0.376708006593,
    -2.869740461744));
#899 = CARTESIAN_POINT('',(10.,-0.190556349915,-2.9));
#900 = CARTESIAN_POINT('',(10.,0.,-2.9));
#901 = CYLINDRICAL_SURFACE('',#902,1.4);
#902 = AXIS2_PLACEMENT_3D('',#903,#904,#905);
#903 = CARTESIAN_POINT('',(0.,0.,-1.5));
#904 = DIRECTION('',(1.,0.,0.));
#905 = DIRECTION('',(0.,1.,0.));
#906 = ADVANCED_FACE('',(#907),#971,.F.);
#907 = FACE_BOUND('',#908,.F.);
#908 = EDGE_LOOP('',(#909,#910,#917,#970));
#909 = ORIENTED_EDGE('',*,*,#696,.F.);
#910 = ORIENTED_EDGE('',*,*,#911,.F.);
#911 = EDGE_CURVE('',#912,#697,#914,.T.);
#912 = VERTEX_POINT('',#913);
#913 = CARTESIAN_POINT('',(-9.901515035589,1.4,-1.5));
#914 = B_SPLINE_CURVE_WITH_KNOTS('',1,(#915,#916),.UNSPECIFIED.,.F.,.F.,
  (2,2),(-77.60586575768,77.605865757686),.PIECEWISE_BEZIER_KNOTS.);
#915 = CARTESIAN_POINT('',(-77.60586575768,1.4,-1.5));
#916 = CARTESIAN_POINT('',(77.605865757686,1.4,-1.5));
#917 = ORIENTED_EDGE('',*,*,#918,.T.);
#918 = EDGE_CURVE('',#912,#912,#919,.T.);
#919 = B_SPLINE_CURVE_WITH_KNOTS('',7,(#920,#921,#922,#923,#924,#925,
    #926,#927,#928,#929,#930,#931,#932,#933,#934,#935,#936,#937,#938,
    #939,#940,#941,#942,#943,#944,#945,#946,#947,#948,#949,#950,#951,
    #952,#953,#954,#955,#956,#957,#958,#959,#960,#961,#962,#963,#964,
    #965,#966,#967,#968,#969),.UNSPECIFIED.,.T.,.F.,(8,6,6,6,6,6,6,6,8),
  (0.,0.119518182796,0.214420177626,0.301785743823,0.437600293702,
    0.587226124545,0.713821961503,0.834132990792,1.),.UNSPECIFIED.);
#920 = CARTESIAN_POINT('',(-9.901515035589,1.4,-1.5));
#921 = CARTESIAN_POINT('',(-9.901515035589,1.4,-1.365701957375));
#922 = CARTESIAN_POINT('',(-9.903640130927,1.384970159846,
    -1.231410865965));
#923 = CARTESIAN_POINT('',(-9.907890140621,1.354912338271,
    -1.098339307427));
#924 = CARTESIAN_POINT('',(-9.914145917348,1.309630361662,
    -0.967763835367));
#925 = CARTESIAN_POINT('',(-9.922162754444,1.248786393712,
    -0.841151925913));
#926 = CARTESIAN_POINT('',(-9.931531765571,1.171952054144,
    -0.720306373189));
#927 = CARTESIAN_POINT('',(-9.94968079824,1.004687574211,-0.51811834935)
  );
#928 = CARTESIAN_POINT('',(-9.958232737844,0.919873700847,
    -0.433230587726));
#929 = CARTESIAN_POINT('',(-9.966956040676,0.824361621756,
    -0.354863982329));
#930 = CARTESIAN_POINT('',(-9.975398768005,0.718562880125,-0.28490993923
    ));
#931 = CARTESIAN_POINT('',(-9.983043619941,0.603192827323,
    -0.225227152697));
#932 = CARTESIAN_POINT('',(-9.989369682349,0.479273990674,-0.17764642548
    ));
#933 = CARTESIAN_POINT('',(-9.998141978218,0.227469352355,
    -0.112993983022));
#934 = CARTESIAN_POINT('',(-10.00082825987,0.101488944721,
    -9.400753021567E-02));
#935 = CARTESIAN_POINT('',(-10.00164311845,-2.726891336371E-02,
    -8.849047738574E-02));
#936 = CARTESIAN_POINT('',(-10.00041840323,-0.156028867266,
    -9.698220603143E-02));
#937 = CARTESIAN_POINT('',(-9.997262542013,-0.281977177175,
    -0.11911519809));
#938 = CARTESIAN_POINT('',(-9.992536035448,-0.402492131791,
    -0.153619678465));
#939 = CARTESIAN_POINT('',(-9.977654724771,-0.690855991398,
    -0.267791007209));
#940 = CARTESIAN_POINT('',(-9.965964502636,-0.847487085982,
    -0.361731206274));
#941 = CARTESIAN_POINT('',(-9.953115379826,-0.98346187542,
    -0.474233851716));
#942 = CARTESIAN_POINT('',(-9.940516638135,-1.098213542643,
    -0.600571808905));
#943 = CARTESIAN_POINT('',(-9.929204245355,-1.191771598705,
    -0.736770973558));
#944 = CARTESIAN_POINT('',(-9.919864648536,-1.264558787616,
    -0.879458445726));
#945 = CARTESIAN_POINT('',(-9.905154020281,-1.375263930011,
    -1.186953808007));
#946 = CARTESIAN_POINT('',(-9.900241463222,-1.409198406102,
    -1.353409606335));
#947 = CARTESIAN_POINT('',(-9.898628540773,-1.419791882425,
    -1.522386269395));
#948 = CARTESIAN_POINT('',(-9.900494013008,-1.407206948488,
    -1.691600454594));
#949 = CARTESIAN_POINT('',(-9.905760637218,-1.371205215034,
    -1.858677437017));
#950 = CARTESIAN_POINT('',(-9.914019184196,-1.311283782986,
    -2.020833104187));
#951 = CARTESIAN_POINT('',(-9.933292255,-1.155373913468,-2.304432104025)
  );
#952 = CARTESIAN_POINT('',(-9.943783687376,-1.06557307579,
    -2.429724218852));
#953 = CARTESIAN_POINT('',(-9.955433560479,-0.9569366302,-2.546850556415
    ));
#954 = CARTESIAN_POINT('',(-9.96742066582,-0.829639664916,
    -2.652108310874));
#955 = CARTESIAN_POINT('',(-9.978641229079,-0.684517315964,
    -2.741580443341));
#956 = CARTESIAN_POINT('',(-9.987841646498,-0.523135543034,
    -2.811091841976));
#957 = CARTESIAN_POINT('',(-9.999730121203,-0.181882452878,
    -2.898710743369));
#958 = CARTESIAN_POINT('',(-10.00259595085,-6.840110047545E-03,
    -2.918296855006));
#959 = CARTESIAN_POINT('',(-10.00172751121,0.171043686865,-2.91179774847
    ));
#960 = CARTESIAN_POINT('',(-9.996911928528,0.345120031452,
    -2.878956151474));
#961 = CARTESIAN_POINT('',(-9.988951302499,0.508997089604,
    -2.822070112128));
#962 = CARTESIAN_POINT('',(-9.979215750304,0.657372930735,-2.74595067837
    ));
#963 = CARTESIAN_POINT('',(-9.954892304282,0.965512511155,
    -2.536539235761));
#964 = CARTESIAN_POINT('',(-9.939497120216,1.11295503375,-2.389357232663
    ));
#965 = CARTESIAN_POINT('',(-9.925157969272,1.22907716077,-2.225295583684
    ));
#966 = CARTESIAN_POINT('',(-9.913539716174,1.314966642174,
    -2.050287441167));
#967 = CARTESIAN_POINT('',(-9.905520627468,1.371667636053,
    -1.868844715279));
#968 = CARTESIAN_POINT('',(-9.901515035589,1.4,-1.684386142996));
#969 = CARTESIAN_POINT('',(-9.901515035589,1.4,-1.5));
#970 = ORIENTED_EDGE('',*,*,#911,.T.);
#971 = CYLINDRICAL_SURFACE('',#972,1.4);
#972 = AXIS2_PLACEMENT_3D('',#973,#974,#975);
#973 = CARTESIAN_POINT('',(0.,0.,-1.5));
#974 = DIRECTION('',(1.,0.,0.));
#975 = DIRECTION('',(0.,1.,0.));
#976 = ADVANCED_FACE('',(#977),#1035,.F.);
#977 = FACE_BOUND('',#978,.F.);
#978 = EDGE_LOOP('',(#979,#980,#987,#1034));
#979 = ORIENTED_EDGE('',*,*,#761,.F.);
#980 = ORIENTED_EDGE('',*,*,#981,.F.);
#981 = EDGE_CURVE('',#982,#762,#984,.T.);
#982 = VERTEX_POINT('',#983);
#983 = CARTESIAN_POINT('',(1.25,9.921567416492,-1.5));
#984 = B_SPLINE_CURVE_WITH_KNOTS('',1,(#985,#986),.UNSPECIFIED.,.F.,.F.,
  (2,2),(-77.60859571086,77.608595710867),.PIECEWISE_BEZIER_KNOTS.);
#985 = CARTESIAN_POINT('',(1.25,77.608595710867,-1.5));
#986 = CARTESIAN_POINT('',(1.25,-77.60859571086,-1.5));
#987 = ORIENTED_EDGE('',*,*,#988,.T.);
#988 = EDGE_CURVE('',#982,#982,#989,.T.);
#989 = B_SPLINE_CURVE_WITH_KNOTS('',7,(#990,#991,#992,#993,#994,#995,
    #996,#997,#998,#999,#1000,#1001,#1002,#1003,#1004,#1005,#1006,#1007,
    #1008,#1009,#1010,#1011,#1012,#1013,#1014,#1015,#1016,#1017,#1018,
    #1019,#1020,#1021,#1022,#1023,#1024,#1025,#1026,#1027,#1028,#1029,
    #1030,#1031,#1032,#1033),.UNSPECIFIED.,.T.,.F.,(8,6,6,6,6,6,6,8),(0.
    ,0.151170084297,0.287095302005,0.424410363586,0.587039539546,
    0.713643207595,0.839624994593,1.),.UNSPECIFIED.);
#990 = CARTESIAN_POINT('',(1.25,9.921567416492,-1.5));
#991 = CARTESIAN_POINT('',(1.25,9.921567416492,-1.349612408282));
#992 = CARTESIAN_POINT('',(1.228891782564,9.924226705511,-1.199163632864
    ));
#993 = CARTESIAN_POINT('',(1.186641228027,9.929550273182,-1.050848285353
    ));
#994 = CARTESIAN_POINT('',(1.12283106801,9.937300907635,-0.907068137573)
  );
#995 = CARTESIAN_POINT('',(1.036883825711,9.946979307413,-0.770740945402
    ));
#996 = CARTESIAN_POINT('',(0.928225270044,9.957699839883,-0.64559944147)
  );
#997 = CARTESIAN_POINT('',(0.678590407731,9.977653686302,-0.439083523141
    ));
#998 = CARTESIAN_POINT('',(0.538792120279,9.9871819351,-0.351932070133)
  );
#999 = CARTESIAN_POINT('',(0.380285368992,9.995488843209,-0.284419042946
    ));
#1000 = CARTESIAN_POINT('',(0.208722415229,10.000979987875,
    -0.242681652581));
#1001 = CARTESIAN_POINT('',(3.134647356825E-02,10.002562379867,
    -0.229951708327));
#1002 = CARTESIAN_POINT('',(-0.144156959184,10.000351810964,
    -0.24646837689));
#1003 = CARTESIAN_POINT('',(-0.47927233189,9.9899292983,-0.332511380289)
  );
#1004 = CARTESIAN_POINT('',(-0.633848203477,9.981808020268,
    -0.40133077709));
#1005 = CARTESIAN_POINT('',(-0.771567376741,9.97187047182,
    -0.490711032895));
#1006 = CARTESIAN_POINT('',(-0.890693284493,9.961375681813,
    -0.596149977835));
#1007 = CARTESIAN_POINT('',(-0.990303584248,9.95141218043,
    -0.713423808914));
#1008 = CARTESIAN_POINT('',(-1.070222387532,9.942754648014,
    -0.838545022772));
#1009 = CARTESIAN_POINT('',(-1.203055867054,9.927633704604,
    -1.120830535773));
#1010 = CARTESIAN_POINT('',(-1.250319332907,9.921636595156,
    -1.283991553914));
#1011 = CARTESIAN_POINT('',(-1.271671564515,9.918733202349,
    -1.45294522174));
#1012 = CARTESIAN_POINT('',(-1.266607431934,9.919415538242,
    -1.623440446726));
#1013 = CARTESIAN_POINT('',(-1.235150536581,9.923616688586,
    -1.791285182031));
#1014 = CARTESIAN_POINT('',(-1.177778598962,9.930745641525,
    -1.952315691258));
#1015 = CARTESIAN_POINT('',(-1.0312402424,9.946894383009,-2.21886797231)
  );
#1016 = CARTESIAN_POINT('',(-0.950611791992,9.95529093995,
    -2.331185819403));
#1017 = CARTESIAN_POINT('',(-0.853155651754,9.964602633139,
    -2.435939203981));
#1018 = CARTESIAN_POINT('',(-0.739178987161,9.974157046811,
    -2.529793389674));
#1019 = CARTESIAN_POINT('',(-0.609604290151,9.983063743066,
    -2.60930408435));
#1020 = CARTESIAN_POINT('',(-0.466001521351,9.990342037321,
    -2.670895984724));
#1021 = CARTESIAN_POINT('',(-0.156485244825,9.999968385662,
    -2.750366257359));
#1022 = CARTESIAN_POINT('',(5.924766717661E-03,10.002234559747,
    -2.767587484891));
#1023 = CARTESIAN_POINT('',(0.170674041709,10.001276376808,
    -2.759709001487));
#1024 = CARTESIAN_POINT('',(0.331380907589,9.996938146052,
    -2.726625121223));
#1025 = CARTESIAN_POINT('',(0.481954273442,9.989974893047,-2.67065923748
    ));
#1026 = CARTESIAN_POINT('',(0.617398219925,9.981616165453,
    -2.596518908384));
#1027 = CARTESIAN_POINT('',(0.884097091589,9.961967851948,-2.40275083595
    ));
#1028 = CARTESIAN_POINT('',(1.007785773621,9.950231135056,
    -2.273562516233));
#1029 = CARTESIAN_POINT('',(1.105575889579,9.939391662358,
    -2.130469412241));
#1030 = CARTESIAN_POINT('',(1.178098544871,9.930626910433,
    -1.978215621101));
#1031 = CARTESIAN_POINT('',(1.226056189354,9.924583870031,
    -1.820463574158));
#1032 = CARTESIAN_POINT('',(1.25,9.921567416492,-1.660171177131));
#1033 = CARTESIAN_POINT('',(1.25,9.921567416492,-1.5));
#1034 = ORIENTED_EDGE('',*,*,#981,.T.);
#1035 = CYLINDRICAL_SURFACE('',#1036,1.25);
#1036 = AXIS2_PLACEMENT_3D('',#1037,#1038,#1039);
#1037 = CARTESIAN_POINT('',(0.,2.33E-15,-1.5));
#1038 = DIRECTION('',(0.,-1.,2.2E-16));
#1039 = DIRECTION('',(1.,0.,0.));
#1040 = ADVANCED_FACE('',(#1041,#1057,#1062,#1065),#1068,.T.);
#1041 = FACE_BOUND('',#1042,.F.);
#1042 = EDGE_LOOP('',(#1043,#1044,#1045,#1046,#1047,#1048,#1049,#1050,
    #1051,#1052,#1053,#1054,#1055,#1056));
#1043 = ORIENTED_EDGE('',*,*,#390,.F.);
#1044 = ORIENTED_EDGE('',*,*,#594,.T.);
#1045 = ORIENTED_EDGE('',*,*,#332,.F.);
#1046 = ORIENTED_EDGE('',*,*,#172,.T.);
#1047 = ORIENTED_EDGE('',*,*,#161,.T.);
#1048 = ORIENTED_EDGE('',*,*,#316,.F.);
#1049 = ORIENTED_EDGE('',*,*,#586,.T.);
#1050 = ORIENTED_EDGE('',*,*,#461,.F.);
#1051 = ORIENTED_EDGE('',*,*,#137,.F.);
#1052 = ORIENTED_EDGE('',*,*,#146,.F.);
#1053 = ORIENTED_EDGE('',*,*,#80,.F.);
#1054 = ORIENTED_EDGE('',*,*,#568,.T.);
#1055 = ORIENTED_EDGE('',*,*,#501,.F.);
#1056 = ORIENTED_EDGE('',*,*,#524,.F.);
#1057 = FACE_BOUND('',#1058,.F.);
#1058 = EDGE_LOOP('',(#1059,#1060,#1061));
#1059 = ORIENTED_EDGE('',*,*,#818,.T.);
#1060 = ORIENTED_EDGE('',*,*,#873,.T.);
#1061 = ORIENTED_EDGE('',*,*,#854,.T.);
#1062 = FACE_BOUND('',#1063,.F.);
#1063 = EDGE_LOOP('',(#1064));
#1064 = ORIENTED_EDGE('',*,*,#918,.F.);
#1065 = FACE_BOUND('',#1066,.F.);
#1066 = EDGE_LOOP('',(#1067));
#1067 = ORIENTED_EDGE('',*,*,#988,.F.);
#1068 = CYLINDRICAL_SURFACE('',#1069,10.);
#1069 = AXIS2_PLACEMENT_3D('',#1070,#1071,#1072);
#1070 = CARTESIAN_POINT('',(0.,0.,-12.));
#1071 = DIRECTION('',(-0.,-0.,-1.));
#1072 = DIRECTION('',(1.,0.,0.));
#1073 = ( GEOMETRIC_REPRESENTATION_CONTEXT(3) 
GLOBAL_UNCERTAINTY_ASSIGNED_CONTEXT((#1077)) 
GLOBAL_UNIT_ASSIGNED_CONTEXT((#1074,#1075,#1076)) REPRESENTATION_CONTEXT
('Context #1','3D Context with UNIT and UNCERTAINTY') );
#1074 = ( LENGTH_UNIT() NAMED_UNIT(*) SI_UNIT(.MILLI.,.METRE.) );
#1075 = ( NAMED_UNIT(*) PLANE_ANGLE_UNIT() SI_UNIT($,.RADIAN.) );
#1076 = ( NAMED_UNIT(*) SI_UNIT($,.STERADIAN.) SOLID_ANGLE_UNIT() );
#1077 = UNCERTAINTY_MEASURE_WITH_UNIT(LENGTH_MEASURE(5.E-06),#1074,
  'distance_accuracy_value','confusion accuracy');
#1078 = PRODUCT_RELATED_PRODUCT_CATEGORY('part',$,(#7));
ENDSEC;
END-ISO-10303-21;
