ISO-10303-21;
HEADER;
FILE_DESCRIPTION(('FreeCAD Model'),'2;1');
FILE_NAME('Open CASCADE Shape Model','2026-08-28T13:03:57',('FreeCAD'),(
    'FreeCAD'),'Open CASCADE STEP processor 7.8','FreeCAD','Unknown');
FILE_SCHEMA(('AUTOMOTIVE_DESIGN { 1 0 10303 214 1 1 1 1 }'));
ENDSEC;
DATA;
#1 = APPLICATION_PROTOCOL_DEFINITION('international standard',
  'automotive_design',2000,#2);
#2 = APPLICATION_CONTEXT(
  'core data for automotive mechanical design processes');
#3 = SHAPE_DEFINITION_REPRESENTATION(#4,#10);
#4 = PRODUCT_DEFINITION_SHAPE('','',#5);
#5 = PRODUCT_DEFINITION('design','',#6,#9);
#6 = PRODUCT_DEFINITION_FORMATION('','',#7);
#7 = PRODUCT('Open CASCADE STEP translator 7.8 9',
  'Open CASCADE STEP translator 7.8 9','',(#8));
#8 = PRODUCT_CONTEXT('',#2,'mechanical');
#9 = PRODUCT_DEFINITION_CONTEXT('part definition',#2,'design');
#10 = SHAPE_REPRESENTATION('',(#11,#15,#140),#265);
#11 = AXIS2_PLACEMENT_3D('',#12,#13,#14);
#12 = CARTESIAN_POINT('',(0.,0.,0.));
#13 = DIRECTION('',(0.,0.,1.));
#14 = DIRECTION('',(1.,0.,-0.));
#15 = MANIFOLD_SOLID_BREP('',#16);
#16 = CLOSED_SHELL('',(#17,#50,#86,#122,#131));
#17 = ADVANCED_FACE('',(#18),#45,.T.);
#18 = FACE_BOUND('',#19,.F.);
#19 = EDGE_LOOP('',(#20,#30,#37,#38));
#20 = ORIENTED_EDGE('',*,*,#21,.T.);
#21 = EDGE_CURVE('',#22,#24,#26,.T.);
#22 = VERTEX_POINT('',#23);
#23 = CARTESIAN_POINT('',(-5.,0.,-1.5));
#24 = VERTEX_POINT('',#25);
#25 = CARTESIAN_POINT('',(5.,0.,-1.5));
#26 = LINE('',#27,#28);
#27 = CARTESIAN_POINT('',(-6.,-3.7E-16,-1.5));
#28 = VECTOR('',#29,1.);
#29 = DIRECTION('',(1.,0.,0.));
#30 = ORIENTED_EDGE('',*,*,#31,.T.);
#31 = EDGE_CURVE('',#24,#24,#32,.T.);
#32 = CIRCLE('',#33,1.5);
#33 = AXIS2_PLACEMENT_3D('',#34,#35,#36);
#34 = CARTESIAN_POINT('',(5.,0.,-2.44E-15));
#35 = DIRECTION('',(1.,0.,-2.2E-16));
#36 = DIRECTION('',(-2.2E-16,0.,-1.));
#37 = ORIENTED_EDGE('',*,*,#21,.F.);
#38 = ORIENTED_EDGE('',*,*,#39,.F.);
#39 = EDGE_CURVE('',#22,#22,#40,.T.);
#40 = CIRCLE('',#41,1.5);
#41 = AXIS2_PLACEMENT_3D('',#42,#43,#44);
#42 = CARTESIAN_POINT('',(-5.,0.,-2.2E-16));
#43 = DIRECTION('',(1.,0.,-2.2E-16));
#44 = DIRECTION('',(-2.2E-16,0.,-1.));
#45 = CYLINDRICAL_SURFACE('',#46,1.5);
#46 = AXIS2_PLACEMENT_3D('',#47,#48,#49);
#47 = CARTESIAN_POINT('',(-6.,0.,0.));
#48 = DIRECTION('',(-1.,-0.,0.));
#49 = DIRECTION('',(0.,0.,-1.));
#50 = ADVANCED_FACE('',(#51),#71,.T.);
#51 = FACE_BOUND('',#52,.F.);
#52 = EDGE_LOOP('',(#53,#62,#63,#64));
#53 = ORIENTED_EDGE('',*,*,#54,.F.);
#54 = EDGE_CURVE('',#22,#55,#57,.T.);
#55 = VERTEX_POINT('',#56);
#56 = CARTESIAN_POINT('',(-6.,0.,-0.5));
#57 = CIRCLE('',#58,1.);
#58 = AXIS2_PLACEMENT_3D('',#59,#60,#61);
#59 = CARTESIAN_POINT('',(-5.,0.,-0.5));
#60 = DIRECTION('',(0.,1.,0.));
#61 = DIRECTION('',(-2.2E-16,0.,-1.));
#62 = ORIENTED_EDGE('',*,*,#39,.F.);
#63 = ORIENTED_EDGE('',*,*,#54,.T.);
#64 = ORIENTED_EDGE('',*,*,#65,.T.);
#65 = EDGE_CURVE('',#55,#55,#66,.T.);
#66 = CIRCLE('',#67,0.5);
#67 = AXIS2_PLACEMENT_3D('',#68,#69,#70);
#68 = CARTESIAN_POINT('',(-6.,0.,0.));
#69 = DIRECTION('',(1.,0.,-2.2E-16));
#70 = DIRECTION('',(-2.2E-16,0.,-1.));
#71 = SURFACE_OF_REVOLUTION('',#72,#83);
#72 = B_SPLINE_CURVE_WITH_KNOTS('',5,(#73,#74,#75,#76,#77,#78,#79,#80,
    #81,#82),.UNSPECIFIED.,.F.,.F.,(6,4,6),(0.,0.785398163397,
    1.570796326795),.UNSPECIFIED.);
#73 = CARTESIAN_POINT('',(-5.,0.,-1.5));
#74 = CARTESIAN_POINT('',(-5.157079632679,0.,-1.5));
#75 = CARTESIAN_POINT('',(-5.314161753982,0.,-1.469164407054));
#76 = CARTESIAN_POINT('',(-5.463156817683,0.,-1.407448630943));
#77 = CARTESIAN_POINT('',(-5.596034707733,0.,-1.318178854641));
#78 = CARTESIAN_POINT('',(-5.818178854641,0.,-1.096034707733));
#79 = CARTESIAN_POINT('',(-5.907448630943,0.,-0.963156817683));
#80 = CARTESIAN_POINT('',(-5.969164407054,0.,-0.814161753982));
#81 = CARTESIAN_POINT('',(-6.,0.,-0.657079632679));
#82 = CARTESIAN_POINT('',(-6.,0.,-0.5));
#83 = AXIS1_PLACEMENT('',#84,#85);
#84 = CARTESIAN_POINT('',(-5.,0.,-2.2E-16));
#85 = DIRECTION('',(-1.,0.,2.2E-16));
#86 = ADVANCED_FACE('',(#87),#107,.T.);
#87 = FACE_BOUND('',#88,.T.);
#88 = EDGE_LOOP('',(#89,#98,#99,#100));
#89 = ORIENTED_EDGE('',*,*,#90,.F.);
#90 = EDGE_CURVE('',#24,#91,#93,.T.);
#91 = VERTEX_POINT('',#92);
#92 = CARTESIAN_POINT('',(6.,0.,-0.5));
#93 = CIRCLE('',#94,1.);
#94 = AXIS2_PLACEMENT_3D('',#95,#96,#97);
#95 = CARTESIAN_POINT('',(5.,0.,-0.5));
#96 = DIRECTION('',(0.,-1.,-0.));
#97 = DIRECTION('',(-2.2E-16,0.,-1.));
#98 = ORIENTED_EDGE('',*,*,#31,.T.);
#99 = ORIENTED_EDGE('',*,*,#90,.T.);
#100 = ORIENTED_EDGE('',*,*,#101,.F.);
#101 = EDGE_CURVE('',#91,#91,#102,.T.);
#102 = CIRCLE('',#103,0.5);
#103 = AXIS2_PLACEMENT_3D('',#104,#105,#106);
#104 = CARTESIAN_POINT('',(6.,0.,-2.66E-15));
#105 = DIRECTION('',(1.,0.,-2.2E-16));
#106 = DIRECTION('',(-2.2E-16,0.,-1.));
#107 = SURFACE_OF_REVOLUTION('',#108,#119);
#108 = B_SPLINE_CURVE_WITH_KNOTS('',5,(#109,#110,#111,#112,#113,#114,
    #115,#116,#117,#118),.UNSPECIFIED.,.F.,.F.,(6,4,6),(0.,
    0.785398163397,1.570796326795),.UNSPECIFIED.);
#109 = CARTESIAN_POINT('',(5.,0.,-1.5));
#110 = CARTESIAN_POINT('',(5.157079632679,0.,-1.5));
#111 = CARTESIAN_POINT('',(5.314161753982,0.,-1.469164407054));
#112 = CARTESIAN_POINT('',(5.463156817683,0.,-1.407448630943));
#113 = CARTESIAN_POINT('',(5.596034707733,0.,-1.318178854641));
#114 = CARTESIAN_POINT('',(5.818178854641,0.,-1.096034707733));
#115 = CARTESIAN_POINT('',(5.907448630943,0.,-0.963156817683));
#116 = CARTESIAN_POINT('',(5.969164407054,0.,-0.814161753982));
#117 = CARTESIAN_POINT('',(6.,0.,-0.657079632679));
#118 = CARTESIAN_POINT('',(6.,0.,-0.5));
#119 = AXIS1_PLACEMENT('',#120,#121);
#120 = CARTESIAN_POINT('',(5.,0.,-2.44E-15));
#121 = DIRECTION('',(1.,0.,-2.2E-16));
#122 = ADVANCED_FACE('',(#123),#126,.F.);
#123 = FACE_BOUND('',#124,.F.);
#124 = EDGE_LOOP('',(#125));
#125 = ORIENTED_EDGE('',*,*,#65,.T.);
#126 = PLANE('',#127);
#127 = AXIS2_PLACEMENT_3D('',#128,#129,#130);
#128 = CARTESIAN_POINT('',(-6.,0.,0.));
#129 = DIRECTION('',(1.,0.,0.));
#130 = DIRECTION('',(0.,0.,-1.));
#131 = ADVANCED_FACE('',(#132),#135,.T.);
#132 = FACE_BOUND('',#133,.T.);
#133 = EDGE_LOOP('',(#134));
#134 = ORIENTED_EDGE('',*,*,#101,.T.);
#135 = PLANE('',#136);
#136 = AXIS2_PLACEMENT_3D('',#137,#138,#139);
#137 = CARTESIAN_POINT('',(6.,0.,0.));
#138 = DIRECTION('',(1.,0.,0.));
#139 = DIRECTION('',(0.,0.,-1.));
#140 = MANIFOLD_SOLID_BREP('',#141);
#141 = CLOSED_SHELL('',(#142,#175,#211,#247,#256));
#142 = ADVANCED_FACE('',(#143),#170,.T.);
#143 = FACE_BOUND('',#144,.F.);
#144 = EDGE_LOOP('',(#145,#155,#162,#163));
#145 = ORIENTED_EDGE('',*,*,#146,.T.);
#146 = EDGE_CURVE('',#147,#149,#151,.T.);
#147 = VERTEX_POINT('',#148);
#148 = CARTESIAN_POINT('',(-7.,0.,26.5));
#149 = VERTEX_POINT('',#150);
#150 = CARTESIAN_POINT('',(7.,0.,26.5));
#151 = LINE('',#152,#153);
#152 = CARTESIAN_POINT('',(-8.,-3.7E-16,26.5));
#153 = VECTOR('',#154,1.);
#154 = DIRECTION('',(1.,0.,0.));
#155 = ORIENTED_EDGE('',*,*,#156,.T.);
#156 = EDGE_CURVE('',#149,#149,#157,.T.);
#157 = CIRCLE('',#158,1.5);
#158 = AXIS2_PLACEMENT_3D('',#159,#160,#161);
#159 = CARTESIAN_POINT('',(7.,0.,28.));
#160 = DIRECTION('',(1.,0.,-2.2E-16));
#161 = DIRECTION('',(-2.2E-16,0.,-1.));
#162 = ORIENTED_EDGE('',*,*,#146,.F.);
#163 = ORIENTED_EDGE('',*,*,#164,.F.);
#164 = EDGE_CURVE('',#147,#147,#165,.T.);
#165 = CIRCLE('',#166,1.5);
#166 = AXIS2_PLACEMENT_3D('',#167,#168,#169);
#167 = CARTESIAN_POINT('',(-7.,0.,28.));
#168 = DIRECTION('',(1.,0.,-2.2E-16));
#169 = DIRECTION('',(-2.2E-16,0.,-1.));
#170 = CYLINDRICAL_SURFACE('',#171,1.5);
#171 = AXIS2_PLACEMENT_3D('',#172,#173,#174);
#172 = CARTESIAN_POINT('',(-8.,0.,28.));
#173 = DIRECTION('',(-1.,-0.,0.));
#174 = DIRECTION('',(0.,0.,-1.));
#175 = ADVANCED_FACE('',(#176),#196,.T.);
#176 = FACE_BOUND('',#177,.F.);
#177 = EDGE_LOOP('',(#178,#187,#188,#189));
#178 = ORIENTED_EDGE('',*,*,#179,.F.);
#179 = EDGE_CURVE('',#147,#180,#182,.T.);
#180 = VERTEX_POINT('',#181);
#181 = CARTESIAN_POINT('',(-8.,0.,27.5));
#182 = CIRCLE('',#183,1.);
#183 = AXIS2_PLACEMENT_3D('',#184,#185,#186);
#184 = CARTESIAN_POINT('',(-7.,0.,27.5));
#185 = DIRECTION('',(0.,1.,0.));
#186 = DIRECTION('',(-2.2E-16,0.,-1.));
#187 = ORIENTED_EDGE('',*,*,#164,.F.);
#188 = ORIENTED_EDGE('',*,*,#179,.T.);
#189 = ORIENTED_EDGE('',*,*,#190,.T.);
#190 = EDGE_CURVE('',#180,#180,#191,.T.);
#191 = CIRCLE('',#192,0.5);
#192 = AXIS2_PLACEMENT_3D('',#193,#194,#195);
#193 = CARTESIAN_POINT('',(-8.,0.,28.));
#194 = DIRECTION('',(1.,0.,-2.2E-16));
#195 = DIRECTION('',(-2.2E-16,0.,-1.));
#196 = SURFACE_OF_REVOLUTION('',#197,#208);
#197 = B_SPLINE_CURVE_WITH_KNOTS('',5,(#198,#199,#200,#201,#202,#203,
    #204,#205,#206,#207),.UNSPECIFIED.,.F.,.F.,(6,4,6),(0.,
    0.785398163397,1.570796326795),.UNSPECIFIED.);
#198 = CARTESIAN_POINT('',(-7.,0.,26.5));
#199 = CARTESIAN_POINT('',(-7.157079632679,0.,26.5));
#200 = CARTESIAN_POINT('',(-7.314161753982,0.,26.530835592946));
#201 = CARTESIAN_POINT('',(-7.463156817683,0.,26.592551369057));
#202 = CARTESIAN_POINT('',(-7.596034707733,0.,26.68182114536));
#203 = CARTESIAN_POINT('',(-7.818178854641,0.,26.903965292267));
#204 = CARTESIAN_POINT('',(-7.907448630943,0.,27.036843182317));
#205 = CARTESIAN_POINT('',(-7.969164407054,0.,27.185838246018));
#206 = CARTESIAN_POINT('',(-8.,0.,27.342920367321));
#207 = CARTESIAN_POINT('',(-8.,0.,27.5));
#208 = AXIS1_PLACEMENT('',#209,#210);
#209 = CARTESIAN_POINT('',(-7.,0.,28.));
#210 = DIRECTION('',(-1.,0.,2.2E-16));
#211 = ADVANCED_FACE('',(#212),#232,.T.);
#212 = FACE_BOUND('',#213,.T.);
#213 = EDGE_LOOP('',(#214,#223,#224,#225));
#214 = ORIENTED_EDGE('',*,*,#215,.F.);
#215 = EDGE_CURVE('',#149,#216,#218,.T.);
#216 = VERTEX_POINT('',#217);
#217 = CARTESIAN_POINT('',(8.,0.,27.5));
#218 = CIRCLE('',#219,1.);
#219 = AXIS2_PLACEMENT_3D('',#220,#221,#222);
#220 = CARTESIAN_POINT('',(7.,0.,27.5));
#221 = DIRECTION('',(0.,-1.,-0.));
#222 = DIRECTION('',(-2.2E-16,0.,-1.));
#223 = ORIENTED_EDGE('',*,*,#156,.T.);
#224 = ORIENTED_EDGE('',*,*,#215,.T.);
#225 = ORIENTED_EDGE('',*,*,#226,.F.);
#226 = EDGE_CURVE('',#216,#216,#227,.T.);
#227 = CIRCLE('',#228,0.5);
#228 = AXIS2_PLACEMENT_3D('',#229,#230,#231);
#229 = CARTESIAN_POINT('',(8.,0.,28.));
#230 = DIRECTION('',(1.,0.,-2.2E-16));
#231 = DIRECTION('',(-2.2E-16,0.,-1.));
#232 = SURFACE_OF_REVOLUTION('',#233,#244);
#233 = B_SPLINE_CURVE_WITH_KNOTS('',5,(#234,#235,#236,#237,#238,#239,
    #240,#241,#242,#243),.UNSPECIFIED.,.F.,.F.,(6,4,6),(0.,
    0.785398163397,1.570796326795),.UNSPECIFIED.);
#234 = CARTESIAN_POINT('',(7.,0.,26.5));
#235 = CARTESIAN_POINT('',(7.157079632679,0.,26.5));
#236 = CARTESIAN_POINT('',(7.314161753982,0.,26.530835592946));
#237 = CARTESIAN_POINT('',(7.463156817683,0.,26.592551369057));
#238 = CARTESIAN_POINT('',(7.596034707733,0.,26.68182114536));
#239 = CARTESIAN_POINT('',(7.818178854641,0.,26.903965292267));
#240 = CARTESIAN_POINT('',(7.907448630943,0.,27.036843182317));
#241 = CARTESIAN_POINT('',(7.969164407054,0.,27.185838246018));
#242 = CARTESIAN_POINT('',(8.,0.,27.342920367321));
#243 = CARTESIAN_POINT('',(8.,0.,27.5));
#244 = AXIS1_PLACEMENT('',#245,#246);
#245 = CARTESIAN_POINT('',(7.,0.,28.));
#246 = DIRECTION('',(1.,0.,-2.2E-16));
#247 = ADVANCED_FACE('',(#248),#251,.F.);
#248 = FACE_BOUND('',#249,.F.);
#249 = EDGE_LOOP('',(#250));
#250 = ORIENTED_EDGE('',*,*,#190,.T.);
#251 = PLANE('',#252);
#252 = AXIS2_PLACEMENT_3D('',#253,#254,#255);
#253 = CARTESIAN_POINT('',(-8.,0.,28.));
#254 = DIRECTION('',(1.,0.,0.));
#255 = DIRECTION('',(0.,0.,-1.));
#256 = ADVANCED_FACE('',(#257),#260,.T.);
#257 = FACE_BOUND('',#258,.T.);
#258 = EDGE_LOOP('',(#259));
#259 = ORIENTED_EDGE('',*,*,#226,.T.);
#260 = PLANE('',#261);
#261 = AXIS2_PLACEMENT_3D('',#262,#263,#264);
#262 = CARTESIAN_POINT('',(8.,0.,28.));
#263 = DIRECTION('',(1.,0.,0.));
#264 = DIRECTION('',(0.,0.,-1.));
#265 = ( GEOMETRIC_REPRESENTATION_CONTEXT(3) 
GLOBAL_UNCERTAINTY_ASSIGNED_CONTEXT((#269)) GLOBAL_UNIT_ASSIGNED_CONTEXT
((#266,#267,#268)) REPRESENTATION_CONTEXT('Context #1',
  '3D Context with UNIT and UNCERTAINTY') );
#266 = ( LENGTH_UNIT() NAMED_UNIT(*) SI_UNIT(.MILLI.,.METRE.) );
#267 = ( NAMED_UNIT(*) PLANE_ANGLE_UNIT() SI_UNIT($,.RADIAN.) );
#268 = ( NAMED_UNIT(*) SI_UNIT($,.STERADIAN.) SOLID_ANGLE_UNIT() );
#269 = UNCERTAINTY_MEASURE_WITH_UNIT(LENGTH_MEASURE(1.E-07),#266,
  'distance_accuracy_value','confusion accuracy');
#270 = PRODUCT_RELATED_PRODUCT_CATEGORY('part',$,(#7));
ENDSEC;
END-ISO-10303-21;
