ISO-10303-21;
HEADER;
FILE_DESCRIPTION(('FreeCAD Model'),'2;1');
FILE_NAME('Open CASCADE Shape Model','2026-08-28T13:03:57',('FreeCAD'),(
    'FreeCAD'),'Open CASCADE STEP processor 7.8','FreeCAD','Unknown');
FILE_SCHEMA(('AUTOMOTIVE_DESIGN { 1 0 10303 214 1 1 1 1 }'));
ENDSEC;
DATA;
#1 = APPLICATION_PROTOCOL_DEFINITION('international standard',
  'automotive_design',2000,#2);
#2 = APPLICATION_CONTEXT(
  'core data for automotive mechanical design processes');
#3 = SHAPE_DEFINITION_REPRESENTATION(#4,#10);
#4 = PRODUCT_DEFINITION_SHAPE('','',#5);
#5 = PRODUCT_DEFINITION('design','',#6,#9);
#6 = PRODUCT_DEFINITION_FORMATION('','',#7);
#7 = PRODUCT('Open CASCADE STEP translator 7.8 10',
  'Open CASCADE STEP translator 7.8 10','',(#8));
#8 = PRODUCT_CONTEXT('',#2,'mechanical');
#9 = PRODUCT_DEFINITION_CONTEXT('part definition',#2,'design');
#10 = ADVANCED_BREP_SHAPE_REPRESENTATION('',(#11,#15),#444);
#11 = AXIS2_PLACEMENT_3D('',#12,#13,#14);
#12 = CARTESIAN_POINT('',(0.,0.,0.));
#13 = DIRECTION('',(0.,0.,1.));
#14 = DIRECTION('',(1.,0.,-0.));
#15 = MANIFOLD_SOLID_BREP('',#16);
#16 = CLOSED_SHELL('',(#17,#59,#107,#143,#168,#193,#202,#258,#294,#320,
    #345,#354,#390,#426,#435));
#17 = ADVANCED_FACE('',(#18),#54,.T.);
#18 = FACE_BOUND('',#19,.F.);
#19 = EDGE_LOOP('',(#20,#31,#39,#46,#47));
#20 = ORIENTED_EDGE('',*,*,#21,.T.);
#21 = EDGE_CURVE('',#22,#24,#26,.T.);
#22 = VERTEX_POINT('',#23);
#23 = CARTESIAN_POINT('',(3.708099243548,-1.E-15,1.5));
#24 = VERTEX_POINT('',#25);
#25 = CARTESIAN_POINT('',(3.708099243548,-1.E-15,-1.5));
#26 = CIRCLE('',#27,1.5);
#27 = AXIS2_PLACEMENT_3D('',#28,#29,#30);
#28 = CARTESIAN_POINT('',(3.708099243548,0.,-8.2E-16));
#29 = DIRECTION('',(-1.,0.,2.2E-16));
#30 = DIRECTION('',(-2.2E-16,0.,-1.));
#31 = ORIENTED_EDGE('',*,*,#32,.T.);
#32 = EDGE_CURVE('',#24,#33,#35,.T.);
#33 = VERTEX_POINT('',#34);
#34 = CARTESIAN_POINT('',(5.,0.,-1.5));
#35 = LINE('',#36,#37);
#36 = CARTESIAN_POINT('',(-6.,-3.7E-16,-1.5));
#37 = VECTOR('',#38,1.);
#38 = DIRECTION('',(1.,0.,0.));
#39 = ORIENTED_EDGE('',*,*,#40,.T.);
#40 = EDGE_CURVE('',#33,#33,#41,.T.);
#41 = CIRCLE('',#42,1.5);
#42 = AXIS2_PLACEMENT_3D('',#43,#44,#45);
#43 = CARTESIAN_POINT('',(5.,0.,-2.44E-15));
#44 = DIRECTION('',(1.,0.,-2.2E-16));
#45 = DIRECTION('',(-2.2E-16,0.,-1.));
#46 = ORIENTED_EDGE('',*,*,#32,.F.);
#47 = ORIENTED_EDGE('',*,*,#48,.T.);
#48 = EDGE_CURVE('',#24,#22,#49,.T.);
#49 = CIRCLE('',#50,1.5);
#50 = AXIS2_PLACEMENT_3D('',#51,#52,#53);
#51 = CARTESIAN_POINT('',(3.708099243548,0.,-8.2E-16));
#52 = DIRECTION('',(-1.,0.,2.2E-16));
#53 = DIRECTION('',(-2.2E-16,0.,-1.));
#54 = CYLINDRICAL_SURFACE('',#55,1.5);
#55 = AXIS2_PLACEMENT_3D('',#56,#57,#58);
#56 = CARTESIAN_POINT('',(-6.,0.,0.));
#57 = DIRECTION('',(-1.,-0.,0.));
#58 = DIRECTION('',(0.,0.,-1.));
#59 = ADVANCED_FACE('',(#60,#91),#102,.T.);
#60 = FACE_BOUND('',#61,.T.);
#61 = EDGE_LOOP('',(#62,#71,#78,#79,#80,#89,#90));
#62 = ORIENTED_EDGE('',*,*,#63,.T.);
#63 = EDGE_CURVE('',#22,#64,#66,.T.);
#64 = VERTEX_POINT('',#65);
#65 = CARTESIAN_POINT('',(1.4,0.,3.746998799039));
#66 = CIRCLE('',#67,4.);
#67 = AXIS2_PLACEMENT_3D('',#68,#69,#70);
#68 = CARTESIAN_POINT('',(0.,0.,0.));
#69 = DIRECTION('',(-2.4E-16,-1.,0.));
#70 = DIRECTION('',(1.,-2.4E-16,0.));
#71 = ORIENTED_EDGE('',*,*,#72,.T.);
#72 = EDGE_CURVE('',#64,#64,#73,.T.);
#73 = CIRCLE('',#74,1.4);
#74 = AXIS2_PLACEMENT_3D('',#75,#76,#77);
#75 = CARTESIAN_POINT('',(0.,0.,3.746998799039));
#76 = DIRECTION('',(0.,0.,-1.));
#77 = DIRECTION('',(0.,1.,0.));
#78 = ORIENTED_EDGE('',*,*,#63,.F.);
#79 = ORIENTED_EDGE('',*,*,#21,.T.);
#80 = ORIENTED_EDGE('',*,*,#81,.F.);
#81 = EDGE_CURVE('',#82,#24,#84,.T.);
#82 = VERTEX_POINT('',#83);
#83 = CARTESIAN_POINT('',(0.,0.,-4.));
#84 = CIRCLE('',#85,4.);
#85 = AXIS2_PLACEMENT_3D('',#86,#87,#88);
#86 = CARTESIAN_POINT('',(0.,0.,0.));
#87 = DIRECTION('',(-2.4E-16,-1.,0.));
#88 = DIRECTION('',(1.,-2.4E-16,0.));
#89 = ORIENTED_EDGE('',*,*,#81,.T.);
#90 = ORIENTED_EDGE('',*,*,#48,.T.);
#91 = FACE_BOUND('',#92,.T.);
#92 = EDGE_LOOP('',(#93));
#93 = ORIENTED_EDGE('',*,*,#94,.F.);
#94 = EDGE_CURVE('',#95,#95,#97,.T.);
#95 = VERTEX_POINT('',#96);
#96 = CARTESIAN_POINT('',(-3.708099243548,0.,-1.5));
#97 = CIRCLE('',#98,1.5);
#98 = AXIS2_PLACEMENT_3D('',#99,#100,#101);
#99 = CARTESIAN_POINT('',(-3.708099243548,0.,8.2E-16));
#100 = DIRECTION('',(-1.,0.,2.2E-16));
#101 = DIRECTION('',(-2.2E-16,0.,-1.));
#102 = SPHERICAL_SURFACE('',#103,4.);
#103 = AXIS2_PLACEMENT_3D('',#104,#105,#106);
#104 = CARTESIAN_POINT('',(0.,0.,0.));
#105 = DIRECTION('',(0.,0.,1.));
#106 = DIRECTION('',(1.,0.,0.));
#107 = ADVANCED_FACE('',(#108),#128,.T.);
#108 = FACE_BOUND('',#109,.T.);
#109 = EDGE_LOOP('',(#110,#119,#120,#121));
#110 = ORIENTED_EDGE('',*,*,#111,.F.);
#111 = EDGE_CURVE('',#33,#112,#114,.T.);
#112 = VERTEX_POINT('',#113);
#113 = CARTESIAN_POINT('',(6.,0.,-0.5));
#114 = CIRCLE('',#115,1.);
#115 = AXIS2_PLACEMENT_3D('',#116,#117,#118);
#116 = CARTESIAN_POINT('',(5.,0.,-0.5));
#117 = DIRECTION('',(0.,-1.,-0.));
#118 = DIRECTION('',(-2.2E-16,0.,-1.));
#119 = ORIENTED_EDGE('',*,*,#40,.T.);
#120 = ORIENTED_EDGE('',*,*,#111,.T.);
#121 = ORIENTED_EDGE('',*,*,#122,.F.);
#122 = EDGE_CURVE('',#112,#112,#123,.T.);
#123 = CIRCLE('',#124,0.5);
#124 = AXIS2_PLACEMENT_3D('',#125,#126,#127);
#125 = CARTESIAN_POINT('',(6.,0.,-2.66E-15));
#126 = DIRECTION('',(1.,0.,-2.2E-16));
#127 = DIRECTION('',(-2.2E-16,0.,-1.));
#128 = SURFACE_OF_REVOLUTION('',#129,#140);
#129 = B_SPLINE_CURVE_WITH_KNOTS('',5,(#130,#131,#132,#133,#134,#135,
    #136,#137,#138,#139),.UNSPECIFIED.,.F.,.F.,(6,4,6),(0.,
    0.785398163397,1.570796326795),.UNSPECIFIED.);
#130 = CARTESIAN_POINT('',(5.,0.,-1.5));
#131 = CARTESIAN_POINT('',(5.157079632679,0.,-1.5));
#132 = CARTESIAN_POINT('',(5.314161753982,0.,-1.469164407054));
#133 = CARTESIAN_POINT('',(5.463156817683,0.,-1.407448630943));
#134 = CARTESIAN_POINT('',(5.596034707733,0.,-1.318178854641));
#135 = CARTESIAN_POINT('',(5.818178854641,0.,-1.096034707733));
#136 = CARTESIAN_POINT('',(5.907448630943,0.,-0.963156817683));
#137 = CARTESIAN_POINT('',(5.969164407054,0.,-0.814161753982));
#138 = CARTESIAN_POINT('',(6.,0.,-0.657079632679));
#139 = CARTESIAN_POINT('',(6.,0.,-0.5));
#140 = AXIS1_PLACEMENT('',#141,#142);
#141 = CARTESIAN_POINT('',(5.,0.,-2.44E-15));
#142 = DIRECTION('',(1.,0.,-2.2E-16));
#143 = ADVANCED_FACE('',(#144),#163,.T.);
#144 = FACE_BOUND('',#145,.F.);
#145 = EDGE_LOOP('',(#146,#147,#155,#162));
#146 = ORIENTED_EDGE('',*,*,#72,.T.);
#147 = ORIENTED_EDGE('',*,*,#148,.T.);
#148 = EDGE_CURVE('',#64,#149,#151,.T.);
#149 = VERTEX_POINT('',#150);
#150 = CARTESIAN_POINT('',(1.4,0.,24.253001200961));
#151 = LINE('',#152,#153);
#152 = CARTESIAN_POINT('',(1.4,-3.4E-16,0.));
#153 = VECTOR('',#154,1.);
#154 = DIRECTION('',(0.,0.,1.));
#155 = ORIENTED_EDGE('',*,*,#156,.F.);
#156 = EDGE_CURVE('',#149,#149,#157,.T.);
#157 = CIRCLE('',#158,1.4);
#158 = AXIS2_PLACEMENT_3D('',#159,#160,#161);
#159 = CARTESIAN_POINT('',(0.,0.,24.253001200961));
#160 = DIRECTION('',(0.,0.,-1.));
#161 = DIRECTION('',(0.,1.,0.));
#162 = ORIENTED_EDGE('',*,*,#148,.F.);
#163 = CYLINDRICAL_SURFACE('',#164,1.4);
#164 = AXIS2_PLACEMENT_3D('',#165,#166,#167);
#165 = CARTESIAN_POINT('',(0.,0.,0.));
#166 = DIRECTION('',(-0.,-0.,-1.));
#167 = DIRECTION('',(1.,0.,0.));
#168 = ADVANCED_FACE('',(#169),#188,.T.);
#169 = FACE_BOUND('',#170,.F.);
#170 = EDGE_LOOP('',(#171,#172,#180,#187));
#171 = ORIENTED_EDGE('',*,*,#94,.F.);
#172 = ORIENTED_EDGE('',*,*,#173,.F.);
#173 = EDGE_CURVE('',#174,#95,#176,.T.);
#174 = VERTEX_POINT('',#175);
#175 = CARTESIAN_POINT('',(-5.,0.,-1.5));
#176 = LINE('',#177,#178);
#177 = CARTESIAN_POINT('',(-6.,-3.7E-16,-1.5));
#178 = VECTOR('',#179,1.);
#179 = DIRECTION('',(1.,0.,0.));
#180 = ORIENTED_EDGE('',*,*,#181,.F.);
#181 = EDGE_CURVE('',#174,#174,#182,.T.);
#182 = CIRCLE('',#183,1.5);
#183 = AXIS2_PLACEMENT_3D('',#184,#185,#186);
#184 = CARTESIAN_POINT('',(-5.,0.,-2.2E-16));
#185 = DIRECTION('',(1.,0.,-2.2E-16));
#186 = DIRECTION('',(-2.2E-16,0.,-1.));
#187 = ORIENTED_EDGE('',*,*,#173,.T.);
#188 = CYLINDRICAL_SURFACE('',#189,1.5);
#189 = AXIS2_PLACEMENT_3D('',#190,#191,#192);
#190 = CARTESIAN_POINT('',(-6.,0.,0.));
#191 = DIRECTION('',(-1.,-0.,0.));
#192 = DIRECTION('',(0.,0.,-1.));
#193 = ADVANCED_FACE('',(#194),#197,.T.);
#194 = FACE_BOUND('',#195,.T.);
#195 = EDGE_LOOP('',(#196));
#196 = ORIENTED_EDGE('',*,*,#122,.T.);
#197 = PLANE('',#198);
#198 = AXIS2_PLACEMENT_3D('',#199,#200,#201);
#199 = CARTESIAN_POINT('',(6.,0.,0.));
#200 = DIRECTION('',(1.,0.,0.));
#201 = DIRECTION('',(0.,0.,-1.));
#202 = ADVANCED_FACE('',(#203,#242),#253,.T.);
#203 = FACE_BOUND('',#204,.T.);
#204 = EDGE_LOOP('',(#205,#206,#215,#224,#233,#234,#241));
#205 = ORIENTED_EDGE('',*,*,#156,.F.);
#206 = ORIENTED_EDGE('',*,*,#207,.T.);
#207 = EDGE_CURVE('',#149,#208,#210,.T.);
#208 = VERTEX_POINT('',#209);
#209 = CARTESIAN_POINT('',(3.708099243548,-1.E-15,26.5));
#210 = CIRCLE('',#211,4.);
#211 = AXIS2_PLACEMENT_3D('',#212,#213,#214);
#212 = CARTESIAN_POINT('',(0.,0.,28.));
#213 = DIRECTION('',(-2.4E-16,-1.,0.));
#214 = DIRECTION('',(1.,-2.4E-16,0.));
#215 = ORIENTED_EDGE('',*,*,#216,.T.);
#216 = EDGE_CURVE('',#208,#217,#219,.T.);
#217 = VERTEX_POINT('',#218);
#218 = CARTESIAN_POINT('',(3.708099243548,-1.E-15,29.5));
#219 = CIRCLE('',#220,1.5);
#220 = AXIS2_PLACEMENT_3D('',#221,#222,#223);
#221 = CARTESIAN_POINT('',(3.708099243548,0.,28.));
#222 = DIRECTION('',(-1.,0.,2.2E-16));
#223 = DIRECTION('',(-2.2E-16,0.,-1.));
#224 = ORIENTED_EDGE('',*,*,#225,.T.);
#225 = EDGE_CURVE('',#217,#226,#228,.T.);
#226 = VERTEX_POINT('',#227);
#227 = CARTESIAN_POINT('',(0.,0.,32.));
#228 = CIRCLE('',#229,4.);
#229 = AXIS2_PLACEMENT_3D('',#230,#231,#232);
#230 = CARTESIAN_POINT('',(0.,0.,28.));
#231 = DIRECTION('',(-2.4E-16,-1.,0.));
#232 = DIRECTION('',(1.,-2.4E-16,0.));
#233 = ORIENTED_EDGE('',*,*,#225,.F.);
#234 = ORIENTED_EDGE('',*,*,#235,.T.);
#235 = EDGE_CURVE('',#217,#208,#236,.T.);
#236 = CIRCLE('',#237,1.5);
#237 = AXIS2_PLACEMENT_3D('',#238,#239,#240);
#238 = CARTESIAN_POINT('',(3.708099243548,0.,28.));
#239 = DIRECTION('',(-1.,0.,2.2E-16));
#240 = DIRECTION('',(-2.2E-16,0.,-1.));
#241 = ORIENTED_EDGE('',*,*,#207,.F.);
#242 = FACE_BOUND('',#243,.T.);
#243 = EDGE_LOOP('',(#244));
#244 = ORIENTED_EDGE('',*,*,#245,.F.);
#245 = EDGE_CURVE('',#246,#246,#248,.T.);
#246 = VERTEX_POINT('',#247);
#247 = CARTESIAN_POINT('',(-3.708099243548,0.,26.5));
#248 = CIRCLE('',#249,1.5);
#249 = AXIS2_PLACEMENT_3D('',#250,#251,#252);
#250 = CARTESIAN_POINT('',(-3.708099243548,0.,28.));
#251 = DIRECTION('',(-1.,0.,2.2E-16));
#252 = DIRECTION('',(-2.2E-16,0.,-1.));
#253 = SPHERICAL_SURFACE('',#254,4.);
#254 = AXIS2_PLACEMENT_3D('',#255,#256,#257);
#255 = CARTESIAN_POINT('',(0.,0.,28.));
#256 = DIRECTION('',(0.,0.,1.));
#257 = DIRECTION('',(1.,0.,0.));
#258 = ADVANCED_FACE('',(#259),#279,.T.);
#259 = FACE_BOUND('',#260,.F.);
#260 = EDGE_LOOP('',(#261,#270,#271,#272));
#261 = ORIENTED_EDGE('',*,*,#262,.F.);
#262 = EDGE_CURVE('',#174,#263,#265,.T.);
#263 = VERTEX_POINT('',#264);
#264 = CARTESIAN_POINT('',(-6.,0.,-0.5));
#265 = CIRCLE('',#266,1.);
#266 = AXIS2_PLACEMENT_3D('',#267,#268,#269);
#267 = CARTESIAN_POINT('',(-5.,0.,-0.5));
#268 = DIRECTION('',(0.,1.,0.));
#269 = DIRECTION('',(-2.2E-16,0.,-1.));
#270 = ORIENTED_EDGE('',*,*,#181,.F.);
#271 = ORIENTED_EDGE('',*,*,#262,.T.);
#272 = ORIENTED_EDGE('',*,*,#273,.T.);
#273 = EDGE_CURVE('',#263,#263,#274,.T.);
#274 = CIRCLE('',#275,0.5);
#275 = AXIS2_PLACEMENT_3D('',#276,#277,#278);
#276 = CARTESIAN_POINT('',(-6.,0.,0.));
#277 = DIRECTION('',(1.,0.,-2.2E-16));
#278 = DIRECTION('',(-2.2E-16,0.,-1.));
#279 = SURFACE_OF_REVOLUTION('',#280,#291);
#280 = B_SPLINE_CURVE_WITH_KNOTS('',5,(#281,#282,#283,#284,#285,#286,
    #287,#288,#289,#290),.UNSPECIFIED.,.F.,.F.,(6,4,6),(0.,
    0.785398163397,1.570796326795),.UNSPECIFIED.);
#281 = CARTESIAN_POINT('',(-5.,0.,-1.5));
#282 = CARTESIAN_POINT('',(-5.157079632679,0.,-1.5));
#283 = CARTESIAN_POINT('',(-5.314161753982,0.,-1.469164407054));
#284 = CARTESIAN_POINT('',(-5.463156817683,0.,-1.407448630943));
#285 = CARTESIAN_POINT('',(-5.596034707733,0.,-1.318178854641));
#286 = CARTESIAN_POINT('',(-5.818178854641,0.,-1.096034707733));
#287 = CARTESIAN_POINT('',(-5.907448630943,0.,-0.963156817683));
#288 = CARTESIAN_POINT('',(-5.969164407054,0.,-0.814161753982));
#289 = CARTESIAN_POINT('',(-6.,0.,-0.657079632679));
#290 = CARTESIAN_POINT('',(-6.,0.,-0.5));
#291 = AXIS1_PLACEMENT('',#292,#293);
#292 = CARTESIAN_POINT('',(-5.,0.,-2.2E-16));
#293 = DIRECTION('',(-1.,0.,2.2E-16));
#294 = ADVANCED_FACE('',(#295),#315,.T.);
#295 = FACE_BOUND('',#296,.F.);
#296 = EDGE_LOOP('',(#297,#298,#306,#313,#314));
#297 = ORIENTED_EDGE('',*,*,#235,.T.);
#298 = ORIENTED_EDGE('',*,*,#299,.T.);
#299 = EDGE_CURVE('',#208,#300,#302,.T.);
#300 = VERTEX_POINT('',#301);
#301 = CARTESIAN_POINT('',(7.,0.,26.5));
#302 = LINE('',#303,#304);
#303 = CARTESIAN_POINT('',(-8.,-3.7E-16,26.5));
#304 = VECTOR('',#305,1.);
#305 = DIRECTION('',(1.,0.,0.));
#306 = ORIENTED_EDGE('',*,*,#307,.T.);
#307 = EDGE_CURVE('',#300,#300,#308,.T.);
#308 = CIRCLE('',#309,1.5);
#309 = AXIS2_PLACEMENT_3D('',#310,#311,#312);
#310 = CARTESIAN_POINT('',(7.,0.,28.));
#311 = DIRECTION('',(1.,0.,-2.2E-16));
#312 = DIRECTION('',(-2.2E-16,0.,-1.));
#313 = ORIENTED_EDGE('',*,*,#299,.F.);
#314 = ORIENTED_EDGE('',*,*,#216,.T.);
#315 = CYLINDRICAL_SURFACE('',#316,1.5);
#316 = AXIS2_PLACEMENT_3D('',#317,#318,#319);
#317 = CARTESIAN_POINT('',(-8.,0.,28.));
#318 = DIRECTION('',(-1.,-0.,0.));
#319 = DIRECTION('',(0.,0.,-1.));
#320 = ADVANCED_FACE('',(#321),#340,.T.);
#321 = FACE_BOUND('',#322,.F.);
#322 = EDGE_LOOP('',(#323,#324,#332,#339));
#323 = ORIENTED_EDGE('',*,*,#245,.F.);
#324 = ORIENTED_EDGE('',*,*,#325,.F.);
#325 = EDGE_CURVE('',#326,#246,#328,.T.);
#326 = VERTEX_POINT('',#327);
#327 = CARTESIAN_POINT('',(-7.,0.,26.5));
#328 = LINE('',#329,#330);
#329 = CARTESIAN_POINT('',(-8.,-3.7E-16,26.5));
#330 = VECTOR('',#331,1.);
#331 = DIRECTION('',(1.,0.,0.));
#332 = ORIENTED_EDGE('',*,*,#333,.F.);
#333 = EDGE_CURVE('',#326,#326,#334,.T.);
#334 = CIRCLE('',#335,1.5);
#335 = AXIS2_PLACEMENT_3D('',#336,#337,#338);
#336 = CARTESIAN_POINT('',(-7.,0.,28.));
#337 = DIRECTION('',(1.,0.,-2.2E-16));
#338 = DIRECTION('',(-2.2E-16,0.,-1.));
#339 = ORIENTED_EDGE('',*,*,#325,.T.);
#340 = CYLINDRICAL_SURFACE('',#341,1.5);
#341 = AXIS2_PLACEMENT_3D('',#342,#343,#344);
#342 = CARTESIAN_POINT('',(-8.,0.,28.));
#343 = DIRECTION('',(-1.,-0.,0.));
#344 = DIRECTION('',(0.,0.,-1.));
#345 = ADVANCED_FACE('',(#346),#349,.F.);
#346 = FACE_BOUND('',#347,.F.);
#347 = EDGE_LOOP('',(#348));
#348 = ORIENTED_EDGE('',*,*,#273,.T.);
#349 = PLANE('',#350);
#350 = AXIS2_PLACEMENT_3D('',#351,#352,#353);
#351 = CARTESIAN_POINT('',(-6.,0.,0.));
#352 = DIRECTION('',(1.,0.,0.));
#353 = DIRECTION('',(0.,0.,-1.));
#354 = ADVANCED_FACE('',(#355),#375,.T.);
#355 = FACE_BOUND('',#356,.T.);
#356 = EDGE_LOOP('',(#357,#366,#367,#368));
#357 = ORIENTED_EDGE('',*,*,#358,.F.);
#358 = EDGE_CURVE('',#300,#359,#361,.T.);
#359 = VERTEX_POINT('',#360);
#360 = CARTESIAN_POINT('',(8.,0.,27.5));
#361 = CIRCLE('',#362,1.);
#362 = AXIS2_PLACEMENT_3D('',#363,#364,#365);
#363 = CARTESIAN_POINT('',(7.,0.,27.5));
#364 = DIRECTION('',(0.,-1.,-0.));
#365 = DIRECTION('',(-2.2E-16,0.,-1.));
#366 = ORIENTED_EDGE('',*,*,#307,.T.);
#367 = ORIENTED_EDGE('',*,*,#358,.T.);
#368 = ORIENTED_EDGE('',*,*,#369,.F.);
#369 = EDGE_CURVE('',#359,#359,#370,.T.);
#370 = CIRCLE('',#371,0.5);
#371 = AXIS2_PLACEMENT_3D('',#372,#373,#374);
#372 = CARTESIAN_POINT('',(8.,0.,28.));
#373 = DIRECTION('',(1.,0.,-2.2E-16));
#374 = DIRECTION('',(-2.2E-16,0.,-1.));
#375 = SURFACE_OF_REVOLUTION('',#376,#387);
#376 = B_SPLINE_CURVE_WITH_KNOTS('',5,(#377,#378,#379,#380,#381,#382,
    #383,#384,#385,#386),.UNSPECIFIED.,.F.,.F.,(6,4,6),(0.,
    0.785398163397,1.570796326795),.UNSPECIFIED.);
#377 = CARTESIAN_POINT('',(7.,0.,26.5));
#378 = CARTESIAN_POINT('',(7.157079632679,0.,26.5));
#379 = CARTESIAN_POINT('',(7.314161753982,0.,26.530835592946));
#380 = CARTESIAN_POINT('',(7.463156817683,0.,26.592551369057));
#381 = CARTESIAN_POINT('',(7.596034707733,0.,26.68182114536));
#382 = CARTESIAN_POINT('',(7.818178854641,0.,26.903965292267));
#383 = CARTESIAN_POINT('',(7.907448630943,0.,27.036843182317));
#384 = CARTESIAN_POINT('',(7.969164407054,0.,27.185838246018));
#385 = CARTESIAN_POINT('',(8.,0.,27.342920367321));
#386 = CARTESIAN_POINT('',(8.,0.,27.5));
#387 = AXIS1_PLACEMENT('',#388,#389);
#388 = CARTESIAN_POINT('',(7.,0.,28.));
#389 = DIRECTION('',(1.,0.,-2.2E-16));
#390 = ADVANCED_FACE('',(#391),#411,.T.);
#391 = FACE_BOUND('',#392,.F.);
#392 = EDGE_LOOP('',(#393,#402,#403,#404));
#393 = ORIENTED_EDGE('',*,*,#394,.F.);
#394 = EDGE_CURVE('',#326,#395,#397,.T.);
#395 = VERTEX_POINT('',#396);
#396 = CARTESIAN_POINT('',(-8.,0.,27.5));
#397 = CIRCLE('',#398,1.);
#398 = AXIS2_PLACEMENT_3D('',#399,#400,#401);
#399 = CARTESIAN_POINT('',(-7.,0.,27.5));
#400 = DIRECTION('',(0.,1.,0.));
#401 = DIRECTION('',(-2.2E-16,0.,-1.));
#402 = ORIENTED_EDGE('',*,*,#333,.F.);
#403 = ORIENTED_EDGE('',*,*,#394,.T.);
#404 = ORIENTED_EDGE('',*,*,#405,.T.);
#405 = EDGE_CURVE('',#395,#395,#406,.T.);
#406 = CIRCLE('',#407,0.5);
#407 = AXIS2_PLACEMENT_3D('',#408,#409,#410);
#408 = CARTESIAN_POINT('',(-8.,0.,28.));
#409 = DIRECTION('',(1.,0.,-2.2E-16));
#410 = DIRECTION('',(-2.2E-16,0.,-1.));
#411 = SURFACE_OF_REVOLUTION('',#412,#423);
#412 = B_SPLINE_CURVE_WITH_KNOTS('',5,(#413,#414,#415,#416,#417,#418,
    #419,#420,#421,#422),.UNSPECIFIED.,.F.,.F.,(6,4,6),(0.,
    0.785398163397,1.570796326795),.UNSPECIFIED.);
#413 = CARTESIAN_POINT('',(-7.,0.,26.5));
#414 = CARTESIAN_POINT('',(-7.157079632679,0.,26.5));
#415 = CARTESIAN_POINT('',(-7.314161753982,0.,26.530835592946));
#416 = CARTESIAN_POINT('',(-7.463156817683,0.,26.592551369057));
#417 = CARTESIAN_POINT('',(-7.596034707733,0.,26.68182114536));
#418 = CARTESIAN_POINT('',(-7.818178854641,0.,26.903965292267));
#419 = CARTESIAN_POINT('',(-7.907448630943,0.,27.036843182317));
#420 = CARTESIAN_POINT('',(-7.969164407054,0.,27.185838246018));
#421 = CARTESIAN_POINT('',(-8.,0.,27.342920367321));
#422 = CARTESIAN_POINT('',(-8.,0.,27.5));
#423 = AXIS1_PLACEMENT('',#424,#425);
#424 = CARTESIAN_POINT('',(-7.,0.,28.));
#425 = DIRECTION('',(-1.,0.,2.2E-16));
#426 = ADVANCED_FACE('',(#427),#430,.T.);
#427 = FACE_BOUND('',#428,.T.);
#428 = EDGE_LOOP('',(#429));
#429 = ORIENTED_EDGE('',*,*,#369,.T.);
#430 = PLANE('',#431);
#431 = AXIS2_PLACEMENT_3D('',#432,#433,#434);
#432 = CARTESIAN_POINT('',(8.,0.,28.));
#433 = DIRECTION('',(1.,0.,0.));
#434 = DIRECTION('',(0.,0.,-1.));
#435 = ADVANCED_FACE('',(#436),#439,.F.);
#436 = FACE_BOUND('',#437,.F.);
#437 = EDGE_LOOP('',(#438));
#438 = ORIENTED_EDGE('',*,*,#405,.T.);
#439 = PLANE('',#440);
#440 = AXIS2_PLACEMENT_3D('',#441,#442,#443);
#441 = CARTESIAN_POINT('',(-8.,0.,28.));
#442 = DIRECTION('',(1.,0.,0.));
#443 = DIRECTION('',(0.,0.,-1.));
#444 = ( GEOMETRIC_REPRESENTATION_CONTEXT(3) 
GLOBAL_UNCERTAINTY_ASSIGNED_CONTEXT((#448)) GLOBAL_UNIT_ASSIGNED_CONTEXT
((#445,#446,#447)) REPRESENTATION_CONTEXT('Context #1',
  '3D Context with UNIT and UNCERTAINTY') );
#445 = ( LENGTH_UNIT() NAMED_UNIT(*) SI_UNIT(.MILLI.,.METRE.) );
#446 = ( NAMED_UNIT(*) PLANE_ANGLE_UNIT() SI_UNIT($,.RADIAN.) );
#447 = ( NAMED_UNIT(*) SI_UNIT($,.STERADIAN.) SOLID_ANGLE_UNIT() );
#448 = UNCERTAINTY_MEASURE_WITH_UNIT(LENGTH_MEASURE(1.E-07),#445,
  'distance_accuracy_value','confusion accuracy');
#449 = PRODUCT_RELATED_PRODUCT_CATEGORY('part',$,(#7));
ENDSEC;
END-ISO-10303-21;
