ISO-10303-21;
HEADER;
FILE_DESCRIPTION(('FreeCAD Model'),'2;1');
FILE_NAME('Open CASCADE Shape Model','2026-08-28T13:03:58',('FreeCAD'),(
    'FreeCAD'),'Open CASCADE STEP processor 7.8','FreeCAD','Unknown');
FILE_SCHEMA(('AUTOMOTIVE_DESIGN { 1 0 10303 214 1 1 1 1 }'));
ENDSEC;
DATA;
#1 = APPLICATION_PROTOCOL_DEFINITION('international standard',
  'automotive_design',2000,#2);
#2 = APPLICATION_CONTEXT(
  'core data for automotive mechanical design processes');
#3 = SHAPE_DEFINITION_REPRESENTATION(#4,#10);
#4 = PRODUCT_DEFINITION_SHAPE('','',#5);
#5 = PRODUCT_DEFINITION('design','',#6,#9);
#6 = PRODUCT_DEFINITION_FORMATION('','',#7);
#7 = PRODUCT('Open CASCADE STEP translator 7.8 27',
  'Open CASCADE STEP translator 7.8 27','',(#8));
#8 = PRODUCT_CONTEXT('',#2,'mechanical');
#9 = PRODUCT_DEFINITION_CONTEXT('part definition',#2,'design');
#10 = ADVANCED_BREP_SHAPE_REPRESENTATION('',(#11,#15),#1271);
#11 = AXIS2_PLACEMENT_3D('',#12,#13,#14);
#12 = CARTESIAN_POINT('',(0.,0.,0.));
#13 = DIRECTION('',(0.,0.,1.));
#14 = DIRECTION('',(1.,0.,-0.));
#15 = MANIFOLD_SOLID_BREP('',#16);
#16 = CLOSED_SHELL('',(#17,#57,#170,#195,#339,#380,#433,#458,#482,#499,
    #545,#576,#688,#712,#751,#790,#802,#819,#836,#848,#863,#885,#902,
    #919,#936,#953,#970,#987,#999,#1024,#1049,#1066,#1083,#1160,#1237,
    #1254));
#17 = ADVANCED_FACE('',(#18),#52,.F.);
#18 = FACE_BOUND('',#19,.F.);
#19 = EDGE_LOOP('',(#20,#30,#38,#46));
#20 = ORIENTED_EDGE('',*,*,#21,.F.);
#21 = EDGE_CURVE('',#22,#24,#26,.T.);
#22 = VERTEX_POINT('',#23);
#23 = CARTESIAN_POINT('',(0.,-20.54694932013,12.658437223174));
#24 = VERTEX_POINT('',#25);
#25 = CARTESIAN_POINT('',(0.,-29.17737937915,19.562781270389));
#26 = LINE('',#27,#28);
#27 = CARTESIAN_POINT('',(0.,-20.54694932013,12.658437223174));
#28 = VECTOR('',#29,1.);
#29 = DIRECTION('',(0.,-0.780868809443,0.624695047554));
#30 = ORIENTED_EDGE('',*,*,#31,.T.);
#31 = EDGE_CURVE('',#22,#32,#34,.T.);
#32 = VERTEX_POINT('',#33);
#33 = CARTESIAN_POINT('',(26.,-20.54694932013,12.658437223174));
#34 = LINE('',#35,#36);
#35 = CARTESIAN_POINT('',(0.,-20.54694932013,12.658437223174));
#36 = VECTOR('',#37,1.);
#37 = DIRECTION('',(1.,0.,0.));
#38 = ORIENTED_EDGE('',*,*,#39,.T.);
#39 = EDGE_CURVE('',#32,#40,#42,.T.);
#40 = VERTEX_POINT('',#41);
#41 = CARTESIAN_POINT('',(26.,-29.17737937915,19.562781270389));
#42 = LINE('',#43,#44);
#43 = CARTESIAN_POINT('',(26.,-20.54694932013,12.658437223174));
#44 = VECTOR('',#45,1.);
#45 = DIRECTION('',(0.,-0.780868809443,0.624695047554));
#46 = ORIENTED_EDGE('',*,*,#47,.F.);
#47 = EDGE_CURVE('',#24,#40,#48,.T.);
#48 = LINE('',#49,#50);
#49 = CARTESIAN_POINT('',(0.,-29.17737937915,19.562781270389));
#50 = VECTOR('',#51,1.);
#51 = DIRECTION('',(1.,0.,0.));
#52 = PLANE('',#53);
#53 = AXIS2_PLACEMENT_3D('',#54,#55,#56);
#54 = CARTESIAN_POINT('',(0.,-20.54694932013,12.658437223174));
#55 = DIRECTION('',(-0.,-0.624695047554,-0.780868809443));
#56 = DIRECTION('',(0.,-0.780868809443,0.624695047554));
#57 = ADVANCED_FACE('',(#58),#165,.T.);
#58 = FACE_BOUND('',#59,.T.);
#59 = EDGE_LOOP('',(#60,#70,#78,#86,#94,#102,#110,#118,#126,#134,#141,
    #142,#150,#158));
#60 = ORIENTED_EDGE('',*,*,#61,.F.);
#61 = EDGE_CURVE('',#62,#64,#66,.T.);
#62 = VERTEX_POINT('',#63);
#63 = CARTESIAN_POINT('',(0.,44.453050679866,20.658437223174));
#64 = VERTEX_POINT('',#65);
#65 = CARTESIAN_POINT('',(0.,32.905362296791,20.658437223174));
#66 = LINE('',#67,#68);
#67 = CARTESIAN_POINT('',(0.,44.453050679866,20.658437223174));
#68 = VECTOR('',#69,1.);
#69 = DIRECTION('',(0.,-1.,0.));
#70 = ORIENTED_EDGE('',*,*,#71,.F.);
#71 = EDGE_CURVE('',#72,#62,#74,.T.);
#72 = VERTEX_POINT('',#73);
#73 = CARTESIAN_POINT('',(0.,44.453050679866,16.658437223168));
#74 = LINE('',#75,#76);
#75 = CARTESIAN_POINT('',(0.,44.453050679866,16.658437223168));
#76 = VECTOR('',#77,1.);
#77 = DIRECTION('',(0.,0.,1.));
#78 = ORIENTED_EDGE('',*,*,#79,.F.);
#79 = EDGE_CURVE('',#80,#72,#82,.T.);
#80 = VERTEX_POINT('',#81);
#81 = CARTESIAN_POINT('',(0.,35.453050679866,16.658437223168));
#82 = LINE('',#83,#84);
#83 = CARTESIAN_POINT('',(0.,35.453050679866,16.658437223168));
#84 = VECTOR('',#85,1.);
#85 = DIRECTION('',(0.,1.,0.));
#86 = ORIENTED_EDGE('',*,*,#87,.F.);
#87 = EDGE_CURVE('',#88,#80,#90,.T.);
#88 = VERTEX_POINT('',#89);
#89 = CARTESIAN_POINT('',(0.,35.453050679866,8.658437223174));
#90 = LINE('',#91,#92);
#91 = CARTESIAN_POINT('',(0.,35.453050679866,8.658437223174));
#92 = VECTOR('',#93,1.);
#93 = DIRECTION('',(0.,0.,1.));
#94 = ORIENTED_EDGE('',*,*,#95,.F.);
#95 = EDGE_CURVE('',#96,#88,#98,.T.);
#96 = VERTEX_POINT('',#97);
#97 = CARTESIAN_POINT('',(0.,-34.54694932013,8.658437223174));
#98 = LINE('',#99,#100);
#99 = CARTESIAN_POINT('',(0.,-34.54694932013,8.658437223174));
#100 = VECTOR('',#101,1.);
#101 = DIRECTION('',(0.,1.,0.));
#102 = ORIENTED_EDGE('',*,*,#103,.F.);
#103 = EDGE_CURVE('',#104,#96,#106,.T.);
#104 = VERTEX_POINT('',#105);
#105 = CARTESIAN_POINT('',(0.,-34.54694932013,16.658437223174));
#106 = LINE('',#107,#108);
#107 = CARTESIAN_POINT('',(0.,-34.54694932013,16.658437223174));
#108 = VECTOR('',#109,1.);
#109 = DIRECTION('',(0.,0.,-1.));
#110 = ORIENTED_EDGE('',*,*,#111,.F.);
#111 = EDGE_CURVE('',#112,#104,#114,.T.);
#112 = VERTEX_POINT('',#113);
#113 = CARTESIAN_POINT('',(0.,-43.54694932013,16.658437223174));
#114 = LINE('',#115,#116);
#115 = CARTESIAN_POINT('',(0.,-43.54694932013,16.658437223174));
#116 = VECTOR('',#117,1.);
#117 = DIRECTION('',(0.,1.,0.));
#118 = ORIENTED_EDGE('',*,*,#119,.F.);
#119 = EDGE_CURVE('',#120,#112,#122,.T.);
#120 = VERTEX_POINT('',#121);
#121 = CARTESIAN_POINT('',(0.,-43.54694932013,20.658437223174));
#122 = LINE('',#123,#124);
#123 = CARTESIAN_POINT('',(0.,-43.54694932013,20.658437223174));
#124 = VECTOR('',#125,1.);
#125 = DIRECTION('',(0.,0.,-1.));
#126 = ORIENTED_EDGE('',*,*,#127,.F.);
#127 = EDGE_CURVE('',#128,#120,#130,.T.);
#128 = VERTEX_POINT('',#129);
#129 = CARTESIAN_POINT('',(0.,-32.30085461692,20.658437223174));
#130 = LINE('',#131,#132);
#131 = CARTESIAN_POINT('',(0.,-30.54694932013,20.658437223174));
#132 = VECTOR('',#133,1.);
#133 = DIRECTION('',(0.,-1.,0.));
#134 = ORIENTED_EDGE('',*,*,#135,.F.);
#135 = EDGE_CURVE('',#24,#128,#136,.T.);
#136 = CIRCLE('',#137,5.);
#137 = AXIS2_PLACEMENT_3D('',#138,#139,#140);
#138 = CARTESIAN_POINT('',(0.,-32.30085461692,15.658437223174));
#139 = DIRECTION('',(1.,0.,-0.));
#140 = DIRECTION('',(0.,0.,1.));
#141 = ORIENTED_EDGE('',*,*,#21,.F.);
#142 = ORIENTED_EDGE('',*,*,#143,.F.);
#143 = EDGE_CURVE('',#144,#22,#146,.T.);
#144 = VERTEX_POINT('',#145);
#145 = CARTESIAN_POINT('',(0.,21.151457,12.658437223174));
#146 = LINE('',#147,#148);
#147 = CARTESIAN_POINT('',(0.,31.151457,12.658437223174));
#148 = VECTOR('',#149,1.);
#149 = DIRECTION('',(0.,-1.,0.));
#150 = ORIENTED_EDGE('',*,*,#151,.F.);
#151 = EDGE_CURVE('',#152,#144,#154,.T.);
#152 = VERTEX_POINT('',#153);
#153 = CARTESIAN_POINT('',(0.,29.781887059019,19.562781270389));
#154 = LINE('',#155,#156);
#155 = CARTESIAN_POINT('',(0.,31.151457,20.658437223174));
#156 = VECTOR('',#157,1.);
#157 = DIRECTION('',(0.,-0.780868809443,-0.624695047554));
#158 = ORIENTED_EDGE('',*,*,#159,.T.);
#159 = EDGE_CURVE('',#152,#64,#160,.T.);
#160 = CIRCLE('',#161,5.);
#161 = AXIS2_PLACEMENT_3D('',#162,#163,#164);
#162 = CARTESIAN_POINT('',(0.,32.905362296791,15.658437223174));
#163 = DIRECTION('',(-1.,0.,0.));
#164 = DIRECTION('',(0.,0.,1.));
#165 = PLANE('',#166);
#166 = AXIS2_PLACEMENT_3D('',#167,#168,#169);
#167 = CARTESIAN_POINT('',(0.,0.448934457279,13.401887837828));
#168 = DIRECTION('',(-1.,-0.,-0.));
#169 = DIRECTION('',(0.,0.,-1.));
#170 = ADVANCED_FACE('',(#171),#190,.T.);
#171 = FACE_BOUND('',#172,.T.);
#172 = EDGE_LOOP('',(#173,#174,#182,#189));
#173 = ORIENTED_EDGE('',*,*,#135,.T.);
#174 = ORIENTED_EDGE('',*,*,#175,.T.);
#175 = EDGE_CURVE('',#128,#176,#178,.T.);
#176 = VERTEX_POINT('',#177);
#177 = CARTESIAN_POINT('',(26.,-32.30085461692,20.658437223174));
#178 = LINE('',#179,#180);
#179 = CARTESIAN_POINT('',(0.,-32.30085461692,20.658437223174));
#180 = VECTOR('',#181,1.);
#181 = DIRECTION('',(1.,0.,0.));
#182 = ORIENTED_EDGE('',*,*,#183,.F.);
#183 = EDGE_CURVE('',#40,#176,#184,.T.);
#184 = CIRCLE('',#185,5.);
#185 = AXIS2_PLACEMENT_3D('',#186,#187,#188);
#186 = CARTESIAN_POINT('',(26.,-32.30085461692,15.658437223174));
#187 = DIRECTION('',(1.,0.,-0.));
#188 = DIRECTION('',(0.,0.,1.));
#189 = ORIENTED_EDGE('',*,*,#47,.F.);
#190 = CYLINDRICAL_SURFACE('',#191,5.);
#191 = AXIS2_PLACEMENT_3D('',#192,#193,#194);
#192 = CARTESIAN_POINT('',(0.,-32.30085461692,15.658437223174));
#193 = DIRECTION('',(1.,0.,0.));
#194 = DIRECTION('',(0.,0.624695047554,0.780868809443));
#195 = ADVANCED_FACE('',(#196,#264),#334,.T.);
#196 = FACE_BOUND('',#197,.T.);
#197 = EDGE_LOOP('',(#198,#209,#217,#225,#231,#232,#233,#241,#249,#258)
  );
#198 = ORIENTED_EDGE('',*,*,#199,.F.);
#199 = EDGE_CURVE('',#200,#202,#204,.T.);
#200 = VERTEX_POINT('',#201);
#201 = CARTESIAN_POINT('',(67.,35.453050679866,12.658437223174));
#202 = VERTEX_POINT('',#203);
#203 = CARTESIAN_POINT('',(70.,32.453050679866,12.658437223174));
#204 = CIRCLE('',#205,3.);
#205 = AXIS2_PLACEMENT_3D('',#206,#207,#208);
#206 = CARTESIAN_POINT('',(67.,32.453050679866,12.658437223174));
#207 = DIRECTION('',(-0.,-0.,-1.));
#208 = DIRECTION('',(0.,-1.,0.));
#209 = ORIENTED_EDGE('',*,*,#210,.T.);
#210 = EDGE_CURVE('',#200,#211,#213,.T.);
#211 = VERTEX_POINT('',#212);
#212 = CARTESIAN_POINT('',(26.,35.453050679866,12.658437223174));
#213 = LINE('',#214,#215);
#214 = CARTESIAN_POINT('',(21.5977897071,35.453050679866,12.658437223174
    ));
#215 = VECTOR('',#216,1.);
#216 = DIRECTION('',(-1.,0.,0.));
#217 = ORIENTED_EDGE('',*,*,#218,.F.);
#218 = EDGE_CURVE('',#219,#211,#221,.T.);
#219 = VERTEX_POINT('',#220);
#220 = CARTESIAN_POINT('',(26.,21.151457,12.658437223174));
#221 = LINE('',#222,#223);
#222 = CARTESIAN_POINT('',(26.,31.151457,12.658437223174));
#223 = VECTOR('',#224,1.);
#224 = DIRECTION('',(0.,1.,0.));
#225 = ORIENTED_EDGE('',*,*,#226,.F.);
#226 = EDGE_CURVE('',#144,#219,#227,.T.);
#227 = LINE('',#228,#229);
#228 = CARTESIAN_POINT('',(0.,21.151457,12.658437223174));
#229 = VECTOR('',#230,1.);
#230 = DIRECTION('',(1.,0.,0.));
#231 = ORIENTED_EDGE('',*,*,#143,.T.);
#232 = ORIENTED_EDGE('',*,*,#31,.T.);
#233 = ORIENTED_EDGE('',*,*,#234,.F.);
#234 = EDGE_CURVE('',#235,#32,#237,.T.);
#235 = VERTEX_POINT('',#236);
#236 = CARTESIAN_POINT('',(26.,-34.54694932013,12.658437223174));
#237 = LINE('',#238,#239);
#238 = CARTESIAN_POINT('',(26.,-30.54694932013,12.658437223174));
#239 = VECTOR('',#240,1.);
#240 = DIRECTION('',(0.,1.,0.));
#241 = ORIENTED_EDGE('',*,*,#242,.T.);
#242 = EDGE_CURVE('',#235,#243,#245,.T.);
#243 = VERTEX_POINT('',#244);
#244 = CARTESIAN_POINT('',(67.,-34.54694932013,12.658437223174));
#245 = LINE('',#246,#247);
#246 = CARTESIAN_POINT('',(21.5977897071,-34.54694932013,12.658437223174
    ));
#247 = VECTOR('',#248,1.);
#248 = DIRECTION('',(1.,0.,0.));
#249 = ORIENTED_EDGE('',*,*,#250,.T.);
#250 = EDGE_CURVE('',#243,#251,#253,.T.);
#251 = VERTEX_POINT('',#252);
#252 = CARTESIAN_POINT('',(70.,-31.54694932013,12.658437223174));
#253 = CIRCLE('',#254,3.);
#254 = AXIS2_PLACEMENT_3D('',#255,#256,#257);
#255 = CARTESIAN_POINT('',(67.,-31.54694932013,12.658437223174));
#256 = DIRECTION('',(0.,-0.,1.));
#257 = DIRECTION('',(0.,1.,0.));
#258 = ORIENTED_EDGE('',*,*,#259,.F.);
#259 = EDGE_CURVE('',#202,#251,#260,.T.);
#260 = LINE('',#261,#262);
#261 = CARTESIAN_POINT('',(70.,44.453050679866,12.658437223174));
#262 = VECTOR('',#263,1.);
#263 = DIRECTION('',(0.,-1.,0.));
#264 = FACE_BOUND('',#265,.T.);
#265 = EDGE_LOOP('',(#266,#276,#285,#293,#302,#310,#319,#327));
#266 = ORIENTED_EDGE('',*,*,#267,.F.);
#267 = EDGE_CURVE('',#268,#270,#272,.T.);
#268 = VERTEX_POINT('',#269);
#269 = CARTESIAN_POINT('',(3.675217965539,-19.69774616006,
    12.658437223174));
#270 = VERTEX_POINT('',#271);
#271 = CARTESIAN_POINT('',(4.324782034461,-19.69774616006,
    12.658437223174));
#272 = LINE('',#273,#274);
#273 = CARTESIAN_POINT('',(3.675217965539,-19.69774616006,
    12.658437223174));
#274 = VECTOR('',#275,1.);
#275 = DIRECTION('',(1.,0.,0.));
#276 = ORIENTED_EDGE('',*,*,#277,.F.);
#277 = EDGE_CURVE('',#278,#268,#280,.T.);
#278 = VERTEX_POINT('',#279);
#279 = CARTESIAN_POINT('',(2.5,-18.52252819452,12.658437223174));
#280 = CIRCLE('',#281,1.175217965539);
#281 = AXIS2_PLACEMENT_3D('',#282,#283,#284);
#282 = CARTESIAN_POINT('',(3.675217965539,-18.52252819452,
    12.658437223174));
#283 = DIRECTION('',(0.,0.,1.));
#284 = DIRECTION('',(1.,0.,0.));
#285 = ORIENTED_EDGE('',*,*,#286,.F.);
#286 = EDGE_CURVE('',#287,#278,#289,.T.);
#287 = VERTEX_POINT('',#288);
#288 = CARTESIAN_POINT('',(2.5,19.127035874394,12.658437223174));
#289 = LINE('',#290,#291);
#290 = CARTESIAN_POINT('',(2.5,19.127035874394,12.658437223174));
#291 = VECTOR('',#292,1.);
#292 = DIRECTION('',(0.,-1.,0.));
#293 = ORIENTED_EDGE('',*,*,#294,.F.);
#294 = EDGE_CURVE('',#295,#287,#297,.T.);
#295 = VERTEX_POINT('',#296);
#296 = CARTESIAN_POINT('',(3.675217965539,20.302253839933,
    12.658437223174));
#297 = CIRCLE('',#298,1.175217965539);
#298 = AXIS2_PLACEMENT_3D('',#299,#300,#301);
#299 = CARTESIAN_POINT('',(3.675217965539,19.127035874394,
    12.658437223174));
#300 = DIRECTION('',(0.,0.,1.));
#301 = DIRECTION('',(1.,0.,0.));
#302 = ORIENTED_EDGE('',*,*,#303,.F.);
#303 = EDGE_CURVE('',#304,#295,#306,.T.);
#304 = VERTEX_POINT('',#305);
#305 = CARTESIAN_POINT('',(4.324782034461,20.302253839933,
    12.658437223174));
#306 = LINE('',#307,#308);
#307 = CARTESIAN_POINT('',(4.324782034461,20.302253839933,
    12.658437223174));
#308 = VECTOR('',#309,1.);
#309 = DIRECTION('',(-1.,0.,0.));
#310 = ORIENTED_EDGE('',*,*,#311,.F.);
#311 = EDGE_CURVE('',#312,#304,#314,.T.);
#312 = VERTEX_POINT('',#313);
#313 = CARTESIAN_POINT('',(5.5,19.127035874394,12.658437223174));
#314 = CIRCLE('',#315,1.175217965539);
#315 = AXIS2_PLACEMENT_3D('',#316,#317,#318);
#316 = CARTESIAN_POINT('',(4.324782034461,19.127035874394,
    12.658437223174));
#317 = DIRECTION('',(0.,0.,1.));
#318 = DIRECTION('',(1.,0.,0.));
#319 = ORIENTED_EDGE('',*,*,#320,.F.);
#320 = EDGE_CURVE('',#321,#312,#323,.T.);
#321 = VERTEX_POINT('',#322);
#322 = CARTESIAN_POINT('',(5.5,-18.52252819452,12.658437223174));
#323 = LINE('',#324,#325);
#324 = CARTESIAN_POINT('',(5.5,-18.52252819452,12.658437223174));
#325 = VECTOR('',#326,1.);
#326 = DIRECTION('',(0.,1.,0.));
#327 = ORIENTED_EDGE('',*,*,#328,.F.);
#328 = EDGE_CURVE('',#270,#321,#329,.T.);
#329 = CIRCLE('',#330,1.175217965539);
#330 = AXIS2_PLACEMENT_3D('',#331,#332,#333);
#331 = CARTESIAN_POINT('',(4.324782034461,-18.52252819452,
    12.658437223174));
#332 = DIRECTION('',(0.,0.,1.));
#333 = DIRECTION('',(1.,0.,0.));
#334 = PLANE('',#335);
#335 = AXIS2_PLACEMENT_3D('',#336,#337,#338);
#336 = CARTESIAN_POINT('',(35.770862270273,0.42504555245,12.658437223174
    ));
#337 = DIRECTION('',(0.,0.,1.));
#338 = DIRECTION('',(1.,0.,0.));
#339 = ADVANCED_FACE('',(#340),#375,.T.);
#340 = FACE_BOUND('',#341,.T.);
#341 = EDGE_LOOP('',(#342,#350,#358,#366,#372,#373,#374));
#342 = ORIENTED_EDGE('',*,*,#343,.T.);
#343 = EDGE_CURVE('',#176,#344,#346,.T.);
#344 = VERTEX_POINT('',#345);
#345 = CARTESIAN_POINT('',(26.,-43.54694932013,20.658437223174));
#346 = LINE('',#347,#348);
#347 = CARTESIAN_POINT('',(26.,-30.54694932013,20.658437223174));
#348 = VECTOR('',#349,1.);
#349 = DIRECTION('',(0.,-1.,0.));
#350 = ORIENTED_EDGE('',*,*,#351,.T.);
#351 = EDGE_CURVE('',#344,#352,#354,.T.);
#352 = VERTEX_POINT('',#353);
#353 = CARTESIAN_POINT('',(26.,-43.54694932013,16.658437223174));
#354 = LINE('',#355,#356);
#355 = CARTESIAN_POINT('',(26.,-43.54694932013,20.658437223174));
#356 = VECTOR('',#357,1.);
#357 = DIRECTION('',(-0.,-0.,-1.));
#358 = ORIENTED_EDGE('',*,*,#359,.F.);
#359 = EDGE_CURVE('',#360,#352,#362,.T.);
#360 = VERTEX_POINT('',#361);
#361 = CARTESIAN_POINT('',(26.,-34.54694932013,16.658437223174));
#362 = LINE('',#363,#364);
#363 = CARTESIAN_POINT('',(26.,-37.04694932013,16.658437223174));
#364 = VECTOR('',#365,1.);
#365 = DIRECTION('',(0.,-1.,0.));
#366 = ORIENTED_EDGE('',*,*,#367,.F.);
#367 = EDGE_CURVE('',#235,#360,#368,.T.);
#368 = LINE('',#369,#370);
#369 = CARTESIAN_POINT('',(26.,-34.54694932013,18.658437223174));
#370 = VECTOR('',#371,1.);
#371 = DIRECTION('',(0.,0.,1.));
#372 = ORIENTED_EDGE('',*,*,#234,.T.);
#373 = ORIENTED_EDGE('',*,*,#39,.T.);
#374 = ORIENTED_EDGE('',*,*,#183,.T.);
#375 = PLANE('',#376);
#376 = AXIS2_PLACEMENT_3D('',#377,#378,#379);
#377 = CARTESIAN_POINT('',(26.,-32.71165410045,16.588022434178));
#378 = DIRECTION('',(1.,0.,0.));
#379 = DIRECTION('',(0.,0.,1.));
#380 = ADVANCED_FACE('',(#381,#406,#417),#428,.F.);
#381 = FACE_BOUND('',#382,.F.);
#382 = EDGE_LOOP('',(#383,#384,#392,#400));
#383 = ORIENTED_EDGE('',*,*,#61,.F.);
#384 = ORIENTED_EDGE('',*,*,#385,.T.);
#385 = EDGE_CURVE('',#62,#386,#388,.T.);
#386 = VERTEX_POINT('',#387);
#387 = CARTESIAN_POINT('',(26.,44.453050679866,20.658437223174));
#388 = LINE('',#389,#390);
#389 = CARTESIAN_POINT('',(0.,44.453050679866,20.658437223174));
#390 = VECTOR('',#391,1.);
#391 = DIRECTION('',(1.,0.,0.));
#392 = ORIENTED_EDGE('',*,*,#393,.F.);
#393 = EDGE_CURVE('',#394,#386,#396,.T.);
#394 = VERTEX_POINT('',#395);
#395 = CARTESIAN_POINT('',(26.,32.905362296791,20.658437223174));
#396 = LINE('',#397,#398);
#397 = CARTESIAN_POINT('',(26.,31.151457,20.658437223174));
#398 = VECTOR('',#399,1.);
#399 = DIRECTION('',(0.,1.,0.));
#400 = ORIENTED_EDGE('',*,*,#401,.F.);
#401 = EDGE_CURVE('',#64,#394,#402,.T.);
#402 = LINE('',#403,#404);
#403 = CARTESIAN_POINT('',(0.,32.905362296791,20.658437223174));
#404 = VECTOR('',#405,1.);
#405 = DIRECTION('',(1.,0.,0.));
#406 = FACE_BOUND('',#407,.F.);
#407 = EDGE_LOOP('',(#408));
#408 = ORIENTED_EDGE('',*,*,#409,.T.);
#409 = EDGE_CURVE('',#410,#410,#412,.T.);
#410 = VERTEX_POINT('',#411);
#411 = CARTESIAN_POINT('',(24.049999245771,40.029288547552,
    20.658437223174));
#412 = CIRCLE('',#413,3.05);
#413 = AXIS2_PLACEMENT_3D('',#414,#415,#416);
#414 = CARTESIAN_POINT('',(20.999999245771,40.029288547552,
    20.658437223174));
#415 = DIRECTION('',(0.,0.,1.));
#416 = DIRECTION('',(1.,0.,0.));
#417 = FACE_BOUND('',#418,.F.);
#418 = EDGE_LOOP('',(#419));
#419 = ORIENTED_EDGE('',*,*,#420,.T.);
#420 = EDGE_CURVE('',#421,#421,#423,.T.);
#421 = VERTEX_POINT('',#422);
#422 = CARTESIAN_POINT('',(8.049999245771,40.029288547552,
    20.658437223174));
#423 = CIRCLE('',#424,3.05);
#424 = AXIS2_PLACEMENT_3D('',#425,#426,#427);
#425 = CARTESIAN_POINT('',(4.999999245771,40.029288547552,
    20.658437223174));
#426 = DIRECTION('',(0.,0.,1.));
#427 = DIRECTION('',(1.,0.,0.));
#428 = PLANE('',#429);
#429 = AXIS2_PLACEMENT_3D('',#430,#431,#432);
#430 = CARTESIAN_POINT('',(0.,44.453050679866,20.658437223174));
#431 = DIRECTION('',(0.,0.,-1.));
#432 = DIRECTION('',(0.,-1.,0.));
#433 = ADVANCED_FACE('',(#434),#453,.T.);
#434 = FACE_BOUND('',#435,.F.);
#435 = EDGE_LOOP('',(#436,#437,#438,#447));
#436 = ORIENTED_EDGE('',*,*,#159,.T.);
#437 = ORIENTED_EDGE('',*,*,#401,.T.);
#438 = ORIENTED_EDGE('',*,*,#439,.F.);
#439 = EDGE_CURVE('',#440,#394,#442,.T.);
#440 = VERTEX_POINT('',#441);
#441 = CARTESIAN_POINT('',(26.,29.781887059019,19.562781270389));
#442 = CIRCLE('',#443,5.);
#443 = AXIS2_PLACEMENT_3D('',#444,#445,#446);
#444 = CARTESIAN_POINT('',(26.,32.905362296791,15.658437223174));
#445 = DIRECTION('',(-1.,0.,0.));
#446 = DIRECTION('',(0.,0.,1.));
#447 = ORIENTED_EDGE('',*,*,#448,.F.);
#448 = EDGE_CURVE('',#152,#440,#449,.T.);
#449 = LINE('',#450,#451);
#450 = CARTESIAN_POINT('',(0.,29.781887059019,19.562781270389));
#451 = VECTOR('',#452,1.);
#452 = DIRECTION('',(1.,0.,0.));
#453 = CYLINDRICAL_SURFACE('',#454,5.);
#454 = AXIS2_PLACEMENT_3D('',#455,#456,#457);
#455 = CARTESIAN_POINT('',(0.,32.905362296791,15.658437223174));
#456 = DIRECTION('',(1.,0.,0.));
#457 = DIRECTION('',(0.,-0.624695047554,0.780868809443));
#458 = ADVANCED_FACE('',(#459),#477,.F.);
#459 = FACE_BOUND('',#460,.F.);
#460 = EDGE_LOOP('',(#461,#462,#470,#476));
#461 = ORIENTED_EDGE('',*,*,#71,.F.);
#462 = ORIENTED_EDGE('',*,*,#463,.T.);
#463 = EDGE_CURVE('',#72,#464,#466,.T.);
#464 = VERTEX_POINT('',#465);
#465 = CARTESIAN_POINT('',(26.,44.453050679866,16.658437223168));
#466 = LINE('',#467,#468);
#467 = CARTESIAN_POINT('',(0.,44.453050679866,16.658437223168));
#468 = VECTOR('',#469,1.);
#469 = DIRECTION('',(1.,0.,0.));
#470 = ORIENTED_EDGE('',*,*,#471,.F.);
#471 = EDGE_CURVE('',#386,#464,#472,.T.);
#472 = LINE('',#473,#474);
#473 = CARTESIAN_POINT('',(26.,44.453050679866,20.658437223174));
#474 = VECTOR('',#475,1.);
#475 = DIRECTION('',(-0.,-0.,-1.));
#476 = ORIENTED_EDGE('',*,*,#385,.F.);
#477 = PLANE('',#478);
#478 = AXIS2_PLACEMENT_3D('',#479,#480,#481);
#479 = CARTESIAN_POINT('',(0.,44.453050679866,16.658437223168));
#480 = DIRECTION('',(0.,-1.,0.));
#481 = DIRECTION('',(0.,0.,1.));
#482 = ADVANCED_FACE('',(#483),#494,.F.);
#483 = FACE_BOUND('',#484,.F.);
#484 = EDGE_LOOP('',(#485,#486,#487,#493));
#485 = ORIENTED_EDGE('',*,*,#151,.F.);
#486 = ORIENTED_EDGE('',*,*,#448,.T.);
#487 = ORIENTED_EDGE('',*,*,#488,.T.);
#488 = EDGE_CURVE('',#440,#219,#489,.T.);
#489 = LINE('',#490,#491);
#490 = CARTESIAN_POINT('',(26.,31.151457,20.658437223174));
#491 = VECTOR('',#492,1.);
#492 = DIRECTION('',(0.,-0.780868809443,-0.624695047554));
#493 = ORIENTED_EDGE('',*,*,#226,.F.);
#494 = PLANE('',#495);
#495 = AXIS2_PLACEMENT_3D('',#496,#497,#498);
#496 = CARTESIAN_POINT('',(0.,31.151457,20.658437223174));
#497 = DIRECTION('',(0.,0.624695047554,-0.780868809443));
#498 = DIRECTION('',(0.,-0.780868809443,-0.624695047554));
#499 = ADVANCED_FACE('',(#500,#518,#529),#540,.F.);
#500 = FACE_BOUND('',#501,.F.);
#501 = EDGE_LOOP('',(#502,#503,#511,#517));
#502 = ORIENTED_EDGE('',*,*,#79,.F.);
#503 = ORIENTED_EDGE('',*,*,#504,.T.);
#504 = EDGE_CURVE('',#80,#505,#507,.T.);
#505 = VERTEX_POINT('',#506);
#506 = CARTESIAN_POINT('',(26.,35.453050679866,16.658437223168));
#507 = LINE('',#508,#509);
#508 = CARTESIAN_POINT('',(0.,35.453050679866,16.658437223168));
#509 = VECTOR('',#510,1.);
#510 = DIRECTION('',(1.,0.,0.));
#511 = ORIENTED_EDGE('',*,*,#512,.T.);
#512 = EDGE_CURVE('',#505,#464,#513,.T.);
#513 = LINE('',#514,#515);
#514 = CARTESIAN_POINT('',(26.,33.302253839933,16.658437223168));
#515 = VECTOR('',#516,1.);
#516 = DIRECTION('',(0.,1.,0.));
#517 = ORIENTED_EDGE('',*,*,#463,.F.);
#518 = FACE_BOUND('',#519,.F.);
#519 = EDGE_LOOP('',(#520));
#520 = ORIENTED_EDGE('',*,*,#521,.F.);
#521 = EDGE_CURVE('',#522,#522,#524,.T.);
#522 = VERTEX_POINT('',#523);
#523 = CARTESIAN_POINT('',(22.749999245771,40.029288547552,
    16.658437223168));
#524 = CIRCLE('',#525,1.75);
#525 = AXIS2_PLACEMENT_3D('',#526,#527,#528);
#526 = CARTESIAN_POINT('',(20.999999245771,40.029288547552,
    16.658437223168));
#527 = DIRECTION('',(0.,0.,1.));
#528 = DIRECTION('',(1.,0.,0.));
#529 = FACE_BOUND('',#530,.F.);
#530 = EDGE_LOOP('',(#531));
#531 = ORIENTED_EDGE('',*,*,#532,.F.);
#532 = EDGE_CURVE('',#533,#533,#535,.T.);
#533 = VERTEX_POINT('',#534);
#534 = CARTESIAN_POINT('',(6.749999245771,40.029288547552,
    16.658437223168));
#535 = CIRCLE('',#536,1.75);
#536 = AXIS2_PLACEMENT_3D('',#537,#538,#539);
#537 = CARTESIAN_POINT('',(4.999999245771,40.029288547552,
    16.658437223168));
#538 = DIRECTION('',(0.,0.,1.));
#539 = DIRECTION('',(1.,0.,0.));
#540 = PLANE('',#541);
#541 = AXIS2_PLACEMENT_3D('',#542,#543,#544);
#542 = CARTESIAN_POINT('',(0.,35.453050679866,16.658437223168));
#543 = DIRECTION('',(0.,0.,1.));
#544 = DIRECTION('',(0.,1.,0.));
#545 = ADVANCED_FACE('',(#546),#571,.F.);
#546 = FACE_BOUND('',#547,.F.);
#547 = EDGE_LOOP('',(#548,#549,#555,#556,#557,#565));
#548 = ORIENTED_EDGE('',*,*,#210,.T.);
#549 = ORIENTED_EDGE('',*,*,#550,.T.);
#550 = EDGE_CURVE('',#211,#505,#551,.T.);
#551 = LINE('',#552,#553);
#552 = CARTESIAN_POINT('',(26.,35.453050679866,14.658437223174));
#553 = VECTOR('',#554,1.);
#554 = DIRECTION('',(0.,0.,1.));
#555 = ORIENTED_EDGE('',*,*,#504,.F.);
#556 = ORIENTED_EDGE('',*,*,#87,.F.);
#557 = ORIENTED_EDGE('',*,*,#558,.T.);
#558 = EDGE_CURVE('',#88,#559,#561,.T.);
#559 = VERTEX_POINT('',#560);
#560 = CARTESIAN_POINT('',(67.,35.453050679866,8.658437223174));
#561 = LINE('',#562,#563);
#562 = CARTESIAN_POINT('',(0.,35.453050679866,8.658437223174));
#563 = VECTOR('',#564,1.);
#564 = DIRECTION('',(1.,0.,0.));
#565 = ORIENTED_EDGE('',*,*,#566,.T.);
#566 = EDGE_CURVE('',#559,#200,#567,.T.);
#567 = LINE('',#568,#569);
#568 = CARTESIAN_POINT('',(67.,35.453050679866,8.658437223174));
#569 = VECTOR('',#570,1.);
#570 = DIRECTION('',(0.,0.,1.));
#571 = PLANE('',#572);
#572 = AXIS2_PLACEMENT_3D('',#573,#574,#575);
#573 = CARTESIAN_POINT('',(0.,35.453050679866,8.658437223174));
#574 = DIRECTION('',(0.,-1.,0.));
#575 = DIRECTION('',(0.,0.,1.));
#576 = ADVANCED_FACE('',(#577,#613),#683,.F.);
#577 = FACE_BOUND('',#578,.F.);
#578 = EDGE_LOOP('',(#579,#587,#596,#604,#611,#612));
#579 = ORIENTED_EDGE('',*,*,#580,.T.);
#580 = EDGE_CURVE('',#96,#581,#583,.T.);
#581 = VERTEX_POINT('',#582);
#582 = CARTESIAN_POINT('',(67.,-34.54694932013,8.658437223174));
#583 = LINE('',#584,#585);
#584 = CARTESIAN_POINT('',(0.,-34.54694932013,8.658437223174));
#585 = VECTOR('',#586,1.);
#586 = DIRECTION('',(1.,0.,0.));
#587 = ORIENTED_EDGE('',*,*,#588,.T.);
#588 = EDGE_CURVE('',#581,#589,#591,.T.);
#589 = VERTEX_POINT('',#590);
#590 = CARTESIAN_POINT('',(70.,-31.54694932013,8.658437223174));
#591 = CIRCLE('',#592,3.);
#592 = AXIS2_PLACEMENT_3D('',#593,#594,#595);
#593 = CARTESIAN_POINT('',(67.,-31.54694932013,8.658437223174));
#594 = DIRECTION('',(0.,-0.,1.));
#595 = DIRECTION('',(0.,1.,0.));
#596 = ORIENTED_EDGE('',*,*,#597,.T.);
#597 = EDGE_CURVE('',#589,#598,#600,.T.);
#598 = VERTEX_POINT('',#599);
#599 = CARTESIAN_POINT('',(70.,32.453050679866,8.658437223174));
#600 = LINE('',#601,#602);
#601 = CARTESIAN_POINT('',(70.,-34.54694932013,8.658437223174));
#602 = VECTOR('',#603,1.);
#603 = DIRECTION('',(0.,1.,0.));
#604 = ORIENTED_EDGE('',*,*,#605,.F.);
#605 = EDGE_CURVE('',#559,#598,#606,.T.);
#606 = CIRCLE('',#607,3.);
#607 = AXIS2_PLACEMENT_3D('',#608,#609,#610);
#608 = CARTESIAN_POINT('',(67.,32.453050679866,8.658437223174));
#609 = DIRECTION('',(-0.,-0.,-1.));
#610 = DIRECTION('',(0.,-1.,0.));
#611 = ORIENTED_EDGE('',*,*,#558,.F.);
#612 = ORIENTED_EDGE('',*,*,#95,.F.);
#613 = FACE_BOUND('',#614,.F.);
#614 = EDGE_LOOP('',(#615,#625,#634,#642,#651,#659,#668,#676));
#615 = ORIENTED_EDGE('',*,*,#616,.F.);
#616 = EDGE_CURVE('',#617,#619,#621,.T.);
#617 = VERTEX_POINT('',#618);
#618 = CARTESIAN_POINT('',(3.675217965539,-19.69774616006,8.658437223174
    ));
#619 = VERTEX_POINT('',#620);
#620 = CARTESIAN_POINT('',(4.324782034461,-19.69774616006,8.658437223174
    ));
#621 = LINE('',#622,#623);
#622 = CARTESIAN_POINT('',(1.83760898277,-19.69774616006,8.658437223174)
  );
#623 = VECTOR('',#624,1.);
#624 = DIRECTION('',(1.,0.,0.));
#625 = ORIENTED_EDGE('',*,*,#626,.F.);
#626 = EDGE_CURVE('',#627,#617,#629,.T.);
#627 = VERTEX_POINT('',#628);
#628 = CARTESIAN_POINT('',(2.5,-18.52252819452,8.658437223174));
#629 = CIRCLE('',#630,1.175217965539);
#630 = AXIS2_PLACEMENT_3D('',#631,#632,#633);
#631 = CARTESIAN_POINT('',(3.675217965539,-18.52252819452,8.658437223174
    ));
#632 = DIRECTION('',(0.,0.,1.));
#633 = DIRECTION('',(1.,0.,0.));
#634 = ORIENTED_EDGE('',*,*,#635,.F.);
#635 = EDGE_CURVE('',#636,#627,#638,.T.);
#636 = VERTEX_POINT('',#637);
#637 = CARTESIAN_POINT('',(2.5,19.127035874394,8.658437223174));
#638 = LINE('',#639,#640);
#639 = CARTESIAN_POINT('',(2.5,-7.70995672287,8.658437223174));
#640 = VECTOR('',#641,1.);
#641 = DIRECTION('',(0.,-1.,0.));
#642 = ORIENTED_EDGE('',*,*,#643,.F.);
#643 = EDGE_CURVE('',#644,#636,#646,.T.);
#644 = VERTEX_POINT('',#645);
#645 = CARTESIAN_POINT('',(3.675217965539,20.302253839933,8.658437223174
    ));
#646 = CIRCLE('',#647,1.175217965539);
#647 = AXIS2_PLACEMENT_3D('',#648,#649,#650);
#648 = CARTESIAN_POINT('',(3.675217965539,19.127035874394,8.658437223174
    ));
#649 = DIRECTION('',(0.,0.,1.));
#650 = DIRECTION('',(1.,0.,0.));
#651 = ORIENTED_EDGE('',*,*,#652,.F.);
#652 = EDGE_CURVE('',#653,#644,#655,.T.);
#653 = VERTEX_POINT('',#654);
#654 = CARTESIAN_POINT('',(4.324782034461,20.302253839933,8.658437223174
    ));
#655 = LINE('',#656,#657);
#656 = CARTESIAN_POINT('',(2.16239101723,20.302253839933,8.658437223174)
  );
#657 = VECTOR('',#658,1.);
#658 = DIRECTION('',(-1.,0.,0.));
#659 = ORIENTED_EDGE('',*,*,#660,.F.);
#660 = EDGE_CURVE('',#661,#653,#663,.T.);
#661 = VERTEX_POINT('',#662);
#662 = CARTESIAN_POINT('',(5.5,19.127035874394,8.658437223174));
#663 = CIRCLE('',#664,1.175217965539);
#664 = AXIS2_PLACEMENT_3D('',#665,#666,#667);
#665 = CARTESIAN_POINT('',(4.324782034461,19.127035874394,8.658437223174
    ));
#666 = DIRECTION('',(0.,0.,1.));
#667 = DIRECTION('',(1.,0.,0.));
#668 = ORIENTED_EDGE('',*,*,#669,.F.);
#669 = EDGE_CURVE('',#670,#661,#672,.T.);
#670 = VERTEX_POINT('',#671);
#671 = CARTESIAN_POINT('',(5.5,-18.52252819452,8.658437223174));
#672 = LINE('',#673,#674);
#673 = CARTESIAN_POINT('',(5.5,-26.53473875733,8.658437223174));
#674 = VECTOR('',#675,1.);
#675 = DIRECTION('',(0.,1.,0.));
#676 = ORIENTED_EDGE('',*,*,#677,.F.);
#677 = EDGE_CURVE('',#619,#670,#678,.T.);
#678 = CIRCLE('',#679,1.175217965539);
#679 = AXIS2_PLACEMENT_3D('',#680,#681,#682);
#680 = CARTESIAN_POINT('',(4.324782034461,-18.52252819452,8.658437223174
    ));
#681 = DIRECTION('',(0.,0.,1.));
#682 = DIRECTION('',(1.,0.,0.));
#683 = PLANE('',#684);
#684 = AXIS2_PLACEMENT_3D('',#685,#686,#687);
#685 = CARTESIAN_POINT('',(0.,-34.54694932013,8.658437223174));
#686 = DIRECTION('',(0.,0.,1.));
#687 = DIRECTION('',(0.,1.,0.));
#688 = ADVANCED_FACE('',(#689),#707,.F.);
#689 = FACE_BOUND('',#690,.F.);
#690 = EDGE_LOOP('',(#691,#692,#693,#699,#700,#701));
#691 = ORIENTED_EDGE('',*,*,#580,.F.);
#692 = ORIENTED_EDGE('',*,*,#103,.F.);
#693 = ORIENTED_EDGE('',*,*,#694,.T.);
#694 = EDGE_CURVE('',#104,#360,#695,.T.);
#695 = LINE('',#696,#697);
#696 = CARTESIAN_POINT('',(0.,-34.54694932013,16.658437223174));
#697 = VECTOR('',#698,1.);
#698 = DIRECTION('',(1.,0.,0.));
#699 = ORIENTED_EDGE('',*,*,#367,.F.);
#700 = ORIENTED_EDGE('',*,*,#242,.T.);
#701 = ORIENTED_EDGE('',*,*,#702,.T.);
#702 = EDGE_CURVE('',#243,#581,#703,.T.);
#703 = LINE('',#704,#705);
#704 = CARTESIAN_POINT('',(67.,-34.54694932013,12.658437223174));
#705 = VECTOR('',#706,1.);
#706 = DIRECTION('',(0.,0.,-1.));
#707 = PLANE('',#708);
#708 = AXIS2_PLACEMENT_3D('',#709,#710,#711);
#709 = CARTESIAN_POINT('',(0.,-34.54694932013,16.658437223174));
#710 = DIRECTION('',(0.,1.,0.));
#711 = DIRECTION('',(0.,0.,-1.));
#712 = ADVANCED_FACE('',(#713,#724,#735),#746,.F.);
#713 = FACE_BOUND('',#714,.F.);
#714 = EDGE_LOOP('',(#715,#716,#717,#718));
#715 = ORIENTED_EDGE('',*,*,#127,.F.);
#716 = ORIENTED_EDGE('',*,*,#175,.T.);
#717 = ORIENTED_EDGE('',*,*,#343,.T.);
#718 = ORIENTED_EDGE('',*,*,#719,.F.);
#719 = EDGE_CURVE('',#120,#344,#720,.T.);
#720 = LINE('',#721,#722);
#721 = CARTESIAN_POINT('',(0.,-43.54694932013,20.658437223174));
#722 = VECTOR('',#723,1.);
#723 = DIRECTION('',(1.,0.,0.));
#724 = FACE_BOUND('',#725,.F.);
#725 = EDGE_LOOP('',(#726));
#726 = ORIENTED_EDGE('',*,*,#727,.T.);
#727 = EDGE_CURVE('',#728,#728,#730,.T.);
#728 = VERTEX_POINT('',#729);
#729 = CARTESIAN_POINT('',(24.05,-39.04694932013,20.658437223174));
#730 = CIRCLE('',#731,3.05);
#731 = AXIS2_PLACEMENT_3D('',#732,#733,#734);
#732 = CARTESIAN_POINT('',(21.,-39.04694932013,20.658437223174));
#733 = DIRECTION('',(0.,0.,1.));
#734 = DIRECTION('',(1.,0.,0.));
#735 = FACE_BOUND('',#736,.F.);
#736 = EDGE_LOOP('',(#737));
#737 = ORIENTED_EDGE('',*,*,#738,.T.);
#738 = EDGE_CURVE('',#739,#739,#741,.T.);
#739 = VERTEX_POINT('',#740);
#740 = CARTESIAN_POINT('',(8.05,-39.04694932013,20.658437223174));
#741 = CIRCLE('',#742,3.05);
#742 = AXIS2_PLACEMENT_3D('',#743,#744,#745);
#743 = CARTESIAN_POINT('',(5.,-39.04694932013,20.658437223174));
#744 = DIRECTION('',(0.,0.,1.));
#745 = DIRECTION('',(1.,0.,0.));
#746 = PLANE('',#747);
#747 = AXIS2_PLACEMENT_3D('',#748,#749,#750);
#748 = CARTESIAN_POINT('',(0.,-30.54694932013,20.658437223174));
#749 = DIRECTION('',(0.,0.,-1.));
#750 = DIRECTION('',(0.,-1.,0.));
#751 = ADVANCED_FACE('',(#752,#763,#774),#785,.F.);
#752 = FACE_BOUND('',#753,.F.);
#753 = EDGE_LOOP('',(#754,#755,#761,#762));
#754 = ORIENTED_EDGE('',*,*,#111,.F.);
#755 = ORIENTED_EDGE('',*,*,#756,.T.);
#756 = EDGE_CURVE('',#112,#352,#757,.T.);
#757 = LINE('',#758,#759);
#758 = CARTESIAN_POINT('',(0.,-43.54694932013,16.658437223174));
#759 = VECTOR('',#760,1.);
#760 = DIRECTION('',(1.,0.,0.));
#761 = ORIENTED_EDGE('',*,*,#359,.F.);
#762 = ORIENTED_EDGE('',*,*,#694,.F.);
#763 = FACE_BOUND('',#764,.F.);
#764 = EDGE_LOOP('',(#765));
#765 = ORIENTED_EDGE('',*,*,#766,.F.);
#766 = EDGE_CURVE('',#767,#767,#769,.T.);
#767 = VERTEX_POINT('',#768);
#768 = CARTESIAN_POINT('',(22.749999245771,-39.04694932013,
    16.658437223174));
#769 = CIRCLE('',#770,1.75);
#770 = AXIS2_PLACEMENT_3D('',#771,#772,#773);
#771 = CARTESIAN_POINT('',(20.999999245771,-39.04694932013,
    16.658437223174));
#772 = DIRECTION('',(0.,0.,1.));
#773 = DIRECTION('',(1.,0.,0.));
#774 = FACE_BOUND('',#775,.F.);
#775 = EDGE_LOOP('',(#776));
#776 = ORIENTED_EDGE('',*,*,#777,.F.);
#777 = EDGE_CURVE('',#778,#778,#780,.T.);
#778 = VERTEX_POINT('',#779);
#779 = CARTESIAN_POINT('',(6.749999245771,-39.04694932013,
    16.658437223174));
#780 = CIRCLE('',#781,1.75);
#781 = AXIS2_PLACEMENT_3D('',#782,#783,#784);
#782 = CARTESIAN_POINT('',(4.999999245771,-39.04694932013,
    16.658437223174));
#783 = DIRECTION('',(0.,0.,1.));
#784 = DIRECTION('',(1.,0.,0.));
#785 = PLANE('',#786);
#786 = AXIS2_PLACEMENT_3D('',#787,#788,#789);
#787 = CARTESIAN_POINT('',(0.,-43.54694932013,16.658437223174));
#788 = DIRECTION('',(0.,0.,1.));
#789 = DIRECTION('',(0.,1.,0.));
#790 = ADVANCED_FACE('',(#791),#797,.F.);
#791 = FACE_BOUND('',#792,.F.);
#792 = EDGE_LOOP('',(#793,#794,#795,#796));
#793 = ORIENTED_EDGE('',*,*,#119,.F.);
#794 = ORIENTED_EDGE('',*,*,#719,.T.);
#795 = ORIENTED_EDGE('',*,*,#351,.T.);
#796 = ORIENTED_EDGE('',*,*,#756,.F.);
#797 = PLANE('',#798);
#798 = AXIS2_PLACEMENT_3D('',#799,#800,#801);
#799 = CARTESIAN_POINT('',(0.,-43.54694932013,20.658437223174));
#800 = DIRECTION('',(0.,1.,0.));
#801 = DIRECTION('',(0.,0.,-1.));
#802 = ADVANCED_FACE('',(#803),#814,.T.);
#803 = FACE_BOUND('',#804,.F.);
#804 = EDGE_LOOP('',(#805,#806,#812,#813));
#805 = ORIENTED_EDGE('',*,*,#605,.T.);
#806 = ORIENTED_EDGE('',*,*,#807,.T.);
#807 = EDGE_CURVE('',#598,#202,#808,.T.);
#808 = LINE('',#809,#810);
#809 = CARTESIAN_POINT('',(70.,32.453050679866,8.658437223174));
#810 = VECTOR('',#811,1.);
#811 = DIRECTION('',(0.,0.,1.));
#812 = ORIENTED_EDGE('',*,*,#199,.F.);
#813 = ORIENTED_EDGE('',*,*,#566,.F.);
#814 = CYLINDRICAL_SURFACE('',#815,3.);
#815 = AXIS2_PLACEMENT_3D('',#816,#817,#818);
#816 = CARTESIAN_POINT('',(67.,32.453050679866,8.658437223174));
#817 = DIRECTION('',(0.,0.,1.));
#818 = DIRECTION('',(0.,1.,0.));
#819 = ADVANCED_FACE('',(#820),#831,.T.);
#820 = FACE_BOUND('',#821,.T.);
#821 = EDGE_LOOP('',(#822,#823,#829,#830));
#822 = ORIENTED_EDGE('',*,*,#259,.T.);
#823 = ORIENTED_EDGE('',*,*,#824,.T.);
#824 = EDGE_CURVE('',#251,#589,#825,.T.);
#825 = LINE('',#826,#827);
#826 = CARTESIAN_POINT('',(70.,-31.54694932013,12.658437223174));
#827 = VECTOR('',#828,1.);
#828 = DIRECTION('',(0.,0.,-1.));
#829 = ORIENTED_EDGE('',*,*,#597,.T.);
#830 = ORIENTED_EDGE('',*,*,#807,.T.);
#831 = PLANE('',#832);
#832 = AXIS2_PLACEMENT_3D('',#833,#834,#835);
#833 = CARTESIAN_POINT('',(70.,0.441880543575,13.188125877984));
#834 = DIRECTION('',(1.,0.,0.));
#835 = DIRECTION('',(0.,0.,1.));
#836 = ADVANCED_FACE('',(#837),#843,.T.);
#837 = FACE_BOUND('',#838,.F.);
#838 = EDGE_LOOP('',(#839,#840,#841,#842));
#839 = ORIENTED_EDGE('',*,*,#250,.T.);
#840 = ORIENTED_EDGE('',*,*,#824,.T.);
#841 = ORIENTED_EDGE('',*,*,#588,.F.);
#842 = ORIENTED_EDGE('',*,*,#702,.F.);
#843 = CYLINDRICAL_SURFACE('',#844,3.);
#844 = AXIS2_PLACEMENT_3D('',#845,#846,#847);
#845 = CARTESIAN_POINT('',(67.,-31.54694932013,12.658437223174));
#846 = DIRECTION('',(0.,0.,-1.));
#847 = DIRECTION('',(0.,-1.,0.));
#848 = ADVANCED_FACE('',(#849),#858,.T.);
#849 = FACE_BOUND('',#850,.T.);
#850 = EDGE_LOOP('',(#851,#852,#853,#854,#855,#856,#857));
#851 = ORIENTED_EDGE('',*,*,#488,.T.);
#852 = ORIENTED_EDGE('',*,*,#218,.T.);
#853 = ORIENTED_EDGE('',*,*,#550,.T.);
#854 = ORIENTED_EDGE('',*,*,#512,.T.);
#855 = ORIENTED_EDGE('',*,*,#471,.F.);
#856 = ORIENTED_EDGE('',*,*,#393,.F.);
#857 = ORIENTED_EDGE('',*,*,#439,.F.);
#858 = PLANE('',#859);
#859 = AXIS2_PLACEMENT_3D('',#860,#861,#862);
#860 = CARTESIAN_POINT('',(26.,33.473617104011,16.588762265706));
#861 = DIRECTION('',(1.,0.,0.));
#862 = DIRECTION('',(0.,0.,1.));
#863 = ADVANCED_FACE('',(#864),#880,.F.);
#864 = FACE_BOUND('',#865,.F.);
#865 = EDGE_LOOP('',(#866,#867,#873,#874));
#866 = ORIENTED_EDGE('',*,*,#267,.F.);
#867 = ORIENTED_EDGE('',*,*,#868,.T.);
#868 = EDGE_CURVE('',#268,#617,#869,.T.);
#869 = LINE('',#870,#871);
#870 = CARTESIAN_POINT('',(3.675217965539,-19.69774616006,
    12.658437223174));
#871 = VECTOR('',#872,1.);
#872 = DIRECTION('',(-0.,-0.,-1.));
#873 = ORIENTED_EDGE('',*,*,#616,.T.);
#874 = ORIENTED_EDGE('',*,*,#875,.F.);
#875 = EDGE_CURVE('',#270,#619,#876,.T.);
#876 = LINE('',#877,#878);
#877 = CARTESIAN_POINT('',(4.324782034461,-19.69774616006,
    12.658437223174));
#878 = VECTOR('',#879,1.);
#879 = DIRECTION('',(-0.,-0.,-1.));
#880 = PLANE('',#881);
#881 = AXIS2_PLACEMENT_3D('',#882,#883,#884);
#882 = CARTESIAN_POINT('',(3.675217965539,-19.69774616006,
    12.658437223174));
#883 = DIRECTION('',(0.,-1.,0.));
#884 = DIRECTION('',(1.,0.,0.));
#885 = ADVANCED_FACE('',(#886),#897,.F.);
#886 = FACE_BOUND('',#887,.F.);
#887 = EDGE_LOOP('',(#888,#889,#895,#896));
#888 = ORIENTED_EDGE('',*,*,#277,.F.);
#889 = ORIENTED_EDGE('',*,*,#890,.T.);
#890 = EDGE_CURVE('',#278,#627,#891,.T.);
#891 = LINE('',#892,#893);
#892 = CARTESIAN_POINT('',(2.5,-18.52252819452,12.658437223174));
#893 = VECTOR('',#894,1.);
#894 = DIRECTION('',(-0.,-0.,-1.));
#895 = ORIENTED_EDGE('',*,*,#626,.T.);
#896 = ORIENTED_EDGE('',*,*,#868,.F.);
#897 = CYLINDRICAL_SURFACE('',#898,1.175217965539);
#898 = AXIS2_PLACEMENT_3D('',#899,#900,#901);
#899 = CARTESIAN_POINT('',(3.675217965539,-18.52252819452,
    12.658437223174));
#900 = DIRECTION('',(0.,0.,1.));
#901 = DIRECTION('',(1.,0.,0.));
#902 = ADVANCED_FACE('',(#903),#914,.F.);
#903 = FACE_BOUND('',#904,.F.);
#904 = EDGE_LOOP('',(#905,#906,#907,#908));
#905 = ORIENTED_EDGE('',*,*,#328,.F.);
#906 = ORIENTED_EDGE('',*,*,#875,.T.);
#907 = ORIENTED_EDGE('',*,*,#677,.T.);
#908 = ORIENTED_EDGE('',*,*,#909,.F.);
#909 = EDGE_CURVE('',#321,#670,#910,.T.);
#910 = LINE('',#911,#912);
#911 = CARTESIAN_POINT('',(5.5,-18.52252819452,12.658437223174));
#912 = VECTOR('',#913,1.);
#913 = DIRECTION('',(-0.,-0.,-1.));
#914 = CYLINDRICAL_SURFACE('',#915,1.175217965539);
#915 = AXIS2_PLACEMENT_3D('',#916,#917,#918);
#916 = CARTESIAN_POINT('',(4.324782034461,-18.52252819452,
    12.658437223174));
#917 = DIRECTION('',(0.,0.,1.));
#918 = DIRECTION('',(1.,0.,0.));
#919 = ADVANCED_FACE('',(#920),#931,.F.);
#920 = FACE_BOUND('',#921,.F.);
#921 = EDGE_LOOP('',(#922,#923,#929,#930));
#922 = ORIENTED_EDGE('',*,*,#286,.F.);
#923 = ORIENTED_EDGE('',*,*,#924,.T.);
#924 = EDGE_CURVE('',#287,#636,#925,.T.);
#925 = LINE('',#926,#927);
#926 = CARTESIAN_POINT('',(2.5,19.127035874394,12.658437223174));
#927 = VECTOR('',#928,1.);
#928 = DIRECTION('',(-0.,-0.,-1.));
#929 = ORIENTED_EDGE('',*,*,#635,.T.);
#930 = ORIENTED_EDGE('',*,*,#890,.F.);
#931 = PLANE('',#932);
#932 = AXIS2_PLACEMENT_3D('',#933,#934,#935);
#933 = CARTESIAN_POINT('',(2.5,19.127035874394,12.658437223174));
#934 = DIRECTION('',(-1.,0.,0.));
#935 = DIRECTION('',(0.,-1.,0.));
#936 = ADVANCED_FACE('',(#937),#948,.F.);
#937 = FACE_BOUND('',#938,.F.);
#938 = EDGE_LOOP('',(#939,#940,#941,#942));
#939 = ORIENTED_EDGE('',*,*,#320,.F.);
#940 = ORIENTED_EDGE('',*,*,#909,.T.);
#941 = ORIENTED_EDGE('',*,*,#669,.T.);
#942 = ORIENTED_EDGE('',*,*,#943,.F.);
#943 = EDGE_CURVE('',#312,#661,#944,.T.);
#944 = LINE('',#945,#946);
#945 = CARTESIAN_POINT('',(5.5,19.127035874394,12.658437223174));
#946 = VECTOR('',#947,1.);
#947 = DIRECTION('',(-0.,-0.,-1.));
#948 = PLANE('',#949);
#949 = AXIS2_PLACEMENT_3D('',#950,#951,#952);
#950 = CARTESIAN_POINT('',(5.5,-18.52252819452,12.658437223174));
#951 = DIRECTION('',(1.,0.,0.));
#952 = DIRECTION('',(0.,1.,0.));
#953 = ADVANCED_FACE('',(#954),#965,.F.);
#954 = FACE_BOUND('',#955,.F.);
#955 = EDGE_LOOP('',(#956,#957,#963,#964));
#956 = ORIENTED_EDGE('',*,*,#294,.F.);
#957 = ORIENTED_EDGE('',*,*,#958,.T.);
#958 = EDGE_CURVE('',#295,#644,#959,.T.);
#959 = LINE('',#960,#961);
#960 = CARTESIAN_POINT('',(3.675217965539,20.302253839933,
    12.658437223174));
#961 = VECTOR('',#962,1.);
#962 = DIRECTION('',(-0.,-0.,-1.));
#963 = ORIENTED_EDGE('',*,*,#643,.T.);
#964 = ORIENTED_EDGE('',*,*,#924,.F.);
#965 = CYLINDRICAL_SURFACE('',#966,1.175217965539);
#966 = AXIS2_PLACEMENT_3D('',#967,#968,#969);
#967 = CARTESIAN_POINT('',(3.675217965539,19.127035874394,
    12.658437223174));
#968 = DIRECTION('',(0.,0.,1.));
#969 = DIRECTION('',(1.,0.,0.));
#970 = ADVANCED_FACE('',(#971),#982,.F.);
#971 = FACE_BOUND('',#972,.F.);
#972 = EDGE_LOOP('',(#973,#974,#975,#976));
#973 = ORIENTED_EDGE('',*,*,#311,.F.);
#974 = ORIENTED_EDGE('',*,*,#943,.T.);
#975 = ORIENTED_EDGE('',*,*,#660,.T.);
#976 = ORIENTED_EDGE('',*,*,#977,.F.);
#977 = EDGE_CURVE('',#304,#653,#978,.T.);
#978 = LINE('',#979,#980);
#979 = CARTESIAN_POINT('',(4.324782034461,20.302253839933,
    12.658437223174));
#980 = VECTOR('',#981,1.);
#981 = DIRECTION('',(-0.,-0.,-1.));
#982 = CYLINDRICAL_SURFACE('',#983,1.175217965539);
#983 = AXIS2_PLACEMENT_3D('',#984,#985,#986);
#984 = CARTESIAN_POINT('',(4.324782034461,19.127035874394,
    12.658437223174));
#985 = DIRECTION('',(0.,0.,1.));
#986 = DIRECTION('',(1.,0.,0.));
#987 = ADVANCED_FACE('',(#988),#994,.F.);
#988 = FACE_BOUND('',#989,.F.);
#989 = EDGE_LOOP('',(#990,#991,#992,#993));
#990 = ORIENTED_EDGE('',*,*,#303,.F.);
#991 = ORIENTED_EDGE('',*,*,#977,.T.);
#992 = ORIENTED_EDGE('',*,*,#652,.T.);
#993 = ORIENTED_EDGE('',*,*,#958,.F.);
#994 = PLANE('',#995);
#995 = AXIS2_PLACEMENT_3D('',#996,#997,#998);
#996 = CARTESIAN_POINT('',(4.324782034461,20.302253839933,
    12.658437223174));
#997 = DIRECTION('',(0.,1.,0.));
#998 = DIRECTION('',(-1.,0.,0.));
#999 = ADVANCED_FACE('',(#1000),#1019,.F.);
#1000 = FACE_BOUND('',#1001,.T.);
#1001 = EDGE_LOOP('',(#1002,#1010,#1011,#1012));
#1002 = ORIENTED_EDGE('',*,*,#1003,.F.);
#1003 = EDGE_CURVE('',#410,#1004,#1006,.T.);
#1004 = VERTEX_POINT('',#1005);
#1005 = CARTESIAN_POINT('',(22.749999245771,40.029288547552,
    19.358437223174));
#1006 = LINE('',#1007,#1008);
#1007 = CARTESIAN_POINT('',(24.049999245771,40.029288547552,
    20.658437223174));
#1008 = VECTOR('',#1009,1.);
#1009 = DIRECTION('',(-0.707106781187,0.,-0.707106781187));
#1010 = ORIENTED_EDGE('',*,*,#409,.T.);
#1011 = ORIENTED_EDGE('',*,*,#1003,.T.);
#1012 = ORIENTED_EDGE('',*,*,#1013,.F.);
#1013 = EDGE_CURVE('',#1004,#1004,#1014,.T.);
#1014 = CIRCLE('',#1015,1.75);
#1015 = AXIS2_PLACEMENT_3D('',#1016,#1017,#1018);
#1016 = CARTESIAN_POINT('',(20.999999245771,40.029288547552,
    19.358437223174));
#1017 = DIRECTION('',(-0.,0.,1.));
#1018 = DIRECTION('',(0.,-1.,0.));
#1019 = CONICAL_SURFACE('',#1020,3.05,0.785398163397);
#1020 = AXIS2_PLACEMENT_3D('',#1021,#1022,#1023);
#1021 = CARTESIAN_POINT('',(20.999999245771,40.029288547552,
    20.658437223174));
#1022 = DIRECTION('',(0.,0.,1.));
#1023 = DIRECTION('',(1.,0.,0.));
#1024 = ADVANCED_FACE('',(#1025),#1044,.F.);
#1025 = FACE_BOUND('',#1026,.T.);
#1026 = EDGE_LOOP('',(#1027,#1035,#1036,#1037));
#1027 = ORIENTED_EDGE('',*,*,#1028,.F.);
#1028 = EDGE_CURVE('',#421,#1029,#1031,.T.);
#1029 = VERTEX_POINT('',#1030);
#1030 = CARTESIAN_POINT('',(6.749999245771,40.029288547552,
    19.358437223174));
#1031 = LINE('',#1032,#1033);
#1032 = CARTESIAN_POINT('',(8.049999245771,40.029288547552,
    20.658437223174));
#1033 = VECTOR('',#1034,1.);
#1034 = DIRECTION('',(-0.707106781187,0.,-0.707106781187));
#1035 = ORIENTED_EDGE('',*,*,#420,.T.);
#1036 = ORIENTED_EDGE('',*,*,#1028,.T.);
#1037 = ORIENTED_EDGE('',*,*,#1038,.F.);
#1038 = EDGE_CURVE('',#1029,#1029,#1039,.T.);
#1039 = CIRCLE('',#1040,1.75);
#1040 = AXIS2_PLACEMENT_3D('',#1041,#1042,#1043);
#1041 = CARTESIAN_POINT('',(4.999999245771,40.029288547552,
    19.358437223174));
#1042 = DIRECTION('',(-0.,0.,1.));
#1043 = DIRECTION('',(0.,-1.,0.));
#1044 = CONICAL_SURFACE('',#1045,3.05,0.785398163397);
#1045 = AXIS2_PLACEMENT_3D('',#1046,#1047,#1048);
#1046 = CARTESIAN_POINT('',(4.999999245771,40.029288547552,
    20.658437223174));
#1047 = DIRECTION('',(0.,0.,1.));
#1048 = DIRECTION('',(1.,0.,0.));
#1049 = ADVANCED_FACE('',(#1050),#1061,.F.);
#1050 = FACE_BOUND('',#1051,.F.);
#1051 = EDGE_LOOP('',(#1052,#1053,#1059,#1060));
#1052 = ORIENTED_EDGE('',*,*,#1013,.F.);
#1053 = ORIENTED_EDGE('',*,*,#1054,.T.);
#1054 = EDGE_CURVE('',#1004,#522,#1055,.T.);
#1055 = LINE('',#1056,#1057);
#1056 = CARTESIAN_POINT('',(22.749999245771,40.029288547552,
    20.658437223174));
#1057 = VECTOR('',#1058,1.);
#1058 = DIRECTION('',(-0.,-0.,-1.));
#1059 = ORIENTED_EDGE('',*,*,#521,.T.);
#1060 = ORIENTED_EDGE('',*,*,#1054,.F.);
#1061 = CYLINDRICAL_SURFACE('',#1062,1.75);
#1062 = AXIS2_PLACEMENT_3D('',#1063,#1064,#1065);
#1063 = CARTESIAN_POINT('',(20.999999245771,40.029288547552,
    20.658437223174));
#1064 = DIRECTION('',(0.,0.,1.));
#1065 = DIRECTION('',(1.,0.,0.));
#1066 = ADVANCED_FACE('',(#1067),#1078,.F.);
#1067 = FACE_BOUND('',#1068,.F.);
#1068 = EDGE_LOOP('',(#1069,#1070,#1076,#1077));
#1069 = ORIENTED_EDGE('',*,*,#1038,.F.);
#1070 = ORIENTED_EDGE('',*,*,#1071,.T.);
#1071 = EDGE_CURVE('',#1029,#533,#1072,.T.);
#1072 = LINE('',#1073,#1074);
#1073 = CARTESIAN_POINT('',(6.749999245771,40.029288547552,
    20.658437223174));
#1074 = VECTOR('',#1075,1.);
#1075 = DIRECTION('',(-0.,-0.,-1.));
#1076 = ORIENTED_EDGE('',*,*,#532,.T.);
#1077 = ORIENTED_EDGE('',*,*,#1071,.F.);
#1078 = CYLINDRICAL_SURFACE('',#1079,1.75);
#1079 = AXIS2_PLACEMENT_3D('',#1080,#1081,#1082);
#1080 = CARTESIAN_POINT('',(4.999999245771,40.029288547552,
    20.658437223174));
#1081 = DIRECTION('',(0.,0.,1.));
#1082 = DIRECTION('',(1.,0.,0.));
#1083 = ADVANCED_FACE('',(#1084),#1155,.F.);
#1084 = FACE_BOUND('',#1085,.T.);
#1085 = EDGE_LOOP('',(#1086,#1094,#1095,#1096));
#1086 = ORIENTED_EDGE('',*,*,#1087,.F.);
#1087 = EDGE_CURVE('',#728,#1088,#1090,.T.);
#1088 = VERTEX_POINT('',#1089);
#1089 = CARTESIAN_POINT('',(22.749999245771,-39.04694932013,
    19.358436468945));
#1090 = LINE('',#1091,#1092);
#1091 = CARTESIAN_POINT('',(24.05,-39.04694932013,20.658437223174));
#1092 = VECTOR('',#1093,1.);
#1093 = DIRECTION('',(-0.707106781187,0.,-0.707106781187));
#1094 = ORIENTED_EDGE('',*,*,#727,.T.);
#1095 = ORIENTED_EDGE('',*,*,#1087,.T.);
#1096 = ORIENTED_EDGE('',*,*,#1097,.F.);
#1097 = EDGE_CURVE('',#1088,#1088,#1098,.T.);
#1098 = B_SPLINE_CURVE_WITH_KNOTS('',7,(#1099,#1100,#1101,#1102,#1103,
    #1104,#1105,#1106,#1107,#1108,#1109,#1110,#1111,#1112,#1113,#1114,
    #1115,#1116,#1117,#1118,#1119,#1120,#1121,#1122,#1123,#1124,#1125,
    #1126,#1127,#1128,#1129,#1130,#1131,#1132,#1133,#1134,#1135,#1136,
    #1137,#1138,#1139,#1140,#1141,#1142,#1143,#1144,#1145,#1146,#1147,
    #1148,#1149,#1150,#1151,#1152,#1153,#1154),.UNSPECIFIED.,.T.,.F.,(8,
    6,6,6,6,6,6,6,6,8),(0.,0.130146655839,0.253262658261,0.376378652923,
    0.499494642145,0.622610631343,0.745726625945,0.868842628307,
    0.991958636365,1.),.UNSPECIFIED.);
#1099 = CARTESIAN_POINT('',(22.749999245771,-39.04694932013,
    19.358436468945));
#1100 = CARTESIAN_POINT('',(22.749999245771,-38.84254327349,
    19.358436468945));
#1101 = CARTESIAN_POINT('',(22.722144404951,-38.63802699507,
    19.358436480951));
#1102 = CARTESIAN_POINT('',(22.666382783693,-38.43815876273,
    19.358436504983));
#1103 = CARTESIAN_POINT('',(22.583749592016,-38.24745219471,
    19.358436540598));
#1104 = CARTESIAN_POINT('',(22.476054639707,-38.07008595946,
    19.358436587014));
#1105 = CARTESIAN_POINT('',(22.34588460798,-37.90990326802,
    19.358436643116));
#1106 = CARTESIAN_POINT('',(22.055667488897,-37.63788810637,
    19.358436768196));
#1107 = CARTESIAN_POINT('',(21.897479340275,-37.52378461805,
    19.358436836374));
#1108 = CARTESIAN_POINT('',(21.7250832514,-37.43057970556,
    19.358436910675));
#1109 = CARTESIAN_POINT('',(21.541831727343,-37.36029134948,
    19.358436989654));
#1110 = CARTESIAN_POINT('',(21.351325975061,-37.31430083768,
    19.35843707176));
#1111 = CARTESIAN_POINT('',(21.157408074754,-37.29334976244,
    19.358437155336));
#1112 = CARTESIAN_POINT('',(20.770765086472,-37.30128593801,
    19.358437321975));
#1113 = CARTESIAN_POINT('',(20.577870239363,-37.33017667013,
    19.35843740511));
#1114 = CARTESIAN_POINT('',(20.389412139849,-37.38394573246,
    19.358437486333));
#1115 = CARTESIAN_POINT('',(20.209199201617,-37.46169450195,
    19.358437564003));
#1116 = CARTESIAN_POINT('',(20.040772919143,-37.56189508246,
    19.358437636592));
#1117 = CARTESIAN_POINT('',(19.887400168797,-37.68239362621,
    19.358437702694));
#1118 = CARTESIAN_POINT('',(19.616329337261,-37.95821311293,
    19.358437819522));
#1119 = CARTESIAN_POINT('',(19.498512238363,-38.11365515543,
    19.358437870299));
#1120 = CARTESIAN_POINT('',(19.401251439506,-38.28379599392,
    19.358437912217));
#1121 = CARTESIAN_POINT('',(19.326643736558,-38.46533184455,
    19.358437944372));
#1122 = CARTESIAN_POINT('',(19.276155299602,-38.65469521567,
    19.358437966131));
#1123 = CARTESIAN_POINT('',(19.250618485569,-38.84806266331,
    19.358437977137));
#1124 = CARTESIAN_POINT('',(19.249397451787,-39.23478516684,
    19.358437977662));
#1125 = CARTESIAN_POINT('',(19.273712695922,-39.42831001684,
    19.358437967182));
#1126 = CARTESIAN_POINT('',(19.3230043501,-39.61798843263,
    19.358437945938));
#1127 = CARTESIAN_POINT('',(19.396464217961,-39.79999179033,
    19.358437914277));
#1128 = CARTESIAN_POINT('',(19.49264868636,-39.970743411,19.358437872822
    ));
#1129 = CARTESIAN_POINT('',(19.6094818637,-40.12692633598,
    19.358437822468));
#1130 = CARTESIAN_POINT('',(19.878805568589,-40.40445205903,
    19.358437706392));
#1131 = CARTESIAN_POINT('',(20.031414346757,-40.52591670581,
    19.35843764062));
#1132 = CARTESIAN_POINT('',(20.199204532813,-40.62717885286,
    19.358437568304));
#1133 = CARTESIAN_POINT('',(20.378922916472,-40.70606406592,
    19.358437490847));
#1134 = CARTESIAN_POINT('',(20.567037722091,-40.7610221158,
    19.358437409772));
#1135 = CARTESIAN_POINT('',(20.759746286467,-40.79113034829,
    19.358437326717));
#1136 = CARTESIAN_POINT('',(21.146331451169,-40.80150790674,
    19.358437160103));
#1137 = CARTESIAN_POINT('',(21.340377785255,-40.7817817859,
    19.358437076471));
#1138 = CARTESIAN_POINT('',(21.531170156318,-40.736995181,
    19.358436994242));
#1139 = CARTESIAN_POINT('',(21.71486187778,-40.66786540787,
    19.358436915073));
#1140 = CARTESIAN_POINT('',(21.887843092077,-40.57575098622,
    19.358436840521));
#1141 = CARTESIAN_POINT('',(22.04674861798,-40.46264868632,
    19.358436772034));
#1142 = CARTESIAN_POINT('',(22.330573611586,-40.19997178485,
    19.35843664971));
#1143 = CARTESIAN_POINT('',(22.455617693564,-40.050281851,
    19.358436595818));
#1144 = CARTESIAN_POINT('',(22.560824408163,-39.88493640815,
    19.358436550475));
#1145 = CARTESIAN_POINT('',(22.643942900888,-39.70713626728,
    19.358436514652));
#1146 = CARTESIAN_POINT('',(22.70333975102,-39.52037550665,
    19.358436489053));
#1147 = CARTESIAN_POINT('',(22.73800252248,-39.32843387606,
    19.358436474114));
#1148 = CARTESIAN_POINT('',(22.748404401996,-39.12270494311,
    19.358436469632));
#1149 = CARTESIAN_POINT('',(22.74893594875,-39.11008616747,
    19.358436469403));
#1150 = CARTESIAN_POINT('',(22.749361240421,-39.09746309536,
    19.358436469219));
#1151 = CARTESIAN_POINT('',(22.749680236309,-39.08483680042,
    19.358436469082));
#1152 = CARTESIAN_POINT('',(22.749892909282,-39.07220835662,
    19.35843646899));
#1153 = CARTESIAN_POINT('',(22.749999245771,-39.0595788383,
    19.358436468945));
#1154 = CARTESIAN_POINT('',(22.749999245771,-39.04694932013,
    19.358436468945));
#1155 = CONICAL_SURFACE('',#1156,3.05,0.785398163397);
#1156 = AXIS2_PLACEMENT_3D('',#1157,#1158,#1159);
#1157 = CARTESIAN_POINT('',(21.,-39.04694932013,20.658437223174));
#1158 = DIRECTION('',(0.,0.,1.));
#1159 = DIRECTION('',(1.,0.,0.));
#1160 = ADVANCED_FACE('',(#1161),#1232,.F.);
#1161 = FACE_BOUND('',#1162,.T.);
#1162 = EDGE_LOOP('',(#1163,#1171,#1172,#1173));
#1163 = ORIENTED_EDGE('',*,*,#1164,.F.);
#1164 = EDGE_CURVE('',#739,#1165,#1167,.T.);
#1165 = VERTEX_POINT('',#1166);
#1166 = CARTESIAN_POINT('',(6.749999245771,-39.04694932013,
    19.358436468945));
#1167 = LINE('',#1168,#1169);
#1168 = CARTESIAN_POINT('',(8.05,-39.04694932013,20.658437223174));
#1169 = VECTOR('',#1170,1.);
#1170 = DIRECTION('',(-0.707106781187,0.,-0.707106781187));
#1171 = ORIENTED_EDGE('',*,*,#738,.T.);
#1172 = ORIENTED_EDGE('',*,*,#1164,.T.);
#1173 = ORIENTED_EDGE('',*,*,#1174,.F.);
#1174 = EDGE_CURVE('',#1165,#1165,#1175,.T.);
#1175 = B_SPLINE_CURVE_WITH_KNOTS('',7,(#1176,#1177,#1178,#1179,#1180,
    #1181,#1182,#1183,#1184,#1185,#1186,#1187,#1188,#1189,#1190,#1191,
    #1192,#1193,#1194,#1195,#1196,#1197,#1198,#1199,#1200,#1201,#1202,
    #1203,#1204,#1205,#1206,#1207,#1208,#1209,#1210,#1211,#1212,#1213,
    #1214,#1215,#1216,#1217,#1218,#1219,#1220,#1221,#1222,#1223,#1224,
    #1225,#1226,#1227,#1228,#1229,#1230,#1231),.UNSPECIFIED.,.T.,.F.,(8,
    6,6,6,6,6,6,6,6,8),(0.,0.12964399038,0.253261748498,0.376879498796,
    0.500497243629,0.624617217099,0.748234967488,0.871852725699,
    0.984922502251,1.),.UNSPECIFIED.);
#1176 = CARTESIAN_POINT('',(6.749999245771,-39.04694932013,
    19.358436468945));
#1177 = CARTESIAN_POINT('',(6.749999245771,-38.84333194719,
    19.358436468945));
#1178 = CARTESIAN_POINT('',(6.722358944736,-38.6396064717,
    19.358436480858));
#1179 = CARTESIAN_POINT('',(6.667027590688,-38.4404746856,
    19.358436504705));
#1180 = CARTESIAN_POINT('',(6.585023717994,-38.25039852213,
    19.358436540049));
#1181 = CARTESIAN_POINT('',(6.478129818525,-38.07351145375,
    19.358436586119));
#1182 = CARTESIAN_POINT('',(6.348894251317,-37.9136172418,
    19.358436641819));
#1183 = CARTESIAN_POINT('',(6.059537347435,-37.64068703169,
    19.358436766529));
#1184 = CARTESIAN_POINT('',(5.900995352768,-37.52569047074,
    19.358436834859));
#1185 = CARTESIAN_POINT('',(5.728074581683,-37.43172996053,
    19.358436909386));
#1186 = CARTESIAN_POINT('',(5.544164802587,-37.36085586984,
    19.358436988649));
#1187 = CARTESIAN_POINT('',(5.35290915009,-37.31447216994,
    19.358437071078));
#1188 = CARTESIAN_POINT('',(5.158196705306,-37.29333357513,
    19.358437154997));
#1189 = CARTESIAN_POINT('',(4.769976456016,-37.30130212532,
    19.358437322315));
#1190 = CARTESIAN_POINT('',(4.57629542846,-37.3304128227,19.358437405789
    ));
#1191 = CARTESIAN_POINT('',(4.387104194598,-37.38460551362,
    19.358437487328));
#1192 = CARTESIAN_POINT('',(4.206257590996,-37.46296653544,
    19.358437565271));
#1193 = CARTESIAN_POINT('',(4.037338073688,-37.56394360729,
    19.358437638073));
#1194 = CARTESIAN_POINT('',(3.883648421985,-37.68534899137,
    19.358437704311));
#1195 = CARTESIAN_POINT('',(3.612347565987,-37.96315163177,
    19.358437821238));
#1196 = CARTESIAN_POINT('',(3.494615306223,-38.11967284149,
    19.358437871979));
#1197 = CARTESIAN_POINT('',(3.397666243065,-38.29093594454,
    19.358437913762));
#1198 = CARTESIAN_POINT('',(3.323609298506,-38.47358728693,
    19.35843794568));
#1199 = CARTESIAN_POINT('',(3.27391149372,-38.66400866227,
    19.358437967098));
#1200 = CARTESIAN_POINT('',(3.249394961261,-38.85832468071,
    19.358437977664));
#1201 = CARTESIAN_POINT('',(3.250623466595,-39.24741355372,
    19.358437977134));
#1202 = CARTESIAN_POINT('',(3.276573668832,-39.44236078134,
    19.358437965949));
#1203 = CARTESIAN_POINT('',(3.327885446243,-39.6332045151,
    19.358437943834));
#1204 = CARTESIAN_POINT('',(3.403697790497,-39.81602758356,
    19.358437911159));
#1205 = CARTESIAN_POINT('',(3.502496911966,-39.98717945215,
    19.358437868578));
#1206 = CARTESIAN_POINT('',(3.622119110095,-40.14328314499,
    19.358437817022));
#1207 = CARTESIAN_POINT('',(3.896595576165,-40.41906263868,
    19.358437698725));
#1208 = CARTESIAN_POINT('',(4.051428284742,-40.53900682855,
    19.358437631994));
#1209 = CARTESIAN_POINT('',(4.221296678795,-40.63837936537,
    19.358437558782));
#1210 = CARTESIAN_POINT('',(4.402877404904,-40.71502389339,
    19.358437480523));
#1211 = CARTESIAN_POINT('',(4.59257346458,-40.76742213439,
    19.358437398766));
#1212 = CARTESIAN_POINT('',(4.786521539953,-40.79469697974,
    19.358437315177));
#1213 = CARTESIAN_POINT('',(5.174799851593,-40.79898795142,
    19.358437147833));
#1214 = CARTESIAN_POINT('',(5.36930333678,-40.77600598919,
    19.358437064005));
#1215 = CARTESIAN_POINT('',(5.560111063206,-40.72781279713,
    19.358436981769));
#1216 = CARTESIAN_POINT('',(5.743341272857,-40.65519989301,
    19.358436902799));
#1217 = CARTESIAN_POINT('',(5.915364292991,-40.55960569287,
    19.358436828659));
#1218 = CARTESIAN_POINT('',(6.072809928337,-40.44311258141,
    19.358436760802));
#1219 = CARTESIAN_POINT('',(6.340802299952,-40.1854937689,
    19.358436645301));
#1220 = CARTESIAN_POINT('',(6.454297214644,-40.04722866106,
    19.358436596387));
#1221 = CARTESIAN_POINT('',(6.55101899642,-39.89589399982,
    19.358436554701));
#1222 = CARTESIAN_POINT('',(6.629230688483,-39.73395313487,
    19.358436520993));
#1223 = CARTESIAN_POINT('',(6.687627038356,-39.56410865162,
    19.358436495825));
#1224 = CARTESIAN_POINT('',(6.725358572949,-39.3892525226,
    19.358436479564));
#1225 = CARTESIAN_POINT('',(6.744394172881,-39.18888979023,
    19.35843647136));
#1226 = CARTESIAN_POINT('',(6.746261692295,-39.16528023561,
    19.358436470555));
#1227 = CARTESIAN_POINT('',(6.747756378283,-39.14164237694,
    19.358436469911));
#1228 = CARTESIAN_POINT('',(6.748877728089,-39.11798327918,
    19.358436469428));
#1229 = CARTESIAN_POINT('',(6.749625406485,-39.09431001524,
    19.358436469106));
#1230 = CARTESIAN_POINT('',(6.749999245771,-39.07062966596,
    19.358436468945));
#1231 = CARTESIAN_POINT('',(6.749999245771,-39.04694932013,
    19.358436468945));
#1232 = CONICAL_SURFACE('',#1233,3.05,0.785398163397);
#1233 = AXIS2_PLACEMENT_3D('',#1234,#1235,#1236);
#1234 = CARTESIAN_POINT('',(5.,-39.04694932013,20.658437223174));
#1235 = DIRECTION('',(0.,0.,1.));
#1236 = DIRECTION('',(1.,0.,0.));
#1237 = ADVANCED_FACE('',(#1238),#1249,.F.);
#1238 = FACE_BOUND('',#1239,.F.);
#1239 = EDGE_LOOP('',(#1240,#1241,#1247,#1248));
#1240 = ORIENTED_EDGE('',*,*,#1097,.F.);
#1241 = ORIENTED_EDGE('',*,*,#1242,.T.);
#1242 = EDGE_CURVE('',#1088,#767,#1243,.T.);
#1243 = LINE('',#1244,#1245);
#1244 = CARTESIAN_POINT('',(22.749999245771,-39.04694932013,
    20.658437223174));
#1245 = VECTOR('',#1246,1.);
#1246 = DIRECTION('',(-0.,-0.,-1.));
#1247 = ORIENTED_EDGE('',*,*,#766,.T.);
#1248 = ORIENTED_EDGE('',*,*,#1242,.F.);
#1249 = CYLINDRICAL_SURFACE('',#1250,1.75);
#1250 = AXIS2_PLACEMENT_3D('',#1251,#1252,#1253);
#1251 = CARTESIAN_POINT('',(20.999999245771,-39.04694932013,
    20.658437223174));
#1252 = DIRECTION('',(0.,0.,1.));
#1253 = DIRECTION('',(1.,0.,0.));
#1254 = ADVANCED_FACE('',(#1255),#1266,.F.);
#1255 = FACE_BOUND('',#1256,.F.);
#1256 = EDGE_LOOP('',(#1257,#1258,#1264,#1265));
#1257 = ORIENTED_EDGE('',*,*,#1174,.F.);
#1258 = ORIENTED_EDGE('',*,*,#1259,.T.);
#1259 = EDGE_CURVE('',#1165,#778,#1260,.T.);
#1260 = LINE('',#1261,#1262);
#1261 = CARTESIAN_POINT('',(6.749999245771,-39.04694932013,
    20.658437223174));
#1262 = VECTOR('',#1263,1.);
#1263 = DIRECTION('',(-0.,-0.,-1.));
#1264 = ORIENTED_EDGE('',*,*,#777,.T.);
#1265 = ORIENTED_EDGE('',*,*,#1259,.F.);
#1266 = CYLINDRICAL_SURFACE('',#1267,1.75);
#1267 = AXIS2_PLACEMENT_3D('',#1268,#1269,#1270);
#1268 = CARTESIAN_POINT('',(4.999999245771,-39.04694932013,
    20.658437223174));
#1269 = DIRECTION('',(0.,0.,1.));
#1270 = DIRECTION('',(1.,0.,0.));
#1271 = ( GEOMETRIC_REPRESENTATION_CONTEXT(3) 
GLOBAL_UNCERTAINTY_ASSIGNED_CONTEXT((#1275)) 
GLOBAL_UNIT_ASSIGNED_CONTEXT((#1272,#1273,#1274)) REPRESENTATION_CONTEXT
('Context #1','3D Context with UNIT and UNCERTAINTY') );
#1272 = ( LENGTH_UNIT() NAMED_UNIT(*) SI_UNIT(.MILLI.,.METRE.) );
#1273 = ( NAMED_UNIT(*) PLANE_ANGLE_UNIT() SI_UNIT($,.RADIAN.) );
#1274 = ( NAMED_UNIT(*) SI_UNIT($,.STERADIAN.) SOLID_ANGLE_UNIT() );
#1275 = UNCERTAINTY_MEASURE_WITH_UNIT(LENGTH_MEASURE(2.E-05),#1272,
  'distance_accuracy_value','confusion accuracy');
#1276 = PRODUCT_RELATED_PRODUCT_CATEGORY('part',$,(#7));
ENDSEC;
END-ISO-10303-21;
