ISO-10303-21;
HEADER;
FILE_DESCRIPTION(('FreeCAD Model'),'2;1');
FILE_NAME('Open CASCADE Shape Model','2026-08-28T13:04:06',('FreeCAD'),(
    'FreeCAD'),'Open CASCADE STEP processor 7.8','FreeCAD','Unknown');
FILE_SCHEMA(('AUTOMOTIVE_DESIGN { 1 0 10303 214 1 1 1 1 }'));
ENDSEC;
DATA;
#1 = APPLICATION_PROTOCOL_DEFINITION('international standard',
  'automotive_design',2000,#2);
#2 = APPLICATION_CONTEXT(
  'core data for automotive mechanical design processes');
#3 = SHAPE_DEFINITION_REPRESENTATION(#4,#10);
#4 = PRODUCT_DEFINITION_SHAPE('','',#5);
#5 = PRODUCT_DEFINITION('design','',#6,#9);
#6 = PRODUCT_DEFINITION_FORMATION('','',#7);
#7 = PRODUCT('Open CASCADE STEP translator 7.8 93',
  'Open CASCADE STEP translator 7.8 93','',(#8));
#8 = PRODUCT_CONTEXT('',#2,'mechanical');
#9 = PRODUCT_DEFINITION_CONTEXT('part definition',#2,'design');
#10 = ADVANCED_BREP_SHAPE_REPRESENTATION('',(#11,#15),#1521);
#11 = AXIS2_PLACEMENT_3D('',#12,#13,#14);
#12 = CARTESIAN_POINT('',(0.,0.,0.));
#13 = DIRECTION('',(0.,0.,1.));
#14 = DIRECTION('',(1.,0.,-0.));
#15 = MANIFOLD_SOLID_BREP('',#16);
#16 = CLOSED_SHELL('',(#17,#79,#154,#371,#471,#510,#535,#560,#577,#602,
    #627,#652,#677,#705,#722,#739,#762,#793,#817,#841,#865,#889,#906,
    #937,#961,#985,#1009,#1033,#1050,#1075,#1106,#1130,#1154,#1178,#1202
    ,#1219,#1244,#1269,#1294,#1319,#1344,#1369,#1378,#1387,#1396,#1405,
    #1414,#1423,#1440,#1457,#1474,#1486,#1503,#1512));
#17 = ADVANCED_FACE('',(#18,#52,#63),#74,.F.);
#18 = FACE_BOUND('',#19,.F.);
#19 = EDGE_LOOP('',(#20,#30,#38,#46));
#20 = ORIENTED_EDGE('',*,*,#21,.T.);
#21 = EDGE_CURVE('',#22,#24,#26,.T.);
#22 = VERTEX_POINT('',#23);
#23 = CARTESIAN_POINT('',(20.,-20.,0.));
#24 = VERTEX_POINT('',#25);
#25 = CARTESIAN_POINT('',(20.,-20.,9.));
#26 = LINE('',#27,#28);
#27 = CARTESIAN_POINT('',(20.,-20.,0.));
#28 = VECTOR('',#29,1.);
#29 = DIRECTION('',(0.,0.,1.));
#30 = ORIENTED_EDGE('',*,*,#31,.T.);
#31 = EDGE_CURVE('',#24,#32,#34,.T.);
#32 = VERTEX_POINT('',#33);
#33 = CARTESIAN_POINT('',(20.,20.,9.));
#34 = LINE('',#35,#36);
#35 = CARTESIAN_POINT('',(20.,-20.,9.));
#36 = VECTOR('',#37,1.);
#37 = DIRECTION('',(0.,1.,0.));
#38 = ORIENTED_EDGE('',*,*,#39,.F.);
#39 = EDGE_CURVE('',#40,#32,#42,.T.);
#40 = VERTEX_POINT('',#41);
#41 = CARTESIAN_POINT('',(20.,20.,0.));
#42 = LINE('',#43,#44);
#43 = CARTESIAN_POINT('',(20.,20.,0.));
#44 = VECTOR('',#45,1.);
#45 = DIRECTION('',(0.,0.,1.));
#46 = ORIENTED_EDGE('',*,*,#47,.F.);
#47 = EDGE_CURVE('',#22,#40,#48,.T.);
#48 = LINE('',#49,#50);
#49 = CARTESIAN_POINT('',(20.,-20.,0.));
#50 = VECTOR('',#51,1.);
#51 = DIRECTION('',(0.,1.,0.));
#52 = FACE_BOUND('',#53,.F.);
#53 = EDGE_LOOP('',(#54));
#54 = ORIENTED_EDGE('',*,*,#55,.T.);
#55 = EDGE_CURVE('',#56,#56,#58,.T.);
#56 = VERTEX_POINT('',#57);
#57 = CARTESIAN_POINT('',(20.,13.2,4.5));
#58 = CIRCLE('',#59,1.2);
#59 = AXIS2_PLACEMENT_3D('',#60,#61,#62);
#60 = CARTESIAN_POINT('',(20.,12.,4.5));
#61 = DIRECTION('',(1.,0.,0.));
#62 = DIRECTION('',(0.,1.,0.));
#63 = FACE_BOUND('',#64,.F.);
#64 = EDGE_LOOP('',(#65));
#65 = ORIENTED_EDGE('',*,*,#66,.T.);
#66 = EDGE_CURVE('',#67,#67,#69,.T.);
#67 = VERTEX_POINT('',#68);
#68 = CARTESIAN_POINT('',(20.,5.2,4.5));
#69 = CIRCLE('',#70,1.2);
#70 = AXIS2_PLACEMENT_3D('',#71,#72,#73);
#71 = CARTESIAN_POINT('',(20.,4.,4.5));
#72 = DIRECTION('',(1.,0.,0.));
#73 = DIRECTION('',(0.,1.,0.));
#74 = PLANE('',#75);
#75 = AXIS2_PLACEMENT_3D('',#76,#77,#78);
#76 = CARTESIAN_POINT('',(20.,-20.,0.));
#77 = DIRECTION('',(-1.,0.,0.));
#78 = DIRECTION('',(0.,1.,0.));
#79 = ADVANCED_FACE('',(#80,#105,#116,#127,#138),#149,.T.);
#80 = FACE_BOUND('',#81,.T.);
#81 = EDGE_LOOP('',(#82,#83,#91,#99));
#82 = ORIENTED_EDGE('',*,*,#21,.T.);
#83 = ORIENTED_EDGE('',*,*,#84,.T.);
#84 = EDGE_CURVE('',#24,#85,#87,.T.);
#85 = VERTEX_POINT('',#86);
#86 = CARTESIAN_POINT('',(-60.,-20.,9.));
#87 = LINE('',#88,#89);
#88 = CARTESIAN_POINT('',(-20.,-20.,9.));
#89 = VECTOR('',#90,1.);
#90 = DIRECTION('',(-1.,0.,0.));
#91 = ORIENTED_EDGE('',*,*,#92,.F.);
#92 = EDGE_CURVE('',#93,#85,#95,.T.);
#93 = VERTEX_POINT('',#94);
#94 = CARTESIAN_POINT('',(-60.,-20.,0.));
#95 = LINE('',#96,#97);
#96 = CARTESIAN_POINT('',(-60.,-20.,0.));
#97 = VECTOR('',#98,1.);
#98 = DIRECTION('',(0.,0.,1.));
#99 = ORIENTED_EDGE('',*,*,#100,.T.);
#100 = EDGE_CURVE('',#93,#22,#101,.T.);
#101 = LINE('',#102,#103);
#102 = CARTESIAN_POINT('',(-20.,-20.,0.));
#103 = VECTOR('',#104,1.);
#104 = DIRECTION('',(1.,0.,0.));
#105 = FACE_BOUND('',#106,.T.);
#106 = EDGE_LOOP('',(#107));
#107 = ORIENTED_EDGE('',*,*,#108,.F.);
#108 = EDGE_CURVE('',#109,#109,#111,.T.);
#109 = VERTEX_POINT('',#110);
#110 = CARTESIAN_POINT('',(-55.8,-20.,4.5));
#111 = CIRCLE('',#112,1.2);
#112 = AXIS2_PLACEMENT_3D('',#113,#114,#115);
#113 = CARTESIAN_POINT('',(-57.,-20.,4.5));
#114 = DIRECTION('',(0.,-1.,0.));
#115 = DIRECTION('',(1.,0.,0.));
#116 = FACE_BOUND('',#117,.T.);
#117 = EDGE_LOOP('',(#118));
#118 = ORIENTED_EDGE('',*,*,#119,.F.);
#119 = EDGE_CURVE('',#120,#120,#122,.T.);
#120 = VERTEX_POINT('',#121);
#121 = CARTESIAN_POINT('',(-45.8,-20.,4.5));
#122 = CIRCLE('',#123,1.2);
#123 = AXIS2_PLACEMENT_3D('',#124,#125,#126);
#124 = CARTESIAN_POINT('',(-47.,-20.,4.5));
#125 = DIRECTION('',(0.,-1.,0.));
#126 = DIRECTION('',(1.,0.,0.));
#127 = FACE_BOUND('',#128,.T.);
#128 = EDGE_LOOP('',(#129));
#129 = ORIENTED_EDGE('',*,*,#130,.F.);
#130 = EDGE_CURVE('',#131,#131,#133,.T.);
#131 = VERTEX_POINT('',#132);
#132 = CARTESIAN_POINT('',(-13.80000000003,-20.,4.499999999962));
#133 = CIRCLE('',#134,1.2);
#134 = AXIS2_PLACEMENT_3D('',#135,#136,#137);
#135 = CARTESIAN_POINT('',(-15.00000000003,-20.,4.499999999962));
#136 = DIRECTION('',(0.,-1.,0.));
#137 = DIRECTION('',(1.,0.,0.));
#138 = FACE_BOUND('',#139,.T.);
#139 = EDGE_LOOP('',(#140));
#140 = ORIENTED_EDGE('',*,*,#141,.F.);
#141 = EDGE_CURVE('',#142,#142,#144,.T.);
#142 = VERTEX_POINT('',#143);
#143 = CARTESIAN_POINT('',(16.199999999963,-20.,4.499999999962));
#144 = CIRCLE('',#145,1.2);
#145 = AXIS2_PLACEMENT_3D('',#146,#147,#148);
#146 = CARTESIAN_POINT('',(14.999999999963,-20.,4.499999999962));
#147 = DIRECTION('',(0.,-1.,0.));
#148 = DIRECTION('',(1.,0.,0.));
#149 = PLANE('',#150);
#150 = AXIS2_PLACEMENT_3D('',#151,#152,#153);
#151 = CARTESIAN_POINT('',(-20.,-20.,4.5));
#152 = DIRECTION('',(-0.,-1.,-0.));
#153 = DIRECTION('',(0.,0.,-1.));
#154 = ADVANCED_FACE('',(#155,#205,#255,#305,#316),#366,.T.);
#155 = FACE_BOUND('',#156,.T.);
#156 = EDGE_LOOP('',(#157,#158,#166,#174,#182,#190,#198,#204));
#157 = ORIENTED_EDGE('',*,*,#100,.F.);
#158 = ORIENTED_EDGE('',*,*,#159,.F.);
#159 = EDGE_CURVE('',#160,#93,#162,.T.);
#160 = VERTEX_POINT('',#161);
#161 = CARTESIAN_POINT('',(-60.,7.,0.));
#162 = LINE('',#163,#164);
#163 = CARTESIAN_POINT('',(-60.,20.,0.));
#164 = VECTOR('',#165,1.);
#165 = DIRECTION('',(0.,-1.,0.));
#166 = ORIENTED_EDGE('',*,*,#167,.T.);
#167 = EDGE_CURVE('',#160,#168,#170,.T.);
#168 = VERTEX_POINT('',#169);
#169 = CARTESIAN_POINT('',(-73.,7.,0.));
#170 = LINE('',#171,#172);
#171 = CARTESIAN_POINT('',(-60.,7.,0.));
#172 = VECTOR('',#173,1.);
#173 = DIRECTION('',(-1.,0.,0.));
#174 = ORIENTED_EDGE('',*,*,#175,.F.);
#175 = EDGE_CURVE('',#176,#168,#178,.T.);
#176 = VERTEX_POINT('',#177);
#177 = CARTESIAN_POINT('',(-73.,17.,0.));
#178 = LINE('',#179,#180);
#179 = CARTESIAN_POINT('',(-73.,17.,0.));
#180 = VECTOR('',#181,1.);
#181 = DIRECTION('',(0.,-1.,0.));
#182 = ORIENTED_EDGE('',*,*,#183,.F.);
#183 = EDGE_CURVE('',#184,#176,#186,.T.);
#184 = VERTEX_POINT('',#185);
#185 = CARTESIAN_POINT('',(-60.,17.,0.));
#186 = LINE('',#187,#188);
#187 = CARTESIAN_POINT('',(-60.,17.,0.));
#188 = VECTOR('',#189,1.);
#189 = DIRECTION('',(-1.,0.,0.));
#190 = ORIENTED_EDGE('',*,*,#191,.F.);
#191 = EDGE_CURVE('',#192,#184,#194,.T.);
#192 = VERTEX_POINT('',#193);
#193 = CARTESIAN_POINT('',(-60.,20.,0.));
#194 = LINE('',#195,#196);
#195 = CARTESIAN_POINT('',(-60.,20.,0.));
#196 = VECTOR('',#197,1.);
#197 = DIRECTION('',(0.,-1.,0.));
#198 = ORIENTED_EDGE('',*,*,#199,.F.);
#199 = EDGE_CURVE('',#40,#192,#200,.T.);
#200 = LINE('',#201,#202);
#201 = CARTESIAN_POINT('',(-20.,20.,0.));
#202 = VECTOR('',#203,1.);
#203 = DIRECTION('',(-1.,0.,0.));
#204 = ORIENTED_EDGE('',*,*,#47,.F.);
#205 = FACE_BOUND('',#206,.T.);
#206 = EDGE_LOOP('',(#207,#217,#225,#233,#241,#249));
#207 = ORIENTED_EDGE('',*,*,#208,.F.);
#208 = EDGE_CURVE('',#209,#211,#213,.T.);
#209 = VERTEX_POINT('',#210);
#210 = CARTESIAN_POINT('',(-21.41228675972,-2.250000000002,0.));
#211 = VERTEX_POINT('',#212);
#212 = CARTESIAN_POINT('',(-19.82457351945,-5.000000000001,0.));
#213 = LINE('',#214,#215);
#214 = CARTESIAN_POINT('',(-21.41228675972,-2.250000000002,0.));
#215 = VECTOR('',#216,1.);
#216 = DIRECTION('',(0.5,-0.866025403785,0.));
#217 = ORIENTED_EDGE('',*,*,#218,.F.);
#218 = EDGE_CURVE('',#219,#209,#221,.T.);
#219 = VERTEX_POINT('',#220);
#220 = CARTESIAN_POINT('',(-24.58771324026,-2.250000000002,0.));
#221 = LINE('',#222,#223);
#222 = CARTESIAN_POINT('',(-24.58771324026,-2.250000000002,0.));
#223 = VECTOR('',#224,1.);
#224 = DIRECTION('',(1.,-2.0139E-13,0.));
#225 = ORIENTED_EDGE('',*,*,#226,.F.);
#226 = EDGE_CURVE('',#227,#219,#229,.T.);
#227 = VERTEX_POINT('',#228);
#228 = CARTESIAN_POINT('',(-26.17542648054,-4.999999999999,0.));
#229 = LINE('',#230,#231);
#230 = CARTESIAN_POINT('',(-26.17542648054,-4.999999999999,0.));
#231 = VECTOR('',#232,1.);
#232 = DIRECTION('',(0.5,0.866025403784,0.));
#233 = ORIENTED_EDGE('',*,*,#234,.F.);
#234 = EDGE_CURVE('',#235,#227,#237,.T.);
#235 = VERTEX_POINT('',#236);
#236 = CARTESIAN_POINT('',(-24.58771324027,-7.750000000002,0.));
#237 = LINE('',#238,#239);
#238 = CARTESIAN_POINT('',(-24.58771324027,-7.750000000002,0.));
#239 = VECTOR('',#240,1.);
#240 = DIRECTION('',(-0.499999999999,0.866025403785,-0.));
#241 = ORIENTED_EDGE('',*,*,#242,.F.);
#242 = EDGE_CURVE('',#243,#235,#245,.T.);
#243 = VERTEX_POINT('',#244);
#244 = CARTESIAN_POINT('',(-21.41228675973,-7.750000000002,0.));
#245 = LINE('',#246,#247);
#246 = CARTESIAN_POINT('',(-21.41228675973,-7.750000000002,0.));
#247 = VECTOR('',#248,1.);
#248 = DIRECTION('',(-1.,0.,0.));
#249 = ORIENTED_EDGE('',*,*,#250,.F.);
#250 = EDGE_CURVE('',#211,#243,#251,.T.);
#251 = LINE('',#252,#253);
#252 = CARTESIAN_POINT('',(-19.82457351945,-5.000000000001,0.));
#253 = VECTOR('',#254,1.);
#254 = DIRECTION('',(-0.5,-0.866025403785,0.));
#255 = FACE_BOUND('',#256,.T.);
#256 = EDGE_LOOP('',(#257,#267,#275,#283,#291,#299));
#257 = ORIENTED_EDGE('',*,*,#258,.F.);
#258 = EDGE_CURVE('',#259,#261,#263,.T.);
#259 = VERTEX_POINT('',#260);
#260 = CARTESIAN_POINT('',(-29.41228675972,-2.250000000002,0.));
#261 = VERTEX_POINT('',#262);
#262 = CARTESIAN_POINT('',(-27.82457351945,-5.000000000001,0.));
#263 = LINE('',#264,#265);
#264 = CARTESIAN_POINT('',(-29.41228675972,-2.250000000002,0.));
#265 = VECTOR('',#266,1.);
#266 = DIRECTION('',(0.5,-0.866025403785,0.));
#267 = ORIENTED_EDGE('',*,*,#268,.F.);
#268 = EDGE_CURVE('',#269,#259,#271,.T.);
#269 = VERTEX_POINT('',#270);
#270 = CARTESIAN_POINT('',(-32.58771324026,-2.250000000002,0.));
#271 = LINE('',#272,#273);
#272 = CARTESIAN_POINT('',(-32.58771324026,-2.250000000002,0.));
#273 = VECTOR('',#274,1.);
#274 = DIRECTION('',(1.,-2.2432E-13,0.));
#275 = ORIENTED_EDGE('',*,*,#276,.F.);
#276 = EDGE_CURVE('',#277,#269,#279,.T.);
#277 = VERTEX_POINT('',#278);
#278 = CARTESIAN_POINT('',(-34.17542648054,-4.999999999999,0.));
#279 = LINE('',#280,#281);
#280 = CARTESIAN_POINT('',(-34.17542648054,-4.999999999999,0.));
#281 = VECTOR('',#282,1.);
#282 = DIRECTION('',(0.5,0.866025403784,0.));
#283 = ORIENTED_EDGE('',*,*,#284,.F.);
#284 = EDGE_CURVE('',#285,#277,#287,.T.);
#285 = VERTEX_POINT('',#286);
#286 = CARTESIAN_POINT('',(-32.58771324027,-7.750000000003,0.));
#287 = LINE('',#288,#289);
#288 = CARTESIAN_POINT('',(-32.58771324027,-7.750000000003,0.));
#289 = VECTOR('',#290,1.);
#290 = DIRECTION('',(-0.499999999999,0.866025403785,-0.));
#291 = ORIENTED_EDGE('',*,*,#292,.F.);
#292 = EDGE_CURVE('',#293,#285,#295,.T.);
#293 = VERTEX_POINT('',#294);
#294 = CARTESIAN_POINT('',(-29.41228675973,-7.750000000003,0.));
#295 = LINE('',#296,#297);
#296 = CARTESIAN_POINT('',(-29.41228675973,-7.750000000003,0.));
#297 = VECTOR('',#298,1.);
#298 = DIRECTION('',(-1.,0.,0.));
#299 = ORIENTED_EDGE('',*,*,#300,.F.);
#300 = EDGE_CURVE('',#261,#293,#301,.T.);
#301 = LINE('',#302,#303);
#302 = CARTESIAN_POINT('',(-27.82457351945,-5.000000000001,0.));
#303 = VECTOR('',#304,1.);
#304 = DIRECTION('',(-0.5,-0.866025403785,0.));
#305 = FACE_BOUND('',#306,.T.);
#306 = EDGE_LOOP('',(#307));
#307 = ORIENTED_EDGE('',*,*,#308,.F.);
#308 = EDGE_CURVE('',#309,#309,#311,.T.);
#309 = VERTEX_POINT('',#310);
#310 = CARTESIAN_POINT('',(7.,5.,0.));
#311 = CIRCLE('',#312,7.);
#312 = AXIS2_PLACEMENT_3D('',#313,#314,#315);
#313 = CARTESIAN_POINT('',(0.,5.,0.));
#314 = DIRECTION('',(0.,0.,-1.));
#315 = DIRECTION('',(1.,0.,0.));
#316 = FACE_BOUND('',#317,.T.);
#317 = EDGE_LOOP('',(#318,#328,#336,#344,#352,#360));
#318 = ORIENTED_EDGE('',*,*,#319,.F.);
#319 = EDGE_CURVE('',#320,#322,#324,.T.);
#320 = VERTEX_POINT('',#321);
#321 = CARTESIAN_POINT('',(-29.41228675972,17.750000000001,0.));
#322 = VERTEX_POINT('',#323);
#323 = CARTESIAN_POINT('',(-27.82457351945,14.999999999999,0.));
#324 = LINE('',#325,#326);
#325 = CARTESIAN_POINT('',(-29.41228675972,17.750000000001,0.));
#326 = VECTOR('',#327,1.);
#327 = DIRECTION('',(0.499999999999,-0.866025403785,0.));
#328 = ORIENTED_EDGE('',*,*,#329,.F.);
#329 = EDGE_CURVE('',#330,#320,#332,.T.);
#330 = VERTEX_POINT('',#331);
#331 = CARTESIAN_POINT('',(-32.58771324026,17.750000000001,0.));
#332 = LINE('',#333,#334);
#333 = CARTESIAN_POINT('',(-32.58771324026,17.750000000001,0.));
#334 = VECTOR('',#335,1.);
#335 = DIRECTION('',(1.,-5.147E-14,0.));
#336 = ORIENTED_EDGE('',*,*,#337,.F.);
#337 = EDGE_CURVE('',#338,#330,#340,.T.);
#338 = VERTEX_POINT('',#339);
#339 = CARTESIAN_POINT('',(-34.17542648054,14.999999999999,0.));
#340 = LINE('',#341,#342);
#341 = CARTESIAN_POINT('',(-34.17542648054,14.999999999999,0.));
#342 = VECTOR('',#343,1.);
#343 = DIRECTION('',(0.5,0.866025403784,0.));
#344 = ORIENTED_EDGE('',*,*,#345,.F.);
#345 = EDGE_CURVE('',#346,#338,#348,.T.);
#346 = VERTEX_POINT('',#347);
#347 = CARTESIAN_POINT('',(-32.58771324027,12.250000000001,0.));
#348 = LINE('',#349,#350);
#349 = CARTESIAN_POINT('',(-32.58771324027,12.250000000001,0.));
#350 = VECTOR('',#351,1.);
#351 = DIRECTION('',(-0.5,0.866025403784,-0.));
#352 = ORIENTED_EDGE('',*,*,#353,.F.);
#353 = EDGE_CURVE('',#354,#346,#356,.T.);
#354 = VERTEX_POINT('',#355);
#355 = CARTESIAN_POINT('',(-29.41228675973,12.250000000001,0.));
#356 = LINE('',#357,#358);
#357 = CARTESIAN_POINT('',(-29.41228675973,12.250000000001,0.));
#358 = VECTOR('',#359,1.);
#359 = DIRECTION('',(-1.,0.,0.));
#360 = ORIENTED_EDGE('',*,*,#361,.F.);
#361 = EDGE_CURVE('',#322,#354,#362,.T.);
#362 = LINE('',#363,#364);
#363 = CARTESIAN_POINT('',(-27.82457351945,14.999999999999,0.));
#364 = VECTOR('',#365,1.);
#365 = DIRECTION('',(-0.5,-0.866025403784,0.));
#366 = PLANE('',#367);
#367 = AXIS2_PLACEMENT_3D('',#368,#369,#370);
#368 = CARTESIAN_POINT('',(-25.03383458646,1.172932330827,0.));
#369 = DIRECTION('',(-0.,-0.,-1.));
#370 = DIRECTION('',(-1.,0.,0.));
#371 = ADVANCED_FACE('',(#372,#422,#433,#444,#455),#466,.T.);
#372 = FACE_BOUND('',#373,.T.);
#373 = EDGE_LOOP('',(#374,#375,#383,#391,#399,#407,#415,#421));
#374 = ORIENTED_EDGE('',*,*,#31,.T.);
#375 = ORIENTED_EDGE('',*,*,#376,.T.);
#376 = EDGE_CURVE('',#32,#377,#379,.T.);
#377 = VERTEX_POINT('',#378);
#378 = CARTESIAN_POINT('',(-60.,20.,9.));
#379 = LINE('',#380,#381);
#380 = CARTESIAN_POINT('',(20.,20.,9.));
#381 = VECTOR('',#382,1.);
#382 = DIRECTION('',(-1.,0.,0.));
#383 = ORIENTED_EDGE('',*,*,#384,.T.);
#384 = EDGE_CURVE('',#377,#385,#387,.T.);
#385 = VERTEX_POINT('',#386);
#386 = CARTESIAN_POINT('',(-60.,17.,9.));
#387 = LINE('',#388,#389);
#388 = CARTESIAN_POINT('',(-60.,20.,9.));
#389 = VECTOR('',#390,1.);
#390 = DIRECTION('',(0.,-1.,0.));
#391 = ORIENTED_EDGE('',*,*,#392,.T.);
#392 = EDGE_CURVE('',#385,#393,#395,.T.);
#393 = VERTEX_POINT('',#394);
#394 = CARTESIAN_POINT('',(-73.,17.,9.));
#395 = LINE('',#396,#397);
#396 = CARTESIAN_POINT('',(-60.,17.,9.));
#397 = VECTOR('',#398,1.);
#398 = DIRECTION('',(-1.,0.,0.));
#399 = ORIENTED_EDGE('',*,*,#400,.F.);
#400 = EDGE_CURVE('',#401,#393,#403,.T.);
#401 = VERTEX_POINT('',#402);
#402 = CARTESIAN_POINT('',(-73.,7.,9.));
#403 = LINE('',#404,#405);
#404 = CARTESIAN_POINT('',(-73.,7.,9.));
#405 = VECTOR('',#406,1.);
#406 = DIRECTION('',(0.,1.,0.));
#407 = ORIENTED_EDGE('',*,*,#408,.F.);
#408 = EDGE_CURVE('',#409,#401,#411,.T.);
#409 = VERTEX_POINT('',#410);
#410 = CARTESIAN_POINT('',(-60.,7.,9.));
#411 = LINE('',#412,#413);
#412 = CARTESIAN_POINT('',(-60.,7.,9.));
#413 = VECTOR('',#414,1.);
#414 = DIRECTION('',(-1.,0.,0.));
#415 = ORIENTED_EDGE('',*,*,#416,.T.);
#416 = EDGE_CURVE('',#409,#85,#417,.T.);
#417 = LINE('',#418,#419);
#418 = CARTESIAN_POINT('',(-60.,20.,9.));
#419 = VECTOR('',#420,1.);
#420 = DIRECTION('',(0.,-1.,0.));
#421 = ORIENTED_EDGE('',*,*,#84,.F.);
#422 = FACE_BOUND('',#423,.T.);
#423 = EDGE_LOOP('',(#424));
#424 = ORIENTED_EDGE('',*,*,#425,.F.);
#425 = EDGE_CURVE('',#426,#426,#428,.T.);
#426 = VERTEX_POINT('',#427);
#427 = CARTESIAN_POINT('',(-29.4,-5.,9.));
#428 = CIRCLE('',#429,1.6);
#429 = AXIS2_PLACEMENT_3D('',#430,#431,#432);
#430 = CARTESIAN_POINT('',(-31.,-5.,9.));
#431 = DIRECTION('',(0.,0.,1.));
#432 = DIRECTION('',(1.,0.,0.));
#433 = FACE_BOUND('',#434,.T.);
#434 = EDGE_LOOP('',(#435));
#435 = ORIENTED_EDGE('',*,*,#436,.F.);
#436 = EDGE_CURVE('',#437,#437,#439,.T.);
#437 = VERTEX_POINT('',#438);
#438 = CARTESIAN_POINT('',(-21.4,-5.,9.));
#439 = CIRCLE('',#440,1.6);
#440 = AXIS2_PLACEMENT_3D('',#441,#442,#443);
#441 = CARTESIAN_POINT('',(-23.,-5.,9.));
#442 = DIRECTION('',(0.,0.,1.));
#443 = DIRECTION('',(1.,0.,0.));
#444 = FACE_BOUND('',#445,.T.);
#445 = EDGE_LOOP('',(#446));
#446 = ORIENTED_EDGE('',*,*,#447,.F.);
#447 = EDGE_CURVE('',#448,#448,#450,.T.);
#448 = VERTEX_POINT('',#449);
#449 = CARTESIAN_POINT('',(-29.4,15.,9.));
#450 = CIRCLE('',#451,1.6);
#451 = AXIS2_PLACEMENT_3D('',#452,#453,#454);
#452 = CARTESIAN_POINT('',(-31.,15.,9.));
#453 = DIRECTION('',(0.,0.,1.));
#454 = DIRECTION('',(1.,0.,0.));
#455 = FACE_BOUND('',#456,.T.);
#456 = EDGE_LOOP('',(#457));
#457 = ORIENTED_EDGE('',*,*,#458,.F.);
#458 = EDGE_CURVE('',#459,#459,#461,.T.);
#459 = VERTEX_POINT('',#460);
#460 = CARTESIAN_POINT('',(9.,5.,9.));
#461 = CIRCLE('',#462,9.);
#462 = AXIS2_PLACEMENT_3D('',#463,#464,#465);
#463 = CARTESIAN_POINT('',(0.,5.,9.));
#464 = DIRECTION('',(0.,0.,1.));
#465 = DIRECTION('',(1.,0.,0.));
#466 = PLANE('',#467);
#467 = AXIS2_PLACEMENT_3D('',#468,#469,#470);
#468 = CARTESIAN_POINT('',(-25.03383458646,1.172932330827,9.));
#469 = DIRECTION('',(0.,0.,1.));
#470 = DIRECTION('',(1.,0.,0.));
#471 = ADVANCED_FACE('',(#472,#483,#494),#505,.T.);
#472 = FACE_BOUND('',#473,.T.);
#473 = EDGE_LOOP('',(#474,#475,#476,#482));
#474 = ORIENTED_EDGE('',*,*,#39,.F.);
#475 = ORIENTED_EDGE('',*,*,#199,.T.);
#476 = ORIENTED_EDGE('',*,*,#477,.T.);
#477 = EDGE_CURVE('',#192,#377,#478,.T.);
#478 = LINE('',#479,#480);
#479 = CARTESIAN_POINT('',(-60.,20.,0.));
#480 = VECTOR('',#481,1.);
#481 = DIRECTION('',(0.,0.,1.));
#482 = ORIENTED_EDGE('',*,*,#376,.F.);
#483 = FACE_BOUND('',#484,.T.);
#484 = EDGE_LOOP('',(#485));
#485 = ORIENTED_EDGE('',*,*,#486,.F.);
#486 = EDGE_CURVE('',#487,#487,#489,.T.);
#487 = VERTEX_POINT('',#488);
#488 = CARTESIAN_POINT('',(-9.2,20.,4.5));
#489 = CIRCLE('',#490,1.2);
#490 = AXIS2_PLACEMENT_3D('',#491,#492,#493);
#491 = CARTESIAN_POINT('',(-8.,20.,4.5));
#492 = DIRECTION('',(0.,1.,-0.));
#493 = DIRECTION('',(-1.,0.,0.));
#494 = FACE_BOUND('',#495,.T.);
#495 = EDGE_LOOP('',(#496));
#496 = ORIENTED_EDGE('',*,*,#497,.F.);
#497 = EDGE_CURVE('',#498,#498,#500,.T.);
#498 = VERTEX_POINT('',#499);
#499 = CARTESIAN_POINT('',(6.8,20.,4.5));
#500 = CIRCLE('',#501,1.2);
#501 = AXIS2_PLACEMENT_3D('',#502,#503,#504);
#502 = CARTESIAN_POINT('',(8.,20.,4.5));
#503 = DIRECTION('',(0.,1.,-0.));
#504 = DIRECTION('',(-1.,0.,0.));
#505 = PLANE('',#506);
#506 = AXIS2_PLACEMENT_3D('',#507,#508,#509);
#507 = CARTESIAN_POINT('',(-20.,20.,4.5));
#508 = DIRECTION('',(0.,1.,0.));
#509 = DIRECTION('',(0.,0.,1.));
#510 = ADVANCED_FACE('',(#511),#530,.F.);
#511 = FACE_BOUND('',#512,.F.);
#512 = EDGE_LOOP('',(#513,#521,#528,#529));
#513 = ORIENTED_EDGE('',*,*,#514,.T.);
#514 = EDGE_CURVE('',#56,#515,#517,.T.);
#515 = VERTEX_POINT('',#516);
#516 = CARTESIAN_POINT('',(10.,13.2,4.5));
#517 = LINE('',#518,#519);
#518 = CARTESIAN_POINT('',(20.,13.2,4.5));
#519 = VECTOR('',#520,1.);
#520 = DIRECTION('',(-1.,-1.1E-16,1.1E-16));
#521 = ORIENTED_EDGE('',*,*,#522,.T.);
#522 = EDGE_CURVE('',#515,#515,#523,.T.);
#523 = CIRCLE('',#524,1.2);
#524 = AXIS2_PLACEMENT_3D('',#525,#526,#527);
#525 = CARTESIAN_POINT('',(10.,12.,4.5));
#526 = DIRECTION('',(1.,0.,0.));
#527 = DIRECTION('',(0.,1.,0.));
#528 = ORIENTED_EDGE('',*,*,#514,.F.);
#529 = ORIENTED_EDGE('',*,*,#55,.F.);
#530 = CYLINDRICAL_SURFACE('',#531,1.2);
#531 = AXIS2_PLACEMENT_3D('',#532,#533,#534);
#532 = CARTESIAN_POINT('',(20.,12.,4.5));
#533 = DIRECTION('',(1.,4.4E-16,-2.2E-16));
#534 = DIRECTION('',(-4.4E-16,1.,2.2E-16));
#535 = ADVANCED_FACE('',(#536),#555,.F.);
#536 = FACE_BOUND('',#537,.F.);
#537 = EDGE_LOOP('',(#538,#546,#553,#554));
#538 = ORIENTED_EDGE('',*,*,#539,.T.);
#539 = EDGE_CURVE('',#67,#540,#542,.T.);
#540 = VERTEX_POINT('',#541);
#541 = CARTESIAN_POINT('',(10.,5.2,4.5));
#542 = LINE('',#543,#544);
#543 = CARTESIAN_POINT('',(20.,5.2,4.5));
#544 = VECTOR('',#545,1.);
#545 = DIRECTION('',(-1.,-1.1E-16,1.1E-16));
#546 = ORIENTED_EDGE('',*,*,#547,.T.);
#547 = EDGE_CURVE('',#540,#540,#548,.T.);
#548 = CIRCLE('',#549,1.2);
#549 = AXIS2_PLACEMENT_3D('',#550,#551,#552);
#550 = CARTESIAN_POINT('',(10.,4.,4.5));
#551 = DIRECTION('',(1.,0.,0.));
#552 = DIRECTION('',(0.,1.,0.));
#553 = ORIENTED_EDGE('',*,*,#539,.F.);
#554 = ORIENTED_EDGE('',*,*,#66,.F.);
#555 = CYLINDRICAL_SURFACE('',#556,1.2);
#556 = AXIS2_PLACEMENT_3D('',#557,#558,#559);
#557 = CARTESIAN_POINT('',(20.,4.,4.5));
#558 = DIRECTION('',(1.,4.4E-16,-2.2E-16));
#559 = DIRECTION('',(-4.4E-16,1.,2.2E-16));
#560 = ADVANCED_FACE('',(#561),#572,.F.);
#561 = FACE_BOUND('',#562,.F.);
#562 = EDGE_LOOP('',(#563,#564,#570,#571));
#563 = ORIENTED_EDGE('',*,*,#159,.F.);
#564 = ORIENTED_EDGE('',*,*,#565,.T.);
#565 = EDGE_CURVE('',#160,#409,#566,.T.);
#566 = LINE('',#567,#568);
#567 = CARTESIAN_POINT('',(-60.,7.,0.));
#568 = VECTOR('',#569,1.);
#569 = DIRECTION('',(0.,0.,1.));
#570 = ORIENTED_EDGE('',*,*,#416,.T.);
#571 = ORIENTED_EDGE('',*,*,#92,.F.);
#572 = PLANE('',#573);
#573 = AXIS2_PLACEMENT_3D('',#574,#575,#576);
#574 = CARTESIAN_POINT('',(-60.,20.,0.));
#575 = DIRECTION('',(1.,0.,0.));
#576 = DIRECTION('',(0.,-1.,0.));
#577 = ADVANCED_FACE('',(#578),#597,.F.);
#578 = FACE_BOUND('',#579,.F.);
#579 = EDGE_LOOP('',(#580,#588,#595,#596));
#580 = ORIENTED_EDGE('',*,*,#581,.T.);
#581 = EDGE_CURVE('',#109,#582,#584,.T.);
#582 = VERTEX_POINT('',#583);
#583 = CARTESIAN_POINT('',(-55.8,-10.,4.5));
#584 = LINE('',#585,#586);
#585 = CARTESIAN_POINT('',(-55.8,-20.,4.5));
#586 = VECTOR('',#587,1.);
#587 = DIRECTION('',(0.,1.,-2.2E-16));
#588 = ORIENTED_EDGE('',*,*,#589,.T.);
#589 = EDGE_CURVE('',#582,#582,#590,.T.);
#590 = CIRCLE('',#591,1.2);
#591 = AXIS2_PLACEMENT_3D('',#592,#593,#594);
#592 = CARTESIAN_POINT('',(-57.,-10.,4.5));
#593 = DIRECTION('',(0.,-1.,0.));
#594 = DIRECTION('',(1.,0.,0.));
#595 = ORIENTED_EDGE('',*,*,#581,.F.);
#596 = ORIENTED_EDGE('',*,*,#108,.F.);
#597 = CYLINDRICAL_SURFACE('',#598,1.2);
#598 = AXIS2_PLACEMENT_3D('',#599,#600,#601);
#599 = CARTESIAN_POINT('',(-57.,-20.,4.5));
#600 = DIRECTION('',(0.,-1.,2.2E-16));
#601 = DIRECTION('',(1.,0.,0.));
#602 = ADVANCED_FACE('',(#603),#622,.F.);
#603 = FACE_BOUND('',#604,.F.);
#604 = EDGE_LOOP('',(#605,#613,#620,#621));
#605 = ORIENTED_EDGE('',*,*,#606,.T.);
#606 = EDGE_CURVE('',#120,#607,#609,.T.);
#607 = VERTEX_POINT('',#608);
#608 = CARTESIAN_POINT('',(-45.8,-10.,4.5));
#609 = LINE('',#610,#611);
#610 = CARTESIAN_POINT('',(-45.8,-20.,4.5));
#611 = VECTOR('',#612,1.);
#612 = DIRECTION('',(0.,1.,-2.2E-16));
#613 = ORIENTED_EDGE('',*,*,#614,.T.);
#614 = EDGE_CURVE('',#607,#607,#615,.T.);
#615 = CIRCLE('',#616,1.2);
#616 = AXIS2_PLACEMENT_3D('',#617,#618,#619);
#617 = CARTESIAN_POINT('',(-47.,-10.,4.5));
#618 = DIRECTION('',(0.,-1.,0.));
#619 = DIRECTION('',(1.,0.,0.));
#620 = ORIENTED_EDGE('',*,*,#606,.F.);
#621 = ORIENTED_EDGE('',*,*,#119,.F.);
#622 = CYLINDRICAL_SURFACE('',#623,1.2);
#623 = AXIS2_PLACEMENT_3D('',#624,#625,#626);
#624 = CARTESIAN_POINT('',(-47.,-20.,4.5));
#625 = DIRECTION('',(0.,-1.,2.2E-16));
#626 = DIRECTION('',(1.,0.,0.));
#627 = ADVANCED_FACE('',(#628),#647,.F.);
#628 = FACE_BOUND('',#629,.F.);
#629 = EDGE_LOOP('',(#630,#638,#645,#646));
#630 = ORIENTED_EDGE('',*,*,#631,.T.);
#631 = EDGE_CURVE('',#131,#632,#634,.T.);
#632 = VERTEX_POINT('',#633);
#633 = CARTESIAN_POINT('',(-13.80000000003,-10.,4.499999999962));
#634 = LINE('',#635,#636);
#635 = CARTESIAN_POINT('',(-13.80000000003,-20.,4.499999999962));
#636 = VECTOR('',#637,1.);
#637 = DIRECTION('',(0.,1.,-2.2E-16));
#638 = ORIENTED_EDGE('',*,*,#639,.T.);
#639 = EDGE_CURVE('',#632,#632,#640,.T.);
#640 = CIRCLE('',#641,1.2);
#641 = AXIS2_PLACEMENT_3D('',#642,#643,#644);
#642 = CARTESIAN_POINT('',(-15.00000000003,-10.,4.499999999962));
#643 = DIRECTION('',(0.,-1.,0.));
#644 = DIRECTION('',(1.,0.,0.));
#645 = ORIENTED_EDGE('',*,*,#631,.F.);
#646 = ORIENTED_EDGE('',*,*,#130,.F.);
#647 = CYLINDRICAL_SURFACE('',#648,1.2);
#648 = AXIS2_PLACEMENT_3D('',#649,#650,#651);
#649 = CARTESIAN_POINT('',(-15.00000000003,-20.,4.499999999962));
#650 = DIRECTION('',(0.,-1.,2.2E-16));
#651 = DIRECTION('',(1.,0.,0.));
#652 = ADVANCED_FACE('',(#653),#672,.F.);
#653 = FACE_BOUND('',#654,.F.);
#654 = EDGE_LOOP('',(#655,#663,#670,#671));
#655 = ORIENTED_EDGE('',*,*,#656,.T.);
#656 = EDGE_CURVE('',#142,#657,#659,.T.);
#657 = VERTEX_POINT('',#658);
#658 = CARTESIAN_POINT('',(16.199999999963,-10.,4.499999999962));
#659 = LINE('',#660,#661);
#660 = CARTESIAN_POINT('',(16.199999999963,-20.,4.499999999962));
#661 = VECTOR('',#662,1.);
#662 = DIRECTION('',(0.,1.,-2.2E-16));
#663 = ORIENTED_EDGE('',*,*,#664,.T.);
#664 = EDGE_CURVE('',#657,#657,#665,.T.);
#665 = CIRCLE('',#666,1.2);
#666 = AXIS2_PLACEMENT_3D('',#667,#668,#669);
#667 = CARTESIAN_POINT('',(14.999999999963,-10.,4.499999999962));
#668 = DIRECTION('',(0.,-1.,0.));
#669 = DIRECTION('',(1.,0.,0.));
#670 = ORIENTED_EDGE('',*,*,#656,.F.);
#671 = ORIENTED_EDGE('',*,*,#141,.F.);
#672 = CYLINDRICAL_SURFACE('',#673,1.2);
#673 = AXIS2_PLACEMENT_3D('',#674,#675,#676);
#674 = CARTESIAN_POINT('',(14.999999999963,-20.,4.499999999962));
#675 = DIRECTION('',(0.,-1.,2.2E-16));
#676 = DIRECTION('',(1.,0.,0.));
#677 = ADVANCED_FACE('',(#678,#689),#700,.F.);
#678 = FACE_BOUND('',#679,.F.);
#679 = EDGE_LOOP('',(#680,#681,#687,#688));
#680 = ORIENTED_EDGE('',*,*,#167,.T.);
#681 = ORIENTED_EDGE('',*,*,#682,.T.);
#682 = EDGE_CURVE('',#168,#401,#683,.T.);
#683 = LINE('',#684,#685);
#684 = CARTESIAN_POINT('',(-73.,7.,0.));
#685 = VECTOR('',#686,1.);
#686 = DIRECTION('',(0.,0.,1.));
#687 = ORIENTED_EDGE('',*,*,#408,.F.);
#688 = ORIENTED_EDGE('',*,*,#565,.F.);
#689 = FACE_BOUND('',#690,.F.);
#690 = EDGE_LOOP('',(#691));
#691 = ORIENTED_EDGE('',*,*,#692,.F.);
#692 = EDGE_CURVE('',#693,#693,#695,.T.);
#693 = VERTEX_POINT('',#694);
#694 = CARTESIAN_POINT('',(-68.8,7.,4.5));
#695 = CIRCLE('',#696,1.7);
#696 = AXIS2_PLACEMENT_3D('',#697,#698,#699);
#697 = CARTESIAN_POINT('',(-67.1,7.,4.5));
#698 = DIRECTION('',(0.,1.,-0.));
#699 = DIRECTION('',(-1.,0.,0.));
#700 = PLANE('',#701);
#701 = AXIS2_PLACEMENT_3D('',#702,#703,#704);
#702 = CARTESIAN_POINT('',(-60.,7.,0.));
#703 = DIRECTION('',(0.,1.,0.));
#704 = DIRECTION('',(0.,0.,1.));
#705 = ADVANCED_FACE('',(#706),#717,.F.);
#706 = FACE_BOUND('',#707,.T.);
#707 = EDGE_LOOP('',(#708,#714,#715,#716));
#708 = ORIENTED_EDGE('',*,*,#709,.T.);
#709 = EDGE_CURVE('',#393,#176,#710,.T.);
#710 = LINE('',#711,#712);
#711 = CARTESIAN_POINT('',(-73.,17.,9.));
#712 = VECTOR('',#713,1.);
#713 = DIRECTION('',(0.,0.,-1.));
#714 = ORIENTED_EDGE('',*,*,#175,.T.);
#715 = ORIENTED_EDGE('',*,*,#682,.T.);
#716 = ORIENTED_EDGE('',*,*,#400,.T.);
#717 = PLANE('',#718);
#718 = AXIS2_PLACEMENT_3D('',#719,#720,#721);
#719 = CARTESIAN_POINT('',(-73.,12.,4.5));
#720 = DIRECTION('',(1.,0.,0.));
#721 = DIRECTION('',(0.,0.,1.));
#722 = ADVANCED_FACE('',(#723),#734,.F.);
#723 = FACE_BOUND('',#724,.F.);
#724 = EDGE_LOOP('',(#725,#726,#727,#728));
#725 = ORIENTED_EDGE('',*,*,#191,.F.);
#726 = ORIENTED_EDGE('',*,*,#477,.T.);
#727 = ORIENTED_EDGE('',*,*,#384,.T.);
#728 = ORIENTED_EDGE('',*,*,#729,.T.);
#729 = EDGE_CURVE('',#385,#184,#730,.T.);
#730 = LINE('',#731,#732);
#731 = CARTESIAN_POINT('',(-60.,17.,9.));
#732 = VECTOR('',#733,1.);
#733 = DIRECTION('',(0.,0.,-1.));
#734 = PLANE('',#735);
#735 = AXIS2_PLACEMENT_3D('',#736,#737,#738);
#736 = CARTESIAN_POINT('',(-60.,20.,0.));
#737 = DIRECTION('',(1.,0.,0.));
#738 = DIRECTION('',(0.,-1.,0.));
#739 = ADVANCED_FACE('',(#740,#746),#757,.F.);
#740 = FACE_BOUND('',#741,.F.);
#741 = EDGE_LOOP('',(#742,#743,#744,#745));
#742 = ORIENTED_EDGE('',*,*,#392,.T.);
#743 = ORIENTED_EDGE('',*,*,#709,.T.);
#744 = ORIENTED_EDGE('',*,*,#183,.F.);
#745 = ORIENTED_EDGE('',*,*,#729,.F.);
#746 = FACE_BOUND('',#747,.F.);
#747 = EDGE_LOOP('',(#748));
#748 = ORIENTED_EDGE('',*,*,#749,.T.);
#749 = EDGE_CURVE('',#750,#750,#752,.T.);
#750 = VERTEX_POINT('',#751);
#751 = CARTESIAN_POINT('',(-68.8,17.,4.5));
#752 = CIRCLE('',#753,1.7);
#753 = AXIS2_PLACEMENT_3D('',#754,#755,#756);
#754 = CARTESIAN_POINT('',(-67.1,17.,4.5));
#755 = DIRECTION('',(0.,1.,-0.));
#756 = DIRECTION('',(-1.,0.,0.));
#757 = PLANE('',#758);
#758 = AXIS2_PLACEMENT_3D('',#759,#760,#761);
#759 = CARTESIAN_POINT('',(-60.,17.,9.));
#760 = DIRECTION('',(-0.,-1.,-0.));
#761 = DIRECTION('',(0.,0.,-1.));
#762 = ADVANCED_FACE('',(#763),#788,.F.);
#763 = FACE_BOUND('',#764,.F.);
#764 = EDGE_LOOP('',(#765,#773,#781,#787));
#765 = ORIENTED_EDGE('',*,*,#766,.T.);
#766 = EDGE_CURVE('',#209,#767,#769,.T.);
#767 = VERTEX_POINT('',#768);
#768 = CARTESIAN_POINT('',(-21.41228675972,-2.250000000002,3.));
#769 = LINE('',#770,#771);
#770 = CARTESIAN_POINT('',(-21.41228675972,-2.250000000002,0.));
#771 = VECTOR('',#772,1.);
#772 = DIRECTION('',(0.,0.,1.));
#773 = ORIENTED_EDGE('',*,*,#774,.T.);
#774 = EDGE_CURVE('',#767,#775,#777,.T.);
#775 = VERTEX_POINT('',#776);
#776 = CARTESIAN_POINT('',(-19.82457351945,-5.000000000001,3.));
#777 = LINE('',#778,#779);
#778 = CARTESIAN_POINT('',(-21.41228675972,-2.250000000002,3.));
#779 = VECTOR('',#780,1.);
#780 = DIRECTION('',(0.5,-0.866025403785,0.));
#781 = ORIENTED_EDGE('',*,*,#782,.F.);
#782 = EDGE_CURVE('',#211,#775,#783,.T.);
#783 = LINE('',#784,#785);
#784 = CARTESIAN_POINT('',(-19.82457351945,-5.000000000001,0.));
#785 = VECTOR('',#786,1.);
#786 = DIRECTION('',(0.,0.,1.));
#787 = ORIENTED_EDGE('',*,*,#208,.F.);
#788 = PLANE('',#789);
#789 = AXIS2_PLACEMENT_3D('',#790,#791,#792);
#790 = CARTESIAN_POINT('',(-21.41228675972,-2.250000000002,0.));
#791 = DIRECTION('',(0.866025403785,0.5,0.));
#792 = DIRECTION('',(0.5,-0.866025403785,0.));
#793 = ADVANCED_FACE('',(#794),#812,.F.);
#794 = FACE_BOUND('',#795,.F.);
#795 = EDGE_LOOP('',(#796,#797,#805,#811));
#796 = ORIENTED_EDGE('',*,*,#782,.T.);
#797 = ORIENTED_EDGE('',*,*,#798,.T.);
#798 = EDGE_CURVE('',#775,#799,#801,.T.);
#799 = VERTEX_POINT('',#800);
#800 = CARTESIAN_POINT('',(-21.41228675973,-7.750000000002,3.));
#801 = LINE('',#802,#803);
#802 = CARTESIAN_POINT('',(-19.82457351945,-5.000000000001,3.));
#803 = VECTOR('',#804,1.);
#804 = DIRECTION('',(-0.5,-0.866025403785,0.));
#805 = ORIENTED_EDGE('',*,*,#806,.F.);
#806 = EDGE_CURVE('',#243,#799,#807,.T.);
#807 = LINE('',#808,#809);
#808 = CARTESIAN_POINT('',(-21.41228675973,-7.750000000002,0.));
#809 = VECTOR('',#810,1.);
#810 = DIRECTION('',(0.,0.,1.));
#811 = ORIENTED_EDGE('',*,*,#250,.F.);
#812 = PLANE('',#813);
#813 = AXIS2_PLACEMENT_3D('',#814,#815,#816);
#814 = CARTESIAN_POINT('',(-19.82457351945,-5.000000000001,0.));
#815 = DIRECTION('',(0.866025403785,-0.5,0.));
#816 = DIRECTION('',(-0.5,-0.866025403785,0.));
#817 = ADVANCED_FACE('',(#818),#836,.F.);
#818 = FACE_BOUND('',#819,.F.);
#819 = EDGE_LOOP('',(#820,#821,#829,#835));
#820 = ORIENTED_EDGE('',*,*,#806,.T.);
#821 = ORIENTED_EDGE('',*,*,#822,.T.);
#822 = EDGE_CURVE('',#799,#823,#825,.T.);
#823 = VERTEX_POINT('',#824);
#824 = CARTESIAN_POINT('',(-24.58771324027,-7.750000000002,3.));
#825 = LINE('',#826,#827);
#826 = CARTESIAN_POINT('',(-21.41228675973,-7.750000000002,3.));
#827 = VECTOR('',#828,1.);
#828 = DIRECTION('',(-1.,0.,0.));
#829 = ORIENTED_EDGE('',*,*,#830,.F.);
#830 = EDGE_CURVE('',#235,#823,#831,.T.);
#831 = LINE('',#832,#833);
#832 = CARTESIAN_POINT('',(-24.58771324027,-7.750000000002,0.));
#833 = VECTOR('',#834,1.);
#834 = DIRECTION('',(0.,0.,1.));
#835 = ORIENTED_EDGE('',*,*,#242,.F.);
#836 = PLANE('',#837);
#837 = AXIS2_PLACEMENT_3D('',#838,#839,#840);
#838 = CARTESIAN_POINT('',(-21.41228675973,-7.750000000002,0.));
#839 = DIRECTION('',(0.,-1.,0.));
#840 = DIRECTION('',(-1.,0.,0.));
#841 = ADVANCED_FACE('',(#842),#860,.F.);
#842 = FACE_BOUND('',#843,.F.);
#843 = EDGE_LOOP('',(#844,#845,#853,#859));
#844 = ORIENTED_EDGE('',*,*,#830,.T.);
#845 = ORIENTED_EDGE('',*,*,#846,.T.);
#846 = EDGE_CURVE('',#823,#847,#849,.T.);
#847 = VERTEX_POINT('',#848);
#848 = CARTESIAN_POINT('',(-26.17542648054,-4.999999999999,3.));
#849 = LINE('',#850,#851);
#850 = CARTESIAN_POINT('',(-24.58771324027,-7.750000000002,3.));
#851 = VECTOR('',#852,1.);
#852 = DIRECTION('',(-0.499999999999,0.866025403785,-0.));
#853 = ORIENTED_EDGE('',*,*,#854,.F.);
#854 = EDGE_CURVE('',#227,#847,#855,.T.);
#855 = LINE('',#856,#857);
#856 = CARTESIAN_POINT('',(-26.17542648054,-4.999999999999,0.));
#857 = VECTOR('',#858,1.);
#858 = DIRECTION('',(0.,0.,1.));
#859 = ORIENTED_EDGE('',*,*,#234,.F.);
#860 = PLANE('',#861);
#861 = AXIS2_PLACEMENT_3D('',#862,#863,#864);
#862 = CARTESIAN_POINT('',(-24.58771324027,-7.750000000002,0.));
#863 = DIRECTION('',(-0.866025403785,-0.499999999999,0.));
#864 = DIRECTION('',(-0.499999999999,0.866025403785,0.));
#865 = ADVANCED_FACE('',(#866),#884,.F.);
#866 = FACE_BOUND('',#867,.F.);
#867 = EDGE_LOOP('',(#868,#869,#877,#883));
#868 = ORIENTED_EDGE('',*,*,#854,.T.);
#869 = ORIENTED_EDGE('',*,*,#870,.T.);
#870 = EDGE_CURVE('',#847,#871,#873,.T.);
#871 = VERTEX_POINT('',#872);
#872 = CARTESIAN_POINT('',(-24.58771324026,-2.250000000002,3.));
#873 = LINE('',#874,#875);
#874 = CARTESIAN_POINT('',(-26.17542648054,-4.999999999999,3.));
#875 = VECTOR('',#876,1.);
#876 = DIRECTION('',(0.5,0.866025403784,0.));
#877 = ORIENTED_EDGE('',*,*,#878,.F.);
#878 = EDGE_CURVE('',#219,#871,#879,.T.);
#879 = LINE('',#880,#881);
#880 = CARTESIAN_POINT('',(-24.58771324026,-2.250000000002,0.));
#881 = VECTOR('',#882,1.);
#882 = DIRECTION('',(0.,0.,1.));
#883 = ORIENTED_EDGE('',*,*,#226,.F.);
#884 = PLANE('',#885);
#885 = AXIS2_PLACEMENT_3D('',#886,#887,#888);
#886 = CARTESIAN_POINT('',(-26.17542648054,-4.999999999999,0.));
#887 = DIRECTION('',(-0.866025403784,0.5,0.));
#888 = DIRECTION('',(0.5,0.866025403784,0.));
#889 = ADVANCED_FACE('',(#890),#901,.F.);
#890 = FACE_BOUND('',#891,.F.);
#891 = EDGE_LOOP('',(#892,#893,#899,#900));
#892 = ORIENTED_EDGE('',*,*,#878,.T.);
#893 = ORIENTED_EDGE('',*,*,#894,.T.);
#894 = EDGE_CURVE('',#871,#767,#895,.T.);
#895 = LINE('',#896,#897);
#896 = CARTESIAN_POINT('',(-24.58771324026,-2.250000000002,3.));
#897 = VECTOR('',#898,1.);
#898 = DIRECTION('',(1.,-2.0139E-13,0.));
#899 = ORIENTED_EDGE('',*,*,#766,.F.);
#900 = ORIENTED_EDGE('',*,*,#218,.F.);
#901 = PLANE('',#902);
#902 = AXIS2_PLACEMENT_3D('',#903,#904,#905);
#903 = CARTESIAN_POINT('',(-24.58771324026,-2.250000000002,0.));
#904 = DIRECTION('',(2.0139E-13,1.,0.));
#905 = DIRECTION('',(1.,-2.0139E-13,0.));
#906 = ADVANCED_FACE('',(#907),#932,.F.);
#907 = FACE_BOUND('',#908,.F.);
#908 = EDGE_LOOP('',(#909,#917,#925,#931));
#909 = ORIENTED_EDGE('',*,*,#910,.T.);
#910 = EDGE_CURVE('',#259,#911,#913,.T.);
#911 = VERTEX_POINT('',#912);
#912 = CARTESIAN_POINT('',(-29.41228675972,-2.250000000002,3.));
#913 = LINE('',#914,#915);
#914 = CARTESIAN_POINT('',(-29.41228675972,-2.250000000002,0.));
#915 = VECTOR('',#916,1.);
#916 = DIRECTION('',(0.,0.,1.));
#917 = ORIENTED_EDGE('',*,*,#918,.T.);
#918 = EDGE_CURVE('',#911,#919,#921,.T.);
#919 = VERTEX_POINT('',#920);
#920 = CARTESIAN_POINT('',(-27.82457351945,-5.000000000001,3.));
#921 = LINE('',#922,#923);
#922 = CARTESIAN_POINT('',(-29.41228675972,-2.250000000002,3.));
#923 = VECTOR('',#924,1.);
#924 = DIRECTION('',(0.5,-0.866025403785,0.));
#925 = ORIENTED_EDGE('',*,*,#926,.F.);
#926 = EDGE_CURVE('',#261,#919,#927,.T.);
#927 = LINE('',#928,#929);
#928 = CARTESIAN_POINT('',(-27.82457351945,-5.000000000001,0.));
#929 = VECTOR('',#930,1.);
#930 = DIRECTION('',(0.,0.,1.));
#931 = ORIENTED_EDGE('',*,*,#258,.F.);
#932 = PLANE('',#933);
#933 = AXIS2_PLACEMENT_3D('',#934,#935,#936);
#934 = CARTESIAN_POINT('',(-29.41228675972,-2.250000000002,0.));
#935 = DIRECTION('',(0.866025403785,0.5,0.));
#936 = DIRECTION('',(0.5,-0.866025403785,0.));
#937 = ADVANCED_FACE('',(#938),#956,.F.);
#938 = FACE_BOUND('',#939,.F.);
#939 = EDGE_LOOP('',(#940,#941,#949,#955));
#940 = ORIENTED_EDGE('',*,*,#926,.T.);
#941 = ORIENTED_EDGE('',*,*,#942,.T.);
#942 = EDGE_CURVE('',#919,#943,#945,.T.);
#943 = VERTEX_POINT('',#944);
#944 = CARTESIAN_POINT('',(-29.41228675973,-7.750000000003,3.));
#945 = LINE('',#946,#947);
#946 = CARTESIAN_POINT('',(-27.82457351945,-5.000000000001,3.));
#947 = VECTOR('',#948,1.);
#948 = DIRECTION('',(-0.5,-0.866025403785,0.));
#949 = ORIENTED_EDGE('',*,*,#950,.F.);
#950 = EDGE_CURVE('',#293,#943,#951,.T.);
#951 = LINE('',#952,#953);
#952 = CARTESIAN_POINT('',(-29.41228675973,-7.750000000003,0.));
#953 = VECTOR('',#954,1.);
#954 = DIRECTION('',(0.,0.,1.));
#955 = ORIENTED_EDGE('',*,*,#300,.F.);
#956 = PLANE('',#957);
#957 = AXIS2_PLACEMENT_3D('',#958,#959,#960);
#958 = CARTESIAN_POINT('',(-27.82457351945,-5.000000000001,0.));
#959 = DIRECTION('',(0.866025403785,-0.5,0.));
#960 = DIRECTION('',(-0.5,-0.866025403785,0.));
#961 = ADVANCED_FACE('',(#962),#980,.F.);
#962 = FACE_BOUND('',#963,.F.);
#963 = EDGE_LOOP('',(#964,#965,#973,#979));
#964 = ORIENTED_EDGE('',*,*,#950,.T.);
#965 = ORIENTED_EDGE('',*,*,#966,.T.);
#966 = EDGE_CURVE('',#943,#967,#969,.T.);
#967 = VERTEX_POINT('',#968);
#968 = CARTESIAN_POINT('',(-32.58771324027,-7.750000000003,3.));
#969 = LINE('',#970,#971);
#970 = CARTESIAN_POINT('',(-29.41228675973,-7.750000000003,3.));
#971 = VECTOR('',#972,1.);
#972 = DIRECTION('',(-1.,0.,0.));
#973 = ORIENTED_EDGE('',*,*,#974,.F.);
#974 = EDGE_CURVE('',#285,#967,#975,.T.);
#975 = LINE('',#976,#977);
#976 = CARTESIAN_POINT('',(-32.58771324027,-7.750000000003,0.));
#977 = VECTOR('',#978,1.);
#978 = DIRECTION('',(0.,0.,1.));
#979 = ORIENTED_EDGE('',*,*,#292,.F.);
#980 = PLANE('',#981);
#981 = AXIS2_PLACEMENT_3D('',#982,#983,#984);
#982 = CARTESIAN_POINT('',(-29.41228675973,-7.750000000003,0.));
#983 = DIRECTION('',(0.,-1.,0.));
#984 = DIRECTION('',(-1.,0.,0.));
#985 = ADVANCED_FACE('',(#986),#1004,.F.);
#986 = FACE_BOUND('',#987,.F.);
#987 = EDGE_LOOP('',(#988,#989,#997,#1003));
#988 = ORIENTED_EDGE('',*,*,#974,.T.);
#989 = ORIENTED_EDGE('',*,*,#990,.T.);
#990 = EDGE_CURVE('',#967,#991,#993,.T.);
#991 = VERTEX_POINT('',#992);
#992 = CARTESIAN_POINT('',(-34.17542648054,-4.999999999999,3.));
#993 = LINE('',#994,#995);
#994 = CARTESIAN_POINT('',(-32.58771324027,-7.750000000003,3.));
#995 = VECTOR('',#996,1.);
#996 = DIRECTION('',(-0.499999999999,0.866025403785,-0.));
#997 = ORIENTED_EDGE('',*,*,#998,.F.);
#998 = EDGE_CURVE('',#277,#991,#999,.T.);
#999 = LINE('',#1000,#1001);
#1000 = CARTESIAN_POINT('',(-34.17542648054,-4.999999999999,0.));
#1001 = VECTOR('',#1002,1.);
#1002 = DIRECTION('',(0.,0.,1.));
#1003 = ORIENTED_EDGE('',*,*,#284,.F.);
#1004 = PLANE('',#1005);
#1005 = AXIS2_PLACEMENT_3D('',#1006,#1007,#1008);
#1006 = CARTESIAN_POINT('',(-32.58771324027,-7.750000000003,0.));
#1007 = DIRECTION('',(-0.866025403785,-0.499999999999,0.));
#1008 = DIRECTION('',(-0.499999999999,0.866025403785,0.));
#1009 = ADVANCED_FACE('',(#1010),#1028,.F.);
#1010 = FACE_BOUND('',#1011,.F.);
#1011 = EDGE_LOOP('',(#1012,#1013,#1021,#1027));
#1012 = ORIENTED_EDGE('',*,*,#998,.T.);
#1013 = ORIENTED_EDGE('',*,*,#1014,.T.);
#1014 = EDGE_CURVE('',#991,#1015,#1017,.T.);
#1015 = VERTEX_POINT('',#1016);
#1016 = CARTESIAN_POINT('',(-32.58771324026,-2.250000000002,3.));
#1017 = LINE('',#1018,#1019);
#1018 = CARTESIAN_POINT('',(-34.17542648054,-4.999999999999,3.));
#1019 = VECTOR('',#1020,1.);
#1020 = DIRECTION('',(0.5,0.866025403784,0.));
#1021 = ORIENTED_EDGE('',*,*,#1022,.F.);
#1022 = EDGE_CURVE('',#269,#1015,#1023,.T.);
#1023 = LINE('',#1024,#1025);
#1024 = CARTESIAN_POINT('',(-32.58771324026,-2.250000000002,0.));
#1025 = VECTOR('',#1026,1.);
#1026 = DIRECTION('',(0.,0.,1.));
#1027 = ORIENTED_EDGE('',*,*,#276,.F.);
#1028 = PLANE('',#1029);
#1029 = AXIS2_PLACEMENT_3D('',#1030,#1031,#1032);
#1030 = CARTESIAN_POINT('',(-34.17542648054,-4.999999999999,0.));
#1031 = DIRECTION('',(-0.866025403784,0.5,0.));
#1032 = DIRECTION('',(0.5,0.866025403784,0.));
#1033 = ADVANCED_FACE('',(#1034),#1045,.F.);
#1034 = FACE_BOUND('',#1035,.F.);
#1035 = EDGE_LOOP('',(#1036,#1037,#1043,#1044));
#1036 = ORIENTED_EDGE('',*,*,#1022,.T.);
#1037 = ORIENTED_EDGE('',*,*,#1038,.T.);
#1038 = EDGE_CURVE('',#1015,#911,#1039,.T.);
#1039 = LINE('',#1040,#1041);
#1040 = CARTESIAN_POINT('',(-32.58771324026,-2.250000000002,3.));
#1041 = VECTOR('',#1042,1.);
#1042 = DIRECTION('',(1.,-2.2432E-13,0.));
#1043 = ORIENTED_EDGE('',*,*,#910,.F.);
#1044 = ORIENTED_EDGE('',*,*,#268,.F.);
#1045 = PLANE('',#1046);
#1046 = AXIS2_PLACEMENT_3D('',#1047,#1048,#1049);
#1047 = CARTESIAN_POINT('',(-32.58771324026,-2.250000000002,0.));
#1048 = DIRECTION('',(2.2432E-13,1.,0.));
#1049 = DIRECTION('',(1.,-2.2432E-13,0.));
#1050 = ADVANCED_FACE('',(#1051),#1070,.F.);
#1051 = FACE_BOUND('',#1052,.F.);
#1052 = EDGE_LOOP('',(#1053,#1061,#1068,#1069));
#1053 = ORIENTED_EDGE('',*,*,#1054,.T.);
#1054 = EDGE_CURVE('',#309,#1055,#1057,.T.);
#1055 = VERTEX_POINT('',#1056);
#1056 = CARTESIAN_POINT('',(7.,5.,1.));
#1057 = LINE('',#1058,#1059);
#1058 = CARTESIAN_POINT('',(7.,5.,0.));
#1059 = VECTOR('',#1060,1.);
#1060 = DIRECTION('',(0.,0.,1.));
#1061 = ORIENTED_EDGE('',*,*,#1062,.T.);
#1062 = EDGE_CURVE('',#1055,#1055,#1063,.T.);
#1063 = CIRCLE('',#1064,7.);
#1064 = AXIS2_PLACEMENT_3D('',#1065,#1066,#1067);
#1065 = CARTESIAN_POINT('',(0.,5.,1.));
#1066 = DIRECTION('',(0.,0.,-1.));
#1067 = DIRECTION('',(1.,0.,0.));
#1068 = ORIENTED_EDGE('',*,*,#1054,.F.);
#1069 = ORIENTED_EDGE('',*,*,#308,.F.);
#1070 = CYLINDRICAL_SURFACE('',#1071,7.);
#1071 = AXIS2_PLACEMENT_3D('',#1072,#1073,#1074);
#1072 = CARTESIAN_POINT('',(0.,5.,0.));
#1073 = DIRECTION('',(0.,0.,-1.));
#1074 = DIRECTION('',(1.,0.,0.));
#1075 = ADVANCED_FACE('',(#1076),#1101,.F.);
#1076 = FACE_BOUND('',#1077,.F.);
#1077 = EDGE_LOOP('',(#1078,#1086,#1094,#1100));
#1078 = ORIENTED_EDGE('',*,*,#1079,.T.);
#1079 = EDGE_CURVE('',#320,#1080,#1082,.T.);
#1080 = VERTEX_POINT('',#1081);
#1081 = CARTESIAN_POINT('',(-29.41228675972,17.750000000001,3.));
#1082 = LINE('',#1083,#1084);
#1083 = CARTESIAN_POINT('',(-29.41228675972,17.750000000001,0.));
#1084 = VECTOR('',#1085,1.);
#1085 = DIRECTION('',(0.,0.,1.));
#1086 = ORIENTED_EDGE('',*,*,#1087,.T.);
#1087 = EDGE_CURVE('',#1080,#1088,#1090,.T.);
#1088 = VERTEX_POINT('',#1089);
#1089 = CARTESIAN_POINT('',(-27.82457351945,14.999999999999,3.));
#1090 = LINE('',#1091,#1092);
#1091 = CARTESIAN_POINT('',(-29.41228675972,17.750000000001,3.));
#1092 = VECTOR('',#1093,1.);
#1093 = DIRECTION('',(0.499999999999,-0.866025403785,0.));
#1094 = ORIENTED_EDGE('',*,*,#1095,.F.);
#1095 = EDGE_CURVE('',#322,#1088,#1096,.T.);
#1096 = LINE('',#1097,#1098);
#1097 = CARTESIAN_POINT('',(-27.82457351945,14.999999999999,0.));
#1098 = VECTOR('',#1099,1.);
#1099 = DIRECTION('',(0.,0.,1.));
#1100 = ORIENTED_EDGE('',*,*,#319,.F.);
#1101 = PLANE('',#1102);
#1102 = AXIS2_PLACEMENT_3D('',#1103,#1104,#1105);
#1103 = CARTESIAN_POINT('',(-29.41228675972,17.750000000001,0.));
#1104 = DIRECTION('',(0.866025403785,0.499999999999,0.));
#1105 = DIRECTION('',(0.499999999999,-0.866025403785,0.));
#1106 = ADVANCED_FACE('',(#1107),#1125,.F.);
#1107 = FACE_BOUND('',#1108,.F.);
#1108 = EDGE_LOOP('',(#1109,#1110,#1118,#1124));
#1109 = ORIENTED_EDGE('',*,*,#1095,.T.);
#1110 = ORIENTED_EDGE('',*,*,#1111,.T.);
#1111 = EDGE_CURVE('',#1088,#1112,#1114,.T.);
#1112 = VERTEX_POINT('',#1113);
#1113 = CARTESIAN_POINT('',(-29.41228675973,12.250000000001,3.));
#1114 = LINE('',#1115,#1116);
#1115 = CARTESIAN_POINT('',(-27.82457351945,14.999999999999,3.));
#1116 = VECTOR('',#1117,1.);
#1117 = DIRECTION('',(-0.5,-0.866025403784,0.));
#1118 = ORIENTED_EDGE('',*,*,#1119,.F.);
#1119 = EDGE_CURVE('',#354,#1112,#1120,.T.);
#1120 = LINE('',#1121,#1122);
#1121 = CARTESIAN_POINT('',(-29.41228675973,12.250000000001,0.));
#1122 = VECTOR('',#1123,1.);
#1123 = DIRECTION('',(0.,0.,1.));
#1124 = ORIENTED_EDGE('',*,*,#361,.F.);
#1125 = PLANE('',#1126);
#1126 = AXIS2_PLACEMENT_3D('',#1127,#1128,#1129);
#1127 = CARTESIAN_POINT('',(-27.82457351945,14.999999999999,0.));
#1128 = DIRECTION('',(0.866025403784,-0.5,0.));
#1129 = DIRECTION('',(-0.5,-0.866025403784,0.));
#1130 = ADVANCED_FACE('',(#1131),#1149,.F.);
#1131 = FACE_BOUND('',#1132,.F.);
#1132 = EDGE_LOOP('',(#1133,#1134,#1142,#1148));
#1133 = ORIENTED_EDGE('',*,*,#1119,.T.);
#1134 = ORIENTED_EDGE('',*,*,#1135,.T.);
#1135 = EDGE_CURVE('',#1112,#1136,#1138,.T.);
#1136 = VERTEX_POINT('',#1137);
#1137 = CARTESIAN_POINT('',(-32.58771324027,12.250000000001,3.));
#1138 = LINE('',#1139,#1140);
#1139 = CARTESIAN_POINT('',(-29.41228675973,12.250000000001,3.));
#1140 = VECTOR('',#1141,1.);
#1141 = DIRECTION('',(-1.,0.,0.));
#1142 = ORIENTED_EDGE('',*,*,#1143,.F.);
#1143 = EDGE_CURVE('',#346,#1136,#1144,.T.);
#1144 = LINE('',#1145,#1146);
#1145 = CARTESIAN_POINT('',(-32.58771324027,12.250000000001,0.));
#1146 = VECTOR('',#1147,1.);
#1147 = DIRECTION('',(0.,0.,1.));
#1148 = ORIENTED_EDGE('',*,*,#353,.F.);
#1149 = PLANE('',#1150);
#1150 = AXIS2_PLACEMENT_3D('',#1151,#1152,#1153);
#1151 = CARTESIAN_POINT('',(-29.41228675973,12.250000000001,0.));
#1152 = DIRECTION('',(0.,-1.,0.));
#1153 = DIRECTION('',(-1.,0.,0.));
#1154 = ADVANCED_FACE('',(#1155),#1173,.F.);
#1155 = FACE_BOUND('',#1156,.F.);
#1156 = EDGE_LOOP('',(#1157,#1158,#1166,#1172));
#1157 = ORIENTED_EDGE('',*,*,#1143,.T.);
#1158 = ORIENTED_EDGE('',*,*,#1159,.T.);
#1159 = EDGE_CURVE('',#1136,#1160,#1162,.T.);
#1160 = VERTEX_POINT('',#1161);
#1161 = CARTESIAN_POINT('',(-34.17542648054,14.999999999999,3.));
#1162 = LINE('',#1163,#1164);
#1163 = CARTESIAN_POINT('',(-32.58771324027,12.250000000001,3.));
#1164 = VECTOR('',#1165,1.);
#1165 = DIRECTION('',(-0.5,0.866025403784,-0.));
#1166 = ORIENTED_EDGE('',*,*,#1167,.F.);
#1167 = EDGE_CURVE('',#338,#1160,#1168,.T.);
#1168 = LINE('',#1169,#1170);
#1169 = CARTESIAN_POINT('',(-34.17542648054,14.999999999999,0.));
#1170 = VECTOR('',#1171,1.);
#1171 = DIRECTION('',(0.,0.,1.));
#1172 = ORIENTED_EDGE('',*,*,#345,.F.);
#1173 = PLANE('',#1174);
#1174 = AXIS2_PLACEMENT_3D('',#1175,#1176,#1177);
#1175 = CARTESIAN_POINT('',(-32.58771324027,12.250000000001,0.));
#1176 = DIRECTION('',(-0.866025403784,-0.5,0.));
#1177 = DIRECTION('',(-0.5,0.866025403784,0.));
#1178 = ADVANCED_FACE('',(#1179),#1197,.F.);
#1179 = FACE_BOUND('',#1180,.F.);
#1180 = EDGE_LOOP('',(#1181,#1182,#1190,#1196));
#1181 = ORIENTED_EDGE('',*,*,#1167,.T.);
#1182 = ORIENTED_EDGE('',*,*,#1183,.T.);
#1183 = EDGE_CURVE('',#1160,#1184,#1186,.T.);
#1184 = VERTEX_POINT('',#1185);
#1185 = CARTESIAN_POINT('',(-32.58771324026,17.750000000001,3.));
#1186 = LINE('',#1187,#1188);
#1187 = CARTESIAN_POINT('',(-34.17542648054,14.999999999999,3.));
#1188 = VECTOR('',#1189,1.);
#1189 = DIRECTION('',(0.5,0.866025403784,0.));
#1190 = ORIENTED_EDGE('',*,*,#1191,.F.);
#1191 = EDGE_CURVE('',#330,#1184,#1192,.T.);
#1192 = LINE('',#1193,#1194);
#1193 = CARTESIAN_POINT('',(-32.58771324026,17.750000000001,0.));
#1194 = VECTOR('',#1195,1.);
#1195 = DIRECTION('',(0.,0.,1.));
#1196 = ORIENTED_EDGE('',*,*,#337,.F.);
#1197 = PLANE('',#1198);
#1198 = AXIS2_PLACEMENT_3D('',#1199,#1200,#1201);
#1199 = CARTESIAN_POINT('',(-34.17542648054,14.999999999999,0.));
#1200 = DIRECTION('',(-0.866025403784,0.5,0.));
#1201 = DIRECTION('',(0.5,0.866025403784,0.));
#1202 = ADVANCED_FACE('',(#1203),#1214,.F.);
#1203 = FACE_BOUND('',#1204,.F.);
#1204 = EDGE_LOOP('',(#1205,#1206,#1212,#1213));
#1205 = ORIENTED_EDGE('',*,*,#1191,.T.);
#1206 = ORIENTED_EDGE('',*,*,#1207,.T.);
#1207 = EDGE_CURVE('',#1184,#1080,#1208,.T.);
#1208 = LINE('',#1209,#1210);
#1209 = CARTESIAN_POINT('',(-32.58771324026,17.750000000001,3.));
#1210 = VECTOR('',#1211,1.);
#1211 = DIRECTION('',(1.,-5.147E-14,0.));
#1212 = ORIENTED_EDGE('',*,*,#1079,.F.);
#1213 = ORIENTED_EDGE('',*,*,#329,.F.);
#1214 = PLANE('',#1215);
#1215 = AXIS2_PLACEMENT_3D('',#1216,#1217,#1218);
#1216 = CARTESIAN_POINT('',(-32.58771324026,17.750000000001,0.));
#1217 = DIRECTION('',(5.147E-14,1.,0.));
#1218 = DIRECTION('',(1.,-5.147E-14,0.));
#1219 = ADVANCED_FACE('',(#1220),#1239,.F.);
#1220 = FACE_BOUND('',#1221,.F.);
#1221 = EDGE_LOOP('',(#1222,#1230,#1231,#1232));
#1222 = ORIENTED_EDGE('',*,*,#1223,.F.);
#1223 = EDGE_CURVE('',#426,#1224,#1226,.T.);
#1224 = VERTEX_POINT('',#1225);
#1225 = CARTESIAN_POINT('',(-29.4,-5.,3.));
#1226 = LINE('',#1227,#1228);
#1227 = CARTESIAN_POINT('',(-29.4,-5.,9.));
#1228 = VECTOR('',#1229,1.);
#1229 = DIRECTION('',(-0.,-0.,-1.));
#1230 = ORIENTED_EDGE('',*,*,#425,.F.);
#1231 = ORIENTED_EDGE('',*,*,#1223,.T.);
#1232 = ORIENTED_EDGE('',*,*,#1233,.T.);
#1233 = EDGE_CURVE('',#1224,#1224,#1234,.T.);
#1234 = CIRCLE('',#1235,1.6);
#1235 = AXIS2_PLACEMENT_3D('',#1236,#1237,#1238);
#1236 = CARTESIAN_POINT('',(-31.,-5.,3.));
#1237 = DIRECTION('',(0.,0.,1.));
#1238 = DIRECTION('',(1.,0.,0.));
#1239 = CYLINDRICAL_SURFACE('',#1240,1.6);
#1240 = AXIS2_PLACEMENT_3D('',#1241,#1242,#1243);
#1241 = CARTESIAN_POINT('',(-31.,-5.,9.));
#1242 = DIRECTION('',(0.,0.,1.));
#1243 = DIRECTION('',(1.,0.,0.));
#1244 = ADVANCED_FACE('',(#1245),#1264,.F.);
#1245 = FACE_BOUND('',#1246,.F.);
#1246 = EDGE_LOOP('',(#1247,#1255,#1256,#1257));
#1247 = ORIENTED_EDGE('',*,*,#1248,.F.);
#1248 = EDGE_CURVE('',#437,#1249,#1251,.T.);
#1249 = VERTEX_POINT('',#1250);
#1250 = CARTESIAN_POINT('',(-21.4,-5.,3.));
#1251 = LINE('',#1252,#1253);
#1252 = CARTESIAN_POINT('',(-21.4,-5.,9.));
#1253 = VECTOR('',#1254,1.);
#1254 = DIRECTION('',(-0.,-0.,-1.));
#1255 = ORIENTED_EDGE('',*,*,#436,.F.);
#1256 = ORIENTED_EDGE('',*,*,#1248,.T.);
#1257 = ORIENTED_EDGE('',*,*,#1258,.T.);
#1258 = EDGE_CURVE('',#1249,#1249,#1259,.T.);
#1259 = CIRCLE('',#1260,1.6);
#1260 = AXIS2_PLACEMENT_3D('',#1261,#1262,#1263);
#1261 = CARTESIAN_POINT('',(-23.,-5.,3.));
#1262 = DIRECTION('',(0.,0.,1.));
#1263 = DIRECTION('',(1.,0.,0.));
#1264 = CYLINDRICAL_SURFACE('',#1265,1.6);
#1265 = AXIS2_PLACEMENT_3D('',#1266,#1267,#1268);
#1266 = CARTESIAN_POINT('',(-23.,-5.,9.));
#1267 = DIRECTION('',(0.,0.,1.));
#1268 = DIRECTION('',(1.,0.,0.));
#1269 = ADVANCED_FACE('',(#1270),#1289,.F.);
#1270 = FACE_BOUND('',#1271,.F.);
#1271 = EDGE_LOOP('',(#1272,#1280,#1281,#1282));
#1272 = ORIENTED_EDGE('',*,*,#1273,.F.);
#1273 = EDGE_CURVE('',#448,#1274,#1276,.T.);
#1274 = VERTEX_POINT('',#1275);
#1275 = CARTESIAN_POINT('',(-29.4,15.,3.));
#1276 = LINE('',#1277,#1278);
#1277 = CARTESIAN_POINT('',(-29.4,15.,9.));
#1278 = VECTOR('',#1279,1.);
#1279 = DIRECTION('',(-0.,-0.,-1.));
#1280 = ORIENTED_EDGE('',*,*,#447,.F.);
#1281 = ORIENTED_EDGE('',*,*,#1273,.T.);
#1282 = ORIENTED_EDGE('',*,*,#1283,.T.);
#1283 = EDGE_CURVE('',#1274,#1274,#1284,.T.);
#1284 = CIRCLE('',#1285,1.6);
#1285 = AXIS2_PLACEMENT_3D('',#1286,#1287,#1288);
#1286 = CARTESIAN_POINT('',(-31.,15.,3.));
#1287 = DIRECTION('',(0.,0.,1.));
#1288 = DIRECTION('',(1.,0.,0.));
#1289 = CYLINDRICAL_SURFACE('',#1290,1.6);
#1290 = AXIS2_PLACEMENT_3D('',#1291,#1292,#1293);
#1291 = CARTESIAN_POINT('',(-31.,15.,9.));
#1292 = DIRECTION('',(0.,0.,1.));
#1293 = DIRECTION('',(1.,0.,0.));
#1294 = ADVANCED_FACE('',(#1295),#1314,.F.);
#1295 = FACE_BOUND('',#1296,.T.);
#1296 = EDGE_LOOP('',(#1297,#1306,#1312,#1313));
#1297 = ORIENTED_EDGE('',*,*,#1298,.T.);
#1298 = EDGE_CURVE('',#1299,#1299,#1301,.T.);
#1299 = VERTEX_POINT('',#1300);
#1300 = CARTESIAN_POINT('',(9.,5.,1.));
#1301 = CIRCLE('',#1302,9.);
#1302 = AXIS2_PLACEMENT_3D('',#1303,#1304,#1305);
#1303 = CARTESIAN_POINT('',(0.,5.,1.));
#1304 = DIRECTION('',(0.,0.,-1.));
#1305 = DIRECTION('',(1.,0.,0.));
#1306 = ORIENTED_EDGE('',*,*,#1307,.T.);
#1307 = EDGE_CURVE('',#1299,#459,#1308,.T.);
#1308 = LINE('',#1309,#1310);
#1309 = CARTESIAN_POINT('',(9.,5.,0.));
#1310 = VECTOR('',#1311,1.);
#1311 = DIRECTION('',(0.,0.,1.));
#1312 = ORIENTED_EDGE('',*,*,#458,.T.);
#1313 = ORIENTED_EDGE('',*,*,#1307,.F.);
#1314 = CYLINDRICAL_SURFACE('',#1315,9.);
#1315 = AXIS2_PLACEMENT_3D('',#1316,#1317,#1318);
#1316 = CARTESIAN_POINT('',(0.,5.,0.));
#1317 = DIRECTION('',(-0.,-0.,-1.));
#1318 = DIRECTION('',(1.,0.,0.));
#1319 = ADVANCED_FACE('',(#1320),#1339,.F.);
#1320 = FACE_BOUND('',#1321,.F.);
#1321 = EDGE_LOOP('',(#1322,#1330,#1337,#1338));
#1322 = ORIENTED_EDGE('',*,*,#1323,.T.);
#1323 = EDGE_CURVE('',#487,#1324,#1326,.T.);
#1324 = VERTEX_POINT('',#1325);
#1325 = CARTESIAN_POINT('',(-9.2,12.,4.5));
#1326 = LINE('',#1327,#1328);
#1327 = CARTESIAN_POINT('',(-9.2,20.,4.5));
#1328 = VECTOR('',#1329,1.);
#1329 = DIRECTION('',(0.,-1.,2.2E-16));
#1330 = ORIENTED_EDGE('',*,*,#1331,.T.);
#1331 = EDGE_CURVE('',#1324,#1324,#1332,.T.);
#1332 = CIRCLE('',#1333,1.2);
#1333 = AXIS2_PLACEMENT_3D('',#1334,#1335,#1336);
#1334 = CARTESIAN_POINT('',(-8.,12.,4.5));
#1335 = DIRECTION('',(0.,1.,-0.));
#1336 = DIRECTION('',(-1.,0.,0.));
#1337 = ORIENTED_EDGE('',*,*,#1323,.F.);
#1338 = ORIENTED_EDGE('',*,*,#486,.F.);
#1339 = CYLINDRICAL_SURFACE('',#1340,1.2);
#1340 = AXIS2_PLACEMENT_3D('',#1341,#1342,#1343);
#1341 = CARTESIAN_POINT('',(-8.,20.,4.5));
#1342 = DIRECTION('',(0.,1.,-2.2E-16));
#1343 = DIRECTION('',(-1.,0.,0.));
#1344 = ADVANCED_FACE('',(#1345),#1364,.F.);
#1345 = FACE_BOUND('',#1346,.F.);
#1346 = EDGE_LOOP('',(#1347,#1355,#1362,#1363));
#1347 = ORIENTED_EDGE('',*,*,#1348,.T.);
#1348 = EDGE_CURVE('',#498,#1349,#1351,.T.);
#1349 = VERTEX_POINT('',#1350);
#1350 = CARTESIAN_POINT('',(6.8,12.,4.5));
#1351 = LINE('',#1352,#1353);
#1352 = CARTESIAN_POINT('',(6.8,20.,4.5));
#1353 = VECTOR('',#1354,1.);
#1354 = DIRECTION('',(0.,-1.,2.2E-16));
#1355 = ORIENTED_EDGE('',*,*,#1356,.T.);
#1356 = EDGE_CURVE('',#1349,#1349,#1357,.T.);
#1357 = CIRCLE('',#1358,1.2);
#1358 = AXIS2_PLACEMENT_3D('',#1359,#1360,#1361);
#1359 = CARTESIAN_POINT('',(8.,12.,4.5));
#1360 = DIRECTION('',(0.,1.,-0.));
#1361 = DIRECTION('',(-1.,0.,0.));
#1362 = ORIENTED_EDGE('',*,*,#1348,.F.);
#1363 = ORIENTED_EDGE('',*,*,#497,.F.);
#1364 = CYLINDRICAL_SURFACE('',#1365,1.2);
#1365 = AXIS2_PLACEMENT_3D('',#1366,#1367,#1368);
#1366 = CARTESIAN_POINT('',(8.,20.,4.5));
#1367 = DIRECTION('',(0.,1.,-2.2E-16));
#1368 = DIRECTION('',(-1.,0.,0.));
#1369 = ADVANCED_FACE('',(#1370),#1373,.T.);
#1370 = FACE_BOUND('',#1371,.T.);
#1371 = EDGE_LOOP('',(#1372));
#1372 = ORIENTED_EDGE('',*,*,#522,.T.);
#1373 = PLANE('',#1374);
#1374 = AXIS2_PLACEMENT_3D('',#1375,#1376,#1377);
#1375 = CARTESIAN_POINT('',(10.,8.,4.5));
#1376 = DIRECTION('',(1.,4.2E-16,0.));
#1377 = DIRECTION('',(-4.2E-16,1.,0.));
#1378 = ADVANCED_FACE('',(#1379),#1382,.T.);
#1379 = FACE_BOUND('',#1380,.T.);
#1380 = EDGE_LOOP('',(#1381));
#1381 = ORIENTED_EDGE('',*,*,#547,.T.);
#1382 = PLANE('',#1383);
#1383 = AXIS2_PLACEMENT_3D('',#1384,#1385,#1386);
#1384 = CARTESIAN_POINT('',(10.,8.,4.5));
#1385 = DIRECTION('',(1.,4.2E-16,0.));
#1386 = DIRECTION('',(-4.2E-16,1.,0.));
#1387 = ADVANCED_FACE('',(#1388),#1391,.F.);
#1388 = FACE_BOUND('',#1389,.T.);
#1389 = EDGE_LOOP('',(#1390));
#1390 = ORIENTED_EDGE('',*,*,#589,.T.);
#1391 = PLANE('',#1392);
#1392 = AXIS2_PLACEMENT_3D('',#1393,#1394,#1395);
#1393 = CARTESIAN_POINT('',(-26.00000000001,-10.,4.499999999981));
#1394 = DIRECTION('',(0.,1.,0.));
#1395 = DIRECTION('',(0.,0.,1.));
#1396 = ADVANCED_FACE('',(#1397),#1400,.F.);
#1397 = FACE_BOUND('',#1398,.T.);
#1398 = EDGE_LOOP('',(#1399));
#1399 = ORIENTED_EDGE('',*,*,#614,.T.);
#1400 = PLANE('',#1401);
#1401 = AXIS2_PLACEMENT_3D('',#1402,#1403,#1404);
#1402 = CARTESIAN_POINT('',(-26.00000000001,-10.,4.499999999981));
#1403 = DIRECTION('',(0.,1.,0.));
#1404 = DIRECTION('',(0.,0.,1.));
#1405 = ADVANCED_FACE('',(#1406),#1409,.F.);
#1406 = FACE_BOUND('',#1407,.T.);
#1407 = EDGE_LOOP('',(#1408));
#1408 = ORIENTED_EDGE('',*,*,#639,.T.);
#1409 = PLANE('',#1410);
#1410 = AXIS2_PLACEMENT_3D('',#1411,#1412,#1413);
#1411 = CARTESIAN_POINT('',(-26.00000000001,-10.,4.499999999981));
#1412 = DIRECTION('',(0.,1.,0.));
#1413 = DIRECTION('',(0.,0.,1.));
#1414 = ADVANCED_FACE('',(#1415),#1418,.F.);
#1415 = FACE_BOUND('',#1416,.T.);
#1416 = EDGE_LOOP('',(#1417));
#1417 = ORIENTED_EDGE('',*,*,#664,.T.);
#1418 = PLANE('',#1419);
#1419 = AXIS2_PLACEMENT_3D('',#1420,#1421,#1422);
#1420 = CARTESIAN_POINT('',(-26.00000000001,-10.,4.499999999981));
#1421 = DIRECTION('',(0.,1.,0.));
#1422 = DIRECTION('',(0.,0.,1.));
#1423 = ADVANCED_FACE('',(#1424),#1435,.F.);
#1424 = FACE_BOUND('',#1425,.F.);
#1425 = EDGE_LOOP('',(#1426,#1432,#1433,#1434));
#1426 = ORIENTED_EDGE('',*,*,#1427,.T.);
#1427 = EDGE_CURVE('',#750,#693,#1428,.T.);
#1428 = LINE('',#1429,#1430);
#1429 = CARTESIAN_POINT('',(-68.8,17.,4.5));
#1430 = VECTOR('',#1431,1.);
#1431 = DIRECTION('',(0.,-1.,2.2E-16));
#1432 = ORIENTED_EDGE('',*,*,#692,.T.);
#1433 = ORIENTED_EDGE('',*,*,#1427,.F.);
#1434 = ORIENTED_EDGE('',*,*,#749,.F.);
#1435 = CYLINDRICAL_SURFACE('',#1436,1.7);
#1436 = AXIS2_PLACEMENT_3D('',#1437,#1438,#1439);
#1437 = CARTESIAN_POINT('',(-67.1,17.,4.5));
#1438 = DIRECTION('',(0.,1.,-2.2E-16));
#1439 = DIRECTION('',(-1.,0.,0.));
#1440 = ADVANCED_FACE('',(#1441,#1449),#1452,.F.);
#1441 = FACE_BOUND('',#1442,.F.);
#1442 = EDGE_LOOP('',(#1443,#1444,#1445,#1446,#1447,#1448));
#1443 = ORIENTED_EDGE('',*,*,#774,.F.);
#1444 = ORIENTED_EDGE('',*,*,#894,.F.);
#1445 = ORIENTED_EDGE('',*,*,#870,.F.);
#1446 = ORIENTED_EDGE('',*,*,#846,.F.);
#1447 = ORIENTED_EDGE('',*,*,#822,.F.);
#1448 = ORIENTED_EDGE('',*,*,#798,.F.);
#1449 = FACE_BOUND('',#1450,.F.);
#1450 = EDGE_LOOP('',(#1451));
#1451 = ORIENTED_EDGE('',*,*,#1258,.F.);
#1452 = PLANE('',#1453);
#1453 = AXIS2_PLACEMENT_3D('',#1454,#1455,#1456);
#1454 = CARTESIAN_POINT('',(-28.33333333333,1.666666666666,3.));
#1455 = DIRECTION('',(0.,0.,1.));
#1456 = DIRECTION('',(1.,0.,0.));
#1457 = ADVANCED_FACE('',(#1458,#1466),#1469,.F.);
#1458 = FACE_BOUND('',#1459,.F.);
#1459 = EDGE_LOOP('',(#1460,#1461,#1462,#1463,#1464,#1465));
#1460 = ORIENTED_EDGE('',*,*,#918,.F.);
#1461 = ORIENTED_EDGE('',*,*,#1038,.F.);
#1462 = ORIENTED_EDGE('',*,*,#1014,.F.);
#1463 = ORIENTED_EDGE('',*,*,#990,.F.);
#1464 = ORIENTED_EDGE('',*,*,#966,.F.);
#1465 = ORIENTED_EDGE('',*,*,#942,.F.);
#1466 = FACE_BOUND('',#1467,.F.);
#1467 = EDGE_LOOP('',(#1468));
#1468 = ORIENTED_EDGE('',*,*,#1233,.F.);
#1469 = PLANE('',#1470);
#1470 = AXIS2_PLACEMENT_3D('',#1471,#1472,#1473);
#1471 = CARTESIAN_POINT('',(-28.33333333333,1.666666666666,3.));
#1472 = DIRECTION('',(0.,0.,1.));
#1473 = DIRECTION('',(1.,0.,0.));
#1474 = ADVANCED_FACE('',(#1475,#1478),#1481,.T.);
#1475 = FACE_BOUND('',#1476,.F.);
#1476 = EDGE_LOOP('',(#1477));
#1477 = ORIENTED_EDGE('',*,*,#1298,.T.);
#1478 = FACE_BOUND('',#1479,.T.);
#1479 = EDGE_LOOP('',(#1480));
#1480 = ORIENTED_EDGE('',*,*,#1062,.T.);
#1481 = PLANE('',#1482);
#1482 = AXIS2_PLACEMENT_3D('',#1483,#1484,#1485);
#1483 = CARTESIAN_POINT('',(-5.1E-16,5.,1.));
#1484 = DIRECTION('',(0.,0.,1.));
#1485 = DIRECTION('',(1.,0.,0.));
#1486 = ADVANCED_FACE('',(#1487,#1495),#1498,.F.);
#1487 = FACE_BOUND('',#1488,.F.);
#1488 = EDGE_LOOP('',(#1489,#1490,#1491,#1492,#1493,#1494));
#1489 = ORIENTED_EDGE('',*,*,#1087,.F.);
#1490 = ORIENTED_EDGE('',*,*,#1207,.F.);
#1491 = ORIENTED_EDGE('',*,*,#1183,.F.);
#1492 = ORIENTED_EDGE('',*,*,#1159,.F.);
#1493 = ORIENTED_EDGE('',*,*,#1135,.F.);
#1494 = ORIENTED_EDGE('',*,*,#1111,.F.);
#1495 = FACE_BOUND('',#1496,.F.);
#1496 = EDGE_LOOP('',(#1497));
#1497 = ORIENTED_EDGE('',*,*,#1283,.F.);
#1498 = PLANE('',#1499);
#1499 = AXIS2_PLACEMENT_3D('',#1500,#1501,#1502);
#1500 = CARTESIAN_POINT('',(-28.33333333333,1.666666666666,3.));
#1501 = DIRECTION('',(0.,0.,1.));
#1502 = DIRECTION('',(1.,0.,0.));
#1503 = ADVANCED_FACE('',(#1504),#1507,.T.);
#1504 = FACE_BOUND('',#1505,.T.);
#1505 = EDGE_LOOP('',(#1506));
#1506 = ORIENTED_EDGE('',*,*,#1331,.T.);
#1507 = PLANE('',#1508);
#1508 = AXIS2_PLACEMENT_3D('',#1509,#1510,#1511);
#1509 = CARTESIAN_POINT('',(1.71E-15,12.,4.5));
#1510 = DIRECTION('',(0.,1.,0.));
#1511 = DIRECTION('',(0.,0.,1.));
#1512 = ADVANCED_FACE('',(#1513),#1516,.T.);
#1513 = FACE_BOUND('',#1514,.T.);
#1514 = EDGE_LOOP('',(#1515));
#1515 = ORIENTED_EDGE('',*,*,#1356,.T.);
#1516 = PLANE('',#1517);
#1517 = AXIS2_PLACEMENT_3D('',#1518,#1519,#1520);
#1518 = CARTESIAN_POINT('',(1.71E-15,12.,4.5));
#1519 = DIRECTION('',(0.,1.,0.));
#1520 = DIRECTION('',(0.,0.,1.));
#1521 = ( GEOMETRIC_REPRESENTATION_CONTEXT(3) 
GLOBAL_UNCERTAINTY_ASSIGNED_CONTEXT((#1525)) 
GLOBAL_UNIT_ASSIGNED_CONTEXT((#1522,#1523,#1524)) REPRESENTATION_CONTEXT
('Context #1','3D Context with UNIT and UNCERTAINTY') );
#1522 = ( LENGTH_UNIT() NAMED_UNIT(*) SI_UNIT(.MILLI.,.METRE.) );
#1523 = ( NAMED_UNIT(*) PLANE_ANGLE_UNIT() SI_UNIT($,.RADIAN.) );
#1524 = ( NAMED_UNIT(*) SI_UNIT($,.STERADIAN.) SOLID_ANGLE_UNIT() );
#1525 = UNCERTAINTY_MEASURE_WITH_UNIT(LENGTH_MEASURE(1.E-07),#1522,
  'distance_accuracy_value','confusion accuracy');
#1526 = PRODUCT_RELATED_PRODUCT_CATEGORY('part',$,(#7));
ENDSEC;
END-ISO-10303-21;
