ISO-10303-21;
HEADER;
FILE_DESCRIPTION(('FreeCAD Model'),'2;1');
FILE_NAME('Open CASCADE Shape Model','2026-08-28T13:04:07',('FreeCAD'),(
    'FreeCAD'),'Open CASCADE STEP processor 7.8','FreeCAD','Unknown');
FILE_SCHEMA(('AUTOMOTIVE_DESIGN { 1 0 10303 214 1 1 1 1 }'));
ENDSEC;
DATA;
#1 = APPLICATION_PROTOCOL_DEFINITION('international standard',
  'automotive_design',2000,#2);
#2 = APPLICATION_CONTEXT(
  'core data for automotive mechanical design processes');
#3 = SHAPE_DEFINITION_REPRESENTATION(#4,#10);
#4 = PRODUCT_DEFINITION_SHAPE('','',#5);
#5 = PRODUCT_DEFINITION('design','',#6,#9);
#6 = PRODUCT_DEFINITION_FORMATION('','',#7);
#7 = PRODUCT('Open CASCADE STEP translator 7.8 111',
  'Open CASCADE STEP translator 7.8 111','',(#8));
#8 = PRODUCT_CONTEXT('',#2,'mechanical');
#9 = PRODUCT_DEFINITION_CONTEXT('part definition',#2,'design');
#10 = ADVANCED_BREP_SHAPE_REPRESENTATION('',(#11,#15),#1521);
#11 = AXIS2_PLACEMENT_3D('',#12,#13,#14);
#12 = CARTESIAN_POINT('',(0.,0.,0.));
#13 = DIRECTION('',(0.,0.,1.));
#14 = DIRECTION('',(1.,0.,-0.));
#15 = MANIFOLD_SOLID_BREP('',#16);
#16 = CLOSED_SHELL('',(#17,#57,#374,#399,#424,#725,#742,#759,#776,#793,
    #810,#827,#844,#861,#878,#895,#912,#929,#946,#963,#980,#997,#1014,
    #1031,#1048,#1065,#1077,#1102,#1124,#1141,#1158,#1175,#1192,#1209,
    #1226,#1238,#1263,#1288,#1313,#1338,#1363,#1380,#1397,#1417,#1437,
    #1462,#1487,#1504));
#17 = ADVANCED_FACE('',(#18),#52,.T.);
#18 = FACE_BOUND('',#19,.T.);
#19 = EDGE_LOOP('',(#20,#30,#38,#46));
#20 = ORIENTED_EDGE('',*,*,#21,.F.);
#21 = EDGE_CURVE('',#22,#24,#26,.T.);
#22 = VERTEX_POINT('',#23);
#23 = CARTESIAN_POINT('',(52.041968950211,53.464484709423,9.208302395026
    ));
#24 = VERTEX_POINT('',#25);
#25 = CARTESIAN_POINT('',(36.37359284627,45.643797516701,15.613454314846
    ));
#26 = LINE('',#27,#28);
#27 = CARTESIAN_POINT('',(52.784598914894,53.835159795034,8.904719068174
    ));
#28 = VECTOR('',#29,1.);
#29 = DIRECTION('',(-0.840290939714,-0.419421422283,0.343506633362));
#30 = ORIENTED_EDGE('',*,*,#31,.T.);
#31 = EDGE_CURVE('',#22,#32,#34,.T.);
#32 = VERTEX_POINT('',#33);
#33 = CARTESIAN_POINT('',(52.041968950211,57.266189212713,
    13.850181634048));
#34 = LINE('',#35,#36);
#35 = CARTESIAN_POINT('',(52.041968950211,53.464484709423,9.208302395026
    ));
#36 = VECTOR('',#37,1.);
#37 = DIRECTION('',(0.,0.633617417215,0.773646539837));
#38 = ORIENTED_EDGE('',*,*,#39,.T.);
#39 = EDGE_CURVE('',#32,#40,#42,.T.);
#40 = VERTEX_POINT('',#41);
#41 = CARTESIAN_POINT('',(36.37359284627,49.445502019991,20.255333553868
    ));
#42 = LINE('',#43,#44);
#43 = CARTESIAN_POINT('',(52.784598914894,57.636864298324,
    13.546598307196));
#44 = VECTOR('',#45,1.);
#45 = DIRECTION('',(-0.840290939714,-0.419421422283,0.343506633362));
#46 = ORIENTED_EDGE('',*,*,#47,.F.);
#47 = EDGE_CURVE('',#24,#40,#48,.T.);
#48 = LINE('',#49,#50);
#49 = CARTESIAN_POINT('',(36.37359284627,45.643797516701,15.613454314846
    ));
#50 = VECTOR('',#51,1.);
#51 = DIRECTION('',(0.,0.633617417215,0.773646539837));
#52 = PLANE('',#53);
#53 = AXIS2_PLACEMENT_3D('',#54,#55,#56);
#54 = CARTESIAN_POINT('',(52.784598914894,53.835159795034,8.904719068174
    ));
#55 = DIRECTION('',(0.54213571791,-0.650088177966,0.532422974931));
#56 = DIRECTION('',(-0.840290939714,-0.419421422283,0.343506633362));
#57 = ADVANCED_FACE('',(#58,#255,#266,#336,#347,#358),#369,.F.);
#58 = FACE_BOUND('',#59,.F.);
#59 = EDGE_LOOP('',(#60,#61,#70,#78,#87,#95,#104,#112,#121,#129,#138,
    #146,#155,#163,#172,#180,#189,#197,#206,#214,#223,#231,#240,#248));
#60 = ORIENTED_EDGE('',*,*,#21,.F.);
#61 = ORIENTED_EDGE('',*,*,#62,.T.);
#62 = EDGE_CURVE('',#22,#63,#65,.T.);
#63 = VERTEX_POINT('',#64);
#64 = CARTESIAN_POINT('',(53.668376103942,53.835159795034,8.904719068174
    ));
#65 = CIRCLE('',#66,3.);
#66 = AXIS2_PLACEMENT_3D('',#67,#68,#69);
#67 = CARTESIAN_POINT('',(53.668376103942,51.514220175523,
    10.805571319819));
#68 = DIRECTION('',(-0.,-0.633617417215,-0.773646539837));
#69 = DIRECTION('',(0.,-0.773646539837,0.633617417215));
#70 = ORIENTED_EDGE('',*,*,#71,.F.);
#71 = EDGE_CURVE('',#72,#63,#74,.T.);
#72 = VERTEX_POINT('',#73);
#73 = CARTESIAN_POINT('',(87.1677,53.835159795034,8.904719068174));
#74 = LINE('',#75,#76);
#75 = CARTESIAN_POINT('',(90.1677,53.835159795034,8.904719068174));
#76 = VECTOR('',#77,1.);
#77 = DIRECTION('',(-1.,0.,0.));
#78 = ORIENTED_EDGE('',*,*,#79,.T.);
#79 = EDGE_CURVE('',#72,#80,#82,.T.);
#80 = VERTEX_POINT('',#81);
#81 = CARTESIAN_POINT('',(90.1677,56.156099414546,7.003866816529));
#82 = CIRCLE('',#83,3.);
#83 = AXIS2_PLACEMENT_3D('',#84,#85,#86);
#84 = CARTESIAN_POINT('',(87.1677,56.156099414546,7.003866816529));
#85 = DIRECTION('',(-0.,0.633617417215,0.773646539837));
#86 = DIRECTION('',(0.,-0.773646539837,0.633617417215));
#87 = ORIENTED_EDGE('',*,*,#88,.F.);
#88 = EDGE_CURVE('',#89,#80,#91,.T.);
#89 = VERTEX_POINT('',#90);
#90 = CARTESIAN_POINT('',(90.1677,57.70339249422,5.736631982099));
#91 = LINE('',#92,#93);
#92 = CARTESIAN_POINT('',(90.1677,60.024332113731,3.835779730454));
#93 = VECTOR('',#94,1.);
#94 = DIRECTION('',(0.,-0.773646539837,0.633617417215));
#95 = ORIENTED_EDGE('',*,*,#96,.T.);
#96 = EDGE_CURVE('',#89,#97,#99,.T.);
#97 = VERTEX_POINT('',#98);
#98 = CARTESIAN_POINT('',(87.1677,60.024332113731,3.835779730454));
#99 = CIRCLE('',#100,3.);
#100 = AXIS2_PLACEMENT_3D('',#101,#102,#103);
#101 = CARTESIAN_POINT('',(87.1677,57.70339249422,5.736631982099));
#102 = DIRECTION('',(-0.,0.633617417215,0.773646539837));
#103 = DIRECTION('',(0.,-0.773646539837,0.633617417215));
#104 = ORIENTED_EDGE('',*,*,#105,.F.);
#105 = EDGE_CURVE('',#106,#97,#108,.T.);
#106 = VERTEX_POINT('',#107);
#107 = CARTESIAN_POINT('',(53.668376103942,60.024332113731,
    3.835779730454));
#108 = LINE('',#109,#110);
#109 = CARTESIAN_POINT('',(52.784598914894,60.024332113731,
    3.835779730454));
#110 = VECTOR('',#111,1.);
#111 = DIRECTION('',(1.,0.,0.));
#112 = ORIENTED_EDGE('',*,*,#113,.T.);
#113 = EDGE_CURVE('',#106,#114,#116,.T.);
#114 = VERTEX_POINT('',#115);
#115 = CARTESIAN_POINT('',(52.041968950211,59.653657028119,
    4.139363057306));
#116 = CIRCLE('',#117,3.);
#117 = AXIS2_PLACEMENT_3D('',#118,#119,#120);
#118 = CARTESIAN_POINT('',(53.668376103942,57.70339249422,5.736631982099
    ));
#119 = DIRECTION('',(-0.,0.633617417215,0.773646539837));
#120 = DIRECTION('',(0.,-0.773646539837,0.633617417215));
#121 = ORIENTED_EDGE('',*,*,#122,.F.);
#122 = EDGE_CURVE('',#123,#114,#125,.T.);
#123 = VERTEX_POINT('',#124);
#124 = CARTESIAN_POINT('',(-7.851534904569,29.758513114227,
    28.623520742521));
#125 = LINE('',#126,#127);
#126 = CARTESIAN_POINT('',(-9.225127750839,29.072900265163,
    29.185038464458));
#127 = VECTOR('',#128,1.);
#128 = DIRECTION('',(0.840290939714,0.419421422283,-0.343506633362));
#129 = ORIENTED_EDGE('',*,*,#130,.T.);
#130 = EDGE_CURVE('',#123,#131,#133,.T.);
#131 = VERTEX_POINT('',#132);
#132 = CARTESIAN_POINT('',(-9.225127750839,27.808248580328,
    30.220789667314));
#133 = CIRCLE('',#134,3.);
#134 = AXIS2_PLACEMENT_3D('',#135,#136,#137);
#135 = CARTESIAN_POINT('',(-6.225127750839,27.808248580328,
    30.220789667314));
#136 = DIRECTION('',(-0.,0.633617417215,0.773646539837));
#137 = DIRECTION('',(0.,-0.773646539837,0.633617417215));
#138 = ORIENTED_EDGE('',*,*,#139,.T.);
#139 = EDGE_CURVE('',#131,#140,#142,.T.);
#140 = VERTEX_POINT('',#141);
#141 = CARTESIAN_POINT('',(-9.225127750839,24.148626444642,
    33.218024458909));
#142 = LINE('',#143,#144);
#143 = CARTESIAN_POINT('',(-9.225127750839,29.072900265163,
    29.185038464458));
#144 = VECTOR('',#145,1.);
#145 = DIRECTION('',(0.,-0.773646539837,0.633617417215));
#146 = ORIENTED_EDGE('',*,*,#147,.T.);
#147 = EDGE_CURVE('',#140,#148,#150,.T.);
#148 = VERTEX_POINT('',#149);
#149 = CARTESIAN_POINT('',(-7.851121493705,22.198155598669,
    34.81546235353));
#150 = CIRCLE('',#151,3.);
#151 = AXIS2_PLACEMENT_3D('',#152,#153,#154);
#152 = CARTESIAN_POINT('',(-6.225127750839,24.148626444642,
    33.218024458909));
#153 = DIRECTION('',(-0.,0.633617417215,0.773646539837));
#154 = DIRECTION('',(0.,-0.773646539837,0.633617417215));
#155 = ORIENTED_EDGE('',*,*,#156,.F.);
#156 = EDGE_CURVE('',#157,#148,#159,.T.);
#157 = VERTEX_POINT('',#158);
#158 = CARTESIAN_POINT('',(52.042115040581,-7.686094618389,
    59.29069808835));
#159 = LINE('',#160,#161);
#160 = CARTESIAN_POINT('',(52.784598914894,-8.056563391927,
    59.594112445374));
#161 = VECTOR('',#162,1.);
#162 = DIRECTION('',(-0.84037983133,0.419314810988,-0.343419318587));
#163 = ORIENTED_EDGE('',*,*,#164,.F.);
#164 = EDGE_CURVE('',#165,#157,#167,.T.);
#165 = VERTEX_POINT('',#166);
#166 = CARTESIAN_POINT('',(53.668108783447,-8.056563391927,
    59.594112445374));
#167 = CIRCLE('',#168,3.);
#168 = AXIS2_PLACEMENT_3D('',#169,#170,#171);
#169 = CARTESIAN_POINT('',(53.668108783447,-5.735623772416,
    57.693260193729));
#170 = DIRECTION('',(-0.,-0.633617417215,-0.773646539837));
#171 = DIRECTION('',(0.,-0.773646539837,0.633617417215));
#172 = ORIENTED_EDGE('',*,*,#173,.F.);
#173 = EDGE_CURVE('',#174,#165,#176,.T.);
#174 = VERTEX_POINT('',#175);
#175 = CARTESIAN_POINT('',(87.1677,-8.056563391927,59.594112445374));
#176 = LINE('',#177,#178);
#177 = CARTESIAN_POINT('',(90.1677,-8.056563391927,59.594112445374));
#178 = VECTOR('',#179,1.);
#179 = DIRECTION('',(-1.,0.,0.));
#180 = ORIENTED_EDGE('',*,*,#181,.F.);
#181 = EDGE_CURVE('',#182,#174,#184,.T.);
#182 = VERTEX_POINT('',#183);
#183 = CARTESIAN_POINT('',(90.1677,-5.735623772416,57.693260193729));
#184 = CIRCLE('',#185,3.);
#185 = AXIS2_PLACEMENT_3D('',#186,#187,#188);
#186 = CARTESIAN_POINT('',(87.1677,-5.735623772416,57.693260193729));
#187 = DIRECTION('',(-0.,-0.633617417215,-0.773646539837));
#188 = DIRECTION('',(0.,-0.773646539837,0.633617417215));
#189 = ORIENTED_EDGE('',*,*,#190,.F.);
#190 = EDGE_CURVE('',#191,#182,#193,.T.);
#191 = VERTEX_POINT('',#192);
#192 = CARTESIAN_POINT('',(90.1677,-4.188330692742,56.426025359299));
#193 = LINE('',#194,#195);
#194 = CARTESIAN_POINT('',(90.1677,-1.867391073231,54.525173107654));
#195 = VECTOR('',#196,1.);
#196 = DIRECTION('',(0.,-0.773646539837,0.633617417215));
#197 = ORIENTED_EDGE('',*,*,#198,.F.);
#198 = EDGE_CURVE('',#199,#191,#201,.T.);
#199 = VERTEX_POINT('',#200);
#200 = CARTESIAN_POINT('',(87.1677,-1.867391073231,54.525173107654));
#201 = CIRCLE('',#202,3.);
#202 = AXIS2_PLACEMENT_3D('',#203,#204,#205);
#203 = CARTESIAN_POINT('',(87.1677,-4.188330692742,56.426025359299));
#204 = DIRECTION('',(-0.,-0.633617417215,-0.773646539837));
#205 = DIRECTION('',(0.,-0.773646539837,0.633617417215));
#206 = ORIENTED_EDGE('',*,*,#207,.F.);
#207 = EDGE_CURVE('',#208,#199,#210,.T.);
#208 = VERTEX_POINT('',#209);
#209 = CARTESIAN_POINT('',(53.668108783447,-1.867391073231,
    54.525173107654));
#210 = LINE('',#211,#212);
#211 = CARTESIAN_POINT('',(52.784598914894,-1.867391073231,
    54.525173107654));
#212 = VECTOR('',#213,1.);
#213 = DIRECTION('',(1.,-1.46992842569E-16,1.203873092708E-16));
#214 = ORIENTED_EDGE('',*,*,#215,.F.);
#215 = EDGE_CURVE('',#216,#208,#218,.T.);
#216 = VERTEX_POINT('',#217);
#217 = CARTESIAN_POINT('',(52.042115040581,-1.496922299693,
    54.22175875063));
#218 = CIRCLE('',#219,3.);
#219 = AXIS2_PLACEMENT_3D('',#220,#221,#222);
#220 = CARTESIAN_POINT('',(53.668108783447,0.45354854628,52.624320856009
    ));
#221 = DIRECTION('',(-0.,0.633617417215,0.773646539837));
#222 = DIRECTION('',(0.,-0.773646539837,0.633617417215));
#223 = ORIENTED_EDGE('',*,*,#224,.F.);
#224 = EDGE_CURVE('',#225,#216,#227,.T.);
#225 = VERTEX_POINT('',#226);
#226 = CARTESIAN_POINT('',(36.374006257134,6.320816570448,
    47.819021510439));
#227 = LINE('',#228,#229);
#228 = CARTESIAN_POINT('',(35.,7.006388918245,47.257536959087));
#229 = VECTOR('',#230,1.);
#230 = DIRECTION('',(0.84037983133,-0.419314810988,0.343419318587));
#231 = ORIENTED_EDGE('',*,*,#232,.F.);
#232 = EDGE_CURVE('',#233,#225,#235,.T.);
#233 = VERTEX_POINT('',#234);
#234 = CARTESIAN_POINT('',(35.,8.27128741642,46.221583615817));
#235 = CIRCLE('',#236,3.);
#236 = AXIS2_PLACEMENT_3D('',#237,#238,#239);
#237 = CARTESIAN_POINT('',(38.,8.27128741642,46.221583615817));
#238 = DIRECTION('',(-0.,0.633617417215,0.773646539837));
#239 = DIRECTION('',(0.,-0.773646539837,0.633617417215));
#240 = ORIENTED_EDGE('',*,*,#241,.F.);
#241 = EDGE_CURVE('',#242,#233,#244,.T.);
#242 = VERTEX_POINT('',#243);
#243 = CARTESIAN_POINT('',(35.,43.693532982802,17.210723239639));
#244 = LINE('',#245,#246);
#245 = CARTESIAN_POINT('',(35.,44.958184667636,16.174972036783));
#246 = VECTOR('',#247,1.);
#247 = DIRECTION('',(0.,-0.773646539837,0.633617417215));
#248 = ORIENTED_EDGE('',*,*,#249,.F.);
#249 = EDGE_CURVE('',#24,#242,#250,.T.);
#250 = CIRCLE('',#251,3.);
#251 = AXIS2_PLACEMENT_3D('',#252,#253,#254);
#252 = CARTESIAN_POINT('',(38.,43.693532982802,17.210723239639));
#253 = DIRECTION('',(-0.,0.633617417215,0.773646539837));
#254 = DIRECTION('',(0.,-0.773646539837,0.633617417215));
#255 = FACE_BOUND('',#256,.F.);
#256 = EDGE_LOOP('',(#257));
#257 = ORIENTED_EDGE('',*,*,#258,.T.);
#258 = EDGE_CURVE('',#259,#259,#261,.T.);
#259 = VERTEX_POINT('',#260);
#260 = CARTESIAN_POINT('',(4.,25.978314105815,31.719508133318));
#261 = CIRCLE('',#262,4.);
#262 = AXIS2_PLACEMENT_3D('',#263,#264,#265);
#263 = CARTESIAN_POINT('',(0.,25.978314105815,31.719508133318));
#264 = DIRECTION('',(0.,-0.633617417215,-0.773646539837));
#265 = DIRECTION('',(1.,0.,0.));
#266 = FACE_BOUND('',#267,.F.);
#267 = EDGE_LOOP('',(#268,#278,#287,#295,#304,#312,#321,#329));
#268 = ORIENTED_EDGE('',*,*,#269,.F.);
#269 = EDGE_CURVE('',#270,#272,#274,.T.);
#270 = VERTEX_POINT('',#271);
#271 = CARTESIAN_POINT('',(9.225127750839,27.808248580328,
    30.220789667314));
#272 = VERTEX_POINT('',#273);
#273 = CARTESIAN_POINT('',(9.225127750839,24.148626444642,
    33.218024458909));
#274 = LINE('',#275,#276);
#275 = CARTESIAN_POINT('',(9.225127750839,29.072900265163,
    29.185038464458));
#276 = VECTOR('',#277,1.);
#277 = DIRECTION('',(0.,-0.773646539837,0.633617417215));
#278 = ORIENTED_EDGE('',*,*,#279,.T.);
#279 = EDGE_CURVE('',#270,#280,#282,.T.);
#280 = VERTEX_POINT('',#281);
#281 = CARTESIAN_POINT('',(10.598720597108,29.758513114227,
    28.623520742521));
#282 = CIRCLE('',#283,3.);
#283 = AXIS2_PLACEMENT_3D('',#284,#285,#286);
#284 = CARTESIAN_POINT('',(12.225127750839,27.808248580328,
    30.220789667314));
#285 = DIRECTION('',(-0.,-0.633617417215,-0.773646539837));
#286 = DIRECTION('',(0.,-0.773646539837,0.633617417215));
#287 = ORIENTED_EDGE('',*,*,#288,.F.);
#288 = EDGE_CURVE('',#289,#280,#291,.T.);
#289 = VERTEX_POINT('',#290);
#290 = CARTESIAN_POINT('',(20.37359284627,34.637526593504,
    24.627603020266));
#291 = LINE('',#292,#293);
#292 = CARTESIAN_POINT('',(25.,36.946743766711,22.736351465797));
#293 = VECTOR('',#294,1.);
#294 = DIRECTION('',(-0.840290939714,-0.419421422283,0.343506633362));
#295 = ORIENTED_EDGE('',*,*,#296,.T.);
#296 = EDGE_CURVE('',#289,#297,#299,.T.);
#297 = VERTEX_POINT('',#298);
#298 = CARTESIAN_POINT('',(25.,32.687262059604,26.224871945059));
#299 = CIRCLE('',#300,3.);
#300 = AXIS2_PLACEMENT_3D('',#301,#302,#303);
#301 = CARTESIAN_POINT('',(22.,32.687262059604,26.224871945059));
#302 = DIRECTION('',(-0.,-0.633617417215,-0.773646539837));
#303 = DIRECTION('',(0.,-0.773646539837,0.633617417215));
#304 = ORIENTED_EDGE('',*,*,#305,.T.);
#305 = EDGE_CURVE('',#297,#306,#308,.T.);
#306 = VERTEX_POINT('',#307);
#307 = CARTESIAN_POINT('',(25.,19.271369094115,37.212503909673));
#308 = LINE('',#309,#310);
#309 = CARTESIAN_POINT('',(25.,36.946743766711,22.736351465797));
#310 = VECTOR('',#311,1.);
#311 = DIRECTION('',(0.,-0.773646539837,0.633617417215));
#312 = ORIENTED_EDGE('',*,*,#313,.F.);
#313 = EDGE_CURVE('',#314,#306,#316,.T.);
#314 = VERTEX_POINT('',#315);
#315 = CARTESIAN_POINT('',(20.374006257134,17.320898248142,
    38.809941804294));
#316 = CIRCLE('',#317,3.);
#317 = AXIS2_PLACEMENT_3D('',#318,#319,#320);
#318 = CARTESIAN_POINT('',(22.,19.271369094115,37.212503909673));
#319 = DIRECTION('',(-0.,0.633617417215,0.773646539837));
#320 = DIRECTION('',(0.,-0.773646539837,0.633617417215));
#321 = ORIENTED_EDGE('',*,*,#322,.F.);
#322 = EDGE_CURVE('',#323,#314,#325,.T.);
#323 = VERTEX_POINT('',#324);
#324 = CARTESIAN_POINT('',(10.599134007973,22.198155598669,
    34.81546235353));
#325 = LINE('',#326,#327);
#326 = CARTESIAN_POINT('',(9.225127750839,22.883727946467,
    34.253977802178));
#327 = VECTOR('',#328,1.);
#328 = DIRECTION('',(0.84037983133,-0.419314810988,0.343419318587));
#329 = ORIENTED_EDGE('',*,*,#330,.F.);
#330 = EDGE_CURVE('',#272,#323,#331,.T.);
#331 = CIRCLE('',#332,3.);
#332 = AXIS2_PLACEMENT_3D('',#333,#334,#335);
#333 = CARTESIAN_POINT('',(12.225127750839,24.148626444642,
    33.218024458909));
#334 = DIRECTION('',(-0.,0.633617417215,0.773646539837));
#335 = DIRECTION('',(0.,-0.773646539837,0.633617417215));
#336 = FACE_BOUND('',#337,.F.);
#337 = EDGE_LOOP('',(#338));
#338 = ORIENTED_EDGE('',*,*,#339,.T.);
#339 = EDGE_CURVE('',#340,#340,#342,.T.);
#340 = VERTEX_POINT('',#341);
#341 = CARTESIAN_POINT('',(34.,25.978314105815,31.719508133318));
#342 = CIRCLE('',#343,4.);
#343 = AXIS2_PLACEMENT_3D('',#344,#345,#346);
#344 = CARTESIAN_POINT('',(30.,25.978314105815,31.719508133318));
#345 = DIRECTION('',(0.,-0.633617417215,-0.773646539837));
#346 = DIRECTION('',(1.,0.,0.));
#347 = FACE_BOUND('',#348,.F.);
#348 = EDGE_LOOP('',(#349));
#349 = ORIENTED_EDGE('',*,*,#350,.T.);
#350 = EDGE_CURVE('',#351,#351,#353,.T.);
#351 = VERTEX_POINT('',#352);
#352 = CARTESIAN_POINT('',(87.3677,-4.961977232579,57.059642776514));
#353 = CIRCLE('',#354,1.7);
#354 = AXIS2_PLACEMENT_3D('',#355,#356,#357);
#355 = CARTESIAN_POINT('',(85.6677,-4.961977232579,57.059642776514));
#356 = DIRECTION('',(0.,-0.633617417215,-0.773646539837));
#357 = DIRECTION('',(1.,0.,0.));
#358 = FACE_BOUND('',#359,.F.);
#359 = EDGE_LOOP('',(#360));
#360 = ORIENTED_EDGE('',*,*,#361,.T.);
#361 = EDGE_CURVE('',#362,#362,#364,.T.);
#362 = VERTEX_POINT('',#363);
#363 = CARTESIAN_POINT('',(87.3677,56.929745954383,6.370249399314));
#364 = CIRCLE('',#365,1.7);
#365 = AXIS2_PLACEMENT_3D('',#366,#367,#368);
#366 = CARTESIAN_POINT('',(85.6677,56.929745954383,6.370249399314));
#367 = DIRECTION('',(0.,-0.633617417215,-0.773646539837));
#368 = DIRECTION('',(1.,0.,0.));
#369 = PLANE('',#370);
#370 = AXIS2_PLACEMENT_3D('',#371,#372,#373);
#371 = CARTESIAN_POINT('',(42.230243904438,25.982356540329,
    31.716197374742));
#372 = DIRECTION('',(0.,0.633617417215,0.773646539837));
#373 = DIRECTION('',(1.,0.,0.));
#374 = ADVANCED_FACE('',(#375),#394,.F.);
#375 = FACE_BOUND('',#376,.T.);
#376 = EDGE_LOOP('',(#377,#378,#386,#393));
#377 = ORIENTED_EDGE('',*,*,#62,.T.);
#378 = ORIENTED_EDGE('',*,*,#379,.T.);
#379 = EDGE_CURVE('',#63,#380,#382,.T.);
#380 = VERTEX_POINT('',#381);
#381 = CARTESIAN_POINT('',(53.668376103942,57.636864298324,
    13.546598307196));
#382 = LINE('',#383,#384);
#383 = CARTESIAN_POINT('',(53.668376103942,53.835159795034,
    8.904719068174));
#384 = VECTOR('',#385,1.);
#385 = DIRECTION('',(0.,0.633617417215,0.773646539837));
#386 = ORIENTED_EDGE('',*,*,#387,.F.);
#387 = EDGE_CURVE('',#32,#380,#388,.T.);
#388 = CIRCLE('',#389,3.);
#389 = AXIS2_PLACEMENT_3D('',#390,#391,#392);
#390 = CARTESIAN_POINT('',(53.668376103942,55.315924678813,
    15.447450558841));
#391 = DIRECTION('',(-0.,-0.633617417215,-0.773646539837));
#392 = DIRECTION('',(0.,-0.773646539837,0.633617417215));
#393 = ORIENTED_EDGE('',*,*,#31,.F.);
#394 = CYLINDRICAL_SURFACE('',#395,3.);
#395 = AXIS2_PLACEMENT_3D('',#396,#397,#398);
#396 = CARTESIAN_POINT('',(53.668376103942,51.514220175523,
    10.805571319819));
#397 = DIRECTION('',(0.,0.633617417215,0.773646539837));
#398 = DIRECTION('',(-0.54213571791,0.650088177966,-0.532422974931));
#399 = ADVANCED_FACE('',(#400),#419,.F.);
#400 = FACE_BOUND('',#401,.F.);
#401 = EDGE_LOOP('',(#402,#403,#411,#418));
#402 = ORIENTED_EDGE('',*,*,#249,.T.);
#403 = ORIENTED_EDGE('',*,*,#404,.T.);
#404 = EDGE_CURVE('',#242,#405,#407,.T.);
#405 = VERTEX_POINT('',#406);
#406 = CARTESIAN_POINT('',(35.,47.495237486092,21.852602478661));
#407 = LINE('',#408,#409);
#408 = CARTESIAN_POINT('',(35.,43.693532982802,17.210723239639));
#409 = VECTOR('',#410,1.);
#410 = DIRECTION('',(0.,0.633617417215,0.773646539837));
#411 = ORIENTED_EDGE('',*,*,#412,.F.);
#412 = EDGE_CURVE('',#40,#405,#413,.T.);
#413 = CIRCLE('',#414,3.);
#414 = AXIS2_PLACEMENT_3D('',#415,#416,#417);
#415 = CARTESIAN_POINT('',(38.,47.495237486092,21.852602478661));
#416 = DIRECTION('',(-0.,0.633617417215,0.773646539837));
#417 = DIRECTION('',(0.,-0.773646539837,0.633617417215));
#418 = ORIENTED_EDGE('',*,*,#47,.F.);
#419 = CYLINDRICAL_SURFACE('',#420,3.);
#420 = AXIS2_PLACEMENT_3D('',#421,#422,#423);
#421 = CARTESIAN_POINT('',(38.,43.693532982802,17.210723239639));
#422 = DIRECTION('',(0.,0.633617417215,0.773646539837));
#423 = DIRECTION('',(-0.54213571791,0.650088177966,-0.532422974931));
#424 = ADVANCED_FACE('',(#425,#606,#617,#628,#639,#650),#720,.T.);
#425 = FACE_BOUND('',#426,.T.);
#426 = EDGE_LOOP('',(#427,#428,#429,#437,#446,#454,#463,#471,#480,#488,
    #497,#505,#514,#522,#531,#539,#548,#556,#565,#573,#582,#590,#599,
    #605));
#427 = ORIENTED_EDGE('',*,*,#39,.F.);
#428 = ORIENTED_EDGE('',*,*,#387,.T.);
#429 = ORIENTED_EDGE('',*,*,#430,.F.);
#430 = EDGE_CURVE('',#431,#380,#433,.T.);
#431 = VERTEX_POINT('',#432);
#432 = CARTESIAN_POINT('',(87.1677,57.636864298324,13.546598307196));
#433 = LINE('',#434,#435);
#434 = CARTESIAN_POINT('',(90.1677,57.636864298324,13.546598307196));
#435 = VECTOR('',#436,1.);
#436 = DIRECTION('',(-1.,0.,0.));
#437 = ORIENTED_EDGE('',*,*,#438,.T.);
#438 = EDGE_CURVE('',#431,#439,#441,.T.);
#439 = VERTEX_POINT('',#440);
#440 = CARTESIAN_POINT('',(90.1677,59.957803917835,11.645746055551));
#441 = CIRCLE('',#442,3.);
#442 = AXIS2_PLACEMENT_3D('',#443,#444,#445);
#443 = CARTESIAN_POINT('',(87.1677,59.957803917835,11.645746055551));
#444 = DIRECTION('',(-0.,0.633617417215,0.773646539837));
#445 = DIRECTION('',(0.,-0.773646539837,0.633617417215));
#446 = ORIENTED_EDGE('',*,*,#447,.F.);
#447 = EDGE_CURVE('',#448,#439,#450,.T.);
#448 = VERTEX_POINT('',#449);
#449 = CARTESIAN_POINT('',(90.1677,61.50509699751,10.378511221121));
#450 = LINE('',#451,#452);
#451 = CARTESIAN_POINT('',(90.1677,63.826036617021,8.477658969476));
#452 = VECTOR('',#453,1.);
#453 = DIRECTION('',(0.,-0.773646539837,0.633617417215));
#454 = ORIENTED_EDGE('',*,*,#455,.T.);
#455 = EDGE_CURVE('',#448,#456,#458,.T.);
#456 = VERTEX_POINT('',#457);
#457 = CARTESIAN_POINT('',(87.1677,63.826036617021,8.477658969476));
#458 = CIRCLE('',#459,3.);
#459 = AXIS2_PLACEMENT_3D('',#460,#461,#462);
#460 = CARTESIAN_POINT('',(87.1677,61.50509699751,10.378511221121));
#461 = DIRECTION('',(-0.,0.633617417215,0.773646539837));
#462 = DIRECTION('',(0.,-0.773646539837,0.633617417215));
#463 = ORIENTED_EDGE('',*,*,#464,.F.);
#464 = EDGE_CURVE('',#465,#456,#467,.T.);
#465 = VERTEX_POINT('',#466);
#466 = CARTESIAN_POINT('',(53.668376103942,63.826036617021,
    8.477658969476));
#467 = LINE('',#468,#469);
#468 = CARTESIAN_POINT('',(52.784598914894,63.826036617021,
    8.477658969476));
#469 = VECTOR('',#470,1.);
#470 = DIRECTION('',(1.,0.,0.));
#471 = ORIENTED_EDGE('',*,*,#472,.T.);
#472 = EDGE_CURVE('',#465,#473,#475,.T.);
#473 = VERTEX_POINT('',#474);
#474 = CARTESIAN_POINT('',(52.041968950211,63.455361531409,
    8.781242296328));
#475 = CIRCLE('',#476,3.);
#476 = AXIS2_PLACEMENT_3D('',#477,#478,#479);
#477 = CARTESIAN_POINT('',(53.668376103942,61.50509699751,
    10.378511221121));
#478 = DIRECTION('',(-0.,0.633617417215,0.773646539837));
#479 = DIRECTION('',(0.,-0.773646539837,0.633617417215));
#480 = ORIENTED_EDGE('',*,*,#481,.F.);
#481 = EDGE_CURVE('',#482,#473,#484,.T.);
#482 = VERTEX_POINT('',#483);
#483 = CARTESIAN_POINT('',(-7.851534904569,33.560217617517,
    33.265399981543));
#484 = LINE('',#485,#486);
#485 = CARTESIAN_POINT('',(-9.225127750839,32.874604768453,
    33.82691770348));
#486 = VECTOR('',#487,1.);
#487 = DIRECTION('',(0.840290939714,0.419421422283,-0.343506633362));
#488 = ORIENTED_EDGE('',*,*,#489,.T.);
#489 = EDGE_CURVE('',#482,#490,#492,.T.);
#490 = VERTEX_POINT('',#491);
#491 = CARTESIAN_POINT('',(-9.225127750839,31.609953083618,
    34.862668906336));
#492 = CIRCLE('',#493,3.);
#493 = AXIS2_PLACEMENT_3D('',#494,#495,#496);
#494 = CARTESIAN_POINT('',(-6.225127750839,31.609953083618,
    34.862668906336));
#495 = DIRECTION('',(-0.,0.633617417215,0.773646539837));
#496 = DIRECTION('',(0.,-0.773646539837,0.633617417215));
#497 = ORIENTED_EDGE('',*,*,#498,.T.);
#498 = EDGE_CURVE('',#490,#499,#501,.T.);
#499 = VERTEX_POINT('',#500);
#500 = CARTESIAN_POINT('',(-9.225127750839,27.950330947932,
    37.859903697931));
#501 = LINE('',#502,#503);
#502 = CARTESIAN_POINT('',(-9.225127750839,32.874604768453,
    33.82691770348));
#503 = VECTOR('',#504,1.);
#504 = DIRECTION('',(0.,-0.773646539837,0.633617417215));
#505 = ORIENTED_EDGE('',*,*,#506,.T.);
#506 = EDGE_CURVE('',#499,#507,#509,.T.);
#507 = VERTEX_POINT('',#508);
#508 = CARTESIAN_POINT('',(-7.851121493705,25.999860101959,
    39.457341592552));
#509 = CIRCLE('',#510,3.);
#510 = AXIS2_PLACEMENT_3D('',#511,#512,#513);
#511 = CARTESIAN_POINT('',(-6.225127750839,27.950330947932,
    37.859903697931));
#512 = DIRECTION('',(-0.,0.633617417215,0.773646539837));
#513 = DIRECTION('',(0.,-0.773646539837,0.633617417215));
#514 = ORIENTED_EDGE('',*,*,#515,.F.);
#515 = EDGE_CURVE('',#516,#507,#518,.T.);
#516 = VERTEX_POINT('',#517);
#517 = CARTESIAN_POINT('',(52.042115040581,-3.884390115099,
    63.932577327372));
#518 = LINE('',#519,#520);
#519 = CARTESIAN_POINT('',(52.784598914894,-4.254858888637,
    64.235991684396));
#520 = VECTOR('',#521,1.);
#521 = DIRECTION('',(-0.84037983133,0.419314810988,-0.343419318587));
#522 = ORIENTED_EDGE('',*,*,#523,.F.);
#523 = EDGE_CURVE('',#524,#516,#526,.T.);
#524 = VERTEX_POINT('',#525);
#525 = CARTESIAN_POINT('',(53.668108783447,-4.254858888637,
    64.235991684396));
#526 = CIRCLE('',#527,3.);
#527 = AXIS2_PLACEMENT_3D('',#528,#529,#530);
#528 = CARTESIAN_POINT('',(53.668108783447,-1.933919269126,
    62.335139432751));
#529 = DIRECTION('',(-0.,-0.633617417215,-0.773646539837));
#530 = DIRECTION('',(0.,-0.773646539837,0.633617417215));
#531 = ORIENTED_EDGE('',*,*,#532,.F.);
#532 = EDGE_CURVE('',#533,#524,#535,.T.);
#533 = VERTEX_POINT('',#534);
#534 = CARTESIAN_POINT('',(87.1677,-4.254858888637,64.235991684396));
#535 = LINE('',#536,#537);
#536 = CARTESIAN_POINT('',(90.1677,-4.254858888637,64.235991684396));
#537 = VECTOR('',#538,1.);
#538 = DIRECTION('',(-1.,0.,0.));
#539 = ORIENTED_EDGE('',*,*,#540,.F.);
#540 = EDGE_CURVE('',#541,#533,#543,.T.);
#541 = VERTEX_POINT('',#542);
#542 = CARTESIAN_POINT('',(90.1677,-1.933919269126,62.335139432751));
#543 = CIRCLE('',#544,3.);
#544 = AXIS2_PLACEMENT_3D('',#545,#546,#547);
#545 = CARTESIAN_POINT('',(87.1677,-1.933919269126,62.335139432751));
#546 = DIRECTION('',(-0.,-0.633617417215,-0.773646539837));
#547 = DIRECTION('',(0.,-0.773646539837,0.633617417215));
#548 = ORIENTED_EDGE('',*,*,#549,.F.);
#549 = EDGE_CURVE('',#550,#541,#552,.T.);
#550 = VERTEX_POINT('',#551);
#551 = CARTESIAN_POINT('',(90.1677,-0.386626189452,61.067904598321));
#552 = LINE('',#553,#554);
#553 = CARTESIAN_POINT('',(90.1677,1.934313430059,59.167052346676));
#554 = VECTOR('',#555,1.);
#555 = DIRECTION('',(0.,-0.773646539837,0.633617417215));
#556 = ORIENTED_EDGE('',*,*,#557,.F.);
#557 = EDGE_CURVE('',#558,#550,#560,.T.);
#558 = VERTEX_POINT('',#559);
#559 = CARTESIAN_POINT('',(87.1677,1.934313430059,59.167052346676));
#560 = CIRCLE('',#561,3.);
#561 = AXIS2_PLACEMENT_3D('',#562,#563,#564);
#562 = CARTESIAN_POINT('',(87.1677,-0.386626189452,61.067904598321));
#563 = DIRECTION('',(-0.,-0.633617417215,-0.773646539837));
#564 = DIRECTION('',(0.,-0.773646539837,0.633617417215));
#565 = ORIENTED_EDGE('',*,*,#566,.F.);
#566 = EDGE_CURVE('',#567,#558,#569,.T.);
#567 = VERTEX_POINT('',#568);
#568 = CARTESIAN_POINT('',(53.668108783447,1.934313430059,
    59.167052346676));
#569 = LINE('',#570,#571);
#570 = CARTESIAN_POINT('',(52.784598914894,1.934313430059,
    59.167052346676));
#571 = VECTOR('',#572,1.);
#572 = DIRECTION('',(1.,-1.46992842569E-16,1.203873092708E-16));
#573 = ORIENTED_EDGE('',*,*,#574,.F.);
#574 = EDGE_CURVE('',#575,#567,#577,.T.);
#575 = VERTEX_POINT('',#576);
#576 = CARTESIAN_POINT('',(52.042115040581,2.304782203597,
    58.863637989652));
#577 = CIRCLE('',#578,3.);
#578 = AXIS2_PLACEMENT_3D('',#579,#580,#581);
#579 = CARTESIAN_POINT('',(53.668108783447,4.25525304957,57.266200095031
    ));
#580 = DIRECTION('',(-0.,0.633617417215,0.773646539837));
#581 = DIRECTION('',(0.,-0.773646539837,0.633617417215));
#582 = ORIENTED_EDGE('',*,*,#583,.F.);
#583 = EDGE_CURVE('',#584,#575,#586,.T.);
#584 = VERTEX_POINT('',#585);
#585 = CARTESIAN_POINT('',(36.374006257134,10.122521073738,
    52.460900749461));
#586 = LINE('',#587,#588);
#587 = CARTESIAN_POINT('',(35.,10.808093421535,51.899416198109));
#588 = VECTOR('',#589,1.);
#589 = DIRECTION('',(0.84037983133,-0.419314810988,0.343419318587));
#590 = ORIENTED_EDGE('',*,*,#591,.F.);
#591 = EDGE_CURVE('',#592,#584,#594,.T.);
#592 = VERTEX_POINT('',#593);
#593 = CARTESIAN_POINT('',(35.,12.07299191971,50.86346285484));
#594 = CIRCLE('',#595,3.);
#595 = AXIS2_PLACEMENT_3D('',#596,#597,#598);
#596 = CARTESIAN_POINT('',(38.,12.07299191971,50.86346285484));
#597 = DIRECTION('',(-0.,0.633617417215,0.773646539837));
#598 = DIRECTION('',(0.,-0.773646539837,0.633617417215));
#599 = ORIENTED_EDGE('',*,*,#600,.F.);
#600 = EDGE_CURVE('',#405,#592,#601,.T.);
#601 = LINE('',#602,#603);
#602 = CARTESIAN_POINT('',(35.,48.759889170926,20.816851275805));
#603 = VECTOR('',#604,1.);
#604 = DIRECTION('',(0.,-0.773646539837,0.633617417215));
#605 = ORIENTED_EDGE('',*,*,#412,.F.);
#606 = FACE_BOUND('',#607,.T.);
#607 = EDGE_LOOP('',(#608));
#608 = ORIENTED_EDGE('',*,*,#609,.F.);
#609 = EDGE_CURVE('',#610,#610,#612,.T.);
#610 = VERTEX_POINT('',#611);
#611 = CARTESIAN_POINT('',(3.35,29.780018609105,36.36138737234));
#612 = CIRCLE('',#613,3.35);
#613 = AXIS2_PLACEMENT_3D('',#614,#615,#616);
#614 = CARTESIAN_POINT('',(0.,29.780018609105,36.36138737234));
#615 = DIRECTION('',(-0.,0.633617417215,0.773646539837));
#616 = DIRECTION('',(1.,0.,0.));
#617 = FACE_BOUND('',#618,.T.);
#618 = EDGE_LOOP('',(#619));
#619 = ORIENTED_EDGE('',*,*,#620,.F.);
#620 = EDGE_CURVE('',#621,#621,#623,.T.);
#621 = VERTEX_POINT('',#622);
#622 = CARTESIAN_POINT('',(33.35,29.780018609105,36.36138737234));
#623 = CIRCLE('',#624,3.35);
#624 = AXIS2_PLACEMENT_3D('',#625,#626,#627);
#625 = CARTESIAN_POINT('',(30.,29.780018609105,36.36138737234));
#626 = DIRECTION('',(-0.,0.633617417215,0.773646539837));
#627 = DIRECTION('',(1.,0.,0.));
#628 = FACE_BOUND('',#629,.T.);
#629 = EDGE_LOOP('',(#630));
#630 = ORIENTED_EDGE('',*,*,#631,.F.);
#631 = EDGE_CURVE('',#632,#632,#634,.T.);
#632 = VERTEX_POINT('',#633);
#633 = CARTESIAN_POINT('',(89.0177,-1.160272729289,61.701522015536));
#634 = CIRCLE('',#635,3.35);
#635 = AXIS2_PLACEMENT_3D('',#636,#637,#638);
#636 = CARTESIAN_POINT('',(85.6677,-1.160272729289,61.701522015536));
#637 = DIRECTION('',(-0.,0.633617417215,0.773646539837));
#638 = DIRECTION('',(1.,0.,0.));
#639 = FACE_BOUND('',#640,.T.);
#640 = EDGE_LOOP('',(#641));
#641 = ORIENTED_EDGE('',*,*,#642,.F.);
#642 = EDGE_CURVE('',#643,#643,#645,.T.);
#643 = VERTEX_POINT('',#644);
#644 = CARTESIAN_POINT('',(89.0177,60.731450457673,11.012128638336));
#645 = CIRCLE('',#646,3.35);
#646 = AXIS2_PLACEMENT_3D('',#647,#648,#649);
#647 = CARTESIAN_POINT('',(85.6677,60.731450457673,11.012128638336));
#648 = DIRECTION('',(-0.,0.633617417215,0.773646539837));
#649 = DIRECTION('',(1.,0.,0.));
#650 = FACE_BOUND('',#651,.T.);
#651 = EDGE_LOOP('',(#652,#662,#671,#679,#688,#696,#705,#713));
#652 = ORIENTED_EDGE('',*,*,#653,.F.);
#653 = EDGE_CURVE('',#654,#656,#658,.T.);
#654 = VERTEX_POINT('',#655);
#655 = CARTESIAN_POINT('',(9.225127750839,31.609953083618,
    34.862668906336));
#656 = VERTEX_POINT('',#657);
#657 = CARTESIAN_POINT('',(9.225127750839,27.950330947932,
    37.859903697931));
#658 = LINE('',#659,#660);
#659 = CARTESIAN_POINT('',(9.225127750839,32.874604768453,33.82691770348
    ));
#660 = VECTOR('',#661,1.);
#661 = DIRECTION('',(0.,-0.773646539837,0.633617417215));
#662 = ORIENTED_EDGE('',*,*,#663,.T.);
#663 = EDGE_CURVE('',#654,#664,#666,.T.);
#664 = VERTEX_POINT('',#665);
#665 = CARTESIAN_POINT('',(10.598720597108,33.560217617517,
    33.265399981543));
#666 = CIRCLE('',#667,3.);
#667 = AXIS2_PLACEMENT_3D('',#668,#669,#670);
#668 = CARTESIAN_POINT('',(12.225127750839,31.609953083618,
    34.862668906336));
#669 = DIRECTION('',(-0.,-0.633617417215,-0.773646539837));
#670 = DIRECTION('',(0.,-0.773646539837,0.633617417215));
#671 = ORIENTED_EDGE('',*,*,#672,.F.);
#672 = EDGE_CURVE('',#673,#664,#675,.T.);
#673 = VERTEX_POINT('',#674);
#674 = CARTESIAN_POINT('',(20.37359284627,38.439231096794,
    29.269482259288));
#675 = LINE('',#676,#677);
#676 = CARTESIAN_POINT('',(25.,40.748448270001,27.378230704819));
#677 = VECTOR('',#678,1.);
#678 = DIRECTION('',(-0.840290939714,-0.419421422283,0.343506633362));
#679 = ORIENTED_EDGE('',*,*,#680,.T.);
#680 = EDGE_CURVE('',#673,#681,#683,.T.);
#681 = VERTEX_POINT('',#682);
#682 = CARTESIAN_POINT('',(25.,36.488966562894,30.866751184081));
#683 = CIRCLE('',#684,3.);
#684 = AXIS2_PLACEMENT_3D('',#685,#686,#687);
#685 = CARTESIAN_POINT('',(22.,36.488966562894,30.866751184081));
#686 = DIRECTION('',(-0.,-0.633617417215,-0.773646539837));
#687 = DIRECTION('',(0.,-0.773646539837,0.633617417215));
#688 = ORIENTED_EDGE('',*,*,#689,.T.);
#689 = EDGE_CURVE('',#681,#690,#692,.T.);
#690 = VERTEX_POINT('',#691);
#691 = CARTESIAN_POINT('',(25.,23.073073597405,41.854383148695));
#692 = LINE('',#693,#694);
#693 = CARTESIAN_POINT('',(25.,40.748448270001,27.378230704819));
#694 = VECTOR('',#695,1.);
#695 = DIRECTION('',(0.,-0.773646539837,0.633617417215));
#696 = ORIENTED_EDGE('',*,*,#697,.F.);
#697 = EDGE_CURVE('',#698,#690,#700,.T.);
#698 = VERTEX_POINT('',#699);
#699 = CARTESIAN_POINT('',(20.374006257134,21.122602751432,
    43.451821043317));
#700 = CIRCLE('',#701,3.);
#701 = AXIS2_PLACEMENT_3D('',#702,#703,#704);
#702 = CARTESIAN_POINT('',(22.,23.073073597405,41.854383148695));
#703 = DIRECTION('',(-0.,0.633617417215,0.773646539837));
#704 = DIRECTION('',(0.,-0.773646539837,0.633617417215));
#705 = ORIENTED_EDGE('',*,*,#706,.F.);
#706 = EDGE_CURVE('',#707,#698,#709,.T.);
#707 = VERTEX_POINT('',#708);
#708 = CARTESIAN_POINT('',(10.599134007973,25.999860101959,
    39.457341592552));
#709 = LINE('',#710,#711);
#710 = CARTESIAN_POINT('',(9.225127750839,26.685432449757,38.8958570412)
  );
#711 = VECTOR('',#712,1.);
#712 = DIRECTION('',(0.84037983133,-0.419314810988,0.343419318587));
#713 = ORIENTED_EDGE('',*,*,#714,.F.);
#714 = EDGE_CURVE('',#656,#707,#715,.T.);
#715 = CIRCLE('',#716,3.);
#716 = AXIS2_PLACEMENT_3D('',#717,#718,#719);
#717 = CARTESIAN_POINT('',(12.225127750839,27.950330947932,
    37.859903697931));
#718 = DIRECTION('',(-0.,0.633617417215,0.773646539837));
#719 = DIRECTION('',(0.,-0.773646539837,0.633617417215));
#720 = PLANE('',#721);
#721 = AXIS2_PLACEMENT_3D('',#722,#723,#724);
#722 = CARTESIAN_POINT('',(42.230243904438,29.784061043619,
    36.358076613764));
#723 = DIRECTION('',(0.,0.633617417215,0.773646539837));
#724 = DIRECTION('',(1.,0.,0.));
#725 = ADVANCED_FACE('',(#726),#737,.T.);
#726 = FACE_BOUND('',#727,.T.);
#727 = EDGE_LOOP('',(#728,#729,#735,#736));
#728 = ORIENTED_EDGE('',*,*,#71,.F.);
#729 = ORIENTED_EDGE('',*,*,#730,.T.);
#730 = EDGE_CURVE('',#72,#431,#731,.T.);
#731 = LINE('',#732,#733);
#732 = CARTESIAN_POINT('',(87.1677,53.835159795034,8.904719068174));
#733 = VECTOR('',#734,1.);
#734 = DIRECTION('',(0.,0.633617417215,0.773646539837));
#735 = ORIENTED_EDGE('',*,*,#430,.T.);
#736 = ORIENTED_EDGE('',*,*,#379,.F.);
#737 = PLANE('',#738);
#738 = AXIS2_PLACEMENT_3D('',#739,#740,#741);
#739 = CARTESIAN_POINT('',(90.1677,53.835159795034,8.904719068174));
#740 = DIRECTION('',(0.,-0.773646539837,0.633617417215));
#741 = DIRECTION('',(-1.,0.,0.));
#742 = ADVANCED_FACE('',(#743),#754,.T.);
#743 = FACE_BOUND('',#744,.T.);
#744 = EDGE_LOOP('',(#745,#746,#747,#748));
#745 = ORIENTED_EDGE('',*,*,#241,.F.);
#746 = ORIENTED_EDGE('',*,*,#404,.T.);
#747 = ORIENTED_EDGE('',*,*,#600,.T.);
#748 = ORIENTED_EDGE('',*,*,#749,.F.);
#749 = EDGE_CURVE('',#233,#592,#750,.T.);
#750 = LINE('',#751,#752);
#751 = CARTESIAN_POINT('',(35.,8.27128741642,46.221583615817));
#752 = VECTOR('',#753,1.);
#753 = DIRECTION('',(0.,0.633617417215,0.773646539837));
#754 = PLANE('',#755);
#755 = AXIS2_PLACEMENT_3D('',#756,#757,#758);
#756 = CARTESIAN_POINT('',(35.,44.958184667636,16.174972036783));
#757 = DIRECTION('',(1.,0.,0.));
#758 = DIRECTION('',(0.,-0.773646539837,0.633617417215));
#759 = ADVANCED_FACE('',(#760),#771,.T.);
#760 = FACE_BOUND('',#761,.T.);
#761 = EDGE_LOOP('',(#762,#763,#769,#770));
#762 = ORIENTED_EDGE('',*,*,#79,.T.);
#763 = ORIENTED_EDGE('',*,*,#764,.T.);
#764 = EDGE_CURVE('',#80,#439,#765,.T.);
#765 = LINE('',#766,#767);
#766 = CARTESIAN_POINT('',(90.1677,56.156099414546,7.003866816529));
#767 = VECTOR('',#768,1.);
#768 = DIRECTION('',(0.,0.633617417215,0.773646539837));
#769 = ORIENTED_EDGE('',*,*,#438,.F.);
#770 = ORIENTED_EDGE('',*,*,#730,.F.);
#771 = CYLINDRICAL_SURFACE('',#772,3.);
#772 = AXIS2_PLACEMENT_3D('',#773,#774,#775);
#773 = CARTESIAN_POINT('',(87.1677,56.156099414546,7.003866816529));
#774 = DIRECTION('',(0.,0.633617417215,0.773646539837));
#775 = DIRECTION('',(0.,-0.773646539837,0.633617417215));
#776 = ADVANCED_FACE('',(#777),#788,.F.);
#777 = FACE_BOUND('',#778,.F.);
#778 = EDGE_LOOP('',(#779,#780,#786,#787));
#779 = ORIENTED_EDGE('',*,*,#232,.T.);
#780 = ORIENTED_EDGE('',*,*,#781,.T.);
#781 = EDGE_CURVE('',#225,#584,#782,.T.);
#782 = LINE('',#783,#784);
#783 = CARTESIAN_POINT('',(36.374006257134,6.320816570448,
    47.819021510439));
#784 = VECTOR('',#785,1.);
#785 = DIRECTION('',(0.,0.633617417215,0.773646539837));
#786 = ORIENTED_EDGE('',*,*,#591,.F.);
#787 = ORIENTED_EDGE('',*,*,#749,.F.);
#788 = CYLINDRICAL_SURFACE('',#789,3.);
#789 = AXIS2_PLACEMENT_3D('',#790,#791,#792);
#790 = CARTESIAN_POINT('',(38.,8.27128741642,46.221583615817));
#791 = DIRECTION('',(0.,0.633617417215,0.773646539837));
#792 = DIRECTION('',(-1.,0.,0.));
#793 = ADVANCED_FACE('',(#794),#805,.T.);
#794 = FACE_BOUND('',#795,.T.);
#795 = EDGE_LOOP('',(#796,#797,#803,#804));
#796 = ORIENTED_EDGE('',*,*,#88,.F.);
#797 = ORIENTED_EDGE('',*,*,#798,.T.);
#798 = EDGE_CURVE('',#89,#448,#799,.T.);
#799 = LINE('',#800,#801);
#800 = CARTESIAN_POINT('',(90.1677,57.70339249422,5.736631982099));
#801 = VECTOR('',#802,1.);
#802 = DIRECTION('',(0.,0.633617417215,0.773646539837));
#803 = ORIENTED_EDGE('',*,*,#447,.T.);
#804 = ORIENTED_EDGE('',*,*,#764,.F.);
#805 = PLANE('',#806);
#806 = AXIS2_PLACEMENT_3D('',#807,#808,#809);
#807 = CARTESIAN_POINT('',(90.1677,60.024332113731,3.835779730454));
#808 = DIRECTION('',(1.,0.,0.));
#809 = DIRECTION('',(0.,-0.773646539837,0.633617417215));
#810 = ADVANCED_FACE('',(#811),#822,.T.);
#811 = FACE_BOUND('',#812,.T.);
#812 = EDGE_LOOP('',(#813,#814,#815,#816));
#813 = ORIENTED_EDGE('',*,*,#224,.F.);
#814 = ORIENTED_EDGE('',*,*,#781,.T.);
#815 = ORIENTED_EDGE('',*,*,#583,.T.);
#816 = ORIENTED_EDGE('',*,*,#817,.F.);
#817 = EDGE_CURVE('',#216,#575,#818,.T.);
#818 = LINE('',#819,#820);
#819 = CARTESIAN_POINT('',(52.042115040581,-1.496922299693,
    54.22175875063));
#820 = VECTOR('',#821,1.);
#821 = DIRECTION('',(0.,0.633617417215,0.773646539837));
#822 = PLANE('',#823);
#823 = AXIS2_PLACEMENT_3D('',#824,#825,#826);
#824 = CARTESIAN_POINT('',(35.,7.006388918245,47.257536959087));
#825 = DIRECTION('',(0.541997914289,0.650156948658,-0.532479298207));
#826 = DIRECTION('',(0.84037983133,-0.419314810988,0.343419318587));
#827 = ADVANCED_FACE('',(#828),#839,.T.);
#828 = FACE_BOUND('',#829,.T.);
#829 = EDGE_LOOP('',(#830,#831,#837,#838));
#830 = ORIENTED_EDGE('',*,*,#96,.T.);
#831 = ORIENTED_EDGE('',*,*,#832,.T.);
#832 = EDGE_CURVE('',#97,#456,#833,.T.);
#833 = LINE('',#834,#835);
#834 = CARTESIAN_POINT('',(87.1677,60.024332113731,3.835779730454));
#835 = VECTOR('',#836,1.);
#836 = DIRECTION('',(0.,0.633617417215,0.773646539837));
#837 = ORIENTED_EDGE('',*,*,#455,.F.);
#838 = ORIENTED_EDGE('',*,*,#798,.F.);
#839 = CYLINDRICAL_SURFACE('',#840,3.);
#840 = AXIS2_PLACEMENT_3D('',#841,#842,#843);
#841 = CARTESIAN_POINT('',(87.1677,57.70339249422,5.736631982099));
#842 = DIRECTION('',(0.,0.633617417215,0.773646539837));
#843 = DIRECTION('',(1.,0.,0.));
#844 = ADVANCED_FACE('',(#845),#856,.F.);
#845 = FACE_BOUND('',#846,.F.);
#846 = EDGE_LOOP('',(#847,#848,#854,#855));
#847 = ORIENTED_EDGE('',*,*,#215,.T.);
#848 = ORIENTED_EDGE('',*,*,#849,.T.);
#849 = EDGE_CURVE('',#208,#567,#850,.T.);
#850 = LINE('',#851,#852);
#851 = CARTESIAN_POINT('',(53.668108783447,-1.867391073231,
    54.525173107654));
#852 = VECTOR('',#853,1.);
#853 = DIRECTION('',(0.,0.633617417215,0.773646539837));
#854 = ORIENTED_EDGE('',*,*,#574,.F.);
#855 = ORIENTED_EDGE('',*,*,#817,.F.);
#856 = CYLINDRICAL_SURFACE('',#857,3.);
#857 = AXIS2_PLACEMENT_3D('',#858,#859,#860);
#858 = CARTESIAN_POINT('',(53.668108783447,0.45354854628,52.624320856009
    ));
#859 = DIRECTION('',(0.,0.633617417215,0.773646539837));
#860 = DIRECTION('',(-0.541997914289,-0.650156948658,0.532479298207));
#861 = ADVANCED_FACE('',(#862),#873,.T.);
#862 = FACE_BOUND('',#863,.T.);
#863 = EDGE_LOOP('',(#864,#865,#871,#872));
#864 = ORIENTED_EDGE('',*,*,#105,.F.);
#865 = ORIENTED_EDGE('',*,*,#866,.T.);
#866 = EDGE_CURVE('',#106,#465,#867,.T.);
#867 = LINE('',#868,#869);
#868 = CARTESIAN_POINT('',(53.668376103942,60.024332113731,
    3.835779730454));
#869 = VECTOR('',#870,1.);
#870 = DIRECTION('',(0.,0.633617417215,0.773646539837));
#871 = ORIENTED_EDGE('',*,*,#464,.T.);
#872 = ORIENTED_EDGE('',*,*,#832,.F.);
#873 = PLANE('',#874);
#874 = AXIS2_PLACEMENT_3D('',#875,#876,#877);
#875 = CARTESIAN_POINT('',(52.784598914894,60.024332113731,
    3.835779730454));
#876 = DIRECTION('',(0.,0.773646539837,-0.633617417215));
#877 = DIRECTION('',(1.,0.,0.));
#878 = ADVANCED_FACE('',(#879),#890,.T.);
#879 = FACE_BOUND('',#880,.T.);
#880 = EDGE_LOOP('',(#881,#882,#883,#884));
#881 = ORIENTED_EDGE('',*,*,#207,.F.);
#882 = ORIENTED_EDGE('',*,*,#849,.T.);
#883 = ORIENTED_EDGE('',*,*,#566,.T.);
#884 = ORIENTED_EDGE('',*,*,#885,.F.);
#885 = EDGE_CURVE('',#199,#558,#886,.T.);
#886 = LINE('',#887,#888);
#887 = CARTESIAN_POINT('',(87.1677,-1.867391073231,54.525173107654));
#888 = VECTOR('',#889,1.);
#889 = DIRECTION('',(0.,0.633617417215,0.773646539837));
#890 = PLANE('',#891);
#891 = AXIS2_PLACEMENT_3D('',#892,#893,#894);
#892 = CARTESIAN_POINT('',(52.784598914894,-1.867391073231,
    54.525173107654));
#893 = DIRECTION('',(1.9E-16,0.773646539837,-0.633617417215));
#894 = DIRECTION('',(1.,-1.46992842569E-16,1.203873092708E-16));
#895 = ADVANCED_FACE('',(#896),#907,.T.);
#896 = FACE_BOUND('',#897,.T.);
#897 = EDGE_LOOP('',(#898,#899,#905,#906));
#898 = ORIENTED_EDGE('',*,*,#113,.T.);
#899 = ORIENTED_EDGE('',*,*,#900,.T.);
#900 = EDGE_CURVE('',#114,#473,#901,.T.);
#901 = LINE('',#902,#903);
#902 = CARTESIAN_POINT('',(52.041968950211,59.653657028119,
    4.139363057306));
#903 = VECTOR('',#904,1.);
#904 = DIRECTION('',(0.,0.633617417215,0.773646539837));
#905 = ORIENTED_EDGE('',*,*,#472,.F.);
#906 = ORIENTED_EDGE('',*,*,#866,.F.);
#907 = CYLINDRICAL_SURFACE('',#908,3.);
#908 = AXIS2_PLACEMENT_3D('',#909,#910,#911);
#909 = CARTESIAN_POINT('',(53.668376103942,57.70339249422,5.736631982099
    ));
#910 = DIRECTION('',(0.,0.633617417215,0.773646539837));
#911 = DIRECTION('',(0.,0.773646539837,-0.633617417215));
#912 = ADVANCED_FACE('',(#913),#924,.T.);
#913 = FACE_BOUND('',#914,.F.);
#914 = EDGE_LOOP('',(#915,#916,#922,#923));
#915 = ORIENTED_EDGE('',*,*,#198,.T.);
#916 = ORIENTED_EDGE('',*,*,#917,.T.);
#917 = EDGE_CURVE('',#191,#550,#918,.T.);
#918 = LINE('',#919,#920);
#919 = CARTESIAN_POINT('',(90.1677,-4.188330692742,56.426025359299));
#920 = VECTOR('',#921,1.);
#921 = DIRECTION('',(0.,0.633617417215,0.773646539837));
#922 = ORIENTED_EDGE('',*,*,#557,.F.);
#923 = ORIENTED_EDGE('',*,*,#885,.F.);
#924 = CYLINDRICAL_SURFACE('',#925,3.);
#925 = AXIS2_PLACEMENT_3D('',#926,#927,#928);
#926 = CARTESIAN_POINT('',(87.1677,-4.188330692742,56.426025359299));
#927 = DIRECTION('',(0.,0.633617417215,0.773646539837));
#928 = DIRECTION('',(1.9E-16,0.773646539837,-0.633617417215));
#929 = ADVANCED_FACE('',(#930),#941,.T.);
#930 = FACE_BOUND('',#931,.T.);
#931 = EDGE_LOOP('',(#932,#933,#939,#940));
#932 = ORIENTED_EDGE('',*,*,#122,.F.);
#933 = ORIENTED_EDGE('',*,*,#934,.T.);
#934 = EDGE_CURVE('',#123,#482,#935,.T.);
#935 = LINE('',#936,#937);
#936 = CARTESIAN_POINT('',(-7.851534904569,29.758513114227,
    28.623520742521));
#937 = VECTOR('',#938,1.);
#938 = DIRECTION('',(0.,0.633617417215,0.773646539837));
#939 = ORIENTED_EDGE('',*,*,#481,.T.);
#940 = ORIENTED_EDGE('',*,*,#900,.F.);
#941 = PLANE('',#942);
#942 = AXIS2_PLACEMENT_3D('',#943,#944,#945);
#943 = CARTESIAN_POINT('',(-9.225127750839,29.072900265163,
    29.185038464458));
#944 = DIRECTION('',(-0.54213571791,0.650088177966,-0.532422974931));
#945 = DIRECTION('',(0.840290939714,0.419421422283,-0.343506633362));
#946 = ADVANCED_FACE('',(#947),#958,.T.);
#947 = FACE_BOUND('',#948,.T.);
#948 = EDGE_LOOP('',(#949,#950,#951,#952));
#949 = ORIENTED_EDGE('',*,*,#190,.F.);
#950 = ORIENTED_EDGE('',*,*,#917,.T.);
#951 = ORIENTED_EDGE('',*,*,#549,.T.);
#952 = ORIENTED_EDGE('',*,*,#953,.F.);
#953 = EDGE_CURVE('',#182,#541,#954,.T.);
#954 = LINE('',#955,#956);
#955 = CARTESIAN_POINT('',(90.1677,-5.735623772416,57.693260193729));
#956 = VECTOR('',#957,1.);
#957 = DIRECTION('',(0.,0.633617417215,0.773646539837));
#958 = PLANE('',#959);
#959 = AXIS2_PLACEMENT_3D('',#960,#961,#962);
#960 = CARTESIAN_POINT('',(90.1677,-1.867391073231,54.525173107654));
#961 = DIRECTION('',(1.,0.,0.));
#962 = DIRECTION('',(0.,-0.773646539837,0.633617417215));
#963 = ADVANCED_FACE('',(#964),#975,.T.);
#964 = FACE_BOUND('',#965,.T.);
#965 = EDGE_LOOP('',(#966,#967,#973,#974));
#966 = ORIENTED_EDGE('',*,*,#130,.T.);
#967 = ORIENTED_EDGE('',*,*,#968,.T.);
#968 = EDGE_CURVE('',#131,#490,#969,.T.);
#969 = LINE('',#970,#971);
#970 = CARTESIAN_POINT('',(-9.225127750839,27.808248580328,
    30.220789667314));
#971 = VECTOR('',#972,1.);
#972 = DIRECTION('',(0.,0.633617417215,0.773646539837));
#973 = ORIENTED_EDGE('',*,*,#489,.F.);
#974 = ORIENTED_EDGE('',*,*,#934,.F.);
#975 = CYLINDRICAL_SURFACE('',#976,3.);
#976 = AXIS2_PLACEMENT_3D('',#977,#978,#979);
#977 = CARTESIAN_POINT('',(-6.225127750839,27.808248580328,
    30.220789667314));
#978 = DIRECTION('',(0.,0.633617417215,0.773646539837));
#979 = DIRECTION('',(-0.54213571791,0.650088177966,-0.532422974931));
#980 = ADVANCED_FACE('',(#981),#992,.T.);
#981 = FACE_BOUND('',#982,.F.);
#982 = EDGE_LOOP('',(#983,#984,#990,#991));
#983 = ORIENTED_EDGE('',*,*,#181,.T.);
#984 = ORIENTED_EDGE('',*,*,#985,.T.);
#985 = EDGE_CURVE('',#174,#533,#986,.T.);
#986 = LINE('',#987,#988);
#987 = CARTESIAN_POINT('',(87.1677,-8.056563391927,59.594112445374));
#988 = VECTOR('',#989,1.);
#989 = DIRECTION('',(0.,0.633617417215,0.773646539837));
#990 = ORIENTED_EDGE('',*,*,#540,.F.);
#991 = ORIENTED_EDGE('',*,*,#953,.F.);
#992 = CYLINDRICAL_SURFACE('',#993,3.);
#993 = AXIS2_PLACEMENT_3D('',#994,#995,#996);
#994 = CARTESIAN_POINT('',(87.1677,-5.735623772416,57.693260193729));
#995 = DIRECTION('',(0.,0.633617417215,0.773646539837));
#996 = DIRECTION('',(1.,0.,0.));
#997 = ADVANCED_FACE('',(#998),#1009,.F.);
#998 = FACE_BOUND('',#999,.F.);
#999 = EDGE_LOOP('',(#1000,#1001,#1002,#1003));
#1000 = ORIENTED_EDGE('',*,*,#139,.F.);
#1001 = ORIENTED_EDGE('',*,*,#968,.T.);
#1002 = ORIENTED_EDGE('',*,*,#498,.T.);
#1003 = ORIENTED_EDGE('',*,*,#1004,.F.);
#1004 = EDGE_CURVE('',#140,#499,#1005,.T.);
#1005 = LINE('',#1006,#1007);
#1006 = CARTESIAN_POINT('',(-9.225127750839,24.148626444642,
    33.218024458909));
#1007 = VECTOR('',#1008,1.);
#1008 = DIRECTION('',(0.,0.633617417215,0.773646539837));
#1009 = PLANE('',#1010);
#1010 = AXIS2_PLACEMENT_3D('',#1011,#1012,#1013);
#1011 = CARTESIAN_POINT('',(-9.225127750839,29.072900265163,
    29.185038464458));
#1012 = DIRECTION('',(1.,0.,0.));
#1013 = DIRECTION('',(0.,-0.773646539837,0.633617417215));
#1014 = ADVANCED_FACE('',(#1015),#1026,.T.);
#1015 = FACE_BOUND('',#1016,.T.);
#1016 = EDGE_LOOP('',(#1017,#1018,#1019,#1020));
#1017 = ORIENTED_EDGE('',*,*,#173,.F.);
#1018 = ORIENTED_EDGE('',*,*,#985,.T.);
#1019 = ORIENTED_EDGE('',*,*,#532,.T.);
#1020 = ORIENTED_EDGE('',*,*,#1021,.F.);
#1021 = EDGE_CURVE('',#165,#524,#1022,.T.);
#1022 = LINE('',#1023,#1024);
#1023 = CARTESIAN_POINT('',(53.668108783447,-8.056563391927,
    59.594112445374));
#1024 = VECTOR('',#1025,1.);
#1025 = DIRECTION('',(0.,0.633617417215,0.773646539837));
#1026 = PLANE('',#1027);
#1027 = AXIS2_PLACEMENT_3D('',#1028,#1029,#1030);
#1028 = CARTESIAN_POINT('',(90.1677,-8.056563391927,59.594112445374));
#1029 = DIRECTION('',(0.,-0.773646539837,0.633617417215));
#1030 = DIRECTION('',(-1.,0.,0.));
#1031 = ADVANCED_FACE('',(#1032),#1043,.T.);
#1032 = FACE_BOUND('',#1033,.T.);
#1033 = EDGE_LOOP('',(#1034,#1035,#1041,#1042));
#1034 = ORIENTED_EDGE('',*,*,#147,.T.);
#1035 = ORIENTED_EDGE('',*,*,#1036,.T.);
#1036 = EDGE_CURVE('',#148,#507,#1037,.T.);
#1037 = LINE('',#1038,#1039);
#1038 = CARTESIAN_POINT('',(-7.851121493705,22.198155598669,
    34.81546235353));
#1039 = VECTOR('',#1040,1.);
#1040 = DIRECTION('',(0.,0.633617417215,0.773646539837));
#1041 = ORIENTED_EDGE('',*,*,#506,.F.);
#1042 = ORIENTED_EDGE('',*,*,#1004,.F.);
#1043 = CYLINDRICAL_SURFACE('',#1044,3.);
#1044 = AXIS2_PLACEMENT_3D('',#1045,#1046,#1047);
#1045 = CARTESIAN_POINT('',(-6.225127750839,24.148626444642,
    33.218024458909));
#1046 = DIRECTION('',(0.,0.633617417215,0.773646539837));
#1047 = DIRECTION('',(-1.,0.,0.));
#1048 = ADVANCED_FACE('',(#1049),#1060,.T.);
#1049 = FACE_BOUND('',#1050,.F.);
#1050 = EDGE_LOOP('',(#1051,#1052,#1058,#1059));
#1051 = ORIENTED_EDGE('',*,*,#164,.T.);
#1052 = ORIENTED_EDGE('',*,*,#1053,.T.);
#1053 = EDGE_CURVE('',#157,#516,#1054,.T.);
#1054 = LINE('',#1055,#1056);
#1055 = CARTESIAN_POINT('',(52.042115040581,-7.686094618389,
    59.29069808835));
#1056 = VECTOR('',#1057,1.);
#1057 = DIRECTION('',(0.,0.633617417215,0.773646539837));
#1058 = ORIENTED_EDGE('',*,*,#523,.F.);
#1059 = ORIENTED_EDGE('',*,*,#1021,.F.);
#1060 = CYLINDRICAL_SURFACE('',#1061,3.);
#1061 = AXIS2_PLACEMENT_3D('',#1062,#1063,#1064);
#1062 = CARTESIAN_POINT('',(53.668108783447,-5.735623772416,
    57.693260193729));
#1063 = DIRECTION('',(0.,0.633617417215,0.773646539837));
#1064 = DIRECTION('',(0.,-0.773646539837,0.633617417215));
#1065 = ADVANCED_FACE('',(#1066),#1072,.T.);
#1066 = FACE_BOUND('',#1067,.T.);
#1067 = EDGE_LOOP('',(#1068,#1069,#1070,#1071));
#1068 = ORIENTED_EDGE('',*,*,#156,.F.);
#1069 = ORIENTED_EDGE('',*,*,#1053,.T.);
#1070 = ORIENTED_EDGE('',*,*,#515,.T.);
#1071 = ORIENTED_EDGE('',*,*,#1036,.F.);
#1072 = PLANE('',#1073);
#1073 = AXIS2_PLACEMENT_3D('',#1074,#1075,#1076);
#1074 = CARTESIAN_POINT('',(52.784598914894,-8.056563391927,
    59.594112445374));
#1075 = DIRECTION('',(-0.541997914289,-0.650156948658,0.532479298207));
#1076 = DIRECTION('',(-0.84037983133,0.419314810988,-0.343419318587));
#1077 = ADVANCED_FACE('',(#1078),#1097,.T.);
#1078 = FACE_BOUND('',#1079,.F.);
#1079 = EDGE_LOOP('',(#1080,#1088,#1095,#1096));
#1080 = ORIENTED_EDGE('',*,*,#1081,.T.);
#1081 = EDGE_CURVE('',#259,#1082,#1084,.T.);
#1082 = VERTEX_POINT('',#1083);
#1083 = CARTESIAN_POINT('',(4.,19.642139933665,23.983042734948));
#1084 = LINE('',#1085,#1086);
#1085 = CARTESIAN_POINT('',(4.,25.978314105815,31.719508133318));
#1086 = VECTOR('',#1087,1.);
#1087 = DIRECTION('',(0.,-0.633617417215,-0.773646539837));
#1088 = ORIENTED_EDGE('',*,*,#1089,.T.);
#1089 = EDGE_CURVE('',#1082,#1082,#1090,.T.);
#1090 = CIRCLE('',#1091,4.);
#1091 = AXIS2_PLACEMENT_3D('',#1092,#1093,#1094);
#1092 = CARTESIAN_POINT('',(0.,19.642139933665,23.983042734948));
#1093 = DIRECTION('',(0.,-0.633617417215,-0.773646539837));
#1094 = DIRECTION('',(1.,0.,0.));
#1095 = ORIENTED_EDGE('',*,*,#1081,.F.);
#1096 = ORIENTED_EDGE('',*,*,#258,.F.);
#1097 = CYLINDRICAL_SURFACE('',#1098,4.);
#1098 = AXIS2_PLACEMENT_3D('',#1099,#1100,#1101);
#1099 = CARTESIAN_POINT('',(0.,25.978314105815,31.719508133318));
#1100 = DIRECTION('',(0.,0.633617417215,0.773646539837));
#1101 = DIRECTION('',(1.,0.,-0.));
#1102 = ADVANCED_FACE('',(#1103),#1119,.T.);
#1103 = FACE_BOUND('',#1104,.T.);
#1104 = EDGE_LOOP('',(#1105,#1106,#1112,#1113));
#1105 = ORIENTED_EDGE('',*,*,#269,.F.);
#1106 = ORIENTED_EDGE('',*,*,#1107,.T.);
#1107 = EDGE_CURVE('',#270,#654,#1108,.T.);
#1108 = LINE('',#1109,#1110);
#1109 = CARTESIAN_POINT('',(9.225127750839,27.808248580328,
    30.220789667314));
#1110 = VECTOR('',#1111,1.);
#1111 = DIRECTION('',(0.,0.633617417215,0.773646539837));
#1112 = ORIENTED_EDGE('',*,*,#653,.T.);
#1113 = ORIENTED_EDGE('',*,*,#1114,.F.);
#1114 = EDGE_CURVE('',#272,#656,#1115,.T.);
#1115 = LINE('',#1116,#1117);
#1116 = CARTESIAN_POINT('',(9.225127750839,24.148626444642,
    33.218024458909));
#1117 = VECTOR('',#1118,1.);
#1118 = DIRECTION('',(0.,0.633617417215,0.773646539837));
#1119 = PLANE('',#1120);
#1120 = AXIS2_PLACEMENT_3D('',#1121,#1122,#1123);
#1121 = CARTESIAN_POINT('',(9.225127750839,29.072900265163,
    29.185038464458));
#1122 = DIRECTION('',(1.,0.,0.));
#1123 = DIRECTION('',(0.,-0.773646539837,0.633617417215));
#1124 = ADVANCED_FACE('',(#1125),#1136,.F.);
#1125 = FACE_BOUND('',#1126,.T.);
#1126 = EDGE_LOOP('',(#1127,#1128,#1134,#1135));
#1127 = ORIENTED_EDGE('',*,*,#279,.T.);
#1128 = ORIENTED_EDGE('',*,*,#1129,.T.);
#1129 = EDGE_CURVE('',#280,#664,#1130,.T.);
#1130 = LINE('',#1131,#1132);
#1131 = CARTESIAN_POINT('',(10.598720597108,29.758513114227,
    28.623520742521));
#1132 = VECTOR('',#1133,1.);
#1133 = DIRECTION('',(0.,0.633617417215,0.773646539837));
#1134 = ORIENTED_EDGE('',*,*,#663,.F.);
#1135 = ORIENTED_EDGE('',*,*,#1107,.F.);
#1136 = CYLINDRICAL_SURFACE('',#1137,3.);
#1137 = AXIS2_PLACEMENT_3D('',#1138,#1139,#1140);
#1138 = CARTESIAN_POINT('',(12.225127750839,27.808248580328,
    30.220789667314));
#1139 = DIRECTION('',(0.,0.633617417215,0.773646539837));
#1140 = DIRECTION('',(-1.,0.,0.));
#1141 = ADVANCED_FACE('',(#1142),#1153,.F.);
#1142 = FACE_BOUND('',#1143,.F.);
#1143 = EDGE_LOOP('',(#1144,#1145,#1151,#1152));
#1144 = ORIENTED_EDGE('',*,*,#330,.T.);
#1145 = ORIENTED_EDGE('',*,*,#1146,.T.);
#1146 = EDGE_CURVE('',#323,#707,#1147,.T.);
#1147 = LINE('',#1148,#1149);
#1148 = CARTESIAN_POINT('',(10.599134007973,22.198155598669,
    34.81546235353));
#1149 = VECTOR('',#1150,1.);
#1150 = DIRECTION('',(0.,0.633617417215,0.773646539837));
#1151 = ORIENTED_EDGE('',*,*,#714,.F.);
#1152 = ORIENTED_EDGE('',*,*,#1114,.F.);
#1153 = CYLINDRICAL_SURFACE('',#1154,3.);
#1154 = AXIS2_PLACEMENT_3D('',#1155,#1156,#1157);
#1155 = CARTESIAN_POINT('',(12.225127750839,24.148626444642,
    33.218024458909));
#1156 = DIRECTION('',(0.,0.633617417215,0.773646539837));
#1157 = DIRECTION('',(-1.,0.,0.));
#1158 = ADVANCED_FACE('',(#1159),#1170,.T.);
#1159 = FACE_BOUND('',#1160,.T.);
#1160 = EDGE_LOOP('',(#1161,#1162,#1168,#1169));
#1161 = ORIENTED_EDGE('',*,*,#288,.F.);
#1162 = ORIENTED_EDGE('',*,*,#1163,.T.);
#1163 = EDGE_CURVE('',#289,#673,#1164,.T.);
#1164 = LINE('',#1165,#1166);
#1165 = CARTESIAN_POINT('',(20.37359284627,34.637526593504,
    24.627603020266));
#1166 = VECTOR('',#1167,1.);
#1167 = DIRECTION('',(0.,0.633617417215,0.773646539837));
#1168 = ORIENTED_EDGE('',*,*,#672,.T.);
#1169 = ORIENTED_EDGE('',*,*,#1129,.F.);
#1170 = PLANE('',#1171);
#1171 = AXIS2_PLACEMENT_3D('',#1172,#1173,#1174);
#1172 = CARTESIAN_POINT('',(25.,36.946743766711,22.736351465797));
#1173 = DIRECTION('',(0.54213571791,-0.650088177966,0.532422974931));
#1174 = DIRECTION('',(-0.840290939714,-0.419421422283,0.343506633362));
#1175 = ADVANCED_FACE('',(#1176),#1187,.T.);
#1176 = FACE_BOUND('',#1177,.T.);
#1177 = EDGE_LOOP('',(#1178,#1179,#1180,#1181));
#1178 = ORIENTED_EDGE('',*,*,#322,.F.);
#1179 = ORIENTED_EDGE('',*,*,#1146,.T.);
#1180 = ORIENTED_EDGE('',*,*,#706,.T.);
#1181 = ORIENTED_EDGE('',*,*,#1182,.F.);
#1182 = EDGE_CURVE('',#314,#698,#1183,.T.);
#1183 = LINE('',#1184,#1185);
#1184 = CARTESIAN_POINT('',(20.374006257134,17.320898248142,
    38.809941804294));
#1185 = VECTOR('',#1186,1.);
#1186 = DIRECTION('',(0.,0.633617417215,0.773646539837));
#1187 = PLANE('',#1188);
#1188 = AXIS2_PLACEMENT_3D('',#1189,#1190,#1191);
#1189 = CARTESIAN_POINT('',(9.225127750839,22.883727946467,
    34.253977802178));
#1190 = DIRECTION('',(0.541997914289,0.650156948658,-0.532479298207));
#1191 = DIRECTION('',(0.84037983133,-0.419314810988,0.343419318587));
#1192 = ADVANCED_FACE('',(#1193),#1204,.F.);
#1193 = FACE_BOUND('',#1194,.T.);
#1194 = EDGE_LOOP('',(#1195,#1196,#1202,#1203));
#1195 = ORIENTED_EDGE('',*,*,#296,.T.);
#1196 = ORIENTED_EDGE('',*,*,#1197,.T.);
#1197 = EDGE_CURVE('',#297,#681,#1198,.T.);
#1198 = LINE('',#1199,#1200);
#1199 = CARTESIAN_POINT('',(25.,32.687262059604,26.224871945059));
#1200 = VECTOR('',#1201,1.);
#1201 = DIRECTION('',(0.,0.633617417215,0.773646539837));
#1202 = ORIENTED_EDGE('',*,*,#680,.F.);
#1203 = ORIENTED_EDGE('',*,*,#1163,.F.);
#1204 = CYLINDRICAL_SURFACE('',#1205,3.);
#1205 = AXIS2_PLACEMENT_3D('',#1206,#1207,#1208);
#1206 = CARTESIAN_POINT('',(22.,32.687262059604,26.224871945059));
#1207 = DIRECTION('',(0.,0.633617417215,0.773646539837));
#1208 = DIRECTION('',(-0.54213571791,0.650088177966,-0.532422974931));
#1209 = ADVANCED_FACE('',(#1210),#1221,.F.);
#1210 = FACE_BOUND('',#1211,.F.);
#1211 = EDGE_LOOP('',(#1212,#1213,#1219,#1220));
#1212 = ORIENTED_EDGE('',*,*,#313,.T.);
#1213 = ORIENTED_EDGE('',*,*,#1214,.T.);
#1214 = EDGE_CURVE('',#306,#690,#1215,.T.);
#1215 = LINE('',#1216,#1217);
#1216 = CARTESIAN_POINT('',(25.,19.271369094115,37.212503909673));
#1217 = VECTOR('',#1218,1.);
#1218 = DIRECTION('',(0.,0.633617417215,0.773646539837));
#1219 = ORIENTED_EDGE('',*,*,#697,.F.);
#1220 = ORIENTED_EDGE('',*,*,#1182,.F.);
#1221 = CYLINDRICAL_SURFACE('',#1222,3.);
#1222 = AXIS2_PLACEMENT_3D('',#1223,#1224,#1225);
#1223 = CARTESIAN_POINT('',(22.,19.271369094115,37.212503909673));
#1224 = DIRECTION('',(0.,0.633617417215,0.773646539837));
#1225 = DIRECTION('',(-0.541997914289,-0.650156948658,0.532479298207));
#1226 = ADVANCED_FACE('',(#1227),#1233,.F.);
#1227 = FACE_BOUND('',#1228,.F.);
#1228 = EDGE_LOOP('',(#1229,#1230,#1231,#1232));
#1229 = ORIENTED_EDGE('',*,*,#305,.F.);
#1230 = ORIENTED_EDGE('',*,*,#1197,.T.);
#1231 = ORIENTED_EDGE('',*,*,#689,.T.);
#1232 = ORIENTED_EDGE('',*,*,#1214,.F.);
#1233 = PLANE('',#1234);
#1234 = AXIS2_PLACEMENT_3D('',#1235,#1236,#1237);
#1235 = CARTESIAN_POINT('',(25.,36.946743766711,22.736351465797));
#1236 = DIRECTION('',(1.,0.,0.));
#1237 = DIRECTION('',(0.,-0.773646539837,0.633617417215));
#1238 = ADVANCED_FACE('',(#1239),#1258,.T.);
#1239 = FACE_BOUND('',#1240,.F.);
#1240 = EDGE_LOOP('',(#1241,#1249,#1256,#1257));
#1241 = ORIENTED_EDGE('',*,*,#1242,.T.);
#1242 = EDGE_CURVE('',#340,#1243,#1245,.T.);
#1243 = VERTEX_POINT('',#1244);
#1244 = CARTESIAN_POINT('',(34.,19.642139933665,23.983042734948));
#1245 = LINE('',#1246,#1247);
#1246 = CARTESIAN_POINT('',(34.,25.978314105815,31.719508133318));
#1247 = VECTOR('',#1248,1.);
#1248 = DIRECTION('',(0.,-0.633617417215,-0.773646539837));
#1249 = ORIENTED_EDGE('',*,*,#1250,.T.);
#1250 = EDGE_CURVE('',#1243,#1243,#1251,.T.);
#1251 = CIRCLE('',#1252,4.);
#1252 = AXIS2_PLACEMENT_3D('',#1253,#1254,#1255);
#1253 = CARTESIAN_POINT('',(30.,19.642139933665,23.983042734948));
#1254 = DIRECTION('',(0.,-0.633617417215,-0.773646539837));
#1255 = DIRECTION('',(1.,0.,0.));
#1256 = ORIENTED_EDGE('',*,*,#1242,.F.);
#1257 = ORIENTED_EDGE('',*,*,#339,.F.);
#1258 = CYLINDRICAL_SURFACE('',#1259,4.);
#1259 = AXIS2_PLACEMENT_3D('',#1260,#1261,#1262);
#1260 = CARTESIAN_POINT('',(30.,25.978314105815,31.719508133318));
#1261 = DIRECTION('',(0.,0.633617417215,0.773646539837));
#1262 = DIRECTION('',(1.,0.,-0.));
#1263 = ADVANCED_FACE('',(#1264),#1283,.F.);
#1264 = FACE_BOUND('',#1265,.T.);
#1265 = EDGE_LOOP('',(#1266,#1274,#1281,#1282));
#1266 = ORIENTED_EDGE('',*,*,#1267,.F.);
#1267 = EDGE_CURVE('',#1268,#351,#1270,.T.);
#1268 = VERTEX_POINT('',#1269);
#1269 = CARTESIAN_POINT('',(87.3677,-2.205741467694,60.425005224805));
#1270 = LINE('',#1271,#1272);
#1271 = CARTESIAN_POINT('',(87.3677,-2.205741467694,60.425005224805));
#1272 = VECTOR('',#1273,1.);
#1273 = DIRECTION('',(-7.E-17,-0.633617417215,-0.773646539837));
#1274 = ORIENTED_EDGE('',*,*,#1275,.T.);
#1275 = EDGE_CURVE('',#1268,#1268,#1276,.T.);
#1276 = CIRCLE('',#1277,1.7);
#1277 = AXIS2_PLACEMENT_3D('',#1278,#1279,#1280);
#1278 = CARTESIAN_POINT('',(85.6677,-2.205741467694,60.425005224805));
#1279 = DIRECTION('',(-0.,0.633617417215,0.773646539837));
#1280 = DIRECTION('',(1.,0.,0.));
#1281 = ORIENTED_EDGE('',*,*,#1267,.T.);
#1282 = ORIENTED_EDGE('',*,*,#350,.T.);
#1283 = CYLINDRICAL_SURFACE('',#1284,1.7);
#1284 = AXIS2_PLACEMENT_3D('',#1285,#1286,#1287);
#1285 = CARTESIAN_POINT('',(85.6677,-2.205741467694,60.425005224805));
#1286 = DIRECTION('',(-0.,-0.633617417215,-0.773646539837));
#1287 = DIRECTION('',(1.,0.,0.));
#1288 = ADVANCED_FACE('',(#1289),#1308,.F.);
#1289 = FACE_BOUND('',#1290,.T.);
#1290 = EDGE_LOOP('',(#1291,#1299,#1306,#1307));
#1291 = ORIENTED_EDGE('',*,*,#1292,.F.);
#1292 = EDGE_CURVE('',#1293,#362,#1295,.T.);
#1293 = VERTEX_POINT('',#1294);
#1294 = CARTESIAN_POINT('',(87.3677,59.685981719268,9.735611847605));
#1295 = LINE('',#1296,#1297);
#1296 = CARTESIAN_POINT('',(87.3677,59.685981719268,9.735611847605));
#1297 = VECTOR('',#1298,1.);
#1298 = DIRECTION('',(-7.E-17,-0.633617417215,-0.773646539837));
#1299 = ORIENTED_EDGE('',*,*,#1300,.T.);
#1300 = EDGE_CURVE('',#1293,#1293,#1301,.T.);
#1301 = CIRCLE('',#1302,1.7);
#1302 = AXIS2_PLACEMENT_3D('',#1303,#1304,#1305);
#1303 = CARTESIAN_POINT('',(85.6677,59.685981719268,9.735611847605));
#1304 = DIRECTION('',(-0.,0.633617417215,0.773646539837));
#1305 = DIRECTION('',(1.,0.,0.));
#1306 = ORIENTED_EDGE('',*,*,#1292,.T.);
#1307 = ORIENTED_EDGE('',*,*,#361,.T.);
#1308 = CYLINDRICAL_SURFACE('',#1309,1.7);
#1309 = AXIS2_PLACEMENT_3D('',#1310,#1311,#1312);
#1310 = CARTESIAN_POINT('',(85.6677,59.685981719268,9.735611847605));
#1311 = DIRECTION('',(-0.,-0.633617417215,-0.773646539837));
#1312 = DIRECTION('',(1.,0.,0.));
#1313 = ADVANCED_FACE('',(#1314),#1333,.F.);
#1314 = FACE_BOUND('',#1315,.T.);
#1315 = EDGE_LOOP('',(#1316,#1324,#1325,#1326));
#1316 = ORIENTED_EDGE('',*,*,#1317,.F.);
#1317 = EDGE_CURVE('',#610,#1318,#1320,.T.);
#1318 = VERTEX_POINT('',#1319);
#1319 = CARTESIAN_POINT('',(1.7,28.7345498707,35.084870581609));
#1320 = LINE('',#1321,#1322);
#1321 = CARTESIAN_POINT('',(3.35,29.780018609105,36.36138737234));
#1322 = VECTOR('',#1323,1.);
#1323 = DIRECTION('',(-0.707106781187,-0.448035172391,-0.54705071456));
#1324 = ORIENTED_EDGE('',*,*,#609,.T.);
#1325 = ORIENTED_EDGE('',*,*,#1317,.T.);
#1326 = ORIENTED_EDGE('',*,*,#1327,.F.);
#1327 = EDGE_CURVE('',#1318,#1318,#1328,.T.);
#1328 = CIRCLE('',#1329,1.7);
#1329 = AXIS2_PLACEMENT_3D('',#1330,#1331,#1332);
#1330 = CARTESIAN_POINT('',(0.,28.7345498707,35.084870581609));
#1331 = DIRECTION('',(-0.,0.633617417215,0.773646539837));
#1332 = DIRECTION('',(1.,0.,0.));
#1333 = CONICAL_SURFACE('',#1334,3.35,0.785398163397);
#1334 = AXIS2_PLACEMENT_3D('',#1335,#1336,#1337);
#1335 = CARTESIAN_POINT('',(0.,29.780018609105,36.36138737234));
#1336 = DIRECTION('',(0.,0.633617417215,0.773646539837));
#1337 = DIRECTION('',(1.,0.,0.));
#1338 = ADVANCED_FACE('',(#1339),#1358,.F.);
#1339 = FACE_BOUND('',#1340,.T.);
#1340 = EDGE_LOOP('',(#1341,#1349,#1350,#1351));
#1341 = ORIENTED_EDGE('',*,*,#1342,.F.);
#1342 = EDGE_CURVE('',#621,#1343,#1345,.T.);
#1343 = VERTEX_POINT('',#1344);
#1344 = CARTESIAN_POINT('',(31.7,28.7345498707,35.084870581609));
#1345 = LINE('',#1346,#1347);
#1346 = CARTESIAN_POINT('',(33.35,29.780018609105,36.36138737234));
#1347 = VECTOR('',#1348,1.);
#1348 = DIRECTION('',(-0.707106781187,-0.448035172391,-0.54705071456));
#1349 = ORIENTED_EDGE('',*,*,#620,.T.);
#1350 = ORIENTED_EDGE('',*,*,#1342,.T.);
#1351 = ORIENTED_EDGE('',*,*,#1352,.F.);
#1352 = EDGE_CURVE('',#1343,#1343,#1353,.T.);
#1353 = CIRCLE('',#1354,1.7);
#1354 = AXIS2_PLACEMENT_3D('',#1355,#1356,#1357);
#1355 = CARTESIAN_POINT('',(30.,28.7345498707,35.084870581609));
#1356 = DIRECTION('',(-0.,0.633617417215,0.773646539837));
#1357 = DIRECTION('',(1.,0.,0.));
#1358 = CONICAL_SURFACE('',#1359,3.35,0.785398163397);
#1359 = AXIS2_PLACEMENT_3D('',#1360,#1361,#1362);
#1360 = CARTESIAN_POINT('',(30.,29.780018609105,36.36138737234));
#1361 = DIRECTION('',(0.,0.633617417215,0.773646539837));
#1362 = DIRECTION('',(1.,0.,0.));
#1363 = ADVANCED_FACE('',(#1364),#1375,.F.);
#1364 = FACE_BOUND('',#1365,.T.);
#1365 = EDGE_LOOP('',(#1366,#1372,#1373,#1374));
#1366 = ORIENTED_EDGE('',*,*,#1367,.F.);
#1367 = EDGE_CURVE('',#632,#1268,#1368,.T.);
#1368 = LINE('',#1369,#1370);
#1369 = CARTESIAN_POINT('',(89.0177,-1.160272729289,61.701522015536));
#1370 = VECTOR('',#1371,1.);
#1371 = DIRECTION('',(-0.707106781187,-0.448035172391,-0.54705071456));
#1372 = ORIENTED_EDGE('',*,*,#631,.T.);
#1373 = ORIENTED_EDGE('',*,*,#1367,.T.);
#1374 = ORIENTED_EDGE('',*,*,#1275,.F.);
#1375 = CONICAL_SURFACE('',#1376,3.35,0.785398163397);
#1376 = AXIS2_PLACEMENT_3D('',#1377,#1378,#1379);
#1377 = CARTESIAN_POINT('',(85.6677,-1.160272729289,61.701522015536));
#1378 = DIRECTION('',(0.,0.633617417215,0.773646539837));
#1379 = DIRECTION('',(1.,0.,0.));
#1380 = ADVANCED_FACE('',(#1381),#1392,.F.);
#1381 = FACE_BOUND('',#1382,.T.);
#1382 = EDGE_LOOP('',(#1383,#1389,#1390,#1391));
#1383 = ORIENTED_EDGE('',*,*,#1384,.F.);
#1384 = EDGE_CURVE('',#643,#1293,#1385,.T.);
#1385 = LINE('',#1386,#1387);
#1386 = CARTESIAN_POINT('',(89.0177,60.731450457673,11.012128638336));
#1387 = VECTOR('',#1388,1.);
#1388 = DIRECTION('',(-0.707106781187,-0.448035172391,-0.54705071456));
#1389 = ORIENTED_EDGE('',*,*,#642,.T.);
#1390 = ORIENTED_EDGE('',*,*,#1384,.T.);
#1391 = ORIENTED_EDGE('',*,*,#1300,.F.);
#1392 = CONICAL_SURFACE('',#1393,3.35,0.785398163397);
#1393 = AXIS2_PLACEMENT_3D('',#1394,#1395,#1396);
#1394 = CARTESIAN_POINT('',(85.6677,60.731450457673,11.012128638336));
#1395 = DIRECTION('',(0.,0.633617417215,0.773646539837));
#1396 = DIRECTION('',(1.,0.,0.));
#1397 = ADVANCED_FACE('',(#1398,#1401),#1412,.F.);
#1398 = FACE_BOUND('',#1399,.T.);
#1399 = EDGE_LOOP('',(#1400));
#1400 = ORIENTED_EDGE('',*,*,#1089,.T.);
#1401 = FACE_BOUND('',#1402,.F.);
#1402 = EDGE_LOOP('',(#1403));
#1403 = ORIENTED_EDGE('',*,*,#1404,.T.);
#1404 = EDGE_CURVE('',#1405,#1405,#1407,.T.);
#1405 = VERTEX_POINT('',#1406);
#1406 = CARTESIAN_POINT('',(1.7,19.642139933665,23.983042734948));
#1407 = CIRCLE('',#1408,1.7);
#1408 = AXIS2_PLACEMENT_3D('',#1409,#1410,#1411);
#1409 = CARTESIAN_POINT('',(0.,19.642139933665,23.983042734948));
#1410 = DIRECTION('',(0.,-0.633617417215,-0.773646539837));
#1411 = DIRECTION('',(1.,0.,0.));
#1412 = PLANE('',#1413);
#1413 = AXIS2_PLACEMENT_3D('',#1414,#1415,#1416);
#1414 = CARTESIAN_POINT('',(15.,19.642139933665,23.983042734948));
#1415 = DIRECTION('',(0.,0.633617417215,0.773646539837));
#1416 = DIRECTION('',(1.,0.,0.));
#1417 = ADVANCED_FACE('',(#1418,#1421),#1432,.F.);
#1418 = FACE_BOUND('',#1419,.T.);
#1419 = EDGE_LOOP('',(#1420));
#1420 = ORIENTED_EDGE('',*,*,#1250,.T.);
#1421 = FACE_BOUND('',#1422,.F.);
#1422 = EDGE_LOOP('',(#1423));
#1423 = ORIENTED_EDGE('',*,*,#1424,.T.);
#1424 = EDGE_CURVE('',#1425,#1425,#1427,.T.);
#1425 = VERTEX_POINT('',#1426);
#1426 = CARTESIAN_POINT('',(31.7,19.642139933665,23.983042734948));
#1427 = CIRCLE('',#1428,1.7);
#1428 = AXIS2_PLACEMENT_3D('',#1429,#1430,#1431);
#1429 = CARTESIAN_POINT('',(30.,19.642139933665,23.983042734948));
#1430 = DIRECTION('',(0.,-0.633617417215,-0.773646539837));
#1431 = DIRECTION('',(1.,0.,0.));
#1432 = PLANE('',#1433);
#1433 = AXIS2_PLACEMENT_3D('',#1434,#1435,#1436);
#1434 = CARTESIAN_POINT('',(15.,19.642139933665,23.983042734948));
#1435 = DIRECTION('',(0.,0.633617417215,0.773646539837));
#1436 = DIRECTION('',(1.,0.,0.));
#1437 = ADVANCED_FACE('',(#1438),#1457,.F.);
#1438 = FACE_BOUND('',#1439,.T.);
#1439 = EDGE_LOOP('',(#1440,#1441,#1449,#1456));
#1440 = ORIENTED_EDGE('',*,*,#1327,.T.);
#1441 = ORIENTED_EDGE('',*,*,#1442,.T.);
#1442 = EDGE_CURVE('',#1318,#1443,#1445,.T.);
#1443 = VERTEX_POINT('',#1444);
#1444 = CARTESIAN_POINT('',(1.7,25.978314105815,31.719508133318));
#1445 = LINE('',#1446,#1447);
#1446 = CARTESIAN_POINT('',(1.7,28.7345498707,35.084870581609));
#1447 = VECTOR('',#1448,1.);
#1448 = DIRECTION('',(-7.E-17,-0.633617417215,-0.773646539837));
#1449 = ORIENTED_EDGE('',*,*,#1450,.T.);
#1450 = EDGE_CURVE('',#1443,#1443,#1451,.T.);
#1451 = CIRCLE('',#1452,1.7);
#1452 = AXIS2_PLACEMENT_3D('',#1453,#1454,#1455);
#1453 = CARTESIAN_POINT('',(0.,25.978314105815,31.719508133318));
#1454 = DIRECTION('',(0.,-0.633617417215,-0.773646539837));
#1455 = DIRECTION('',(1.,0.,0.));
#1456 = ORIENTED_EDGE('',*,*,#1442,.F.);
#1457 = CYLINDRICAL_SURFACE('',#1458,1.7);
#1458 = AXIS2_PLACEMENT_3D('',#1459,#1460,#1461);
#1459 = CARTESIAN_POINT('',(0.,28.7345498707,35.084870581609));
#1460 = DIRECTION('',(-0.,-0.633617417215,-0.773646539837));
#1461 = DIRECTION('',(1.,0.,0.));
#1462 = ADVANCED_FACE('',(#1463),#1482,.F.);
#1463 = FACE_BOUND('',#1464,.T.);
#1464 = EDGE_LOOP('',(#1465,#1466,#1474,#1481));
#1465 = ORIENTED_EDGE('',*,*,#1352,.T.);
#1466 = ORIENTED_EDGE('',*,*,#1467,.T.);
#1467 = EDGE_CURVE('',#1343,#1468,#1470,.T.);
#1468 = VERTEX_POINT('',#1469);
#1469 = CARTESIAN_POINT('',(31.7,25.978314105815,31.719508133318));
#1470 = LINE('',#1471,#1472);
#1471 = CARTESIAN_POINT('',(31.7,28.7345498707,35.084870581609));
#1472 = VECTOR('',#1473,1.);
#1473 = DIRECTION('',(-7.E-17,-0.633617417215,-0.773646539837));
#1474 = ORIENTED_EDGE('',*,*,#1475,.T.);
#1475 = EDGE_CURVE('',#1468,#1468,#1476,.T.);
#1476 = CIRCLE('',#1477,1.7);
#1477 = AXIS2_PLACEMENT_3D('',#1478,#1479,#1480);
#1478 = CARTESIAN_POINT('',(30.,25.978314105815,31.719508133318));
#1479 = DIRECTION('',(0.,-0.633617417215,-0.773646539837));
#1480 = DIRECTION('',(1.,0.,0.));
#1481 = ORIENTED_EDGE('',*,*,#1467,.F.);
#1482 = CYLINDRICAL_SURFACE('',#1483,1.7);
#1483 = AXIS2_PLACEMENT_3D('',#1484,#1485,#1486);
#1484 = CARTESIAN_POINT('',(30.,28.7345498707,35.084870581609));
#1485 = DIRECTION('',(-0.,-0.633617417215,-0.773646539837));
#1486 = DIRECTION('',(1.,0.,0.));
#1487 = ADVANCED_FACE('',(#1488),#1499,.F.);
#1488 = FACE_BOUND('',#1489,.T.);
#1489 = EDGE_LOOP('',(#1490,#1496,#1497,#1498));
#1490 = ORIENTED_EDGE('',*,*,#1491,.T.);
#1491 = EDGE_CURVE('',#1443,#1405,#1492,.T.);
#1492 = LINE('',#1493,#1494);
#1493 = CARTESIAN_POINT('',(1.7,25.978314105815,31.719508133318));
#1494 = VECTOR('',#1495,1.);
#1495 = DIRECTION('',(0.,-0.633617417215,-0.773646539837));
#1496 = ORIENTED_EDGE('',*,*,#1404,.T.);
#1497 = ORIENTED_EDGE('',*,*,#1491,.F.);
#1498 = ORIENTED_EDGE('',*,*,#1450,.F.);
#1499 = CYLINDRICAL_SURFACE('',#1500,1.7);
#1500 = AXIS2_PLACEMENT_3D('',#1501,#1502,#1503);
#1501 = CARTESIAN_POINT('',(0.,25.978314105815,31.719508133318));
#1502 = DIRECTION('',(0.,0.633617417215,0.773646539837));
#1503 = DIRECTION('',(1.,0.,-0.));
#1504 = ADVANCED_FACE('',(#1505),#1516,.F.);
#1505 = FACE_BOUND('',#1506,.T.);
#1506 = EDGE_LOOP('',(#1507,#1513,#1514,#1515));
#1507 = ORIENTED_EDGE('',*,*,#1508,.T.);
#1508 = EDGE_CURVE('',#1468,#1425,#1509,.T.);
#1509 = LINE('',#1510,#1511);
#1510 = CARTESIAN_POINT('',(31.7,25.978314105815,31.719508133318));
#1511 = VECTOR('',#1512,1.);
#1512 = DIRECTION('',(0.,-0.633617417215,-0.773646539837));
#1513 = ORIENTED_EDGE('',*,*,#1424,.T.);
#1514 = ORIENTED_EDGE('',*,*,#1508,.F.);
#1515 = ORIENTED_EDGE('',*,*,#1475,.F.);
#1516 = CYLINDRICAL_SURFACE('',#1517,1.7);
#1517 = AXIS2_PLACEMENT_3D('',#1518,#1519,#1520);
#1518 = CARTESIAN_POINT('',(30.,25.978314105815,31.719508133318));
#1519 = DIRECTION('',(0.,0.633617417215,0.773646539837));
#1520 = DIRECTION('',(1.,0.,-0.));
#1521 = ( GEOMETRIC_REPRESENTATION_CONTEXT(3) 
GLOBAL_UNCERTAINTY_ASSIGNED_CONTEXT((#1525)) 
GLOBAL_UNIT_ASSIGNED_CONTEXT((#1522,#1523,#1524)) REPRESENTATION_CONTEXT
('Context #1','3D Context with UNIT and UNCERTAINTY') );
#1522 = ( LENGTH_UNIT() NAMED_UNIT(*) SI_UNIT(.MILLI.,.METRE.) );
#1523 = ( NAMED_UNIT(*) PLANE_ANGLE_UNIT() SI_UNIT($,.RADIAN.) );
#1524 = ( NAMED_UNIT(*) SI_UNIT($,.STERADIAN.) SOLID_ANGLE_UNIT() );
#1525 = UNCERTAINTY_MEASURE_WITH_UNIT(LENGTH_MEASURE(1.E-07),#1522,
  'distance_accuracy_value','confusion accuracy');
#1526 = PRODUCT_RELATED_PRODUCT_CATEGORY('part',$,(#7));
ENDSEC;
END-ISO-10303-21;
