ISO-10303-21;
HEADER;
FILE_DESCRIPTION(('FreeCAD Model'),'2;1');
FILE_NAME('Open CASCADE Shape Model','2026-08-28T13:04:04',('FreeCAD'),(
    'FreeCAD'),'Open CASCADE STEP processor 7.8','FreeCAD','Unknown');
FILE_SCHEMA(('AUTOMOTIVE_DESIGN { 1 0 10303 214 1 1 1 1 }'));
ENDSEC;
DATA;
#1 = APPLICATION_PROTOCOL_DEFINITION('international standard',
  'automotive_design',2000,#2);
#2 = APPLICATION_CONTEXT(
  'core data for automotive mechanical design processes');
#3 = SHAPE_DEFINITION_REPRESENTATION(#4,#10);
#4 = PRODUCT_DEFINITION_SHAPE('','',#5);
#5 = PRODUCT_DEFINITION('design','',#6,#9);
#6 = PRODUCT_DEFINITION_FORMATION('','',#7);
#7 = PRODUCT('Open CASCADE STEP translator 7.8 41',
  'Open CASCADE STEP translator 7.8 41','',(#8));
#8 = PRODUCT_CONTEXT('',#2,'mechanical');
#9 = PRODUCT_DEFINITION_CONTEXT('part definition',#2,'design');
#10 = ADVANCED_BREP_SHAPE_REPRESENTATION('',(#11,#15),#1394);
#11 = AXIS2_PLACEMENT_3D('',#12,#13,#14);
#12 = CARTESIAN_POINT('',(0.,0.,0.));
#13 = DIRECTION('',(0.,0.,1.));
#14 = DIRECTION('',(1.,0.,-0.));
#15 = MANIFOLD_SOLID_BREP('',#16);
#16 = CLOSED_SHELL('',(#17,#77,#127,#168,#353,#377,#560,#585,#603,#627,
    #645,#684,#728,#767,#779,#799,#816,#861,#878,#890,#912,#929,#946,
    #958,#980,#997,#1014,#1026,#1051,#1076,#1101,#1126,#1151,#1176,#1201
    ,#1226,#1251,#1276,#1301,#1313,#1322,#1331,#1340,#1349,#1358,#1367,
    #1376,#1385));
#17 = ADVANCED_FACE('',(#18,#61),#72,.T.);
#18 = FACE_BOUND('',#19,.T.);
#19 = EDGE_LOOP('',(#20,#31,#39,#47,#55));
#20 = ORIENTED_EDGE('',*,*,#21,.F.);
#21 = EDGE_CURVE('',#22,#24,#26,.T.);
#22 = VERTEX_POINT('',#23);
#23 = CARTESIAN_POINT('',(62.268518290376,17.,27.));
#24 = VERTEX_POINT('',#25);
#25 = CARTESIAN_POINT('',(60.,17.,24.071480989621));
#26 = ELLIPSE('',#27,3.7741598296,2.);
#27 = AXIS2_PLACEMENT_3D('',#28,#29,#30);
#28 = CARTESIAN_POINT('',(59.,17.,26.));
#29 = DIRECTION('',(0.,1.,0.));
#30 = DIRECTION('',(1.,0.,-1.4E-16));
#31 = ORIENTED_EDGE('',*,*,#32,.T.);
#32 = EDGE_CURVE('',#22,#33,#35,.T.);
#33 = VERTEX_POINT('',#34);
#34 = CARTESIAN_POINT('',(73.,17.,27.));
#35 = LINE('',#36,#37);
#36 = CARTESIAN_POINT('',(60.,17.,27.));
#37 = VECTOR('',#38,1.);
#38 = DIRECTION('',(1.,0.,0.));
#39 = ORIENTED_EDGE('',*,*,#40,.T.);
#40 = EDGE_CURVE('',#33,#41,#43,.T.);
#41 = VERTEX_POINT('',#42);
#42 = CARTESIAN_POINT('',(73.,17.,18.));
#43 = LINE('',#44,#45);
#44 = CARTESIAN_POINT('',(73.,17.,27.));
#45 = VECTOR('',#46,1.);
#46 = DIRECTION('',(0.,0.,-1.));
#47 = ORIENTED_EDGE('',*,*,#48,.F.);
#48 = EDGE_CURVE('',#49,#41,#51,.T.);
#49 = VERTEX_POINT('',#50);
#50 = CARTESIAN_POINT('',(60.,17.,18.));
#51 = LINE('',#52,#53);
#52 = CARTESIAN_POINT('',(60.,17.,18.));
#53 = VECTOR('',#54,1.);
#54 = DIRECTION('',(1.,0.,0.));
#55 = ORIENTED_EDGE('',*,*,#56,.F.);
#56 = EDGE_CURVE('',#24,#49,#57,.T.);
#57 = LINE('',#58,#59);
#58 = CARTESIAN_POINT('',(60.,17.,27.));
#59 = VECTOR('',#60,1.);
#60 = DIRECTION('',(0.,0.,-1.));
#61 = FACE_BOUND('',#62,.T.);
#62 = EDGE_LOOP('',(#63));
#63 = ORIENTED_EDGE('',*,*,#64,.F.);
#64 = EDGE_CURVE('',#65,#65,#67,.T.);
#65 = VERTEX_POINT('',#66);
#66 = CARTESIAN_POINT('',(65.4,17.,22.5));
#67 = CIRCLE('',#68,1.7);
#68 = AXIS2_PLACEMENT_3D('',#69,#70,#71);
#69 = CARTESIAN_POINT('',(67.1,17.,22.5));
#70 = DIRECTION('',(0.,1.,-0.));
#71 = DIRECTION('',(-1.,0.,0.));
#72 = PLANE('',#73);
#73 = AXIS2_PLACEMENT_3D('',#74,#75,#76);
#74 = CARTESIAN_POINT('',(60.,17.,27.));
#75 = DIRECTION('',(0.,1.,0.));
#76 = DIRECTION('',(0.,0.,-1.));
#77 = ADVANCED_FACE('',(#78),#122,.F.);
#78 = FACE_BOUND('',#79,.F.);
#79 = EDGE_LOOP('',(#80,#90,#97,#98,#106,#115));
#80 = ORIENTED_EDGE('',*,*,#81,.F.);
#81 = EDGE_CURVE('',#82,#84,#86,.T.);
#82 = VERTEX_POINT('',#83);
#83 = CARTESIAN_POINT('',(60.,19.983226158633,26.));
#84 = VERTEX_POINT('',#85);
#85 = CARTESIAN_POINT('',(47.224167525195,12.,26.));
#86 = LINE('',#87,#88);
#87 = CARTESIAN_POINT('',(79.989411971601,32.473997062376,26.));
#88 = VECTOR('',#89,1.);
#89 = DIRECTION('',(-0.848048096156,-0.529919264233,1.7E-16));
#90 = ORIENTED_EDGE('',*,*,#91,.F.);
#91 = EDGE_CURVE('',#24,#82,#92,.T.);
#92 = ELLIPSE('',#93,2.358356806724,2.);
#93 = AXIS2_PLACEMENT_3D('',#94,#95,#96);
#94 = CARTESIAN_POINT('',(60.,17.624869351909,26.));
#95 = DIRECTION('',(1.,-0.,0.));
#96 = DIRECTION('',(0.,1.,-2.2E-16));
#97 = ORIENTED_EDGE('',*,*,#21,.F.);
#98 = ORIENTED_EDGE('',*,*,#99,.F.);
#99 = EDGE_CURVE('',#100,#22,#102,.T.);
#100 = VERTEX_POINT('',#101);
#101 = CARTESIAN_POINT('',(51.,9.958648278914,27.));
#102 = LINE('',#103,#104);
#103 = CARTESIAN_POINT('',(81.967097589628,29.309038480258,27.));
#104 = VECTOR('',#105,1.);
#105 = DIRECTION('',(0.848048096156,0.529919264233,-1.2E-16));
#106 = ORIENTED_EDGE('',*,*,#107,.T.);
#107 = EDGE_CURVE('',#100,#108,#110,.T.);
#108 = VERTEX_POINT('',#109);
#109 = CARTESIAN_POINT('',(51.,12.,24.000000196412));
#110 = ELLIPSE('',#111,2.358356806724,2.);
#111 = AXIS2_PLACEMENT_3D('',#112,#113,#114);
#112 = CARTESIAN_POINT('',(51.,12.001045184725,26.));
#113 = DIRECTION('',(1.,-0.,0.));
#114 = DIRECTION('',(0.,1.,-2.2E-16));
#115 = ORIENTED_EDGE('',*,*,#116,.F.);
#116 = EDGE_CURVE('',#84,#108,#117,.T.);
#117 = ELLIPSE('',#118,3.7741598296,2.);
#118 = AXIS2_PLACEMENT_3D('',#119,#120,#121);
#119 = CARTESIAN_POINT('',(50.998327354795,12.,26.));
#120 = DIRECTION('',(0.,-1.,0.));
#121 = DIRECTION('',(1.,0.,-1.4E-16));
#122 = CYLINDRICAL_SURFACE('',#123,2.);
#123 = AXIS2_PLACEMENT_3D('',#124,#125,#126);
#124 = CARTESIAN_POINT('',(81.049250500067,30.777900870063,26.));
#125 = DIRECTION('',(0.848048096156,0.529919264233,-1.2E-16));
#126 = DIRECTION('',(-0.529919264233,0.848048096156,-1.7E-16));
#127 = ADVANCED_FACE('',(#128),#163,.T.);
#128 = FACE_BOUND('',#129,.T.);
#129 = EDGE_LOOP('',(#130,#131,#139,#147,#155,#162));
#130 = ORIENTED_EDGE('',*,*,#56,.T.);
#131 = ORIENTED_EDGE('',*,*,#132,.T.);
#132 = EDGE_CURVE('',#49,#133,#135,.T.);
#133 = VERTEX_POINT('',#134);
#134 = CARTESIAN_POINT('',(60.,30.,18.));
#135 = LINE('',#136,#137);
#136 = CARTESIAN_POINT('',(60.,20.,18.));
#137 = VECTOR('',#138,1.);
#138 = DIRECTION('',(0.,1.,-2.2E-16));
#139 = ORIENTED_EDGE('',*,*,#140,.F.);
#140 = EDGE_CURVE('',#141,#133,#143,.T.);
#141 = VERTEX_POINT('',#142);
#142 = CARTESIAN_POINT('',(60.,30.,27.));
#143 = LINE('',#144,#145);
#144 = CARTESIAN_POINT('',(60.,30.,27.));
#145 = VECTOR('',#146,1.);
#146 = DIRECTION('',(0.,0.,-1.));
#147 = ORIENTED_EDGE('',*,*,#148,.F.);
#148 = EDGE_CURVE('',#149,#141,#151,.T.);
#149 = VERTEX_POINT('',#150);
#150 = CARTESIAN_POINT('',(60.,19.66726625772,27.));
#151 = LINE('',#152,#153);
#152 = CARTESIAN_POINT('',(60.,-20.,27.));
#153 = VECTOR('',#154,1.);
#154 = DIRECTION('',(0.,1.,0.));
#155 = ORIENTED_EDGE('',*,*,#156,.F.);
#156 = EDGE_CURVE('',#82,#149,#157,.T.);
#157 = ELLIPSE('',#158,2.358356806724,2.);
#158 = AXIS2_PLACEMENT_3D('',#159,#160,#161);
#159 = CARTESIAN_POINT('',(60.,17.624869351909,26.));
#160 = DIRECTION('',(1.,-0.,0.));
#161 = DIRECTION('',(0.,1.,-2.2E-16));
#162 = ORIENTED_EDGE('',*,*,#91,.F.);
#163 = PLANE('',#164);
#164 = AXIS2_PLACEMENT_3D('',#165,#166,#167);
#165 = CARTESIAN_POINT('',(60.,23.5,22.5));
#166 = DIRECTION('',(1.,0.,0.));
#167 = DIRECTION('',(0.,0.,1.));
#168 = ADVANCED_FACE('',(#169,#235,#269,#303,#337),#348,.T.);
#169 = FACE_BOUND('',#170,.T.);
#170 = EDGE_LOOP('',(#171,#181,#189,#197,#203,#204,#205,#213,#221,#229)
  );
#171 = ORIENTED_EDGE('',*,*,#172,.F.);
#172 = EDGE_CURVE('',#173,#175,#177,.T.);
#173 = VERTEX_POINT('',#174);
#174 = CARTESIAN_POINT('',(-20.,20.,18.));
#175 = VERTEX_POINT('',#176);
#176 = CARTESIAN_POINT('',(-20.,-20.,18.));
#177 = LINE('',#178,#179);
#178 = CARTESIAN_POINT('',(-20.,20.,18.));
#179 = VECTOR('',#180,1.);
#180 = DIRECTION('',(0.,-1.,0.));
#181 = ORIENTED_EDGE('',*,*,#182,.F.);
#182 = EDGE_CURVE('',#183,#173,#185,.T.);
#183 = VERTEX_POINT('',#184);
#184 = CARTESIAN_POINT('',(20.,20.,18.));
#185 = LINE('',#186,#187);
#186 = CARTESIAN_POINT('',(20.,20.,18.));
#187 = VECTOR('',#188,1.);
#188 = DIRECTION('',(-1.,0.,0.));
#189 = ORIENTED_EDGE('',*,*,#190,.T.);
#190 = EDGE_CURVE('',#183,#191,#193,.T.);
#191 = VERTEX_POINT('',#192);
#192 = CARTESIAN_POINT('',(20.,30.,18.));
#193 = LINE('',#194,#195);
#194 = CARTESIAN_POINT('',(20.,20.,18.));
#195 = VECTOR('',#196,1.);
#196 = DIRECTION('',(0.,1.,-2.2E-16));
#197 = ORIENTED_EDGE('',*,*,#198,.F.);
#198 = EDGE_CURVE('',#133,#191,#199,.T.);
#199 = LINE('',#200,#201);
#200 = CARTESIAN_POINT('',(60.,30.,18.));
#201 = VECTOR('',#202,1.);
#202 = DIRECTION('',(-1.,0.,0.));
#203 = ORIENTED_EDGE('',*,*,#132,.F.);
#204 = ORIENTED_EDGE('',*,*,#48,.T.);
#205 = ORIENTED_EDGE('',*,*,#206,.F.);
#206 = EDGE_CURVE('',#207,#41,#209,.T.);
#207 = VERTEX_POINT('',#208);
#208 = CARTESIAN_POINT('',(73.,7.,18.));
#209 = LINE('',#210,#211);
#210 = CARTESIAN_POINT('',(73.,7.,18.));
#211 = VECTOR('',#212,1.);
#212 = DIRECTION('',(0.,1.,0.));
#213 = ORIENTED_EDGE('',*,*,#214,.F.);
#214 = EDGE_CURVE('',#215,#207,#217,.T.);
#215 = VERTEX_POINT('',#216);
#216 = CARTESIAN_POINT('',(60.,7.,18.));
#217 = LINE('',#218,#219);
#218 = CARTESIAN_POINT('',(60.,7.,18.));
#219 = VECTOR('',#220,1.);
#220 = DIRECTION('',(1.,0.,0.));
#221 = ORIENTED_EDGE('',*,*,#222,.F.);
#222 = EDGE_CURVE('',#223,#215,#225,.T.);
#223 = VERTEX_POINT('',#224);
#224 = CARTESIAN_POINT('',(60.,-20.,18.));
#225 = LINE('',#226,#227);
#226 = CARTESIAN_POINT('',(60.,-20.,18.));
#227 = VECTOR('',#228,1.);
#228 = DIRECTION('',(0.,1.,0.));
#229 = ORIENTED_EDGE('',*,*,#230,.F.);
#230 = EDGE_CURVE('',#175,#223,#231,.T.);
#231 = LINE('',#232,#233);
#232 = CARTESIAN_POINT('',(20.,-20.,18.));
#233 = VECTOR('',#234,1.);
#234 = DIRECTION('',(1.,0.,0.));
#235 = FACE_BOUND('',#236,.T.);
#236 = EDGE_LOOP('',(#237,#247,#255,#263));
#237 = ORIENTED_EDGE('',*,*,#238,.T.);
#238 = EDGE_CURVE('',#239,#241,#243,.T.);
#239 = VERTEX_POINT('',#240);
#240 = CARTESIAN_POINT('',(23.,12.,18.));
#241 = VERTEX_POINT('',#242);
#242 = CARTESIAN_POINT('',(23.,-2.,18.));
#243 = LINE('',#244,#245);
#244 = CARTESIAN_POINT('',(23.,12.,18.));
#245 = VECTOR('',#246,1.);
#246 = DIRECTION('',(0.,-1.,0.));
#247 = ORIENTED_EDGE('',*,*,#248,.T.);
#248 = EDGE_CURVE('',#241,#249,#251,.T.);
#249 = VERTEX_POINT('',#250);
#250 = CARTESIAN_POINT('',(51.,-2.,18.));
#251 = LINE('',#252,#253);
#252 = CARTESIAN_POINT('',(23.,-2.,18.));
#253 = VECTOR('',#254,1.);
#254 = DIRECTION('',(1.,0.,0.));
#255 = ORIENTED_EDGE('',*,*,#256,.F.);
#256 = EDGE_CURVE('',#257,#249,#259,.T.);
#257 = VERTEX_POINT('',#258);
#258 = CARTESIAN_POINT('',(51.,12.,18.));
#259 = LINE('',#260,#261);
#260 = CARTESIAN_POINT('',(51.,12.,18.));
#261 = VECTOR('',#262,1.);
#262 = DIRECTION('',(0.,-1.,0.));
#263 = ORIENTED_EDGE('',*,*,#264,.T.);
#264 = EDGE_CURVE('',#257,#239,#265,.T.);
#265 = LINE('',#266,#267);
#266 = CARTESIAN_POINT('',(51.,12.,18.));
#267 = VECTOR('',#268,1.);
#268 = DIRECTION('',(-1.,0.,0.));
#269 = FACE_BOUND('',#270,.T.);
#270 = EDGE_LOOP('',(#271,#281,#289,#297));
#271 = ORIENTED_EDGE('',*,*,#272,.T.);
#272 = EDGE_CURVE('',#273,#275,#277,.T.);
#273 = VERTEX_POINT('',#274);
#274 = CARTESIAN_POINT('',(23.,-4.4,18.));
#275 = VERTEX_POINT('',#276);
#276 = CARTESIAN_POINT('',(23.,-7.599980672327,18.));
#277 = LINE('',#278,#279);
#278 = CARTESIAN_POINT('',(23.,-4.4,18.));
#279 = VECTOR('',#280,1.);
#280 = DIRECTION('',(0.,-1.,0.));
#281 = ORIENTED_EDGE('',*,*,#282,.T.);
#282 = EDGE_CURVE('',#275,#283,#285,.T.);
#283 = VERTEX_POINT('',#284);
#284 = CARTESIAN_POINT('',(51.,-7.599980672327,18.));
#285 = LINE('',#286,#287);
#286 = CARTESIAN_POINT('',(23.,-7.599980672327,18.));
#287 = VECTOR('',#288,1.);
#288 = DIRECTION('',(1.,0.,0.));
#289 = ORIENTED_EDGE('',*,*,#290,.F.);
#290 = EDGE_CURVE('',#291,#283,#293,.T.);
#291 = VERTEX_POINT('',#292);
#292 = CARTESIAN_POINT('',(51.,-4.4,18.));
#293 = LINE('',#294,#295);
#294 = CARTESIAN_POINT('',(51.,-4.4,18.));
#295 = VECTOR('',#296,1.);
#296 = DIRECTION('',(0.,-1.,0.));
#297 = ORIENTED_EDGE('',*,*,#298,.T.);
#298 = EDGE_CURVE('',#291,#273,#299,.T.);
#299 = LINE('',#300,#301);
#300 = CARTESIAN_POINT('',(51.,-4.4,18.));
#301 = VECTOR('',#302,1.);
#302 = DIRECTION('',(-1.,0.,0.));
#303 = FACE_BOUND('',#304,.T.);
#304 = EDGE_LOOP('',(#305,#315,#323,#331));
#305 = ORIENTED_EDGE('',*,*,#306,.T.);
#306 = EDGE_CURVE('',#307,#309,#311,.T.);
#307 = VERTEX_POINT('',#308);
#308 = CARTESIAN_POINT('',(23.,17.599980672327,18.));
#309 = VERTEX_POINT('',#310);
#310 = CARTESIAN_POINT('',(23.,14.4,18.));
#311 = LINE('',#312,#313);
#312 = CARTESIAN_POINT('',(23.,17.599980672327,18.));
#313 = VECTOR('',#314,1.);
#314 = DIRECTION('',(0.,-1.,0.));
#315 = ORIENTED_EDGE('',*,*,#316,.T.);
#316 = EDGE_CURVE('',#309,#317,#319,.T.);
#317 = VERTEX_POINT('',#318);
#318 = CARTESIAN_POINT('',(51.,14.4,18.));
#319 = LINE('',#320,#321);
#320 = CARTESIAN_POINT('',(23.,14.4,18.));
#321 = VECTOR('',#322,1.);
#322 = DIRECTION('',(1.,0.,0.));
#323 = ORIENTED_EDGE('',*,*,#324,.F.);
#324 = EDGE_CURVE('',#325,#317,#327,.T.);
#325 = VERTEX_POINT('',#326);
#326 = CARTESIAN_POINT('',(51.,17.599980672327,18.));
#327 = LINE('',#328,#329);
#328 = CARTESIAN_POINT('',(51.,17.599980672327,18.));
#329 = VECTOR('',#330,1.);
#330 = DIRECTION('',(0.,-1.,0.));
#331 = ORIENTED_EDGE('',*,*,#332,.T.);
#332 = EDGE_CURVE('',#325,#307,#333,.T.);
#333 = LINE('',#334,#335);
#334 = CARTESIAN_POINT('',(51.,17.599980672327,18.));
#335 = VECTOR('',#336,1.);
#336 = DIRECTION('',(-1.,0.,0.));
#337 = FACE_BOUND('',#338,.T.);
#338 = EDGE_LOOP('',(#339));
#339 = ORIENTED_EDGE('',*,*,#340,.F.);
#340 = EDGE_CURVE('',#341,#341,#343,.T.);
#341 = VERTEX_POINT('',#342);
#342 = CARTESIAN_POINT('',(7.,5.,18.));
#343 = CIRCLE('',#344,7.);
#344 = AXIS2_PLACEMENT_3D('',#345,#346,#347);
#345 = CARTESIAN_POINT('',(0.,5.,18.));
#346 = DIRECTION('',(0.,0.,-1.));
#347 = DIRECTION('',(1.,0.,0.));
#348 = PLANE('',#349);
#349 = AXIS2_PLACEMENT_3D('',#350,#351,#352);
#350 = CARTESIAN_POINT('',(26.08041958042,4.237762237762,18.));
#351 = DIRECTION('',(-0.,-0.,-1.));
#352 = DIRECTION('',(-1.,0.,0.));
#353 = ADVANCED_FACE('',(#354),#372,.T.);
#354 = FACE_BOUND('',#355,.T.);
#355 = EDGE_LOOP('',(#356,#364,#370,#371));
#356 = ORIENTED_EDGE('',*,*,#357,.F.);
#357 = EDGE_CURVE('',#358,#33,#360,.T.);
#358 = VERTEX_POINT('',#359);
#359 = CARTESIAN_POINT('',(73.,7.,27.));
#360 = LINE('',#361,#362);
#361 = CARTESIAN_POINT('',(73.,7.,27.));
#362 = VECTOR('',#363,1.);
#363 = DIRECTION('',(0.,1.,0.));
#364 = ORIENTED_EDGE('',*,*,#365,.T.);
#365 = EDGE_CURVE('',#358,#207,#366,.T.);
#366 = LINE('',#367,#368);
#367 = CARTESIAN_POINT('',(73.,7.,27.));
#368 = VECTOR('',#369,1.);
#369 = DIRECTION('',(0.,0.,-1.));
#370 = ORIENTED_EDGE('',*,*,#206,.T.);
#371 = ORIENTED_EDGE('',*,*,#40,.F.);
#372 = PLANE('',#373);
#373 = AXIS2_PLACEMENT_3D('',#374,#375,#376);
#374 = CARTESIAN_POINT('',(73.,12.,22.5));
#375 = DIRECTION('',(1.,0.,0.));
#376 = DIRECTION('',(0.,0.,1.));
#377 = ADVANCED_FACE('',(#378,#476,#510,#521),#555,.T.);
#378 = FACE_BOUND('',#379,.T.);
#379 = EDGE_LOOP('',(#380,#390,#398,#406,#414,#420,#421,#422,#423,#431,
    #439,#447,#455,#461,#462,#470));
#380 = ORIENTED_EDGE('',*,*,#381,.T.);
#381 = EDGE_CURVE('',#382,#384,#386,.T.);
#382 = VERTEX_POINT('',#383);
#383 = CARTESIAN_POINT('',(20.,20.,27.));
#384 = VERTEX_POINT('',#385);
#385 = CARTESIAN_POINT('',(-20.,20.,27.));
#386 = LINE('',#387,#388);
#387 = CARTESIAN_POINT('',(60.,20.,27.));
#388 = VECTOR('',#389,1.);
#389 = DIRECTION('',(-1.,0.,0.));
#390 = ORIENTED_EDGE('',*,*,#391,.T.);
#391 = EDGE_CURVE('',#384,#392,#394,.T.);
#392 = VERTEX_POINT('',#393);
#393 = CARTESIAN_POINT('',(-20.,-20.,27.));
#394 = LINE('',#395,#396);
#395 = CARTESIAN_POINT('',(-20.,20.,27.));
#396 = VECTOR('',#397,1.);
#397 = DIRECTION('',(0.,-1.,0.));
#398 = ORIENTED_EDGE('',*,*,#399,.T.);
#399 = EDGE_CURVE('',#392,#400,#402,.T.);
#400 = VERTEX_POINT('',#401);
#401 = CARTESIAN_POINT('',(60.,-20.,27.));
#402 = LINE('',#403,#404);
#403 = CARTESIAN_POINT('',(-20.,-20.,27.));
#404 = VECTOR('',#405,1.);
#405 = DIRECTION('',(1.,0.,0.));
#406 = ORIENTED_EDGE('',*,*,#407,.T.);
#407 = EDGE_CURVE('',#400,#408,#410,.T.);
#408 = VERTEX_POINT('',#409);
#409 = CARTESIAN_POINT('',(60.,7.,27.));
#410 = LINE('',#411,#412);
#411 = CARTESIAN_POINT('',(60.,-20.,27.));
#412 = VECTOR('',#413,1.);
#413 = DIRECTION('',(0.,1.,0.));
#414 = ORIENTED_EDGE('',*,*,#415,.T.);
#415 = EDGE_CURVE('',#408,#358,#416,.T.);
#416 = LINE('',#417,#418);
#417 = CARTESIAN_POINT('',(60.,7.,27.));
#418 = VECTOR('',#419,1.);
#419 = DIRECTION('',(1.,0.,0.));
#420 = ORIENTED_EDGE('',*,*,#357,.T.);
#421 = ORIENTED_EDGE('',*,*,#32,.F.);
#422 = ORIENTED_EDGE('',*,*,#99,.F.);
#423 = ORIENTED_EDGE('',*,*,#424,.T.);
#424 = EDGE_CURVE('',#100,#425,#427,.T.);
#425 = VERTEX_POINT('',#426);
#426 = CARTESIAN_POINT('',(51.,-2.,27.));
#427 = LINE('',#428,#429);
#428 = CARTESIAN_POINT('',(51.,12.,27.));
#429 = VECTOR('',#430,1.);
#430 = DIRECTION('',(0.,-1.,0.));
#431 = ORIENTED_EDGE('',*,*,#432,.F.);
#432 = EDGE_CURVE('',#433,#425,#435,.T.);
#433 = VERTEX_POINT('',#434);
#434 = CARTESIAN_POINT('',(23.,-2.,27.));
#435 = LINE('',#436,#437);
#436 = CARTESIAN_POINT('',(23.,-2.,27.));
#437 = VECTOR('',#438,1.);
#438 = DIRECTION('',(1.,0.,0.));
#439 = ORIENTED_EDGE('',*,*,#440,.F.);
#440 = EDGE_CURVE('',#441,#433,#443,.T.);
#441 = VERTEX_POINT('',#442);
#442 = CARTESIAN_POINT('',(23.,12.,27.));
#443 = LINE('',#444,#445);
#444 = CARTESIAN_POINT('',(23.,12.,27.));
#445 = VECTOR('',#446,1.);
#446 = DIRECTION('',(0.,-1.,0.));
#447 = ORIENTED_EDGE('',*,*,#448,.F.);
#448 = EDGE_CURVE('',#449,#441,#451,.T.);
#449 = VERTEX_POINT('',#450);
#450 = CARTESIAN_POINT('',(47.729809064419,12.,27.));
#451 = LINE('',#452,#453);
#452 = CARTESIAN_POINT('',(51.,12.,27.));
#453 = VECTOR('',#454,1.);
#454 = DIRECTION('',(-1.,0.,0.));
#455 = ORIENTED_EDGE('',*,*,#456,.T.);
#456 = EDGE_CURVE('',#449,#149,#457,.T.);
#457 = LINE('',#458,#459);
#458 = CARTESIAN_POINT('',(80.131403410506,32.246763259868,27.));
#459 = VECTOR('',#460,1.);
#460 = DIRECTION('',(0.848048096156,0.529919264233,-1.2E-16));
#461 = ORIENTED_EDGE('',*,*,#148,.T.);
#462 = ORIENTED_EDGE('',*,*,#463,.F.);
#463 = EDGE_CURVE('',#464,#141,#466,.T.);
#464 = VERTEX_POINT('',#465);
#465 = CARTESIAN_POINT('',(20.,30.,27.));
#466 = LINE('',#467,#468);
#467 = CARTESIAN_POINT('',(20.,30.,27.));
#468 = VECTOR('',#469,1.);
#469 = DIRECTION('',(1.,0.,0.));
#470 = ORIENTED_EDGE('',*,*,#471,.F.);
#471 = EDGE_CURVE('',#382,#464,#472,.T.);
#472 = LINE('',#473,#474);
#473 = CARTESIAN_POINT('',(20.,20.,27.));
#474 = VECTOR('',#475,1.);
#475 = DIRECTION('',(0.,1.,-2.2E-16));
#476 = FACE_BOUND('',#477,.T.);
#477 = EDGE_LOOP('',(#478,#488,#496,#504));
#478 = ORIENTED_EDGE('',*,*,#479,.F.);
#479 = EDGE_CURVE('',#480,#482,#484,.T.);
#480 = VERTEX_POINT('',#481);
#481 = CARTESIAN_POINT('',(23.,-4.4,27.));
#482 = VERTEX_POINT('',#483);
#483 = CARTESIAN_POINT('',(23.,-7.599980672327,27.));
#484 = LINE('',#485,#486);
#485 = CARTESIAN_POINT('',(23.,-4.4,27.));
#486 = VECTOR('',#487,1.);
#487 = DIRECTION('',(0.,-1.,0.));
#488 = ORIENTED_EDGE('',*,*,#489,.F.);
#489 = EDGE_CURVE('',#490,#480,#492,.T.);
#490 = VERTEX_POINT('',#491);
#491 = CARTESIAN_POINT('',(51.,-4.4,27.));
#492 = LINE('',#493,#494);
#493 = CARTESIAN_POINT('',(51.,-4.4,27.));
#494 = VECTOR('',#495,1.);
#495 = DIRECTION('',(-1.,0.,0.));
#496 = ORIENTED_EDGE('',*,*,#497,.T.);
#497 = EDGE_CURVE('',#490,#498,#500,.T.);
#498 = VERTEX_POINT('',#499);
#499 = CARTESIAN_POINT('',(51.,-7.599980672327,27.));
#500 = LINE('',#501,#502);
#501 = CARTESIAN_POINT('',(51.,-4.4,27.));
#502 = VECTOR('',#503,1.);
#503 = DIRECTION('',(0.,-1.,0.));
#504 = ORIENTED_EDGE('',*,*,#505,.F.);
#505 = EDGE_CURVE('',#482,#498,#506,.T.);
#506 = LINE('',#507,#508);
#507 = CARTESIAN_POINT('',(23.,-7.599980672327,27.));
#508 = VECTOR('',#509,1.);
#509 = DIRECTION('',(1.,0.,0.));
#510 = FACE_BOUND('',#511,.T.);
#511 = EDGE_LOOP('',(#512));
#512 = ORIENTED_EDGE('',*,*,#513,.F.);
#513 = EDGE_CURVE('',#514,#514,#516,.T.);
#514 = VERTEX_POINT('',#515);
#515 = CARTESIAN_POINT('',(9.,5.,27.));
#516 = CIRCLE('',#517,9.);
#517 = AXIS2_PLACEMENT_3D('',#518,#519,#520);
#518 = CARTESIAN_POINT('',(0.,5.,27.));
#519 = DIRECTION('',(0.,0.,1.));
#520 = DIRECTION('',(1.,0.,0.));
#521 = FACE_BOUND('',#522,.T.);
#522 = EDGE_LOOP('',(#523,#533,#541,#549));
#523 = ORIENTED_EDGE('',*,*,#524,.F.);
#524 = EDGE_CURVE('',#525,#527,#529,.T.);
#525 = VERTEX_POINT('',#526);
#526 = CARTESIAN_POINT('',(23.,17.599980672327,27.));
#527 = VERTEX_POINT('',#528);
#528 = CARTESIAN_POINT('',(23.,14.4,27.));
#529 = LINE('',#530,#531);
#530 = CARTESIAN_POINT('',(23.,17.599980672327,27.));
#531 = VECTOR('',#532,1.);
#532 = DIRECTION('',(0.,-1.,0.));
#533 = ORIENTED_EDGE('',*,*,#534,.F.);
#534 = EDGE_CURVE('',#535,#525,#537,.T.);
#535 = VERTEX_POINT('',#536);
#536 = CARTESIAN_POINT('',(51.,17.599980672327,27.));
#537 = LINE('',#538,#539);
#538 = CARTESIAN_POINT('',(51.,17.599980672327,27.));
#539 = VECTOR('',#540,1.);
#540 = DIRECTION('',(-1.,0.,0.));
#541 = ORIENTED_EDGE('',*,*,#542,.T.);
#542 = EDGE_CURVE('',#535,#543,#545,.T.);
#543 = VERTEX_POINT('',#544);
#544 = CARTESIAN_POINT('',(51.,14.4,27.));
#545 = LINE('',#546,#547);
#546 = CARTESIAN_POINT('',(51.,17.599980672327,27.));
#547 = VECTOR('',#548,1.);
#548 = DIRECTION('',(0.,-1.,0.));
#549 = ORIENTED_EDGE('',*,*,#550,.F.);
#550 = EDGE_CURVE('',#527,#543,#551,.T.);
#551 = LINE('',#552,#553);
#552 = CARTESIAN_POINT('',(23.,14.4,27.));
#553 = VECTOR('',#554,1.);
#554 = DIRECTION('',(1.,0.,0.));
#555 = PLANE('',#556);
#556 = AXIS2_PLACEMENT_3D('',#557,#558,#559);
#557 = CARTESIAN_POINT('',(26.08041958042,4.237762237762,27.));
#558 = DIRECTION('',(0.,0.,1.));
#559 = DIRECTION('',(1.,0.,0.));
#560 = ADVANCED_FACE('',(#561),#580,.F.);
#561 = FACE_BOUND('',#562,.F.);
#562 = EDGE_LOOP('',(#563,#564,#572,#579));
#563 = ORIENTED_EDGE('',*,*,#64,.F.);
#564 = ORIENTED_EDGE('',*,*,#565,.T.);
#565 = EDGE_CURVE('',#65,#566,#568,.T.);
#566 = VERTEX_POINT('',#567);
#567 = CARTESIAN_POINT('',(65.4,7.,22.5));
#568 = LINE('',#569,#570);
#569 = CARTESIAN_POINT('',(65.4,17.,22.5));
#570 = VECTOR('',#571,1.);
#571 = DIRECTION('',(0.,-1.,2.2E-16));
#572 = ORIENTED_EDGE('',*,*,#573,.T.);
#573 = EDGE_CURVE('',#566,#566,#574,.T.);
#574 = CIRCLE('',#575,1.7);
#575 = AXIS2_PLACEMENT_3D('',#576,#577,#578);
#576 = CARTESIAN_POINT('',(67.1,7.,22.5));
#577 = DIRECTION('',(0.,1.,-2.2E-16));
#578 = DIRECTION('',(-1.,0.,0.));
#579 = ORIENTED_EDGE('',*,*,#565,.F.);
#580 = CYLINDRICAL_SURFACE('',#581,1.7);
#581 = AXIS2_PLACEMENT_3D('',#582,#583,#584);
#582 = CARTESIAN_POINT('',(67.1,17.,22.5));
#583 = DIRECTION('',(0.,1.,-2.2E-16));
#584 = DIRECTION('',(-1.,0.,0.));
#585 = ADVANCED_FACE('',(#586),#598,.F.);
#586 = FACE_BOUND('',#587,.F.);
#587 = EDGE_LOOP('',(#588,#589,#590,#597));
#588 = ORIENTED_EDGE('',*,*,#156,.F.);
#589 = ORIENTED_EDGE('',*,*,#81,.T.);
#590 = ORIENTED_EDGE('',*,*,#591,.F.);
#591 = EDGE_CURVE('',#449,#84,#592,.T.);
#592 = ELLIPSE('',#593,3.7741598296,2.);
#593 = AXIS2_PLACEMENT_3D('',#594,#595,#596);
#594 = CARTESIAN_POINT('',(50.998327354795,12.,26.));
#595 = DIRECTION('',(0.,-1.,0.));
#596 = DIRECTION('',(1.,0.,-1.4E-16));
#597 = ORIENTED_EDGE('',*,*,#456,.T.);
#598 = CYLINDRICAL_SURFACE('',#599,2.);
#599 = AXIS2_PLACEMENT_3D('',#600,#601,#602);
#600 = CARTESIAN_POINT('',(81.049250500067,30.777900870063,26.));
#601 = DIRECTION('',(0.848048096156,0.529919264233,-1.2E-16));
#602 = DIRECTION('',(-0.529919264233,0.848048096156,-1.7E-16));
#603 = ADVANCED_FACE('',(#604),#622,.T.);
#604 = FACE_BOUND('',#605,.T.);
#605 = EDGE_LOOP('',(#606,#607,#613,#614,#615,#616));
#606 = ORIENTED_EDGE('',*,*,#264,.F.);
#607 = ORIENTED_EDGE('',*,*,#608,.T.);
#608 = EDGE_CURVE('',#257,#108,#609,.T.);
#609 = LINE('',#610,#611);
#610 = CARTESIAN_POINT('',(51.,12.,18.));
#611 = VECTOR('',#612,1.);
#612 = DIRECTION('',(0.,0.,1.));
#613 = ORIENTED_EDGE('',*,*,#116,.F.);
#614 = ORIENTED_EDGE('',*,*,#591,.F.);
#615 = ORIENTED_EDGE('',*,*,#448,.T.);
#616 = ORIENTED_EDGE('',*,*,#617,.F.);
#617 = EDGE_CURVE('',#239,#441,#618,.T.);
#618 = LINE('',#619,#620);
#619 = CARTESIAN_POINT('',(23.,12.,18.));
#620 = VECTOR('',#621,1.);
#621 = DIRECTION('',(0.,0.,1.));
#622 = PLANE('',#623);
#623 = AXIS2_PLACEMENT_3D('',#624,#625,#626);
#624 = CARTESIAN_POINT('',(51.,12.,18.));
#625 = DIRECTION('',(0.,-1.,0.));
#626 = DIRECTION('',(-1.,0.,0.));
#627 = ADVANCED_FACE('',(#628),#640,.F.);
#628 = FACE_BOUND('',#629,.F.);
#629 = EDGE_LOOP('',(#630,#631,#632,#633,#634));
#630 = ORIENTED_EDGE('',*,*,#256,.F.);
#631 = ORIENTED_EDGE('',*,*,#608,.T.);
#632 = ORIENTED_EDGE('',*,*,#107,.F.);
#633 = ORIENTED_EDGE('',*,*,#424,.T.);
#634 = ORIENTED_EDGE('',*,*,#635,.F.);
#635 = EDGE_CURVE('',#249,#425,#636,.T.);
#636 = LINE('',#637,#638);
#637 = CARTESIAN_POINT('',(51.,-2.,18.));
#638 = VECTOR('',#639,1.);
#639 = DIRECTION('',(0.,0.,1.));
#640 = PLANE('',#641);
#641 = AXIS2_PLACEMENT_3D('',#642,#643,#644);
#642 = CARTESIAN_POINT('',(51.,12.,18.));
#643 = DIRECTION('',(1.,0.,0.));
#644 = DIRECTION('',(0.,-1.,0.));
#645 = ADVANCED_FACE('',(#646,#657,#668),#679,.T.);
#646 = FACE_BOUND('',#647,.T.);
#647 = EDGE_LOOP('',(#648,#649,#650,#656));
#648 = ORIENTED_EDGE('',*,*,#140,.T.);
#649 = ORIENTED_EDGE('',*,*,#198,.T.);
#650 = ORIENTED_EDGE('',*,*,#651,.T.);
#651 = EDGE_CURVE('',#191,#464,#652,.T.);
#652 = LINE('',#653,#654);
#653 = CARTESIAN_POINT('',(20.,30.,18.));
#654 = VECTOR('',#655,1.);
#655 = DIRECTION('',(0.,0.,1.));
#656 = ORIENTED_EDGE('',*,*,#463,.T.);
#657 = FACE_BOUND('',#658,.T.);
#658 = EDGE_LOOP('',(#659));
#659 = ORIENTED_EDGE('',*,*,#660,.F.);
#660 = EDGE_CURVE('',#661,#661,#663,.T.);
#661 = VERTEX_POINT('',#662);
#662 = CARTESIAN_POINT('',(26.25,30.,22.499999999951));
#663 = CIRCLE('',#664,1.25);
#664 = AXIS2_PLACEMENT_3D('',#665,#666,#667);
#665 = CARTESIAN_POINT('',(27.5,30.,22.499999999951));
#666 = DIRECTION('',(0.,1.,-0.));
#667 = DIRECTION('',(-1.,0.,0.));
#668 = FACE_BOUND('',#669,.T.);
#669 = EDGE_LOOP('',(#670));
#670 = ORIENTED_EDGE('',*,*,#671,.F.);
#671 = EDGE_CURVE('',#672,#672,#674,.T.);
#672 = VERTEX_POINT('',#673);
#673 = CARTESIAN_POINT('',(51.25,30.,22.499999999951));
#674 = CIRCLE('',#675,1.25);
#675 = AXIS2_PLACEMENT_3D('',#676,#677,#678);
#676 = CARTESIAN_POINT('',(52.5,30.,22.499999999951));
#677 = DIRECTION('',(0.,1.,-0.));
#678 = DIRECTION('',(-1.,0.,0.));
#679 = PLANE('',#680);
#680 = AXIS2_PLACEMENT_3D('',#681,#682,#683);
#681 = CARTESIAN_POINT('',(40.,30.,22.5));
#682 = DIRECTION('',(0.,1.,-3.9E-16));
#683 = DIRECTION('',(0.,3.9E-16,1.));
#684 = ADVANCED_FACE('',(#685,#701,#712),#723,.F.);
#685 = FACE_BOUND('',#686,.F.);
#686 = EDGE_LOOP('',(#687,#693,#694,#700));
#687 = ORIENTED_EDGE('',*,*,#688,.T.);
#688 = EDGE_CURVE('',#173,#384,#689,.T.);
#689 = LINE('',#690,#691);
#690 = CARTESIAN_POINT('',(-20.,20.,18.));
#691 = VECTOR('',#692,1.);
#692 = DIRECTION('',(0.,0.,1.));
#693 = ORIENTED_EDGE('',*,*,#391,.T.);
#694 = ORIENTED_EDGE('',*,*,#695,.F.);
#695 = EDGE_CURVE('',#175,#392,#696,.T.);
#696 = LINE('',#697,#698);
#697 = CARTESIAN_POINT('',(-20.,-20.,18.));
#698 = VECTOR('',#699,1.);
#699 = DIRECTION('',(0.,0.,1.));
#700 = ORIENTED_EDGE('',*,*,#172,.F.);
#701 = FACE_BOUND('',#702,.F.);
#702 = EDGE_LOOP('',(#703));
#703 = ORIENTED_EDGE('',*,*,#704,.T.);
#704 = EDGE_CURVE('',#705,#705,#707,.T.);
#705 = VERTEX_POINT('',#706);
#706 = CARTESIAN_POINT('',(-20.,10.8,22.5));
#707 = CIRCLE('',#708,1.2);
#708 = AXIS2_PLACEMENT_3D('',#709,#710,#711);
#709 = CARTESIAN_POINT('',(-20.,12.,22.5));
#710 = DIRECTION('',(-1.,0.,0.));
#711 = DIRECTION('',(0.,-1.,0.));
#712 = FACE_BOUND('',#713,.F.);
#713 = EDGE_LOOP('',(#714));
#714 = ORIENTED_EDGE('',*,*,#715,.T.);
#715 = EDGE_CURVE('',#716,#716,#718,.T.);
#716 = VERTEX_POINT('',#717);
#717 = CARTESIAN_POINT('',(-20.,2.8,22.5));
#718 = CIRCLE('',#719,1.2);
#719 = AXIS2_PLACEMENT_3D('',#720,#721,#722);
#720 = CARTESIAN_POINT('',(-20.,4.,22.5));
#721 = DIRECTION('',(-1.,0.,0.));
#722 = DIRECTION('',(0.,-1.,0.));
#723 = PLANE('',#724);
#724 = AXIS2_PLACEMENT_3D('',#725,#726,#727);
#725 = CARTESIAN_POINT('',(-20.,20.,18.));
#726 = DIRECTION('',(1.,0.,0.));
#727 = DIRECTION('',(0.,-1.,0.));
#728 = ADVANCED_FACE('',(#729,#740,#751),#762,.T.);
#729 = FACE_BOUND('',#730,.T.);
#730 = EDGE_LOOP('',(#731,#737,#738,#739));
#731 = ORIENTED_EDGE('',*,*,#732,.F.);
#732 = EDGE_CURVE('',#183,#382,#733,.T.);
#733 = LINE('',#734,#735);
#734 = CARTESIAN_POINT('',(20.,20.,18.));
#735 = VECTOR('',#736,1.);
#736 = DIRECTION('',(0.,0.,1.));
#737 = ORIENTED_EDGE('',*,*,#182,.T.);
#738 = ORIENTED_EDGE('',*,*,#688,.T.);
#739 = ORIENTED_EDGE('',*,*,#381,.F.);
#740 = FACE_BOUND('',#741,.T.);
#741 = EDGE_LOOP('',(#742));
#742 = ORIENTED_EDGE('',*,*,#743,.F.);
#743 = EDGE_CURVE('',#744,#744,#746,.T.);
#744 = VERTEX_POINT('',#745);
#745 = CARTESIAN_POINT('',(-9.2,20.,22.5));
#746 = CIRCLE('',#747,1.2);
#747 = AXIS2_PLACEMENT_3D('',#748,#749,#750);
#748 = CARTESIAN_POINT('',(-8.,20.,22.5));
#749 = DIRECTION('',(0.,1.,-0.));
#750 = DIRECTION('',(-1.,0.,0.));
#751 = FACE_BOUND('',#752,.T.);
#752 = EDGE_LOOP('',(#753));
#753 = ORIENTED_EDGE('',*,*,#754,.F.);
#754 = EDGE_CURVE('',#755,#755,#757,.T.);
#755 = VERTEX_POINT('',#756);
#756 = CARTESIAN_POINT('',(6.8,20.,22.5));
#757 = CIRCLE('',#758,1.2);
#758 = AXIS2_PLACEMENT_3D('',#759,#760,#761);
#759 = CARTESIAN_POINT('',(8.,20.,22.5));
#760 = DIRECTION('',(0.,1.,-0.));
#761 = DIRECTION('',(-1.,0.,0.));
#762 = PLANE('',#763);
#763 = AXIS2_PLACEMENT_3D('',#764,#765,#766);
#764 = CARTESIAN_POINT('',(20.,20.,22.5));
#765 = DIRECTION('',(0.,1.,0.));
#766 = DIRECTION('',(0.,0.,1.));
#767 = ADVANCED_FACE('',(#768),#774,.F.);
#768 = FACE_BOUND('',#769,.F.);
#769 = EDGE_LOOP('',(#770,#771,#772,#773));
#770 = ORIENTED_EDGE('',*,*,#190,.T.);
#771 = ORIENTED_EDGE('',*,*,#651,.T.);
#772 = ORIENTED_EDGE('',*,*,#471,.F.);
#773 = ORIENTED_EDGE('',*,*,#732,.F.);
#774 = PLANE('',#775);
#775 = AXIS2_PLACEMENT_3D('',#776,#777,#778);
#776 = CARTESIAN_POINT('',(20.,20.,18.));
#777 = DIRECTION('',(1.,0.,0.));
#778 = DIRECTION('',(0.,2.2E-16,1.));
#779 = ADVANCED_FACE('',(#780,#791),#794,.F.);
#780 = FACE_BOUND('',#781,.F.);
#781 = EDGE_LOOP('',(#782,#783,#784,#785));
#782 = ORIENTED_EDGE('',*,*,#415,.T.);
#783 = ORIENTED_EDGE('',*,*,#365,.T.);
#784 = ORIENTED_EDGE('',*,*,#214,.F.);
#785 = ORIENTED_EDGE('',*,*,#786,.F.);
#786 = EDGE_CURVE('',#408,#215,#787,.T.);
#787 = LINE('',#788,#789);
#788 = CARTESIAN_POINT('',(60.,7.,27.));
#789 = VECTOR('',#790,1.);
#790 = DIRECTION('',(0.,0.,-1.));
#791 = FACE_BOUND('',#792,.F.);
#792 = EDGE_LOOP('',(#793));
#793 = ORIENTED_EDGE('',*,*,#573,.F.);
#794 = PLANE('',#795);
#795 = AXIS2_PLACEMENT_3D('',#796,#797,#798);
#796 = CARTESIAN_POINT('',(60.,7.,27.));
#797 = DIRECTION('',(0.,1.,0.));
#798 = DIRECTION('',(0.,0.,-1.));
#799 = ADVANCED_FACE('',(#800),#811,.F.);
#800 = FACE_BOUND('',#801,.F.);
#801 = EDGE_LOOP('',(#802,#803,#809,#810));
#802 = ORIENTED_EDGE('',*,*,#222,.F.);
#803 = ORIENTED_EDGE('',*,*,#804,.T.);
#804 = EDGE_CURVE('',#223,#400,#805,.T.);
#805 = LINE('',#806,#807);
#806 = CARTESIAN_POINT('',(60.,-20.,18.));
#807 = VECTOR('',#808,1.);
#808 = DIRECTION('',(0.,0.,1.));
#809 = ORIENTED_EDGE('',*,*,#407,.T.);
#810 = ORIENTED_EDGE('',*,*,#786,.T.);
#811 = PLANE('',#812);
#812 = AXIS2_PLACEMENT_3D('',#813,#814,#815);
#813 = CARTESIAN_POINT('',(60.,-20.,18.));
#814 = DIRECTION('',(-1.,0.,0.));
#815 = DIRECTION('',(0.,1.,0.));
#816 = ADVANCED_FACE('',(#817,#823,#834,#845),#856,.T.);
#817 = FACE_BOUND('',#818,.T.);
#818 = EDGE_LOOP('',(#819,#820,#821,#822));
#819 = ORIENTED_EDGE('',*,*,#695,.F.);
#820 = ORIENTED_EDGE('',*,*,#230,.T.);
#821 = ORIENTED_EDGE('',*,*,#804,.T.);
#822 = ORIENTED_EDGE('',*,*,#399,.F.);
#823 = FACE_BOUND('',#824,.T.);
#824 = EDGE_LOOP('',(#825));
#825 = ORIENTED_EDGE('',*,*,#826,.F.);
#826 = EDGE_CURVE('',#827,#827,#829,.T.);
#827 = VERTEX_POINT('',#828);
#828 = CARTESIAN_POINT('',(-13.6,-20.,22.5));
#829 = CIRCLE('',#830,1.4);
#830 = AXIS2_PLACEMENT_3D('',#831,#832,#833);
#831 = CARTESIAN_POINT('',(-15.,-20.,22.5));
#832 = DIRECTION('',(0.,-1.,0.));
#833 = DIRECTION('',(1.,0.,0.));
#834 = FACE_BOUND('',#835,.T.);
#835 = EDGE_LOOP('',(#836));
#836 = ORIENTED_EDGE('',*,*,#837,.F.);
#837 = EDGE_CURVE('',#838,#838,#840,.T.);
#838 = VERTEX_POINT('',#839);
#839 = CARTESIAN_POINT('',(21.4,-20.,22.5));
#840 = CIRCLE('',#841,1.4);
#841 = AXIS2_PLACEMENT_3D('',#842,#843,#844);
#842 = CARTESIAN_POINT('',(20.,-20.,22.5));
#843 = DIRECTION('',(0.,-1.,0.));
#844 = DIRECTION('',(1.,0.,0.));
#845 = FACE_BOUND('',#846,.T.);
#846 = EDGE_LOOP('',(#847));
#847 = ORIENTED_EDGE('',*,*,#848,.F.);
#848 = EDGE_CURVE('',#849,#849,#851,.T.);
#849 = VERTEX_POINT('',#850);
#850 = CARTESIAN_POINT('',(56.4,-20.,22.5));
#851 = CIRCLE('',#852,1.4);
#852 = AXIS2_PLACEMENT_3D('',#853,#854,#855);
#853 = CARTESIAN_POINT('',(55.,-20.,22.5));
#854 = DIRECTION('',(0.,-1.,0.));
#855 = DIRECTION('',(1.,0.,0.));
#856 = PLANE('',#857);
#857 = AXIS2_PLACEMENT_3D('',#858,#859,#860);
#858 = CARTESIAN_POINT('',(20.,-20.,22.5));
#859 = DIRECTION('',(-0.,-1.,-0.));
#860 = DIRECTION('',(0.,0.,-1.));
#861 = ADVANCED_FACE('',(#862),#873,.T.);
#862 = FACE_BOUND('',#863,.T.);
#863 = EDGE_LOOP('',(#864,#865,#866,#872));
#864 = ORIENTED_EDGE('',*,*,#617,.T.);
#865 = ORIENTED_EDGE('',*,*,#440,.T.);
#866 = ORIENTED_EDGE('',*,*,#867,.F.);
#867 = EDGE_CURVE('',#241,#433,#868,.T.);
#868 = LINE('',#869,#870);
#869 = CARTESIAN_POINT('',(23.,-2.,18.));
#870 = VECTOR('',#871,1.);
#871 = DIRECTION('',(0.,0.,1.));
#872 = ORIENTED_EDGE('',*,*,#238,.F.);
#873 = PLANE('',#874);
#874 = AXIS2_PLACEMENT_3D('',#875,#876,#877);
#875 = CARTESIAN_POINT('',(23.,12.,18.));
#876 = DIRECTION('',(1.,0.,0.));
#877 = DIRECTION('',(0.,-1.,0.));
#878 = ADVANCED_FACE('',(#879),#885,.T.);
#879 = FACE_BOUND('',#880,.T.);
#880 = EDGE_LOOP('',(#881,#882,#883,#884));
#881 = ORIENTED_EDGE('',*,*,#867,.T.);
#882 = ORIENTED_EDGE('',*,*,#432,.T.);
#883 = ORIENTED_EDGE('',*,*,#635,.F.);
#884 = ORIENTED_EDGE('',*,*,#248,.F.);
#885 = PLANE('',#886);
#886 = AXIS2_PLACEMENT_3D('',#887,#888,#889);
#887 = CARTESIAN_POINT('',(23.,-2.,18.));
#888 = DIRECTION('',(0.,1.,0.));
#889 = DIRECTION('',(1.,0.,0.));
#890 = ADVANCED_FACE('',(#891),#907,.T.);
#891 = FACE_BOUND('',#892,.T.);
#892 = EDGE_LOOP('',(#893,#899,#900,#906));
#893 = ORIENTED_EDGE('',*,*,#894,.T.);
#894 = EDGE_CURVE('',#273,#480,#895,.T.);
#895 = LINE('',#896,#897);
#896 = CARTESIAN_POINT('',(23.,-4.4,18.));
#897 = VECTOR('',#898,1.);
#898 = DIRECTION('',(0.,0.,1.));
#899 = ORIENTED_EDGE('',*,*,#479,.T.);
#900 = ORIENTED_EDGE('',*,*,#901,.F.);
#901 = EDGE_CURVE('',#275,#482,#902,.T.);
#902 = LINE('',#903,#904);
#903 = CARTESIAN_POINT('',(23.,-7.599980672327,18.));
#904 = VECTOR('',#905,1.);
#905 = DIRECTION('',(0.,0.,1.));
#906 = ORIENTED_EDGE('',*,*,#272,.F.);
#907 = PLANE('',#908);
#908 = AXIS2_PLACEMENT_3D('',#909,#910,#911);
#909 = CARTESIAN_POINT('',(23.,-4.4,18.));
#910 = DIRECTION('',(1.,0.,0.));
#911 = DIRECTION('',(0.,-1.,0.));
#912 = ADVANCED_FACE('',(#913),#924,.T.);
#913 = FACE_BOUND('',#914,.T.);
#914 = EDGE_LOOP('',(#915,#916,#917,#923));
#915 = ORIENTED_EDGE('',*,*,#901,.T.);
#916 = ORIENTED_EDGE('',*,*,#505,.T.);
#917 = ORIENTED_EDGE('',*,*,#918,.F.);
#918 = EDGE_CURVE('',#283,#498,#919,.T.);
#919 = LINE('',#920,#921);
#920 = CARTESIAN_POINT('',(51.,-7.599980672327,18.));
#921 = VECTOR('',#922,1.);
#922 = DIRECTION('',(0.,0.,1.));
#923 = ORIENTED_EDGE('',*,*,#282,.F.);
#924 = PLANE('',#925);
#925 = AXIS2_PLACEMENT_3D('',#926,#927,#928);
#926 = CARTESIAN_POINT('',(23.,-7.599980672327,18.));
#927 = DIRECTION('',(0.,1.,0.));
#928 = DIRECTION('',(1.,0.,0.));
#929 = ADVANCED_FACE('',(#930),#941,.F.);
#930 = FACE_BOUND('',#931,.F.);
#931 = EDGE_LOOP('',(#932,#938,#939,#940));
#932 = ORIENTED_EDGE('',*,*,#933,.T.);
#933 = EDGE_CURVE('',#291,#490,#934,.T.);
#934 = LINE('',#935,#936);
#935 = CARTESIAN_POINT('',(51.,-4.4,18.));
#936 = VECTOR('',#937,1.);
#937 = DIRECTION('',(0.,0.,1.));
#938 = ORIENTED_EDGE('',*,*,#497,.T.);
#939 = ORIENTED_EDGE('',*,*,#918,.F.);
#940 = ORIENTED_EDGE('',*,*,#290,.F.);
#941 = PLANE('',#942);
#942 = AXIS2_PLACEMENT_3D('',#943,#944,#945);
#943 = CARTESIAN_POINT('',(51.,-4.4,18.));
#944 = DIRECTION('',(1.,0.,0.));
#945 = DIRECTION('',(0.,-1.,0.));
#946 = ADVANCED_FACE('',(#947),#953,.T.);
#947 = FACE_BOUND('',#948,.T.);
#948 = EDGE_LOOP('',(#949,#950,#951,#952));
#949 = ORIENTED_EDGE('',*,*,#933,.T.);
#950 = ORIENTED_EDGE('',*,*,#489,.T.);
#951 = ORIENTED_EDGE('',*,*,#894,.F.);
#952 = ORIENTED_EDGE('',*,*,#298,.F.);
#953 = PLANE('',#954);
#954 = AXIS2_PLACEMENT_3D('',#955,#956,#957);
#955 = CARTESIAN_POINT('',(51.,-4.4,18.));
#956 = DIRECTION('',(0.,-1.,0.));
#957 = DIRECTION('',(-1.,0.,0.));
#958 = ADVANCED_FACE('',(#959),#975,.T.);
#959 = FACE_BOUND('',#960,.T.);
#960 = EDGE_LOOP('',(#961,#967,#968,#974));
#961 = ORIENTED_EDGE('',*,*,#962,.T.);
#962 = EDGE_CURVE('',#307,#525,#963,.T.);
#963 = LINE('',#964,#965);
#964 = CARTESIAN_POINT('',(23.,17.599980672327,18.));
#965 = VECTOR('',#966,1.);
#966 = DIRECTION('',(0.,0.,1.));
#967 = ORIENTED_EDGE('',*,*,#524,.T.);
#968 = ORIENTED_EDGE('',*,*,#969,.F.);
#969 = EDGE_CURVE('',#309,#527,#970,.T.);
#970 = LINE('',#971,#972);
#971 = CARTESIAN_POINT('',(23.,14.4,18.));
#972 = VECTOR('',#973,1.);
#973 = DIRECTION('',(0.,0.,1.));
#974 = ORIENTED_EDGE('',*,*,#306,.F.);
#975 = PLANE('',#976);
#976 = AXIS2_PLACEMENT_3D('',#977,#978,#979);
#977 = CARTESIAN_POINT('',(23.,17.599980672327,18.));
#978 = DIRECTION('',(1.,0.,0.));
#979 = DIRECTION('',(0.,-1.,0.));
#980 = ADVANCED_FACE('',(#981),#992,.T.);
#981 = FACE_BOUND('',#982,.T.);
#982 = EDGE_LOOP('',(#983,#984,#985,#991));
#983 = ORIENTED_EDGE('',*,*,#969,.T.);
#984 = ORIENTED_EDGE('',*,*,#550,.T.);
#985 = ORIENTED_EDGE('',*,*,#986,.F.);
#986 = EDGE_CURVE('',#317,#543,#987,.T.);
#987 = LINE('',#988,#989);
#988 = CARTESIAN_POINT('',(51.,14.4,18.));
#989 = VECTOR('',#990,1.);
#990 = DIRECTION('',(0.,0.,1.));
#991 = ORIENTED_EDGE('',*,*,#316,.F.);
#992 = PLANE('',#993);
#993 = AXIS2_PLACEMENT_3D('',#994,#995,#996);
#994 = CARTESIAN_POINT('',(23.,14.4,18.));
#995 = DIRECTION('',(0.,1.,0.));
#996 = DIRECTION('',(1.,0.,0.));
#997 = ADVANCED_FACE('',(#998),#1009,.F.);
#998 = FACE_BOUND('',#999,.F.);
#999 = EDGE_LOOP('',(#1000,#1006,#1007,#1008));
#1000 = ORIENTED_EDGE('',*,*,#1001,.T.);
#1001 = EDGE_CURVE('',#325,#535,#1002,.T.);
#1002 = LINE('',#1003,#1004);
#1003 = CARTESIAN_POINT('',(51.,17.599980672327,18.));
#1004 = VECTOR('',#1005,1.);
#1005 = DIRECTION('',(0.,0.,1.));
#1006 = ORIENTED_EDGE('',*,*,#542,.T.);
#1007 = ORIENTED_EDGE('',*,*,#986,.F.);
#1008 = ORIENTED_EDGE('',*,*,#324,.F.);
#1009 = PLANE('',#1010);
#1010 = AXIS2_PLACEMENT_3D('',#1011,#1012,#1013);
#1011 = CARTESIAN_POINT('',(51.,17.599980672327,18.));
#1012 = DIRECTION('',(1.,0.,0.));
#1013 = DIRECTION('',(0.,-1.,0.));
#1014 = ADVANCED_FACE('',(#1015),#1021,.T.);
#1015 = FACE_BOUND('',#1016,.T.);
#1016 = EDGE_LOOP('',(#1017,#1018,#1019,#1020));
#1017 = ORIENTED_EDGE('',*,*,#1001,.T.);
#1018 = ORIENTED_EDGE('',*,*,#534,.T.);
#1019 = ORIENTED_EDGE('',*,*,#962,.F.);
#1020 = ORIENTED_EDGE('',*,*,#332,.F.);
#1021 = PLANE('',#1022);
#1022 = AXIS2_PLACEMENT_3D('',#1023,#1024,#1025);
#1023 = CARTESIAN_POINT('',(51.,17.599980672327,18.));
#1024 = DIRECTION('',(0.,-1.,0.));
#1025 = DIRECTION('',(-1.,0.,0.));
#1026 = ADVANCED_FACE('',(#1027),#1046,.F.);
#1027 = FACE_BOUND('',#1028,.F.);
#1028 = EDGE_LOOP('',(#1029,#1037,#1044,#1045));
#1029 = ORIENTED_EDGE('',*,*,#1030,.T.);
#1030 = EDGE_CURVE('',#341,#1031,#1033,.T.);
#1031 = VERTEX_POINT('',#1032);
#1032 = CARTESIAN_POINT('',(7.,5.,19.));
#1033 = LINE('',#1034,#1035);
#1034 = CARTESIAN_POINT('',(7.,5.,18.));
#1035 = VECTOR('',#1036,1.);
#1036 = DIRECTION('',(0.,1.2E-16,1.));
#1037 = ORIENTED_EDGE('',*,*,#1038,.T.);
#1038 = EDGE_CURVE('',#1031,#1031,#1039,.T.);
#1039 = CIRCLE('',#1040,7.);
#1040 = AXIS2_PLACEMENT_3D('',#1041,#1042,#1043);
#1041 = CARTESIAN_POINT('',(0.,5.,19.));
#1042 = DIRECTION('',(0.,0.,-1.));
#1043 = DIRECTION('',(1.,0.,0.));
#1044 = ORIENTED_EDGE('',*,*,#1030,.F.);
#1045 = ORIENTED_EDGE('',*,*,#340,.F.);
#1046 = CYLINDRICAL_SURFACE('',#1047,7.);
#1047 = AXIS2_PLACEMENT_3D('',#1048,#1049,#1050);
#1048 = CARTESIAN_POINT('',(0.,5.,18.));
#1049 = DIRECTION('',(0.,-1.2E-16,-1.));
#1050 = DIRECTION('',(1.,0.,0.));
#1051 = ADVANCED_FACE('',(#1052),#1071,.F.);
#1052 = FACE_BOUND('',#1053,.T.);
#1053 = EDGE_LOOP('',(#1054,#1063,#1069,#1070));
#1054 = ORIENTED_EDGE('',*,*,#1055,.T.);
#1055 = EDGE_CURVE('',#1056,#1056,#1058,.T.);
#1056 = VERTEX_POINT('',#1057);
#1057 = CARTESIAN_POINT('',(9.,5.,19.));
#1058 = CIRCLE('',#1059,9.);
#1059 = AXIS2_PLACEMENT_3D('',#1060,#1061,#1062);
#1060 = CARTESIAN_POINT('',(0.,5.,19.));
#1061 = DIRECTION('',(0.,0.,-1.));
#1062 = DIRECTION('',(1.,0.,0.));
#1063 = ORIENTED_EDGE('',*,*,#1064,.T.);
#1064 = EDGE_CURVE('',#1056,#514,#1065,.T.);
#1065 = LINE('',#1066,#1067);
#1066 = CARTESIAN_POINT('',(9.,5.,18.));
#1067 = VECTOR('',#1068,1.);
#1068 = DIRECTION('',(0.,0.,1.));
#1069 = ORIENTED_EDGE('',*,*,#513,.T.);
#1070 = ORIENTED_EDGE('',*,*,#1064,.F.);
#1071 = CYLINDRICAL_SURFACE('',#1072,9.);
#1072 = AXIS2_PLACEMENT_3D('',#1073,#1074,#1075);
#1073 = CARTESIAN_POINT('',(0.,5.,18.));
#1074 = DIRECTION('',(-0.,-0.,-1.));
#1075 = DIRECTION('',(1.,0.,0.));
#1076 = ADVANCED_FACE('',(#1077),#1096,.F.);
#1077 = FACE_BOUND('',#1078,.F.);
#1078 = EDGE_LOOP('',(#1079,#1087,#1094,#1095));
#1079 = ORIENTED_EDGE('',*,*,#1080,.T.);
#1080 = EDGE_CURVE('',#661,#1081,#1083,.T.);
#1081 = VERTEX_POINT('',#1082);
#1082 = CARTESIAN_POINT('',(26.25,22.,22.499999999951));
#1083 = LINE('',#1084,#1085);
#1084 = CARTESIAN_POINT('',(26.25,30.,22.499999999951));
#1085 = VECTOR('',#1086,1.);
#1086 = DIRECTION('',(0.,-1.,2.2E-16));
#1087 = ORIENTED_EDGE('',*,*,#1088,.T.);
#1088 = EDGE_CURVE('',#1081,#1081,#1089,.T.);
#1089 = CIRCLE('',#1090,1.25);
#1090 = AXIS2_PLACEMENT_3D('',#1091,#1092,#1093);
#1091 = CARTESIAN_POINT('',(27.5,22.,22.499999999951));
#1092 = DIRECTION('',(0.,1.,-0.));
#1093 = DIRECTION('',(-1.,0.,0.));
#1094 = ORIENTED_EDGE('',*,*,#1080,.F.);
#1095 = ORIENTED_EDGE('',*,*,#660,.F.);
#1096 = CYLINDRICAL_SURFACE('',#1097,1.25);
#1097 = AXIS2_PLACEMENT_3D('',#1098,#1099,#1100);
#1098 = CARTESIAN_POINT('',(27.5,30.,22.499999999951));
#1099 = DIRECTION('',(0.,1.,-2.2E-16));
#1100 = DIRECTION('',(-1.,0.,0.));
#1101 = ADVANCED_FACE('',(#1102),#1121,.F.);
#1102 = FACE_BOUND('',#1103,.F.);
#1103 = EDGE_LOOP('',(#1104,#1112,#1119,#1120));
#1104 = ORIENTED_EDGE('',*,*,#1105,.T.);
#1105 = EDGE_CURVE('',#672,#1106,#1108,.T.);
#1106 = VERTEX_POINT('',#1107);
#1107 = CARTESIAN_POINT('',(51.25,22.,22.499999999951));
#1108 = LINE('',#1109,#1110);
#1109 = CARTESIAN_POINT('',(51.25,30.,22.499999999951));
#1110 = VECTOR('',#1111,1.);
#1111 = DIRECTION('',(0.,-1.,2.2E-16));
#1112 = ORIENTED_EDGE('',*,*,#1113,.T.);
#1113 = EDGE_CURVE('',#1106,#1106,#1114,.T.);
#1114 = CIRCLE('',#1115,1.25);
#1115 = AXIS2_PLACEMENT_3D('',#1116,#1117,#1118);
#1116 = CARTESIAN_POINT('',(52.5,22.,22.499999999951));
#1117 = DIRECTION('',(0.,1.,-0.));
#1118 = DIRECTION('',(-1.,0.,0.));
#1119 = ORIENTED_EDGE('',*,*,#1105,.F.);
#1120 = ORIENTED_EDGE('',*,*,#671,.F.);
#1121 = CYLINDRICAL_SURFACE('',#1122,1.25);
#1122 = AXIS2_PLACEMENT_3D('',#1123,#1124,#1125);
#1123 = CARTESIAN_POINT('',(52.5,30.,22.499999999951));
#1124 = DIRECTION('',(0.,1.,-2.2E-16));
#1125 = DIRECTION('',(-1.,0.,0.));
#1126 = ADVANCED_FACE('',(#1127),#1146,.F.);
#1127 = FACE_BOUND('',#1128,.F.);
#1128 = EDGE_LOOP('',(#1129,#1137,#1144,#1145));
#1129 = ORIENTED_EDGE('',*,*,#1130,.T.);
#1130 = EDGE_CURVE('',#705,#1131,#1133,.T.);
#1131 = VERTEX_POINT('',#1132);
#1132 = CARTESIAN_POINT('',(-10.,10.8,22.5));
#1133 = LINE('',#1134,#1135);
#1134 = CARTESIAN_POINT('',(-20.,10.8,22.5));
#1135 = VECTOR('',#1136,1.);
#1136 = DIRECTION('',(1.,0.,0.));
#1137 = ORIENTED_EDGE('',*,*,#1138,.T.);
#1138 = EDGE_CURVE('',#1131,#1131,#1139,.T.);
#1139 = CIRCLE('',#1140,1.2);
#1140 = AXIS2_PLACEMENT_3D('',#1141,#1142,#1143);
#1141 = CARTESIAN_POINT('',(-10.,12.,22.5));
#1142 = DIRECTION('',(-1.,0.,0.));
#1143 = DIRECTION('',(0.,-1.,0.));
#1144 = ORIENTED_EDGE('',*,*,#1130,.F.);
#1145 = ORIENTED_EDGE('',*,*,#704,.F.);
#1146 = CYLINDRICAL_SURFACE('',#1147,1.2);
#1147 = AXIS2_PLACEMENT_3D('',#1148,#1149,#1150);
#1148 = CARTESIAN_POINT('',(-20.,12.,22.5));
#1149 = DIRECTION('',(-1.,0.,0.));
#1150 = DIRECTION('',(0.,-1.,0.));
#1151 = ADVANCED_FACE('',(#1152),#1171,.F.);
#1152 = FACE_BOUND('',#1153,.F.);
#1153 = EDGE_LOOP('',(#1154,#1162,#1169,#1170));
#1154 = ORIENTED_EDGE('',*,*,#1155,.T.);
#1155 = EDGE_CURVE('',#716,#1156,#1158,.T.);
#1156 = VERTEX_POINT('',#1157);
#1157 = CARTESIAN_POINT('',(-10.,2.8,22.5));
#1158 = LINE('',#1159,#1160);
#1159 = CARTESIAN_POINT('',(-20.,2.8,22.5));
#1160 = VECTOR('',#1161,1.);
#1161 = DIRECTION('',(1.,0.,0.));
#1162 = ORIENTED_EDGE('',*,*,#1163,.T.);
#1163 = EDGE_CURVE('',#1156,#1156,#1164,.T.);
#1164 = CIRCLE('',#1165,1.2);
#1165 = AXIS2_PLACEMENT_3D('',#1166,#1167,#1168);
#1166 = CARTESIAN_POINT('',(-10.,4.,22.5));
#1167 = DIRECTION('',(-1.,0.,0.));
#1168 = DIRECTION('',(0.,-1.,0.));
#1169 = ORIENTED_EDGE('',*,*,#1155,.F.);
#1170 = ORIENTED_EDGE('',*,*,#715,.F.);
#1171 = CYLINDRICAL_SURFACE('',#1172,1.2);
#1172 = AXIS2_PLACEMENT_3D('',#1173,#1174,#1175);
#1173 = CARTESIAN_POINT('',(-20.,4.,22.5));
#1174 = DIRECTION('',(-1.,0.,0.));
#1175 = DIRECTION('',(0.,-1.,0.));
#1176 = ADVANCED_FACE('',(#1177),#1196,.F.);
#1177 = FACE_BOUND('',#1178,.F.);
#1178 = EDGE_LOOP('',(#1179,#1187,#1194,#1195));
#1179 = ORIENTED_EDGE('',*,*,#1180,.T.);
#1180 = EDGE_CURVE('',#744,#1181,#1183,.T.);
#1181 = VERTEX_POINT('',#1182);
#1182 = CARTESIAN_POINT('',(-9.2,12.,22.5));
#1183 = LINE('',#1184,#1185);
#1184 = CARTESIAN_POINT('',(-9.2,20.,22.5));
#1185 = VECTOR('',#1186,1.);
#1186 = DIRECTION('',(0.,-1.,2.2E-16));
#1187 = ORIENTED_EDGE('',*,*,#1188,.T.);
#1188 = EDGE_CURVE('',#1181,#1181,#1189,.T.);
#1189 = CIRCLE('',#1190,1.2);
#1190 = AXIS2_PLACEMENT_3D('',#1191,#1192,#1193);
#1191 = CARTESIAN_POINT('',(-8.,12.,22.5));
#1192 = DIRECTION('',(0.,1.,-0.));
#1193 = DIRECTION('',(-1.,0.,0.));
#1194 = ORIENTED_EDGE('',*,*,#1180,.F.);
#1195 = ORIENTED_EDGE('',*,*,#743,.F.);
#1196 = CYLINDRICAL_SURFACE('',#1197,1.2);
#1197 = AXIS2_PLACEMENT_3D('',#1198,#1199,#1200);
#1198 = CARTESIAN_POINT('',(-8.,20.,22.5));
#1199 = DIRECTION('',(0.,1.,-2.2E-16));
#1200 = DIRECTION('',(-1.,0.,0.));
#1201 = ADVANCED_FACE('',(#1202),#1221,.F.);
#1202 = FACE_BOUND('',#1203,.F.);
#1203 = EDGE_LOOP('',(#1204,#1212,#1219,#1220));
#1204 = ORIENTED_EDGE('',*,*,#1205,.T.);
#1205 = EDGE_CURVE('',#755,#1206,#1208,.T.);
#1206 = VERTEX_POINT('',#1207);
#1207 = CARTESIAN_POINT('',(6.8,12.,22.5));
#1208 = LINE('',#1209,#1210);
#1209 = CARTESIAN_POINT('',(6.8,20.,22.5));
#1210 = VECTOR('',#1211,1.);
#1211 = DIRECTION('',(0.,-1.,2.2E-16));
#1212 = ORIENTED_EDGE('',*,*,#1213,.T.);
#1213 = EDGE_CURVE('',#1206,#1206,#1214,.T.);
#1214 = CIRCLE('',#1215,1.2);
#1215 = AXIS2_PLACEMENT_3D('',#1216,#1217,#1218);
#1216 = CARTESIAN_POINT('',(8.,12.,22.5));
#1217 = DIRECTION('',(0.,1.,-0.));
#1218 = DIRECTION('',(-1.,0.,0.));
#1219 = ORIENTED_EDGE('',*,*,#1205,.F.);
#1220 = ORIENTED_EDGE('',*,*,#754,.F.);
#1221 = CYLINDRICAL_SURFACE('',#1222,1.2);
#1222 = AXIS2_PLACEMENT_3D('',#1223,#1224,#1225);
#1223 = CARTESIAN_POINT('',(8.,20.,22.5));
#1224 = DIRECTION('',(0.,1.,-2.2E-16));
#1225 = DIRECTION('',(-1.,0.,0.));
#1226 = ADVANCED_FACE('',(#1227),#1246,.F.);
#1227 = FACE_BOUND('',#1228,.F.);
#1228 = EDGE_LOOP('',(#1229,#1237,#1244,#1245));
#1229 = ORIENTED_EDGE('',*,*,#1230,.T.);
#1230 = EDGE_CURVE('',#827,#1231,#1233,.T.);
#1231 = VERTEX_POINT('',#1232);
#1232 = CARTESIAN_POINT('',(-13.6,-9.,22.5));
#1233 = LINE('',#1234,#1235);
#1234 = CARTESIAN_POINT('',(-13.6,-20.,22.5));
#1235 = VECTOR('',#1236,1.);
#1236 = DIRECTION('',(0.,1.,-2.2E-16));
#1237 = ORIENTED_EDGE('',*,*,#1238,.T.);
#1238 = EDGE_CURVE('',#1231,#1231,#1239,.T.);
#1239 = CIRCLE('',#1240,1.4);
#1240 = AXIS2_PLACEMENT_3D('',#1241,#1242,#1243);
#1241 = CARTESIAN_POINT('',(-15.,-9.,22.5));
#1242 = DIRECTION('',(0.,-1.,0.));
#1243 = DIRECTION('',(1.,0.,0.));
#1244 = ORIENTED_EDGE('',*,*,#1230,.F.);
#1245 = ORIENTED_EDGE('',*,*,#826,.F.);
#1246 = CYLINDRICAL_SURFACE('',#1247,1.4);
#1247 = AXIS2_PLACEMENT_3D('',#1248,#1249,#1250);
#1248 = CARTESIAN_POINT('',(-15.,-20.,22.5));
#1249 = DIRECTION('',(0.,-1.,2.2E-16));
#1250 = DIRECTION('',(1.,0.,0.));
#1251 = ADVANCED_FACE('',(#1252),#1271,.F.);
#1252 = FACE_BOUND('',#1253,.F.);
#1253 = EDGE_LOOP('',(#1254,#1262,#1269,#1270));
#1254 = ORIENTED_EDGE('',*,*,#1255,.T.);
#1255 = EDGE_CURVE('',#838,#1256,#1258,.T.);
#1256 = VERTEX_POINT('',#1257);
#1257 = CARTESIAN_POINT('',(21.4,-9.,22.5));
#1258 = LINE('',#1259,#1260);
#1259 = CARTESIAN_POINT('',(21.4,-20.,22.5));
#1260 = VECTOR('',#1261,1.);
#1261 = DIRECTION('',(0.,1.,-2.2E-16));
#1262 = ORIENTED_EDGE('',*,*,#1263,.T.);
#1263 = EDGE_CURVE('',#1256,#1256,#1264,.T.);
#1264 = CIRCLE('',#1265,1.4);
#1265 = AXIS2_PLACEMENT_3D('',#1266,#1267,#1268);
#1266 = CARTESIAN_POINT('',(20.,-9.,22.5));
#1267 = DIRECTION('',(0.,-1.,0.));
#1268 = DIRECTION('',(1.,0.,0.));
#1269 = ORIENTED_EDGE('',*,*,#1255,.F.);
#1270 = ORIENTED_EDGE('',*,*,#837,.F.);
#1271 = CYLINDRICAL_SURFACE('',#1272,1.4);
#1272 = AXIS2_PLACEMENT_3D('',#1273,#1274,#1275);
#1273 = CARTESIAN_POINT('',(20.,-20.,22.5));
#1274 = DIRECTION('',(0.,-1.,2.2E-16));
#1275 = DIRECTION('',(1.,0.,0.));
#1276 = ADVANCED_FACE('',(#1277),#1296,.F.);
#1277 = FACE_BOUND('',#1278,.F.);
#1278 = EDGE_LOOP('',(#1279,#1287,#1294,#1295));
#1279 = ORIENTED_EDGE('',*,*,#1280,.T.);
#1280 = EDGE_CURVE('',#849,#1281,#1283,.T.);
#1281 = VERTEX_POINT('',#1282);
#1282 = CARTESIAN_POINT('',(56.4,-9.,22.5));
#1283 = LINE('',#1284,#1285);
#1284 = CARTESIAN_POINT('',(56.4,-20.,22.5));
#1285 = VECTOR('',#1286,1.);
#1286 = DIRECTION('',(0.,1.,-2.2E-16));
#1287 = ORIENTED_EDGE('',*,*,#1288,.T.);
#1288 = EDGE_CURVE('',#1281,#1281,#1289,.T.);
#1289 = CIRCLE('',#1290,1.4);
#1290 = AXIS2_PLACEMENT_3D('',#1291,#1292,#1293);
#1291 = CARTESIAN_POINT('',(55.,-9.,22.5));
#1292 = DIRECTION('',(0.,-1.,0.));
#1293 = DIRECTION('',(1.,0.,0.));
#1294 = ORIENTED_EDGE('',*,*,#1280,.F.);
#1295 = ORIENTED_EDGE('',*,*,#848,.F.);
#1296 = CYLINDRICAL_SURFACE('',#1297,1.4);
#1297 = AXIS2_PLACEMENT_3D('',#1298,#1299,#1300);
#1298 = CARTESIAN_POINT('',(55.,-20.,22.5));
#1299 = DIRECTION('',(0.,-1.,2.2E-16));
#1300 = DIRECTION('',(1.,0.,0.));
#1301 = ADVANCED_FACE('',(#1302,#1305),#1308,.T.);
#1302 = FACE_BOUND('',#1303,.T.);
#1303 = EDGE_LOOP('',(#1304));
#1304 = ORIENTED_EDGE('',*,*,#1055,.F.);
#1305 = FACE_BOUND('',#1306,.T.);
#1306 = EDGE_LOOP('',(#1307));
#1307 = ORIENTED_EDGE('',*,*,#1038,.T.);
#1308 = PLANE('',#1309);
#1309 = AXIS2_PLACEMENT_3D('',#1310,#1311,#1312);
#1310 = CARTESIAN_POINT('',(-6.8E-16,4.999999999999,19.));
#1311 = DIRECTION('',(0.,0.,1.));
#1312 = DIRECTION('',(1.,0.,0.));
#1313 = ADVANCED_FACE('',(#1314),#1317,.T.);
#1314 = FACE_BOUND('',#1315,.T.);
#1315 = EDGE_LOOP('',(#1316));
#1316 = ORIENTED_EDGE('',*,*,#1088,.T.);
#1317 = PLANE('',#1318);
#1318 = AXIS2_PLACEMENT_3D('',#1319,#1320,#1321);
#1319 = CARTESIAN_POINT('',(40.,22.,22.499999999951));
#1320 = DIRECTION('',(0.,1.,0.));
#1321 = DIRECTION('',(0.,0.,1.));
#1322 = ADVANCED_FACE('',(#1323),#1326,.T.);
#1323 = FACE_BOUND('',#1324,.T.);
#1324 = EDGE_LOOP('',(#1325));
#1325 = ORIENTED_EDGE('',*,*,#1113,.T.);
#1326 = PLANE('',#1327);
#1327 = AXIS2_PLACEMENT_3D('',#1328,#1329,#1330);
#1328 = CARTESIAN_POINT('',(40.,22.,22.499999999951));
#1329 = DIRECTION('',(0.,1.,0.));
#1330 = DIRECTION('',(0.,0.,1.));
#1331 = ADVANCED_FACE('',(#1332),#1335,.F.);
#1332 = FACE_BOUND('',#1333,.T.);
#1333 = EDGE_LOOP('',(#1334));
#1334 = ORIENTED_EDGE('',*,*,#1138,.T.);
#1335 = PLANE('',#1336);
#1336 = AXIS2_PLACEMENT_3D('',#1337,#1338,#1339);
#1337 = CARTESIAN_POINT('',(-10.,8.,22.5));
#1338 = DIRECTION('',(1.,0.,0.));
#1339 = DIRECTION('',(0.,0.,1.));
#1340 = ADVANCED_FACE('',(#1341),#1344,.F.);
#1341 = FACE_BOUND('',#1342,.T.);
#1342 = EDGE_LOOP('',(#1343));
#1343 = ORIENTED_EDGE('',*,*,#1163,.T.);
#1344 = PLANE('',#1345);
#1345 = AXIS2_PLACEMENT_3D('',#1346,#1347,#1348);
#1346 = CARTESIAN_POINT('',(-10.,8.,22.5));
#1347 = DIRECTION('',(1.,0.,0.));
#1348 = DIRECTION('',(0.,0.,1.));
#1349 = ADVANCED_FACE('',(#1350),#1353,.T.);
#1350 = FACE_BOUND('',#1351,.T.);
#1351 = EDGE_LOOP('',(#1352));
#1352 = ORIENTED_EDGE('',*,*,#1188,.T.);
#1353 = PLANE('',#1354);
#1354 = AXIS2_PLACEMENT_3D('',#1355,#1356,#1357);
#1355 = CARTESIAN_POINT('',(-1.85E-15,12.,22.5));
#1356 = DIRECTION('',(0.,1.,0.));
#1357 = DIRECTION('',(0.,0.,1.));
#1358 = ADVANCED_FACE('',(#1359),#1362,.T.);
#1359 = FACE_BOUND('',#1360,.T.);
#1360 = EDGE_LOOP('',(#1361));
#1361 = ORIENTED_EDGE('',*,*,#1213,.T.);
#1362 = PLANE('',#1363);
#1363 = AXIS2_PLACEMENT_3D('',#1364,#1365,#1366);
#1364 = CARTESIAN_POINT('',(-1.85E-15,12.,22.5));
#1365 = DIRECTION('',(0.,1.,0.));
#1366 = DIRECTION('',(0.,0.,1.));
#1367 = ADVANCED_FACE('',(#1368),#1371,.F.);
#1368 = FACE_BOUND('',#1369,.T.);
#1369 = EDGE_LOOP('',(#1370));
#1370 = ORIENTED_EDGE('',*,*,#1238,.T.);
#1371 = PLANE('',#1372);
#1372 = AXIS2_PLACEMENT_3D('',#1373,#1374,#1375);
#1373 = CARTESIAN_POINT('',(20.,-9.,22.5));
#1374 = DIRECTION('',(0.,1.,0.));
#1375 = DIRECTION('',(0.,0.,1.));
#1376 = ADVANCED_FACE('',(#1377),#1380,.F.);
#1377 = FACE_BOUND('',#1378,.T.);
#1378 = EDGE_LOOP('',(#1379));
#1379 = ORIENTED_EDGE('',*,*,#1263,.T.);
#1380 = PLANE('',#1381);
#1381 = AXIS2_PLACEMENT_3D('',#1382,#1383,#1384);
#1382 = CARTESIAN_POINT('',(20.,-9.,22.5));
#1383 = DIRECTION('',(0.,1.,0.));
#1384 = DIRECTION('',(0.,0.,1.));
#1385 = ADVANCED_FACE('',(#1386),#1389,.F.);
#1386 = FACE_BOUND('',#1387,.T.);
#1387 = EDGE_LOOP('',(#1388));
#1388 = ORIENTED_EDGE('',*,*,#1288,.T.);
#1389 = PLANE('',#1390);
#1390 = AXIS2_PLACEMENT_3D('',#1391,#1392,#1393);
#1391 = CARTESIAN_POINT('',(20.,-9.,22.5));
#1392 = DIRECTION('',(0.,1.,0.));
#1393 = DIRECTION('',(0.,0.,1.));
#1394 = ( GEOMETRIC_REPRESENTATION_CONTEXT(3) 
GLOBAL_UNCERTAINTY_ASSIGNED_CONTEXT((#1398)) 
GLOBAL_UNIT_ASSIGNED_CONTEXT((#1395,#1396,#1397)) REPRESENTATION_CONTEXT
('Context #1','3D Context with UNIT and UNCERTAINTY') );
#1395 = ( LENGTH_UNIT() NAMED_UNIT(*) SI_UNIT(.MILLI.,.METRE.) );
#1396 = ( NAMED_UNIT(*) PLANE_ANGLE_UNIT() SI_UNIT($,.RADIAN.) );
#1397 = ( NAMED_UNIT(*) SI_UNIT($,.STERADIAN.) SOLID_ANGLE_UNIT() );
#1398 = UNCERTAINTY_MEASURE_WITH_UNIT(LENGTH_MEASURE(1.E-07),#1395,
  'distance_accuracy_value','confusion accuracy');
#1399 = PRODUCT_RELATED_PRODUCT_CATEGORY('part',$,(#7));
ENDSEC;
END-ISO-10303-21;
