ISO-10303-21;
HEADER;
FILE_DESCRIPTION(('FreeCAD Model'),'2;1');
FILE_NAME('Open CASCADE Shape Model','2026-08-28T13:04:06',('FreeCAD'),(
    'FreeCAD'),'Open CASCADE STEP processor 7.8','FreeCAD','Unknown');
FILE_SCHEMA(('AUTOMOTIVE_DESIGN { 1 0 10303 214 1 1 1 1 }'));
ENDSEC;
DATA;
#1 = APPLICATION_PROTOCOL_DEFINITION('international standard',
  'automotive_design',2000,#2);
#2 = APPLICATION_CONTEXT(
  'core data for automotive mechanical design processes');
#3 = SHAPE_DEFINITION_REPRESENTATION(#4,#10);
#4 = PRODUCT_DEFINITION_SHAPE('','',#5);
#5 = PRODUCT_DEFINITION('design','',#6,#9);
#6 = PRODUCT_DEFINITION_FORMATION('','',#7);
#7 = PRODUCT('Open CASCADE STEP translator 7.8 89',
  'Open CASCADE STEP translator 7.8 89','',(#8));
#8 = PRODUCT_CONTEXT('',#2,'mechanical');
#9 = PRODUCT_DEFINITION_CONTEXT('part definition',#2,'design');
#10 = ADVANCED_BREP_SHAPE_REPRESENTATION('',(#11,#15),#1146);
#11 = AXIS2_PLACEMENT_3D('',#12,#13,#14);
#12 = CARTESIAN_POINT('',(0.,0.,0.));
#13 = DIRECTION('',(0.,0.,1.));
#14 = DIRECTION('',(1.,0.,-0.));
#15 = MANIFOLD_SOLID_BREP('',#16);
#16 = CLOSED_SHELL('',(#17,#129,#160,#185,#209,#233,#298,#323,#381,#405,
    #470,#487,#530,#573,#592,#632,#658,#675,#782,#816,#847,#869,#886,
    #903,#927,#951,#992,#1004,#1016,#1041,#1071,#1081,#1106,#1136));
#17 = ADVANCED_FACE('',(#18,#102,#113),#124,.T.);
#18 = FACE_BOUND('',#19,.T.);
#19 = EDGE_LOOP('',(#20,#30,#38,#46,#54,#62,#70,#78,#87,#95));
#20 = ORIENTED_EDGE('',*,*,#21,.F.);
#21 = EDGE_CURVE('',#22,#24,#26,.T.);
#22 = VERTEX_POINT('',#23);
#23 = CARTESIAN_POINT('',(-70.25536400562,54.964546,6.));
#24 = VERTEX_POINT('',#25);
#25 = CARTESIAN_POINT('',(-59.25536400562,54.964546,6.));
#26 = LINE('',#27,#28);
#27 = CARTESIAN_POINT('',(-70.25536400562,54.964546,6.));
#28 = VECTOR('',#29,1.);
#29 = DIRECTION('',(1.,0.,0.));
#30 = ORIENTED_EDGE('',*,*,#31,.F.);
#31 = EDGE_CURVE('',#32,#22,#34,.T.);
#32 = VERTEX_POINT('',#33);
#33 = CARTESIAN_POINT('',(-70.25536400562,54.964546,0.));
#34 = LINE('',#35,#36);
#35 = CARTESIAN_POINT('',(-70.25536400562,54.964546,0.));
#36 = VECTOR('',#37,1.);
#37 = DIRECTION('',(0.,0.,1.));
#38 = ORIENTED_EDGE('',*,*,#39,.F.);
#39 = EDGE_CURVE('',#40,#32,#42,.T.);
#40 = VERTEX_POINT('',#41);
#41 = CARTESIAN_POINT('',(-78.25536400562,54.964546,0.));
#42 = LINE('',#43,#44);
#43 = CARTESIAN_POINT('',(-78.25536400562,54.964546,0.));
#44 = VECTOR('',#45,1.);
#45 = DIRECTION('',(1.,0.,0.));
#46 = ORIENTED_EDGE('',*,*,#47,.T.);
#47 = EDGE_CURVE('',#40,#48,#50,.T.);
#48 = VERTEX_POINT('',#49);
#49 = CARTESIAN_POINT('',(-78.25536400562,54.964546,27.));
#50 = LINE('',#51,#52);
#51 = CARTESIAN_POINT('',(-78.25536400562,54.964546,0.));
#52 = VECTOR('',#53,1.);
#53 = DIRECTION('',(0.,0.,1.));
#54 = ORIENTED_EDGE('',*,*,#55,.T.);
#55 = EDGE_CURVE('',#48,#56,#58,.T.);
#56 = VERTEX_POINT('',#57);
#57 = CARTESIAN_POINT('',(-70.25536400562,54.964546,27.));
#58 = LINE('',#59,#60);
#59 = CARTESIAN_POINT('',(-78.25536400562,54.964546,27.));
#60 = VECTOR('',#61,1.);
#61 = DIRECTION('',(1.,0.,0.));
#62 = ORIENTED_EDGE('',*,*,#63,.F.);
#63 = EDGE_CURVE('',#64,#56,#66,.T.);
#64 = VERTEX_POINT('',#65);
#65 = CARTESIAN_POINT('',(-70.25536400562,54.964546,21.));
#66 = LINE('',#67,#68);
#67 = CARTESIAN_POINT('',(-70.25536400562,54.964546,21.));
#68 = VECTOR('',#69,1.);
#69 = DIRECTION('',(0.,0.,1.));
#70 = ORIENTED_EDGE('',*,*,#71,.F.);
#71 = EDGE_CURVE('',#72,#64,#74,.T.);
#72 = VERTEX_POINT('',#73);
#73 = CARTESIAN_POINT('',(-59.25536400562,54.964546,21.));
#74 = LINE('',#75,#76);
#75 = CARTESIAN_POINT('',(-57.25536400562,54.964546,21.));
#76 = VECTOR('',#77,1.);
#77 = DIRECTION('',(-1.,0.,0.));
#78 = ORIENTED_EDGE('',*,*,#79,.F.);
#79 = EDGE_CURVE('',#80,#72,#82,.T.);
#80 = VERTEX_POINT('',#81);
#81 = CARTESIAN_POINT('',(-57.25536400562,54.964546,19.));
#82 = CIRCLE('',#83,2.);
#83 = AXIS2_PLACEMENT_3D('',#84,#85,#86);
#84 = CARTESIAN_POINT('',(-59.25536400562,54.964546,19.));
#85 = DIRECTION('',(0.,-1.,2.2E-16));
#86 = DIRECTION('',(0.,-2.2E-16,-1.));
#87 = ORIENTED_EDGE('',*,*,#88,.F.);
#88 = EDGE_CURVE('',#89,#80,#91,.T.);
#89 = VERTEX_POINT('',#90);
#90 = CARTESIAN_POINT('',(-57.25536400562,54.964546,8.));
#91 = LINE('',#92,#93);
#92 = CARTESIAN_POINT('',(-57.25536400562,54.964546,0.));
#93 = VECTOR('',#94,1.);
#94 = DIRECTION('',(0.,0.,1.));
#95 = ORIENTED_EDGE('',*,*,#96,.F.);
#96 = EDGE_CURVE('',#24,#89,#97,.T.);
#97 = CIRCLE('',#98,2.);
#98 = AXIS2_PLACEMENT_3D('',#99,#100,#101);
#99 = CARTESIAN_POINT('',(-59.25536400562,54.964546,8.));
#100 = DIRECTION('',(0.,-1.,2.2E-16));
#101 = DIRECTION('',(0.,-2.2E-16,-1.));
#102 = FACE_BOUND('',#103,.T.);
#103 = EDGE_LOOP('',(#104));
#104 = ORIENTED_EDGE('',*,*,#105,.F.);
#105 = EDGE_CURVE('',#106,#106,#108,.T.);
#106 = VERTEX_POINT('',#107);
#107 = CARTESIAN_POINT('',(-75.45536400562,54.964546,16.));
#108 = CIRCLE('',#109,1.2);
#109 = AXIS2_PLACEMENT_3D('',#110,#111,#112);
#110 = CARTESIAN_POINT('',(-74.25536400562,54.964546,16.));
#111 = DIRECTION('',(0.,1.,-0.));
#112 = DIRECTION('',(-1.,0.,0.));
#113 = FACE_BOUND('',#114,.T.);
#114 = EDGE_LOOP('',(#115));
#115 = ORIENTED_EDGE('',*,*,#116,.F.);
#116 = EDGE_CURVE('',#117,#117,#119,.T.);
#117 = VERTEX_POINT('',#118);
#118 = CARTESIAN_POINT('',(-75.45536400562,54.964546,11.));
#119 = CIRCLE('',#120,1.2);
#120 = AXIS2_PLACEMENT_3D('',#121,#122,#123);
#121 = CARTESIAN_POINT('',(-74.25536400562,54.964546,11.));
#122 = DIRECTION('',(0.,1.,-0.));
#123 = DIRECTION('',(-1.,0.,0.));
#124 = PLANE('',#125);
#125 = AXIS2_PLACEMENT_3D('',#126,#127,#128);
#126 = CARTESIAN_POINT('',(-78.25536400562,54.964546,0.));
#127 = DIRECTION('',(0.,1.,0.));
#128 = DIRECTION('',(1.,0.,0.));
#129 = ADVANCED_FACE('',(#130),#155,.F.);
#130 = FACE_BOUND('',#131,.F.);
#131 = EDGE_LOOP('',(#132,#133,#141,#149));
#132 = ORIENTED_EDGE('',*,*,#21,.F.);
#133 = ORIENTED_EDGE('',*,*,#134,.T.);
#134 = EDGE_CURVE('',#22,#135,#137,.T.);
#135 = VERTEX_POINT('',#136);
#136 = CARTESIAN_POINT('',(-70.25536400562,50.964546,6.));
#137 = LINE('',#138,#139);
#138 = CARTESIAN_POINT('',(-70.25536400562,54.964546,6.));
#139 = VECTOR('',#140,1.);
#140 = DIRECTION('',(0.,-1.,2.2E-16));
#141 = ORIENTED_EDGE('',*,*,#142,.T.);
#142 = EDGE_CURVE('',#135,#143,#145,.T.);
#143 = VERTEX_POINT('',#144);
#144 = CARTESIAN_POINT('',(-59.25536400562,50.964546,6.));
#145 = LINE('',#146,#147);
#146 = CARTESIAN_POINT('',(-70.25536400562,50.964546,6.));
#147 = VECTOR('',#148,1.);
#148 = DIRECTION('',(1.,0.,0.));
#149 = ORIENTED_EDGE('',*,*,#150,.F.);
#150 = EDGE_CURVE('',#24,#143,#151,.T.);
#151 = LINE('',#152,#153);
#152 = CARTESIAN_POINT('',(-59.25536400562,54.964546,6.));
#153 = VECTOR('',#154,1.);
#154 = DIRECTION('',(0.,-1.,2.2E-16));
#155 = PLANE('',#156);
#156 = AXIS2_PLACEMENT_3D('',#157,#158,#159);
#157 = CARTESIAN_POINT('',(-70.25536400562,54.964546,6.));
#158 = DIRECTION('',(0.,2.2E-16,1.));
#159 = DIRECTION('',(1.,0.,0.));
#160 = ADVANCED_FACE('',(#161),#180,.T.);
#161 = FACE_BOUND('',#162,.T.);
#162 = EDGE_LOOP('',(#163,#164,#172,#179));
#163 = ORIENTED_EDGE('',*,*,#96,.T.);
#164 = ORIENTED_EDGE('',*,*,#165,.T.);
#165 = EDGE_CURVE('',#89,#166,#168,.T.);
#166 = VERTEX_POINT('',#167);
#167 = CARTESIAN_POINT('',(-57.25536400562,50.964546,8.));
#168 = LINE('',#169,#170);
#169 = CARTESIAN_POINT('',(-57.25536400562,54.964546,8.));
#170 = VECTOR('',#171,1.);
#171 = DIRECTION('',(0.,-1.,2.2E-16));
#172 = ORIENTED_EDGE('',*,*,#173,.F.);
#173 = EDGE_CURVE('',#143,#166,#174,.T.);
#174 = CIRCLE('',#175,2.);
#175 = AXIS2_PLACEMENT_3D('',#176,#177,#178);
#176 = CARTESIAN_POINT('',(-59.25536400562,50.964546,8.));
#177 = DIRECTION('',(0.,-1.,2.2E-16));
#178 = DIRECTION('',(0.,-2.2E-16,-1.));
#179 = ORIENTED_EDGE('',*,*,#150,.F.);
#180 = CYLINDRICAL_SURFACE('',#181,2.);
#181 = AXIS2_PLACEMENT_3D('',#182,#183,#184);
#182 = CARTESIAN_POINT('',(-59.25536400562,54.964546,8.));
#183 = DIRECTION('',(0.,-1.,2.2E-16));
#184 = DIRECTION('',(0.,-2.2E-16,-1.));
#185 = ADVANCED_FACE('',(#186),#204,.F.);
#186 = FACE_BOUND('',#187,.F.);
#187 = EDGE_LOOP('',(#188,#189,#197,#203));
#188 = ORIENTED_EDGE('',*,*,#31,.F.);
#189 = ORIENTED_EDGE('',*,*,#190,.T.);
#190 = EDGE_CURVE('',#32,#191,#193,.T.);
#191 = VERTEX_POINT('',#192);
#192 = CARTESIAN_POINT('',(-70.25536400562,50.964546,0.));
#193 = LINE('',#194,#195);
#194 = CARTESIAN_POINT('',(-70.25536400562,54.964546,0.));
#195 = VECTOR('',#196,1.);
#196 = DIRECTION('',(0.,-1.,2.2E-16));
#197 = ORIENTED_EDGE('',*,*,#198,.T.);
#198 = EDGE_CURVE('',#191,#135,#199,.T.);
#199 = LINE('',#200,#201);
#200 = CARTESIAN_POINT('',(-70.25536400562,50.964546,0.));
#201 = VECTOR('',#202,1.);
#202 = DIRECTION('',(0.,0.,1.));
#203 = ORIENTED_EDGE('',*,*,#134,.F.);
#204 = PLANE('',#205);
#205 = AXIS2_PLACEMENT_3D('',#206,#207,#208);
#206 = CARTESIAN_POINT('',(-70.25536400562,54.964546,0.));
#207 = DIRECTION('',(-1.,0.,0.));
#208 = DIRECTION('',(0.,2.2E-16,1.));
#209 = ADVANCED_FACE('',(#210),#228,.F.);
#210 = FACE_BOUND('',#211,.F.);
#211 = EDGE_LOOP('',(#212,#213,#214,#222));
#212 = ORIENTED_EDGE('',*,*,#88,.F.);
#213 = ORIENTED_EDGE('',*,*,#165,.T.);
#214 = ORIENTED_EDGE('',*,*,#215,.T.);
#215 = EDGE_CURVE('',#166,#216,#218,.T.);
#216 = VERTEX_POINT('',#217);
#217 = CARTESIAN_POINT('',(-57.25536400562,50.964546,19.));
#218 = LINE('',#219,#220);
#219 = CARTESIAN_POINT('',(-57.25536400562,50.964546,0.));
#220 = VECTOR('',#221,1.);
#221 = DIRECTION('',(0.,0.,1.));
#222 = ORIENTED_EDGE('',*,*,#223,.F.);
#223 = EDGE_CURVE('',#80,#216,#224,.T.);
#224 = LINE('',#225,#226);
#225 = CARTESIAN_POINT('',(-57.25536400562,54.964546,19.));
#226 = VECTOR('',#227,1.);
#227 = DIRECTION('',(0.,-1.,2.2E-16));
#228 = PLANE('',#229);
#229 = AXIS2_PLACEMENT_3D('',#230,#231,#232);
#230 = CARTESIAN_POINT('',(-57.25536400562,50.964546,0.));
#231 = DIRECTION('',(-1.,0.,0.));
#232 = DIRECTION('',(0.,1.,0.));
#233 = ADVANCED_FACE('',(#234,#260,#271,#282),#293,.F.);
#234 = FACE_BOUND('',#235,.F.);
#235 = EDGE_LOOP('',(#236,#237,#245,#253,#259));
#236 = ORIENTED_EDGE('',*,*,#39,.F.);
#237 = ORIENTED_EDGE('',*,*,#238,.T.);
#238 = EDGE_CURVE('',#40,#239,#241,.T.);
#239 = VERTEX_POINT('',#240);
#240 = CARTESIAN_POINT('',(-78.25536400562,14.964546,0.));
#241 = LINE('',#242,#243);
#242 = CARTESIAN_POINT('',(-78.25536400562,54.964546,0.));
#243 = VECTOR('',#244,1.);
#244 = DIRECTION('',(0.,-1.,0.));
#245 = ORIENTED_EDGE('',*,*,#246,.T.);
#246 = EDGE_CURVE('',#239,#247,#249,.T.);
#247 = VERTEX_POINT('',#248);
#248 = CARTESIAN_POINT('',(-70.25536400562,14.964546,0.));
#249 = LINE('',#250,#251);
#250 = CARTESIAN_POINT('',(-78.25536400562,14.964546,0.));
#251 = VECTOR('',#252,1.);
#252 = DIRECTION('',(1.,0.,0.));
#253 = ORIENTED_EDGE('',*,*,#254,.T.);
#254 = EDGE_CURVE('',#247,#191,#255,.T.);
#255 = LINE('',#256,#257);
#256 = CARTESIAN_POINT('',(-70.25536400562,14.964546,0.));
#257 = VECTOR('',#258,1.);
#258 = DIRECTION('',(0.,1.,0.));
#259 = ORIENTED_EDGE('',*,*,#190,.F.);
#260 = FACE_BOUND('',#261,.F.);
#261 = EDGE_LOOP('',(#262));
#262 = ORIENTED_EDGE('',*,*,#263,.F.);
#263 = EDGE_CURVE('',#264,#264,#266,.T.);
#264 = VERTEX_POINT('',#265);
#265 = CARTESIAN_POINT('',(-73.05536400562,20.964546,0.));
#266 = CIRCLE('',#267,1.2);
#267 = AXIS2_PLACEMENT_3D('',#268,#269,#270);
#268 = CARTESIAN_POINT('',(-74.25536400562,20.964546,0.));
#269 = DIRECTION('',(0.,0.,1.));
#270 = DIRECTION('',(1.,0.,0.));
#271 = FACE_BOUND('',#272,.F.);
#272 = EDGE_LOOP('',(#273));
#273 = ORIENTED_EDGE('',*,*,#274,.F.);
#274 = EDGE_CURVE('',#275,#275,#277,.T.);
#275 = VERTEX_POINT('',#276);
#276 = CARTESIAN_POINT('',(-73.05536400562,40.964546,0.));
#277 = CIRCLE('',#278,1.2);
#278 = AXIS2_PLACEMENT_3D('',#279,#280,#281);
#279 = CARTESIAN_POINT('',(-74.25536400562,40.964546,0.));
#280 = DIRECTION('',(0.,0.,1.));
#281 = DIRECTION('',(1.,0.,0.));
#282 = FACE_BOUND('',#283,.F.);
#283 = EDGE_LOOP('',(#284));
#284 = ORIENTED_EDGE('',*,*,#285,.F.);
#285 = EDGE_CURVE('',#286,#286,#288,.T.);
#286 = VERTEX_POINT('',#287);
#287 = CARTESIAN_POINT('',(-73.05536400562,46.964546,0.));
#288 = CIRCLE('',#289,1.2);
#289 = AXIS2_PLACEMENT_3D('',#290,#291,#292);
#290 = CARTESIAN_POINT('',(-74.25536400562,46.964546,0.));
#291 = DIRECTION('',(0.,0.,1.));
#292 = DIRECTION('',(1.,0.,0.));
#293 = PLANE('',#294);
#294 = AXIS2_PLACEMENT_3D('',#295,#296,#297);
#295 = CARTESIAN_POINT('',(-71.94558576954,38.467886373588,0.));
#296 = DIRECTION('',(0.,0.,1.));
#297 = DIRECTION('',(1.,0.,0.));
#298 = ADVANCED_FACE('',(#299),#318,.T.);
#299 = FACE_BOUND('',#300,.T.);
#300 = EDGE_LOOP('',(#301,#302,#310,#317));
#301 = ORIENTED_EDGE('',*,*,#79,.T.);
#302 = ORIENTED_EDGE('',*,*,#303,.T.);
#303 = EDGE_CURVE('',#72,#304,#306,.T.);
#304 = VERTEX_POINT('',#305);
#305 = CARTESIAN_POINT('',(-59.25536400562,50.964546,21.));
#306 = LINE('',#307,#308);
#307 = CARTESIAN_POINT('',(-59.25536400562,54.964546,21.));
#308 = VECTOR('',#309,1.);
#309 = DIRECTION('',(0.,-1.,2.2E-16));
#310 = ORIENTED_EDGE('',*,*,#311,.F.);
#311 = EDGE_CURVE('',#216,#304,#312,.T.);
#312 = CIRCLE('',#313,2.);
#313 = AXIS2_PLACEMENT_3D('',#314,#315,#316);
#314 = CARTESIAN_POINT('',(-59.25536400562,50.964546,19.));
#315 = DIRECTION('',(0.,-1.,2.2E-16));
#316 = DIRECTION('',(0.,-2.2E-16,-1.));
#317 = ORIENTED_EDGE('',*,*,#223,.F.);
#318 = CYLINDRICAL_SURFACE('',#319,2.);
#319 = AXIS2_PLACEMENT_3D('',#320,#321,#322);
#320 = CARTESIAN_POINT('',(-59.25536400562,54.964546,19.));
#321 = DIRECTION('',(0.,-1.,2.2E-16));
#322 = DIRECTION('',(1.,0.,0.));
#323 = ADVANCED_FACE('',(#324,#342),#376,.F.);
#324 = FACE_BOUND('',#325,.F.);
#325 = EDGE_LOOP('',(#326,#327,#335,#341));
#326 = ORIENTED_EDGE('',*,*,#47,.T.);
#327 = ORIENTED_EDGE('',*,*,#328,.T.);
#328 = EDGE_CURVE('',#48,#329,#331,.T.);
#329 = VERTEX_POINT('',#330);
#330 = CARTESIAN_POINT('',(-78.25536400562,14.964546,27.));
#331 = LINE('',#332,#333);
#332 = CARTESIAN_POINT('',(-78.25536400562,54.964546,27.));
#333 = VECTOR('',#334,1.);
#334 = DIRECTION('',(0.,-1.,0.));
#335 = ORIENTED_EDGE('',*,*,#336,.F.);
#336 = EDGE_CURVE('',#239,#329,#337,.T.);
#337 = LINE('',#338,#339);
#338 = CARTESIAN_POINT('',(-78.25536400562,14.964546,0.));
#339 = VECTOR('',#340,1.);
#340 = DIRECTION('',(0.,0.,1.));
#341 = ORIENTED_EDGE('',*,*,#238,.F.);
#342 = FACE_BOUND('',#343,.F.);
#343 = EDGE_LOOP('',(#344,#354,#362,#370));
#344 = ORIENTED_EDGE('',*,*,#345,.T.);
#345 = EDGE_CURVE('',#346,#348,#350,.T.);
#346 = VERTEX_POINT('',#347);
#347 = CARTESIAN_POINT('',(-78.25536400562,23.964545999987,
    20.999999999998));
#348 = VERTEX_POINT('',#349);
#349 = CARTESIAN_POINT('',(-78.25536400562,37.964545999987,
    20.999999999998));
#350 = LINE('',#351,#352);
#351 = CARTESIAN_POINT('',(-78.25536400562,23.964545999987,
    20.999999999998));
#352 = VECTOR('',#353,1.);
#353 = DIRECTION('',(0.,1.,0.));
#354 = ORIENTED_EDGE('',*,*,#355,.T.);
#355 = EDGE_CURVE('',#348,#356,#358,.T.);
#356 = VERTEX_POINT('',#357);
#357 = CARTESIAN_POINT('',(-78.25536400562,37.964545999987,
    5.999999999998));
#358 = LINE('',#359,#360);
#359 = CARTESIAN_POINT('',(-78.25536400562,37.964545999987,
    20.999999999998));
#360 = VECTOR('',#361,1.);
#361 = DIRECTION('',(0.,0.,-1.));
#362 = ORIENTED_EDGE('',*,*,#363,.T.);
#363 = EDGE_CURVE('',#356,#364,#366,.T.);
#364 = VERTEX_POINT('',#365);
#365 = CARTESIAN_POINT('',(-78.25536400562,23.964545999987,
    5.999999999998));
#366 = LINE('',#367,#368);
#367 = CARTESIAN_POINT('',(-78.25536400562,37.964545999987,
    5.999999999998));
#368 = VECTOR('',#369,1.);
#369 = DIRECTION('',(0.,-1.,0.));
#370 = ORIENTED_EDGE('',*,*,#371,.T.);
#371 = EDGE_CURVE('',#364,#346,#372,.T.);
#372 = LINE('',#373,#374);
#373 = CARTESIAN_POINT('',(-78.25536400562,23.964545999987,
    5.999999999998));
#374 = VECTOR('',#375,1.);
#375 = DIRECTION('',(0.,0.,1.));
#376 = PLANE('',#377);
#377 = AXIS2_PLACEMENT_3D('',#378,#379,#380);
#378 = CARTESIAN_POINT('',(-78.25536400562,54.964546,0.));
#379 = DIRECTION('',(1.,0.,0.));
#380 = DIRECTION('',(0.,-1.,0.));
#381 = ADVANCED_FACE('',(#382),#400,.F.);
#382 = FACE_BOUND('',#383,.F.);
#383 = EDGE_LOOP('',(#384,#385,#386,#394));
#384 = ORIENTED_EDGE('',*,*,#71,.F.);
#385 = ORIENTED_EDGE('',*,*,#303,.T.);
#386 = ORIENTED_EDGE('',*,*,#387,.T.);
#387 = EDGE_CURVE('',#304,#388,#390,.T.);
#388 = VERTEX_POINT('',#389);
#389 = CARTESIAN_POINT('',(-70.25536400562,50.964546,21.));
#390 = LINE('',#391,#392);
#391 = CARTESIAN_POINT('',(-63.75536400562,50.964546,21.));
#392 = VECTOR('',#393,1.);
#393 = DIRECTION('',(-1.,0.,0.));
#394 = ORIENTED_EDGE('',*,*,#395,.F.);
#395 = EDGE_CURVE('',#64,#388,#396,.T.);
#396 = LINE('',#397,#398);
#397 = CARTESIAN_POINT('',(-70.25536400562,54.964546,21.));
#398 = VECTOR('',#399,1.);
#399 = DIRECTION('',(0.,-1.,2.2E-16));
#400 = PLANE('',#401);
#401 = AXIS2_PLACEMENT_3D('',#402,#403,#404);
#402 = CARTESIAN_POINT('',(-57.25536400562,54.964546,21.));
#403 = DIRECTION('',(-0.,-2.2E-16,-1.));
#404 = DIRECTION('',(-1.,0.,0.));
#405 = ADVANCED_FACE('',(#406,#432,#443,#454),#465,.T.);
#406 = FACE_BOUND('',#407,.T.);
#407 = EDGE_LOOP('',(#408,#409,#410,#418,#426));
#408 = ORIENTED_EDGE('',*,*,#55,.F.);
#409 = ORIENTED_EDGE('',*,*,#328,.T.);
#410 = ORIENTED_EDGE('',*,*,#411,.T.);
#411 = EDGE_CURVE('',#329,#412,#414,.T.);
#412 = VERTEX_POINT('',#413);
#413 = CARTESIAN_POINT('',(-70.25536400562,14.964546,27.));
#414 = LINE('',#415,#416);
#415 = CARTESIAN_POINT('',(-78.25536400562,14.964546,27.));
#416 = VECTOR('',#417,1.);
#417 = DIRECTION('',(1.,0.,0.));
#418 = ORIENTED_EDGE('',*,*,#419,.T.);
#419 = EDGE_CURVE('',#412,#420,#422,.T.);
#420 = VERTEX_POINT('',#421);
#421 = CARTESIAN_POINT('',(-70.25536400562,50.964546,27.));
#422 = LINE('',#423,#424);
#423 = CARTESIAN_POINT('',(-70.25536400562,14.964546,27.));
#424 = VECTOR('',#425,1.);
#425 = DIRECTION('',(0.,1.,0.));
#426 = ORIENTED_EDGE('',*,*,#427,.F.);
#427 = EDGE_CURVE('',#56,#420,#428,.T.);
#428 = LINE('',#429,#430);
#429 = CARTESIAN_POINT('',(-70.25536400562,54.964546,27.));
#430 = VECTOR('',#431,1.);
#431 = DIRECTION('',(0.,-1.,2.2E-16));
#432 = FACE_BOUND('',#433,.T.);
#433 = EDGE_LOOP('',(#434));
#434 = ORIENTED_EDGE('',*,*,#435,.F.);
#435 = EDGE_CURVE('',#436,#436,#438,.T.);
#436 = VERTEX_POINT('',#437);
#437 = CARTESIAN_POINT('',(-73.05536400562,20.964546,27.));
#438 = CIRCLE('',#439,1.2);
#439 = AXIS2_PLACEMENT_3D('',#440,#441,#442);
#440 = CARTESIAN_POINT('',(-74.25536400562,20.964546,27.));
#441 = DIRECTION('',(0.,0.,1.));
#442 = DIRECTION('',(1.,0.,0.));
#443 = FACE_BOUND('',#444,.T.);
#444 = EDGE_LOOP('',(#445));
#445 = ORIENTED_EDGE('',*,*,#446,.F.);
#446 = EDGE_CURVE('',#447,#447,#449,.T.);
#447 = VERTEX_POINT('',#448);
#448 = CARTESIAN_POINT('',(-73.05536400562,40.964546,27.));
#449 = CIRCLE('',#450,1.2);
#450 = AXIS2_PLACEMENT_3D('',#451,#452,#453);
#451 = CARTESIAN_POINT('',(-74.25536400562,40.964546,27.));
#452 = DIRECTION('',(0.,0.,1.));
#453 = DIRECTION('',(1.,0.,0.));
#454 = FACE_BOUND('',#455,.T.);
#455 = EDGE_LOOP('',(#456));
#456 = ORIENTED_EDGE('',*,*,#457,.F.);
#457 = EDGE_CURVE('',#458,#458,#460,.T.);
#458 = VERTEX_POINT('',#459);
#459 = CARTESIAN_POINT('',(-73.05536400562,46.964546,27.));
#460 = CIRCLE('',#461,1.2);
#461 = AXIS2_PLACEMENT_3D('',#462,#463,#464);
#462 = CARTESIAN_POINT('',(-74.25536400562,46.964546,27.));
#463 = DIRECTION('',(0.,0.,1.));
#464 = DIRECTION('',(1.,0.,0.));
#465 = PLANE('',#466);
#466 = AXIS2_PLACEMENT_3D('',#467,#468,#469);
#467 = CARTESIAN_POINT('',(-71.94558576954,38.467886373588,27.));
#468 = DIRECTION('',(0.,0.,1.));
#469 = DIRECTION('',(1.,0.,0.));
#470 = ADVANCED_FACE('',(#471),#482,.F.);
#471 = FACE_BOUND('',#472,.F.);
#472 = EDGE_LOOP('',(#473,#474,#480,#481));
#473 = ORIENTED_EDGE('',*,*,#395,.T.);
#474 = ORIENTED_EDGE('',*,*,#475,.T.);
#475 = EDGE_CURVE('',#388,#420,#476,.T.);
#476 = LINE('',#477,#478);
#477 = CARTESIAN_POINT('',(-70.25536400562,50.964546,0.));
#478 = VECTOR('',#479,1.);
#479 = DIRECTION('',(0.,0.,1.));
#480 = ORIENTED_EDGE('',*,*,#427,.F.);
#481 = ORIENTED_EDGE('',*,*,#63,.F.);
#482 = PLANE('',#483);
#483 = AXIS2_PLACEMENT_3D('',#484,#485,#486);
#484 = CARTESIAN_POINT('',(-70.25536400562,54.964546,21.));
#485 = DIRECTION('',(-1.,0.,0.));
#486 = DIRECTION('',(0.,2.2E-16,1.));
#487 = ADVANCED_FACE('',(#488),#525,.F.);
#488 = FACE_BOUND('',#489,.F.);
#489 = EDGE_LOOP('',(#490,#491,#499,#508,#517,#524));
#490 = ORIENTED_EDGE('',*,*,#105,.F.);
#491 = ORIENTED_EDGE('',*,*,#492,.T.);
#492 = EDGE_CURVE('',#106,#493,#495,.T.);
#493 = VERTEX_POINT('',#494);
#494 = CARTESIAN_POINT('',(-75.45536400562,46.964546,16.));
#495 = LINE('',#496,#497);
#496 = CARTESIAN_POINT('',(-75.45536400562,54.964546,16.));
#497 = VECTOR('',#498,1.);
#498 = DIRECTION('',(0.,-1.,2.2E-16));
#499 = ORIENTED_EDGE('',*,*,#500,.T.);
#500 = EDGE_CURVE('',#493,#501,#503,.T.);
#501 = VERTEX_POINT('',#502);
#502 = CARTESIAN_POINT('',(-73.05536400562,46.964546,16.));
#503 = ELLIPSE('',#504,1.697056274848,1.2);
#504 = AXIS2_PLACEMENT_3D('',#505,#506,#507);
#505 = CARTESIAN_POINT('',(-74.25536400562,46.964546,16.));
#506 = DIRECTION('',(0.,0.707106781187,-0.707106781187));
#507 = DIRECTION('',(0.,-0.707106781187,-0.707106781187));
#508 = ORIENTED_EDGE('',*,*,#509,.F.);
#509 = EDGE_CURVE('',#510,#501,#512,.T.);
#510 = VERTEX_POINT('',#511);
#511 = CARTESIAN_POINT('',(-74.25536400562,48.164546,14.8));
#512 = ELLIPSE('',#513,1.697056274848,1.2);
#513 = AXIS2_PLACEMENT_3D('',#514,#515,#516);
#514 = CARTESIAN_POINT('',(-74.25536400562,46.964546,16.));
#515 = DIRECTION('',(0.,-0.707106781187,-0.707106781187));
#516 = DIRECTION('',(0.,0.707106781187,-0.707106781187));
#517 = ORIENTED_EDGE('',*,*,#518,.F.);
#518 = EDGE_CURVE('',#493,#510,#519,.T.);
#519 = ELLIPSE('',#520,1.697056274848,1.2);
#520 = AXIS2_PLACEMENT_3D('',#521,#522,#523);
#521 = CARTESIAN_POINT('',(-74.25536400562,46.964546,16.));
#522 = DIRECTION('',(0.,-0.707106781187,-0.707106781187));
#523 = DIRECTION('',(0.,0.707106781187,-0.707106781187));
#524 = ORIENTED_EDGE('',*,*,#492,.F.);
#525 = CYLINDRICAL_SURFACE('',#526,1.2);
#526 = AXIS2_PLACEMENT_3D('',#527,#528,#529);
#527 = CARTESIAN_POINT('',(-74.25536400562,54.964546,16.));
#528 = DIRECTION('',(0.,1.,-2.2E-16));
#529 = DIRECTION('',(-1.,0.,0.));
#530 = ADVANCED_FACE('',(#531),#568,.F.);
#531 = FACE_BOUND('',#532,.F.);
#532 = EDGE_LOOP('',(#533,#534,#542,#551,#560,#567));
#533 = ORIENTED_EDGE('',*,*,#116,.F.);
#534 = ORIENTED_EDGE('',*,*,#535,.T.);
#535 = EDGE_CURVE('',#117,#536,#538,.T.);
#536 = VERTEX_POINT('',#537);
#537 = CARTESIAN_POINT('',(-75.45536400562,46.964546,11.));
#538 = LINE('',#539,#540);
#539 = CARTESIAN_POINT('',(-75.45536400562,54.964546,11.));
#540 = VECTOR('',#541,1.);
#541 = DIRECTION('',(0.,-1.,2.2E-16));
#542 = ORIENTED_EDGE('',*,*,#543,.T.);
#543 = EDGE_CURVE('',#536,#544,#546,.T.);
#544 = VERTEX_POINT('',#545);
#545 = CARTESIAN_POINT('',(-73.05536400562,46.964546,11.));
#546 = ELLIPSE('',#547,1.697056274848,1.2);
#547 = AXIS2_PLACEMENT_3D('',#548,#549,#550);
#548 = CARTESIAN_POINT('',(-74.25536400562,46.964546,11.));
#549 = DIRECTION('',(0.,0.707106781187,-0.707106781187));
#550 = DIRECTION('',(0.,-0.707106781187,-0.707106781187));
#551 = ORIENTED_EDGE('',*,*,#552,.F.);
#552 = EDGE_CURVE('',#553,#544,#555,.T.);
#553 = VERTEX_POINT('',#554);
#554 = CARTESIAN_POINT('',(-74.25536400562,48.164546,9.8));
#555 = ELLIPSE('',#556,1.697056274848,1.2);
#556 = AXIS2_PLACEMENT_3D('',#557,#558,#559);
#557 = CARTESIAN_POINT('',(-74.25536400562,46.964546,11.));
#558 = DIRECTION('',(0.,-0.707106781187,-0.707106781187));
#559 = DIRECTION('',(0.,0.707106781187,-0.707106781187));
#560 = ORIENTED_EDGE('',*,*,#561,.F.);
#561 = EDGE_CURVE('',#536,#553,#562,.T.);
#562 = ELLIPSE('',#563,1.697056274848,1.2);
#563 = AXIS2_PLACEMENT_3D('',#564,#565,#566);
#564 = CARTESIAN_POINT('',(-74.25536400562,46.964546,11.));
#565 = DIRECTION('',(0.,-0.707106781187,-0.707106781187));
#566 = DIRECTION('',(0.,0.707106781187,-0.707106781187));
#567 = ORIENTED_EDGE('',*,*,#535,.F.);
#568 = CYLINDRICAL_SURFACE('',#569,1.2);
#569 = AXIS2_PLACEMENT_3D('',#570,#571,#572);
#570 = CARTESIAN_POINT('',(-74.25536400562,54.964546,11.));
#571 = DIRECTION('',(0.,1.,-2.2E-16));
#572 = DIRECTION('',(-1.,0.,0.));
#573 = ADVANCED_FACE('',(#574),#587,.F.);
#574 = FACE_BOUND('',#575,.F.);
#575 = EDGE_LOOP('',(#576,#577,#583,#584,#585,#586));
#576 = ORIENTED_EDGE('',*,*,#142,.F.);
#577 = ORIENTED_EDGE('',*,*,#578,.T.);
#578 = EDGE_CURVE('',#135,#388,#579,.T.);
#579 = LINE('',#580,#581);
#580 = CARTESIAN_POINT('',(-70.25536400562,50.964546,0.));
#581 = VECTOR('',#582,1.);
#582 = DIRECTION('',(0.,0.,1.));
#583 = ORIENTED_EDGE('',*,*,#387,.F.);
#584 = ORIENTED_EDGE('',*,*,#311,.F.);
#585 = ORIENTED_EDGE('',*,*,#215,.F.);
#586 = ORIENTED_EDGE('',*,*,#173,.F.);
#587 = PLANE('',#588);
#588 = AXIS2_PLACEMENT_3D('',#589,#590,#591);
#589 = CARTESIAN_POINT('',(-70.25536400562,50.964546,0.));
#590 = DIRECTION('',(0.,1.,0.));
#591 = DIRECTION('',(1.,0.,0.));
#592 = ADVANCED_FACE('',(#593),#627,.F.);
#593 = FACE_BOUND('',#594,.F.);
#594 = EDGE_LOOP('',(#595,#596,#604,#612,#620,#626));
#595 = ORIENTED_EDGE('',*,*,#254,.F.);
#596 = ORIENTED_EDGE('',*,*,#597,.T.);
#597 = EDGE_CURVE('',#247,#598,#600,.T.);
#598 = VERTEX_POINT('',#599);
#599 = CARTESIAN_POINT('',(-70.25536400562,14.964546,6.));
#600 = LINE('',#601,#602);
#601 = CARTESIAN_POINT('',(-70.25536400562,14.964546,0.));
#602 = VECTOR('',#603,1.);
#603 = DIRECTION('',(0.,0.,1.));
#604 = ORIENTED_EDGE('',*,*,#605,.F.);
#605 = EDGE_CURVE('',#606,#598,#608,.T.);
#606 = VERTEX_POINT('',#607);
#607 = CARTESIAN_POINT('',(-70.25536400562,23.964545999987,
    5.999999999998));
#608 = LINE('',#609,#610);
#609 = CARTESIAN_POINT('',(-70.25536400562,54.964546,6.));
#610 = VECTOR('',#611,1.);
#611 = DIRECTION('',(0.,-1.,2.2E-16));
#612 = ORIENTED_EDGE('',*,*,#613,.F.);
#613 = EDGE_CURVE('',#614,#606,#616,.T.);
#614 = VERTEX_POINT('',#615);
#615 = CARTESIAN_POINT('',(-70.25536400562,37.964545999987,
    5.999999999998));
#616 = LINE('',#617,#618);
#617 = CARTESIAN_POINT('',(-70.25536400562,26.464545999994,
    5.999999999998));
#618 = VECTOR('',#619,1.);
#619 = DIRECTION('',(-0.,-1.,-0.));
#620 = ORIENTED_EDGE('',*,*,#621,.F.);
#621 = EDGE_CURVE('',#135,#614,#622,.T.);
#622 = LINE('',#623,#624);
#623 = CARTESIAN_POINT('',(-70.25536400562,54.964546,6.));
#624 = VECTOR('',#625,1.);
#625 = DIRECTION('',(0.,-1.,2.2E-16));
#626 = ORIENTED_EDGE('',*,*,#198,.F.);
#627 = PLANE('',#628);
#628 = AXIS2_PLACEMENT_3D('',#629,#630,#631);
#629 = CARTESIAN_POINT('',(-70.25536400562,14.964546,0.));
#630 = DIRECTION('',(-1.,0.,0.));
#631 = DIRECTION('',(0.,1.,0.));
#632 = ADVANCED_FACE('',(#633),#653,.F.);
#633 = FACE_BOUND('',#634,.F.);
#634 = EDGE_LOOP('',(#635,#636,#637,#645,#651,#652));
#635 = ORIENTED_EDGE('',*,*,#336,.T.);
#636 = ORIENTED_EDGE('',*,*,#411,.T.);
#637 = ORIENTED_EDGE('',*,*,#638,.F.);
#638 = EDGE_CURVE('',#639,#412,#641,.T.);
#639 = VERTEX_POINT('',#640);
#640 = CARTESIAN_POINT('',(-70.25536400562,14.964546,21.));
#641 = LINE('',#642,#643);
#642 = CARTESIAN_POINT('',(-70.25536400562,14.964546,0.));
#643 = VECTOR('',#644,1.);
#644 = DIRECTION('',(0.,0.,1.));
#645 = ORIENTED_EDGE('',*,*,#646,.F.);
#646 = EDGE_CURVE('',#598,#639,#647,.T.);
#647 = LINE('',#648,#649);
#648 = CARTESIAN_POINT('',(-70.25536400562,14.964546,0.));
#649 = VECTOR('',#650,1.);
#650 = DIRECTION('',(0.,0.,1.));
#651 = ORIENTED_EDGE('',*,*,#597,.F.);
#652 = ORIENTED_EDGE('',*,*,#246,.F.);
#653 = PLANE('',#654);
#654 = AXIS2_PLACEMENT_3D('',#655,#656,#657);
#655 = CARTESIAN_POINT('',(-78.25536400562,14.964546,0.));
#656 = DIRECTION('',(0.,1.,0.));
#657 = DIRECTION('',(1.,0.,0.));
#658 = ADVANCED_FACE('',(#659),#670,.F.);
#659 = FACE_BOUND('',#660,.T.);
#660 = EDGE_LOOP('',(#661,#667,#668,#669));
#661 = ORIENTED_EDGE('',*,*,#662,.T.);
#662 = EDGE_CURVE('',#264,#436,#663,.T.);
#663 = LINE('',#664,#665);
#664 = CARTESIAN_POINT('',(-73.05536400562,20.964546,0.));
#665 = VECTOR('',#666,1.);
#666 = DIRECTION('',(0.,0.,1.));
#667 = ORIENTED_EDGE('',*,*,#435,.T.);
#668 = ORIENTED_EDGE('',*,*,#662,.F.);
#669 = ORIENTED_EDGE('',*,*,#263,.F.);
#670 = CYLINDRICAL_SURFACE('',#671,1.2);
#671 = AXIS2_PLACEMENT_3D('',#672,#673,#674);
#672 = CARTESIAN_POINT('',(-74.25536400562,20.964546,0.));
#673 = DIRECTION('',(-0.,-0.,-1.));
#674 = DIRECTION('',(1.,0.,0.));
#675 = ADVANCED_FACE('',(#676,#687,#732),#777,.F.);
#676 = FACE_BOUND('',#677,.T.);
#677 = EDGE_LOOP('',(#678,#679,#685,#686));
#678 = ORIENTED_EDGE('',*,*,#274,.F.);
#679 = ORIENTED_EDGE('',*,*,#680,.T.);
#680 = EDGE_CURVE('',#275,#447,#681,.T.);
#681 = LINE('',#682,#683);
#682 = CARTESIAN_POINT('',(-73.05536400562,40.964546,0.));
#683 = VECTOR('',#684,1.);
#684 = DIRECTION('',(0.,0.,1.));
#685 = ORIENTED_EDGE('',*,*,#446,.T.);
#686 = ORIENTED_EDGE('',*,*,#680,.F.);
#687 = FACE_BOUND('',#688,.T.);
#688 = EDGE_LOOP('',(#689,#699,#708,#716,#725));
#689 = ORIENTED_EDGE('',*,*,#690,.F.);
#690 = EDGE_CURVE('',#691,#693,#695,.T.);
#691 = VERTEX_POINT('',#692);
#692 = CARTESIAN_POINT('',(-74.91868896369,41.964546,17.));
#693 = VERTEX_POINT('',#694);
#694 = CARTESIAN_POINT('',(-74.91868896369,41.964546,15.));
#695 = LINE('',#696,#697);
#696 = CARTESIAN_POINT('',(-74.91868896369,41.964546,-1.03E-15));
#697 = VECTOR('',#698,1.);
#698 = DIRECTION('',(-0.,-0.,-1.));
#699 = ORIENTED_EDGE('',*,*,#700,.T.);
#700 = EDGE_CURVE('',#691,#701,#703,.T.);
#701 = VERTEX_POINT('',#702);
#702 = CARTESIAN_POINT('',(-73.59203904755,41.964546,17.));
#703 = ELLIPSE('',#704,1.697056274848,1.2);
#704 = AXIS2_PLACEMENT_3D('',#705,#706,#707);
#705 = CARTESIAN_POINT('',(-74.25536400562,40.964546,16.));
#706 = DIRECTION('',(0.,0.707106781187,-0.707106781187));
#707 = DIRECTION('',(0.,-0.707106781187,-0.707106781187));
#708 = ORIENTED_EDGE('',*,*,#709,.T.);
#709 = EDGE_CURVE('',#701,#710,#712,.T.);
#710 = VERTEX_POINT('',#711);
#711 = CARTESIAN_POINT('',(-73.59203904755,41.964546,15.));
#712 = LINE('',#713,#714);
#713 = CARTESIAN_POINT('',(-73.59203904755,41.964546,-1.03E-15));
#714 = VECTOR('',#715,1.);
#715 = DIRECTION('',(-0.,-0.,-1.));
#716 = ORIENTED_EDGE('',*,*,#717,.F.);
#717 = EDGE_CURVE('',#718,#710,#720,.T.);
#718 = VERTEX_POINT('',#719);
#719 = CARTESIAN_POINT('',(-74.25536400562,42.164546,14.8));
#720 = ELLIPSE('',#721,1.697056274848,1.2);
#721 = AXIS2_PLACEMENT_3D('',#722,#723,#724);
#722 = CARTESIAN_POINT('',(-74.25536400562,40.964546,16.));
#723 = DIRECTION('',(0.,-0.707106781187,-0.707106781187));
#724 = DIRECTION('',(0.,0.707106781187,-0.707106781187));
#725 = ORIENTED_EDGE('',*,*,#726,.F.);
#726 = EDGE_CURVE('',#693,#718,#727,.T.);
#727 = ELLIPSE('',#728,1.697056274848,1.2);
#728 = AXIS2_PLACEMENT_3D('',#729,#730,#731);
#729 = CARTESIAN_POINT('',(-74.25536400562,40.964546,16.));
#730 = DIRECTION('',(0.,-0.707106781187,-0.707106781187));
#731 = DIRECTION('',(0.,0.707106781187,-0.707106781187));
#732 = FACE_BOUND('',#733,.T.);
#733 = EDGE_LOOP('',(#734,#744,#753,#761,#770));
#734 = ORIENTED_EDGE('',*,*,#735,.F.);
#735 = EDGE_CURVE('',#736,#738,#740,.T.);
#736 = VERTEX_POINT('',#737);
#737 = CARTESIAN_POINT('',(-74.91868896369,41.964546,12.000000000001));
#738 = VERTEX_POINT('',#739);
#739 = CARTESIAN_POINT('',(-74.91868896369,41.964546,9.999999999999));
#740 = LINE('',#741,#742);
#741 = CARTESIAN_POINT('',(-74.91868896369,41.964546,-1.03E-15));
#742 = VECTOR('',#743,1.);
#743 = DIRECTION('',(-0.,-0.,-1.));
#744 = ORIENTED_EDGE('',*,*,#745,.T.);
#745 = EDGE_CURVE('',#736,#746,#748,.T.);
#746 = VERTEX_POINT('',#747);
#747 = CARTESIAN_POINT('',(-73.59203904755,41.964546,12.000000000001));
#748 = ELLIPSE('',#749,1.697056274848,1.2);
#749 = AXIS2_PLACEMENT_3D('',#750,#751,#752);
#750 = CARTESIAN_POINT('',(-74.25536400562,40.964546,11.));
#751 = DIRECTION('',(0.,0.707106781187,-0.707106781187));
#752 = DIRECTION('',(0.,-0.707106781187,-0.707106781187));
#753 = ORIENTED_EDGE('',*,*,#754,.T.);
#754 = EDGE_CURVE('',#746,#755,#757,.T.);
#755 = VERTEX_POINT('',#756);
#756 = CARTESIAN_POINT('',(-73.59203904755,41.964546,9.999999999999));
#757 = LINE('',#758,#759);
#758 = CARTESIAN_POINT('',(-73.59203904755,41.964546,-1.03E-15));
#759 = VECTOR('',#760,1.);
#760 = DIRECTION('',(-0.,-0.,-1.));
#761 = ORIENTED_EDGE('',*,*,#762,.F.);
#762 = EDGE_CURVE('',#763,#755,#765,.T.);
#763 = VERTEX_POINT('',#764);
#764 = CARTESIAN_POINT('',(-74.25536400562,42.164546,9.8));
#765 = ELLIPSE('',#766,1.697056274848,1.2);
#766 = AXIS2_PLACEMENT_3D('',#767,#768,#769);
#767 = CARTESIAN_POINT('',(-74.25536400562,40.964546,11.));
#768 = DIRECTION('',(0.,-0.707106781187,-0.707106781187));
#769 = DIRECTION('',(0.,0.707106781187,-0.707106781187));
#770 = ORIENTED_EDGE('',*,*,#771,.F.);
#771 = EDGE_CURVE('',#738,#763,#772,.T.);
#772 = ELLIPSE('',#773,1.697056274848,1.2);
#773 = AXIS2_PLACEMENT_3D('',#774,#775,#776);
#774 = CARTESIAN_POINT('',(-74.25536400562,40.964546,11.));
#775 = DIRECTION('',(0.,-0.707106781187,-0.707106781187));
#776 = DIRECTION('',(0.,0.707106781187,-0.707106781187));
#777 = CYLINDRICAL_SURFACE('',#778,1.2);
#778 = AXIS2_PLACEMENT_3D('',#779,#780,#781);
#779 = CARTESIAN_POINT('',(-74.25536400562,40.964546,0.));
#780 = DIRECTION('',(-0.,-0.,-1.));
#781 = DIRECTION('',(1.,0.,0.));
#782 = ADVANCED_FACE('',(#783),#811,.F.);
#783 = FACE_BOUND('',#784,.T.);
#784 = EDGE_LOOP('',(#785,#786,#792,#793,#794,#803,#810));
#785 = ORIENTED_EDGE('',*,*,#285,.F.);
#786 = ORIENTED_EDGE('',*,*,#787,.T.);
#787 = EDGE_CURVE('',#286,#544,#788,.T.);
#788 = LINE('',#789,#790);
#789 = CARTESIAN_POINT('',(-73.05536400562,46.964546,0.));
#790 = VECTOR('',#791,1.);
#791 = DIRECTION('',(0.,0.,1.));
#792 = ORIENTED_EDGE('',*,*,#552,.F.);
#793 = ORIENTED_EDGE('',*,*,#561,.F.);
#794 = ORIENTED_EDGE('',*,*,#795,.F.);
#795 = EDGE_CURVE('',#796,#536,#798,.T.);
#796 = VERTEX_POINT('',#797);
#797 = CARTESIAN_POINT('',(-74.25536400562,45.764546,9.8));
#798 = ELLIPSE('',#799,1.697056274848,1.2);
#799 = AXIS2_PLACEMENT_3D('',#800,#801,#802);
#800 = CARTESIAN_POINT('',(-74.25536400562,46.964546,11.));
#801 = DIRECTION('',(0.,0.707106781187,-0.707106781187));
#802 = DIRECTION('',(0.,-0.707106781187,-0.707106781187));
#803 = ORIENTED_EDGE('',*,*,#804,.F.);
#804 = EDGE_CURVE('',#544,#796,#805,.T.);
#805 = ELLIPSE('',#806,1.697056274848,1.2);
#806 = AXIS2_PLACEMENT_3D('',#807,#808,#809);
#807 = CARTESIAN_POINT('',(-74.25536400562,46.964546,11.));
#808 = DIRECTION('',(0.,0.707106781187,-0.707106781187));
#809 = DIRECTION('',(0.,-0.707106781187,-0.707106781187));
#810 = ORIENTED_EDGE('',*,*,#787,.F.);
#811 = CYLINDRICAL_SURFACE('',#812,1.2);
#812 = AXIS2_PLACEMENT_3D('',#813,#814,#815);
#813 = CARTESIAN_POINT('',(-74.25536400562,46.964546,0.));
#814 = DIRECTION('',(-0.,-0.,-1.));
#815 = DIRECTION('',(1.,0.,0.));
#816 = ADVANCED_FACE('',(#817),#842,.F.);
#817 = FACE_BOUND('',#818,.F.);
#818 = EDGE_LOOP('',(#819,#820,#828,#836));
#819 = ORIENTED_EDGE('',*,*,#345,.F.);
#820 = ORIENTED_EDGE('',*,*,#821,.T.);
#821 = EDGE_CURVE('',#346,#822,#824,.T.);
#822 = VERTEX_POINT('',#823);
#823 = CARTESIAN_POINT('',(-70.25536400562,23.964545999987,
    20.999999999998));
#824 = LINE('',#825,#826);
#825 = CARTESIAN_POINT('',(-78.25536400562,23.964545999987,
    20.999999999998));
#826 = VECTOR('',#827,1.);
#827 = DIRECTION('',(1.,0.,0.));
#828 = ORIENTED_EDGE('',*,*,#829,.T.);
#829 = EDGE_CURVE('',#822,#830,#832,.T.);
#830 = VERTEX_POINT('',#831);
#831 = CARTESIAN_POINT('',(-70.25536400562,37.964545999987,
    20.999999999998));
#832 = LINE('',#833,#834);
#833 = CARTESIAN_POINT('',(-70.25536400562,19.464545999994,
    20.999999999998));
#834 = VECTOR('',#835,1.);
#835 = DIRECTION('',(0.,1.,0.));
#836 = ORIENTED_EDGE('',*,*,#837,.F.);
#837 = EDGE_CURVE('',#348,#830,#838,.T.);
#838 = LINE('',#839,#840);
#839 = CARTESIAN_POINT('',(-78.25536400562,37.964545999987,
    20.999999999998));
#840 = VECTOR('',#841,1.);
#841 = DIRECTION('',(1.,0.,0.));
#842 = PLANE('',#843);
#843 = AXIS2_PLACEMENT_3D('',#844,#845,#846);
#844 = CARTESIAN_POINT('',(-78.25536400562,23.964545999987,
    20.999999999998));
#845 = DIRECTION('',(0.,0.,1.));
#846 = DIRECTION('',(0.,1.,0.));
#847 = ADVANCED_FACE('',(#848),#864,.F.);
#848 = FACE_BOUND('',#849,.F.);
#849 = EDGE_LOOP('',(#850,#851,#857,#863));
#850 = ORIENTED_EDGE('',*,*,#371,.F.);
#851 = ORIENTED_EDGE('',*,*,#852,.T.);
#852 = EDGE_CURVE('',#364,#606,#853,.T.);
#853 = LINE('',#854,#855);
#854 = CARTESIAN_POINT('',(-78.25536400562,23.964545999987,
    5.999999999998));
#855 = VECTOR('',#856,1.);
#856 = DIRECTION('',(1.,0.,0.));
#857 = ORIENTED_EDGE('',*,*,#858,.T.);
#858 = EDGE_CURVE('',#606,#822,#859,.T.);
#859 = LINE('',#860,#861);
#860 = CARTESIAN_POINT('',(-70.25536400562,23.964545999987,
    2.999999999999));
#861 = VECTOR('',#862,1.);
#862 = DIRECTION('',(0.,0.,1.));
#863 = ORIENTED_EDGE('',*,*,#821,.F.);
#864 = PLANE('',#865);
#865 = AXIS2_PLACEMENT_3D('',#866,#867,#868);
#866 = CARTESIAN_POINT('',(-78.25536400562,23.964545999987,
    5.999999999998));
#867 = DIRECTION('',(0.,-1.,0.));
#868 = DIRECTION('',(0.,0.,1.));
#869 = ADVANCED_FACE('',(#870),#881,.F.);
#870 = FACE_BOUND('',#871,.F.);
#871 = EDGE_LOOP('',(#872,#873,#879,#880));
#872 = ORIENTED_EDGE('',*,*,#363,.F.);
#873 = ORIENTED_EDGE('',*,*,#874,.T.);
#874 = EDGE_CURVE('',#356,#614,#875,.T.);
#875 = LINE('',#876,#877);
#876 = CARTESIAN_POINT('',(-78.25536400562,37.964545999987,
    5.999999999998));
#877 = VECTOR('',#878,1.);
#878 = DIRECTION('',(1.,0.,0.));
#879 = ORIENTED_EDGE('',*,*,#613,.T.);
#880 = ORIENTED_EDGE('',*,*,#852,.F.);
#881 = PLANE('',#882);
#882 = AXIS2_PLACEMENT_3D('',#883,#884,#885);
#883 = CARTESIAN_POINT('',(-78.25536400562,37.964545999987,
    5.999999999998));
#884 = DIRECTION('',(0.,0.,-1.));
#885 = DIRECTION('',(0.,-1.,0.));
#886 = ADVANCED_FACE('',(#887),#898,.F.);
#887 = FACE_BOUND('',#888,.F.);
#888 = EDGE_LOOP('',(#889,#890,#891,#897));
#889 = ORIENTED_EDGE('',*,*,#355,.F.);
#890 = ORIENTED_EDGE('',*,*,#837,.T.);
#891 = ORIENTED_EDGE('',*,*,#892,.T.);
#892 = EDGE_CURVE('',#830,#614,#893,.T.);
#893 = LINE('',#894,#895);
#894 = CARTESIAN_POINT('',(-70.25536400562,37.964545999987,
    10.499999999999));
#895 = VECTOR('',#896,1.);
#896 = DIRECTION('',(0.,0.,-1.));
#897 = ORIENTED_EDGE('',*,*,#874,.F.);
#898 = PLANE('',#899);
#899 = AXIS2_PLACEMENT_3D('',#900,#901,#902);
#900 = CARTESIAN_POINT('',(-78.25536400562,37.964545999987,
    20.999999999998));
#901 = DIRECTION('',(0.,1.,0.));
#902 = DIRECTION('',(0.,0.,-1.));
#903 = ADVANCED_FACE('',(#904),#922,.F.);
#904 = FACE_BOUND('',#905,.F.);
#905 = EDGE_LOOP('',(#906,#912,#913,#914,#915,#921));
#906 = ORIENTED_EDGE('',*,*,#907,.T.);
#907 = EDGE_CURVE('',#822,#639,#908,.T.);
#908 = LINE('',#909,#910);
#909 = CARTESIAN_POINT('',(-70.25536400562,54.964546,21.));
#910 = VECTOR('',#911,1.);
#911 = DIRECTION('',(0.,-1.,2.2E-16));
#912 = ORIENTED_EDGE('',*,*,#638,.T.);
#913 = ORIENTED_EDGE('',*,*,#419,.T.);
#914 = ORIENTED_EDGE('',*,*,#475,.F.);
#915 = ORIENTED_EDGE('',*,*,#916,.T.);
#916 = EDGE_CURVE('',#388,#830,#917,.T.);
#917 = LINE('',#918,#919);
#918 = CARTESIAN_POINT('',(-70.25536400562,54.964546,21.));
#919 = VECTOR('',#920,1.);
#920 = DIRECTION('',(0.,-1.,2.2E-16));
#921 = ORIENTED_EDGE('',*,*,#829,.F.);
#922 = PLANE('',#923);
#923 = AXIS2_PLACEMENT_3D('',#924,#925,#926);
#924 = CARTESIAN_POINT('',(-70.25536400562,14.964546,0.));
#925 = DIRECTION('',(-1.,0.,0.));
#926 = DIRECTION('',(0.,1.,0.));
#927 = ADVANCED_FACE('',(#928),#946,.F.);
#928 = FACE_BOUND('',#929,.T.);
#929 = EDGE_LOOP('',(#930,#931,#937,#938,#939));
#930 = ORIENTED_EDGE('',*,*,#500,.T.);
#931 = ORIENTED_EDGE('',*,*,#932,.T.);
#932 = EDGE_CURVE('',#501,#458,#933,.T.);
#933 = LINE('',#934,#935);
#934 = CARTESIAN_POINT('',(-73.05536400562,46.964546,0.));
#935 = VECTOR('',#936,1.);
#936 = DIRECTION('',(0.,0.,1.));
#937 = ORIENTED_EDGE('',*,*,#457,.T.);
#938 = ORIENTED_EDGE('',*,*,#932,.F.);
#939 = ORIENTED_EDGE('',*,*,#940,.T.);
#940 = EDGE_CURVE('',#501,#493,#941,.T.);
#941 = ELLIPSE('',#942,1.697056274848,1.2);
#942 = AXIS2_PLACEMENT_3D('',#943,#944,#945);
#943 = CARTESIAN_POINT('',(-74.25536400562,46.964546,16.));
#944 = DIRECTION('',(0.,-0.707106781187,-0.707106781187));
#945 = DIRECTION('',(0.,0.707106781187,-0.707106781187));
#946 = CYLINDRICAL_SURFACE('',#947,1.2);
#947 = AXIS2_PLACEMENT_3D('',#948,#949,#950);
#948 = CARTESIAN_POINT('',(-74.25536400562,46.964546,0.));
#949 = DIRECTION('',(-0.,-0.,-1.));
#950 = DIRECTION('',(1.,0.,0.));
#951 = ADVANCED_FACE('',(#952),#987,.F.);
#952 = FACE_BOUND('',#953,.T.);
#953 = EDGE_LOOP('',(#954,#955,#961,#962,#963,#972,#979,#980));
#954 = ORIENTED_EDGE('',*,*,#543,.T.);
#955 = ORIENTED_EDGE('',*,*,#956,.T.);
#956 = EDGE_CURVE('',#544,#501,#957,.T.);
#957 = LINE('',#958,#959);
#958 = CARTESIAN_POINT('',(-73.05536400562,46.964546,0.));
#959 = VECTOR('',#960,1.);
#960 = DIRECTION('',(0.,0.,1.));
#961 = ORIENTED_EDGE('',*,*,#509,.F.);
#962 = ORIENTED_EDGE('',*,*,#518,.F.);
#963 = ORIENTED_EDGE('',*,*,#964,.F.);
#964 = EDGE_CURVE('',#965,#493,#967,.T.);
#965 = VERTEX_POINT('',#966);
#966 = CARTESIAN_POINT('',(-74.25536400562,45.764546,14.8));
#967 = ELLIPSE('',#968,1.697056274848,1.2);
#968 = AXIS2_PLACEMENT_3D('',#969,#970,#971);
#969 = CARTESIAN_POINT('',(-74.25536400562,46.964546,16.));
#970 = DIRECTION('',(0.,0.707106781187,-0.707106781187));
#971 = DIRECTION('',(0.,-0.707106781187,-0.707106781187));
#972 = ORIENTED_EDGE('',*,*,#973,.F.);
#973 = EDGE_CURVE('',#501,#965,#974,.T.);
#974 = ELLIPSE('',#975,1.697056274848,1.2);
#975 = AXIS2_PLACEMENT_3D('',#976,#977,#978);
#976 = CARTESIAN_POINT('',(-74.25536400562,46.964546,16.));
#977 = DIRECTION('',(0.,0.707106781187,-0.707106781187));
#978 = DIRECTION('',(0.,-0.707106781187,-0.707106781187));
#979 = ORIENTED_EDGE('',*,*,#956,.F.);
#980 = ORIENTED_EDGE('',*,*,#981,.T.);
#981 = EDGE_CURVE('',#544,#536,#982,.T.);
#982 = ELLIPSE('',#983,1.697056274848,1.2);
#983 = AXIS2_PLACEMENT_3D('',#984,#985,#986);
#984 = CARTESIAN_POINT('',(-74.25536400562,46.964546,11.));
#985 = DIRECTION('',(0.,-0.707106781187,-0.707106781187));
#986 = DIRECTION('',(0.,0.707106781187,-0.707106781187));
#987 = CYLINDRICAL_SURFACE('',#988,1.2);
#988 = AXIS2_PLACEMENT_3D('',#989,#990,#991);
#989 = CARTESIAN_POINT('',(-74.25536400562,46.964546,0.));
#990 = DIRECTION('',(-0.,-0.,-1.));
#991 = DIRECTION('',(1.,0.,0.));
#992 = ADVANCED_FACE('',(#993),#999,.F.);
#993 = FACE_BOUND('',#994,.F.);
#994 = EDGE_LOOP('',(#995,#996,#997,#998));
#995 = ORIENTED_EDGE('',*,*,#578,.F.);
#996 = ORIENTED_EDGE('',*,*,#621,.T.);
#997 = ORIENTED_EDGE('',*,*,#892,.F.);
#998 = ORIENTED_EDGE('',*,*,#916,.F.);
#999 = PLANE('',#1000);
#1000 = AXIS2_PLACEMENT_3D('',#1001,#1002,#1003);
#1001 = CARTESIAN_POINT('',(-70.25536400562,14.964546,0.));
#1002 = DIRECTION('',(-1.,0.,0.));
#1003 = DIRECTION('',(0.,1.,0.));
#1004 = ADVANCED_FACE('',(#1005),#1011,.F.);
#1005 = FACE_BOUND('',#1006,.F.);
#1006 = EDGE_LOOP('',(#1007,#1008,#1009,#1010));
#1007 = ORIENTED_EDGE('',*,*,#605,.T.);
#1008 = ORIENTED_EDGE('',*,*,#646,.T.);
#1009 = ORIENTED_EDGE('',*,*,#907,.F.);
#1010 = ORIENTED_EDGE('',*,*,#858,.F.);
#1011 = PLANE('',#1012);
#1012 = AXIS2_PLACEMENT_3D('',#1013,#1014,#1015);
#1013 = CARTESIAN_POINT('',(-70.25536400562,14.964546,0.));
#1014 = DIRECTION('',(-1.,0.,0.));
#1015 = DIRECTION('',(0.,1.,0.));
#1016 = ADVANCED_FACE('',(#1017),#1036,.T.);
#1017 = FACE_BOUND('',#1018,.T.);
#1018 = EDGE_LOOP('',(#1019,#1028,#1035));
#1019 = ORIENTED_EDGE('',*,*,#1020,.T.);
#1020 = EDGE_CURVE('',#693,#1021,#1023,.T.);
#1021 = VERTEX_POINT('',#1022);
#1022 = CARTESIAN_POINT('',(-75.45536400562,41.964546,16.));
#1023 = CIRCLE('',#1024,1.2);
#1024 = AXIS2_PLACEMENT_3D('',#1025,#1026,#1027);
#1025 = CARTESIAN_POINT('',(-74.25536400562,41.964546,16.));
#1026 = DIRECTION('',(0.,1.,-0.));
#1027 = DIRECTION('',(-1.,0.,0.));
#1028 = ORIENTED_EDGE('',*,*,#1029,.T.);
#1029 = EDGE_CURVE('',#1021,#691,#1030,.T.);
#1030 = CIRCLE('',#1031,1.2);
#1031 = AXIS2_PLACEMENT_3D('',#1032,#1033,#1034);
#1032 = CARTESIAN_POINT('',(-74.25536400562,41.964546,16.));
#1033 = DIRECTION('',(0.,1.,-0.));
#1034 = DIRECTION('',(-1.,0.,0.));
#1035 = ORIENTED_EDGE('',*,*,#690,.T.);
#1036 = PLANE('',#1037);
#1037 = AXIS2_PLACEMENT_3D('',#1038,#1039,#1040);
#1038 = CARTESIAN_POINT('',(-74.25536400562,41.964546,13.5));
#1039 = DIRECTION('',(9.9E-16,1.,-1.03E-15));
#1040 = DIRECTION('',(0.,1.03E-15,1.));
#1041 = ADVANCED_FACE('',(#1042),#1066,.F.);
#1042 = FACE_BOUND('',#1043,.F.);
#1043 = EDGE_LOOP('',(#1044,#1045,#1051,#1052,#1053,#1060,#1061,#1062,
    #1063,#1064,#1065));
#1044 = ORIENTED_EDGE('',*,*,#940,.T.);
#1045 = ORIENTED_EDGE('',*,*,#1046,.T.);
#1046 = EDGE_CURVE('',#493,#1021,#1047,.T.);
#1047 = LINE('',#1048,#1049);
#1048 = CARTESIAN_POINT('',(-75.45536400562,54.964546,16.));
#1049 = VECTOR('',#1050,1.);
#1050 = DIRECTION('',(0.,-1.,2.2E-16));
#1051 = ORIENTED_EDGE('',*,*,#1029,.T.);
#1052 = ORIENTED_EDGE('',*,*,#700,.T.);
#1053 = ORIENTED_EDGE('',*,*,#1054,.T.);
#1054 = EDGE_CURVE('',#701,#710,#1055,.T.);
#1055 = CIRCLE('',#1056,1.2);
#1056 = AXIS2_PLACEMENT_3D('',#1057,#1058,#1059);
#1057 = CARTESIAN_POINT('',(-74.25536400562,41.964546,16.));
#1058 = DIRECTION('',(0.,1.,-0.));
#1059 = DIRECTION('',(-1.,0.,0.));
#1060 = ORIENTED_EDGE('',*,*,#717,.F.);
#1061 = ORIENTED_EDGE('',*,*,#726,.F.);
#1062 = ORIENTED_EDGE('',*,*,#1020,.T.);
#1063 = ORIENTED_EDGE('',*,*,#1046,.F.);
#1064 = ORIENTED_EDGE('',*,*,#964,.F.);
#1065 = ORIENTED_EDGE('',*,*,#973,.F.);
#1066 = CYLINDRICAL_SURFACE('',#1067,1.2);
#1067 = AXIS2_PLACEMENT_3D('',#1068,#1069,#1070);
#1068 = CARTESIAN_POINT('',(-74.25536400562,54.964546,16.));
#1069 = DIRECTION('',(0.,1.,-2.2E-16));
#1070 = DIRECTION('',(-1.,0.,0.));
#1071 = ADVANCED_FACE('',(#1072),#1076,.T.);
#1072 = FACE_BOUND('',#1073,.T.);
#1073 = EDGE_LOOP('',(#1074,#1075));
#1074 = ORIENTED_EDGE('',*,*,#709,.F.);
#1075 = ORIENTED_EDGE('',*,*,#1054,.T.);
#1076 = PLANE('',#1077);
#1077 = AXIS2_PLACEMENT_3D('',#1078,#1079,#1080);
#1078 = CARTESIAN_POINT('',(-74.25536400562,41.964546,13.5));
#1079 = DIRECTION('',(9.9E-16,1.,-1.03E-15));
#1080 = DIRECTION('',(0.,1.03E-15,1.));
#1081 = ADVANCED_FACE('',(#1082),#1101,.T.);
#1082 = FACE_BOUND('',#1083,.T.);
#1083 = EDGE_LOOP('',(#1084,#1093,#1100));
#1084 = ORIENTED_EDGE('',*,*,#1085,.T.);
#1085 = EDGE_CURVE('',#738,#1086,#1088,.T.);
#1086 = VERTEX_POINT('',#1087);
#1087 = CARTESIAN_POINT('',(-75.45536400562,41.964546,11.));
#1088 = CIRCLE('',#1089,1.2);
#1089 = AXIS2_PLACEMENT_3D('',#1090,#1091,#1092);
#1090 = CARTESIAN_POINT('',(-74.25536400562,41.964546,11.));
#1091 = DIRECTION('',(0.,1.,-0.));
#1092 = DIRECTION('',(-1.,0.,0.));
#1093 = ORIENTED_EDGE('',*,*,#1094,.T.);
#1094 = EDGE_CURVE('',#1086,#736,#1095,.T.);
#1095 = CIRCLE('',#1096,1.2);
#1096 = AXIS2_PLACEMENT_3D('',#1097,#1098,#1099);
#1097 = CARTESIAN_POINT('',(-74.25536400562,41.964546,11.));
#1098 = DIRECTION('',(0.,1.,-0.));
#1099 = DIRECTION('',(-1.,0.,0.));
#1100 = ORIENTED_EDGE('',*,*,#735,.T.);
#1101 = PLANE('',#1102);
#1102 = AXIS2_PLACEMENT_3D('',#1103,#1104,#1105);
#1103 = CARTESIAN_POINT('',(-74.25536400562,41.964546,13.5));
#1104 = DIRECTION('',(9.9E-16,1.,-1.03E-15));
#1105 = DIRECTION('',(0.,1.03E-15,1.));
#1106 = ADVANCED_FACE('',(#1107),#1131,.F.);
#1107 = FACE_BOUND('',#1108,.F.);
#1108 = EDGE_LOOP('',(#1109,#1110,#1116,#1117,#1118,#1125,#1126,#1127,
    #1128,#1129,#1130));
#1109 = ORIENTED_EDGE('',*,*,#981,.T.);
#1110 = ORIENTED_EDGE('',*,*,#1111,.T.);
#1111 = EDGE_CURVE('',#536,#1086,#1112,.T.);
#1112 = LINE('',#1113,#1114);
#1113 = CARTESIAN_POINT('',(-75.45536400562,54.964546,11.));
#1114 = VECTOR('',#1115,1.);
#1115 = DIRECTION('',(0.,-1.,2.2E-16));
#1116 = ORIENTED_EDGE('',*,*,#1094,.T.);
#1117 = ORIENTED_EDGE('',*,*,#745,.T.);
#1118 = ORIENTED_EDGE('',*,*,#1119,.T.);
#1119 = EDGE_CURVE('',#746,#755,#1120,.T.);
#1120 = CIRCLE('',#1121,1.2);
#1121 = AXIS2_PLACEMENT_3D('',#1122,#1123,#1124);
#1122 = CARTESIAN_POINT('',(-74.25536400562,41.964546,11.));
#1123 = DIRECTION('',(0.,1.,-0.));
#1124 = DIRECTION('',(-1.,0.,0.));
#1125 = ORIENTED_EDGE('',*,*,#762,.F.);
#1126 = ORIENTED_EDGE('',*,*,#771,.F.);
#1127 = ORIENTED_EDGE('',*,*,#1085,.T.);
#1128 = ORIENTED_EDGE('',*,*,#1111,.F.);
#1129 = ORIENTED_EDGE('',*,*,#795,.F.);
#1130 = ORIENTED_EDGE('',*,*,#804,.F.);
#1131 = CYLINDRICAL_SURFACE('',#1132,1.2);
#1132 = AXIS2_PLACEMENT_3D('',#1133,#1134,#1135);
#1133 = CARTESIAN_POINT('',(-74.25536400562,54.964546,11.));
#1134 = DIRECTION('',(0.,1.,-2.2E-16));
#1135 = DIRECTION('',(-1.,0.,0.));
#1136 = ADVANCED_FACE('',(#1137),#1141,.T.);
#1137 = FACE_BOUND('',#1138,.T.);
#1138 = EDGE_LOOP('',(#1139,#1140));
#1139 = ORIENTED_EDGE('',*,*,#754,.F.);
#1140 = ORIENTED_EDGE('',*,*,#1119,.T.);
#1141 = PLANE('',#1142);
#1142 = AXIS2_PLACEMENT_3D('',#1143,#1144,#1145);
#1143 = CARTESIAN_POINT('',(-74.25536400562,41.964546,13.5));
#1144 = DIRECTION('',(9.9E-16,1.,-1.03E-15));
#1145 = DIRECTION('',(0.,1.03E-15,1.));
#1146 = ( GEOMETRIC_REPRESENTATION_CONTEXT(3) 
GLOBAL_UNCERTAINTY_ASSIGNED_CONTEXT((#1150)) 
GLOBAL_UNIT_ASSIGNED_CONTEXT((#1147,#1148,#1149)) REPRESENTATION_CONTEXT
('Context #1','3D Context with UNIT and UNCERTAINTY') );
#1147 = ( LENGTH_UNIT() NAMED_UNIT(*) SI_UNIT(.MILLI.,.METRE.) );
#1148 = ( NAMED_UNIT(*) PLANE_ANGLE_UNIT() SI_UNIT($,.RADIAN.) );
#1149 = ( NAMED_UNIT(*) SI_UNIT($,.STERADIAN.) SOLID_ANGLE_UNIT() );
#1150 = UNCERTAINTY_MEASURE_WITH_UNIT(LENGTH_MEASURE(1.E-05),#1147,
  'distance_accuracy_value','confusion accuracy');
#1151 = PRODUCT_RELATED_PRODUCT_CATEGORY('part',$,(#7));
ENDSEC;
END-ISO-10303-21;
