ISO-10303-21;
HEADER;
FILE_DESCRIPTION(('FreeCAD Model'),'2;1');
FILE_NAME('Open CASCADE Shape Model','2026-08-28T13:04:06',('FreeCAD'),(
    'FreeCAD'),'Open CASCADE STEP processor 7.8','FreeCAD','Unknown');
FILE_SCHEMA(('AUTOMOTIVE_DESIGN { 1 0 10303 214 1 1 1 1 }'));
ENDSEC;
DATA;
#1 = APPLICATION_PROTOCOL_DEFINITION('international standard',
  'automotive_design',2000,#2);
#2 = APPLICATION_CONTEXT(
  'core data for automotive mechanical design processes');
#3 = SHAPE_DEFINITION_REPRESENTATION(#4,#10);
#4 = PRODUCT_DEFINITION_SHAPE('','',#5);
#5 = PRODUCT_DEFINITION('design','',#6,#9);
#6 = PRODUCT_DEFINITION_FORMATION('','',#7);
#7 = PRODUCT('Open CASCADE STEP translator 7.8 76',
  'Open CASCADE STEP translator 7.8 76','',(#8));
#8 = PRODUCT_CONTEXT('',#2,'mechanical');
#9 = PRODUCT_DEFINITION_CONTEXT('part definition',#2,'design');
#10 = ADVANCED_BREP_SHAPE_REPRESENTATION('',(#11,#15),#391);
#11 = AXIS2_PLACEMENT_3D('',#12,#13,#14);
#12 = CARTESIAN_POINT('',(0.,0.,0.));
#13 = DIRECTION('',(0.,0.,1.));
#14 = DIRECTION('',(1.,0.,-0.));
#15 = MANIFOLD_SOLID_BREP('',#16);
#16 = CLOSED_SHELL('',(#17,#260,#286,#306,#331,#348,#357,#382));
#17 = ADVANCED_FACE('',(#18,#45,#150),#255,.T.);
#18 = FACE_BOUND('',#19,.F.);
#19 = EDGE_LOOP('',(#20,#30,#37,#38));
#20 = ORIENTED_EDGE('',*,*,#21,.F.);
#21 = EDGE_CURVE('',#22,#24,#26,.T.);
#22 = VERTEX_POINT('',#23);
#23 = CARTESIAN_POINT('',(3.75,0.,0.));
#24 = VERTEX_POINT('',#25);
#25 = CARTESIAN_POINT('',(3.75,0.,7.));
#26 = LINE('',#27,#28);
#27 = CARTESIAN_POINT('',(3.75,0.,0.));
#28 = VECTOR('',#29,1.);
#29 = DIRECTION('',(0.,0.,1.));
#30 = ORIENTED_EDGE('',*,*,#31,.F.);
#31 = EDGE_CURVE('',#22,#22,#32,.T.);
#32 = CIRCLE('',#33,3.75);
#33 = AXIS2_PLACEMENT_3D('',#34,#35,#36);
#34 = CARTESIAN_POINT('',(0.,0.,0.));
#35 = DIRECTION('',(0.,0.,1.));
#36 = DIRECTION('',(1.,0.,0.));
#37 = ORIENTED_EDGE('',*,*,#21,.T.);
#38 = ORIENTED_EDGE('',*,*,#39,.T.);
#39 = EDGE_CURVE('',#24,#24,#40,.T.);
#40 = CIRCLE('',#41,3.75);
#41 = AXIS2_PLACEMENT_3D('',#42,#43,#44);
#42 = CARTESIAN_POINT('',(0.,0.,7.));
#43 = DIRECTION('',(0.,0.,1.));
#44 = DIRECTION('',(1.,0.,0.));
#45 = FACE_BOUND('',#46,.F.);
#46 = EDGE_LOOP('',(#47));
#47 = ORIENTED_EDGE('',*,*,#48,.F.);
#48 = EDGE_CURVE('',#49,#49,#51,.T.);
#49 = VERTEX_POINT('',#50);
#50 = CARTESIAN_POINT('',(1.25,3.535533905933,5.));
#51 = B_SPLINE_CURVE_WITH_KNOTS('',7,(#52,#53,#54,#55,#56,#57,#58,#59,
    #60,#61,#62,#63,#64,#65,#66,#67,#68,#69,#70,#71,#72,#73,#74,#75,#76,
    #77,#78,#79,#80,#81,#82,#83,#84,#85,#86,#87,#88,#89,#90,#91,#92,#93,
    #94,#95,#96,#97,#98,#99,#100,#101,#102,#103,#104,#105,#106,#107,#108
    ,#109,#110,#111,#112,#113,#114,#115,#116,#117,#118,#119,#120,#121,
    #122,#123,#124,#125,#126,#127,#128,#129,#130,#131,#132,#133,#134,
    #135,#136,#137,#138,#139,#140,#141,#142,#143,#144,#145,#146,#147,
    #148,#149),.UNSPECIFIED.,.T.,.F.,(8,6,6,6,6,6,6,6,6,6,6,6,6,6,6,6,8)
  ,(0.,0.138142551172,0.172086472424,0.216406107522,0.249648437055,
    0.298753335275,0.360769578949,0.409467838787,0.499690547839,
    0.569140067922,0.609898805816,0.672098218087,0.716464694896,
    0.749742158454,0.798898955949,0.860980744978,1.),.UNSPECIFIED.);
#52 = CARTESIAN_POINT('',(1.25,3.535533905933,5.));
#53 = CARTESIAN_POINT('',(1.25,3.535533905933,5.14156942417));
#54 = CARTESIAN_POINT('',(1.231294395475,3.542147354735,5.282894887696)
  );
#55 = CARTESIAN_POINT('',(1.193997978523,3.555333493666,5.422021094119)
  );
#56 = CARTESIAN_POINT('',(1.138017665371,3.574424670543,5.556912377662)
  );
#57 = CARTESIAN_POINT('',(1.063183481524,3.598098636064,5.685237547991)
  );
#58 = CARTESIAN_POINT('',(0.969375440397,3.624387099524,5.804185428553)
  );
#59 = CARTESIAN_POINT('',(0.829141823985,3.657298334478,5.936198171254)
  );
#60 = CARTESIAN_POINT('',(0.800341269082,3.663799517612,5.961460454734)
  );
#61 = CARTESIAN_POINT('',(0.770410586379,3.670271631739,5.985884618519)
  );
#62 = CARTESIAN_POINT('',(0.739361954527,3.676674203695,6.009408183034)
  );
#63 = CARTESIAN_POINT('',(0.707210427999,3.682965234001,6.031967074858)
  );
#64 = CARTESIAN_POINT('',(0.673974090884,3.689101606783,6.053495518888)
  );
#65 = CARTESIAN_POINT('',(0.594889809879,3.702792441491,6.100601351416)
  );
#66 = CARTESIAN_POINT('',(0.548254494954,3.710213599696,6.125427302351)
  );
#67 = CARTESIAN_POINT('',(0.499881576552,3.71719195175,6.148205365147));
#68 = CARTESIAN_POINT('',(0.449900093653,3.723619203377,6.168754464031)
  );
#69 = CARTESIAN_POINT('',(0.398453677004,3.729393452226,6.186910153482)
  );
#70 = CARTESIAN_POINT('',(0.345699412542,3.73442285154,6.202523906104));
#71 = CARTESIAN_POINT('',(0.251384008525,3.741784337594,6.225167031262)
  );
#72 = CARTESIAN_POINT('',(0.210340298272,3.744474899667,6.233361929134)
  );
#73 = CARTESIAN_POINT('',(0.168792269709,3.746665169629,6.239983076413)
  );
#74 = CARTESIAN_POINT('',(0.126860324657,3.748327379387,6.24498224818));
#75 = CARTESIAN_POINT('',(8.466759009307E-02,3.749442340248,
    6.24832689073));
#76 = CARTESIAN_POINT('',(4.233893713077E-02,3.75,6.25));
#77 = CARTESIAN_POINT('',(-6.254222335871E-02,3.75,6.25));
#78 = CARTESIAN_POINT('',(-0.12501872434,3.748783371844,6.24634897346));
#79 = CARTESIAN_POINT('',(-0.187049195519,3.746353592991,6.239061752127)
  );
#80 = CARTESIAN_POINT('',(-0.248258752124,3.742758558784,6.228216903569)
  );
#81 = CARTESIAN_POINT('',(-0.30828402602,3.738085406344,6.213957809922)
  );
#82 = CARTESIAN_POINT('',(-0.366779259709,3.732455338459,6.196493746629)
  );
#83 = CARTESIAN_POINT('',(-0.494958946294,3.717889079239,6.150346219881)
  );
#84 = CARTESIAN_POINT('',(-0.563528614234,3.708473724969,6.119925162243)
  );
#85 = CARTESIAN_POINT('',(-0.628865045613,3.69803046688,6.085262540079)
  );
#86 = CARTESIAN_POINT('',(-0.690746506608,3.686833612794,6.046781866097)
  );
#87 = CARTESIAN_POINT('',(-0.748994904374,3.675161015671,6.004908012097)
  );
#88 = CARTESIAN_POINT('',(-0.80347480333,3.663281393135,5.960069807161)
  );
#89 = CARTESIAN_POINT('',(-0.893839945454,3.642144485492,5.875507561114)
  );
#90 = CARTESIAN_POINT('',(-0.931256806196,3.632860058153,5.83670565883)
  );
#91 = CARTESIAN_POINT('',(-0.96633601307,3.623696766387,5.796454380317)
  );
#92 = CARTESIAN_POINT('',(-0.999075223866,3.614754857379,5.75489940971)
  );
#93 = CARTESIAN_POINT('',(-1.029475767337,3.606125891735,5.712175238572)
  );
#94 = CARTESIAN_POINT('',(-1.057541645767,3.597892211114,5.668405740537)
  );
#95 = CARTESIAN_POINT('',(-1.130960982569,3.575738787305,5.540887724497)
  );
#96 = CARTESIAN_POINT('',(-1.17067188677,3.562950366876,5.454833741988)
  );
#97 = CARTESIAN_POINT('',(-1.202413402411,3.552232111649,5.366293287915)
  );
#98 = CARTESIAN_POINT('',(-1.226204438682,3.543946875836,5.275937207947)
  );
#99 = CARTESIAN_POINT('',(-1.242064169105,3.538339656252,5.184381269937)
  );
#100 = CARTESIAN_POINT('',(-1.25,3.535533905933,5.092210030195));
#101 = CARTESIAN_POINT('',(-1.25,3.535533905933,4.929020726476));
#102 = CARTESIAN_POINT('',(-1.245298093965,3.53719615663,4.858055778984)
  );
#103 = CARTESIAN_POINT('',(-1.235896622279,3.540520310618,4.787369149567
    ));
#104 = CARTESIAN_POINT('',(-1.221793813374,3.545462084637,4.717232676837
    ));
#105 = CARTESIAN_POINT('',(-1.202985507853,3.551934427559,4.647928383397
    ));
#106 = CARTESIAN_POINT('',(-1.179466882609,3.559808688371,4.579750813258
    ));
#107 = CARTESIAN_POINT('',(-1.134664880725,3.574260583231,4.473839954982
    ));
#108 = CARTESIAN_POINT('',(-1.116471002489,3.580030340099,4.435163255542
    ));
#109 = CARTESIAN_POINT('',(-1.096649658721,3.586191645882,4.397038357949
    ));
#110 = CARTESIAN_POINT('',(-1.075197775473,3.592706404055,4.359528182897
    ));
#111 = CARTESIAN_POINT('',(-1.052112379668,3.599531945802,4.322699698964
    ));
#112 = CARTESIAN_POINT('',(-1.027390892406,3.606621145361,4.286624136809
    ));
#113 = CARTESIAN_POINT('',(-0.960805850162,3.625064739236,4.197589018135
    ));
#114 = CARTESIAN_POINT('',(-0.916740742938,3.636707869567,4.145696915434
    ));
#115 = CARTESIAN_POINT('',(-0.868840305099,3.648665378867,4.096001762784
    ));
#116 = CARTESIAN_POINT('',(-0.817126558083,3.660722680246,4.048827916869
    ));
#117 = CARTESIAN_POINT('',(-0.761643210753,3.672642510397,4.004525316193
    ));
#118 = CARTESIAN_POINT('',(-0.702459529892,3.684170292594,3.963471573717
    ));
#119 = CARTESIAN_POINT('',(-0.594889809889,3.702792441489,3.89939864859)
  );
#120 = CARTESIAN_POINT('',(-0.548254494955,3.710213599696,3.874572697648
    ));
#121 = CARTESIAN_POINT('',(-0.499881576542,3.717191951752,3.851794634848
    ));
#122 = CARTESIAN_POINT('',(-0.449900093643,3.723619203378,3.831245535966
    ));
#123 = CARTESIAN_POINT('',(-0.398453677006,3.729393452226,3.813089846519
    ));
#124 = CARTESIAN_POINT('',(-0.345699412555,3.734422851539,3.797476093899
    ));
#125 = CARTESIAN_POINT('',(-0.251384008525,3.741784337594,3.774832968738
    ));
#126 = CARTESIAN_POINT('',(-0.210340298272,3.744474899667,3.766638070866
    ));
#127 = CARTESIAN_POINT('',(-0.168792269709,3.746665169629,3.760016923587
    ));
#128 = CARTESIAN_POINT('',(-0.126860324657,3.748327379387,3.75501775182)
  );
#129 = CARTESIAN_POINT('',(-8.466759009307E-02,3.749442340248,
    3.75167310927));
#130 = CARTESIAN_POINT('',(-4.23389371308E-02,3.75,3.75));
#131 = CARTESIAN_POINT('',(6.254222335871E-02,3.75,3.75));
#132 = CARTESIAN_POINT('',(0.12501872434,3.748783371844,3.75365102654));
#133 = CARTESIAN_POINT('',(0.187049195519,3.746353592991,3.760938247873)
  );
#134 = CARTESIAN_POINT('',(0.248258752124,3.742758558784,3.771783096431)
  );
#135 = CARTESIAN_POINT('',(0.30828402602,3.738085406344,3.786042190078)
  );
#136 = CARTESIAN_POINT('',(0.366779259709,3.732455338459,3.803506253371)
  );
#137 = CARTESIAN_POINT('',(0.494958946294,3.717889079239,3.849653780118)
  );
#138 = CARTESIAN_POINT('',(0.563528614234,3.708473724969,3.880074837757)
  );
#139 = CARTESIAN_POINT('',(0.628865045613,3.69803046688,3.914737459921)
  );
#140 = CARTESIAN_POINT('',(0.690746506608,3.686833612794,3.953218133903)
  );
#141 = CARTESIAN_POINT('',(0.748994904374,3.675161015671,3.995091987903)
  );
#142 = CARTESIAN_POINT('',(0.80347480333,3.663281393135,4.039930192839)
  );
#143 = CARTESIAN_POINT('',(0.967440114782,3.624928997915,4.193366293134)
  );
#144 = CARTESIAN_POINT('',(1.061897565416,3.598505315804,4.312561494583)
  );
#145 = CARTESIAN_POINT('',(1.137248266554,3.574687006224,4.441236952067)
  );
#146 = CARTESIAN_POINT('',(1.193613347633,3.555469480647,4.576547142758)
  );
#147 = CARTESIAN_POINT('',(1.231165563205,3.542192903684,4.716134861873)
  );
#148 = CARTESIAN_POINT('',(1.25,3.535533905933,4.857943881031));
#149 = CARTESIAN_POINT('',(1.25,3.535533905933,5.));
#150 = FACE_BOUND('',#151,.F.);
#151 = EDGE_LOOP('',(#152));
#152 = ORIENTED_EDGE('',*,*,#153,.T.);
#153 = EDGE_CURVE('',#154,#154,#156,.T.);
#154 = VERTEX_POINT('',#155);
#155 = CARTESIAN_POINT('',(1.25,-3.535533905933,5.));
#156 = B_SPLINE_CURVE_WITH_KNOTS('',7,(#157,#158,#159,#160,#161,#162,
    #163,#164,#165,#166,#167,#168,#169,#170,#171,#172,#173,#174,#175,
    #176,#177,#178,#179,#180,#181,#182,#183,#184,#185,#186,#187,#188,
    #189,#190,#191,#192,#193,#194,#195,#196,#197,#198,#199,#200,#201,
    #202,#203,#204,#205,#206,#207,#208,#209,#210,#211,#212,#213,#214,
    #215,#216,#217,#218,#219,#220,#221,#222,#223,#224,#225,#226,#227,
    #228,#229,#230,#231,#232,#233,#234,#235,#236,#237,#238,#239,#240,
    #241,#242,#243,#244,#245,#246,#247,#248,#249,#250,#251,#252,#253,
    #254),.UNSPECIFIED.,.T.,.F.,(8,6,6,6,6,6,6,6,6,6,6,6,6,6,6,6,8),(0.,
    0.138142551152,0.172086472399,0.216406107491,0.249648437019,
    0.298753335232,0.360769578897,0.409467838728,0.499690547767,
    0.569140067839,0.609898805728,0.672098217989,0.716464694802,
    0.749742158371,0.798898955882,0.860980744932,1.),.UNSPECIFIED.);
#157 = CARTESIAN_POINT('',(1.25,-3.535533905933,5.));
#158 = CARTESIAN_POINT('',(1.25,-3.535533905933,5.14156942417));
#159 = CARTESIAN_POINT('',(1.231294395475,-3.542147354735,5.282894887695
    ));
#160 = CARTESIAN_POINT('',(1.193997978522,-3.555333493666,5.422021094121
    ));
#161 = CARTESIAN_POINT('',(1.138017665372,-3.574424670543,5.55691237766)
  );
#162 = CARTESIAN_POINT('',(1.063183481524,-3.598098636064,5.685237547991
    ));
#163 = CARTESIAN_POINT('',(0.969375440397,-3.624387099524,5.804185428553
    ));
#164 = CARTESIAN_POINT('',(0.829141823985,-3.657298334478,5.936198171254
    ));
#165 = CARTESIAN_POINT('',(0.800341269082,-3.663799517612,5.961460454734
    ));
#166 = CARTESIAN_POINT('',(0.770410586379,-3.670271631739,5.985884618519
    ));
#167 = CARTESIAN_POINT('',(0.739361954527,-3.676674203695,6.009408183034
    ));
#168 = CARTESIAN_POINT('',(0.707210427999,-3.682965234001,6.031967074858
    ));
#169 = CARTESIAN_POINT('',(0.673974090884,-3.689101606783,6.053495518888
    ));
#170 = CARTESIAN_POINT('',(0.594889809879,-3.702792441491,6.100601351416
    ));
#171 = CARTESIAN_POINT('',(0.548254494954,-3.710213599696,6.125427302351
    ));
#172 = CARTESIAN_POINT('',(0.499881576552,-3.71719195175,6.148205365147)
  );
#173 = CARTESIAN_POINT('',(0.449900093653,-3.723619203377,6.168754464031
    ));
#174 = CARTESIAN_POINT('',(0.398453677004,-3.729393452226,6.186910153482
    ));
#175 = CARTESIAN_POINT('',(0.345699412542,-3.73442285154,6.202523906104)
  );
#176 = CARTESIAN_POINT('',(0.251384008525,-3.741784337594,6.225167031262
    ));
#177 = CARTESIAN_POINT('',(0.210340298272,-3.744474899667,6.233361929134
    ));
#178 = CARTESIAN_POINT('',(0.168792269709,-3.746665169629,6.239983076413
    ));
#179 = CARTESIAN_POINT('',(0.126860324657,-3.748327379387,6.24498224818)
  );
#180 = CARTESIAN_POINT('',(8.466759009307E-02,-3.749442340248,
    6.24832689073));
#181 = CARTESIAN_POINT('',(4.233893713077E-02,-3.75,6.25));
#182 = CARTESIAN_POINT('',(-6.25422233587E-02,-3.75,6.25));
#183 = CARTESIAN_POINT('',(-0.12501872434,-3.748783371844,6.24634897346)
  );
#184 = CARTESIAN_POINT('',(-0.187049195519,-3.746353592991,
    6.239061752127));
#185 = CARTESIAN_POINT('',(-0.248258752124,-3.742758558784,
    6.228216903569));
#186 = CARTESIAN_POINT('',(-0.30828402602,-3.738085406344,6.213957809922
    ));
#187 = CARTESIAN_POINT('',(-0.366779259709,-3.732455338459,
    6.196493746629));
#188 = CARTESIAN_POINT('',(-0.494958946294,-3.717889079239,
    6.150346219881));
#189 = CARTESIAN_POINT('',(-0.563528614234,-3.708473724969,
    6.119925162243));
#190 = CARTESIAN_POINT('',(-0.628865045613,-3.69803046688,6.085262540079
    ));
#191 = CARTESIAN_POINT('',(-0.690746506608,-3.686833612794,
    6.046781866097));
#192 = CARTESIAN_POINT('',(-0.748994904374,-3.675161015671,
    6.004908012097));
#193 = CARTESIAN_POINT('',(-0.80347480333,-3.663281393135,5.960069807161
    ));
#194 = CARTESIAN_POINT('',(-0.893839945454,-3.642144485492,
    5.875507561114));
#195 = CARTESIAN_POINT('',(-0.931256806196,-3.632860058153,5.83670565883
    ));
#196 = CARTESIAN_POINT('',(-0.96633601307,-3.623696766387,5.796454380317
    ));
#197 = CARTESIAN_POINT('',(-0.999075223866,-3.614754857379,5.75489940971
    ));
#198 = CARTESIAN_POINT('',(-1.029475767337,-3.606125891735,
    5.712175238572));
#199 = CARTESIAN_POINT('',(-1.057541645767,-3.597892211114,
    5.668405740537));
#200 = CARTESIAN_POINT('',(-1.130960982569,-3.575738787305,
    5.540887724497));
#201 = CARTESIAN_POINT('',(-1.17067188677,-3.562950366876,5.454833741988
    ));
#202 = CARTESIAN_POINT('',(-1.202413402411,-3.552232111649,
    5.366293287915));
#203 = CARTESIAN_POINT('',(-1.226204438682,-3.543946875836,
    5.275937207946));
#204 = CARTESIAN_POINT('',(-1.242064169105,-3.538339656252,
    5.184381269938));
#205 = CARTESIAN_POINT('',(-1.25,-3.535533905933,5.092210030195));
#206 = CARTESIAN_POINT('',(-1.25,-3.535533905933,4.929020726476));
#207 = CARTESIAN_POINT('',(-1.245298093965,-3.53719615663,4.858055778984
    ));
#208 = CARTESIAN_POINT('',(-1.235896622279,-3.540520310618,
    4.787369149567));
#209 = CARTESIAN_POINT('',(-1.221793813374,-3.545462084637,
    4.717232676837));
#210 = CARTESIAN_POINT('',(-1.202985507853,-3.551934427559,
    4.647928383397));
#211 = CARTESIAN_POINT('',(-1.179466882609,-3.559808688371,
    4.579750813258));
#212 = CARTESIAN_POINT('',(-1.134664880725,-3.574260583231,
    4.473839954982));
#213 = CARTESIAN_POINT('',(-1.116471002489,-3.580030340099,
    4.435163255542));
#214 = CARTESIAN_POINT('',(-1.096649658721,-3.586191645882,
    4.397038357949));
#215 = CARTESIAN_POINT('',(-1.075197775473,-3.592706404055,
    4.359528182897));
#216 = CARTESIAN_POINT('',(-1.052112379668,-3.599531945802,
    4.322699698964));
#217 = CARTESIAN_POINT('',(-1.027390892406,-3.606621145361,
    4.286624136809));
#218 = CARTESIAN_POINT('',(-0.960805850162,-3.625064739236,
    4.197589018135));
#219 = CARTESIAN_POINT('',(-0.916740742938,-3.636707869567,
    4.145696915434));
#220 = CARTESIAN_POINT('',(-0.868840305099,-3.648665378867,
    4.096001762784));
#221 = CARTESIAN_POINT('',(-0.817126558083,-3.660722680246,
    4.048827916869));
#222 = CARTESIAN_POINT('',(-0.761643210753,-3.672642510397,
    4.004525316193));
#223 = CARTESIAN_POINT('',(-0.702459529892,-3.684170292594,
    3.963471573717));
#224 = CARTESIAN_POINT('',(-0.594889809879,-3.702792441491,
    3.899398648584));
#225 = CARTESIAN_POINT('',(-0.548254494954,-3.710213599696,
    3.874572697649));
#226 = CARTESIAN_POINT('',(-0.499881576552,-3.71719195175,3.851794634853
    ));
#227 = CARTESIAN_POINT('',(-0.449900093653,-3.723619203377,
    3.831245535969));
#228 = CARTESIAN_POINT('',(-0.398453677004,-3.729393452226,
    3.813089846518));
#229 = CARTESIAN_POINT('',(-0.345699412542,-3.73442285154,3.797476093896
    ));
#230 = CARTESIAN_POINT('',(-0.251384008525,-3.741784337594,
    3.774832968738));
#231 = CARTESIAN_POINT('',(-0.210340298272,-3.744474899667,
    3.766638070866));
#232 = CARTESIAN_POINT('',(-0.168792269709,-3.746665169629,
    3.760016923587));
#233 = CARTESIAN_POINT('',(-0.126860324657,-3.748327379387,3.75501775182
    ));
#234 = CARTESIAN_POINT('',(-8.466759009308E-02,-3.749442340248,
    3.75167310927));
#235 = CARTESIAN_POINT('',(-4.233893713077E-02,-3.75,3.75));
#236 = CARTESIAN_POINT('',(6.254222335866E-02,-3.75,3.75));
#237 = CARTESIAN_POINT('',(0.12501872434,-3.748783371844,3.75365102654)
  );
#238 = CARTESIAN_POINT('',(0.187049195519,-3.746353592991,3.760938247873
    ));
#239 = CARTESIAN_POINT('',(0.248258752124,-3.742758558784,3.771783096431
    ));
#240 = CARTESIAN_POINT('',(0.30828402602,-3.738085406344,3.786042190078)
  );
#241 = CARTESIAN_POINT('',(0.366779259709,-3.732455338459,3.803506253371
    ));
#242 = CARTESIAN_POINT('',(0.494958946294,-3.717889079239,3.849653780119
    ));
#243 = CARTESIAN_POINT('',(0.563528614234,-3.708473724969,3.880074837757
    ));
#244 = CARTESIAN_POINT('',(0.628865045613,-3.69803046688,3.914737459921)
  );
#245 = CARTESIAN_POINT('',(0.690746506608,-3.686833612794,3.953218133903
    ));
#246 = CARTESIAN_POINT('',(0.748994904374,-3.675161015671,3.995091987903
    ));
#247 = CARTESIAN_POINT('',(0.80347480333,-3.663281393135,4.039930192839)
  );
#248 = CARTESIAN_POINT('',(0.967440114782,-3.624928997915,4.193366293134
    ));
#249 = CARTESIAN_POINT('',(1.061897565415,-3.598505315804,4.312561494583
    ));
#250 = CARTESIAN_POINT('',(1.137248266555,-3.574687006224,4.441236952067
    ));
#251 = CARTESIAN_POINT('',(1.193613347633,-3.555469480647,4.576547142758
    ));
#252 = CARTESIAN_POINT('',(1.231165563205,-3.542192903684,4.716134861873
    ));
#253 = CARTESIAN_POINT('',(1.25,-3.535533905933,4.85794388103));
#254 = CARTESIAN_POINT('',(1.25,-3.535533905933,5.));
#255 = CYLINDRICAL_SURFACE('',#256,3.75);
#256 = AXIS2_PLACEMENT_3D('',#257,#258,#259);
#257 = CARTESIAN_POINT('',(0.,0.,0.));
#258 = DIRECTION('',(-0.,-0.,-1.));
#259 = DIRECTION('',(1.,0.,0.));
#260 = ADVANCED_FACE('',(#261),#281,.T.);
#261 = FACE_BOUND('',#262,.T.);
#262 = EDGE_LOOP('',(#263,#272,#273,#274));
#263 = ORIENTED_EDGE('',*,*,#264,.F.);
#264 = EDGE_CURVE('',#24,#265,#267,.T.);
#265 = VERTEX_POINT('',#266);
#266 = CARTESIAN_POINT('',(2.75,0.,8.));
#267 = CIRCLE('',#268,1.);
#268 = AXIS2_PLACEMENT_3D('',#269,#270,#271);
#269 = CARTESIAN_POINT('',(2.75,0.,7.));
#270 = DIRECTION('',(0.,-1.,0.));
#271 = DIRECTION('',(1.,0.,0.));
#272 = ORIENTED_EDGE('',*,*,#39,.T.);
#273 = ORIENTED_EDGE('',*,*,#264,.T.);
#274 = ORIENTED_EDGE('',*,*,#275,.F.);
#275 = EDGE_CURVE('',#265,#265,#276,.T.);
#276 = CIRCLE('',#277,2.75);
#277 = AXIS2_PLACEMENT_3D('',#278,#279,#280);
#278 = CARTESIAN_POINT('',(0.,0.,8.));
#279 = DIRECTION('',(0.,0.,1.));
#280 = DIRECTION('',(1.,0.,0.));
#281 = TOROIDAL_SURFACE('',#282,2.75,1.);
#282 = AXIS2_PLACEMENT_3D('',#283,#284,#285);
#283 = CARTESIAN_POINT('',(0.,0.,7.));
#284 = DIRECTION('',(0.,0.,1.));
#285 = DIRECTION('',(1.,0.,0.));
#286 = ADVANCED_FACE('',(#287,#290),#301,.F.);
#287 = FACE_BOUND('',#288,.F.);
#288 = EDGE_LOOP('',(#289));
#289 = ORIENTED_EDGE('',*,*,#31,.T.);
#290 = FACE_BOUND('',#291,.F.);
#291 = EDGE_LOOP('',(#292));
#292 = ORIENTED_EDGE('',*,*,#293,.T.);
#293 = EDGE_CURVE('',#294,#294,#296,.T.);
#294 = VERTEX_POINT('',#295);
#295 = CARTESIAN_POINT('',(1.2,0.,0.));
#296 = CIRCLE('',#297,1.2);
#297 = AXIS2_PLACEMENT_3D('',#298,#299,#300);
#298 = CARTESIAN_POINT('',(0.,0.,0.));
#299 = DIRECTION('',(0.,0.,-1.));
#300 = DIRECTION('',(1.,0.,0.));
#301 = PLANE('',#302);
#302 = AXIS2_PLACEMENT_3D('',#303,#304,#305);
#303 = CARTESIAN_POINT('',(-1.8E-16,3.E-17,0.));
#304 = DIRECTION('',(0.,0.,1.));
#305 = DIRECTION('',(1.,0.,0.));
#306 = ADVANCED_FACE('',(#307),#326,.F.);
#307 = FACE_BOUND('',#308,.F.);
#308 = EDGE_LOOP('',(#309,#318,#324,#325));
#309 = ORIENTED_EDGE('',*,*,#310,.F.);
#310 = EDGE_CURVE('',#311,#311,#313,.T.);
#311 = VERTEX_POINT('',#312);
#312 = CARTESIAN_POINT('',(1.25,1.E-15,5.));
#313 = CIRCLE('',#314,1.25);
#314 = AXIS2_PLACEMENT_3D('',#315,#316,#317);
#315 = CARTESIAN_POINT('',(0.,0.,5.));
#316 = DIRECTION('',(0.,-1.,0.));
#317 = DIRECTION('',(1.,0.,0.));
#318 = ORIENTED_EDGE('',*,*,#319,.T.);
#319 = EDGE_CURVE('',#311,#49,#320,.T.);
#320 = LINE('',#321,#322);
#321 = CARTESIAN_POINT('',(1.25,1.11E-15,5.));
#322 = VECTOR('',#323,1.);
#323 = DIRECTION('',(0.,1.,-2.2E-16));
#324 = ORIENTED_EDGE('',*,*,#48,.T.);
#325 = ORIENTED_EDGE('',*,*,#319,.F.);
#326 = CYLINDRICAL_SURFACE('',#327,1.25);
#327 = AXIS2_PLACEMENT_3D('',#328,#329,#330);
#328 = CARTESIAN_POINT('',(0.,1.11E-15,5.));
#329 = DIRECTION('',(0.,-1.,2.2E-16));
#330 = DIRECTION('',(1.,0.,0.));
#331 = ADVANCED_FACE('',(#332),#343,.F.);
#332 = FACE_BOUND('',#333,.T.);
#333 = EDGE_LOOP('',(#334,#335,#341,#342));
#334 = ORIENTED_EDGE('',*,*,#310,.F.);
#335 = ORIENTED_EDGE('',*,*,#336,.T.);
#336 = EDGE_CURVE('',#311,#154,#337,.T.);
#337 = LINE('',#338,#339);
#338 = CARTESIAN_POINT('',(1.25,1.11E-15,5.));
#339 = VECTOR('',#340,1.);
#340 = DIRECTION('',(0.,-1.,2.2E-16));
#341 = ORIENTED_EDGE('',*,*,#153,.T.);
#342 = ORIENTED_EDGE('',*,*,#336,.F.);
#343 = CYLINDRICAL_SURFACE('',#344,1.25);
#344 = AXIS2_PLACEMENT_3D('',#345,#346,#347);
#345 = CARTESIAN_POINT('',(0.,1.11E-15,5.));
#346 = DIRECTION('',(0.,1.,-2.2E-16));
#347 = DIRECTION('',(1.,0.,0.));
#348 = ADVANCED_FACE('',(#349),#352,.T.);
#349 = FACE_BOUND('',#350,.T.);
#350 = EDGE_LOOP('',(#351));
#351 = ORIENTED_EDGE('',*,*,#275,.T.);
#352 = PLANE('',#353);
#353 = AXIS2_PLACEMENT_3D('',#354,#355,#356);
#354 = CARTESIAN_POINT('',(-1.8E-16,3.E-17,8.));
#355 = DIRECTION('',(0.,0.,1.));
#356 = DIRECTION('',(1.,0.,0.));
#357 = ADVANCED_FACE('',(#358),#377,.F.);
#358 = FACE_BOUND('',#359,.F.);
#359 = EDGE_LOOP('',(#360,#368,#375,#376));
#360 = ORIENTED_EDGE('',*,*,#361,.T.);
#361 = EDGE_CURVE('',#294,#362,#364,.T.);
#362 = VERTEX_POINT('',#363);
#363 = CARTESIAN_POINT('',(1.2,0.,3.));
#364 = LINE('',#365,#366);
#365 = CARTESIAN_POINT('',(1.2,0.,0.));
#366 = VECTOR('',#367,1.);
#367 = DIRECTION('',(0.,0.,1.));
#368 = ORIENTED_EDGE('',*,*,#369,.T.);
#369 = EDGE_CURVE('',#362,#362,#370,.T.);
#370 = CIRCLE('',#371,1.2);
#371 = AXIS2_PLACEMENT_3D('',#372,#373,#374);
#372 = CARTESIAN_POINT('',(0.,0.,3.));
#373 = DIRECTION('',(0.,0.,-1.));
#374 = DIRECTION('',(1.,0.,0.));
#375 = ORIENTED_EDGE('',*,*,#361,.F.);
#376 = ORIENTED_EDGE('',*,*,#293,.F.);
#377 = CYLINDRICAL_SURFACE('',#378,1.2);
#378 = AXIS2_PLACEMENT_3D('',#379,#380,#381);
#379 = CARTESIAN_POINT('',(0.,0.,0.));
#380 = DIRECTION('',(0.,0.,-1.));
#381 = DIRECTION('',(1.,0.,0.));
#382 = ADVANCED_FACE('',(#383),#386,.F.);
#383 = FACE_BOUND('',#384,.T.);
#384 = EDGE_LOOP('',(#385));
#385 = ORIENTED_EDGE('',*,*,#369,.T.);
#386 = PLANE('',#387);
#387 = AXIS2_PLACEMENT_3D('',#388,#389,#390);
#388 = CARTESIAN_POINT('',(-1.4E-16,-2.E-17,3.));
#389 = DIRECTION('',(0.,0.,1.));
#390 = DIRECTION('',(1.,0.,0.));
#391 = ( GEOMETRIC_REPRESENTATION_CONTEXT(3) 
GLOBAL_UNCERTAINTY_ASSIGNED_CONTEXT((#395)) GLOBAL_UNIT_ASSIGNED_CONTEXT
((#392,#393,#394)) REPRESENTATION_CONTEXT('Context #1',
  '3D Context with UNIT and UNCERTAINTY') );
#392 = ( LENGTH_UNIT() NAMED_UNIT(*) SI_UNIT(.MILLI.,.METRE.) );
#393 = ( NAMED_UNIT(*) PLANE_ANGLE_UNIT() SI_UNIT($,.RADIAN.) );
#394 = ( NAMED_UNIT(*) SI_UNIT($,.STERADIAN.) SOLID_ANGLE_UNIT() );
#395 = UNCERTAINTY_MEASURE_WITH_UNIT(LENGTH_MEASURE(1.E-07),#392,
  'distance_accuracy_value','confusion accuracy');
#396 = PRODUCT_RELATED_PRODUCT_CATEGORY('part',$,(#7));
ENDSEC;
END-ISO-10303-21;
