ISO-10303-21;
HEADER;
FILE_DESCRIPTION(('FreeCAD Model'),'2;1');
FILE_NAME('Open CASCADE Shape Model','2026-08-28T13:04:06',('FreeCAD'),(
    'FreeCAD'),'Open CASCADE STEP processor 7.8','FreeCAD','Unknown');
FILE_SCHEMA(('AUTOMOTIVE_DESIGN { 1 0 10303 214 1 1 1 1 }'));
ENDSEC;
DATA;
#1 = APPLICATION_PROTOCOL_DEFINITION('international standard',
  'automotive_design',2000,#2);
#2 = APPLICATION_CONTEXT(
  'core data for automotive mechanical design processes');
#3 = SHAPE_DEFINITION_REPRESENTATION(#4,#10);
#4 = PRODUCT_DEFINITION_SHAPE('','',#5);
#5 = PRODUCT_DEFINITION('design','',#6,#9);
#6 = PRODUCT_DEFINITION_FORMATION('','',#7);
#7 = PRODUCT('Open CASCADE STEP translator 7.8 71',
  'Open CASCADE STEP translator 7.8 71','',(#8));
#8 = PRODUCT_CONTEXT('',#2,'mechanical');
#9 = PRODUCT_DEFINITION_CONTEXT('part definition',#2,'design');
#10 = ADVANCED_BREP_SHAPE_REPRESENTATION('',(#11,#15),#982);
#11 = AXIS2_PLACEMENT_3D('',#12,#13,#14);
#12 = CARTESIAN_POINT('',(0.,0.,0.));
#13 = DIRECTION('',(0.,0.,1.));
#14 = DIRECTION('',(1.,0.,-0.));
#15 = MANIFOLD_SOLID_BREP('',#16);
#16 = CLOSED_SHELL('',(#17,#77,#119,#219,#296,#324,#352,#380,#479,#500,
    #726,#758,#782,#807,#831,#855,#879,#904,#921,#938,#963));
#17 = ADVANCED_FACE('',(#18),#72,.F.);
#18 = FACE_BOUND('',#19,.F.);
#19 = EDGE_LOOP('',(#20,#31,#40,#48,#57,#66));
#20 = ORIENTED_EDGE('',*,*,#21,.T.);
#21 = EDGE_CURVE('',#22,#24,#26,.T.);
#22 = VERTEX_POINT('',#23);
#23 = CARTESIAN_POINT('',(129.50999092558,35.2,64.));
#24 = VERTEX_POINT('',#25);
#25 = CARTESIAN_POINT('',(132.,41.,64.));
#26 = CIRCLE('',#27,8.);
#27 = AXIS2_PLACEMENT_3D('',#28,#29,#30);
#28 = CARTESIAN_POINT('',(124.,41.,64.));
#29 = DIRECTION('',(0.,0.,1.));
#30 = DIRECTION('',(1.,0.,0.));
#31 = ORIENTED_EDGE('',*,*,#32,.T.);
#32 = EDGE_CURVE('',#24,#33,#35,.T.);
#33 = VERTEX_POINT('',#34);
#34 = CARTESIAN_POINT('',(118.49000907441,35.2,64.));
#35 = CIRCLE('',#36,8.);
#36 = AXIS2_PLACEMENT_3D('',#37,#38,#39);
#37 = CARTESIAN_POINT('',(124.,41.,64.));
#38 = DIRECTION('',(0.,0.,1.));
#39 = DIRECTION('',(1.,0.,0.));
#40 = ORIENTED_EDGE('',*,*,#41,.F.);
#41 = EDGE_CURVE('',#42,#33,#44,.T.);
#42 = VERTEX_POINT('',#43);
#43 = CARTESIAN_POINT('',(122.46377085042,35.2,64.));
#44 = LINE('',#45,#46);
#45 = CARTESIAN_POINT('',(123.88519075,35.2,64.));
#46 = VECTOR('',#47,1.);
#47 = DIRECTION('',(-1.,0.,0.));
#48 = ORIENTED_EDGE('',*,*,#49,.T.);
#49 = EDGE_CURVE('',#42,#50,#52,.T.);
#50 = VERTEX_POINT('',#51);
#51 = CARTESIAN_POINT('',(130.,41.,64.));
#52 = CIRCLE('',#53,6.);
#53 = AXIS2_PLACEMENT_3D('',#54,#55,#56);
#54 = CARTESIAN_POINT('',(124.,41.,64.));
#55 = DIRECTION('',(0.,0.,-1.));
#56 = DIRECTION('',(1.,0.,0.));
#57 = ORIENTED_EDGE('',*,*,#58,.T.);
#58 = EDGE_CURVE('',#50,#59,#61,.T.);
#59 = VERTEX_POINT('',#60);
#60 = CARTESIAN_POINT('',(125.53622914957,35.2,64.));
#61 = CIRCLE('',#62,6.);
#62 = AXIS2_PLACEMENT_3D('',#63,#64,#65);
#63 = CARTESIAN_POINT('',(124.,41.,64.));
#64 = DIRECTION('',(0.,0.,-1.));
#65 = DIRECTION('',(1.,0.,0.));
#66 = ORIENTED_EDGE('',*,*,#67,.F.);
#67 = EDGE_CURVE('',#22,#59,#68,.T.);
#68 = LINE('',#69,#70);
#69 = CARTESIAN_POINT('',(123.88519075,35.2,64.));
#70 = VECTOR('',#71,1.);
#71 = DIRECTION('',(-1.,0.,0.));
#72 = PLANE('',#73);
#73 = AXIS2_PLACEMENT_3D('',#74,#75,#76);
#74 = CARTESIAN_POINT('',(124.,41.,64.));
#75 = DIRECTION('',(0.,0.,1.));
#76 = DIRECTION('',(1.,0.,0.));
#77 = ADVANCED_FACE('',(#78),#114,.T.);
#78 = FACE_BOUND('',#79,.T.);
#79 = EDGE_LOOP('',(#80,#81,#89,#98,#107,#113));
#80 = ORIENTED_EDGE('',*,*,#32,.T.);
#81 = ORIENTED_EDGE('',*,*,#82,.T.);
#82 = EDGE_CURVE('',#33,#83,#85,.T.);
#83 = VERTEX_POINT('',#84);
#84 = CARTESIAN_POINT('',(118.49000907441,35.2,65.));
#85 = LINE('',#86,#87);
#86 = CARTESIAN_POINT('',(118.49000907441,35.2,65.));
#87 = VECTOR('',#88,1.);
#88 = DIRECTION('',(0.,0.,1.));
#89 = ORIENTED_EDGE('',*,*,#90,.F.);
#90 = EDGE_CURVE('',#91,#83,#93,.T.);
#91 = VERTEX_POINT('',#92);
#92 = CARTESIAN_POINT('',(132.,41.,65.));
#93 = CIRCLE('',#94,8.);
#94 = AXIS2_PLACEMENT_3D('',#95,#96,#97);
#95 = CARTESIAN_POINT('',(124.,41.,65.));
#96 = DIRECTION('',(0.,0.,1.));
#97 = DIRECTION('',(1.,0.,0.));
#98 = ORIENTED_EDGE('',*,*,#99,.F.);
#99 = EDGE_CURVE('',#100,#91,#102,.T.);
#100 = VERTEX_POINT('',#101);
#101 = CARTESIAN_POINT('',(129.50999092558,35.2,65.));
#102 = CIRCLE('',#103,8.);
#103 = AXIS2_PLACEMENT_3D('',#104,#105,#106);
#104 = CARTESIAN_POINT('',(124.,41.,65.));
#105 = DIRECTION('',(0.,0.,1.));
#106 = DIRECTION('',(1.,0.,0.));
#107 = ORIENTED_EDGE('',*,*,#108,.F.);
#108 = EDGE_CURVE('',#22,#100,#109,.T.);
#109 = LINE('',#110,#111);
#110 = CARTESIAN_POINT('',(129.50999092558,35.2,65.));
#111 = VECTOR('',#112,1.);
#112 = DIRECTION('',(0.,0.,1.));
#113 = ORIENTED_EDGE('',*,*,#21,.T.);
#114 = CYLINDRICAL_SURFACE('',#115,8.);
#115 = AXIS2_PLACEMENT_3D('',#116,#117,#118);
#116 = CARTESIAN_POINT('',(124.,41.,65.));
#117 = DIRECTION('',(0.,0.,1.));
#118 = DIRECTION('',(1.,0.,0.));
#119 = ADVANCED_FACE('',(#120,#203),#214,.T.);
#120 = FACE_BOUND('',#121,.T.);
#121 = EDGE_LOOP('',(#122,#130,#131,#132,#140,#148,#154,#155,#156,#164,
    #172,#180,#189,#197));
#122 = ORIENTED_EDGE('',*,*,#123,.F.);
#123 = EDGE_CURVE('',#83,#124,#126,.T.);
#124 = VERTEX_POINT('',#125);
#125 = CARTESIAN_POINT('',(117.78630544683,35.2,65.));
#126 = LINE('',#127,#128);
#127 = CARTESIAN_POINT('',(123.88519075,35.2,65.));
#128 = VECTOR('',#129,1.);
#129 = DIRECTION('',(-1.,0.,0.));
#130 = ORIENTED_EDGE('',*,*,#82,.F.);
#131 = ORIENTED_EDGE('',*,*,#41,.F.);
#132 = ORIENTED_EDGE('',*,*,#133,.T.);
#133 = EDGE_CURVE('',#42,#134,#136,.T.);
#134 = VERTEX_POINT('',#135);
#135 = CARTESIAN_POINT('',(122.46377085042,35.2,41.5));
#136 = LINE('',#137,#138);
#137 = CARTESIAN_POINT('',(122.46377085042,35.2,41.));
#138 = VECTOR('',#139,1.);
#139 = DIRECTION('',(-0.,-0.,-1.));
#140 = ORIENTED_EDGE('',*,*,#141,.F.);
#141 = EDGE_CURVE('',#142,#134,#144,.T.);
#142 = VERTEX_POINT('',#143);
#143 = CARTESIAN_POINT('',(125.53622914957,35.2,41.5));
#144 = LINE('',#145,#146);
#145 = CARTESIAN_POINT('',(124.,35.2,41.5));
#146 = VECTOR('',#147,1.);
#147 = DIRECTION('',(-1.,-2.8E-16,0.));
#148 = ORIENTED_EDGE('',*,*,#149,.F.);
#149 = EDGE_CURVE('',#59,#142,#150,.T.);
#150 = LINE('',#151,#152);
#151 = CARTESIAN_POINT('',(125.53622914957,35.2,41.));
#152 = VECTOR('',#153,1.);
#153 = DIRECTION('',(-0.,-0.,-1.));
#154 = ORIENTED_EDGE('',*,*,#67,.F.);
#155 = ORIENTED_EDGE('',*,*,#108,.T.);
#156 = ORIENTED_EDGE('',*,*,#157,.F.);
#157 = EDGE_CURVE('',#158,#100,#160,.T.);
#158 = VERTEX_POINT('',#159);
#159 = CARTESIAN_POINT('',(130.21369455316,35.2,65.));
#160 = LINE('',#161,#162);
#161 = CARTESIAN_POINT('',(123.88519075,35.2,65.));
#162 = VECTOR('',#163,1.);
#163 = DIRECTION('',(-1.,0.,0.));
#164 = ORIENTED_EDGE('',*,*,#165,.F.);
#165 = EDGE_CURVE('',#166,#158,#168,.T.);
#166 = VERTEX_POINT('',#167);
#167 = CARTESIAN_POINT('',(130.21369455316,35.2,74.));
#168 = LINE('',#169,#170);
#169 = CARTESIAN_POINT('',(130.21369455316,35.2,65.));
#170 = VECTOR('',#171,1.);
#171 = DIRECTION('',(-0.,-0.,-1.));
#172 = ORIENTED_EDGE('',*,*,#173,.F.);
#173 = EDGE_CURVE('',#174,#166,#176,.T.);
#174 = VERTEX_POINT('',#175);
#175 = CARTESIAN_POINT('',(128.52583714366,35.2,74.));
#176 = LINE('',#177,#178);
#177 = CARTESIAN_POINT('',(117.78630544683,35.2,74.));
#178 = VECTOR('',#179,1.);
#179 = DIRECTION('',(1.,0.,0.));
#180 = ORIENTED_EDGE('',*,*,#181,.T.);
#181 = EDGE_CURVE('',#174,#182,#184,.T.);
#182 = VERTEX_POINT('',#183);
#183 = CARTESIAN_POINT('',(119.47416285633,35.2,74.));
#184 = HYPERBOLA('',#185,3.153524754259,5.8);
#185 = AXIS2_PLACEMENT_3D('',#186,#187,#188);
#186 = CARTESIAN_POINT('',(124.,35.2,70.));
#187 = DIRECTION('',(2.8E-16,-1.,0.));
#188 = DIRECTION('',(0.,0.,1.));
#189 = ORIENTED_EDGE('',*,*,#190,.F.);
#190 = EDGE_CURVE('',#191,#182,#193,.T.);
#191 = VERTEX_POINT('',#192);
#192 = CARTESIAN_POINT('',(117.78630544683,35.2,74.));
#193 = LINE('',#194,#195);
#194 = CARTESIAN_POINT('',(117.78630544683,35.2,74.));
#195 = VECTOR('',#196,1.);
#196 = DIRECTION('',(1.,0.,0.));
#197 = ORIENTED_EDGE('',*,*,#198,.F.);
#198 = EDGE_CURVE('',#124,#191,#199,.T.);
#199 = LINE('',#200,#201);
#200 = CARTESIAN_POINT('',(117.78630544683,35.2,73.));
#201 = VECTOR('',#202,1.);
#202 = DIRECTION('',(0.,0.,1.));
#203 = FACE_BOUND('',#204,.T.);
#204 = EDGE_LOOP('',(#205));
#205 = ORIENTED_EDGE('',*,*,#206,.F.);
#206 = EDGE_CURVE('',#207,#207,#209,.T.);
#207 = VERTEX_POINT('',#208);
#208 = CARTESIAN_POINT('',(125.4,35.2,51.9));
#209 = CIRCLE('',#210,1.4);
#210 = AXIS2_PLACEMENT_3D('',#211,#212,#213);
#211 = CARTESIAN_POINT('',(124.,35.2,51.9));
#212 = DIRECTION('',(0.,-1.,2.2E-16));
#213 = DIRECTION('',(1.,0.,0.));
#214 = PLANE('',#215);
#215 = AXIS2_PLACEMENT_3D('',#216,#217,#218);
#216 = CARTESIAN_POINT('',(124.,35.2,59.88370309279));
#217 = DIRECTION('',(2.8E-16,-1.,0.));
#218 = DIRECTION('',(-1.,-2.8E-16,0.));
#219 = ADVANCED_FACE('',(#220,#233),#291,.T.);
#220 = FACE_BOUND('',#221,.F.);
#221 = EDGE_LOOP('',(#222,#223,#224,#231,#232));
#222 = ORIENTED_EDGE('',*,*,#49,.F.);
#223 = ORIENTED_EDGE('',*,*,#133,.T.);
#224 = ORIENTED_EDGE('',*,*,#225,.T.);
#225 = EDGE_CURVE('',#134,#142,#226,.T.);
#226 = CIRCLE('',#227,6.);
#227 = AXIS2_PLACEMENT_3D('',#228,#229,#230);
#228 = CARTESIAN_POINT('',(124.,41.,41.5));
#229 = DIRECTION('',(0.,0.,-1.));
#230 = DIRECTION('',(1.,0.,0.));
#231 = ORIENTED_EDGE('',*,*,#149,.F.);
#232 = ORIENTED_EDGE('',*,*,#58,.F.);
#233 = FACE_BOUND('',#234,.F.);
#234 = EDGE_LOOP('',(#235));
#235 = ORIENTED_EDGE('',*,*,#236,.F.);
#236 = EDGE_CURVE('',#237,#237,#239,.T.);
#237 = VERTEX_POINT('',#238);
#238 = CARTESIAN_POINT('',(125.4,46.834380858326,51.9));
#239 = B_SPLINE_CURVE_WITH_KNOTS('',8,(#240,#241,#242,#243,#244,#245,
    #246,#247,#248,#249,#250,#251,#252,#253,#254,#255,#256,#257,#258,
    #259,#260,#261,#262,#263,#264,#265,#266,#267,#268,#269,#270,#271,
    #272,#273,#274,#275,#276,#277,#278,#279,#280,#281,#282,#283,#284,
    #285,#286,#287,#288,#289,#290),.UNSPECIFIED.,.T.,.F.,(9,7,7,7,7,7,7,
    9),(0.,0.151872516316,0.287109077839,0.424231877249,0.576732948248,
    0.705161927305,0.829669396021,1.),.UNSPECIFIED.);
#240 = CARTESIAN_POINT('',(125.4,46.834380858326,51.9));
#241 = CARTESIAN_POINT('',(125.4,46.834380858326,52.047568078254));
#242 = CARTESIAN_POINT('',(125.38222381241,46.838646255606,
    52.195134188206));
#243 = CARTESIAN_POINT('',(125.34666981562,46.847178165521,
    52.341124705896));
#244 = CARTESIAN_POINT('',(125.29314260261,46.859700874172,
    52.483882648324));
#245 = CARTESIAN_POINT('',(125.22131729796,46.875652985943,
    52.621542339709));
#246 = CARTESIAN_POINT('',(125.13079407671,46.894140153298,
    52.751890151647));
#247 = CARTESIAN_POINT('',(125.02119978788,46.913891895239,
    52.872160782311));
#248 = CARTESIAN_POINT('',(124.77769667856,46.95051601576,
    53.073604073408));
#249 = CARTESIAN_POINT('',(124.64439357325,46.967974097393,
    53.160406329955));
#250 = CARTESIAN_POINT('',(124.49455435479,46.983887532097,
    53.23233928088));
#251 = CARTESIAN_POINT('',(124.33181614257,46.996227324066,
    53.284435614723));
#252 = CARTESIAN_POINT('',(124.16091112708,47.003264978227,
    53.313479608641));
#253 = CARTESIAN_POINT('',(123.98709838904,47.004233358193,
    53.317958451773));
#254 = CARTESIAN_POINT('',(123.81575473165,46.99941783992,
    53.298104075468));
#255 = CARTESIAN_POINT('',(123.48562727063,46.980228988687,
    53.21334175012));
#256 = CARTESIAN_POINT('',(123.33173814356,46.965995304618,
    53.149013086045));
#257 = CARTESIAN_POINT('',(123.19210992362,46.948640981534,
    53.066839450914));
#258 = CARTESIAN_POINT('',(123.0679219526,46.929766483455,
    52.970176242712));
#259 = CARTESIAN_POINT('',(122.95984102178,46.910862502659,
    52.862068929892));
#260 = CARTESIAN_POINT('',(122.8681401865,46.893167753663,
    52.745323856638));
#261 = CARTESIAN_POINT('',(122.79274188754,46.877604379043,
    52.622534436578));
#262 = CARTESIAN_POINT('',(122.66706948921,46.850459756311,
    52.355466995753));
#263 = CARTESIAN_POINT('',(122.61928418872,46.839245335972,
    52.207608816715));
#264 = CARTESIAN_POINT('',(122.59041864663,46.832083877298,
    52.054986604835));
#265 = CARTESIAN_POINT('',(122.58076573469,46.829621515713,51.9));
#266 = CARTESIAN_POINT('',(122.59041864663,46.832083877298,
    51.745013395165));
#267 = CARTESIAN_POINT('',(122.61928418872,46.839245335972,
    51.592391183284));
#268 = CARTESIAN_POINT('',(122.66706948921,46.850459756311,
    51.444533004247));
#269 = CARTESIAN_POINT('',(122.78896950077,46.876789561973,
    51.185482293361));
#270 = CARTESIAN_POINT('',(122.85853074709,46.891180917556,
    51.070500256913));
#271 = CARTESIAN_POINT('',(122.94222267889,46.907446528553,
    50.960769008168));
#272 = CARTESIAN_POINT('',(123.04015471796,46.924863145056,
    50.858280290275));
#273 = CARTESIAN_POINT('',(123.15221513508,46.942473280139,
    50.765228814812));
#274 = CARTESIAN_POINT('',(123.2780246604,46.959114504196,50.6840407649)
  );
#275 = CARTESIAN_POINT('',(123.41684080164,46.973500204006,
    50.617432795652));
#276 = CARTESIAN_POINT('',(123.7133150958,46.994932963107,
    50.521102458051));
#277 = CARTESIAN_POINT('',(123.86843237763,47.002057291974,
    50.490912777045));
#278 = CARTESIAN_POINT('',(124.02869579045,47.004597956031,
    50.48083149066));
#279 = CARTESIAN_POINT('',(124.18950930401,47.001890700629,
    50.492040864108));
#280 = CARTESIAN_POINT('',(124.34613930338,46.994131985576,
    50.524133305776));
#281 = CARTESIAN_POINT('',(124.49412610699,46.982353298811,
    50.57513921101));
#282 = CARTESIAN_POINT('',(124.62969206877,46.968101060476,
    50.641491208726));
#283 = CARTESIAN_POINT('',(124.91495848498,46.932153202342,
    50.822526781394));
#284 = CARTESIAN_POINT('',(125.05558561612,46.909134488958,
    50.948605297563));
#285 = CARTESIAN_POINT('',(125.1716683587,46.886560945922,
    51.090069368582));
#286 = CARTESIAN_POINT('',(125.26360471404,46.866586404011,
    51.242450742755));
#287 = CARTESIAN_POINT('',(125.33197743978,46.850704736568,
    51.40225930914));
#288 = CARTESIAN_POINT('',(125.37731956596,46.839822688282,
    51.566668624773));
#289 = CARTESIAN_POINT('',(125.4,46.834380858326,51.733317814864));
#290 = CARTESIAN_POINT('',(125.4,46.834380858326,51.9));
#291 = CYLINDRICAL_SURFACE('',#292,6.);
#292 = AXIS2_PLACEMENT_3D('',#293,#294,#295);
#293 = CARTESIAN_POINT('',(124.,41.,41.));
#294 = DIRECTION('',(-0.,-0.,-1.));
#295 = DIRECTION('',(1.,0.,0.));
#296 = ADVANCED_FACE('',(#297),#319,.F.);
#297 = FACE_BOUND('',#298,.F.);
#298 = EDGE_LOOP('',(#299,#308,#315,#316,#317,#318));
#299 = ORIENTED_EDGE('',*,*,#300,.T.);
#300 = EDGE_CURVE('',#158,#301,#303,.T.);
#301 = VERTEX_POINT('',#302);
#302 = CARTESIAN_POINT('',(132.5,41.,65.));
#303 = CIRCLE('',#304,8.5);
#304 = AXIS2_PLACEMENT_3D('',#305,#306,#307);
#305 = CARTESIAN_POINT('',(124.,41.,65.));
#306 = DIRECTION('',(0.,0.,1.));
#307 = DIRECTION('',(1.,0.,0.));
#308 = ORIENTED_EDGE('',*,*,#309,.T.);
#309 = EDGE_CURVE('',#301,#124,#310,.T.);
#310 = CIRCLE('',#311,8.5);
#311 = AXIS2_PLACEMENT_3D('',#312,#313,#314);
#312 = CARTESIAN_POINT('',(124.,41.,65.));
#313 = DIRECTION('',(0.,0.,1.));
#314 = DIRECTION('',(1.,0.,0.));
#315 = ORIENTED_EDGE('',*,*,#123,.F.);
#316 = ORIENTED_EDGE('',*,*,#90,.F.);
#317 = ORIENTED_EDGE('',*,*,#99,.F.);
#318 = ORIENTED_EDGE('',*,*,#157,.F.);
#319 = PLANE('',#320);
#320 = AXIS2_PLACEMENT_3D('',#321,#322,#323);
#321 = CARTESIAN_POINT('',(124.,41.,65.));
#322 = DIRECTION('',(0.,0.,1.));
#323 = DIRECTION('',(1.,0.,0.));
#324 = ADVANCED_FACE('',(#325),#347,.T.);
#325 = FACE_BOUND('',#326,.F.);
#326 = EDGE_LOOP('',(#327,#328,#329,#330,#331,#340));
#327 = ORIENTED_EDGE('',*,*,#198,.F.);
#328 = ORIENTED_EDGE('',*,*,#309,.F.);
#329 = ORIENTED_EDGE('',*,*,#300,.F.);
#330 = ORIENTED_EDGE('',*,*,#165,.F.);
#331 = ORIENTED_EDGE('',*,*,#332,.T.);
#332 = EDGE_CURVE('',#166,#333,#335,.T.);
#333 = VERTEX_POINT('',#334);
#334 = CARTESIAN_POINT('',(132.5,41.,74.));
#335 = CIRCLE('',#336,8.5);
#336 = AXIS2_PLACEMENT_3D('',#337,#338,#339);
#337 = CARTESIAN_POINT('',(124.,41.,74.));
#338 = DIRECTION('',(0.,0.,1.));
#339 = DIRECTION('',(1.,0.,0.));
#340 = ORIENTED_EDGE('',*,*,#341,.T.);
#341 = EDGE_CURVE('',#333,#191,#342,.T.);
#342 = CIRCLE('',#343,8.5);
#343 = AXIS2_PLACEMENT_3D('',#344,#345,#346);
#344 = CARTESIAN_POINT('',(124.,41.,74.));
#345 = DIRECTION('',(0.,0.,1.));
#346 = DIRECTION('',(1.,0.,0.));
#347 = CYLINDRICAL_SURFACE('',#348,8.5);
#348 = AXIS2_PLACEMENT_3D('',#349,#350,#351);
#349 = CARTESIAN_POINT('',(124.,41.,65.));
#350 = DIRECTION('',(-0.,-0.,-1.));
#351 = DIRECTION('',(1.,0.,0.));
#352 = ADVANCED_FACE('',(#353),#375,.T.);
#353 = FACE_BOUND('',#354,.T.);
#354 = EDGE_LOOP('',(#355,#356,#357,#358,#359,#368));
#355 = ORIENTED_EDGE('',*,*,#173,.T.);
#356 = ORIENTED_EDGE('',*,*,#332,.T.);
#357 = ORIENTED_EDGE('',*,*,#341,.T.);
#358 = ORIENTED_EDGE('',*,*,#190,.T.);
#359 = ORIENTED_EDGE('',*,*,#360,.F.);
#360 = EDGE_CURVE('',#361,#182,#363,.T.);
#361 = VERTEX_POINT('',#362);
#362 = CARTESIAN_POINT('',(131.35684727658,41.,74.));
#363 = CIRCLE('',#364,7.356847276581);
#364 = AXIS2_PLACEMENT_3D('',#365,#366,#367);
#365 = CARTESIAN_POINT('',(124.,41.,74.));
#366 = DIRECTION('',(-0.,2.2E-16,1.));
#367 = DIRECTION('',(1.,0.,0.));
#368 = ORIENTED_EDGE('',*,*,#369,.F.);
#369 = EDGE_CURVE('',#174,#361,#370,.T.);
#370 = CIRCLE('',#371,7.356847276581);
#371 = AXIS2_PLACEMENT_3D('',#372,#373,#374);
#372 = CARTESIAN_POINT('',(124.,41.,74.));
#373 = DIRECTION('',(-0.,2.2E-16,1.));
#374 = DIRECTION('',(1.,0.,0.));
#375 = PLANE('',#376);
#376 = AXIS2_PLACEMENT_3D('',#377,#378,#379);
#377 = CARTESIAN_POINT('',(124.1125345256,41.096947316423,74.));
#378 = DIRECTION('',(0.,0.,1.));
#379 = DIRECTION('',(1.,0.,0.));
#380 = ADVANCED_FACE('',(#381),#474,.F.);
#381 = FACE_BOUND('',#382,.F.);
#382 = EDGE_LOOP('',(#383,#394,#400,#401,#402,#403,#404,#413,#422,#431,
    #440,#449,#458,#467));
#383 = ORIENTED_EDGE('',*,*,#384,.T.);
#384 = EDGE_CURVE('',#385,#387,#389,.T.);
#385 = VERTEX_POINT('',#386);
#386 = CARTESIAN_POINT('',(130.25,39.25,73.528890704873));
#387 = VERTEX_POINT('',#388);
#388 = CARTESIAN_POINT('',(130.25,41.,73.398194778296));
#389 = HYPERBOLA('',#390,3.398194778296,6.25);
#390 = AXIS2_PLACEMENT_3D('',#391,#392,#393);
#391 = CARTESIAN_POINT('',(130.25,41.,70.));
#392 = DIRECTION('',(-1.,0.,0.));
#393 = DIRECTION('',(0.,2.2E-16,1.));
#394 = ORIENTED_EDGE('',*,*,#395,.T.);
#395 = EDGE_CURVE('',#387,#361,#396,.T.);
#396 = LINE('',#397,#398);
#397 = CARTESIAN_POINT('',(124.,41.,70.));
#398 = VECTOR('',#399,1.);
#399 = DIRECTION('',(0.878538648203,0.,0.477671271497));
#400 = ORIENTED_EDGE('',*,*,#369,.F.);
#401 = ORIENTED_EDGE('',*,*,#181,.T.);
#402 = ORIENTED_EDGE('',*,*,#360,.F.);
#403 = ORIENTED_EDGE('',*,*,#395,.F.);
#404 = ORIENTED_EDGE('',*,*,#405,.T.);
#405 = EDGE_CURVE('',#387,#406,#408,.T.);
#406 = VERTEX_POINT('',#407);
#407 = CARTESIAN_POINT('',(130.25,42.75,73.528890704873));
#408 = HYPERBOLA('',#409,3.398194778296,6.25);
#409 = AXIS2_PLACEMENT_3D('',#410,#411,#412);
#410 = CARTESIAN_POINT('',(130.25,41.,70.));
#411 = DIRECTION('',(-1.,0.,0.));
#412 = DIRECTION('',(0.,2.2E-16,1.));
#413 = ORIENTED_EDGE('',*,*,#414,.T.);
#414 = EDGE_CURVE('',#406,#415,#417,.T.);
#415 = VERTEX_POINT('',#416);
#416 = CARTESIAN_POINT('',(128.14578098794,42.75,72.446700240373));
#417 = HYPERBOLA('',#418,0.951494537923,1.75);
#418 = AXIS2_PLACEMENT_3D('',#419,#420,#421);
#419 = CARTESIAN_POINT('',(124.,42.75,70.));
#420 = DIRECTION('',(1.25E-15,-1.,-2.9E-16));
#421 = DIRECTION('',(0.,-2.9E-16,1.));
#422 = ORIENTED_EDGE('',*,*,#423,.F.);
#423 = EDGE_CURVE('',#424,#415,#426,.T.);
#424 = VERTEX_POINT('',#425);
#425 = CARTESIAN_POINT('',(119.85421901205,42.75,72.446700240373));
#426 = CIRCLE('',#427,4.5);
#427 = AXIS2_PLACEMENT_3D('',#428,#429,#430);
#428 = CARTESIAN_POINT('',(124.,41.,72.446700240373));
#429 = DIRECTION('',(0.,0.,-1.));
#430 = DIRECTION('',(0.,1.,0.));
#431 = ORIENTED_EDGE('',*,*,#432,.T.);
#432 = EDGE_CURVE('',#424,#433,#435,.T.);
#433 = VERTEX_POINT('',#434);
#434 = CARTESIAN_POINT('',(117.75,42.75,73.528890704873));
#435 = HYPERBOLA('',#436,0.951494537923,1.75);
#436 = AXIS2_PLACEMENT_3D('',#437,#438,#439);
#437 = CARTESIAN_POINT('',(124.,42.75,70.));
#438 = DIRECTION('',(2.16E-15,-1.,5.1E-16));
#439 = DIRECTION('',(0.,5.1E-16,1.));
#440 = ORIENTED_EDGE('',*,*,#441,.T.);
#441 = EDGE_CURVE('',#433,#442,#444,.T.);
#442 = VERTEX_POINT('',#443);
#443 = CARTESIAN_POINT('',(117.75,39.25,73.528890704873));
#444 = HYPERBOLA('',#445,3.398194778296,6.25);
#445 = AXIS2_PLACEMENT_3D('',#446,#447,#448);
#446 = CARTESIAN_POINT('',(117.75,41.,70.));
#447 = DIRECTION('',(1.,0.,-0.));
#448 = DIRECTION('',(0.,2.2E-16,1.));
#449 = ORIENTED_EDGE('',*,*,#450,.T.);
#450 = EDGE_CURVE('',#442,#451,#453,.T.);
#451 = VERTEX_POINT('',#452);
#452 = CARTESIAN_POINT('',(119.85421901205,39.25,72.446700240373));
#453 = HYPERBOLA('',#454,0.951494537923,1.75);
#454 = AXIS2_PLACEMENT_3D('',#455,#456,#457);
#455 = CARTESIAN_POINT('',(124.,39.25,70.));
#456 = DIRECTION('',(2.16E-15,1.,5.E-16));
#457 = DIRECTION('',(0.,-5.E-16,1.));
#458 = ORIENTED_EDGE('',*,*,#459,.F.);
#459 = EDGE_CURVE('',#460,#451,#462,.T.);
#460 = VERTEX_POINT('',#461);
#461 = CARTESIAN_POINT('',(128.14578098794,39.25,72.446700240373));
#462 = CIRCLE('',#463,4.5);
#463 = AXIS2_PLACEMENT_3D('',#464,#465,#466);
#464 = CARTESIAN_POINT('',(124.,41.,72.446700240373));
#465 = DIRECTION('',(0.,0.,-1.));
#466 = DIRECTION('',(0.,1.,0.));
#467 = ORIENTED_EDGE('',*,*,#468,.T.);
#468 = EDGE_CURVE('',#460,#385,#469,.T.);
#469 = HYPERBOLA('',#470,0.951494537923,1.75);
#470 = AXIS2_PLACEMENT_3D('',#471,#472,#473);
#471 = CARTESIAN_POINT('',(124.,39.25,70.));
#472 = DIRECTION('',(1.22E-15,1.,-2.9E-16));
#473 = DIRECTION('',(0.,2.9E-16,1.));
#474 = CONICAL_SURFACE('',#475,0.,1.072794214542);
#475 = AXIS2_PLACEMENT_3D('',#476,#477,#478);
#476 = CARTESIAN_POINT('',(124.,41.,70.));
#477 = DIRECTION('',(0.,2.2E-16,1.));
#478 = DIRECTION('',(1.,0.,0.));
#479 = ADVANCED_FACE('',(#480,#484),#495,.F.);
#480 = FACE_BOUND('',#481,.F.);
#481 = EDGE_LOOP('',(#482,#483));
#482 = ORIENTED_EDGE('',*,*,#141,.F.);
#483 = ORIENTED_EDGE('',*,*,#225,.F.);
#484 = FACE_BOUND('',#485,.F.);
#485 = EDGE_LOOP('',(#486));
#486 = ORIENTED_EDGE('',*,*,#487,.F.);
#487 = EDGE_CURVE('',#488,#488,#490,.T.);
#488 = VERTEX_POINT('',#489);
#489 = CARTESIAN_POINT('',(125.15,41.,41.5));
#490 = CIRCLE('',#491,1.15);
#491 = AXIS2_PLACEMENT_3D('',#492,#493,#494);
#492 = CARTESIAN_POINT('',(124.,41.,41.5));
#493 = DIRECTION('',(0.,0.,1.));
#494 = DIRECTION('',(1.,0.,0.));
#495 = PLANE('',#496);
#496 = AXIS2_PLACEMENT_3D('',#497,#498,#499);
#497 = CARTESIAN_POINT('',(124.,41.,41.5));
#498 = DIRECTION('',(0.,0.,1.));
#499 = DIRECTION('',(1.,0.,0.));
#500 = ADVANCED_FACE('',(#501,#511,#616),#721,.F.);
#501 = FACE_BOUND('',#502,.F.);
#502 = EDGE_LOOP('',(#503,#504,#509,#510));
#503 = ORIENTED_EDGE('',*,*,#236,.T.);
#504 = ORIENTED_EDGE('',*,*,#505,.T.);
#505 = EDGE_CURVE('',#237,#207,#506,.T.);
#506 = B_SPLINE_CURVE_WITH_KNOTS('',1,(#507,#508),.UNSPECIFIED.,.F.,.F.,
  (2,2),(-5.834380858326,5.834380858326),.PIECEWISE_BEZIER_KNOTS.);
#507 = CARTESIAN_POINT('',(125.4,46.834380858326,51.9));
#508 = CARTESIAN_POINT('',(125.4,35.165619141674,51.9));
#509 = ORIENTED_EDGE('',*,*,#206,.F.);
#510 = ORIENTED_EDGE('',*,*,#505,.F.);
#511 = FACE_BOUND('',#512,.F.);
#512 = EDGE_LOOP('',(#513));
#513 = ORIENTED_EDGE('',*,*,#514,.T.);
#514 = EDGE_CURVE('',#515,#515,#517,.T.);
#515 = VERTEX_POINT('',#516);
#516 = CARTESIAN_POINT('',(125.15,41.,51.101564028866));
#517 = B_SPLINE_CURVE_WITH_KNOTS('',7,(#518,#519,#520,#521,#522,#523,
    #524,#525,#526,#527,#528,#529,#530,#531,#532,#533,#534,#535,#536,
    #537,#538,#539,#540,#541,#542,#543,#544,#545,#546,#547,#548,#549,
    #550,#551,#552,#553,#554,#555,#556,#557,#558,#559,#560,#561,#562,
    #563,#564,#565,#566,#567,#568,#569,#570,#571,#572,#573,#574,#575,
    #576,#577,#578,#579,#580,#581,#582,#583,#584,#585,#586,#587,#588,
    #589,#590,#591,#592,#593,#594,#595,#596,#597,#598,#599,#600,#601,
    #602,#603,#604,#605,#606,#607,#608,#609,#610,#611,#612,#613,#614,
    #615),.UNSPECIFIED.,.T.,.F.,(8,6,6,6,6,6,6,6,6,6,6,6,6,6,6,6,8),(0.,
    4.178835999047E-02,0.105971220124,0.184431536371,0.248997944524,
    0.291680207101,0.392625403353,0.457401963142,0.499330639417,
    0.541501168504,0.6057727555,0.68434153587,0.748997201099,
    0.791738467942,0.892823211547,0.957689318911,1.),.UNSPECIFIED.);
#518 = CARTESIAN_POINT('',(125.15,41.,51.101564028866));
#519 = CARTESIAN_POINT('',(125.15,41.044030494104,51.101564028866));
#520 = CARTESIAN_POINT('',(125.1480332166,41.087842282038,
    51.098731331854));
#521 = CARTESIAN_POINT('',(125.1441348289,41.131329550025,
    51.093116118779));
#522 = CARTESIAN_POINT('',(125.13834689152,41.174367979555,
    51.084873838199));
#523 = CARTESIAN_POINT('',(125.1307281112,41.216791109076,
    51.074266542685));
#524 = CARTESIAN_POINT('',(125.12138197892,41.258370798812,
    51.061655430921));
#525 = CARTESIAN_POINT('',(125.09379459874,41.360899885601,
    51.025719569365));
#526 = CARTESIAN_POINT('',(125.07332937694,41.420815179282,
    51.000090335617));
#527 = CARTESIAN_POINT('',(125.04936260604,41.478609892779,
    50.971659187767));
#528 = CARTESIAN_POINT('',(125.02207632172,41.534275222629,
    50.941361039263));
#529 = CARTESIAN_POINT('',(124.99158770709,41.587820659768,
    50.909918428526));
#530 = CARTESIAN_POINT('',(124.95792181757,41.639294131949,
    50.877847583001));
#531 = CARTESIAN_POINT('',(124.87575138001,41.749169478338,
    50.806080147616));
#532 = CARTESIAN_POINT('',(124.82562298078,41.806552396826,
    50.766282421287));
#533 = CARTESIAN_POINT('',(124.77052417257,41.860697463916,
    50.727066831285));
#534 = CARTESIAN_POINT('',(124.71037746443,41.91127041088,
    50.689222949175));
#535 = CARTESIAN_POINT('',(124.64509870902,41.95779870308,
    50.653527320815));
#536 = CARTESIAN_POINT('',(124.57464074478,41.999663834707,
    50.620807355621));
#537 = CARTESIAN_POINT('',(124.43684388407,42.066036917781,
    50.568234178761));
#538 = CARTESIAN_POINT('',(124.37091340406,42.092425703422,
    50.547033478713));
#539 = CARTESIAN_POINT('',(124.30179117312,42.114478403685,
    50.529120592977));
#540 = CARTESIAN_POINT('',(124.23009725013,42.131607753404,
    50.515104944576));
#541 = CARTESIAN_POINT('',(124.15651495173,42.1433882291,50.505431160377
    ));
#542 = CARTESIAN_POINT('',(124.08176712967,42.149550163401,
    50.500369506702));
#543 = CARTESIAN_POINT('',(123.95689722504,42.150265983066,
    50.49978151512));
#544 = CARTESIAN_POINT('',(123.907226431,42.148045179582,50.501605595813
    ));
#545 = CARTESIAN_POINT('',(123.85783775371,42.143324339131,
    50.505484271397));
#546 = CARTESIAN_POINT('',(123.80898907588,42.136152440183,
    50.511368296246));
#547 = CARTESIAN_POINT('',(123.76093344344,42.126622372311,
    50.519163743883));
#548 = CARTESIAN_POINT('',(123.71391418814,42.114871513493,
    50.528733080158));
#549 = CARTESIAN_POINT('',(123.55994975026,42.068470303526,
    50.566297531272));
#550 = CARTESIAN_POINT('',(123.45944431884,42.024646708777,
    50.601460990279));
#551 = CARTESIAN_POINT('',(123.36720558104,41.971565199177,
    50.643389314002));
#552 = CARTESIAN_POINT('',(123.2834470875,41.910813116647,
    50.690216583331));
#553 = CARTESIAN_POINT('',(123.20818215779,41.843664546885,
    50.740184618148));
#554 = CARTESIAN_POINT('',(123.14132055886,41.77109088327,
    50.791546273005));
#555 = CARTESIAN_POINT('',(123.04524602539,41.644065463922,
    50.874858281519));
#556 = CARTESIAN_POINT('',(123.01105876226,41.592346185667,
    50.907230295374));
#557 = CARTESIAN_POINT('',(122.98009951196,41.538524145272,
    50.938997279862));
#558 = CARTESIAN_POINT('',(122.9523887445,41.482549980612,
    50.969639292729));
#559 = CARTESIAN_POINT('',(122.92804279033,41.424412822922,
    50.998425632362));
#560 = CARTESIAN_POINT('',(122.90724592441,41.364121440958,
    51.024405865718));
#561 = CARTESIAN_POINT('',(122.87926044928,41.261152881661,
    51.060793102652));
#562 = CARTESIAN_POINT('',(122.86979744083,41.219535133583,
    51.073541705061));
#563 = CARTESIAN_POINT('',(122.86206436208,41.177065090023,
    51.084294284729));
#564 = CARTESIAN_POINT('',(122.8561658869,41.133970638915,
    51.092686113271));
#565 = CARTESIAN_POINT('',(122.8521616525,41.090417463916,
    51.098450718418));
#566 = CARTESIAN_POINT('',(122.85009481374,41.046528177934,
    51.101427468032));
#567 = CARTESIAN_POINT('',(122.84990968604,40.958028552651,
    51.101694108599));
#568 = CARTESIAN_POINT('',(122.85181518114,40.913863920101,51.0989497484
    ));
#569 = CARTESIAN_POINT('',(122.85568411072,40.870021439602,
    51.093374062926));
#570 = CARTESIAN_POINT('',(122.86147417044,40.826629058666,
    51.085123027543));
#571 = CARTESIAN_POINT('',(122.86912593682,40.783857855145,
    51.074463453908));
#572 = CARTESIAN_POINT('',(122.87853368679,40.741942631352,
    51.06176528641));
#573 = CARTESIAN_POINT('',(122.90620540125,40.639100114399,
    51.025719569365));
#574 = CARTESIAN_POINT('',(122.92667062305,40.579184820718,
    51.000090335617));
#575 = CARTESIAN_POINT('',(122.95063739395,40.521390107221,
    50.971659187767));
#576 = CARTESIAN_POINT('',(122.97792367828,40.465724777371,
    50.941361039263));
#577 = CARTESIAN_POINT('',(123.0084122929,40.412179340232,
    50.909918428526));
#578 = CARTESIAN_POINT('',(123.04207818242,40.360705868051,
    50.877847583001));
#579 = CARTESIAN_POINT('',(123.12424861998,40.250830521662,
    50.806080147616));
#580 = CARTESIAN_POINT('',(123.17437701921,40.193447603174,
    50.766282421287));
#581 = CARTESIAN_POINT('',(123.22947582742,40.139302536084,
    50.727066831285));
#582 = CARTESIAN_POINT('',(123.28962253556,40.088729589119,
    50.689222949175));
#583 = CARTESIAN_POINT('',(123.35490129097,40.04220129692,
    50.653527320815));
#584 = CARTESIAN_POINT('',(123.42535925521,40.000336165293,
    50.620807355621));
#585 = CARTESIAN_POINT('',(123.56315611592,39.933963082222,
    50.568234178763));
#586 = CARTESIAN_POINT('',(123.62908659593,39.907574296578,
    50.547033478712));
#587 = CARTESIAN_POINT('',(123.69820882687,39.885521596313,
    50.529120592975));
#588 = CARTESIAN_POINT('',(123.76990274986,39.868392246596,
    50.515104944576));
#589 = CARTESIAN_POINT('',(123.84348504826,39.856611770901,
    50.505431160378));
#590 = CARTESIAN_POINT('',(123.91823287031,39.850449836599,
    50.500369506702));
#591 = CARTESIAN_POINT('',(124.04310277494,39.849734016935,
    50.49978151512));
#592 = CARTESIAN_POINT('',(124.09277356899,39.851954820418,
    50.501605595812));
#593 = CARTESIAN_POINT('',(124.14216224628,39.856675660869,
    50.505484271397));
#594 = CARTESIAN_POINT('',(124.19101092411,39.863847559817,
    50.511368296247));
#595 = CARTESIAN_POINT('',(124.23906655655,39.87337762769,
    50.519163743884));
#596 = CARTESIAN_POINT('',(124.28608581185,39.885128486505,
    50.528733080157));
#597 = CARTESIAN_POINT('',(124.44005024973,39.931529696474,
    50.566297531272));
#598 = CARTESIAN_POINT('',(124.54055568115,39.975353291223,
    50.601460990279));
#599 = CARTESIAN_POINT('',(124.63279441895,40.028434800823,
    50.643389314002));
#600 = CARTESIAN_POINT('',(124.71655291249,40.089186883352,
    50.690216583331));
#601 = CARTESIAN_POINT('',(124.7918178422,40.156335453115,
    50.740184618148));
#602 = CARTESIAN_POINT('',(124.85867944113,40.22890911673,
    50.791546273005));
#603 = CARTESIAN_POINT('',(124.9547539746,40.355934536078,
    50.874858281519));
#604 = CARTESIAN_POINT('',(124.98894123773,40.407653814333,
    50.907230295373));
#605 = CARTESIAN_POINT('',(125.01990048803,40.461475854727,
    50.938997279862));
#606 = CARTESIAN_POINT('',(125.04761125549,40.517450019388,
    50.969639292729));
#607 = CARTESIAN_POINT('',(125.07195720967,40.575587177078,
    50.998425632362));
#608 = CARTESIAN_POINT('',(125.09275407558,40.635878559042,
    51.024405865718));
#609 = CARTESIAN_POINT('',(125.12082441964,40.739159381445,
    51.060903450818));
#610 = CARTESIAN_POINT('',(125.13034995204,40.781112540936,
    51.073740232435));
#611 = CARTESIAN_POINT('',(125.1381169475,40.82393103505,51.084546447053
    ));
#612 = CARTESIAN_POINT('',(125.14401836758,40.867379931615,
    51.092948365687));
#613 = CARTESIAN_POINT('',(125.14799384368,40.91128869328,
    51.098674627598));
#614 = CARTESIAN_POINT('',(125.15,40.955530965787,51.101564028866));
#615 = CARTESIAN_POINT('',(125.15,41.,51.101564028866));
#616 = FACE_BOUND('',#617,.F.);
#617 = EDGE_LOOP('',(#618));
#618 = ORIENTED_EDGE('',*,*,#619,.F.);
#619 = EDGE_CURVE('',#620,#620,#622,.T.);
#620 = VERTEX_POINT('',#621);
#621 = CARTESIAN_POINT('',(125.15,41.,52.698435971134));
#622 = B_SPLINE_CURVE_WITH_KNOTS('',7,(#623,#624,#625,#626,#627,#628,
    #629,#630,#631,#632,#633,#634,#635,#636,#637,#638,#639,#640,#641,
    #642,#643,#644,#645,#646,#647,#648,#649,#650,#651,#652,#653,#654,
    #655,#656,#657,#658,#659,#660,#661,#662,#663,#664,#665,#666,#667,
    #668,#669,#670,#671,#672,#673,#674,#675,#676,#677,#678,#679,#680,
    #681,#682,#683,#684,#685,#686,#687,#688,#689,#690,#691,#692,#693,
    #694,#695,#696,#697,#698,#699,#700,#701,#702,#703,#704,#705,#706,
    #707,#708,#709,#710,#711,#712,#713,#714,#715,#716,#717,#718,#719,
    #720),.UNSPECIFIED.,.T.,.F.,(8,6,6,6,6,6,6,6,6,6,6,6,6,6,6,6,8),(0.,
    4.17883614316E-02,0.105971223779,0.184431542731,0.248997953111,
    0.291680217156,0.392625414698,0.457401973865,0.499330649737,
    0.541501178474,0.605772765031,0.684341544864,0.748997209656,
    0.791738476214,0.892823216969,0.957689321051,1.),.UNSPECIFIED.);
#623 = CARTESIAN_POINT('',(125.15,41.,52.698435971134));
#624 = CARTESIAN_POINT('',(125.15,41.044030494104,52.698435971134));
#625 = CARTESIAN_POINT('',(125.1480332166,41.087842282038,
    52.701268668146));
#626 = CARTESIAN_POINT('',(125.1441348289,41.131329550025,
    52.706883881221));
#627 = CARTESIAN_POINT('',(125.13834689152,41.174367979555,
    52.715126161801));
#628 = CARTESIAN_POINT('',(125.1307281112,41.216791109076,
    52.725733457315));
#629 = CARTESIAN_POINT('',(125.12138197892,41.258370798812,
    52.738344569079));
#630 = CARTESIAN_POINT('',(125.09379459874,41.360899885601,
    52.774280430635));
#631 = CARTESIAN_POINT('',(125.07332937694,41.420815179282,
    52.799909664383));
#632 = CARTESIAN_POINT('',(125.04936260604,41.478609892779,
    52.828340812233));
#633 = CARTESIAN_POINT('',(125.02207632172,41.534275222629,
    52.858638960737));
#634 = CARTESIAN_POINT('',(124.99158770709,41.587820659768,
    52.890081571474));
#635 = CARTESIAN_POINT('',(124.95792181757,41.639294131949,
    52.922152416999));
#636 = CARTESIAN_POINT('',(124.87575138001,41.749169478338,
    52.993919852384));
#637 = CARTESIAN_POINT('',(124.82562298078,41.806552396826,
    53.033717578713));
#638 = CARTESIAN_POINT('',(124.77052417257,41.860697463916,
    53.072933168715));
#639 = CARTESIAN_POINT('',(124.71037746443,41.911270410881,
    53.110777050825));
#640 = CARTESIAN_POINT('',(124.64509870902,41.95779870308,
    53.146472679185));
#641 = CARTESIAN_POINT('',(124.57464074478,41.999663834707,
    53.179192644379));
#642 = CARTESIAN_POINT('',(124.43684388407,42.066036917781,
    53.231765821239));
#643 = CARTESIAN_POINT('',(124.37091340406,42.092425703422,
    53.252966521287));
#644 = CARTESIAN_POINT('',(124.30179117312,42.114478403685,
    53.270879407023));
#645 = CARTESIAN_POINT('',(124.23009725013,42.131607753404,
    53.284895055424));
#646 = CARTESIAN_POINT('',(124.15651495173,42.1433882291,53.294568839623
    ));
#647 = CARTESIAN_POINT('',(124.08176712967,42.149550163401,
    53.299630493299));
#648 = CARTESIAN_POINT('',(123.95689722505,42.150265983065,
    53.30021848488));
#649 = CARTESIAN_POINT('',(123.907226431,42.148045179582,53.298394404188
    ));
#650 = CARTESIAN_POINT('',(123.85783775371,42.143324339131,
    53.294515728603));
#651 = CARTESIAN_POINT('',(123.80898907588,42.136152440183,
    53.288631703753));
#652 = CARTESIAN_POINT('',(123.76093344344,42.12662237231,
    53.280836256116));
#653 = CARTESIAN_POINT('',(123.71391418814,42.114871513495,
    53.271266919843));
#654 = CARTESIAN_POINT('',(123.55994975259,42.068470304229,
    53.233702469296));
#655 = CARTESIAN_POINT('',(123.45944431327,42.024646707518,
    53.19853900859));
#656 = CARTESIAN_POINT('',(123.36720558577,41.97156519857,
    53.156610685939));
#657 = CARTESIAN_POINT('',(123.28344708752,41.910813120509,
    53.109783419048));
#658 = CARTESIAN_POINT('',(123.20818215516,41.843664542561,
    53.059815379025));
#659 = CARTESIAN_POINT('',(123.14132056017,41.771090885003,
    53.008453728131));
#660 = CARTESIAN_POINT('',(123.04524602539,41.644065463922,
    52.925141718481));
#661 = CARTESIAN_POINT('',(123.01105876226,41.592346185667,
    52.892769704627));
#662 = CARTESIAN_POINT('',(122.98009951196,41.538524145273,
    52.861002720138));
#663 = CARTESIAN_POINT('',(122.9523887445,41.482549980612,
    52.830360707271));
#664 = CARTESIAN_POINT('',(122.92804279033,41.424412822922,
    52.801574367638));
#665 = CARTESIAN_POINT('',(122.90724592441,41.364121440958,
    52.775594134282));
#666 = CARTESIAN_POINT('',(122.87926044928,41.261152881661,
    52.739206897348));
#667 = CARTESIAN_POINT('',(122.86979744083,41.219535133583,
    52.726458294939));
#668 = CARTESIAN_POINT('',(122.86206436208,41.177065090023,
    52.715705715271));
#669 = CARTESIAN_POINT('',(122.8561658869,41.133970638915,
    52.707313886729));
#670 = CARTESIAN_POINT('',(122.8521616525,41.090417463916,
    52.701549281582));
#671 = CARTESIAN_POINT('',(122.85009481374,41.046528177934,
    52.698572531968));
#672 = CARTESIAN_POINT('',(122.84990968604,40.958028552593,
    52.698305891401));
#673 = CARTESIAN_POINT('',(122.85181518115,40.913863920091,
    52.701050251608));
#674 = CARTESIAN_POINT('',(122.85568411072,40.870021439647,
    52.706625937071));
#675 = CARTESIAN_POINT('',(122.86147417043,40.826629058716,
    52.714876972443));
#676 = CARTESIAN_POINT('',(122.86912593682,40.783857855142,
    52.725536546087));
#677 = CARTESIAN_POINT('',(122.87853368681,40.741942631292,
    52.738234713611));
#678 = CARTESIAN_POINT('',(122.90620540125,40.639100114399,
    52.774280430635));
#679 = CARTESIAN_POINT('',(122.92667062305,40.579184820718,
    52.799909664383));
#680 = CARTESIAN_POINT('',(122.95063739395,40.521390107221,
    52.828340812233));
#681 = CARTESIAN_POINT('',(122.97792367828,40.465724777371,
    52.858638960737));
#682 = CARTESIAN_POINT('',(123.0084122929,40.412179340232,
    52.890081571474));
#683 = CARTESIAN_POINT('',(123.04207818242,40.360705868051,
    52.922152416999));
#684 = CARTESIAN_POINT('',(123.12424861998,40.250830521662,
    52.993919852384));
#685 = CARTESIAN_POINT('',(123.17437701921,40.193447603174,
    53.033717578713));
#686 = CARTESIAN_POINT('',(123.22947582742,40.139302536084,
    53.072933168715));
#687 = CARTESIAN_POINT('',(123.28962253556,40.088729589119,
    53.110777050825));
#688 = CARTESIAN_POINT('',(123.35490129097,40.04220129692,
    53.146472679185));
#689 = CARTESIAN_POINT('',(123.42535925521,40.000336165293,
    53.179192644379));
#690 = CARTESIAN_POINT('',(123.56315611592,39.933963082219,
    53.231765821239));
#691 = CARTESIAN_POINT('',(123.62908659593,39.907574296578,
    53.252966521287));
#692 = CARTESIAN_POINT('',(123.69820882687,39.885521596315,
    53.270879407023));
#693 = CARTESIAN_POINT('',(123.76990274986,39.868392246596,
    53.284895055424));
#694 = CARTESIAN_POINT('',(123.84348504826,39.8566117709,53.294568839623
    ));
#695 = CARTESIAN_POINT('',(123.91823287032,39.850449836599,
    53.299630493299));
#696 = CARTESIAN_POINT('',(124.04310277494,39.849734016935,
    53.30021848488));
#697 = CARTESIAN_POINT('',(124.09277356899,39.851954820418,
    53.298394404188));
#698 = CARTESIAN_POINT('',(124.14216224628,39.856675660869,
    53.294515728603));
#699 = CARTESIAN_POINT('',(124.19101092411,39.863847559817,
    53.288631703753));
#700 = CARTESIAN_POINT('',(124.23906655655,39.87337762769,
    53.280836256116));
#701 = CARTESIAN_POINT('',(124.28608581185,39.885128486505,
    53.271266919843));
#702 = CARTESIAN_POINT('',(124.4400502474,39.931529695771,
    53.233702469296));
#703 = CARTESIAN_POINT('',(124.54055568672,39.975353292482,
    53.198539008589));
#704 = CARTESIAN_POINT('',(124.63279441422,40.028434801429,
    53.156610685939));
#705 = CARTESIAN_POINT('',(124.71655291247,40.089186879492,
    53.109783419048));
#706 = CARTESIAN_POINT('',(124.79181784483,40.156335457439,
    53.059815379025));
#707 = CARTESIAN_POINT('',(124.85867943982,40.228909114998,
    53.008453728131));
#708 = CARTESIAN_POINT('',(124.9547539746,40.355934536078,
    52.925141718481));
#709 = CARTESIAN_POINT('',(124.98894123773,40.407653814333,
    52.892769704626));
#710 = CARTESIAN_POINT('',(125.01990048803,40.461475854727,
    52.861002720138));
#711 = CARTESIAN_POINT('',(125.04761125549,40.517450019388,
    52.830360707271));
#712 = CARTESIAN_POINT('',(125.07195720967,40.575587177078,
    52.801574367638));
#713 = CARTESIAN_POINT('',(125.09275407558,40.635878559042,
    52.775594134282));
#714 = CARTESIAN_POINT('',(125.12082441964,40.739159381445,
    52.739096549182));
#715 = CARTESIAN_POINT('',(125.13034995204,40.781112540936,
    52.726259767566));
#716 = CARTESIAN_POINT('',(125.1381169475,40.82393103505,52.715453552947
    ));
#717 = CARTESIAN_POINT('',(125.14401836758,40.867379931615,
    52.707051634313));
#718 = CARTESIAN_POINT('',(125.14799384368,40.91128869328,
    52.701325372402));
#719 = CARTESIAN_POINT('',(125.15,40.955530965787,52.698435971134));
#720 = CARTESIAN_POINT('',(125.15,41.,52.698435971134));
#721 = CYLINDRICAL_SURFACE('',#722,1.4);
#722 = AXIS2_PLACEMENT_3D('',#723,#724,#725);
#723 = CARTESIAN_POINT('',(124.,41.,51.9));
#724 = DIRECTION('',(0.,-1.,2.2E-16));
#725 = DIRECTION('',(1.,0.,0.));
#726 = ADVANCED_FACE('',(#727),#753,.T.);
#727 = FACE_BOUND('',#728,.T.);
#728 = EDGE_LOOP('',(#729,#739,#745,#746,#747));
#729 = ORIENTED_EDGE('',*,*,#730,.F.);
#730 = EDGE_CURVE('',#731,#733,#735,.T.);
#731 = VERTEX_POINT('',#732);
#732 = CARTESIAN_POINT('',(130.25,39.25,64.5));
#733 = VERTEX_POINT('',#734);
#734 = CARTESIAN_POINT('',(130.25,42.75,64.5));
#735 = LINE('',#736,#737);
#736 = CARTESIAN_POINT('',(130.25,39.25,64.5));
#737 = VECTOR('',#738,1.);
#738 = DIRECTION('',(0.,1.,0.));
#739 = ORIENTED_EDGE('',*,*,#740,.T.);
#740 = EDGE_CURVE('',#731,#385,#741,.T.);
#741 = LINE('',#742,#743);
#742 = CARTESIAN_POINT('',(130.25,39.25,73.));
#743 = VECTOR('',#744,1.);
#744 = DIRECTION('',(0.,0.,1.));
#745 = ORIENTED_EDGE('',*,*,#384,.T.);
#746 = ORIENTED_EDGE('',*,*,#405,.T.);
#747 = ORIENTED_EDGE('',*,*,#748,.T.);
#748 = EDGE_CURVE('',#406,#733,#749,.T.);
#749 = LINE('',#750,#751);
#750 = CARTESIAN_POINT('',(130.25,42.75,73.));
#751 = VECTOR('',#752,1.);
#752 = DIRECTION('',(-0.,-0.,-1.));
#753 = PLANE('',#754);
#754 = AXIS2_PLACEMENT_3D('',#755,#756,#757);
#755 = CARTESIAN_POINT('',(130.25,41.,69.25));
#756 = DIRECTION('',(-1.,-0.,-0.));
#757 = DIRECTION('',(0.,0.,-1.));
#758 = ADVANCED_FACE('',(#759),#777,.T.);
#759 = FACE_BOUND('',#760,.T.);
#760 = EDGE_LOOP('',(#761,#769,#770,#771));
#761 = ORIENTED_EDGE('',*,*,#762,.T.);
#762 = EDGE_CURVE('',#763,#460,#765,.T.);
#763 = VERTEX_POINT('',#764);
#764 = CARTESIAN_POINT('',(128.14578098794,39.25,64.5));
#765 = LINE('',#766,#767);
#766 = CARTESIAN_POINT('',(128.14578098794,39.25,73.));
#767 = VECTOR('',#768,1.);
#768 = DIRECTION('',(0.,0.,1.));
#769 = ORIENTED_EDGE('',*,*,#468,.T.);
#770 = ORIENTED_EDGE('',*,*,#740,.F.);
#771 = ORIENTED_EDGE('',*,*,#772,.F.);
#772 = EDGE_CURVE('',#763,#731,#773,.T.);
#773 = LINE('',#774,#775);
#774 = CARTESIAN_POINT('',(117.75,39.25,64.5));
#775 = VECTOR('',#776,1.);
#776 = DIRECTION('',(1.,0.,0.));
#777 = PLANE('',#778);
#778 = AXIS2_PLACEMENT_3D('',#779,#780,#781);
#779 = CARTESIAN_POINT('',(129.19789049397,39.25,69.25));
#780 = DIRECTION('',(1.22E-15,1.,-2.9E-16));
#781 = DIRECTION('',(1.,-1.22E-15,0.));
#782 = ADVANCED_FACE('',(#783),#802,.F.);
#783 = FACE_BOUND('',#784,.T.);
#784 = EDGE_LOOP('',(#785,#794,#800,#801));
#785 = ORIENTED_EDGE('',*,*,#786,.F.);
#786 = EDGE_CURVE('',#787,#763,#789,.T.);
#787 = VERTEX_POINT('',#788);
#788 = CARTESIAN_POINT('',(119.85421901205,39.25,64.5));
#789 = CIRCLE('',#790,4.5);
#790 = AXIS2_PLACEMENT_3D('',#791,#792,#793);
#791 = CARTESIAN_POINT('',(124.,41.,64.5));
#792 = DIRECTION('',(0.,0.,1.));
#793 = DIRECTION('',(1.,0.,0.));
#794 = ORIENTED_EDGE('',*,*,#795,.T.);
#795 = EDGE_CURVE('',#787,#451,#796,.T.);
#796 = LINE('',#797,#798);
#797 = CARTESIAN_POINT('',(119.85421901205,39.25,73.));
#798 = VECTOR('',#799,1.);
#799 = DIRECTION('',(0.,0.,1.));
#800 = ORIENTED_EDGE('',*,*,#459,.F.);
#801 = ORIENTED_EDGE('',*,*,#762,.F.);
#802 = CYLINDRICAL_SURFACE('',#803,4.5);
#803 = AXIS2_PLACEMENT_3D('',#804,#805,#806);
#804 = CARTESIAN_POINT('',(124.,41.,73.));
#805 = DIRECTION('',(-0.,-0.,-1.));
#806 = DIRECTION('',(1.,0.,0.));
#807 = ADVANCED_FACE('',(#808),#826,.T.);
#808 = FACE_BOUND('',#809,.T.);
#809 = EDGE_LOOP('',(#810,#818,#824,#825));
#810 = ORIENTED_EDGE('',*,*,#811,.F.);
#811 = EDGE_CURVE('',#812,#787,#814,.T.);
#812 = VERTEX_POINT('',#813);
#813 = CARTESIAN_POINT('',(117.75,39.25,64.5));
#814 = LINE('',#815,#816);
#815 = CARTESIAN_POINT('',(117.75,39.25,64.5));
#816 = VECTOR('',#817,1.);
#817 = DIRECTION('',(1.,0.,0.));
#818 = ORIENTED_EDGE('',*,*,#819,.T.);
#819 = EDGE_CURVE('',#812,#442,#820,.T.);
#820 = LINE('',#821,#822);
#821 = CARTESIAN_POINT('',(117.75,39.25,73.));
#822 = VECTOR('',#823,1.);
#823 = DIRECTION('',(0.,0.,1.));
#824 = ORIENTED_EDGE('',*,*,#450,.T.);
#825 = ORIENTED_EDGE('',*,*,#795,.F.);
#826 = PLANE('',#827);
#827 = AXIS2_PLACEMENT_3D('',#828,#829,#830);
#828 = CARTESIAN_POINT('',(118.80210950602,39.25,69.25));
#829 = DIRECTION('',(2.16E-15,1.,5.E-16));
#830 = DIRECTION('',(1.,-2.16E-15,0.));
#831 = ADVANCED_FACE('',(#832),#850,.T.);
#832 = FACE_BOUND('',#833,.T.);
#833 = EDGE_LOOP('',(#834,#842,#848,#849));
#834 = ORIENTED_EDGE('',*,*,#835,.F.);
#835 = EDGE_CURVE('',#836,#812,#838,.T.);
#836 = VERTEX_POINT('',#837);
#837 = CARTESIAN_POINT('',(117.75,42.75,64.5));
#838 = LINE('',#839,#840);
#839 = CARTESIAN_POINT('',(117.75,42.75,64.5));
#840 = VECTOR('',#841,1.);
#841 = DIRECTION('',(0.,-1.,0.));
#842 = ORIENTED_EDGE('',*,*,#843,.T.);
#843 = EDGE_CURVE('',#836,#433,#844,.T.);
#844 = LINE('',#845,#846);
#845 = CARTESIAN_POINT('',(117.75,42.75,73.));
#846 = VECTOR('',#847,1.);
#847 = DIRECTION('',(0.,0.,1.));
#848 = ORIENTED_EDGE('',*,*,#441,.T.);
#849 = ORIENTED_EDGE('',*,*,#819,.F.);
#850 = PLANE('',#851);
#851 = AXIS2_PLACEMENT_3D('',#852,#853,#854);
#852 = CARTESIAN_POINT('',(117.75,41.,69.25));
#853 = DIRECTION('',(1.,0.,0.));
#854 = DIRECTION('',(0.,0.,1.));
#855 = ADVANCED_FACE('',(#856),#874,.T.);
#856 = FACE_BOUND('',#857,.T.);
#857 = EDGE_LOOP('',(#858,#866,#867,#868));
#858 = ORIENTED_EDGE('',*,*,#859,.T.);
#859 = EDGE_CURVE('',#860,#424,#862,.T.);
#860 = VERTEX_POINT('',#861);
#861 = CARTESIAN_POINT('',(119.85421901205,42.75,64.5));
#862 = LINE('',#863,#864);
#863 = CARTESIAN_POINT('',(119.85421901205,42.75,73.));
#864 = VECTOR('',#865,1.);
#865 = DIRECTION('',(0.,0.,1.));
#866 = ORIENTED_EDGE('',*,*,#432,.T.);
#867 = ORIENTED_EDGE('',*,*,#843,.F.);
#868 = ORIENTED_EDGE('',*,*,#869,.F.);
#869 = EDGE_CURVE('',#860,#836,#870,.T.);
#870 = LINE('',#871,#872);
#871 = CARTESIAN_POINT('',(130.25,42.75,64.5));
#872 = VECTOR('',#873,1.);
#873 = DIRECTION('',(-1.,0.,0.));
#874 = PLANE('',#875);
#875 = AXIS2_PLACEMENT_3D('',#876,#877,#878);
#876 = CARTESIAN_POINT('',(118.80210950602,42.75,69.25));
#877 = DIRECTION('',(2.16E-15,-1.,5.1E-16));
#878 = DIRECTION('',(-1.,-2.16E-15,0.));
#879 = ADVANCED_FACE('',(#880),#899,.F.);
#880 = FACE_BOUND('',#881,.T.);
#881 = EDGE_LOOP('',(#882,#891,#897,#898));
#882 = ORIENTED_EDGE('',*,*,#883,.F.);
#883 = EDGE_CURVE('',#884,#860,#886,.T.);
#884 = VERTEX_POINT('',#885);
#885 = CARTESIAN_POINT('',(128.14578098794,42.75,64.5));
#886 = CIRCLE('',#887,4.5);
#887 = AXIS2_PLACEMENT_3D('',#888,#889,#890);
#888 = CARTESIAN_POINT('',(124.,41.,64.5));
#889 = DIRECTION('',(0.,0.,1.));
#890 = DIRECTION('',(1.,0.,0.));
#891 = ORIENTED_EDGE('',*,*,#892,.T.);
#892 = EDGE_CURVE('',#884,#415,#893,.T.);
#893 = LINE('',#894,#895);
#894 = CARTESIAN_POINT('',(128.14578098794,42.75,73.));
#895 = VECTOR('',#896,1.);
#896 = DIRECTION('',(0.,0.,1.));
#897 = ORIENTED_EDGE('',*,*,#423,.F.);
#898 = ORIENTED_EDGE('',*,*,#859,.F.);
#899 = CYLINDRICAL_SURFACE('',#900,4.5);
#900 = AXIS2_PLACEMENT_3D('',#901,#902,#903);
#901 = CARTESIAN_POINT('',(124.,41.,73.));
#902 = DIRECTION('',(-0.,-0.,-1.));
#903 = DIRECTION('',(1.,0.,0.));
#904 = ADVANCED_FACE('',(#905),#916,.T.);
#905 = FACE_BOUND('',#906,.T.);
#906 = EDGE_LOOP('',(#907,#908,#909,#910));
#907 = ORIENTED_EDGE('',*,*,#748,.F.);
#908 = ORIENTED_EDGE('',*,*,#414,.T.);
#909 = ORIENTED_EDGE('',*,*,#892,.F.);
#910 = ORIENTED_EDGE('',*,*,#911,.F.);
#911 = EDGE_CURVE('',#733,#884,#912,.T.);
#912 = LINE('',#913,#914);
#913 = CARTESIAN_POINT('',(130.25,42.75,64.5));
#914 = VECTOR('',#915,1.);
#915 = DIRECTION('',(-1.,0.,0.));
#916 = PLANE('',#917);
#917 = AXIS2_PLACEMENT_3D('',#918,#919,#920);
#918 = CARTESIAN_POINT('',(129.19789049397,42.75,69.25));
#919 = DIRECTION('',(1.25E-15,-1.,-2.9E-16));
#920 = DIRECTION('',(-1.,-1.25E-15,0.));
#921 = ADVANCED_FACE('',(#922),#933,.F.);
#922 = FACE_BOUND('',#923,.F.);
#923 = EDGE_LOOP('',(#924,#930,#931,#932));
#924 = ORIENTED_EDGE('',*,*,#925,.F.);
#925 = EDGE_CURVE('',#515,#488,#926,.T.);
#926 = LINE('',#927,#928);
#927 = CARTESIAN_POINT('',(125.15,41.,64.5));
#928 = VECTOR('',#929,1.);
#929 = DIRECTION('',(-0.,-0.,-1.));
#930 = ORIENTED_EDGE('',*,*,#514,.F.);
#931 = ORIENTED_EDGE('',*,*,#925,.T.);
#932 = ORIENTED_EDGE('',*,*,#487,.T.);
#933 = CYLINDRICAL_SURFACE('',#934,1.15);
#934 = AXIS2_PLACEMENT_3D('',#935,#936,#937);
#935 = CARTESIAN_POINT('',(124.,41.,64.5));
#936 = DIRECTION('',(0.,0.,1.));
#937 = DIRECTION('',(1.,0.,0.));
#938 = ADVANCED_FACE('',(#939),#958,.F.);
#939 = FACE_BOUND('',#940,.F.);
#940 = EDGE_LOOP('',(#941,#950,#956,#957));
#941 = ORIENTED_EDGE('',*,*,#942,.F.);
#942 = EDGE_CURVE('',#943,#943,#945,.T.);
#943 = VERTEX_POINT('',#944);
#944 = CARTESIAN_POINT('',(125.15,41.,64.5));
#945 = CIRCLE('',#946,1.15);
#946 = AXIS2_PLACEMENT_3D('',#947,#948,#949);
#947 = CARTESIAN_POINT('',(124.,41.,64.5));
#948 = DIRECTION('',(0.,0.,1.));
#949 = DIRECTION('',(1.,0.,0.));
#950 = ORIENTED_EDGE('',*,*,#951,.T.);
#951 = EDGE_CURVE('',#943,#620,#952,.T.);
#952 = LINE('',#953,#954);
#953 = CARTESIAN_POINT('',(125.15,41.,64.5));
#954 = VECTOR('',#955,1.);
#955 = DIRECTION('',(-0.,-0.,-1.));
#956 = ORIENTED_EDGE('',*,*,#619,.T.);
#957 = ORIENTED_EDGE('',*,*,#951,.F.);
#958 = CYLINDRICAL_SURFACE('',#959,1.15);
#959 = AXIS2_PLACEMENT_3D('',#960,#961,#962);
#960 = CARTESIAN_POINT('',(124.,41.,64.5));
#961 = DIRECTION('',(0.,0.,1.));
#962 = DIRECTION('',(1.,0.,0.));
#963 = ADVANCED_FACE('',(#964,#974),#977,.T.);
#964 = FACE_BOUND('',#965,.T.);
#965 = EDGE_LOOP('',(#966,#967,#968,#969,#970,#971,#972,#973));
#966 = ORIENTED_EDGE('',*,*,#883,.T.);
#967 = ORIENTED_EDGE('',*,*,#869,.T.);
#968 = ORIENTED_EDGE('',*,*,#835,.T.);
#969 = ORIENTED_EDGE('',*,*,#811,.T.);
#970 = ORIENTED_EDGE('',*,*,#786,.T.);
#971 = ORIENTED_EDGE('',*,*,#772,.T.);
#972 = ORIENTED_EDGE('',*,*,#730,.T.);
#973 = ORIENTED_EDGE('',*,*,#911,.T.);
#974 = FACE_BOUND('',#975,.T.);
#975 = EDGE_LOOP('',(#976));
#976 = ORIENTED_EDGE('',*,*,#942,.F.);
#977 = PLANE('',#978);
#978 = AXIS2_PLACEMENT_3D('',#979,#980,#981);
#979 = CARTESIAN_POINT('',(124.,41.,64.5));
#980 = DIRECTION('',(0.,0.,1.));
#981 = DIRECTION('',(1.,0.,0.));
#982 = ( GEOMETRIC_REPRESENTATION_CONTEXT(3) 
GLOBAL_UNCERTAINTY_ASSIGNED_CONTEXT((#986)) GLOBAL_UNIT_ASSIGNED_CONTEXT
((#983,#984,#985)) REPRESENTATION_CONTEXT('Context #1',
  '3D Context with UNIT and UNCERTAINTY') );
#983 = ( LENGTH_UNIT() NAMED_UNIT(*) SI_UNIT(.MILLI.,.METRE.) );
#984 = ( NAMED_UNIT(*) PLANE_ANGLE_UNIT() SI_UNIT($,.RADIAN.) );
#985 = ( NAMED_UNIT(*) SI_UNIT($,.STERADIAN.) SOLID_ANGLE_UNIT() );
#986 = UNCERTAINTY_MEASURE_WITH_UNIT(LENGTH_MEASURE(2.E-05),#983,
  'distance_accuracy_value','confusion accuracy');
#987 = PRODUCT_RELATED_PRODUCT_CATEGORY('part',$,(#7));
ENDSEC;
END-ISO-10303-21;
