ISO-10303-21;
HEADER;
FILE_DESCRIPTION(('FreeCAD Model'),'2;1');
FILE_NAME('Open CASCADE Shape Model','2026-08-28T13:04:05',('FreeCAD'),(
    'FreeCAD'),'Open CASCADE STEP processor 7.8','FreeCAD','Unknown');
FILE_SCHEMA(('AUTOMOTIVE_DESIGN { 1 0 10303 214 1 1 1 1 }'));
ENDSEC;
DATA;
#1 = APPLICATION_PROTOCOL_DEFINITION('international standard',
  'automotive_design',2000,#2);
#2 = APPLICATION_CONTEXT(
  'core data for automotive mechanical design processes');
#3 = SHAPE_DEFINITION_REPRESENTATION(#4,#10);
#4 = PRODUCT_DEFINITION_SHAPE('','',#5);
#5 = PRODUCT_DEFINITION('design','',#6,#9);
#6 = PRODUCT_DEFINITION_FORMATION('','',#7);
#7 = PRODUCT('Open CASCADE STEP translator 7.8 58',
  'Open CASCADE STEP translator 7.8 58','',(#8));
#8 = PRODUCT_CONTEXT('',#2,'mechanical');
#9 = PRODUCT_DEFINITION_CONTEXT('part definition',#2,'design');
#10 = ADVANCED_BREP_SHAPE_REPRESENTATION('',(#11,#15),#1526);
#11 = AXIS2_PLACEMENT_3D('',#12,#13,#14);
#12 = CARTESIAN_POINT('',(0.,0.,0.));
#13 = DIRECTION('',(0.,0.,1.));
#14 = DIRECTION('',(1.,0.,-0.));
#15 = MANIFOLD_SOLID_BREP('',#16);
#16 = CLOSED_SHELL('',(#17,#77,#119,#219,#373,#401,#429,#457,#556,#597,
    #823,#847,#886,#903,#925,#942,#974,#998,#1023,#1047,#1071,#1095,
    #1120,#1137,#1186,#1219,#1244,#1268,#1310,#1343,#1360,#1379,#1421,
    #1445,#1480,#1497,#1514));
#17 = ADVANCED_FACE('',(#18),#72,.F.);
#18 = FACE_BOUND('',#19,.F.);
#19 = EDGE_LOOP('',(#20,#31,#40,#48,#57,#66));
#20 = ORIENTED_EDGE('',*,*,#21,.T.);
#21 = EDGE_CURVE('',#22,#24,#26,.T.);
#22 = VERTEX_POINT('',#23);
#23 = CARTESIAN_POINT('',(78.509990925582,35.2,64.));
#24 = VERTEX_POINT('',#25);
#25 = CARTESIAN_POINT('',(81.,41.,64.));
#26 = CIRCLE('',#27,8.);
#27 = AXIS2_PLACEMENT_3D('',#28,#29,#30);
#28 = CARTESIAN_POINT('',(73.,41.,64.));
#29 = DIRECTION('',(0.,0.,1.));
#30 = DIRECTION('',(1.,0.,0.));
#31 = ORIENTED_EDGE('',*,*,#32,.T.);
#32 = EDGE_CURVE('',#24,#33,#35,.T.);
#33 = VERTEX_POINT('',#34);
#34 = CARTESIAN_POINT('',(67.490009074418,35.2,64.));
#35 = CIRCLE('',#36,8.);
#36 = AXIS2_PLACEMENT_3D('',#37,#38,#39);
#37 = CARTESIAN_POINT('',(73.,41.,64.));
#38 = DIRECTION('',(0.,0.,1.));
#39 = DIRECTION('',(1.,0.,0.));
#40 = ORIENTED_EDGE('',*,*,#41,.F.);
#41 = EDGE_CURVE('',#42,#33,#44,.T.);
#42 = VERTEX_POINT('',#43);
#43 = CARTESIAN_POINT('',(71.463770850426,35.2,64.));
#44 = LINE('',#45,#46);
#45 = CARTESIAN_POINT('',(72.88519075,35.2,64.));
#46 = VECTOR('',#47,1.);
#47 = DIRECTION('',(-1.,0.,0.));
#48 = ORIENTED_EDGE('',*,*,#49,.T.);
#49 = EDGE_CURVE('',#42,#50,#52,.T.);
#50 = VERTEX_POINT('',#51);
#51 = CARTESIAN_POINT('',(79.,41.,64.));
#52 = CIRCLE('',#53,6.);
#53 = AXIS2_PLACEMENT_3D('',#54,#55,#56);
#54 = CARTESIAN_POINT('',(73.,41.,64.));
#55 = DIRECTION('',(0.,0.,-1.));
#56 = DIRECTION('',(1.,0.,0.));
#57 = ORIENTED_EDGE('',*,*,#58,.T.);
#58 = EDGE_CURVE('',#50,#59,#61,.T.);
#59 = VERTEX_POINT('',#60);
#60 = CARTESIAN_POINT('',(74.536229149574,35.2,64.));
#61 = CIRCLE('',#62,6.);
#62 = AXIS2_PLACEMENT_3D('',#63,#64,#65);
#63 = CARTESIAN_POINT('',(73.,41.,64.));
#64 = DIRECTION('',(0.,0.,-1.));
#65 = DIRECTION('',(1.,0.,0.));
#66 = ORIENTED_EDGE('',*,*,#67,.F.);
#67 = EDGE_CURVE('',#22,#59,#68,.T.);
#68 = LINE('',#69,#70);
#69 = CARTESIAN_POINT('',(72.88519075,35.2,64.));
#70 = VECTOR('',#71,1.);
#71 = DIRECTION('',(-1.,0.,0.));
#72 = PLANE('',#73);
#73 = AXIS2_PLACEMENT_3D('',#74,#75,#76);
#74 = CARTESIAN_POINT('',(73.,41.,64.));
#75 = DIRECTION('',(0.,0.,1.));
#76 = DIRECTION('',(1.,0.,0.));
#77 = ADVANCED_FACE('',(#78),#114,.T.);
#78 = FACE_BOUND('',#79,.T.);
#79 = EDGE_LOOP('',(#80,#81,#89,#98,#107,#113));
#80 = ORIENTED_EDGE('',*,*,#32,.T.);
#81 = ORIENTED_EDGE('',*,*,#82,.T.);
#82 = EDGE_CURVE('',#33,#83,#85,.T.);
#83 = VERTEX_POINT('',#84);
#84 = CARTESIAN_POINT('',(67.490009074418,35.2,65.));
#85 = LINE('',#86,#87);
#86 = CARTESIAN_POINT('',(67.490009074418,35.2,65.));
#87 = VECTOR('',#88,1.);
#88 = DIRECTION('',(0.,0.,1.));
#89 = ORIENTED_EDGE('',*,*,#90,.F.);
#90 = EDGE_CURVE('',#91,#83,#93,.T.);
#91 = VERTEX_POINT('',#92);
#92 = CARTESIAN_POINT('',(81.,41.,65.));
#93 = CIRCLE('',#94,8.);
#94 = AXIS2_PLACEMENT_3D('',#95,#96,#97);
#95 = CARTESIAN_POINT('',(73.,41.,65.));
#96 = DIRECTION('',(0.,0.,1.));
#97 = DIRECTION('',(1.,0.,0.));
#98 = ORIENTED_EDGE('',*,*,#99,.F.);
#99 = EDGE_CURVE('',#100,#91,#102,.T.);
#100 = VERTEX_POINT('',#101);
#101 = CARTESIAN_POINT('',(78.509990925582,35.2,65.));
#102 = CIRCLE('',#103,8.);
#103 = AXIS2_PLACEMENT_3D('',#104,#105,#106);
#104 = CARTESIAN_POINT('',(73.,41.,65.));
#105 = DIRECTION('',(0.,0.,1.));
#106 = DIRECTION('',(1.,0.,0.));
#107 = ORIENTED_EDGE('',*,*,#108,.F.);
#108 = EDGE_CURVE('',#22,#100,#109,.T.);
#109 = LINE('',#110,#111);
#110 = CARTESIAN_POINT('',(78.509990925582,35.2,65.));
#111 = VECTOR('',#112,1.);
#112 = DIRECTION('',(0.,0.,1.));
#113 = ORIENTED_EDGE('',*,*,#21,.T.);
#114 = CYLINDRICAL_SURFACE('',#115,8.);
#115 = AXIS2_PLACEMENT_3D('',#116,#117,#118);
#116 = CARTESIAN_POINT('',(73.,41.,65.));
#117 = DIRECTION('',(0.,0.,1.));
#118 = DIRECTION('',(1.,0.,0.));
#119 = ADVANCED_FACE('',(#120,#203),#214,.T.);
#120 = FACE_BOUND('',#121,.T.);
#121 = EDGE_LOOP('',(#122,#130,#131,#132,#140,#148,#154,#155,#156,#164,
    #172,#180,#189,#197));
#122 = ORIENTED_EDGE('',*,*,#123,.F.);
#123 = EDGE_CURVE('',#83,#124,#126,.T.);
#124 = VERTEX_POINT('',#125);
#125 = CARTESIAN_POINT('',(66.786305446838,35.2,65.));
#126 = LINE('',#127,#128);
#127 = CARTESIAN_POINT('',(72.88519075,35.2,65.));
#128 = VECTOR('',#129,1.);
#129 = DIRECTION('',(-1.,0.,0.));
#130 = ORIENTED_EDGE('',*,*,#82,.F.);
#131 = ORIENTED_EDGE('',*,*,#41,.F.);
#132 = ORIENTED_EDGE('',*,*,#133,.T.);
#133 = EDGE_CURVE('',#42,#134,#136,.T.);
#134 = VERTEX_POINT('',#135);
#135 = CARTESIAN_POINT('',(71.463770850426,35.2,49.));
#136 = LINE('',#137,#138);
#137 = CARTESIAN_POINT('',(71.463770850426,35.2,41.));
#138 = VECTOR('',#139,1.);
#139 = DIRECTION('',(-0.,-0.,-1.));
#140 = ORIENTED_EDGE('',*,*,#141,.F.);
#141 = EDGE_CURVE('',#142,#134,#144,.T.);
#142 = VERTEX_POINT('',#143);
#143 = CARTESIAN_POINT('',(74.536229149574,35.2,49.));
#144 = LINE('',#145,#146);
#145 = CARTESIAN_POINT('',(76.,35.2,49.));
#146 = VECTOR('',#147,1.);
#147 = DIRECTION('',(-1.,0.,0.));
#148 = ORIENTED_EDGE('',*,*,#149,.F.);
#149 = EDGE_CURVE('',#59,#142,#150,.T.);
#150 = LINE('',#151,#152);
#151 = CARTESIAN_POINT('',(74.536229149574,35.2,41.));
#152 = VECTOR('',#153,1.);
#153 = DIRECTION('',(-0.,-0.,-1.));
#154 = ORIENTED_EDGE('',*,*,#67,.F.);
#155 = ORIENTED_EDGE('',*,*,#108,.T.);
#156 = ORIENTED_EDGE('',*,*,#157,.F.);
#157 = EDGE_CURVE('',#158,#100,#160,.T.);
#158 = VERTEX_POINT('',#159);
#159 = CARTESIAN_POINT('',(79.213694553162,35.2,65.));
#160 = LINE('',#161,#162);
#161 = CARTESIAN_POINT('',(72.88519075,35.2,65.));
#162 = VECTOR('',#163,1.);
#163 = DIRECTION('',(-1.,0.,0.));
#164 = ORIENTED_EDGE('',*,*,#165,.F.);
#165 = EDGE_CURVE('',#166,#158,#168,.T.);
#166 = VERTEX_POINT('',#167);
#167 = CARTESIAN_POINT('',(79.213694553163,35.2,74.));
#168 = LINE('',#169,#170);
#169 = CARTESIAN_POINT('',(79.213694553162,35.2,65.));
#170 = VECTOR('',#171,1.);
#171 = DIRECTION('',(-0.,-0.,-1.));
#172 = ORIENTED_EDGE('',*,*,#173,.F.);
#173 = EDGE_CURVE('',#174,#166,#176,.T.);
#174 = VERTEX_POINT('',#175);
#175 = CARTESIAN_POINT('',(77.525837143661,35.2,74.));
#176 = LINE('',#177,#178);
#177 = CARTESIAN_POINT('',(66.786305446837,35.2,74.));
#178 = VECTOR('',#179,1.);
#179 = DIRECTION('',(1.,0.,0.));
#180 = ORIENTED_EDGE('',*,*,#181,.T.);
#181 = EDGE_CURVE('',#174,#182,#184,.T.);
#182 = VERTEX_POINT('',#183);
#183 = CARTESIAN_POINT('',(68.474162856339,35.2,74.));
#184 = HYPERBOLA('',#185,3.153524754259,5.8);
#185 = AXIS2_PLACEMENT_3D('',#186,#187,#188);
#186 = CARTESIAN_POINT('',(73.,35.2,70.));
#187 = DIRECTION('',(2.8E-16,-1.,0.));
#188 = DIRECTION('',(0.,0.,1.));
#189 = ORIENTED_EDGE('',*,*,#190,.F.);
#190 = EDGE_CURVE('',#191,#182,#193,.T.);
#191 = VERTEX_POINT('',#192);
#192 = CARTESIAN_POINT('',(66.786305446837,35.2,74.));
#193 = LINE('',#194,#195);
#194 = CARTESIAN_POINT('',(66.786305446837,35.2,74.));
#195 = VECTOR('',#196,1.);
#196 = DIRECTION('',(1.,0.,0.));
#197 = ORIENTED_EDGE('',*,*,#198,.F.);
#198 = EDGE_CURVE('',#124,#191,#199,.T.);
#199 = LINE('',#200,#201);
#200 = CARTESIAN_POINT('',(66.786305446837,35.2,73.));
#201 = VECTOR('',#202,1.);
#202 = DIRECTION('',(0.,0.,1.));
#203 = FACE_BOUND('',#204,.T.);
#204 = EDGE_LOOP('',(#205));
#205 = ORIENTED_EDGE('',*,*,#206,.F.);
#206 = EDGE_CURVE('',#207,#207,#209,.T.);
#207 = VERTEX_POINT('',#208);
#208 = CARTESIAN_POINT('',(74.4,35.2,51.9));
#209 = CIRCLE('',#210,1.4);
#210 = AXIS2_PLACEMENT_3D('',#211,#212,#213);
#211 = CARTESIAN_POINT('',(73.,35.2,51.9));
#212 = DIRECTION('',(0.,-1.,2.2E-16));
#213 = DIRECTION('',(1.,0.,0.));
#214 = PLANE('',#215);
#215 = AXIS2_PLACEMENT_3D('',#216,#217,#218);
#216 = CARTESIAN_POINT('',(73.,35.2,59.88370309279));
#217 = DIRECTION('',(2.8E-16,-1.,0.));
#218 = DIRECTION('',(-1.,-2.8E-16,0.));
#219 = ADVANCED_FACE('',(#220,#310),#368,.T.);
#220 = FACE_BOUND('',#221,.F.);
#221 = EDGE_LOOP('',(#222,#223,#224,#233,#241,#250,#258,#267,#276,#284,
    #293,#301,#308,#309));
#222 = ORIENTED_EDGE('',*,*,#49,.F.);
#223 = ORIENTED_EDGE('',*,*,#133,.T.);
#224 = ORIENTED_EDGE('',*,*,#225,.T.);
#225 = EDGE_CURVE('',#134,#226,#228,.T.);
#226 = VERTEX_POINT('',#227);
#227 = CARTESIAN_POINT('',(70.,35.803847577293,49.));
#228 = CIRCLE('',#229,6.);
#229 = AXIS2_PLACEMENT_3D('',#230,#231,#232);
#230 = CARTESIAN_POINT('',(73.,41.,49.));
#231 = DIRECTION('',(0.,0.,-1.));
#232 = DIRECTION('',(1.,0.,0.));
#233 = ORIENTED_EDGE('',*,*,#234,.T.);
#234 = EDGE_CURVE('',#226,#235,#237,.T.);
#235 = VERTEX_POINT('',#236);
#236 = CARTESIAN_POINT('',(70.,35.803847577293,44.));
#237 = LINE('',#238,#239);
#238 = CARTESIAN_POINT('',(70.,35.803847577293,41.));
#239 = VECTOR('',#240,1.);
#240 = DIRECTION('',(-0.,-0.,-1.));
#241 = ORIENTED_EDGE('',*,*,#242,.F.);
#242 = EDGE_CURVE('',#243,#235,#245,.T.);
#243 = VERTEX_POINT('',#244);
#244 = CARTESIAN_POINT('',(71.463770850426,35.2,44.));
#245 = CIRCLE('',#246,6.);
#246 = AXIS2_PLACEMENT_3D('',#247,#248,#249);
#247 = CARTESIAN_POINT('',(73.,41.,44.));
#248 = DIRECTION('',(0.,0.,-1.));
#249 = DIRECTION('',(1.,0.,0.));
#250 = ORIENTED_EDGE('',*,*,#251,.T.);
#251 = EDGE_CURVE('',#243,#252,#254,.T.);
#252 = VERTEX_POINT('',#253);
#253 = CARTESIAN_POINT('',(71.463770850426,35.2,41.));
#254 = LINE('',#255,#256);
#255 = CARTESIAN_POINT('',(71.463770850426,35.2,41.));
#256 = VECTOR('',#257,1.);
#257 = DIRECTION('',(-0.,-0.,-1.));
#258 = ORIENTED_EDGE('',*,*,#259,.F.);
#259 = EDGE_CURVE('',#260,#252,#262,.T.);
#260 = VERTEX_POINT('',#261);
#261 = CARTESIAN_POINT('',(79.,41.,41.));
#262 = CIRCLE('',#263,6.);
#263 = AXIS2_PLACEMENT_3D('',#264,#265,#266);
#264 = CARTESIAN_POINT('',(73.,41.,41.));
#265 = DIRECTION('',(0.,0.,1.));
#266 = DIRECTION('',(1.,0.,0.));
#267 = ORIENTED_EDGE('',*,*,#268,.F.);
#268 = EDGE_CURVE('',#269,#260,#271,.T.);
#269 = VERTEX_POINT('',#270);
#270 = CARTESIAN_POINT('',(74.536229149574,35.2,41.));
#271 = CIRCLE('',#272,6.);
#272 = AXIS2_PLACEMENT_3D('',#273,#274,#275);
#273 = CARTESIAN_POINT('',(73.,41.,41.));
#274 = DIRECTION('',(0.,0.,1.));
#275 = DIRECTION('',(1.,0.,0.));
#276 = ORIENTED_EDGE('',*,*,#277,.F.);
#277 = EDGE_CURVE('',#278,#269,#280,.T.);
#278 = VERTEX_POINT('',#279);
#279 = CARTESIAN_POINT('',(74.536229149574,35.2,44.));
#280 = LINE('',#281,#282);
#281 = CARTESIAN_POINT('',(74.536229149574,35.2,41.));
#282 = VECTOR('',#283,1.);
#283 = DIRECTION('',(-0.,-0.,-1.));
#284 = ORIENTED_EDGE('',*,*,#285,.F.);
#285 = EDGE_CURVE('',#286,#278,#288,.T.);
#286 = VERTEX_POINT('',#287);
#287 = CARTESIAN_POINT('',(76.,35.803847577293,44.));
#288 = CIRCLE('',#289,6.);
#289 = AXIS2_PLACEMENT_3D('',#290,#291,#292);
#290 = CARTESIAN_POINT('',(73.,41.,44.));
#291 = DIRECTION('',(0.,0.,-1.));
#292 = DIRECTION('',(1.,0.,0.));
#293 = ORIENTED_EDGE('',*,*,#294,.F.);
#294 = EDGE_CURVE('',#295,#286,#297,.T.);
#295 = VERTEX_POINT('',#296);
#296 = CARTESIAN_POINT('',(76.,35.803847577293,49.));
#297 = LINE('',#298,#299);
#298 = CARTESIAN_POINT('',(76.,35.803847577293,41.));
#299 = VECTOR('',#300,1.);
#300 = DIRECTION('',(-0.,-0.,-1.));
#301 = ORIENTED_EDGE('',*,*,#302,.T.);
#302 = EDGE_CURVE('',#295,#142,#303,.T.);
#303 = CIRCLE('',#304,6.);
#304 = AXIS2_PLACEMENT_3D('',#305,#306,#307);
#305 = CARTESIAN_POINT('',(73.,41.,49.));
#306 = DIRECTION('',(0.,0.,-1.));
#307 = DIRECTION('',(1.,0.,0.));
#308 = ORIENTED_EDGE('',*,*,#149,.F.);
#309 = ORIENTED_EDGE('',*,*,#58,.F.);
#310 = FACE_BOUND('',#311,.F.);
#311 = EDGE_LOOP('',(#312));
#312 = ORIENTED_EDGE('',*,*,#313,.F.);
#313 = EDGE_CURVE('',#314,#314,#316,.T.);
#314 = VERTEX_POINT('',#315);
#315 = CARTESIAN_POINT('',(74.4,46.834380858326,51.9));
#316 = B_SPLINE_CURVE_WITH_KNOTS('',8,(#317,#318,#319,#320,#321,#322,
    #323,#324,#325,#326,#327,#328,#329,#330,#331,#332,#333,#334,#335,
    #336,#337,#338,#339,#340,#341,#342,#343,#344,#345,#346,#347,#348,
    #349,#350,#351,#352,#353,#354,#355,#356,#357,#358,#359,#360,#361,
    #362,#363,#364,#365,#366,#367),.UNSPECIFIED.,.T.,.F.,(9,7,7,7,7,7,7,
    9),(0.,0.151872516316,0.287109077839,0.424231877249,0.576732948248,
    0.705161927305,0.829669396021,1.),.UNSPECIFIED.);
#317 = CARTESIAN_POINT('',(74.4,46.834380858326,51.9));
#318 = CARTESIAN_POINT('',(74.4,46.834380858326,52.047568078254));
#319 = CARTESIAN_POINT('',(74.382223812411,46.838646255606,
    52.195134188206));
#320 = CARTESIAN_POINT('',(74.346669815629,46.847178165521,
    52.341124705896));
#321 = CARTESIAN_POINT('',(74.293142602612,46.859700874172,
    52.483882648324));
#322 = CARTESIAN_POINT('',(74.22131729796,46.875652985943,
    52.621542339709));
#323 = CARTESIAN_POINT('',(74.130794076715,46.894140153298,
    52.751890151647));
#324 = CARTESIAN_POINT('',(74.021199787882,46.913891895239,
    52.872160782311));
#325 = CARTESIAN_POINT('',(73.777696678562,46.95051601576,
    53.073604073408));
#326 = CARTESIAN_POINT('',(73.644393573251,46.967974097393,
    53.160406329955));
#327 = CARTESIAN_POINT('',(73.494554354792,46.983887532097,
    53.23233928088));
#328 = CARTESIAN_POINT('',(73.331816142579,46.996227324066,
    53.284435614723));
#329 = CARTESIAN_POINT('',(73.160911127087,47.003264978227,
    53.313479608641));
#330 = CARTESIAN_POINT('',(72.987098389043,47.004233358193,
    53.317958451773));
#331 = CARTESIAN_POINT('',(72.815754731653,46.99941783992,
    53.298104075468));
#332 = CARTESIAN_POINT('',(72.485627270635,46.980228988687,
    53.21334175012));
#333 = CARTESIAN_POINT('',(72.331738143565,46.965995304618,
    53.149013086045));
#334 = CARTESIAN_POINT('',(72.192109923626,46.948640981534,
    53.066839450914));
#335 = CARTESIAN_POINT('',(72.067921952602,46.929766483455,
    52.970176242712));
#336 = CARTESIAN_POINT('',(71.959841021787,46.910862502659,
    52.862068929892));
#337 = CARTESIAN_POINT('',(71.868140186502,46.893167753663,
    52.745323856638));
#338 = CARTESIAN_POINT('',(71.79274188754,46.877604379043,
    52.622534436578));
#339 = CARTESIAN_POINT('',(71.667069489213,46.850459756311,
    52.355466995753));
#340 = CARTESIAN_POINT('',(71.619284188723,46.839245335972,
    52.207608816715));
#341 = CARTESIAN_POINT('',(71.590418646634,46.832083877298,
    52.054986604835));
#342 = CARTESIAN_POINT('',(71.580765734697,46.829621515713,51.9));
#343 = CARTESIAN_POINT('',(71.590418646634,46.832083877298,
    51.745013395165));
#344 = CARTESIAN_POINT('',(71.619284188723,46.839245335972,
    51.592391183284));
#345 = CARTESIAN_POINT('',(71.667069489214,46.850459756311,
    51.444533004247));
#346 = CARTESIAN_POINT('',(71.788969500779,46.876789561973,
    51.185482293361));
#347 = CARTESIAN_POINT('',(71.858530747091,46.891180917556,
    51.070500256913));
#348 = CARTESIAN_POINT('',(71.942222678893,46.907446528553,
    50.960769008168));
#349 = CARTESIAN_POINT('',(72.040154717968,46.924863145056,
    50.858280290275));
#350 = CARTESIAN_POINT('',(72.152215135086,46.942473280139,
    50.765228814812));
#351 = CARTESIAN_POINT('',(72.278024660408,46.959114504196,50.6840407649
    ));
#352 = CARTESIAN_POINT('',(72.416840801643,46.973500204006,
    50.617432795652));
#353 = CARTESIAN_POINT('',(72.713315095809,46.994932963107,
    50.521102458051));
#354 = CARTESIAN_POINT('',(72.868432377637,47.002057291974,
    50.490912777045));
#355 = CARTESIAN_POINT('',(73.028695790455,47.004597956031,
    50.48083149066));
#356 = CARTESIAN_POINT('',(73.189509304018,47.001890700629,
    50.492040864108));
#357 = CARTESIAN_POINT('',(73.346139303382,46.994131985576,
    50.524133305776));
#358 = CARTESIAN_POINT('',(73.49412610699,46.982353298811,50.57513921101
    ));
#359 = CARTESIAN_POINT('',(73.629692068779,46.968101060476,
    50.641491208726));
#360 = CARTESIAN_POINT('',(73.914958484988,46.932153202342,
    50.822526781394));
#361 = CARTESIAN_POINT('',(74.055585616127,46.909134488958,
    50.948605297563));
#362 = CARTESIAN_POINT('',(74.171668358703,46.886560945922,
    51.090069368582));
#363 = CARTESIAN_POINT('',(74.263604714049,46.866586404011,
    51.242450742755));
#364 = CARTESIAN_POINT('',(74.331977439781,46.850704736568,
    51.40225930914));
#365 = CARTESIAN_POINT('',(74.377319565965,46.839822688282,
    51.566668624773));
#366 = CARTESIAN_POINT('',(74.4,46.834380858326,51.733317814864));
#367 = CARTESIAN_POINT('',(74.4,46.834380858326,51.9));
#368 = CYLINDRICAL_SURFACE('',#369,6.);
#369 = AXIS2_PLACEMENT_3D('',#370,#371,#372);
#370 = CARTESIAN_POINT('',(73.,41.,41.));
#371 = DIRECTION('',(-0.,-0.,-1.));
#372 = DIRECTION('',(1.,0.,0.));
#373 = ADVANCED_FACE('',(#374),#396,.F.);
#374 = FACE_BOUND('',#375,.F.);
#375 = EDGE_LOOP('',(#376,#385,#392,#393,#394,#395));
#376 = ORIENTED_EDGE('',*,*,#377,.T.);
#377 = EDGE_CURVE('',#158,#378,#380,.T.);
#378 = VERTEX_POINT('',#379);
#379 = CARTESIAN_POINT('',(81.5,41.,65.));
#380 = CIRCLE('',#381,8.5);
#381 = AXIS2_PLACEMENT_3D('',#382,#383,#384);
#382 = CARTESIAN_POINT('',(73.,41.,65.));
#383 = DIRECTION('',(0.,0.,1.));
#384 = DIRECTION('',(1.,0.,0.));
#385 = ORIENTED_EDGE('',*,*,#386,.T.);
#386 = EDGE_CURVE('',#378,#124,#387,.T.);
#387 = CIRCLE('',#388,8.5);
#388 = AXIS2_PLACEMENT_3D('',#389,#390,#391);
#389 = CARTESIAN_POINT('',(73.,41.,65.));
#390 = DIRECTION('',(0.,0.,1.));
#391 = DIRECTION('',(1.,0.,0.));
#392 = ORIENTED_EDGE('',*,*,#123,.F.);
#393 = ORIENTED_EDGE('',*,*,#90,.F.);
#394 = ORIENTED_EDGE('',*,*,#99,.F.);
#395 = ORIENTED_EDGE('',*,*,#157,.F.);
#396 = PLANE('',#397);
#397 = AXIS2_PLACEMENT_3D('',#398,#399,#400);
#398 = CARTESIAN_POINT('',(73.,41.,65.));
#399 = DIRECTION('',(0.,0.,1.));
#400 = DIRECTION('',(1.,0.,0.));
#401 = ADVANCED_FACE('',(#402),#424,.T.);
#402 = FACE_BOUND('',#403,.F.);
#403 = EDGE_LOOP('',(#404,#405,#406,#407,#408,#417));
#404 = ORIENTED_EDGE('',*,*,#198,.F.);
#405 = ORIENTED_EDGE('',*,*,#386,.F.);
#406 = ORIENTED_EDGE('',*,*,#377,.F.);
#407 = ORIENTED_EDGE('',*,*,#165,.F.);
#408 = ORIENTED_EDGE('',*,*,#409,.T.);
#409 = EDGE_CURVE('',#166,#410,#412,.T.);
#410 = VERTEX_POINT('',#411);
#411 = CARTESIAN_POINT('',(81.5,41.,74.));
#412 = CIRCLE('',#413,8.5);
#413 = AXIS2_PLACEMENT_3D('',#414,#415,#416);
#414 = CARTESIAN_POINT('',(73.,41.,74.));
#415 = DIRECTION('',(0.,0.,1.));
#416 = DIRECTION('',(1.,0.,0.));
#417 = ORIENTED_EDGE('',*,*,#418,.T.);
#418 = EDGE_CURVE('',#410,#191,#419,.T.);
#419 = CIRCLE('',#420,8.5);
#420 = AXIS2_PLACEMENT_3D('',#421,#422,#423);
#421 = CARTESIAN_POINT('',(73.,41.,74.));
#422 = DIRECTION('',(0.,0.,1.));
#423 = DIRECTION('',(1.,0.,0.));
#424 = CYLINDRICAL_SURFACE('',#425,8.5);
#425 = AXIS2_PLACEMENT_3D('',#426,#427,#428);
#426 = CARTESIAN_POINT('',(73.,41.,65.));
#427 = DIRECTION('',(-0.,-0.,-1.));
#428 = DIRECTION('',(1.,0.,0.));
#429 = ADVANCED_FACE('',(#430),#452,.T.);
#430 = FACE_BOUND('',#431,.T.);
#431 = EDGE_LOOP('',(#432,#433,#434,#435,#436,#445));
#432 = ORIENTED_EDGE('',*,*,#173,.T.);
#433 = ORIENTED_EDGE('',*,*,#409,.T.);
#434 = ORIENTED_EDGE('',*,*,#418,.T.);
#435 = ORIENTED_EDGE('',*,*,#190,.T.);
#436 = ORIENTED_EDGE('',*,*,#437,.F.);
#437 = EDGE_CURVE('',#438,#182,#440,.T.);
#438 = VERTEX_POINT('',#439);
#439 = CARTESIAN_POINT('',(80.356847276581,41.,74.));
#440 = CIRCLE('',#441,7.356847276581);
#441 = AXIS2_PLACEMENT_3D('',#442,#443,#444);
#442 = CARTESIAN_POINT('',(73.,41.,74.));
#443 = DIRECTION('',(-0.,2.2E-16,1.));
#444 = DIRECTION('',(1.,0.,0.));
#445 = ORIENTED_EDGE('',*,*,#446,.F.);
#446 = EDGE_CURVE('',#174,#438,#447,.T.);
#447 = CIRCLE('',#448,7.356847276581);
#448 = AXIS2_PLACEMENT_3D('',#449,#450,#451);
#449 = CARTESIAN_POINT('',(73.,41.,74.));
#450 = DIRECTION('',(-0.,2.2E-16,1.));
#451 = DIRECTION('',(1.,0.,0.));
#452 = PLANE('',#453);
#453 = AXIS2_PLACEMENT_3D('',#454,#455,#456);
#454 = CARTESIAN_POINT('',(73.115031640923,41.099098555148,74.));
#455 = DIRECTION('',(0.,0.,1.));
#456 = DIRECTION('',(1.,0.,0.));
#457 = ADVANCED_FACE('',(#458),#551,.F.);
#458 = FACE_BOUND('',#459,.F.);
#459 = EDGE_LOOP('',(#460,#471,#477,#478,#479,#480,#481,#490,#499,#508,
    #517,#526,#535,#544));
#460 = ORIENTED_EDGE('',*,*,#461,.T.);
#461 = EDGE_CURVE('',#462,#464,#466,.T.);
#462 = VERTEX_POINT('',#463);
#463 = CARTESIAN_POINT('',(79.,39.5,73.362667841761));
#464 = VERTEX_POINT('',#465);
#465 = CARTESIAN_POINT('',(79.,41.,73.262266987164));
#466 = HYPERBOLA('',#467,3.262266987164,6.);
#467 = AXIS2_PLACEMENT_3D('',#468,#469,#470);
#468 = CARTESIAN_POINT('',(79.,41.,70.));
#469 = DIRECTION('',(-1.,0.,0.));
#470 = DIRECTION('',(0.,2.2E-16,1.));
#471 = ORIENTED_EDGE('',*,*,#472,.T.);
#472 = EDGE_CURVE('',#464,#438,#473,.T.);
#473 = LINE('',#474,#475);
#474 = CARTESIAN_POINT('',(73.,41.,70.));
#475 = VECTOR('',#476,1.);
#476 = DIRECTION('',(0.878538648203,0.,0.477671271497));
#477 = ORIENTED_EDGE('',*,*,#446,.F.);
#478 = ORIENTED_EDGE('',*,*,#181,.T.);
#479 = ORIENTED_EDGE('',*,*,#437,.F.);
#480 = ORIENTED_EDGE('',*,*,#472,.F.);
#481 = ORIENTED_EDGE('',*,*,#482,.T.);
#482 = EDGE_CURVE('',#464,#483,#485,.T.);
#483 = VERTEX_POINT('',#484);
#484 = CARTESIAN_POINT('',(79.,42.5,73.362667841761));
#485 = HYPERBOLA('',#486,3.262266987164,6.);
#486 = AXIS2_PLACEMENT_3D('',#487,#488,#489);
#487 = CARTESIAN_POINT('',(79.,41.,70.));
#488 = DIRECTION('',(-1.,0.,0.));
#489 = DIRECTION('',(0.,2.2E-16,1.));
#490 = ORIENTED_EDGE('',*,*,#491,.T.);
#491 = EDGE_CURVE('',#483,#492,#494,.T.);
#492 = VERTEX_POINT('',#493);
#493 = CARTESIAN_POINT('',(76.976493430147,42.5,72.310772449241));
#494 = HYPERBOLA('',#495,0.815566746791,1.5);
#495 = AXIS2_PLACEMENT_3D('',#496,#497,#498);
#496 = CARTESIAN_POINT('',(73.,42.5,70.));
#497 = DIRECTION('',(-8.4E-16,-1.,0.));
#498 = DIRECTION('',(0.,0.,1.));
#499 = ORIENTED_EDGE('',*,*,#500,.F.);
#500 = EDGE_CURVE('',#501,#492,#503,.T.);
#501 = VERTEX_POINT('',#502);
#502 = CARTESIAN_POINT('',(69.023506569853,42.5,72.310772449241));
#503 = CIRCLE('',#504,4.25);
#504 = AXIS2_PLACEMENT_3D('',#505,#506,#507);
#505 = CARTESIAN_POINT('',(73.,41.,72.310772449241));
#506 = DIRECTION('',(0.,0.,-1.));
#507 = DIRECTION('',(0.,1.,0.));
#508 = ORIENTED_EDGE('',*,*,#509,.T.);
#509 = EDGE_CURVE('',#501,#510,#512,.T.);
#510 = VERTEX_POINT('',#511);
#511 = CARTESIAN_POINT('',(67.,42.5,73.362667841761));
#512 = HYPERBOLA('',#513,0.815566746791,1.5);
#513 = AXIS2_PLACEMENT_3D('',#514,#515,#516);
#514 = CARTESIAN_POINT('',(73.,42.5,70.));
#515 = DIRECTION('',(-4.5E-16,-1.,0.));
#516 = DIRECTION('',(0.,0.,1.));
#517 = ORIENTED_EDGE('',*,*,#518,.T.);
#518 = EDGE_CURVE('',#510,#519,#521,.T.);
#519 = VERTEX_POINT('',#520);
#520 = CARTESIAN_POINT('',(67.,39.5,73.362667841761));
#521 = HYPERBOLA('',#522,3.262266987164,6.);
#522 = AXIS2_PLACEMENT_3D('',#523,#524,#525);
#523 = CARTESIAN_POINT('',(67.,41.,70.));
#524 = DIRECTION('',(1.,0.,-0.));
#525 = DIRECTION('',(0.,2.2E-16,1.));
#526 = ORIENTED_EDGE('',*,*,#527,.T.);
#527 = EDGE_CURVE('',#519,#528,#530,.T.);
#528 = VERTEX_POINT('',#529);
#529 = CARTESIAN_POINT('',(69.023506569853,39.5,72.310772449241));
#530 = HYPERBOLA('',#531,0.815566746791,1.5);
#531 = AXIS2_PLACEMENT_3D('',#532,#533,#534);
#532 = CARTESIAN_POINT('',(73.,39.5,70.));
#533 = DIRECTION('',(-4.4E-16,1.,0.));
#534 = DIRECTION('',(0.,0.,1.));
#535 = ORIENTED_EDGE('',*,*,#536,.F.);
#536 = EDGE_CURVE('',#537,#528,#539,.T.);
#537 = VERTEX_POINT('',#538);
#538 = CARTESIAN_POINT('',(76.976493430147,39.5,72.310772449241));
#539 = CIRCLE('',#540,4.25);
#540 = AXIS2_PLACEMENT_3D('',#541,#542,#543);
#541 = CARTESIAN_POINT('',(73.,41.,72.310772449241));
#542 = DIRECTION('',(0.,0.,-1.));
#543 = DIRECTION('',(0.,1.,0.));
#544 = ORIENTED_EDGE('',*,*,#545,.T.);
#545 = EDGE_CURVE('',#537,#462,#546,.T.);
#546 = HYPERBOLA('',#547,0.815566746791,1.5);
#547 = AXIS2_PLACEMENT_3D('',#548,#549,#550);
#548 = CARTESIAN_POINT('',(73.,39.5,70.));
#549 = DIRECTION('',(-7.7E-16,1.,0.));
#550 = DIRECTION('',(0.,0.,1.));
#551 = CONICAL_SURFACE('',#552,0.,1.072794214542);
#552 = AXIS2_PLACEMENT_3D('',#553,#554,#555);
#553 = CARTESIAN_POINT('',(73.,41.,70.));
#554 = DIRECTION('',(0.,2.2E-16,1.));
#555 = DIRECTION('',(1.,0.,0.));
#556 = ADVANCED_FACE('',(#557),#592,.F.);
#557 = FACE_BOUND('',#558,.F.);
#558 = EDGE_LOOP('',(#559,#567,#575,#583,#589,#590,#591));
#559 = ORIENTED_EDGE('',*,*,#560,.T.);
#560 = EDGE_CURVE('',#295,#561,#563,.T.);
#561 = VERTEX_POINT('',#562);
#562 = CARTESIAN_POINT('',(76.,39.267949192431,49.));
#563 = LINE('',#564,#565);
#564 = CARTESIAN_POINT('',(76.,35.2,49.));
#565 = VECTOR('',#566,1.);
#566 = DIRECTION('',(0.,1.,-2.2E-16));
#567 = ORIENTED_EDGE('',*,*,#568,.T.);
#568 = EDGE_CURVE('',#561,#569,#571,.T.);
#569 = VERTEX_POINT('',#570);
#570 = CARTESIAN_POINT('',(73.,37.535898384862,49.));
#571 = LINE('',#572,#573);
#572 = CARTESIAN_POINT('',(76.,39.267949192431,49.));
#573 = VECTOR('',#574,1.);
#574 = DIRECTION('',(-0.866025403784,-0.5,0.));
#575 = ORIENTED_EDGE('',*,*,#576,.T.);
#576 = EDGE_CURVE('',#569,#577,#579,.T.);
#577 = VERTEX_POINT('',#578);
#578 = CARTESIAN_POINT('',(70.,39.267949192431,49.));
#579 = LINE('',#580,#581);
#580 = CARTESIAN_POINT('',(73.,37.535898384862,49.));
#581 = VECTOR('',#582,1.);
#582 = DIRECTION('',(-0.866025403784,0.5,-0.));
#583 = ORIENTED_EDGE('',*,*,#584,.F.);
#584 = EDGE_CURVE('',#226,#577,#585,.T.);
#585 = LINE('',#586,#587);
#586 = CARTESIAN_POINT('',(70.,35.2,49.));
#587 = VECTOR('',#588,1.);
#588 = DIRECTION('',(0.,1.,-2.2E-16));
#589 = ORIENTED_EDGE('',*,*,#225,.F.);
#590 = ORIENTED_EDGE('',*,*,#141,.F.);
#591 = ORIENTED_EDGE('',*,*,#302,.F.);
#592 = PLANE('',#593);
#593 = AXIS2_PLACEMENT_3D('',#594,#595,#596);
#594 = CARTESIAN_POINT('',(76.,35.2,49.));
#595 = DIRECTION('',(0.,2.2E-16,1.));
#596 = DIRECTION('',(-1.,0.,0.));
#597 = ADVANCED_FACE('',(#598,#608,#713),#818,.F.);
#598 = FACE_BOUND('',#599,.F.);
#599 = EDGE_LOOP('',(#600,#601,#606,#607));
#600 = ORIENTED_EDGE('',*,*,#313,.T.);
#601 = ORIENTED_EDGE('',*,*,#602,.T.);
#602 = EDGE_CURVE('',#314,#207,#603,.T.);
#603 = B_SPLINE_CURVE_WITH_KNOTS('',1,(#604,#605),.UNSPECIFIED.,.F.,.F.,
  (2,2),(-5.834380858326,5.834380858326),.PIECEWISE_BEZIER_KNOTS.);
#604 = CARTESIAN_POINT('',(74.4,46.834380858326,51.9));
#605 = CARTESIAN_POINT('',(74.4,35.165619141674,51.9));
#606 = ORIENTED_EDGE('',*,*,#206,.F.);
#607 = ORIENTED_EDGE('',*,*,#602,.F.);
#608 = FACE_BOUND('',#609,.F.);
#609 = EDGE_LOOP('',(#610));
#610 = ORIENTED_EDGE('',*,*,#611,.T.);
#611 = EDGE_CURVE('',#612,#612,#614,.T.);
#612 = VERTEX_POINT('',#613);
#613 = CARTESIAN_POINT('',(74.15,41.,51.101564028866));
#614 = B_SPLINE_CURVE_WITH_KNOTS('',7,(#615,#616,#617,#618,#619,#620,
    #621,#622,#623,#624,#625,#626,#627,#628,#629,#630,#631,#632,#633,
    #634,#635,#636,#637,#638,#639,#640,#641,#642,#643,#644,#645,#646,
    #647,#648,#649,#650,#651,#652,#653,#654,#655,#656,#657,#658,#659,
    #660,#661,#662,#663,#664,#665,#666,#667,#668,#669,#670,#671,#672,
    #673,#674,#675,#676,#677,#678,#679,#680,#681,#682,#683,#684,#685,
    #686,#687,#688,#689,#690,#691,#692,#693,#694,#695,#696,#697,#698,
    #699,#700,#701,#702,#703,#704,#705,#706,#707,#708,#709,#710,#711,
    #712),.UNSPECIFIED.,.T.,.F.,(8,6,6,6,6,6,6,6,6,6,6,6,6,6,6,6,8),(0.,
    4.178835999047E-02,0.105971220124,0.184431536371,0.248997944524,
    0.291680207101,0.392625403353,0.457401963142,0.499330639417,
    0.541501168504,0.6057727555,0.68434153587,0.748997201099,
    0.791738467942,0.892823211547,0.957689318911,1.),.UNSPECIFIED.);
#615 = CARTESIAN_POINT('',(74.15,41.,51.101564028866));
#616 = CARTESIAN_POINT('',(74.15,41.044030494104,51.101564028866));
#617 = CARTESIAN_POINT('',(74.148033216606,41.087842282038,
    51.098731331854));
#618 = CARTESIAN_POINT('',(74.144134828906,41.131329550025,
    51.093116118779));
#619 = CARTESIAN_POINT('',(74.138346891524,41.174367979555,
    51.084873838199));
#620 = CARTESIAN_POINT('',(74.1307281112,41.216791109076,51.074266542685
    ));
#621 = CARTESIAN_POINT('',(74.121381978922,41.258370798812,
    51.061655430921));
#622 = CARTESIAN_POINT('',(74.093794598748,41.360899885601,
    51.025719569365));
#623 = CARTESIAN_POINT('',(74.073329376944,41.420815179282,
    51.000090335617));
#624 = CARTESIAN_POINT('',(74.049362606043,41.478609892779,
    50.971659187767));
#625 = CARTESIAN_POINT('',(74.02207632172,41.534275222629,
    50.941361039263));
#626 = CARTESIAN_POINT('',(73.991587707094,41.587820659768,
    50.909918428526));
#627 = CARTESIAN_POINT('',(73.957921817578,41.639294131949,
    50.877847583001));
#628 = CARTESIAN_POINT('',(73.875751380015,41.749169478338,
    50.806080147616));
#629 = CARTESIAN_POINT('',(73.825622980785,41.806552396826,
    50.766282421287));
#630 = CARTESIAN_POINT('',(73.770524172573,41.860697463916,
    50.727066831285));
#631 = CARTESIAN_POINT('',(73.710377464431,41.91127041088,
    50.689222949175));
#632 = CARTESIAN_POINT('',(73.645098709028,41.95779870308,
    50.653527320815));
#633 = CARTESIAN_POINT('',(73.574640744781,41.999663834707,
    50.620807355621));
#634 = CARTESIAN_POINT('',(73.436843884074,42.066036917781,
    50.568234178761));
#635 = CARTESIAN_POINT('',(73.370913404067,42.092425703422,
    50.547033478713));
#636 = CARTESIAN_POINT('',(73.301791173128,42.114478403685,
    50.529120592977));
#637 = CARTESIAN_POINT('',(73.230097250139,42.131607753404,
    50.515104944576));
#638 = CARTESIAN_POINT('',(73.156514951736,42.1433882291,50.505431160377
    ));
#639 = CARTESIAN_POINT('',(73.081767129676,42.149550163401,
    50.500369506702));
#640 = CARTESIAN_POINT('',(72.956897225047,42.150265983066,
    50.49978151512));
#641 = CARTESIAN_POINT('',(72.907226431006,42.148045179582,
    50.501605595813));
#642 = CARTESIAN_POINT('',(72.857837753717,42.143324339131,
    50.505484271397));
#643 = CARTESIAN_POINT('',(72.808989075889,42.136152440183,
    50.511368296246));
#644 = CARTESIAN_POINT('',(72.760933443446,42.126622372311,
    50.519163743883));
#645 = CARTESIAN_POINT('',(72.713914188145,42.114871513493,
    50.528733080158));
#646 = CARTESIAN_POINT('',(72.559949750267,42.068470303526,
    50.566297531272));
#647 = CARTESIAN_POINT('',(72.459444318843,42.024646708777,
    50.601460990279));
#648 = CARTESIAN_POINT('',(72.367205581041,41.971565199177,
    50.643389314002));
#649 = CARTESIAN_POINT('',(72.283447087503,41.910813116647,
    50.690216583331));
#650 = CARTESIAN_POINT('',(72.208182157799,41.843664546885,
    50.740184618148));
#651 = CARTESIAN_POINT('',(72.141320558865,41.77109088327,
    50.791546273005));
#652 = CARTESIAN_POINT('',(72.045246025396,41.644065463922,
    50.874858281519));
#653 = CARTESIAN_POINT('',(72.011058762267,41.592346185667,
    50.907230295374));
#654 = CARTESIAN_POINT('',(71.980099511967,41.538524145272,
    50.938997279862));
#655 = CARTESIAN_POINT('',(71.952388744509,41.482549980612,
    50.969639292729));
#656 = CARTESIAN_POINT('',(71.92804279033,41.424412822922,
    50.998425632362));
#657 = CARTESIAN_POINT('',(71.907245924414,41.364121440958,
    51.024405865718));
#658 = CARTESIAN_POINT('',(71.879260449287,41.261152881661,
    51.060793102652));
#659 = CARTESIAN_POINT('',(71.869797440835,41.219535133583,
    51.073541705061));
#660 = CARTESIAN_POINT('',(71.86206436208,41.177065090023,
    51.084294284729));
#661 = CARTESIAN_POINT('',(71.856165886902,41.133970638915,
    51.092686113271));
#662 = CARTESIAN_POINT('',(71.852161652501,41.090417463916,
    51.098450718418));
#663 = CARTESIAN_POINT('',(71.850094813744,41.046528177934,
    51.101427468032));
#664 = CARTESIAN_POINT('',(71.849909686047,40.958028552651,
    51.101694108599));
#665 = CARTESIAN_POINT('',(71.851815181146,40.913863920101,51.0989497484
    ));
#666 = CARTESIAN_POINT('',(71.855684110723,40.870021439602,
    51.093374062926));
#667 = CARTESIAN_POINT('',(71.861474170446,40.826629058666,
    51.085123027543));
#668 = CARTESIAN_POINT('',(71.869125936824,40.783857855145,
    51.074463453908));
#669 = CARTESIAN_POINT('',(71.878533686795,40.741942631352,
    51.06176528641));
#670 = CARTESIAN_POINT('',(71.906205401252,40.639100114399,
    51.025719569365));
#671 = CARTESIAN_POINT('',(71.926670623056,40.579184820718,
    51.000090335617));
#672 = CARTESIAN_POINT('',(71.950637393957,40.521390107221,
    50.971659187767));
#673 = CARTESIAN_POINT('',(71.97792367828,40.465724777371,
    50.941361039263));
#674 = CARTESIAN_POINT('',(72.008412292906,40.412179340232,
    50.909918428526));
#675 = CARTESIAN_POINT('',(72.042078182422,40.360705868051,
    50.877847583001));
#676 = CARTESIAN_POINT('',(72.124248619985,40.250830521662,
    50.806080147616));
#677 = CARTESIAN_POINT('',(72.174377019215,40.193447603174,
    50.766282421287));
#678 = CARTESIAN_POINT('',(72.229475827427,40.139302536084,
    50.727066831285));
#679 = CARTESIAN_POINT('',(72.289622535569,40.088729589119,
    50.689222949175));
#680 = CARTESIAN_POINT('',(72.354901290972,40.04220129692,
    50.653527320815));
#681 = CARTESIAN_POINT('',(72.425359255219,40.000336165293,
    50.620807355621));
#682 = CARTESIAN_POINT('',(72.56315611592,39.933963082222,
    50.568234178763));
#683 = CARTESIAN_POINT('',(72.629086595933,39.907574296578,
    50.547033478712));
#684 = CARTESIAN_POINT('',(72.698208826876,39.885521596313,
    50.529120592975));
#685 = CARTESIAN_POINT('',(72.769902749866,39.868392246596,
    50.515104944576));
#686 = CARTESIAN_POINT('',(72.843485048263,39.856611770901,
    50.505431160378));
#687 = CARTESIAN_POINT('',(72.918232870318,39.850449836599,
    50.500369506702));
#688 = CARTESIAN_POINT('',(73.043102774948,39.849734016935,
    50.49978151512));
#689 = CARTESIAN_POINT('',(73.092773568994,39.851954820418,
    50.501605595812));
#690 = CARTESIAN_POINT('',(73.142162246287,39.856675660869,
    50.505484271397));
#691 = CARTESIAN_POINT('',(73.191010924114,39.863847559817,
    50.511368296247));
#692 = CARTESIAN_POINT('',(73.239066556553,39.87337762769,
    50.519163743884));
#693 = CARTESIAN_POINT('',(73.286085811851,39.885128486505,
    50.528733080157));
#694 = CARTESIAN_POINT('',(73.440050249733,39.931529696474,
    50.566297531272));
#695 = CARTESIAN_POINT('',(73.540555681157,39.975353291223,
    50.601460990279));
#696 = CARTESIAN_POINT('',(73.632794418959,40.028434800823,
    50.643389314002));
#697 = CARTESIAN_POINT('',(73.716552912496,40.089186883352,
    50.690216583331));
#698 = CARTESIAN_POINT('',(73.791817842201,40.156335453115,
    50.740184618148));
#699 = CARTESIAN_POINT('',(73.858679441135,40.22890911673,
    50.791546273005));
#700 = CARTESIAN_POINT('',(73.954753974604,40.355934536078,
    50.874858281519));
#701 = CARTESIAN_POINT('',(73.988941237733,40.407653814333,
    50.907230295373));
#702 = CARTESIAN_POINT('',(74.019900488033,40.461475854727,
    50.938997279862));
#703 = CARTESIAN_POINT('',(74.047611255491,40.517450019388,
    50.969639292729));
#704 = CARTESIAN_POINT('',(74.07195720967,40.575587177078,
    50.998425632362));
#705 = CARTESIAN_POINT('',(74.092754075586,40.635878559042,
    51.024405865718));
#706 = CARTESIAN_POINT('',(74.120824419643,40.739159381445,
    51.060903450818));
#707 = CARTESIAN_POINT('',(74.130349952045,40.781112540936,
    51.073740232435));
#708 = CARTESIAN_POINT('',(74.138116947502,40.82393103505,
    51.084546447053));
#709 = CARTESIAN_POINT('',(74.144018367586,40.867379931615,
    51.092948365687));
#710 = CARTESIAN_POINT('',(74.147993843681,40.91128869328,
    51.098674627598));
#711 = CARTESIAN_POINT('',(74.15,40.955530965787,51.101564028866));
#712 = CARTESIAN_POINT('',(74.15,41.,51.101564028866));
#713 = FACE_BOUND('',#714,.F.);
#714 = EDGE_LOOP('',(#715));
#715 = ORIENTED_EDGE('',*,*,#716,.F.);
#716 = EDGE_CURVE('',#717,#717,#719,.T.);
#717 = VERTEX_POINT('',#718);
#718 = CARTESIAN_POINT('',(74.15,41.,52.698435971134));
#719 = B_SPLINE_CURVE_WITH_KNOTS('',7,(#720,#721,#722,#723,#724,#725,
    #726,#727,#728,#729,#730,#731,#732,#733,#734,#735,#736,#737,#738,
    #739,#740,#741,#742,#743,#744,#745,#746,#747,#748,#749,#750,#751,
    #752,#753,#754,#755,#756,#757,#758,#759,#760,#761,#762,#763,#764,
    #765,#766,#767,#768,#769,#770,#771,#772,#773,#774,#775,#776,#777,
    #778,#779,#780,#781,#782,#783,#784,#785,#786,#787,#788,#789,#790,
    #791,#792,#793,#794,#795,#796,#797,#798,#799,#800,#801,#802,#803,
    #804,#805,#806,#807,#808,#809,#810,#811,#812,#813,#814,#815,#816,
    #817),.UNSPECIFIED.,.T.,.F.,(8,6,6,6,6,6,6,6,6,6,6,6,6,6,6,6,8),(0.,
    4.17883614316E-02,0.105971223779,0.184431542731,0.248997953111,
    0.291680217156,0.392625414698,0.457401973865,0.499330649737,
    0.541501178474,0.605772765031,0.684341544864,0.748997209656,
    0.791738476214,0.892823216969,0.957689321051,1.),.UNSPECIFIED.);
#720 = CARTESIAN_POINT('',(74.15,41.,52.698435971134));
#721 = CARTESIAN_POINT('',(74.15,41.044030494104,52.698435971134));
#722 = CARTESIAN_POINT('',(74.148033216606,41.087842282038,
    52.701268668146));
#723 = CARTESIAN_POINT('',(74.144134828906,41.131329550025,
    52.706883881221));
#724 = CARTESIAN_POINT('',(74.138346891524,41.174367979555,
    52.715126161801));
#725 = CARTESIAN_POINT('',(74.1307281112,41.216791109076,52.725733457315
    ));
#726 = CARTESIAN_POINT('',(74.121381978922,41.258370798812,
    52.738344569079));
#727 = CARTESIAN_POINT('',(74.093794598748,41.360899885601,
    52.774280430635));
#728 = CARTESIAN_POINT('',(74.073329376944,41.420815179282,
    52.799909664383));
#729 = CARTESIAN_POINT('',(74.049362606043,41.478609892779,
    52.828340812233));
#730 = CARTESIAN_POINT('',(74.02207632172,41.534275222629,
    52.858638960737));
#731 = CARTESIAN_POINT('',(73.991587707094,41.587820659768,
    52.890081571474));
#732 = CARTESIAN_POINT('',(73.957921817578,41.639294131949,
    52.922152416999));
#733 = CARTESIAN_POINT('',(73.875751380015,41.749169478338,
    52.993919852384));
#734 = CARTESIAN_POINT('',(73.825622980785,41.806552396826,
    53.033717578713));
#735 = CARTESIAN_POINT('',(73.770524172573,41.860697463916,
    53.072933168715));
#736 = CARTESIAN_POINT('',(73.710377464431,41.911270410881,
    53.110777050825));
#737 = CARTESIAN_POINT('',(73.645098709028,41.95779870308,
    53.146472679185));
#738 = CARTESIAN_POINT('',(73.57464074478,41.999663834707,
    53.179192644379));
#739 = CARTESIAN_POINT('',(73.436843884074,42.066036917781,
    53.231765821239));
#740 = CARTESIAN_POINT('',(73.370913404067,42.092425703422,
    53.252966521287));
#741 = CARTESIAN_POINT('',(73.301791173129,42.114478403685,
    53.270879407023));
#742 = CARTESIAN_POINT('',(73.230097250139,42.131607753404,
    53.284895055424));
#743 = CARTESIAN_POINT('',(73.156514951736,42.1433882291,53.294568839623
    ));
#744 = CARTESIAN_POINT('',(73.081767129676,42.149550163401,
    53.299630493299));
#745 = CARTESIAN_POINT('',(72.956897225052,42.150265983065,
    53.30021848488));
#746 = CARTESIAN_POINT('',(72.907226431006,42.148045179582,
    53.298394404188));
#747 = CARTESIAN_POINT('',(72.857837753713,42.143324339131,
    53.294515728603));
#748 = CARTESIAN_POINT('',(72.808989075886,42.136152440183,
    53.288631703753));
#749 = CARTESIAN_POINT('',(72.760933443447,42.12662237231,
    53.280836256116));
#750 = CARTESIAN_POINT('',(72.713914188149,42.114871513495,
    53.271266919843));
#751 = CARTESIAN_POINT('',(72.559949752597,42.068470304229,
    53.233702469296));
#752 = CARTESIAN_POINT('',(72.459444313275,42.024646707518,
    53.19853900859));
#753 = CARTESIAN_POINT('',(72.367205585777,41.97156519857,
    53.156610685939));
#754 = CARTESIAN_POINT('',(72.283447087526,41.910813120509,
    53.109783419048));
#755 = CARTESIAN_POINT('',(72.208182155168,41.843664542561,
    53.059815379025));
#756 = CARTESIAN_POINT('',(72.141320560175,41.771090885003,
    53.008453728131));
#757 = CARTESIAN_POINT('',(72.045246025396,41.644065463922,
    52.925141718481));
#758 = CARTESIAN_POINT('',(72.011058762267,41.592346185667,
    52.892769704627));
#759 = CARTESIAN_POINT('',(71.980099511967,41.538524145273,
    52.861002720138));
#760 = CARTESIAN_POINT('',(71.952388744509,41.482549980612,
    52.830360707271));
#761 = CARTESIAN_POINT('',(71.92804279033,41.424412822922,
    52.801574367638));
#762 = CARTESIAN_POINT('',(71.907245924414,41.364121440958,
    52.775594134282));
#763 = CARTESIAN_POINT('',(71.879260449287,41.261152881661,
    52.739206897348));
#764 = CARTESIAN_POINT('',(71.869797440835,41.219535133583,
    52.726458294939));
#765 = CARTESIAN_POINT('',(71.86206436208,41.177065090023,
    52.715705715271));
#766 = CARTESIAN_POINT('',(71.856165886903,41.133970638915,
    52.707313886729));
#767 = CARTESIAN_POINT('',(71.852161652501,41.090417463916,
    52.701549281582));
#768 = CARTESIAN_POINT('',(71.850094813744,41.046528177934,
    52.698572531968));
#769 = CARTESIAN_POINT('',(71.849909686047,40.958028552593,
    52.698305891401));
#770 = CARTESIAN_POINT('',(71.851815181152,40.913863920091,
    52.701050251608));
#771 = CARTESIAN_POINT('',(71.855684110721,40.870021439647,
    52.706625937071));
#772 = CARTESIAN_POINT('',(71.861474170436,40.826629058716,
    52.714876972443));
#773 = CARTESIAN_POINT('',(71.86912593682,40.783857855142,
    52.725536546087));
#774 = CARTESIAN_POINT('',(71.878533686811,40.741942631292,
    52.738234713611));
#775 = CARTESIAN_POINT('',(71.906205401252,40.639100114399,
    52.774280430635));
#776 = CARTESIAN_POINT('',(71.926670623056,40.579184820718,
    52.799909664383));
#777 = CARTESIAN_POINT('',(71.950637393957,40.521390107221,
    52.828340812233));
#778 = CARTESIAN_POINT('',(71.97792367828,40.465724777371,
    52.858638960737));
#779 = CARTESIAN_POINT('',(72.008412292906,40.412179340232,
    52.890081571474));
#780 = CARTESIAN_POINT('',(72.042078182422,40.360705868051,
    52.922152416999));
#781 = CARTESIAN_POINT('',(72.124248619985,40.250830521662,
    52.993919852384));
#782 = CARTESIAN_POINT('',(72.174377019215,40.193447603174,
    53.033717578713));
#783 = CARTESIAN_POINT('',(72.229475827427,40.139302536084,
    53.072933168715));
#784 = CARTESIAN_POINT('',(72.289622535569,40.088729589119,
    53.110777050825));
#785 = CARTESIAN_POINT('',(72.354901290972,40.04220129692,
    53.146472679185));
#786 = CARTESIAN_POINT('',(72.425359255219,40.000336165293,
    53.179192644379));
#787 = CARTESIAN_POINT('',(72.563156115926,39.933963082219,
    53.231765821239));
#788 = CARTESIAN_POINT('',(72.629086595933,39.907574296578,
    53.252966521287));
#789 = CARTESIAN_POINT('',(72.698208826872,39.885521596315,
    53.270879407023));
#790 = CARTESIAN_POINT('',(72.769902749861,39.868392246596,
    53.284895055424));
#791 = CARTESIAN_POINT('',(72.843485048264,39.8566117709,53.294568839623
    ));
#792 = CARTESIAN_POINT('',(72.918232870324,39.850449836599,
    53.299630493299));
#793 = CARTESIAN_POINT('',(73.043102774948,39.849734016935,
    53.30021848488));
#794 = CARTESIAN_POINT('',(73.092773568993,39.851954820418,
    53.298394404188));
#795 = CARTESIAN_POINT('',(73.142162246287,39.856675660869,
    53.294515728603));
#796 = CARTESIAN_POINT('',(73.191010924114,39.863847559817,
    53.288631703753));
#797 = CARTESIAN_POINT('',(73.239066556553,39.87337762769,
    53.280836256116));
#798 = CARTESIAN_POINT('',(73.286085811851,39.885128486505,
    53.271266919843));
#799 = CARTESIAN_POINT('',(73.440050247403,39.931529695771,
    53.233702469296));
#800 = CARTESIAN_POINT('',(73.540555686725,39.975353292482,
    53.198539008589));
#801 = CARTESIAN_POINT('',(73.632794414222,40.028434801429,
    53.156610685939));
#802 = CARTESIAN_POINT('',(73.716552912475,40.089186879492,
    53.109783419048));
#803 = CARTESIAN_POINT('',(73.791817844832,40.156335457439,
    53.059815379025));
#804 = CARTESIAN_POINT('',(73.858679439825,40.228909114998,
    53.008453728131));
#805 = CARTESIAN_POINT('',(73.954753974604,40.355934536078,
    52.925141718481));
#806 = CARTESIAN_POINT('',(73.988941237733,40.407653814333,
    52.892769704626));
#807 = CARTESIAN_POINT('',(74.019900488033,40.461475854727,
    52.861002720138));
#808 = CARTESIAN_POINT('',(74.047611255491,40.517450019388,
    52.830360707271));
#809 = CARTESIAN_POINT('',(74.07195720967,40.575587177078,
    52.801574367638));
#810 = CARTESIAN_POINT('',(74.092754075586,40.635878559042,
    52.775594134282));
#811 = CARTESIAN_POINT('',(74.120824419643,40.739159381445,
    52.739096549182));
#812 = CARTESIAN_POINT('',(74.130349952045,40.781112540936,
    52.726259767566));
#813 = CARTESIAN_POINT('',(74.138116947502,40.82393103505,
    52.715453552947));
#814 = CARTESIAN_POINT('',(74.144018367586,40.867379931615,
    52.707051634313));
#815 = CARTESIAN_POINT('',(74.147993843681,40.91128869328,
    52.701325372402));
#816 = CARTESIAN_POINT('',(74.15,40.955530965787,52.698435971134));
#817 = CARTESIAN_POINT('',(74.15,41.,52.698435971134));
#818 = CYLINDRICAL_SURFACE('',#819,1.4);
#819 = AXIS2_PLACEMENT_3D('',#820,#821,#822);
#820 = CARTESIAN_POINT('',(73.,41.,51.9));
#821 = DIRECTION('',(0.,-1.,2.2E-16));
#822 = DIRECTION('',(1.,0.,0.));
#823 = ADVANCED_FACE('',(#824),#842,.F.);
#824 = FACE_BOUND('',#825,.F.);
#825 = EDGE_LOOP('',(#826,#834,#840,#841));
#826 = ORIENTED_EDGE('',*,*,#827,.T.);
#827 = EDGE_CURVE('',#286,#828,#830,.T.);
#828 = VERTEX_POINT('',#829);
#829 = CARTESIAN_POINT('',(76.,39.267949192431,44.));
#830 = LINE('',#831,#832);
#831 = CARTESIAN_POINT('',(76.,35.2,44.));
#832 = VECTOR('',#833,1.);
#833 = DIRECTION('',(0.,1.,-2.2E-16));
#834 = ORIENTED_EDGE('',*,*,#835,.T.);
#835 = EDGE_CURVE('',#828,#561,#836,.T.);
#836 = LINE('',#837,#838);
#837 = CARTESIAN_POINT('',(76.,39.267949192431,44.));
#838 = VECTOR('',#839,1.);
#839 = DIRECTION('',(0.,0.,1.));
#840 = ORIENTED_EDGE('',*,*,#560,.F.);
#841 = ORIENTED_EDGE('',*,*,#294,.T.);
#842 = PLANE('',#843);
#843 = AXIS2_PLACEMENT_3D('',#844,#845,#846);
#844 = CARTESIAN_POINT('',(76.,35.2,44.));
#845 = DIRECTION('',(1.,0.,0.));
#846 = DIRECTION('',(0.,2.2E-16,1.));
#847 = ADVANCED_FACE('',(#848),#881,.F.);
#848 = FACE_BOUND('',#849,.F.);
#849 = EDGE_LOOP('',(#850,#858,#866,#872,#873,#874,#880));
#850 = ORIENTED_EDGE('',*,*,#851,.T.);
#851 = EDGE_CURVE('',#235,#852,#854,.T.);
#852 = VERTEX_POINT('',#853);
#853 = CARTESIAN_POINT('',(70.,39.267949192431,44.));
#854 = LINE('',#855,#856);
#855 = CARTESIAN_POINT('',(70.,35.2,44.));
#856 = VECTOR('',#857,1.);
#857 = DIRECTION('',(0.,1.,-2.2E-16));
#858 = ORIENTED_EDGE('',*,*,#859,.F.);
#859 = EDGE_CURVE('',#860,#852,#862,.T.);
#860 = VERTEX_POINT('',#861);
#861 = CARTESIAN_POINT('',(73.,37.535898384862,44.));
#862 = LINE('',#863,#864);
#863 = CARTESIAN_POINT('',(73.,37.535898384862,44.));
#864 = VECTOR('',#865,1.);
#865 = DIRECTION('',(-0.866025403784,0.5,-0.));
#866 = ORIENTED_EDGE('',*,*,#867,.F.);
#867 = EDGE_CURVE('',#828,#860,#868,.T.);
#868 = LINE('',#869,#870);
#869 = CARTESIAN_POINT('',(76.,39.267949192431,44.));
#870 = VECTOR('',#871,1.);
#871 = DIRECTION('',(-0.866025403784,-0.5,0.));
#872 = ORIENTED_EDGE('',*,*,#827,.F.);
#873 = ORIENTED_EDGE('',*,*,#285,.T.);
#874 = ORIENTED_EDGE('',*,*,#875,.F.);
#875 = EDGE_CURVE('',#243,#278,#876,.T.);
#876 = LINE('',#877,#878);
#877 = CARTESIAN_POINT('',(70.,35.2,44.));
#878 = VECTOR('',#879,1.);
#879 = DIRECTION('',(1.,0.,0.));
#880 = ORIENTED_EDGE('',*,*,#242,.T.);
#881 = PLANE('',#882);
#882 = AXIS2_PLACEMENT_3D('',#883,#884,#885);
#883 = CARTESIAN_POINT('',(70.,35.2,44.));
#884 = DIRECTION('',(0.,-2.2E-16,-1.));
#885 = DIRECTION('',(1.,0.,0.));
#886 = ADVANCED_FACE('',(#887),#898,.T.);
#887 = FACE_BOUND('',#888,.T.);
#888 = EDGE_LOOP('',(#889,#890,#891,#897));
#889 = ORIENTED_EDGE('',*,*,#875,.F.);
#890 = ORIENTED_EDGE('',*,*,#251,.T.);
#891 = ORIENTED_EDGE('',*,*,#892,.F.);
#892 = EDGE_CURVE('',#269,#252,#893,.T.);
#893 = LINE('',#894,#895);
#894 = CARTESIAN_POINT('',(72.88519075,35.2,41.));
#895 = VECTOR('',#896,1.);
#896 = DIRECTION('',(-1.,0.,0.));
#897 = ORIENTED_EDGE('',*,*,#277,.F.);
#898 = PLANE('',#899);
#899 = AXIS2_PLACEMENT_3D('',#900,#901,#902);
#900 = CARTESIAN_POINT('',(73.,35.2,59.88370309279));
#901 = DIRECTION('',(2.8E-16,-1.,0.));
#902 = DIRECTION('',(-1.,-2.8E-16,0.));
#903 = ADVANCED_FACE('',(#904,#909),#920,.F.);
#904 = FACE_BOUND('',#905,.F.);
#905 = EDGE_LOOP('',(#906,#907,#908));
#906 = ORIENTED_EDGE('',*,*,#268,.T.);
#907 = ORIENTED_EDGE('',*,*,#259,.T.);
#908 = ORIENTED_EDGE('',*,*,#892,.F.);
#909 = FACE_BOUND('',#910,.F.);
#910 = EDGE_LOOP('',(#911));
#911 = ORIENTED_EDGE('',*,*,#912,.F.);
#912 = EDGE_CURVE('',#913,#913,#915,.T.);
#913 = VERTEX_POINT('',#914);
#914 = CARTESIAN_POINT('',(74.15,41.,41.));
#915 = CIRCLE('',#916,1.15);
#916 = AXIS2_PLACEMENT_3D('',#917,#918,#919);
#917 = CARTESIAN_POINT('',(73.,41.,41.));
#918 = DIRECTION('',(0.,0.,1.));
#919 = DIRECTION('',(1.,0.,0.));
#920 = PLANE('',#921);
#921 = AXIS2_PLACEMENT_3D('',#922,#923,#924);
#922 = CARTESIAN_POINT('',(73.,41.,41.));
#923 = DIRECTION('',(0.,0.,1.));
#924 = DIRECTION('',(1.,0.,0.));
#925 = ADVANCED_FACE('',(#926),#937,.F.);
#926 = FACE_BOUND('',#927,.F.);
#927 = EDGE_LOOP('',(#928,#929,#935,#936));
#928 = ORIENTED_EDGE('',*,*,#584,.T.);
#929 = ORIENTED_EDGE('',*,*,#930,.F.);
#930 = EDGE_CURVE('',#852,#577,#931,.T.);
#931 = LINE('',#932,#933);
#932 = CARTESIAN_POINT('',(70.,39.267949192431,44.));
#933 = VECTOR('',#934,1.);
#934 = DIRECTION('',(0.,0.,1.));
#935 = ORIENTED_EDGE('',*,*,#851,.F.);
#936 = ORIENTED_EDGE('',*,*,#234,.F.);
#937 = PLANE('',#938);
#938 = AXIS2_PLACEMENT_3D('',#939,#940,#941);
#939 = CARTESIAN_POINT('',(70.,35.2,49.));
#940 = DIRECTION('',(-1.,0.,0.));
#941 = DIRECTION('',(-0.,-2.2E-16,-1.));
#942 = ADVANCED_FACE('',(#943),#969,.T.);
#943 = FACE_BOUND('',#944,.T.);
#944 = EDGE_LOOP('',(#945,#955,#961,#962,#963));
#945 = ORIENTED_EDGE('',*,*,#946,.F.);
#946 = EDGE_CURVE('',#947,#949,#951,.T.);
#947 = VERTEX_POINT('',#948);
#948 = CARTESIAN_POINT('',(79.,39.5,64.5));
#949 = VERTEX_POINT('',#950);
#950 = CARTESIAN_POINT('',(79.,42.5,64.5));
#951 = LINE('',#952,#953);
#952 = CARTESIAN_POINT('',(79.,39.5,64.5));
#953 = VECTOR('',#954,1.);
#954 = DIRECTION('',(0.,1.,0.));
#955 = ORIENTED_EDGE('',*,*,#956,.T.);
#956 = EDGE_CURVE('',#947,#462,#957,.T.);
#957 = LINE('',#958,#959);
#958 = CARTESIAN_POINT('',(79.,39.5,73.));
#959 = VECTOR('',#960,1.);
#960 = DIRECTION('',(0.,0.,1.));
#961 = ORIENTED_EDGE('',*,*,#461,.T.);
#962 = ORIENTED_EDGE('',*,*,#482,.T.);
#963 = ORIENTED_EDGE('',*,*,#964,.T.);
#964 = EDGE_CURVE('',#483,#949,#965,.T.);
#965 = LINE('',#966,#967);
#966 = CARTESIAN_POINT('',(79.,42.5,73.));
#967 = VECTOR('',#968,1.);
#968 = DIRECTION('',(-0.,-0.,-1.));
#969 = PLANE('',#970);
#970 = AXIS2_PLACEMENT_3D('',#971,#972,#973);
#971 = CARTESIAN_POINT('',(79.,41.,69.25));
#972 = DIRECTION('',(-1.,-0.,-0.));
#973 = DIRECTION('',(0.,0.,-1.));
#974 = ADVANCED_FACE('',(#975),#993,.T.);
#975 = FACE_BOUND('',#976,.T.);
#976 = EDGE_LOOP('',(#977,#985,#986,#987));
#977 = ORIENTED_EDGE('',*,*,#978,.T.);
#978 = EDGE_CURVE('',#979,#537,#981,.T.);
#979 = VERTEX_POINT('',#980);
#980 = CARTESIAN_POINT('',(76.976493430147,39.5,64.5));
#981 = LINE('',#982,#983);
#982 = CARTESIAN_POINT('',(76.976493430147,39.5,73.));
#983 = VECTOR('',#984,1.);
#984 = DIRECTION('',(0.,0.,1.));
#985 = ORIENTED_EDGE('',*,*,#545,.T.);
#986 = ORIENTED_EDGE('',*,*,#956,.F.);
#987 = ORIENTED_EDGE('',*,*,#988,.F.);
#988 = EDGE_CURVE('',#979,#947,#989,.T.);
#989 = LINE('',#990,#991);
#990 = CARTESIAN_POINT('',(67.,39.5,64.5));
#991 = VECTOR('',#992,1.);
#992 = DIRECTION('',(1.,0.,0.));
#993 = PLANE('',#994);
#994 = AXIS2_PLACEMENT_3D('',#995,#996,#997);
#995 = CARTESIAN_POINT('',(77.988246715073,39.5,69.25));
#996 = DIRECTION('',(-7.7E-16,1.,0.));
#997 = DIRECTION('',(1.,7.7E-16,0.));
#998 = ADVANCED_FACE('',(#999),#1018,.F.);
#999 = FACE_BOUND('',#1000,.T.);
#1000 = EDGE_LOOP('',(#1001,#1010,#1016,#1017));
#1001 = ORIENTED_EDGE('',*,*,#1002,.F.);
#1002 = EDGE_CURVE('',#1003,#979,#1005,.T.);
#1003 = VERTEX_POINT('',#1004);
#1004 = CARTESIAN_POINT('',(69.023506569853,39.5,64.5));
#1005 = CIRCLE('',#1006,4.25);
#1006 = AXIS2_PLACEMENT_3D('',#1007,#1008,#1009);
#1007 = CARTESIAN_POINT('',(73.,41.,64.5));
#1008 = DIRECTION('',(0.,0.,1.));
#1009 = DIRECTION('',(1.,0.,0.));
#1010 = ORIENTED_EDGE('',*,*,#1011,.T.);
#1011 = EDGE_CURVE('',#1003,#528,#1012,.T.);
#1012 = LINE('',#1013,#1014);
#1013 = CARTESIAN_POINT('',(69.023506569853,39.5,73.));
#1014 = VECTOR('',#1015,1.);
#1015 = DIRECTION('',(0.,0.,1.));
#1016 = ORIENTED_EDGE('',*,*,#536,.F.);
#1017 = ORIENTED_EDGE('',*,*,#978,.F.);
#1018 = CYLINDRICAL_SURFACE('',#1019,4.25);
#1019 = AXIS2_PLACEMENT_3D('',#1020,#1021,#1022);
#1020 = CARTESIAN_POINT('',(73.,41.,73.));
#1021 = DIRECTION('',(-0.,-0.,-1.));
#1022 = DIRECTION('',(1.,0.,0.));
#1023 = ADVANCED_FACE('',(#1024),#1042,.T.);
#1024 = FACE_BOUND('',#1025,.T.);
#1025 = EDGE_LOOP('',(#1026,#1034,#1040,#1041));
#1026 = ORIENTED_EDGE('',*,*,#1027,.F.);
#1027 = EDGE_CURVE('',#1028,#1003,#1030,.T.);
#1028 = VERTEX_POINT('',#1029);
#1029 = CARTESIAN_POINT('',(67.,39.5,64.5));
#1030 = LINE('',#1031,#1032);
#1031 = CARTESIAN_POINT('',(67.,39.5,64.5));
#1032 = VECTOR('',#1033,1.);
#1033 = DIRECTION('',(1.,0.,0.));
#1034 = ORIENTED_EDGE('',*,*,#1035,.T.);
#1035 = EDGE_CURVE('',#1028,#519,#1036,.T.);
#1036 = LINE('',#1037,#1038);
#1037 = CARTESIAN_POINT('',(67.,39.5,73.));
#1038 = VECTOR('',#1039,1.);
#1039 = DIRECTION('',(0.,0.,1.));
#1040 = ORIENTED_EDGE('',*,*,#527,.T.);
#1041 = ORIENTED_EDGE('',*,*,#1011,.F.);
#1042 = PLANE('',#1043);
#1043 = AXIS2_PLACEMENT_3D('',#1044,#1045,#1046);
#1044 = CARTESIAN_POINT('',(68.011753284927,39.5,69.25));
#1045 = DIRECTION('',(-4.4E-16,1.,0.));
#1046 = DIRECTION('',(1.,4.4E-16,0.));
#1047 = ADVANCED_FACE('',(#1048),#1066,.T.);
#1048 = FACE_BOUND('',#1049,.T.);
#1049 = EDGE_LOOP('',(#1050,#1058,#1064,#1065));
#1050 = ORIENTED_EDGE('',*,*,#1051,.F.);
#1051 = EDGE_CURVE('',#1052,#1028,#1054,.T.);
#1052 = VERTEX_POINT('',#1053);
#1053 = CARTESIAN_POINT('',(67.,42.5,64.5));
#1054 = LINE('',#1055,#1056);
#1055 = CARTESIAN_POINT('',(67.,42.5,64.5));
#1056 = VECTOR('',#1057,1.);
#1057 = DIRECTION('',(0.,-1.,0.));
#1058 = ORIENTED_EDGE('',*,*,#1059,.T.);
#1059 = EDGE_CURVE('',#1052,#510,#1060,.T.);
#1060 = LINE('',#1061,#1062);
#1061 = CARTESIAN_POINT('',(67.,42.5,73.));
#1062 = VECTOR('',#1063,1.);
#1063 = DIRECTION('',(0.,0.,1.));
#1064 = ORIENTED_EDGE('',*,*,#518,.T.);
#1065 = ORIENTED_EDGE('',*,*,#1035,.F.);
#1066 = PLANE('',#1067);
#1067 = AXIS2_PLACEMENT_3D('',#1068,#1069,#1070);
#1068 = CARTESIAN_POINT('',(67.,41.,69.25));
#1069 = DIRECTION('',(1.,0.,0.));
#1070 = DIRECTION('',(0.,0.,1.));
#1071 = ADVANCED_FACE('',(#1072),#1090,.T.);
#1072 = FACE_BOUND('',#1073,.T.);
#1073 = EDGE_LOOP('',(#1074,#1082,#1083,#1084));
#1074 = ORIENTED_EDGE('',*,*,#1075,.T.);
#1075 = EDGE_CURVE('',#1076,#501,#1078,.T.);
#1076 = VERTEX_POINT('',#1077);
#1077 = CARTESIAN_POINT('',(69.023506569853,42.5,64.5));
#1078 = LINE('',#1079,#1080);
#1079 = CARTESIAN_POINT('',(69.023506569853,42.5,73.));
#1080 = VECTOR('',#1081,1.);
#1081 = DIRECTION('',(0.,0.,1.));
#1082 = ORIENTED_EDGE('',*,*,#509,.T.);
#1083 = ORIENTED_EDGE('',*,*,#1059,.F.);
#1084 = ORIENTED_EDGE('',*,*,#1085,.F.);
#1085 = EDGE_CURVE('',#1076,#1052,#1086,.T.);
#1086 = LINE('',#1087,#1088);
#1087 = CARTESIAN_POINT('',(79.,42.5,64.5));
#1088 = VECTOR('',#1089,1.);
#1089 = DIRECTION('',(-1.,0.,0.));
#1090 = PLANE('',#1091);
#1091 = AXIS2_PLACEMENT_3D('',#1092,#1093,#1094);
#1092 = CARTESIAN_POINT('',(68.011753284927,42.5,69.25));
#1093 = DIRECTION('',(-4.5E-16,-1.,-0.));
#1094 = DIRECTION('',(-1.,4.5E-16,0.));
#1095 = ADVANCED_FACE('',(#1096),#1115,.F.);
#1096 = FACE_BOUND('',#1097,.T.);
#1097 = EDGE_LOOP('',(#1098,#1107,#1113,#1114));
#1098 = ORIENTED_EDGE('',*,*,#1099,.F.);
#1099 = EDGE_CURVE('',#1100,#1076,#1102,.T.);
#1100 = VERTEX_POINT('',#1101);
#1101 = CARTESIAN_POINT('',(76.976493430147,42.5,64.5));
#1102 = CIRCLE('',#1103,4.25);
#1103 = AXIS2_PLACEMENT_3D('',#1104,#1105,#1106);
#1104 = CARTESIAN_POINT('',(73.,41.,64.5));
#1105 = DIRECTION('',(0.,0.,1.));
#1106 = DIRECTION('',(1.,0.,0.));
#1107 = ORIENTED_EDGE('',*,*,#1108,.T.);
#1108 = EDGE_CURVE('',#1100,#492,#1109,.T.);
#1109 = LINE('',#1110,#1111);
#1110 = CARTESIAN_POINT('',(76.976493430147,42.5,73.));
#1111 = VECTOR('',#1112,1.);
#1112 = DIRECTION('',(0.,0.,1.));
#1113 = ORIENTED_EDGE('',*,*,#500,.F.);
#1114 = ORIENTED_EDGE('',*,*,#1075,.F.);
#1115 = CYLINDRICAL_SURFACE('',#1116,4.25);
#1116 = AXIS2_PLACEMENT_3D('',#1117,#1118,#1119);
#1117 = CARTESIAN_POINT('',(73.,41.,73.));
#1118 = DIRECTION('',(-0.,-0.,-1.));
#1119 = DIRECTION('',(1.,0.,0.));
#1120 = ADVANCED_FACE('',(#1121),#1132,.T.);
#1121 = FACE_BOUND('',#1122,.T.);
#1122 = EDGE_LOOP('',(#1123,#1124,#1125,#1126));
#1123 = ORIENTED_EDGE('',*,*,#964,.F.);
#1124 = ORIENTED_EDGE('',*,*,#491,.T.);
#1125 = ORIENTED_EDGE('',*,*,#1108,.F.);
#1126 = ORIENTED_EDGE('',*,*,#1127,.F.);
#1127 = EDGE_CURVE('',#949,#1100,#1128,.T.);
#1128 = LINE('',#1129,#1130);
#1129 = CARTESIAN_POINT('',(79.,42.5,64.5));
#1130 = VECTOR('',#1131,1.);
#1131 = DIRECTION('',(-1.,0.,0.));
#1132 = PLANE('',#1133);
#1133 = AXIS2_PLACEMENT_3D('',#1134,#1135,#1136);
#1134 = CARTESIAN_POINT('',(77.988246715073,42.5,69.25));
#1135 = DIRECTION('',(-8.4E-16,-1.,-0.));
#1136 = DIRECTION('',(-1.,8.4E-16,0.));
#1137 = ADVANCED_FACE('',(#1138),#1181,.F.);
#1138 = FACE_BOUND('',#1139,.F.);
#1139 = EDGE_LOOP('',(#1140,#1148,#1156,#1165,#1173,#1179,#1180));
#1140 = ORIENTED_EDGE('',*,*,#1141,.F.);
#1141 = EDGE_CURVE('',#1142,#561,#1144,.T.);
#1142 = VERTEX_POINT('',#1143);
#1143 = CARTESIAN_POINT('',(76.,40.2,49.));
#1144 = LINE('',#1145,#1146);
#1145 = CARTESIAN_POINT('',(76.,42.732050807569,49.));
#1146 = VECTOR('',#1147,1.);
#1147 = DIRECTION('',(0.,-1.,0.));
#1148 = ORIENTED_EDGE('',*,*,#1149,.T.);
#1149 = EDGE_CURVE('',#1142,#1150,#1152,.T.);
#1150 = VERTEX_POINT('',#1151);
#1151 = CARTESIAN_POINT('',(73.826135582093,40.2,49.));
#1152 = LINE('',#1153,#1154);
#1153 = CARTESIAN_POINT('',(76.,40.2,49.));
#1154 = VECTOR('',#1155,1.);
#1155 = DIRECTION('',(-1.,0.,0.));
#1156 = ORIENTED_EDGE('',*,*,#1157,.F.);
#1157 = EDGE_CURVE('',#1158,#1150,#1160,.T.);
#1158 = VERTEX_POINT('',#1159);
#1159 = CARTESIAN_POINT('',(72.173864417907,40.2,49.));
#1160 = CIRCLE('',#1161,1.15);
#1161 = AXIS2_PLACEMENT_3D('',#1162,#1163,#1164);
#1162 = CARTESIAN_POINT('',(73.,41.,49.));
#1163 = DIRECTION('',(0.,0.,1.));
#1164 = DIRECTION('',(1.,0.,0.));
#1165 = ORIENTED_EDGE('',*,*,#1166,.T.);
#1166 = EDGE_CURVE('',#1158,#1167,#1169,.T.);
#1167 = VERTEX_POINT('',#1168);
#1168 = CARTESIAN_POINT('',(70.,40.2,49.));
#1169 = LINE('',#1170,#1171);
#1170 = CARTESIAN_POINT('',(76.,40.2,49.));
#1171 = VECTOR('',#1172,1.);
#1172 = DIRECTION('',(-1.,0.,0.));
#1173 = ORIENTED_EDGE('',*,*,#1174,.F.);
#1174 = EDGE_CURVE('',#577,#1167,#1175,.T.);
#1175 = LINE('',#1176,#1177);
#1176 = CARTESIAN_POINT('',(70.,39.267949192431,49.));
#1177 = VECTOR('',#1178,1.);
#1178 = DIRECTION('',(0.,1.,0.));
#1179 = ORIENTED_EDGE('',*,*,#576,.F.);
#1180 = ORIENTED_EDGE('',*,*,#568,.F.);
#1181 = PLANE('',#1182);
#1182 = AXIS2_PLACEMENT_3D('',#1183,#1184,#1185);
#1183 = CARTESIAN_POINT('',(73.,41.,49.));
#1184 = DIRECTION('',(0.,0.,1.));
#1185 = DIRECTION('',(1.,0.,0.));
#1186 = ADVANCED_FACE('',(#1187),#1214,.F.);
#1187 = FACE_BOUND('',#1188,.F.);
#1188 = EDGE_LOOP('',(#1189,#1190,#1198,#1205,#1206,#1213));
#1189 = ORIENTED_EDGE('',*,*,#611,.F.);
#1190 = ORIENTED_EDGE('',*,*,#1191,.T.);
#1191 = EDGE_CURVE('',#612,#1192,#1194,.T.);
#1192 = VERTEX_POINT('',#1193);
#1193 = CARTESIAN_POINT('',(74.15,41.,49.));
#1194 = LINE('',#1195,#1196);
#1195 = CARTESIAN_POINT('',(74.15,41.,64.5));
#1196 = VECTOR('',#1197,1.);
#1197 = DIRECTION('',(-0.,-0.,-1.));
#1198 = ORIENTED_EDGE('',*,*,#1199,.T.);
#1199 = EDGE_CURVE('',#1192,#1158,#1200,.T.);
#1200 = CIRCLE('',#1201,1.15);
#1201 = AXIS2_PLACEMENT_3D('',#1202,#1203,#1204);
#1202 = CARTESIAN_POINT('',(73.,41.,49.));
#1203 = DIRECTION('',(0.,0.,1.));
#1204 = DIRECTION('',(1.,0.,0.));
#1205 = ORIENTED_EDGE('',*,*,#1157,.T.);
#1206 = ORIENTED_EDGE('',*,*,#1207,.T.);
#1207 = EDGE_CURVE('',#1150,#1192,#1208,.T.);
#1208 = CIRCLE('',#1209,1.15);
#1209 = AXIS2_PLACEMENT_3D('',#1210,#1211,#1212);
#1210 = CARTESIAN_POINT('',(73.,41.,49.));
#1211 = DIRECTION('',(0.,0.,1.));
#1212 = DIRECTION('',(1.,0.,0.));
#1213 = ORIENTED_EDGE('',*,*,#1191,.F.);
#1214 = CYLINDRICAL_SURFACE('',#1215,1.15);
#1215 = AXIS2_PLACEMENT_3D('',#1216,#1217,#1218);
#1216 = CARTESIAN_POINT('',(73.,41.,64.5));
#1217 = DIRECTION('',(0.,0.,1.));
#1218 = DIRECTION('',(1.,0.,0.));
#1219 = ADVANCED_FACE('',(#1220),#1239,.F.);
#1220 = FACE_BOUND('',#1221,.F.);
#1221 = EDGE_LOOP('',(#1222,#1231,#1237,#1238));
#1222 = ORIENTED_EDGE('',*,*,#1223,.F.);
#1223 = EDGE_CURVE('',#1224,#1224,#1226,.T.);
#1224 = VERTEX_POINT('',#1225);
#1225 = CARTESIAN_POINT('',(74.15,41.,64.5));
#1226 = CIRCLE('',#1227,1.15);
#1227 = AXIS2_PLACEMENT_3D('',#1228,#1229,#1230);
#1228 = CARTESIAN_POINT('',(73.,41.,64.5));
#1229 = DIRECTION('',(0.,0.,1.));
#1230 = DIRECTION('',(1.,0.,0.));
#1231 = ORIENTED_EDGE('',*,*,#1232,.T.);
#1232 = EDGE_CURVE('',#1224,#717,#1233,.T.);
#1233 = LINE('',#1234,#1235);
#1234 = CARTESIAN_POINT('',(74.15,41.,64.5));
#1235 = VECTOR('',#1236,1.);
#1236 = DIRECTION('',(-0.,-0.,-1.));
#1237 = ORIENTED_EDGE('',*,*,#716,.T.);
#1238 = ORIENTED_EDGE('',*,*,#1232,.F.);
#1239 = CYLINDRICAL_SURFACE('',#1240,1.15);
#1240 = AXIS2_PLACEMENT_3D('',#1241,#1242,#1243);
#1241 = CARTESIAN_POINT('',(73.,41.,64.5));
#1242 = DIRECTION('',(0.,0.,1.));
#1243 = DIRECTION('',(1.,0.,0.));
#1244 = ADVANCED_FACE('',(#1245),#1263,.F.);
#1245 = FACE_BOUND('',#1246,.F.);
#1246 = EDGE_LOOP('',(#1247,#1255,#1261,#1262));
#1247 = ORIENTED_EDGE('',*,*,#1248,.F.);
#1248 = EDGE_CURVE('',#1249,#828,#1251,.T.);
#1249 = VERTEX_POINT('',#1250);
#1250 = CARTESIAN_POINT('',(76.,40.2,44.));
#1251 = LINE('',#1252,#1253);
#1252 = CARTESIAN_POINT('',(76.,42.732050807569,44.));
#1253 = VECTOR('',#1254,1.);
#1254 = DIRECTION('',(0.,-1.,0.));
#1255 = ORIENTED_EDGE('',*,*,#1256,.T.);
#1256 = EDGE_CURVE('',#1249,#1142,#1257,.T.);
#1257 = LINE('',#1258,#1259);
#1258 = CARTESIAN_POINT('',(76.,40.2,44.));
#1259 = VECTOR('',#1260,1.);
#1260 = DIRECTION('',(0.,0.,1.));
#1261 = ORIENTED_EDGE('',*,*,#1141,.T.);
#1262 = ORIENTED_EDGE('',*,*,#835,.F.);
#1263 = PLANE('',#1264);
#1264 = AXIS2_PLACEMENT_3D('',#1265,#1266,#1267);
#1265 = CARTESIAN_POINT('',(76.,42.732050807569,44.));
#1266 = DIRECTION('',(1.,0.,0.));
#1267 = DIRECTION('',(0.,-1.,0.));
#1268 = ADVANCED_FACE('',(#1269),#1305,.T.);
#1269 = FACE_BOUND('',#1270,.T.);
#1270 = EDGE_LOOP('',(#1271,#1272,#1280,#1289,#1297,#1303,#1304));
#1271 = ORIENTED_EDGE('',*,*,#1248,.F.);
#1272 = ORIENTED_EDGE('',*,*,#1273,.F.);
#1273 = EDGE_CURVE('',#1274,#1249,#1276,.T.);
#1274 = VERTEX_POINT('',#1275);
#1275 = CARTESIAN_POINT('',(73.826135582093,40.2,44.));
#1276 = LINE('',#1277,#1278);
#1277 = CARTESIAN_POINT('',(70.,40.2,44.));
#1278 = VECTOR('',#1279,1.);
#1279 = DIRECTION('',(1.,0.,0.));
#1280 = ORIENTED_EDGE('',*,*,#1281,.F.);
#1281 = EDGE_CURVE('',#1282,#1274,#1284,.T.);
#1282 = VERTEX_POINT('',#1283);
#1283 = CARTESIAN_POINT('',(72.173864417907,40.2,44.));
#1284 = CIRCLE('',#1285,1.15);
#1285 = AXIS2_PLACEMENT_3D('',#1286,#1287,#1288);
#1286 = CARTESIAN_POINT('',(73.,41.,44.));
#1287 = DIRECTION('',(0.,0.,1.));
#1288 = DIRECTION('',(1.,0.,0.));
#1289 = ORIENTED_EDGE('',*,*,#1290,.F.);
#1290 = EDGE_CURVE('',#1291,#1282,#1293,.T.);
#1291 = VERTEX_POINT('',#1292);
#1292 = CARTESIAN_POINT('',(70.,40.2,44.));
#1293 = LINE('',#1294,#1295);
#1294 = CARTESIAN_POINT('',(70.,40.2,44.));
#1295 = VECTOR('',#1296,1.);
#1296 = DIRECTION('',(1.,0.,0.));
#1297 = ORIENTED_EDGE('',*,*,#1298,.F.);
#1298 = EDGE_CURVE('',#852,#1291,#1299,.T.);
#1299 = LINE('',#1300,#1301);
#1300 = CARTESIAN_POINT('',(70.,39.267949192431,44.));
#1301 = VECTOR('',#1302,1.);
#1302 = DIRECTION('',(0.,1.,0.));
#1303 = ORIENTED_EDGE('',*,*,#859,.F.);
#1304 = ORIENTED_EDGE('',*,*,#867,.F.);
#1305 = PLANE('',#1306);
#1306 = AXIS2_PLACEMENT_3D('',#1307,#1308,#1309);
#1307 = CARTESIAN_POINT('',(73.,41.,44.));
#1308 = DIRECTION('',(0.,0.,1.));
#1309 = DIRECTION('',(1.,0.,0.));
#1310 = ADVANCED_FACE('',(#1311),#1338,.F.);
#1311 = FACE_BOUND('',#1312,.F.);
#1312 = EDGE_LOOP('',(#1313,#1321,#1328,#1329,#1336,#1337));
#1313 = ORIENTED_EDGE('',*,*,#1314,.F.);
#1314 = EDGE_CURVE('',#1315,#913,#1317,.T.);
#1315 = VERTEX_POINT('',#1316);
#1316 = CARTESIAN_POINT('',(74.15,41.,44.));
#1317 = LINE('',#1318,#1319);
#1318 = CARTESIAN_POINT('',(74.15,41.,64.5));
#1319 = VECTOR('',#1320,1.);
#1320 = DIRECTION('',(-0.,-0.,-1.));
#1321 = ORIENTED_EDGE('',*,*,#1322,.F.);
#1322 = EDGE_CURVE('',#1274,#1315,#1323,.T.);
#1323 = CIRCLE('',#1324,1.15);
#1324 = AXIS2_PLACEMENT_3D('',#1325,#1326,#1327);
#1325 = CARTESIAN_POINT('',(73.,41.,44.));
#1326 = DIRECTION('',(0.,0.,1.));
#1327 = DIRECTION('',(1.,0.,0.));
#1328 = ORIENTED_EDGE('',*,*,#1281,.F.);
#1329 = ORIENTED_EDGE('',*,*,#1330,.F.);
#1330 = EDGE_CURVE('',#1315,#1282,#1331,.T.);
#1331 = CIRCLE('',#1332,1.15);
#1332 = AXIS2_PLACEMENT_3D('',#1333,#1334,#1335);
#1333 = CARTESIAN_POINT('',(73.,41.,44.));
#1334 = DIRECTION('',(0.,0.,1.));
#1335 = DIRECTION('',(1.,0.,0.));
#1336 = ORIENTED_EDGE('',*,*,#1314,.T.);
#1337 = ORIENTED_EDGE('',*,*,#912,.T.);
#1338 = CYLINDRICAL_SURFACE('',#1339,1.15);
#1339 = AXIS2_PLACEMENT_3D('',#1340,#1341,#1342);
#1340 = CARTESIAN_POINT('',(73.,41.,64.5));
#1341 = DIRECTION('',(0.,0.,1.));
#1342 = DIRECTION('',(1.,0.,0.));
#1343 = ADVANCED_FACE('',(#1344),#1355,.F.);
#1344 = FACE_BOUND('',#1345,.F.);
#1345 = EDGE_LOOP('',(#1346,#1347,#1348,#1349));
#1346 = ORIENTED_EDGE('',*,*,#1298,.F.);
#1347 = ORIENTED_EDGE('',*,*,#930,.T.);
#1348 = ORIENTED_EDGE('',*,*,#1174,.T.);
#1349 = ORIENTED_EDGE('',*,*,#1350,.T.);
#1350 = EDGE_CURVE('',#1167,#1291,#1351,.T.);
#1351 = LINE('',#1352,#1353);
#1352 = CARTESIAN_POINT('',(70.,40.2,49.));
#1353 = VECTOR('',#1354,1.);
#1354 = DIRECTION('',(0.,0.,-1.));
#1355 = PLANE('',#1356);
#1356 = AXIS2_PLACEMENT_3D('',#1357,#1358,#1359);
#1357 = CARTESIAN_POINT('',(70.,39.267949192431,44.));
#1358 = DIRECTION('',(-1.,0.,0.));
#1359 = DIRECTION('',(0.,1.,0.));
#1360 = ADVANCED_FACE('',(#1361,#1371),#1374,.T.);
#1361 = FACE_BOUND('',#1362,.T.);
#1362 = EDGE_LOOP('',(#1363,#1364,#1365,#1366,#1367,#1368,#1369,#1370));
#1363 = ORIENTED_EDGE('',*,*,#1099,.T.);
#1364 = ORIENTED_EDGE('',*,*,#1085,.T.);
#1365 = ORIENTED_EDGE('',*,*,#1051,.T.);
#1366 = ORIENTED_EDGE('',*,*,#1027,.T.);
#1367 = ORIENTED_EDGE('',*,*,#1002,.T.);
#1368 = ORIENTED_EDGE('',*,*,#988,.T.);
#1369 = ORIENTED_EDGE('',*,*,#946,.T.);
#1370 = ORIENTED_EDGE('',*,*,#1127,.T.);
#1371 = FACE_BOUND('',#1372,.T.);
#1372 = EDGE_LOOP('',(#1373));
#1373 = ORIENTED_EDGE('',*,*,#1223,.F.);
#1374 = PLANE('',#1375);
#1375 = AXIS2_PLACEMENT_3D('',#1376,#1377,#1378);
#1376 = CARTESIAN_POINT('',(73.,41.,64.5));
#1377 = DIRECTION('',(0.,0.,1.));
#1378 = DIRECTION('',(1.,0.,0.));
#1379 = ADVANCED_FACE('',(#1380),#1416,.F.);
#1380 = FACE_BOUND('',#1381,.F.);
#1381 = EDGE_LOOP('',(#1382,#1390,#1398,#1406,#1412,#1413,#1414,#1415));
#1382 = ORIENTED_EDGE('',*,*,#1383,.F.);
#1383 = EDGE_CURVE('',#1384,#1142,#1386,.T.);
#1384 = VERTEX_POINT('',#1385);
#1385 = CARTESIAN_POINT('',(76.,42.732050807569,49.));
#1386 = LINE('',#1387,#1388);
#1387 = CARTESIAN_POINT('',(76.,42.732050807569,49.));
#1388 = VECTOR('',#1389,1.);
#1389 = DIRECTION('',(0.,-1.,0.));
#1390 = ORIENTED_EDGE('',*,*,#1391,.F.);
#1391 = EDGE_CURVE('',#1392,#1384,#1394,.T.);
#1392 = VERTEX_POINT('',#1393);
#1393 = CARTESIAN_POINT('',(73.,44.464101615138,49.));
#1394 = LINE('',#1395,#1396);
#1395 = CARTESIAN_POINT('',(73.,44.464101615138,49.));
#1396 = VECTOR('',#1397,1.);
#1397 = DIRECTION('',(0.866025403784,-0.5,0.));
#1398 = ORIENTED_EDGE('',*,*,#1399,.F.);
#1399 = EDGE_CURVE('',#1400,#1392,#1402,.T.);
#1400 = VERTEX_POINT('',#1401);
#1401 = CARTESIAN_POINT('',(70.,42.732050807569,49.));
#1402 = LINE('',#1403,#1404);
#1403 = CARTESIAN_POINT('',(70.,42.732050807569,49.));
#1404 = VECTOR('',#1405,1.);
#1405 = DIRECTION('',(0.866025403784,0.5,0.));
#1406 = ORIENTED_EDGE('',*,*,#1407,.F.);
#1407 = EDGE_CURVE('',#1167,#1400,#1408,.T.);
#1408 = LINE('',#1409,#1410);
#1409 = CARTESIAN_POINT('',(70.,39.267949192431,49.));
#1410 = VECTOR('',#1411,1.);
#1411 = DIRECTION('',(0.,1.,0.));
#1412 = ORIENTED_EDGE('',*,*,#1166,.F.);
#1413 = ORIENTED_EDGE('',*,*,#1199,.F.);
#1414 = ORIENTED_EDGE('',*,*,#1207,.F.);
#1415 = ORIENTED_EDGE('',*,*,#1149,.F.);
#1416 = PLANE('',#1417);
#1417 = AXIS2_PLACEMENT_3D('',#1418,#1419,#1420);
#1418 = CARTESIAN_POINT('',(73.,41.,49.));
#1419 = DIRECTION('',(0.,0.,1.));
#1420 = DIRECTION('',(1.,0.,0.));
#1421 = ADVANCED_FACE('',(#1422),#1440,.F.);
#1422 = FACE_BOUND('',#1423,.F.);
#1423 = EDGE_LOOP('',(#1424,#1432,#1438,#1439));
#1424 = ORIENTED_EDGE('',*,*,#1425,.F.);
#1425 = EDGE_CURVE('',#1426,#1249,#1428,.T.);
#1426 = VERTEX_POINT('',#1427);
#1427 = CARTESIAN_POINT('',(76.,42.732050807569,44.));
#1428 = LINE('',#1429,#1430);
#1429 = CARTESIAN_POINT('',(76.,42.732050807569,44.));
#1430 = VECTOR('',#1431,1.);
#1431 = DIRECTION('',(0.,-1.,0.));
#1432 = ORIENTED_EDGE('',*,*,#1433,.T.);
#1433 = EDGE_CURVE('',#1426,#1384,#1434,.T.);
#1434 = LINE('',#1435,#1436);
#1435 = CARTESIAN_POINT('',(76.,42.732050807569,44.));
#1436 = VECTOR('',#1437,1.);
#1437 = DIRECTION('',(0.,0.,1.));
#1438 = ORIENTED_EDGE('',*,*,#1383,.T.);
#1439 = ORIENTED_EDGE('',*,*,#1256,.F.);
#1440 = PLANE('',#1441);
#1441 = AXIS2_PLACEMENT_3D('',#1442,#1443,#1444);
#1442 = CARTESIAN_POINT('',(76.,42.732050807569,44.));
#1443 = DIRECTION('',(1.,0.,0.));
#1444 = DIRECTION('',(0.,-1.,0.));
#1445 = ADVANCED_FACE('',(#1446),#1475,.T.);
#1446 = FACE_BOUND('',#1447,.T.);
#1447 = EDGE_LOOP('',(#1448,#1449,#1457,#1465,#1471,#1472,#1473,#1474));
#1448 = ORIENTED_EDGE('',*,*,#1425,.F.);
#1449 = ORIENTED_EDGE('',*,*,#1450,.F.);
#1450 = EDGE_CURVE('',#1451,#1426,#1453,.T.);
#1451 = VERTEX_POINT('',#1452);
#1452 = CARTESIAN_POINT('',(73.,44.464101615138,44.));
#1453 = LINE('',#1454,#1455);
#1454 = CARTESIAN_POINT('',(73.,44.464101615138,44.));
#1455 = VECTOR('',#1456,1.);
#1456 = DIRECTION('',(0.866025403784,-0.5,0.));
#1457 = ORIENTED_EDGE('',*,*,#1458,.F.);
#1458 = EDGE_CURVE('',#1459,#1451,#1461,.T.);
#1459 = VERTEX_POINT('',#1460);
#1460 = CARTESIAN_POINT('',(70.,42.732050807569,44.));
#1461 = LINE('',#1462,#1463);
#1462 = CARTESIAN_POINT('',(70.,42.732050807569,44.));
#1463 = VECTOR('',#1464,1.);
#1464 = DIRECTION('',(0.866025403784,0.5,0.));
#1465 = ORIENTED_EDGE('',*,*,#1466,.F.);
#1466 = EDGE_CURVE('',#1291,#1459,#1467,.T.);
#1467 = LINE('',#1468,#1469);
#1468 = CARTESIAN_POINT('',(70.,39.267949192431,44.));
#1469 = VECTOR('',#1470,1.);
#1470 = DIRECTION('',(0.,1.,0.));
#1471 = ORIENTED_EDGE('',*,*,#1290,.T.);
#1472 = ORIENTED_EDGE('',*,*,#1330,.F.);
#1473 = ORIENTED_EDGE('',*,*,#1322,.F.);
#1474 = ORIENTED_EDGE('',*,*,#1273,.T.);
#1475 = PLANE('',#1476);
#1476 = AXIS2_PLACEMENT_3D('',#1477,#1478,#1479);
#1477 = CARTESIAN_POINT('',(73.,41.,44.));
#1478 = DIRECTION('',(0.,0.,1.));
#1479 = DIRECTION('',(1.,0.,0.));
#1480 = ADVANCED_FACE('',(#1481),#1492,.F.);
#1481 = FACE_BOUND('',#1482,.F.);
#1482 = EDGE_LOOP('',(#1483,#1484,#1485,#1486));
#1483 = ORIENTED_EDGE('',*,*,#1466,.F.);
#1484 = ORIENTED_EDGE('',*,*,#1350,.F.);
#1485 = ORIENTED_EDGE('',*,*,#1407,.T.);
#1486 = ORIENTED_EDGE('',*,*,#1487,.F.);
#1487 = EDGE_CURVE('',#1459,#1400,#1488,.T.);
#1488 = LINE('',#1489,#1490);
#1489 = CARTESIAN_POINT('',(70.,42.732050807569,44.));
#1490 = VECTOR('',#1491,1.);
#1491 = DIRECTION('',(0.,0.,1.));
#1492 = PLANE('',#1493);
#1493 = AXIS2_PLACEMENT_3D('',#1494,#1495,#1496);
#1494 = CARTESIAN_POINT('',(70.,39.267949192431,44.));
#1495 = DIRECTION('',(-1.,0.,0.));
#1496 = DIRECTION('',(0.,1.,0.));
#1497 = ADVANCED_FACE('',(#1498),#1509,.F.);
#1498 = FACE_BOUND('',#1499,.F.);
#1499 = EDGE_LOOP('',(#1500,#1501,#1502,#1508));
#1500 = ORIENTED_EDGE('',*,*,#1487,.T.);
#1501 = ORIENTED_EDGE('',*,*,#1399,.T.);
#1502 = ORIENTED_EDGE('',*,*,#1503,.F.);
#1503 = EDGE_CURVE('',#1451,#1392,#1504,.T.);
#1504 = LINE('',#1505,#1506);
#1505 = CARTESIAN_POINT('',(73.,44.464101615138,44.));
#1506 = VECTOR('',#1507,1.);
#1507 = DIRECTION('',(0.,0.,1.));
#1508 = ORIENTED_EDGE('',*,*,#1458,.F.);
#1509 = PLANE('',#1510);
#1510 = AXIS2_PLACEMENT_3D('',#1511,#1512,#1513);
#1511 = CARTESIAN_POINT('',(70.,42.732050807569,44.));
#1512 = DIRECTION('',(-0.5,0.866025403784,0.));
#1513 = DIRECTION('',(0.866025403784,0.5,0.));
#1514 = ADVANCED_FACE('',(#1515),#1521,.F.);
#1515 = FACE_BOUND('',#1516,.F.);
#1516 = EDGE_LOOP('',(#1517,#1518,#1519,#1520));
#1517 = ORIENTED_EDGE('',*,*,#1503,.T.);
#1518 = ORIENTED_EDGE('',*,*,#1391,.T.);
#1519 = ORIENTED_EDGE('',*,*,#1433,.F.);
#1520 = ORIENTED_EDGE('',*,*,#1450,.F.);
#1521 = PLANE('',#1522);
#1522 = AXIS2_PLACEMENT_3D('',#1523,#1524,#1525);
#1523 = CARTESIAN_POINT('',(73.,44.464101615138,44.));
#1524 = DIRECTION('',(0.5,0.866025403784,0.));
#1525 = DIRECTION('',(0.866025403784,-0.5,0.));
#1526 = ( GEOMETRIC_REPRESENTATION_CONTEXT(3) 
GLOBAL_UNCERTAINTY_ASSIGNED_CONTEXT((#1530)) 
GLOBAL_UNIT_ASSIGNED_CONTEXT((#1527,#1528,#1529)) REPRESENTATION_CONTEXT
('Context #1','3D Context with UNIT and UNCERTAINTY') );
#1527 = ( LENGTH_UNIT() NAMED_UNIT(*) SI_UNIT(.MILLI.,.METRE.) );
#1528 = ( NAMED_UNIT(*) PLANE_ANGLE_UNIT() SI_UNIT($,.RADIAN.) );
#1529 = ( NAMED_UNIT(*) SI_UNIT($,.STERADIAN.) SOLID_ANGLE_UNIT() );
#1530 = UNCERTAINTY_MEASURE_WITH_UNIT(LENGTH_MEASURE(1.E-05),#1527,
  'distance_accuracy_value','confusion accuracy');
#1531 = PRODUCT_RELATED_PRODUCT_CATEGORY('part',$,(#7));
ENDSEC;
END-ISO-10303-21;
