ISO-10303-21;
HEADER;
FILE_DESCRIPTION(('FreeCAD Model'),'2;1');
FILE_NAME('Open CASCADE Shape Model','2026-08-28T13:04:04',('FreeCAD'),(
    'FreeCAD'),'Open CASCADE STEP processor 7.8','FreeCAD','Unknown');
FILE_SCHEMA(('AUTOMOTIVE_DESIGN { 1 0 10303 214 1 1 1 1 }'));
ENDSEC;
DATA;
#1 = APPLICATION_PROTOCOL_DEFINITION('international standard',
  'automotive_design',2000,#2);
#2 = APPLICATION_CONTEXT(
  'core data for automotive mechanical design processes');
#3 = SHAPE_DEFINITION_REPRESENTATION(#4,#10);
#4 = PRODUCT_DEFINITION_SHAPE('','',#5);
#5 = PRODUCT_DEFINITION('design','',#6,#9);
#6 = PRODUCT_DEFINITION_FORMATION('','',#7);
#7 = PRODUCT('Open CASCADE STEP translator 7.8 36',
  'Open CASCADE STEP translator 7.8 36','',(#8));
#8 = PRODUCT_CONTEXT('',#2,'mechanical');
#9 = PRODUCT_DEFINITION_CONTEXT('part definition',#2,'design');
#10 = ADVANCED_BREP_SHAPE_REPRESENTATION('',(#11,#15),#246);
#11 = AXIS2_PLACEMENT_3D('',#12,#13,#14);
#12 = CARTESIAN_POINT('',(0.,0.,0.));
#13 = DIRECTION('',(0.,0.,1.));
#14 = DIRECTION('',(1.,0.,-0.));
#15 = MANIFOLD_SOLID_BREP('',#16);
#16 = CLOSED_SHELL('',(#17,#149,#158,#178,#203,#228,#237));
#17 = ADVANCED_FACE('',(#18,#45),#144,.T.);
#18 = FACE_BOUND('',#19,.F.);
#19 = EDGE_LOOP('',(#20,#30,#37,#38));
#20 = ORIENTED_EDGE('',*,*,#21,.F.);
#21 = EDGE_CURVE('',#22,#24,#26,.T.);
#22 = VERTEX_POINT('',#23);
#23 = CARTESIAN_POINT('',(3.8,0.,0.));
#24 = VERTEX_POINT('',#25);
#25 = CARTESIAN_POINT('',(3.8,0.,10.));
#26 = LINE('',#27,#28);
#27 = CARTESIAN_POINT('',(3.8,0.,0.));
#28 = VECTOR('',#29,1.);
#29 = DIRECTION('',(0.,0.,1.));
#30 = ORIENTED_EDGE('',*,*,#31,.F.);
#31 = EDGE_CURVE('',#22,#22,#32,.T.);
#32 = CIRCLE('',#33,3.8);
#33 = AXIS2_PLACEMENT_3D('',#34,#35,#36);
#34 = CARTESIAN_POINT('',(0.,0.,0.));
#35 = DIRECTION('',(0.,0.,1.));
#36 = DIRECTION('',(1.,0.,0.));
#37 = ORIENTED_EDGE('',*,*,#21,.T.);
#38 = ORIENTED_EDGE('',*,*,#39,.T.);
#39 = EDGE_CURVE('',#24,#24,#40,.T.);
#40 = CIRCLE('',#41,3.8);
#41 = AXIS2_PLACEMENT_3D('',#42,#43,#44);
#42 = CARTESIAN_POINT('',(0.,0.,10.));
#43 = DIRECTION('',(0.,0.,1.));
#44 = DIRECTION('',(1.,0.,0.));
#45 = FACE_BOUND('',#46,.F.);
#46 = EDGE_LOOP('',(#47));
#47 = ORIENTED_EDGE('',*,*,#48,.F.);
#48 = EDGE_CURVE('',#49,#49,#51,.T.);
#49 = VERTEX_POINT('',#50);
#50 = CARTESIAN_POINT('',(1.5,3.491418050019,4.5));
#51 = B_SPLINE_CURVE_WITH_KNOTS('',6,(#52,#53,#54,#55,#56,#57,#58,#59,
    #60,#61,#62,#63,#64,#65,#66,#67,#68,#69,#70,#71,#72,#73,#74,#75,#76,
    #77,#78,#79,#80,#81,#82,#83,#84,#85,#86,#87,#88,#89,#90,#91,#92,#93,
    #94,#95,#96,#97,#98,#99,#100,#101,#102,#103,#104,#105,#106,#107,#108
    ,#109,#110,#111,#112,#113,#114,#115,#116,#117,#118,#119,#120,#121,
    #122,#123,#124,#125,#126,#127,#128,#129,#130,#131,#132,#133,#134,
    #135,#136,#137,#138,#139,#140,#141,#142,#143),.UNSPECIFIED.,.T.,.F.,
  (7,5,5,5,5,5,5,5,5,5,5,5,5,5,5,5,5,5,7),(0.,4.243004960847E-02,
    0.125718296918,0.179233357033,0.219462758947,0.28052397525,
    0.320804138739,0.374003161344,0.456021939489,0.499990748296,
    0.542422370647,0.625713699848,0.679230740167,0.719461630658,
    0.780525106326,0.820806760246,0.874007751301,0.956029564276,1.),
  .UNSPECIFIED.);
#52 = CARTESIAN_POINT('',(1.5,3.491418050019,4.5));
#53 = CARTESIAN_POINT('',(1.5,3.491418050019,4.560420347451));
#54 = CARTESIAN_POINT('',(1.49707952609,3.49267273041,4.620836627028));
#55 = CARTESIAN_POINT('',(1.491239215142,3.495181951443,4.681116661174)
  );
#56 = CARTESIAN_POINT('',(1.482479951635,3.498923366416,4.74112603462));
#57 = CARTESIAN_POINT('',(1.470803550403,3.50385308328,4.800727614582));
#58 = CARTESIAN_POINT('',(1.427573718511,3.521788565407,4.975700305654)
  );
#59 = CARTESIAN_POINT('',(1.387731557236,3.537989882942,5.089407408372)
  );
#60 = CARTESIAN_POINT('',(1.336698788235,3.558027989102,5.200049204544)
  );
#61 = CARTESIAN_POINT('',(1.274389063847,3.581168289852,5.306658478563)
  );
#62 = CARTESIAN_POINT('',(1.20068463961,3.606423742747,5.408065172499));
#63 = CARTESIAN_POINT('',(1.06080978132,3.649377871833,5.563664128008));
#64 = CARTESIAN_POINT('',(1.001306589338,3.666568299464,5.621840638063)
  );
#65 = CARTESIAN_POINT('',(0.937007713191,3.683817014624,5.676894395889)
  );
#66 = CARTESIAN_POINT('',(0.86793566321,3.700747110458,5.728342772357));
#67 = CARTESIAN_POINT('',(0.794153435623,3.716946292043,5.775646922386)
  );
#68 = CARTESIAN_POINT('',(0.656852003744,3.743279963369,5.850200272509)
  );
#69 = CARTESIAN_POINT('',(0.595299150907,3.753928122545,5.879530553585)
  );
#70 = CARTESIAN_POINT('',(0.531313817511,3.763707224724,5.905851415717)
  );
#71 = CARTESIAN_POINT('',(0.465126911771,3.772410882912,5.928856661803)
  );
#72 = CARTESIAN_POINT('',(0.396998471407,3.779854275465,5.948276658155)
  );
#73 = CARTESIAN_POINT('',(0.221295513064,3.795040317528,5.987550922468)
  );
#74 = CARTESIAN_POINT('',(0.111621358713,3.800936890985,6.002409891714)
  );
#75 = CARTESIAN_POINT('',(8.26E-14,3.802981904589,6.007467095533));
#76 = CARTESIAN_POINT('',(-0.111621358713,3.800936890985,6.002409891714)
  );
#77 = CARTESIAN_POINT('',(-0.221295513064,3.795040317528,5.987550922468)
  );
#78 = CARTESIAN_POINT('',(-0.397086524565,3.779846665013,5.948256975942)
  );
#79 = CARTESIAN_POINT('',(-0.465298471542,3.772392128361,5.928807732493)
  );
#80 = CARTESIAN_POINT('',(-0.531563417183,3.76367438327,5.905764600466)
  );
#81 = CARTESIAN_POINT('',(-0.595620445521,3.753878995167,5.879398305241)
  );
#82 = CARTESIAN_POINT('',(-0.657237891629,3.743213180767,5.850016303851)
  );
#83 = CARTESIAN_POINT('',(-0.794110384559,3.71694493879,5.775636311167)
  );
#84 = CARTESIAN_POINT('',(-0.867461287364,3.700844639974,5.728620012646)
  );
#85 = CARTESIAN_POINT('',(-0.936158196098,3.68402096753,5.67750671656));
#86 = CARTESIAN_POINT('',(-1.00013872043,3.666879080374,5.62282611487));
#87 = CARTESIAN_POINT('',(-1.059380170899,3.649789636907,5.565053094853)
  );
#88 = CARTESIAN_POINT('',(-1.197932019707,3.607310037886,5.411430092976)
  );
#89 = CARTESIAN_POINT('',(-1.27086163122,3.582397452962,5.311758989194)
  );
#90 = CARTESIAN_POINT('',(-1.332740034802,3.559506482193,5.207007505033)
  );
#91 = CARTESIAN_POINT('',(-1.383677881782,3.539581752991,5.098298636859)
  );
#92 = CARTESIAN_POINT('',(-1.423762630085,3.523336507803,4.986558634392)
  );
#93 = CARTESIAN_POINT('',(-1.468650569574,3.504761466727,4.81151678766)
  );
#94 = CARTESIAN_POINT('',(-1.481187887714,3.499475142598,4.749818393624)
  );
#95 = CARTESIAN_POINT('',(-1.490593065324,3.495459564933,4.687666459751)
  );
#96 = CARTESIAN_POINT('',(-1.496864094897,3.492765278716,4.625213606919)
  );
#97 = CARTESIAN_POINT('',(-1.5,3.491418050019,4.562609214303));
#98 = CARTESIAN_POINT('',(-1.5,3.491418050019,4.439579656374));
#99 = CARTESIAN_POINT('',(-1.49707952646,3.492672730258,4.379163371897)
  );
#100 = CARTESIAN_POINT('',(-1.491239214676,3.495181951637,4.318883335023
    ));
#101 = CARTESIAN_POINT('',(-1.482479951018,3.498923366672,4.258873964426
    ));
#102 = CARTESIAN_POINT('',(-1.470803551336,3.503853082893,4.199272389196
    ));
#103 = CARTESIAN_POINT('',(-1.427573718511,3.521788565407,4.024299694346
    ));
#104 = CARTESIAN_POINT('',(-1.387731557236,3.537989882942,3.910592591628
    ));
#105 = CARTESIAN_POINT('',(-1.336698788236,3.558027989102,3.799950795456
    ));
#106 = CARTESIAN_POINT('',(-1.274389063847,3.581168289852,3.693341521437
    ));
#107 = CARTESIAN_POINT('',(-1.20068463961,3.606423742747,3.591934827501)
  );
#108 = CARTESIAN_POINT('',(-1.06080978132,3.649377871833,3.436335871992)
  );
#109 = CARTESIAN_POINT('',(-1.001306589338,3.666568299464,3.378159361937
    ));
#110 = CARTESIAN_POINT('',(-0.937007713191,3.683817014624,3.323105604111
    ));
#111 = CARTESIAN_POINT('',(-0.86793566321,3.700747110458,3.271657227643)
  );
#112 = CARTESIAN_POINT('',(-0.794153435623,3.716946292043,3.224353077614
    ));
#113 = CARTESIAN_POINT('',(-0.656852003775,3.743279963364,3.149799727507
    ));
#114 = CARTESIAN_POINT('',(-0.595299150898,3.753928122548,3.120469446406
    ));
#115 = CARTESIAN_POINT('',(-0.531313817473,3.763707224729,3.09414858427)
  );
#116 = CARTESIAN_POINT('',(-0.465126911759,3.772410882911,3.071143338199
    ));
#117 = CARTESIAN_POINT('',(-0.396998471448,3.779854275462,3.051723341854
    ));
#118 = CARTESIAN_POINT('',(-0.221295513064,3.795040317528,3.012449077532
    ));
#119 = CARTESIAN_POINT('',(-0.111621358713,3.800936890985,2.997590108286
    ));
#120 = CARTESIAN_POINT('',(-1.5188E-13,3.802981904589,2.992532904467));
#121 = CARTESIAN_POINT('',(0.111621358713,3.800936890985,2.997590108286)
  );
#122 = CARTESIAN_POINT('',(0.221295513064,3.795040317528,3.012449077532)
  );
#123 = CARTESIAN_POINT('',(0.397086524565,3.779846665013,3.051743024058)
  );
#124 = CARTESIAN_POINT('',(0.465298471542,3.772392128361,3.071192267507)
  );
#125 = CARTESIAN_POINT('',(0.531563417183,3.76367438327,3.094235399534)
  );
#126 = CARTESIAN_POINT('',(0.595620445521,3.753878995167,3.120601694759)
  );
#127 = CARTESIAN_POINT('',(0.657237891629,3.743213180767,3.149983696149)
  );
#128 = CARTESIAN_POINT('',(0.794110384559,3.71694493879,3.224363688833)
  );
#129 = CARTESIAN_POINT('',(0.867461287364,3.700844639974,3.271379987354)
  );
#130 = CARTESIAN_POINT('',(0.936158196098,3.68402096753,3.32249328344));
#131 = CARTESIAN_POINT('',(1.00013872043,3.666879080374,3.37717388513));
#132 = CARTESIAN_POINT('',(1.059380170899,3.649789636907,3.434946905147)
  );
#133 = CARTESIAN_POINT('',(1.197932019707,3.607310037886,3.588569907024)
  );
#134 = CARTESIAN_POINT('',(1.27086163122,3.582397452962,3.688241010806)
  );
#135 = CARTESIAN_POINT('',(1.332740034802,3.559506482193,3.792992494967)
  );
#136 = CARTESIAN_POINT('',(1.383677881782,3.539581752991,3.901701363141)
  );
#137 = CARTESIAN_POINT('',(1.423762630085,3.523336507803,4.013441365608)
  );
#138 = CARTESIAN_POINT('',(1.468650569575,3.504761466727,4.18848321234)
  );
#139 = CARTESIAN_POINT('',(1.481187887714,3.499475142598,4.250181606376)
  );
#140 = CARTESIAN_POINT('',(1.490593065324,3.495459564933,4.312333540249)
  );
#141 = CARTESIAN_POINT('',(1.496864094897,3.492765278716,4.374786393081)
  );
#142 = CARTESIAN_POINT('',(1.5,3.491418050019,4.437390785697));
#143 = CARTESIAN_POINT('',(1.5,3.491418050019,4.5));
#144 = CYLINDRICAL_SURFACE('',#145,3.8);
#145 = AXIS2_PLACEMENT_3D('',#146,#147,#148);
#146 = CARTESIAN_POINT('',(0.,0.,0.));
#147 = DIRECTION('',(-0.,-0.,-1.));
#148 = DIRECTION('',(1.,0.,0.));
#149 = ADVANCED_FACE('',(#150),#153,.T.);
#150 = FACE_BOUND('',#151,.T.);
#151 = EDGE_LOOP('',(#152));
#152 = ORIENTED_EDGE('',*,*,#39,.T.);
#153 = PLANE('',#154);
#154 = AXIS2_PLACEMENT_3D('',#155,#156,#157);
#155 = CARTESIAN_POINT('',(-3.6E-16,2.E-17,10.));
#156 = DIRECTION('',(0.,0.,1.));
#157 = DIRECTION('',(1.,0.,0.));
#158 = ADVANCED_FACE('',(#159,#170),#173,.T.);
#159 = FACE_BOUND('',#160,.T.);
#160 = EDGE_LOOP('',(#161));
#161 = ORIENTED_EDGE('',*,*,#162,.F.);
#162 = EDGE_CURVE('',#163,#163,#165,.T.);
#163 = VERTEX_POINT('',#164);
#164 = CARTESIAN_POINT('',(4.5,0.,0.));
#165 = CIRCLE('',#166,4.5);
#166 = AXIS2_PLACEMENT_3D('',#167,#168,#169);
#167 = CARTESIAN_POINT('',(0.,0.,0.));
#168 = DIRECTION('',(0.,0.,-1.));
#169 = DIRECTION('',(1.,0.,0.));
#170 = FACE_BOUND('',#171,.T.);
#171 = EDGE_LOOP('',(#172));
#172 = ORIENTED_EDGE('',*,*,#31,.F.);
#173 = PLANE('',#174);
#174 = AXIS2_PLACEMENT_3D('',#175,#176,#177);
#175 = CARTESIAN_POINT('',(-3.E-16,1.8E-16,0.));
#176 = DIRECTION('',(0.,0.,1.));
#177 = DIRECTION('',(1.,0.,0.));
#178 = ADVANCED_FACE('',(#179),#198,.F.);
#179 = FACE_BOUND('',#180,.F.);
#180 = EDGE_LOOP('',(#181,#190,#196,#197));
#181 = ORIENTED_EDGE('',*,*,#182,.F.);
#182 = EDGE_CURVE('',#183,#183,#185,.T.);
#183 = VERTEX_POINT('',#184);
#184 = CARTESIAN_POINT('',(1.5,1.E-15,4.5));
#185 = CIRCLE('',#186,1.5);
#186 = AXIS2_PLACEMENT_3D('',#187,#188,#189);
#187 = CARTESIAN_POINT('',(0.,0.,4.5));
#188 = DIRECTION('',(0.,-1.,0.));
#189 = DIRECTION('',(1.,0.,0.));
#190 = ORIENTED_EDGE('',*,*,#191,.T.);
#191 = EDGE_CURVE('',#183,#49,#192,.T.);
#192 = LINE('',#193,#194);
#193 = CARTESIAN_POINT('',(1.5,1.E-15,4.5));
#194 = VECTOR('',#195,1.);
#195 = DIRECTION('',(0.,1.,-2.2E-16));
#196 = ORIENTED_EDGE('',*,*,#48,.T.);
#197 = ORIENTED_EDGE('',*,*,#191,.F.);
#198 = CYLINDRICAL_SURFACE('',#199,1.5);
#199 = AXIS2_PLACEMENT_3D('',#200,#201,#202);
#200 = CARTESIAN_POINT('',(0.,1.E-15,4.5));
#201 = DIRECTION('',(0.,-1.,2.2E-16));
#202 = DIRECTION('',(1.,0.,0.));
#203 = ADVANCED_FACE('',(#204),#223,.T.);
#204 = FACE_BOUND('',#205,.F.);
#205 = EDGE_LOOP('',(#206,#214,#221,#222));
#206 = ORIENTED_EDGE('',*,*,#207,.T.);
#207 = EDGE_CURVE('',#163,#208,#210,.T.);
#208 = VERTEX_POINT('',#209);
#209 = CARTESIAN_POINT('',(4.5,0.,-1.));
#210 = LINE('',#211,#212);
#211 = CARTESIAN_POINT('',(4.5,0.,0.));
#212 = VECTOR('',#213,1.);
#213 = DIRECTION('',(0.,0.,-1.));
#214 = ORIENTED_EDGE('',*,*,#215,.T.);
#215 = EDGE_CURVE('',#208,#208,#216,.T.);
#216 = CIRCLE('',#217,4.5);
#217 = AXIS2_PLACEMENT_3D('',#218,#219,#220);
#218 = CARTESIAN_POINT('',(0.,0.,-1.));
#219 = DIRECTION('',(0.,0.,-1.));
#220 = DIRECTION('',(1.,0.,0.));
#221 = ORIENTED_EDGE('',*,*,#207,.F.);
#222 = ORIENTED_EDGE('',*,*,#162,.F.);
#223 = CYLINDRICAL_SURFACE('',#224,4.5);
#224 = AXIS2_PLACEMENT_3D('',#225,#226,#227);
#225 = CARTESIAN_POINT('',(0.,0.,0.));
#226 = DIRECTION('',(0.,0.,1.));
#227 = DIRECTION('',(1.,0.,0.));
#228 = ADVANCED_FACE('',(#229),#232,.T.);
#229 = FACE_BOUND('',#230,.F.);
#230 = EDGE_LOOP('',(#231));
#231 = ORIENTED_EDGE('',*,*,#182,.T.);
#232 = PLANE('',#233);
#233 = AXIS2_PLACEMENT_3D('',#234,#235,#236);
#234 = CARTESIAN_POINT('',(-1.1E-16,1.E-15,4.5));
#235 = DIRECTION('',(0.,1.,0.));
#236 = DIRECTION('',(0.,0.,1.));
#237 = ADVANCED_FACE('',(#238),#241,.F.);
#238 = FACE_BOUND('',#239,.T.);
#239 = EDGE_LOOP('',(#240));
#240 = ORIENTED_EDGE('',*,*,#215,.T.);
#241 = PLANE('',#242);
#242 = AXIS2_PLACEMENT_3D('',#243,#244,#245);
#243 = CARTESIAN_POINT('',(-3.E-16,1.8E-16,-1.));
#244 = DIRECTION('',(0.,0.,1.));
#245 = DIRECTION('',(1.,0.,0.));
#246 = ( GEOMETRIC_REPRESENTATION_CONTEXT(3) 
GLOBAL_UNCERTAINTY_ASSIGNED_CONTEXT((#250)) GLOBAL_UNIT_ASSIGNED_CONTEXT
((#247,#248,#249)) REPRESENTATION_CONTEXT('Context #1',
  '3D Context with UNIT and UNCERTAINTY') );
#247 = ( LENGTH_UNIT() NAMED_UNIT(*) SI_UNIT(.MILLI.,.METRE.) );
#248 = ( NAMED_UNIT(*) PLANE_ANGLE_UNIT() SI_UNIT($,.RADIAN.) );
#249 = ( NAMED_UNIT(*) SI_UNIT($,.STERADIAN.) SOLID_ANGLE_UNIT() );
#250 = UNCERTAINTY_MEASURE_WITH_UNIT(LENGTH_MEASURE(1.E-07),#247,
  'distance_accuracy_value','confusion accuracy');
#251 = PRODUCT_RELATED_PRODUCT_CATEGORY('part',$,(#7));
ENDSEC;
END-ISO-10303-21;
