ISO-10303-21;
HEADER;
FILE_DESCRIPTION(('FreeCAD Model'),'2;1');
FILE_NAME('Open CASCADE Shape Model','2026-08-28T13:04:06',('FreeCAD'),(
    'FreeCAD'),'Open CASCADE STEP processor 7.8','FreeCAD','Unknown');
FILE_SCHEMA(('AUTOMOTIVE_DESIGN { 1 0 10303 214 1 1 1 1 }'));
ENDSEC;
DATA;
#1 = APPLICATION_PROTOCOL_DEFINITION('international standard',
  'automotive_design',2000,#2);
#2 = APPLICATION_CONTEXT(
  'core data for automotive mechanical design processes');
#3 = SHAPE_DEFINITION_REPRESENTATION(#4,#10);
#4 = PRODUCT_DEFINITION_SHAPE('','',#5);
#5 = PRODUCT_DEFINITION('design','',#6,#9);
#6 = PRODUCT_DEFINITION_FORMATION('','',#7);
#7 = PRODUCT('Open CASCADE STEP translator 7.8 72',
  'Open CASCADE STEP translator 7.8 72','',(#8));
#8 = PRODUCT_CONTEXT('',#2,'mechanical');
#9 = PRODUCT_DEFINITION_CONTEXT('part definition',#2,'design');
#10 = ADVANCED_BREP_SHAPE_REPRESENTATION('',(#11,#15),#649);
#11 = AXIS2_PLACEMENT_3D('',#12,#13,#14);
#12 = CARTESIAN_POINT('',(0.,0.,0.));
#13 = DIRECTION('',(0.,0.,1.));
#14 = DIRECTION('',(1.,0.,-0.));
#15 = MANIFOLD_SOLID_BREP('',#16);
#16 = CLOSED_SHELL('',(#17,#95,#142,#167,#192,#232,#256,#312,#330,#354,
    #409,#432,#444,#490,#521,#538,#562,#579,#596,#620,#637));
#17 = ADVANCED_FACE('',(#18,#79),#90,.F.);
#18 = FACE_BOUND('',#19,.F.);
#19 = EDGE_LOOP('',(#20,#30,#39,#47,#55,#64,#72));
#20 = ORIENTED_EDGE('',*,*,#21,.T.);
#21 = EDGE_CURVE('',#22,#24,#26,.T.);
#22 = VERTEX_POINT('',#23);
#23 = CARTESIAN_POINT('',(-39.,17.,4.));
#24 = VERTEX_POINT('',#25);
#25 = CARTESIAN_POINT('',(-39.,3.,4.));
#26 = LINE('',#27,#28);
#27 = CARTESIAN_POINT('',(-39.,20.,4.));
#28 = VECTOR('',#29,1.);
#29 = DIRECTION('',(0.,-1.,0.));
#30 = ORIENTED_EDGE('',*,*,#31,.T.);
#31 = EDGE_CURVE('',#24,#32,#34,.T.);
#32 = VERTEX_POINT('',#33);
#33 = CARTESIAN_POINT('',(-42.,0.,4.));
#34 = CIRCLE('',#35,3.);
#35 = AXIS2_PLACEMENT_3D('',#36,#37,#38);
#36 = CARTESIAN_POINT('',(-42.,3.,4.));
#37 = DIRECTION('',(0.,0.,-1.));
#38 = DIRECTION('',(0.,1.,0.));
#39 = ORIENTED_EDGE('',*,*,#40,.T.);
#40 = EDGE_CURVE('',#32,#41,#43,.T.);
#41 = VERTEX_POINT('',#42);
#42 = CARTESIAN_POINT('',(-48.5,0.,4.));
#43 = LINE('',#44,#45);
#44 = CARTESIAN_POINT('',(-39.,0.,4.));
#45 = VECTOR('',#46,1.);
#46 = DIRECTION('',(-1.,0.,0.));
#47 = ORIENTED_EDGE('',*,*,#48,.F.);
#48 = EDGE_CURVE('',#49,#41,#51,.T.);
#49 = VERTEX_POINT('',#50);
#50 = CARTESIAN_POINT('',(-48.5,17.,4.));
#51 = LINE('',#52,#53);
#52 = CARTESIAN_POINT('',(-48.5,20.,4.));
#53 = VECTOR('',#54,1.);
#54 = DIRECTION('',(0.,-1.,0.));
#55 = ORIENTED_EDGE('',*,*,#56,.F.);
#56 = EDGE_CURVE('',#57,#49,#59,.T.);
#57 = VERTEX_POINT('',#58);
#58 = CARTESIAN_POINT('',(-45.5,20.,4.));
#59 = CIRCLE('',#60,3.);
#60 = AXIS2_PLACEMENT_3D('',#61,#62,#63);
#61 = CARTESIAN_POINT('',(-45.5,17.,4.));
#62 = DIRECTION('',(-0.,0.,1.));
#63 = DIRECTION('',(0.,-1.,0.));
#64 = ORIENTED_EDGE('',*,*,#65,.F.);
#65 = EDGE_CURVE('',#66,#57,#68,.T.);
#66 = VERTEX_POINT('',#67);
#67 = CARTESIAN_POINT('',(-42.,20.,4.));
#68 = LINE('',#69,#70);
#69 = CARTESIAN_POINT('',(-39.,20.,4.));
#70 = VECTOR('',#71,1.);
#71 = DIRECTION('',(-1.,0.,0.));
#72 = ORIENTED_EDGE('',*,*,#73,.T.);
#73 = EDGE_CURVE('',#66,#22,#74,.T.);
#74 = CIRCLE('',#75,3.);
#75 = AXIS2_PLACEMENT_3D('',#76,#77,#78);
#76 = CARTESIAN_POINT('',(-42.,17.,4.));
#77 = DIRECTION('',(0.,0.,-1.));
#78 = DIRECTION('',(0.,1.,0.));
#79 = FACE_BOUND('',#80,.T.);
#80 = EDGE_LOOP('',(#81));
#81 = ORIENTED_EDGE('',*,*,#82,.T.);
#82 = EDGE_CURVE('',#83,#83,#85,.T.);
#83 = VERTEX_POINT('',#84);
#84 = CARTESIAN_POINT('',(-45.35,16.,4.));
#85 = CIRCLE('',#86,1.6);
#86 = AXIS2_PLACEMENT_3D('',#87,#88,#89);
#87 = CARTESIAN_POINT('',(-43.75,16.,4.));
#88 = DIRECTION('',(0.,0.,-1.));
#89 = DIRECTION('',(-1.,0.,0.));
#90 = PLANE('',#91);
#91 = AXIS2_PLACEMENT_3D('',#92,#93,#94);
#92 = CARTESIAN_POINT('',(-43.75,10.741052068719,4.));
#93 = DIRECTION('',(0.,0.,-1.));
#94 = DIRECTION('',(-1.,0.,0.));
#95 = ADVANCED_FACE('',(#96),#137,.T.);
#96 = FACE_BOUND('',#97,.T.);
#97 = EDGE_LOOP('',(#98,#99,#107,#115,#123,#131));
#98 = ORIENTED_EDGE('',*,*,#21,.T.);
#99 = ORIENTED_EDGE('',*,*,#100,.F.);
#100 = EDGE_CURVE('',#101,#24,#103,.T.);
#101 = VERTEX_POINT('',#102);
#102 = CARTESIAN_POINT('',(-39.,3.,-5.));
#103 = LINE('',#104,#105);
#104 = CARTESIAN_POINT('',(-39.,3.,-5.));
#105 = VECTOR('',#106,1.);
#106 = DIRECTION('',(0.,-0.,1.));
#107 = ORIENTED_EDGE('',*,*,#108,.F.);
#108 = EDGE_CURVE('',#109,#101,#111,.T.);
#109 = VERTEX_POINT('',#110);
#110 = CARTESIAN_POINT('',(-39.,10.858259049699,-5.));
#111 = LINE('',#112,#113);
#112 = CARTESIAN_POINT('',(-39.,20.,-5.));
#113 = VECTOR('',#114,1.);
#114 = DIRECTION('',(-9.E-17,-1.,0.));
#115 = ORIENTED_EDGE('',*,*,#116,.F.);
#116 = EDGE_CURVE('',#117,#109,#119,.T.);
#117 = VERTEX_POINT('',#118);
#118 = CARTESIAN_POINT('',(-39.,10.858259049699,-2.));
#119 = LINE('',#120,#121);
#120 = CARTESIAN_POINT('',(-39.,10.858259049699,-5.));
#121 = VECTOR('',#122,1.);
#122 = DIRECTION('',(0.,0.,-1.));
#123 = ORIENTED_EDGE('',*,*,#124,.T.);
#124 = EDGE_CURVE('',#117,#125,#127,.T.);
#125 = VERTEX_POINT('',#126);
#126 = CARTESIAN_POINT('',(-39.,17.,-2.));
#127 = LINE('',#128,#129);
#128 = CARTESIAN_POINT('',(-39.,13.,-2.));
#129 = VECTOR('',#130,1.);
#130 = DIRECTION('',(0.,1.,0.));
#131 = ORIENTED_EDGE('',*,*,#132,.T.);
#132 = EDGE_CURVE('',#125,#22,#133,.T.);
#133 = LINE('',#134,#135);
#134 = CARTESIAN_POINT('',(-39.,17.,-2.));
#135 = VECTOR('',#136,1.);
#136 = DIRECTION('',(0.,-0.,1.));
#137 = PLANE('',#138);
#138 = AXIS2_PLACEMENT_3D('',#139,#140,#141);
#139 = CARTESIAN_POINT('',(-39.,10.,-0.5));
#140 = DIRECTION('',(1.,-0.,0.));
#141 = DIRECTION('',(0.,0.,1.));
#142 = ADVANCED_FACE('',(#143),#162,.T.);
#143 = FACE_BOUND('',#144,.F.);
#144 = EDGE_LOOP('',(#145,#154,#160,#161));
#145 = ORIENTED_EDGE('',*,*,#146,.T.);
#146 = EDGE_CURVE('',#101,#147,#149,.T.);
#147 = VERTEX_POINT('',#148);
#148 = CARTESIAN_POINT('',(-42.,0.,-5.));
#149 = CIRCLE('',#150,3.);
#150 = AXIS2_PLACEMENT_3D('',#151,#152,#153);
#151 = CARTESIAN_POINT('',(-42.,3.,-5.));
#152 = DIRECTION('',(0.,0.,-1.));
#153 = DIRECTION('',(0.,1.,0.));
#154 = ORIENTED_EDGE('',*,*,#155,.T.);
#155 = EDGE_CURVE('',#147,#32,#156,.T.);
#156 = LINE('',#157,#158);
#157 = CARTESIAN_POINT('',(-42.,-4.4E-16,-5.));
#158 = VECTOR('',#159,1.);
#159 = DIRECTION('',(0.,-0.,1.));
#160 = ORIENTED_EDGE('',*,*,#31,.F.);
#161 = ORIENTED_EDGE('',*,*,#100,.F.);
#162 = CYLINDRICAL_SURFACE('',#163,3.);
#163 = AXIS2_PLACEMENT_3D('',#164,#165,#166);
#164 = CARTESIAN_POINT('',(-42.,3.,-5.));
#165 = DIRECTION('',(0.,-0.,1.));
#166 = DIRECTION('',(1.,0.,0.));
#167 = ADVANCED_FACE('',(#168),#187,.T.);
#168 = FACE_BOUND('',#169,.F.);
#169 = EDGE_LOOP('',(#170,#179,#180,#181));
#170 = ORIENTED_EDGE('',*,*,#171,.T.);
#171 = EDGE_CURVE('',#172,#125,#174,.T.);
#172 = VERTEX_POINT('',#173);
#173 = CARTESIAN_POINT('',(-42.,20.,-2.));
#174 = CIRCLE('',#175,3.);
#175 = AXIS2_PLACEMENT_3D('',#176,#177,#178);
#176 = CARTESIAN_POINT('',(-42.,17.,-2.));
#177 = DIRECTION('',(0.,0.,-1.));
#178 = DIRECTION('',(0.,1.,0.));
#179 = ORIENTED_EDGE('',*,*,#132,.T.);
#180 = ORIENTED_EDGE('',*,*,#73,.F.);
#181 = ORIENTED_EDGE('',*,*,#182,.F.);
#182 = EDGE_CURVE('',#172,#66,#183,.T.);
#183 = LINE('',#184,#185);
#184 = CARTESIAN_POINT('',(-42.,20.,-2.));
#185 = VECTOR('',#186,1.);
#186 = DIRECTION('',(0.,-0.,1.));
#187 = CYLINDRICAL_SURFACE('',#188,3.);
#188 = AXIS2_PLACEMENT_3D('',#189,#190,#191);
#189 = CARTESIAN_POINT('',(-42.,17.,-2.));
#190 = DIRECTION('',(0.,-0.,1.));
#191 = DIRECTION('',(0.,1.,0.));
#192 = ADVANCED_FACE('',(#193),#227,.T.);
#193 = FACE_BOUND('',#194,.T.);
#194 = EDGE_LOOP('',(#195,#196,#204,#212,#220,#226));
#195 = ORIENTED_EDGE('',*,*,#40,.T.);
#196 = ORIENTED_EDGE('',*,*,#197,.F.);
#197 = EDGE_CURVE('',#198,#41,#200,.T.);
#198 = VERTEX_POINT('',#199);
#199 = CARTESIAN_POINT('',(-48.5,0.,0.));
#200 = LINE('',#201,#202);
#201 = CARTESIAN_POINT('',(-48.5,0.,-5.));
#202 = VECTOR('',#203,1.);
#203 = DIRECTION('',(0.,-0.,1.));
#204 = ORIENTED_EDGE('',*,*,#205,.T.);
#205 = EDGE_CURVE('',#198,#206,#208,.T.);
#206 = VERTEX_POINT('',#207);
#207 = CARTESIAN_POINT('',(-67.,0.,0.));
#208 = LINE('',#209,#210);
#209 = CARTESIAN_POINT('',(-53.,0.,0.));
#210 = VECTOR('',#211,1.);
#211 = DIRECTION('',(-1.,0.,0.));
#212 = ORIENTED_EDGE('',*,*,#213,.T.);
#213 = EDGE_CURVE('',#206,#214,#216,.T.);
#214 = VERTEX_POINT('',#215);
#215 = CARTESIAN_POINT('',(-67.,0.,-5.));
#216 = LINE('',#217,#218);
#217 = CARTESIAN_POINT('',(-67.,0.,0.));
#218 = VECTOR('',#219,1.);
#219 = DIRECTION('',(0.,0.,-1.));
#220 = ORIENTED_EDGE('',*,*,#221,.T.);
#221 = EDGE_CURVE('',#214,#147,#222,.T.);
#222 = LINE('',#223,#224);
#223 = CARTESIAN_POINT('',(-53.,0.,-5.));
#224 = VECTOR('',#225,1.);
#225 = DIRECTION('',(1.,0.,0.));
#226 = ORIENTED_EDGE('',*,*,#155,.T.);
#227 = PLANE('',#228);
#228 = AXIS2_PLACEMENT_3D('',#229,#230,#231);
#229 = CARTESIAN_POINT('',(-52.,0.,-1.5));
#230 = DIRECTION('',(0.,-1.,0.));
#231 = DIRECTION('',(0.,0.,1.));
#232 = ADVANCED_FACE('',(#233),#251,.T.);
#233 = FACE_BOUND('',#234,.T.);
#234 = EDGE_LOOP('',(#235,#243,#249,#250));
#235 = ORIENTED_EDGE('',*,*,#236,.T.);
#236 = EDGE_CURVE('',#172,#237,#239,.T.);
#237 = VERTEX_POINT('',#238);
#238 = CARTESIAN_POINT('',(-45.5,20.,-2.));
#239 = LINE('',#240,#241);
#240 = CARTESIAN_POINT('',(-43.75,20.,-2.));
#241 = VECTOR('',#242,1.);
#242 = DIRECTION('',(-1.,0.,0.));
#243 = ORIENTED_EDGE('',*,*,#244,.F.);
#244 = EDGE_CURVE('',#57,#237,#245,.T.);
#245 = LINE('',#246,#247);
#246 = CARTESIAN_POINT('',(-45.5,20.,4.));
#247 = VECTOR('',#248,1.);
#248 = DIRECTION('',(0.,0.,-1.));
#249 = ORIENTED_EDGE('',*,*,#65,.F.);
#250 = ORIENTED_EDGE('',*,*,#182,.F.);
#251 = PLANE('',#252);
#252 = AXIS2_PLACEMENT_3D('',#253,#254,#255);
#253 = CARTESIAN_POINT('',(-43.75,20.,-0.5));
#254 = DIRECTION('',(0.,1.,0.));
#255 = DIRECTION('',(0.,0.,-1.));
#256 = ADVANCED_FACE('',(#257),#307,.T.);
#257 = FACE_BOUND('',#258,.T.);
#258 = EDGE_LOOP('',(#259,#260,#268,#276,#284,#292,#300,#306));
#259 = ORIENTED_EDGE('',*,*,#48,.F.);
#260 = ORIENTED_EDGE('',*,*,#261,.T.);
#261 = EDGE_CURVE('',#49,#262,#264,.T.);
#262 = VERTEX_POINT('',#263);
#263 = CARTESIAN_POINT('',(-48.5,17.,-2.));
#264 = LINE('',#265,#266);
#265 = CARTESIAN_POINT('',(-48.5,17.,4.));
#266 = VECTOR('',#267,1.);
#267 = DIRECTION('',(0.,0.,-1.));
#268 = ORIENTED_EDGE('',*,*,#269,.T.);
#269 = EDGE_CURVE('',#262,#270,#272,.T.);
#270 = VERTEX_POINT('',#271);
#271 = CARTESIAN_POINT('',(-48.5,10.858259049699,-2.));
#272 = LINE('',#273,#274);
#273 = CARTESIAN_POINT('',(-48.5,13.409482758621,-2.));
#274 = VECTOR('',#275,1.);
#275 = DIRECTION('',(0.,-1.,0.));
#276 = ORIENTED_EDGE('',*,*,#277,.T.);
#277 = EDGE_CURVE('',#270,#278,#280,.T.);
#278 = VERTEX_POINT('',#279);
#279 = CARTESIAN_POINT('',(-48.5,10.858259049699,-5.));
#280 = LINE('',#281,#282);
#281 = CARTESIAN_POINT('',(-48.5,10.858259049699,-5.));
#282 = VECTOR('',#283,1.);
#283 = DIRECTION('',(0.,0.,-1.));
#284 = ORIENTED_EDGE('',*,*,#285,.T.);
#285 = EDGE_CURVE('',#278,#286,#288,.T.);
#286 = VERTEX_POINT('',#287);
#287 = CARTESIAN_POINT('',(-48.5,9.5,-5.));
#288 = LINE('',#289,#290);
#289 = CARTESIAN_POINT('',(-48.5,20.,-5.));
#290 = VECTOR('',#291,1.);
#291 = DIRECTION('',(-8.E-17,-1.,0.));
#292 = ORIENTED_EDGE('',*,*,#293,.F.);
#293 = EDGE_CURVE('',#294,#286,#296,.T.);
#294 = VERTEX_POINT('',#295);
#295 = CARTESIAN_POINT('',(-48.5,9.5,0.));
#296 = LINE('',#297,#298);
#297 = CARTESIAN_POINT('',(-48.5,9.5,0.));
#298 = VECTOR('',#299,1.);
#299 = DIRECTION('',(0.,0.,-1.));
#300 = ORIENTED_EDGE('',*,*,#301,.T.);
#301 = EDGE_CURVE('',#294,#198,#302,.T.);
#302 = LINE('',#303,#304);
#303 = CARTESIAN_POINT('',(-48.5,14.0422549875,0.));
#304 = VECTOR('',#305,1.);
#305 = DIRECTION('',(0.,-1.,0.));
#306 = ORIENTED_EDGE('',*,*,#197,.T.);
#307 = PLANE('',#308);
#308 = AXIS2_PLACEMENT_3D('',#309,#310,#311);
#309 = CARTESIAN_POINT('',(-48.5,10.818965517241,0.318965517241));
#310 = DIRECTION('',(-1.,0.,0.));
#311 = DIRECTION('',(0.,0.,-1.));
#312 = ADVANCED_FACE('',(#313),#325,.T.);
#313 = FACE_BOUND('',#314,.F.);
#314 = EDGE_LOOP('',(#315,#316,#317,#324));
#315 = ORIENTED_EDGE('',*,*,#56,.T.);
#316 = ORIENTED_EDGE('',*,*,#261,.T.);
#317 = ORIENTED_EDGE('',*,*,#318,.F.);
#318 = EDGE_CURVE('',#237,#262,#319,.T.);
#319 = CIRCLE('',#320,3.);
#320 = AXIS2_PLACEMENT_3D('',#321,#322,#323);
#321 = CARTESIAN_POINT('',(-45.5,17.,-2.));
#322 = DIRECTION('',(-0.,0.,1.));
#323 = DIRECTION('',(0.,-1.,0.));
#324 = ORIENTED_EDGE('',*,*,#244,.F.);
#325 = CYLINDRICAL_SURFACE('',#326,3.);
#326 = AXIS2_PLACEMENT_3D('',#327,#328,#329);
#327 = CARTESIAN_POINT('',(-45.5,17.,4.));
#328 = DIRECTION('',(0.,0.,-1.));
#329 = DIRECTION('',(0.,1.,0.));
#330 = ADVANCED_FACE('',(#331),#349,.F.);
#331 = FACE_BOUND('',#332,.T.);
#332 = EDGE_LOOP('',(#333,#342,#347,#348));
#333 = ORIENTED_EDGE('',*,*,#334,.F.);
#334 = EDGE_CURVE('',#335,#335,#337,.T.);
#335 = VERTEX_POINT('',#336);
#336 = CARTESIAN_POINT('',(-45.35,16.,-2.));
#337 = CIRCLE('',#338,1.6);
#338 = AXIS2_PLACEMENT_3D('',#339,#340,#341);
#339 = CARTESIAN_POINT('',(-43.75,16.,-2.));
#340 = DIRECTION('',(0.,0.,1.));
#341 = DIRECTION('',(-1.,0.,0.));
#342 = ORIENTED_EDGE('',*,*,#343,.T.);
#343 = EDGE_CURVE('',#335,#83,#344,.T.);
#344 = B_SPLINE_CURVE_WITH_KNOTS('',1,(#345,#346),.UNSPECIFIED.,.F.,.F.,
  (2,2),(-5.,4.),.PIECEWISE_BEZIER_KNOTS.);
#345 = CARTESIAN_POINT('',(-45.35,16.,-5.));
#346 = CARTESIAN_POINT('',(-45.35,16.,4.));
#347 = ORIENTED_EDGE('',*,*,#82,.F.);
#348 = ORIENTED_EDGE('',*,*,#343,.F.);
#349 = CYLINDRICAL_SURFACE('',#350,1.6);
#350 = AXIS2_PLACEMENT_3D('',#351,#352,#353);
#351 = CARTESIAN_POINT('',(-43.75,16.,0.));
#352 = DIRECTION('',(0.,-0.,1.));
#353 = DIRECTION('',(-1.,0.,0.));
#354 = ADVANCED_FACE('',(#355,#382,#393),#404,.T.);
#355 = FACE_BOUND('',#356,.T.);
#356 = EDGE_LOOP('',(#357,#358,#366,#372,#373,#380,#381));
#357 = ORIENTED_EDGE('',*,*,#221,.F.);
#358 = ORIENTED_EDGE('',*,*,#359,.T.);
#359 = EDGE_CURVE('',#214,#360,#362,.T.);
#360 = VERTEX_POINT('',#361);
#361 = CARTESIAN_POINT('',(-67.,9.5,-5.));
#362 = LINE('',#363,#364);
#363 = CARTESIAN_POINT('',(-67.,0.,-5.));
#364 = VECTOR('',#365,1.);
#365 = DIRECTION('',(0.,1.,0.));
#366 = ORIENTED_EDGE('',*,*,#367,.T.);
#367 = EDGE_CURVE('',#360,#286,#368,.T.);
#368 = LINE('',#369,#370);
#369 = CARTESIAN_POINT('',(-67.,9.5,-5.));
#370 = VECTOR('',#371,1.);
#371 = DIRECTION('',(1.,0.,0.));
#372 = ORIENTED_EDGE('',*,*,#285,.F.);
#373 = ORIENTED_EDGE('',*,*,#374,.F.);
#374 = EDGE_CURVE('',#109,#278,#375,.T.);
#375 = CIRCLE('',#376,7.);
#376 = AXIS2_PLACEMENT_3D('',#377,#378,#379);
#377 = CARTESIAN_POINT('',(-43.75,16.,-5.));
#378 = DIRECTION('',(0.,0.,-1.));
#379 = DIRECTION('',(-1.,0.,0.));
#380 = ORIENTED_EDGE('',*,*,#108,.T.);
#381 = ORIENTED_EDGE('',*,*,#146,.T.);
#382 = FACE_BOUND('',#383,.T.);
#383 = EDGE_LOOP('',(#384));
#384 = ORIENTED_EDGE('',*,*,#385,.F.);
#385 = EDGE_CURVE('',#386,#386,#388,.T.);
#386 = VERTEX_POINT('',#387);
#387 = CARTESIAN_POINT('',(-57.6,4.75,-5.));
#388 = CIRCLE('',#389,1.6);
#389 = AXIS2_PLACEMENT_3D('',#390,#391,#392);
#390 = CARTESIAN_POINT('',(-56.,4.75,-5.));
#391 = DIRECTION('',(0.,0.,-1.));
#392 = DIRECTION('',(-1.,0.,0.));
#393 = FACE_BOUND('',#394,.T.);
#394 = EDGE_LOOP('',(#395));
#395 = ORIENTED_EDGE('',*,*,#396,.F.);
#396 = EDGE_CURVE('',#397,#397,#399,.T.);
#397 = VERTEX_POINT('',#398);
#398 = CARTESIAN_POINT('',(-65.6,4.75,-5.));
#399 = CIRCLE('',#400,1.6);
#400 = AXIS2_PLACEMENT_3D('',#401,#402,#403);
#401 = CARTESIAN_POINT('',(-64.,4.75,-5.));
#402 = DIRECTION('',(0.,0.,-1.));
#403 = DIRECTION('',(-1.,0.,0.));
#404 = PLANE('',#405);
#405 = AXIS2_PLACEMENT_3D('',#406,#407,#408);
#406 = CARTESIAN_POINT('',(-50.9765625,7.9765625,-5.));
#407 = DIRECTION('',(0.,0.,-1.));
#408 = DIRECTION('',(-1.,0.,0.));
#409 = ADVANCED_FACE('',(#410,#424),#427,.T.);
#410 = FACE_BOUND('',#411,.T.);
#411 = EDGE_LOOP('',(#412,#413,#420,#421,#422,#423));
#412 = ORIENTED_EDGE('',*,*,#124,.F.);
#413 = ORIENTED_EDGE('',*,*,#414,.T.);
#414 = EDGE_CURVE('',#117,#270,#415,.T.);
#415 = CIRCLE('',#416,7.);
#416 = AXIS2_PLACEMENT_3D('',#417,#418,#419);
#417 = CARTESIAN_POINT('',(-43.75,16.,-2.));
#418 = DIRECTION('',(0.,0.,-1.));
#419 = DIRECTION('',(-1.,0.,0.));
#420 = ORIENTED_EDGE('',*,*,#269,.F.);
#421 = ORIENTED_EDGE('',*,*,#318,.F.);
#422 = ORIENTED_EDGE('',*,*,#236,.F.);
#423 = ORIENTED_EDGE('',*,*,#171,.T.);
#424 = FACE_BOUND('',#425,.T.);
#425 = EDGE_LOOP('',(#426));
#426 = ORIENTED_EDGE('',*,*,#334,.T.);
#427 = PLANE('',#428);
#428 = AXIS2_PLACEMENT_3D('',#429,#430,#431);
#429 = CARTESIAN_POINT('',(-43.75,16.,-2.));
#430 = DIRECTION('',(0.,0.,-1.));
#431 = DIRECTION('',(-1.,0.,0.));
#432 = ADVANCED_FACE('',(#433),#439,.F.);
#433 = FACE_BOUND('',#434,.F.);
#434 = EDGE_LOOP('',(#435,#436,#437,#438));
#435 = ORIENTED_EDGE('',*,*,#374,.F.);
#436 = ORIENTED_EDGE('',*,*,#116,.F.);
#437 = ORIENTED_EDGE('',*,*,#414,.T.);
#438 = ORIENTED_EDGE('',*,*,#277,.T.);
#439 = CYLINDRICAL_SURFACE('',#440,7.);
#440 = AXIS2_PLACEMENT_3D('',#441,#442,#443);
#441 = CARTESIAN_POINT('',(-43.75,16.,-5.));
#442 = DIRECTION('',(0.,0.,-1.));
#443 = DIRECTION('',(-1.,0.,0.));
#444 = ADVANCED_FACE('',(#445,#463,#474),#485,.F.);
#445 = FACE_BOUND('',#446,.F.);
#446 = EDGE_LOOP('',(#447,#455,#456,#457));
#447 = ORIENTED_EDGE('',*,*,#448,.T.);
#448 = EDGE_CURVE('',#449,#294,#451,.T.);
#449 = VERTEX_POINT('',#450);
#450 = CARTESIAN_POINT('',(-67.,9.5,0.));
#451 = LINE('',#452,#453);
#452 = CARTESIAN_POINT('',(-53.,9.5,0.));
#453 = VECTOR('',#454,1.);
#454 = DIRECTION('',(1.,0.,0.));
#455 = ORIENTED_EDGE('',*,*,#301,.T.);
#456 = ORIENTED_EDGE('',*,*,#205,.T.);
#457 = ORIENTED_EDGE('',*,*,#458,.T.);
#458 = EDGE_CURVE('',#206,#449,#459,.T.);
#459 = LINE('',#460,#461);
#460 = CARTESIAN_POINT('',(-67.,0.,0.));
#461 = VECTOR('',#462,1.);
#462 = DIRECTION('',(0.,1.,0.));
#463 = FACE_BOUND('',#464,.F.);
#464 = EDGE_LOOP('',(#465));
#465 = ORIENTED_EDGE('',*,*,#466,.F.);
#466 = EDGE_CURVE('',#467,#467,#469,.T.);
#467 = VERTEX_POINT('',#468);
#468 = CARTESIAN_POINT('',(-57.6,4.75,0.));
#469 = CIRCLE('',#470,1.6);
#470 = AXIS2_PLACEMENT_3D('',#471,#472,#473);
#471 = CARTESIAN_POINT('',(-56.,4.75,0.));
#472 = DIRECTION('',(0.,0.,-1.));
#473 = DIRECTION('',(-1.,0.,0.));
#474 = FACE_BOUND('',#475,.F.);
#475 = EDGE_LOOP('',(#476));
#476 = ORIENTED_EDGE('',*,*,#477,.F.);
#477 = EDGE_CURVE('',#478,#478,#480,.T.);
#478 = VERTEX_POINT('',#479);
#479 = CARTESIAN_POINT('',(-65.6,4.75,0.));
#480 = CIRCLE('',#481,1.6);
#481 = AXIS2_PLACEMENT_3D('',#482,#483,#484);
#482 = CARTESIAN_POINT('',(-64.,4.75,0.));
#483 = DIRECTION('',(0.,0.,-1.));
#484 = DIRECTION('',(-1.,0.,0.));
#485 = PLANE('',#486);
#486 = AXIS2_PLACEMENT_3D('',#487,#488,#489);
#487 = CARTESIAN_POINT('',(-51.72037967848,8.084509975001,0.));
#488 = DIRECTION('',(0.,0.,-1.));
#489 = DIRECTION('',(-1.,0.,0.));
#490 = ADVANCED_FACE('',(#491),#516,.T.);
#491 = FACE_BOUND('',#492,.T.);
#492 = EDGE_LOOP('',(#493,#501,#509,#515));
#493 = ORIENTED_EDGE('',*,*,#494,.T.);
#494 = EDGE_CURVE('',#206,#495,#497,.T.);
#495 = VERTEX_POINT('',#496);
#496 = CARTESIAN_POINT('',(-68.,0.,0.));
#497 = LINE('',#498,#499);
#498 = CARTESIAN_POINT('',(-67.,0.,0.));
#499 = VECTOR('',#500,1.);
#500 = DIRECTION('',(-1.,0.,0.));
#501 = ORIENTED_EDGE('',*,*,#502,.T.);
#502 = EDGE_CURVE('',#495,#503,#505,.T.);
#503 = VERTEX_POINT('',#504);
#504 = CARTESIAN_POINT('',(-68.,0.,-5.));
#505 = LINE('',#506,#507);
#506 = CARTESIAN_POINT('',(-68.,0.,0.));
#507 = VECTOR('',#508,1.);
#508 = DIRECTION('',(0.,0.,-1.));
#509 = ORIENTED_EDGE('',*,*,#510,.F.);
#510 = EDGE_CURVE('',#214,#503,#511,.T.);
#511 = LINE('',#512,#513);
#512 = CARTESIAN_POINT('',(-67.,0.,-5.));
#513 = VECTOR('',#514,1.);
#514 = DIRECTION('',(-1.,0.,0.));
#515 = ORIENTED_EDGE('',*,*,#213,.F.);
#516 = PLANE('',#517);
#517 = AXIS2_PLACEMENT_3D('',#518,#519,#520);
#518 = CARTESIAN_POINT('',(-67.,0.,0.));
#519 = DIRECTION('',(0.,-1.,-0.));
#520 = DIRECTION('',(0.,0.,-1.));
#521 = ADVANCED_FACE('',(#522),#533,.T.);
#522 = FACE_BOUND('',#523,.T.);
#523 = EDGE_LOOP('',(#524,#530,#531,#532));
#524 = ORIENTED_EDGE('',*,*,#525,.F.);
#525 = EDGE_CURVE('',#449,#360,#526,.T.);
#526 = LINE('',#527,#528);
#527 = CARTESIAN_POINT('',(-67.,9.5,0.));
#528 = VECTOR('',#529,1.);
#529 = DIRECTION('',(0.,0.,-1.));
#530 = ORIENTED_EDGE('',*,*,#448,.T.);
#531 = ORIENTED_EDGE('',*,*,#293,.T.);
#532 = ORIENTED_EDGE('',*,*,#367,.F.);
#533 = PLANE('',#534);
#534 = AXIS2_PLACEMENT_3D('',#535,#536,#537);
#535 = CARTESIAN_POINT('',(-57.75,9.5,-2.5));
#536 = DIRECTION('',(0.,1.,0.));
#537 = DIRECTION('',(0.,0.,-1.));
#538 = ADVANCED_FACE('',(#539),#557,.T.);
#539 = FACE_BOUND('',#540,.T.);
#540 = EDGE_LOOP('',(#541,#542,#550,#556));
#541 = ORIENTED_EDGE('',*,*,#510,.T.);
#542 = ORIENTED_EDGE('',*,*,#543,.T.);
#543 = EDGE_CURVE('',#503,#544,#546,.T.);
#544 = VERTEX_POINT('',#545);
#545 = CARTESIAN_POINT('',(-68.,9.5,-5.));
#546 = LINE('',#547,#548);
#547 = CARTESIAN_POINT('',(-68.,0.,-5.));
#548 = VECTOR('',#549,1.);
#549 = DIRECTION('',(0.,1.,0.));
#550 = ORIENTED_EDGE('',*,*,#551,.F.);
#551 = EDGE_CURVE('',#360,#544,#552,.T.);
#552 = LINE('',#553,#554);
#553 = CARTESIAN_POINT('',(-67.,9.5,-5.));
#554 = VECTOR('',#555,1.);
#555 = DIRECTION('',(-1.,0.,0.));
#556 = ORIENTED_EDGE('',*,*,#359,.F.);
#557 = PLANE('',#558);
#558 = AXIS2_PLACEMENT_3D('',#559,#560,#561);
#559 = CARTESIAN_POINT('',(-67.,0.,-5.));
#560 = DIRECTION('',(0.,0.,-1.));
#561 = DIRECTION('',(0.,1.,0.));
#562 = ADVANCED_FACE('',(#563),#574,.F.);
#563 = FACE_BOUND('',#564,.T.);
#564 = EDGE_LOOP('',(#565,#571,#572,#573));
#565 = ORIENTED_EDGE('',*,*,#566,.T.);
#566 = EDGE_CURVE('',#467,#386,#567,.T.);
#567 = LINE('',#568,#569);
#568 = CARTESIAN_POINT('',(-57.6,4.75,0.));
#569 = VECTOR('',#570,1.);
#570 = DIRECTION('',(0.,0.,-1.));
#571 = ORIENTED_EDGE('',*,*,#385,.T.);
#572 = ORIENTED_EDGE('',*,*,#566,.F.);
#573 = ORIENTED_EDGE('',*,*,#466,.F.);
#574 = CYLINDRICAL_SURFACE('',#575,1.6);
#575 = AXIS2_PLACEMENT_3D('',#576,#577,#578);
#576 = CARTESIAN_POINT('',(-56.,4.75,0.));
#577 = DIRECTION('',(0.,-0.,1.));
#578 = DIRECTION('',(-1.,0.,0.));
#579 = ADVANCED_FACE('',(#580),#591,.F.);
#580 = FACE_BOUND('',#581,.T.);
#581 = EDGE_LOOP('',(#582,#588,#589,#590));
#582 = ORIENTED_EDGE('',*,*,#583,.T.);
#583 = EDGE_CURVE('',#478,#397,#584,.T.);
#584 = LINE('',#585,#586);
#585 = CARTESIAN_POINT('',(-65.6,4.75,0.));
#586 = VECTOR('',#587,1.);
#587 = DIRECTION('',(0.,0.,-1.));
#588 = ORIENTED_EDGE('',*,*,#396,.T.);
#589 = ORIENTED_EDGE('',*,*,#583,.F.);
#590 = ORIENTED_EDGE('',*,*,#477,.F.);
#591 = CYLINDRICAL_SURFACE('',#592,1.6);
#592 = AXIS2_PLACEMENT_3D('',#593,#594,#595);
#593 = CARTESIAN_POINT('',(-64.,4.75,0.));
#594 = DIRECTION('',(0.,-0.,1.));
#595 = DIRECTION('',(-1.,0.,0.));
#596 = ADVANCED_FACE('',(#597),#615,.F.);
#597 = FACE_BOUND('',#598,.F.);
#598 = EDGE_LOOP('',(#599,#600,#608,#614));
#599 = ORIENTED_EDGE('',*,*,#494,.T.);
#600 = ORIENTED_EDGE('',*,*,#601,.T.);
#601 = EDGE_CURVE('',#495,#602,#604,.T.);
#602 = VERTEX_POINT('',#603);
#603 = CARTESIAN_POINT('',(-68.,9.5,0.));
#604 = LINE('',#605,#606);
#605 = CARTESIAN_POINT('',(-68.,0.,0.));
#606 = VECTOR('',#607,1.);
#607 = DIRECTION('',(0.,1.,0.));
#608 = ORIENTED_EDGE('',*,*,#609,.F.);
#609 = EDGE_CURVE('',#449,#602,#610,.T.);
#610 = LINE('',#611,#612);
#611 = CARTESIAN_POINT('',(-67.,9.5,0.));
#612 = VECTOR('',#613,1.);
#613 = DIRECTION('',(-1.,0.,0.));
#614 = ORIENTED_EDGE('',*,*,#458,.F.);
#615 = PLANE('',#616);
#616 = AXIS2_PLACEMENT_3D('',#617,#618,#619);
#617 = CARTESIAN_POINT('',(-67.,0.,0.));
#618 = DIRECTION('',(0.,0.,-1.));
#619 = DIRECTION('',(0.,1.,0.));
#620 = ADVANCED_FACE('',(#621),#632,.T.);
#621 = FACE_BOUND('',#622,.F.);
#622 = EDGE_LOOP('',(#623,#624,#625,#626));
#623 = ORIENTED_EDGE('',*,*,#601,.F.);
#624 = ORIENTED_EDGE('',*,*,#502,.T.);
#625 = ORIENTED_EDGE('',*,*,#543,.T.);
#626 = ORIENTED_EDGE('',*,*,#627,.F.);
#627 = EDGE_CURVE('',#602,#544,#628,.T.);
#628 = LINE('',#629,#630);
#629 = CARTESIAN_POINT('',(-68.,9.5,0.));
#630 = VECTOR('',#631,1.);
#631 = DIRECTION('',(0.,0.,-1.));
#632 = PLANE('',#633);
#633 = AXIS2_PLACEMENT_3D('',#634,#635,#636);
#634 = CARTESIAN_POINT('',(-68.,4.75,-2.5));
#635 = DIRECTION('',(-1.,0.,0.));
#636 = DIRECTION('',(0.,0.,-1.));
#637 = ADVANCED_FACE('',(#638),#644,.F.);
#638 = FACE_BOUND('',#639,.F.);
#639 = EDGE_LOOP('',(#640,#641,#642,#643));
#640 = ORIENTED_EDGE('',*,*,#609,.T.);
#641 = ORIENTED_EDGE('',*,*,#627,.T.);
#642 = ORIENTED_EDGE('',*,*,#551,.F.);
#643 = ORIENTED_EDGE('',*,*,#525,.F.);
#644 = PLANE('',#645);
#645 = AXIS2_PLACEMENT_3D('',#646,#647,#648);
#646 = CARTESIAN_POINT('',(-67.,9.5,0.));
#647 = DIRECTION('',(0.,-1.,-0.));
#648 = DIRECTION('',(0.,0.,-1.));
#649 = ( GEOMETRIC_REPRESENTATION_CONTEXT(3) 
GLOBAL_UNCERTAINTY_ASSIGNED_CONTEXT((#653)) GLOBAL_UNIT_ASSIGNED_CONTEXT
((#650,#651,#652)) REPRESENTATION_CONTEXT('Context #1',
  '3D Context with UNIT and UNCERTAINTY') );
#650 = ( LENGTH_UNIT() NAMED_UNIT(*) SI_UNIT(.MILLI.,.METRE.) );
#651 = ( NAMED_UNIT(*) PLANE_ANGLE_UNIT() SI_UNIT($,.RADIAN.) );
#652 = ( NAMED_UNIT(*) SI_UNIT($,.STERADIAN.) SOLID_ANGLE_UNIT() );
#653 = UNCERTAINTY_MEASURE_WITH_UNIT(LENGTH_MEASURE(1.E-05),#650,
  'distance_accuracy_value','confusion accuracy');
#654 = PRODUCT_RELATED_PRODUCT_CATEGORY('part',$,(#7));
ENDSEC;
END-ISO-10303-21;
