ISO-10303-21;
HEADER;
FILE_DESCRIPTION(('FreeCAD Model'),'2;1');
FILE_NAME('Open CASCADE Shape Model','2026-08-28T13:04:07',('FreeCAD'),(
    'FreeCAD'),'Open CASCADE STEP processor 7.8','FreeCAD','Unknown');
FILE_SCHEMA(('AUTOMOTIVE_DESIGN { 1 0 10303 214 1 1 1 1 }'));
ENDSEC;
DATA;
#1 = APPLICATION_PROTOCOL_DEFINITION('international standard',
  'automotive_design',2000,#2);
#2 = APPLICATION_CONTEXT(
  'core data for automotive mechanical design processes');
#3 = SHAPE_DEFINITION_REPRESENTATION(#4,#10);
#4 = PRODUCT_DEFINITION_SHAPE('','',#5);
#5 = PRODUCT_DEFINITION('design','',#6,#9);
#6 = PRODUCT_DEFINITION_FORMATION('','',#7);
#7 = PRODUCT('Open CASCADE STEP translator 7.8 106',
  'Open CASCADE STEP translator 7.8 106','',(#8));
#8 = PRODUCT_CONTEXT('',#2,'mechanical');
#9 = PRODUCT_DEFINITION_CONTEXT('part definition',#2,'design');
#10 = ADVANCED_BREP_SHAPE_REPRESENTATION('',(#11,#15),#707);
#11 = AXIS2_PLACEMENT_3D('',#12,#13,#14);
#12 = CARTESIAN_POINT('',(0.,0.,0.));
#13 = DIRECTION('',(0.,0.,1.));
#14 = DIRECTION('',(1.,0.,-0.));
#15 = MANIFOLD_SOLID_BREP('',#16);
#16 = CLOSED_SHELL('',(#17,#125,#167,#192,#223,#247,#289,#314,#339,#374,
    #398,#429,#454,#489,#513,#543,#560,#584,#601,#625,#642,#666,#683,
    #695));
#17 = ADVANCED_FACE('',(#18),#120,.F.);
#18 = FACE_BOUND('',#19,.F.);
#19 = EDGE_LOOP('',(#20,#30,#39,#47,#56,#64,#72,#80,#89,#97,#106,#114));
#20 = ORIENTED_EDGE('',*,*,#21,.T.);
#21 = EDGE_CURVE('',#22,#24,#26,.T.);
#22 = VERTEX_POINT('',#23);
#23 = CARTESIAN_POINT('',(-3.75,-4.5,0.));
#24 = VERTEX_POINT('',#25);
#25 = CARTESIAN_POINT('',(-3.75,1.,0.));
#26 = LINE('',#27,#28);
#27 = CARTESIAN_POINT('',(-3.75,-4.5,0.));
#28 = VECTOR('',#29,1.);
#29 = DIRECTION('',(0.,1.,0.));
#30 = ORIENTED_EDGE('',*,*,#31,.T.);
#31 = EDGE_CURVE('',#24,#32,#34,.T.);
#32 = VERTEX_POINT('',#33);
#33 = CARTESIAN_POINT('',(-1.75,3.,0.));
#34 = CIRCLE('',#35,2.);
#35 = AXIS2_PLACEMENT_3D('',#36,#37,#38);
#36 = CARTESIAN_POINT('',(-1.75,1.,0.));
#37 = DIRECTION('',(-0.,-0.,-1.));
#38 = DIRECTION('',(0.,-1.,0.));
#39 = ORIENTED_EDGE('',*,*,#40,.T.);
#40 = EDGE_CURVE('',#32,#41,#43,.T.);
#41 = VERTEX_POINT('',#42);
#42 = CARTESIAN_POINT('',(1.75,3.,0.));
#43 = LINE('',#44,#45);
#44 = CARTESIAN_POINT('',(-3.75,3.,0.));
#45 = VECTOR('',#46,1.);
#46 = DIRECTION('',(1.,0.,0.));
#47 = ORIENTED_EDGE('',*,*,#48,.T.);
#48 = EDGE_CURVE('',#41,#49,#51,.T.);
#49 = VERTEX_POINT('',#50);
#50 = CARTESIAN_POINT('',(3.75,1.,0.));
#51 = CIRCLE('',#52,2.);
#52 = AXIS2_PLACEMENT_3D('',#53,#54,#55);
#53 = CARTESIAN_POINT('',(1.75,1.,0.));
#54 = DIRECTION('',(-0.,-0.,-1.));
#55 = DIRECTION('',(0.,-1.,0.));
#56 = ORIENTED_EDGE('',*,*,#57,.T.);
#57 = EDGE_CURVE('',#49,#58,#60,.T.);
#58 = VERTEX_POINT('',#59);
#59 = CARTESIAN_POINT('',(3.75,-4.5,0.));
#60 = LINE('',#61,#62);
#61 = CARTESIAN_POINT('',(3.75,3.,0.));
#62 = VECTOR('',#63,1.);
#63 = DIRECTION('',(0.,-1.,0.));
#64 = ORIENTED_EDGE('',*,*,#65,.T.);
#65 = EDGE_CURVE('',#58,#66,#68,.T.);
#66 = VERTEX_POINT('',#67);
#67 = CARTESIAN_POINT('',(6.75,-4.5,0.));
#68 = LINE('',#69,#70);
#69 = CARTESIAN_POINT('',(3.75,-4.5,0.));
#70 = VECTOR('',#71,1.);
#71 = DIRECTION('',(1.,0.,0.));
#72 = ORIENTED_EDGE('',*,*,#73,.T.);
#73 = EDGE_CURVE('',#66,#74,#76,.T.);
#74 = VERTEX_POINT('',#75);
#75 = CARTESIAN_POINT('',(6.75,1.5,0.));
#76 = LINE('',#77,#78);
#77 = CARTESIAN_POINT('',(6.75,-4.5,0.));
#78 = VECTOR('',#79,1.);
#79 = DIRECTION('',(0.,1.,0.));
#80 = ORIENTED_EDGE('',*,*,#81,.F.);
#81 = EDGE_CURVE('',#82,#74,#84,.T.);
#82 = VERTEX_POINT('',#83);
#83 = CARTESIAN_POINT('',(3.75,4.5,0.));
#84 = CIRCLE('',#85,3.);
#85 = AXIS2_PLACEMENT_3D('',#86,#87,#88);
#86 = CARTESIAN_POINT('',(3.75,1.5,0.));
#87 = DIRECTION('',(-0.,-0.,-1.));
#88 = DIRECTION('',(0.,-1.,0.));
#89 = ORIENTED_EDGE('',*,*,#90,.T.);
#90 = EDGE_CURVE('',#82,#91,#93,.T.);
#91 = VERTEX_POINT('',#92);
#92 = CARTESIAN_POINT('',(-3.75,4.5,0.));
#93 = LINE('',#94,#95);
#94 = CARTESIAN_POINT('',(6.75,4.5,0.));
#95 = VECTOR('',#96,1.);
#96 = DIRECTION('',(-1.,0.,0.));
#97 = ORIENTED_EDGE('',*,*,#98,.F.);
#98 = EDGE_CURVE('',#99,#91,#101,.T.);
#99 = VERTEX_POINT('',#100);
#100 = CARTESIAN_POINT('',(-6.75,1.5,0.));
#101 = CIRCLE('',#102,3.);
#102 = AXIS2_PLACEMENT_3D('',#103,#104,#105);
#103 = CARTESIAN_POINT('',(-3.75,1.5,0.));
#104 = DIRECTION('',(-0.,-0.,-1.));
#105 = DIRECTION('',(0.,-1.,0.));
#106 = ORIENTED_EDGE('',*,*,#107,.T.);
#107 = EDGE_CURVE('',#99,#108,#110,.T.);
#108 = VERTEX_POINT('',#109);
#109 = CARTESIAN_POINT('',(-6.75,-4.5,0.));
#110 = LINE('',#111,#112);
#111 = CARTESIAN_POINT('',(-6.75,4.5,0.));
#112 = VECTOR('',#113,1.);
#113 = DIRECTION('',(0.,-1.,0.));
#114 = ORIENTED_EDGE('',*,*,#115,.T.);
#115 = EDGE_CURVE('',#108,#22,#116,.T.);
#116 = LINE('',#117,#118);
#117 = CARTESIAN_POINT('',(-6.75,-4.5,0.));
#118 = VECTOR('',#119,1.);
#119 = DIRECTION('',(1.,0.,0.));
#120 = PLANE('',#121);
#121 = AXIS2_PLACEMENT_3D('',#122,#123,#124);
#122 = CARTESIAN_POINT('',(0.,0.75,0.));
#123 = DIRECTION('',(0.,0.,1.));
#124 = DIRECTION('',(1.,0.,0.));
#125 = ADVANCED_FACE('',(#126,#151),#162,.F.);
#126 = FACE_BOUND('',#127,.F.);
#127 = EDGE_LOOP('',(#128,#129,#137,#145));
#128 = ORIENTED_EDGE('',*,*,#21,.F.);
#129 = ORIENTED_EDGE('',*,*,#130,.T.);
#130 = EDGE_CURVE('',#22,#131,#133,.T.);
#131 = VERTEX_POINT('',#132);
#132 = CARTESIAN_POINT('',(-3.75,-4.5,6.));
#133 = LINE('',#134,#135);
#134 = CARTESIAN_POINT('',(-3.75,-4.5,0.));
#135 = VECTOR('',#136,1.);
#136 = DIRECTION('',(0.,0.,1.));
#137 = ORIENTED_EDGE('',*,*,#138,.T.);
#138 = EDGE_CURVE('',#131,#139,#141,.T.);
#139 = VERTEX_POINT('',#140);
#140 = CARTESIAN_POINT('',(-3.75,1.,6.));
#141 = LINE('',#142,#143);
#142 = CARTESIAN_POINT('',(-3.75,-4.5,6.));
#143 = VECTOR('',#144,1.);
#144 = DIRECTION('',(0.,1.,0.));
#145 = ORIENTED_EDGE('',*,*,#146,.F.);
#146 = EDGE_CURVE('',#24,#139,#147,.T.);
#147 = LINE('',#148,#149);
#148 = CARTESIAN_POINT('',(-3.75,1.,0.));
#149 = VECTOR('',#150,1.);
#150 = DIRECTION('',(0.,0.,1.));
#151 = FACE_BOUND('',#152,.F.);
#152 = EDGE_LOOP('',(#153));
#153 = ORIENTED_EDGE('',*,*,#154,.F.);
#154 = EDGE_CURVE('',#155,#155,#157,.T.);
#155 = VERTEX_POINT('',#156);
#156 = CARTESIAN_POINT('',(-3.75,-3.,3.));
#157 = CIRCLE('',#158,1.5);
#158 = AXIS2_PLACEMENT_3D('',#159,#160,#161);
#159 = CARTESIAN_POINT('',(-3.75,-1.5,3.));
#160 = DIRECTION('',(-1.,0.,0.));
#161 = DIRECTION('',(0.,-1.,0.));
#162 = PLANE('',#163);
#163 = AXIS2_PLACEMENT_3D('',#164,#165,#166);
#164 = CARTESIAN_POINT('',(-3.75,-4.5,0.));
#165 = DIRECTION('',(-1.,0.,0.));
#166 = DIRECTION('',(0.,1.,0.));
#167 = ADVANCED_FACE('',(#168),#187,.F.);
#168 = FACE_BOUND('',#169,.T.);
#169 = EDGE_LOOP('',(#170,#171,#179,#186));
#170 = ORIENTED_EDGE('',*,*,#31,.T.);
#171 = ORIENTED_EDGE('',*,*,#172,.T.);
#172 = EDGE_CURVE('',#32,#173,#175,.T.);
#173 = VERTEX_POINT('',#174);
#174 = CARTESIAN_POINT('',(-1.75,3.,6.));
#175 = LINE('',#176,#177);
#176 = CARTESIAN_POINT('',(-1.75,3.,0.));
#177 = VECTOR('',#178,1.);
#178 = DIRECTION('',(0.,0.,1.));
#179 = ORIENTED_EDGE('',*,*,#180,.F.);
#180 = EDGE_CURVE('',#139,#173,#181,.T.);
#181 = CIRCLE('',#182,2.);
#182 = AXIS2_PLACEMENT_3D('',#183,#184,#185);
#183 = CARTESIAN_POINT('',(-1.75,1.,6.));
#184 = DIRECTION('',(-0.,-0.,-1.));
#185 = DIRECTION('',(0.,-1.,0.));
#186 = ORIENTED_EDGE('',*,*,#146,.F.);
#187 = CYLINDRICAL_SURFACE('',#188,2.);
#188 = AXIS2_PLACEMENT_3D('',#189,#190,#191);
#189 = CARTESIAN_POINT('',(-1.75,1.,0.));
#190 = DIRECTION('',(0.,0.,1.));
#191 = DIRECTION('',(-1.,0.,0.));
#192 = ADVANCED_FACE('',(#193),#218,.F.);
#193 = FACE_BOUND('',#194,.F.);
#194 = EDGE_LOOP('',(#195,#203,#211,#217));
#195 = ORIENTED_EDGE('',*,*,#196,.T.);
#196 = EDGE_CURVE('',#108,#197,#199,.T.);
#197 = VERTEX_POINT('',#198);
#198 = CARTESIAN_POINT('',(-6.75,-6.,0.));
#199 = LINE('',#200,#201);
#200 = CARTESIAN_POINT('',(-6.75,-4.5,0.));
#201 = VECTOR('',#202,1.);
#202 = DIRECTION('',(0.,-1.,2.2E-16));
#203 = ORIENTED_EDGE('',*,*,#204,.T.);
#204 = EDGE_CURVE('',#197,#205,#207,.T.);
#205 = VERTEX_POINT('',#206);
#206 = CARTESIAN_POINT('',(-3.75,-6.,0.));
#207 = LINE('',#208,#209);
#208 = CARTESIAN_POINT('',(-6.75,-6.,0.));
#209 = VECTOR('',#210,1.);
#210 = DIRECTION('',(1.,0.,0.));
#211 = ORIENTED_EDGE('',*,*,#212,.F.);
#212 = EDGE_CURVE('',#22,#205,#213,.T.);
#213 = LINE('',#214,#215);
#214 = CARTESIAN_POINT('',(-3.75,-4.5,0.));
#215 = VECTOR('',#216,1.);
#216 = DIRECTION('',(0.,-1.,2.2E-16));
#217 = ORIENTED_EDGE('',*,*,#115,.F.);
#218 = PLANE('',#219);
#219 = AXIS2_PLACEMENT_3D('',#220,#221,#222);
#220 = CARTESIAN_POINT('',(-6.75,-4.5,0.));
#221 = DIRECTION('',(0.,2.2E-16,1.));
#222 = DIRECTION('',(1.,0.,0.));
#223 = ADVANCED_FACE('',(#224),#242,.F.);
#224 = FACE_BOUND('',#225,.F.);
#225 = EDGE_LOOP('',(#226,#227,#228,#236));
#226 = ORIENTED_EDGE('',*,*,#40,.F.);
#227 = ORIENTED_EDGE('',*,*,#172,.T.);
#228 = ORIENTED_EDGE('',*,*,#229,.T.);
#229 = EDGE_CURVE('',#173,#230,#232,.T.);
#230 = VERTEX_POINT('',#231);
#231 = CARTESIAN_POINT('',(1.75,3.,6.));
#232 = LINE('',#233,#234);
#233 = CARTESIAN_POINT('',(-3.75,3.,6.));
#234 = VECTOR('',#235,1.);
#235 = DIRECTION('',(1.,0.,0.));
#236 = ORIENTED_EDGE('',*,*,#237,.F.);
#237 = EDGE_CURVE('',#41,#230,#238,.T.);
#238 = LINE('',#239,#240);
#239 = CARTESIAN_POINT('',(1.75,3.,0.));
#240 = VECTOR('',#241,1.);
#241 = DIRECTION('',(0.,0.,1.));
#242 = PLANE('',#243);
#243 = AXIS2_PLACEMENT_3D('',#244,#245,#246);
#244 = CARTESIAN_POINT('',(-3.75,3.,0.));
#245 = DIRECTION('',(0.,1.,0.));
#246 = DIRECTION('',(1.,0.,0.));
#247 = ADVANCED_FACE('',(#248,#273),#284,.F.);
#248 = FACE_BOUND('',#249,.F.);
#249 = EDGE_LOOP('',(#250,#251,#259,#267));
#250 = ORIENTED_EDGE('',*,*,#107,.F.);
#251 = ORIENTED_EDGE('',*,*,#252,.T.);
#252 = EDGE_CURVE('',#99,#253,#255,.T.);
#253 = VERTEX_POINT('',#254);
#254 = CARTESIAN_POINT('',(-6.75,1.5,6.));
#255 = LINE('',#256,#257);
#256 = CARTESIAN_POINT('',(-6.75,1.5,0.));
#257 = VECTOR('',#258,1.);
#258 = DIRECTION('',(0.,0.,1.));
#259 = ORIENTED_EDGE('',*,*,#260,.T.);
#260 = EDGE_CURVE('',#253,#261,#263,.T.);
#261 = VERTEX_POINT('',#262);
#262 = CARTESIAN_POINT('',(-6.75,-4.5,6.));
#263 = LINE('',#264,#265);
#264 = CARTESIAN_POINT('',(-6.75,4.5,6.));
#265 = VECTOR('',#266,1.);
#266 = DIRECTION('',(0.,-1.,0.));
#267 = ORIENTED_EDGE('',*,*,#268,.F.);
#268 = EDGE_CURVE('',#108,#261,#269,.T.);
#269 = LINE('',#270,#271);
#270 = CARTESIAN_POINT('',(-6.75,-4.5,0.));
#271 = VECTOR('',#272,1.);
#272 = DIRECTION('',(0.,0.,1.));
#273 = FACE_BOUND('',#274,.F.);
#274 = EDGE_LOOP('',(#275));
#275 = ORIENTED_EDGE('',*,*,#276,.T.);
#276 = EDGE_CURVE('',#277,#277,#279,.T.);
#277 = VERTEX_POINT('',#278);
#278 = CARTESIAN_POINT('',(-6.75,-3.,3.));
#279 = CIRCLE('',#280,1.5);
#280 = AXIS2_PLACEMENT_3D('',#281,#282,#283);
#281 = CARTESIAN_POINT('',(-6.75,-1.5,3.));
#282 = DIRECTION('',(-1.,0.,0.));
#283 = DIRECTION('',(0.,-1.,0.));
#284 = PLANE('',#285);
#285 = AXIS2_PLACEMENT_3D('',#286,#287,#288);
#286 = CARTESIAN_POINT('',(-6.75,4.5,0.));
#287 = DIRECTION('',(1.,0.,0.));
#288 = DIRECTION('',(0.,-1.,0.));
#289 = ADVANCED_FACE('',(#290),#309,.F.);
#290 = FACE_BOUND('',#291,.T.);
#291 = EDGE_LOOP('',(#292,#293,#301,#308));
#292 = ORIENTED_EDGE('',*,*,#48,.T.);
#293 = ORIENTED_EDGE('',*,*,#294,.T.);
#294 = EDGE_CURVE('',#49,#295,#297,.T.);
#295 = VERTEX_POINT('',#296);
#296 = CARTESIAN_POINT('',(3.75,1.,6.));
#297 = LINE('',#298,#299);
#298 = CARTESIAN_POINT('',(3.75,1.,0.));
#299 = VECTOR('',#300,1.);
#300 = DIRECTION('',(0.,0.,1.));
#301 = ORIENTED_EDGE('',*,*,#302,.F.);
#302 = EDGE_CURVE('',#230,#295,#303,.T.);
#303 = CIRCLE('',#304,2.);
#304 = AXIS2_PLACEMENT_3D('',#305,#306,#307);
#305 = CARTESIAN_POINT('',(1.75,1.,6.));
#306 = DIRECTION('',(-0.,-0.,-1.));
#307 = DIRECTION('',(0.,-1.,0.));
#308 = ORIENTED_EDGE('',*,*,#237,.F.);
#309 = CYLINDRICAL_SURFACE('',#310,2.);
#310 = AXIS2_PLACEMENT_3D('',#311,#312,#313);
#311 = CARTESIAN_POINT('',(1.75,1.,0.));
#312 = DIRECTION('',(0.,0.,1.));
#313 = DIRECTION('',(0.,1.,0.));
#314 = ADVANCED_FACE('',(#315),#334,.T.);
#315 = FACE_BOUND('',#316,.F.);
#316 = EDGE_LOOP('',(#317,#318,#326,#333));
#317 = ORIENTED_EDGE('',*,*,#98,.T.);
#318 = ORIENTED_EDGE('',*,*,#319,.T.);
#319 = EDGE_CURVE('',#91,#320,#322,.T.);
#320 = VERTEX_POINT('',#321);
#321 = CARTESIAN_POINT('',(-3.75,4.5,6.));
#322 = LINE('',#323,#324);
#323 = CARTESIAN_POINT('',(-3.75,4.5,0.));
#324 = VECTOR('',#325,1.);
#325 = DIRECTION('',(0.,0.,1.));
#326 = ORIENTED_EDGE('',*,*,#327,.F.);
#327 = EDGE_CURVE('',#253,#320,#328,.T.);
#328 = CIRCLE('',#329,3.);
#329 = AXIS2_PLACEMENT_3D('',#330,#331,#332);
#330 = CARTESIAN_POINT('',(-3.75,1.5,6.));
#331 = DIRECTION('',(-0.,-0.,-1.));
#332 = DIRECTION('',(0.,-1.,0.));
#333 = ORIENTED_EDGE('',*,*,#252,.F.);
#334 = CYLINDRICAL_SURFACE('',#335,3.);
#335 = AXIS2_PLACEMENT_3D('',#336,#337,#338);
#336 = CARTESIAN_POINT('',(-3.75,1.5,0.));
#337 = DIRECTION('',(0.,0.,1.));
#338 = DIRECTION('',(-1.,0.,0.));
#339 = ADVANCED_FACE('',(#340,#358),#369,.F.);
#340 = FACE_BOUND('',#341,.F.);
#341 = EDGE_LOOP('',(#342,#343,#344,#352));
#342 = ORIENTED_EDGE('',*,*,#57,.F.);
#343 = ORIENTED_EDGE('',*,*,#294,.T.);
#344 = ORIENTED_EDGE('',*,*,#345,.T.);
#345 = EDGE_CURVE('',#295,#346,#348,.T.);
#346 = VERTEX_POINT('',#347);
#347 = CARTESIAN_POINT('',(3.75,-4.5,6.));
#348 = LINE('',#349,#350);
#349 = CARTESIAN_POINT('',(3.75,3.,6.));
#350 = VECTOR('',#351,1.);
#351 = DIRECTION('',(0.,-1.,0.));
#352 = ORIENTED_EDGE('',*,*,#353,.F.);
#353 = EDGE_CURVE('',#58,#346,#354,.T.);
#354 = LINE('',#355,#356);
#355 = CARTESIAN_POINT('',(3.75,-4.5,0.));
#356 = VECTOR('',#357,1.);
#357 = DIRECTION('',(0.,0.,1.));
#358 = FACE_BOUND('',#359,.F.);
#359 = EDGE_LOOP('',(#360));
#360 = ORIENTED_EDGE('',*,*,#361,.T.);
#361 = EDGE_CURVE('',#362,#362,#364,.T.);
#362 = VERTEX_POINT('',#363);
#363 = CARTESIAN_POINT('',(3.75,-3.,3.));
#364 = CIRCLE('',#365,1.5);
#365 = AXIS2_PLACEMENT_3D('',#366,#367,#368);
#366 = CARTESIAN_POINT('',(3.75,-1.5,3.));
#367 = DIRECTION('',(-1.,0.,0.));
#368 = DIRECTION('',(0.,-1.,0.));
#369 = PLANE('',#370);
#370 = AXIS2_PLACEMENT_3D('',#371,#372,#373);
#371 = CARTESIAN_POINT('',(3.75,3.,0.));
#372 = DIRECTION('',(1.,0.,0.));
#373 = DIRECTION('',(0.,-1.,0.));
#374 = ADVANCED_FACE('',(#375),#393,.F.);
#375 = FACE_BOUND('',#376,.F.);
#376 = EDGE_LOOP('',(#377,#378,#386,#392));
#377 = ORIENTED_EDGE('',*,*,#90,.F.);
#378 = ORIENTED_EDGE('',*,*,#379,.T.);
#379 = EDGE_CURVE('',#82,#380,#382,.T.);
#380 = VERTEX_POINT('',#381);
#381 = CARTESIAN_POINT('',(3.75,4.5,6.));
#382 = LINE('',#383,#384);
#383 = CARTESIAN_POINT('',(3.75,4.5,0.));
#384 = VECTOR('',#385,1.);
#385 = DIRECTION('',(0.,0.,1.));
#386 = ORIENTED_EDGE('',*,*,#387,.T.);
#387 = EDGE_CURVE('',#380,#320,#388,.T.);
#388 = LINE('',#389,#390);
#389 = CARTESIAN_POINT('',(6.75,4.5,6.));
#390 = VECTOR('',#391,1.);
#391 = DIRECTION('',(-1.,0.,0.));
#392 = ORIENTED_EDGE('',*,*,#319,.F.);
#393 = PLANE('',#394);
#394 = AXIS2_PLACEMENT_3D('',#395,#396,#397);
#395 = CARTESIAN_POINT('',(6.75,4.5,0.));
#396 = DIRECTION('',(0.,-1.,0.));
#397 = DIRECTION('',(-1.,0.,0.));
#398 = ADVANCED_FACE('',(#399),#424,.F.);
#399 = FACE_BOUND('',#400,.F.);
#400 = EDGE_LOOP('',(#401,#409,#417,#423));
#401 = ORIENTED_EDGE('',*,*,#402,.T.);
#402 = EDGE_CURVE('',#58,#403,#405,.T.);
#403 = VERTEX_POINT('',#404);
#404 = CARTESIAN_POINT('',(3.75,-6.,0.));
#405 = LINE('',#406,#407);
#406 = CARTESIAN_POINT('',(3.75,-4.5,0.));
#407 = VECTOR('',#408,1.);
#408 = DIRECTION('',(0.,-1.,2.2E-16));
#409 = ORIENTED_EDGE('',*,*,#410,.T.);
#410 = EDGE_CURVE('',#403,#411,#413,.T.);
#411 = VERTEX_POINT('',#412);
#412 = CARTESIAN_POINT('',(6.75,-6.,0.));
#413 = LINE('',#414,#415);
#414 = CARTESIAN_POINT('',(3.75,-6.,0.));
#415 = VECTOR('',#416,1.);
#416 = DIRECTION('',(1.,0.,0.));
#417 = ORIENTED_EDGE('',*,*,#418,.F.);
#418 = EDGE_CURVE('',#66,#411,#419,.T.);
#419 = LINE('',#420,#421);
#420 = CARTESIAN_POINT('',(6.75,-4.5,0.));
#421 = VECTOR('',#422,1.);
#422 = DIRECTION('',(0.,-1.,2.2E-16));
#423 = ORIENTED_EDGE('',*,*,#65,.F.);
#424 = PLANE('',#425);
#425 = AXIS2_PLACEMENT_3D('',#426,#427,#428);
#426 = CARTESIAN_POINT('',(3.75,-4.5,0.));
#427 = DIRECTION('',(0.,2.2E-16,1.));
#428 = DIRECTION('',(1.,0.,0.));
#429 = ADVANCED_FACE('',(#430),#449,.T.);
#430 = FACE_BOUND('',#431,.F.);
#431 = EDGE_LOOP('',(#432,#433,#441,#448));
#432 = ORIENTED_EDGE('',*,*,#81,.T.);
#433 = ORIENTED_EDGE('',*,*,#434,.T.);
#434 = EDGE_CURVE('',#74,#435,#437,.T.);
#435 = VERTEX_POINT('',#436);
#436 = CARTESIAN_POINT('',(6.75,1.5,6.));
#437 = LINE('',#438,#439);
#438 = CARTESIAN_POINT('',(6.75,1.5,0.));
#439 = VECTOR('',#440,1.);
#440 = DIRECTION('',(0.,0.,1.));
#441 = ORIENTED_EDGE('',*,*,#442,.F.);
#442 = EDGE_CURVE('',#380,#435,#443,.T.);
#443 = CIRCLE('',#444,3.);
#444 = AXIS2_PLACEMENT_3D('',#445,#446,#447);
#445 = CARTESIAN_POINT('',(3.75,1.5,6.));
#446 = DIRECTION('',(-0.,-0.,-1.));
#447 = DIRECTION('',(0.,-1.,0.));
#448 = ORIENTED_EDGE('',*,*,#379,.F.);
#449 = CYLINDRICAL_SURFACE('',#450,3.);
#450 = AXIS2_PLACEMENT_3D('',#451,#452,#453);
#451 = CARTESIAN_POINT('',(3.75,1.5,0.));
#452 = DIRECTION('',(0.,0.,1.));
#453 = DIRECTION('',(0.,1.,0.));
#454 = ADVANCED_FACE('',(#455,#473),#484,.F.);
#455 = FACE_BOUND('',#456,.F.);
#456 = EDGE_LOOP('',(#457,#458,#466,#472));
#457 = ORIENTED_EDGE('',*,*,#73,.F.);
#458 = ORIENTED_EDGE('',*,*,#459,.T.);
#459 = EDGE_CURVE('',#66,#460,#462,.T.);
#460 = VERTEX_POINT('',#461);
#461 = CARTESIAN_POINT('',(6.75,-4.5,6.));
#462 = LINE('',#463,#464);
#463 = CARTESIAN_POINT('',(6.75,-4.5,0.));
#464 = VECTOR('',#465,1.);
#465 = DIRECTION('',(0.,0.,1.));
#466 = ORIENTED_EDGE('',*,*,#467,.T.);
#467 = EDGE_CURVE('',#460,#435,#468,.T.);
#468 = LINE('',#469,#470);
#469 = CARTESIAN_POINT('',(6.75,-4.5,6.));
#470 = VECTOR('',#471,1.);
#471 = DIRECTION('',(0.,1.,0.));
#472 = ORIENTED_EDGE('',*,*,#434,.F.);
#473 = FACE_BOUND('',#474,.F.);
#474 = EDGE_LOOP('',(#475));
#475 = ORIENTED_EDGE('',*,*,#476,.F.);
#476 = EDGE_CURVE('',#477,#477,#479,.T.);
#477 = VERTEX_POINT('',#478);
#478 = CARTESIAN_POINT('',(6.75,-3.,3.));
#479 = CIRCLE('',#480,1.5);
#480 = AXIS2_PLACEMENT_3D('',#481,#482,#483);
#481 = CARTESIAN_POINT('',(6.75,-1.5,3.));
#482 = DIRECTION('',(-1.,0.,0.));
#483 = DIRECTION('',(0.,-1.,0.));
#484 = PLANE('',#485);
#485 = AXIS2_PLACEMENT_3D('',#486,#487,#488);
#486 = CARTESIAN_POINT('',(6.75,-4.5,0.));
#487 = DIRECTION('',(-1.,0.,0.));
#488 = DIRECTION('',(0.,1.,0.));
#489 = ADVANCED_FACE('',(#490),#508,.F.);
#490 = FACE_BOUND('',#491,.F.);
#491 = EDGE_LOOP('',(#492,#493,#501,#507));
#492 = ORIENTED_EDGE('',*,*,#212,.T.);
#493 = ORIENTED_EDGE('',*,*,#494,.T.);
#494 = EDGE_CURVE('',#205,#495,#497,.T.);
#495 = VERTEX_POINT('',#496);
#496 = CARTESIAN_POINT('',(-3.75,-6.,6.));
#497 = LINE('',#498,#499);
#498 = CARTESIAN_POINT('',(-3.75,-6.,0.));
#499 = VECTOR('',#500,1.);
#500 = DIRECTION('',(0.,0.,1.));
#501 = ORIENTED_EDGE('',*,*,#502,.F.);
#502 = EDGE_CURVE('',#131,#495,#503,.T.);
#503 = LINE('',#504,#505);
#504 = CARTESIAN_POINT('',(-3.75,-4.5,6.));
#505 = VECTOR('',#506,1.);
#506 = DIRECTION('',(0.,-1.,2.2E-16));
#507 = ORIENTED_EDGE('',*,*,#130,.F.);
#508 = PLANE('',#509);
#509 = AXIS2_PLACEMENT_3D('',#510,#511,#512);
#510 = CARTESIAN_POINT('',(-3.75,-4.5,0.));
#511 = DIRECTION('',(-1.,0.,0.));
#512 = DIRECTION('',(0.,2.2E-16,1.));
#513 = ADVANCED_FACE('',(#514),#538,.T.);
#514 = FACE_BOUND('',#515,.T.);
#515 = EDGE_LOOP('',(#516,#517,#518,#519,#520,#521,#527,#528,#529,#530,
    #531,#532));
#516 = ORIENTED_EDGE('',*,*,#138,.T.);
#517 = ORIENTED_EDGE('',*,*,#180,.T.);
#518 = ORIENTED_EDGE('',*,*,#229,.T.);
#519 = ORIENTED_EDGE('',*,*,#302,.T.);
#520 = ORIENTED_EDGE('',*,*,#345,.T.);
#521 = ORIENTED_EDGE('',*,*,#522,.T.);
#522 = EDGE_CURVE('',#346,#460,#523,.T.);
#523 = LINE('',#524,#525);
#524 = CARTESIAN_POINT('',(3.75,-4.5,6.));
#525 = VECTOR('',#526,1.);
#526 = DIRECTION('',(1.,0.,0.));
#527 = ORIENTED_EDGE('',*,*,#467,.T.);
#528 = ORIENTED_EDGE('',*,*,#442,.F.);
#529 = ORIENTED_EDGE('',*,*,#387,.T.);
#530 = ORIENTED_EDGE('',*,*,#327,.F.);
#531 = ORIENTED_EDGE('',*,*,#260,.T.);
#532 = ORIENTED_EDGE('',*,*,#533,.T.);
#533 = EDGE_CURVE('',#261,#131,#534,.T.);
#534 = LINE('',#535,#536);
#535 = CARTESIAN_POINT('',(-6.75,-4.5,6.));
#536 = VECTOR('',#537,1.);
#537 = DIRECTION('',(1.,0.,0.));
#538 = PLANE('',#539);
#539 = AXIS2_PLACEMENT_3D('',#540,#541,#542);
#540 = CARTESIAN_POINT('',(0.,0.75,6.));
#541 = DIRECTION('',(0.,0.,1.));
#542 = DIRECTION('',(1.,0.,0.));
#543 = ADVANCED_FACE('',(#544),#555,.F.);
#544 = FACE_BOUND('',#545,.F.);
#545 = EDGE_LOOP('',(#546,#547,#553,#554));
#546 = ORIENTED_EDGE('',*,*,#276,.F.);
#547 = ORIENTED_EDGE('',*,*,#548,.T.);
#548 = EDGE_CURVE('',#277,#155,#549,.T.);
#549 = LINE('',#550,#551);
#550 = CARTESIAN_POINT('',(-6.75,-3.,3.));
#551 = VECTOR('',#552,1.);
#552 = DIRECTION('',(1.,0.,0.));
#553 = ORIENTED_EDGE('',*,*,#154,.T.);
#554 = ORIENTED_EDGE('',*,*,#548,.F.);
#555 = CYLINDRICAL_SURFACE('',#556,1.5);
#556 = AXIS2_PLACEMENT_3D('',#557,#558,#559);
#557 = CARTESIAN_POINT('',(-6.75,-1.5,3.));
#558 = DIRECTION('',(-1.,0.,0.));
#559 = DIRECTION('',(0.,-1.,0.));
#560 = ADVANCED_FACE('',(#561),#579,.T.);
#561 = FACE_BOUND('',#562,.T.);
#562 = EDGE_LOOP('',(#563,#564,#572,#578));
#563 = ORIENTED_EDGE('',*,*,#196,.T.);
#564 = ORIENTED_EDGE('',*,*,#565,.T.);
#565 = EDGE_CURVE('',#197,#566,#568,.T.);
#566 = VERTEX_POINT('',#567);
#567 = CARTESIAN_POINT('',(-6.75,-6.,6.));
#568 = LINE('',#569,#570);
#569 = CARTESIAN_POINT('',(-6.75,-6.,0.));
#570 = VECTOR('',#571,1.);
#571 = DIRECTION('',(0.,0.,1.));
#572 = ORIENTED_EDGE('',*,*,#573,.F.);
#573 = EDGE_CURVE('',#261,#566,#574,.T.);
#574 = LINE('',#575,#576);
#575 = CARTESIAN_POINT('',(-6.75,-4.5,6.));
#576 = VECTOR('',#577,1.);
#577 = DIRECTION('',(0.,-1.,2.2E-16));
#578 = ORIENTED_EDGE('',*,*,#268,.F.);
#579 = PLANE('',#580);
#580 = AXIS2_PLACEMENT_3D('',#581,#582,#583);
#581 = CARTESIAN_POINT('',(-6.75,-4.5,0.));
#582 = DIRECTION('',(-1.,0.,0.));
#583 = DIRECTION('',(0.,2.2E-16,1.));
#584 = ADVANCED_FACE('',(#585),#596,.F.);
#585 = FACE_BOUND('',#586,.F.);
#586 = EDGE_LOOP('',(#587,#588,#589,#595));
#587 = ORIENTED_EDGE('',*,*,#204,.F.);
#588 = ORIENTED_EDGE('',*,*,#565,.T.);
#589 = ORIENTED_EDGE('',*,*,#590,.T.);
#590 = EDGE_CURVE('',#566,#495,#591,.T.);
#591 = LINE('',#592,#593);
#592 = CARTESIAN_POINT('',(-6.75,-6.,6.));
#593 = VECTOR('',#594,1.);
#594 = DIRECTION('',(1.,0.,0.));
#595 = ORIENTED_EDGE('',*,*,#494,.F.);
#596 = PLANE('',#597);
#597 = AXIS2_PLACEMENT_3D('',#598,#599,#600);
#598 = CARTESIAN_POINT('',(0.,-6.,3.));
#599 = DIRECTION('',(0.,1.,-3.E-16));
#600 = DIRECTION('',(0.,3.E-16,1.));
#601 = ADVANCED_FACE('',(#602),#620,.T.);
#602 = FACE_BOUND('',#603,.T.);
#603 = EDGE_LOOP('',(#604,#605,#613,#619));
#604 = ORIENTED_EDGE('',*,*,#402,.T.);
#605 = ORIENTED_EDGE('',*,*,#606,.T.);
#606 = EDGE_CURVE('',#403,#607,#609,.T.);
#607 = VERTEX_POINT('',#608);
#608 = CARTESIAN_POINT('',(3.75,-6.,6.));
#609 = LINE('',#610,#611);
#610 = CARTESIAN_POINT('',(3.75,-6.,0.));
#611 = VECTOR('',#612,1.);
#612 = DIRECTION('',(0.,0.,1.));
#613 = ORIENTED_EDGE('',*,*,#614,.F.);
#614 = EDGE_CURVE('',#346,#607,#615,.T.);
#615 = LINE('',#616,#617);
#616 = CARTESIAN_POINT('',(3.75,-4.5,6.));
#617 = VECTOR('',#618,1.);
#618 = DIRECTION('',(0.,-1.,2.2E-16));
#619 = ORIENTED_EDGE('',*,*,#353,.F.);
#620 = PLANE('',#621);
#621 = AXIS2_PLACEMENT_3D('',#622,#623,#624);
#622 = CARTESIAN_POINT('',(3.75,-4.5,0.));
#623 = DIRECTION('',(-1.,0.,0.));
#624 = DIRECTION('',(0.,2.2E-16,1.));
#625 = ADVANCED_FACE('',(#626),#637,.F.);
#626 = FACE_BOUND('',#627,.F.);
#627 = EDGE_LOOP('',(#628,#629,#635,#636));
#628 = ORIENTED_EDGE('',*,*,#361,.F.);
#629 = ORIENTED_EDGE('',*,*,#630,.T.);
#630 = EDGE_CURVE('',#362,#477,#631,.T.);
#631 = LINE('',#632,#633);
#632 = CARTESIAN_POINT('',(-6.75,-3.,3.));
#633 = VECTOR('',#634,1.);
#634 = DIRECTION('',(1.,0.,0.));
#635 = ORIENTED_EDGE('',*,*,#476,.T.);
#636 = ORIENTED_EDGE('',*,*,#630,.F.);
#637 = CYLINDRICAL_SURFACE('',#638,1.5);
#638 = AXIS2_PLACEMENT_3D('',#639,#640,#641);
#639 = CARTESIAN_POINT('',(-6.75,-1.5,3.));
#640 = DIRECTION('',(-1.,0.,0.));
#641 = DIRECTION('',(0.,-1.,0.));
#642 = ADVANCED_FACE('',(#643),#661,.F.);
#643 = FACE_BOUND('',#644,.F.);
#644 = EDGE_LOOP('',(#645,#646,#654,#660));
#645 = ORIENTED_EDGE('',*,*,#418,.T.);
#646 = ORIENTED_EDGE('',*,*,#647,.T.);
#647 = EDGE_CURVE('',#411,#648,#650,.T.);
#648 = VERTEX_POINT('',#649);
#649 = CARTESIAN_POINT('',(6.75,-6.,6.));
#650 = LINE('',#651,#652);
#651 = CARTESIAN_POINT('',(6.75,-6.,0.));
#652 = VECTOR('',#653,1.);
#653 = DIRECTION('',(0.,0.,1.));
#654 = ORIENTED_EDGE('',*,*,#655,.F.);
#655 = EDGE_CURVE('',#460,#648,#656,.T.);
#656 = LINE('',#657,#658);
#657 = CARTESIAN_POINT('',(6.75,-4.5,6.));
#658 = VECTOR('',#659,1.);
#659 = DIRECTION('',(0.,-1.,2.2E-16));
#660 = ORIENTED_EDGE('',*,*,#459,.F.);
#661 = PLANE('',#662);
#662 = AXIS2_PLACEMENT_3D('',#663,#664,#665);
#663 = CARTESIAN_POINT('',(6.75,-4.5,0.));
#664 = DIRECTION('',(-1.,0.,0.));
#665 = DIRECTION('',(0.,2.2E-16,1.));
#666 = ADVANCED_FACE('',(#667),#678,.F.);
#667 = FACE_BOUND('',#668,.F.);
#668 = EDGE_LOOP('',(#669,#670,#671,#677));
#669 = ORIENTED_EDGE('',*,*,#410,.F.);
#670 = ORIENTED_EDGE('',*,*,#606,.T.);
#671 = ORIENTED_EDGE('',*,*,#672,.T.);
#672 = EDGE_CURVE('',#607,#648,#673,.T.);
#673 = LINE('',#674,#675);
#674 = CARTESIAN_POINT('',(3.75,-6.,6.));
#675 = VECTOR('',#676,1.);
#676 = DIRECTION('',(1.,0.,0.));
#677 = ORIENTED_EDGE('',*,*,#647,.F.);
#678 = PLANE('',#679);
#679 = AXIS2_PLACEMENT_3D('',#680,#681,#682);
#680 = CARTESIAN_POINT('',(0.,-6.,3.));
#681 = DIRECTION('',(0.,1.,-3.E-16));
#682 = DIRECTION('',(0.,3.E-16,1.));
#683 = ADVANCED_FACE('',(#684),#690,.T.);
#684 = FACE_BOUND('',#685,.T.);
#685 = EDGE_LOOP('',(#686,#687,#688,#689));
#686 = ORIENTED_EDGE('',*,*,#573,.T.);
#687 = ORIENTED_EDGE('',*,*,#590,.T.);
#688 = ORIENTED_EDGE('',*,*,#502,.F.);
#689 = ORIENTED_EDGE('',*,*,#533,.F.);
#690 = PLANE('',#691);
#691 = AXIS2_PLACEMENT_3D('',#692,#693,#694);
#692 = CARTESIAN_POINT('',(-6.75,-4.5,6.));
#693 = DIRECTION('',(0.,2.2E-16,1.));
#694 = DIRECTION('',(1.,0.,0.));
#695 = ADVANCED_FACE('',(#696),#702,.T.);
#696 = FACE_BOUND('',#697,.T.);
#697 = EDGE_LOOP('',(#698,#699,#700,#701));
#698 = ORIENTED_EDGE('',*,*,#614,.T.);
#699 = ORIENTED_EDGE('',*,*,#672,.T.);
#700 = ORIENTED_EDGE('',*,*,#655,.F.);
#701 = ORIENTED_EDGE('',*,*,#522,.F.);
#702 = PLANE('',#703);
#703 = AXIS2_PLACEMENT_3D('',#704,#705,#706);
#704 = CARTESIAN_POINT('',(3.75,-4.5,6.));
#705 = DIRECTION('',(0.,2.2E-16,1.));
#706 = DIRECTION('',(1.,0.,0.));
#707 = ( GEOMETRIC_REPRESENTATION_CONTEXT(3) 
GLOBAL_UNCERTAINTY_ASSIGNED_CONTEXT((#711)) GLOBAL_UNIT_ASSIGNED_CONTEXT
((#708,#709,#710)) REPRESENTATION_CONTEXT('Context #1',
  '3D Context with UNIT and UNCERTAINTY') );
#708 = ( LENGTH_UNIT() NAMED_UNIT(*) SI_UNIT(.MILLI.,.METRE.) );
#709 = ( NAMED_UNIT(*) PLANE_ANGLE_UNIT() SI_UNIT($,.RADIAN.) );
#710 = ( NAMED_UNIT(*) SI_UNIT($,.STERADIAN.) SOLID_ANGLE_UNIT() );
#711 = UNCERTAINTY_MEASURE_WITH_UNIT(LENGTH_MEASURE(1.E-07),#708,
  'distance_accuracy_value','confusion accuracy');
#712 = PRODUCT_RELATED_PRODUCT_CATEGORY('part',$,(#7));
ENDSEC;
END-ISO-10303-21;
