ISO-10303-21;
HEADER;
FILE_DESCRIPTION(('FreeCAD Model'),'2;1');
FILE_NAME('Open CASCADE Shape Model','2026-08-28T13:04:06',('FreeCAD'),(
    'FreeCAD'),'Open CASCADE STEP processor 7.8','FreeCAD','Unknown');
FILE_SCHEMA(('AUTOMOTIVE_DESIGN { 1 0 10303 214 1 1 1 1 }'));
ENDSEC;
DATA;
#1 = APPLICATION_PROTOCOL_DEFINITION('international standard',
  'automotive_design',2000,#2);
#2 = APPLICATION_CONTEXT(
  'core data for automotive mechanical design processes');
#3 = SHAPE_DEFINITION_REPRESENTATION(#4,#10);
#4 = PRODUCT_DEFINITION_SHAPE('','',#5);
#5 = PRODUCT_DEFINITION('design','',#6,#9);
#6 = PRODUCT_DEFINITION_FORMATION('','',#7);
#7 = PRODUCT('Open CASCADE STEP translator 7.8 102',
  'Open CASCADE STEP translator 7.8 102','',(#8));
#8 = PRODUCT_CONTEXT('',#2,'mechanical');
#9 = PRODUCT_DEFINITION_CONTEXT('part definition',#2,'design');
#10 = ADVANCED_BREP_SHAPE_REPRESENTATION('',(#11,#15),#1232);
#11 = AXIS2_PLACEMENT_3D('',#12,#13,#14);
#12 = CARTESIAN_POINT('',(0.,0.,0.));
#13 = DIRECTION('',(0.,0.,1.));
#14 = DIRECTION('',(1.,0.,-0.));
#15 = MANIFOLD_SOLID_BREP('',#16);
#16 = CLOSED_SHELL('',(#17,#139,#170,#206,#231,#255,#286,#317,#348,#373,
    #408,#443,#460,#485,#538,#562,#580,#611,#644,#669,#701,#725,#741,
    #756,#787,#845,#871,#888,#986,#1012,#1029,#1068,#1085,#1119,#1136,
    #1148,#1160,#1184,#1208,#1220));
#17 = ADVANCED_FACE('',(#18),#134,.T.);
#18 = FACE_BOUND('',#19,.T.);
#19 = EDGE_LOOP('',(#20,#30,#39,#47,#55,#63,#72,#80,#88,#96,#104,#112,
    #120,#128));
#20 = ORIENTED_EDGE('',*,*,#21,.F.);
#21 = EDGE_CURVE('',#22,#24,#26,.T.);
#22 = VERTEX_POINT('',#23);
#23 = CARTESIAN_POINT('',(-129.7721794891,4.,13.));
#24 = VERTEX_POINT('',#25);
#25 = CARTESIAN_POINT('',(-84.78365649898,4.,13.));
#26 = LINE('',#27,#28);
#27 = CARTESIAN_POINT('',(-137.969948,4.,13.));
#28 = VECTOR('',#29,1.);
#29 = DIRECTION('',(1.,0.,0.));
#30 = ORIENTED_EDGE('',*,*,#31,.F.);
#31 = EDGE_CURVE('',#32,#22,#34,.T.);
#32 = VERTEX_POINT('',#33);
#33 = CARTESIAN_POINT('',(-144.6851668342,4.,8.297953151514));
#34 = CIRCLE('',#35,26.);
#35 = AXIS2_PLACEMENT_3D('',#36,#37,#38);
#36 = CARTESIAN_POINT('',(-129.7721794891,4.,-13.));
#37 = DIRECTION('',(0.,1.,0.));
#38 = DIRECTION('',(0.,0.,-1.));
#39 = ORIENTED_EDGE('',*,*,#40,.T.);
#40 = EDGE_CURVE('',#32,#41,#43,.T.);
#41 = VERTEX_POINT('',#42);
#42 = CARTESIAN_POINT('',(-160.969948,4.,-3.104773378823));
#43 = LINE('',#44,#45);
#44 = CARTESIAN_POINT('',(-137.969948,4.,13.));
#45 = VECTOR('',#46,1.);
#46 = DIRECTION('',(-0.819152044289,0.,-0.573576436351));
#47 = ORIENTED_EDGE('',*,*,#48,.F.);
#48 = EDGE_CURVE('',#49,#41,#51,.T.);
#49 = VERTEX_POINT('',#50);
#50 = CARTESIAN_POINT('',(-160.969948,4.,2.895226621177));
#51 = LINE('',#52,#53);
#52 = CARTESIAN_POINT('',(-160.969948,4.,6.986861649919));
#53 = VECTOR('',#54,1.);
#54 = DIRECTION('',(0.,0.,-1.));
#55 = ORIENTED_EDGE('',*,*,#56,.F.);
#56 = EDGE_CURVE('',#57,#49,#59,.T.);
#57 = VERTEX_POINT('',#58);
#58 = CARTESIAN_POINT('',(-145.2017221292,4.,13.936257240092));
#59 = LINE('',#60,#61);
#60 = CARTESIAN_POINT('',(-137.969948,4.,19.));
#61 = VECTOR('',#62,1.);
#62 = DIRECTION('',(-0.819152044289,0.,-0.573576436351));
#63 = ORIENTED_EDGE('',*,*,#64,.F.);
#64 = EDGE_CURVE('',#65,#57,#67,.T.);
#65 = VERTEX_POINT('',#66);
#66 = CARTESIAN_POINT('',(-129.1415819113,4.,19.));
#67 = CIRCLE('',#68,28.);
#68 = AXIS2_PLACEMENT_3D('',#69,#70,#71);
#69 = CARTESIAN_POINT('',(-129.1415819113,4.,-9.));
#70 = DIRECTION('',(0.,-1.,0.));
#71 = DIRECTION('',(0.,0.,-1.));
#72 = ORIENTED_EDGE('',*,*,#73,.T.);
#73 = EDGE_CURVE('',#65,#74,#76,.T.);
#74 = VERTEX_POINT('',#75);
#75 = CARTESIAN_POINT('',(-66.969948,4.,19.));
#76 = LINE('',#77,#78);
#77 = CARTESIAN_POINT('',(-137.969948,4.,19.));
#78 = VECTOR('',#79,1.);
#79 = DIRECTION('',(1.,0.,0.));
#80 = ORIENTED_EDGE('',*,*,#81,.T.);
#81 = EDGE_CURVE('',#74,#82,#84,.T.);
#82 = VERTEX_POINT('',#83);
#83 = CARTESIAN_POINT('',(-66.969948,4.,0.));
#84 = LINE('',#85,#86);
#85 = CARTESIAN_POINT('',(-66.969948,4.,13.));
#86 = VECTOR('',#87,1.);
#87 = DIRECTION('',(0.,0.,-1.));
#88 = ORIENTED_EDGE('',*,*,#89,.F.);
#89 = EDGE_CURVE('',#90,#82,#92,.T.);
#90 = VERTEX_POINT('',#91);
#91 = CARTESIAN_POINT('',(-74.969948,4.,0.));
#92 = LINE('',#93,#94);
#93 = CARTESIAN_POINT('',(-74.969948,4.,0.));
#94 = VECTOR('',#95,1.);
#95 = DIRECTION('',(1.,0.,0.));
#96 = ORIENTED_EDGE('',*,*,#97,.F.);
#97 = EDGE_CURVE('',#98,#90,#100,.T.);
#98 = VERTEX_POINT('',#99);
#99 = CARTESIAN_POINT('',(-74.969948,4.,3.186291501015));
#100 = LINE('',#101,#102);
#101 = CARTESIAN_POINT('',(-74.969948,4.,13.));
#102 = VECTOR('',#103,1.);
#103 = DIRECTION('',(0.,0.,-1.));
#104 = ORIENTED_EDGE('',*,*,#105,.F.);
#105 = EDGE_CURVE('',#106,#98,#108,.T.);
#106 = VERTEX_POINT('',#107);
#107 = CARTESIAN_POINT('',(-74.969948,4.,6.5));
#108 = LINE('',#109,#110);
#109 = CARTESIAN_POINT('',(-74.969948,4.,13.));
#110 = VECTOR('',#111,1.);
#111 = DIRECTION('',(0.,0.,-1.));
#112 = ORIENTED_EDGE('',*,*,#113,.F.);
#113 = EDGE_CURVE('',#114,#106,#116,.T.);
#114 = VERTEX_POINT('',#115);
#115 = CARTESIAN_POINT('',(-74.969948,4.,13.));
#116 = LINE('',#117,#118);
#117 = CARTESIAN_POINT('',(-74.969948,4.,13.));
#118 = VECTOR('',#119,1.);
#119 = DIRECTION('',(0.,0.,-1.));
#120 = ORIENTED_EDGE('',*,*,#121,.F.);
#121 = EDGE_CURVE('',#122,#114,#124,.T.);
#122 = VERTEX_POINT('',#123);
#123 = CARTESIAN_POINT('',(-81.469948,4.,13.));
#124 = LINE('',#125,#126);
#125 = CARTESIAN_POINT('',(-137.969948,4.,13.));
#126 = VECTOR('',#127,1.);
#127 = DIRECTION('',(1.,0.,0.));
#128 = ORIENTED_EDGE('',*,*,#129,.F.);
#129 = EDGE_CURVE('',#24,#122,#130,.T.);
#130 = LINE('',#131,#132);
#131 = CARTESIAN_POINT('',(-137.969948,4.,13.));
#132 = VECTOR('',#133,1.);
#133 = DIRECTION('',(1.,0.,0.));
#134 = PLANE('',#135);
#135 = AXIS2_PLACEMENT_3D('',#136,#137,#138);
#136 = CARTESIAN_POINT('',(-114.5528289167,4.,11.078496678661));
#137 = DIRECTION('',(0.,1.,0.));
#138 = DIRECTION('',(0.,0.,1.));
#139 = ADVANCED_FACE('',(#140),#165,.F.);
#140 = FACE_BOUND('',#141,.F.);
#141 = EDGE_LOOP('',(#142,#143,#151,#159));
#142 = ORIENTED_EDGE('',*,*,#21,.F.);
#143 = ORIENTED_EDGE('',*,*,#144,.T.);
#144 = EDGE_CURVE('',#22,#145,#147,.T.);
#145 = VERTEX_POINT('',#146);
#146 = CARTESIAN_POINT('',(-129.7721794891,-4.,13.));
#147 = LINE('',#148,#149);
#148 = CARTESIAN_POINT('',(-129.7721794891,4.,13.));
#149 = VECTOR('',#150,1.);
#150 = DIRECTION('',(0.,-1.,0.));
#151 = ORIENTED_EDGE('',*,*,#152,.F.);
#152 = EDGE_CURVE('',#153,#145,#155,.T.);
#153 = VERTEX_POINT('',#154);
#154 = CARTESIAN_POINT('',(-84.78365649898,-4.,13.));
#155 = LINE('',#156,#157);
#156 = CARTESIAN_POINT('',(-66.969948,-4.,13.));
#157 = VECTOR('',#158,1.);
#158 = DIRECTION('',(-1.,0.,0.));
#159 = ORIENTED_EDGE('',*,*,#160,.T.);
#160 = EDGE_CURVE('',#153,#24,#161,.T.);
#161 = LINE('',#162,#163);
#162 = CARTESIAN_POINT('',(-84.78365649898,-4.,13.));
#163 = VECTOR('',#164,1.);
#164 = DIRECTION('',(0.,1.,-2.2E-16));
#165 = PLANE('',#166);
#166 = AXIS2_PLACEMENT_3D('',#167,#168,#169);
#167 = CARTESIAN_POINT('',(-100.8020933399,0.,13.));
#168 = DIRECTION('',(0.,0.,1.));
#169 = DIRECTION('',(1.,0.,0.));
#170 = ADVANCED_FACE('',(#171),#201,.T.);
#171 = FACE_BOUND('',#172,.T.);
#172 = EDGE_LOOP('',(#173,#183,#190,#191,#192,#193,#194));
#173 = ORIENTED_EDGE('',*,*,#174,.F.);
#174 = EDGE_CURVE('',#175,#177,#179,.T.);
#175 = VERTEX_POINT('',#176);
#176 = CARTESIAN_POINT('',(-79.12680224949,4.,10.656854249492));
#177 = VERTEX_POINT('',#178);
#178 = CARTESIAN_POINT('',(-77.3130937505,4.,8.843145750508));
#179 = LINE('',#180,#181);
#180 = CARTESIAN_POINT('',(-81.469948,4.,13.));
#181 = VECTOR('',#182,1.);
#182 = DIRECTION('',(0.707106781187,0.,-0.707106781187));
#183 = ORIENTED_EDGE('',*,*,#184,.F.);
#184 = EDGE_CURVE('',#24,#175,#185,.T.);
#185 = CIRCLE('',#186,8.);
#186 = AXIS2_PLACEMENT_3D('',#187,#188,#189);
#187 = CARTESIAN_POINT('',(-84.78365649898,4.,5.));
#188 = DIRECTION('',(0.,1.,-2.2E-16));
#189 = DIRECTION('',(0.,2.2E-16,1.));
#190 = ORIENTED_EDGE('',*,*,#129,.T.);
#191 = ORIENTED_EDGE('',*,*,#121,.T.);
#192 = ORIENTED_EDGE('',*,*,#113,.T.);
#193 = ORIENTED_EDGE('',*,*,#105,.T.);
#194 = ORIENTED_EDGE('',*,*,#195,.T.);
#195 = EDGE_CURVE('',#98,#177,#196,.T.);
#196 = CIRCLE('',#197,8.);
#197 = AXIS2_PLACEMENT_3D('',#198,#199,#200);
#198 = CARTESIAN_POINT('',(-82.969948,4.,3.186291501015));
#199 = DIRECTION('',(0.,-1.,2.2E-16));
#200 = DIRECTION('',(0.,2.2E-16,1.));
#201 = PLANE('',#202);
#202 = AXIS2_PLACEMENT_3D('',#203,#204,#205);
#203 = CARTESIAN_POINT('',(-77.26804503885,4.,10.701902961144));
#204 = DIRECTION('',(0.,1.,-2.7E-16));
#205 = DIRECTION('',(0.,2.7E-16,1.));
#206 = ADVANCED_FACE('',(#207),#226,.F.);
#207 = FACE_BOUND('',#208,.T.);
#208 = EDGE_LOOP('',(#209,#210,#211,#220));
#209 = ORIENTED_EDGE('',*,*,#31,.T.);
#210 = ORIENTED_EDGE('',*,*,#144,.T.);
#211 = ORIENTED_EDGE('',*,*,#212,.F.);
#212 = EDGE_CURVE('',#213,#145,#215,.T.);
#213 = VERTEX_POINT('',#214);
#214 = CARTESIAN_POINT('',(-144.6851668342,-4.,8.297953151514));
#215 = CIRCLE('',#216,26.);
#216 = AXIS2_PLACEMENT_3D('',#217,#218,#219);
#217 = CARTESIAN_POINT('',(-129.7721794891,-4.,-13.));
#218 = DIRECTION('',(0.,1.,0.));
#219 = DIRECTION('',(0.,0.,-1.));
#220 = ORIENTED_EDGE('',*,*,#221,.F.);
#221 = EDGE_CURVE('',#32,#213,#222,.T.);
#222 = LINE('',#223,#224);
#223 = CARTESIAN_POINT('',(-144.6851668342,4.,8.297953151514));
#224 = VECTOR('',#225,1.);
#225 = DIRECTION('',(0.,-1.,0.));
#226 = CYLINDRICAL_SURFACE('',#227,26.);
#227 = AXIS2_PLACEMENT_3D('',#228,#229,#230);
#228 = CARTESIAN_POINT('',(-129.7721794891,4.,-13.));
#229 = DIRECTION('',(0.,-1.,0.));
#230 = DIRECTION('',(-0.573576436351,0.,0.819152044289));
#231 = ADVANCED_FACE('',(#232),#250,.T.);
#232 = FACE_BOUND('',#233,.T.);
#233 = EDGE_LOOP('',(#234,#235,#236,#244));
#234 = ORIENTED_EDGE('',*,*,#40,.F.);
#235 = ORIENTED_EDGE('',*,*,#221,.T.);
#236 = ORIENTED_EDGE('',*,*,#237,.T.);
#237 = EDGE_CURVE('',#213,#238,#240,.T.);
#238 = VERTEX_POINT('',#239);
#239 = CARTESIAN_POINT('',(-160.969948,-4.,-3.104773378823));
#240 = LINE('',#241,#242);
#241 = CARTESIAN_POINT('',(-137.969948,-4.,13.));
#242 = VECTOR('',#243,1.);
#243 = DIRECTION('',(-0.819152044289,0.,-0.573576436351));
#244 = ORIENTED_EDGE('',*,*,#245,.F.);
#245 = EDGE_CURVE('',#41,#238,#246,.T.);
#246 = LINE('',#247,#248);
#247 = CARTESIAN_POINT('',(-160.969948,12.,-3.104773378823));
#248 = VECTOR('',#249,1.);
#249 = DIRECTION('',(0.,-1.,2.2E-16));
#250 = PLANE('',#251);
#251 = AXIS2_PLACEMENT_3D('',#252,#253,#254);
#252 = CARTESIAN_POINT('',(-137.969948,4.,13.));
#253 = DIRECTION('',(0.573576436351,-1.8E-16,-0.819152044289));
#254 = DIRECTION('',(-0.819152044289,-1.3E-16,-0.573576436351));
#255 = ADVANCED_FACE('',(#256),#281,.T.);
#256 = FACE_BOUND('',#257,.T.);
#257 = EDGE_LOOP('',(#258,#266,#274,#280));
#258 = ORIENTED_EDGE('',*,*,#259,.F.);
#259 = EDGE_CURVE('',#260,#41,#262,.T.);
#260 = VERTEX_POINT('',#261);
#261 = CARTESIAN_POINT('',(-160.969948,9.,-3.104773378823));
#262 = LINE('',#263,#264);
#263 = CARTESIAN_POINT('',(-160.969948,12.,-3.104773378823));
#264 = VECTOR('',#265,1.);
#265 = DIRECTION('',(0.,-1.,2.2E-16));
#266 = ORIENTED_EDGE('',*,*,#267,.F.);
#267 = EDGE_CURVE('',#268,#260,#270,.T.);
#268 = VERTEX_POINT('',#269);
#269 = CARTESIAN_POINT('',(-160.969948,9.,2.895226621177));
#270 = LINE('',#271,#272);
#271 = CARTESIAN_POINT('',(-160.969948,9.,2.895226621177));
#272 = VECTOR('',#273,1.);
#273 = DIRECTION('',(0.,-2.2E-16,-1.));
#274 = ORIENTED_EDGE('',*,*,#275,.T.);
#275 = EDGE_CURVE('',#268,#49,#276,.T.);
#276 = LINE('',#277,#278);
#277 = CARTESIAN_POINT('',(-160.969948,12.,2.895226621177));
#278 = VECTOR('',#279,1.);
#279 = DIRECTION('',(0.,-1.,2.2E-16));
#280 = ORIENTED_EDGE('',*,*,#48,.T.);
#281 = PLANE('',#282);
#282 = AXIS2_PLACEMENT_3D('',#283,#284,#285);
#283 = CARTESIAN_POINT('',(-160.969948,12.,2.895226621177));
#284 = DIRECTION('',(1.,0.,0.));
#285 = DIRECTION('',(0.,-2.2E-16,-1.));
#286 = ADVANCED_FACE('',(#287),#312,.F.);
#287 = FACE_BOUND('',#288,.F.);
#288 = EDGE_LOOP('',(#289,#290,#298,#306));
#289 = ORIENTED_EDGE('',*,*,#56,.F.);
#290 = ORIENTED_EDGE('',*,*,#291,.T.);
#291 = EDGE_CURVE('',#57,#292,#294,.T.);
#292 = VERTEX_POINT('',#293);
#293 = CARTESIAN_POINT('',(-145.2017221292,-4.,13.936257240092));
#294 = LINE('',#295,#296);
#295 = CARTESIAN_POINT('',(-145.2017221292,4.,13.936257240092));
#296 = VECTOR('',#297,1.);
#297 = DIRECTION('',(0.,-1.,0.));
#298 = ORIENTED_EDGE('',*,*,#299,.T.);
#299 = EDGE_CURVE('',#292,#300,#302,.T.);
#300 = VERTEX_POINT('',#301);
#301 = CARTESIAN_POINT('',(-160.969948,-4.,2.895226621177));
#302 = LINE('',#303,#304);
#303 = CARTESIAN_POINT('',(-137.969948,-4.,19.));
#304 = VECTOR('',#305,1.);
#305 = DIRECTION('',(-0.819152044289,0.,-0.573576436351));
#306 = ORIENTED_EDGE('',*,*,#307,.F.);
#307 = EDGE_CURVE('',#49,#300,#308,.T.);
#308 = LINE('',#309,#310);
#309 = CARTESIAN_POINT('',(-160.969948,12.,2.895226621177));
#310 = VECTOR('',#311,1.);
#311 = DIRECTION('',(0.,-1.,2.2E-16));
#312 = PLANE('',#313);
#313 = AXIS2_PLACEMENT_3D('',#314,#315,#316);
#314 = CARTESIAN_POINT('',(-137.969948,4.,19.));
#315 = DIRECTION('',(0.573576436351,-1.8E-16,-0.819152044289));
#316 = DIRECTION('',(-0.819152044289,-1.3E-16,-0.573576436351));
#317 = ADVANCED_FACE('',(#318),#343,.F.);
#318 = FACE_BOUND('',#319,.F.);
#319 = EDGE_LOOP('',(#320,#321,#329,#337));
#320 = ORIENTED_EDGE('',*,*,#97,.F.);
#321 = ORIENTED_EDGE('',*,*,#322,.F.);
#322 = EDGE_CURVE('',#323,#98,#325,.T.);
#323 = VERTEX_POINT('',#324);
#324 = CARTESIAN_POINT('',(-74.969948,-4.,3.186291501015));
#325 = LINE('',#326,#327);
#326 = CARTESIAN_POINT('',(-74.969948,-4.,3.186291501015));
#327 = VECTOR('',#328,1.);
#328 = DIRECTION('',(0.,1.,-2.2E-16));
#329 = ORIENTED_EDGE('',*,*,#330,.T.);
#330 = EDGE_CURVE('',#323,#331,#333,.T.);
#331 = VERTEX_POINT('',#332);
#332 = CARTESIAN_POINT('',(-74.969948,-4.,0.));
#333 = LINE('',#334,#335);
#334 = CARTESIAN_POINT('',(-74.969948,-4.,13.));
#335 = VECTOR('',#336,1.);
#336 = DIRECTION('',(0.,0.,-1.));
#337 = ORIENTED_EDGE('',*,*,#338,.T.);
#338 = EDGE_CURVE('',#331,#90,#339,.T.);
#339 = LINE('',#340,#341);
#340 = CARTESIAN_POINT('',(-74.969948,-4.,0.));
#341 = VECTOR('',#342,1.);
#342 = DIRECTION('',(0.,1.,0.));
#343 = PLANE('',#344);
#344 = AXIS2_PLACEMENT_3D('',#345,#346,#347);
#345 = CARTESIAN_POINT('',(-74.969948,-4.,13.));
#346 = DIRECTION('',(1.,0.,0.));
#347 = DIRECTION('',(0.,1.,0.));
#348 = ADVANCED_FACE('',(#349),#368,.T.);
#349 = FACE_BOUND('',#350,.T.);
#350 = EDGE_LOOP('',(#351,#352,#353,#362));
#351 = ORIENTED_EDGE('',*,*,#64,.T.);
#352 = ORIENTED_EDGE('',*,*,#291,.T.);
#353 = ORIENTED_EDGE('',*,*,#354,.F.);
#354 = EDGE_CURVE('',#355,#292,#357,.T.);
#355 = VERTEX_POINT('',#356);
#356 = CARTESIAN_POINT('',(-129.1415819113,-4.,19.));
#357 = CIRCLE('',#358,28.);
#358 = AXIS2_PLACEMENT_3D('',#359,#360,#361);
#359 = CARTESIAN_POINT('',(-129.1415819113,-4.,-9.));
#360 = DIRECTION('',(0.,-1.,0.));
#361 = DIRECTION('',(0.,0.,-1.));
#362 = ORIENTED_EDGE('',*,*,#363,.F.);
#363 = EDGE_CURVE('',#65,#355,#364,.T.);
#364 = LINE('',#365,#366);
#365 = CARTESIAN_POINT('',(-129.1415819113,4.,19.));
#366 = VECTOR('',#367,1.);
#367 = DIRECTION('',(0.,-1.,0.));
#368 = CYLINDRICAL_SURFACE('',#369,28.);
#369 = AXIS2_PLACEMENT_3D('',#370,#371,#372);
#370 = CARTESIAN_POINT('',(-129.1415819113,4.,-9.));
#371 = DIRECTION('',(0.,-1.,0.));
#372 = DIRECTION('',(0.,0.,1.));
#373 = ADVANCED_FACE('',(#374,#392),#403,.F.);
#374 = FACE_BOUND('',#375,.T.);
#375 = EDGE_LOOP('',(#376,#384,#385,#386));
#376 = ORIENTED_EDGE('',*,*,#377,.T.);
#377 = EDGE_CURVE('',#378,#331,#380,.T.);
#378 = VERTEX_POINT('',#379);
#379 = CARTESIAN_POINT('',(-66.969948,-4.,0.));
#380 = LINE('',#381,#382);
#381 = CARTESIAN_POINT('',(-66.969948,-4.,0.));
#382 = VECTOR('',#383,1.);
#383 = DIRECTION('',(-1.,0.,0.));
#384 = ORIENTED_EDGE('',*,*,#338,.T.);
#385 = ORIENTED_EDGE('',*,*,#89,.T.);
#386 = ORIENTED_EDGE('',*,*,#387,.T.);
#387 = EDGE_CURVE('',#82,#378,#388,.T.);
#388 = LINE('',#389,#390);
#389 = CARTESIAN_POINT('',(-66.969948,4.,0.));
#390 = VECTOR('',#391,1.);
#391 = DIRECTION('',(0.,-1.,0.));
#392 = FACE_BOUND('',#393,.F.);
#393 = EDGE_LOOP('',(#394));
#394 = ORIENTED_EDGE('',*,*,#395,.T.);
#395 = EDGE_CURVE('',#396,#396,#398,.T.);
#396 = VERTEX_POINT('',#397);
#397 = CARTESIAN_POINT('',(-69.269948,0.,0.));
#398 = CIRCLE('',#399,1.7);
#399 = AXIS2_PLACEMENT_3D('',#400,#401,#402);
#400 = CARTESIAN_POINT('',(-70.969948,0.,0.));
#401 = DIRECTION('',(0.,0.,-1.));
#402 = DIRECTION('',(1.,0.,0.));
#403 = PLANE('',#404);
#404 = AXIS2_PLACEMENT_3D('',#405,#406,#407);
#405 = CARTESIAN_POINT('',(-70.969948,-1.E-17,0.));
#406 = DIRECTION('',(0.,0.,1.));
#407 = DIRECTION('',(1.,0.,0.));
#408 = ADVANCED_FACE('',(#409,#427),#438,.T.);
#409 = FACE_BOUND('',#410,.T.);
#410 = EDGE_LOOP('',(#411,#412,#413,#421));
#411 = ORIENTED_EDGE('',*,*,#73,.F.);
#412 = ORIENTED_EDGE('',*,*,#363,.T.);
#413 = ORIENTED_EDGE('',*,*,#414,.F.);
#414 = EDGE_CURVE('',#415,#355,#417,.T.);
#415 = VERTEX_POINT('',#416);
#416 = CARTESIAN_POINT('',(-66.969948,-4.,19.));
#417 = LINE('',#418,#419);
#418 = CARTESIAN_POINT('',(-66.969948,-4.,19.));
#419 = VECTOR('',#420,1.);
#420 = DIRECTION('',(-1.,0.,0.));
#421 = ORIENTED_EDGE('',*,*,#422,.F.);
#422 = EDGE_CURVE('',#74,#415,#423,.T.);
#423 = LINE('',#424,#425);
#424 = CARTESIAN_POINT('',(-66.969948,4.,19.));
#425 = VECTOR('',#426,1.);
#426 = DIRECTION('',(0.,-1.,0.));
#427 = FACE_BOUND('',#428,.F.);
#428 = EDGE_LOOP('',(#429));
#429 = ORIENTED_EDGE('',*,*,#430,.T.);
#430 = EDGE_CURVE('',#431,#431,#433,.T.);
#431 = VERTEX_POINT('',#432);
#432 = CARTESIAN_POINT('',(-69.269948,0.,19.));
#433 = CIRCLE('',#434,1.7);
#434 = AXIS2_PLACEMENT_3D('',#435,#436,#437);
#435 = CARTESIAN_POINT('',(-70.969948,0.,19.));
#436 = DIRECTION('',(0.,0.,1.));
#437 = DIRECTION('',(1.,0.,0.));
#438 = PLANE('',#439);
#439 = AXIS2_PLACEMENT_3D('',#440,#441,#442);
#440 = CARTESIAN_POINT('',(-100.8020933399,0.,19.));
#441 = DIRECTION('',(0.,0.,1.));
#442 = DIRECTION('',(1.,0.,0.));
#443 = ADVANCED_FACE('',(#444),#455,.T.);
#444 = FACE_BOUND('',#445,.T.);
#445 = EDGE_LOOP('',(#446,#447,#453,#454));
#446 = ORIENTED_EDGE('',*,*,#422,.T.);
#447 = ORIENTED_EDGE('',*,*,#448,.F.);
#448 = EDGE_CURVE('',#378,#415,#449,.T.);
#449 = LINE('',#450,#451);
#450 = CARTESIAN_POINT('',(-66.969948,-4.,13.));
#451 = VECTOR('',#452,1.);
#452 = DIRECTION('',(0.,0.,1.));
#453 = ORIENTED_EDGE('',*,*,#387,.F.);
#454 = ORIENTED_EDGE('',*,*,#81,.F.);
#455 = PLANE('',#456);
#456 = AXIS2_PLACEMENT_3D('',#457,#458,#459);
#457 = CARTESIAN_POINT('',(-66.969948,0.,9.5));
#458 = DIRECTION('',(1.,0.,0.));
#459 = DIRECTION('',(0.,0.,1.));
#460 = ADVANCED_FACE('',(#461),#480,.F.);
#461 = FACE_BOUND('',#462,.F.);
#462 = EDGE_LOOP('',(#463,#472,#478,#479));
#463 = ORIENTED_EDGE('',*,*,#464,.T.);
#464 = EDGE_CURVE('',#153,#465,#467,.T.);
#465 = VERTEX_POINT('',#466);
#466 = CARTESIAN_POINT('',(-79.12680224949,-4.,10.656854249492));
#467 = CIRCLE('',#468,8.);
#468 = AXIS2_PLACEMENT_3D('',#469,#470,#471);
#469 = CARTESIAN_POINT('',(-84.78365649898,-4.,5.));
#470 = DIRECTION('',(0.,1.,-2.2E-16));
#471 = DIRECTION('',(0.,2.2E-16,1.));
#472 = ORIENTED_EDGE('',*,*,#473,.T.);
#473 = EDGE_CURVE('',#465,#175,#474,.T.);
#474 = LINE('',#475,#476);
#475 = CARTESIAN_POINT('',(-79.12680224949,-4.,10.656854249492));
#476 = VECTOR('',#477,1.);
#477 = DIRECTION('',(0.,1.,-2.2E-16));
#478 = ORIENTED_EDGE('',*,*,#184,.F.);
#479 = ORIENTED_EDGE('',*,*,#160,.F.);
#480 = CYLINDRICAL_SURFACE('',#481,8.);
#481 = AXIS2_PLACEMENT_3D('',#482,#483,#484);
#482 = CARTESIAN_POINT('',(-84.78365649898,-4.,5.));
#483 = DIRECTION('',(0.,1.,-2.2E-16));
#484 = DIRECTION('',(0.,2.2E-16,1.));
#485 = ADVANCED_FACE('',(#486),#533,.T.);
#486 = FACE_BOUND('',#487,.T.);
#487 = EDGE_LOOP('',(#488,#489,#497,#505,#513,#519,#520,#521,#522,#523,
    #524,#525,#531,#532));
#488 = ORIENTED_EDGE('',*,*,#152,.F.);
#489 = ORIENTED_EDGE('',*,*,#490,.F.);
#490 = EDGE_CURVE('',#491,#153,#493,.T.);
#491 = VERTEX_POINT('',#492);
#492 = CARTESIAN_POINT('',(-81.469948,-4.,13.));
#493 = LINE('',#494,#495);
#494 = CARTESIAN_POINT('',(-66.969948,-4.,13.));
#495 = VECTOR('',#496,1.);
#496 = DIRECTION('',(-1.,0.,0.));
#497 = ORIENTED_EDGE('',*,*,#498,.F.);
#498 = EDGE_CURVE('',#499,#491,#501,.T.);
#499 = VERTEX_POINT('',#500);
#500 = CARTESIAN_POINT('',(-74.969948,-4.,13.));
#501 = LINE('',#502,#503);
#502 = CARTESIAN_POINT('',(-66.969948,-4.,13.));
#503 = VECTOR('',#504,1.);
#504 = DIRECTION('',(-1.,0.,0.));
#505 = ORIENTED_EDGE('',*,*,#506,.T.);
#506 = EDGE_CURVE('',#499,#507,#509,.T.);
#507 = VERTEX_POINT('',#508);
#508 = CARTESIAN_POINT('',(-74.969948,-4.,6.5));
#509 = LINE('',#510,#511);
#510 = CARTESIAN_POINT('',(-74.969948,-4.,13.));
#511 = VECTOR('',#512,1.);
#512 = DIRECTION('',(0.,0.,-1.));
#513 = ORIENTED_EDGE('',*,*,#514,.T.);
#514 = EDGE_CURVE('',#507,#323,#515,.T.);
#515 = LINE('',#516,#517);
#516 = CARTESIAN_POINT('',(-74.969948,-4.,13.));
#517 = VECTOR('',#518,1.);
#518 = DIRECTION('',(0.,0.,-1.));
#519 = ORIENTED_EDGE('',*,*,#330,.T.);
#520 = ORIENTED_EDGE('',*,*,#377,.F.);
#521 = ORIENTED_EDGE('',*,*,#448,.T.);
#522 = ORIENTED_EDGE('',*,*,#414,.T.);
#523 = ORIENTED_EDGE('',*,*,#354,.T.);
#524 = ORIENTED_EDGE('',*,*,#299,.T.);
#525 = ORIENTED_EDGE('',*,*,#526,.F.);
#526 = EDGE_CURVE('',#238,#300,#527,.T.);
#527 = LINE('',#528,#529);
#528 = CARTESIAN_POINT('',(-160.969948,-4.,6.986861649919));
#529 = VECTOR('',#530,1.);
#530 = DIRECTION('',(0.,0.,1.));
#531 = ORIENTED_EDGE('',*,*,#237,.F.);
#532 = ORIENTED_EDGE('',*,*,#212,.T.);
#533 = PLANE('',#534);
#534 = AXIS2_PLACEMENT_3D('',#535,#536,#537);
#535 = CARTESIAN_POINT('',(-114.5528289167,-4.,11.078496678661));
#536 = DIRECTION('',(-0.,-1.,-0.));
#537 = DIRECTION('',(0.,0.,-1.));
#538 = ADVANCED_FACE('',(#539),#557,.T.);
#539 = FACE_BOUND('',#540,.T.);
#540 = EDGE_LOOP('',(#541,#549,#550,#551));
#541 = ORIENTED_EDGE('',*,*,#542,.F.);
#542 = EDGE_CURVE('',#465,#543,#545,.T.);
#543 = VERTEX_POINT('',#544);
#544 = CARTESIAN_POINT('',(-77.3130937505,-4.,8.843145750508));
#545 = LINE('',#546,#547);
#546 = CARTESIAN_POINT('',(-81.469948,-4.,13.));
#547 = VECTOR('',#548,1.);
#548 = DIRECTION('',(0.707106781187,0.,-0.707106781187));
#549 = ORIENTED_EDGE('',*,*,#473,.T.);
#550 = ORIENTED_EDGE('',*,*,#174,.T.);
#551 = ORIENTED_EDGE('',*,*,#552,.F.);
#552 = EDGE_CURVE('',#543,#177,#553,.T.);
#553 = LINE('',#554,#555);
#554 = CARTESIAN_POINT('',(-77.3130937505,-4.,8.843145750508));
#555 = VECTOR('',#556,1.);
#556 = DIRECTION('',(0.,1.,-2.2E-16));
#557 = PLANE('',#558);
#558 = AXIS2_PLACEMENT_3D('',#559,#560,#561);
#559 = CARTESIAN_POINT('',(-81.469948,-4.,13.));
#560 = DIRECTION('',(-0.707106781187,-1.6E-16,-0.707106781187));
#561 = DIRECTION('',(0.707106781187,-1.6E-16,-0.707106781187));
#562 = ADVANCED_FACE('',(#563),#575,.F.);
#563 = FACE_BOUND('',#564,.T.);
#564 = EDGE_LOOP('',(#565,#572,#573,#574));
#565 = ORIENTED_EDGE('',*,*,#566,.T.);
#566 = EDGE_CURVE('',#323,#543,#567,.T.);
#567 = CIRCLE('',#568,8.);
#568 = AXIS2_PLACEMENT_3D('',#569,#570,#571);
#569 = CARTESIAN_POINT('',(-82.969948,-4.,3.186291501015));
#570 = DIRECTION('',(0.,-1.,2.2E-16));
#571 = DIRECTION('',(0.,2.2E-16,1.));
#572 = ORIENTED_EDGE('',*,*,#552,.T.);
#573 = ORIENTED_EDGE('',*,*,#195,.F.);
#574 = ORIENTED_EDGE('',*,*,#322,.F.);
#575 = CYLINDRICAL_SURFACE('',#576,8.);
#576 = AXIS2_PLACEMENT_3D('',#577,#578,#579);
#577 = CARTESIAN_POINT('',(-82.969948,-4.,3.186291501015));
#578 = DIRECTION('',(0.,1.,-2.2E-16));
#579 = DIRECTION('',(1.,0.,0.));
#580 = ADVANCED_FACE('',(#581),#606,.T.);
#581 = FACE_BOUND('',#582,.T.);
#582 = EDGE_LOOP('',(#583,#591,#592,#600));
#583 = ORIENTED_EDGE('',*,*,#584,.F.);
#584 = EDGE_CURVE('',#41,#585,#587,.T.);
#585 = VERTEX_POINT('',#586);
#586 = CARTESIAN_POINT('',(-167.969948,4.,-8.006226146291));
#587 = LINE('',#588,#589);
#588 = CARTESIAN_POINT('',(-137.969948,4.,13.));
#589 = VECTOR('',#590,1.);
#590 = DIRECTION('',(-0.819152044289,0.,-0.573576436351));
#591 = ORIENTED_EDGE('',*,*,#245,.T.);
#592 = ORIENTED_EDGE('',*,*,#593,.T.);
#593 = EDGE_CURVE('',#238,#594,#596,.T.);
#594 = VERTEX_POINT('',#595);
#595 = CARTESIAN_POINT('',(-167.969948,-4.,-8.006226146291));
#596 = LINE('',#597,#598);
#597 = CARTESIAN_POINT('',(-137.969948,-4.,13.));
#598 = VECTOR('',#599,1.);
#599 = DIRECTION('',(-0.819152044289,0.,-0.573576436351));
#600 = ORIENTED_EDGE('',*,*,#601,.F.);
#601 = EDGE_CURVE('',#585,#594,#602,.T.);
#602 = LINE('',#603,#604);
#603 = CARTESIAN_POINT('',(-167.969948,4.,-8.006226146291));
#604 = VECTOR('',#605,1.);
#605 = DIRECTION('',(0.,-1.,2.2E-16));
#606 = PLANE('',#607);
#607 = AXIS2_PLACEMENT_3D('',#608,#609,#610);
#608 = CARTESIAN_POINT('',(-137.969948,4.,13.));
#609 = DIRECTION('',(0.573576436351,-1.8E-16,-0.819152044289));
#610 = DIRECTION('',(-0.819152044289,-1.3E-16,-0.573576436351));
#611 = ADVANCED_FACE('',(#612),#639,.T.);
#612 = FACE_BOUND('',#613,.T.);
#613 = EDGE_LOOP('',(#614,#624,#631,#632,#633));
#614 = ORIENTED_EDGE('',*,*,#615,.F.);
#615 = EDGE_CURVE('',#616,#618,#620,.T.);
#616 = VERTEX_POINT('',#617);
#617 = CARTESIAN_POINT('',(-163.969948,12.,-5.205395993452));
#618 = VERTEX_POINT('',#619);
#619 = CARTESIAN_POINT('',(-167.969948,12.,-8.006226146291));
#620 = LINE('',#621,#622);
#621 = CARTESIAN_POINT('',(-160.969948,12.,-3.104773378823));
#622 = VECTOR('',#623,1.);
#623 = DIRECTION('',(-0.819152044289,-0.,-0.573576436351));
#624 = ORIENTED_EDGE('',*,*,#625,.F.);
#625 = EDGE_CURVE('',#260,#616,#626,.T.);
#626 = ELLIPSE('',#627,3.662323766284,3.);
#627 = AXIS2_PLACEMENT_3D('',#628,#629,#630);
#628 = CARTESIAN_POINT('',(-163.969948,9.,-5.205395993452));
#629 = DIRECTION('',(-0.573576436351,1.8E-16,0.819152044289));
#630 = DIRECTION('',(-0.819152044289,-1.3E-16,-0.573576436351));
#631 = ORIENTED_EDGE('',*,*,#259,.T.);
#632 = ORIENTED_EDGE('',*,*,#584,.T.);
#633 = ORIENTED_EDGE('',*,*,#634,.F.);
#634 = EDGE_CURVE('',#618,#585,#635,.T.);
#635 = LINE('',#636,#637);
#636 = CARTESIAN_POINT('',(-167.969948,4.,-8.006226146291));
#637 = VECTOR('',#638,1.);
#638 = DIRECTION('',(0.,-1.,0.));
#639 = PLANE('',#640);
#640 = AXIS2_PLACEMENT_3D('',#641,#642,#643);
#641 = CARTESIAN_POINT('',(-160.969948,12.,-3.104773378823));
#642 = DIRECTION('',(0.573576436351,-1.8E-16,-0.819152044289));
#643 = DIRECTION('',(-0.819152044289,-1.3E-16,-0.573576436351));
#644 = ADVANCED_FACE('',(#645),#664,.T.);
#645 = FACE_BOUND('',#646,.F.);
#646 = EDGE_LOOP('',(#647,#656,#662,#663));
#647 = ORIENTED_EDGE('',*,*,#648,.T.);
#648 = EDGE_CURVE('',#268,#649,#651,.T.);
#649 = VERTEX_POINT('',#650);
#650 = CARTESIAN_POINT('',(-163.969948,12.,0.794604006548));
#651 = ELLIPSE('',#652,3.662323766284,3.);
#652 = AXIS2_PLACEMENT_3D('',#653,#654,#655);
#653 = CARTESIAN_POINT('',(-163.969948,9.,0.794604006548));
#654 = DIRECTION('',(-0.573576436351,1.8E-16,0.819152044289));
#655 = DIRECTION('',(-0.819152044289,-1.3E-16,-0.573576436351));
#656 = ORIENTED_EDGE('',*,*,#657,.T.);
#657 = EDGE_CURVE('',#649,#616,#658,.T.);
#658 = LINE('',#659,#660);
#659 = CARTESIAN_POINT('',(-163.969948,12.,2.895226621177));
#660 = VECTOR('',#661,1.);
#661 = DIRECTION('',(0.,-2.2E-16,-1.));
#662 = ORIENTED_EDGE('',*,*,#625,.F.);
#663 = ORIENTED_EDGE('',*,*,#267,.F.);
#664 = CYLINDRICAL_SURFACE('',#665,3.);
#665 = AXIS2_PLACEMENT_3D('',#666,#667,#668);
#666 = CARTESIAN_POINT('',(-163.969948,9.,2.895226621177));
#667 = DIRECTION('',(0.,-2.2E-16,-1.));
#668 = DIRECTION('',(1.,0.,0.));
#669 = ADVANCED_FACE('',(#670),#696,.T.);
#670 = FACE_BOUND('',#671,.T.);
#671 = EDGE_LOOP('',(#672,#680,#688,#694,#695));
#672 = ORIENTED_EDGE('',*,*,#673,.F.);
#673 = EDGE_CURVE('',#674,#649,#676,.T.);
#674 = VERTEX_POINT('',#675);
#675 = CARTESIAN_POINT('',(-167.969948,12.,-2.006226146291));
#676 = LINE('',#677,#678);
#677 = CARTESIAN_POINT('',(-167.969948,12.,-2.006226146291));
#678 = VECTOR('',#679,1.);
#679 = DIRECTION('',(0.819152044289,0.,0.573576436351));
#680 = ORIENTED_EDGE('',*,*,#681,.F.);
#681 = EDGE_CURVE('',#682,#674,#684,.T.);
#682 = VERTEX_POINT('',#683);
#683 = CARTESIAN_POINT('',(-167.969948,4.,-2.006226146291));
#684 = LINE('',#685,#686);
#685 = CARTESIAN_POINT('',(-167.969948,4.,-2.006226146291));
#686 = VECTOR('',#687,1.);
#687 = DIRECTION('',(0.,1.,0.));
#688 = ORIENTED_EDGE('',*,*,#689,.F.);
#689 = EDGE_CURVE('',#49,#682,#690,.T.);
#690 = LINE('',#691,#692);
#691 = CARTESIAN_POINT('',(-137.969948,4.,19.));
#692 = VECTOR('',#693,1.);
#693 = DIRECTION('',(-0.819152044289,0.,-0.573576436351));
#694 = ORIENTED_EDGE('',*,*,#275,.F.);
#695 = ORIENTED_EDGE('',*,*,#648,.T.);
#696 = PLANE('',#697);
#697 = AXIS2_PLACEMENT_3D('',#698,#699,#700);
#698 = CARTESIAN_POINT('',(-167.969948,12.,-2.006226146291));
#699 = DIRECTION('',(-0.573576436351,1.8E-16,0.819152044289));
#700 = DIRECTION('',(0.819152044289,1.3E-16,0.573576436351));
#701 = ADVANCED_FACE('',(#702),#720,.F.);
#702 = FACE_BOUND('',#703,.F.);
#703 = EDGE_LOOP('',(#704,#705,#706,#714));
#704 = ORIENTED_EDGE('',*,*,#689,.F.);
#705 = ORIENTED_EDGE('',*,*,#307,.T.);
#706 = ORIENTED_EDGE('',*,*,#707,.T.);
#707 = EDGE_CURVE('',#300,#708,#710,.T.);
#708 = VERTEX_POINT('',#709);
#709 = CARTESIAN_POINT('',(-167.969948,-4.,-2.006226146291));
#710 = LINE('',#711,#712);
#711 = CARTESIAN_POINT('',(-137.969948,-4.,19.));
#712 = VECTOR('',#713,1.);
#713 = DIRECTION('',(-0.819152044289,0.,-0.573576436351));
#714 = ORIENTED_EDGE('',*,*,#715,.F.);
#715 = EDGE_CURVE('',#682,#708,#716,.T.);
#716 = LINE('',#717,#718);
#717 = CARTESIAN_POINT('',(-167.969948,4.,-2.006226146291));
#718 = VECTOR('',#719,1.);
#719 = DIRECTION('',(0.,-1.,2.2E-16));
#720 = PLANE('',#721);
#721 = AXIS2_PLACEMENT_3D('',#722,#723,#724);
#722 = CARTESIAN_POINT('',(-137.969948,4.,19.));
#723 = DIRECTION('',(0.573576436351,-1.8E-16,-0.819152044289));
#724 = DIRECTION('',(-0.819152044289,-1.3E-16,-0.573576436351));
#725 = ADVANCED_FACE('',(#726),#736,.F.);
#726 = FACE_BOUND('',#727,.T.);
#727 = EDGE_LOOP('',(#728,#729,#734,#735));
#728 = ORIENTED_EDGE('',*,*,#395,.T.);
#729 = ORIENTED_EDGE('',*,*,#730,.F.);
#730 = EDGE_CURVE('',#431,#396,#731,.T.);
#731 = B_SPLINE_CURVE_WITH_KNOTS('',1,(#732,#733),.UNSPECIFIED.,.F.,.F.,
  (2,2),(-6.,13.),.PIECEWISE_BEZIER_KNOTS.);
#732 = CARTESIAN_POINT('',(-69.269948,-4.2E-16,19.));
#733 = CARTESIAN_POINT('',(-69.269948,-4.2E-16,0.));
#734 = ORIENTED_EDGE('',*,*,#430,.T.);
#735 = ORIENTED_EDGE('',*,*,#730,.T.);
#736 = CYLINDRICAL_SURFACE('',#737,1.7);
#737 = AXIS2_PLACEMENT_3D('',#738,#739,#740);
#738 = CARTESIAN_POINT('',(-70.969948,0.,13.));
#739 = DIRECTION('',(-0.,-0.,-1.));
#740 = DIRECTION('',(1.,0.,0.));
#741 = ADVANCED_FACE('',(#742),#751,.F.);
#742 = FACE_BOUND('',#743,.F.);
#743 = EDGE_LOOP('',(#744,#745,#746,#747,#748,#749,#750));
#744 = ORIENTED_EDGE('',*,*,#542,.F.);
#745 = ORIENTED_EDGE('',*,*,#464,.F.);
#746 = ORIENTED_EDGE('',*,*,#490,.F.);
#747 = ORIENTED_EDGE('',*,*,#498,.F.);
#748 = ORIENTED_EDGE('',*,*,#506,.T.);
#749 = ORIENTED_EDGE('',*,*,#514,.T.);
#750 = ORIENTED_EDGE('',*,*,#566,.T.);
#751 = PLANE('',#752);
#752 = AXIS2_PLACEMENT_3D('',#753,#754,#755);
#753 = CARTESIAN_POINT('',(-77.26804503885,-4.,10.701902961144));
#754 = DIRECTION('',(0.,1.,-2.7E-16));
#755 = DIRECTION('',(0.,2.7E-16,1.));
#756 = ADVANCED_FACE('',(#757),#782,.T.);
#757 = FACE_BOUND('',#758,.T.);
#758 = EDGE_LOOP('',(#759,#767,#768,#776));
#759 = ORIENTED_EDGE('',*,*,#760,.F.);
#760 = EDGE_CURVE('',#238,#761,#763,.T.);
#761 = VERTEX_POINT('',#762);
#762 = CARTESIAN_POINT('',(-160.969948,-9.,-3.104773378823));
#763 = LINE('',#764,#765);
#764 = CARTESIAN_POINT('',(-160.969948,12.,-3.104773378823));
#765 = VECTOR('',#766,1.);
#766 = DIRECTION('',(0.,-1.,2.2E-16));
#767 = ORIENTED_EDGE('',*,*,#526,.T.);
#768 = ORIENTED_EDGE('',*,*,#769,.T.);
#769 = EDGE_CURVE('',#300,#770,#772,.T.);
#770 = VERTEX_POINT('',#771);
#771 = CARTESIAN_POINT('',(-160.969948,-9.,2.895226621177));
#772 = LINE('',#773,#774);
#773 = CARTESIAN_POINT('',(-160.969948,12.,2.895226621177));
#774 = VECTOR('',#775,1.);
#775 = DIRECTION('',(0.,-1.,2.2E-16));
#776 = ORIENTED_EDGE('',*,*,#777,.T.);
#777 = EDGE_CURVE('',#770,#761,#778,.T.);
#778 = LINE('',#779,#780);
#779 = CARTESIAN_POINT('',(-160.969948,-9.,2.895226621177));
#780 = VECTOR('',#781,1.);
#781 = DIRECTION('',(0.,-2.2E-16,-1.));
#782 = PLANE('',#783);
#783 = AXIS2_PLACEMENT_3D('',#784,#785,#786);
#784 = CARTESIAN_POINT('',(-160.969948,12.,2.895226621177));
#785 = DIRECTION('',(1.,0.,0.));
#786 = DIRECTION('',(0.,-2.2E-16,-1.));
#787 = ADVANCED_FACE('',(#788),#840,.T.);
#788 = FACE_BOUND('',#789,.T.);
#789 = EDGE_LOOP('',(#790,#801,#807,#808,#809,#817,#825,#834));
#790 = ORIENTED_EDGE('',*,*,#791,.F.);
#791 = EDGE_CURVE('',#792,#794,#796,.T.);
#792 = VERTEX_POINT('',#793);
#793 = CARTESIAN_POINT('',(-167.969948,15.559914426345,-8.006226146291)
  );
#794 = VERTEX_POINT('',#795);
#795 = CARTESIAN_POINT('',(-172.469948,15.510475760037,-8.006226146291)
  );
#796 = CIRCLE('',#797,5.);
#797 = AXIS2_PLACEMENT_3D('',#798,#799,#800);
#798 = CARTESIAN_POINT('',(-170.2689999999,20.,-8.006226146291));
#799 = DIRECTION('',(0.,0.,-1.));
#800 = DIRECTION('',(1.,0.,0.));
#801 = ORIENTED_EDGE('',*,*,#802,.T.);
#802 = EDGE_CURVE('',#792,#618,#803,.T.);
#803 = LINE('',#804,#805);
#804 = CARTESIAN_POINT('',(-167.969948,4.,-8.006226146291));
#805 = VECTOR('',#806,1.);
#806 = DIRECTION('',(0.,-1.,0.));
#807 = ORIENTED_EDGE('',*,*,#634,.T.);
#808 = ORIENTED_EDGE('',*,*,#601,.T.);
#809 = ORIENTED_EDGE('',*,*,#810,.T.);
#810 = EDGE_CURVE('',#594,#811,#813,.T.);
#811 = VERTEX_POINT('',#812);
#812 = CARTESIAN_POINT('',(-167.969948,-12.,-8.006226146291));
#813 = LINE('',#814,#815);
#814 = CARTESIAN_POINT('',(-167.969948,4.,-8.006226146291));
#815 = VECTOR('',#816,1.);
#816 = DIRECTION('',(0.,-1.,0.));
#817 = ORIENTED_EDGE('',*,*,#818,.T.);
#818 = EDGE_CURVE('',#811,#819,#821,.T.);
#819 = VERTEX_POINT('',#820);
#820 = CARTESIAN_POINT('',(-167.969948,-15.55991442634,-8.006226146291)
  );
#821 = LINE('',#822,#823);
#822 = CARTESIAN_POINT('',(-167.969948,4.,-8.006226146291));
#823 = VECTOR('',#824,1.);
#824 = DIRECTION('',(0.,-1.,0.));
#825 = ORIENTED_EDGE('',*,*,#826,.F.);
#826 = EDGE_CURVE('',#827,#819,#829,.T.);
#827 = VERTEX_POINT('',#828);
#828 = CARTESIAN_POINT('',(-172.469948,-15.51047576003,-8.006226146291)
  );
#829 = CIRCLE('',#830,5.);
#830 = AXIS2_PLACEMENT_3D('',#831,#832,#833);
#831 = CARTESIAN_POINT('',(-170.2689999999,-20.,-8.006226146291));
#832 = DIRECTION('',(0.,0.,-1.));
#833 = DIRECTION('',(1.,0.,0.));
#834 = ORIENTED_EDGE('',*,*,#835,.F.);
#835 = EDGE_CURVE('',#794,#827,#836,.T.);
#836 = LINE('',#837,#838);
#837 = CARTESIAN_POINT('',(-172.469948,24.,-8.006226146291));
#838 = VECTOR('',#839,1.);
#839 = DIRECTION('',(0.,-1.,0.));
#840 = PLANE('',#841);
#841 = AXIS2_PLACEMENT_3D('',#842,#843,#844);
#842 = CARTESIAN_POINT('',(-170.219948,-4.13E-15,-8.006226146291));
#843 = DIRECTION('',(-0.,-0.,-1.));
#844 = DIRECTION('',(-1.,0.,0.));
#845 = ADVANCED_FACE('',(#846),#866,.T.);
#846 = FACE_BOUND('',#847,.T.);
#847 = EDGE_LOOP('',(#848,#856,#857,#858,#859));
#848 = ORIENTED_EDGE('',*,*,#849,.T.);
#849 = EDGE_CURVE('',#850,#811,#852,.T.);
#850 = VERTEX_POINT('',#851);
#851 = CARTESIAN_POINT('',(-163.969948,-12.,-5.205395993452));
#852 = LINE('',#853,#854);
#853 = CARTESIAN_POINT('',(-160.969948,-12.,-3.104773378823));
#854 = VECTOR('',#855,1.);
#855 = DIRECTION('',(-0.819152044289,-0.,-0.573576436351));
#856 = ORIENTED_EDGE('',*,*,#810,.F.);
#857 = ORIENTED_EDGE('',*,*,#593,.F.);
#858 = ORIENTED_EDGE('',*,*,#760,.T.);
#859 = ORIENTED_EDGE('',*,*,#860,.T.);
#860 = EDGE_CURVE('',#761,#850,#861,.T.);
#861 = ELLIPSE('',#862,3.662323766284,3.);
#862 = AXIS2_PLACEMENT_3D('',#863,#864,#865);
#863 = CARTESIAN_POINT('',(-163.969948,-9.,-5.205395993452));
#864 = DIRECTION('',(0.573576436351,-1.8E-16,-0.819152044289));
#865 = DIRECTION('',(-0.819152044289,-1.3E-16,-0.573576436351));
#866 = PLANE('',#867);
#867 = AXIS2_PLACEMENT_3D('',#868,#869,#870);
#868 = CARTESIAN_POINT('',(-160.969948,12.,-3.104773378823));
#869 = DIRECTION('',(0.573576436351,-1.8E-16,-0.819152044289));
#870 = DIRECTION('',(-0.819152044289,-1.3E-16,-0.573576436351));
#871 = ADVANCED_FACE('',(#872),#883,.T.);
#872 = FACE_BOUND('',#873,.T.);
#873 = EDGE_LOOP('',(#874,#875,#876,#877));
#874 = ORIENTED_EDGE('',*,*,#673,.T.);
#875 = ORIENTED_EDGE('',*,*,#657,.T.);
#876 = ORIENTED_EDGE('',*,*,#615,.T.);
#877 = ORIENTED_EDGE('',*,*,#878,.F.);
#878 = EDGE_CURVE('',#674,#618,#879,.T.);
#879 = LINE('',#880,#881);
#880 = CARTESIAN_POINT('',(-167.969948,12.,-2.006226146291));
#881 = VECTOR('',#882,1.);
#882 = DIRECTION('',(0.,-7.E-17,-1.));
#883 = PLANE('',#884);
#884 = AXIS2_PLACEMENT_3D('',#885,#886,#887);
#885 = CARTESIAN_POINT('',(-164.469948,12.,-2.555499762557));
#886 = DIRECTION('',(0.,1.,-2.4E-16));
#887 = DIRECTION('',(0.,2.4E-16,1.));
#888 = ADVANCED_FACE('',(#889,#959,#970),#981,.T.);
#889 = FACE_BOUND('',#890,.T.);
#890 = EDGE_LOOP('',(#891,#901,#910,#919,#927,#933,#934,#935,#943,#952)
  );
#891 = ORIENTED_EDGE('',*,*,#892,.T.);
#892 = EDGE_CURVE('',#893,#895,#897,.T.);
#893 = VERTEX_POINT('',#894);
#894 = CARTESIAN_POINT('',(-172.469948,15.510475760037,-2.006226146291)
  );
#895 = VERTEX_POINT('',#896);
#896 = CARTESIAN_POINT('',(-172.469948,-15.51047576003,-2.006226146291)
  );
#897 = LINE('',#898,#899);
#898 = CARTESIAN_POINT('',(-172.469948,-4.,-2.006226146291));
#899 = VECTOR('',#900,1.);
#900 = DIRECTION('',(0.,-1.,0.));
#901 = ORIENTED_EDGE('',*,*,#902,.F.);
#902 = EDGE_CURVE('',#903,#895,#905,.T.);
#903 = VERTEX_POINT('',#904);
#904 = CARTESIAN_POINT('',(-165.2689999999,-20.,-2.006226146291));
#905 = CIRCLE('',#906,5.);
#906 = AXIS2_PLACEMENT_3D('',#907,#908,#909);
#907 = CARTESIAN_POINT('',(-170.2689999999,-20.,-2.006226146291));
#908 = DIRECTION('',(0.,0.,-1.));
#909 = DIRECTION('',(1.,0.,0.));
#910 = ORIENTED_EDGE('',*,*,#911,.F.);
#911 = EDGE_CURVE('',#912,#903,#914,.T.);
#912 = VERTEX_POINT('',#913);
#913 = CARTESIAN_POINT('',(-167.969948,-15.55991442634,-2.006226146291)
  );
#914 = CIRCLE('',#915,5.);
#915 = AXIS2_PLACEMENT_3D('',#916,#917,#918);
#916 = CARTESIAN_POINT('',(-170.2689999999,-20.,-2.006226146291));
#917 = DIRECTION('',(0.,0.,-1.));
#918 = DIRECTION('',(1.,0.,0.));
#919 = ORIENTED_EDGE('',*,*,#920,.T.);
#920 = EDGE_CURVE('',#912,#921,#923,.T.);
#921 = VERTEX_POINT('',#922);
#922 = CARTESIAN_POINT('',(-167.969948,-12.,-2.006226146291));
#923 = LINE('',#924,#925);
#924 = CARTESIAN_POINT('',(-167.969948,4.,-2.006226146291));
#925 = VECTOR('',#926,1.);
#926 = DIRECTION('',(0.,1.,0.));
#927 = ORIENTED_EDGE('',*,*,#928,.T.);
#928 = EDGE_CURVE('',#921,#708,#929,.T.);
#929 = LINE('',#930,#931);
#930 = CARTESIAN_POINT('',(-167.969948,4.,-2.006226146291));
#931 = VECTOR('',#932,1.);
#932 = DIRECTION('',(0.,1.,0.));
#933 = ORIENTED_EDGE('',*,*,#715,.F.);
#934 = ORIENTED_EDGE('',*,*,#681,.T.);
#935 = ORIENTED_EDGE('',*,*,#936,.T.);
#936 = EDGE_CURVE('',#674,#937,#939,.T.);
#937 = VERTEX_POINT('',#938);
#938 = CARTESIAN_POINT('',(-167.969948,15.559914426344,-2.006226146291)
  );
#939 = LINE('',#940,#941);
#940 = CARTESIAN_POINT('',(-167.969948,4.,-2.006226146291));
#941 = VECTOR('',#942,1.);
#942 = DIRECTION('',(0.,1.,0.));
#943 = ORIENTED_EDGE('',*,*,#944,.F.);
#944 = EDGE_CURVE('',#945,#937,#947,.T.);
#945 = VERTEX_POINT('',#946);
#946 = CARTESIAN_POINT('',(-165.2689999999,20.,-2.006226146291));
#947 = CIRCLE('',#948,5.);
#948 = AXIS2_PLACEMENT_3D('',#949,#950,#951);
#949 = CARTESIAN_POINT('',(-170.2689999999,20.,-2.006226146291));
#950 = DIRECTION('',(0.,0.,-1.));
#951 = DIRECTION('',(1.,0.,0.));
#952 = ORIENTED_EDGE('',*,*,#953,.F.);
#953 = EDGE_CURVE('',#893,#945,#954,.T.);
#954 = CIRCLE('',#955,5.);
#955 = AXIS2_PLACEMENT_3D('',#956,#957,#958);
#956 = CARTESIAN_POINT('',(-170.2689999999,20.,-2.006226146291));
#957 = DIRECTION('',(0.,0.,-1.));
#958 = DIRECTION('',(1.,0.,0.));
#959 = FACE_BOUND('',#960,.T.);
#960 = EDGE_LOOP('',(#961));
#961 = ORIENTED_EDGE('',*,*,#962,.F.);
#962 = EDGE_CURVE('',#963,#963,#965,.T.);
#963 = VERTEX_POINT('',#964);
#964 = CARTESIAN_POINT('',(-168.5689999999,-20.,-2.006226146291));
#965 = CIRCLE('',#966,1.7);
#966 = AXIS2_PLACEMENT_3D('',#967,#968,#969);
#967 = CARTESIAN_POINT('',(-170.2689999999,-20.,-2.006226146291));
#968 = DIRECTION('',(0.,0.,1.));
#969 = DIRECTION('',(1.,0.,0.));
#970 = FACE_BOUND('',#971,.T.);
#971 = EDGE_LOOP('',(#972));
#972 = ORIENTED_EDGE('',*,*,#973,.F.);
#973 = EDGE_CURVE('',#974,#974,#976,.T.);
#974 = VERTEX_POINT('',#975);
#975 = CARTESIAN_POINT('',(-168.5689999999,20.,-2.006226146291));
#976 = CIRCLE('',#977,1.7);
#977 = AXIS2_PLACEMENT_3D('',#978,#979,#980);
#978 = CARTESIAN_POINT('',(-170.2689999999,20.,-2.006226146291));
#979 = DIRECTION('',(0.,0.,1.));
#980 = DIRECTION('',(1.,0.,0.));
#981 = PLANE('',#982);
#982 = AXIS2_PLACEMENT_3D('',#983,#984,#985);
#983 = CARTESIAN_POINT('',(-170.1541574024,-1.3E-16,-2.006226146291));
#984 = DIRECTION('',(4.44E-15,0.,1.));
#985 = DIRECTION('',(1.,0.,-4.44E-15));
#986 = ADVANCED_FACE('',(#987),#1007,.T.);
#987 = FACE_BOUND('',#988,.T.);
#988 = EDGE_LOOP('',(#989,#990,#991,#992,#1000));
#989 = ORIENTED_EDGE('',*,*,#769,.F.);
#990 = ORIENTED_EDGE('',*,*,#707,.T.);
#991 = ORIENTED_EDGE('',*,*,#928,.F.);
#992 = ORIENTED_EDGE('',*,*,#993,.T.);
#993 = EDGE_CURVE('',#921,#994,#996,.T.);
#994 = VERTEX_POINT('',#995);
#995 = CARTESIAN_POINT('',(-163.969948,-12.,0.794604006548));
#996 = LINE('',#997,#998);
#997 = CARTESIAN_POINT('',(-167.969948,-12.,-2.006226146291));
#998 = VECTOR('',#999,1.);
#999 = DIRECTION('',(0.819152044289,0.,0.573576436351));
#1000 = ORIENTED_EDGE('',*,*,#1001,.F.);
#1001 = EDGE_CURVE('',#770,#994,#1002,.T.);
#1002 = ELLIPSE('',#1003,3.662323766284,3.);
#1003 = AXIS2_PLACEMENT_3D('',#1004,#1005,#1006);
#1004 = CARTESIAN_POINT('',(-163.969948,-9.,0.794604006548));
#1005 = DIRECTION('',(0.573576436351,-1.8E-16,-0.819152044289));
#1006 = DIRECTION('',(-0.819152044289,-1.3E-16,-0.573576436351));
#1007 = PLANE('',#1008);
#1008 = AXIS2_PLACEMENT_3D('',#1009,#1010,#1011);
#1009 = CARTESIAN_POINT('',(-167.969948,12.,-2.006226146291));
#1010 = DIRECTION('',(-0.573576436351,1.8E-16,0.819152044289));
#1011 = DIRECTION('',(0.819152044289,1.3E-16,0.573576436351));
#1012 = ADVANCED_FACE('',(#1013),#1024,.T.);
#1013 = FACE_BOUND('',#1014,.T.);
#1014 = EDGE_LOOP('',(#1015,#1016,#1022,#1023));
#1015 = ORIENTED_EDGE('',*,*,#1001,.T.);
#1016 = ORIENTED_EDGE('',*,*,#1017,.T.);
#1017 = EDGE_CURVE('',#994,#850,#1018,.T.);
#1018 = LINE('',#1019,#1020);
#1019 = CARTESIAN_POINT('',(-163.969948,-12.,2.895226621177));
#1020 = VECTOR('',#1021,1.);
#1021 = DIRECTION('',(0.,-2.2E-16,-1.));
#1022 = ORIENTED_EDGE('',*,*,#860,.F.);
#1023 = ORIENTED_EDGE('',*,*,#777,.F.);
#1024 = CYLINDRICAL_SURFACE('',#1025,3.);
#1025 = AXIS2_PLACEMENT_3D('',#1026,#1027,#1028);
#1026 = CARTESIAN_POINT('',(-163.969948,-9.,2.895226621177));
#1027 = DIRECTION('',(0.,-2.2E-16,-1.));
#1028 = DIRECTION('',(1.,0.,0.));
#1029 = ADVANCED_FACE('',(#1030),#1063,.T.);
#1030 = FACE_BOUND('',#1031,.T.);
#1031 = EDGE_LOOP('',(#1032,#1041,#1047,#1048,#1054,#1055,#1061,#1062));
#1032 = ORIENTED_EDGE('',*,*,#1033,.F.);
#1033 = EDGE_CURVE('',#1034,#1034,#1036,.T.);
#1034 = VERTEX_POINT('',#1035);
#1035 = CARTESIAN_POINT('',(-165.2689999999,20.,-10.00622614629));
#1036 = CIRCLE('',#1037,5.);
#1037 = AXIS2_PLACEMENT_3D('',#1038,#1039,#1040);
#1038 = CARTESIAN_POINT('',(-170.2689999999,20.,-10.00622614629));
#1039 = DIRECTION('',(0.,0.,-1.));
#1040 = DIRECTION('',(1.,0.,0.));
#1041 = ORIENTED_EDGE('',*,*,#1042,.T.);
#1042 = EDGE_CURVE('',#1034,#945,#1043,.T.);
#1043 = LINE('',#1044,#1045);
#1044 = CARTESIAN_POINT('',(-165.2689999999,20.,-10.00622614629));
#1045 = VECTOR('',#1046,1.);
#1046 = DIRECTION('',(0.,0.,1.));
#1047 = ORIENTED_EDGE('',*,*,#944,.T.);
#1048 = ORIENTED_EDGE('',*,*,#1049,.T.);
#1049 = EDGE_CURVE('',#937,#792,#1050,.T.);
#1050 = LINE('',#1051,#1052);
#1051 = CARTESIAN_POINT('',(-167.969948,15.559914426345,-10.00622614629)
  );
#1052 = VECTOR('',#1053,1.);
#1053 = DIRECTION('',(0.,0.,-1.));
#1054 = ORIENTED_EDGE('',*,*,#791,.T.);
#1055 = ORIENTED_EDGE('',*,*,#1056,.F.);
#1056 = EDGE_CURVE('',#893,#794,#1057,.T.);
#1057 = LINE('',#1058,#1059);
#1058 = CARTESIAN_POINT('',(-172.469948,15.510475760037,-10.00622614629)
  );
#1059 = VECTOR('',#1060,1.);
#1060 = DIRECTION('',(0.,0.,-1.));
#1061 = ORIENTED_EDGE('',*,*,#953,.T.);
#1062 = ORIENTED_EDGE('',*,*,#1042,.F.);
#1063 = CYLINDRICAL_SURFACE('',#1064,5.);
#1064 = AXIS2_PLACEMENT_3D('',#1065,#1066,#1067);
#1065 = CARTESIAN_POINT('',(-170.2689999999,20.,-10.00622614629));
#1066 = DIRECTION('',(0.,0.,-1.));
#1067 = DIRECTION('',(1.,0.,0.));
#1068 = ADVANCED_FACE('',(#1069),#1080,.F.);
#1069 = FACE_BOUND('',#1070,.F.);
#1070 = EDGE_LOOP('',(#1071,#1072,#1073,#1079));
#1071 = ORIENTED_EDGE('',*,*,#1056,.F.);
#1072 = ORIENTED_EDGE('',*,*,#892,.T.);
#1073 = ORIENTED_EDGE('',*,*,#1074,.T.);
#1074 = EDGE_CURVE('',#895,#827,#1075,.T.);
#1075 = LINE('',#1076,#1077);
#1076 = CARTESIAN_POINT('',(-172.469948,-15.51047576003,-10.00622614629)
  );
#1077 = VECTOR('',#1078,1.);
#1078 = DIRECTION('',(0.,0.,-1.));
#1079 = ORIENTED_EDGE('',*,*,#835,.F.);
#1080 = PLANE('',#1081);
#1081 = AXIS2_PLACEMENT_3D('',#1082,#1083,#1084);
#1082 = CARTESIAN_POINT('',(-172.469948,-4.74E-15,-5.006226146291));
#1083 = DIRECTION('',(1.,0.,0.));
#1084 = DIRECTION('',(0.,0.,1.));
#1085 = ADVANCED_FACE('',(#1086),#1114,.T.);
#1086 = FACE_BOUND('',#1087,.T.);
#1087 = EDGE_LOOP('',(#1088,#1097,#1103,#1104,#1105,#1106,#1112,#1113));
#1088 = ORIENTED_EDGE('',*,*,#1089,.F.);
#1089 = EDGE_CURVE('',#1090,#1090,#1092,.T.);
#1090 = VERTEX_POINT('',#1091);
#1091 = CARTESIAN_POINT('',(-165.2689999999,-20.,-10.00622614629));
#1092 = CIRCLE('',#1093,5.);
#1093 = AXIS2_PLACEMENT_3D('',#1094,#1095,#1096);
#1094 = CARTESIAN_POINT('',(-170.2689999999,-20.,-10.00622614629));
#1095 = DIRECTION('',(0.,0.,-1.));
#1096 = DIRECTION('',(1.,0.,0.));
#1097 = ORIENTED_EDGE('',*,*,#1098,.T.);
#1098 = EDGE_CURVE('',#1090,#903,#1099,.T.);
#1099 = LINE('',#1100,#1101);
#1100 = CARTESIAN_POINT('',(-165.2689999999,-20.,-10.00622614629));
#1101 = VECTOR('',#1102,1.);
#1102 = DIRECTION('',(0.,0.,1.));
#1103 = ORIENTED_EDGE('',*,*,#902,.T.);
#1104 = ORIENTED_EDGE('',*,*,#1074,.T.);
#1105 = ORIENTED_EDGE('',*,*,#826,.T.);
#1106 = ORIENTED_EDGE('',*,*,#1107,.F.);
#1107 = EDGE_CURVE('',#912,#819,#1108,.T.);
#1108 = LINE('',#1109,#1110);
#1109 = CARTESIAN_POINT('',(-167.969948,-15.55991442634,-10.00622614629)
  );
#1110 = VECTOR('',#1111,1.);
#1111 = DIRECTION('',(0.,0.,-1.));
#1112 = ORIENTED_EDGE('',*,*,#911,.T.);
#1113 = ORIENTED_EDGE('',*,*,#1098,.F.);
#1114 = CYLINDRICAL_SURFACE('',#1115,5.);
#1115 = AXIS2_PLACEMENT_3D('',#1116,#1117,#1118);
#1116 = CARTESIAN_POINT('',(-170.2689999999,-20.,-10.00622614629));
#1117 = DIRECTION('',(0.,0.,-1.));
#1118 = DIRECTION('',(1.,0.,0.));
#1119 = ADVANCED_FACE('',(#1120),#1131,.T.);
#1120 = FACE_BOUND('',#1121,.T.);
#1121 = EDGE_LOOP('',(#1122,#1123,#1124,#1125));
#1122 = ORIENTED_EDGE('',*,*,#920,.F.);
#1123 = ORIENTED_EDGE('',*,*,#1107,.T.);
#1124 = ORIENTED_EDGE('',*,*,#818,.F.);
#1125 = ORIENTED_EDGE('',*,*,#1126,.F.);
#1126 = EDGE_CURVE('',#921,#811,#1127,.T.);
#1127 = LINE('',#1128,#1129);
#1128 = CARTESIAN_POINT('',(-167.969948,-12.,-2.006226146291));
#1129 = VECTOR('',#1130,1.);
#1130 = DIRECTION('',(0.,-7.E-17,-1.));
#1131 = PLANE('',#1132);
#1132 = AXIS2_PLACEMENT_3D('',#1133,#1134,#1135);
#1133 = CARTESIAN_POINT('',(-167.969948,-4.74E-15,-5.006226146291));
#1134 = DIRECTION('',(1.,0.,0.));
#1135 = DIRECTION('',(0.,0.,1.));
#1136 = ADVANCED_FACE('',(#1137),#1143,.T.);
#1137 = FACE_BOUND('',#1138,.T.);
#1138 = EDGE_LOOP('',(#1139,#1140,#1141,#1142));
#1139 = ORIENTED_EDGE('',*,*,#936,.F.);
#1140 = ORIENTED_EDGE('',*,*,#878,.T.);
#1141 = ORIENTED_EDGE('',*,*,#802,.F.);
#1142 = ORIENTED_EDGE('',*,*,#1049,.F.);
#1143 = PLANE('',#1144);
#1144 = AXIS2_PLACEMENT_3D('',#1145,#1146,#1147);
#1145 = CARTESIAN_POINT('',(-167.969948,-4.74E-15,-5.006226146291));
#1146 = DIRECTION('',(1.,0.,0.));
#1147 = DIRECTION('',(0.,0.,1.));
#1148 = ADVANCED_FACE('',(#1149),#1155,.F.);
#1149 = FACE_BOUND('',#1150,.F.);
#1150 = EDGE_LOOP('',(#1151,#1152,#1153,#1154));
#1151 = ORIENTED_EDGE('',*,*,#993,.T.);
#1152 = ORIENTED_EDGE('',*,*,#1017,.T.);
#1153 = ORIENTED_EDGE('',*,*,#849,.T.);
#1154 = ORIENTED_EDGE('',*,*,#1126,.F.);
#1155 = PLANE('',#1156);
#1156 = AXIS2_PLACEMENT_3D('',#1157,#1158,#1159);
#1157 = CARTESIAN_POINT('',(-164.469948,-12.,-2.555499762557));
#1158 = DIRECTION('',(0.,1.,-2.4E-16));
#1159 = DIRECTION('',(0.,2.4E-16,1.));
#1160 = ADVANCED_FACE('',(#1161),#1179,.F.);
#1161 = FACE_BOUND('',#1162,.F.);
#1162 = EDGE_LOOP('',(#1163,#1164,#1171,#1178));
#1163 = ORIENTED_EDGE('',*,*,#962,.F.);
#1164 = ORIENTED_EDGE('',*,*,#1165,.F.);
#1165 = EDGE_CURVE('',#1166,#963,#1168,.T.);
#1166 = VERTEX_POINT('',#1167);
#1167 = CARTESIAN_POINT('',(-168.5689999999,-20.,-10.00622614629));
#1168 = B_SPLINE_CURVE_WITH_KNOTS('',1,(#1169,#1170),.UNSPECIFIED.,.F.,
  .F.,(2,2),(-15.,-7.),.PIECEWISE_BEZIER_KNOTS.);
#1169 = CARTESIAN_POINT('',(-168.5689999999,-20.,-10.00622614629));
#1170 = CARTESIAN_POINT('',(-168.5689999999,-20.,-2.006226146291));
#1171 = ORIENTED_EDGE('',*,*,#1172,.F.);
#1172 = EDGE_CURVE('',#1166,#1166,#1173,.T.);
#1173 = CIRCLE('',#1174,1.7);
#1174 = AXIS2_PLACEMENT_3D('',#1175,#1176,#1177);
#1175 = CARTESIAN_POINT('',(-170.2689999999,-20.,-10.00622614629));
#1176 = DIRECTION('',(0.,0.,-1.));
#1177 = DIRECTION('',(1.,0.,0.));
#1178 = ORIENTED_EDGE('',*,*,#1165,.T.);
#1179 = CYLINDRICAL_SURFACE('',#1180,1.7);
#1180 = AXIS2_PLACEMENT_3D('',#1181,#1182,#1183);
#1181 = CARTESIAN_POINT('',(-170.2689999999,-20.,4.993773853709));
#1182 = DIRECTION('',(0.,0.,1.));
#1183 = DIRECTION('',(1.,0.,0.));
#1184 = ADVANCED_FACE('',(#1185),#1203,.F.);
#1185 = FACE_BOUND('',#1186,.F.);
#1186 = EDGE_LOOP('',(#1187,#1188,#1195,#1202));
#1187 = ORIENTED_EDGE('',*,*,#973,.F.);
#1188 = ORIENTED_EDGE('',*,*,#1189,.F.);
#1189 = EDGE_CURVE('',#1190,#974,#1192,.T.);
#1190 = VERTEX_POINT('',#1191);
#1191 = CARTESIAN_POINT('',(-168.5689999999,20.,-10.00622614629));
#1192 = B_SPLINE_CURVE_WITH_KNOTS('',1,(#1193,#1194),.UNSPECIFIED.,.F.,
  .F.,(2,2),(-15.,-7.),.PIECEWISE_BEZIER_KNOTS.);
#1193 = CARTESIAN_POINT('',(-168.5689999999,20.,-10.00622614629));
#1194 = CARTESIAN_POINT('',(-168.5689999999,20.,-2.006226146291));
#1195 = ORIENTED_EDGE('',*,*,#1196,.F.);
#1196 = EDGE_CURVE('',#1190,#1190,#1197,.T.);
#1197 = CIRCLE('',#1198,1.7);
#1198 = AXIS2_PLACEMENT_3D('',#1199,#1200,#1201);
#1199 = CARTESIAN_POINT('',(-170.2689999999,20.,-10.00622614629));
#1200 = DIRECTION('',(0.,0.,-1.));
#1201 = DIRECTION('',(1.,0.,0.));
#1202 = ORIENTED_EDGE('',*,*,#1189,.T.);
#1203 = CYLINDRICAL_SURFACE('',#1204,1.7);
#1204 = AXIS2_PLACEMENT_3D('',#1205,#1206,#1207);
#1205 = CARTESIAN_POINT('',(-170.2689999999,20.,4.993773853709));
#1206 = DIRECTION('',(0.,0.,1.));
#1207 = DIRECTION('',(1.,0.,0.));
#1208 = ADVANCED_FACE('',(#1209,#1212),#1215,.F.);
#1209 = FACE_BOUND('',#1210,.T.);
#1210 = EDGE_LOOP('',(#1211));
#1211 = ORIENTED_EDGE('',*,*,#1033,.T.);
#1212 = FACE_BOUND('',#1213,.F.);
#1213 = EDGE_LOOP('',(#1214));
#1214 = ORIENTED_EDGE('',*,*,#1196,.T.);
#1215 = PLANE('',#1216);
#1216 = AXIS2_PLACEMENT_3D('',#1217,#1218,#1219);
#1217 = CARTESIAN_POINT('',(-170.2689999999,-9.2E-16,-10.00622614629));
#1218 = DIRECTION('',(0.,0.,1.));
#1219 = DIRECTION('',(1.,0.,0.));
#1220 = ADVANCED_FACE('',(#1221,#1224),#1227,.F.);
#1221 = FACE_BOUND('',#1222,.T.);
#1222 = EDGE_LOOP('',(#1223));
#1223 = ORIENTED_EDGE('',*,*,#1089,.T.);
#1224 = FACE_BOUND('',#1225,.F.);
#1225 = EDGE_LOOP('',(#1226));
#1226 = ORIENTED_EDGE('',*,*,#1172,.T.);
#1227 = PLANE('',#1228);
#1228 = AXIS2_PLACEMENT_3D('',#1229,#1230,#1231);
#1229 = CARTESIAN_POINT('',(-170.2689999999,-9.2E-16,-10.00622614629));
#1230 = DIRECTION('',(0.,0.,1.));
#1231 = DIRECTION('',(1.,0.,0.));
#1232 = ( GEOMETRIC_REPRESENTATION_CONTEXT(3) 
GLOBAL_UNCERTAINTY_ASSIGNED_CONTEXT((#1236)) 
GLOBAL_UNIT_ASSIGNED_CONTEXT((#1233,#1234,#1235)) REPRESENTATION_CONTEXT
('Context #1','3D Context with UNIT and UNCERTAINTY') );
#1233 = ( LENGTH_UNIT() NAMED_UNIT(*) SI_UNIT(.MILLI.,.METRE.) );
#1234 = ( NAMED_UNIT(*) PLANE_ANGLE_UNIT() SI_UNIT($,.RADIAN.) );
#1235 = ( NAMED_UNIT(*) SI_UNIT($,.STERADIAN.) SOLID_ANGLE_UNIT() );
#1236 = UNCERTAINTY_MEASURE_WITH_UNIT(LENGTH_MEASURE(1.E-05),#1233,
  'distance_accuracy_value','confusion accuracy');
#1237 = PRODUCT_RELATED_PRODUCT_CATEGORY('part',$,(#7));
ENDSEC;
END-ISO-10303-21;
