ISO-10303-21;
HEADER;
FILE_DESCRIPTION(('FreeCAD Model'),'2;1');
FILE_NAME('Open CASCADE Shape Model','2026-08-28T13:04:07',('FreeCAD'),(
    'FreeCAD'),'Open CASCADE STEP processor 7.8','FreeCAD','Unknown');
FILE_SCHEMA(('AUTOMOTIVE_DESIGN { 1 0 10303 214 1 1 1 1 }'));
ENDSEC;
DATA;
#1 = APPLICATION_PROTOCOL_DEFINITION('international standard',
  'automotive_design',2000,#2);
#2 = APPLICATION_CONTEXT(
  'core data for automotive mechanical design processes');
#3 = SHAPE_DEFINITION_REPRESENTATION(#4,#10);
#4 = PRODUCT_DEFINITION_SHAPE('','',#5);
#5 = PRODUCT_DEFINITION('design','',#6,#9);
#6 = PRODUCT_DEFINITION_FORMATION('','',#7);
#7 = PRODUCT('Open CASCADE STEP translator 7.8 115',
  'Open CASCADE STEP translator 7.8 115','',(#8));
#8 = PRODUCT_CONTEXT('',#2,'mechanical');
#9 = PRODUCT_DEFINITION_CONTEXT('part definition',#2,'design');
#10 = ADVANCED_BREP_SHAPE_REPRESENTATION('',(#11,#15),#966);
#11 = AXIS2_PLACEMENT_3D('',#12,#13,#14);
#12 = CARTESIAN_POINT('',(0.,0.,0.));
#13 = DIRECTION('',(0.,0.,1.));
#14 = DIRECTION('',(1.,0.,-0.));
#15 = MANIFOLD_SOLID_BREP('',#16);
#16 = CLOSED_SHELL('',(#17,#73,#254,#279,#303,#344,#379,#430,#461,#478,
    #502,#525,#542,#554,#585,#609,#633,#657,#681,#698,#729,#753,#777,
    #801,#825,#842,#867,#890,#907,#924,#949));
#17 = ADVANCED_FACE('',(#18),#68,.T.);
#18 = FACE_BOUND('',#19,.T.);
#19 = EDGE_LOOP('',(#20,#30,#38,#46,#54,#62));
#20 = ORIENTED_EDGE('',*,*,#21,.T.);
#21 = EDGE_CURVE('',#22,#24,#26,.T.);
#22 = VERTEX_POINT('',#23);
#23 = CARTESIAN_POINT('',(18.990930000023,-134.6,85.807203051954));
#24 = VERTEX_POINT('',#25);
#25 = CARTESIAN_POINT('',(18.990930000023,-136.6,85.807203051954));
#26 = LINE('',#27,#28);
#27 = CARTESIAN_POINT('',(18.990930000023,-134.6,85.807203051954));
#28 = VECTOR('',#29,1.);
#29 = DIRECTION('',(0.,-1.,0.));
#30 = ORIENTED_EDGE('',*,*,#31,.T.);
#31 = EDGE_CURVE('',#24,#32,#34,.T.);
#32 = VERTEX_POINT('',#33);
#33 = CARTESIAN_POINT('',(18.990930000023,-136.6,74.807203051954));
#34 = LINE('',#35,#36);
#35 = CARTESIAN_POINT('',(18.990930000023,-136.6,85.807203051954));
#36 = VECTOR('',#37,1.);
#37 = DIRECTION('',(0.,0.,-1.));
#38 = ORIENTED_EDGE('',*,*,#39,.F.);
#39 = EDGE_CURVE('',#40,#32,#42,.T.);
#40 = VERTEX_POINT('',#41);
#41 = CARTESIAN_POINT('',(18.990930000023,-124.6,74.807203051954));
#42 = LINE('',#43,#44);
#43 = CARTESIAN_POINT('',(18.990930000023,-134.6,74.807203051954));
#44 = VECTOR('',#45,1.);
#45 = DIRECTION('',(0.,-1.,0.));
#46 = ORIENTED_EDGE('',*,*,#47,.F.);
#47 = EDGE_CURVE('',#48,#40,#50,.T.);
#48 = VERTEX_POINT('',#49);
#49 = CARTESIAN_POINT('',(18.990930000023,-124.6,79.807203051954));
#50 = LINE('',#51,#52);
#51 = CARTESIAN_POINT('',(18.990930000023,-124.6,79.807203051954));
#52 = VECTOR('',#53,1.);
#53 = DIRECTION('',(0.,0.,-1.));
#54 = ORIENTED_EDGE('',*,*,#55,.F.);
#55 = EDGE_CURVE('',#56,#48,#58,.T.);
#56 = VERTEX_POINT('',#57);
#57 = CARTESIAN_POINT('',(18.990930000023,-134.6,79.807203051954));
#58 = LINE('',#59,#60);
#59 = CARTESIAN_POINT('',(18.990930000023,-134.6,79.807203051954));
#60 = VECTOR('',#61,1.);
#61 = DIRECTION('',(0.,1.,0.));
#62 = ORIENTED_EDGE('',*,*,#63,.F.);
#63 = EDGE_CURVE('',#22,#56,#64,.T.);
#64 = LINE('',#65,#66);
#65 = CARTESIAN_POINT('',(18.990930000023,-134.6,85.807203051954));
#66 = VECTOR('',#67,1.);
#67 = DIRECTION('',(0.,0.,-1.));
#68 = PLANE('',#69);
#69 = AXIS2_PLACEMENT_3D('',#70,#71,#72);
#70 = CARTESIAN_POINT('',(18.990930000023,-132.8,79.107203051954));
#71 = DIRECTION('',(1.,0.,0.));
#72 = DIRECTION('',(0.,1.,0.));
#73 = ADVANCED_FACE('',(#74,#149,#199),#249,.T.);
#74 = FACE_BOUND('',#75,.T.);
#75 = EDGE_LOOP('',(#76,#86,#95,#103,#110,#111,#119,#127,#135,#143));
#76 = ORIENTED_EDGE('',*,*,#77,.T.);
#77 = EDGE_CURVE('',#78,#80,#82,.T.);
#78 = VERTEX_POINT('',#79);
#79 = CARTESIAN_POINT('',(7.190930000023,-134.6,85.807203051954));
#80 = VERTEX_POINT('',#81);
#81 = CARTESIAN_POINT('',(7.190930000023,-136.6,85.807203051954));
#82 = LINE('',#83,#84);
#83 = CARTESIAN_POINT('',(7.190930000023,-134.6,85.807203051954));
#84 = VECTOR('',#85,1.);
#85 = DIRECTION('',(0.,-1.,0.));
#86 = ORIENTED_EDGE('',*,*,#87,.F.);
#87 = EDGE_CURVE('',#88,#80,#90,.T.);
#88 = VERTEX_POINT('',#89);
#89 = CARTESIAN_POINT('',(9.190930000023,-138.6,85.807203051954));
#90 = CIRCLE('',#91,2.);
#91 = AXIS2_PLACEMENT_3D('',#92,#93,#94);
#92 = CARTESIAN_POINT('',(9.190930000023,-136.6,85.807203051954));
#93 = DIRECTION('',(0.,0.,-1.));
#94 = DIRECTION('',(0.,-1.,-0.));
#95 = ORIENTED_EDGE('',*,*,#96,.T.);
#96 = EDGE_CURVE('',#88,#97,#99,.T.);
#97 = VERTEX_POINT('',#98);
#98 = CARTESIAN_POINT('',(16.990930000023,-138.6,85.807203051954));
#99 = LINE('',#100,#101);
#100 = CARTESIAN_POINT('',(7.190930000023,-138.6,85.807203051954));
#101 = VECTOR('',#102,1.);
#102 = DIRECTION('',(1.,0.,0.));
#103 = ORIENTED_EDGE('',*,*,#104,.F.);
#104 = EDGE_CURVE('',#24,#97,#105,.T.);
#105 = CIRCLE('',#106,2.);
#106 = AXIS2_PLACEMENT_3D('',#107,#108,#109);
#107 = CARTESIAN_POINT('',(16.990930000023,-136.6,85.807203051954));
#108 = DIRECTION('',(-0.,0.,-1.));
#109 = DIRECTION('',(0.,1.,0.));
#110 = ORIENTED_EDGE('',*,*,#21,.F.);
#111 = ORIENTED_EDGE('',*,*,#112,.T.);
#112 = EDGE_CURVE('',#22,#113,#115,.T.);
#113 = VERTEX_POINT('',#114);
#114 = CARTESIAN_POINT('',(27.190930000002,-134.6,85.807203051954));
#115 = LINE('',#116,#117);
#116 = CARTESIAN_POINT('',(-1.009069999998,-134.6,85.807203051954));
#117 = VECTOR('',#118,1.);
#118 = DIRECTION('',(1.,0.,0.));
#119 = ORIENTED_EDGE('',*,*,#120,.T.);
#120 = EDGE_CURVE('',#113,#121,#123,.T.);
#121 = VERTEX_POINT('',#122);
#122 = CARTESIAN_POINT('',(27.190930000002,-124.6,85.807203051954));
#123 = LINE('',#124,#125);
#124 = CARTESIAN_POINT('',(27.190930000002,-134.6,85.807203051954));
#125 = VECTOR('',#126,1.);
#126 = DIRECTION('',(0.,1.,0.));
#127 = ORIENTED_EDGE('',*,*,#128,.F.);
#128 = EDGE_CURVE('',#129,#121,#131,.T.);
#129 = VERTEX_POINT('',#130);
#130 = CARTESIAN_POINT('',(-1.009069999998,-124.6,85.807203051954));
#131 = LINE('',#132,#133);
#132 = CARTESIAN_POINT('',(-1.009069999998,-124.6,85.807203051954));
#133 = VECTOR('',#134,1.);
#134 = DIRECTION('',(1.,0.,0.));
#135 = ORIENTED_EDGE('',*,*,#136,.F.);
#136 = EDGE_CURVE('',#137,#129,#139,.T.);
#137 = VERTEX_POINT('',#138);
#138 = CARTESIAN_POINT('',(-1.009069999998,-134.6,85.807203051954));
#139 = LINE('',#140,#141);
#140 = CARTESIAN_POINT('',(-1.009069999998,-134.6,85.807203051954));
#141 = VECTOR('',#142,1.);
#142 = DIRECTION('',(0.,1.,0.));
#143 = ORIENTED_EDGE('',*,*,#144,.T.);
#144 = EDGE_CURVE('',#137,#78,#145,.T.);
#145 = LINE('',#146,#147);
#146 = CARTESIAN_POINT('',(-1.009069999998,-134.6,85.807203051954));
#147 = VECTOR('',#148,1.);
#148 = DIRECTION('',(1.,0.,0.));
#149 = FACE_BOUND('',#150,.T.);
#150 = EDGE_LOOP('',(#151,#161,#169,#177,#185,#193));
#151 = ORIENTED_EDGE('',*,*,#152,.F.);
#152 = EDGE_CURVE('',#153,#155,#157,.T.);
#153 = VERTEX_POINT('',#154);
#154 = CARTESIAN_POINT('',(19.47323890272,-129.6,85.807203051954));
#155 = VERTEX_POINT('',#156);
#156 = CARTESIAN_POINT('',(21.032084629532,-132.3,85.807203051954));
#157 = LINE('',#158,#159);
#158 = CARTESIAN_POINT('',(19.47323890272,-129.6,85.807203051954));
#159 = VECTOR('',#160,1.);
#160 = DIRECTION('',(0.5,-0.866025403784,0.));
#161 = ORIENTED_EDGE('',*,*,#162,.F.);
#162 = EDGE_CURVE('',#163,#153,#165,.T.);
#163 = VERTEX_POINT('',#164);
#164 = CARTESIAN_POINT('',(21.032084629532,-126.9,85.807203051954));
#165 = LINE('',#166,#167);
#166 = CARTESIAN_POINT('',(21.032084629532,-126.9,85.807203051954));
#167 = VECTOR('',#168,1.);
#168 = DIRECTION('',(-0.5,-0.866025403784,0.));
#169 = ORIENTED_EDGE('',*,*,#170,.F.);
#170 = EDGE_CURVE('',#171,#163,#173,.T.);
#171 = VERTEX_POINT('',#172);
#172 = CARTESIAN_POINT('',(24.149776083156,-126.9,85.807203051954));
#173 = LINE('',#174,#175);
#174 = CARTESIAN_POINT('',(24.149776083156,-126.9,85.807203051954));
#175 = VECTOR('',#176,1.);
#176 = DIRECTION('',(-1.,-2.8E-16,0.));
#177 = ORIENTED_EDGE('',*,*,#178,.F.);
#178 = EDGE_CURVE('',#179,#171,#181,.T.);
#179 = VERTEX_POINT('',#180);
#180 = CARTESIAN_POINT('',(25.708621809968,-129.6,85.807203051954));
#181 = LINE('',#182,#183);
#182 = CARTESIAN_POINT('',(25.708621809968,-129.6,85.807203051954));
#183 = VECTOR('',#184,1.);
#184 = DIRECTION('',(-0.5,0.866025403784,0.));
#185 = ORIENTED_EDGE('',*,*,#186,.F.);
#186 = EDGE_CURVE('',#187,#179,#189,.T.);
#187 = VERTEX_POINT('',#188);
#188 = CARTESIAN_POINT('',(24.149776083156,-132.3,85.807203051954));
#189 = LINE('',#190,#191);
#190 = CARTESIAN_POINT('',(24.149776083156,-132.3,85.807203051954));
#191 = VECTOR('',#192,1.);
#192 = DIRECTION('',(0.5,0.866025403784,0.));
#193 = ORIENTED_EDGE('',*,*,#194,.F.);
#194 = EDGE_CURVE('',#155,#187,#195,.T.);
#195 = LINE('',#196,#197);
#196 = CARTESIAN_POINT('',(21.032084629532,-132.3,85.807203051954));
#197 = VECTOR('',#198,1.);
#198 = DIRECTION('',(1.,0.,0.));
#199 = FACE_BOUND('',#200,.T.);
#200 = EDGE_LOOP('',(#201,#211,#219,#227,#235,#243));
#201 = ORIENTED_EDGE('',*,*,#202,.F.);
#202 = EDGE_CURVE('',#203,#205,#207,.T.);
#203 = VERTEX_POINT('',#204);
#204 = CARTESIAN_POINT('',(2.032084629532,-132.3,85.807203051954));
#205 = VERTEX_POINT('',#206);
#206 = CARTESIAN_POINT('',(5.149776083156,-132.3,85.807203051954));
#207 = LINE('',#208,#209);
#208 = CARTESIAN_POINT('',(2.032084629532,-132.3,85.807203051954));
#209 = VECTOR('',#210,1.);
#210 = DIRECTION('',(1.,0.,0.));
#211 = ORIENTED_EDGE('',*,*,#212,.F.);
#212 = EDGE_CURVE('',#213,#203,#215,.T.);
#213 = VERTEX_POINT('',#214);
#214 = CARTESIAN_POINT('',(0.47323890272,-129.6,85.807203051954));
#215 = LINE('',#216,#217);
#216 = CARTESIAN_POINT('',(0.47323890272,-129.6,85.807203051954));
#217 = VECTOR('',#218,1.);
#218 = DIRECTION('',(0.5,-0.866025403784,0.));
#219 = ORIENTED_EDGE('',*,*,#220,.F.);
#220 = EDGE_CURVE('',#221,#213,#223,.T.);
#221 = VERTEX_POINT('',#222);
#222 = CARTESIAN_POINT('',(2.032084629532,-126.9,85.807203051954));
#223 = LINE('',#224,#225);
#224 = CARTESIAN_POINT('',(2.032084629532,-126.9,85.807203051954));
#225 = VECTOR('',#226,1.);
#226 = DIRECTION('',(-0.5,-0.866025403784,0.));
#227 = ORIENTED_EDGE('',*,*,#228,.F.);
#228 = EDGE_CURVE('',#229,#221,#231,.T.);
#229 = VERTEX_POINT('',#230);
#230 = CARTESIAN_POINT('',(5.149776083156,-126.9,85.807203051954));
#231 = LINE('',#232,#233);
#232 = CARTESIAN_POINT('',(5.149776083156,-126.9,85.807203051954));
#233 = VECTOR('',#234,1.);
#234 = DIRECTION('',(-1.,0.,0.));
#235 = ORIENTED_EDGE('',*,*,#236,.F.);
#236 = EDGE_CURVE('',#237,#229,#239,.T.);
#237 = VERTEX_POINT('',#238);
#238 = CARTESIAN_POINT('',(6.708621809968,-129.6,85.807203051954));
#239 = LINE('',#240,#241);
#240 = CARTESIAN_POINT('',(6.708621809968,-129.6,85.807203051954));
#241 = VECTOR('',#242,1.);
#242 = DIRECTION('',(-0.5,0.866025403784,0.));
#243 = ORIENTED_EDGE('',*,*,#244,.F.);
#244 = EDGE_CURVE('',#205,#237,#245,.T.);
#245 = LINE('',#246,#247);
#246 = CARTESIAN_POINT('',(5.149776083156,-132.3,85.807203051954));
#247 = VECTOR('',#248,1.);
#248 = DIRECTION('',(0.5,0.866025403784,0.));
#249 = PLANE('',#250);
#250 = AXIS2_PLACEMENT_3D('',#251,#252,#253);
#251 = CARTESIAN_POINT('',(13.090930000004,-130.8227488151,
    85.807203051954));
#252 = DIRECTION('',(-0.,-0.,1.));
#253 = DIRECTION('',(0.,-1.,0.));
#254 = ADVANCED_FACE('',(#255),#274,.T.);
#255 = FACE_BOUND('',#256,.T.);
#256 = EDGE_LOOP('',(#257,#258,#266,#273));
#257 = ORIENTED_EDGE('',*,*,#104,.T.);
#258 = ORIENTED_EDGE('',*,*,#259,.T.);
#259 = EDGE_CURVE('',#97,#260,#262,.T.);
#260 = VERTEX_POINT('',#261);
#261 = CARTESIAN_POINT('',(16.990930000023,-138.6,74.807203051954));
#262 = LINE('',#263,#264);
#263 = CARTESIAN_POINT('',(16.990930000023,-138.6,85.807203051954));
#264 = VECTOR('',#265,1.);
#265 = DIRECTION('',(0.,0.,-1.));
#266 = ORIENTED_EDGE('',*,*,#267,.F.);
#267 = EDGE_CURVE('',#32,#260,#268,.T.);
#268 = CIRCLE('',#269,2.);
#269 = AXIS2_PLACEMENT_3D('',#270,#271,#272);
#270 = CARTESIAN_POINT('',(16.990930000023,-136.6,74.807203051954));
#271 = DIRECTION('',(-0.,0.,-1.));
#272 = DIRECTION('',(0.,1.,0.));
#273 = ORIENTED_EDGE('',*,*,#31,.F.);
#274 = CYLINDRICAL_SURFACE('',#275,2.);
#275 = AXIS2_PLACEMENT_3D('',#276,#277,#278);
#276 = CARTESIAN_POINT('',(16.990930000023,-136.6,85.807203051954));
#277 = DIRECTION('',(0.,0.,-1.));
#278 = DIRECTION('',(1.,0.,0.));
#279 = ADVANCED_FACE('',(#280),#298,.T.);
#280 = FACE_BOUND('',#281,.T.);
#281 = EDGE_LOOP('',(#282,#290,#296,#297));
#282 = ORIENTED_EDGE('',*,*,#283,.T.);
#283 = EDGE_CURVE('',#56,#284,#286,.T.);
#284 = VERTEX_POINT('',#285);
#285 = CARTESIAN_POINT('',(27.190930000002,-134.6,79.807203051954));
#286 = LINE('',#287,#288);
#287 = CARTESIAN_POINT('',(18.990930000023,-134.6,79.807203051954));
#288 = VECTOR('',#289,1.);
#289 = DIRECTION('',(1.,0.,0.));
#290 = ORIENTED_EDGE('',*,*,#291,.T.);
#291 = EDGE_CURVE('',#284,#113,#292,.T.);
#292 = LINE('',#293,#294);
#293 = CARTESIAN_POINT('',(27.190930000002,-134.6,79.807203051954));
#294 = VECTOR('',#295,1.);
#295 = DIRECTION('',(0.,0.,1.));
#296 = ORIENTED_EDGE('',*,*,#112,.F.);
#297 = ORIENTED_EDGE('',*,*,#63,.T.);
#298 = PLANE('',#299);
#299 = AXIS2_PLACEMENT_3D('',#300,#301,#302);
#300 = CARTESIAN_POINT('',(23.090930000013,-134.6,82.807203051954));
#301 = DIRECTION('',(-0.,-1.,0.));
#302 = DIRECTION('',(-1.,0.,0.));
#303 = ADVANCED_FACE('',(#304),#339,.T.);
#304 = FACE_BOUND('',#305,.T.);
#305 = EDGE_LOOP('',(#306,#307,#308,#316,#325,#333));
#306 = ORIENTED_EDGE('',*,*,#39,.T.);
#307 = ORIENTED_EDGE('',*,*,#267,.T.);
#308 = ORIENTED_EDGE('',*,*,#309,.T.);
#309 = EDGE_CURVE('',#260,#310,#312,.T.);
#310 = VERTEX_POINT('',#311);
#311 = CARTESIAN_POINT('',(9.190930000023,-138.6,74.807203051954));
#312 = LINE('',#313,#314);
#313 = CARTESIAN_POINT('',(18.990930000023,-138.6,74.807203051954));
#314 = VECTOR('',#315,1.);
#315 = DIRECTION('',(-1.,0.,0.));
#316 = ORIENTED_EDGE('',*,*,#317,.T.);
#317 = EDGE_CURVE('',#310,#318,#320,.T.);
#318 = VERTEX_POINT('',#319);
#319 = CARTESIAN_POINT('',(7.190930000023,-136.6,74.807203051954));
#320 = CIRCLE('',#321,2.);
#321 = AXIS2_PLACEMENT_3D('',#322,#323,#324);
#322 = CARTESIAN_POINT('',(9.190930000023,-136.6,74.807203051954));
#323 = DIRECTION('',(0.,0.,-1.));
#324 = DIRECTION('',(0.,-1.,-0.));
#325 = ORIENTED_EDGE('',*,*,#326,.F.);
#326 = EDGE_CURVE('',#327,#318,#329,.T.);
#327 = VERTEX_POINT('',#328);
#328 = CARTESIAN_POINT('',(7.190930000023,-124.6,74.807203051954));
#329 = LINE('',#330,#331);
#330 = CARTESIAN_POINT('',(7.190930000023,-134.6,74.807203051954));
#331 = VECTOR('',#332,1.);
#332 = DIRECTION('',(0.,-1.,0.));
#333 = ORIENTED_EDGE('',*,*,#334,.F.);
#334 = EDGE_CURVE('',#40,#327,#335,.T.);
#335 = LINE('',#336,#337);
#336 = CARTESIAN_POINT('',(18.990930000023,-124.6,74.807203051954));
#337 = VECTOR('',#338,1.);
#338 = DIRECTION('',(-1.,0.,0.));
#339 = PLANE('',#340);
#340 = AXIS2_PLACEMENT_3D('',#341,#342,#343);
#341 = CARTESIAN_POINT('',(13.090930000023,-131.6,74.807203051954));
#342 = DIRECTION('',(0.,0.,-1.));
#343 = DIRECTION('',(0.,1.,0.));
#344 = ADVANCED_FACE('',(#345,#363),#374,.T.);
#345 = FACE_BOUND('',#346,.T.);
#346 = EDGE_LOOP('',(#347,#348,#356,#362));
#347 = ORIENTED_EDGE('',*,*,#55,.T.);
#348 = ORIENTED_EDGE('',*,*,#349,.T.);
#349 = EDGE_CURVE('',#48,#350,#352,.T.);
#350 = VERTEX_POINT('',#351);
#351 = CARTESIAN_POINT('',(27.190930000002,-124.6,79.807203051954));
#352 = LINE('',#353,#354);
#353 = CARTESIAN_POINT('',(18.990930000023,-124.6,79.807203051954));
#354 = VECTOR('',#355,1.);
#355 = DIRECTION('',(1.,0.,0.));
#356 = ORIENTED_EDGE('',*,*,#357,.F.);
#357 = EDGE_CURVE('',#284,#350,#358,.T.);
#358 = LINE('',#359,#360);
#359 = CARTESIAN_POINT('',(27.190930000002,-134.6,79.807203051954));
#360 = VECTOR('',#361,1.);
#361 = DIRECTION('',(0.,1.,0.));
#362 = ORIENTED_EDGE('',*,*,#283,.F.);
#363 = FACE_BOUND('',#364,.T.);
#364 = EDGE_LOOP('',(#365));
#365 = ORIENTED_EDGE('',*,*,#366,.F.);
#366 = EDGE_CURVE('',#367,#367,#369,.T.);
#367 = VERTEX_POINT('',#368);
#368 = CARTESIAN_POINT('',(20.990930356344,-129.6,79.807203051954));
#369 = CIRCLE('',#370,1.6);
#370 = AXIS2_PLACEMENT_3D('',#371,#372,#373);
#371 = CARTESIAN_POINT('',(22.590930356344,-129.6,79.807203051954));
#372 = DIRECTION('',(0.,0.,-1.));
#373 = DIRECTION('',(-1.,0.,0.));
#374 = PLANE('',#375);
#375 = AXIS2_PLACEMENT_3D('',#376,#377,#378);
#376 = CARTESIAN_POINT('',(23.090930000013,-129.6,79.807203051954));
#377 = DIRECTION('',(0.,0.,-1.));
#378 = DIRECTION('',(0.,1.,0.));
#379 = ADVANCED_FACE('',(#380,#414),#425,.T.);
#380 = FACE_BOUND('',#381,.T.);
#381 = EDGE_LOOP('',(#382,#383,#384,#385,#393,#401,#407,#408));
#382 = ORIENTED_EDGE('',*,*,#349,.F.);
#383 = ORIENTED_EDGE('',*,*,#47,.T.);
#384 = ORIENTED_EDGE('',*,*,#334,.T.);
#385 = ORIENTED_EDGE('',*,*,#386,.T.);
#386 = EDGE_CURVE('',#327,#387,#389,.T.);
#387 = VERTEX_POINT('',#388);
#388 = CARTESIAN_POINT('',(7.190930000023,-124.6,79.807203051954));
#389 = LINE('',#390,#391);
#390 = CARTESIAN_POINT('',(7.190930000023,-124.6,74.807203051954));
#391 = VECTOR('',#392,1.);
#392 = DIRECTION('',(0.,0.,1.));
#393 = ORIENTED_EDGE('',*,*,#394,.T.);
#394 = EDGE_CURVE('',#387,#395,#397,.T.);
#395 = VERTEX_POINT('',#396);
#396 = CARTESIAN_POINT('',(-1.009069999998,-124.6,79.807203051954));
#397 = LINE('',#398,#399);
#398 = CARTESIAN_POINT('',(7.190930000023,-124.6,79.807203051954));
#399 = VECTOR('',#400,1.);
#400 = DIRECTION('',(-1.,0.,0.));
#401 = ORIENTED_EDGE('',*,*,#402,.T.);
#402 = EDGE_CURVE('',#395,#129,#403,.T.);
#403 = LINE('',#404,#405);
#404 = CARTESIAN_POINT('',(-1.009069999998,-124.6,79.807203051954));
#405 = VECTOR('',#406,1.);
#406 = DIRECTION('',(0.,0.,1.));
#407 = ORIENTED_EDGE('',*,*,#128,.T.);
#408 = ORIENTED_EDGE('',*,*,#409,.F.);
#409 = EDGE_CURVE('',#350,#121,#410,.T.);
#410 = LINE('',#411,#412);
#411 = CARTESIAN_POINT('',(27.190930000002,-124.6,79.807203051954));
#412 = VECTOR('',#413,1.);
#413 = DIRECTION('',(0.,0.,1.));
#414 = FACE_BOUND('',#415,.T.);
#415 = EDGE_LOOP('',(#416));
#416 = ORIENTED_EDGE('',*,*,#417,.T.);
#417 = EDGE_CURVE('',#418,#418,#420,.T.);
#418 = VERTEX_POINT('',#419);
#419 = CARTESIAN_POINT('',(15.190930000023,-124.6,79.807203051954));
#420 = CIRCLE('',#421,2.1);
#421 = AXIS2_PLACEMENT_3D('',#422,#423,#424);
#422 = CARTESIAN_POINT('',(13.090930000023,-124.6,79.807203051954));
#423 = DIRECTION('',(0.,-1.,0.));
#424 = DIRECTION('',(1.,0.,0.));
#425 = PLANE('',#426);
#426 = AXIS2_PLACEMENT_3D('',#427,#428,#429);
#427 = CARTESIAN_POINT('',(13.090930000004,-124.6,81.353121419301));
#428 = DIRECTION('',(0.,1.,0.));
#429 = DIRECTION('',(1.,0.,0.));
#430 = ADVANCED_FACE('',(#431),#456,.T.);
#431 = FACE_BOUND('',#432,.T.);
#432 = EDGE_LOOP('',(#433,#434,#440,#441,#449,#455));
#433 = ORIENTED_EDGE('',*,*,#326,.T.);
#434 = ORIENTED_EDGE('',*,*,#435,.T.);
#435 = EDGE_CURVE('',#318,#80,#436,.T.);
#436 = LINE('',#437,#438);
#437 = CARTESIAN_POINT('',(7.190930000023,-136.6,74.807203051954));
#438 = VECTOR('',#439,1.);
#439 = DIRECTION('',(0.,0.,1.));
#440 = ORIENTED_EDGE('',*,*,#77,.F.);
#441 = ORIENTED_EDGE('',*,*,#442,.F.);
#442 = EDGE_CURVE('',#443,#78,#445,.T.);
#443 = VERTEX_POINT('',#444);
#444 = CARTESIAN_POINT('',(7.190930000023,-134.6,79.807203051954));
#445 = LINE('',#446,#447);
#446 = CARTESIAN_POINT('',(7.190930000023,-134.6,74.807203051954));
#447 = VECTOR('',#448,1.);
#448 = DIRECTION('',(0.,0.,1.));
#449 = ORIENTED_EDGE('',*,*,#450,.T.);
#450 = EDGE_CURVE('',#443,#387,#451,.T.);
#451 = LINE('',#452,#453);
#452 = CARTESIAN_POINT('',(7.190930000023,-134.6,79.807203051954));
#453 = VECTOR('',#454,1.);
#454 = DIRECTION('',(0.,1.,0.));
#455 = ORIENTED_EDGE('',*,*,#386,.F.);
#456 = PLANE('',#457);
#457 = AXIS2_PLACEMENT_3D('',#458,#459,#460);
#458 = CARTESIAN_POINT('',(7.190930000023,-132.8,79.107203051954));
#459 = DIRECTION('',(-1.,-0.,0.));
#460 = DIRECTION('',(0.,-1.,0.));
#461 = ADVANCED_FACE('',(#462),#473,.T.);
#462 = FACE_BOUND('',#463,.F.);
#463 = EDGE_LOOP('',(#464,#465,#466,#467));
#464 = ORIENTED_EDGE('',*,*,#317,.T.);
#465 = ORIENTED_EDGE('',*,*,#435,.T.);
#466 = ORIENTED_EDGE('',*,*,#87,.F.);
#467 = ORIENTED_EDGE('',*,*,#468,.F.);
#468 = EDGE_CURVE('',#310,#88,#469,.T.);
#469 = LINE('',#470,#471);
#470 = CARTESIAN_POINT('',(9.190930000023,-138.6,74.807203051954));
#471 = VECTOR('',#472,1.);
#472 = DIRECTION('',(0.,0.,1.));
#473 = CYLINDRICAL_SURFACE('',#474,2.);
#474 = AXIS2_PLACEMENT_3D('',#475,#476,#477);
#475 = CARTESIAN_POINT('',(9.190930000023,-136.6,74.807203051954));
#476 = DIRECTION('',(0.,0.,1.));
#477 = DIRECTION('',(0.,-1.,0.));
#478 = ADVANCED_FACE('',(#479),#497,.T.);
#479 = FACE_BOUND('',#480,.T.);
#480 = EDGE_LOOP('',(#481,#489,#495,#496));
#481 = ORIENTED_EDGE('',*,*,#482,.F.);
#482 = EDGE_CURVE('',#483,#137,#485,.T.);
#483 = VERTEX_POINT('',#484);
#484 = CARTESIAN_POINT('',(-1.009069999998,-134.6,79.807203051954));
#485 = LINE('',#486,#487);
#486 = CARTESIAN_POINT('',(-1.009069999998,-134.6,79.807203051954));
#487 = VECTOR('',#488,1.);
#488 = DIRECTION('',(0.,0.,1.));
#489 = ORIENTED_EDGE('',*,*,#490,.F.);
#490 = EDGE_CURVE('',#443,#483,#491,.T.);
#491 = LINE('',#492,#493);
#492 = CARTESIAN_POINT('',(7.190930000023,-134.6,79.807203051954));
#493 = VECTOR('',#494,1.);
#494 = DIRECTION('',(-1.,0.,0.));
#495 = ORIENTED_EDGE('',*,*,#442,.T.);
#496 = ORIENTED_EDGE('',*,*,#144,.F.);
#497 = PLANE('',#498);
#498 = AXIS2_PLACEMENT_3D('',#499,#500,#501);
#499 = CARTESIAN_POINT('',(3.090930000013,-134.6,82.807203051954));
#500 = DIRECTION('',(-0.,-1.,0.));
#501 = DIRECTION('',(-1.,0.,0.));
#502 = ADVANCED_FACE('',(#503,#509),#520,.F.);
#503 = FACE_BOUND('',#504,.F.);
#504 = EDGE_LOOP('',(#505,#506,#507,#508));
#505 = ORIENTED_EDGE('',*,*,#309,.T.);
#506 = ORIENTED_EDGE('',*,*,#468,.T.);
#507 = ORIENTED_EDGE('',*,*,#96,.T.);
#508 = ORIENTED_EDGE('',*,*,#259,.T.);
#509 = FACE_BOUND('',#510,.F.);
#510 = EDGE_LOOP('',(#511));
#511 = ORIENTED_EDGE('',*,*,#512,.T.);
#512 = EDGE_CURVE('',#513,#513,#515,.T.);
#513 = VERTEX_POINT('',#514);
#514 = CARTESIAN_POINT('',(15.190930000023,-138.6,79.807203051954));
#515 = CIRCLE('',#516,2.1);
#516 = AXIS2_PLACEMENT_3D('',#517,#518,#519);
#517 = CARTESIAN_POINT('',(13.090930000023,-138.6,79.807203051954));
#518 = DIRECTION('',(0.,-1.,0.));
#519 = DIRECTION('',(1.,0.,0.));
#520 = PLANE('',#521);
#521 = AXIS2_PLACEMENT_3D('',#522,#523,#524);
#522 = CARTESIAN_POINT('',(13.090930000023,-138.6,80.307203051954));
#523 = DIRECTION('',(0.,1.,0.));
#524 = DIRECTION('',(1.,0.,0.));
#525 = ADVANCED_FACE('',(#526),#537,.T.);
#526 = FACE_BOUND('',#527,.T.);
#527 = EDGE_LOOP('',(#528,#529,#530,#531));
#528 = ORIENTED_EDGE('',*,*,#482,.T.);
#529 = ORIENTED_EDGE('',*,*,#136,.T.);
#530 = ORIENTED_EDGE('',*,*,#402,.F.);
#531 = ORIENTED_EDGE('',*,*,#532,.F.);
#532 = EDGE_CURVE('',#483,#395,#533,.T.);
#533 = LINE('',#534,#535);
#534 = CARTESIAN_POINT('',(-1.009069999998,-134.6,79.807203051954));
#535 = VECTOR('',#536,1.);
#536 = DIRECTION('',(0.,1.,0.));
#537 = PLANE('',#538);
#538 = AXIS2_PLACEMENT_3D('',#539,#540,#541);
#539 = CARTESIAN_POINT('',(-1.009069999998,-129.6,82.807203051954));
#540 = DIRECTION('',(-1.,-0.,0.));
#541 = DIRECTION('',(0.,-1.,0.));
#542 = ADVANCED_FACE('',(#543),#549,.T.);
#543 = FACE_BOUND('',#544,.T.);
#544 = EDGE_LOOP('',(#545,#546,#547,#548));
#545 = ORIENTED_EDGE('',*,*,#291,.F.);
#546 = ORIENTED_EDGE('',*,*,#357,.T.);
#547 = ORIENTED_EDGE('',*,*,#409,.T.);
#548 = ORIENTED_EDGE('',*,*,#120,.F.);
#549 = PLANE('',#550);
#550 = AXIS2_PLACEMENT_3D('',#551,#552,#553);
#551 = CARTESIAN_POINT('',(27.190930000002,-129.6,82.807203051954));
#552 = DIRECTION('',(1.,0.,0.));
#553 = DIRECTION('',(0.,1.,0.));
#554 = ADVANCED_FACE('',(#555),#580,.F.);
#555 = FACE_BOUND('',#556,.F.);
#556 = EDGE_LOOP('',(#557,#558,#566,#574));
#557 = ORIENTED_EDGE('',*,*,#152,.F.);
#558 = ORIENTED_EDGE('',*,*,#559,.T.);
#559 = EDGE_CURVE('',#153,#560,#562,.T.);
#560 = VERTEX_POINT('',#561);
#561 = CARTESIAN_POINT('',(19.47323890272,-129.6,81.807203051954));
#562 = LINE('',#563,#564);
#563 = CARTESIAN_POINT('',(19.47323890272,-129.6,85.807203051954));
#564 = VECTOR('',#565,1.);
#565 = DIRECTION('',(0.,-2.2E-16,-1.));
#566 = ORIENTED_EDGE('',*,*,#567,.F.);
#567 = EDGE_CURVE('',#568,#560,#570,.T.);
#568 = VERTEX_POINT('',#569);
#569 = CARTESIAN_POINT('',(21.032084629532,-132.3,81.807203051954));
#570 = LINE('',#571,#572);
#571 = CARTESIAN_POINT('',(19.35541853515,-129.3959291372,
    81.807203051954));
#572 = VECTOR('',#573,1.);
#573 = DIRECTION('',(-0.5,0.866025403784,2.5E-16));
#574 = ORIENTED_EDGE('',*,*,#575,.F.);
#575 = EDGE_CURVE('',#155,#568,#576,.T.);
#576 = LINE('',#577,#578);
#577 = CARTESIAN_POINT('',(21.032084629532,-132.3,85.807203051954));
#578 = VECTOR('',#579,1.);
#579 = DIRECTION('',(0.,-2.2E-16,-1.));
#580 = PLANE('',#581);
#581 = AXIS2_PLACEMENT_3D('',#582,#583,#584);
#582 = CARTESIAN_POINT('',(19.47323890272,-129.6,85.807203051954));
#583 = DIRECTION('',(-0.866025403784,-0.5,1.1E-16));
#584 = DIRECTION('',(0.5,-0.866025403784,1.9E-16));
#585 = ADVANCED_FACE('',(#586),#604,.F.);
#586 = FACE_BOUND('',#587,.F.);
#587 = EDGE_LOOP('',(#588,#589,#597,#603));
#588 = ORIENTED_EDGE('',*,*,#162,.F.);
#589 = ORIENTED_EDGE('',*,*,#590,.T.);
#590 = EDGE_CURVE('',#163,#591,#593,.T.);
#591 = VERTEX_POINT('',#592);
#592 = CARTESIAN_POINT('',(21.032084629532,-126.9,81.807203051954));
#593 = LINE('',#594,#595);
#594 = CARTESIAN_POINT('',(21.032084629532,-126.9,85.807203051954));
#595 = VECTOR('',#596,1.);
#596 = DIRECTION('',(0.,-2.2E-16,-1.));
#597 = ORIENTED_EDGE('',*,*,#598,.F.);
#598 = EDGE_CURVE('',#560,#591,#599,.T.);
#599 = LINE('',#600,#601);
#600 = CARTESIAN_POINT('',(22.299904908017,-124.7040708627,
    81.807203051954));
#601 = VECTOR('',#602,1.);
#602 = DIRECTION('',(0.5,0.866025403784,1.4E-16));
#603 = ORIENTED_EDGE('',*,*,#559,.F.);
#604 = PLANE('',#605);
#605 = AXIS2_PLACEMENT_3D('',#606,#607,#608);
#606 = CARTESIAN_POINT('',(21.032084629532,-126.9,85.807203051954));
#607 = DIRECTION('',(-0.866025403784,0.5,-1.1E-16));
#608 = DIRECTION('',(-0.5,-0.866025403784,1.9E-16));
#609 = ADVANCED_FACE('',(#610),#628,.F.);
#610 = FACE_BOUND('',#611,.F.);
#611 = EDGE_LOOP('',(#612,#613,#621,#627));
#612 = ORIENTED_EDGE('',*,*,#170,.F.);
#613 = ORIENTED_EDGE('',*,*,#614,.T.);
#614 = EDGE_CURVE('',#171,#615,#617,.T.);
#615 = VERTEX_POINT('',#616);
#616 = CARTESIAN_POINT('',(24.149776083156,-126.9,81.807203051954));
#617 = LINE('',#618,#619);
#618 = CARTESIAN_POINT('',(24.149776083156,-126.9,85.807203051954));
#619 = VECTOR('',#620,1.);
#620 = DIRECTION('',(0.,-2.2E-16,-1.));
#621 = ORIENTED_EDGE('',*,*,#622,.F.);
#622 = EDGE_CURVE('',#591,#615,#623,.T.);
#623 = LINE('',#624,#625);
#624 = CARTESIAN_POINT('',(25.670353041579,-126.9,81.807203051954));
#625 = VECTOR('',#626,1.);
#626 = DIRECTION('',(1.,2.8E-16,-1.1E-16));
#627 = ORIENTED_EDGE('',*,*,#590,.F.);
#628 = PLANE('',#629);
#629 = AXIS2_PLACEMENT_3D('',#630,#631,#632);
#630 = CARTESIAN_POINT('',(24.149776083156,-126.9,85.807203051954));
#631 = DIRECTION('',(-2.8E-16,1.,-2.2E-16));
#632 = DIRECTION('',(-1.,-2.8E-16,-0.));
#633 = ADVANCED_FACE('',(#634),#652,.F.);
#634 = FACE_BOUND('',#635,.F.);
#635 = EDGE_LOOP('',(#636,#637,#645,#651));
#636 = ORIENTED_EDGE('',*,*,#178,.F.);
#637 = ORIENTED_EDGE('',*,*,#638,.T.);
#638 = EDGE_CURVE('',#179,#639,#641,.T.);
#639 = VERTEX_POINT('',#640);
#640 = CARTESIAN_POINT('',(25.708621809968,-129.6,81.807203051954));
#641 = LINE('',#642,#643);
#642 = CARTESIAN_POINT('',(25.708621809968,-129.6,85.807203051954));
#643 = VECTOR('',#644,1.);
#644 = DIRECTION('',(0.,-2.2E-16,-1.));
#645 = ORIENTED_EDGE('',*,*,#646,.F.);
#646 = EDGE_CURVE('',#615,#639,#647,.T.);
#647 = LINE('',#648,#649);
#648 = CARTESIAN_POINT('',(24.811378578992,-128.0459291372,
    81.807203051954));
#649 = VECTOR('',#650,1.);
#650 = DIRECTION('',(0.5,-0.866025403784,-2.5E-16));
#651 = ORIENTED_EDGE('',*,*,#614,.F.);
#652 = PLANE('',#653);
#653 = AXIS2_PLACEMENT_3D('',#654,#655,#656);
#654 = CARTESIAN_POINT('',(25.708621809968,-129.6,85.807203051954));
#655 = DIRECTION('',(0.866025403784,0.5,-1.1E-16));
#656 = DIRECTION('',(-0.5,0.866025403784,-1.9E-16));
#657 = ADVANCED_FACE('',(#658),#676,.F.);
#658 = FACE_BOUND('',#659,.F.);
#659 = EDGE_LOOP('',(#660,#661,#669,#675));
#660 = ORIENTED_EDGE('',*,*,#186,.F.);
#661 = ORIENTED_EDGE('',*,*,#662,.T.);
#662 = EDGE_CURVE('',#187,#663,#665,.T.);
#663 = VERTEX_POINT('',#664);
#664 = CARTESIAN_POINT('',(24.149776083156,-132.3,81.807203051954));
#665 = LINE('',#666,#667);
#666 = CARTESIAN_POINT('',(24.149776083156,-132.3,85.807203051954));
#667 = VECTOR('',#668,1.);
#668 = DIRECTION('',(0.,-2.2E-16,-1.));
#669 = ORIENTED_EDGE('',*,*,#670,.F.);
#670 = EDGE_CURVE('',#639,#663,#671,.T.);
#671 = LINE('',#672,#673);
#672 = CARTESIAN_POINT('',(26.197019225047,-128.7540708627,
    81.807203051954));
#673 = VECTOR('',#674,1.);
#674 = DIRECTION('',(-0.5,-0.866025403784,-1.4E-16));
#675 = ORIENTED_EDGE('',*,*,#638,.F.);
#676 = PLANE('',#677);
#677 = AXIS2_PLACEMENT_3D('',#678,#679,#680);
#678 = CARTESIAN_POINT('',(24.149776083156,-132.3,85.807203051954));
#679 = DIRECTION('',(0.866025403784,-0.5,1.1E-16));
#680 = DIRECTION('',(0.5,0.866025403784,-1.9E-16));
#681 = ADVANCED_FACE('',(#682),#693,.F.);
#682 = FACE_BOUND('',#683,.F.);
#683 = EDGE_LOOP('',(#684,#685,#686,#692));
#684 = ORIENTED_EDGE('',*,*,#194,.F.);
#685 = ORIENTED_EDGE('',*,*,#575,.T.);
#686 = ORIENTED_EDGE('',*,*,#687,.F.);
#687 = EDGE_CURVE('',#663,#568,#688,.T.);
#688 = LINE('',#689,#690);
#689 = CARTESIAN_POINT('',(24.111507314767,-132.3,81.807203051954));
#690 = VECTOR('',#691,1.);
#691 = DIRECTION('',(-1.,0.,1.1E-16));
#692 = ORIENTED_EDGE('',*,*,#662,.F.);
#693 = PLANE('',#694);
#694 = AXIS2_PLACEMENT_3D('',#695,#696,#697);
#695 = CARTESIAN_POINT('',(21.032084629532,-132.3,85.807203051954));
#696 = DIRECTION('',(0.,-1.,2.2E-16));
#697 = DIRECTION('',(1.,0.,0.));
#698 = ADVANCED_FACE('',(#699),#724,.F.);
#699 = FACE_BOUND('',#700,.F.);
#700 = EDGE_LOOP('',(#701,#702,#710,#718));
#701 = ORIENTED_EDGE('',*,*,#202,.F.);
#702 = ORIENTED_EDGE('',*,*,#703,.T.);
#703 = EDGE_CURVE('',#203,#704,#706,.T.);
#704 = VERTEX_POINT('',#705);
#705 = CARTESIAN_POINT('',(2.032084629532,-132.3,81.807203051954));
#706 = LINE('',#707,#708);
#707 = CARTESIAN_POINT('',(2.032084629532,-132.3,85.807203051954));
#708 = VECTOR('',#709,1.);
#709 = DIRECTION('',(0.,-2.2E-16,-1.));
#710 = ORIENTED_EDGE('',*,*,#711,.F.);
#711 = EDGE_CURVE('',#712,#704,#714,.T.);
#712 = VERTEX_POINT('',#713);
#713 = CARTESIAN_POINT('',(5.149776083156,-132.3,81.807203051954));
#714 = LINE('',#715,#716);
#715 = CARTESIAN_POINT('',(14.611507314767,-132.3,81.807203051954));
#716 = VECTOR('',#717,1.);
#717 = DIRECTION('',(-1.,0.,1.1E-16));
#718 = ORIENTED_EDGE('',*,*,#719,.F.);
#719 = EDGE_CURVE('',#205,#712,#720,.T.);
#720 = LINE('',#721,#722);
#721 = CARTESIAN_POINT('',(5.149776083156,-132.3,85.807203051954));
#722 = VECTOR('',#723,1.);
#723 = DIRECTION('',(0.,-2.2E-16,-1.));
#724 = PLANE('',#725);
#725 = AXIS2_PLACEMENT_3D('',#726,#727,#728);
#726 = CARTESIAN_POINT('',(2.032084629532,-132.3,85.807203051954));
#727 = DIRECTION('',(0.,-1.,2.2E-16));
#728 = DIRECTION('',(1.,0.,0.));
#729 = ADVANCED_FACE('',(#730),#748,.F.);
#730 = FACE_BOUND('',#731,.F.);
#731 = EDGE_LOOP('',(#732,#733,#741,#747));
#732 = ORIENTED_EDGE('',*,*,#212,.F.);
#733 = ORIENTED_EDGE('',*,*,#734,.T.);
#734 = EDGE_CURVE('',#213,#735,#737,.T.);
#735 = VERTEX_POINT('',#736);
#736 = CARTESIAN_POINT('',(0.47323890272,-129.6,81.807203051954));
#737 = LINE('',#738,#739);
#738 = CARTESIAN_POINT('',(0.47323890272,-129.6,85.807203051954));
#739 = VECTOR('',#740,1.);
#740 = DIRECTION('',(0.,-2.2E-16,-1.));
#741 = ORIENTED_EDGE('',*,*,#742,.F.);
#742 = EDGE_CURVE('',#704,#735,#743,.T.);
#743 = LINE('',#744,#745);
#744 = CARTESIAN_POINT('',(2.73041853515,-133.5095498051,81.807203051954
    ));
#745 = VECTOR('',#746,1.);
#746 = DIRECTION('',(-0.5,0.866025403784,2.5E-16));
#747 = ORIENTED_EDGE('',*,*,#703,.F.);
#748 = PLANE('',#749);
#749 = AXIS2_PLACEMENT_3D('',#750,#751,#752);
#750 = CARTESIAN_POINT('',(0.47323890272,-129.6,85.807203051954));
#751 = DIRECTION('',(-0.866025403784,-0.5,1.1E-16));
#752 = DIRECTION('',(0.5,-0.866025403784,1.9E-16));
#753 = ADVANCED_FACE('',(#754),#772,.F.);
#754 = FACE_BOUND('',#755,.F.);
#755 = EDGE_LOOP('',(#756,#757,#765,#771));
#756 = ORIENTED_EDGE('',*,*,#220,.F.);
#757 = ORIENTED_EDGE('',*,*,#758,.T.);
#758 = EDGE_CURVE('',#221,#759,#761,.T.);
#759 = VERTEX_POINT('',#760);
#760 = CARTESIAN_POINT('',(2.032084629532,-126.9,81.807203051954));
#761 = LINE('',#762,#763);
#762 = CARTESIAN_POINT('',(2.032084629532,-126.9,85.807203051954));
#763 = VECTOR('',#764,1.);
#764 = DIRECTION('',(0.,-2.2E-16,-1.));
#765 = ORIENTED_EDGE('',*,*,#766,.F.);
#766 = EDGE_CURVE('',#735,#759,#767,.T.);
#767 = LINE('',#768,#769);
#768 = CARTESIAN_POINT('',(5.674904908017,-120.5904501948,
    81.807203051954));
#769 = VECTOR('',#770,1.);
#770 = DIRECTION('',(0.5,0.866025403784,1.4E-16));
#771 = ORIENTED_EDGE('',*,*,#734,.F.);
#772 = PLANE('',#773);
#773 = AXIS2_PLACEMENT_3D('',#774,#775,#776);
#774 = CARTESIAN_POINT('',(2.032084629532,-126.9,85.807203051954));
#775 = DIRECTION('',(-0.866025403784,0.5,-1.1E-16));
#776 = DIRECTION('',(-0.5,-0.866025403784,1.9E-16));
#777 = ADVANCED_FACE('',(#778),#796,.F.);
#778 = FACE_BOUND('',#779,.F.);
#779 = EDGE_LOOP('',(#780,#781,#789,#795));
#780 = ORIENTED_EDGE('',*,*,#228,.F.);
#781 = ORIENTED_EDGE('',*,*,#782,.T.);
#782 = EDGE_CURVE('',#229,#783,#785,.T.);
#783 = VERTEX_POINT('',#784);
#784 = CARTESIAN_POINT('',(5.149776083156,-126.9,81.807203051954));
#785 = LINE('',#786,#787);
#786 = CARTESIAN_POINT('',(5.149776083156,-126.9,85.807203051954));
#787 = VECTOR('',#788,1.);
#788 = DIRECTION('',(0.,-2.2E-16,-1.));
#789 = ORIENTED_EDGE('',*,*,#790,.F.);
#790 = EDGE_CURVE('',#759,#783,#791,.T.);
#791 = LINE('',#792,#793);
#792 = CARTESIAN_POINT('',(16.170353041579,-126.9,81.807203051954));
#793 = VECTOR('',#794,1.);
#794 = DIRECTION('',(1.,0.,-1.1E-16));
#795 = ORIENTED_EDGE('',*,*,#758,.F.);
#796 = PLANE('',#797);
#797 = AXIS2_PLACEMENT_3D('',#798,#799,#800);
#798 = CARTESIAN_POINT('',(5.149776083156,-126.9,85.807203051954));
#799 = DIRECTION('',(0.,1.,-2.2E-16));
#800 = DIRECTION('',(-1.,0.,0.));
#801 = ADVANCED_FACE('',(#802),#820,.F.);
#802 = FACE_BOUND('',#803,.F.);
#803 = EDGE_LOOP('',(#804,#805,#813,#819));
#804 = ORIENTED_EDGE('',*,*,#236,.F.);
#805 = ORIENTED_EDGE('',*,*,#806,.T.);
#806 = EDGE_CURVE('',#237,#807,#809,.T.);
#807 = VERTEX_POINT('',#808);
#808 = CARTESIAN_POINT('',(6.708621809968,-129.6,81.807203051954));
#809 = LINE('',#810,#811);
#810 = CARTESIAN_POINT('',(6.708621809968,-129.6,85.807203051954));
#811 = VECTOR('',#812,1.);
#812 = DIRECTION('',(0.,-2.2E-16,-1.));
#813 = ORIENTED_EDGE('',*,*,#814,.F.);
#814 = EDGE_CURVE('',#783,#807,#815,.T.);
#815 = LINE('',#816,#817);
#816 = CARTESIAN_POINT('',(8.186378578992,-132.1595498051,
    81.807203051954));
#817 = VECTOR('',#818,1.);
#818 = DIRECTION('',(0.5,-0.866025403784,-2.5E-16));
#819 = ORIENTED_EDGE('',*,*,#782,.F.);
#820 = PLANE('',#821);
#821 = AXIS2_PLACEMENT_3D('',#822,#823,#824);
#822 = CARTESIAN_POINT('',(6.708621809968,-129.6,85.807203051954));
#823 = DIRECTION('',(0.866025403784,0.5,-1.1E-16));
#824 = DIRECTION('',(-0.5,0.866025403784,-1.9E-16));
#825 = ADVANCED_FACE('',(#826),#837,.F.);
#826 = FACE_BOUND('',#827,.F.);
#827 = EDGE_LOOP('',(#828,#829,#830,#836));
#828 = ORIENTED_EDGE('',*,*,#244,.F.);
#829 = ORIENTED_EDGE('',*,*,#719,.T.);
#830 = ORIENTED_EDGE('',*,*,#831,.F.);
#831 = EDGE_CURVE('',#807,#712,#832,.T.);
#832 = LINE('',#833,#834);
#833 = CARTESIAN_POINT('',(9.572019225047,-124.6404501948,
    81.807203051954));
#834 = VECTOR('',#835,1.);
#835 = DIRECTION('',(-0.5,-0.866025403784,-1.4E-16));
#836 = ORIENTED_EDGE('',*,*,#806,.F.);
#837 = PLANE('',#838);
#838 = AXIS2_PLACEMENT_3D('',#839,#840,#841);
#839 = CARTESIAN_POINT('',(5.149776083156,-132.3,85.807203051954));
#840 = DIRECTION('',(0.866025403784,-0.5,1.1E-16));
#841 = DIRECTION('',(0.5,0.866025403784,-1.9E-16));
#842 = ADVANCED_FACE('',(#843),#862,.F.);
#843 = FACE_BOUND('',#844,.F.);
#844 = EDGE_LOOP('',(#845,#846,#854,#861));
#845 = ORIENTED_EDGE('',*,*,#366,.F.);
#846 = ORIENTED_EDGE('',*,*,#847,.T.);
#847 = EDGE_CURVE('',#367,#848,#850,.T.);
#848 = VERTEX_POINT('',#849);
#849 = CARTESIAN_POINT('',(20.990930356344,-129.6,81.807203051954));
#850 = LINE('',#851,#852);
#851 = CARTESIAN_POINT('',(20.990930356344,-129.6,79.807203051954));
#852 = VECTOR('',#853,1.);
#853 = DIRECTION('',(0.,2.2E-16,1.));
#854 = ORIENTED_EDGE('',*,*,#855,.T.);
#855 = EDGE_CURVE('',#848,#848,#856,.T.);
#856 = CIRCLE('',#857,1.6);
#857 = AXIS2_PLACEMENT_3D('',#858,#859,#860);
#858 = CARTESIAN_POINT('',(22.590930356344,-129.6,81.807203051954));
#859 = DIRECTION('',(-0.,-2.2E-16,-1.));
#860 = DIRECTION('',(-1.,0.,0.));
#861 = ORIENTED_EDGE('',*,*,#847,.F.);
#862 = CYLINDRICAL_SURFACE('',#863,1.6);
#863 = AXIS2_PLACEMENT_3D('',#864,#865,#866);
#864 = CARTESIAN_POINT('',(22.590930356344,-129.6,79.807203051954));
#865 = DIRECTION('',(0.,-2.2E-16,-1.));
#866 = DIRECTION('',(-1.,0.,0.));
#867 = ADVANCED_FACE('',(#868,#874),#885,.T.);
#868 = FACE_BOUND('',#869,.T.);
#869 = EDGE_LOOP('',(#870,#871,#872,#873));
#870 = ORIENTED_EDGE('',*,*,#450,.F.);
#871 = ORIENTED_EDGE('',*,*,#490,.T.);
#872 = ORIENTED_EDGE('',*,*,#532,.T.);
#873 = ORIENTED_EDGE('',*,*,#394,.F.);
#874 = FACE_BOUND('',#875,.T.);
#875 = EDGE_LOOP('',(#876));
#876 = ORIENTED_EDGE('',*,*,#877,.F.);
#877 = EDGE_CURVE('',#878,#878,#880,.T.);
#878 = VERTEX_POINT('',#879);
#879 = CARTESIAN_POINT('',(1.990930356354,-129.6,79.807203051954));
#880 = CIRCLE('',#881,1.6);
#881 = AXIS2_PLACEMENT_3D('',#882,#883,#884);
#882 = CARTESIAN_POINT('',(3.590930356354,-129.6,79.807203051954));
#883 = DIRECTION('',(0.,0.,-1.));
#884 = DIRECTION('',(-1.,0.,0.));
#885 = PLANE('',#886);
#886 = AXIS2_PLACEMENT_3D('',#887,#888,#889);
#887 = CARTESIAN_POINT('',(3.090930000013,-129.6,79.807203051954));
#888 = DIRECTION('',(0.,0.,-1.));
#889 = DIRECTION('',(0.,1.,0.));
#890 = ADVANCED_FACE('',(#891),#902,.F.);
#891 = FACE_BOUND('',#892,.F.);
#892 = EDGE_LOOP('',(#893,#894,#900,#901));
#893 = ORIENTED_EDGE('',*,*,#512,.F.);
#894 = ORIENTED_EDGE('',*,*,#895,.T.);
#895 = EDGE_CURVE('',#513,#418,#896,.T.);
#896 = LINE('',#897,#898);
#897 = CARTESIAN_POINT('',(15.190930000023,-138.6,79.807203051954));
#898 = VECTOR('',#899,1.);
#899 = DIRECTION('',(0.,1.,0.));
#900 = ORIENTED_EDGE('',*,*,#417,.T.);
#901 = ORIENTED_EDGE('',*,*,#895,.F.);
#902 = CYLINDRICAL_SURFACE('',#903,2.1);
#903 = AXIS2_PLACEMENT_3D('',#904,#905,#906);
#904 = CARTESIAN_POINT('',(13.090930000023,-138.6,79.807203051954));
#905 = DIRECTION('',(0.,-1.,0.));
#906 = DIRECTION('',(1.,0.,0.));
#907 = ADVANCED_FACE('',(#908,#916),#919,.T.);
#908 = FACE_BOUND('',#909,.T.);
#909 = EDGE_LOOP('',(#910,#911,#912,#913,#914,#915));
#910 = ORIENTED_EDGE('',*,*,#567,.F.);
#911 = ORIENTED_EDGE('',*,*,#687,.F.);
#912 = ORIENTED_EDGE('',*,*,#670,.F.);
#913 = ORIENTED_EDGE('',*,*,#646,.F.);
#914 = ORIENTED_EDGE('',*,*,#622,.F.);
#915 = ORIENTED_EDGE('',*,*,#598,.F.);
#916 = FACE_BOUND('',#917,.T.);
#917 = EDGE_LOOP('',(#918));
#918 = ORIENTED_EDGE('',*,*,#855,.T.);
#919 = PLANE('',#920);
#920 = AXIS2_PLACEMENT_3D('',#921,#922,#923);
#921 = CARTESIAN_POINT('',(27.190930000002,-124.6,81.807203051954));
#922 = DIRECTION('',(1.1E-16,-2.2E-16,1.));
#923 = DIRECTION('',(-2.2E-16,-1.,-2.2E-16));
#924 = ADVANCED_FACE('',(#925,#933),#944,.T.);
#925 = FACE_BOUND('',#926,.T.);
#926 = EDGE_LOOP('',(#927,#928,#929,#930,#931,#932));
#927 = ORIENTED_EDGE('',*,*,#831,.F.);
#928 = ORIENTED_EDGE('',*,*,#814,.F.);
#929 = ORIENTED_EDGE('',*,*,#790,.F.);
#930 = ORIENTED_EDGE('',*,*,#766,.F.);
#931 = ORIENTED_EDGE('',*,*,#742,.F.);
#932 = ORIENTED_EDGE('',*,*,#711,.F.);
#933 = FACE_BOUND('',#934,.T.);
#934 = EDGE_LOOP('',(#935));
#935 = ORIENTED_EDGE('',*,*,#936,.T.);
#936 = EDGE_CURVE('',#937,#937,#939,.T.);
#937 = VERTEX_POINT('',#938);
#938 = CARTESIAN_POINT('',(1.990930356354,-129.6,81.807203051954));
#939 = CIRCLE('',#940,1.6);
#940 = AXIS2_PLACEMENT_3D('',#941,#942,#943);
#941 = CARTESIAN_POINT('',(3.590930356354,-129.6,81.807203051954));
#942 = DIRECTION('',(-0.,-2.2E-16,-1.));
#943 = DIRECTION('',(-1.,0.,0.));
#944 = PLANE('',#945);
#945 = AXIS2_PLACEMENT_3D('',#946,#947,#948);
#946 = CARTESIAN_POINT('',(27.190930000002,-124.6,81.807203051954));
#947 = DIRECTION('',(1.1E-16,-2.2E-16,1.));
#948 = DIRECTION('',(-2.2E-16,-1.,-2.2E-16));
#949 = ADVANCED_FACE('',(#950),#961,.F.);
#950 = FACE_BOUND('',#951,.F.);
#951 = EDGE_LOOP('',(#952,#953,#959,#960));
#952 = ORIENTED_EDGE('',*,*,#877,.F.);
#953 = ORIENTED_EDGE('',*,*,#954,.T.);
#954 = EDGE_CURVE('',#878,#937,#955,.T.);
#955 = LINE('',#956,#957);
#956 = CARTESIAN_POINT('',(1.990930356354,-129.6,79.807203051954));
#957 = VECTOR('',#958,1.);
#958 = DIRECTION('',(0.,2.2E-16,1.));
#959 = ORIENTED_EDGE('',*,*,#936,.T.);
#960 = ORIENTED_EDGE('',*,*,#954,.F.);
#961 = CYLINDRICAL_SURFACE('',#962,1.6);
#962 = AXIS2_PLACEMENT_3D('',#963,#964,#965);
#963 = CARTESIAN_POINT('',(3.590930356354,-129.6,79.807203051954));
#964 = DIRECTION('',(0.,-2.2E-16,-1.));
#965 = DIRECTION('',(-1.,0.,0.));
#966 = ( GEOMETRIC_REPRESENTATION_CONTEXT(3) 
GLOBAL_UNCERTAINTY_ASSIGNED_CONTEXT((#970)) GLOBAL_UNIT_ASSIGNED_CONTEXT
((#967,#968,#969)) REPRESENTATION_CONTEXT('Context #1',
  '3D Context with UNIT and UNCERTAINTY') );
#967 = ( LENGTH_UNIT() NAMED_UNIT(*) SI_UNIT(.MILLI.,.METRE.) );
#968 = ( NAMED_UNIT(*) PLANE_ANGLE_UNIT() SI_UNIT($,.RADIAN.) );
#969 = ( NAMED_UNIT(*) SI_UNIT($,.STERADIAN.) SOLID_ANGLE_UNIT() );
#970 = UNCERTAINTY_MEASURE_WITH_UNIT(LENGTH_MEASURE(2.E-06),#967,
  'distance_accuracy_value','confusion accuracy');
#971 = PRODUCT_RELATED_PRODUCT_CATEGORY('part',$,(#7));
ENDSEC;
END-ISO-10303-21;
