ISO-10303-21;
HEADER;
FILE_DESCRIPTION(('FreeCAD Model'),'2;1');
FILE_NAME('Open CASCADE Shape Model','2026-08-28T13:04:07',('FreeCAD'),(
    'FreeCAD'),'Open CASCADE STEP processor 7.8','FreeCAD','Unknown');
FILE_SCHEMA(('AUTOMOTIVE_DESIGN { 1 0 10303 214 1 1 1 1 }'));
ENDSEC;
DATA;
#1 = APPLICATION_PROTOCOL_DEFINITION('international standard',
  'automotive_design',2000,#2);
#2 = APPLICATION_CONTEXT(
  'core data for automotive mechanical design processes');
#3 = SHAPE_DEFINITION_REPRESENTATION(#4,#10);
#4 = PRODUCT_DEFINITION_SHAPE('','',#5);
#5 = PRODUCT_DEFINITION('design','',#6,#9);
#6 = PRODUCT_DEFINITION_FORMATION('','',#7);
#7 = PRODUCT('Open CASCADE STEP translator 7.8 116',
  'Open CASCADE STEP translator 7.8 116','',(#8));
#8 = PRODUCT_CONTEXT('',#2,'mechanical');
#9 = PRODUCT_DEFINITION_CONTEXT('part definition',#2,'design');
#10 = ADVANCED_BREP_SHAPE_REPRESENTATION('',(#11,#15),#1141);
#11 = AXIS2_PLACEMENT_3D('',#12,#13,#14);
#12 = CARTESIAN_POINT('',(0.,0.,0.));
#13 = DIRECTION('',(0.,0.,1.));
#14 = DIRECTION('',(1.,0.,-0.));
#15 = MANIFOLD_SOLID_BREP('',#16);
#16 = CLOSED_SHELL('',(#17,#236,#326,#351,#375,#399,#423,#448,#479,#519,
    #544,#575,#610,#628,#659,#683,#707,#731,#755,#772,#803,#827,#851,
    #875,#899,#916,#941,#963,#986,#1003,#1026,#1040,#1057,#1082,#1107,
    #1124));
#17 = ADVANCED_FACE('',(#18,#120,#170,#220),#231,.T.);
#18 = FACE_BOUND('',#19,.T.);
#19 = EDGE_LOOP('',(#20,#30,#38,#46,#54,#63,#71,#80,#88,#96,#105,#113));
#20 = ORIENTED_EDGE('',*,*,#21,.F.);
#21 = EDGE_CURVE('',#22,#24,#26,.T.);
#22 = VERTEX_POINT('',#23);
#23 = CARTESIAN_POINT('',(-1.00907,-125.6,107.86745305066));
#24 = VERTEX_POINT('',#25);
#25 = CARTESIAN_POINT('',(33.19093,-125.6,107.86745305066));
#26 = LINE('',#27,#28);
#27 = CARTESIAN_POINT('',(27.19093,-125.6,107.86745305066));
#28 = VECTOR('',#29,1.);
#29 = DIRECTION('',(1.,0.,0.));
#30 = ORIENTED_EDGE('',*,*,#31,.F.);
#31 = EDGE_CURVE('',#32,#22,#34,.T.);
#32 = VERTEX_POINT('',#33);
#33 = CARTESIAN_POINT('',(-1.00907,-135.6,107.86745305066));
#34 = LINE('',#35,#36);
#35 = CARTESIAN_POINT('',(-1.00907,-135.6,107.86745305066));
#36 = VECTOR('',#37,1.);
#37 = DIRECTION('',(0.,1.,0.));
#38 = ORIENTED_EDGE('',*,*,#39,.T.);
#39 = EDGE_CURVE('',#32,#40,#42,.T.);
#40 = VERTEX_POINT('',#41);
#41 = CARTESIAN_POINT('',(7.19093,-135.6,107.86745305066));
#42 = LINE('',#43,#44);
#43 = CARTESIAN_POINT('',(-1.00907,-135.6,107.86745305066));
#44 = VECTOR('',#45,1.);
#45 = DIRECTION('',(1.,0.,0.));
#46 = ORIENTED_EDGE('',*,*,#47,.T.);
#47 = EDGE_CURVE('',#40,#48,#50,.T.);
#48 = VERTEX_POINT('',#49);
#49 = CARTESIAN_POINT('',(7.19093,-137.6,107.86745305066));
#50 = LINE('',#51,#52);
#51 = CARTESIAN_POINT('',(7.19093,-135.6,107.86745305066));
#52 = VECTOR('',#53,1.);
#53 = DIRECTION('',(0.,-1.,0.));
#54 = ORIENTED_EDGE('',*,*,#55,.T.);
#55 = EDGE_CURVE('',#48,#56,#58,.T.);
#56 = VERTEX_POINT('',#57);
#57 = CARTESIAN_POINT('',(9.19093,-139.6,107.86745305066));
#58 = CIRCLE('',#59,2.);
#59 = AXIS2_PLACEMENT_3D('',#60,#61,#62);
#60 = CARTESIAN_POINT('',(9.19093,-137.6,107.86745305066));
#61 = DIRECTION('',(-0.,0.,1.));
#62 = DIRECTION('',(0.,-1.,0.));
#63 = ORIENTED_EDGE('',*,*,#64,.T.);
#64 = EDGE_CURVE('',#56,#65,#67,.T.);
#65 = VERTEX_POINT('',#66);
#66 = CARTESIAN_POINT('',(16.99093,-139.6,107.86745305066));
#67 = LINE('',#68,#69);
#68 = CARTESIAN_POINT('',(7.19093,-139.6,107.86745305066));
#69 = VECTOR('',#70,1.);
#70 = DIRECTION('',(1.,0.,-8.E-17));
#71 = ORIENTED_EDGE('',*,*,#72,.T.);
#72 = EDGE_CURVE('',#65,#73,#75,.T.);
#73 = VERTEX_POINT('',#74);
#74 = CARTESIAN_POINT('',(18.99093,-137.6,107.86745305066));
#75 = CIRCLE('',#76,2.);
#76 = AXIS2_PLACEMENT_3D('',#77,#78,#79);
#77 = CARTESIAN_POINT('',(16.99093,-137.6,107.86745305066));
#78 = DIRECTION('',(0.,-0.,1.));
#79 = DIRECTION('',(0.,1.,0.));
#80 = ORIENTED_EDGE('',*,*,#81,.F.);
#81 = EDGE_CURVE('',#82,#73,#84,.T.);
#82 = VERTEX_POINT('',#83);
#83 = CARTESIAN_POINT('',(18.99093,-135.6,107.86745305066));
#84 = LINE('',#85,#86);
#85 = CARTESIAN_POINT('',(18.99093,-135.6,107.86745305066));
#86 = VECTOR('',#87,1.);
#87 = DIRECTION('',(0.,-1.,0.));
#88 = ORIENTED_EDGE('',*,*,#89,.T.);
#89 = EDGE_CURVE('',#82,#90,#92,.T.);
#90 = VERTEX_POINT('',#91);
#91 = CARTESIAN_POINT('',(33.19093,-135.6,107.86745305066));
#92 = LINE('',#93,#94);
#93 = CARTESIAN_POINT('',(-1.00907,-135.6,107.86745305066));
#94 = VECTOR('',#95,1.);
#95 = DIRECTION('',(1.,0.,0.));
#96 = ORIENTED_EDGE('',*,*,#97,.F.);
#97 = EDGE_CURVE('',#98,#90,#100,.T.);
#98 = VERTEX_POINT('',#99);
#99 = CARTESIAN_POINT('',(35.19093,-133.6,107.86745305066));
#100 = CIRCLE('',#101,2.);
#101 = AXIS2_PLACEMENT_3D('',#102,#103,#104);
#102 = CARTESIAN_POINT('',(33.19093,-133.6,107.86745305066));
#103 = DIRECTION('',(-0.,0.,-1.));
#104 = DIRECTION('',(0.,1.,0.));
#105 = ORIENTED_EDGE('',*,*,#106,.F.);
#106 = EDGE_CURVE('',#107,#98,#109,.T.);
#107 = VERTEX_POINT('',#108);
#108 = CARTESIAN_POINT('',(35.19093,-127.6,107.86745305066));
#109 = LINE('',#110,#111);
#110 = CARTESIAN_POINT('',(35.19093,-125.6,107.86745305066));
#111 = VECTOR('',#112,1.);
#112 = DIRECTION('',(0.,-1.,0.));
#113 = ORIENTED_EDGE('',*,*,#114,.F.);
#114 = EDGE_CURVE('',#24,#107,#115,.T.);
#115 = CIRCLE('',#116,2.);
#116 = AXIS2_PLACEMENT_3D('',#117,#118,#119);
#117 = CARTESIAN_POINT('',(33.19093,-127.6,107.86745305066));
#118 = DIRECTION('',(0.,0.,-1.));
#119 = DIRECTION('',(0.,-1.,-0.));
#120 = FACE_BOUND('',#121,.T.);
#121 = EDGE_LOOP('',(#122,#132,#140,#148,#156,#164));
#122 = ORIENTED_EDGE('',*,*,#123,.F.);
#123 = EDGE_CURVE('',#124,#126,#128,.T.);
#124 = VERTEX_POINT('',#125);
#125 = CARTESIAN_POINT('',(2.003217116073,-133.35,107.86745305066));
#126 = VERTEX_POINT('',#127);
#127 = CARTESIAN_POINT('',(5.178643596616,-133.35,107.86745305066));
#128 = LINE('',#129,#130);
#129 = CARTESIAN_POINT('',(2.003217116073,-133.35,107.86745305066));
#130 = VECTOR('',#131,1.);
#131 = DIRECTION('',(1.,0.,0.));
#132 = ORIENTED_EDGE('',*,*,#133,.F.);
#133 = EDGE_CURVE('',#134,#124,#136,.T.);
#134 = VERTEX_POINT('',#135);
#135 = CARTESIAN_POINT('',(0.415503875801,-130.6,107.86745305066));
#136 = LINE('',#137,#138);
#137 = CARTESIAN_POINT('',(0.415503875801,-130.6,107.86745305066));
#138 = VECTOR('',#139,1.);
#139 = DIRECTION('',(0.5,-0.866025403784,0.));
#140 = ORIENTED_EDGE('',*,*,#141,.F.);
#141 = EDGE_CURVE('',#142,#134,#144,.T.);
#142 = VERTEX_POINT('',#143);
#143 = CARTESIAN_POINT('',(2.003217116073,-127.85,107.86745305066));
#144 = LINE('',#145,#146);
#145 = CARTESIAN_POINT('',(2.003217116073,-127.85,107.86745305066));
#146 = VECTOR('',#147,1.);
#147 = DIRECTION('',(-0.5,-0.866025403784,0.));
#148 = ORIENTED_EDGE('',*,*,#149,.F.);
#149 = EDGE_CURVE('',#150,#142,#152,.T.);
#150 = VERTEX_POINT('',#151);
#151 = CARTESIAN_POINT('',(5.178643596616,-127.85,107.86745305066));
#152 = LINE('',#153,#154);
#153 = CARTESIAN_POINT('',(5.178643596616,-127.85,107.86745305066));
#154 = VECTOR('',#155,1.);
#155 = DIRECTION('',(-1.,1.12E-15,0.));
#156 = ORIENTED_EDGE('',*,*,#157,.F.);
#157 = EDGE_CURVE('',#158,#150,#160,.T.);
#158 = VERTEX_POINT('',#159);
#159 = CARTESIAN_POINT('',(6.766356836887,-130.6,107.86745305066));
#160 = LINE('',#161,#162);
#161 = CARTESIAN_POINT('',(6.766356836887,-130.6,107.86745305066));
#162 = VECTOR('',#163,1.);
#163 = DIRECTION('',(-0.5,0.866025403784,0.));
#164 = ORIENTED_EDGE('',*,*,#165,.F.);
#165 = EDGE_CURVE('',#126,#158,#166,.T.);
#166 = LINE('',#167,#168);
#167 = CARTESIAN_POINT('',(5.178643596616,-133.35,107.86745305066));
#168 = VECTOR('',#169,1.);
#169 = DIRECTION('',(0.5,0.866025403784,0.));
#170 = FACE_BOUND('',#171,.T.);
#171 = EDGE_LOOP('',(#172,#182,#190,#198,#206,#214));
#172 = ORIENTED_EDGE('',*,*,#173,.F.);
#173 = EDGE_CURVE('',#174,#176,#178,.T.);
#174 = VERTEX_POINT('',#175);
#175 = CARTESIAN_POINT('',(19.415503875796,-130.5999999999,
    107.86745305066));
#176 = VERTEX_POINT('',#177);
#177 = CARTESIAN_POINT('',(21.003217116072,-133.3499999999,
    107.86745305066));
#178 = LINE('',#179,#180);
#179 = CARTESIAN_POINT('',(19.415503875796,-130.5999999999,
    107.86745305066));
#180 = VECTOR('',#181,1.);
#181 = DIRECTION('',(0.500000000001,-0.866025403784,0.));
#182 = ORIENTED_EDGE('',*,*,#183,.F.);
#183 = EDGE_CURVE('',#184,#174,#186,.T.);
#184 = VERTEX_POINT('',#185);
#185 = CARTESIAN_POINT('',(21.003217116076,-127.85,107.86745305066));
#186 = LINE('',#187,#188);
#187 = CARTESIAN_POINT('',(21.003217116076,-127.85,107.86745305066));
#188 = VECTOR('',#189,1.);
#189 = DIRECTION('',(-0.500000000003,-0.866025403783,0.));
#190 = ORIENTED_EDGE('',*,*,#191,.F.);
#191 = EDGE_CURVE('',#192,#184,#194,.T.);
#192 = VERTEX_POINT('',#193);
#193 = CARTESIAN_POINT('',(24.178643596616,-127.85,107.86745305066));
#194 = LINE('',#195,#196);
#195 = CARTESIAN_POINT('',(24.178643596616,-127.85,107.86745305066));
#196 = VECTOR('',#197,1.);
#197 = DIRECTION('',(-1.,-1.9216E-13,0.));
#198 = ORIENTED_EDGE('',*,*,#199,.F.);
#199 = EDGE_CURVE('',#200,#192,#202,.T.);
#200 = VERTEX_POINT('',#201);
#201 = CARTESIAN_POINT('',(25.76635683689,-130.6,107.86745305066));
#202 = LINE('',#203,#204);
#203 = CARTESIAN_POINT('',(25.76635683689,-130.6,107.86745305066));
#204 = VECTOR('',#205,1.);
#205 = DIRECTION('',(-0.500000000001,0.866025403784,0.));
#206 = ORIENTED_EDGE('',*,*,#207,.F.);
#207 = EDGE_CURVE('',#208,#200,#210,.T.);
#208 = VERTEX_POINT('',#209);
#209 = CARTESIAN_POINT('',(24.178643596612,-133.3499999999,
    107.86745305066));
#210 = LINE('',#211,#212);
#211 = CARTESIAN_POINT('',(24.178643596612,-133.3499999999,
    107.86745305066));
#212 = VECTOR('',#213,1.);
#213 = DIRECTION('',(0.500000000002,0.866025403783,0.));
#214 = ORIENTED_EDGE('',*,*,#215,.F.);
#215 = EDGE_CURVE('',#176,#208,#216,.T.);
#216 = LINE('',#217,#218);
#217 = CARTESIAN_POINT('',(21.003217116072,-133.3499999999,
    107.86745305066));
#218 = VECTOR('',#219,1.);
#219 = DIRECTION('',(1.,0.,0.));
#220 = FACE_BOUND('',#221,.T.);
#221 = EDGE_LOOP('',(#222));
#222 = ORIENTED_EDGE('',*,*,#223,.T.);
#223 = EDGE_CURVE('',#224,#224,#226,.T.);
#224 = VERTEX_POINT('',#225);
#225 = CARTESIAN_POINT('',(29.19093,-130.6,107.86745305066));
#226 = CIRCLE('',#227,2.);
#227 = AXIS2_PLACEMENT_3D('',#228,#229,#230);
#228 = CARTESIAN_POINT('',(31.19093,-130.6,107.86745305066));
#229 = DIRECTION('',(-0.,-2.2E-16,-1.));
#230 = DIRECTION('',(-1.,0.,0.));
#231 = PLANE('',#232);
#232 = AXIS2_PLACEMENT_3D('',#233,#234,#235);
#233 = CARTESIAN_POINT('',(16.838965586614,-131.4762554929,
    107.86745305066));
#234 = DIRECTION('',(-0.,-0.,1.));
#235 = DIRECTION('',(0.,-1.,0.));
#236 = ADVANCED_FACE('',(#237,#310),#321,.T.);
#237 = FACE_BOUND('',#238,.T.);
#238 = EDGE_LOOP('',(#239,#240,#248,#256,#264,#272,#280,#288,#296,#304)
  );
#239 = ORIENTED_EDGE('',*,*,#21,.T.);
#240 = ORIENTED_EDGE('',*,*,#241,.F.);
#241 = EDGE_CURVE('',#242,#24,#244,.T.);
#242 = VERTEX_POINT('',#243);
#243 = CARTESIAN_POINT('',(33.19093,-125.6,103.36745305066));
#244 = LINE('',#245,#246);
#245 = CARTESIAN_POINT('',(33.19093,-125.6,103.36745305066));
#246 = VECTOR('',#247,1.);
#247 = DIRECTION('',(0.,0.,1.));
#248 = ORIENTED_EDGE('',*,*,#249,.F.);
#249 = EDGE_CURVE('',#250,#242,#252,.T.);
#250 = VERTEX_POINT('',#251);
#251 = CARTESIAN_POINT('',(27.19093,-125.6,103.36745305066));
#252 = LINE('',#253,#254);
#253 = CARTESIAN_POINT('',(27.19093,-125.6,103.36745305066));
#254 = VECTOR('',#255,1.);
#255 = DIRECTION('',(1.,0.,0.));
#256 = ORIENTED_EDGE('',*,*,#257,.F.);
#257 = EDGE_CURVE('',#258,#250,#260,.T.);
#258 = VERTEX_POINT('',#259);
#259 = CARTESIAN_POINT('',(27.19093,-125.6,98.867453050666));
#260 = LINE('',#261,#262);
#261 = CARTESIAN_POINT('',(27.19093,-125.6,98.867453050666));
#262 = VECTOR('',#263,1.);
#263 = DIRECTION('',(0.,0.,1.));
#264 = ORIENTED_EDGE('',*,*,#265,.F.);
#265 = EDGE_CURVE('',#266,#258,#268,.T.);
#266 = VERTEX_POINT('',#267);
#267 = CARTESIAN_POINT('',(18.99093,-125.6,98.867453050666));
#268 = LINE('',#269,#270);
#269 = CARTESIAN_POINT('',(18.99093,-125.6,98.867453050666));
#270 = VECTOR('',#271,1.);
#271 = DIRECTION('',(1.,0.,0.));
#272 = ORIENTED_EDGE('',*,*,#273,.T.);
#273 = EDGE_CURVE('',#266,#274,#276,.T.);
#274 = VERTEX_POINT('',#275);
#275 = CARTESIAN_POINT('',(18.99093,-125.6,95.867453050666));
#276 = LINE('',#277,#278);
#277 = CARTESIAN_POINT('',(18.99093,-125.6,98.867453050666));
#278 = VECTOR('',#279,1.);
#279 = DIRECTION('',(0.,0.,-1.));
#280 = ORIENTED_EDGE('',*,*,#281,.T.);
#281 = EDGE_CURVE('',#274,#282,#284,.T.);
#282 = VERTEX_POINT('',#283);
#283 = CARTESIAN_POINT('',(7.19093,-125.6,95.867453050666));
#284 = LINE('',#285,#286);
#285 = CARTESIAN_POINT('',(18.99093,-125.6,95.867453050666));
#286 = VECTOR('',#287,1.);
#287 = DIRECTION('',(-1.,0.,0.));
#288 = ORIENTED_EDGE('',*,*,#289,.T.);
#289 = EDGE_CURVE('',#282,#290,#292,.T.);
#290 = VERTEX_POINT('',#291);
#291 = CARTESIAN_POINT('',(7.19093,-125.6,98.867453050666));
#292 = LINE('',#293,#294);
#293 = CARTESIAN_POINT('',(7.19093,-125.6,95.867453050666));
#294 = VECTOR('',#295,1.);
#295 = DIRECTION('',(0.,0.,1.));
#296 = ORIENTED_EDGE('',*,*,#297,.T.);
#297 = EDGE_CURVE('',#290,#298,#300,.T.);
#298 = VERTEX_POINT('',#299);
#299 = CARTESIAN_POINT('',(-1.00907,-125.6,98.867453050666));
#300 = LINE('',#301,#302);
#301 = CARTESIAN_POINT('',(7.19093,-125.6,98.867453050666));
#302 = VECTOR('',#303,1.);
#303 = DIRECTION('',(-1.,0.,0.));
#304 = ORIENTED_EDGE('',*,*,#305,.T.);
#305 = EDGE_CURVE('',#298,#22,#306,.T.);
#306 = LINE('',#307,#308);
#307 = CARTESIAN_POINT('',(-1.00907,-125.6,98.867453050666));
#308 = VECTOR('',#309,1.);
#309 = DIRECTION('',(0.,0.,1.));
#310 = FACE_BOUND('',#311,.T.);
#311 = EDGE_LOOP('',(#312));
#312 = ORIENTED_EDGE('',*,*,#313,.T.);
#313 = EDGE_CURVE('',#314,#314,#316,.T.);
#314 = VERTEX_POINT('',#315);
#315 = CARTESIAN_POINT('',(15.41593,-125.6,102.86745305066));
#316 = CIRCLE('',#317,2.325);
#317 = AXIS2_PLACEMENT_3D('',#318,#319,#320);
#318 = CARTESIAN_POINT('',(13.09093,-125.6,102.86745305066));
#319 = DIRECTION('',(0.,-1.,0.));
#320 = DIRECTION('',(1.,0.,0.));
#321 = PLANE('',#322);
#322 = AXIS2_PLACEMENT_3D('',#323,#324,#325);
#323 = CARTESIAN_POINT('',(16.468523360996,-125.6,103.00023313365));
#324 = DIRECTION('',(0.,1.,0.));
#325 = DIRECTION('',(1.,0.,0.));
#326 = ADVANCED_FACE('',(#327),#346,.T.);
#327 = FACE_BOUND('',#328,.F.);
#328 = EDGE_LOOP('',(#329,#338,#344,#345));
#329 = ORIENTED_EDGE('',*,*,#330,.T.);
#330 = EDGE_CURVE('',#242,#331,#333,.T.);
#331 = VERTEX_POINT('',#332);
#332 = CARTESIAN_POINT('',(35.19093,-127.6,103.36745305066));
#333 = CIRCLE('',#334,2.);
#334 = AXIS2_PLACEMENT_3D('',#335,#336,#337);
#335 = CARTESIAN_POINT('',(33.19093,-127.6,103.36745305066));
#336 = DIRECTION('',(0.,0.,-1.));
#337 = DIRECTION('',(0.,-1.,-0.));
#338 = ORIENTED_EDGE('',*,*,#339,.T.);
#339 = EDGE_CURVE('',#331,#107,#340,.T.);
#340 = LINE('',#341,#342);
#341 = CARTESIAN_POINT('',(35.19093,-127.6,103.36745305066));
#342 = VECTOR('',#343,1.);
#343 = DIRECTION('',(0.,0.,1.));
#344 = ORIENTED_EDGE('',*,*,#114,.F.);
#345 = ORIENTED_EDGE('',*,*,#241,.F.);
#346 = CYLINDRICAL_SURFACE('',#347,2.);
#347 = AXIS2_PLACEMENT_3D('',#348,#349,#350);
#348 = CARTESIAN_POINT('',(33.19093,-127.6,103.36745305066));
#349 = DIRECTION('',(0.,0.,1.));
#350 = DIRECTION('',(0.,1.,0.));
#351 = ADVANCED_FACE('',(#352),#370,.F.);
#352 = FACE_BOUND('',#353,.F.);
#353 = EDGE_LOOP('',(#354,#362,#363,#364));
#354 = ORIENTED_EDGE('',*,*,#355,.T.);
#355 = EDGE_CURVE('',#356,#298,#358,.T.);
#356 = VERTEX_POINT('',#357);
#357 = CARTESIAN_POINT('',(-1.00907,-135.6,98.867453050666));
#358 = LINE('',#359,#360);
#359 = CARTESIAN_POINT('',(-1.00907,-135.6,98.867453050666));
#360 = VECTOR('',#361,1.);
#361 = DIRECTION('',(0.,1.,0.));
#362 = ORIENTED_EDGE('',*,*,#305,.T.);
#363 = ORIENTED_EDGE('',*,*,#31,.F.);
#364 = ORIENTED_EDGE('',*,*,#365,.F.);
#365 = EDGE_CURVE('',#356,#32,#366,.T.);
#366 = LINE('',#367,#368);
#367 = CARTESIAN_POINT('',(-1.00907,-135.6,98.867453050666));
#368 = VECTOR('',#369,1.);
#369 = DIRECTION('',(0.,0.,1.));
#370 = PLANE('',#371);
#371 = AXIS2_PLACEMENT_3D('',#372,#373,#374);
#372 = CARTESIAN_POINT('',(-1.00907,-135.6,98.867453050666));
#373 = DIRECTION('',(1.,0.,0.));
#374 = DIRECTION('',(0.,0.,1.));
#375 = ADVANCED_FACE('',(#376),#394,.T.);
#376 = FACE_BOUND('',#377,.T.);
#377 = EDGE_LOOP('',(#378,#379,#387,#393));
#378 = ORIENTED_EDGE('',*,*,#106,.T.);
#379 = ORIENTED_EDGE('',*,*,#380,.T.);
#380 = EDGE_CURVE('',#98,#381,#383,.T.);
#381 = VERTEX_POINT('',#382);
#382 = CARTESIAN_POINT('',(35.19093,-133.6,103.36745305066));
#383 = LINE('',#384,#385);
#384 = CARTESIAN_POINT('',(35.19093,-133.6,107.86745305066));
#385 = VECTOR('',#386,1.);
#386 = DIRECTION('',(0.,0.,-1.));
#387 = ORIENTED_EDGE('',*,*,#388,.T.);
#388 = EDGE_CURVE('',#381,#331,#389,.T.);
#389 = LINE('',#390,#391);
#390 = CARTESIAN_POINT('',(35.19093,-135.6,103.36745305066));
#391 = VECTOR('',#392,1.);
#392 = DIRECTION('',(0.,1.,0.));
#393 = ORIENTED_EDGE('',*,*,#339,.T.);
#394 = PLANE('',#395);
#395 = AXIS2_PLACEMENT_3D('',#396,#397,#398);
#396 = CARTESIAN_POINT('',(35.19093,-130.6,105.61745305066));
#397 = DIRECTION('',(1.,0.,0.));
#398 = DIRECTION('',(0.,1.,0.));
#399 = ADVANCED_FACE('',(#400),#418,.F.);
#400 = FACE_BOUND('',#401,.F.);
#401 = EDGE_LOOP('',(#402,#403,#411,#417));
#402 = ORIENTED_EDGE('',*,*,#39,.T.);
#403 = ORIENTED_EDGE('',*,*,#404,.F.);
#404 = EDGE_CURVE('',#405,#40,#407,.T.);
#405 = VERTEX_POINT('',#406);
#406 = CARTESIAN_POINT('',(7.19093,-135.6,98.867453050666));
#407 = LINE('',#408,#409);
#408 = CARTESIAN_POINT('',(7.19093,-135.6,95.867453050666));
#409 = VECTOR('',#410,1.);
#410 = DIRECTION('',(0.,0.,1.));
#411 = ORIENTED_EDGE('',*,*,#412,.T.);
#412 = EDGE_CURVE('',#405,#356,#413,.T.);
#413 = LINE('',#414,#415);
#414 = CARTESIAN_POINT('',(7.19093,-135.6,98.867453050666));
#415 = VECTOR('',#416,1.);
#416 = DIRECTION('',(-1.,0.,0.));
#417 = ORIENTED_EDGE('',*,*,#365,.T.);
#418 = PLANE('',#419);
#419 = AXIS2_PLACEMENT_3D('',#420,#421,#422);
#420 = CARTESIAN_POINT('',(13.09093,-135.6,102.47939334917));
#421 = DIRECTION('',(0.,1.,0.));
#422 = DIRECTION('',(1.,0.,0.));
#423 = ADVANCED_FACE('',(#424),#443,.T.);
#424 = FACE_BOUND('',#425,.T.);
#425 = EDGE_LOOP('',(#426,#427,#435,#442));
#426 = ORIENTED_EDGE('',*,*,#97,.T.);
#427 = ORIENTED_EDGE('',*,*,#428,.T.);
#428 = EDGE_CURVE('',#90,#429,#431,.T.);
#429 = VERTEX_POINT('',#430);
#430 = CARTESIAN_POINT('',(33.19093,-135.6,103.36745305066));
#431 = LINE('',#432,#433);
#432 = CARTESIAN_POINT('',(33.19093,-135.6,107.86745305066));
#433 = VECTOR('',#434,1.);
#434 = DIRECTION('',(0.,0.,-1.));
#435 = ORIENTED_EDGE('',*,*,#436,.F.);
#436 = EDGE_CURVE('',#381,#429,#437,.T.);
#437 = CIRCLE('',#438,2.);
#438 = AXIS2_PLACEMENT_3D('',#439,#440,#441);
#439 = CARTESIAN_POINT('',(33.19093,-133.6,103.36745305066));
#440 = DIRECTION('',(-0.,0.,-1.));
#441 = DIRECTION('',(0.,1.,0.));
#442 = ORIENTED_EDGE('',*,*,#380,.F.);
#443 = CYLINDRICAL_SURFACE('',#444,2.);
#444 = AXIS2_PLACEMENT_3D('',#445,#446,#447);
#445 = CARTESIAN_POINT('',(33.19093,-133.6,107.86745305066));
#446 = DIRECTION('',(0.,0.,-1.));
#447 = DIRECTION('',(1.,0.,0.));
#448 = ADVANCED_FACE('',(#449),#474,.T.);
#449 = FACE_BOUND('',#450,.T.);
#450 = EDGE_LOOP('',(#451,#459,#465,#466,#467,#473));
#451 = ORIENTED_EDGE('',*,*,#452,.T.);
#452 = EDGE_CURVE('',#282,#453,#455,.T.);
#453 = VERTEX_POINT('',#454);
#454 = CARTESIAN_POINT('',(7.19093,-137.6,95.867453050666));
#455 = LINE('',#456,#457);
#456 = CARTESIAN_POINT('',(7.19093,-135.6,95.867453050666));
#457 = VECTOR('',#458,1.);
#458 = DIRECTION('',(0.,-1.,0.));
#459 = ORIENTED_EDGE('',*,*,#460,.T.);
#460 = EDGE_CURVE('',#453,#48,#461,.T.);
#461 = LINE('',#462,#463);
#462 = CARTESIAN_POINT('',(7.19093,-137.6,95.867453050666));
#463 = VECTOR('',#464,1.);
#464 = DIRECTION('',(0.,0.,1.));
#465 = ORIENTED_EDGE('',*,*,#47,.F.);
#466 = ORIENTED_EDGE('',*,*,#404,.F.);
#467 = ORIENTED_EDGE('',*,*,#468,.T.);
#468 = EDGE_CURVE('',#405,#290,#469,.T.);
#469 = LINE('',#470,#471);
#470 = CARTESIAN_POINT('',(7.19093,-135.6,98.867453050666));
#471 = VECTOR('',#472,1.);
#472 = DIRECTION('',(0.,1.,0.));
#473 = ORIENTED_EDGE('',*,*,#289,.F.);
#474 = PLANE('',#475);
#475 = AXIS2_PLACEMENT_3D('',#476,#477,#478);
#476 = CARTESIAN_POINT('',(7.19093,-134.3307692307,100.13668381989));
#477 = DIRECTION('',(-1.,-0.,0.));
#478 = DIRECTION('',(0.,-1.,0.));
#479 = ADVANCED_FACE('',(#480),#514,.T.);
#480 = FACE_BOUND('',#481,.T.);
#481 = EDGE_LOOP('',(#482,#490,#491,#492,#500,#508));
#482 = ORIENTED_EDGE('',*,*,#483,.T.);
#483 = EDGE_CURVE('',#484,#429,#486,.T.);
#484 = VERTEX_POINT('',#485);
#485 = CARTESIAN_POINT('',(27.19093,-135.6,103.36745305066));
#486 = LINE('',#487,#488);
#487 = CARTESIAN_POINT('',(27.19093,-135.6,103.36745305066));
#488 = VECTOR('',#489,1.);
#489 = DIRECTION('',(1.,0.,0.));
#490 = ORIENTED_EDGE('',*,*,#428,.F.);
#491 = ORIENTED_EDGE('',*,*,#89,.F.);
#492 = ORIENTED_EDGE('',*,*,#493,.T.);
#493 = EDGE_CURVE('',#82,#494,#496,.T.);
#494 = VERTEX_POINT('',#495);
#495 = CARTESIAN_POINT('',(18.99093,-135.6,98.867453050666));
#496 = LINE('',#497,#498);
#497 = CARTESIAN_POINT('',(18.99093,-135.6,107.86745305066));
#498 = VECTOR('',#499,1.);
#499 = DIRECTION('',(0.,0.,-1.));
#500 = ORIENTED_EDGE('',*,*,#501,.T.);
#501 = EDGE_CURVE('',#494,#502,#504,.T.);
#502 = VERTEX_POINT('',#503);
#503 = CARTESIAN_POINT('',(27.19093,-135.6,98.867453050666));
#504 = LINE('',#505,#506);
#505 = CARTESIAN_POINT('',(18.99093,-135.6,98.867453050666));
#506 = VECTOR('',#507,1.);
#507 = DIRECTION('',(1.,0.,0.));
#508 = ORIENTED_EDGE('',*,*,#509,.T.);
#509 = EDGE_CURVE('',#502,#484,#510,.T.);
#510 = LINE('',#511,#512);
#511 = CARTESIAN_POINT('',(27.19093,-135.6,98.867453050666));
#512 = VECTOR('',#513,1.);
#513 = DIRECTION('',(0.,0.,1.));
#514 = PLANE('',#515);
#515 = AXIS2_PLACEMENT_3D('',#516,#517,#518);
#516 = CARTESIAN_POINT('',(26.376644285714,-135.6,104.08173876495));
#517 = DIRECTION('',(-0.,-1.,0.));
#518 = DIRECTION('',(-1.,0.,0.));
#519 = ADVANCED_FACE('',(#520),#539,.T.);
#520 = FACE_BOUND('',#521,.T.);
#521 = EDGE_LOOP('',(#522,#531,#537,#538));
#522 = ORIENTED_EDGE('',*,*,#523,.T.);
#523 = EDGE_CURVE('',#453,#524,#526,.T.);
#524 = VERTEX_POINT('',#525);
#525 = CARTESIAN_POINT('',(9.19093,-139.6,95.867453050666));
#526 = CIRCLE('',#527,2.);
#527 = AXIS2_PLACEMENT_3D('',#528,#529,#530);
#528 = CARTESIAN_POINT('',(9.19093,-137.6,95.867453050666));
#529 = DIRECTION('',(-0.,0.,1.));
#530 = DIRECTION('',(0.,-1.,0.));
#531 = ORIENTED_EDGE('',*,*,#532,.T.);
#532 = EDGE_CURVE('',#524,#56,#533,.T.);
#533 = LINE('',#534,#535);
#534 = CARTESIAN_POINT('',(9.19093,-139.6,95.867453050666));
#535 = VECTOR('',#536,1.);
#536 = DIRECTION('',(0.,0.,1.));
#537 = ORIENTED_EDGE('',*,*,#55,.F.);
#538 = ORIENTED_EDGE('',*,*,#460,.F.);
#539 = CYLINDRICAL_SURFACE('',#540,2.);
#540 = AXIS2_PLACEMENT_3D('',#541,#542,#543);
#541 = CARTESIAN_POINT('',(9.19093,-137.6,95.867453050666));
#542 = DIRECTION('',(0.,0.,1.));
#543 = DIRECTION('',(-1.,0.,0.));
#544 = ADVANCED_FACE('',(#545),#570,.T.);
#545 = FACE_BOUND('',#546,.T.);
#546 = EDGE_LOOP('',(#547,#548,#556,#562,#563,#569));
#547 = ORIENTED_EDGE('',*,*,#81,.T.);
#548 = ORIENTED_EDGE('',*,*,#549,.T.);
#549 = EDGE_CURVE('',#73,#550,#552,.T.);
#550 = VERTEX_POINT('',#551);
#551 = CARTESIAN_POINT('',(18.99093,-137.6,95.867453050666));
#552 = LINE('',#553,#554);
#553 = CARTESIAN_POINT('',(18.99093,-137.6,107.86745305066));
#554 = VECTOR('',#555,1.);
#555 = DIRECTION('',(0.,0.,-1.));
#556 = ORIENTED_EDGE('',*,*,#557,.F.);
#557 = EDGE_CURVE('',#274,#550,#558,.T.);
#558 = LINE('',#559,#560);
#559 = CARTESIAN_POINT('',(18.99093,-135.6,95.867453050666));
#560 = VECTOR('',#561,1.);
#561 = DIRECTION('',(0.,-1.,0.));
#562 = ORIENTED_EDGE('',*,*,#273,.F.);
#563 = ORIENTED_EDGE('',*,*,#564,.F.);
#564 = EDGE_CURVE('',#494,#266,#565,.T.);
#565 = LINE('',#566,#567);
#566 = CARTESIAN_POINT('',(18.99093,-135.6,98.867453050666));
#567 = VECTOR('',#568,1.);
#568 = DIRECTION('',(0.,1.,0.));
#569 = ORIENTED_EDGE('',*,*,#493,.F.);
#570 = PLANE('',#571);
#571 = AXIS2_PLACEMENT_3D('',#572,#573,#574);
#572 = CARTESIAN_POINT('',(18.99093,-134.3307692307,100.13668381989));
#573 = DIRECTION('',(1.,0.,0.));
#574 = DIRECTION('',(0.,1.,0.));
#575 = ADVANCED_FACE('',(#576,#594),#605,.F.);
#576 = FACE_BOUND('',#577,.F.);
#577 = EDGE_LOOP('',(#578,#586,#587,#588));
#578 = ORIENTED_EDGE('',*,*,#579,.T.);
#579 = EDGE_CURVE('',#580,#524,#582,.T.);
#580 = VERTEX_POINT('',#581);
#581 = CARTESIAN_POINT('',(16.99093,-139.6,95.867453050666));
#582 = LINE('',#583,#584);
#583 = CARTESIAN_POINT('',(18.99093,-139.6,95.867453050666));
#584 = VECTOR('',#585,1.);
#585 = DIRECTION('',(-1.,0.,8.E-17));
#586 = ORIENTED_EDGE('',*,*,#532,.T.);
#587 = ORIENTED_EDGE('',*,*,#64,.T.);
#588 = ORIENTED_EDGE('',*,*,#589,.T.);
#589 = EDGE_CURVE('',#65,#580,#590,.T.);
#590 = LINE('',#591,#592);
#591 = CARTESIAN_POINT('',(16.99093,-139.6,107.86745305066));
#592 = VECTOR('',#593,1.);
#593 = DIRECTION('',(0.,0.,-1.));
#594 = FACE_BOUND('',#595,.F.);
#595 = EDGE_LOOP('',(#596));
#596 = ORIENTED_EDGE('',*,*,#597,.T.);
#597 = EDGE_CURVE('',#598,#598,#600,.T.);
#598 = VERTEX_POINT('',#599);
#599 = CARTESIAN_POINT('',(15.41593,-139.6,102.86745305066));
#600 = CIRCLE('',#601,2.325);
#601 = AXIS2_PLACEMENT_3D('',#602,#603,#604);
#602 = CARTESIAN_POINT('',(13.09093,-139.6,102.86745305066));
#603 = DIRECTION('',(0.,-1.,0.));
#604 = DIRECTION('',(1.,0.,0.));
#605 = PLANE('',#606);
#606 = AXIS2_PLACEMENT_3D('',#607,#608,#609);
#607 = CARTESIAN_POINT('',(13.09093,-139.6,101.86745305066));
#608 = DIRECTION('',(0.,1.,0.));
#609 = DIRECTION('',(1.,0.,0.));
#610 = ADVANCED_FACE('',(#611),#623,.T.);
#611 = FACE_BOUND('',#612,.F.);
#612 = EDGE_LOOP('',(#613,#614,#615,#622));
#613 = ORIENTED_EDGE('',*,*,#72,.T.);
#614 = ORIENTED_EDGE('',*,*,#549,.T.);
#615 = ORIENTED_EDGE('',*,*,#616,.F.);
#616 = EDGE_CURVE('',#580,#550,#617,.T.);
#617 = CIRCLE('',#618,2.);
#618 = AXIS2_PLACEMENT_3D('',#619,#620,#621);
#619 = CARTESIAN_POINT('',(16.99093,-137.6,95.867453050666));
#620 = DIRECTION('',(0.,-0.,1.));
#621 = DIRECTION('',(0.,1.,0.));
#622 = ORIENTED_EDGE('',*,*,#589,.F.);
#623 = CYLINDRICAL_SURFACE('',#624,2.);
#624 = AXIS2_PLACEMENT_3D('',#625,#626,#627);
#625 = CARTESIAN_POINT('',(16.99093,-137.6,107.86745305066));
#626 = DIRECTION('',(0.,0.,-1.));
#627 = DIRECTION('',(0.,-1.,0.));
#628 = ADVANCED_FACE('',(#629),#654,.F.);
#629 = FACE_BOUND('',#630,.F.);
#630 = EDGE_LOOP('',(#631,#639,#647,#653));
#631 = ORIENTED_EDGE('',*,*,#632,.T.);
#632 = EDGE_CURVE('',#124,#633,#635,.T.);
#633 = VERTEX_POINT('',#634);
#634 = CARTESIAN_POINT('',(2.003217116073,-133.35,101.86745305066));
#635 = LINE('',#636,#637);
#636 = CARTESIAN_POINT('',(2.003217116073,-133.35,107.86745305066));
#637 = VECTOR('',#638,1.);
#638 = DIRECTION('',(0.,-2.2E-16,-1.));
#639 = ORIENTED_EDGE('',*,*,#640,.T.);
#640 = EDGE_CURVE('',#633,#641,#643,.T.);
#641 = VERTEX_POINT('',#642);
#642 = CARTESIAN_POINT('',(5.178643596616,-133.35,101.86745305066));
#643 = LINE('',#644,#645);
#644 = CARTESIAN_POINT('',(2.003217116073,-133.35,101.86745305066));
#645 = VECTOR('',#646,1.);
#646 = DIRECTION('',(1.,0.,0.));
#647 = ORIENTED_EDGE('',*,*,#648,.F.);
#648 = EDGE_CURVE('',#126,#641,#649,.T.);
#649 = LINE('',#650,#651);
#650 = CARTESIAN_POINT('',(5.178643596616,-133.35,107.86745305066));
#651 = VECTOR('',#652,1.);
#652 = DIRECTION('',(0.,-2.2E-16,-1.));
#653 = ORIENTED_EDGE('',*,*,#123,.F.);
#654 = PLANE('',#655);
#655 = AXIS2_PLACEMENT_3D('',#656,#657,#658);
#656 = CARTESIAN_POINT('',(2.003217116073,-133.35,107.86745305066));
#657 = DIRECTION('',(0.,-1.,2.2E-16));
#658 = DIRECTION('',(1.,0.,0.));
#659 = ADVANCED_FACE('',(#660),#678,.F.);
#660 = FACE_BOUND('',#661,.F.);
#661 = EDGE_LOOP('',(#662,#670,#676,#677));
#662 = ORIENTED_EDGE('',*,*,#663,.T.);
#663 = EDGE_CURVE('',#134,#664,#666,.T.);
#664 = VERTEX_POINT('',#665);
#665 = CARTESIAN_POINT('',(0.415503875801,-130.6,101.86745305066));
#666 = LINE('',#667,#668);
#667 = CARTESIAN_POINT('',(0.415503875801,-130.6,107.86745305066));
#668 = VECTOR('',#669,1.);
#669 = DIRECTION('',(0.,-2.2E-16,-1.));
#670 = ORIENTED_EDGE('',*,*,#671,.T.);
#671 = EDGE_CURVE('',#664,#633,#672,.T.);
#672 = LINE('',#673,#674);
#673 = CARTESIAN_POINT('',(0.415503875801,-130.6,101.86745305066));
#674 = VECTOR('',#675,1.);
#675 = DIRECTION('',(0.5,-0.866025403784,0.));
#676 = ORIENTED_EDGE('',*,*,#632,.F.);
#677 = ORIENTED_EDGE('',*,*,#133,.F.);
#678 = PLANE('',#679);
#679 = AXIS2_PLACEMENT_3D('',#680,#681,#682);
#680 = CARTESIAN_POINT('',(0.415503875801,-130.6,107.86745305066));
#681 = DIRECTION('',(-0.866025403784,-0.5,1.1E-16));
#682 = DIRECTION('',(0.5,-0.866025403784,1.9E-16));
#683 = ADVANCED_FACE('',(#684),#702,.F.);
#684 = FACE_BOUND('',#685,.F.);
#685 = EDGE_LOOP('',(#686,#687,#695,#701));
#686 = ORIENTED_EDGE('',*,*,#648,.T.);
#687 = ORIENTED_EDGE('',*,*,#688,.T.);
#688 = EDGE_CURVE('',#641,#689,#691,.T.);
#689 = VERTEX_POINT('',#690);
#690 = CARTESIAN_POINT('',(6.766356836887,-130.6,101.86745305066));
#691 = LINE('',#692,#693);
#692 = CARTESIAN_POINT('',(5.178643596616,-133.35,101.86745305066));
#693 = VECTOR('',#694,1.);
#694 = DIRECTION('',(0.5,0.866025403784,0.));
#695 = ORIENTED_EDGE('',*,*,#696,.F.);
#696 = EDGE_CURVE('',#158,#689,#697,.T.);
#697 = LINE('',#698,#699);
#698 = CARTESIAN_POINT('',(6.766356836887,-130.6,107.86745305066));
#699 = VECTOR('',#700,1.);
#700 = DIRECTION('',(0.,-2.2E-16,-1.));
#701 = ORIENTED_EDGE('',*,*,#165,.F.);
#702 = PLANE('',#703);
#703 = AXIS2_PLACEMENT_3D('',#704,#705,#706);
#704 = CARTESIAN_POINT('',(5.178643596616,-133.35,107.86745305066));
#705 = DIRECTION('',(0.866025403784,-0.5,1.1E-16));
#706 = DIRECTION('',(0.5,0.866025403784,-1.9E-16));
#707 = ADVANCED_FACE('',(#708),#726,.F.);
#708 = FACE_BOUND('',#709,.F.);
#709 = EDGE_LOOP('',(#710,#718,#724,#725));
#710 = ORIENTED_EDGE('',*,*,#711,.T.);
#711 = EDGE_CURVE('',#142,#712,#714,.T.);
#712 = VERTEX_POINT('',#713);
#713 = CARTESIAN_POINT('',(2.003217116073,-127.85,101.86745305066));
#714 = LINE('',#715,#716);
#715 = CARTESIAN_POINT('',(2.003217116073,-127.85,107.86745305066));
#716 = VECTOR('',#717,1.);
#717 = DIRECTION('',(0.,-2.2E-16,-1.));
#718 = ORIENTED_EDGE('',*,*,#719,.T.);
#719 = EDGE_CURVE('',#712,#664,#720,.T.);
#720 = LINE('',#721,#722);
#721 = CARTESIAN_POINT('',(2.003217116073,-127.85,101.86745305066));
#722 = VECTOR('',#723,1.);
#723 = DIRECTION('',(-0.5,-0.866025403784,0.));
#724 = ORIENTED_EDGE('',*,*,#663,.F.);
#725 = ORIENTED_EDGE('',*,*,#141,.F.);
#726 = PLANE('',#727);
#727 = AXIS2_PLACEMENT_3D('',#728,#729,#730);
#728 = CARTESIAN_POINT('',(2.003217116073,-127.85,107.86745305066));
#729 = DIRECTION('',(-0.866025403784,0.5,-1.1E-16));
#730 = DIRECTION('',(-0.5,-0.866025403784,1.9E-16));
#731 = ADVANCED_FACE('',(#732),#750,.F.);
#732 = FACE_BOUND('',#733,.F.);
#733 = EDGE_LOOP('',(#734,#735,#743,#749));
#734 = ORIENTED_EDGE('',*,*,#696,.T.);
#735 = ORIENTED_EDGE('',*,*,#736,.T.);
#736 = EDGE_CURVE('',#689,#737,#739,.T.);
#737 = VERTEX_POINT('',#738);
#738 = CARTESIAN_POINT('',(5.178643596616,-127.85,101.86745305066));
#739 = LINE('',#740,#741);
#740 = CARTESIAN_POINT('',(6.766356836887,-130.6,101.86745305066));
#741 = VECTOR('',#742,1.);
#742 = DIRECTION('',(-0.5,0.866025403784,0.));
#743 = ORIENTED_EDGE('',*,*,#744,.F.);
#744 = EDGE_CURVE('',#150,#737,#745,.T.);
#745 = LINE('',#746,#747);
#746 = CARTESIAN_POINT('',(5.178643596616,-127.85,107.86745305066));
#747 = VECTOR('',#748,1.);
#748 = DIRECTION('',(0.,-2.2E-16,-1.));
#749 = ORIENTED_EDGE('',*,*,#157,.F.);
#750 = PLANE('',#751);
#751 = AXIS2_PLACEMENT_3D('',#752,#753,#754);
#752 = CARTESIAN_POINT('',(6.766356836887,-130.6,107.86745305066));
#753 = DIRECTION('',(0.866025403784,0.5,-1.1E-16));
#754 = DIRECTION('',(-0.5,0.866025403784,-1.9E-16));
#755 = ADVANCED_FACE('',(#756),#767,.F.);
#756 = FACE_BOUND('',#757,.F.);
#757 = EDGE_LOOP('',(#758,#759,#765,#766));
#758 = ORIENTED_EDGE('',*,*,#744,.T.);
#759 = ORIENTED_EDGE('',*,*,#760,.T.);
#760 = EDGE_CURVE('',#737,#712,#761,.T.);
#761 = LINE('',#762,#763);
#762 = CARTESIAN_POINT('',(5.178643596616,-127.85,101.86745305066));
#763 = VECTOR('',#764,1.);
#764 = DIRECTION('',(-1.,1.12E-15,0.));
#765 = ORIENTED_EDGE('',*,*,#711,.F.);
#766 = ORIENTED_EDGE('',*,*,#149,.F.);
#767 = PLANE('',#768);
#768 = AXIS2_PLACEMENT_3D('',#769,#770,#771);
#769 = CARTESIAN_POINT('',(5.178643596616,-127.85,107.86745305066));
#770 = DIRECTION('',(1.12E-15,1.,-2.2E-16));
#771 = DIRECTION('',(-1.,1.12E-15,0.));
#772 = ADVANCED_FACE('',(#773),#798,.F.);
#773 = FACE_BOUND('',#774,.F.);
#774 = EDGE_LOOP('',(#775,#783,#791,#797));
#775 = ORIENTED_EDGE('',*,*,#776,.T.);
#776 = EDGE_CURVE('',#174,#777,#779,.T.);
#777 = VERTEX_POINT('',#778);
#778 = CARTESIAN_POINT('',(19.415503875796,-130.5999999999,
    101.86745305066));
#779 = LINE('',#780,#781);
#780 = CARTESIAN_POINT('',(19.415503875796,-130.5999999999,
    107.86745305066));
#781 = VECTOR('',#782,1.);
#782 = DIRECTION('',(0.,-2.2E-16,-1.));
#783 = ORIENTED_EDGE('',*,*,#784,.T.);
#784 = EDGE_CURVE('',#777,#785,#787,.T.);
#785 = VERTEX_POINT('',#786);
#786 = CARTESIAN_POINT('',(21.003217116072,-133.3499999999,
    101.86745305066));
#787 = LINE('',#788,#789);
#788 = CARTESIAN_POINT('',(19.415503875796,-130.5999999999,
    101.86745305066));
#789 = VECTOR('',#790,1.);
#790 = DIRECTION('',(0.500000000001,-0.866025403784,0.));
#791 = ORIENTED_EDGE('',*,*,#792,.F.);
#792 = EDGE_CURVE('',#176,#785,#793,.T.);
#793 = LINE('',#794,#795);
#794 = CARTESIAN_POINT('',(21.003217116072,-133.3499999999,
    107.86745305066));
#795 = VECTOR('',#796,1.);
#796 = DIRECTION('',(0.,-2.2E-16,-1.));
#797 = ORIENTED_EDGE('',*,*,#173,.F.);
#798 = PLANE('',#799);
#799 = AXIS2_PLACEMENT_3D('',#800,#801,#802);
#800 = CARTESIAN_POINT('',(19.415503875796,-130.5999999999,
    107.86745305066));
#801 = DIRECTION('',(-0.866025403784,-0.500000000001,1.1E-16));
#802 = DIRECTION('',(0.500000000001,-0.866025403784,1.9E-16));
#803 = ADVANCED_FACE('',(#804),#822,.F.);
#804 = FACE_BOUND('',#805,.F.);
#805 = EDGE_LOOP('',(#806,#814,#820,#821));
#806 = ORIENTED_EDGE('',*,*,#807,.T.);
#807 = EDGE_CURVE('',#184,#808,#810,.T.);
#808 = VERTEX_POINT('',#809);
#809 = CARTESIAN_POINT('',(21.003217116076,-127.85,101.86745305066));
#810 = LINE('',#811,#812);
#811 = CARTESIAN_POINT('',(21.003217116076,-127.85,107.86745305066));
#812 = VECTOR('',#813,1.);
#813 = DIRECTION('',(0.,-2.2E-16,-1.));
#814 = ORIENTED_EDGE('',*,*,#815,.T.);
#815 = EDGE_CURVE('',#808,#777,#816,.T.);
#816 = LINE('',#817,#818);
#817 = CARTESIAN_POINT('',(21.003217116076,-127.85,101.86745305066));
#818 = VECTOR('',#819,1.);
#819 = DIRECTION('',(-0.500000000003,-0.866025403783,0.));
#820 = ORIENTED_EDGE('',*,*,#776,.F.);
#821 = ORIENTED_EDGE('',*,*,#183,.F.);
#822 = PLANE('',#823);
#823 = AXIS2_PLACEMENT_3D('',#824,#825,#826);
#824 = CARTESIAN_POINT('',(21.003217116076,-127.85,107.86745305066));
#825 = DIRECTION('',(-0.866025403783,0.500000000003,-1.1E-16));
#826 = DIRECTION('',(-0.500000000003,-0.866025403783,1.9E-16));
#827 = ADVANCED_FACE('',(#828),#846,.F.);
#828 = FACE_BOUND('',#829,.F.);
#829 = EDGE_LOOP('',(#830,#831,#839,#845));
#830 = ORIENTED_EDGE('',*,*,#792,.T.);
#831 = ORIENTED_EDGE('',*,*,#832,.T.);
#832 = EDGE_CURVE('',#785,#833,#835,.T.);
#833 = VERTEX_POINT('',#834);
#834 = CARTESIAN_POINT('',(24.178643596612,-133.3499999999,
    101.86745305066));
#835 = LINE('',#836,#837);
#836 = CARTESIAN_POINT('',(21.003217116072,-133.3499999999,
    101.86745305066));
#837 = VECTOR('',#838,1.);
#838 = DIRECTION('',(1.,0.,0.));
#839 = ORIENTED_EDGE('',*,*,#840,.F.);
#840 = EDGE_CURVE('',#208,#833,#841,.T.);
#841 = LINE('',#842,#843);
#842 = CARTESIAN_POINT('',(24.178643596612,-133.3499999999,
    107.86745305066));
#843 = VECTOR('',#844,1.);
#844 = DIRECTION('',(0.,-2.2E-16,-1.));
#845 = ORIENTED_EDGE('',*,*,#215,.F.);
#846 = PLANE('',#847);
#847 = AXIS2_PLACEMENT_3D('',#848,#849,#850);
#848 = CARTESIAN_POINT('',(21.003217116072,-133.3499999999,
    107.86745305066));
#849 = DIRECTION('',(0.,-1.,2.2E-16));
#850 = DIRECTION('',(1.,0.,0.));
#851 = ADVANCED_FACE('',(#852),#870,.F.);
#852 = FACE_BOUND('',#853,.F.);
#853 = EDGE_LOOP('',(#854,#862,#868,#869));
#854 = ORIENTED_EDGE('',*,*,#855,.T.);
#855 = EDGE_CURVE('',#192,#856,#858,.T.);
#856 = VERTEX_POINT('',#857);
#857 = CARTESIAN_POINT('',(24.178643596616,-127.85,101.86745305066));
#858 = LINE('',#859,#860);
#859 = CARTESIAN_POINT('',(24.178643596616,-127.85,107.86745305066));
#860 = VECTOR('',#861,1.);
#861 = DIRECTION('',(0.,-2.2E-16,-1.));
#862 = ORIENTED_EDGE('',*,*,#863,.T.);
#863 = EDGE_CURVE('',#856,#808,#864,.T.);
#864 = LINE('',#865,#866);
#865 = CARTESIAN_POINT('',(24.178643596616,-127.85,101.86745305066));
#866 = VECTOR('',#867,1.);
#867 = DIRECTION('',(-1.,-1.9216E-13,0.));
#868 = ORIENTED_EDGE('',*,*,#807,.F.);
#869 = ORIENTED_EDGE('',*,*,#191,.F.);
#870 = PLANE('',#871);
#871 = AXIS2_PLACEMENT_3D('',#872,#873,#874);
#872 = CARTESIAN_POINT('',(24.178643596616,-127.85,107.86745305066));
#873 = DIRECTION('',(-1.9216E-13,1.,-2.2E-16));
#874 = DIRECTION('',(-1.,-1.9216E-13,-0.));
#875 = ADVANCED_FACE('',(#876),#894,.F.);
#876 = FACE_BOUND('',#877,.F.);
#877 = EDGE_LOOP('',(#878,#879,#887,#893));
#878 = ORIENTED_EDGE('',*,*,#840,.T.);
#879 = ORIENTED_EDGE('',*,*,#880,.T.);
#880 = EDGE_CURVE('',#833,#881,#883,.T.);
#881 = VERTEX_POINT('',#882);
#882 = CARTESIAN_POINT('',(25.76635683689,-130.6,101.86745305066));
#883 = LINE('',#884,#885);
#884 = CARTESIAN_POINT('',(24.178643596612,-133.3499999999,
    101.86745305066));
#885 = VECTOR('',#886,1.);
#886 = DIRECTION('',(0.500000000002,0.866025403783,0.));
#887 = ORIENTED_EDGE('',*,*,#888,.F.);
#888 = EDGE_CURVE('',#200,#881,#889,.T.);
#889 = LINE('',#890,#891);
#890 = CARTESIAN_POINT('',(25.76635683689,-130.6,107.86745305066));
#891 = VECTOR('',#892,1.);
#892 = DIRECTION('',(0.,-2.2E-16,-1.));
#893 = ORIENTED_EDGE('',*,*,#207,.F.);
#894 = PLANE('',#895);
#895 = AXIS2_PLACEMENT_3D('',#896,#897,#898);
#896 = CARTESIAN_POINT('',(24.178643596612,-133.3499999999,
    107.86745305066));
#897 = DIRECTION('',(0.866025403783,-0.500000000002,1.1E-16));
#898 = DIRECTION('',(0.500000000002,0.866025403783,-1.9E-16));
#899 = ADVANCED_FACE('',(#900),#911,.F.);
#900 = FACE_BOUND('',#901,.F.);
#901 = EDGE_LOOP('',(#902,#903,#909,#910));
#902 = ORIENTED_EDGE('',*,*,#888,.T.);
#903 = ORIENTED_EDGE('',*,*,#904,.T.);
#904 = EDGE_CURVE('',#881,#856,#905,.T.);
#905 = LINE('',#906,#907);
#906 = CARTESIAN_POINT('',(25.76635683689,-130.6,101.86745305066));
#907 = VECTOR('',#908,1.);
#908 = DIRECTION('',(-0.500000000001,0.866025403784,0.));
#909 = ORIENTED_EDGE('',*,*,#855,.F.);
#910 = ORIENTED_EDGE('',*,*,#199,.F.);
#911 = PLANE('',#912);
#912 = AXIS2_PLACEMENT_3D('',#913,#914,#915);
#913 = CARTESIAN_POINT('',(25.76635683689,-130.6,107.86745305066));
#914 = DIRECTION('',(0.866025403784,0.500000000001,-1.1E-16));
#915 = DIRECTION('',(-0.500000000001,0.866025403784,-1.9E-16));
#916 = ADVANCED_FACE('',(#917),#936,.F.);
#917 = FACE_BOUND('',#918,.F.);
#918 = EDGE_LOOP('',(#919,#928,#934,#935));
#919 = ORIENTED_EDGE('',*,*,#920,.F.);
#920 = EDGE_CURVE('',#921,#921,#923,.T.);
#921 = VERTEX_POINT('',#922);
#922 = CARTESIAN_POINT('',(29.19093,-130.6,103.36745305066));
#923 = CIRCLE('',#924,2.);
#924 = AXIS2_PLACEMENT_3D('',#925,#926,#927);
#925 = CARTESIAN_POINT('',(31.19093,-130.6,103.36745305066));
#926 = DIRECTION('',(0.,0.,-1.));
#927 = DIRECTION('',(-1.,0.,0.));
#928 = ORIENTED_EDGE('',*,*,#929,.T.);
#929 = EDGE_CURVE('',#921,#224,#930,.T.);
#930 = LINE('',#931,#932);
#931 = CARTESIAN_POINT('',(29.19093,-130.6,103.36745305066));
#932 = VECTOR('',#933,1.);
#933 = DIRECTION('',(0.,2.2E-16,1.));
#934 = ORIENTED_EDGE('',*,*,#223,.T.);
#935 = ORIENTED_EDGE('',*,*,#929,.F.);
#936 = CYLINDRICAL_SURFACE('',#937,2.);
#937 = AXIS2_PLACEMENT_3D('',#938,#939,#940);
#938 = CARTESIAN_POINT('',(31.19093,-130.6,103.36745305066));
#939 = DIRECTION('',(0.,-2.2E-16,-1.));
#940 = DIRECTION('',(-1.,0.,0.));
#941 = ADVANCED_FACE('',(#942,#955),#958,.F.);
#942 = FACE_BOUND('',#943,.F.);
#943 = EDGE_LOOP('',(#944,#945,#946,#947,#948,#949));
#944 = ORIENTED_EDGE('',*,*,#483,.T.);
#945 = ORIENTED_EDGE('',*,*,#436,.F.);
#946 = ORIENTED_EDGE('',*,*,#388,.T.);
#947 = ORIENTED_EDGE('',*,*,#330,.F.);
#948 = ORIENTED_EDGE('',*,*,#249,.F.);
#949 = ORIENTED_EDGE('',*,*,#950,.F.);
#950 = EDGE_CURVE('',#484,#250,#951,.T.);
#951 = LINE('',#952,#953);
#952 = CARTESIAN_POINT('',(27.19093,-135.6,103.36745305066));
#953 = VECTOR('',#954,1.);
#954 = DIRECTION('',(0.,1.,0.));
#955 = FACE_BOUND('',#956,.F.);
#956 = EDGE_LOOP('',(#957));
#957 = ORIENTED_EDGE('',*,*,#920,.T.);
#958 = PLANE('',#959);
#959 = AXIS2_PLACEMENT_3D('',#960,#961,#962);
#960 = CARTESIAN_POINT('',(27.19093,-135.6,103.36745305066));
#961 = DIRECTION('',(0.,0.,1.));
#962 = DIRECTION('',(0.,1.,0.));
#963 = ADVANCED_FACE('',(#964,#970),#981,.F.);
#964 = FACE_BOUND('',#965,.F.);
#965 = EDGE_LOOP('',(#966,#967,#968,#969));
#966 = ORIENTED_EDGE('',*,*,#468,.T.);
#967 = ORIENTED_EDGE('',*,*,#297,.T.);
#968 = ORIENTED_EDGE('',*,*,#355,.F.);
#969 = ORIENTED_EDGE('',*,*,#412,.F.);
#970 = FACE_BOUND('',#971,.F.);
#971 = EDGE_LOOP('',(#972));
#972 = ORIENTED_EDGE('',*,*,#973,.T.);
#973 = EDGE_CURVE('',#974,#974,#976,.T.);
#974 = VERTEX_POINT('',#975);
#975 = CARTESIAN_POINT('',(1.99093,-130.6,98.867453050666));
#976 = CIRCLE('',#977,1.6);
#977 = AXIS2_PLACEMENT_3D('',#978,#979,#980);
#978 = CARTESIAN_POINT('',(3.59093,-130.6,98.867453050666));
#979 = DIRECTION('',(0.,0.,-1.));
#980 = DIRECTION('',(-1.,0.,0.));
#981 = PLANE('',#982);
#982 = AXIS2_PLACEMENT_3D('',#983,#984,#985);
#983 = CARTESIAN_POINT('',(7.19093,-135.6,98.867453050666));
#984 = DIRECTION('',(0.,0.,1.));
#985 = DIRECTION('',(-1.,0.,0.));
#986 = ADVANCED_FACE('',(#987),#998,.T.);
#987 = FACE_BOUND('',#988,.T.);
#988 = EDGE_LOOP('',(#989,#990,#996,#997));
#989 = ORIENTED_EDGE('',*,*,#509,.F.);
#990 = ORIENTED_EDGE('',*,*,#991,.T.);
#991 = EDGE_CURVE('',#502,#258,#992,.T.);
#992 = LINE('',#993,#994);
#993 = CARTESIAN_POINT('',(27.19093,-135.6,98.867453050666));
#994 = VECTOR('',#995,1.);
#995 = DIRECTION('',(0.,1.,0.));
#996 = ORIENTED_EDGE('',*,*,#257,.T.);
#997 = ORIENTED_EDGE('',*,*,#950,.F.);
#998 = PLANE('',#999);
#999 = AXIS2_PLACEMENT_3D('',#1000,#1001,#1002);
#1000 = CARTESIAN_POINT('',(27.19093,-135.6,98.867453050666));
#1001 = DIRECTION('',(1.,0.,0.));
#1002 = DIRECTION('',(0.,0.,1.));
#1003 = ADVANCED_FACE('',(#1004,#1010),#1021,.T.);
#1004 = FACE_BOUND('',#1005,.T.);
#1005 = EDGE_LOOP('',(#1006,#1007,#1008,#1009));
#1006 = ORIENTED_EDGE('',*,*,#564,.T.);
#1007 = ORIENTED_EDGE('',*,*,#265,.T.);
#1008 = ORIENTED_EDGE('',*,*,#991,.F.);
#1009 = ORIENTED_EDGE('',*,*,#501,.F.);
#1010 = FACE_BOUND('',#1011,.T.);
#1011 = EDGE_LOOP('',(#1012));
#1012 = ORIENTED_EDGE('',*,*,#1013,.F.);
#1013 = EDGE_CURVE('',#1014,#1014,#1016,.T.);
#1014 = VERTEX_POINT('',#1015);
#1015 = CARTESIAN_POINT('',(20.99093,-130.6,98.867453050666));
#1016 = CIRCLE('',#1017,1.6);
#1017 = AXIS2_PLACEMENT_3D('',#1018,#1019,#1020);
#1018 = CARTESIAN_POINT('',(22.59093,-130.6,98.867453050666));
#1019 = DIRECTION('',(0.,0.,-1.));
#1020 = DIRECTION('',(-1.,0.,0.));
#1021 = PLANE('',#1022);
#1022 = AXIS2_PLACEMENT_3D('',#1023,#1024,#1025);
#1023 = CARTESIAN_POINT('',(18.99093,-135.6,98.867453050666));
#1024 = DIRECTION('',(0.,0.,-1.));
#1025 = DIRECTION('',(1.,0.,0.));
#1026 = ADVANCED_FACE('',(#1027),#1035,.T.);
#1027 = FACE_BOUND('',#1028,.T.);
#1028 = EDGE_LOOP('',(#1029,#1030,#1031,#1032,#1033,#1034));
#1029 = ORIENTED_EDGE('',*,*,#557,.T.);
#1030 = ORIENTED_EDGE('',*,*,#616,.F.);
#1031 = ORIENTED_EDGE('',*,*,#579,.T.);
#1032 = ORIENTED_EDGE('',*,*,#523,.F.);
#1033 = ORIENTED_EDGE('',*,*,#452,.F.);
#1034 = ORIENTED_EDGE('',*,*,#281,.F.);
#1035 = PLANE('',#1036);
#1036 = AXIS2_PLACEMENT_3D('',#1037,#1038,#1039);
#1037 = CARTESIAN_POINT('',(13.09093,-132.6,95.867453050666));
#1038 = DIRECTION('',(0.,0.,-1.));
#1039 = DIRECTION('',(0.,1.,0.));
#1040 = ADVANCED_FACE('',(#1041),#1052,.F.);
#1041 = FACE_BOUND('',#1042,.F.);
#1042 = EDGE_LOOP('',(#1043,#1044,#1050,#1051));
#1043 = ORIENTED_EDGE('',*,*,#597,.F.);
#1044 = ORIENTED_EDGE('',*,*,#1045,.T.);
#1045 = EDGE_CURVE('',#598,#314,#1046,.T.);
#1046 = LINE('',#1047,#1048);
#1047 = CARTESIAN_POINT('',(15.41593,-139.6,102.86745305066));
#1048 = VECTOR('',#1049,1.);
#1049 = DIRECTION('',(0.,1.,0.));
#1050 = ORIENTED_EDGE('',*,*,#313,.T.);
#1051 = ORIENTED_EDGE('',*,*,#1045,.F.);
#1052 = CYLINDRICAL_SURFACE('',#1053,2.325);
#1053 = AXIS2_PLACEMENT_3D('',#1054,#1055,#1056);
#1054 = CARTESIAN_POINT('',(13.09093,-139.6,102.86745305066));
#1055 = DIRECTION('',(0.,-1.,0.));
#1056 = DIRECTION('',(1.,0.,0.));
#1057 = ADVANCED_FACE('',(#1058,#1066),#1077,.F.);
#1058 = FACE_BOUND('',#1059,.F.);
#1059 = EDGE_LOOP('',(#1060,#1061,#1062,#1063,#1064,#1065));
#1060 = ORIENTED_EDGE('',*,*,#688,.F.);
#1061 = ORIENTED_EDGE('',*,*,#640,.F.);
#1062 = ORIENTED_EDGE('',*,*,#671,.F.);
#1063 = ORIENTED_EDGE('',*,*,#719,.F.);
#1064 = ORIENTED_EDGE('',*,*,#760,.F.);
#1065 = ORIENTED_EDGE('',*,*,#736,.F.);
#1066 = FACE_BOUND('',#1067,.F.);
#1067 = EDGE_LOOP('',(#1068));
#1068 = ORIENTED_EDGE('',*,*,#1069,.F.);
#1069 = EDGE_CURVE('',#1070,#1070,#1072,.T.);
#1070 = VERTEX_POINT('',#1071);
#1071 = CARTESIAN_POINT('',(1.99093,-130.6,101.86745305066));
#1072 = CIRCLE('',#1073,1.6);
#1073 = AXIS2_PLACEMENT_3D('',#1074,#1075,#1076);
#1074 = CARTESIAN_POINT('',(3.59093,-130.6,101.86745305066));
#1075 = DIRECTION('',(9.E-17,-2.2E-16,-1.));
#1076 = DIRECTION('',(-1.,-9.E-17,-9.E-17));
#1077 = PLANE('',#1078);
#1078 = AXIS2_PLACEMENT_3D('',#1079,#1080,#1081);
#1079 = CARTESIAN_POINT('',(13.090930356343,-130.6,101.86745305066));
#1080 = DIRECTION('',(0.,0.,-1.));
#1081 = DIRECTION('',(0.,1.,0.));
#1082 = ADVANCED_FACE('',(#1083,#1091),#1102,.F.);
#1083 = FACE_BOUND('',#1084,.F.);
#1084 = EDGE_LOOP('',(#1085,#1086,#1087,#1088,#1089,#1090));
#1085 = ORIENTED_EDGE('',*,*,#832,.F.);
#1086 = ORIENTED_EDGE('',*,*,#784,.F.);
#1087 = ORIENTED_EDGE('',*,*,#815,.F.);
#1088 = ORIENTED_EDGE('',*,*,#863,.F.);
#1089 = ORIENTED_EDGE('',*,*,#904,.F.);
#1090 = ORIENTED_EDGE('',*,*,#880,.F.);
#1091 = FACE_BOUND('',#1092,.F.);
#1092 = EDGE_LOOP('',(#1093));
#1093 = ORIENTED_EDGE('',*,*,#1094,.F.);
#1094 = EDGE_CURVE('',#1095,#1095,#1097,.T.);
#1095 = VERTEX_POINT('',#1096);
#1096 = CARTESIAN_POINT('',(20.99093,-130.6,101.86745305066));
#1097 = CIRCLE('',#1098,1.6);
#1098 = AXIS2_PLACEMENT_3D('',#1099,#1100,#1101);
#1099 = CARTESIAN_POINT('',(22.59093,-130.6,101.86745305066));
#1100 = DIRECTION('',(9.E-17,-2.2E-16,-1.));
#1101 = DIRECTION('',(-1.,-9.E-17,-9.E-17));
#1102 = PLANE('',#1103);
#1103 = AXIS2_PLACEMENT_3D('',#1104,#1105,#1106);
#1104 = CARTESIAN_POINT('',(13.090930356343,-130.6,101.86745305066));
#1105 = DIRECTION('',(0.,0.,-1.));
#1106 = DIRECTION('',(0.,1.,0.));
#1107 = ADVANCED_FACE('',(#1108),#1119,.F.);
#1108 = FACE_BOUND('',#1109,.F.);
#1109 = EDGE_LOOP('',(#1110,#1116,#1117,#1118));
#1110 = ORIENTED_EDGE('',*,*,#1111,.F.);
#1111 = EDGE_CURVE('',#974,#1070,#1112,.T.);
#1112 = LINE('',#1113,#1114);
#1113 = CARTESIAN_POINT('',(1.99093,-130.6,98.867453050666));
#1114 = VECTOR('',#1115,1.);
#1115 = DIRECTION('',(-9.E-17,2.2E-16,1.));
#1116 = ORIENTED_EDGE('',*,*,#973,.F.);
#1117 = ORIENTED_EDGE('',*,*,#1111,.T.);
#1118 = ORIENTED_EDGE('',*,*,#1069,.T.);
#1119 = CYLINDRICAL_SURFACE('',#1120,1.6);
#1120 = AXIS2_PLACEMENT_3D('',#1121,#1122,#1123);
#1121 = CARTESIAN_POINT('',(3.59093,-130.6,98.867453050666));
#1122 = DIRECTION('',(9.E-17,-2.2E-16,-1.));
#1123 = DIRECTION('',(-1.,-9.E-17,-9.E-17));
#1124 = ADVANCED_FACE('',(#1125),#1136,.F.);
#1125 = FACE_BOUND('',#1126,.F.);
#1126 = EDGE_LOOP('',(#1127,#1133,#1134,#1135));
#1127 = ORIENTED_EDGE('',*,*,#1128,.F.);
#1128 = EDGE_CURVE('',#1014,#1095,#1129,.T.);
#1129 = LINE('',#1130,#1131);
#1130 = CARTESIAN_POINT('',(20.99093,-130.6,98.867453050666));
#1131 = VECTOR('',#1132,1.);
#1132 = DIRECTION('',(-9.E-17,2.2E-16,1.));
#1133 = ORIENTED_EDGE('',*,*,#1013,.F.);
#1134 = ORIENTED_EDGE('',*,*,#1128,.T.);
#1135 = ORIENTED_EDGE('',*,*,#1094,.T.);
#1136 = CYLINDRICAL_SURFACE('',#1137,1.6);
#1137 = AXIS2_PLACEMENT_3D('',#1138,#1139,#1140);
#1138 = CARTESIAN_POINT('',(22.59093,-130.6,98.867453050666));
#1139 = DIRECTION('',(9.E-17,-2.2E-16,-1.));
#1140 = DIRECTION('',(-1.,-9.E-17,-9.E-17));
#1141 = ( GEOMETRIC_REPRESENTATION_CONTEXT(3) 
GLOBAL_UNCERTAINTY_ASSIGNED_CONTEXT((#1145)) 
GLOBAL_UNIT_ASSIGNED_CONTEXT((#1142,#1143,#1144)) REPRESENTATION_CONTEXT
('Context #1','3D Context with UNIT and UNCERTAINTY') );
#1142 = ( LENGTH_UNIT() NAMED_UNIT(*) SI_UNIT(.MILLI.,.METRE.) );
#1143 = ( NAMED_UNIT(*) PLANE_ANGLE_UNIT() SI_UNIT($,.RADIAN.) );
#1144 = ( NAMED_UNIT(*) SI_UNIT($,.STERADIAN.) SOLID_ANGLE_UNIT() );
#1145 = UNCERTAINTY_MEASURE_WITH_UNIT(LENGTH_MEASURE(1.E-07),#1142,
  'distance_accuracy_value','confusion accuracy');
#1146 = PRODUCT_RELATED_PRODUCT_CATEGORY('part',$,(#7));
ENDSEC;
END-ISO-10303-21;
