ISO-10303-21;
HEADER;
FILE_DESCRIPTION(('FreeCAD Model'),'2;1');
FILE_NAME('Open CASCADE Shape Model','2026-08-28T13:04:06',('FreeCAD'),(
    'FreeCAD'),'Open CASCADE STEP processor 7.8','FreeCAD','Unknown');
FILE_SCHEMA(('AUTOMOTIVE_DESIGN { 1 0 10303 214 1 1 1 1 }'));
ENDSEC;
DATA;
#1 = APPLICATION_PROTOCOL_DEFINITION('international standard',
  'automotive_design',2000,#2);
#2 = APPLICATION_CONTEXT(
  'core data for automotive mechanical design processes');
#3 = SHAPE_DEFINITION_REPRESENTATION(#4,#10);
#4 = PRODUCT_DEFINITION_SHAPE('','',#5);
#5 = PRODUCT_DEFINITION('design','',#6,#9);
#6 = PRODUCT_DEFINITION_FORMATION('','',#7);
#7 = PRODUCT('Open CASCADE STEP translator 7.8 69',
  'Open CASCADE STEP translator 7.8 69','',(#8));
#8 = PRODUCT_CONTEXT('',#2,'mechanical');
#9 = PRODUCT_DEFINITION_CONTEXT('part definition',#2,'design');
#10 = ADVANCED_BREP_SHAPE_REPRESENTATION('',(#11,#15),#1210);
#11 = AXIS2_PLACEMENT_3D('',#12,#13,#14);
#12 = CARTESIAN_POINT('',(0.,0.,0.));
#13 = DIRECTION('',(0.,0.,1.));
#14 = DIRECTION('',(1.,0.,-0.));
#15 = MANIFOLD_SOLID_BREP('',#16);
#16 = CLOSED_SHELL('',(#17,#103,#284,#309,#333,#374,#409,#450,#508,#533,
    #567,#618,#642,#666,#684,#701,#713,#744,#768,#792,#816,#840,#857,
    #888,#912,#936,#960,#984,#1001,#1039,#1064,#1087,#1104,#1122,#1151,
    #1168,#1193));
#17 = ADVANCED_FACE('',(#18),#98,.T.);
#18 = FACE_BOUND('',#19,.T.);
#19 = EDGE_LOOP('',(#20,#30,#38,#49,#60,#68,#76,#84,#92));
#20 = ORIENTED_EDGE('',*,*,#21,.T.);
#21 = EDGE_CURVE('',#22,#24,#26,.T.);
#22 = VERTEX_POINT('',#23);
#23 = CARTESIAN_POINT('',(18.990930000023,-134.6,85.807203051954));
#24 = VERTEX_POINT('',#25);
#25 = CARTESIAN_POINT('',(18.990930000023,-136.6,85.807203051954));
#26 = LINE('',#27,#28);
#27 = CARTESIAN_POINT('',(18.990930000023,-134.6,85.807203051954));
#28 = VECTOR('',#29,1.);
#29 = DIRECTION('',(0.,-1.,0.));
#30 = ORIENTED_EDGE('',*,*,#31,.T.);
#31 = EDGE_CURVE('',#24,#32,#34,.T.);
#32 = VERTEX_POINT('',#33);
#33 = CARTESIAN_POINT('',(18.990930000023,-136.6,80.701630242954));
#34 = LINE('',#35,#36);
#35 = CARTESIAN_POINT('',(18.990930000023,-136.6,85.807203051954));
#36 = VECTOR('',#37,1.);
#37 = DIRECTION('',(0.,0.,-1.));
#38 = ORIENTED_EDGE('',*,*,#39,.T.);
#39 = EDGE_CURVE('',#32,#40,#42,.T.);
#40 = VERTEX_POINT('',#41);
#41 = CARTESIAN_POINT('',(18.990930000023,-136.6050031289,
    79.807203051954));
#42 = ( BOUNDED_CURVE() B_SPLINE_CURVE(5,(#43,#44,#45,#46,#47,#48),
.UNSPECIFIED.,.F.,.F.) B_SPLINE_CURVE_WITH_KNOTS((6,6),(5.105572809,6.),
.PIECEWISE_BEZIER_KNOTS.) CURVE() GEOMETRIC_REPRESENTATION_ITEM() 
RATIONAL_B_SPLINE_CURVE((1.,1.,1.,1.,1.,1.)) REPRESENTATION_ITEM('') );
#43 = CARTESIAN_POINT('',(18.990930000023,-136.6,80.701630242954));
#44 = CARTESIAN_POINT('',(18.990930000023,-136.6,80.522744804754));
#45 = CARTESIAN_POINT('',(18.990930000023,-136.6021930477,
    80.343859366554));
#46 = CARTESIAN_POINT('',(18.990930000023,-136.6040329557,
    80.164973928354));
#47 = CARTESIAN_POINT('',(18.990930000023,-136.6050031289,
    79.986088490154));
#48 = CARTESIAN_POINT('',(18.990930000023,-136.6050031289,
    79.807203051954));
#49 = ORIENTED_EDGE('',*,*,#50,.T.);
#50 = EDGE_CURVE('',#40,#51,#53,.T.);
#51 = VERTEX_POINT('',#52);
#52 = CARTESIAN_POINT('',(18.990930000023,-136.6,78.912775860954));
#53 = ( BOUNDED_CURVE() B_SPLINE_CURVE(5,(#54,#55,#56,#57,#58,#59),
.UNSPECIFIED.,.F.,.F.) B_SPLINE_CURVE_WITH_KNOTS((6,6),(6.,6.894427191),
.PIECEWISE_BEZIER_KNOTS.) CURVE() GEOMETRIC_REPRESENTATION_ITEM() 
RATIONAL_B_SPLINE_CURVE((1.,1.,1.,1.,1.,1.)) REPRESENTATION_ITEM('') );
#54 = CARTESIAN_POINT('',(18.990930000023,-136.6050031289,
    79.807203051954));
#55 = CARTESIAN_POINT('',(18.990930000023,-136.6050031289,
    79.628317613754));
#56 = CARTESIAN_POINT('',(18.990930000023,-136.6040329557,
    79.449432175554));
#57 = CARTESIAN_POINT('',(18.990930000023,-136.6021930477,
    79.270546737354));
#58 = CARTESIAN_POINT('',(18.990930000023,-136.6,79.091661299154));
#59 = CARTESIAN_POINT('',(18.990930000023,-136.6,78.912775860954));
#60 = ORIENTED_EDGE('',*,*,#61,.T.);
#61 = EDGE_CURVE('',#51,#62,#64,.T.);
#62 = VERTEX_POINT('',#63);
#63 = CARTESIAN_POINT('',(18.990930000023,-136.6,74.807203051954));
#64 = LINE('',#65,#66);
#65 = CARTESIAN_POINT('',(18.990930000023,-136.6,85.807203051954));
#66 = VECTOR('',#67,1.);
#67 = DIRECTION('',(0.,0.,-1.));
#68 = ORIENTED_EDGE('',*,*,#69,.F.);
#69 = EDGE_CURVE('',#70,#62,#72,.T.);
#70 = VERTEX_POINT('',#71);
#71 = CARTESIAN_POINT('',(18.990930000023,-124.6,74.807203051954));
#72 = LINE('',#73,#74);
#73 = CARTESIAN_POINT('',(18.990930000023,-134.6,74.807203051954));
#74 = VECTOR('',#75,1.);
#75 = DIRECTION('',(0.,-1.,0.));
#76 = ORIENTED_EDGE('',*,*,#77,.F.);
#77 = EDGE_CURVE('',#78,#70,#80,.T.);
#78 = VERTEX_POINT('',#79);
#79 = CARTESIAN_POINT('',(18.990930000023,-124.6,79.807203051954));
#80 = LINE('',#81,#82);
#81 = CARTESIAN_POINT('',(18.990930000023,-124.6,79.807203051954));
#82 = VECTOR('',#83,1.);
#83 = DIRECTION('',(0.,0.,-1.));
#84 = ORIENTED_EDGE('',*,*,#85,.F.);
#85 = EDGE_CURVE('',#86,#78,#88,.T.);
#86 = VERTEX_POINT('',#87);
#87 = CARTESIAN_POINT('',(18.990930000023,-134.6,79.807203051954));
#88 = LINE('',#89,#90);
#89 = CARTESIAN_POINT('',(18.990930000023,-134.6,79.807203051954));
#90 = VECTOR('',#91,1.);
#91 = DIRECTION('',(0.,1.,0.));
#92 = ORIENTED_EDGE('',*,*,#93,.F.);
#93 = EDGE_CURVE('',#22,#86,#94,.T.);
#94 = LINE('',#95,#96);
#95 = CARTESIAN_POINT('',(18.990930000023,-134.6,85.807203051954));
#96 = VECTOR('',#97,1.);
#97 = DIRECTION('',(0.,0.,-1.));
#98 = PLANE('',#99);
#99 = AXIS2_PLACEMENT_3D('',#100,#101,#102);
#100 = CARTESIAN_POINT('',(18.990930000023,-133.7111111111,
    79.196091940843));
#101 = DIRECTION('',(1.,0.,0.));
#102 = DIRECTION('',(0.,1.,0.));
#103 = ADVANCED_FACE('',(#104,#179,#229),#279,.T.);
#104 = FACE_BOUND('',#105,.T.);
#105 = EDGE_LOOP('',(#106,#116,#125,#133,#140,#141,#149,#157,#165,#173)
  );
#106 = ORIENTED_EDGE('',*,*,#107,.T.);
#107 = EDGE_CURVE('',#108,#110,#112,.T.);
#108 = VERTEX_POINT('',#109);
#109 = CARTESIAN_POINT('',(7.190930000023,-134.6,85.807203051954));
#110 = VERTEX_POINT('',#111);
#111 = CARTESIAN_POINT('',(7.190930000023,-136.6,85.807203051954));
#112 = LINE('',#113,#114);
#113 = CARTESIAN_POINT('',(7.190930000023,-134.6,85.807203051954));
#114 = VECTOR('',#115,1.);
#115 = DIRECTION('',(0.,-1.,0.));
#116 = ORIENTED_EDGE('',*,*,#117,.F.);
#117 = EDGE_CURVE('',#118,#110,#120,.T.);
#118 = VERTEX_POINT('',#119);
#119 = CARTESIAN_POINT('',(11.190930000023,-140.6,85.807203051954));
#120 = CIRCLE('',#121,4.);
#121 = AXIS2_PLACEMENT_3D('',#122,#123,#124);
#122 = CARTESIAN_POINT('',(11.190930000023,-136.6,85.807203051954));
#123 = DIRECTION('',(0.,0.,-1.));
#124 = DIRECTION('',(0.,-1.,-0.));
#125 = ORIENTED_EDGE('',*,*,#126,.T.);
#126 = EDGE_CURVE('',#118,#127,#129,.T.);
#127 = VERTEX_POINT('',#128);
#128 = CARTESIAN_POINT('',(14.990930000023,-140.6,85.807203051954));
#129 = LINE('',#130,#131);
#130 = CARTESIAN_POINT('',(7.190930000023,-140.6,85.807203051954));
#131 = VECTOR('',#132,1.);
#132 = DIRECTION('',(1.,0.,0.));
#133 = ORIENTED_EDGE('',*,*,#134,.F.);
#134 = EDGE_CURVE('',#24,#127,#135,.T.);
#135 = CIRCLE('',#136,4.);
#136 = AXIS2_PLACEMENT_3D('',#137,#138,#139);
#137 = CARTESIAN_POINT('',(14.990930000023,-136.6,85.807203051954));
#138 = DIRECTION('',(-0.,0.,-1.));
#139 = DIRECTION('',(0.,1.,0.));
#140 = ORIENTED_EDGE('',*,*,#21,.F.);
#141 = ORIENTED_EDGE('',*,*,#142,.T.);
#142 = EDGE_CURVE('',#22,#143,#145,.T.);
#143 = VERTEX_POINT('',#144);
#144 = CARTESIAN_POINT('',(27.190930000002,-134.6,85.807203051954));
#145 = LINE('',#146,#147);
#146 = CARTESIAN_POINT('',(-1.009069999998,-134.6,85.807203051954));
#147 = VECTOR('',#148,1.);
#148 = DIRECTION('',(1.,0.,0.));
#149 = ORIENTED_EDGE('',*,*,#150,.T.);
#150 = EDGE_CURVE('',#143,#151,#153,.T.);
#151 = VERTEX_POINT('',#152);
#152 = CARTESIAN_POINT('',(27.190930000002,-124.6,85.807203051954));
#153 = LINE('',#154,#155);
#154 = CARTESIAN_POINT('',(27.190930000002,-134.6,85.807203051954));
#155 = VECTOR('',#156,1.);
#156 = DIRECTION('',(0.,1.,0.));
#157 = ORIENTED_EDGE('',*,*,#158,.F.);
#158 = EDGE_CURVE('',#159,#151,#161,.T.);
#159 = VERTEX_POINT('',#160);
#160 = CARTESIAN_POINT('',(-1.009069999998,-124.6,85.807203051954));
#161 = LINE('',#162,#163);
#162 = CARTESIAN_POINT('',(-1.009069999998,-124.6,85.807203051954));
#163 = VECTOR('',#164,1.);
#164 = DIRECTION('',(1.,0.,0.));
#165 = ORIENTED_EDGE('',*,*,#166,.F.);
#166 = EDGE_CURVE('',#167,#159,#169,.T.);
#167 = VERTEX_POINT('',#168);
#168 = CARTESIAN_POINT('',(-1.009069999998,-134.6,85.807203051954));
#169 = LINE('',#170,#171);
#170 = CARTESIAN_POINT('',(-1.009069999998,-134.6,85.807203051954));
#171 = VECTOR('',#172,1.);
#172 = DIRECTION('',(0.,1.,0.));
#173 = ORIENTED_EDGE('',*,*,#174,.T.);
#174 = EDGE_CURVE('',#167,#108,#175,.T.);
#175 = LINE('',#176,#177);
#176 = CARTESIAN_POINT('',(-1.009069999998,-134.6,85.807203051954));
#177 = VECTOR('',#178,1.);
#178 = DIRECTION('',(1.,0.,0.));
#179 = FACE_BOUND('',#180,.T.);
#180 = EDGE_LOOP('',(#181,#191,#199,#207,#215,#223));
#181 = ORIENTED_EDGE('',*,*,#182,.F.);
#182 = EDGE_CURVE('',#183,#185,#187,.T.);
#183 = VERTEX_POINT('',#184);
#184 = CARTESIAN_POINT('',(19.47323890272,-129.6,85.807203051954));
#185 = VERTEX_POINT('',#186);
#186 = CARTESIAN_POINT('',(21.032084629532,-132.3,85.807203051954));
#187 = LINE('',#188,#189);
#188 = CARTESIAN_POINT('',(19.47323890272,-129.6,85.807203051954));
#189 = VECTOR('',#190,1.);
#190 = DIRECTION('',(0.5,-0.866025403784,0.));
#191 = ORIENTED_EDGE('',*,*,#192,.F.);
#192 = EDGE_CURVE('',#193,#183,#195,.T.);
#193 = VERTEX_POINT('',#194);
#194 = CARTESIAN_POINT('',(21.032084629532,-126.9,85.807203051954));
#195 = LINE('',#196,#197);
#196 = CARTESIAN_POINT('',(21.032084629532,-126.9,85.807203051954));
#197 = VECTOR('',#198,1.);
#198 = DIRECTION('',(-0.5,-0.866025403784,0.));
#199 = ORIENTED_EDGE('',*,*,#200,.F.);
#200 = EDGE_CURVE('',#201,#193,#203,.T.);
#201 = VERTEX_POINT('',#202);
#202 = CARTESIAN_POINT('',(24.149776083156,-126.9,85.807203051954));
#203 = LINE('',#204,#205);
#204 = CARTESIAN_POINT('',(24.149776083156,-126.9,85.807203051954));
#205 = VECTOR('',#206,1.);
#206 = DIRECTION('',(-1.,-2.8E-16,0.));
#207 = ORIENTED_EDGE('',*,*,#208,.F.);
#208 = EDGE_CURVE('',#209,#201,#211,.T.);
#209 = VERTEX_POINT('',#210);
#210 = CARTESIAN_POINT('',(25.708621809968,-129.6,85.807203051954));
#211 = LINE('',#212,#213);
#212 = CARTESIAN_POINT('',(25.708621809968,-129.6,85.807203051954));
#213 = VECTOR('',#214,1.);
#214 = DIRECTION('',(-0.5,0.866025403784,0.));
#215 = ORIENTED_EDGE('',*,*,#216,.F.);
#216 = EDGE_CURVE('',#217,#209,#219,.T.);
#217 = VERTEX_POINT('',#218);
#218 = CARTESIAN_POINT('',(24.149776083156,-132.3,85.807203051954));
#219 = LINE('',#220,#221);
#220 = CARTESIAN_POINT('',(24.149776083156,-132.3,85.807203051954));
#221 = VECTOR('',#222,1.);
#222 = DIRECTION('',(0.5,0.866025403784,0.));
#223 = ORIENTED_EDGE('',*,*,#224,.F.);
#224 = EDGE_CURVE('',#185,#217,#225,.T.);
#225 = LINE('',#226,#227);
#226 = CARTESIAN_POINT('',(21.032084629532,-132.3,85.807203051954));
#227 = VECTOR('',#228,1.);
#228 = DIRECTION('',(1.,0.,0.));
#229 = FACE_BOUND('',#230,.T.);
#230 = EDGE_LOOP('',(#231,#241,#249,#257,#265,#273));
#231 = ORIENTED_EDGE('',*,*,#232,.F.);
#232 = EDGE_CURVE('',#233,#235,#237,.T.);
#233 = VERTEX_POINT('',#234);
#234 = CARTESIAN_POINT('',(2.032084629532,-132.3,85.807203051954));
#235 = VERTEX_POINT('',#236);
#236 = CARTESIAN_POINT('',(5.149776083156,-132.3,85.807203051954));
#237 = LINE('',#238,#239);
#238 = CARTESIAN_POINT('',(2.032084629532,-132.3,85.807203051954));
#239 = VECTOR('',#240,1.);
#240 = DIRECTION('',(1.,0.,0.));
#241 = ORIENTED_EDGE('',*,*,#242,.F.);
#242 = EDGE_CURVE('',#243,#233,#245,.T.);
#243 = VERTEX_POINT('',#244);
#244 = CARTESIAN_POINT('',(0.47323890272,-129.6,85.807203051954));
#245 = LINE('',#246,#247);
#246 = CARTESIAN_POINT('',(0.47323890272,-129.6,85.807203051954));
#247 = VECTOR('',#248,1.);
#248 = DIRECTION('',(0.5,-0.866025403784,0.));
#249 = ORIENTED_EDGE('',*,*,#250,.F.);
#250 = EDGE_CURVE('',#251,#243,#253,.T.);
#251 = VERTEX_POINT('',#252);
#252 = CARTESIAN_POINT('',(2.032084629532,-126.9,85.807203051954));
#253 = LINE('',#254,#255);
#254 = CARTESIAN_POINT('',(2.032084629532,-126.9,85.807203051954));
#255 = VECTOR('',#256,1.);
#256 = DIRECTION('',(-0.5,-0.866025403784,0.));
#257 = ORIENTED_EDGE('',*,*,#258,.F.);
#258 = EDGE_CURVE('',#259,#251,#261,.T.);
#259 = VERTEX_POINT('',#260);
#260 = CARTESIAN_POINT('',(5.149776083156,-126.9,85.807203051954));
#261 = LINE('',#262,#263);
#262 = CARTESIAN_POINT('',(5.149776083156,-126.9,85.807203051954));
#263 = VECTOR('',#264,1.);
#264 = DIRECTION('',(-1.,0.,0.));
#265 = ORIENTED_EDGE('',*,*,#266,.F.);
#266 = EDGE_CURVE('',#267,#259,#269,.T.);
#267 = VERTEX_POINT('',#268);
#268 = CARTESIAN_POINT('',(6.708621809968,-129.6,85.807203051954));
#269 = LINE('',#270,#271);
#270 = CARTESIAN_POINT('',(6.708621809968,-129.6,85.807203051954));
#271 = VECTOR('',#272,1.);
#272 = DIRECTION('',(-0.5,0.866025403784,0.));
#273 = ORIENTED_EDGE('',*,*,#274,.F.);
#274 = EDGE_CURVE('',#235,#267,#275,.T.);
#275 = LINE('',#276,#277);
#276 = CARTESIAN_POINT('',(5.149776083156,-132.3,85.807203051954));
#277 = VECTOR('',#278,1.);
#278 = DIRECTION('',(0.5,0.866025403784,0.));
#279 = PLANE('',#280);
#280 = AXIS2_PLACEMENT_3D('',#281,#282,#283);
#281 = CARTESIAN_POINT('',(13.090930000005,-131.486877828,
    85.807203051954));
#282 = DIRECTION('',(-0.,-0.,1.));
#283 = DIRECTION('',(0.,-1.,0.));
#284 = ADVANCED_FACE('',(#285),#304,.T.);
#285 = FACE_BOUND('',#286,.T.);
#286 = EDGE_LOOP('',(#287,#288,#296,#303));
#287 = ORIENTED_EDGE('',*,*,#134,.T.);
#288 = ORIENTED_EDGE('',*,*,#289,.T.);
#289 = EDGE_CURVE('',#127,#290,#292,.T.);
#290 = VERTEX_POINT('',#291);
#291 = CARTESIAN_POINT('',(14.990930000023,-140.6,80.701630242954));
#292 = LINE('',#293,#294);
#293 = CARTESIAN_POINT('',(14.990930000023,-140.6,85.807203051954));
#294 = VECTOR('',#295,1.);
#295 = DIRECTION('',(0.,0.,-1.));
#296 = ORIENTED_EDGE('',*,*,#297,.F.);
#297 = EDGE_CURVE('',#32,#290,#298,.T.);
#298 = CIRCLE('',#299,4.);
#299 = AXIS2_PLACEMENT_3D('',#300,#301,#302);
#300 = CARTESIAN_POINT('',(14.990930000023,-136.6,80.701630242954));
#301 = DIRECTION('',(0.,0.,-1.));
#302 = DIRECTION('',(1.,0.,0.));
#303 = ORIENTED_EDGE('',*,*,#31,.F.);
#304 = CYLINDRICAL_SURFACE('',#305,4.);
#305 = AXIS2_PLACEMENT_3D('',#306,#307,#308);
#306 = CARTESIAN_POINT('',(14.990930000023,-136.6,85.807203051954));
#307 = DIRECTION('',(0.,0.,-1.));
#308 = DIRECTION('',(1.,0.,0.));
#309 = ADVANCED_FACE('',(#310),#328,.T.);
#310 = FACE_BOUND('',#311,.T.);
#311 = EDGE_LOOP('',(#312,#320,#326,#327));
#312 = ORIENTED_EDGE('',*,*,#313,.T.);
#313 = EDGE_CURVE('',#86,#314,#316,.T.);
#314 = VERTEX_POINT('',#315);
#315 = CARTESIAN_POINT('',(27.190930000002,-134.6,79.807203051954));
#316 = LINE('',#317,#318);
#317 = CARTESIAN_POINT('',(18.990930000023,-134.6,79.807203051954));
#318 = VECTOR('',#319,1.);
#319 = DIRECTION('',(1.,0.,0.));
#320 = ORIENTED_EDGE('',*,*,#321,.T.);
#321 = EDGE_CURVE('',#314,#143,#322,.T.);
#322 = LINE('',#323,#324);
#323 = CARTESIAN_POINT('',(27.190930000002,-134.6,79.807203051954));
#324 = VECTOR('',#325,1.);
#325 = DIRECTION('',(0.,0.,1.));
#326 = ORIENTED_EDGE('',*,*,#142,.F.);
#327 = ORIENTED_EDGE('',*,*,#93,.T.);
#328 = PLANE('',#329);
#329 = AXIS2_PLACEMENT_3D('',#330,#331,#332);
#330 = CARTESIAN_POINT('',(23.090930000013,-134.6,82.807203051954));
#331 = DIRECTION('',(-0.,-1.,0.));
#332 = DIRECTION('',(-1.,0.,0.));
#333 = ADVANCED_FACE('',(#334),#355,.T.);
#334 = FACE_BOUND('',#335,.T.);
#335 = EDGE_LOOP('',(#336,#337,#348,#354));
#336 = ORIENTED_EDGE('',*,*,#297,.T.);
#337 = ORIENTED_EDGE('',*,*,#338,.T.);
#338 = EDGE_CURVE('',#290,#339,#341,.T.);
#339 = VERTEX_POINT('',#340);
#340 = CARTESIAN_POINT('',(15.190930000023,-140.6,79.807203051954));
#341 = ( BOUNDED_CURVE() B_SPLINE_CURVE(5,(#342,#343,#344,#345,#346,#347
),.UNSPECIFIED.,.F.,.F.) B_SPLINE_CURVE_WITH_KNOTS((6,6),(5.105572809,6.
),.PIECEWISE_BEZIER_KNOTS.) CURVE() GEOMETRIC_REPRESENTATION_ITEM() 
RATIONAL_B_SPLINE_CURVE((1.,1.,1.,1.,1.,1.)) REPRESENTATION_ITEM('') );
#342 = CARTESIAN_POINT('',(14.990930000023,-140.6,80.701630242954));
#343 = CARTESIAN_POINT('',(15.075140526339,-140.6,80.522744804754));
#344 = CARTESIAN_POINT('',(15.13368071936,-140.6,80.343859366554));
#345 = CARTESIAN_POINT('',(15.17191713392,-140.6,80.164973928354));
#346 = CARTESIAN_POINT('',(15.190930000023,-140.6,79.986088490154));
#347 = CARTESIAN_POINT('',(15.190930000023,-140.6,79.807203051954));
#348 = ORIENTED_EDGE('',*,*,#349,.F.);
#349 = EDGE_CURVE('',#40,#339,#350,.T.);
#350 = ( BOUNDED_CURVE() B_SPLINE_CURVE(2,(#351,#352,#353),
.UNSPECIFIED.,.F.,.F.) B_SPLINE_CURVE_WITH_KNOTS((3,3),(0.,0.894427191),
.PIECEWISE_BEZIER_KNOTS.) CURVE() GEOMETRIC_REPRESENTATION_ITEM() 
RATIONAL_B_SPLINE_CURVE((1.,0.724568837309,1.)) REPRESENTATION_ITEM('') 
  );
#351 = CARTESIAN_POINT('',(18.990930000023,-136.6050031289,
    79.807203051954));
#352 = CARTESIAN_POINT('',(18.990930000023,-140.4097620537,
    79.807203051954));
#353 = CARTESIAN_POINT('',(15.190930000023,-140.6,79.807203051954));
#354 = ORIENTED_EDGE('',*,*,#39,.F.);
#355 = ( BOUNDED_SURFACE() B_SPLINE_SURFACE(2,5,(
    (#356,#357,#358,#359,#360,#361)
    ,(#362,#363,#364,#365,#366,#367)
    ,(#368,#369,#370,#371,#372,#373
)),.UNSPECIFIED.,.F.,.F.,.F.) B_SPLINE_SURFACE_WITH_KNOTS((3,3),(6,6),(
    0.,0.894427191),(5.105572809,6.),.PIECEWISE_BEZIER_KNOTS.) 
GEOMETRIC_REPRESENTATION_ITEM() RATIONAL_B_SPLINE_SURFACE((
    (1.,1.,1.,1.,1.,1.)
    ,(0.707106781187,0.714550010462,0.719627619022,0.722929807227
      ,0.724568837309,0.724568837309)
,(1.,1.,1.,1.,1.,1.))) REPRESENTATION_ITEM('') SURFACE() );
#356 = CARTESIAN_POINT('',(18.990930000023,-136.6,80.701630242954));
#357 = CARTESIAN_POINT('',(18.990930000023,-136.6,80.522744804754));
#358 = CARTESIAN_POINT('',(18.990930000023,-136.6021930477,
    80.343859366554));
#359 = CARTESIAN_POINT('',(18.990930000023,-136.6040329557,
    80.164973928354));
#360 = CARTESIAN_POINT('',(18.990930000023,-136.6050031289,
    79.986088490154));
#361 = CARTESIAN_POINT('',(18.990930000023,-136.6050031289,
    79.807203051954));
#362 = CARTESIAN_POINT('',(18.990930000023,-140.6,80.701630242954));
#363 = CARTESIAN_POINT('',(18.990930000023,-140.5166666666,
    80.524608194735));
#364 = CARTESIAN_POINT('',(18.990930000023,-140.4618908978,
    80.34546920737));
#365 = CARTESIAN_POINT('',(18.990930000023,-140.4269636291,
    80.165796465885));
#366 = CARTESIAN_POINT('',(18.990930000023,-140.4097620537,
    79.986088490154));
#367 = CARTESIAN_POINT('',(18.990930000023,-140.4097620537,
    79.807203051954));
#368 = CARTESIAN_POINT('',(14.990930000023,-140.6,80.701630242954));
#369 = CARTESIAN_POINT('',(15.075140526339,-140.6,80.522744804754));
#370 = CARTESIAN_POINT('',(15.13368071936,-140.6,80.343859366554));
#371 = CARTESIAN_POINT('',(15.17191713392,-140.6,80.164973928354));
#372 = CARTESIAN_POINT('',(15.190930000023,-140.6,79.986088490154));
#373 = CARTESIAN_POINT('',(15.190930000023,-140.6,79.807203051954));
#374 = ADVANCED_FACE('',(#375,#393),#404,.T.);
#375 = FACE_BOUND('',#376,.T.);
#376 = EDGE_LOOP('',(#377,#378,#386,#392));
#377 = ORIENTED_EDGE('',*,*,#85,.T.);
#378 = ORIENTED_EDGE('',*,*,#379,.T.);
#379 = EDGE_CURVE('',#78,#380,#382,.T.);
#380 = VERTEX_POINT('',#381);
#381 = CARTESIAN_POINT('',(27.190930000002,-124.6,79.807203051954));
#382 = LINE('',#383,#384);
#383 = CARTESIAN_POINT('',(18.990930000023,-124.6,79.807203051954));
#384 = VECTOR('',#385,1.);
#385 = DIRECTION('',(1.,0.,0.));
#386 = ORIENTED_EDGE('',*,*,#387,.F.);
#387 = EDGE_CURVE('',#314,#380,#388,.T.);
#388 = LINE('',#389,#390);
#389 = CARTESIAN_POINT('',(27.190930000002,-134.6,79.807203051954));
#390 = VECTOR('',#391,1.);
#391 = DIRECTION('',(0.,1.,0.));
#392 = ORIENTED_EDGE('',*,*,#313,.F.);
#393 = FACE_BOUND('',#394,.T.);
#394 = EDGE_LOOP('',(#395));
#395 = ORIENTED_EDGE('',*,*,#396,.F.);
#396 = EDGE_CURVE('',#397,#397,#399,.T.);
#397 = VERTEX_POINT('',#398);
#398 = CARTESIAN_POINT('',(20.990930356344,-129.6,79.807203051954));
#399 = CIRCLE('',#400,1.6);
#400 = AXIS2_PLACEMENT_3D('',#401,#402,#403);
#401 = CARTESIAN_POINT('',(22.590930356344,-129.6,79.807203051954));
#402 = DIRECTION('',(0.,0.,-1.));
#403 = DIRECTION('',(-1.,0.,0.));
#404 = PLANE('',#405);
#405 = AXIS2_PLACEMENT_3D('',#406,#407,#408);
#406 = CARTESIAN_POINT('',(23.090930000013,-129.6,79.807203051954));
#407 = DIRECTION('',(0.,0.,-1.));
#408 = DIRECTION('',(0.,1.,0.));
#409 = ADVANCED_FACE('',(#410),#431,.T.);
#410 = FACE_BOUND('',#411,.T.);
#411 = EDGE_LOOP('',(#412,#413,#424,#430));
#412 = ORIENTED_EDGE('',*,*,#349,.T.);
#413 = ORIENTED_EDGE('',*,*,#414,.T.);
#414 = EDGE_CURVE('',#339,#415,#417,.T.);
#415 = VERTEX_POINT('',#416);
#416 = CARTESIAN_POINT('',(14.990930000023,-140.6,78.912775860954));
#417 = ( BOUNDED_CURVE() B_SPLINE_CURVE(5,(#418,#419,#420,#421,#422,#423
),.UNSPECIFIED.,.F.,.F.) B_SPLINE_CURVE_WITH_KNOTS((6,6),(6.,6.894427191
),.PIECEWISE_BEZIER_KNOTS.) CURVE() GEOMETRIC_REPRESENTATION_ITEM() 
RATIONAL_B_SPLINE_CURVE((1.,1.,1.,1.,1.,1.)) REPRESENTATION_ITEM('') );
#418 = CARTESIAN_POINT('',(15.190930000023,-140.6,79.807203051954));
#419 = CARTESIAN_POINT('',(15.190930000023,-140.6,79.628317613754));
#420 = CARTESIAN_POINT('',(15.17191713392,-140.6,79.449432175554));
#421 = CARTESIAN_POINT('',(15.13368071936,-140.6,79.270546737354));
#422 = CARTESIAN_POINT('',(15.075140526339,-140.6,79.091661299154));
#423 = CARTESIAN_POINT('',(14.990930000023,-140.6,78.912775860954));
#424 = ORIENTED_EDGE('',*,*,#425,.F.);
#425 = EDGE_CURVE('',#51,#415,#426,.T.);
#426 = ( BOUNDED_CURVE() B_SPLINE_CURVE(2,(#427,#428,#429),
.UNSPECIFIED.,.F.,.F.) B_SPLINE_CURVE_WITH_KNOTS((3,3),(0.,0.894427191),
.PIECEWISE_BEZIER_KNOTS.) CURVE() GEOMETRIC_REPRESENTATION_ITEM() 
RATIONAL_B_SPLINE_CURVE((1.,0.707106781187,1.)) REPRESENTATION_ITEM('') 
  );
#427 = CARTESIAN_POINT('',(18.990930000023,-136.6,78.912775860954));
#428 = CARTESIAN_POINT('',(18.990930000023,-140.6,78.912775860954));
#429 = CARTESIAN_POINT('',(14.990930000023,-140.6,78.912775860954));
#430 = ORIENTED_EDGE('',*,*,#50,.F.);
#431 = ( BOUNDED_SURFACE() B_SPLINE_SURFACE(2,5,(
    (#432,#433,#434,#435,#436,#437)
    ,(#438,#439,#440,#441,#442,#443)
    ,(#444,#445,#446,#447,#448,#449
)),.UNSPECIFIED.,.F.,.F.,.F.) B_SPLINE_SURFACE_WITH_KNOTS((3,3),(6,6),(
    0.,0.894427191),(6.,6.894427191),.PIECEWISE_BEZIER_KNOTS.) 
GEOMETRIC_REPRESENTATION_ITEM() RATIONAL_B_SPLINE_SURFACE((
    (1.,1.,1.,1.,1.,1.)
    ,(0.724568837309,0.724568837309,0.722929807227,0.719627619022
      ,0.714550010462,0.707106781187)
,(1.,1.,1.,1.,1.,1.))) REPRESENTATION_ITEM('') SURFACE() );
#432 = CARTESIAN_POINT('',(18.990930000023,-136.6050031289,
    79.807203051954));
#433 = CARTESIAN_POINT('',(18.990930000023,-136.6050031289,
    79.628317613754));
#434 = CARTESIAN_POINT('',(18.990930000023,-136.6040329557,
    79.449432175554));
#435 = CARTESIAN_POINT('',(18.990930000023,-136.6021930477,
    79.270546737354));
#436 = CARTESIAN_POINT('',(18.990930000023,-136.6,79.091661299154));
#437 = CARTESIAN_POINT('',(18.990930000023,-136.6,78.912775860954));
#438 = CARTESIAN_POINT('',(18.990930000023,-140.4097620537,
    79.807203051954));
#439 = CARTESIAN_POINT('',(18.990930000023,-140.4097620537,
    79.628317613754));
#440 = CARTESIAN_POINT('',(18.990930000023,-140.4269636291,
    79.448609638023));
#441 = CARTESIAN_POINT('',(18.990930000023,-140.4618908978,
    79.268936896538));
#442 = CARTESIAN_POINT('',(18.990930000023,-140.5166666666,
    79.089797909173));
#443 = CARTESIAN_POINT('',(18.990930000023,-140.6,78.912775860954));
#444 = CARTESIAN_POINT('',(15.190930000023,-140.6,79.807203051954));
#445 = CARTESIAN_POINT('',(15.190930000023,-140.6,79.628317613754));
#446 = CARTESIAN_POINT('',(15.17191713392,-140.6,79.449432175554));
#447 = CARTESIAN_POINT('',(15.13368071936,-140.6,79.270546737354));
#448 = CARTESIAN_POINT('',(15.075140526339,-140.6,79.091661299154));
#449 = CARTESIAN_POINT('',(14.990930000023,-140.6,78.912775860954));
#450 = ADVANCED_FACE('',(#451,#492),#503,.T.);
#451 = FACE_BOUND('',#452,.T.);
#452 = EDGE_LOOP('',(#453,#454,#455,#463,#471,#479,#485,#486));
#453 = ORIENTED_EDGE('',*,*,#379,.F.);
#454 = ORIENTED_EDGE('',*,*,#77,.T.);
#455 = ORIENTED_EDGE('',*,*,#456,.T.);
#456 = EDGE_CURVE('',#70,#457,#459,.T.);
#457 = VERTEX_POINT('',#458);
#458 = CARTESIAN_POINT('',(7.190930000023,-124.6,74.807203051954));
#459 = LINE('',#460,#461);
#460 = CARTESIAN_POINT('',(18.990930000023,-124.6,74.807203051954));
#461 = VECTOR('',#462,1.);
#462 = DIRECTION('',(-1.,0.,0.));
#463 = ORIENTED_EDGE('',*,*,#464,.T.);
#464 = EDGE_CURVE('',#457,#465,#467,.T.);
#465 = VERTEX_POINT('',#466);
#466 = CARTESIAN_POINT('',(7.190930000023,-124.6,79.807203051954));
#467 = LINE('',#468,#469);
#468 = CARTESIAN_POINT('',(7.190930000023,-124.6,74.807203051954));
#469 = VECTOR('',#470,1.);
#470 = DIRECTION('',(0.,0.,1.));
#471 = ORIENTED_EDGE('',*,*,#472,.T.);
#472 = EDGE_CURVE('',#465,#473,#475,.T.);
#473 = VERTEX_POINT('',#474);
#474 = CARTESIAN_POINT('',(-1.009069999998,-124.6,79.807203051954));
#475 = LINE('',#476,#477);
#476 = CARTESIAN_POINT('',(7.190930000023,-124.6,79.807203051954));
#477 = VECTOR('',#478,1.);
#478 = DIRECTION('',(-1.,0.,0.));
#479 = ORIENTED_EDGE('',*,*,#480,.T.);
#480 = EDGE_CURVE('',#473,#159,#481,.T.);
#481 = LINE('',#482,#483);
#482 = CARTESIAN_POINT('',(-1.009069999998,-124.6,79.807203051954));
#483 = VECTOR('',#484,1.);
#484 = DIRECTION('',(0.,0.,1.));
#485 = ORIENTED_EDGE('',*,*,#158,.T.);
#486 = ORIENTED_EDGE('',*,*,#487,.F.);
#487 = EDGE_CURVE('',#380,#151,#488,.T.);
#488 = LINE('',#489,#490);
#489 = CARTESIAN_POINT('',(27.190930000002,-124.6,79.807203051954));
#490 = VECTOR('',#491,1.);
#491 = DIRECTION('',(0.,0.,1.));
#492 = FACE_BOUND('',#493,.T.);
#493 = EDGE_LOOP('',(#494));
#494 = ORIENTED_EDGE('',*,*,#495,.T.);
#495 = EDGE_CURVE('',#496,#496,#498,.T.);
#496 = VERTEX_POINT('',#497);
#497 = CARTESIAN_POINT('',(15.190930000023,-124.6,79.807203051954));
#498 = CIRCLE('',#499,2.1);
#499 = AXIS2_PLACEMENT_3D('',#500,#501,#502);
#500 = CARTESIAN_POINT('',(13.090930000023,-124.6,79.807203051954));
#501 = DIRECTION('',(0.,-1.,0.));
#502 = DIRECTION('',(1.,0.,0.));
#503 = PLANE('',#504);
#504 = AXIS2_PLACEMENT_3D('',#505,#506,#507);
#505 = CARTESIAN_POINT('',(13.090930000004,-124.6,81.353121419301));
#506 = DIRECTION('',(0.,1.,0.));
#507 = DIRECTION('',(1.,0.,0.));
#508 = ADVANCED_FACE('',(#509),#528,.T.);
#509 = FACE_BOUND('',#510,.T.);
#510 = EDGE_LOOP('',(#511,#512,#520,#527));
#511 = ORIENTED_EDGE('',*,*,#425,.T.);
#512 = ORIENTED_EDGE('',*,*,#513,.T.);
#513 = EDGE_CURVE('',#415,#514,#516,.T.);
#514 = VERTEX_POINT('',#515);
#515 = CARTESIAN_POINT('',(14.990930000023,-140.6,74.807203051954));
#516 = LINE('',#517,#518);
#517 = CARTESIAN_POINT('',(14.990930000023,-140.6,85.807203051954));
#518 = VECTOR('',#519,1.);
#519 = DIRECTION('',(0.,0.,-1.));
#520 = ORIENTED_EDGE('',*,*,#521,.F.);
#521 = EDGE_CURVE('',#62,#514,#522,.T.);
#522 = CIRCLE('',#523,4.);
#523 = AXIS2_PLACEMENT_3D('',#524,#525,#526);
#524 = CARTESIAN_POINT('',(14.990930000023,-136.6,74.807203051954));
#525 = DIRECTION('',(-0.,0.,-1.));
#526 = DIRECTION('',(0.,1.,0.));
#527 = ORIENTED_EDGE('',*,*,#61,.F.);
#528 = CYLINDRICAL_SURFACE('',#529,4.);
#529 = AXIS2_PLACEMENT_3D('',#530,#531,#532);
#530 = CARTESIAN_POINT('',(14.990930000023,-136.6,85.807203051954));
#531 = DIRECTION('',(0.,0.,-1.));
#532 = DIRECTION('',(1.,0.,0.));
#533 = ADVANCED_FACE('',(#534),#562,.T.);
#534 = FACE_BOUND('',#535,.T.);
#535 = EDGE_LOOP('',(#536,#537,#538,#546,#555,#561));
#536 = ORIENTED_EDGE('',*,*,#69,.T.);
#537 = ORIENTED_EDGE('',*,*,#521,.T.);
#538 = ORIENTED_EDGE('',*,*,#539,.T.);
#539 = EDGE_CURVE('',#514,#540,#542,.T.);
#540 = VERTEX_POINT('',#541);
#541 = CARTESIAN_POINT('',(11.190930000023,-140.6,74.807203051954));
#542 = LINE('',#543,#544);
#543 = CARTESIAN_POINT('',(18.990930000023,-140.6,74.807203051954));
#544 = VECTOR('',#545,1.);
#545 = DIRECTION('',(-1.,0.,0.));
#546 = ORIENTED_EDGE('',*,*,#547,.T.);
#547 = EDGE_CURVE('',#540,#548,#550,.T.);
#548 = VERTEX_POINT('',#549);
#549 = CARTESIAN_POINT('',(7.190930000023,-136.6,74.807203051954));
#550 = CIRCLE('',#551,4.);
#551 = AXIS2_PLACEMENT_3D('',#552,#553,#554);
#552 = CARTESIAN_POINT('',(11.190930000023,-136.6,74.807203051954));
#553 = DIRECTION('',(0.,0.,-1.));
#554 = DIRECTION('',(0.,-1.,-0.));
#555 = ORIENTED_EDGE('',*,*,#556,.F.);
#556 = EDGE_CURVE('',#457,#548,#557,.T.);
#557 = LINE('',#558,#559);
#558 = CARTESIAN_POINT('',(7.190930000023,-134.6,74.807203051954));
#559 = VECTOR('',#560,1.);
#560 = DIRECTION('',(0.,-1.,0.));
#561 = ORIENTED_EDGE('',*,*,#456,.F.);
#562 = PLANE('',#563);
#563 = AXIS2_PLACEMENT_3D('',#564,#565,#566);
#564 = CARTESIAN_POINT('',(13.090930000023,-132.6,74.807203051954));
#565 = DIRECTION('',(0.,0.,-1.));
#566 = DIRECTION('',(0.,1.,0.));
#567 = ADVANCED_FACE('',(#568),#613,.T.);
#568 = FACE_BOUND('',#569,.T.);
#569 = EDGE_LOOP('',(#570,#571,#579,#591,#597,#598,#606,#612));
#570 = ORIENTED_EDGE('',*,*,#556,.T.);
#571 = ORIENTED_EDGE('',*,*,#572,.T.);
#572 = EDGE_CURVE('',#548,#573,#575,.T.);
#573 = VERTEX_POINT('',#574);
#574 = CARTESIAN_POINT('',(7.190930000023,-136.6,78.912775860954));
#575 = LINE('',#576,#577);
#576 = CARTESIAN_POINT('',(7.190930000023,-136.6,74.807203051954));
#577 = VECTOR('',#578,1.);
#578 = DIRECTION('',(0.,0.,1.));
#579 = ORIENTED_EDGE('',*,*,#580,.T.);
#580 = EDGE_CURVE('',#573,#581,#583,.T.);
#581 = VERTEX_POINT('',#582);
#582 = CARTESIAN_POINT('',(7.190930000023,-136.6,80.701630242954));
#583 = ( BOUNDED_CURVE() B_SPLINE_CURVE(6,(#584,#585,#586,#587,#588,#589
,#590),.UNSPECIFIED.,.F.,.F.) B_SPLINE_CURVE_WITH_KNOTS((7,7),(
4.105572809,5.894427191),.PIECEWISE_BEZIER_KNOTS.) CURVE() 
GEOMETRIC_REPRESENTATION_ITEM() RATIONAL_B_SPLINE_CURVE((1.,1.,1.,1.,1.,
1.,1.)) REPRESENTATION_ITEM('') );
#584 = CARTESIAN_POINT('',(7.190930000023,-136.6,78.912775860954));
#585 = CARTESIAN_POINT('',(7.190930000023,-136.6,79.210918257954));
#586 = CARTESIAN_POINT('',(7.190930000023,-136.6058636753,
    79.509060654954));
#587 = CARTESIAN_POINT('',(7.190930000023,-136.6072114218,
    79.807203051954));
#588 = CARTESIAN_POINT('',(7.190930000023,-136.6058636753,
    80.105345448954));
#589 = CARTESIAN_POINT('',(7.190930000023,-136.6,80.403487845954));
#590 = CARTESIAN_POINT('',(7.190930000023,-136.6,80.701630242954));
#591 = ORIENTED_EDGE('',*,*,#592,.T.);
#592 = EDGE_CURVE('',#581,#110,#593,.T.);
#593 = LINE('',#594,#595);
#594 = CARTESIAN_POINT('',(7.190930000023,-136.6,74.807203051954));
#595 = VECTOR('',#596,1.);
#596 = DIRECTION('',(0.,0.,1.));
#597 = ORIENTED_EDGE('',*,*,#107,.F.);
#598 = ORIENTED_EDGE('',*,*,#599,.F.);
#599 = EDGE_CURVE('',#600,#108,#602,.T.);
#600 = VERTEX_POINT('',#601);
#601 = CARTESIAN_POINT('',(7.190930000023,-134.6,79.807203051954));
#602 = LINE('',#603,#604);
#603 = CARTESIAN_POINT('',(7.190930000023,-134.6,74.807203051954));
#604 = VECTOR('',#605,1.);
#605 = DIRECTION('',(0.,0.,1.));
#606 = ORIENTED_EDGE('',*,*,#607,.T.);
#607 = EDGE_CURVE('',#600,#465,#608,.T.);
#608 = LINE('',#609,#610);
#609 = CARTESIAN_POINT('',(7.190930000023,-134.6,79.807203051954));
#610 = VECTOR('',#611,1.);
#611 = DIRECTION('',(0.,1.,0.));
#612 = ORIENTED_EDGE('',*,*,#464,.F.);
#613 = PLANE('',#614);
#614 = AXIS2_PLACEMENT_3D('',#615,#616,#617);
#615 = CARTESIAN_POINT('',(7.190930000023,-133.7111111111,
    79.196091940843));
#616 = DIRECTION('',(-1.,-0.,0.));
#617 = DIRECTION('',(0.,-1.,0.));
#618 = ADVANCED_FACE('',(#619),#637,.T.);
#619 = FACE_BOUND('',#620,.F.);
#620 = EDGE_LOOP('',(#621,#629,#630,#631));
#621 = ORIENTED_EDGE('',*,*,#622,.T.);
#622 = EDGE_CURVE('',#623,#581,#625,.T.);
#623 = VERTEX_POINT('',#624);
#624 = CARTESIAN_POINT('',(11.190930000023,-140.6,80.701630242954));
#625 = ( BOUNDED_CURVE() B_SPLINE_CURVE(2,(#626,#627,#628),
.UNSPECIFIED.,.F.,.F.) B_SPLINE_CURVE_WITH_KNOTS((3,3),(0.,1.788854382),
.PIECEWISE_BEZIER_KNOTS.) CURVE() GEOMETRIC_REPRESENTATION_ITEM() 
RATIONAL_B_SPLINE_CURVE((1.,0.707106781187,1.)) REPRESENTATION_ITEM('') 
  );
#626 = CARTESIAN_POINT('',(11.190930000023,-140.6,80.701630242954));
#627 = CARTESIAN_POINT('',(7.190930000023,-140.6,80.701630242954));
#628 = CARTESIAN_POINT('',(7.190930000023,-136.6,80.701630242954));
#629 = ORIENTED_EDGE('',*,*,#592,.T.);
#630 = ORIENTED_EDGE('',*,*,#117,.F.);
#631 = ORIENTED_EDGE('',*,*,#632,.F.);
#632 = EDGE_CURVE('',#623,#118,#633,.T.);
#633 = LINE('',#634,#635);
#634 = CARTESIAN_POINT('',(11.190930000023,-140.6,74.807203051954));
#635 = VECTOR('',#636,1.);
#636 = DIRECTION('',(0.,0.,1.));
#637 = CYLINDRICAL_SURFACE('',#638,4.);
#638 = AXIS2_PLACEMENT_3D('',#639,#640,#641);
#639 = CARTESIAN_POINT('',(11.190930000023,-136.6,74.807203051954));
#640 = DIRECTION('',(0.,0.,1.));
#641 = DIRECTION('',(0.,-1.,0.));
#642 = ADVANCED_FACE('',(#643),#661,.T.);
#643 = FACE_BOUND('',#644,.T.);
#644 = EDGE_LOOP('',(#645,#653,#659,#660));
#645 = ORIENTED_EDGE('',*,*,#646,.F.);
#646 = EDGE_CURVE('',#647,#167,#649,.T.);
#647 = VERTEX_POINT('',#648);
#648 = CARTESIAN_POINT('',(-1.009069999998,-134.6,79.807203051954));
#649 = LINE('',#650,#651);
#650 = CARTESIAN_POINT('',(-1.009069999998,-134.6,79.807203051954));
#651 = VECTOR('',#652,1.);
#652 = DIRECTION('',(0.,0.,1.));
#653 = ORIENTED_EDGE('',*,*,#654,.F.);
#654 = EDGE_CURVE('',#600,#647,#655,.T.);
#655 = LINE('',#656,#657);
#656 = CARTESIAN_POINT('',(7.190930000023,-134.6,79.807203051954));
#657 = VECTOR('',#658,1.);
#658 = DIRECTION('',(-1.,0.,0.));
#659 = ORIENTED_EDGE('',*,*,#599,.T.);
#660 = ORIENTED_EDGE('',*,*,#174,.F.);
#661 = PLANE('',#662);
#662 = AXIS2_PLACEMENT_3D('',#663,#664,#665);
#663 = CARTESIAN_POINT('',(3.090930000013,-134.6,82.807203051954));
#664 = DIRECTION('',(-0.,-1.,0.));
#665 = DIRECTION('',(-1.,0.,0.));
#666 = ADVANCED_FACE('',(#667),#679,.F.);
#667 = FACE_BOUND('',#668,.F.);
#668 = EDGE_LOOP('',(#669,#670,#671,#678));
#669 = ORIENTED_EDGE('',*,*,#126,.T.);
#670 = ORIENTED_EDGE('',*,*,#289,.T.);
#671 = ORIENTED_EDGE('',*,*,#672,.T.);
#672 = EDGE_CURVE('',#290,#623,#673,.T.);
#673 = CIRCLE('',#674,2.1);
#674 = AXIS2_PLACEMENT_3D('',#675,#676,#677);
#675 = CARTESIAN_POINT('',(13.090930000023,-140.6,79.807203051954));
#676 = DIRECTION('',(0.,-1.,0.));
#677 = DIRECTION('',(1.,0.,0.));
#678 = ORIENTED_EDGE('',*,*,#632,.T.);
#679 = PLANE('',#680);
#680 = AXIS2_PLACEMENT_3D('',#681,#682,#683);
#681 = CARTESIAN_POINT('',(13.090930000023,-140.6,80.307203051954));
#682 = DIRECTION('',(0.,1.,0.));
#683 = DIRECTION('',(1.,0.,0.));
#684 = ADVANCED_FACE('',(#685),#696,.T.);
#685 = FACE_BOUND('',#686,.T.);
#686 = EDGE_LOOP('',(#687,#688,#689,#690));
#687 = ORIENTED_EDGE('',*,*,#646,.T.);
#688 = ORIENTED_EDGE('',*,*,#166,.T.);
#689 = ORIENTED_EDGE('',*,*,#480,.F.);
#690 = ORIENTED_EDGE('',*,*,#691,.F.);
#691 = EDGE_CURVE('',#647,#473,#692,.T.);
#692 = LINE('',#693,#694);
#693 = CARTESIAN_POINT('',(-1.009069999998,-134.6,79.807203051954));
#694 = VECTOR('',#695,1.);
#695 = DIRECTION('',(0.,1.,0.));
#696 = PLANE('',#697);
#697 = AXIS2_PLACEMENT_3D('',#698,#699,#700);
#698 = CARTESIAN_POINT('',(-1.009069999998,-129.6,82.807203051954));
#699 = DIRECTION('',(-1.,-0.,0.));
#700 = DIRECTION('',(0.,-1.,0.));
#701 = ADVANCED_FACE('',(#702),#708,.T.);
#702 = FACE_BOUND('',#703,.T.);
#703 = EDGE_LOOP('',(#704,#705,#706,#707));
#704 = ORIENTED_EDGE('',*,*,#321,.F.);
#705 = ORIENTED_EDGE('',*,*,#387,.T.);
#706 = ORIENTED_EDGE('',*,*,#487,.T.);
#707 = ORIENTED_EDGE('',*,*,#150,.F.);
#708 = PLANE('',#709);
#709 = AXIS2_PLACEMENT_3D('',#710,#711,#712);
#710 = CARTESIAN_POINT('',(27.190930000002,-129.6,82.807203051954));
#711 = DIRECTION('',(1.,0.,0.));
#712 = DIRECTION('',(0.,1.,0.));
#713 = ADVANCED_FACE('',(#714),#739,.F.);
#714 = FACE_BOUND('',#715,.F.);
#715 = EDGE_LOOP('',(#716,#717,#725,#733));
#716 = ORIENTED_EDGE('',*,*,#182,.F.);
#717 = ORIENTED_EDGE('',*,*,#718,.T.);
#718 = EDGE_CURVE('',#183,#719,#721,.T.);
#719 = VERTEX_POINT('',#720);
#720 = CARTESIAN_POINT('',(19.47323890272,-129.6,81.807203051954));
#721 = LINE('',#722,#723);
#722 = CARTESIAN_POINT('',(19.47323890272,-129.6,85.807203051954));
#723 = VECTOR('',#724,1.);
#724 = DIRECTION('',(0.,-2.2E-16,-1.));
#725 = ORIENTED_EDGE('',*,*,#726,.F.);
#726 = EDGE_CURVE('',#727,#719,#729,.T.);
#727 = VERTEX_POINT('',#728);
#728 = CARTESIAN_POINT('',(21.032084629532,-132.3,81.807203051954));
#729 = LINE('',#730,#731);
#730 = CARTESIAN_POINT('',(19.35541853515,-129.3959291372,
    81.807203051954));
#731 = VECTOR('',#732,1.);
#732 = DIRECTION('',(-0.5,0.866025403784,2.5E-16));
#733 = ORIENTED_EDGE('',*,*,#734,.F.);
#734 = EDGE_CURVE('',#185,#727,#735,.T.);
#735 = LINE('',#736,#737);
#736 = CARTESIAN_POINT('',(21.032084629532,-132.3,85.807203051954));
#737 = VECTOR('',#738,1.);
#738 = DIRECTION('',(0.,-2.2E-16,-1.));
#739 = PLANE('',#740);
#740 = AXIS2_PLACEMENT_3D('',#741,#742,#743);
#741 = CARTESIAN_POINT('',(19.47323890272,-129.6,85.807203051954));
#742 = DIRECTION('',(-0.866025403784,-0.5,1.1E-16));
#743 = DIRECTION('',(0.5,-0.866025403784,1.9E-16));
#744 = ADVANCED_FACE('',(#745),#763,.F.);
#745 = FACE_BOUND('',#746,.F.);
#746 = EDGE_LOOP('',(#747,#748,#756,#762));
#747 = ORIENTED_EDGE('',*,*,#192,.F.);
#748 = ORIENTED_EDGE('',*,*,#749,.T.);
#749 = EDGE_CURVE('',#193,#750,#752,.T.);
#750 = VERTEX_POINT('',#751);
#751 = CARTESIAN_POINT('',(21.032084629532,-126.9,81.807203051954));
#752 = LINE('',#753,#754);
#753 = CARTESIAN_POINT('',(21.032084629532,-126.9,85.807203051954));
#754 = VECTOR('',#755,1.);
#755 = DIRECTION('',(0.,-2.2E-16,-1.));
#756 = ORIENTED_EDGE('',*,*,#757,.F.);
#757 = EDGE_CURVE('',#719,#750,#758,.T.);
#758 = LINE('',#759,#760);
#759 = CARTESIAN_POINT('',(22.299904908017,-124.7040708627,
    81.807203051954));
#760 = VECTOR('',#761,1.);
#761 = DIRECTION('',(0.5,0.866025403784,1.4E-16));
#762 = ORIENTED_EDGE('',*,*,#718,.F.);
#763 = PLANE('',#764);
#764 = AXIS2_PLACEMENT_3D('',#765,#766,#767);
#765 = CARTESIAN_POINT('',(21.032084629532,-126.9,85.807203051954));
#766 = DIRECTION('',(-0.866025403784,0.5,-1.1E-16));
#767 = DIRECTION('',(-0.5,-0.866025403784,1.9E-16));
#768 = ADVANCED_FACE('',(#769),#787,.F.);
#769 = FACE_BOUND('',#770,.F.);
#770 = EDGE_LOOP('',(#771,#772,#780,#786));
#771 = ORIENTED_EDGE('',*,*,#200,.F.);
#772 = ORIENTED_EDGE('',*,*,#773,.T.);
#773 = EDGE_CURVE('',#201,#774,#776,.T.);
#774 = VERTEX_POINT('',#775);
#775 = CARTESIAN_POINT('',(24.149776083156,-126.9,81.807203051954));
#776 = LINE('',#777,#778);
#777 = CARTESIAN_POINT('',(24.149776083156,-126.9,85.807203051954));
#778 = VECTOR('',#779,1.);
#779 = DIRECTION('',(0.,-2.2E-16,-1.));
#780 = ORIENTED_EDGE('',*,*,#781,.F.);
#781 = EDGE_CURVE('',#750,#774,#782,.T.);
#782 = LINE('',#783,#784);
#783 = CARTESIAN_POINT('',(25.670353041579,-126.9,81.807203051954));
#784 = VECTOR('',#785,1.);
#785 = DIRECTION('',(1.,2.8E-16,-1.1E-16));
#786 = ORIENTED_EDGE('',*,*,#749,.F.);
#787 = PLANE('',#788);
#788 = AXIS2_PLACEMENT_3D('',#789,#790,#791);
#789 = CARTESIAN_POINT('',(24.149776083156,-126.9,85.807203051954));
#790 = DIRECTION('',(-2.8E-16,1.,-2.2E-16));
#791 = DIRECTION('',(-1.,-2.8E-16,-0.));
#792 = ADVANCED_FACE('',(#793),#811,.F.);
#793 = FACE_BOUND('',#794,.F.);
#794 = EDGE_LOOP('',(#795,#796,#804,#810));
#795 = ORIENTED_EDGE('',*,*,#208,.F.);
#796 = ORIENTED_EDGE('',*,*,#797,.T.);
#797 = EDGE_CURVE('',#209,#798,#800,.T.);
#798 = VERTEX_POINT('',#799);
#799 = CARTESIAN_POINT('',(25.708621809968,-129.6,81.807203051954));
#800 = LINE('',#801,#802);
#801 = CARTESIAN_POINT('',(25.708621809968,-129.6,85.807203051954));
#802 = VECTOR('',#803,1.);
#803 = DIRECTION('',(0.,-2.2E-16,-1.));
#804 = ORIENTED_EDGE('',*,*,#805,.F.);
#805 = EDGE_CURVE('',#774,#798,#806,.T.);
#806 = LINE('',#807,#808);
#807 = CARTESIAN_POINT('',(24.811378578992,-128.0459291372,
    81.807203051954));
#808 = VECTOR('',#809,1.);
#809 = DIRECTION('',(0.5,-0.866025403784,-2.5E-16));
#810 = ORIENTED_EDGE('',*,*,#773,.F.);
#811 = PLANE('',#812);
#812 = AXIS2_PLACEMENT_3D('',#813,#814,#815);
#813 = CARTESIAN_POINT('',(25.708621809968,-129.6,85.807203051954));
#814 = DIRECTION('',(0.866025403784,0.5,-1.1E-16));
#815 = DIRECTION('',(-0.5,0.866025403784,-1.9E-16));
#816 = ADVANCED_FACE('',(#817),#835,.F.);
#817 = FACE_BOUND('',#818,.F.);
#818 = EDGE_LOOP('',(#819,#820,#828,#834));
#819 = ORIENTED_EDGE('',*,*,#216,.F.);
#820 = ORIENTED_EDGE('',*,*,#821,.T.);
#821 = EDGE_CURVE('',#217,#822,#824,.T.);
#822 = VERTEX_POINT('',#823);
#823 = CARTESIAN_POINT('',(24.149776083156,-132.3,81.807203051954));
#824 = LINE('',#825,#826);
#825 = CARTESIAN_POINT('',(24.149776083156,-132.3,85.807203051954));
#826 = VECTOR('',#827,1.);
#827 = DIRECTION('',(0.,-2.2E-16,-1.));
#828 = ORIENTED_EDGE('',*,*,#829,.F.);
#829 = EDGE_CURVE('',#798,#822,#830,.T.);
#830 = LINE('',#831,#832);
#831 = CARTESIAN_POINT('',(26.197019225047,-128.7540708627,
    81.807203051954));
#832 = VECTOR('',#833,1.);
#833 = DIRECTION('',(-0.5,-0.866025403784,-1.4E-16));
#834 = ORIENTED_EDGE('',*,*,#797,.F.);
#835 = PLANE('',#836);
#836 = AXIS2_PLACEMENT_3D('',#837,#838,#839);
#837 = CARTESIAN_POINT('',(24.149776083156,-132.3,85.807203051954));
#838 = DIRECTION('',(0.866025403784,-0.5,1.1E-16));
#839 = DIRECTION('',(0.5,0.866025403784,-1.9E-16));
#840 = ADVANCED_FACE('',(#841),#852,.F.);
#841 = FACE_BOUND('',#842,.F.);
#842 = EDGE_LOOP('',(#843,#844,#845,#851));
#843 = ORIENTED_EDGE('',*,*,#224,.F.);
#844 = ORIENTED_EDGE('',*,*,#734,.T.);
#845 = ORIENTED_EDGE('',*,*,#846,.F.);
#846 = EDGE_CURVE('',#822,#727,#847,.T.);
#847 = LINE('',#848,#849);
#848 = CARTESIAN_POINT('',(24.111507314767,-132.3,81.807203051954));
#849 = VECTOR('',#850,1.);
#850 = DIRECTION('',(-1.,0.,1.1E-16));
#851 = ORIENTED_EDGE('',*,*,#821,.F.);
#852 = PLANE('',#853);
#853 = AXIS2_PLACEMENT_3D('',#854,#855,#856);
#854 = CARTESIAN_POINT('',(21.032084629532,-132.3,85.807203051954));
#855 = DIRECTION('',(0.,-1.,2.2E-16));
#856 = DIRECTION('',(1.,0.,0.));
#857 = ADVANCED_FACE('',(#858),#883,.F.);
#858 = FACE_BOUND('',#859,.F.);
#859 = EDGE_LOOP('',(#860,#861,#869,#877));
#860 = ORIENTED_EDGE('',*,*,#232,.F.);
#861 = ORIENTED_EDGE('',*,*,#862,.T.);
#862 = EDGE_CURVE('',#233,#863,#865,.T.);
#863 = VERTEX_POINT('',#864);
#864 = CARTESIAN_POINT('',(2.032084629532,-132.3,81.807203051954));
#865 = LINE('',#866,#867);
#866 = CARTESIAN_POINT('',(2.032084629532,-132.3,85.807203051954));
#867 = VECTOR('',#868,1.);
#868 = DIRECTION('',(0.,-2.2E-16,-1.));
#869 = ORIENTED_EDGE('',*,*,#870,.F.);
#870 = EDGE_CURVE('',#871,#863,#873,.T.);
#871 = VERTEX_POINT('',#872);
#872 = CARTESIAN_POINT('',(5.149776083156,-132.3,81.807203051954));
#873 = LINE('',#874,#875);
#874 = CARTESIAN_POINT('',(14.611507314767,-132.3,81.807203051954));
#875 = VECTOR('',#876,1.);
#876 = DIRECTION('',(-1.,0.,1.1E-16));
#877 = ORIENTED_EDGE('',*,*,#878,.F.);
#878 = EDGE_CURVE('',#235,#871,#879,.T.);
#879 = LINE('',#880,#881);
#880 = CARTESIAN_POINT('',(5.149776083156,-132.3,85.807203051954));
#881 = VECTOR('',#882,1.);
#882 = DIRECTION('',(0.,-2.2E-16,-1.));
#883 = PLANE('',#884);
#884 = AXIS2_PLACEMENT_3D('',#885,#886,#887);
#885 = CARTESIAN_POINT('',(2.032084629532,-132.3,85.807203051954));
#886 = DIRECTION('',(0.,-1.,2.2E-16));
#887 = DIRECTION('',(1.,0.,0.));
#888 = ADVANCED_FACE('',(#889),#907,.F.);
#889 = FACE_BOUND('',#890,.F.);
#890 = EDGE_LOOP('',(#891,#892,#900,#906));
#891 = ORIENTED_EDGE('',*,*,#242,.F.);
#892 = ORIENTED_EDGE('',*,*,#893,.T.);
#893 = EDGE_CURVE('',#243,#894,#896,.T.);
#894 = VERTEX_POINT('',#895);
#895 = CARTESIAN_POINT('',(0.47323890272,-129.6,81.807203051954));
#896 = LINE('',#897,#898);
#897 = CARTESIAN_POINT('',(0.47323890272,-129.6,85.807203051954));
#898 = VECTOR('',#899,1.);
#899 = DIRECTION('',(0.,-2.2E-16,-1.));
#900 = ORIENTED_EDGE('',*,*,#901,.F.);
#901 = EDGE_CURVE('',#863,#894,#902,.T.);
#902 = LINE('',#903,#904);
#903 = CARTESIAN_POINT('',(2.73041853515,-133.5095498051,81.807203051954
    ));
#904 = VECTOR('',#905,1.);
#905 = DIRECTION('',(-0.5,0.866025403784,2.5E-16));
#906 = ORIENTED_EDGE('',*,*,#862,.F.);
#907 = PLANE('',#908);
#908 = AXIS2_PLACEMENT_3D('',#909,#910,#911);
#909 = CARTESIAN_POINT('',(0.47323890272,-129.6,85.807203051954));
#910 = DIRECTION('',(-0.866025403784,-0.5,1.1E-16));
#911 = DIRECTION('',(0.5,-0.866025403784,1.9E-16));
#912 = ADVANCED_FACE('',(#913),#931,.F.);
#913 = FACE_BOUND('',#914,.F.);
#914 = EDGE_LOOP('',(#915,#916,#924,#930));
#915 = ORIENTED_EDGE('',*,*,#250,.F.);
#916 = ORIENTED_EDGE('',*,*,#917,.T.);
#917 = EDGE_CURVE('',#251,#918,#920,.T.);
#918 = VERTEX_POINT('',#919);
#919 = CARTESIAN_POINT('',(2.032084629532,-126.9,81.807203051954));
#920 = LINE('',#921,#922);
#921 = CARTESIAN_POINT('',(2.032084629532,-126.9,85.807203051954));
#922 = VECTOR('',#923,1.);
#923 = DIRECTION('',(0.,-2.2E-16,-1.));
#924 = ORIENTED_EDGE('',*,*,#925,.F.);
#925 = EDGE_CURVE('',#894,#918,#926,.T.);
#926 = LINE('',#927,#928);
#927 = CARTESIAN_POINT('',(5.674904908017,-120.5904501948,
    81.807203051954));
#928 = VECTOR('',#929,1.);
#929 = DIRECTION('',(0.5,0.866025403784,1.4E-16));
#930 = ORIENTED_EDGE('',*,*,#893,.F.);
#931 = PLANE('',#932);
#932 = AXIS2_PLACEMENT_3D('',#933,#934,#935);
#933 = CARTESIAN_POINT('',(2.032084629532,-126.9,85.807203051954));
#934 = DIRECTION('',(-0.866025403784,0.5,-1.1E-16));
#935 = DIRECTION('',(-0.5,-0.866025403784,1.9E-16));
#936 = ADVANCED_FACE('',(#937),#955,.F.);
#937 = FACE_BOUND('',#938,.F.);
#938 = EDGE_LOOP('',(#939,#940,#948,#954));
#939 = ORIENTED_EDGE('',*,*,#258,.F.);
#940 = ORIENTED_EDGE('',*,*,#941,.T.);
#941 = EDGE_CURVE('',#259,#942,#944,.T.);
#942 = VERTEX_POINT('',#943);
#943 = CARTESIAN_POINT('',(5.149776083156,-126.9,81.807203051954));
#944 = LINE('',#945,#946);
#945 = CARTESIAN_POINT('',(5.149776083156,-126.9,85.807203051954));
#946 = VECTOR('',#947,1.);
#947 = DIRECTION('',(0.,-2.2E-16,-1.));
#948 = ORIENTED_EDGE('',*,*,#949,.F.);
#949 = EDGE_CURVE('',#918,#942,#950,.T.);
#950 = LINE('',#951,#952);
#951 = CARTESIAN_POINT('',(16.170353041579,-126.9,81.807203051954));
#952 = VECTOR('',#953,1.);
#953 = DIRECTION('',(1.,0.,-1.1E-16));
#954 = ORIENTED_EDGE('',*,*,#917,.F.);
#955 = PLANE('',#956);
#956 = AXIS2_PLACEMENT_3D('',#957,#958,#959);
#957 = CARTESIAN_POINT('',(5.149776083156,-126.9,85.807203051954));
#958 = DIRECTION('',(0.,1.,-2.2E-16));
#959 = DIRECTION('',(-1.,0.,0.));
#960 = ADVANCED_FACE('',(#961),#979,.F.);
#961 = FACE_BOUND('',#962,.F.);
#962 = EDGE_LOOP('',(#963,#964,#972,#978));
#963 = ORIENTED_EDGE('',*,*,#266,.F.);
#964 = ORIENTED_EDGE('',*,*,#965,.T.);
#965 = EDGE_CURVE('',#267,#966,#968,.T.);
#966 = VERTEX_POINT('',#967);
#967 = CARTESIAN_POINT('',(6.708621809968,-129.6,81.807203051954));
#968 = LINE('',#969,#970);
#969 = CARTESIAN_POINT('',(6.708621809968,-129.6,85.807203051954));
#970 = VECTOR('',#971,1.);
#971 = DIRECTION('',(0.,-2.2E-16,-1.));
#972 = ORIENTED_EDGE('',*,*,#973,.F.);
#973 = EDGE_CURVE('',#942,#966,#974,.T.);
#974 = LINE('',#975,#976);
#975 = CARTESIAN_POINT('',(8.186378578992,-132.1595498051,
    81.807203051954));
#976 = VECTOR('',#977,1.);
#977 = DIRECTION('',(0.5,-0.866025403784,-2.5E-16));
#978 = ORIENTED_EDGE('',*,*,#941,.F.);
#979 = PLANE('',#980);
#980 = AXIS2_PLACEMENT_3D('',#981,#982,#983);
#981 = CARTESIAN_POINT('',(6.708621809968,-129.6,85.807203051954));
#982 = DIRECTION('',(0.866025403784,0.5,-1.1E-16));
#983 = DIRECTION('',(-0.5,0.866025403784,-1.9E-16));
#984 = ADVANCED_FACE('',(#985),#996,.F.);
#985 = FACE_BOUND('',#986,.F.);
#986 = EDGE_LOOP('',(#987,#988,#989,#995));
#987 = ORIENTED_EDGE('',*,*,#274,.F.);
#988 = ORIENTED_EDGE('',*,*,#878,.T.);
#989 = ORIENTED_EDGE('',*,*,#990,.F.);
#990 = EDGE_CURVE('',#966,#871,#991,.T.);
#991 = LINE('',#992,#993);
#992 = CARTESIAN_POINT('',(9.572019225047,-124.6404501948,
    81.807203051954));
#993 = VECTOR('',#994,1.);
#994 = DIRECTION('',(-0.5,-0.866025403784,-1.4E-16));
#995 = ORIENTED_EDGE('',*,*,#965,.F.);
#996 = PLANE('',#997);
#997 = AXIS2_PLACEMENT_3D('',#998,#999,#1000);
#998 = CARTESIAN_POINT('',(5.149776083156,-132.3,85.807203051954));
#999 = DIRECTION('',(0.866025403784,-0.5,1.1E-16));
#1000 = DIRECTION('',(0.5,0.866025403784,-1.9E-16));
#1001 = ADVANCED_FACE('',(#1002),#1034,.F.);
#1002 = FACE_BOUND('',#1003,.F.);
#1003 = EDGE_LOOP('',(#1004,#1005,#1006,#1012,#1013,#1014,#1015,#1024));
#1004 = ORIENTED_EDGE('',*,*,#672,.F.);
#1005 = ORIENTED_EDGE('',*,*,#338,.T.);
#1006 = ORIENTED_EDGE('',*,*,#1007,.T.);
#1007 = EDGE_CURVE('',#339,#496,#1008,.T.);
#1008 = LINE('',#1009,#1010);
#1009 = CARTESIAN_POINT('',(15.190930000023,-140.6,79.807203051954));
#1010 = VECTOR('',#1011,1.);
#1011 = DIRECTION('',(0.,1.,0.));
#1012 = ORIENTED_EDGE('',*,*,#495,.T.);
#1013 = ORIENTED_EDGE('',*,*,#1007,.F.);
#1014 = ORIENTED_EDGE('',*,*,#414,.T.);
#1015 = ORIENTED_EDGE('',*,*,#1016,.F.);
#1016 = EDGE_CURVE('',#1017,#415,#1019,.T.);
#1017 = VERTEX_POINT('',#1018);
#1018 = CARTESIAN_POINT('',(11.190930000023,-140.6,78.912775860954));
#1019 = CIRCLE('',#1020,2.1);
#1020 = AXIS2_PLACEMENT_3D('',#1021,#1022,#1023);
#1021 = CARTESIAN_POINT('',(13.090930000023,-140.6,79.807203051954));
#1022 = DIRECTION('',(0.,-1.,0.));
#1023 = DIRECTION('',(1.,0.,0.));
#1024 = ORIENTED_EDGE('',*,*,#1025,.T.);
#1025 = EDGE_CURVE('',#1017,#623,#1026,.T.);
#1026 = ( BOUNDED_CURVE() B_SPLINE_CURVE(6,(#1027,#1028,#1029,#1030,
#1031,#1032,#1033),.UNSPECIFIED.,.F.,.F.) B_SPLINE_CURVE_WITH_KNOTS((7,7
),(4.105572809,5.894427191),.PIECEWISE_BEZIER_KNOTS.) CURVE() 
GEOMETRIC_REPRESENTATION_ITEM() RATIONAL_B_SPLINE_CURVE((1.,1.,1.,1.,1.,
1.,1.)) REPRESENTATION_ITEM('') );
#1027 = CARTESIAN_POINT('',(11.190930000023,-140.6,78.912775860954));
#1028 = CARTESIAN_POINT('',(11.05057912283,-140.6,79.210918257954));
#1029 = CARTESIAN_POINT('',(10.978716942521,-140.6,79.509060654954));
#1030 = CARTESIAN_POINT('',(10.953453873306,-140.6,79.807203051954));
#1031 = CARTESIAN_POINT('',(10.978716942521,-140.6,80.105345448954));
#1032 = CARTESIAN_POINT('',(11.05057912283,-140.6,80.403487845954));
#1033 = CARTESIAN_POINT('',(11.190930000023,-140.6,80.701630242954));
#1034 = CYLINDRICAL_SURFACE('',#1035,2.1);
#1035 = AXIS2_PLACEMENT_3D('',#1036,#1037,#1038);
#1036 = CARTESIAN_POINT('',(13.090930000023,-140.6,79.807203051954));
#1037 = DIRECTION('',(0.,-1.,0.));
#1038 = DIRECTION('',(1.,0.,0.));
#1039 = ADVANCED_FACE('',(#1040),#1059,.F.);
#1040 = FACE_BOUND('',#1041,.F.);
#1041 = EDGE_LOOP('',(#1042,#1043,#1051,#1058));
#1042 = ORIENTED_EDGE('',*,*,#396,.F.);
#1043 = ORIENTED_EDGE('',*,*,#1044,.T.);
#1044 = EDGE_CURVE('',#397,#1045,#1047,.T.);
#1045 = VERTEX_POINT('',#1046);
#1046 = CARTESIAN_POINT('',(20.990930356344,-129.6,81.807203051954));
#1047 = LINE('',#1048,#1049);
#1048 = CARTESIAN_POINT('',(20.990930356344,-129.6,79.807203051954));
#1049 = VECTOR('',#1050,1.);
#1050 = DIRECTION('',(0.,2.2E-16,1.));
#1051 = ORIENTED_EDGE('',*,*,#1052,.T.);
#1052 = EDGE_CURVE('',#1045,#1045,#1053,.T.);
#1053 = CIRCLE('',#1054,1.6);
#1054 = AXIS2_PLACEMENT_3D('',#1055,#1056,#1057);
#1055 = CARTESIAN_POINT('',(22.590930356344,-129.6,81.807203051954));
#1056 = DIRECTION('',(-0.,-2.2E-16,-1.));
#1057 = DIRECTION('',(-1.,0.,0.));
#1058 = ORIENTED_EDGE('',*,*,#1044,.F.);
#1059 = CYLINDRICAL_SURFACE('',#1060,1.6);
#1060 = AXIS2_PLACEMENT_3D('',#1061,#1062,#1063);
#1061 = CARTESIAN_POINT('',(22.590930356344,-129.6,79.807203051954));
#1062 = DIRECTION('',(0.,-2.2E-16,-1.));
#1063 = DIRECTION('',(-1.,0.,0.));
#1064 = ADVANCED_FACE('',(#1065,#1071),#1082,.T.);
#1065 = FACE_BOUND('',#1066,.T.);
#1066 = EDGE_LOOP('',(#1067,#1068,#1069,#1070));
#1067 = ORIENTED_EDGE('',*,*,#607,.F.);
#1068 = ORIENTED_EDGE('',*,*,#654,.T.);
#1069 = ORIENTED_EDGE('',*,*,#691,.T.);
#1070 = ORIENTED_EDGE('',*,*,#472,.F.);
#1071 = FACE_BOUND('',#1072,.T.);
#1072 = EDGE_LOOP('',(#1073));
#1073 = ORIENTED_EDGE('',*,*,#1074,.F.);
#1074 = EDGE_CURVE('',#1075,#1075,#1077,.T.);
#1075 = VERTEX_POINT('',#1076);
#1076 = CARTESIAN_POINT('',(1.990930356354,-129.6,79.807203051954));
#1077 = CIRCLE('',#1078,1.6);
#1078 = AXIS2_PLACEMENT_3D('',#1079,#1080,#1081);
#1079 = CARTESIAN_POINT('',(3.590930356354,-129.6,79.807203051954));
#1080 = DIRECTION('',(0.,0.,-1.));
#1081 = DIRECTION('',(-1.,0.,0.));
#1082 = PLANE('',#1083);
#1083 = AXIS2_PLACEMENT_3D('',#1084,#1085,#1086);
#1084 = CARTESIAN_POINT('',(3.090930000013,-129.6,79.807203051954));
#1085 = DIRECTION('',(0.,0.,-1.));
#1086 = DIRECTION('',(0.,1.,0.));
#1087 = ADVANCED_FACE('',(#1088),#1099,.F.);
#1088 = FACE_BOUND('',#1089,.F.);
#1089 = EDGE_LOOP('',(#1090,#1091,#1097,#1098));
#1090 = ORIENTED_EDGE('',*,*,#539,.T.);
#1091 = ORIENTED_EDGE('',*,*,#1092,.T.);
#1092 = EDGE_CURVE('',#540,#1017,#1093,.T.);
#1093 = LINE('',#1094,#1095);
#1094 = CARTESIAN_POINT('',(11.190930000023,-140.6,74.807203051954));
#1095 = VECTOR('',#1096,1.);
#1096 = DIRECTION('',(0.,0.,1.));
#1097 = ORIENTED_EDGE('',*,*,#1016,.T.);
#1098 = ORIENTED_EDGE('',*,*,#513,.T.);
#1099 = PLANE('',#1100);
#1100 = AXIS2_PLACEMENT_3D('',#1101,#1102,#1103);
#1101 = CARTESIAN_POINT('',(13.090930000023,-140.6,80.307203051954));
#1102 = DIRECTION('',(0.,1.,0.));
#1103 = DIRECTION('',(1.,0.,0.));
#1104 = ADVANCED_FACE('',(#1105),#1117,.T.);
#1105 = FACE_BOUND('',#1106,.F.);
#1106 = EDGE_LOOP('',(#1107,#1108,#1109,#1116));
#1107 = ORIENTED_EDGE('',*,*,#547,.T.);
#1108 = ORIENTED_EDGE('',*,*,#572,.T.);
#1109 = ORIENTED_EDGE('',*,*,#1110,.F.);
#1110 = EDGE_CURVE('',#1017,#573,#1111,.T.);
#1111 = CIRCLE('',#1112,4.);
#1112 = AXIS2_PLACEMENT_3D('',#1113,#1114,#1115);
#1113 = CARTESIAN_POINT('',(11.190930000023,-136.6,78.912775860954));
#1114 = DIRECTION('',(0.,0.,-1.));
#1115 = DIRECTION('',(0.,-1.,-0.));
#1116 = ORIENTED_EDGE('',*,*,#1092,.F.);
#1117 = CYLINDRICAL_SURFACE('',#1118,4.);
#1118 = AXIS2_PLACEMENT_3D('',#1119,#1120,#1121);
#1119 = CARTESIAN_POINT('',(11.190930000023,-136.6,74.807203051954));
#1120 = DIRECTION('',(0.,0.,1.));
#1121 = DIRECTION('',(0.,-1.,0.));
#1122 = ADVANCED_FACE('',(#1123),#1129,.T.);
#1123 = FACE_BOUND('',#1124,.T.);
#1124 = EDGE_LOOP('',(#1125,#1126,#1127,#1128));
#1125 = ORIENTED_EDGE('',*,*,#1110,.F.);
#1126 = ORIENTED_EDGE('',*,*,#1025,.T.);
#1127 = ORIENTED_EDGE('',*,*,#622,.T.);
#1128 = ORIENTED_EDGE('',*,*,#580,.F.);
#1129 = ( BOUNDED_SURFACE() B_SPLINE_SURFACE(2,6,(
    (#1130,#1131,#1132,#1133,#1134,#1135,#1136)
    ,(#1137,#1138,#1139,#1140,#1141,#1142,#1143)
    ,(#1144,#1145,#1146,#1147,#1148,#1149,#1150
)),.UNSPECIFIED.,.F.,.F.,.F.) B_SPLINE_SURFACE_WITH_KNOTS((3,3),(7,7),(
    0.,1.788854382),(4.105572809,5.894427191),.PIECEWISE_BEZIER_KNOTS.) 
GEOMETRIC_REPRESENTATION_ITEM() RATIONAL_B_SPLINE_SURFACE((
    (1.,1.,1.,1.,1.,1.,1.)
    ,(0.707106781187,0.719512163313,0.725605361372,0.727794985749
      ,0.725605361372,0.719512163313,0.707106781187)
,(1.,1.,1.,1.,1.,1.,1.))) REPRESENTATION_ITEM('') SURFACE() );
#1130 = CARTESIAN_POINT('',(7.190930000023,-136.6,78.912775860954));
#1131 = CARTESIAN_POINT('',(7.190930000023,-136.6,79.210918257954));
#1132 = CARTESIAN_POINT('',(7.190930000023,-136.6058636753,
    79.509060654954));
#1133 = CARTESIAN_POINT('',(7.190930000023,-136.6072114218,
    79.807203051954));
#1134 = CARTESIAN_POINT('',(7.190930000023,-136.6058636753,
    80.105345448954));
#1135 = CARTESIAN_POINT('',(7.190930000023,-136.6,80.403487845954));
#1136 = CARTESIAN_POINT('',(7.190930000023,-136.6,80.701630242954));
#1137 = CARTESIAN_POINT('',(7.190930000023,-140.6,78.912775860954));
#1138 = CARTESIAN_POINT('',(7.190930000023,-140.4620689655,
    79.205777871799));
#1139 = CARTESIAN_POINT('',(7.190930000023,-140.3989181241,
    79.505971069474));
#1140 = CARTESIAN_POINT('',(7.190930000023,-140.3764605988,
    79.807203051954));
#1141 = CARTESIAN_POINT('',(7.190930000023,-140.3989181241,
    80.108435034434));
#1142 = CARTESIAN_POINT('',(7.190930000023,-140.4620689655,
    80.408628232109));
#1143 = CARTESIAN_POINT('',(7.190930000023,-140.6,80.701630242954));
#1144 = CARTESIAN_POINT('',(11.190930000023,-140.6,78.912775860954));
#1145 = CARTESIAN_POINT('',(11.05057912283,-140.6,79.210918257954));
#1146 = CARTESIAN_POINT('',(10.978716942521,-140.6,79.509060654954));
#1147 = CARTESIAN_POINT('',(10.953453873306,-140.6,79.807203051954));
#1148 = CARTESIAN_POINT('',(10.978716942521,-140.6,80.105345448954));
#1149 = CARTESIAN_POINT('',(11.05057912283,-140.6,80.403487845954));
#1150 = CARTESIAN_POINT('',(11.190930000023,-140.6,80.701630242954));
#1151 = ADVANCED_FACE('',(#1152,#1160),#1163,.T.);
#1152 = FACE_BOUND('',#1153,.T.);
#1153 = EDGE_LOOP('',(#1154,#1155,#1156,#1157,#1158,#1159));
#1154 = ORIENTED_EDGE('',*,*,#726,.F.);
#1155 = ORIENTED_EDGE('',*,*,#846,.F.);
#1156 = ORIENTED_EDGE('',*,*,#829,.F.);
#1157 = ORIENTED_EDGE('',*,*,#805,.F.);
#1158 = ORIENTED_EDGE('',*,*,#781,.F.);
#1159 = ORIENTED_EDGE('',*,*,#757,.F.);
#1160 = FACE_BOUND('',#1161,.T.);
#1161 = EDGE_LOOP('',(#1162));
#1162 = ORIENTED_EDGE('',*,*,#1052,.T.);
#1163 = PLANE('',#1164);
#1164 = AXIS2_PLACEMENT_3D('',#1165,#1166,#1167);
#1165 = CARTESIAN_POINT('',(27.190930000002,-124.6,81.807203051954));
#1166 = DIRECTION('',(1.1E-16,-2.2E-16,1.));
#1167 = DIRECTION('',(-2.2E-16,-1.,-2.2E-16));
#1168 = ADVANCED_FACE('',(#1169,#1177),#1188,.T.);
#1169 = FACE_BOUND('',#1170,.T.);
#1170 = EDGE_LOOP('',(#1171,#1172,#1173,#1174,#1175,#1176));
#1171 = ORIENTED_EDGE('',*,*,#990,.F.);
#1172 = ORIENTED_EDGE('',*,*,#973,.F.);
#1173 = ORIENTED_EDGE('',*,*,#949,.F.);
#1174 = ORIENTED_EDGE('',*,*,#925,.F.);
#1175 = ORIENTED_EDGE('',*,*,#901,.F.);
#1176 = ORIENTED_EDGE('',*,*,#870,.F.);
#1177 = FACE_BOUND('',#1178,.T.);
#1178 = EDGE_LOOP('',(#1179));
#1179 = ORIENTED_EDGE('',*,*,#1180,.T.);
#1180 = EDGE_CURVE('',#1181,#1181,#1183,.T.);
#1181 = VERTEX_POINT('',#1182);
#1182 = CARTESIAN_POINT('',(1.990930356354,-129.6,81.807203051954));
#1183 = CIRCLE('',#1184,1.6);
#1184 = AXIS2_PLACEMENT_3D('',#1185,#1186,#1187);
#1185 = CARTESIAN_POINT('',(3.590930356354,-129.6,81.807203051954));
#1186 = DIRECTION('',(-0.,-2.2E-16,-1.));
#1187 = DIRECTION('',(-1.,0.,0.));
#1188 = PLANE('',#1189);
#1189 = AXIS2_PLACEMENT_3D('',#1190,#1191,#1192);
#1190 = CARTESIAN_POINT('',(27.190930000002,-124.6,81.807203051954));
#1191 = DIRECTION('',(1.1E-16,-2.2E-16,1.));
#1192 = DIRECTION('',(-2.2E-16,-1.,-2.2E-16));
#1193 = ADVANCED_FACE('',(#1194),#1205,.F.);
#1194 = FACE_BOUND('',#1195,.F.);
#1195 = EDGE_LOOP('',(#1196,#1197,#1203,#1204));
#1196 = ORIENTED_EDGE('',*,*,#1074,.F.);
#1197 = ORIENTED_EDGE('',*,*,#1198,.T.);
#1198 = EDGE_CURVE('',#1075,#1181,#1199,.T.);
#1199 = LINE('',#1200,#1201);
#1200 = CARTESIAN_POINT('',(1.990930356354,-129.6,79.807203051954));
#1201 = VECTOR('',#1202,1.);
#1202 = DIRECTION('',(0.,2.2E-16,1.));
#1203 = ORIENTED_EDGE('',*,*,#1180,.T.);
#1204 = ORIENTED_EDGE('',*,*,#1198,.F.);
#1205 = CYLINDRICAL_SURFACE('',#1206,1.6);
#1206 = AXIS2_PLACEMENT_3D('',#1207,#1208,#1209);
#1207 = CARTESIAN_POINT('',(3.590930356354,-129.6,79.807203051954));
#1208 = DIRECTION('',(0.,-2.2E-16,-1.));
#1209 = DIRECTION('',(-1.,0.,0.));
#1210 = ( GEOMETRIC_REPRESENTATION_CONTEXT(3) 
GLOBAL_UNCERTAINTY_ASSIGNED_CONTEXT((#1214)) 
GLOBAL_UNIT_ASSIGNED_CONTEXT((#1211,#1212,#1213)) REPRESENTATION_CONTEXT
('Context #1','3D Context with UNIT and UNCERTAINTY') );
#1211 = ( LENGTH_UNIT() NAMED_UNIT(*) SI_UNIT(.MILLI.,.METRE.) );
#1212 = ( NAMED_UNIT(*) PLANE_ANGLE_UNIT() SI_UNIT($,.RADIAN.) );
#1213 = ( NAMED_UNIT(*) SI_UNIT($,.STERADIAN.) SOLID_ANGLE_UNIT() );
#1214 = UNCERTAINTY_MEASURE_WITH_UNIT(LENGTH_MEASURE(1.E-05),#1211,
  'distance_accuracy_value','confusion accuracy');
#1215 = PRODUCT_RELATED_PRODUCT_CATEGORY('part',$,(#7));
ENDSEC;
END-ISO-10303-21;
