ISO-10303-21;
HEADER;
FILE_DESCRIPTION(('FreeCAD Model'),'2;1');
FILE_NAME('Open CASCADE Shape Model','2026-08-28T13:04:05',('FreeCAD'),(
    'FreeCAD'),'Open CASCADE STEP processor 7.8','FreeCAD','Unknown');
FILE_SCHEMA(('AUTOMOTIVE_DESIGN { 1 0 10303 214 1 1 1 1 }'));
ENDSEC;
DATA;
#1 = APPLICATION_PROTOCOL_DEFINITION('international standard',
  'automotive_design',2000,#2);
#2 = APPLICATION_CONTEXT(
  'core data for automotive mechanical design processes');
#3 = SHAPE_DEFINITION_REPRESENTATION(#4,#10);
#4 = PRODUCT_DEFINITION_SHAPE('','',#5);
#5 = PRODUCT_DEFINITION('design','',#6,#9);
#6 = PRODUCT_DEFINITION_FORMATION('','',#7);
#7 = PRODUCT('Open CASCADE STEP translator 7.8 67',
  'Open CASCADE STEP translator 7.8 67','',(#8));
#8 = PRODUCT_CONTEXT('',#2,'mechanical');
#9 = PRODUCT_DEFINITION_CONTEXT('part definition',#2,'design');
#10 = ADVANCED_BREP_SHAPE_REPRESENTATION('',(#11,#15),#1405);
#11 = AXIS2_PLACEMENT_3D('',#12,#13,#14);
#12 = CARTESIAN_POINT('',(0.,0.,0.));
#13 = DIRECTION('',(0.,0.,1.));
#14 = DIRECTION('',(1.,0.,-0.));
#15 = MANIFOLD_SOLID_BREP('',#16);
#16 = CLOSED_SHELL('',(#17,#236,#283,#308,#370,#394,#418,#443,#468,#542,
    #567,#591,#654,#671,#696,#727,#751,#775,#799,#823,#840,#871,#895,
    #919,#943,#967,#984,#1006,#1034,#1046,#1081,#1106,#1152,#1201,#1224,
    #1258,#1292,#1309,#1334,#1359,#1376,#1388));
#17 = ADVANCED_FACE('',(#18,#120,#131,#181),#231,.T.);
#18 = FACE_BOUND('',#19,.T.);
#19 = EDGE_LOOP('',(#20,#30,#38,#47,#55,#64,#72,#80,#88,#96,#105,#113));
#20 = ORIENTED_EDGE('',*,*,#21,.F.);
#21 = EDGE_CURVE('',#22,#24,#26,.T.);
#22 = VERTEX_POINT('',#23);
#23 = CARTESIAN_POINT('',(7.19093,-135.6,88.867453050666));
#24 = VERTEX_POINT('',#25);
#25 = CARTESIAN_POINT('',(-5.00907,-135.6,88.867453050666));
#26 = LINE('',#27,#28);
#27 = CARTESIAN_POINT('',(-1.00907,-135.6,88.867453050666));
#28 = VECTOR('',#29,1.);
#29 = DIRECTION('',(-1.,0.,0.));
#30 = ORIENTED_EDGE('',*,*,#31,.T.);
#31 = EDGE_CURVE('',#22,#32,#34,.T.);
#32 = VERTEX_POINT('',#33);
#33 = CARTESIAN_POINT('',(7.19093,-137.6,88.867453050666));
#34 = LINE('',#35,#36);
#35 = CARTESIAN_POINT('',(7.19093,-135.6,88.867453050666));
#36 = VECTOR('',#37,1.);
#37 = DIRECTION('',(0.,-1.,0.));
#38 = ORIENTED_EDGE('',*,*,#39,.T.);
#39 = EDGE_CURVE('',#32,#40,#42,.T.);
#40 = VERTEX_POINT('',#41);
#41 = CARTESIAN_POINT('',(11.19093,-141.6,88.867453050666));
#42 = CIRCLE('',#43,4.);
#43 = AXIS2_PLACEMENT_3D('',#44,#45,#46);
#44 = CARTESIAN_POINT('',(11.19093,-137.6,88.867453050666));
#45 = DIRECTION('',(-0.,0.,1.));
#46 = DIRECTION('',(0.,-1.,0.));
#47 = ORIENTED_EDGE('',*,*,#48,.T.);
#48 = EDGE_CURVE('',#40,#49,#51,.T.);
#49 = VERTEX_POINT('',#50);
#50 = CARTESIAN_POINT('',(14.99093,-141.6,88.867453050666));
#51 = LINE('',#52,#53);
#52 = CARTESIAN_POINT('',(7.19093,-141.6,88.867453050666));
#53 = VECTOR('',#54,1.);
#54 = DIRECTION('',(1.,0.,-8.E-17));
#55 = ORIENTED_EDGE('',*,*,#56,.T.);
#56 = EDGE_CURVE('',#49,#57,#59,.T.);
#57 = VERTEX_POINT('',#58);
#58 = CARTESIAN_POINT('',(18.99093,-137.6,88.867453050666));
#59 = CIRCLE('',#60,4.);
#60 = AXIS2_PLACEMENT_3D('',#61,#62,#63);
#61 = CARTESIAN_POINT('',(14.99093,-137.6,88.867453050666));
#62 = DIRECTION('',(0.,-0.,1.));
#63 = DIRECTION('',(0.,1.,0.));
#64 = ORIENTED_EDGE('',*,*,#65,.F.);
#65 = EDGE_CURVE('',#66,#57,#68,.T.);
#66 = VERTEX_POINT('',#67);
#67 = CARTESIAN_POINT('',(18.99093,-135.6,88.867453050666));
#68 = LINE('',#69,#70);
#69 = CARTESIAN_POINT('',(18.99093,-135.6,88.867453050666));
#70 = VECTOR('',#71,1.);
#71 = DIRECTION('',(0.,-1.,0.));
#72 = ORIENTED_EDGE('',*,*,#73,.T.);
#73 = EDGE_CURVE('',#66,#74,#76,.T.);
#74 = VERTEX_POINT('',#75);
#75 = CARTESIAN_POINT('',(27.19093,-135.6,88.867453050666));
#76 = LINE('',#77,#78);
#77 = CARTESIAN_POINT('',(-1.00907,-135.6,88.867453050666));
#78 = VECTOR('',#79,1.);
#79 = DIRECTION('',(1.,0.,0.));
#80 = ORIENTED_EDGE('',*,*,#81,.T.);
#81 = EDGE_CURVE('',#74,#82,#84,.T.);
#82 = VERTEX_POINT('',#83);
#83 = CARTESIAN_POINT('',(27.19093,-125.6,88.867453050666));
#84 = LINE('',#85,#86);
#85 = CARTESIAN_POINT('',(27.19093,-135.6,88.867453050666));
#86 = VECTOR('',#87,1.);
#87 = DIRECTION('',(0.,1.,0.));
#88 = ORIENTED_EDGE('',*,*,#89,.F.);
#89 = EDGE_CURVE('',#90,#82,#92,.T.);
#90 = VERTEX_POINT('',#91);
#91 = CARTESIAN_POINT('',(-5.00907,-125.6,88.867453050666));
#92 = LINE('',#93,#94);
#93 = CARTESIAN_POINT('',(-1.00907,-125.6,88.867453050666));
#94 = VECTOR('',#95,1.);
#95 = DIRECTION('',(1.,0.,0.));
#96 = ORIENTED_EDGE('',*,*,#97,.F.);
#97 = EDGE_CURVE('',#98,#90,#100,.T.);
#98 = VERTEX_POINT('',#99);
#99 = CARTESIAN_POINT('',(-9.00907,-129.6,88.867453050666));
#100 = CIRCLE('',#101,4.);
#101 = AXIS2_PLACEMENT_3D('',#102,#103,#104);
#102 = CARTESIAN_POINT('',(-5.00907,-129.6,88.867453050666));
#103 = DIRECTION('',(-0.,0.,-1.));
#104 = DIRECTION('',(0.,1.,0.));
#105 = ORIENTED_EDGE('',*,*,#106,.F.);
#106 = EDGE_CURVE('',#107,#98,#109,.T.);
#107 = VERTEX_POINT('',#108);
#108 = CARTESIAN_POINT('',(-9.00907,-131.6,88.867453050666));
#109 = LINE('',#110,#111);
#110 = CARTESIAN_POINT('',(-9.00907,-135.6,88.867453050666));
#111 = VECTOR('',#112,1.);
#112 = DIRECTION('',(0.,1.,0.));
#113 = ORIENTED_EDGE('',*,*,#114,.F.);
#114 = EDGE_CURVE('',#24,#107,#115,.T.);
#115 = CIRCLE('',#116,4.);
#116 = AXIS2_PLACEMENT_3D('',#117,#118,#119);
#117 = CARTESIAN_POINT('',(-5.00907,-131.6,88.867453050666));
#118 = DIRECTION('',(0.,0.,-1.));
#119 = DIRECTION('',(0.,-1.,-0.));
#120 = FACE_BOUND('',#121,.T.);
#121 = EDGE_LOOP('',(#122));
#122 = ORIENTED_EDGE('',*,*,#123,.F.);
#123 = EDGE_CURVE('',#124,#124,#126,.T.);
#124 = VERTEX_POINT('',#125);
#125 = CARTESIAN_POINT('',(-2.707389,-130.6,88.867453050666));
#126 = CIRCLE('',#127,2.301681);
#127 = AXIS2_PLACEMENT_3D('',#128,#129,#130);
#128 = CARTESIAN_POINT('',(-5.00907,-130.6,88.867453050666));
#129 = DIRECTION('',(0.,0.,1.));
#130 = DIRECTION('',(1.,0.,0.));
#131 = FACE_BOUND('',#132,.T.);
#132 = EDGE_LOOP('',(#133,#143,#151,#159,#167,#175));
#133 = ORIENTED_EDGE('',*,*,#134,.F.);
#134 = EDGE_CURVE('',#135,#137,#139,.T.);
#135 = VERTEX_POINT('',#136);
#136 = CARTESIAN_POINT('',(2.003217116072,-133.3499999999,
    88.867453050666));
#137 = VERTEX_POINT('',#138);
#138 = CARTESIAN_POINT('',(5.17864359661,-133.3499999999,88.867453050666
    ));
#139 = LINE('',#140,#141);
#140 = CARTESIAN_POINT('',(2.003217116072,-133.3499999999,
    88.867453050666));
#141 = VECTOR('',#142,1.);
#142 = DIRECTION('',(1.,0.,0.));
#143 = ORIENTED_EDGE('',*,*,#144,.F.);
#144 = EDGE_CURVE('',#145,#135,#147,.T.);
#145 = VERTEX_POINT('',#146);
#146 = CARTESIAN_POINT('',(0.415503875793,-130.5999999999,
    88.867453050666));
#147 = LINE('',#148,#149);
#148 = CARTESIAN_POINT('',(0.415503875793,-130.5999999999,
    88.867453050666));
#149 = VECTOR('',#150,1.);
#150 = DIRECTION('',(0.500000000001,-0.866025403784,0.));
#151 = ORIENTED_EDGE('',*,*,#152,.F.);
#152 = EDGE_CURVE('',#153,#145,#155,.T.);
#153 = VERTEX_POINT('',#154);
#154 = CARTESIAN_POINT('',(2.003217116077,-127.85,88.867453050666));
#155 = LINE('',#156,#157);
#156 = CARTESIAN_POINT('',(2.003217116077,-127.85,88.867453050666));
#157 = VECTOR('',#158,1.);
#158 = DIRECTION('',(-0.500000000005,-0.866025403782,0.));
#159 = ORIENTED_EDGE('',*,*,#160,.F.);
#160 = EDGE_CURVE('',#161,#153,#163,.T.);
#161 = VERTEX_POINT('',#162);
#162 = CARTESIAN_POINT('',(5.178643596616,-127.85,88.867453050666));
#163 = LINE('',#164,#165);
#164 = CARTESIAN_POINT('',(5.178643596616,-127.85,88.867453050666));
#165 = VECTOR('',#166,1.);
#166 = DIRECTION('',(-1.,-2.8865E-13,0.));
#167 = ORIENTED_EDGE('',*,*,#168,.F.);
#168 = EDGE_CURVE('',#169,#161,#171,.T.);
#169 = VERTEX_POINT('',#170);
#170 = CARTESIAN_POINT('',(6.766356836891,-130.6,88.867453050666));
#171 = LINE('',#172,#173);
#172 = CARTESIAN_POINT('',(6.766356836891,-130.6,88.867453050666));
#173 = VECTOR('',#174,1.);
#174 = DIRECTION('',(-0.500000000001,0.866025403784,0.));
#175 = ORIENTED_EDGE('',*,*,#176,.F.);
#176 = EDGE_CURVE('',#137,#169,#177,.T.);
#177 = LINE('',#178,#179);
#178 = CARTESIAN_POINT('',(5.17864359661,-133.3499999999,88.867453050666
    ));
#179 = VECTOR('',#180,1.);
#180 = DIRECTION('',(0.500000000003,0.866025403783,0.));
#181 = FACE_BOUND('',#182,.T.);
#182 = EDGE_LOOP('',(#183,#193,#201,#209,#217,#225));
#183 = ORIENTED_EDGE('',*,*,#184,.F.);
#184 = EDGE_CURVE('',#185,#187,#189,.T.);
#185 = VERTEX_POINT('',#186);
#186 = CARTESIAN_POINT('',(19.415503875796,-130.5999999999,
    88.867453050666));
#187 = VERTEX_POINT('',#188);
#188 = CARTESIAN_POINT('',(21.003217116072,-133.3499999999,
    88.867453050666));
#189 = LINE('',#190,#191);
#190 = CARTESIAN_POINT('',(19.415503875796,-130.5999999999,
    88.867453050666));
#191 = VECTOR('',#192,1.);
#192 = DIRECTION('',(0.500000000001,-0.866025403784,0.));
#193 = ORIENTED_EDGE('',*,*,#194,.F.);
#194 = EDGE_CURVE('',#195,#185,#197,.T.);
#195 = VERTEX_POINT('',#196);
#196 = CARTESIAN_POINT('',(21.003217116076,-127.85,88.867453050666));
#197 = LINE('',#198,#199);
#198 = CARTESIAN_POINT('',(21.003217116076,-127.85,88.867453050666));
#199 = VECTOR('',#200,1.);
#200 = DIRECTION('',(-0.500000000003,-0.866025403783,0.));
#201 = ORIENTED_EDGE('',*,*,#202,.F.);
#202 = EDGE_CURVE('',#203,#195,#205,.T.);
#203 = VERTEX_POINT('',#204);
#204 = CARTESIAN_POINT('',(24.178643596616,-127.85,88.867453050666));
#205 = LINE('',#206,#207);
#206 = CARTESIAN_POINT('',(24.178643596616,-127.85,88.867453050666));
#207 = VECTOR('',#208,1.);
#208 = DIRECTION('',(-1.,-1.9216E-13,0.));
#209 = ORIENTED_EDGE('',*,*,#210,.F.);
#210 = EDGE_CURVE('',#211,#203,#213,.T.);
#211 = VERTEX_POINT('',#212);
#212 = CARTESIAN_POINT('',(25.76635683689,-130.6,88.867453050666));
#213 = LINE('',#214,#215);
#214 = CARTESIAN_POINT('',(25.76635683689,-130.6,88.867453050666));
#215 = VECTOR('',#216,1.);
#216 = DIRECTION('',(-0.500000000001,0.866025403784,0.));
#217 = ORIENTED_EDGE('',*,*,#218,.F.);
#218 = EDGE_CURVE('',#219,#211,#221,.T.);
#219 = VERTEX_POINT('',#220);
#220 = CARTESIAN_POINT('',(24.178643596612,-133.3499999999,
    88.867453050666));
#221 = LINE('',#222,#223);
#222 = CARTESIAN_POINT('',(24.178643596612,-133.3499999999,
    88.867453050666));
#223 = VECTOR('',#224,1.);
#224 = DIRECTION('',(0.500000000002,0.866025403783,0.));
#225 = ORIENTED_EDGE('',*,*,#226,.F.);
#226 = EDGE_CURVE('',#187,#219,#227,.T.);
#227 = LINE('',#228,#229);
#228 = CARTESIAN_POINT('',(21.003217116072,-133.3499999999,
    88.867453050666));
#229 = VECTOR('',#230,1.);
#230 = DIRECTION('',(1.,0.,0.));
#231 = PLANE('',#232);
#232 = AXIS2_PLACEMENT_3D('',#233,#234,#235);
#233 = CARTESIAN_POINT('',(9.425111205396,-131.8365475845,
    88.867453050666));
#234 = DIRECTION('',(-0.,-0.,1.));
#235 = DIRECTION('',(0.,-1.,0.));
#236 = ADVANCED_FACE('',(#237),#278,.T.);
#237 = FACE_BOUND('',#238,.T.);
#238 = EDGE_LOOP('',(#239,#240,#248,#256,#264,#272));
#239 = ORIENTED_EDGE('',*,*,#21,.T.);
#240 = ORIENTED_EDGE('',*,*,#241,.F.);
#241 = EDGE_CURVE('',#242,#24,#244,.T.);
#242 = VERTEX_POINT('',#243);
#243 = CARTESIAN_POINT('',(-5.00907,-135.6,84.867453050666));
#244 = LINE('',#245,#246);
#245 = CARTESIAN_POINT('',(-5.00907,-135.6,84.867453050666));
#246 = VECTOR('',#247,1.);
#247 = DIRECTION('',(0.,0.,1.));
#248 = ORIENTED_EDGE('',*,*,#249,.F.);
#249 = EDGE_CURVE('',#250,#242,#252,.T.);
#250 = VERTEX_POINT('',#251);
#251 = CARTESIAN_POINT('',(-1.00907,-135.6,84.867453050666));
#252 = LINE('',#253,#254);
#253 = CARTESIAN_POINT('',(-1.00907,-135.6,84.867453050666));
#254 = VECTOR('',#255,1.);
#255 = DIRECTION('',(-1.,0.,0.));
#256 = ORIENTED_EDGE('',*,*,#257,.F.);
#257 = EDGE_CURVE('',#258,#250,#260,.T.);
#258 = VERTEX_POINT('',#259);
#259 = CARTESIAN_POINT('',(-1.00907,-135.6,79.867453050666));
#260 = LINE('',#261,#262);
#261 = CARTESIAN_POINT('',(-1.00907,-135.6,79.867453050666));
#262 = VECTOR('',#263,1.);
#263 = DIRECTION('',(0.,0.,1.));
#264 = ORIENTED_EDGE('',*,*,#265,.F.);
#265 = EDGE_CURVE('',#266,#258,#268,.T.);
#266 = VERTEX_POINT('',#267);
#267 = CARTESIAN_POINT('',(7.19093,-135.6,79.867453050666));
#268 = LINE('',#269,#270);
#269 = CARTESIAN_POINT('',(7.19093,-135.6,79.867453050666));
#270 = VECTOR('',#271,1.);
#271 = DIRECTION('',(-1.,0.,0.));
#272 = ORIENTED_EDGE('',*,*,#273,.T.);
#273 = EDGE_CURVE('',#266,#22,#274,.T.);
#274 = LINE('',#275,#276);
#275 = CARTESIAN_POINT('',(7.19093,-135.6,76.867453050666));
#276 = VECTOR('',#277,1.);
#277 = DIRECTION('',(0.,0.,1.));
#278 = PLANE('',#279);
#279 = AXIS2_PLACEMENT_3D('',#280,#281,#282);
#280 = CARTESIAN_POINT('',(-0.115419206349,-135.6,85.161103844317));
#281 = DIRECTION('',(-0.,-1.,0.));
#282 = DIRECTION('',(-1.,0.,0.));
#283 = ADVANCED_FACE('',(#284),#303,.T.);
#284 = FACE_BOUND('',#285,.F.);
#285 = EDGE_LOOP('',(#286,#295,#301,#302));
#286 = ORIENTED_EDGE('',*,*,#287,.T.);
#287 = EDGE_CURVE('',#242,#288,#290,.T.);
#288 = VERTEX_POINT('',#289);
#289 = CARTESIAN_POINT('',(-9.00907,-131.6,84.867453050666));
#290 = CIRCLE('',#291,4.);
#291 = AXIS2_PLACEMENT_3D('',#292,#293,#294);
#292 = CARTESIAN_POINT('',(-5.00907,-131.6,84.867453050666));
#293 = DIRECTION('',(0.,0.,-1.));
#294 = DIRECTION('',(0.,-1.,-0.));
#295 = ORIENTED_EDGE('',*,*,#296,.T.);
#296 = EDGE_CURVE('',#288,#107,#297,.T.);
#297 = LINE('',#298,#299);
#298 = CARTESIAN_POINT('',(-9.00907,-131.6,84.867453050666));
#299 = VECTOR('',#300,1.);
#300 = DIRECTION('',(0.,0.,1.));
#301 = ORIENTED_EDGE('',*,*,#114,.F.);
#302 = ORIENTED_EDGE('',*,*,#241,.F.);
#303 = CYLINDRICAL_SURFACE('',#304,4.);
#304 = AXIS2_PLACEMENT_3D('',#305,#306,#307);
#305 = CARTESIAN_POINT('',(-5.00907,-131.6,84.867453050666));
#306 = DIRECTION('',(0.,0.,1.));
#307 = DIRECTION('',(0.,-1.,-0.));
#308 = ADVANCED_FACE('',(#309),#365,.T.);
#309 = FACE_BOUND('',#310,.T.);
#310 = EDGE_LOOP('',(#311,#321,#329,#343,#349,#350,#351,#359));
#311 = ORIENTED_EDGE('',*,*,#312,.T.);
#312 = EDGE_CURVE('',#313,#315,#317,.T.);
#313 = VERTEX_POINT('',#314);
#314 = CARTESIAN_POINT('',(7.19093,-125.6,76.867453050666));
#315 = VERTEX_POINT('',#316);
#316 = CARTESIAN_POINT('',(7.19093,-137.6,76.867453050666));
#317 = LINE('',#318,#319);
#318 = CARTESIAN_POINT('',(7.19093,-135.6,76.867453050666));
#319 = VECTOR('',#320,1.);
#320 = DIRECTION('',(0.,-1.,0.));
#321 = ORIENTED_EDGE('',*,*,#322,.T.);
#322 = EDGE_CURVE('',#315,#323,#325,.T.);
#323 = VERTEX_POINT('',#324);
#324 = CARTESIAN_POINT('',(7.19093,-137.6,82.52744372234));
#325 = LINE('',#326,#327);
#326 = CARTESIAN_POINT('',(7.19093,-137.6,76.867453050666));
#327 = VECTOR('',#328,1.);
#328 = DIRECTION('',(0.,0.,1.));
#329 = ORIENTED_EDGE('',*,*,#330,.T.);
#330 = EDGE_CURVE('',#323,#331,#333,.T.);
#331 = VERTEX_POINT('',#332);
#332 = CARTESIAN_POINT('',(7.19093,-137.6,85.207462378992));
#333 = ( BOUNDED_CURVE() B_SPLINE_CURVE(8,(#334,#335,#336,#337,#338,#339
,#340,#341,#342),.UNSPECIFIED.,.F.,.F.) B_SPLINE_CURVE_WITH_KNOTS((9,9),
(5.659990671674,8.340009328326),.PIECEWISE_BEZIER_KNOTS.) CURVE() 
GEOMETRIC_REPRESENTATION_ITEM() RATIONAL_B_SPLINE_CURVE((1.,1.,1.,1.,1.,
1.,1.,1.,1.)) REPRESENTATION_ITEM('') );
#334 = CARTESIAN_POINT('',(7.19093,-137.6,82.52744372234));
#335 = CARTESIAN_POINT('',(7.19093,-137.6,82.862446054422));
#336 = CARTESIAN_POINT('',(7.19093,-137.6158732163,83.197448386503));
#337 = CARTESIAN_POINT('',(7.19093,-137.6245584563,83.532450718585));
#338 = CARTESIAN_POINT('',(7.19093,-137.630817153,83.867453050666));
#339 = CARTESIAN_POINT('',(7.19093,-137.6245584563,84.202455382748));
#340 = CARTESIAN_POINT('',(7.19093,-137.6158732163,84.537457714829));
#341 = CARTESIAN_POINT('',(7.19093,-137.6,84.872460046911));
#342 = CARTESIAN_POINT('',(7.19093,-137.6,85.207462378992));
#343 = ORIENTED_EDGE('',*,*,#344,.T.);
#344 = EDGE_CURVE('',#331,#32,#345,.T.);
#345 = LINE('',#346,#347);
#346 = CARTESIAN_POINT('',(7.19093,-137.6,76.867453050666));
#347 = VECTOR('',#348,1.);
#348 = DIRECTION('',(0.,0.,1.));
#349 = ORIENTED_EDGE('',*,*,#31,.F.);
#350 = ORIENTED_EDGE('',*,*,#273,.F.);
#351 = ORIENTED_EDGE('',*,*,#352,.T.);
#352 = EDGE_CURVE('',#266,#353,#355,.T.);
#353 = VERTEX_POINT('',#354);
#354 = CARTESIAN_POINT('',(7.19093,-125.6,79.867453050666));
#355 = LINE('',#356,#357);
#356 = CARTESIAN_POINT('',(7.19093,-135.6,79.867453050666));
#357 = VECTOR('',#358,1.);
#358 = DIRECTION('',(0.,1.,0.));
#359 = ORIENTED_EDGE('',*,*,#360,.F.);
#360 = EDGE_CURVE('',#313,#353,#361,.T.);
#361 = LINE('',#362,#363);
#362 = CARTESIAN_POINT('',(7.19093,-125.6,76.867453050666));
#363 = VECTOR('',#364,1.);
#364 = DIRECTION('',(0.,0.,1.));
#365 = PLANE('',#366);
#366 = AXIS2_PLACEMENT_3D('',#367,#368,#369);
#367 = CARTESIAN_POINT('',(7.19093,-135.2071428571,81.260310193523));
#368 = DIRECTION('',(-1.,-0.,0.));
#369 = DIRECTION('',(0.,-1.,0.));
#370 = ADVANCED_FACE('',(#371),#389,.F.);
#371 = FACE_BOUND('',#372,.F.);
#372 = EDGE_LOOP('',(#373,#381,#387,#388));
#373 = ORIENTED_EDGE('',*,*,#374,.F.);
#374 = EDGE_CURVE('',#375,#288,#377,.T.);
#375 = VERTEX_POINT('',#376);
#376 = CARTESIAN_POINT('',(-9.00907,-129.6,84.867453050666));
#377 = LINE('',#378,#379);
#378 = CARTESIAN_POINT('',(-9.00907,-125.6,84.867453050666));
#379 = VECTOR('',#380,1.);
#380 = DIRECTION('',(0.,-1.,0.));
#381 = ORIENTED_EDGE('',*,*,#382,.F.);
#382 = EDGE_CURVE('',#98,#375,#383,.T.);
#383 = LINE('',#384,#385);
#384 = CARTESIAN_POINT('',(-9.00907,-129.6,88.867453050666));
#385 = VECTOR('',#386,1.);
#386 = DIRECTION('',(0.,0.,-1.));
#387 = ORIENTED_EDGE('',*,*,#106,.F.);
#388 = ORIENTED_EDGE('',*,*,#296,.F.);
#389 = PLANE('',#390);
#390 = AXIS2_PLACEMENT_3D('',#391,#392,#393);
#391 = CARTESIAN_POINT('',(-9.00907,-130.6,86.867453050666));
#392 = DIRECTION('',(1.,0.,0.));
#393 = DIRECTION('',(0.,1.,0.));
#394 = ADVANCED_FACE('',(#395),#413,.T.);
#395 = FACE_BOUND('',#396,.T.);
#396 = EDGE_LOOP('',(#397,#405,#411,#412));
#397 = ORIENTED_EDGE('',*,*,#398,.T.);
#398 = EDGE_CURVE('',#331,#399,#401,.T.);
#399 = VERTEX_POINT('',#400);
#400 = CARTESIAN_POINT('',(11.19093,-141.6,85.207462378992));
#401 = ( BOUNDED_CURVE() B_SPLINE_CURVE(2,(#402,#403,#404),
.UNSPECIFIED.,.F.,.F.) B_SPLINE_CURVE_WITH_KNOTS((3,3),(0.,
2.680018656651),.PIECEWISE_BEZIER_KNOTS.) CURVE() 
GEOMETRIC_REPRESENTATION_ITEM() RATIONAL_B_SPLINE_CURVE((1.,
0.707106781187,1.)) REPRESENTATION_ITEM('') );
#402 = CARTESIAN_POINT('',(7.19093,-137.6,85.207462378992));
#403 = CARTESIAN_POINT('',(7.19093,-141.6,85.207462378992));
#404 = CARTESIAN_POINT('',(11.19093,-141.6,85.207462378992));
#405 = ORIENTED_EDGE('',*,*,#406,.T.);
#406 = EDGE_CURVE('',#399,#40,#407,.T.);
#407 = LINE('',#408,#409);
#408 = CARTESIAN_POINT('',(11.19093,-141.6,76.867453050666));
#409 = VECTOR('',#410,1.);
#410 = DIRECTION('',(0.,0.,1.));
#411 = ORIENTED_EDGE('',*,*,#39,.F.);
#412 = ORIENTED_EDGE('',*,*,#344,.F.);
#413 = CYLINDRICAL_SURFACE('',#414,4.);
#414 = AXIS2_PLACEMENT_3D('',#415,#416,#417);
#415 = CARTESIAN_POINT('',(11.19093,-137.6,76.867453050666));
#416 = DIRECTION('',(0.,0.,1.));
#417 = DIRECTION('',(-1.,0.,0.));
#418 = ADVANCED_FACE('',(#419),#438,.T.);
#419 = FACE_BOUND('',#420,.T.);
#420 = EDGE_LOOP('',(#421,#422,#430,#437));
#421 = ORIENTED_EDGE('',*,*,#97,.T.);
#422 = ORIENTED_EDGE('',*,*,#423,.T.);
#423 = EDGE_CURVE('',#90,#424,#426,.T.);
#424 = VERTEX_POINT('',#425);
#425 = CARTESIAN_POINT('',(-5.00907,-125.6,84.867453050666));
#426 = LINE('',#427,#428);
#427 = CARTESIAN_POINT('',(-5.00907,-125.6,88.867453050666));
#428 = VECTOR('',#429,1.);
#429 = DIRECTION('',(0.,0.,-1.));
#430 = ORIENTED_EDGE('',*,*,#431,.F.);
#431 = EDGE_CURVE('',#375,#424,#432,.T.);
#432 = CIRCLE('',#433,4.);
#433 = AXIS2_PLACEMENT_3D('',#434,#435,#436);
#434 = CARTESIAN_POINT('',(-5.00907,-129.6,84.867453050666));
#435 = DIRECTION('',(-0.,0.,-1.));
#436 = DIRECTION('',(0.,1.,0.));
#437 = ORIENTED_EDGE('',*,*,#382,.F.);
#438 = CYLINDRICAL_SURFACE('',#439,4.);
#439 = AXIS2_PLACEMENT_3D('',#440,#441,#442);
#440 = CARTESIAN_POINT('',(-5.00907,-129.6,88.867453050666));
#441 = DIRECTION('',(0.,0.,-1.));
#442 = DIRECTION('',(-1.,0.,0.));
#443 = ADVANCED_FACE('',(#444),#463,.F.);
#444 = FACE_BOUND('',#445,.F.);
#445 = EDGE_LOOP('',(#446,#447,#455,#462));
#446 = ORIENTED_EDGE('',*,*,#48,.T.);
#447 = ORIENTED_EDGE('',*,*,#448,.T.);
#448 = EDGE_CURVE('',#49,#449,#451,.T.);
#449 = VERTEX_POINT('',#450);
#450 = CARTESIAN_POINT('',(14.99093,-141.6,85.207462378992));
#451 = LINE('',#452,#453);
#452 = CARTESIAN_POINT('',(14.99093,-141.6,88.867453050666));
#453 = VECTOR('',#454,1.);
#454 = DIRECTION('',(0.,0.,-1.));
#455 = ORIENTED_EDGE('',*,*,#456,.T.);
#456 = EDGE_CURVE('',#449,#399,#457,.T.);
#457 = CIRCLE('',#458,2.325);
#458 = AXIS2_PLACEMENT_3D('',#459,#460,#461);
#459 = CARTESIAN_POINT('',(13.09093,-141.6,83.867453050666));
#460 = DIRECTION('',(0.,-1.,0.));
#461 = DIRECTION('',(1.,0.,0.));
#462 = ORIENTED_EDGE('',*,*,#406,.T.);
#463 = PLANE('',#464);
#464 = AXIS2_PLACEMENT_3D('',#465,#466,#467);
#465 = CARTESIAN_POINT('',(13.09093,-141.6,82.867453050666));
#466 = DIRECTION('',(0.,1.,0.));
#467 = DIRECTION('',(1.,0.,0.));
#468 = ADVANCED_FACE('',(#469,#526),#537,.T.);
#469 = FACE_BOUND('',#470,.T.);
#470 = EDGE_LOOP('',(#471,#479,#480,#481,#489,#497,#505,#511,#512,#520)
  );
#471 = ORIENTED_EDGE('',*,*,#472,.T.);
#472 = EDGE_CURVE('',#473,#424,#475,.T.);
#473 = VERTEX_POINT('',#474);
#474 = CARTESIAN_POINT('',(-1.00907,-125.6,84.867453050666));
#475 = LINE('',#476,#477);
#476 = CARTESIAN_POINT('',(-1.00907,-125.6,84.867453050666));
#477 = VECTOR('',#478,1.);
#478 = DIRECTION('',(-1.,0.,0.));
#479 = ORIENTED_EDGE('',*,*,#423,.F.);
#480 = ORIENTED_EDGE('',*,*,#89,.T.);
#481 = ORIENTED_EDGE('',*,*,#482,.F.);
#482 = EDGE_CURVE('',#483,#82,#485,.T.);
#483 = VERTEX_POINT('',#484);
#484 = CARTESIAN_POINT('',(27.19093,-125.6,79.867453050666));
#485 = LINE('',#486,#487);
#486 = CARTESIAN_POINT('',(27.19093,-125.6,79.867453050666));
#487 = VECTOR('',#488,1.);
#488 = DIRECTION('',(0.,0.,1.));
#489 = ORIENTED_EDGE('',*,*,#490,.F.);
#490 = EDGE_CURVE('',#491,#483,#493,.T.);
#491 = VERTEX_POINT('',#492);
#492 = CARTESIAN_POINT('',(18.99093,-125.6,79.867453050666));
#493 = LINE('',#494,#495);
#494 = CARTESIAN_POINT('',(18.99093,-125.6,79.867453050666));
#495 = VECTOR('',#496,1.);
#496 = DIRECTION('',(1.,0.,0.));
#497 = ORIENTED_EDGE('',*,*,#498,.T.);
#498 = EDGE_CURVE('',#491,#499,#501,.T.);
#499 = VERTEX_POINT('',#500);
#500 = CARTESIAN_POINT('',(18.99093,-125.6,76.867453050666));
#501 = LINE('',#502,#503);
#502 = CARTESIAN_POINT('',(18.99093,-125.6,79.867453050666));
#503 = VECTOR('',#504,1.);
#504 = DIRECTION('',(0.,0.,-1.));
#505 = ORIENTED_EDGE('',*,*,#506,.T.);
#506 = EDGE_CURVE('',#499,#313,#507,.T.);
#507 = LINE('',#508,#509);
#508 = CARTESIAN_POINT('',(18.99093,-125.6,76.867453050666));
#509 = VECTOR('',#510,1.);
#510 = DIRECTION('',(-1.,0.,0.));
#511 = ORIENTED_EDGE('',*,*,#360,.T.);
#512 = ORIENTED_EDGE('',*,*,#513,.T.);
#513 = EDGE_CURVE('',#353,#514,#516,.T.);
#514 = VERTEX_POINT('',#515);
#515 = CARTESIAN_POINT('',(-1.00907,-125.6,79.867453050666));
#516 = LINE('',#517,#518);
#517 = CARTESIAN_POINT('',(7.19093,-125.6,79.867453050666));
#518 = VECTOR('',#519,1.);
#519 = DIRECTION('',(-1.,0.,0.));
#520 = ORIENTED_EDGE('',*,*,#521,.T.);
#521 = EDGE_CURVE('',#514,#473,#522,.T.);
#522 = LINE('',#523,#524);
#523 = CARTESIAN_POINT('',(-1.00907,-125.6,79.867453050666));
#524 = VECTOR('',#525,1.);
#525 = DIRECTION('',(0.,0.,1.));
#526 = FACE_BOUND('',#527,.T.);
#527 = EDGE_LOOP('',(#528));
#528 = ORIENTED_EDGE('',*,*,#529,.T.);
#529 = EDGE_CURVE('',#530,#530,#532,.T.);
#530 = VERTEX_POINT('',#531);
#531 = CARTESIAN_POINT('',(15.41593,-125.6,83.867453050666));
#532 = CIRCLE('',#533,2.325);
#533 = AXIS2_PLACEMENT_3D('',#534,#535,#536);
#534 = CARTESIAN_POINT('',(13.09093,-125.6,83.867453050666));
#535 = DIRECTION('',(0.,-1.,0.));
#536 = DIRECTION('',(1.,0.,0.));
#537 = PLANE('',#538);
#538 = AXIS2_PLACEMENT_3D('',#539,#540,#541);
#539 = CARTESIAN_POINT('',(9.754830414938,-125.6,84.041726909587));
#540 = DIRECTION('',(0.,1.,0.));
#541 = DIRECTION('',(1.,0.,0.));
#542 = ADVANCED_FACE('',(#543),#562,.T.);
#543 = FACE_BOUND('',#544,.F.);
#544 = EDGE_LOOP('',(#545,#546,#554,#561));
#545 = ORIENTED_EDGE('',*,*,#56,.T.);
#546 = ORIENTED_EDGE('',*,*,#547,.T.);
#547 = EDGE_CURVE('',#57,#548,#550,.T.);
#548 = VERTEX_POINT('',#549);
#549 = CARTESIAN_POINT('',(18.99093,-137.6,85.207462378992));
#550 = LINE('',#551,#552);
#551 = CARTESIAN_POINT('',(18.99093,-137.6,88.867453050666));
#552 = VECTOR('',#553,1.);
#553 = DIRECTION('',(0.,0.,-1.));
#554 = ORIENTED_EDGE('',*,*,#555,.F.);
#555 = EDGE_CURVE('',#449,#548,#556,.T.);
#556 = CIRCLE('',#557,4.);
#557 = AXIS2_PLACEMENT_3D('',#558,#559,#560);
#558 = CARTESIAN_POINT('',(14.99093,-137.6,85.207462378992));
#559 = DIRECTION('',(-0.,0.,1.));
#560 = DIRECTION('',(0.,-1.,0.));
#561 = ORIENTED_EDGE('',*,*,#448,.F.);
#562 = CYLINDRICAL_SURFACE('',#563,4.);
#563 = AXIS2_PLACEMENT_3D('',#564,#565,#566);
#564 = CARTESIAN_POINT('',(14.99093,-137.6,88.867453050666));
#565 = DIRECTION('',(0.,0.,-1.));
#566 = DIRECTION('',(0.,-1.,0.));
#567 = ADVANCED_FACE('',(#568),#586,.T.);
#568 = FACE_BOUND('',#569,.T.);
#569 = EDGE_LOOP('',(#570,#578,#579,#580));
#570 = ORIENTED_EDGE('',*,*,#571,.T.);
#571 = EDGE_CURVE('',#572,#483,#574,.T.);
#572 = VERTEX_POINT('',#573);
#573 = CARTESIAN_POINT('',(27.19093,-135.6,79.867453050666));
#574 = LINE('',#575,#576);
#575 = CARTESIAN_POINT('',(27.19093,-135.6,79.867453050666));
#576 = VECTOR('',#577,1.);
#577 = DIRECTION('',(0.,1.,0.));
#578 = ORIENTED_EDGE('',*,*,#482,.T.);
#579 = ORIENTED_EDGE('',*,*,#81,.F.);
#580 = ORIENTED_EDGE('',*,*,#581,.F.);
#581 = EDGE_CURVE('',#572,#74,#582,.T.);
#582 = LINE('',#583,#584);
#583 = CARTESIAN_POINT('',(27.19093,-135.6,79.867453050666));
#584 = VECTOR('',#585,1.);
#585 = DIRECTION('',(0.,0.,1.));
#586 = PLANE('',#587);
#587 = AXIS2_PLACEMENT_3D('',#588,#589,#590);
#588 = CARTESIAN_POINT('',(27.19093,-135.6,79.867453050666));
#589 = DIRECTION('',(1.,0.,0.));
#590 = DIRECTION('',(0.,0.,1.));
#591 = ADVANCED_FACE('',(#592),#649,.T.);
#592 = FACE_BOUND('',#593,.T.);
#593 = EDGE_LOOP('',(#594,#595,#596,#608,#620,#628,#634,#635,#643));
#594 = ORIENTED_EDGE('',*,*,#65,.T.);
#595 = ORIENTED_EDGE('',*,*,#547,.T.);
#596 = ORIENTED_EDGE('',*,*,#597,.T.);
#597 = EDGE_CURVE('',#548,#598,#600,.T.);
#598 = VERTEX_POINT('',#599);
#599 = CARTESIAN_POINT('',(18.99093,-137.6226422087,83.867453050666));
#600 = ( BOUNDED_CURVE() B_SPLINE_CURVE(6,(#601,#602,#603,#604,#605,#606
,#607),.UNSPECIFIED.,.F.,.F.) B_SPLINE_CURVE_WITH_KNOTS((7,7),(
3.659990671674,5.),.PIECEWISE_BEZIER_KNOTS.) CURVE() 
GEOMETRIC_REPRESENTATION_ITEM() RATIONAL_B_SPLINE_CURVE((1.,1.,1.,1.,1.,
1.,1.)) REPRESENTATION_ITEM('') );
#601 = CARTESIAN_POINT('',(18.99093,-137.6,85.207462378992));
#602 = CARTESIAN_POINT('',(18.99093,-137.6,84.984127490938));
#603 = CARTESIAN_POINT('',(18.99093,-137.6073806175,84.760792602883));
#604 = CARTESIAN_POINT('',(18.99093,-137.6142719198,84.537457714829));
#605 = CARTESIAN_POINT('',(18.99093,-137.6199263233,84.314122826775));
#606 = CARTESIAN_POINT('',(18.99093,-137.6226422087,84.090787938721));
#607 = CARTESIAN_POINT('',(18.99093,-137.6226422087,83.867453050666));
#608 = ORIENTED_EDGE('',*,*,#609,.T.);
#609 = EDGE_CURVE('',#598,#610,#612,.T.);
#610 = VERTEX_POINT('',#611);
#611 = CARTESIAN_POINT('',(18.99093,-137.6,82.52744372234));
#612 = ( BOUNDED_CURVE() B_SPLINE_CURVE(6,(#613,#614,#615,#616,#617,#618
,#619),.UNSPECIFIED.,.F.,.F.) B_SPLINE_CURVE_WITH_KNOTS((7,7),(5.,
6.340009328326),.PIECEWISE_BEZIER_KNOTS.) CURVE() 
GEOMETRIC_REPRESENTATION_ITEM() RATIONAL_B_SPLINE_CURVE((1.,1.,1.,1.,1.,
1.,1.)) REPRESENTATION_ITEM('') );
#613 = CARTESIAN_POINT('',(18.99093,-137.6226422087,83.867453050666));
#614 = CARTESIAN_POINT('',(18.99093,-137.6226422087,83.644118162612));
#615 = CARTESIAN_POINT('',(18.99093,-137.6199263233,83.420783274558));
#616 = CARTESIAN_POINT('',(18.99093,-137.6142719198,83.197448386503));
#617 = CARTESIAN_POINT('',(18.99093,-137.6073806175,82.974113498449));
#618 = CARTESIAN_POINT('',(18.99093,-137.6,82.750778610395));
#619 = CARTESIAN_POINT('',(18.99093,-137.6,82.52744372234));
#620 = ORIENTED_EDGE('',*,*,#621,.T.);
#621 = EDGE_CURVE('',#610,#622,#624,.T.);
#622 = VERTEX_POINT('',#623);
#623 = CARTESIAN_POINT('',(18.99093,-137.6,76.867453050666));
#624 = LINE('',#625,#626);
#625 = CARTESIAN_POINT('',(18.99093,-137.6,88.867453050666));
#626 = VECTOR('',#627,1.);
#627 = DIRECTION('',(0.,0.,-1.));
#628 = ORIENTED_EDGE('',*,*,#629,.F.);
#629 = EDGE_CURVE('',#499,#622,#630,.T.);
#630 = LINE('',#631,#632);
#631 = CARTESIAN_POINT('',(18.99093,-135.6,76.867453050666));
#632 = VECTOR('',#633,1.);
#633 = DIRECTION('',(0.,-1.,0.));
#634 = ORIENTED_EDGE('',*,*,#498,.F.);
#635 = ORIENTED_EDGE('',*,*,#636,.F.);
#636 = EDGE_CURVE('',#637,#491,#639,.T.);
#637 = VERTEX_POINT('',#638);
#638 = CARTESIAN_POINT('',(18.99093,-135.6,79.867453050666));
#639 = LINE('',#640,#641);
#640 = CARTESIAN_POINT('',(18.99093,-135.6,79.867453050666));
#641 = VECTOR('',#642,1.);
#642 = DIRECTION('',(0.,1.,0.));
#643 = ORIENTED_EDGE('',*,*,#644,.F.);
#644 = EDGE_CURVE('',#66,#637,#645,.T.);
#645 = LINE('',#646,#647);
#646 = CARTESIAN_POINT('',(18.99093,-135.6,88.867453050666));
#647 = VECTOR('',#648,1.);
#648 = DIRECTION('',(0.,0.,-1.));
#649 = PLANE('',#650);
#650 = AXIS2_PLACEMENT_3D('',#651,#652,#653);
#651 = CARTESIAN_POINT('',(18.99093,-135.2071428571,81.260310193523));
#652 = DIRECTION('',(1.,0.,0.));
#653 = DIRECTION('',(0.,1.,0.));
#654 = ADVANCED_FACE('',(#655),#666,.F.);
#655 = FACE_BOUND('',#656,.F.);
#656 = EDGE_LOOP('',(#657,#663,#664,#665));
#657 = ORIENTED_EDGE('',*,*,#658,.F.);
#658 = EDGE_CURVE('',#637,#572,#659,.T.);
#659 = LINE('',#660,#661);
#660 = CARTESIAN_POINT('',(18.99093,-135.6,79.867453050666));
#661 = VECTOR('',#662,1.);
#662 = DIRECTION('',(1.,0.,0.));
#663 = ORIENTED_EDGE('',*,*,#644,.F.);
#664 = ORIENTED_EDGE('',*,*,#73,.T.);
#665 = ORIENTED_EDGE('',*,*,#581,.F.);
#666 = PLANE('',#667);
#667 = AXIS2_PLACEMENT_3D('',#668,#669,#670);
#668 = CARTESIAN_POINT('',(13.09093,-135.6,83.479393349174));
#669 = DIRECTION('',(0.,1.,0.));
#670 = DIRECTION('',(1.,0.,0.));
#671 = ADVANCED_FACE('',(#672),#691,.F.);
#672 = FACE_BOUND('',#673,.F.);
#673 = EDGE_LOOP('',(#674,#675,#683,#690));
#674 = ORIENTED_EDGE('',*,*,#123,.F.);
#675 = ORIENTED_EDGE('',*,*,#676,.T.);
#676 = EDGE_CURVE('',#124,#677,#679,.T.);
#677 = VERTEX_POINT('',#678);
#678 = CARTESIAN_POINT('',(-2.707389,-130.6,84.867453050666));
#679 = LINE('',#680,#681);
#680 = CARTESIAN_POINT('',(-2.707389,-130.6,88.867453050666));
#681 = VECTOR('',#682,1.);
#682 = DIRECTION('',(0.,0.,-1.));
#683 = ORIENTED_EDGE('',*,*,#684,.T.);
#684 = EDGE_CURVE('',#677,#677,#685,.T.);
#685 = CIRCLE('',#686,2.301681);
#686 = AXIS2_PLACEMENT_3D('',#687,#688,#689);
#687 = CARTESIAN_POINT('',(-5.00907,-130.6,84.867453050666));
#688 = DIRECTION('',(0.,-2.2E-16,1.));
#689 = DIRECTION('',(1.,0.,0.));
#690 = ORIENTED_EDGE('',*,*,#676,.F.);
#691 = CYLINDRICAL_SURFACE('',#692,2.301681);
#692 = AXIS2_PLACEMENT_3D('',#693,#694,#695);
#693 = CARTESIAN_POINT('',(-5.00907,-130.6,88.867453050666));
#694 = DIRECTION('',(0.,-2.2E-16,1.));
#695 = DIRECTION('',(1.,0.,0.));
#696 = ADVANCED_FACE('',(#697),#722,.F.);
#697 = FACE_BOUND('',#698,.F.);
#698 = EDGE_LOOP('',(#699,#707,#715,#721));
#699 = ORIENTED_EDGE('',*,*,#700,.T.);
#700 = EDGE_CURVE('',#135,#701,#703,.T.);
#701 = VERTEX_POINT('',#702);
#702 = CARTESIAN_POINT('',(2.003217116072,-133.3499999999,
    82.867453050666));
#703 = LINE('',#704,#705);
#704 = CARTESIAN_POINT('',(2.003217116072,-133.3499999999,
    88.867453050666));
#705 = VECTOR('',#706,1.);
#706 = DIRECTION('',(0.,-2.2E-16,-1.));
#707 = ORIENTED_EDGE('',*,*,#708,.T.);
#708 = EDGE_CURVE('',#701,#709,#711,.T.);
#709 = VERTEX_POINT('',#710);
#710 = CARTESIAN_POINT('',(5.17864359661,-133.3499999999,82.867453050666
    ));
#711 = LINE('',#712,#713);
#712 = CARTESIAN_POINT('',(2.003217116072,-133.3499999999,
    82.867453050666));
#713 = VECTOR('',#714,1.);
#714 = DIRECTION('',(1.,0.,0.));
#715 = ORIENTED_EDGE('',*,*,#716,.F.);
#716 = EDGE_CURVE('',#137,#709,#717,.T.);
#717 = LINE('',#718,#719);
#718 = CARTESIAN_POINT('',(5.17864359661,-133.3499999999,88.867453050666
    ));
#719 = VECTOR('',#720,1.);
#720 = DIRECTION('',(0.,-2.2E-16,-1.));
#721 = ORIENTED_EDGE('',*,*,#134,.F.);
#722 = PLANE('',#723);
#723 = AXIS2_PLACEMENT_3D('',#724,#725,#726);
#724 = CARTESIAN_POINT('',(2.003217116072,-133.3499999999,
    88.867453050666));
#725 = DIRECTION('',(0.,-1.,2.2E-16));
#726 = DIRECTION('',(1.,0.,0.));
#727 = ADVANCED_FACE('',(#728),#746,.F.);
#728 = FACE_BOUND('',#729,.F.);
#729 = EDGE_LOOP('',(#730,#738,#744,#745));
#730 = ORIENTED_EDGE('',*,*,#731,.T.);
#731 = EDGE_CURVE('',#145,#732,#734,.T.);
#732 = VERTEX_POINT('',#733);
#733 = CARTESIAN_POINT('',(0.415503875793,-130.5999999999,
    82.867453050666));
#734 = LINE('',#735,#736);
#735 = CARTESIAN_POINT('',(0.415503875793,-130.5999999999,
    88.867453050666));
#736 = VECTOR('',#737,1.);
#737 = DIRECTION('',(0.,-2.2E-16,-1.));
#738 = ORIENTED_EDGE('',*,*,#739,.T.);
#739 = EDGE_CURVE('',#732,#701,#740,.T.);
#740 = LINE('',#741,#742);
#741 = CARTESIAN_POINT('',(0.415503875793,-130.5999999999,
    82.867453050666));
#742 = VECTOR('',#743,1.);
#743 = DIRECTION('',(0.500000000001,-0.866025403784,0.));
#744 = ORIENTED_EDGE('',*,*,#700,.F.);
#745 = ORIENTED_EDGE('',*,*,#144,.F.);
#746 = PLANE('',#747);
#747 = AXIS2_PLACEMENT_3D('',#748,#749,#750);
#748 = CARTESIAN_POINT('',(0.415503875793,-130.5999999999,
    88.867453050666));
#749 = DIRECTION('',(-0.866025403784,-0.500000000001,1.1E-16));
#750 = DIRECTION('',(0.500000000001,-0.866025403784,1.9E-16));
#751 = ADVANCED_FACE('',(#752),#770,.F.);
#752 = FACE_BOUND('',#753,.F.);
#753 = EDGE_LOOP('',(#754,#755,#763,#769));
#754 = ORIENTED_EDGE('',*,*,#716,.T.);
#755 = ORIENTED_EDGE('',*,*,#756,.T.);
#756 = EDGE_CURVE('',#709,#757,#759,.T.);
#757 = VERTEX_POINT('',#758);
#758 = CARTESIAN_POINT('',(6.766356836891,-130.6,82.867453050666));
#759 = LINE('',#760,#761);
#760 = CARTESIAN_POINT('',(5.17864359661,-133.3499999999,82.867453050666
    ));
#761 = VECTOR('',#762,1.);
#762 = DIRECTION('',(0.500000000003,0.866025403783,0.));
#763 = ORIENTED_EDGE('',*,*,#764,.F.);
#764 = EDGE_CURVE('',#169,#757,#765,.T.);
#765 = LINE('',#766,#767);
#766 = CARTESIAN_POINT('',(6.766356836891,-130.6,88.867453050666));
#767 = VECTOR('',#768,1.);
#768 = DIRECTION('',(0.,-2.2E-16,-1.));
#769 = ORIENTED_EDGE('',*,*,#176,.F.);
#770 = PLANE('',#771);
#771 = AXIS2_PLACEMENT_3D('',#772,#773,#774);
#772 = CARTESIAN_POINT('',(5.17864359661,-133.3499999999,88.867453050666
    ));
#773 = DIRECTION('',(0.866025403783,-0.500000000003,1.1E-16));
#774 = DIRECTION('',(0.500000000003,0.866025403783,-1.9E-16));
#775 = ADVANCED_FACE('',(#776),#794,.F.);
#776 = FACE_BOUND('',#777,.F.);
#777 = EDGE_LOOP('',(#778,#786,#792,#793));
#778 = ORIENTED_EDGE('',*,*,#779,.T.);
#779 = EDGE_CURVE('',#153,#780,#782,.T.);
#780 = VERTEX_POINT('',#781);
#781 = CARTESIAN_POINT('',(2.003217116077,-127.85,82.867453050666));
#782 = LINE('',#783,#784);
#783 = CARTESIAN_POINT('',(2.003217116077,-127.85,88.867453050666));
#784 = VECTOR('',#785,1.);
#785 = DIRECTION('',(0.,-2.2E-16,-1.));
#786 = ORIENTED_EDGE('',*,*,#787,.T.);
#787 = EDGE_CURVE('',#780,#732,#788,.T.);
#788 = LINE('',#789,#790);
#789 = CARTESIAN_POINT('',(2.003217116077,-127.85,82.867453050666));
#790 = VECTOR('',#791,1.);
#791 = DIRECTION('',(-0.500000000005,-0.866025403782,0.));
#792 = ORIENTED_EDGE('',*,*,#731,.F.);
#793 = ORIENTED_EDGE('',*,*,#152,.F.);
#794 = PLANE('',#795);
#795 = AXIS2_PLACEMENT_3D('',#796,#797,#798);
#796 = CARTESIAN_POINT('',(2.003217116077,-127.85,88.867453050666));
#797 = DIRECTION('',(-0.866025403782,0.500000000005,-1.1E-16));
#798 = DIRECTION('',(-0.500000000005,-0.866025403782,1.9E-16));
#799 = ADVANCED_FACE('',(#800),#818,.F.);
#800 = FACE_BOUND('',#801,.F.);
#801 = EDGE_LOOP('',(#802,#803,#811,#817));
#802 = ORIENTED_EDGE('',*,*,#764,.T.);
#803 = ORIENTED_EDGE('',*,*,#804,.T.);
#804 = EDGE_CURVE('',#757,#805,#807,.T.);
#805 = VERTEX_POINT('',#806);
#806 = CARTESIAN_POINT('',(5.178643596616,-127.85,82.867453050666));
#807 = LINE('',#808,#809);
#808 = CARTESIAN_POINT('',(6.766356836891,-130.6,82.867453050666));
#809 = VECTOR('',#810,1.);
#810 = DIRECTION('',(-0.500000000001,0.866025403784,0.));
#811 = ORIENTED_EDGE('',*,*,#812,.F.);
#812 = EDGE_CURVE('',#161,#805,#813,.T.);
#813 = LINE('',#814,#815);
#814 = CARTESIAN_POINT('',(5.178643596616,-127.85,88.867453050666));
#815 = VECTOR('',#816,1.);
#816 = DIRECTION('',(0.,-2.2E-16,-1.));
#817 = ORIENTED_EDGE('',*,*,#168,.F.);
#818 = PLANE('',#819);
#819 = AXIS2_PLACEMENT_3D('',#820,#821,#822);
#820 = CARTESIAN_POINT('',(6.766356836891,-130.6,88.867453050666));
#821 = DIRECTION('',(0.866025403784,0.500000000001,-1.1E-16));
#822 = DIRECTION('',(-0.500000000001,0.866025403784,-1.9E-16));
#823 = ADVANCED_FACE('',(#824),#835,.F.);
#824 = FACE_BOUND('',#825,.F.);
#825 = EDGE_LOOP('',(#826,#827,#833,#834));
#826 = ORIENTED_EDGE('',*,*,#812,.T.);
#827 = ORIENTED_EDGE('',*,*,#828,.T.);
#828 = EDGE_CURVE('',#805,#780,#829,.T.);
#829 = LINE('',#830,#831);
#830 = CARTESIAN_POINT('',(5.178643596616,-127.85,82.867453050666));
#831 = VECTOR('',#832,1.);
#832 = DIRECTION('',(-1.,-2.8865E-13,0.));
#833 = ORIENTED_EDGE('',*,*,#779,.F.);
#834 = ORIENTED_EDGE('',*,*,#160,.F.);
#835 = PLANE('',#836);
#836 = AXIS2_PLACEMENT_3D('',#837,#838,#839);
#837 = CARTESIAN_POINT('',(5.178643596616,-127.85,88.867453050666));
#838 = DIRECTION('',(-2.8865E-13,1.,-2.2E-16));
#839 = DIRECTION('',(-1.,-2.8865E-13,-0.));
#840 = ADVANCED_FACE('',(#841),#866,.F.);
#841 = FACE_BOUND('',#842,.F.);
#842 = EDGE_LOOP('',(#843,#851,#859,#865));
#843 = ORIENTED_EDGE('',*,*,#844,.T.);
#844 = EDGE_CURVE('',#185,#845,#847,.T.);
#845 = VERTEX_POINT('',#846);
#846 = CARTESIAN_POINT('',(19.415503875796,-130.5999999999,
    82.867453050666));
#847 = LINE('',#848,#849);
#848 = CARTESIAN_POINT('',(19.415503875796,-130.5999999999,
    88.867453050666));
#849 = VECTOR('',#850,1.);
#850 = DIRECTION('',(0.,-2.2E-16,-1.));
#851 = ORIENTED_EDGE('',*,*,#852,.T.);
#852 = EDGE_CURVE('',#845,#853,#855,.T.);
#853 = VERTEX_POINT('',#854);
#854 = CARTESIAN_POINT('',(21.003217116072,-133.3499999999,
    82.867453050666));
#855 = LINE('',#856,#857);
#856 = CARTESIAN_POINT('',(19.415503875796,-130.5999999999,
    82.867453050666));
#857 = VECTOR('',#858,1.);
#858 = DIRECTION('',(0.500000000001,-0.866025403784,0.));
#859 = ORIENTED_EDGE('',*,*,#860,.F.);
#860 = EDGE_CURVE('',#187,#853,#861,.T.);
#861 = LINE('',#862,#863);
#862 = CARTESIAN_POINT('',(21.003217116072,-133.3499999999,
    88.867453050666));
#863 = VECTOR('',#864,1.);
#864 = DIRECTION('',(0.,-2.2E-16,-1.));
#865 = ORIENTED_EDGE('',*,*,#184,.F.);
#866 = PLANE('',#867);
#867 = AXIS2_PLACEMENT_3D('',#868,#869,#870);
#868 = CARTESIAN_POINT('',(19.415503875796,-130.5999999999,
    88.867453050666));
#869 = DIRECTION('',(-0.866025403784,-0.500000000001,1.1E-16));
#870 = DIRECTION('',(0.500000000001,-0.866025403784,1.9E-16));
#871 = ADVANCED_FACE('',(#872),#890,.F.);
#872 = FACE_BOUND('',#873,.F.);
#873 = EDGE_LOOP('',(#874,#882,#888,#889));
#874 = ORIENTED_EDGE('',*,*,#875,.T.);
#875 = EDGE_CURVE('',#195,#876,#878,.T.);
#876 = VERTEX_POINT('',#877);
#877 = CARTESIAN_POINT('',(21.003217116076,-127.85,82.867453050666));
#878 = LINE('',#879,#880);
#879 = CARTESIAN_POINT('',(21.003217116076,-127.85,88.867453050666));
#880 = VECTOR('',#881,1.);
#881 = DIRECTION('',(0.,-2.2E-16,-1.));
#882 = ORIENTED_EDGE('',*,*,#883,.T.);
#883 = EDGE_CURVE('',#876,#845,#884,.T.);
#884 = LINE('',#885,#886);
#885 = CARTESIAN_POINT('',(21.003217116076,-127.85,82.867453050666));
#886 = VECTOR('',#887,1.);
#887 = DIRECTION('',(-0.500000000003,-0.866025403783,0.));
#888 = ORIENTED_EDGE('',*,*,#844,.F.);
#889 = ORIENTED_EDGE('',*,*,#194,.F.);
#890 = PLANE('',#891);
#891 = AXIS2_PLACEMENT_3D('',#892,#893,#894);
#892 = CARTESIAN_POINT('',(21.003217116076,-127.85,88.867453050666));
#893 = DIRECTION('',(-0.866025403783,0.500000000003,-1.1E-16));
#894 = DIRECTION('',(-0.500000000003,-0.866025403783,1.9E-16));
#895 = ADVANCED_FACE('',(#896),#914,.F.);
#896 = FACE_BOUND('',#897,.F.);
#897 = EDGE_LOOP('',(#898,#899,#907,#913));
#898 = ORIENTED_EDGE('',*,*,#860,.T.);
#899 = ORIENTED_EDGE('',*,*,#900,.T.);
#900 = EDGE_CURVE('',#853,#901,#903,.T.);
#901 = VERTEX_POINT('',#902);
#902 = CARTESIAN_POINT('',(24.178643596612,-133.3499999999,
    82.867453050666));
#903 = LINE('',#904,#905);
#904 = CARTESIAN_POINT('',(21.003217116072,-133.3499999999,
    82.867453050666));
#905 = VECTOR('',#906,1.);
#906 = DIRECTION('',(1.,0.,0.));
#907 = ORIENTED_EDGE('',*,*,#908,.F.);
#908 = EDGE_CURVE('',#219,#901,#909,.T.);
#909 = LINE('',#910,#911);
#910 = CARTESIAN_POINT('',(24.178643596612,-133.3499999999,
    88.867453050666));
#911 = VECTOR('',#912,1.);
#912 = DIRECTION('',(0.,-2.2E-16,-1.));
#913 = ORIENTED_EDGE('',*,*,#226,.F.);
#914 = PLANE('',#915);
#915 = AXIS2_PLACEMENT_3D('',#916,#917,#918);
#916 = CARTESIAN_POINT('',(21.003217116072,-133.3499999999,
    88.867453050666));
#917 = DIRECTION('',(0.,-1.,2.2E-16));
#918 = DIRECTION('',(1.,0.,0.));
#919 = ADVANCED_FACE('',(#920),#938,.F.);
#920 = FACE_BOUND('',#921,.F.);
#921 = EDGE_LOOP('',(#922,#930,#936,#937));
#922 = ORIENTED_EDGE('',*,*,#923,.T.);
#923 = EDGE_CURVE('',#203,#924,#926,.T.);
#924 = VERTEX_POINT('',#925);
#925 = CARTESIAN_POINT('',(24.178643596616,-127.85,82.867453050666));
#926 = LINE('',#927,#928);
#927 = CARTESIAN_POINT('',(24.178643596616,-127.85,88.867453050666));
#928 = VECTOR('',#929,1.);
#929 = DIRECTION('',(0.,-2.2E-16,-1.));
#930 = ORIENTED_EDGE('',*,*,#931,.T.);
#931 = EDGE_CURVE('',#924,#876,#932,.T.);
#932 = LINE('',#933,#934);
#933 = CARTESIAN_POINT('',(24.178643596616,-127.85,82.867453050666));
#934 = VECTOR('',#935,1.);
#935 = DIRECTION('',(-1.,-1.9216E-13,0.));
#936 = ORIENTED_EDGE('',*,*,#875,.F.);
#937 = ORIENTED_EDGE('',*,*,#202,.F.);
#938 = PLANE('',#939);
#939 = AXIS2_PLACEMENT_3D('',#940,#941,#942);
#940 = CARTESIAN_POINT('',(24.178643596616,-127.85,88.867453050666));
#941 = DIRECTION('',(-1.9216E-13,1.,-2.2E-16));
#942 = DIRECTION('',(-1.,-1.9216E-13,-0.));
#943 = ADVANCED_FACE('',(#944),#962,.F.);
#944 = FACE_BOUND('',#945,.F.);
#945 = EDGE_LOOP('',(#946,#947,#955,#961));
#946 = ORIENTED_EDGE('',*,*,#908,.T.);
#947 = ORIENTED_EDGE('',*,*,#948,.T.);
#948 = EDGE_CURVE('',#901,#949,#951,.T.);
#949 = VERTEX_POINT('',#950);
#950 = CARTESIAN_POINT('',(25.76635683689,-130.6,82.867453050666));
#951 = LINE('',#952,#953);
#952 = CARTESIAN_POINT('',(24.178643596612,-133.3499999999,
    82.867453050666));
#953 = VECTOR('',#954,1.);
#954 = DIRECTION('',(0.500000000002,0.866025403783,0.));
#955 = ORIENTED_EDGE('',*,*,#956,.F.);
#956 = EDGE_CURVE('',#211,#949,#957,.T.);
#957 = LINE('',#958,#959);
#958 = CARTESIAN_POINT('',(25.76635683689,-130.6,88.867453050666));
#959 = VECTOR('',#960,1.);
#960 = DIRECTION('',(0.,-2.2E-16,-1.));
#961 = ORIENTED_EDGE('',*,*,#218,.F.);
#962 = PLANE('',#963);
#963 = AXIS2_PLACEMENT_3D('',#964,#965,#966);
#964 = CARTESIAN_POINT('',(24.178643596612,-133.3499999999,
    88.867453050666));
#965 = DIRECTION('',(0.866025403783,-0.500000000002,1.1E-16));
#966 = DIRECTION('',(0.500000000002,0.866025403783,-1.9E-16));
#967 = ADVANCED_FACE('',(#968),#979,.F.);
#968 = FACE_BOUND('',#969,.F.);
#969 = EDGE_LOOP('',(#970,#971,#977,#978));
#970 = ORIENTED_EDGE('',*,*,#956,.T.);
#971 = ORIENTED_EDGE('',*,*,#972,.T.);
#972 = EDGE_CURVE('',#949,#924,#973,.T.);
#973 = LINE('',#974,#975);
#974 = CARTESIAN_POINT('',(25.76635683689,-130.6,82.867453050666));
#975 = VECTOR('',#976,1.);
#976 = DIRECTION('',(-0.500000000001,0.866025403784,0.));
#977 = ORIENTED_EDGE('',*,*,#923,.F.);
#978 = ORIENTED_EDGE('',*,*,#210,.F.);
#979 = PLANE('',#980);
#980 = AXIS2_PLACEMENT_3D('',#981,#982,#983);
#981 = CARTESIAN_POINT('',(25.76635683689,-130.6,88.867453050666));
#982 = DIRECTION('',(0.866025403784,0.500000000001,-1.1E-16));
#983 = DIRECTION('',(-0.500000000001,0.866025403784,-1.9E-16));
#984 = ADVANCED_FACE('',(#985,#998),#1001,.F.);
#985 = FACE_BOUND('',#986,.F.);
#986 = EDGE_LOOP('',(#987,#988,#989,#990,#991,#992));
#987 = ORIENTED_EDGE('',*,*,#472,.T.);
#988 = ORIENTED_EDGE('',*,*,#431,.F.);
#989 = ORIENTED_EDGE('',*,*,#374,.T.);
#990 = ORIENTED_EDGE('',*,*,#287,.F.);
#991 = ORIENTED_EDGE('',*,*,#249,.F.);
#992 = ORIENTED_EDGE('',*,*,#993,.F.);
#993 = EDGE_CURVE('',#473,#250,#994,.T.);
#994 = LINE('',#995,#996);
#995 = CARTESIAN_POINT('',(-1.00907,-125.6,84.867453050666));
#996 = VECTOR('',#997,1.);
#997 = DIRECTION('',(0.,-1.,0.));
#998 = FACE_BOUND('',#999,.F.);
#999 = EDGE_LOOP('',(#1000));
#1000 = ORIENTED_EDGE('',*,*,#684,.F.);
#1001 = PLANE('',#1002);
#1002 = AXIS2_PLACEMENT_3D('',#1003,#1004,#1005);
#1003 = CARTESIAN_POINT('',(-1.00907,-125.6,84.867453050666));
#1004 = DIRECTION('',(-0.,-0.,1.));
#1005 = DIRECTION('',(0.,-1.,0.));
#1006 = ADVANCED_FACE('',(#1007,#1018),#1029,.F.);
#1007 = FACE_BOUND('',#1008,.F.);
#1008 = EDGE_LOOP('',(#1009,#1010,#1011,#1017));
#1009 = ORIENTED_EDGE('',*,*,#352,.T.);
#1010 = ORIENTED_EDGE('',*,*,#513,.T.);
#1011 = ORIENTED_EDGE('',*,*,#1012,.F.);
#1012 = EDGE_CURVE('',#258,#514,#1013,.T.);
#1013 = LINE('',#1014,#1015);
#1014 = CARTESIAN_POINT('',(-1.00907,-135.6,79.867453050666));
#1015 = VECTOR('',#1016,1.);
#1016 = DIRECTION('',(0.,1.,0.));
#1017 = ORIENTED_EDGE('',*,*,#265,.F.);
#1018 = FACE_BOUND('',#1019,.F.);
#1019 = EDGE_LOOP('',(#1020));
#1020 = ORIENTED_EDGE('',*,*,#1021,.T.);
#1021 = EDGE_CURVE('',#1022,#1022,#1024,.T.);
#1022 = VERTEX_POINT('',#1023);
#1023 = CARTESIAN_POINT('',(1.99093,-130.6,79.867453050666));
#1024 = CIRCLE('',#1025,1.6);
#1025 = AXIS2_PLACEMENT_3D('',#1026,#1027,#1028);
#1026 = CARTESIAN_POINT('',(3.59093,-130.6,79.867453050666));
#1027 = DIRECTION('',(0.,0.,-1.));
#1028 = DIRECTION('',(-1.,0.,0.));
#1029 = PLANE('',#1030);
#1030 = AXIS2_PLACEMENT_3D('',#1031,#1032,#1033);
#1031 = CARTESIAN_POINT('',(7.19093,-135.6,79.867453050666));
#1032 = DIRECTION('',(0.,0.,1.));
#1033 = DIRECTION('',(-1.,0.,0.));
#1034 = ADVANCED_FACE('',(#1035),#1041,.F.);
#1035 = FACE_BOUND('',#1036,.F.);
#1036 = EDGE_LOOP('',(#1037,#1038,#1039,#1040));
#1037 = ORIENTED_EDGE('',*,*,#257,.F.);
#1038 = ORIENTED_EDGE('',*,*,#1012,.T.);
#1039 = ORIENTED_EDGE('',*,*,#521,.T.);
#1040 = ORIENTED_EDGE('',*,*,#993,.T.);
#1041 = PLANE('',#1042);
#1042 = AXIS2_PLACEMENT_3D('',#1043,#1044,#1045);
#1043 = CARTESIAN_POINT('',(-1.00907,-135.6,79.867453050666));
#1044 = DIRECTION('',(1.,0.,0.));
#1045 = DIRECTION('',(0.,0.,1.));
#1046 = ADVANCED_FACE('',(#1047),#1076,.T.);
#1047 = FACE_BOUND('',#1048,.T.);
#1048 = EDGE_LOOP('',(#1049,#1050,#1059,#1067,#1074,#1075));
#1049 = ORIENTED_EDGE('',*,*,#629,.T.);
#1050 = ORIENTED_EDGE('',*,*,#1051,.F.);
#1051 = EDGE_CURVE('',#1052,#622,#1054,.T.);
#1052 = VERTEX_POINT('',#1053);
#1053 = CARTESIAN_POINT('',(14.99093,-141.6,76.867453050666));
#1054 = CIRCLE('',#1055,4.);
#1055 = AXIS2_PLACEMENT_3D('',#1056,#1057,#1058);
#1056 = CARTESIAN_POINT('',(14.99093,-137.6,76.867453050666));
#1057 = DIRECTION('',(0.,-0.,1.));
#1058 = DIRECTION('',(0.,1.,0.));
#1059 = ORIENTED_EDGE('',*,*,#1060,.T.);
#1060 = EDGE_CURVE('',#1052,#1061,#1063,.T.);
#1061 = VERTEX_POINT('',#1062);
#1062 = CARTESIAN_POINT('',(11.19093,-141.6,76.867453050666));
#1063 = LINE('',#1064,#1065);
#1064 = CARTESIAN_POINT('',(18.99093,-141.6,76.867453050666));
#1065 = VECTOR('',#1066,1.);
#1066 = DIRECTION('',(-1.,0.,8.E-17));
#1067 = ORIENTED_EDGE('',*,*,#1068,.F.);
#1068 = EDGE_CURVE('',#315,#1061,#1069,.T.);
#1069 = CIRCLE('',#1070,4.);
#1070 = AXIS2_PLACEMENT_3D('',#1071,#1072,#1073);
#1071 = CARTESIAN_POINT('',(11.19093,-137.6,76.867453050666));
#1072 = DIRECTION('',(-0.,0.,1.));
#1073 = DIRECTION('',(0.,-1.,0.));
#1074 = ORIENTED_EDGE('',*,*,#312,.F.);
#1075 = ORIENTED_EDGE('',*,*,#506,.F.);
#1076 = PLANE('',#1077);
#1077 = AXIS2_PLACEMENT_3D('',#1078,#1079,#1080);
#1078 = CARTESIAN_POINT('',(13.09093,-133.6,76.867453050666));
#1079 = DIRECTION('',(0.,0.,-1.));
#1080 = DIRECTION('',(0.,1.,0.));
#1081 = ADVANCED_FACE('',(#1082),#1101,.T.);
#1082 = FACE_BOUND('',#1083,.T.);
#1083 = EDGE_LOOP('',(#1084,#1085,#1093,#1100));
#1084 = ORIENTED_EDGE('',*,*,#1068,.T.);
#1085 = ORIENTED_EDGE('',*,*,#1086,.T.);
#1086 = EDGE_CURVE('',#1061,#1087,#1089,.T.);
#1087 = VERTEX_POINT('',#1088);
#1088 = CARTESIAN_POINT('',(11.19093,-141.6,82.52744372234));
#1089 = LINE('',#1090,#1091);
#1090 = CARTESIAN_POINT('',(11.19093,-141.6,76.867453050666));
#1091 = VECTOR('',#1092,1.);
#1092 = DIRECTION('',(0.,0.,1.));
#1093 = ORIENTED_EDGE('',*,*,#1094,.F.);
#1094 = EDGE_CURVE('',#323,#1087,#1095,.T.);
#1095 = CIRCLE('',#1096,4.);
#1096 = AXIS2_PLACEMENT_3D('',#1097,#1098,#1099);
#1097 = CARTESIAN_POINT('',(11.19093,-137.6,82.52744372234));
#1098 = DIRECTION('',(0.,0.,1.));
#1099 = DIRECTION('',(-1.,0.,0.));
#1100 = ORIENTED_EDGE('',*,*,#322,.F.);
#1101 = CYLINDRICAL_SURFACE('',#1102,4.);
#1102 = AXIS2_PLACEMENT_3D('',#1103,#1104,#1105);
#1103 = CARTESIAN_POINT('',(11.19093,-137.6,76.867453050666));
#1104 = DIRECTION('',(0.,0.,1.));
#1105 = DIRECTION('',(-1.,0.,0.));
#1106 = ADVANCED_FACE('',(#1107),#1124,.T.);
#1107 = FACE_BOUND('',#1108,.T.);
#1108 = EDGE_LOOP('',(#1109,#1110,#1122,#1123));
#1109 = ORIENTED_EDGE('',*,*,#1094,.T.);
#1110 = ORIENTED_EDGE('',*,*,#1111,.T.);
#1111 = EDGE_CURVE('',#1087,#399,#1112,.T.);
#1112 = ( BOUNDED_CURVE() B_SPLINE_CURVE(8,(#1113,#1114,#1115,#1116,
    #1117,#1118,#1119,#1120,#1121),.UNSPECIFIED.,.F.,.F.) 
B_SPLINE_CURVE_WITH_KNOTS((9,9),(5.659990671674,8.340009328326),
.PIECEWISE_BEZIER_KNOTS.) CURVE() GEOMETRIC_REPRESENTATION_ITEM() 
RATIONAL_B_SPLINE_CURVE((1.,1.,1.,1.,1.,1.,1.,1.,1.)) 
REPRESENTATION_ITEM('') );
#1113 = CARTESIAN_POINT('',(11.19093,-141.6,82.52744372234));
#1114 = CARTESIAN_POINT('',(10.954663552632,-141.6,82.862446054422));
#1115 = CARTESIAN_POINT('',(10.819327405832,-141.6,83.197448386503));
#1116 = CARTESIAN_POINT('',(10.736279992674,-141.6,83.532450718585));
#1117 = CARTESIAN_POINT('',(10.715377068494,-141.6,83.867453050666));
#1118 = CARTESIAN_POINT('',(10.736279992674,-141.6,84.202455382748));
#1119 = CARTESIAN_POINT('',(10.819327405832,-141.6,84.537457714829));
#1120 = CARTESIAN_POINT('',(10.954663552632,-141.6,84.872460046911));
#1121 = CARTESIAN_POINT('',(11.19093,-141.6,85.207462378992));
#1122 = ORIENTED_EDGE('',*,*,#398,.F.);
#1123 = ORIENTED_EDGE('',*,*,#330,.F.);
#1124 = ( BOUNDED_SURFACE() B_SPLINE_SURFACE(2,8,(
    (#1125,#1126,#1127,#1128,#1129,#1130,#1131,#1132,#1133)
    ,(#1134,#1135,#1136,#1137,#1138,#1139,#1140,#1141,#1142)
    ,(#1143,#1144,#1145,#1146,#1147,#1148,#1149,#1150,#1151
)),.UNSPECIFIED.,.F.,.F.,.F.) B_SPLINE_SURFACE_WITH_KNOTS((3,3),(9,9),(
    0.,2.680018656651),(5.659990671674,8.340009328326),
.PIECEWISE_BEZIER_KNOTS.) GEOMETRIC_REPRESENTATION_ITEM() 
RATIONAL_B_SPLINE_SURFACE((
    (1.,1.,1.,1.,1.,1.,1.,1.,1.)
    ,(0.707106781187,0.727989982074,0.739251626627,0.746282512955
      ,0.747849065188,0.746282512955,0.739251626627,0.727989982074
      ,0.707106781187)
,(1.,1.,1.,1.,1.,1.,1.,1.,1.))) REPRESENTATION_ITEM('') SURFACE() );
#1125 = CARTESIAN_POINT('',(7.19093,-137.6,82.52744372234));
#1126 = CARTESIAN_POINT('',(7.19093,-137.6,82.862446054422));
#1127 = CARTESIAN_POINT('',(7.19093,-137.6158732163,83.197448386503));
#1128 = CARTESIAN_POINT('',(7.19093,-137.6245584563,83.532450718585));
#1129 = CARTESIAN_POINT('',(7.19093,-137.630817153,83.867453050666));
#1130 = CARTESIAN_POINT('',(7.19093,-137.6245584563,84.202455382748));
#1131 = CARTESIAN_POINT('',(7.19093,-137.6158732163,84.537457714829));
#1132 = CARTESIAN_POINT('',(7.19093,-137.6,84.872460046911));
#1133 = CARTESIAN_POINT('',(7.19093,-137.6,85.207462378992));
#1134 = CARTESIAN_POINT('',(7.19093,-141.6,82.52744372234));
#1135 = CARTESIAN_POINT('',(7.19093,-141.3705111179,82.852836140589));
#1136 = CARTESIAN_POINT('',(7.19093,-141.2597510551,83.189812709459));
#1137 = CARTESIAN_POINT('',(7.19093,-141.1932825761,83.527356138944));
#1138 = CARTESIAN_POINT('',(7.19093,-141.1801811383,83.867453050666));
#1139 = CARTESIAN_POINT('',(7.19093,-141.1932825761,84.207549962389));
#1140 = CARTESIAN_POINT('',(7.19093,-141.2597510551,84.545093391873));
#1141 = CARTESIAN_POINT('',(7.19093,-141.3705111179,84.882069960743));
#1142 = CARTESIAN_POINT('',(7.19093,-141.6,85.207462378992));
#1143 = CARTESIAN_POINT('',(11.19093,-141.6,82.52744372234));
#1144 = CARTESIAN_POINT('',(10.954663552632,-141.6,82.862446054422));
#1145 = CARTESIAN_POINT('',(10.819327405832,-141.6,83.197448386503));
#1146 = CARTESIAN_POINT('',(10.736279992674,-141.6,83.532450718585));
#1147 = CARTESIAN_POINT('',(10.715377068494,-141.6,83.867453050666));
#1148 = CARTESIAN_POINT('',(10.736279992674,-141.6,84.202455382748));
#1149 = CARTESIAN_POINT('',(10.819327405832,-141.6,84.537457714829));
#1150 = CARTESIAN_POINT('',(10.954663552632,-141.6,84.872460046911));
#1151 = CARTESIAN_POINT('',(11.19093,-141.6,85.207462378992));
#1152 = ADVANCED_FACE('',(#1153),#1196,.F.);
#1153 = FACE_BOUND('',#1154,.F.);
#1154 = EDGE_LOOP('',(#1155,#1156,#1168,#1174,#1175,#1176,#1188,#1195));
#1155 = ORIENTED_EDGE('',*,*,#456,.F.);
#1156 = ORIENTED_EDGE('',*,*,#1157,.T.);
#1157 = EDGE_CURVE('',#449,#1158,#1160,.T.);
#1158 = VERTEX_POINT('',#1159);
#1159 = CARTESIAN_POINT('',(15.41593,-141.6,83.867453050666));
#1160 = ( BOUNDED_CURVE() B_SPLINE_CURVE(6,(#1161,#1162,#1163,#1164,
#1165,#1166,#1167),.UNSPECIFIED.,.F.,.F.) B_SPLINE_CURVE_WITH_KNOTS((7,7
),(3.659990671674,5.),.PIECEWISE_BEZIER_KNOTS.) CURVE() 
GEOMETRIC_REPRESENTATION_ITEM() RATIONAL_B_SPLINE_CURVE((1.,1.,1.,1.,1.,
1.,1.)) REPRESENTATION_ITEM('') );
#1161 = CARTESIAN_POINT('',(14.99093,-141.6,85.207462378992));
#1162 = CARTESIAN_POINT('',(15.148440964912,-141.6,84.984127490938));
#1163 = CARTESIAN_POINT('',(15.258906146957,-141.6,84.760792602883));
#1164 = CARTESIAN_POINT('',(15.338938156626,-141.6,84.537457714829));
#1165 = CARTESIAN_POINT('',(15.390115309445,-141.6,84.314122826775));
#1166 = CARTESIAN_POINT('',(15.41593,-141.6,84.090787938721));
#1167 = CARTESIAN_POINT('',(15.41593,-141.6,83.867453050666));
#1168 = ORIENTED_EDGE('',*,*,#1169,.T.);
#1169 = EDGE_CURVE('',#1158,#530,#1170,.T.);
#1170 = LINE('',#1171,#1172);
#1171 = CARTESIAN_POINT('',(15.41593,-141.6,83.867453050666));
#1172 = VECTOR('',#1173,1.);
#1173 = DIRECTION('',(0.,1.,0.));
#1174 = ORIENTED_EDGE('',*,*,#529,.T.);
#1175 = ORIENTED_EDGE('',*,*,#1169,.F.);
#1176 = ORIENTED_EDGE('',*,*,#1177,.T.);
#1177 = EDGE_CURVE('',#1158,#1178,#1180,.T.);
#1178 = VERTEX_POINT('',#1179);
#1179 = CARTESIAN_POINT('',(14.99093,-141.6,82.52744372234));
#1180 = ( BOUNDED_CURVE() B_SPLINE_CURVE(6,(#1181,#1182,#1183,#1184,
#1185,#1186,#1187),.UNSPECIFIED.,.F.,.F.) B_SPLINE_CURVE_WITH_KNOTS((7,7
),(5.,6.340009328326),.PIECEWISE_BEZIER_KNOTS.) CURVE() 
GEOMETRIC_REPRESENTATION_ITEM() RATIONAL_B_SPLINE_CURVE((1.,1.,1.,1.,1.,
1.,1.)) REPRESENTATION_ITEM('') );
#1181 = CARTESIAN_POINT('',(15.41593,-141.6,83.867453050666));
#1182 = CARTESIAN_POINT('',(15.41593,-141.6,83.644118162612));
#1183 = CARTESIAN_POINT('',(15.390115309445,-141.6,83.420783274558));
#1184 = CARTESIAN_POINT('',(15.338938156626,-141.6,83.197448386503));
#1185 = CARTESIAN_POINT('',(15.258906146957,-141.6,82.974113498449));
#1186 = CARTESIAN_POINT('',(15.148440964912,-141.6,82.750778610395));
#1187 = CARTESIAN_POINT('',(14.99093,-141.6,82.52744372234));
#1188 = ORIENTED_EDGE('',*,*,#1189,.F.);
#1189 = EDGE_CURVE('',#1087,#1178,#1190,.T.);
#1190 = CIRCLE('',#1191,2.325);
#1191 = AXIS2_PLACEMENT_3D('',#1192,#1193,#1194);
#1192 = CARTESIAN_POINT('',(13.09093,-141.6,83.867453050666));
#1193 = DIRECTION('',(0.,-1.,0.));
#1194 = DIRECTION('',(1.,0.,0.));
#1195 = ORIENTED_EDGE('',*,*,#1111,.T.);
#1196 = CYLINDRICAL_SURFACE('',#1197,2.325);
#1197 = AXIS2_PLACEMENT_3D('',#1198,#1199,#1200);
#1198 = CARTESIAN_POINT('',(13.09093,-141.6,83.867453050666));
#1199 = DIRECTION('',(0.,-1.,0.));
#1200 = DIRECTION('',(1.,0.,0.));
#1201 = ADVANCED_FACE('',(#1202,#1208),#1219,.T.);
#1202 = FACE_BOUND('',#1203,.T.);
#1203 = EDGE_LOOP('',(#1204,#1205,#1206,#1207));
#1204 = ORIENTED_EDGE('',*,*,#636,.T.);
#1205 = ORIENTED_EDGE('',*,*,#490,.T.);
#1206 = ORIENTED_EDGE('',*,*,#571,.F.);
#1207 = ORIENTED_EDGE('',*,*,#658,.F.);
#1208 = FACE_BOUND('',#1209,.T.);
#1209 = EDGE_LOOP('',(#1210));
#1210 = ORIENTED_EDGE('',*,*,#1211,.F.);
#1211 = EDGE_CURVE('',#1212,#1212,#1214,.T.);
#1212 = VERTEX_POINT('',#1213);
#1213 = CARTESIAN_POINT('',(20.99093,-130.6,79.867453050666));
#1214 = CIRCLE('',#1215,1.6);
#1215 = AXIS2_PLACEMENT_3D('',#1216,#1217,#1218);
#1216 = CARTESIAN_POINT('',(22.59093,-130.6,79.867453050666));
#1217 = DIRECTION('',(0.,0.,-1.));
#1218 = DIRECTION('',(-1.,0.,0.));
#1219 = PLANE('',#1220);
#1220 = AXIS2_PLACEMENT_3D('',#1221,#1222,#1223);
#1221 = CARTESIAN_POINT('',(18.99093,-135.6,79.867453050666));
#1222 = DIRECTION('',(0.,0.,-1.));
#1223 = DIRECTION('',(1.,0.,0.));
#1224 = ADVANCED_FACE('',(#1225),#1236,.T.);
#1225 = FACE_BOUND('',#1226,.T.);
#1226 = EDGE_LOOP('',(#1227,#1228,#1229,#1235));
#1227 = ORIENTED_EDGE('',*,*,#555,.F.);
#1228 = ORIENTED_EDGE('',*,*,#1157,.T.);
#1229 = ORIENTED_EDGE('',*,*,#1230,.T.);
#1230 = EDGE_CURVE('',#1158,#598,#1231,.T.);
#1231 = ( BOUNDED_CURVE() B_SPLINE_CURVE(2,(#1232,#1233,#1234),
.UNSPECIFIED.,.F.,.F.) B_SPLINE_CURVE_WITH_KNOTS((3,3),(0.,
1.340009328326),.PIECEWISE_BEZIER_KNOTS.) CURVE() 
GEOMETRIC_REPRESENTATION_ITEM() RATIONAL_B_SPLINE_CURVE((1.,
0.743723739032,1.)) REPRESENTATION_ITEM('') );
#1232 = CARTESIAN_POINT('',(15.41593,-141.6,83.867453050666));
#1233 = CARTESIAN_POINT('',(18.99093,-141.2179938844,83.867453050666));
#1234 = CARTESIAN_POINT('',(18.99093,-137.6226422087,83.867453050666));
#1235 = ORIENTED_EDGE('',*,*,#597,.F.);
#1236 = ( BOUNDED_SURFACE() B_SPLINE_SURFACE(2,6,(
    (#1237,#1238,#1239,#1240,#1241,#1242,#1243)
    ,(#1244,#1245,#1246,#1247,#1248,#1249,#1250)
    ,(#1251,#1252,#1253,#1254,#1255,#1256,#1257
)),.UNSPECIFIED.,.F.,.F.,.F.) B_SPLINE_SURFACE_WITH_KNOTS((3,3),(7,7),(
    0.,1.340009328326),(3.659990671674,5.),.PIECEWISE_BEZIER_KNOTS.) 
GEOMETRIC_REPRESENTATION_ITEM() RATIONAL_B_SPLINE_SURFACE((
    (1.,1.,1.,1.,1.,1.,1.)
    ,(0.707106781187,0.721028915112,0.7304673429,0.737261247164
      ,0.741552089901,0.743723739032,0.743723739032)
,(1.,1.,1.,1.,1.,1.,1.))) REPRESENTATION_ITEM('') SURFACE() );
#1237 = CARTESIAN_POINT('',(18.99093,-137.6,85.207462378992));
#1238 = CARTESIAN_POINT('',(18.99093,-137.6,84.984127490938));
#1239 = CARTESIAN_POINT('',(18.99093,-137.6073806175,84.760792602883));
#1240 = CARTESIAN_POINT('',(18.99093,-137.6142719198,84.537457714829));
#1241 = CARTESIAN_POINT('',(18.99093,-137.6199263233,84.314122826775));
#1242 = CARTESIAN_POINT('',(18.99093,-137.6226422087,84.090787938721));
#1243 = CARTESIAN_POINT('',(18.99093,-137.6226422087,83.867453050666));
#1244 = CARTESIAN_POINT('',(18.99093,-141.6,85.207462378992));
#1245 = CARTESIAN_POINT('',(18.99093,-141.4455303676,84.988439798193));
#1246 = CARTESIAN_POINT('',(18.99093,-141.3477478087,84.76489027774));
#1247 = CARTESIAN_POINT('',(18.99093,-141.28018396,84.540492817368));
#1248 = CARTESIAN_POINT('',(18.99093,-141.2387989537,84.315398658447));
#1249 = CARTESIAN_POINT('',(18.99093,-141.2179938844,84.090787938721));
#1250 = CARTESIAN_POINT('',(18.99093,-141.2179938844,83.867453050666));
#1251 = CARTESIAN_POINT('',(14.99093,-141.6,85.207462378992));
#1252 = CARTESIAN_POINT('',(15.148440964912,-141.6,84.984127490938));
#1253 = CARTESIAN_POINT('',(15.258906146957,-141.6,84.760792602883));
#1254 = CARTESIAN_POINT('',(15.338938156626,-141.6,84.537457714829));
#1255 = CARTESIAN_POINT('',(15.390115309445,-141.6,84.314122826775));
#1256 = CARTESIAN_POINT('',(15.41593,-141.6,84.090787938721));
#1257 = CARTESIAN_POINT('',(15.41593,-141.6,83.867453050666));
#1258 = ADVANCED_FACE('',(#1259),#1270,.T.);
#1259 = FACE_BOUND('',#1260,.T.);
#1260 = EDGE_LOOP('',(#1261,#1262,#1263,#1269));
#1261 = ORIENTED_EDGE('',*,*,#1230,.F.);
#1262 = ORIENTED_EDGE('',*,*,#1177,.T.);
#1263 = ORIENTED_EDGE('',*,*,#1264,.T.);
#1264 = EDGE_CURVE('',#1178,#610,#1265,.T.);
#1265 = ( BOUNDED_CURVE() B_SPLINE_CURVE(2,(#1266,#1267,#1268),
.UNSPECIFIED.,.F.,.F.) B_SPLINE_CURVE_WITH_KNOTS((3,3),(0.,
1.340009328326),.PIECEWISE_BEZIER_KNOTS.) CURVE() 
GEOMETRIC_REPRESENTATION_ITEM() RATIONAL_B_SPLINE_CURVE((1.,
0.707106781187,1.)) REPRESENTATION_ITEM('') );
#1266 = CARTESIAN_POINT('',(14.99093,-141.6,82.52744372234));
#1267 = CARTESIAN_POINT('',(18.99093,-141.6,82.52744372234));
#1268 = CARTESIAN_POINT('',(18.99093,-137.6,82.52744372234));
#1269 = ORIENTED_EDGE('',*,*,#609,.F.);
#1270 = ( BOUNDED_SURFACE() B_SPLINE_SURFACE(2,6,(
    (#1271,#1272,#1273,#1274,#1275,#1276,#1277)
    ,(#1278,#1279,#1280,#1281,#1282,#1283,#1284)
    ,(#1285,#1286,#1287,#1288,#1289,#1290,#1291
)),.UNSPECIFIED.,.F.,.F.,.F.) B_SPLINE_SURFACE_WITH_KNOTS((3,3),(7,7),(
    0.,1.340009328326),(5.,6.340009328326),.PIECEWISE_BEZIER_KNOTS.) 
GEOMETRIC_REPRESENTATION_ITEM() RATIONAL_B_SPLINE_SURFACE((
    (1.,1.,1.,1.,1.,1.,1.)
    ,(0.743723739032,0.743723739032,0.741552089901,0.737261247164
      ,0.7304673429,0.721028915112,0.707106781187)
,(1.,1.,1.,1.,1.,1.,1.))) REPRESENTATION_ITEM('') SURFACE() );
#1271 = CARTESIAN_POINT('',(18.99093,-137.6226422087,83.867453050666));
#1272 = CARTESIAN_POINT('',(18.99093,-137.6226422087,83.644118162612));
#1273 = CARTESIAN_POINT('',(18.99093,-137.6199263233,83.420783274558));
#1274 = CARTESIAN_POINT('',(18.99093,-137.6142719198,83.197448386503));
#1275 = CARTESIAN_POINT('',(18.99093,-137.6073806175,82.974113498449));
#1276 = CARTESIAN_POINT('',(18.99093,-137.6,82.750778610395));
#1277 = CARTESIAN_POINT('',(18.99093,-137.6,82.52744372234));
#1278 = CARTESIAN_POINT('',(18.99093,-141.2179938844,83.867453050666));
#1279 = CARTESIAN_POINT('',(18.99093,-141.2179938844,83.644118162612));
#1280 = CARTESIAN_POINT('',(18.99093,-141.2387989537,83.419507442885));
#1281 = CARTESIAN_POINT('',(18.99093,-141.28018396,83.194413283965));
#1282 = CARTESIAN_POINT('',(18.99093,-141.3477478087,82.970015823592));
#1283 = CARTESIAN_POINT('',(18.99093,-141.4455303676,82.74646630314));
#1284 = CARTESIAN_POINT('',(18.99093,-141.6,82.52744372234));
#1285 = CARTESIAN_POINT('',(15.41593,-141.6,83.867453050666));
#1286 = CARTESIAN_POINT('',(15.41593,-141.6,83.644118162612));
#1287 = CARTESIAN_POINT('',(15.390115309445,-141.6,83.420783274558));
#1288 = CARTESIAN_POINT('',(15.338938156626,-141.6,83.197448386503));
#1289 = CARTESIAN_POINT('',(15.258906146957,-141.6,82.974113498449));
#1290 = CARTESIAN_POINT('',(15.148440964912,-141.6,82.750778610395));
#1291 = CARTESIAN_POINT('',(14.99093,-141.6,82.52744372234));
#1292 = ADVANCED_FACE('',(#1293),#1304,.T.);
#1293 = FACE_BOUND('',#1294,.F.);
#1294 = EDGE_LOOP('',(#1295,#1296,#1297,#1298));
#1295 = ORIENTED_EDGE('',*,*,#1264,.T.);
#1296 = ORIENTED_EDGE('',*,*,#621,.T.);
#1297 = ORIENTED_EDGE('',*,*,#1051,.F.);
#1298 = ORIENTED_EDGE('',*,*,#1299,.F.);
#1299 = EDGE_CURVE('',#1178,#1052,#1300,.T.);
#1300 = LINE('',#1301,#1302);
#1301 = CARTESIAN_POINT('',(14.99093,-141.6,88.867453050666));
#1302 = VECTOR('',#1303,1.);
#1303 = DIRECTION('',(0.,0.,-1.));
#1304 = CYLINDRICAL_SURFACE('',#1305,4.);
#1305 = AXIS2_PLACEMENT_3D('',#1306,#1307,#1308);
#1306 = CARTESIAN_POINT('',(14.99093,-137.6,88.867453050666));
#1307 = DIRECTION('',(0.,0.,-1.));
#1308 = DIRECTION('',(0.,-1.,0.));
#1309 = ADVANCED_FACE('',(#1310,#1318),#1329,.F.);
#1310 = FACE_BOUND('',#1311,.F.);
#1311 = EDGE_LOOP('',(#1312,#1313,#1314,#1315,#1316,#1317));
#1312 = ORIENTED_EDGE('',*,*,#756,.F.);
#1313 = ORIENTED_EDGE('',*,*,#708,.F.);
#1314 = ORIENTED_EDGE('',*,*,#739,.F.);
#1315 = ORIENTED_EDGE('',*,*,#787,.F.);
#1316 = ORIENTED_EDGE('',*,*,#828,.F.);
#1317 = ORIENTED_EDGE('',*,*,#804,.F.);
#1318 = FACE_BOUND('',#1319,.F.);
#1319 = EDGE_LOOP('',(#1320));
#1320 = ORIENTED_EDGE('',*,*,#1321,.F.);
#1321 = EDGE_CURVE('',#1322,#1322,#1324,.T.);
#1322 = VERTEX_POINT('',#1323);
#1323 = CARTESIAN_POINT('',(1.99093,-130.6,82.867453050666));
#1324 = CIRCLE('',#1325,1.6);
#1325 = AXIS2_PLACEMENT_3D('',#1326,#1327,#1328);
#1326 = CARTESIAN_POINT('',(3.59093,-130.6,82.867453050666));
#1327 = DIRECTION('',(9.E-17,-2.2E-16,-1.));
#1328 = DIRECTION('',(-1.,-9.E-17,-9.E-17));
#1329 = PLANE('',#1330);
#1330 = AXIS2_PLACEMENT_3D('',#1331,#1332,#1333);
#1331 = CARTESIAN_POINT('',(13.090930356343,-130.6,82.867453050666));
#1332 = DIRECTION('',(0.,0.,-1.));
#1333 = DIRECTION('',(0.,1.,0.));
#1334 = ADVANCED_FACE('',(#1335,#1343),#1354,.F.);
#1335 = FACE_BOUND('',#1336,.F.);
#1336 = EDGE_LOOP('',(#1337,#1338,#1339,#1340,#1341,#1342));
#1337 = ORIENTED_EDGE('',*,*,#900,.F.);
#1338 = ORIENTED_EDGE('',*,*,#852,.F.);
#1339 = ORIENTED_EDGE('',*,*,#883,.F.);
#1340 = ORIENTED_EDGE('',*,*,#931,.F.);
#1341 = ORIENTED_EDGE('',*,*,#972,.F.);
#1342 = ORIENTED_EDGE('',*,*,#948,.F.);
#1343 = FACE_BOUND('',#1344,.F.);
#1344 = EDGE_LOOP('',(#1345));
#1345 = ORIENTED_EDGE('',*,*,#1346,.F.);
#1346 = EDGE_CURVE('',#1347,#1347,#1349,.T.);
#1347 = VERTEX_POINT('',#1348);
#1348 = CARTESIAN_POINT('',(20.99093,-130.6,82.867453050666));
#1349 = CIRCLE('',#1350,1.6);
#1350 = AXIS2_PLACEMENT_3D('',#1351,#1352,#1353);
#1351 = CARTESIAN_POINT('',(22.59093,-130.6,82.867453050666));
#1352 = DIRECTION('',(9.E-17,-2.2E-16,-1.));
#1353 = DIRECTION('',(-1.,-9.E-17,-9.E-17));
#1354 = PLANE('',#1355);
#1355 = AXIS2_PLACEMENT_3D('',#1356,#1357,#1358);
#1356 = CARTESIAN_POINT('',(13.090930356343,-130.6,82.867453050666));
#1357 = DIRECTION('',(0.,0.,-1.));
#1358 = DIRECTION('',(0.,1.,0.));
#1359 = ADVANCED_FACE('',(#1360),#1371,.F.);
#1360 = FACE_BOUND('',#1361,.F.);
#1361 = EDGE_LOOP('',(#1362,#1368,#1369,#1370));
#1362 = ORIENTED_EDGE('',*,*,#1363,.F.);
#1363 = EDGE_CURVE('',#1022,#1322,#1364,.T.);
#1364 = LINE('',#1365,#1366);
#1365 = CARTESIAN_POINT('',(1.99093,-130.6,79.867453050666));
#1366 = VECTOR('',#1367,1.);
#1367 = DIRECTION('',(-9.E-17,2.2E-16,1.));
#1368 = ORIENTED_EDGE('',*,*,#1021,.F.);
#1369 = ORIENTED_EDGE('',*,*,#1363,.T.);
#1370 = ORIENTED_EDGE('',*,*,#1321,.T.);
#1371 = CYLINDRICAL_SURFACE('',#1372,1.6);
#1372 = AXIS2_PLACEMENT_3D('',#1373,#1374,#1375);
#1373 = CARTESIAN_POINT('',(3.59093,-130.6,79.867453050666));
#1374 = DIRECTION('',(9.E-17,-2.2E-16,-1.));
#1375 = DIRECTION('',(-1.,-9.E-17,-9.E-17));
#1376 = ADVANCED_FACE('',(#1377),#1383,.F.);
#1377 = FACE_BOUND('',#1378,.F.);
#1378 = EDGE_LOOP('',(#1379,#1380,#1381,#1382));
#1379 = ORIENTED_EDGE('',*,*,#1060,.T.);
#1380 = ORIENTED_EDGE('',*,*,#1086,.T.);
#1381 = ORIENTED_EDGE('',*,*,#1189,.T.);
#1382 = ORIENTED_EDGE('',*,*,#1299,.T.);
#1383 = PLANE('',#1384);
#1384 = AXIS2_PLACEMENT_3D('',#1385,#1386,#1387);
#1385 = CARTESIAN_POINT('',(13.09093,-141.6,82.867453050666));
#1386 = DIRECTION('',(0.,1.,0.));
#1387 = DIRECTION('',(1.,0.,0.));
#1388 = ADVANCED_FACE('',(#1389),#1400,.F.);
#1389 = FACE_BOUND('',#1390,.F.);
#1390 = EDGE_LOOP('',(#1391,#1397,#1398,#1399));
#1391 = ORIENTED_EDGE('',*,*,#1392,.F.);
#1392 = EDGE_CURVE('',#1212,#1347,#1393,.T.);
#1393 = LINE('',#1394,#1395);
#1394 = CARTESIAN_POINT('',(20.99093,-130.6,79.867453050666));
#1395 = VECTOR('',#1396,1.);
#1396 = DIRECTION('',(-9.E-17,2.2E-16,1.));
#1397 = ORIENTED_EDGE('',*,*,#1211,.F.);
#1398 = ORIENTED_EDGE('',*,*,#1392,.T.);
#1399 = ORIENTED_EDGE('',*,*,#1346,.T.);
#1400 = CYLINDRICAL_SURFACE('',#1401,1.6);
#1401 = AXIS2_PLACEMENT_3D('',#1402,#1403,#1404);
#1402 = CARTESIAN_POINT('',(22.59093,-130.6,79.867453050666));
#1403 = DIRECTION('',(9.E-17,-2.2E-16,-1.));
#1404 = DIRECTION('',(-1.,-9.E-17,-9.E-17));
#1405 = ( GEOMETRIC_REPRESENTATION_CONTEXT(3) 
GLOBAL_UNCERTAINTY_ASSIGNED_CONTEXT((#1409)) 
GLOBAL_UNIT_ASSIGNED_CONTEXT((#1406,#1407,#1408)) REPRESENTATION_CONTEXT
('Context #1','3D Context with UNIT and UNCERTAINTY') );
#1406 = ( LENGTH_UNIT() NAMED_UNIT(*) SI_UNIT(.MILLI.,.METRE.) );
#1407 = ( NAMED_UNIT(*) PLANE_ANGLE_UNIT() SI_UNIT($,.RADIAN.) );
#1408 = ( NAMED_UNIT(*) SI_UNIT($,.STERADIAN.) SOLID_ANGLE_UNIT() );
#1409 = UNCERTAINTY_MEASURE_WITH_UNIT(LENGTH_MEASURE(1.E-05),#1406,
  'distance_accuracy_value','confusion accuracy');
#1410 = PRODUCT_RELATED_PRODUCT_CATEGORY('part',$,(#7));
ENDSEC;
END-ISO-10303-21;
