ISO-10303-21;
HEADER;
FILE_DESCRIPTION(('FreeCAD Model'),'2;1');
FILE_NAME('Open CASCADE Shape Model','2026-08-28T13:04:06',('FreeCAD'),(
    'FreeCAD'),'Open CASCADE STEP processor 7.8','FreeCAD','Unknown');
FILE_SCHEMA(('AUTOMOTIVE_DESIGN { 1 0 10303 214 1 1 1 1 }'));
ENDSEC;
DATA;
#1 = APPLICATION_PROTOCOL_DEFINITION('international standard',
  'automotive_design',2000,#2);
#2 = APPLICATION_CONTEXT(
  'core data for automotive mechanical design processes');
#3 = SHAPE_DEFINITION_REPRESENTATION(#4,#10);
#4 = PRODUCT_DEFINITION_SHAPE('','',#5);
#5 = PRODUCT_DEFINITION('design','',#6,#9);
#6 = PRODUCT_DEFINITION_FORMATION('','',#7);
#7 = PRODUCT('Open CASCADE STEP translator 7.8 70',
  'Open CASCADE STEP translator 7.8 70','',(#8));
#8 = PRODUCT_CONTEXT('',#2,'mechanical');
#9 = PRODUCT_DEFINITION_CONTEXT('part definition',#2,'design');
#10 = ADVANCED_BREP_SHAPE_REPRESENTATION('',(#11,#15),#1405);
#11 = AXIS2_PLACEMENT_3D('',#12,#13,#14);
#12 = CARTESIAN_POINT('',(0.,0.,0.));
#13 = DIRECTION('',(0.,0.,1.));
#14 = DIRECTION('',(1.,0.,-0.));
#15 = MANIFOLD_SOLID_BREP('',#16);
#16 = CLOSED_SHELL('',(#17,#236,#326,#351,#375,#399,#423,#448,#501,#541,
    #565,#628,#653,#671,#702,#726,#750,#774,#798,#815,#846,#870,#894,
    #918,#942,#959,#984,#1006,#1029,#1046,#1069,#1104,#1166,#1189,#1224,
    #1258,#1292,#1309,#1334,#1359,#1376,#1393));
#17 = ADVANCED_FACE('',(#18,#120,#170,#220),#231,.T.);
#18 = FACE_BOUND('',#19,.T.);
#19 = EDGE_LOOP('',(#20,#30,#38,#46,#54,#63,#71,#80,#88,#96,#105,#113));
#20 = ORIENTED_EDGE('',*,*,#21,.F.);
#21 = EDGE_CURVE('',#22,#24,#26,.T.);
#22 = VERTEX_POINT('',#23);
#23 = CARTESIAN_POINT('',(-1.00907,-125.6,107.86745305066));
#24 = VERTEX_POINT('',#25);
#25 = CARTESIAN_POINT('',(31.19093,-125.6,107.86745305066));
#26 = LINE('',#27,#28);
#27 = CARTESIAN_POINT('',(27.19093,-125.6,107.86745305066));
#28 = VECTOR('',#29,1.);
#29 = DIRECTION('',(1.,0.,0.));
#30 = ORIENTED_EDGE('',*,*,#31,.F.);
#31 = EDGE_CURVE('',#32,#22,#34,.T.);
#32 = VERTEX_POINT('',#33);
#33 = CARTESIAN_POINT('',(-1.00907,-135.6,107.86745305066));
#34 = LINE('',#35,#36);
#35 = CARTESIAN_POINT('',(-1.00907,-135.6,107.86745305066));
#36 = VECTOR('',#37,1.);
#37 = DIRECTION('',(0.,1.,0.));
#38 = ORIENTED_EDGE('',*,*,#39,.T.);
#39 = EDGE_CURVE('',#32,#40,#42,.T.);
#40 = VERTEX_POINT('',#41);
#41 = CARTESIAN_POINT('',(7.19093,-135.6,107.86745305066));
#42 = LINE('',#43,#44);
#43 = CARTESIAN_POINT('',(-1.00907,-135.6,107.86745305066));
#44 = VECTOR('',#45,1.);
#45 = DIRECTION('',(1.,0.,0.));
#46 = ORIENTED_EDGE('',*,*,#47,.T.);
#47 = EDGE_CURVE('',#40,#48,#50,.T.);
#48 = VERTEX_POINT('',#49);
#49 = CARTESIAN_POINT('',(7.19093,-137.6,107.86745305066));
#50 = LINE('',#51,#52);
#51 = CARTESIAN_POINT('',(7.19093,-135.6,107.86745305066));
#52 = VECTOR('',#53,1.);
#53 = DIRECTION('',(0.,-1.,0.));
#54 = ORIENTED_EDGE('',*,*,#55,.T.);
#55 = EDGE_CURVE('',#48,#56,#58,.T.);
#56 = VERTEX_POINT('',#57);
#57 = CARTESIAN_POINT('',(11.19093,-141.6,107.86745305066));
#58 = CIRCLE('',#59,4.);
#59 = AXIS2_PLACEMENT_3D('',#60,#61,#62);
#60 = CARTESIAN_POINT('',(11.19093,-137.6,107.86745305066));
#61 = DIRECTION('',(-0.,0.,1.));
#62 = DIRECTION('',(0.,-1.,0.));
#63 = ORIENTED_EDGE('',*,*,#64,.T.);
#64 = EDGE_CURVE('',#56,#65,#67,.T.);
#65 = VERTEX_POINT('',#66);
#66 = CARTESIAN_POINT('',(14.99093,-141.6,107.86745305066));
#67 = LINE('',#68,#69);
#68 = CARTESIAN_POINT('',(7.19093,-141.6,107.86745305066));
#69 = VECTOR('',#70,1.);
#70 = DIRECTION('',(1.,0.,-8.E-17));
#71 = ORIENTED_EDGE('',*,*,#72,.T.);
#72 = EDGE_CURVE('',#65,#73,#75,.T.);
#73 = VERTEX_POINT('',#74);
#74 = CARTESIAN_POINT('',(18.99093,-137.6,107.86745305066));
#75 = CIRCLE('',#76,4.);
#76 = AXIS2_PLACEMENT_3D('',#77,#78,#79);
#77 = CARTESIAN_POINT('',(14.99093,-137.6,107.86745305066));
#78 = DIRECTION('',(0.,-0.,1.));
#79 = DIRECTION('',(0.,1.,0.));
#80 = ORIENTED_EDGE('',*,*,#81,.F.);
#81 = EDGE_CURVE('',#82,#73,#84,.T.);
#82 = VERTEX_POINT('',#83);
#83 = CARTESIAN_POINT('',(18.99093,-135.6,107.86745305066));
#84 = LINE('',#85,#86);
#85 = CARTESIAN_POINT('',(18.99093,-135.6,107.86745305066));
#86 = VECTOR('',#87,1.);
#87 = DIRECTION('',(0.,-1.,0.));
#88 = ORIENTED_EDGE('',*,*,#89,.T.);
#89 = EDGE_CURVE('',#82,#90,#92,.T.);
#90 = VERTEX_POINT('',#91);
#91 = CARTESIAN_POINT('',(31.19093,-135.6,107.86745305066));
#92 = LINE('',#93,#94);
#93 = CARTESIAN_POINT('',(-1.00907,-135.6,107.86745305066));
#94 = VECTOR('',#95,1.);
#95 = DIRECTION('',(1.,0.,0.));
#96 = ORIENTED_EDGE('',*,*,#97,.F.);
#97 = EDGE_CURVE('',#98,#90,#100,.T.);
#98 = VERTEX_POINT('',#99);
#99 = CARTESIAN_POINT('',(35.19093,-131.6,107.86745305066));
#100 = CIRCLE('',#101,4.);
#101 = AXIS2_PLACEMENT_3D('',#102,#103,#104);
#102 = CARTESIAN_POINT('',(31.19093,-131.6,107.86745305066));
#103 = DIRECTION('',(-0.,0.,-1.));
#104 = DIRECTION('',(0.,1.,0.));
#105 = ORIENTED_EDGE('',*,*,#106,.F.);
#106 = EDGE_CURVE('',#107,#98,#109,.T.);
#107 = VERTEX_POINT('',#108);
#108 = CARTESIAN_POINT('',(35.19093,-129.6,107.86745305066));
#109 = LINE('',#110,#111);
#110 = CARTESIAN_POINT('',(35.19093,-125.6,107.86745305066));
#111 = VECTOR('',#112,1.);
#112 = DIRECTION('',(0.,-1.,0.));
#113 = ORIENTED_EDGE('',*,*,#114,.F.);
#114 = EDGE_CURVE('',#24,#107,#115,.T.);
#115 = CIRCLE('',#116,4.);
#116 = AXIS2_PLACEMENT_3D('',#117,#118,#119);
#117 = CARTESIAN_POINT('',(31.19093,-129.6,107.86745305066));
#118 = DIRECTION('',(0.,0.,-1.));
#119 = DIRECTION('',(0.,-1.,-0.));
#120 = FACE_BOUND('',#121,.T.);
#121 = EDGE_LOOP('',(#122,#132,#140,#148,#156,#164));
#122 = ORIENTED_EDGE('',*,*,#123,.F.);
#123 = EDGE_CURVE('',#124,#126,#128,.T.);
#124 = VERTEX_POINT('',#125);
#125 = CARTESIAN_POINT('',(2.003217116073,-133.35,107.86745305066));
#126 = VERTEX_POINT('',#127);
#127 = CARTESIAN_POINT('',(5.178643596616,-133.35,107.86745305066));
#128 = LINE('',#129,#130);
#129 = CARTESIAN_POINT('',(2.003217116073,-133.35,107.86745305066));
#130 = VECTOR('',#131,1.);
#131 = DIRECTION('',(1.,0.,0.));
#132 = ORIENTED_EDGE('',*,*,#133,.F.);
#133 = EDGE_CURVE('',#134,#124,#136,.T.);
#134 = VERTEX_POINT('',#135);
#135 = CARTESIAN_POINT('',(0.415503875801,-130.6,107.86745305066));
#136 = LINE('',#137,#138);
#137 = CARTESIAN_POINT('',(0.415503875801,-130.6,107.86745305066));
#138 = VECTOR('',#139,1.);
#139 = DIRECTION('',(0.5,-0.866025403784,0.));
#140 = ORIENTED_EDGE('',*,*,#141,.F.);
#141 = EDGE_CURVE('',#142,#134,#144,.T.);
#142 = VERTEX_POINT('',#143);
#143 = CARTESIAN_POINT('',(2.003217116073,-127.85,107.86745305066));
#144 = LINE('',#145,#146);
#145 = CARTESIAN_POINT('',(2.003217116073,-127.85,107.86745305066));
#146 = VECTOR('',#147,1.);
#147 = DIRECTION('',(-0.5,-0.866025403784,0.));
#148 = ORIENTED_EDGE('',*,*,#149,.F.);
#149 = EDGE_CURVE('',#150,#142,#152,.T.);
#150 = VERTEX_POINT('',#151);
#151 = CARTESIAN_POINT('',(5.178643596616,-127.85,107.86745305066));
#152 = LINE('',#153,#154);
#153 = CARTESIAN_POINT('',(5.178643596616,-127.85,107.86745305066));
#154 = VECTOR('',#155,1.);
#155 = DIRECTION('',(-1.,1.12E-15,0.));
#156 = ORIENTED_EDGE('',*,*,#157,.F.);
#157 = EDGE_CURVE('',#158,#150,#160,.T.);
#158 = VERTEX_POINT('',#159);
#159 = CARTESIAN_POINT('',(6.766356836887,-130.6,107.86745305066));
#160 = LINE('',#161,#162);
#161 = CARTESIAN_POINT('',(6.766356836887,-130.6,107.86745305066));
#162 = VECTOR('',#163,1.);
#163 = DIRECTION('',(-0.5,0.866025403784,0.));
#164 = ORIENTED_EDGE('',*,*,#165,.F.);
#165 = EDGE_CURVE('',#126,#158,#166,.T.);
#166 = LINE('',#167,#168);
#167 = CARTESIAN_POINT('',(5.178643596616,-133.35,107.86745305066));
#168 = VECTOR('',#169,1.);
#169 = DIRECTION('',(0.5,0.866025403784,0.));
#170 = FACE_BOUND('',#171,.T.);
#171 = EDGE_LOOP('',(#172,#182,#190,#198,#206,#214));
#172 = ORIENTED_EDGE('',*,*,#173,.F.);
#173 = EDGE_CURVE('',#174,#176,#178,.T.);
#174 = VERTEX_POINT('',#175);
#175 = CARTESIAN_POINT('',(19.415503875796,-130.5999999999,
    107.86745305066));
#176 = VERTEX_POINT('',#177);
#177 = CARTESIAN_POINT('',(21.003217116072,-133.3499999999,
    107.86745305066));
#178 = LINE('',#179,#180);
#179 = CARTESIAN_POINT('',(19.415503875796,-130.5999999999,
    107.86745305066));
#180 = VECTOR('',#181,1.);
#181 = DIRECTION('',(0.500000000001,-0.866025403784,0.));
#182 = ORIENTED_EDGE('',*,*,#183,.F.);
#183 = EDGE_CURVE('',#184,#174,#186,.T.);
#184 = VERTEX_POINT('',#185);
#185 = CARTESIAN_POINT('',(21.003217116076,-127.85,107.86745305066));
#186 = LINE('',#187,#188);
#187 = CARTESIAN_POINT('',(21.003217116076,-127.85,107.86745305066));
#188 = VECTOR('',#189,1.);
#189 = DIRECTION('',(-0.500000000003,-0.866025403783,0.));
#190 = ORIENTED_EDGE('',*,*,#191,.F.);
#191 = EDGE_CURVE('',#192,#184,#194,.T.);
#192 = VERTEX_POINT('',#193);
#193 = CARTESIAN_POINT('',(24.178643596616,-127.85,107.86745305066));
#194 = LINE('',#195,#196);
#195 = CARTESIAN_POINT('',(24.178643596616,-127.85,107.86745305066));
#196 = VECTOR('',#197,1.);
#197 = DIRECTION('',(-1.,-1.9216E-13,0.));
#198 = ORIENTED_EDGE('',*,*,#199,.F.);
#199 = EDGE_CURVE('',#200,#192,#202,.T.);
#200 = VERTEX_POINT('',#201);
#201 = CARTESIAN_POINT('',(25.76635683689,-130.6,107.86745305066));
#202 = LINE('',#203,#204);
#203 = CARTESIAN_POINT('',(25.76635683689,-130.6,107.86745305066));
#204 = VECTOR('',#205,1.);
#205 = DIRECTION('',(-0.500000000001,0.866025403784,0.));
#206 = ORIENTED_EDGE('',*,*,#207,.F.);
#207 = EDGE_CURVE('',#208,#200,#210,.T.);
#208 = VERTEX_POINT('',#209);
#209 = CARTESIAN_POINT('',(24.178643596612,-133.3499999999,
    107.86745305066));
#210 = LINE('',#211,#212);
#211 = CARTESIAN_POINT('',(24.178643596612,-133.3499999999,
    107.86745305066));
#212 = VECTOR('',#213,1.);
#213 = DIRECTION('',(0.500000000002,0.866025403783,0.));
#214 = ORIENTED_EDGE('',*,*,#215,.F.);
#215 = EDGE_CURVE('',#176,#208,#216,.T.);
#216 = LINE('',#217,#218);
#217 = CARTESIAN_POINT('',(21.003217116072,-133.3499999999,
    107.86745305066));
#218 = VECTOR('',#219,1.);
#219 = DIRECTION('',(1.,0.,0.));
#220 = FACE_BOUND('',#221,.T.);
#221 = EDGE_LOOP('',(#222));
#222 = ORIENTED_EDGE('',*,*,#223,.T.);
#223 = EDGE_CURVE('',#224,#224,#226,.T.);
#224 = VERTEX_POINT('',#225);
#225 = CARTESIAN_POINT('',(29.19093,-130.6,107.86745305066));
#226 = CIRCLE('',#227,2.);
#227 = AXIS2_PLACEMENT_3D('',#228,#229,#230);
#228 = CARTESIAN_POINT('',(31.19093,-130.6,107.86745305066));
#229 = DIRECTION('',(-0.,-2.2E-16,-1.));
#230 = DIRECTION('',(-1.,0.,0.));
#231 = PLANE('',#232);
#232 = AXIS2_PLACEMENT_3D('',#233,#234,#235);
#233 = CARTESIAN_POINT('',(16.756748794604,-131.8365475845,
    107.86745305066));
#234 = DIRECTION('',(-0.,-0.,1.));
#235 = DIRECTION('',(0.,-1.,0.));
#236 = ADVANCED_FACE('',(#237,#310),#321,.T.);
#237 = FACE_BOUND('',#238,.T.);
#238 = EDGE_LOOP('',(#239,#240,#248,#256,#264,#272,#280,#288,#296,#304)
  );
#239 = ORIENTED_EDGE('',*,*,#21,.T.);
#240 = ORIENTED_EDGE('',*,*,#241,.F.);
#241 = EDGE_CURVE('',#242,#24,#244,.T.);
#242 = VERTEX_POINT('',#243);
#243 = CARTESIAN_POINT('',(31.19093,-125.6,103.36745305066));
#244 = LINE('',#245,#246);
#245 = CARTESIAN_POINT('',(31.19093,-125.6,103.36745305066));
#246 = VECTOR('',#247,1.);
#247 = DIRECTION('',(0.,0.,1.));
#248 = ORIENTED_EDGE('',*,*,#249,.F.);
#249 = EDGE_CURVE('',#250,#242,#252,.T.);
#250 = VERTEX_POINT('',#251);
#251 = CARTESIAN_POINT('',(27.19093,-125.6,103.36745305066));
#252 = LINE('',#253,#254);
#253 = CARTESIAN_POINT('',(27.19093,-125.6,103.36745305066));
#254 = VECTOR('',#255,1.);
#255 = DIRECTION('',(1.,0.,0.));
#256 = ORIENTED_EDGE('',*,*,#257,.F.);
#257 = EDGE_CURVE('',#258,#250,#260,.T.);
#258 = VERTEX_POINT('',#259);
#259 = CARTESIAN_POINT('',(27.19093,-125.6,98.867453050666));
#260 = LINE('',#261,#262);
#261 = CARTESIAN_POINT('',(27.19093,-125.6,98.867453050666));
#262 = VECTOR('',#263,1.);
#263 = DIRECTION('',(0.,0.,1.));
#264 = ORIENTED_EDGE('',*,*,#265,.F.);
#265 = EDGE_CURVE('',#266,#258,#268,.T.);
#266 = VERTEX_POINT('',#267);
#267 = CARTESIAN_POINT('',(18.99093,-125.6,98.867453050666));
#268 = LINE('',#269,#270);
#269 = CARTESIAN_POINT('',(18.99093,-125.6,98.867453050666));
#270 = VECTOR('',#271,1.);
#271 = DIRECTION('',(1.,0.,0.));
#272 = ORIENTED_EDGE('',*,*,#273,.T.);
#273 = EDGE_CURVE('',#266,#274,#276,.T.);
#274 = VERTEX_POINT('',#275);
#275 = CARTESIAN_POINT('',(18.99093,-125.6,95.867453050666));
#276 = LINE('',#277,#278);
#277 = CARTESIAN_POINT('',(18.99093,-125.6,98.867453050666));
#278 = VECTOR('',#279,1.);
#279 = DIRECTION('',(0.,0.,-1.));
#280 = ORIENTED_EDGE('',*,*,#281,.T.);
#281 = EDGE_CURVE('',#274,#282,#284,.T.);
#282 = VERTEX_POINT('',#283);
#283 = CARTESIAN_POINT('',(7.19093,-125.6,95.867453050666));
#284 = LINE('',#285,#286);
#285 = CARTESIAN_POINT('',(18.99093,-125.6,95.867453050666));
#286 = VECTOR('',#287,1.);
#287 = DIRECTION('',(-1.,0.,0.));
#288 = ORIENTED_EDGE('',*,*,#289,.T.);
#289 = EDGE_CURVE('',#282,#290,#292,.T.);
#290 = VERTEX_POINT('',#291);
#291 = CARTESIAN_POINT('',(7.19093,-125.6,98.867453050666));
#292 = LINE('',#293,#294);
#293 = CARTESIAN_POINT('',(7.19093,-125.6,95.867453050666));
#294 = VECTOR('',#295,1.);
#295 = DIRECTION('',(0.,0.,1.));
#296 = ORIENTED_EDGE('',*,*,#297,.T.);
#297 = EDGE_CURVE('',#290,#298,#300,.T.);
#298 = VERTEX_POINT('',#299);
#299 = CARTESIAN_POINT('',(-1.00907,-125.6,98.867453050666));
#300 = LINE('',#301,#302);
#301 = CARTESIAN_POINT('',(7.19093,-125.6,98.867453050666));
#302 = VECTOR('',#303,1.);
#303 = DIRECTION('',(-1.,0.,0.));
#304 = ORIENTED_EDGE('',*,*,#305,.T.);
#305 = EDGE_CURVE('',#298,#22,#306,.T.);
#306 = LINE('',#307,#308);
#307 = CARTESIAN_POINT('',(-1.00907,-125.6,98.867453050666));
#308 = VECTOR('',#309,1.);
#309 = DIRECTION('',(0.,0.,1.));
#310 = FACE_BOUND('',#311,.T.);
#311 = EDGE_LOOP('',(#312));
#312 = ORIENTED_EDGE('',*,*,#313,.T.);
#313 = EDGE_CURVE('',#314,#314,#316,.T.);
#314 = VERTEX_POINT('',#315);
#315 = CARTESIAN_POINT('',(15.41593,-125.6,102.86745305066));
#316 = CIRCLE('',#317,2.325);
#317 = AXIS2_PLACEMENT_3D('',#318,#319,#320);
#318 = CARTESIAN_POINT('',(13.09093,-125.6,102.86745305066));
#319 = DIRECTION('',(0.,-1.,0.));
#320 = DIRECTION('',(1.,0.,0.));
#321 = PLANE('',#322);
#322 = AXIS2_PLACEMENT_3D('',#323,#324,#325);
#323 = CARTESIAN_POINT('',(16.468523360996,-125.6,103.00023313365));
#324 = DIRECTION('',(0.,1.,0.));
#325 = DIRECTION('',(1.,0.,0.));
#326 = ADVANCED_FACE('',(#327),#346,.T.);
#327 = FACE_BOUND('',#328,.F.);
#328 = EDGE_LOOP('',(#329,#338,#344,#345));
#329 = ORIENTED_EDGE('',*,*,#330,.T.);
#330 = EDGE_CURVE('',#242,#331,#333,.T.);
#331 = VERTEX_POINT('',#332);
#332 = CARTESIAN_POINT('',(35.19093,-129.6,103.36745305066));
#333 = CIRCLE('',#334,4.);
#334 = AXIS2_PLACEMENT_3D('',#335,#336,#337);
#335 = CARTESIAN_POINT('',(31.19093,-129.6,103.36745305066));
#336 = DIRECTION('',(0.,0.,-1.));
#337 = DIRECTION('',(0.,-1.,-0.));
#338 = ORIENTED_EDGE('',*,*,#339,.T.);
#339 = EDGE_CURVE('',#331,#107,#340,.T.);
#340 = LINE('',#341,#342);
#341 = CARTESIAN_POINT('',(35.19093,-129.6,103.36745305066));
#342 = VECTOR('',#343,1.);
#343 = DIRECTION('',(0.,0.,1.));
#344 = ORIENTED_EDGE('',*,*,#114,.F.);
#345 = ORIENTED_EDGE('',*,*,#241,.F.);
#346 = CYLINDRICAL_SURFACE('',#347,4.);
#347 = AXIS2_PLACEMENT_3D('',#348,#349,#350);
#348 = CARTESIAN_POINT('',(31.19093,-129.6,103.36745305066));
#349 = DIRECTION('',(0.,0.,1.));
#350 = DIRECTION('',(0.,1.,0.));
#351 = ADVANCED_FACE('',(#352),#370,.F.);
#352 = FACE_BOUND('',#353,.F.);
#353 = EDGE_LOOP('',(#354,#362,#363,#364));
#354 = ORIENTED_EDGE('',*,*,#355,.T.);
#355 = EDGE_CURVE('',#356,#298,#358,.T.);
#356 = VERTEX_POINT('',#357);
#357 = CARTESIAN_POINT('',(-1.00907,-135.6,98.867453050666));
#358 = LINE('',#359,#360);
#359 = CARTESIAN_POINT('',(-1.00907,-135.6,98.867453050666));
#360 = VECTOR('',#361,1.);
#361 = DIRECTION('',(0.,1.,0.));
#362 = ORIENTED_EDGE('',*,*,#305,.T.);
#363 = ORIENTED_EDGE('',*,*,#31,.F.);
#364 = ORIENTED_EDGE('',*,*,#365,.F.);
#365 = EDGE_CURVE('',#356,#32,#366,.T.);
#366 = LINE('',#367,#368);
#367 = CARTESIAN_POINT('',(-1.00907,-135.6,98.867453050666));
#368 = VECTOR('',#369,1.);
#369 = DIRECTION('',(0.,0.,1.));
#370 = PLANE('',#371);
#371 = AXIS2_PLACEMENT_3D('',#372,#373,#374);
#372 = CARTESIAN_POINT('',(-1.00907,-135.6,98.867453050666));
#373 = DIRECTION('',(1.,0.,0.));
#374 = DIRECTION('',(0.,0.,1.));
#375 = ADVANCED_FACE('',(#376),#394,.T.);
#376 = FACE_BOUND('',#377,.T.);
#377 = EDGE_LOOP('',(#378,#379,#387,#393));
#378 = ORIENTED_EDGE('',*,*,#106,.T.);
#379 = ORIENTED_EDGE('',*,*,#380,.T.);
#380 = EDGE_CURVE('',#98,#381,#383,.T.);
#381 = VERTEX_POINT('',#382);
#382 = CARTESIAN_POINT('',(35.19093,-131.6,103.36745305066));
#383 = LINE('',#384,#385);
#384 = CARTESIAN_POINT('',(35.19093,-131.6,107.86745305066));
#385 = VECTOR('',#386,1.);
#386 = DIRECTION('',(0.,0.,-1.));
#387 = ORIENTED_EDGE('',*,*,#388,.T.);
#388 = EDGE_CURVE('',#381,#331,#389,.T.);
#389 = LINE('',#390,#391);
#390 = CARTESIAN_POINT('',(35.19093,-135.6,103.36745305066));
#391 = VECTOR('',#392,1.);
#392 = DIRECTION('',(0.,1.,0.));
#393 = ORIENTED_EDGE('',*,*,#339,.T.);
#394 = PLANE('',#395);
#395 = AXIS2_PLACEMENT_3D('',#396,#397,#398);
#396 = CARTESIAN_POINT('',(35.19093,-130.6,105.61745305066));
#397 = DIRECTION('',(1.,0.,0.));
#398 = DIRECTION('',(0.,1.,0.));
#399 = ADVANCED_FACE('',(#400),#418,.F.);
#400 = FACE_BOUND('',#401,.F.);
#401 = EDGE_LOOP('',(#402,#403,#411,#417));
#402 = ORIENTED_EDGE('',*,*,#39,.T.);
#403 = ORIENTED_EDGE('',*,*,#404,.F.);
#404 = EDGE_CURVE('',#405,#40,#407,.T.);
#405 = VERTEX_POINT('',#406);
#406 = CARTESIAN_POINT('',(7.19093,-135.6,98.867453050666));
#407 = LINE('',#408,#409);
#408 = CARTESIAN_POINT('',(7.19093,-135.6,95.867453050666));
#409 = VECTOR('',#410,1.);
#410 = DIRECTION('',(0.,0.,1.));
#411 = ORIENTED_EDGE('',*,*,#412,.T.);
#412 = EDGE_CURVE('',#405,#356,#413,.T.);
#413 = LINE('',#414,#415);
#414 = CARTESIAN_POINT('',(7.19093,-135.6,98.867453050666));
#415 = VECTOR('',#416,1.);
#416 = DIRECTION('',(-1.,0.,0.));
#417 = ORIENTED_EDGE('',*,*,#365,.T.);
#418 = PLANE('',#419);
#419 = AXIS2_PLACEMENT_3D('',#420,#421,#422);
#420 = CARTESIAN_POINT('',(13.09093,-135.6,102.47939334917));
#421 = DIRECTION('',(0.,1.,0.));
#422 = DIRECTION('',(1.,0.,0.));
#423 = ADVANCED_FACE('',(#424),#443,.T.);
#424 = FACE_BOUND('',#425,.T.);
#425 = EDGE_LOOP('',(#426,#427,#435,#442));
#426 = ORIENTED_EDGE('',*,*,#97,.T.);
#427 = ORIENTED_EDGE('',*,*,#428,.T.);
#428 = EDGE_CURVE('',#90,#429,#431,.T.);
#429 = VERTEX_POINT('',#430);
#430 = CARTESIAN_POINT('',(31.19093,-135.6,103.36745305066));
#431 = LINE('',#432,#433);
#432 = CARTESIAN_POINT('',(31.19093,-135.6,107.86745305066));
#433 = VECTOR('',#434,1.);
#434 = DIRECTION('',(0.,0.,-1.));
#435 = ORIENTED_EDGE('',*,*,#436,.F.);
#436 = EDGE_CURVE('',#381,#429,#437,.T.);
#437 = CIRCLE('',#438,4.);
#438 = AXIS2_PLACEMENT_3D('',#439,#440,#441);
#439 = CARTESIAN_POINT('',(31.19093,-131.6,103.36745305066));
#440 = DIRECTION('',(-0.,0.,-1.));
#441 = DIRECTION('',(0.,1.,0.));
#442 = ORIENTED_EDGE('',*,*,#380,.F.);
#443 = CYLINDRICAL_SURFACE('',#444,4.);
#444 = AXIS2_PLACEMENT_3D('',#445,#446,#447);
#445 = CARTESIAN_POINT('',(31.19093,-131.6,107.86745305066));
#446 = DIRECTION('',(0.,0.,-1.));
#447 = DIRECTION('',(1.,0.,0.));
#448 = ADVANCED_FACE('',(#449),#496,.T.);
#449 = FACE_BOUND('',#450,.T.);
#450 = EDGE_LOOP('',(#451,#459,#467,#481,#487,#488,#489,#495));
#451 = ORIENTED_EDGE('',*,*,#452,.T.);
#452 = EDGE_CURVE('',#282,#453,#455,.T.);
#453 = VERTEX_POINT('',#454);
#454 = CARTESIAN_POINT('',(7.19093,-137.6,95.867453050666));
#455 = LINE('',#456,#457);
#456 = CARTESIAN_POINT('',(7.19093,-135.6,95.867453050666));
#457 = VECTOR('',#458,1.);
#458 = DIRECTION('',(0.,-1.,0.));
#459 = ORIENTED_EDGE('',*,*,#460,.T.);
#460 = EDGE_CURVE('',#453,#461,#463,.T.);
#461 = VERTEX_POINT('',#462);
#462 = CARTESIAN_POINT('',(7.19093,-137.6,101.52744372234));
#463 = LINE('',#464,#465);
#464 = CARTESIAN_POINT('',(7.19093,-137.6,95.867453050666));
#465 = VECTOR('',#466,1.);
#466 = DIRECTION('',(0.,0.,1.));
#467 = ORIENTED_EDGE('',*,*,#468,.T.);
#468 = EDGE_CURVE('',#461,#469,#471,.T.);
#469 = VERTEX_POINT('',#470);
#470 = CARTESIAN_POINT('',(7.19093,-137.6,104.20746237899));
#471 = ( BOUNDED_CURVE() B_SPLINE_CURVE(8,(#472,#473,#474,#475,#476,#477
,#478,#479,#480),.UNSPECIFIED.,.F.,.F.) B_SPLINE_CURVE_WITH_KNOTS((9,9),
(5.659990671674,8.340009328326),.PIECEWISE_BEZIER_KNOTS.) CURVE() 
GEOMETRIC_REPRESENTATION_ITEM() RATIONAL_B_SPLINE_CURVE((1.,1.,1.,1.,1.,
1.,1.,1.,1.)) REPRESENTATION_ITEM('') );
#472 = CARTESIAN_POINT('',(7.19093,-137.6,101.52744372234));
#473 = CARTESIAN_POINT('',(7.19093,-137.6,101.86244605442));
#474 = CARTESIAN_POINT('',(7.19093,-137.6158732163,102.1974483865));
#475 = CARTESIAN_POINT('',(7.19093,-137.6245584563,102.53245071858));
#476 = CARTESIAN_POINT('',(7.19093,-137.630817153,102.86745305066));
#477 = CARTESIAN_POINT('',(7.19093,-137.6245584563,103.20245538274));
#478 = CARTESIAN_POINT('',(7.19093,-137.6158732163,103.53745771482));
#479 = CARTESIAN_POINT('',(7.19093,-137.6,103.87246004691));
#480 = CARTESIAN_POINT('',(7.19093,-137.6,104.20746237899));
#481 = ORIENTED_EDGE('',*,*,#482,.T.);
#482 = EDGE_CURVE('',#469,#48,#483,.T.);
#483 = LINE('',#484,#485);
#484 = CARTESIAN_POINT('',(7.19093,-137.6,95.867453050666));
#485 = VECTOR('',#486,1.);
#486 = DIRECTION('',(0.,0.,1.));
#487 = ORIENTED_EDGE('',*,*,#47,.F.);
#488 = ORIENTED_EDGE('',*,*,#404,.F.);
#489 = ORIENTED_EDGE('',*,*,#490,.T.);
#490 = EDGE_CURVE('',#405,#290,#491,.T.);
#491 = LINE('',#492,#493);
#492 = CARTESIAN_POINT('',(7.19093,-135.6,98.867453050666));
#493 = VECTOR('',#494,1.);
#494 = DIRECTION('',(0.,1.,0.));
#495 = ORIENTED_EDGE('',*,*,#289,.F.);
#496 = PLANE('',#497);
#497 = AXIS2_PLACEMENT_3D('',#498,#499,#500);
#498 = CARTESIAN_POINT('',(7.19093,-135.2071428571,100.26031019352));
#499 = DIRECTION('',(-1.,-0.,0.));
#500 = DIRECTION('',(0.,-1.,0.));
#501 = ADVANCED_FACE('',(#502),#536,.T.);
#502 = FACE_BOUND('',#503,.T.);
#503 = EDGE_LOOP('',(#504,#512,#513,#514,#522,#530));
#504 = ORIENTED_EDGE('',*,*,#505,.T.);
#505 = EDGE_CURVE('',#506,#429,#508,.T.);
#506 = VERTEX_POINT('',#507);
#507 = CARTESIAN_POINT('',(27.19093,-135.6,103.36745305066));
#508 = LINE('',#509,#510);
#509 = CARTESIAN_POINT('',(27.19093,-135.6,103.36745305066));
#510 = VECTOR('',#511,1.);
#511 = DIRECTION('',(1.,0.,0.));
#512 = ORIENTED_EDGE('',*,*,#428,.F.);
#513 = ORIENTED_EDGE('',*,*,#89,.F.);
#514 = ORIENTED_EDGE('',*,*,#515,.T.);
#515 = EDGE_CURVE('',#82,#516,#518,.T.);
#516 = VERTEX_POINT('',#517);
#517 = CARTESIAN_POINT('',(18.99093,-135.6,98.867453050666));
#518 = LINE('',#519,#520);
#519 = CARTESIAN_POINT('',(18.99093,-135.6,107.86745305066));
#520 = VECTOR('',#521,1.);
#521 = DIRECTION('',(0.,0.,-1.));
#522 = ORIENTED_EDGE('',*,*,#523,.T.);
#523 = EDGE_CURVE('',#516,#524,#526,.T.);
#524 = VERTEX_POINT('',#525);
#525 = CARTESIAN_POINT('',(27.19093,-135.6,98.867453050666));
#526 = LINE('',#527,#528);
#527 = CARTESIAN_POINT('',(18.99093,-135.6,98.867453050666));
#528 = VECTOR('',#529,1.);
#529 = DIRECTION('',(1.,0.,0.));
#530 = ORIENTED_EDGE('',*,*,#531,.T.);
#531 = EDGE_CURVE('',#524,#506,#532,.T.);
#532 = LINE('',#533,#534);
#533 = CARTESIAN_POINT('',(27.19093,-135.6,98.867453050666));
#534 = VECTOR('',#535,1.);
#535 = DIRECTION('',(0.,0.,1.));
#536 = PLANE('',#537);
#537 = AXIS2_PLACEMENT_3D('',#538,#539,#540);
#538 = CARTESIAN_POINT('',(26.376644285714,-135.6,104.08173876495));
#539 = DIRECTION('',(-0.,-1.,0.));
#540 = DIRECTION('',(-1.,0.,0.));
#541 = ADVANCED_FACE('',(#542),#560,.T.);
#542 = FACE_BOUND('',#543,.T.);
#543 = EDGE_LOOP('',(#544,#552,#558,#559));
#544 = ORIENTED_EDGE('',*,*,#545,.T.);
#545 = EDGE_CURVE('',#469,#546,#548,.T.);
#546 = VERTEX_POINT('',#547);
#547 = CARTESIAN_POINT('',(11.19093,-141.6,104.20746237899));
#548 = ( BOUNDED_CURVE() B_SPLINE_CURVE(2,(#549,#550,#551),
.UNSPECIFIED.,.F.,.F.) B_SPLINE_CURVE_WITH_KNOTS((3,3),(0.,
2.680018656651),.PIECEWISE_BEZIER_KNOTS.) CURVE() 
GEOMETRIC_REPRESENTATION_ITEM() RATIONAL_B_SPLINE_CURVE((1.,
0.707106781187,1.)) REPRESENTATION_ITEM('') );
#549 = CARTESIAN_POINT('',(7.19093,-137.6,104.20746237899));
#550 = CARTESIAN_POINT('',(7.19093,-141.6,104.20746237899));
#551 = CARTESIAN_POINT('',(11.19093,-141.6,104.20746237899));
#552 = ORIENTED_EDGE('',*,*,#553,.T.);
#553 = EDGE_CURVE('',#546,#56,#554,.T.);
#554 = LINE('',#555,#556);
#555 = CARTESIAN_POINT('',(11.19093,-141.6,95.867453050666));
#556 = VECTOR('',#557,1.);
#557 = DIRECTION('',(0.,0.,1.));
#558 = ORIENTED_EDGE('',*,*,#55,.F.);
#559 = ORIENTED_EDGE('',*,*,#482,.F.);
#560 = CYLINDRICAL_SURFACE('',#561,4.);
#561 = AXIS2_PLACEMENT_3D('',#562,#563,#564);
#562 = CARTESIAN_POINT('',(11.19093,-137.6,95.867453050666));
#563 = DIRECTION('',(0.,0.,1.));
#564 = DIRECTION('',(-1.,0.,0.));
#565 = ADVANCED_FACE('',(#566),#623,.T.);
#566 = FACE_BOUND('',#567,.T.);
#567 = EDGE_LOOP('',(#568,#569,#577,#589,#601,#609,#615,#616,#622));
#568 = ORIENTED_EDGE('',*,*,#81,.T.);
#569 = ORIENTED_EDGE('',*,*,#570,.T.);
#570 = EDGE_CURVE('',#73,#571,#573,.T.);
#571 = VERTEX_POINT('',#572);
#572 = CARTESIAN_POINT('',(18.99093,-137.6,104.20746237899));
#573 = LINE('',#574,#575);
#574 = CARTESIAN_POINT('',(18.99093,-137.6,107.86745305066));
#575 = VECTOR('',#576,1.);
#576 = DIRECTION('',(0.,0.,-1.));
#577 = ORIENTED_EDGE('',*,*,#578,.T.);
#578 = EDGE_CURVE('',#571,#579,#581,.T.);
#579 = VERTEX_POINT('',#580);
#580 = CARTESIAN_POINT('',(18.99093,-137.6226422087,102.86745305066));
#581 = ( BOUNDED_CURVE() B_SPLINE_CURVE(6,(#582,#583,#584,#585,#586,#587
,#588),.UNSPECIFIED.,.F.,.F.) B_SPLINE_CURVE_WITH_KNOTS((7,7),(
3.659990671674,5.),.PIECEWISE_BEZIER_KNOTS.) CURVE() 
GEOMETRIC_REPRESENTATION_ITEM() RATIONAL_B_SPLINE_CURVE((1.,1.,1.,1.,1.,
1.,1.)) REPRESENTATION_ITEM('') );
#582 = CARTESIAN_POINT('',(18.99093,-137.6,104.20746237899));
#583 = CARTESIAN_POINT('',(18.99093,-137.6,103.98412749093));
#584 = CARTESIAN_POINT('',(18.99093,-137.6073806175,103.76079260288));
#585 = CARTESIAN_POINT('',(18.99093,-137.6142719198,103.53745771482));
#586 = CARTESIAN_POINT('',(18.99093,-137.6199263233,103.31412282677));
#587 = CARTESIAN_POINT('',(18.99093,-137.6226422087,103.09078793872));
#588 = CARTESIAN_POINT('',(18.99093,-137.6226422087,102.86745305066));
#589 = ORIENTED_EDGE('',*,*,#590,.T.);
#590 = EDGE_CURVE('',#579,#591,#593,.T.);
#591 = VERTEX_POINT('',#592);
#592 = CARTESIAN_POINT('',(18.99093,-137.6,101.52744372234));
#593 = ( BOUNDED_CURVE() B_SPLINE_CURVE(6,(#594,#595,#596,#597,#598,#599
,#600),.UNSPECIFIED.,.F.,.F.) B_SPLINE_CURVE_WITH_KNOTS((7,7),(5.,
6.340009328326),.PIECEWISE_BEZIER_KNOTS.) CURVE() 
GEOMETRIC_REPRESENTATION_ITEM() RATIONAL_B_SPLINE_CURVE((1.,1.,1.,1.,1.,
1.,1.)) REPRESENTATION_ITEM('') );
#594 = CARTESIAN_POINT('',(18.99093,-137.6226422087,102.86745305066));
#595 = CARTESIAN_POINT('',(18.99093,-137.6226422087,102.64411816261));
#596 = CARTESIAN_POINT('',(18.99093,-137.6199263233,102.42078327455));
#597 = CARTESIAN_POINT('',(18.99093,-137.6142719198,102.1974483865));
#598 = CARTESIAN_POINT('',(18.99093,-137.6073806175,101.97411349844));
#599 = CARTESIAN_POINT('',(18.99093,-137.6,101.75077861039));
#600 = CARTESIAN_POINT('',(18.99093,-137.6,101.52744372234));
#601 = ORIENTED_EDGE('',*,*,#602,.T.);
#602 = EDGE_CURVE('',#591,#603,#605,.T.);
#603 = VERTEX_POINT('',#604);
#604 = CARTESIAN_POINT('',(18.99093,-137.6,95.867453050666));
#605 = LINE('',#606,#607);
#606 = CARTESIAN_POINT('',(18.99093,-137.6,107.86745305066));
#607 = VECTOR('',#608,1.);
#608 = DIRECTION('',(0.,0.,-1.));
#609 = ORIENTED_EDGE('',*,*,#610,.F.);
#610 = EDGE_CURVE('',#274,#603,#611,.T.);
#611 = LINE('',#612,#613);
#612 = CARTESIAN_POINT('',(18.99093,-135.6,95.867453050666));
#613 = VECTOR('',#614,1.);
#614 = DIRECTION('',(0.,-1.,0.));
#615 = ORIENTED_EDGE('',*,*,#273,.F.);
#616 = ORIENTED_EDGE('',*,*,#617,.F.);
#617 = EDGE_CURVE('',#516,#266,#618,.T.);
#618 = LINE('',#619,#620);
#619 = CARTESIAN_POINT('',(18.99093,-135.6,98.867453050666));
#620 = VECTOR('',#621,1.);
#621 = DIRECTION('',(0.,1.,0.));
#622 = ORIENTED_EDGE('',*,*,#515,.F.);
#623 = PLANE('',#624);
#624 = AXIS2_PLACEMENT_3D('',#625,#626,#627);
#625 = CARTESIAN_POINT('',(18.99093,-135.2071428571,100.26031019352));
#626 = DIRECTION('',(1.,0.,0.));
#627 = DIRECTION('',(0.,1.,0.));
#628 = ADVANCED_FACE('',(#629),#648,.F.);
#629 = FACE_BOUND('',#630,.F.);
#630 = EDGE_LOOP('',(#631,#632,#640,#647));
#631 = ORIENTED_EDGE('',*,*,#64,.T.);
#632 = ORIENTED_EDGE('',*,*,#633,.T.);
#633 = EDGE_CURVE('',#65,#634,#636,.T.);
#634 = VERTEX_POINT('',#635);
#635 = CARTESIAN_POINT('',(14.99093,-141.6,104.20746237899));
#636 = LINE('',#637,#638);
#637 = CARTESIAN_POINT('',(14.99093,-141.6,107.86745305066));
#638 = VECTOR('',#639,1.);
#639 = DIRECTION('',(0.,0.,-1.));
#640 = ORIENTED_EDGE('',*,*,#641,.T.);
#641 = EDGE_CURVE('',#634,#546,#642,.T.);
#642 = CIRCLE('',#643,2.325);
#643 = AXIS2_PLACEMENT_3D('',#644,#645,#646);
#644 = CARTESIAN_POINT('',(13.09093,-141.6,102.86745305066));
#645 = DIRECTION('',(0.,-1.,0.));
#646 = DIRECTION('',(1.,0.,0.));
#647 = ORIENTED_EDGE('',*,*,#553,.T.);
#648 = PLANE('',#649);
#649 = AXIS2_PLACEMENT_3D('',#650,#651,#652);
#650 = CARTESIAN_POINT('',(13.09093,-141.6,101.86745305066));
#651 = DIRECTION('',(0.,1.,0.));
#652 = DIRECTION('',(1.,0.,0.));
#653 = ADVANCED_FACE('',(#654),#666,.T.);
#654 = FACE_BOUND('',#655,.F.);
#655 = EDGE_LOOP('',(#656,#657,#658,#665));
#656 = ORIENTED_EDGE('',*,*,#72,.T.);
#657 = ORIENTED_EDGE('',*,*,#570,.T.);
#658 = ORIENTED_EDGE('',*,*,#659,.F.);
#659 = EDGE_CURVE('',#634,#571,#660,.T.);
#660 = CIRCLE('',#661,4.);
#661 = AXIS2_PLACEMENT_3D('',#662,#663,#664);
#662 = CARTESIAN_POINT('',(14.99093,-137.6,104.20746237899));
#663 = DIRECTION('',(-0.,0.,1.));
#664 = DIRECTION('',(0.,-1.,0.));
#665 = ORIENTED_EDGE('',*,*,#633,.F.);
#666 = CYLINDRICAL_SURFACE('',#667,4.);
#667 = AXIS2_PLACEMENT_3D('',#668,#669,#670);
#668 = CARTESIAN_POINT('',(14.99093,-137.6,107.86745305066));
#669 = DIRECTION('',(0.,0.,-1.));
#670 = DIRECTION('',(0.,-1.,0.));
#671 = ADVANCED_FACE('',(#672),#697,.F.);
#672 = FACE_BOUND('',#673,.F.);
#673 = EDGE_LOOP('',(#674,#682,#690,#696));
#674 = ORIENTED_EDGE('',*,*,#675,.T.);
#675 = EDGE_CURVE('',#124,#676,#678,.T.);
#676 = VERTEX_POINT('',#677);
#677 = CARTESIAN_POINT('',(2.003217116073,-133.35,101.86745305066));
#678 = LINE('',#679,#680);
#679 = CARTESIAN_POINT('',(2.003217116073,-133.35,107.86745305066));
#680 = VECTOR('',#681,1.);
#681 = DIRECTION('',(0.,-2.2E-16,-1.));
#682 = ORIENTED_EDGE('',*,*,#683,.T.);
#683 = EDGE_CURVE('',#676,#684,#686,.T.);
#684 = VERTEX_POINT('',#685);
#685 = CARTESIAN_POINT('',(5.178643596616,-133.35,101.86745305066));
#686 = LINE('',#687,#688);
#687 = CARTESIAN_POINT('',(2.003217116073,-133.35,101.86745305066));
#688 = VECTOR('',#689,1.);
#689 = DIRECTION('',(1.,0.,0.));
#690 = ORIENTED_EDGE('',*,*,#691,.F.);
#691 = EDGE_CURVE('',#126,#684,#692,.T.);
#692 = LINE('',#693,#694);
#693 = CARTESIAN_POINT('',(5.178643596616,-133.35,107.86745305066));
#694 = VECTOR('',#695,1.);
#695 = DIRECTION('',(0.,-2.2E-16,-1.));
#696 = ORIENTED_EDGE('',*,*,#123,.F.);
#697 = PLANE('',#698);
#698 = AXIS2_PLACEMENT_3D('',#699,#700,#701);
#699 = CARTESIAN_POINT('',(2.003217116073,-133.35,107.86745305066));
#700 = DIRECTION('',(0.,-1.,2.2E-16));
#701 = DIRECTION('',(1.,0.,0.));
#702 = ADVANCED_FACE('',(#703),#721,.F.);
#703 = FACE_BOUND('',#704,.F.);
#704 = EDGE_LOOP('',(#705,#713,#719,#720));
#705 = ORIENTED_EDGE('',*,*,#706,.T.);
#706 = EDGE_CURVE('',#134,#707,#709,.T.);
#707 = VERTEX_POINT('',#708);
#708 = CARTESIAN_POINT('',(0.415503875801,-130.6,101.86745305066));
#709 = LINE('',#710,#711);
#710 = CARTESIAN_POINT('',(0.415503875801,-130.6,107.86745305066));
#711 = VECTOR('',#712,1.);
#712 = DIRECTION('',(0.,-2.2E-16,-1.));
#713 = ORIENTED_EDGE('',*,*,#714,.T.);
#714 = EDGE_CURVE('',#707,#676,#715,.T.);
#715 = LINE('',#716,#717);
#716 = CARTESIAN_POINT('',(0.415503875801,-130.6,101.86745305066));
#717 = VECTOR('',#718,1.);
#718 = DIRECTION('',(0.5,-0.866025403784,0.));
#719 = ORIENTED_EDGE('',*,*,#675,.F.);
#720 = ORIENTED_EDGE('',*,*,#133,.F.);
#721 = PLANE('',#722);
#722 = AXIS2_PLACEMENT_3D('',#723,#724,#725);
#723 = CARTESIAN_POINT('',(0.415503875801,-130.6,107.86745305066));
#724 = DIRECTION('',(-0.866025403784,-0.5,1.1E-16));
#725 = DIRECTION('',(0.5,-0.866025403784,1.9E-16));
#726 = ADVANCED_FACE('',(#727),#745,.F.);
#727 = FACE_BOUND('',#728,.F.);
#728 = EDGE_LOOP('',(#729,#730,#738,#744));
#729 = ORIENTED_EDGE('',*,*,#691,.T.);
#730 = ORIENTED_EDGE('',*,*,#731,.T.);
#731 = EDGE_CURVE('',#684,#732,#734,.T.);
#732 = VERTEX_POINT('',#733);
#733 = CARTESIAN_POINT('',(6.766356836887,-130.6,101.86745305066));
#734 = LINE('',#735,#736);
#735 = CARTESIAN_POINT('',(5.178643596616,-133.35,101.86745305066));
#736 = VECTOR('',#737,1.);
#737 = DIRECTION('',(0.5,0.866025403784,0.));
#738 = ORIENTED_EDGE('',*,*,#739,.F.);
#739 = EDGE_CURVE('',#158,#732,#740,.T.);
#740 = LINE('',#741,#742);
#741 = CARTESIAN_POINT('',(6.766356836887,-130.6,107.86745305066));
#742 = VECTOR('',#743,1.);
#743 = DIRECTION('',(0.,-2.2E-16,-1.));
#744 = ORIENTED_EDGE('',*,*,#165,.F.);
#745 = PLANE('',#746);
#746 = AXIS2_PLACEMENT_3D('',#747,#748,#749);
#747 = CARTESIAN_POINT('',(5.178643596616,-133.35,107.86745305066));
#748 = DIRECTION('',(0.866025403784,-0.5,1.1E-16));
#749 = DIRECTION('',(0.5,0.866025403784,-1.9E-16));
#750 = ADVANCED_FACE('',(#751),#769,.F.);
#751 = FACE_BOUND('',#752,.F.);
#752 = EDGE_LOOP('',(#753,#761,#767,#768));
#753 = ORIENTED_EDGE('',*,*,#754,.T.);
#754 = EDGE_CURVE('',#142,#755,#757,.T.);
#755 = VERTEX_POINT('',#756);
#756 = CARTESIAN_POINT('',(2.003217116073,-127.85,101.86745305066));
#757 = LINE('',#758,#759);
#758 = CARTESIAN_POINT('',(2.003217116073,-127.85,107.86745305066));
#759 = VECTOR('',#760,1.);
#760 = DIRECTION('',(0.,-2.2E-16,-1.));
#761 = ORIENTED_EDGE('',*,*,#762,.T.);
#762 = EDGE_CURVE('',#755,#707,#763,.T.);
#763 = LINE('',#764,#765);
#764 = CARTESIAN_POINT('',(2.003217116073,-127.85,101.86745305066));
#765 = VECTOR('',#766,1.);
#766 = DIRECTION('',(-0.5,-0.866025403784,0.));
#767 = ORIENTED_EDGE('',*,*,#706,.F.);
#768 = ORIENTED_EDGE('',*,*,#141,.F.);
#769 = PLANE('',#770);
#770 = AXIS2_PLACEMENT_3D('',#771,#772,#773);
#771 = CARTESIAN_POINT('',(2.003217116073,-127.85,107.86745305066));
#772 = DIRECTION('',(-0.866025403784,0.5,-1.1E-16));
#773 = DIRECTION('',(-0.5,-0.866025403784,1.9E-16));
#774 = ADVANCED_FACE('',(#775),#793,.F.);
#775 = FACE_BOUND('',#776,.F.);
#776 = EDGE_LOOP('',(#777,#778,#786,#792));
#777 = ORIENTED_EDGE('',*,*,#739,.T.);
#778 = ORIENTED_EDGE('',*,*,#779,.T.);
#779 = EDGE_CURVE('',#732,#780,#782,.T.);
#780 = VERTEX_POINT('',#781);
#781 = CARTESIAN_POINT('',(5.178643596616,-127.85,101.86745305066));
#782 = LINE('',#783,#784);
#783 = CARTESIAN_POINT('',(6.766356836887,-130.6,101.86745305066));
#784 = VECTOR('',#785,1.);
#785 = DIRECTION('',(-0.5,0.866025403784,0.));
#786 = ORIENTED_EDGE('',*,*,#787,.F.);
#787 = EDGE_CURVE('',#150,#780,#788,.T.);
#788 = LINE('',#789,#790);
#789 = CARTESIAN_POINT('',(5.178643596616,-127.85,107.86745305066));
#790 = VECTOR('',#791,1.);
#791 = DIRECTION('',(0.,-2.2E-16,-1.));
#792 = ORIENTED_EDGE('',*,*,#157,.F.);
#793 = PLANE('',#794);
#794 = AXIS2_PLACEMENT_3D('',#795,#796,#797);
#795 = CARTESIAN_POINT('',(6.766356836887,-130.6,107.86745305066));
#796 = DIRECTION('',(0.866025403784,0.5,-1.1E-16));
#797 = DIRECTION('',(-0.5,0.866025403784,-1.9E-16));
#798 = ADVANCED_FACE('',(#799),#810,.F.);
#799 = FACE_BOUND('',#800,.F.);
#800 = EDGE_LOOP('',(#801,#802,#808,#809));
#801 = ORIENTED_EDGE('',*,*,#787,.T.);
#802 = ORIENTED_EDGE('',*,*,#803,.T.);
#803 = EDGE_CURVE('',#780,#755,#804,.T.);
#804 = LINE('',#805,#806);
#805 = CARTESIAN_POINT('',(5.178643596616,-127.85,101.86745305066));
#806 = VECTOR('',#807,1.);
#807 = DIRECTION('',(-1.,1.12E-15,0.));
#808 = ORIENTED_EDGE('',*,*,#754,.F.);
#809 = ORIENTED_EDGE('',*,*,#149,.F.);
#810 = PLANE('',#811);
#811 = AXIS2_PLACEMENT_3D('',#812,#813,#814);
#812 = CARTESIAN_POINT('',(5.178643596616,-127.85,107.86745305066));
#813 = DIRECTION('',(1.12E-15,1.,-2.2E-16));
#814 = DIRECTION('',(-1.,1.12E-15,0.));
#815 = ADVANCED_FACE('',(#816),#841,.F.);
#816 = FACE_BOUND('',#817,.F.);
#817 = EDGE_LOOP('',(#818,#826,#834,#840));
#818 = ORIENTED_EDGE('',*,*,#819,.T.);
#819 = EDGE_CURVE('',#174,#820,#822,.T.);
#820 = VERTEX_POINT('',#821);
#821 = CARTESIAN_POINT('',(19.415503875796,-130.5999999999,
    101.86745305066));
#822 = LINE('',#823,#824);
#823 = CARTESIAN_POINT('',(19.415503875796,-130.5999999999,
    107.86745305066));
#824 = VECTOR('',#825,1.);
#825 = DIRECTION('',(0.,-2.2E-16,-1.));
#826 = ORIENTED_EDGE('',*,*,#827,.T.);
#827 = EDGE_CURVE('',#820,#828,#830,.T.);
#828 = VERTEX_POINT('',#829);
#829 = CARTESIAN_POINT('',(21.003217116072,-133.3499999999,
    101.86745305066));
#830 = LINE('',#831,#832);
#831 = CARTESIAN_POINT('',(19.415503875796,-130.5999999999,
    101.86745305066));
#832 = VECTOR('',#833,1.);
#833 = DIRECTION('',(0.500000000001,-0.866025403784,0.));
#834 = ORIENTED_EDGE('',*,*,#835,.F.);
#835 = EDGE_CURVE('',#176,#828,#836,.T.);
#836 = LINE('',#837,#838);
#837 = CARTESIAN_POINT('',(21.003217116072,-133.3499999999,
    107.86745305066));
#838 = VECTOR('',#839,1.);
#839 = DIRECTION('',(0.,-2.2E-16,-1.));
#840 = ORIENTED_EDGE('',*,*,#173,.F.);
#841 = PLANE('',#842);
#842 = AXIS2_PLACEMENT_3D('',#843,#844,#845);
#843 = CARTESIAN_POINT('',(19.415503875796,-130.5999999999,
    107.86745305066));
#844 = DIRECTION('',(-0.866025403784,-0.500000000001,1.1E-16));
#845 = DIRECTION('',(0.500000000001,-0.866025403784,1.9E-16));
#846 = ADVANCED_FACE('',(#847),#865,.F.);
#847 = FACE_BOUND('',#848,.F.);
#848 = EDGE_LOOP('',(#849,#857,#863,#864));
#849 = ORIENTED_EDGE('',*,*,#850,.T.);
#850 = EDGE_CURVE('',#184,#851,#853,.T.);
#851 = VERTEX_POINT('',#852);
#852 = CARTESIAN_POINT('',(21.003217116076,-127.85,101.86745305066));
#853 = LINE('',#854,#855);
#854 = CARTESIAN_POINT('',(21.003217116076,-127.85,107.86745305066));
#855 = VECTOR('',#856,1.);
#856 = DIRECTION('',(0.,-2.2E-16,-1.));
#857 = ORIENTED_EDGE('',*,*,#858,.T.);
#858 = EDGE_CURVE('',#851,#820,#859,.T.);
#859 = LINE('',#860,#861);
#860 = CARTESIAN_POINT('',(21.003217116076,-127.85,101.86745305066));
#861 = VECTOR('',#862,1.);
#862 = DIRECTION('',(-0.500000000003,-0.866025403783,0.));
#863 = ORIENTED_EDGE('',*,*,#819,.F.);
#864 = ORIENTED_EDGE('',*,*,#183,.F.);
#865 = PLANE('',#866);
#866 = AXIS2_PLACEMENT_3D('',#867,#868,#869);
#867 = CARTESIAN_POINT('',(21.003217116076,-127.85,107.86745305066));
#868 = DIRECTION('',(-0.866025403783,0.500000000003,-1.1E-16));
#869 = DIRECTION('',(-0.500000000003,-0.866025403783,1.9E-16));
#870 = ADVANCED_FACE('',(#871),#889,.F.);
#871 = FACE_BOUND('',#872,.F.);
#872 = EDGE_LOOP('',(#873,#874,#882,#888));
#873 = ORIENTED_EDGE('',*,*,#835,.T.);
#874 = ORIENTED_EDGE('',*,*,#875,.T.);
#875 = EDGE_CURVE('',#828,#876,#878,.T.);
#876 = VERTEX_POINT('',#877);
#877 = CARTESIAN_POINT('',(24.178643596612,-133.3499999999,
    101.86745305066));
#878 = LINE('',#879,#880);
#879 = CARTESIAN_POINT('',(21.003217116072,-133.3499999999,
    101.86745305066));
#880 = VECTOR('',#881,1.);
#881 = DIRECTION('',(1.,0.,0.));
#882 = ORIENTED_EDGE('',*,*,#883,.F.);
#883 = EDGE_CURVE('',#208,#876,#884,.T.);
#884 = LINE('',#885,#886);
#885 = CARTESIAN_POINT('',(24.178643596612,-133.3499999999,
    107.86745305066));
#886 = VECTOR('',#887,1.);
#887 = DIRECTION('',(0.,-2.2E-16,-1.));
#888 = ORIENTED_EDGE('',*,*,#215,.F.);
#889 = PLANE('',#890);
#890 = AXIS2_PLACEMENT_3D('',#891,#892,#893);
#891 = CARTESIAN_POINT('',(21.003217116072,-133.3499999999,
    107.86745305066));
#892 = DIRECTION('',(0.,-1.,2.2E-16));
#893 = DIRECTION('',(1.,0.,0.));
#894 = ADVANCED_FACE('',(#895),#913,.F.);
#895 = FACE_BOUND('',#896,.F.);
#896 = EDGE_LOOP('',(#897,#905,#911,#912));
#897 = ORIENTED_EDGE('',*,*,#898,.T.);
#898 = EDGE_CURVE('',#192,#899,#901,.T.);
#899 = VERTEX_POINT('',#900);
#900 = CARTESIAN_POINT('',(24.178643596616,-127.85,101.86745305066));
#901 = LINE('',#902,#903);
#902 = CARTESIAN_POINT('',(24.178643596616,-127.85,107.86745305066));
#903 = VECTOR('',#904,1.);
#904 = DIRECTION('',(0.,-2.2E-16,-1.));
#905 = ORIENTED_EDGE('',*,*,#906,.T.);
#906 = EDGE_CURVE('',#899,#851,#907,.T.);
#907 = LINE('',#908,#909);
#908 = CARTESIAN_POINT('',(24.178643596616,-127.85,101.86745305066));
#909 = VECTOR('',#910,1.);
#910 = DIRECTION('',(-1.,-1.9216E-13,0.));
#911 = ORIENTED_EDGE('',*,*,#850,.F.);
#912 = ORIENTED_EDGE('',*,*,#191,.F.);
#913 = PLANE('',#914);
#914 = AXIS2_PLACEMENT_3D('',#915,#916,#917);
#915 = CARTESIAN_POINT('',(24.178643596616,-127.85,107.86745305066));
#916 = DIRECTION('',(-1.9216E-13,1.,-2.2E-16));
#917 = DIRECTION('',(-1.,-1.9216E-13,-0.));
#918 = ADVANCED_FACE('',(#919),#937,.F.);
#919 = FACE_BOUND('',#920,.F.);
#920 = EDGE_LOOP('',(#921,#922,#930,#936));
#921 = ORIENTED_EDGE('',*,*,#883,.T.);
#922 = ORIENTED_EDGE('',*,*,#923,.T.);
#923 = EDGE_CURVE('',#876,#924,#926,.T.);
#924 = VERTEX_POINT('',#925);
#925 = CARTESIAN_POINT('',(25.76635683689,-130.6,101.86745305066));
#926 = LINE('',#927,#928);
#927 = CARTESIAN_POINT('',(24.178643596612,-133.3499999999,
    101.86745305066));
#928 = VECTOR('',#929,1.);
#929 = DIRECTION('',(0.500000000002,0.866025403783,0.));
#930 = ORIENTED_EDGE('',*,*,#931,.F.);
#931 = EDGE_CURVE('',#200,#924,#932,.T.);
#932 = LINE('',#933,#934);
#933 = CARTESIAN_POINT('',(25.76635683689,-130.6,107.86745305066));
#934 = VECTOR('',#935,1.);
#935 = DIRECTION('',(0.,-2.2E-16,-1.));
#936 = ORIENTED_EDGE('',*,*,#207,.F.);
#937 = PLANE('',#938);
#938 = AXIS2_PLACEMENT_3D('',#939,#940,#941);
#939 = CARTESIAN_POINT('',(24.178643596612,-133.3499999999,
    107.86745305066));
#940 = DIRECTION('',(0.866025403783,-0.500000000002,1.1E-16));
#941 = DIRECTION('',(0.500000000002,0.866025403783,-1.9E-16));
#942 = ADVANCED_FACE('',(#943),#954,.F.);
#943 = FACE_BOUND('',#944,.F.);
#944 = EDGE_LOOP('',(#945,#946,#952,#953));
#945 = ORIENTED_EDGE('',*,*,#931,.T.);
#946 = ORIENTED_EDGE('',*,*,#947,.T.);
#947 = EDGE_CURVE('',#924,#899,#948,.T.);
#948 = LINE('',#949,#950);
#949 = CARTESIAN_POINT('',(25.76635683689,-130.6,101.86745305066));
#950 = VECTOR('',#951,1.);
#951 = DIRECTION('',(-0.500000000001,0.866025403784,0.));
#952 = ORIENTED_EDGE('',*,*,#898,.F.);
#953 = ORIENTED_EDGE('',*,*,#199,.F.);
#954 = PLANE('',#955);
#955 = AXIS2_PLACEMENT_3D('',#956,#957,#958);
#956 = CARTESIAN_POINT('',(25.76635683689,-130.6,107.86745305066));
#957 = DIRECTION('',(0.866025403784,0.500000000001,-1.1E-16));
#958 = DIRECTION('',(-0.500000000001,0.866025403784,-1.9E-16));
#959 = ADVANCED_FACE('',(#960),#979,.F.);
#960 = FACE_BOUND('',#961,.F.);
#961 = EDGE_LOOP('',(#962,#971,#977,#978));
#962 = ORIENTED_EDGE('',*,*,#963,.F.);
#963 = EDGE_CURVE('',#964,#964,#966,.T.);
#964 = VERTEX_POINT('',#965);
#965 = CARTESIAN_POINT('',(29.19093,-130.6,103.36745305066));
#966 = CIRCLE('',#967,2.);
#967 = AXIS2_PLACEMENT_3D('',#968,#969,#970);
#968 = CARTESIAN_POINT('',(31.19093,-130.6,103.36745305066));
#969 = DIRECTION('',(0.,0.,-1.));
#970 = DIRECTION('',(-1.,0.,0.));
#971 = ORIENTED_EDGE('',*,*,#972,.T.);
#972 = EDGE_CURVE('',#964,#224,#973,.T.);
#973 = LINE('',#974,#975);
#974 = CARTESIAN_POINT('',(29.19093,-130.6,103.36745305066));
#975 = VECTOR('',#976,1.);
#976 = DIRECTION('',(0.,2.2E-16,1.));
#977 = ORIENTED_EDGE('',*,*,#223,.T.);
#978 = ORIENTED_EDGE('',*,*,#972,.F.);
#979 = CYLINDRICAL_SURFACE('',#980,2.);
#980 = AXIS2_PLACEMENT_3D('',#981,#982,#983);
#981 = CARTESIAN_POINT('',(31.19093,-130.6,103.36745305066));
#982 = DIRECTION('',(0.,-2.2E-16,-1.));
#983 = DIRECTION('',(-1.,0.,0.));
#984 = ADVANCED_FACE('',(#985,#998),#1001,.F.);
#985 = FACE_BOUND('',#986,.F.);
#986 = EDGE_LOOP('',(#987,#988,#989,#990,#991,#992));
#987 = ORIENTED_EDGE('',*,*,#505,.T.);
#988 = ORIENTED_EDGE('',*,*,#436,.F.);
#989 = ORIENTED_EDGE('',*,*,#388,.T.);
#990 = ORIENTED_EDGE('',*,*,#330,.F.);
#991 = ORIENTED_EDGE('',*,*,#249,.F.);
#992 = ORIENTED_EDGE('',*,*,#993,.F.);
#993 = EDGE_CURVE('',#506,#250,#994,.T.);
#994 = LINE('',#995,#996);
#995 = CARTESIAN_POINT('',(27.19093,-135.6,103.36745305066));
#996 = VECTOR('',#997,1.);
#997 = DIRECTION('',(0.,1.,0.));
#998 = FACE_BOUND('',#999,.F.);
#999 = EDGE_LOOP('',(#1000));
#1000 = ORIENTED_EDGE('',*,*,#963,.T.);
#1001 = PLANE('',#1002);
#1002 = AXIS2_PLACEMENT_3D('',#1003,#1004,#1005);
#1003 = CARTESIAN_POINT('',(27.19093,-135.6,103.36745305066));
#1004 = DIRECTION('',(0.,0.,1.));
#1005 = DIRECTION('',(0.,1.,0.));
#1006 = ADVANCED_FACE('',(#1007,#1013),#1024,.F.);
#1007 = FACE_BOUND('',#1008,.F.);
#1008 = EDGE_LOOP('',(#1009,#1010,#1011,#1012));
#1009 = ORIENTED_EDGE('',*,*,#490,.T.);
#1010 = ORIENTED_EDGE('',*,*,#297,.T.);
#1011 = ORIENTED_EDGE('',*,*,#355,.F.);
#1012 = ORIENTED_EDGE('',*,*,#412,.F.);
#1013 = FACE_BOUND('',#1014,.F.);
#1014 = EDGE_LOOP('',(#1015));
#1015 = ORIENTED_EDGE('',*,*,#1016,.T.);
#1016 = EDGE_CURVE('',#1017,#1017,#1019,.T.);
#1017 = VERTEX_POINT('',#1018);
#1018 = CARTESIAN_POINT('',(1.99093,-130.6,98.867453050666));
#1019 = CIRCLE('',#1020,1.6);
#1020 = AXIS2_PLACEMENT_3D('',#1021,#1022,#1023);
#1021 = CARTESIAN_POINT('',(3.59093,-130.6,98.867453050666));
#1022 = DIRECTION('',(0.,0.,-1.));
#1023 = DIRECTION('',(-1.,0.,0.));
#1024 = PLANE('',#1025);
#1025 = AXIS2_PLACEMENT_3D('',#1026,#1027,#1028);
#1026 = CARTESIAN_POINT('',(7.19093,-135.6,98.867453050666));
#1027 = DIRECTION('',(0.,0.,1.));
#1028 = DIRECTION('',(-1.,0.,0.));
#1029 = ADVANCED_FACE('',(#1030),#1041,.T.);
#1030 = FACE_BOUND('',#1031,.T.);
#1031 = EDGE_LOOP('',(#1032,#1033,#1039,#1040));
#1032 = ORIENTED_EDGE('',*,*,#531,.F.);
#1033 = ORIENTED_EDGE('',*,*,#1034,.T.);
#1034 = EDGE_CURVE('',#524,#258,#1035,.T.);
#1035 = LINE('',#1036,#1037);
#1036 = CARTESIAN_POINT('',(27.19093,-135.6,98.867453050666));
#1037 = VECTOR('',#1038,1.);
#1038 = DIRECTION('',(0.,1.,0.));
#1039 = ORIENTED_EDGE('',*,*,#257,.T.);
#1040 = ORIENTED_EDGE('',*,*,#993,.F.);
#1041 = PLANE('',#1042);
#1042 = AXIS2_PLACEMENT_3D('',#1043,#1044,#1045);
#1043 = CARTESIAN_POINT('',(27.19093,-135.6,98.867453050666));
#1044 = DIRECTION('',(1.,0.,0.));
#1045 = DIRECTION('',(0.,0.,1.));
#1046 = ADVANCED_FACE('',(#1047,#1053),#1064,.T.);
#1047 = FACE_BOUND('',#1048,.T.);
#1048 = EDGE_LOOP('',(#1049,#1050,#1051,#1052));
#1049 = ORIENTED_EDGE('',*,*,#617,.T.);
#1050 = ORIENTED_EDGE('',*,*,#265,.T.);
#1051 = ORIENTED_EDGE('',*,*,#1034,.F.);
#1052 = ORIENTED_EDGE('',*,*,#523,.F.);
#1053 = FACE_BOUND('',#1054,.T.);
#1054 = EDGE_LOOP('',(#1055));
#1055 = ORIENTED_EDGE('',*,*,#1056,.F.);
#1056 = EDGE_CURVE('',#1057,#1057,#1059,.T.);
#1057 = VERTEX_POINT('',#1058);
#1058 = CARTESIAN_POINT('',(20.99093,-130.6,98.867453050666));
#1059 = CIRCLE('',#1060,1.6);
#1060 = AXIS2_PLACEMENT_3D('',#1061,#1062,#1063);
#1061 = CARTESIAN_POINT('',(22.59093,-130.6,98.867453050666));
#1062 = DIRECTION('',(0.,0.,-1.));
#1063 = DIRECTION('',(-1.,0.,0.));
#1064 = PLANE('',#1065);
#1065 = AXIS2_PLACEMENT_3D('',#1066,#1067,#1068);
#1066 = CARTESIAN_POINT('',(18.99093,-135.6,98.867453050666));
#1067 = DIRECTION('',(0.,0.,-1.));
#1068 = DIRECTION('',(1.,0.,0.));
#1069 = ADVANCED_FACE('',(#1070),#1099,.T.);
#1070 = FACE_BOUND('',#1071,.T.);
#1071 = EDGE_LOOP('',(#1072,#1073,#1082,#1090,#1097,#1098));
#1072 = ORIENTED_EDGE('',*,*,#610,.T.);
#1073 = ORIENTED_EDGE('',*,*,#1074,.F.);
#1074 = EDGE_CURVE('',#1075,#603,#1077,.T.);
#1075 = VERTEX_POINT('',#1076);
#1076 = CARTESIAN_POINT('',(14.99093,-141.6,95.867453050666));
#1077 = CIRCLE('',#1078,4.);
#1078 = AXIS2_PLACEMENT_3D('',#1079,#1080,#1081);
#1079 = CARTESIAN_POINT('',(14.99093,-137.6,95.867453050666));
#1080 = DIRECTION('',(0.,-0.,1.));
#1081 = DIRECTION('',(0.,1.,0.));
#1082 = ORIENTED_EDGE('',*,*,#1083,.T.);
#1083 = EDGE_CURVE('',#1075,#1084,#1086,.T.);
#1084 = VERTEX_POINT('',#1085);
#1085 = CARTESIAN_POINT('',(11.19093,-141.6,95.867453050666));
#1086 = LINE('',#1087,#1088);
#1087 = CARTESIAN_POINT('',(18.99093,-141.6,95.867453050666));
#1088 = VECTOR('',#1089,1.);
#1089 = DIRECTION('',(-1.,0.,8.E-17));
#1090 = ORIENTED_EDGE('',*,*,#1091,.F.);
#1091 = EDGE_CURVE('',#453,#1084,#1092,.T.);
#1092 = CIRCLE('',#1093,4.);
#1093 = AXIS2_PLACEMENT_3D('',#1094,#1095,#1096);
#1094 = CARTESIAN_POINT('',(11.19093,-137.6,95.867453050666));
#1095 = DIRECTION('',(-0.,0.,1.));
#1096 = DIRECTION('',(0.,-1.,0.));
#1097 = ORIENTED_EDGE('',*,*,#452,.F.);
#1098 = ORIENTED_EDGE('',*,*,#281,.F.);
#1099 = PLANE('',#1100);
#1100 = AXIS2_PLACEMENT_3D('',#1101,#1102,#1103);
#1101 = CARTESIAN_POINT('',(13.09093,-133.6,95.867453050666));
#1102 = DIRECTION('',(0.,0.,-1.));
#1103 = DIRECTION('',(0.,1.,0.));
#1104 = ADVANCED_FACE('',(#1105),#1161,.F.);
#1105 = FACE_BOUND('',#1106,.F.);
#1106 = EDGE_LOOP('',(#1107,#1108,#1120,#1126,#1127,#1128,#1140,#1149));
#1107 = ORIENTED_EDGE('',*,*,#641,.F.);
#1108 = ORIENTED_EDGE('',*,*,#1109,.T.);
#1109 = EDGE_CURVE('',#634,#1110,#1112,.T.);
#1110 = VERTEX_POINT('',#1111);
#1111 = CARTESIAN_POINT('',(15.41593,-141.6,102.86745305066));
#1112 = ( BOUNDED_CURVE() B_SPLINE_CURVE(6,(#1113,#1114,#1115,#1116,
#1117,#1118,#1119),.UNSPECIFIED.,.F.,.F.) B_SPLINE_CURVE_WITH_KNOTS((7,7
),(3.659990671674,5.),.PIECEWISE_BEZIER_KNOTS.) CURVE() 
GEOMETRIC_REPRESENTATION_ITEM() RATIONAL_B_SPLINE_CURVE((1.,1.,1.,1.,1.,
1.,1.)) REPRESENTATION_ITEM('') );
#1113 = CARTESIAN_POINT('',(14.99093,-141.6,104.20746237899));
#1114 = CARTESIAN_POINT('',(15.148440964912,-141.6,103.98412749093));
#1115 = CARTESIAN_POINT('',(15.258906146957,-141.6,103.76079260288));
#1116 = CARTESIAN_POINT('',(15.338938156626,-141.6,103.53745771482));
#1117 = CARTESIAN_POINT('',(15.390115309445,-141.6,103.31412282677));
#1118 = CARTESIAN_POINT('',(15.41593,-141.6,103.09078793872));
#1119 = CARTESIAN_POINT('',(15.41593,-141.6,102.86745305066));
#1120 = ORIENTED_EDGE('',*,*,#1121,.T.);
#1121 = EDGE_CURVE('',#1110,#314,#1122,.T.);
#1122 = LINE('',#1123,#1124);
#1123 = CARTESIAN_POINT('',(15.41593,-141.6,102.86745305066));
#1124 = VECTOR('',#1125,1.);
#1125 = DIRECTION('',(0.,1.,0.));
#1126 = ORIENTED_EDGE('',*,*,#313,.T.);
#1127 = ORIENTED_EDGE('',*,*,#1121,.F.);
#1128 = ORIENTED_EDGE('',*,*,#1129,.T.);
#1129 = EDGE_CURVE('',#1110,#1130,#1132,.T.);
#1130 = VERTEX_POINT('',#1131);
#1131 = CARTESIAN_POINT('',(14.99093,-141.6,101.52744372234));
#1132 = ( BOUNDED_CURVE() B_SPLINE_CURVE(6,(#1133,#1134,#1135,#1136,
#1137,#1138,#1139),.UNSPECIFIED.,.F.,.F.) B_SPLINE_CURVE_WITH_KNOTS((7,7
),(5.,6.340009328326),.PIECEWISE_BEZIER_KNOTS.) CURVE() 
GEOMETRIC_REPRESENTATION_ITEM() RATIONAL_B_SPLINE_CURVE((1.,1.,1.,1.,1.,
1.,1.)) REPRESENTATION_ITEM('') );
#1133 = CARTESIAN_POINT('',(15.41593,-141.6,102.86745305066));
#1134 = CARTESIAN_POINT('',(15.41593,-141.6,102.64411816261));
#1135 = CARTESIAN_POINT('',(15.390115309445,-141.6,102.42078327455));
#1136 = CARTESIAN_POINT('',(15.338938156626,-141.6,102.1974483865));
#1137 = CARTESIAN_POINT('',(15.258906146957,-141.6,101.97411349844));
#1138 = CARTESIAN_POINT('',(15.148440964912,-141.6,101.75077861039));
#1139 = CARTESIAN_POINT('',(14.99093,-141.6,101.52744372234));
#1140 = ORIENTED_EDGE('',*,*,#1141,.F.);
#1141 = EDGE_CURVE('',#1142,#1130,#1144,.T.);
#1142 = VERTEX_POINT('',#1143);
#1143 = CARTESIAN_POINT('',(11.19093,-141.6,101.52744372234));
#1144 = CIRCLE('',#1145,2.325);
#1145 = AXIS2_PLACEMENT_3D('',#1146,#1147,#1148);
#1146 = CARTESIAN_POINT('',(13.09093,-141.6,102.86745305066));
#1147 = DIRECTION('',(0.,-1.,0.));
#1148 = DIRECTION('',(1.,0.,0.));
#1149 = ORIENTED_EDGE('',*,*,#1150,.T.);
#1150 = EDGE_CURVE('',#1142,#546,#1151,.T.);
#1151 = ( BOUNDED_CURVE() B_SPLINE_CURVE(8,(#1152,#1153,#1154,#1155,
    #1156,#1157,#1158,#1159,#1160),.UNSPECIFIED.,.F.,.F.) 
B_SPLINE_CURVE_WITH_KNOTS((9,9),(5.659990671674,8.340009328326),
.PIECEWISE_BEZIER_KNOTS.) CURVE() GEOMETRIC_REPRESENTATION_ITEM() 
RATIONAL_B_SPLINE_CURVE((1.,1.,1.,1.,1.,1.,1.,1.,1.)) 
REPRESENTATION_ITEM('') );
#1152 = CARTESIAN_POINT('',(11.19093,-141.6,101.52744372234));
#1153 = CARTESIAN_POINT('',(10.954663552632,-141.6,101.86244605442));
#1154 = CARTESIAN_POINT('',(10.819327405832,-141.6,102.1974483865));
#1155 = CARTESIAN_POINT('',(10.736279992674,-141.6,102.53245071858));
#1156 = CARTESIAN_POINT('',(10.715377068494,-141.6,102.86745305066));
#1157 = CARTESIAN_POINT('',(10.736279992674,-141.6,103.20245538274));
#1158 = CARTESIAN_POINT('',(10.819327405832,-141.6,103.53745771482));
#1159 = CARTESIAN_POINT('',(10.954663552632,-141.6,103.87246004691));
#1160 = CARTESIAN_POINT('',(11.19093,-141.6,104.20746237899));
#1161 = CYLINDRICAL_SURFACE('',#1162,2.325);
#1162 = AXIS2_PLACEMENT_3D('',#1163,#1164,#1165);
#1163 = CARTESIAN_POINT('',(13.09093,-141.6,102.86745305066));
#1164 = DIRECTION('',(0.,-1.,0.));
#1165 = DIRECTION('',(1.,0.,0.));
#1166 = ADVANCED_FACE('',(#1167),#1184,.T.);
#1167 = FACE_BOUND('',#1168,.T.);
#1168 = EDGE_LOOP('',(#1169,#1170,#1176,#1183));
#1169 = ORIENTED_EDGE('',*,*,#1091,.T.);
#1170 = ORIENTED_EDGE('',*,*,#1171,.T.);
#1171 = EDGE_CURVE('',#1084,#1142,#1172,.T.);
#1172 = LINE('',#1173,#1174);
#1173 = CARTESIAN_POINT('',(11.19093,-141.6,95.867453050666));
#1174 = VECTOR('',#1175,1.);
#1175 = DIRECTION('',(0.,0.,1.));
#1176 = ORIENTED_EDGE('',*,*,#1177,.F.);
#1177 = EDGE_CURVE('',#461,#1142,#1178,.T.);
#1178 = CIRCLE('',#1179,4.);
#1179 = AXIS2_PLACEMENT_3D('',#1180,#1181,#1182);
#1180 = CARTESIAN_POINT('',(11.19093,-137.6,101.52744372234));
#1181 = DIRECTION('',(0.,0.,1.));
#1182 = DIRECTION('',(-1.,0.,0.));
#1183 = ORIENTED_EDGE('',*,*,#460,.F.);
#1184 = CYLINDRICAL_SURFACE('',#1185,4.);
#1185 = AXIS2_PLACEMENT_3D('',#1186,#1187,#1188);
#1186 = CARTESIAN_POINT('',(11.19093,-137.6,95.867453050666));
#1187 = DIRECTION('',(0.,0.,1.));
#1188 = DIRECTION('',(-1.,0.,0.));
#1189 = ADVANCED_FACE('',(#1190),#1196,.T.);
#1190 = FACE_BOUND('',#1191,.T.);
#1191 = EDGE_LOOP('',(#1192,#1193,#1194,#1195));
#1192 = ORIENTED_EDGE('',*,*,#1177,.T.);
#1193 = ORIENTED_EDGE('',*,*,#1150,.T.);
#1194 = ORIENTED_EDGE('',*,*,#545,.F.);
#1195 = ORIENTED_EDGE('',*,*,#468,.F.);
#1196 = ( BOUNDED_SURFACE() B_SPLINE_SURFACE(2,8,(
    (#1197,#1198,#1199,#1200,#1201,#1202,#1203,#1204,#1205)
    ,(#1206,#1207,#1208,#1209,#1210,#1211,#1212,#1213,#1214)
    ,(#1215,#1216,#1217,#1218,#1219,#1220,#1221,#1222,#1223
)),.UNSPECIFIED.,.F.,.F.,.F.) B_SPLINE_SURFACE_WITH_KNOTS((3,3),(9,9),(
    0.,2.680018656651),(5.659990671674,8.340009328326),
.PIECEWISE_BEZIER_KNOTS.) GEOMETRIC_REPRESENTATION_ITEM() 
RATIONAL_B_SPLINE_SURFACE((
    (1.,1.,1.,1.,1.,1.,1.,1.,1.)
    ,(0.707106781187,0.727989982074,0.739251626627,0.746282512955
      ,0.747849065188,0.746282512955,0.739251626627,0.727989982074
      ,0.707106781187)
,(1.,1.,1.,1.,1.,1.,1.,1.,1.))) REPRESENTATION_ITEM('') SURFACE() );
#1197 = CARTESIAN_POINT('',(7.19093,-137.6,101.52744372234));
#1198 = CARTESIAN_POINT('',(7.19093,-137.6,101.86244605442));
#1199 = CARTESIAN_POINT('',(7.19093,-137.6158732163,102.1974483865));
#1200 = CARTESIAN_POINT('',(7.19093,-137.6245584563,102.53245071858));
#1201 = CARTESIAN_POINT('',(7.19093,-137.630817153,102.86745305066));
#1202 = CARTESIAN_POINT('',(7.19093,-137.6245584563,103.20245538274));
#1203 = CARTESIAN_POINT('',(7.19093,-137.6158732163,103.53745771482));
#1204 = CARTESIAN_POINT('',(7.19093,-137.6,103.87246004691));
#1205 = CARTESIAN_POINT('',(7.19093,-137.6,104.20746237899));
#1206 = CARTESIAN_POINT('',(7.19093,-141.6,101.52744372234));
#1207 = CARTESIAN_POINT('',(7.19093,-141.3705111179,101.85283614058));
#1208 = CARTESIAN_POINT('',(7.19093,-141.2597510551,102.18981270945));
#1209 = CARTESIAN_POINT('',(7.19093,-141.1932825761,102.52735613894));
#1210 = CARTESIAN_POINT('',(7.19093,-141.1801811383,102.86745305066));
#1211 = CARTESIAN_POINT('',(7.19093,-141.1932825761,103.20754996238));
#1212 = CARTESIAN_POINT('',(7.19093,-141.2597510551,103.54509339187));
#1213 = CARTESIAN_POINT('',(7.19093,-141.3705111179,103.88206996074));
#1214 = CARTESIAN_POINT('',(7.19093,-141.6,104.20746237899));
#1215 = CARTESIAN_POINT('',(11.19093,-141.6,101.52744372234));
#1216 = CARTESIAN_POINT('',(10.954663552632,-141.6,101.86244605442));
#1217 = CARTESIAN_POINT('',(10.819327405832,-141.6,102.1974483865));
#1218 = CARTESIAN_POINT('',(10.736279992674,-141.6,102.53245071858));
#1219 = CARTESIAN_POINT('',(10.715377068494,-141.6,102.86745305066));
#1220 = CARTESIAN_POINT('',(10.736279992674,-141.6,103.20245538274));
#1221 = CARTESIAN_POINT('',(10.819327405832,-141.6,103.53745771482));
#1222 = CARTESIAN_POINT('',(10.954663552632,-141.6,103.87246004691));
#1223 = CARTESIAN_POINT('',(11.19093,-141.6,104.20746237899));
#1224 = ADVANCED_FACE('',(#1225),#1236,.T.);
#1225 = FACE_BOUND('',#1226,.T.);
#1226 = EDGE_LOOP('',(#1227,#1228,#1229,#1235));
#1227 = ORIENTED_EDGE('',*,*,#659,.F.);
#1228 = ORIENTED_EDGE('',*,*,#1109,.T.);
#1229 = ORIENTED_EDGE('',*,*,#1230,.T.);
#1230 = EDGE_CURVE('',#1110,#579,#1231,.T.);
#1231 = ( BOUNDED_CURVE() B_SPLINE_CURVE(2,(#1232,#1233,#1234),
.UNSPECIFIED.,.F.,.F.) B_SPLINE_CURVE_WITH_KNOTS((3,3),(0.,
1.340009328326),.PIECEWISE_BEZIER_KNOTS.) CURVE() 
GEOMETRIC_REPRESENTATION_ITEM() RATIONAL_B_SPLINE_CURVE((1.,
0.743723739032,1.)) REPRESENTATION_ITEM('') );
#1232 = CARTESIAN_POINT('',(15.41593,-141.6,102.86745305066));
#1233 = CARTESIAN_POINT('',(18.99093,-141.2179938844,102.86745305066));
#1234 = CARTESIAN_POINT('',(18.99093,-137.6226422087,102.86745305066));
#1235 = ORIENTED_EDGE('',*,*,#578,.F.);
#1236 = ( BOUNDED_SURFACE() B_SPLINE_SURFACE(2,6,(
    (#1237,#1238,#1239,#1240,#1241,#1242,#1243)
    ,(#1244,#1245,#1246,#1247,#1248,#1249,#1250)
    ,(#1251,#1252,#1253,#1254,#1255,#1256,#1257
)),.UNSPECIFIED.,.F.,.F.,.F.) B_SPLINE_SURFACE_WITH_KNOTS((3,3),(7,7),(
    0.,1.340009328326),(3.659990671674,5.),.PIECEWISE_BEZIER_KNOTS.) 
GEOMETRIC_REPRESENTATION_ITEM() RATIONAL_B_SPLINE_SURFACE((
    (1.,1.,1.,1.,1.,1.,1.)
    ,(0.707106781187,0.721028915112,0.7304673429,0.737261247164
      ,0.741552089901,0.743723739032,0.743723739032)
,(1.,1.,1.,1.,1.,1.,1.))) REPRESENTATION_ITEM('') SURFACE() );
#1237 = CARTESIAN_POINT('',(18.99093,-137.6,104.20746237899));
#1238 = CARTESIAN_POINT('',(18.99093,-137.6,103.98412749093));
#1239 = CARTESIAN_POINT('',(18.99093,-137.6073806175,103.76079260288));
#1240 = CARTESIAN_POINT('',(18.99093,-137.6142719198,103.53745771482));
#1241 = CARTESIAN_POINT('',(18.99093,-137.6199263233,103.31412282677));
#1242 = CARTESIAN_POINT('',(18.99093,-137.6226422087,103.09078793872));
#1243 = CARTESIAN_POINT('',(18.99093,-137.6226422087,102.86745305066));
#1244 = CARTESIAN_POINT('',(18.99093,-141.6,104.20746237899));
#1245 = CARTESIAN_POINT('',(18.99093,-141.4455303676,103.98843979819));
#1246 = CARTESIAN_POINT('',(18.99093,-141.3477478087,103.76489027774));
#1247 = CARTESIAN_POINT('',(18.99093,-141.28018396,103.54049281736));
#1248 = CARTESIAN_POINT('',(18.99093,-141.2387989537,103.31539865844));
#1249 = CARTESIAN_POINT('',(18.99093,-141.2179938844,103.09078793872));
#1250 = CARTESIAN_POINT('',(18.99093,-141.2179938844,102.86745305066));
#1251 = CARTESIAN_POINT('',(14.99093,-141.6,104.20746237899));
#1252 = CARTESIAN_POINT('',(15.148440964912,-141.6,103.98412749093));
#1253 = CARTESIAN_POINT('',(15.258906146957,-141.6,103.76079260288));
#1254 = CARTESIAN_POINT('',(15.338938156626,-141.6,103.53745771482));
#1255 = CARTESIAN_POINT('',(15.390115309445,-141.6,103.31412282677));
#1256 = CARTESIAN_POINT('',(15.41593,-141.6,103.09078793872));
#1257 = CARTESIAN_POINT('',(15.41593,-141.6,102.86745305066));
#1258 = ADVANCED_FACE('',(#1259),#1270,.T.);
#1259 = FACE_BOUND('',#1260,.T.);
#1260 = EDGE_LOOP('',(#1261,#1262,#1263,#1269));
#1261 = ORIENTED_EDGE('',*,*,#1230,.F.);
#1262 = ORIENTED_EDGE('',*,*,#1129,.T.);
#1263 = ORIENTED_EDGE('',*,*,#1264,.T.);
#1264 = EDGE_CURVE('',#1130,#591,#1265,.T.);
#1265 = ( BOUNDED_CURVE() B_SPLINE_CURVE(2,(#1266,#1267,#1268),
.UNSPECIFIED.,.F.,.F.) B_SPLINE_CURVE_WITH_KNOTS((3,3),(0.,
1.340009328326),.PIECEWISE_BEZIER_KNOTS.) CURVE() 
GEOMETRIC_REPRESENTATION_ITEM() RATIONAL_B_SPLINE_CURVE((1.,
0.707106781187,1.)) REPRESENTATION_ITEM('') );
#1266 = CARTESIAN_POINT('',(14.99093,-141.6,101.52744372234));
#1267 = CARTESIAN_POINT('',(18.99093,-141.6,101.52744372234));
#1268 = CARTESIAN_POINT('',(18.99093,-137.6,101.52744372234));
#1269 = ORIENTED_EDGE('',*,*,#590,.F.);
#1270 = ( BOUNDED_SURFACE() B_SPLINE_SURFACE(2,6,(
    (#1271,#1272,#1273,#1274,#1275,#1276,#1277)
    ,(#1278,#1279,#1280,#1281,#1282,#1283,#1284)
    ,(#1285,#1286,#1287,#1288,#1289,#1290,#1291
)),.UNSPECIFIED.,.F.,.F.,.F.) B_SPLINE_SURFACE_WITH_KNOTS((3,3),(7,7),(
    0.,1.340009328326),(5.,6.340009328326),.PIECEWISE_BEZIER_KNOTS.) 
GEOMETRIC_REPRESENTATION_ITEM() RATIONAL_B_SPLINE_SURFACE((
    (1.,1.,1.,1.,1.,1.,1.)
    ,(0.743723739032,0.743723739032,0.741552089901,0.737261247164
      ,0.7304673429,0.721028915112,0.707106781187)
,(1.,1.,1.,1.,1.,1.,1.))) REPRESENTATION_ITEM('') SURFACE() );
#1271 = CARTESIAN_POINT('',(18.99093,-137.6226422087,102.86745305066));
#1272 = CARTESIAN_POINT('',(18.99093,-137.6226422087,102.64411816261));
#1273 = CARTESIAN_POINT('',(18.99093,-137.6199263233,102.42078327455));
#1274 = CARTESIAN_POINT('',(18.99093,-137.6142719198,102.1974483865));
#1275 = CARTESIAN_POINT('',(18.99093,-137.6073806175,101.97411349844));
#1276 = CARTESIAN_POINT('',(18.99093,-137.6,101.75077861039));
#1277 = CARTESIAN_POINT('',(18.99093,-137.6,101.52744372234));
#1278 = CARTESIAN_POINT('',(18.99093,-141.2179938844,102.86745305066));
#1279 = CARTESIAN_POINT('',(18.99093,-141.2179938844,102.64411816261));
#1280 = CARTESIAN_POINT('',(18.99093,-141.2387989537,102.41950744288));
#1281 = CARTESIAN_POINT('',(18.99093,-141.28018396,102.19441328396));
#1282 = CARTESIAN_POINT('',(18.99093,-141.3477478087,101.97001582359));
#1283 = CARTESIAN_POINT('',(18.99093,-141.4455303676,101.74646630314));
#1284 = CARTESIAN_POINT('',(18.99093,-141.6,101.52744372234));
#1285 = CARTESIAN_POINT('',(15.41593,-141.6,102.86745305066));
#1286 = CARTESIAN_POINT('',(15.41593,-141.6,102.64411816261));
#1287 = CARTESIAN_POINT('',(15.390115309445,-141.6,102.42078327455));
#1288 = CARTESIAN_POINT('',(15.338938156626,-141.6,102.1974483865));
#1289 = CARTESIAN_POINT('',(15.258906146957,-141.6,101.97411349844));
#1290 = CARTESIAN_POINT('',(15.148440964912,-141.6,101.75077861039));
#1291 = CARTESIAN_POINT('',(14.99093,-141.6,101.52744372234));
#1292 = ADVANCED_FACE('',(#1293),#1304,.T.);
#1293 = FACE_BOUND('',#1294,.F.);
#1294 = EDGE_LOOP('',(#1295,#1296,#1297,#1298));
#1295 = ORIENTED_EDGE('',*,*,#1264,.T.);
#1296 = ORIENTED_EDGE('',*,*,#602,.T.);
#1297 = ORIENTED_EDGE('',*,*,#1074,.F.);
#1298 = ORIENTED_EDGE('',*,*,#1299,.F.);
#1299 = EDGE_CURVE('',#1130,#1075,#1300,.T.);
#1300 = LINE('',#1301,#1302);
#1301 = CARTESIAN_POINT('',(14.99093,-141.6,107.86745305066));
#1302 = VECTOR('',#1303,1.);
#1303 = DIRECTION('',(0.,0.,-1.));
#1304 = CYLINDRICAL_SURFACE('',#1305,4.);
#1305 = AXIS2_PLACEMENT_3D('',#1306,#1307,#1308);
#1306 = CARTESIAN_POINT('',(14.99093,-137.6,107.86745305066));
#1307 = DIRECTION('',(0.,0.,-1.));
#1308 = DIRECTION('',(0.,-1.,0.));
#1309 = ADVANCED_FACE('',(#1310,#1318),#1329,.F.);
#1310 = FACE_BOUND('',#1311,.F.);
#1311 = EDGE_LOOP('',(#1312,#1313,#1314,#1315,#1316,#1317));
#1312 = ORIENTED_EDGE('',*,*,#731,.F.);
#1313 = ORIENTED_EDGE('',*,*,#683,.F.);
#1314 = ORIENTED_EDGE('',*,*,#714,.F.);
#1315 = ORIENTED_EDGE('',*,*,#762,.F.);
#1316 = ORIENTED_EDGE('',*,*,#803,.F.);
#1317 = ORIENTED_EDGE('',*,*,#779,.F.);
#1318 = FACE_BOUND('',#1319,.F.);
#1319 = EDGE_LOOP('',(#1320));
#1320 = ORIENTED_EDGE('',*,*,#1321,.F.);
#1321 = EDGE_CURVE('',#1322,#1322,#1324,.T.);
#1322 = VERTEX_POINT('',#1323);
#1323 = CARTESIAN_POINT('',(1.99093,-130.6,101.86745305066));
#1324 = CIRCLE('',#1325,1.6);
#1325 = AXIS2_PLACEMENT_3D('',#1326,#1327,#1328);
#1326 = CARTESIAN_POINT('',(3.59093,-130.6,101.86745305066));
#1327 = DIRECTION('',(9.E-17,-2.2E-16,-1.));
#1328 = DIRECTION('',(-1.,-9.E-17,-9.E-17));
#1329 = PLANE('',#1330);
#1330 = AXIS2_PLACEMENT_3D('',#1331,#1332,#1333);
#1331 = CARTESIAN_POINT('',(13.090930356343,-130.6,101.86745305066));
#1332 = DIRECTION('',(0.,0.,-1.));
#1333 = DIRECTION('',(0.,1.,0.));
#1334 = ADVANCED_FACE('',(#1335,#1343),#1354,.F.);
#1335 = FACE_BOUND('',#1336,.F.);
#1336 = EDGE_LOOP('',(#1337,#1338,#1339,#1340,#1341,#1342));
#1337 = ORIENTED_EDGE('',*,*,#875,.F.);
#1338 = ORIENTED_EDGE('',*,*,#827,.F.);
#1339 = ORIENTED_EDGE('',*,*,#858,.F.);
#1340 = ORIENTED_EDGE('',*,*,#906,.F.);
#1341 = ORIENTED_EDGE('',*,*,#947,.F.);
#1342 = ORIENTED_EDGE('',*,*,#923,.F.);
#1343 = FACE_BOUND('',#1344,.F.);
#1344 = EDGE_LOOP('',(#1345));
#1345 = ORIENTED_EDGE('',*,*,#1346,.F.);
#1346 = EDGE_CURVE('',#1347,#1347,#1349,.T.);
#1347 = VERTEX_POINT('',#1348);
#1348 = CARTESIAN_POINT('',(20.99093,-130.6,101.86745305066));
#1349 = CIRCLE('',#1350,1.6);
#1350 = AXIS2_PLACEMENT_3D('',#1351,#1352,#1353);
#1351 = CARTESIAN_POINT('',(22.59093,-130.6,101.86745305066));
#1352 = DIRECTION('',(9.E-17,-2.2E-16,-1.));
#1353 = DIRECTION('',(-1.,-9.E-17,-9.E-17));
#1354 = PLANE('',#1355);
#1355 = AXIS2_PLACEMENT_3D('',#1356,#1357,#1358);
#1356 = CARTESIAN_POINT('',(13.090930356343,-130.6,101.86745305066));
#1357 = DIRECTION('',(0.,0.,-1.));
#1358 = DIRECTION('',(0.,1.,0.));
#1359 = ADVANCED_FACE('',(#1360),#1371,.F.);
#1360 = FACE_BOUND('',#1361,.F.);
#1361 = EDGE_LOOP('',(#1362,#1368,#1369,#1370));
#1362 = ORIENTED_EDGE('',*,*,#1363,.F.);
#1363 = EDGE_CURVE('',#1017,#1322,#1364,.T.);
#1364 = LINE('',#1365,#1366);
#1365 = CARTESIAN_POINT('',(1.99093,-130.6,98.867453050666));
#1366 = VECTOR('',#1367,1.);
#1367 = DIRECTION('',(-9.E-17,2.2E-16,1.));
#1368 = ORIENTED_EDGE('',*,*,#1016,.F.);
#1369 = ORIENTED_EDGE('',*,*,#1363,.T.);
#1370 = ORIENTED_EDGE('',*,*,#1321,.T.);
#1371 = CYLINDRICAL_SURFACE('',#1372,1.6);
#1372 = AXIS2_PLACEMENT_3D('',#1373,#1374,#1375);
#1373 = CARTESIAN_POINT('',(3.59093,-130.6,98.867453050666));
#1374 = DIRECTION('',(9.E-17,-2.2E-16,-1.));
#1375 = DIRECTION('',(-1.,-9.E-17,-9.E-17));
#1376 = ADVANCED_FACE('',(#1377),#1388,.F.);
#1377 = FACE_BOUND('',#1378,.F.);
#1378 = EDGE_LOOP('',(#1379,#1385,#1386,#1387));
#1379 = ORIENTED_EDGE('',*,*,#1380,.F.);
#1380 = EDGE_CURVE('',#1057,#1347,#1381,.T.);
#1381 = LINE('',#1382,#1383);
#1382 = CARTESIAN_POINT('',(20.99093,-130.6,98.867453050666));
#1383 = VECTOR('',#1384,1.);
#1384 = DIRECTION('',(-9.E-17,2.2E-16,1.));
#1385 = ORIENTED_EDGE('',*,*,#1056,.F.);
#1386 = ORIENTED_EDGE('',*,*,#1380,.T.);
#1387 = ORIENTED_EDGE('',*,*,#1346,.T.);
#1388 = CYLINDRICAL_SURFACE('',#1389,1.6);
#1389 = AXIS2_PLACEMENT_3D('',#1390,#1391,#1392);
#1390 = CARTESIAN_POINT('',(22.59093,-130.6,98.867453050666));
#1391 = DIRECTION('',(9.E-17,-2.2E-16,-1.));
#1392 = DIRECTION('',(-1.,-9.E-17,-9.E-17));
#1393 = ADVANCED_FACE('',(#1394),#1400,.F.);
#1394 = FACE_BOUND('',#1395,.F.);
#1395 = EDGE_LOOP('',(#1396,#1397,#1398,#1399));
#1396 = ORIENTED_EDGE('',*,*,#1083,.T.);
#1397 = ORIENTED_EDGE('',*,*,#1171,.T.);
#1398 = ORIENTED_EDGE('',*,*,#1141,.T.);
#1399 = ORIENTED_EDGE('',*,*,#1299,.T.);
#1400 = PLANE('',#1401);
#1401 = AXIS2_PLACEMENT_3D('',#1402,#1403,#1404);
#1402 = CARTESIAN_POINT('',(13.09093,-141.6,101.86745305066));
#1403 = DIRECTION('',(0.,1.,0.));
#1404 = DIRECTION('',(1.,0.,0.));
#1405 = ( GEOMETRIC_REPRESENTATION_CONTEXT(3) 
GLOBAL_UNCERTAINTY_ASSIGNED_CONTEXT((#1409)) 
GLOBAL_UNIT_ASSIGNED_CONTEXT((#1406,#1407,#1408)) REPRESENTATION_CONTEXT
('Context #1','3D Context with UNIT and UNCERTAINTY') );
#1406 = ( LENGTH_UNIT() NAMED_UNIT(*) SI_UNIT(.MILLI.,.METRE.) );
#1407 = ( NAMED_UNIT(*) PLANE_ANGLE_UNIT() SI_UNIT($,.RADIAN.) );
#1408 = ( NAMED_UNIT(*) SI_UNIT($,.STERADIAN.) SOLID_ANGLE_UNIT() );
#1409 = UNCERTAINTY_MEASURE_WITH_UNIT(LENGTH_MEASURE(1.E-05),#1406,
  'distance_accuracy_value','confusion accuracy');
#1410 = PRODUCT_RELATED_PRODUCT_CATEGORY('part',$,(#7));
ENDSEC;
END-ISO-10303-21;
