ISO-10303-21;
HEADER;
FILE_DESCRIPTION(('FreeCAD Model'),'2;1');
FILE_NAME('Open CASCADE Shape Model','2026-08-28T13:04:05',('FreeCAD'),(
    'FreeCAD'),'Open CASCADE STEP processor 7.8','FreeCAD','Unknown');
FILE_SCHEMA(('AUTOMOTIVE_DESIGN { 1 0 10303 214 1 1 1 1 }'));
ENDSEC;
DATA;
#1 = APPLICATION_PROTOCOL_DEFINITION('international standard',
  'automotive_design',2000,#2);
#2 = APPLICATION_CONTEXT(
  'core data for automotive mechanical design processes');
#3 = SHAPE_DEFINITION_REPRESENTATION(#4,#10);
#4 = PRODUCT_DEFINITION_SHAPE('','',#5);
#5 = PRODUCT_DEFINITION('design','',#6,#9);
#6 = PRODUCT_DEFINITION_FORMATION('','',#7);
#7 = PRODUCT('Open CASCADE STEP translator 7.8 52',
  'Open CASCADE STEP translator 7.8 52','',(#8));
#8 = PRODUCT_CONTEXT('',#2,'mechanical');
#9 = PRODUCT_DEFINITION_CONTEXT('part definition',#2,'design');
#10 = ADVANCED_BREP_SHAPE_REPRESENTATION('',(#11,#15),#705);
#11 = AXIS2_PLACEMENT_3D('',#12,#13,#14);
#12 = CARTESIAN_POINT('',(0.,0.,0.));
#13 = DIRECTION('',(0.,0.,1.));
#14 = DIRECTION('',(1.,0.,-0.));
#15 = MANIFOLD_SOLID_BREP('',#16);
#16 = CLOSED_SHELL('',(#17,#89,#200,#224,#234,#345,#388,#437,#461,#471,
    #495,#505,#529,#539,#563,#573,#598,#659,#673,#689));
#17 = ADVANCED_FACE('',(#18),#84,.F.);
#18 = FACE_BOUND('',#19,.F.);
#19 = EDGE_LOOP('',(#20,#30,#38,#46,#54,#62,#70,#78));
#20 = ORIENTED_EDGE('',*,*,#21,.F.);
#21 = EDGE_CURVE('',#22,#24,#26,.T.);
#22 = VERTEX_POINT('',#23);
#23 = CARTESIAN_POINT('',(7.5,-9.999999999996,0.));
#24 = VERTEX_POINT('',#25);
#25 = CARTESIAN_POINT('',(7.5,9.999999999995,0.));
#26 = LINE('',#27,#28);
#27 = CARTESIAN_POINT('',(7.5,-9.999999999996,0.));
#28 = VECTOR('',#29,1.);
#29 = DIRECTION('',(0.,1.,0.));
#30 = ORIENTED_EDGE('',*,*,#31,.T.);
#31 = EDGE_CURVE('',#22,#32,#34,.T.);
#32 = VERTEX_POINT('',#33);
#33 = CARTESIAN_POINT('',(7.5,-9.999999999996,6.));
#34 = LINE('',#35,#36);
#35 = CARTESIAN_POINT('',(7.5,-9.999999999996,0.));
#36 = VECTOR('',#37,1.);
#37 = DIRECTION('',(0.,0.,1.));
#38 = ORIENTED_EDGE('',*,*,#39,.T.);
#39 = EDGE_CURVE('',#32,#40,#42,.T.);
#40 = VERTEX_POINT('',#41);
#41 = CARTESIAN_POINT('',(7.5,9.999999999995,6.));
#42 = LINE('',#43,#44);
#43 = CARTESIAN_POINT('',(7.5,-9.999999999996,6.));
#44 = VECTOR('',#45,1.);
#45 = DIRECTION('',(0.,1.,0.));
#46 = ORIENTED_EDGE('',*,*,#47,.F.);
#47 = EDGE_CURVE('',#48,#40,#50,.T.);
#48 = VERTEX_POINT('',#49);
#49 = CARTESIAN_POINT('',(7.5,9.999999999995,5.904737509656));
#50 = LINE('',#51,#52);
#51 = CARTESIAN_POINT('',(7.5,9.999999999995,0.));
#52 = VECTOR('',#53,1.);
#53 = DIRECTION('',(0.,0.,1.));
#54 = ORIENTED_EDGE('',*,*,#55,.F.);
#55 = EDGE_CURVE('',#56,#48,#58,.T.);
#56 = VERTEX_POINT('',#57);
#57 = CARTESIAN_POINT('',(7.5,-4.626E-12,5.904737509656));
#58 = LINE('',#59,#60);
#59 = CARTESIAN_POINT('',(7.5,9.999999999995,5.904737509656));
#60 = VECTOR('',#61,1.);
#61 = DIRECTION('',(0.,1.,-2.2E-16));
#62 = ORIENTED_EDGE('',*,*,#63,.T.);
#63 = EDGE_CURVE('',#56,#64,#66,.T.);
#64 = VERTEX_POINT('',#65);
#65 = CARTESIAN_POINT('',(7.5,-4.627E-12,9.52624903444E-02));
#66 = LINE('',#67,#68);
#67 = CARTESIAN_POINT('',(7.5,-4.6203E-12,1.500000000001));
#68 = VECTOR('',#69,1.);
#69 = DIRECTION('',(-0.,-2.5E-16,-1.));
#70 = ORIENTED_EDGE('',*,*,#71,.T.);
#71 = EDGE_CURVE('',#64,#72,#74,.T.);
#72 = VERTEX_POINT('',#73);
#73 = CARTESIAN_POINT('',(7.5,9.999999999995,9.526249034445E-02));
#74 = LINE('',#75,#76);
#75 = CARTESIAN_POINT('',(7.5,9.999999999995,9.52624903444E-02));
#76 = VECTOR('',#77,1.);
#77 = DIRECTION('',(0.,1.,-2.2E-16));
#78 = ORIENTED_EDGE('',*,*,#79,.F.);
#79 = EDGE_CURVE('',#24,#72,#80,.T.);
#80 = LINE('',#81,#82);
#81 = CARTESIAN_POINT('',(7.5,9.999999999995,0.));
#82 = VECTOR('',#83,1.);
#83 = DIRECTION('',(0.,0.,1.));
#84 = PLANE('',#85);
#85 = AXIS2_PLACEMENT_3D('',#86,#87,#88);
#86 = CARTESIAN_POINT('',(7.5,-9.999999999996,0.));
#87 = DIRECTION('',(-1.,0.,0.));
#88 = DIRECTION('',(0.,1.,0.));
#89 = ADVANCED_FACE('',(#90),#195,.F.);
#90 = FACE_BOUND('',#91,.F.);
#91 = EDGE_LOOP('',(#92,#102,#108,#109,#117,#125,#133,#141,#149,#157,
    #165,#173,#181,#189));
#92 = ORIENTED_EDGE('',*,*,#93,.F.);
#93 = EDGE_CURVE('',#94,#96,#98,.T.);
#94 = VERTEX_POINT('',#95);
#95 = CARTESIAN_POINT('',(1.500000000004,-9.999999999996,0.));
#96 = VERTEX_POINT('',#97);
#97 = CARTESIAN_POINT('',(-1.5,-10.,0.));
#98 = LINE('',#99,#100);
#99 = CARTESIAN_POINT('',(1.500000000004,-9.999999999996,0.));
#100 = VECTOR('',#101,1.);
#101 = DIRECTION('',(-1.,-3.00915E-12,0.));
#102 = ORIENTED_EDGE('',*,*,#103,.T.);
#103 = EDGE_CURVE('',#94,#22,#104,.T.);
#104 = LINE('',#105,#106);
#105 = CARTESIAN_POINT('',(1.500000000004,-9.999999999996,0.));
#106 = VECTOR('',#107,1.);
#107 = DIRECTION('',(1.,0.,0.));
#108 = ORIENTED_EDGE('',*,*,#21,.T.);
#109 = ORIENTED_EDGE('',*,*,#110,.T.);
#110 = EDGE_CURVE('',#24,#111,#113,.T.);
#111 = VERTEX_POINT('',#112);
#112 = CARTESIAN_POINT('',(7.395751311064,9.999999999995,-6.E-14));
#113 = LINE('',#114,#115);
#114 = CARTESIAN_POINT('',(7.5,9.999999999995,0.));
#115 = VECTOR('',#116,1.);
#116 = DIRECTION('',(-1.,0.,0.));
#117 = ORIENTED_EDGE('',*,*,#118,.F.);
#118 = EDGE_CURVE('',#119,#111,#121,.T.);
#119 = VERTEX_POINT('',#120);
#120 = CARTESIAN_POINT('',(7.395751311065,-4.627E-12,1.E-15));
#121 = LINE('',#122,#123);
#122 = CARTESIAN_POINT('',(7.395751311065,9.999999999995,0.));
#123 = VECTOR('',#124,1.);
#124 = DIRECTION('',(0.,1.,-2.2E-16));
#125 = ORIENTED_EDGE('',*,*,#126,.T.);
#126 = EDGE_CURVE('',#119,#127,#129,.T.);
#127 = VERTEX_POINT('',#128);
#128 = CARTESIAN_POINT('',(2.104248688935,-4.627E-12,0.));
#129 = LINE('',#130,#131);
#130 = CARTESIAN_POINT('',(-5.0287E-13,-4.62106E-12,0.));
#131 = VECTOR('',#132,1.);
#132 = DIRECTION('',(-1.,0.,0.));
#133 = ORIENTED_EDGE('',*,*,#134,.T.);
#134 = EDGE_CURVE('',#127,#135,#137,.T.);
#135 = VERTEX_POINT('',#136);
#136 = CARTESIAN_POINT('',(2.104248688935,9.999999999995,-2.1E-14));
#137 = LINE('',#138,#139);
#138 = CARTESIAN_POINT('',(2.104248688935,9.999999999995,0.));
#139 = VECTOR('',#140,1.);
#140 = DIRECTION('',(0.,1.,-2.2E-16));
#141 = ORIENTED_EDGE('',*,*,#142,.T.);
#142 = EDGE_CURVE('',#135,#143,#145,.T.);
#143 = VERTEX_POINT('',#144);
#144 = CARTESIAN_POINT('',(-2.104248688935,9.999999999995,3.2E-14));
#145 = LINE('',#146,#147);
#146 = CARTESIAN_POINT('',(7.5,9.999999999995,0.));
#147 = VECTOR('',#148,1.);
#148 = DIRECTION('',(-1.,0.,0.));
#149 = ORIENTED_EDGE('',*,*,#150,.F.);
#150 = EDGE_CURVE('',#151,#143,#153,.T.);
#151 = VERTEX_POINT('',#152);
#152 = CARTESIAN_POINT('',(-2.104248688935,-4.627E-12,1.E-15));
#153 = LINE('',#154,#155);
#154 = CARTESIAN_POINT('',(-2.104248688935,9.999999999995,0.));
#155 = VECTOR('',#156,1.);
#156 = DIRECTION('',(0.,1.,-2.2E-16));
#157 = ORIENTED_EDGE('',*,*,#158,.T.);
#158 = EDGE_CURVE('',#151,#159,#161,.T.);
#159 = VERTEX_POINT('',#160);
#160 = CARTESIAN_POINT('',(-7.395751311065,-4.627E-12,0.));
#161 = LINE('',#162,#163);
#162 = CARTESIAN_POINT('',(-5.0287E-13,-4.62106E-12,0.));
#163 = VECTOR('',#164,1.);
#164 = DIRECTION('',(-1.,0.,0.));
#165 = ORIENTED_EDGE('',*,*,#166,.T.);
#166 = EDGE_CURVE('',#159,#167,#169,.T.);
#167 = VERTEX_POINT('',#168);
#168 = CARTESIAN_POINT('',(-7.395751311064,9.999999999995,-4.1E-14));
#169 = LINE('',#170,#171);
#170 = CARTESIAN_POINT('',(-7.395751311065,9.999999999995,0.));
#171 = VECTOR('',#172,1.);
#172 = DIRECTION('',(0.,1.,-2.2E-16));
#173 = ORIENTED_EDGE('',*,*,#174,.T.);
#174 = EDGE_CURVE('',#167,#175,#177,.T.);
#175 = VERTEX_POINT('',#176);
#176 = CARTESIAN_POINT('',(-7.5,9.999999999995,0.));
#177 = LINE('',#178,#179);
#178 = CARTESIAN_POINT('',(7.5,9.999999999995,0.));
#179 = VECTOR('',#180,1.);
#180 = DIRECTION('',(-1.,0.,0.));
#181 = ORIENTED_EDGE('',*,*,#182,.T.);
#182 = EDGE_CURVE('',#175,#183,#185,.T.);
#183 = VERTEX_POINT('',#184);
#184 = CARTESIAN_POINT('',(-7.5,-10.,0.));
#185 = LINE('',#186,#187);
#186 = CARTESIAN_POINT('',(-7.5,9.999999999995,0.));
#187 = VECTOR('',#188,1.);
#188 = DIRECTION('',(0.,-1.,0.));
#189 = ORIENTED_EDGE('',*,*,#190,.T.);
#190 = EDGE_CURVE('',#183,#96,#191,.T.);
#191 = LINE('',#192,#193);
#192 = CARTESIAN_POINT('',(-7.5,-10.,0.));
#193 = VECTOR('',#194,1.);
#194 = DIRECTION('',(1.,0.,0.));
#195 = PLANE('',#196);
#196 = AXIS2_PLACEMENT_3D('',#197,#198,#199);
#197 = CARTESIAN_POINT('',(-1.00933E-12,-2.37029E-12,0.));
#198 = DIRECTION('',(0.,0.,1.));
#199 = DIRECTION('',(1.,0.,0.));
#200 = ADVANCED_FACE('',(#201),#219,.T.);
#201 = FACE_BOUND('',#202,.T.);
#202 = EDGE_LOOP('',(#203,#210,#211,#218));
#203 = ORIENTED_EDGE('',*,*,#204,.F.);
#204 = EDGE_CURVE('',#48,#72,#205,.T.);
#205 = CIRCLE('',#206,4.);
#206 = AXIS2_PLACEMENT_3D('',#207,#208,#209);
#207 = CARTESIAN_POINT('',(4.75,9.999999999995,3.));
#208 = DIRECTION('',(0.,1.,-0.));
#209 = DIRECTION('',(-1.,0.,0.));
#210 = ORIENTED_EDGE('',*,*,#55,.F.);
#211 = ORIENTED_EDGE('',*,*,#212,.T.);
#212 = EDGE_CURVE('',#56,#64,#213,.T.);
#213 = CIRCLE('',#214,4.);
#214 = AXIS2_PLACEMENT_3D('',#215,#216,#217);
#215 = CARTESIAN_POINT('',(4.75,-4.627409566638E-12,3.));
#216 = DIRECTION('',(0.,1.,-0.));
#217 = DIRECTION('',(-1.,0.,0.));
#218 = ORIENTED_EDGE('',*,*,#71,.T.);
#219 = CYLINDRICAL_SURFACE('',#220,4.);
#220 = AXIS2_PLACEMENT_3D('',#221,#222,#223);
#221 = CARTESIAN_POINT('',(4.75,9.999999999995,3.));
#222 = DIRECTION('',(0.,1.,-2.2E-16));
#223 = DIRECTION('',(-1.,0.,0.));
#224 = ADVANCED_FACE('',(#225),#229,.F.);
#225 = FACE_BOUND('',#226,.F.);
#226 = EDGE_LOOP('',(#227,#228));
#227 = ORIENTED_EDGE('',*,*,#63,.F.);
#228 = ORIENTED_EDGE('',*,*,#212,.T.);
#229 = PLANE('',#230);
#230 = AXIS2_PLACEMENT_3D('',#231,#232,#233);
#231 = CARTESIAN_POINT('',(3.58E-15,-4.62030413928E-12,3.000000000003));
#232 = DIRECTION('',(0.,1.,-2.5E-16));
#233 = DIRECTION('',(0.,2.5E-16,1.));
#234 = ADVANCED_FACE('',(#235),#340,.T.);
#235 = FACE_BOUND('',#236,.T.);
#236 = EDGE_LOOP('',(#237,#247,#253,#254,#262,#270,#278,#286,#294,#302,
    #310,#318,#326,#334));
#237 = ORIENTED_EDGE('',*,*,#238,.F.);
#238 = EDGE_CURVE('',#239,#241,#243,.T.);
#239 = VERTEX_POINT('',#240);
#240 = CARTESIAN_POINT('',(1.500000000004,-9.999999999996,6.));
#241 = VERTEX_POINT('',#242);
#242 = CARTESIAN_POINT('',(-1.5,-10.,6.));
#243 = LINE('',#244,#245);
#244 = CARTESIAN_POINT('',(1.500000000004,-9.999999999996,6.));
#245 = VECTOR('',#246,1.);
#246 = DIRECTION('',(-1.,-3.00915E-12,0.));
#247 = ORIENTED_EDGE('',*,*,#248,.T.);
#248 = EDGE_CURVE('',#239,#32,#249,.T.);
#249 = LINE('',#250,#251);
#250 = CARTESIAN_POINT('',(1.500000000004,-9.999999999996,6.));
#251 = VECTOR('',#252,1.);
#252 = DIRECTION('',(1.,0.,0.));
#253 = ORIENTED_EDGE('',*,*,#39,.T.);
#254 = ORIENTED_EDGE('',*,*,#255,.T.);
#255 = EDGE_CURVE('',#40,#256,#258,.T.);
#256 = VERTEX_POINT('',#257);
#257 = CARTESIAN_POINT('',(7.395751311064,9.999999999995,6.));
#258 = LINE('',#259,#260);
#259 = CARTESIAN_POINT('',(7.5,9.999999999995,6.));
#260 = VECTOR('',#261,1.);
#261 = DIRECTION('',(-1.,0.,0.));
#262 = ORIENTED_EDGE('',*,*,#263,.F.);
#263 = EDGE_CURVE('',#264,#256,#266,.T.);
#264 = VERTEX_POINT('',#265);
#265 = CARTESIAN_POINT('',(7.395751311065,-4.626E-12,6.));
#266 = LINE('',#267,#268);
#267 = CARTESIAN_POINT('',(7.395751311065,9.999999999995,6.));
#268 = VECTOR('',#269,1.);
#269 = DIRECTION('',(0.,1.,-2.2E-16));
#270 = ORIENTED_EDGE('',*,*,#271,.T.);
#271 = EDGE_CURVE('',#264,#272,#274,.T.);
#272 = VERTEX_POINT('',#273);
#273 = CARTESIAN_POINT('',(2.104248688935,-4.626E-12,6.));
#274 = LINE('',#275,#276);
#275 = CARTESIAN_POINT('',(-5.0287E-13,-4.61955E-12,6.));
#276 = VECTOR('',#277,1.);
#277 = DIRECTION('',(-1.,0.,0.));
#278 = ORIENTED_EDGE('',*,*,#279,.T.);
#279 = EDGE_CURVE('',#272,#280,#282,.T.);
#280 = VERTEX_POINT('',#281);
#281 = CARTESIAN_POINT('',(2.104248688935,9.999999999995,6.));
#282 = LINE('',#283,#284);
#283 = CARTESIAN_POINT('',(2.104248688935,9.999999999995,6.));
#284 = VECTOR('',#285,1.);
#285 = DIRECTION('',(0.,1.,-2.2E-16));
#286 = ORIENTED_EDGE('',*,*,#287,.T.);
#287 = EDGE_CURVE('',#280,#288,#290,.T.);
#288 = VERTEX_POINT('',#289);
#289 = CARTESIAN_POINT('',(-2.104248688935,9.999999999995,6.));
#290 = LINE('',#291,#292);
#291 = CARTESIAN_POINT('',(7.5,9.999999999995,6.));
#292 = VECTOR('',#293,1.);
#293 = DIRECTION('',(-1.,0.,0.));
#294 = ORIENTED_EDGE('',*,*,#295,.F.);
#295 = EDGE_CURVE('',#296,#288,#298,.T.);
#296 = VERTEX_POINT('',#297);
#297 = CARTESIAN_POINT('',(-2.104248688935,-4.626E-12,6.));
#298 = LINE('',#299,#300);
#299 = CARTESIAN_POINT('',(-2.104248688935,9.999999999995,6.));
#300 = VECTOR('',#301,1.);
#301 = DIRECTION('',(0.,1.,-2.2E-16));
#302 = ORIENTED_EDGE('',*,*,#303,.T.);
#303 = EDGE_CURVE('',#296,#304,#306,.T.);
#304 = VERTEX_POINT('',#305);
#305 = CARTESIAN_POINT('',(-7.395751311065,-4.626E-12,6.));
#306 = LINE('',#307,#308);
#307 = CARTESIAN_POINT('',(-5.0287E-13,-4.61955E-12,6.));
#308 = VECTOR('',#309,1.);
#309 = DIRECTION('',(-1.,0.,0.));
#310 = ORIENTED_EDGE('',*,*,#311,.T.);
#311 = EDGE_CURVE('',#304,#312,#314,.T.);
#312 = VERTEX_POINT('',#313);
#313 = CARTESIAN_POINT('',(-7.395751311065,9.999999999995,6.));
#314 = LINE('',#315,#316);
#315 = CARTESIAN_POINT('',(-7.395751311065,9.999999999995,6.));
#316 = VECTOR('',#317,1.);
#317 = DIRECTION('',(0.,1.,-2.2E-16));
#318 = ORIENTED_EDGE('',*,*,#319,.T.);
#319 = EDGE_CURVE('',#312,#320,#322,.T.);
#320 = VERTEX_POINT('',#321);
#321 = CARTESIAN_POINT('',(-7.5,9.999999999995,6.));
#322 = LINE('',#323,#324);
#323 = CARTESIAN_POINT('',(7.5,9.999999999995,6.));
#324 = VECTOR('',#325,1.);
#325 = DIRECTION('',(-1.,0.,0.));
#326 = ORIENTED_EDGE('',*,*,#327,.T.);
#327 = EDGE_CURVE('',#320,#328,#330,.T.);
#328 = VERTEX_POINT('',#329);
#329 = CARTESIAN_POINT('',(-7.5,-10.,6.));
#330 = LINE('',#331,#332);
#331 = CARTESIAN_POINT('',(-7.5,9.999999999995,6.));
#332 = VECTOR('',#333,1.);
#333 = DIRECTION('',(0.,-1.,0.));
#334 = ORIENTED_EDGE('',*,*,#335,.T.);
#335 = EDGE_CURVE('',#328,#241,#336,.T.);
#336 = LINE('',#337,#338);
#337 = CARTESIAN_POINT('',(-7.5,-10.,6.));
#338 = VECTOR('',#339,1.);
#339 = DIRECTION('',(1.,0.,0.));
#340 = PLANE('',#341);
#341 = AXIS2_PLACEMENT_3D('',#342,#343,#344);
#342 = CARTESIAN_POINT('',(-1.00933E-12,-2.37029E-12,6.));
#343 = DIRECTION('',(0.,0.,1.));
#344 = DIRECTION('',(1.,0.,0.));
#345 = ADVANCED_FACE('',(#346,#361,#372),#383,.T.);
#346 = FACE_BOUND('',#347,.T.);
#347 = EDGE_LOOP('',(#348,#349,#350,#351,#352,#358,#359,#360));
#348 = ORIENTED_EDGE('',*,*,#31,.T.);
#349 = ORIENTED_EDGE('',*,*,#248,.F.);
#350 = ORIENTED_EDGE('',*,*,#238,.T.);
#351 = ORIENTED_EDGE('',*,*,#335,.F.);
#352 = ORIENTED_EDGE('',*,*,#353,.F.);
#353 = EDGE_CURVE('',#183,#328,#354,.T.);
#354 = LINE('',#355,#356);
#355 = CARTESIAN_POINT('',(-7.5,-10.,0.));
#356 = VECTOR('',#357,1.);
#357 = DIRECTION('',(0.,0.,1.));
#358 = ORIENTED_EDGE('',*,*,#190,.T.);
#359 = ORIENTED_EDGE('',*,*,#93,.F.);
#360 = ORIENTED_EDGE('',*,*,#103,.T.);
#361 = FACE_BOUND('',#362,.T.);
#362 = EDGE_LOOP('',(#363));
#363 = ORIENTED_EDGE('',*,*,#364,.T.);
#364 = EDGE_CURVE('',#365,#365,#367,.T.);
#365 = VERTEX_POINT('',#366);
#366 = CARTESIAN_POINT('',(3.6,-9.999999999998,3.000000000013));
#367 = CIRCLE('',#368,1.15);
#368 = AXIS2_PLACEMENT_3D('',#369,#370,#371);
#369 = CARTESIAN_POINT('',(4.75,-9.999999999997,3.000000000013));
#370 = DIRECTION('',(0.,1.,-2.2E-16));
#371 = DIRECTION('',(-1.,0.,0.));
#372 = FACE_BOUND('',#373,.T.);
#373 = EDGE_LOOP('',(#374));
#374 = ORIENTED_EDGE('',*,*,#375,.T.);
#375 = EDGE_CURVE('',#376,#376,#378,.T.);
#376 = VERTEX_POINT('',#377);
#377 = CARTESIAN_POINT('',(-5.9,-10.,3.000000000013));
#378 = CIRCLE('',#379,1.15);
#379 = AXIS2_PLACEMENT_3D('',#380,#381,#382);
#380 = CARTESIAN_POINT('',(-4.75,-10.,3.000000000013));
#381 = DIRECTION('',(0.,1.,-2.2E-16));
#382 = DIRECTION('',(-1.,0.,0.));
#383 = PLANE('',#384);
#384 = AXIS2_PLACEMENT_3D('',#385,#386,#387);
#385 = CARTESIAN_POINT('',(-4.272E-14,-10.,3.));
#386 = DIRECTION('',(6.7195E-13,-1.,0.));
#387 = DIRECTION('',(-1.,-6.7195E-13,0.));
#388 = ADVANCED_FACE('',(#389),#432,.F.);
#389 = FACE_BOUND('',#390,.F.);
#390 = EDGE_LOOP('',(#391,#392,#400,#408,#416,#424,#430,#431));
#391 = ORIENTED_EDGE('',*,*,#182,.F.);
#392 = ORIENTED_EDGE('',*,*,#393,.T.);
#393 = EDGE_CURVE('',#175,#394,#396,.T.);
#394 = VERTEX_POINT('',#395);
#395 = CARTESIAN_POINT('',(-7.5,9.999999999995,9.526249034431E-02));
#396 = LINE('',#397,#398);
#397 = CARTESIAN_POINT('',(-7.5,9.999999999995,0.));
#398 = VECTOR('',#399,1.);
#399 = DIRECTION('',(0.,0.,1.));
#400 = ORIENTED_EDGE('',*,*,#401,.F.);
#401 = EDGE_CURVE('',#402,#394,#404,.T.);
#402 = VERTEX_POINT('',#403);
#403 = CARTESIAN_POINT('',(-7.5,-4.627E-12,9.526249034448E-02));
#404 = LINE('',#405,#406);
#405 = CARTESIAN_POINT('',(-7.5,9.999999999995,9.526249034448E-02));
#406 = VECTOR('',#407,1.);
#407 = DIRECTION('',(0.,1.,-2.2E-16));
#408 = ORIENTED_EDGE('',*,*,#409,.T.);
#409 = EDGE_CURVE('',#402,#410,#412,.T.);
#410 = VERTEX_POINT('',#411);
#411 = CARTESIAN_POINT('',(-7.5,-4.626E-12,5.904737509656));
#412 = LINE('',#413,#414);
#413 = CARTESIAN_POINT('',(-7.5,-4.6203E-12,1.500000000001));
#414 = VECTOR('',#415,1.);
#415 = DIRECTION('',(0.,2.5E-16,1.));
#416 = ORIENTED_EDGE('',*,*,#417,.T.);
#417 = EDGE_CURVE('',#410,#418,#420,.T.);
#418 = VERTEX_POINT('',#419);
#419 = CARTESIAN_POINT('',(-7.5,9.999999999995,5.904737509656));
#420 = LINE('',#421,#422);
#421 = CARTESIAN_POINT('',(-7.5,9.999999999995,5.904737509656));
#422 = VECTOR('',#423,1.);
#423 = DIRECTION('',(0.,1.,-2.2E-16));
#424 = ORIENTED_EDGE('',*,*,#425,.T.);
#425 = EDGE_CURVE('',#418,#320,#426,.T.);
#426 = LINE('',#427,#428);
#427 = CARTESIAN_POINT('',(-7.5,9.999999999995,0.));
#428 = VECTOR('',#429,1.);
#429 = DIRECTION('',(0.,0.,1.));
#430 = ORIENTED_EDGE('',*,*,#327,.T.);
#431 = ORIENTED_EDGE('',*,*,#353,.F.);
#432 = PLANE('',#433);
#433 = AXIS2_PLACEMENT_3D('',#434,#435,#436);
#434 = CARTESIAN_POINT('',(-7.5,9.999999999995,0.));
#435 = DIRECTION('',(1.,0.,0.));
#436 = DIRECTION('',(0.,-1.,0.));
#437 = ADVANCED_FACE('',(#438),#456,.T.);
#438 = FACE_BOUND('',#439,.T.);
#439 = EDGE_LOOP('',(#440,#441,#448,#449));
#440 = ORIENTED_EDGE('',*,*,#166,.T.);
#441 = ORIENTED_EDGE('',*,*,#442,.F.);
#442 = EDGE_CURVE('',#143,#167,#443,.T.);
#443 = CIRCLE('',#444,4.);
#444 = AXIS2_PLACEMENT_3D('',#445,#446,#447);
#445 = CARTESIAN_POINT('',(-4.75,9.999999999995,3.));
#446 = DIRECTION('',(0.,1.,-0.));
#447 = DIRECTION('',(-1.,0.,0.));
#448 = ORIENTED_EDGE('',*,*,#150,.F.);
#449 = ORIENTED_EDGE('',*,*,#450,.T.);
#450 = EDGE_CURVE('',#151,#159,#451,.T.);
#451 = CIRCLE('',#452,4.);
#452 = AXIS2_PLACEMENT_3D('',#453,#454,#455);
#453 = CARTESIAN_POINT('',(-4.75,-4.627409566638E-12,3.));
#454 = DIRECTION('',(0.,1.,-0.));
#455 = DIRECTION('',(-1.,0.,0.));
#456 = CYLINDRICAL_SURFACE('',#457,4.);
#457 = AXIS2_PLACEMENT_3D('',#458,#459,#460);
#458 = CARTESIAN_POINT('',(-4.75,9.999999999995,3.));
#459 = DIRECTION('',(0.,1.,-2.2E-16));
#460 = DIRECTION('',(-1.,0.,0.));
#461 = ADVANCED_FACE('',(#462),#466,.F.);
#462 = FACE_BOUND('',#463,.F.);
#463 = EDGE_LOOP('',(#464,#465));
#464 = ORIENTED_EDGE('',*,*,#450,.T.);
#465 = ORIENTED_EDGE('',*,*,#158,.F.);
#466 = PLANE('',#467);
#467 = AXIS2_PLACEMENT_3D('',#468,#469,#470);
#468 = CARTESIAN_POINT('',(3.58E-15,-4.62030413928E-12,3.000000000003));
#469 = DIRECTION('',(0.,1.,-2.5E-16));
#470 = DIRECTION('',(0.,2.5E-16,1.));
#471 = ADVANCED_FACE('',(#472),#490,.T.);
#472 = FACE_BOUND('',#473,.T.);
#473 = EDGE_LOOP('',(#474,#475,#482,#483));
#474 = ORIENTED_EDGE('',*,*,#134,.T.);
#475 = ORIENTED_EDGE('',*,*,#476,.F.);
#476 = EDGE_CURVE('',#111,#135,#477,.T.);
#477 = CIRCLE('',#478,4.);
#478 = AXIS2_PLACEMENT_3D('',#479,#480,#481);
#479 = CARTESIAN_POINT('',(4.75,9.999999999995,3.));
#480 = DIRECTION('',(0.,1.,-0.));
#481 = DIRECTION('',(-1.,0.,0.));
#482 = ORIENTED_EDGE('',*,*,#118,.F.);
#483 = ORIENTED_EDGE('',*,*,#484,.T.);
#484 = EDGE_CURVE('',#119,#127,#485,.T.);
#485 = CIRCLE('',#486,4.);
#486 = AXIS2_PLACEMENT_3D('',#487,#488,#489);
#487 = CARTESIAN_POINT('',(4.75,-4.627409566638E-12,3.));
#488 = DIRECTION('',(0.,1.,-0.));
#489 = DIRECTION('',(-1.,0.,0.));
#490 = CYLINDRICAL_SURFACE('',#491,4.);
#491 = AXIS2_PLACEMENT_3D('',#492,#493,#494);
#492 = CARTESIAN_POINT('',(4.75,9.999999999995,3.));
#493 = DIRECTION('',(0.,1.,-2.2E-16));
#494 = DIRECTION('',(-1.,0.,0.));
#495 = ADVANCED_FACE('',(#496),#500,.F.);
#496 = FACE_BOUND('',#497,.F.);
#497 = EDGE_LOOP('',(#498,#499));
#498 = ORIENTED_EDGE('',*,*,#484,.T.);
#499 = ORIENTED_EDGE('',*,*,#126,.F.);
#500 = PLANE('',#501);
#501 = AXIS2_PLACEMENT_3D('',#502,#503,#504);
#502 = CARTESIAN_POINT('',(3.58E-15,-4.62030413928E-12,3.000000000003));
#503 = DIRECTION('',(0.,1.,-2.5E-16));
#504 = DIRECTION('',(0.,2.5E-16,1.));
#505 = ADVANCED_FACE('',(#506),#524,.T.);
#506 = FACE_BOUND('',#507,.T.);
#507 = EDGE_LOOP('',(#508,#515,#516,#523));
#508 = ORIENTED_EDGE('',*,*,#509,.F.);
#509 = EDGE_CURVE('',#312,#288,#510,.T.);
#510 = CIRCLE('',#511,4.);
#511 = AXIS2_PLACEMENT_3D('',#512,#513,#514);
#512 = CARTESIAN_POINT('',(-4.75,9.999999999995,3.));
#513 = DIRECTION('',(0.,1.,-0.));
#514 = DIRECTION('',(-1.,0.,0.));
#515 = ORIENTED_EDGE('',*,*,#311,.F.);
#516 = ORIENTED_EDGE('',*,*,#517,.T.);
#517 = EDGE_CURVE('',#304,#296,#518,.T.);
#518 = CIRCLE('',#519,4.);
#519 = AXIS2_PLACEMENT_3D('',#520,#521,#522);
#520 = CARTESIAN_POINT('',(-4.75,-4.627409566638E-12,3.));
#521 = DIRECTION('',(0.,1.,-0.));
#522 = DIRECTION('',(-1.,0.,0.));
#523 = ORIENTED_EDGE('',*,*,#295,.T.);
#524 = CYLINDRICAL_SURFACE('',#525,4.);
#525 = AXIS2_PLACEMENT_3D('',#526,#527,#528);
#526 = CARTESIAN_POINT('',(-4.75,9.999999999995,3.));
#527 = DIRECTION('',(0.,1.,-2.2E-16));
#528 = DIRECTION('',(-1.,0.,0.));
#529 = ADVANCED_FACE('',(#530),#534,.F.);
#530 = FACE_BOUND('',#531,.F.);
#531 = EDGE_LOOP('',(#532,#533));
#532 = ORIENTED_EDGE('',*,*,#303,.T.);
#533 = ORIENTED_EDGE('',*,*,#517,.T.);
#534 = PLANE('',#535);
#535 = AXIS2_PLACEMENT_3D('',#536,#537,#538);
#536 = CARTESIAN_POINT('',(3.58E-15,-4.62030413928E-12,3.000000000003));
#537 = DIRECTION('',(0.,1.,-2.5E-16));
#538 = DIRECTION('',(0.,2.5E-16,1.));
#539 = ADVANCED_FACE('',(#540),#558,.T.);
#540 = FACE_BOUND('',#541,.T.);
#541 = EDGE_LOOP('',(#542,#549,#550,#557));
#542 = ORIENTED_EDGE('',*,*,#543,.F.);
#543 = EDGE_CURVE('',#280,#256,#544,.T.);
#544 = CIRCLE('',#545,4.);
#545 = AXIS2_PLACEMENT_3D('',#546,#547,#548);
#546 = CARTESIAN_POINT('',(4.75,9.999999999995,3.));
#547 = DIRECTION('',(0.,1.,-0.));
#548 = DIRECTION('',(-1.,0.,0.));
#549 = ORIENTED_EDGE('',*,*,#279,.F.);
#550 = ORIENTED_EDGE('',*,*,#551,.T.);
#551 = EDGE_CURVE('',#272,#264,#552,.T.);
#552 = CIRCLE('',#553,4.);
#553 = AXIS2_PLACEMENT_3D('',#554,#555,#556);
#554 = CARTESIAN_POINT('',(4.75,-4.627409566638E-12,3.));
#555 = DIRECTION('',(0.,1.,-0.));
#556 = DIRECTION('',(-1.,0.,0.));
#557 = ORIENTED_EDGE('',*,*,#263,.T.);
#558 = CYLINDRICAL_SURFACE('',#559,4.);
#559 = AXIS2_PLACEMENT_3D('',#560,#561,#562);
#560 = CARTESIAN_POINT('',(4.75,9.999999999995,3.));
#561 = DIRECTION('',(0.,1.,-2.2E-16));
#562 = DIRECTION('',(-1.,0.,0.));
#563 = ADVANCED_FACE('',(#564),#568,.F.);
#564 = FACE_BOUND('',#565,.F.);
#565 = EDGE_LOOP('',(#566,#567));
#566 = ORIENTED_EDGE('',*,*,#271,.T.);
#567 = ORIENTED_EDGE('',*,*,#551,.T.);
#568 = PLANE('',#569);
#569 = AXIS2_PLACEMENT_3D('',#570,#571,#572);
#570 = CARTESIAN_POINT('',(3.58E-15,-4.62030413928E-12,3.000000000003));
#571 = DIRECTION('',(0.,1.,-2.5E-16));
#572 = DIRECTION('',(0.,2.5E-16,1.));
#573 = ADVANCED_FACE('',(#574),#593,.F.);
#574 = FACE_BOUND('',#575,.F.);
#575 = EDGE_LOOP('',(#576,#585,#592));
#576 = ORIENTED_EDGE('',*,*,#577,.T.);
#577 = EDGE_CURVE('',#402,#578,#580,.T.);
#578 = VERTEX_POINT('',#579);
#579 = CARTESIAN_POINT('',(-8.75,-4.627E-12,3.));
#580 = CIRCLE('',#581,4.);
#581 = AXIS2_PLACEMENT_3D('',#582,#583,#584);
#582 = CARTESIAN_POINT('',(-4.75,-4.627409566638E-12,3.));
#583 = DIRECTION('',(0.,1.,-0.));
#584 = DIRECTION('',(-1.,0.,0.));
#585 = ORIENTED_EDGE('',*,*,#586,.T.);
#586 = EDGE_CURVE('',#578,#410,#587,.T.);
#587 = CIRCLE('',#588,4.);
#588 = AXIS2_PLACEMENT_3D('',#589,#590,#591);
#589 = CARTESIAN_POINT('',(-4.75,-4.627409566638E-12,3.));
#590 = DIRECTION('',(0.,1.,-0.));
#591 = DIRECTION('',(-1.,0.,0.));
#592 = ORIENTED_EDGE('',*,*,#409,.F.);
#593 = PLANE('',#594);
#594 = AXIS2_PLACEMENT_3D('',#595,#596,#597);
#595 = CARTESIAN_POINT('',(3.58E-15,-4.62030413928E-12,3.000000000003));
#596 = DIRECTION('',(0.,1.,-2.5E-16));
#597 = DIRECTION('',(0.,2.5E-16,1.));
#598 = ADVANCED_FACE('',(#599,#632,#643),#654,.T.);
#599 = FACE_BOUND('',#600,.T.);
#600 = EDGE_LOOP('',(#601,#602,#603,#604,#605,#606,#607,#616,#623,#624,
    #625,#626,#627,#628,#629,#630,#631));
#601 = ORIENTED_EDGE('',*,*,#110,.T.);
#602 = ORIENTED_EDGE('',*,*,#476,.T.);
#603 = ORIENTED_EDGE('',*,*,#142,.T.);
#604 = ORIENTED_EDGE('',*,*,#442,.T.);
#605 = ORIENTED_EDGE('',*,*,#174,.T.);
#606 = ORIENTED_EDGE('',*,*,#393,.T.);
#607 = ORIENTED_EDGE('',*,*,#608,.T.);
#608 = EDGE_CURVE('',#394,#609,#611,.T.);
#609 = VERTEX_POINT('',#610);
#610 = CARTESIAN_POINT('',(-8.75,9.999999999995,3.));
#611 = CIRCLE('',#612,4.);
#612 = AXIS2_PLACEMENT_3D('',#613,#614,#615);
#613 = CARTESIAN_POINT('',(-4.75,9.999999999995,3.));
#614 = DIRECTION('',(0.,1.,-0.));
#615 = DIRECTION('',(-1.,0.,0.));
#616 = ORIENTED_EDGE('',*,*,#617,.T.);
#617 = EDGE_CURVE('',#609,#418,#618,.T.);
#618 = CIRCLE('',#619,4.);
#619 = AXIS2_PLACEMENT_3D('',#620,#621,#622);
#620 = CARTESIAN_POINT('',(-4.75,9.999999999995,3.));
#621 = DIRECTION('',(0.,1.,-0.));
#622 = DIRECTION('',(-1.,0.,0.));
#623 = ORIENTED_EDGE('',*,*,#425,.T.);
#624 = ORIENTED_EDGE('',*,*,#319,.F.);
#625 = ORIENTED_EDGE('',*,*,#509,.T.);
#626 = ORIENTED_EDGE('',*,*,#287,.F.);
#627 = ORIENTED_EDGE('',*,*,#543,.T.);
#628 = ORIENTED_EDGE('',*,*,#255,.F.);
#629 = ORIENTED_EDGE('',*,*,#47,.F.);
#630 = ORIENTED_EDGE('',*,*,#204,.T.);
#631 = ORIENTED_EDGE('',*,*,#79,.F.);
#632 = FACE_BOUND('',#633,.T.);
#633 = EDGE_LOOP('',(#634));
#634 = ORIENTED_EDGE('',*,*,#635,.F.);
#635 = EDGE_CURVE('',#636,#636,#638,.T.);
#636 = VERTEX_POINT('',#637);
#637 = CARTESIAN_POINT('',(3.6,9.999999999995,3.000000000013));
#638 = CIRCLE('',#639,1.15);
#639 = AXIS2_PLACEMENT_3D('',#640,#641,#642);
#640 = CARTESIAN_POINT('',(4.75,9.999999999995,3.000000000013));
#641 = DIRECTION('',(0.,1.,-2.2E-16));
#642 = DIRECTION('',(-1.,0.,0.));
#643 = FACE_BOUND('',#644,.T.);
#644 = EDGE_LOOP('',(#645));
#645 = ORIENTED_EDGE('',*,*,#646,.F.);
#646 = EDGE_CURVE('',#647,#647,#649,.T.);
#647 = VERTEX_POINT('',#648);
#648 = CARTESIAN_POINT('',(-5.9,9.999999999995,3.000000000013));
#649 = CIRCLE('',#650,1.15);
#650 = AXIS2_PLACEMENT_3D('',#651,#652,#653);
#651 = CARTESIAN_POINT('',(-4.75,9.999999999995,3.000000000013));
#652 = DIRECTION('',(0.,1.,-2.2E-16));
#653 = DIRECTION('',(-1.,0.,0.));
#654 = PLANE('',#655);
#655 = AXIS2_PLACEMENT_3D('',#656,#657,#658);
#656 = CARTESIAN_POINT('',(-2.03617343658E-02,9.999999999995,3.));
#657 = DIRECTION('',(0.,1.,0.));
#658 = DIRECTION('',(0.,0.,1.));
#659 = ADVANCED_FACE('',(#660),#668,.T.);
#660 = FACE_BOUND('',#661,.T.);
#661 = EDGE_LOOP('',(#662,#663,#664,#665,#666,#667));
#662 = ORIENTED_EDGE('',*,*,#608,.F.);
#663 = ORIENTED_EDGE('',*,*,#401,.F.);
#664 = ORIENTED_EDGE('',*,*,#577,.T.);
#665 = ORIENTED_EDGE('',*,*,#586,.T.);
#666 = ORIENTED_EDGE('',*,*,#417,.T.);
#667 = ORIENTED_EDGE('',*,*,#617,.F.);
#668 = CYLINDRICAL_SURFACE('',#669,4.);
#669 = AXIS2_PLACEMENT_3D('',#670,#671,#672);
#670 = CARTESIAN_POINT('',(-4.75,9.999999999995,3.));
#671 = DIRECTION('',(0.,1.,-2.2E-16));
#672 = DIRECTION('',(-1.,0.,0.));
#673 = ADVANCED_FACE('',(#674),#684,.F.);
#674 = FACE_BOUND('',#675,.F.);
#675 = EDGE_LOOP('',(#676,#677,#682,#683));
#676 = ORIENTED_EDGE('',*,*,#635,.F.);
#677 = ORIENTED_EDGE('',*,*,#678,.F.);
#678 = EDGE_CURVE('',#365,#636,#679,.T.);
#679 = B_SPLINE_CURVE_WITH_KNOTS('',1,(#680,#681),.UNSPECIFIED.,.F.,.F.,
  (2,2),(-19.99999999999,0.),.PIECEWISE_BEZIER_KNOTS.);
#680 = CARTESIAN_POINT('',(3.6,-9.999999999997,3.000000000013));
#681 = CARTESIAN_POINT('',(3.6,9.999999999995,3.000000000013));
#682 = ORIENTED_EDGE('',*,*,#364,.T.);
#683 = ORIENTED_EDGE('',*,*,#678,.T.);
#684 = CYLINDRICAL_SURFACE('',#685,1.15);
#685 = AXIS2_PLACEMENT_3D('',#686,#687,#688);
#686 = CARTESIAN_POINT('',(4.75,9.999999999995,3.000000000013));
#687 = DIRECTION('',(0.,1.,-2.2E-16));
#688 = DIRECTION('',(-1.,0.,0.));
#689 = ADVANCED_FACE('',(#690),#700,.F.);
#690 = FACE_BOUND('',#691,.F.);
#691 = EDGE_LOOP('',(#692,#693,#698,#699));
#692 = ORIENTED_EDGE('',*,*,#646,.F.);
#693 = ORIENTED_EDGE('',*,*,#694,.F.);
#694 = EDGE_CURVE('',#376,#647,#695,.T.);
#695 = B_SPLINE_CURVE_WITH_KNOTS('',1,(#696,#697),.UNSPECIFIED.,.F.,.F.,
  (2,2),(-19.99999999999,0.),.PIECEWISE_BEZIER_KNOTS.);
#696 = CARTESIAN_POINT('',(-5.9,-10.,3.000000000013));
#697 = CARTESIAN_POINT('',(-5.9,9.999999999995,3.000000000013));
#698 = ORIENTED_EDGE('',*,*,#375,.T.);
#699 = ORIENTED_EDGE('',*,*,#694,.T.);
#700 = CYLINDRICAL_SURFACE('',#701,1.15);
#701 = AXIS2_PLACEMENT_3D('',#702,#703,#704);
#702 = CARTESIAN_POINT('',(-4.75,9.999999999995,3.000000000013));
#703 = DIRECTION('',(0.,1.,-2.2E-16));
#704 = DIRECTION('',(-1.,0.,0.));
#705 = ( GEOMETRIC_REPRESENTATION_CONTEXT(3) 
GLOBAL_UNCERTAINTY_ASSIGNED_CONTEXT((#709)) GLOBAL_UNIT_ASSIGNED_CONTEXT
((#706,#707,#708)) REPRESENTATION_CONTEXT('Context #1',
  '3D Context with UNIT and UNCERTAINTY') );
#706 = ( LENGTH_UNIT() NAMED_UNIT(*) SI_UNIT(.MILLI.,.METRE.) );
#707 = ( NAMED_UNIT(*) PLANE_ANGLE_UNIT() SI_UNIT($,.RADIAN.) );
#708 = ( NAMED_UNIT(*) SI_UNIT($,.STERADIAN.) SOLID_ANGLE_UNIT() );
#709 = UNCERTAINTY_MEASURE_WITH_UNIT(LENGTH_MEASURE(5.E-06),#706,
  'distance_accuracy_value','confusion accuracy');
#710 = PRODUCT_RELATED_PRODUCT_CATEGORY('part',$,(#7));
ENDSEC;
END-ISO-10303-21;
