ISO-10303-21;
HEADER;
FILE_DESCRIPTION(('FreeCAD Model'),'2;1');
FILE_NAME('Open CASCADE Shape Model','2026-08-28T13:04:05',('FreeCAD'),(
    'FreeCAD'),'Open CASCADE STEP processor 7.8','FreeCAD','Unknown');
FILE_SCHEMA(('AUTOMOTIVE_DESIGN { 1 0 10303 214 1 1 1 1 }'));
ENDSEC;
DATA;
#1 = APPLICATION_PROTOCOL_DEFINITION('international standard',
  'automotive_design',2000,#2);
#2 = APPLICATION_CONTEXT(
  'core data for automotive mechanical design processes');
#3 = SHAPE_DEFINITION_REPRESENTATION(#4,#10);
#4 = PRODUCT_DEFINITION_SHAPE('','',#5);
#5 = PRODUCT_DEFINITION('design','',#6,#9);
#6 = PRODUCT_DEFINITION_FORMATION('','',#7);
#7 = PRODUCT('Open CASCADE STEP translator 7.8 53',
  'Open CASCADE STEP translator 7.8 53','',(#8));
#8 = PRODUCT_CONTEXT('',#2,'mechanical');
#9 = PRODUCT_DEFINITION_CONTEXT('part definition',#2,'design');
#10 = ADVANCED_BREP_SHAPE_REPRESENTATION('',(#11,#15),#919);
#11 = AXIS2_PLACEMENT_3D('',#12,#13,#14);
#12 = CARTESIAN_POINT('',(0.,0.,0.));
#13 = DIRECTION('',(0.,0.,1.));
#14 = DIRECTION('',(1.,0.,-0.));
#15 = MANIFOLD_SOLID_BREP('',#16);
#16 = CLOSED_SHELL('',(#17,#89,#218,#264,#386,#410,#420,#453,#469,#486,
    #517,#534,#552,#601,#623,#640,#657,#669,#694,#719,#752,#768,#785,
    #816,#833,#851,#875,#885));
#17 = ADVANCED_FACE('',(#18),#84,.F.);
#18 = FACE_BOUND('',#19,.F.);
#19 = EDGE_LOOP('',(#20,#30,#38,#46,#54,#62,#70,#78));
#20 = ORIENTED_EDGE('',*,*,#21,.F.);
#21 = EDGE_CURVE('',#22,#24,#26,.T.);
#22 = VERTEX_POINT('',#23);
#23 = CARTESIAN_POINT('',(20.5,10.,0.));
#24 = VERTEX_POINT('',#25);
#25 = CARTESIAN_POINT('',(20.5,-10.,0.));
#26 = LINE('',#27,#28);
#27 = CARTESIAN_POINT('',(20.5,10.,0.));
#28 = VECTOR('',#29,1.);
#29 = DIRECTION('',(0.,-1.,0.));
#30 = ORIENTED_EDGE('',*,*,#31,.T.);
#31 = EDGE_CURVE('',#22,#32,#34,.T.);
#32 = VERTEX_POINT('',#33);
#33 = CARTESIAN_POINT('',(20.5,10.,9.5262490357E-02));
#34 = LINE('',#35,#36);
#35 = CARTESIAN_POINT('',(20.5,10.,0.));
#36 = VECTOR('',#37,1.);
#37 = DIRECTION('',(0.,0.,1.));
#38 = ORIENTED_EDGE('',*,*,#39,.F.);
#39 = EDGE_CURVE('',#40,#32,#42,.T.);
#40 = VERTEX_POINT('',#41);
#41 = CARTESIAN_POINT('',(20.5,0.,9.526249035696E-02));
#42 = LINE('',#43,#44);
#43 = CARTESIAN_POINT('',(20.5,10.,9.526249035697E-02));
#44 = VECTOR('',#45,1.);
#45 = DIRECTION('',(0.,1.,2.2E-16));
#46 = ORIENTED_EDGE('',*,*,#47,.F.);
#47 = EDGE_CURVE('',#48,#40,#50,.T.);
#48 = VERTEX_POINT('',#49);
#49 = CARTESIAN_POINT('',(20.5,-1.E-15,5.904737509668));
#50 = LINE('',#51,#52);
#51 = CARTESIAN_POINT('',(20.5,-1.78E-15,1.500000000003));
#52 = VECTOR('',#53,1.);
#53 = DIRECTION('',(0.,2.9E-16,-1.));
#54 = ORIENTED_EDGE('',*,*,#55,.T.);
#55 = EDGE_CURVE('',#48,#56,#58,.T.);
#56 = VERTEX_POINT('',#57);
#57 = CARTESIAN_POINT('',(20.5,10.,5.904737509668));
#58 = LINE('',#59,#60);
#59 = CARTESIAN_POINT('',(20.5,10.,5.904737509668));
#60 = VECTOR('',#61,1.);
#61 = DIRECTION('',(0.,1.,2.2E-16));
#62 = ORIENTED_EDGE('',*,*,#63,.T.);
#63 = EDGE_CURVE('',#56,#64,#66,.T.);
#64 = VERTEX_POINT('',#65);
#65 = CARTESIAN_POINT('',(20.5,10.,6.));
#66 = LINE('',#67,#68);
#67 = CARTESIAN_POINT('',(20.5,10.,0.));
#68 = VECTOR('',#69,1.);
#69 = DIRECTION('',(0.,0.,1.));
#70 = ORIENTED_EDGE('',*,*,#71,.T.);
#71 = EDGE_CURVE('',#64,#72,#74,.T.);
#72 = VERTEX_POINT('',#73);
#73 = CARTESIAN_POINT('',(20.5,-10.,6.));
#74 = LINE('',#75,#76);
#75 = CARTESIAN_POINT('',(20.5,10.,6.));
#76 = VECTOR('',#77,1.);
#77 = DIRECTION('',(0.,-1.,0.));
#78 = ORIENTED_EDGE('',*,*,#79,.F.);
#79 = EDGE_CURVE('',#24,#72,#80,.T.);
#80 = LINE('',#81,#82);
#81 = CARTESIAN_POINT('',(20.5,-10.,0.));
#82 = VECTOR('',#83,1.);
#83 = DIRECTION('',(0.,0.,1.));
#84 = PLANE('',#85);
#85 = AXIS2_PLACEMENT_3D('',#86,#87,#88);
#86 = CARTESIAN_POINT('',(20.5,10.,0.));
#87 = DIRECTION('',(1.,0.,0.));
#88 = DIRECTION('',(0.,-1.,0.));
#89 = ADVANCED_FACE('',(#90,#179),#213,.F.);
#90 = FACE_BOUND('',#91,.F.);
#91 = EDGE_LOOP('',(#92,#100,#108,#116,#124,#132,#140,#148,#156,#164,
    #172,#178));
#92 = ORIENTED_EDGE('',*,*,#93,.T.);
#93 = EDGE_CURVE('',#24,#94,#96,.T.);
#94 = VERTEX_POINT('',#95);
#95 = CARTESIAN_POINT('',(35.5,-10.,0.));
#96 = LINE('',#97,#98);
#97 = CARTESIAN_POINT('',(20.5,-10.,0.));
#98 = VECTOR('',#99,1.);
#99 = DIRECTION('',(1.,0.,0.));
#100 = ORIENTED_EDGE('',*,*,#101,.T.);
#101 = EDGE_CURVE('',#94,#102,#104,.T.);
#102 = VERTEX_POINT('',#103);
#103 = CARTESIAN_POINT('',(35.5,10.,0.));
#104 = LINE('',#105,#106);
#105 = CARTESIAN_POINT('',(35.5,-10.,0.));
#106 = VECTOR('',#107,1.);
#107 = DIRECTION('',(0.,1.,0.));
#108 = ORIENTED_EDGE('',*,*,#109,.T.);
#109 = EDGE_CURVE('',#102,#110,#112,.T.);
#110 = VERTEX_POINT('',#111);
#111 = CARTESIAN_POINT('',(35.395751311065,10.,-4.E-15));
#112 = LINE('',#113,#114);
#113 = CARTESIAN_POINT('',(26.5,10.,0.));
#114 = VECTOR('',#115,1.);
#115 = DIRECTION('',(-1.,0.,0.));
#116 = ORIENTED_EDGE('',*,*,#117,.F.);
#117 = EDGE_CURVE('',#118,#110,#120,.T.);
#118 = VERTEX_POINT('',#119);
#119 = CARTESIAN_POINT('',(35.395751311065,0.,0.));
#120 = LINE('',#121,#122);
#121 = CARTESIAN_POINT('',(35.395751311065,10.,0.));
#122 = VECTOR('',#123,1.);
#123 = DIRECTION('',(0.,1.,2.2E-16));
#124 = ORIENTED_EDGE('',*,*,#125,.F.);
#125 = EDGE_CURVE('',#126,#118,#128,.T.);
#126 = VERTEX_POINT('',#127);
#127 = CARTESIAN_POINT('',(32.75,0.,0.));
#128 = LINE('',#129,#130);
#129 = CARTESIAN_POINT('',(28.013377109504,-9.1E-16,0.));
#130 = VECTOR('',#131,1.);
#131 = DIRECTION('',(1.,0.,0.));
#132 = ORIENTED_EDGE('',*,*,#133,.T.);
#133 = EDGE_CURVE('',#126,#134,#136,.T.);
#134 = VERTEX_POINT('',#135);
#135 = CARTESIAN_POINT('',(32.75,10.,0.));
#136 = LINE('',#137,#138);
#137 = CARTESIAN_POINT('',(32.75,5.,0.));
#138 = VECTOR('',#139,1.);
#139 = DIRECTION('',(0.,1.,0.));
#140 = ORIENTED_EDGE('',*,*,#141,.T.);
#141 = EDGE_CURVE('',#134,#142,#144,.T.);
#142 = VERTEX_POINT('',#143);
#143 = CARTESIAN_POINT('',(23.25,10.,0.));
#144 = LINE('',#145,#146);
#145 = CARTESIAN_POINT('',(26.5,10.,0.));
#146 = VECTOR('',#147,1.);
#147 = DIRECTION('',(-1.,0.,0.));
#148 = ORIENTED_EDGE('',*,*,#149,.F.);
#149 = EDGE_CURVE('',#150,#142,#152,.T.);
#150 = VERTEX_POINT('',#151);
#151 = CARTESIAN_POINT('',(23.25,0.,0.));
#152 = LINE('',#153,#154);
#153 = CARTESIAN_POINT('',(23.25,5.,0.));
#154 = VECTOR('',#155,1.);
#155 = DIRECTION('',(0.,1.,0.));
#156 = ORIENTED_EDGE('',*,*,#157,.F.);
#157 = EDGE_CURVE('',#158,#150,#160,.T.);
#158 = VERTEX_POINT('',#159);
#159 = CARTESIAN_POINT('',(20.60424868895,0.,-1.E-15));
#160 = LINE('',#161,#162);
#161 = CARTESIAN_POINT('',(28.013377109504,-9.1E-16,0.));
#162 = VECTOR('',#163,1.);
#163 = DIRECTION('',(1.,0.,0.));
#164 = ORIENTED_EDGE('',*,*,#165,.T.);
#165 = EDGE_CURVE('',#158,#166,#168,.T.);
#166 = VERTEX_POINT('',#167);
#167 = CARTESIAN_POINT('',(20.60424868895,10.,-5.E-15));
#168 = LINE('',#169,#170);
#169 = CARTESIAN_POINT('',(20.60424868895,10.,0.));
#170 = VECTOR('',#171,1.);
#171 = DIRECTION('',(0.,1.,2.2E-16));
#172 = ORIENTED_EDGE('',*,*,#173,.T.);
#173 = EDGE_CURVE('',#166,#22,#174,.T.);
#174 = LINE('',#175,#176);
#175 = CARTESIAN_POINT('',(26.5,10.,0.));
#176 = VECTOR('',#177,1.);
#177 = DIRECTION('',(-1.,0.,0.));
#178 = ORIENTED_EDGE('',*,*,#21,.T.);
#179 = FACE_BOUND('',#180,.F.);
#180 = EDGE_LOOP('',(#181,#191,#199,#207));
#181 = ORIENTED_EDGE('',*,*,#182,.F.);
#182 = EDGE_CURVE('',#183,#185,#187,.T.);
#183 = VERTEX_POINT('',#184);
#184 = CARTESIAN_POINT('',(31.,-4.,0.));
#185 = VERTEX_POINT('',#186);
#186 = CARTESIAN_POINT('',(31.,6.,0.));
#187 = LINE('',#188,#189);
#188 = CARTESIAN_POINT('',(31.,-2.,0.));
#189 = VECTOR('',#190,1.);
#190 = DIRECTION('',(0.,1.,0.));
#191 = ORIENTED_EDGE('',*,*,#192,.F.);
#192 = EDGE_CURVE('',#193,#183,#195,.T.);
#193 = VERTEX_POINT('',#194);
#194 = CARTESIAN_POINT('',(25.,-4.,0.));
#195 = LINE('',#196,#197);
#196 = CARTESIAN_POINT('',(26.5,-4.,0.));
#197 = VECTOR('',#198,1.);
#198 = DIRECTION('',(1.,0.,0.));
#199 = ORIENTED_EDGE('',*,*,#200,.F.);
#200 = EDGE_CURVE('',#201,#193,#203,.T.);
#201 = VERTEX_POINT('',#202);
#202 = CARTESIAN_POINT('',(25.,6.,0.));
#203 = LINE('',#204,#205);
#204 = CARTESIAN_POINT('',(25.,3.,0.));
#205 = VECTOR('',#206,1.);
#206 = DIRECTION('',(0.,-1.,0.));
#207 = ORIENTED_EDGE('',*,*,#208,.F.);
#208 = EDGE_CURVE('',#185,#201,#209,.T.);
#209 = LINE('',#210,#211);
#210 = CARTESIAN_POINT('',(29.5,6.,0.));
#211 = VECTOR('',#212,1.);
#212 = DIRECTION('',(-1.,0.,0.));
#213 = PLANE('',#214);
#214 = AXIS2_PLACEMENT_3D('',#215,#216,#217);
#215 = CARTESIAN_POINT('',(28.,0.,0.));
#216 = DIRECTION('',(0.,0.,1.));
#217 = DIRECTION('',(-1.,0.,0.));
#218 = ADVANCED_FACE('',(#219,#237,#248),#259,.F.);
#219 = FACE_BOUND('',#220,.F.);
#220 = EDGE_LOOP('',(#221,#222,#230,#236));
#221 = ORIENTED_EDGE('',*,*,#79,.T.);
#222 = ORIENTED_EDGE('',*,*,#223,.T.);
#223 = EDGE_CURVE('',#72,#224,#226,.T.);
#224 = VERTEX_POINT('',#225);
#225 = CARTESIAN_POINT('',(35.5,-10.,6.));
#226 = LINE('',#227,#228);
#227 = CARTESIAN_POINT('',(20.5,-10.,6.));
#228 = VECTOR('',#229,1.);
#229 = DIRECTION('',(1.,0.,0.));
#230 = ORIENTED_EDGE('',*,*,#231,.F.);
#231 = EDGE_CURVE('',#94,#224,#232,.T.);
#232 = LINE('',#233,#234);
#233 = CARTESIAN_POINT('',(35.5,-10.,0.));
#234 = VECTOR('',#235,1.);
#235 = DIRECTION('',(0.,0.,1.));
#236 = ORIENTED_EDGE('',*,*,#93,.F.);
#237 = FACE_BOUND('',#238,.F.);
#238 = EDGE_LOOP('',(#239));
#239 = ORIENTED_EDGE('',*,*,#240,.T.);
#240 = EDGE_CURVE('',#241,#241,#243,.T.);
#241 = VERTEX_POINT('',#242);
#242 = CARTESIAN_POINT('',(24.4,-10.,3.000000000013));
#243 = CIRCLE('',#244,1.15);
#244 = AXIS2_PLACEMENT_3D('',#245,#246,#247);
#245 = CARTESIAN_POINT('',(23.25,-10.,3.000000000013));
#246 = DIRECTION('',(0.,-1.,0.));
#247 = DIRECTION('',(1.,0.,0.));
#248 = FACE_BOUND('',#249,.F.);
#249 = EDGE_LOOP('',(#250));
#250 = ORIENTED_EDGE('',*,*,#251,.T.);
#251 = EDGE_CURVE('',#252,#252,#254,.T.);
#252 = VERTEX_POINT('',#253);
#253 = CARTESIAN_POINT('',(33.9,-10.,3.000000000013));
#254 = CIRCLE('',#255,1.15);
#255 = AXIS2_PLACEMENT_3D('',#256,#257,#258);
#256 = CARTESIAN_POINT('',(32.75,-10.,3.000000000013));
#257 = DIRECTION('',(0.,-1.,0.));
#258 = DIRECTION('',(1.,0.,0.));
#259 = PLANE('',#260);
#260 = AXIS2_PLACEMENT_3D('',#261,#262,#263);
#261 = CARTESIAN_POINT('',(20.5,-10.,0.));
#262 = DIRECTION('',(0.,1.,0.));
#263 = DIRECTION('',(1.,0.,0.));
#264 = ADVANCED_FACE('',(#265,#347),#381,.T.);
#265 = FACE_BOUND('',#266,.T.);
#266 = EDGE_LOOP('',(#267,#268,#276,#284,#292,#300,#308,#316,#324,#332,
    #340,#346));
#267 = ORIENTED_EDGE('',*,*,#223,.T.);
#268 = ORIENTED_EDGE('',*,*,#269,.T.);
#269 = EDGE_CURVE('',#224,#270,#272,.T.);
#270 = VERTEX_POINT('',#271);
#271 = CARTESIAN_POINT('',(35.5,10.,6.));
#272 = LINE('',#273,#274);
#273 = CARTESIAN_POINT('',(35.5,-10.,6.));
#274 = VECTOR('',#275,1.);
#275 = DIRECTION('',(0.,1.,0.));
#276 = ORIENTED_EDGE('',*,*,#277,.T.);
#277 = EDGE_CURVE('',#270,#278,#280,.T.);
#278 = VERTEX_POINT('',#279);
#279 = CARTESIAN_POINT('',(35.395751311065,10.,6.));
#280 = LINE('',#281,#282);
#281 = CARTESIAN_POINT('',(35.5,10.,6.));
#282 = VECTOR('',#283,1.);
#283 = DIRECTION('',(-1.,0.,0.));
#284 = ORIENTED_EDGE('',*,*,#285,.F.);
#285 = EDGE_CURVE('',#286,#278,#288,.T.);
#286 = VERTEX_POINT('',#287);
#287 = CARTESIAN_POINT('',(35.395751311065,-1.E-15,6.));
#288 = LINE('',#289,#290);
#289 = CARTESIAN_POINT('',(35.395751311065,10.,6.));
#290 = VECTOR('',#291,1.);
#291 = DIRECTION('',(0.,1.,2.2E-16));
#292 = ORIENTED_EDGE('',*,*,#293,.F.);
#293 = EDGE_CURVE('',#294,#286,#296,.T.);
#294 = VERTEX_POINT('',#295);
#295 = CARTESIAN_POINT('',(32.75,-1.E-15,6.));
#296 = LINE('',#297,#298);
#297 = CARTESIAN_POINT('',(28.013377109504,-2.65E-15,6.));
#298 = VECTOR('',#299,1.);
#299 = DIRECTION('',(1.,0.,0.));
#300 = ORIENTED_EDGE('',*,*,#301,.F.);
#301 = EDGE_CURVE('',#302,#294,#304,.T.);
#302 = VERTEX_POINT('',#303);
#303 = CARTESIAN_POINT('',(32.75,10.,6.));
#304 = LINE('',#305,#306);
#305 = CARTESIAN_POINT('',(32.75,5.,6.));
#306 = VECTOR('',#307,1.);
#307 = DIRECTION('',(0.,-1.,0.));
#308 = ORIENTED_EDGE('',*,*,#309,.T.);
#309 = EDGE_CURVE('',#302,#310,#312,.T.);
#310 = VERTEX_POINT('',#311);
#311 = CARTESIAN_POINT('',(23.25,10.,6.));
#312 = LINE('',#313,#314);
#313 = CARTESIAN_POINT('',(35.5,10.,6.));
#314 = VECTOR('',#315,1.);
#315 = DIRECTION('',(-1.,0.,0.));
#316 = ORIENTED_EDGE('',*,*,#317,.T.);
#317 = EDGE_CURVE('',#310,#318,#320,.T.);
#318 = VERTEX_POINT('',#319);
#319 = CARTESIAN_POINT('',(23.25,-1.E-15,6.));
#320 = LINE('',#321,#322);
#321 = CARTESIAN_POINT('',(23.25,5.,6.));
#322 = VECTOR('',#323,1.);
#323 = DIRECTION('',(0.,-1.,0.));
#324 = ORIENTED_EDGE('',*,*,#325,.F.);
#325 = EDGE_CURVE('',#326,#318,#328,.T.);
#326 = VERTEX_POINT('',#327);
#327 = CARTESIAN_POINT('',(20.604248688921,-1.E-15,6.));
#328 = LINE('',#329,#330);
#329 = CARTESIAN_POINT('',(28.013377109504,-2.65E-15,6.));
#330 = VECTOR('',#331,1.);
#331 = DIRECTION('',(1.,0.,0.));
#332 = ORIENTED_EDGE('',*,*,#333,.T.);
#333 = EDGE_CURVE('',#326,#334,#336,.T.);
#334 = VERTEX_POINT('',#335);
#335 = CARTESIAN_POINT('',(20.604248688921,10.,6.));
#336 = LINE('',#337,#338);
#337 = CARTESIAN_POINT('',(20.604248688921,10.,6.));
#338 = VECTOR('',#339,1.);
#339 = DIRECTION('',(0.,1.,2.2E-16));
#340 = ORIENTED_EDGE('',*,*,#341,.T.);
#341 = EDGE_CURVE('',#334,#64,#342,.T.);
#342 = LINE('',#343,#344);
#343 = CARTESIAN_POINT('',(35.5,10.,6.));
#344 = VECTOR('',#345,1.);
#345 = DIRECTION('',(-1.,0.,0.));
#346 = ORIENTED_EDGE('',*,*,#71,.T.);
#347 = FACE_BOUND('',#348,.T.);
#348 = EDGE_LOOP('',(#349,#359,#367,#375));
#349 = ORIENTED_EDGE('',*,*,#350,.F.);
#350 = EDGE_CURVE('',#351,#353,#355,.T.);
#351 = VERTEX_POINT('',#352);
#352 = CARTESIAN_POINT('',(31.,-4.,6.));
#353 = VERTEX_POINT('',#354);
#354 = CARTESIAN_POINT('',(31.,6.,6.));
#355 = LINE('',#356,#357);
#356 = CARTESIAN_POINT('',(31.,-4.,6.));
#357 = VECTOR('',#358,1.);
#358 = DIRECTION('',(0.,1.,0.));
#359 = ORIENTED_EDGE('',*,*,#360,.F.);
#360 = EDGE_CURVE('',#361,#351,#363,.T.);
#361 = VERTEX_POINT('',#362);
#362 = CARTESIAN_POINT('',(25.,-4.,6.));
#363 = LINE('',#364,#365);
#364 = CARTESIAN_POINT('',(25.,-4.,6.));
#365 = VECTOR('',#366,1.);
#366 = DIRECTION('',(1.,0.,0.));
#367 = ORIENTED_EDGE('',*,*,#368,.F.);
#368 = EDGE_CURVE('',#369,#361,#371,.T.);
#369 = VERTEX_POINT('',#370);
#370 = CARTESIAN_POINT('',(25.,6.,6.));
#371 = LINE('',#372,#373);
#372 = CARTESIAN_POINT('',(25.,6.,6.));
#373 = VECTOR('',#374,1.);
#374 = DIRECTION('',(0.,-1.,0.));
#375 = ORIENTED_EDGE('',*,*,#376,.F.);
#376 = EDGE_CURVE('',#353,#369,#377,.T.);
#377 = LINE('',#378,#379);
#378 = CARTESIAN_POINT('',(31.,6.,6.));
#379 = VECTOR('',#380,1.);
#380 = DIRECTION('',(-1.,0.,0.));
#381 = PLANE('',#382);
#382 = AXIS2_PLACEMENT_3D('',#383,#384,#385);
#383 = CARTESIAN_POINT('',(28.,0.,6.));
#384 = DIRECTION('',(0.,0.,1.));
#385 = DIRECTION('',(-1.,0.,0.));
#386 = ADVANCED_FACE('',(#387),#405,.T.);
#387 = FACE_BOUND('',#388,.T.);
#388 = EDGE_LOOP('',(#389,#396,#397,#404));
#389 = ORIENTED_EDGE('',*,*,#390,.F.);
#390 = EDGE_CURVE('',#32,#56,#391,.T.);
#391 = CIRCLE('',#392,4.);
#392 = AXIS2_PLACEMENT_3D('',#393,#394,#395);
#393 = CARTESIAN_POINT('',(23.25,10.,3.000000000013));
#394 = DIRECTION('',(0.,1.,-0.));
#395 = DIRECTION('',(-1.,0.,0.));
#396 = ORIENTED_EDGE('',*,*,#39,.F.);
#397 = ORIENTED_EDGE('',*,*,#398,.T.);
#398 = EDGE_CURVE('',#40,#48,#399,.T.);
#399 = CIRCLE('',#400,4.);
#400 = AXIS2_PLACEMENT_3D('',#401,#402,#403);
#401 = CARTESIAN_POINT('',(23.25,0.,3.000000000013));
#402 = DIRECTION('',(0.,1.,-0.));
#403 = DIRECTION('',(-1.,0.,0.));
#404 = ORIENTED_EDGE('',*,*,#55,.T.);
#405 = CYLINDRICAL_SURFACE('',#406,4.);
#406 = AXIS2_PLACEMENT_3D('',#407,#408,#409);
#407 = CARTESIAN_POINT('',(23.25,10.,3.000000000013));
#408 = DIRECTION('',(0.,1.,2.2E-16));
#409 = DIRECTION('',(-1.,0.,0.));
#410 = ADVANCED_FACE('',(#411),#415,.T.);
#411 = FACE_BOUND('',#412,.T.);
#412 = EDGE_LOOP('',(#413,#414));
#413 = ORIENTED_EDGE('',*,*,#398,.F.);
#414 = ORIENTED_EDGE('',*,*,#47,.F.);
#415 = PLANE('',#416);
#416 = AXIS2_PLACEMENT_3D('',#417,#418,#419);
#417 = CARTESIAN_POINT('',(28.026754219008,-1.7763568394E-15,
    3.000000000006));
#418 = DIRECTION('',(0.,-1.,-2.9E-16));
#419 = DIRECTION('',(0.,-2.9E-16,1.));
#420 = ADVANCED_FACE('',(#421),#448,.T.);
#421 = FACE_BOUND('',#422,.T.);
#422 = EDGE_LOOP('',(#423,#432,#440,#447));
#423 = ORIENTED_EDGE('',*,*,#424,.F.);
#424 = EDGE_CURVE('',#425,#166,#427,.T.);
#425 = VERTEX_POINT('',#426);
#426 = CARTESIAN_POINT('',(23.25,10.,-0.999999999987));
#427 = CIRCLE('',#428,4.);
#428 = AXIS2_PLACEMENT_3D('',#429,#430,#431);
#429 = CARTESIAN_POINT('',(23.25,10.,3.000000000013));
#430 = DIRECTION('',(0.,1.,-0.));
#431 = DIRECTION('',(-1.,0.,0.));
#432 = ORIENTED_EDGE('',*,*,#433,.T.);
#433 = EDGE_CURVE('',#425,#434,#436,.T.);
#434 = VERTEX_POINT('',#435);
#435 = CARTESIAN_POINT('',(23.25,0.,-0.999999999987));
#436 = LINE('',#437,#438);
#437 = CARTESIAN_POINT('',(23.25,10.,-0.999999999987));
#438 = VECTOR('',#439,1.);
#439 = DIRECTION('',(0.,-1.,-2.2E-16));
#440 = ORIENTED_EDGE('',*,*,#441,.T.);
#441 = EDGE_CURVE('',#434,#158,#442,.T.);
#442 = CIRCLE('',#443,4.);
#443 = AXIS2_PLACEMENT_3D('',#444,#445,#446);
#444 = CARTESIAN_POINT('',(23.25,0.,3.000000000013));
#445 = DIRECTION('',(0.,1.,-0.));
#446 = DIRECTION('',(-1.,0.,0.));
#447 = ORIENTED_EDGE('',*,*,#165,.T.);
#448 = CYLINDRICAL_SURFACE('',#449,4.);
#449 = AXIS2_PLACEMENT_3D('',#450,#451,#452);
#450 = CARTESIAN_POINT('',(23.25,10.,3.000000000013));
#451 = DIRECTION('',(0.,1.,2.2E-16));
#452 = DIRECTION('',(-1.,0.,0.));
#453 = ADVANCED_FACE('',(#454),#464,.T.);
#454 = FACE_BOUND('',#455,.T.);
#455 = EDGE_LOOP('',(#456,#462,#463));
#456 = ORIENTED_EDGE('',*,*,#457,.F.);
#457 = EDGE_CURVE('',#150,#434,#458,.T.);
#458 = LINE('',#459,#460);
#459 = CARTESIAN_POINT('',(23.25,0.,1.310721000013));
#460 = VECTOR('',#461,1.);
#461 = DIRECTION('',(0.,0.,-1.));
#462 = ORIENTED_EDGE('',*,*,#157,.F.);
#463 = ORIENTED_EDGE('',*,*,#441,.F.);
#464 = PLANE('',#465);
#465 = AXIS2_PLACEMENT_3D('',#466,#467,#468);
#466 = CARTESIAN_POINT('',(28.026754219008,-1.7763568394E-15,
    3.000000000006));
#467 = DIRECTION('',(0.,-1.,-2.9E-16));
#468 = DIRECTION('',(0.,-2.9E-16,1.));
#469 = ADVANCED_FACE('',(#470),#481,.T.);
#470 = FACE_BOUND('',#471,.T.);
#471 = EDGE_LOOP('',(#472,#478,#479,#480));
#472 = ORIENTED_EDGE('',*,*,#473,.F.);
#473 = EDGE_CURVE('',#142,#425,#474,.T.);
#474 = LINE('',#475,#476);
#475 = CARTESIAN_POINT('',(23.25,10.,1.310721000013));
#476 = VECTOR('',#477,1.);
#477 = DIRECTION('',(0.,0.,-1.));
#478 = ORIENTED_EDGE('',*,*,#149,.F.);
#479 = ORIENTED_EDGE('',*,*,#457,.T.);
#480 = ORIENTED_EDGE('',*,*,#433,.F.);
#481 = PLANE('',#482);
#482 = AXIS2_PLACEMENT_3D('',#483,#484,#485);
#483 = CARTESIAN_POINT('',(23.25,10.,1.310721000013));
#484 = DIRECTION('',(1.,0.,0.));
#485 = DIRECTION('',(0.,2.2E-16,-1.));
#486 = ADVANCED_FACE('',(#487),#512,.F.);
#487 = FACE_BOUND('',#488,.F.);
#488 = EDGE_LOOP('',(#489,#497,#498,#506));
#489 = ORIENTED_EDGE('',*,*,#490,.F.);
#490 = EDGE_CURVE('',#134,#491,#493,.T.);
#491 = VERTEX_POINT('',#492);
#492 = CARTESIAN_POINT('',(32.75,10.,-1.));
#493 = LINE('',#494,#495);
#494 = CARTESIAN_POINT('',(32.75,10.,1.202881));
#495 = VECTOR('',#496,1.);
#496 = DIRECTION('',(0.,0.,-1.));
#497 = ORIENTED_EDGE('',*,*,#133,.F.);
#498 = ORIENTED_EDGE('',*,*,#499,.T.);
#499 = EDGE_CURVE('',#126,#500,#502,.T.);
#500 = VERTEX_POINT('',#501);
#501 = CARTESIAN_POINT('',(32.75,0.,-1.));
#502 = LINE('',#503,#504);
#503 = CARTESIAN_POINT('',(32.75,0.,1.202881));
#504 = VECTOR('',#505,1.);
#505 = DIRECTION('',(0.,0.,-1.));
#506 = ORIENTED_EDGE('',*,*,#507,.F.);
#507 = EDGE_CURVE('',#491,#500,#508,.T.);
#508 = LINE('',#509,#510);
#509 = CARTESIAN_POINT('',(32.75,10.,-1.));
#510 = VECTOR('',#511,1.);
#511 = DIRECTION('',(0.,-1.,-2.2E-16));
#512 = PLANE('',#513);
#513 = AXIS2_PLACEMENT_3D('',#514,#515,#516);
#514 = CARTESIAN_POINT('',(32.75,10.,1.202881));
#515 = DIRECTION('',(1.,0.,0.));
#516 = DIRECTION('',(0.,2.2E-16,-1.));
#517 = ADVANCED_FACE('',(#518),#529,.T.);
#518 = FACE_BOUND('',#519,.T.);
#519 = EDGE_LOOP('',(#520,#527,#528));
#520 = ORIENTED_EDGE('',*,*,#521,.F.);
#521 = EDGE_CURVE('',#118,#500,#522,.T.);
#522 = CIRCLE('',#523,4.);
#523 = AXIS2_PLACEMENT_3D('',#524,#525,#526);
#524 = CARTESIAN_POINT('',(32.75,0.,3.));
#525 = DIRECTION('',(0.,1.,-0.));
#526 = DIRECTION('',(-1.,0.,0.));
#527 = ORIENTED_EDGE('',*,*,#125,.F.);
#528 = ORIENTED_EDGE('',*,*,#499,.T.);
#529 = PLANE('',#530);
#530 = AXIS2_PLACEMENT_3D('',#531,#532,#533);
#531 = CARTESIAN_POINT('',(28.026754219008,-1.7763568394E-15,
    3.000000000006));
#532 = DIRECTION('',(0.,-1.,-2.9E-16));
#533 = DIRECTION('',(0.,-2.9E-16,1.));
#534 = ADVANCED_FACE('',(#535),#547,.T.);
#535 = FACE_BOUND('',#536,.T.);
#536 = EDGE_LOOP('',(#537,#544,#545,#546));
#537 = ORIENTED_EDGE('',*,*,#538,.F.);
#538 = EDGE_CURVE('',#110,#491,#539,.T.);
#539 = CIRCLE('',#540,4.);
#540 = AXIS2_PLACEMENT_3D('',#541,#542,#543);
#541 = CARTESIAN_POINT('',(32.75,10.,3.));
#542 = DIRECTION('',(0.,1.,-0.));
#543 = DIRECTION('',(-1.,0.,0.));
#544 = ORIENTED_EDGE('',*,*,#117,.F.);
#545 = ORIENTED_EDGE('',*,*,#521,.T.);
#546 = ORIENTED_EDGE('',*,*,#507,.F.);
#547 = CYLINDRICAL_SURFACE('',#548,4.);
#548 = AXIS2_PLACEMENT_3D('',#549,#550,#551);
#549 = CARTESIAN_POINT('',(32.75,10.,3.));
#550 = DIRECTION('',(0.,1.,2.2E-16));
#551 = DIRECTION('',(-1.,0.,0.));
#552 = ADVANCED_FACE('',(#553),#596,.F.);
#553 = FACE_BOUND('',#554,.F.);
#554 = EDGE_LOOP('',(#555,#556,#557,#558,#566,#574,#582,#590));
#555 = ORIENTED_EDGE('',*,*,#101,.F.);
#556 = ORIENTED_EDGE('',*,*,#231,.T.);
#557 = ORIENTED_EDGE('',*,*,#269,.T.);
#558 = ORIENTED_EDGE('',*,*,#559,.F.);
#559 = EDGE_CURVE('',#560,#270,#562,.T.);
#560 = VERTEX_POINT('',#561);
#561 = CARTESIAN_POINT('',(35.5,10.,5.904737509656));
#562 = LINE('',#563,#564);
#563 = CARTESIAN_POINT('',(35.5,10.,0.));
#564 = VECTOR('',#565,1.);
#565 = DIRECTION('',(0.,0.,1.));
#566 = ORIENTED_EDGE('',*,*,#567,.F.);
#567 = EDGE_CURVE('',#568,#560,#570,.T.);
#568 = VERTEX_POINT('',#569);
#569 = CARTESIAN_POINT('',(35.5,-1.E-15,5.904737509656));
#570 = LINE('',#571,#572);
#571 = CARTESIAN_POINT('',(35.5,10.,5.904737509656));
#572 = VECTOR('',#573,1.);
#573 = DIRECTION('',(0.,1.,2.2E-16));
#574 = ORIENTED_EDGE('',*,*,#575,.F.);
#575 = EDGE_CURVE('',#576,#568,#578,.T.);
#576 = VERTEX_POINT('',#577);
#577 = CARTESIAN_POINT('',(35.5,0.,9.526249034444E-02));
#578 = LINE('',#579,#580);
#579 = CARTESIAN_POINT('',(35.5,-1.78E-15,1.500000000003));
#580 = VECTOR('',#581,1.);
#581 = DIRECTION('',(0.,-2.9E-16,1.));
#582 = ORIENTED_EDGE('',*,*,#583,.T.);
#583 = EDGE_CURVE('',#576,#584,#586,.T.);
#584 = VERTEX_POINT('',#585);
#585 = CARTESIAN_POINT('',(35.5,10.,9.526249034447E-02));
#586 = LINE('',#587,#588);
#587 = CARTESIAN_POINT('',(35.5,10.,9.526249034444E-02));
#588 = VECTOR('',#589,1.);
#589 = DIRECTION('',(0.,1.,2.2E-16));
#590 = ORIENTED_EDGE('',*,*,#591,.F.);
#591 = EDGE_CURVE('',#102,#584,#592,.T.);
#592 = LINE('',#593,#594);
#593 = CARTESIAN_POINT('',(35.5,10.,0.));
#594 = VECTOR('',#595,1.);
#595 = DIRECTION('',(0.,0.,1.));
#596 = PLANE('',#597);
#597 = AXIS2_PLACEMENT_3D('',#598,#599,#600);
#598 = CARTESIAN_POINT('',(35.5,-10.,0.));
#599 = DIRECTION('',(-1.,0.,0.));
#600 = DIRECTION('',(0.,1.,0.));
#601 = ADVANCED_FACE('',(#602),#618,.F.);
#602 = FACE_BOUND('',#603,.F.);
#603 = EDGE_LOOP('',(#604,#605,#611,#612));
#604 = ORIENTED_EDGE('',*,*,#350,.F.);
#605 = ORIENTED_EDGE('',*,*,#606,.T.);
#606 = EDGE_CURVE('',#351,#183,#607,.T.);
#607 = LINE('',#608,#609);
#608 = CARTESIAN_POINT('',(31.,-4.,6.));
#609 = VECTOR('',#610,1.);
#610 = DIRECTION('',(0.,0.,-1.));
#611 = ORIENTED_EDGE('',*,*,#182,.T.);
#612 = ORIENTED_EDGE('',*,*,#613,.F.);
#613 = EDGE_CURVE('',#353,#185,#614,.T.);
#614 = LINE('',#615,#616);
#615 = CARTESIAN_POINT('',(31.,6.,6.));
#616 = VECTOR('',#617,1.);
#617 = DIRECTION('',(0.,0.,-1.));
#618 = PLANE('',#619);
#619 = AXIS2_PLACEMENT_3D('',#620,#621,#622);
#620 = CARTESIAN_POINT('',(31.,-4.,6.));
#621 = DIRECTION('',(1.,0.,0.));
#622 = DIRECTION('',(0.,1.,0.));
#623 = ADVANCED_FACE('',(#624),#635,.F.);
#624 = FACE_BOUND('',#625,.F.);
#625 = EDGE_LOOP('',(#626,#627,#633,#634));
#626 = ORIENTED_EDGE('',*,*,#360,.F.);
#627 = ORIENTED_EDGE('',*,*,#628,.T.);
#628 = EDGE_CURVE('',#361,#193,#629,.T.);
#629 = LINE('',#630,#631);
#630 = CARTESIAN_POINT('',(25.,-4.,6.));
#631 = VECTOR('',#632,1.);
#632 = DIRECTION('',(0.,0.,-1.));
#633 = ORIENTED_EDGE('',*,*,#192,.T.);
#634 = ORIENTED_EDGE('',*,*,#606,.F.);
#635 = PLANE('',#636);
#636 = AXIS2_PLACEMENT_3D('',#637,#638,#639);
#637 = CARTESIAN_POINT('',(25.,-4.,6.));
#638 = DIRECTION('',(0.,-1.,0.));
#639 = DIRECTION('',(1.,0.,0.));
#640 = ADVANCED_FACE('',(#641),#652,.F.);
#641 = FACE_BOUND('',#642,.F.);
#642 = EDGE_LOOP('',(#643,#644,#645,#646));
#643 = ORIENTED_EDGE('',*,*,#376,.F.);
#644 = ORIENTED_EDGE('',*,*,#613,.T.);
#645 = ORIENTED_EDGE('',*,*,#208,.T.);
#646 = ORIENTED_EDGE('',*,*,#647,.F.);
#647 = EDGE_CURVE('',#369,#201,#648,.T.);
#648 = LINE('',#649,#650);
#649 = CARTESIAN_POINT('',(25.,6.,6.));
#650 = VECTOR('',#651,1.);
#651 = DIRECTION('',(0.,0.,-1.));
#652 = PLANE('',#653);
#653 = AXIS2_PLACEMENT_3D('',#654,#655,#656);
#654 = CARTESIAN_POINT('',(31.,6.,6.));
#655 = DIRECTION('',(0.,1.,0.));
#656 = DIRECTION('',(-1.,0.,0.));
#657 = ADVANCED_FACE('',(#658),#664,.F.);
#658 = FACE_BOUND('',#659,.F.);
#659 = EDGE_LOOP('',(#660,#661,#662,#663));
#660 = ORIENTED_EDGE('',*,*,#368,.F.);
#661 = ORIENTED_EDGE('',*,*,#647,.T.);
#662 = ORIENTED_EDGE('',*,*,#200,.T.);
#663 = ORIENTED_EDGE('',*,*,#628,.F.);
#664 = PLANE('',#665);
#665 = AXIS2_PLACEMENT_3D('',#666,#667,#668);
#666 = CARTESIAN_POINT('',(25.,6.,6.));
#667 = DIRECTION('',(-1.,0.,0.));
#668 = DIRECTION('',(0.,-1.,0.));
#669 = ADVANCED_FACE('',(#670),#689,.F.);
#670 = FACE_BOUND('',#671,.F.);
#671 = EDGE_LOOP('',(#672,#673,#681,#688));
#672 = ORIENTED_EDGE('',*,*,#240,.F.);
#673 = ORIENTED_EDGE('',*,*,#674,.T.);
#674 = EDGE_CURVE('',#241,#675,#677,.T.);
#675 = VERTEX_POINT('',#676);
#676 = CARTESIAN_POINT('',(24.4,10.,3.000000000013));
#677 = LINE('',#678,#679);
#678 = CARTESIAN_POINT('',(24.4,-10.,3.000000000013));
#679 = VECTOR('',#680,1.);
#680 = DIRECTION('',(0.,1.,2.2E-16));
#681 = ORIENTED_EDGE('',*,*,#682,.T.);
#682 = EDGE_CURVE('',#675,#675,#683,.T.);
#683 = CIRCLE('',#684,1.15);
#684 = AXIS2_PLACEMENT_3D('',#685,#686,#687);
#685 = CARTESIAN_POINT('',(23.25,10.,3.000000000013));
#686 = DIRECTION('',(0.,-1.,-2.2E-16));
#687 = DIRECTION('',(1.,0.,0.));
#688 = ORIENTED_EDGE('',*,*,#674,.F.);
#689 = CYLINDRICAL_SURFACE('',#690,1.15);
#690 = AXIS2_PLACEMENT_3D('',#691,#692,#693);
#691 = CARTESIAN_POINT('',(23.25,-10.,3.000000000013));
#692 = DIRECTION('',(0.,-1.,-2.2E-16));
#693 = DIRECTION('',(1.,0.,0.));
#694 = ADVANCED_FACE('',(#695),#714,.F.);
#695 = FACE_BOUND('',#696,.F.);
#696 = EDGE_LOOP('',(#697,#698,#706,#713));
#697 = ORIENTED_EDGE('',*,*,#251,.F.);
#698 = ORIENTED_EDGE('',*,*,#699,.T.);
#699 = EDGE_CURVE('',#252,#700,#702,.T.);
#700 = VERTEX_POINT('',#701);
#701 = CARTESIAN_POINT('',(33.9,10.,3.000000000013));
#702 = LINE('',#703,#704);
#703 = CARTESIAN_POINT('',(33.9,-10.,3.000000000013));
#704 = VECTOR('',#705,1.);
#705 = DIRECTION('',(0.,1.,2.2E-16));
#706 = ORIENTED_EDGE('',*,*,#707,.T.);
#707 = EDGE_CURVE('',#700,#700,#708,.T.);
#708 = CIRCLE('',#709,1.15);
#709 = AXIS2_PLACEMENT_3D('',#710,#711,#712);
#710 = CARTESIAN_POINT('',(32.75,10.,3.000000000013));
#711 = DIRECTION('',(0.,-1.,-2.2E-16));
#712 = DIRECTION('',(1.,0.,0.));
#713 = ORIENTED_EDGE('',*,*,#699,.F.);
#714 = CYLINDRICAL_SURFACE('',#715,1.15);
#715 = AXIS2_PLACEMENT_3D('',#716,#717,#718);
#716 = CARTESIAN_POINT('',(32.75,-10.,3.000000000013));
#717 = DIRECTION('',(0.,-1.,-2.2E-16));
#718 = DIRECTION('',(1.,0.,0.));
#719 = ADVANCED_FACE('',(#720),#747,.T.);
#720 = FACE_BOUND('',#721,.T.);
#721 = EDGE_LOOP('',(#722,#731,#732,#741));
#722 = ORIENTED_EDGE('',*,*,#723,.F.);
#723 = EDGE_CURVE('',#334,#724,#726,.T.);
#724 = VERTEX_POINT('',#725);
#725 = CARTESIAN_POINT('',(23.25,10.,7.000000000013));
#726 = CIRCLE('',#727,4.);
#727 = AXIS2_PLACEMENT_3D('',#728,#729,#730);
#728 = CARTESIAN_POINT('',(23.25,10.,3.000000000013));
#729 = DIRECTION('',(0.,1.,-0.));
#730 = DIRECTION('',(-1.,0.,0.));
#731 = ORIENTED_EDGE('',*,*,#333,.F.);
#732 = ORIENTED_EDGE('',*,*,#733,.T.);
#733 = EDGE_CURVE('',#326,#734,#736,.T.);
#734 = VERTEX_POINT('',#735);
#735 = CARTESIAN_POINT('',(23.25,-2.E-15,7.000000000013));
#736 = CIRCLE('',#737,4.);
#737 = AXIS2_PLACEMENT_3D('',#738,#739,#740);
#738 = CARTESIAN_POINT('',(23.25,0.,3.000000000013));
#739 = DIRECTION('',(0.,1.,-0.));
#740 = DIRECTION('',(-1.,0.,0.));
#741 = ORIENTED_EDGE('',*,*,#742,.F.);
#742 = EDGE_CURVE('',#724,#734,#743,.T.);
#743 = LINE('',#744,#745);
#744 = CARTESIAN_POINT('',(23.25,10.,7.000000000013));
#745 = VECTOR('',#746,1.);
#746 = DIRECTION('',(0.,-1.,-2.2E-16));
#747 = CYLINDRICAL_SURFACE('',#748,4.);
#748 = AXIS2_PLACEMENT_3D('',#749,#750,#751);
#749 = CARTESIAN_POINT('',(23.25,10.,3.000000000013));
#750 = DIRECTION('',(0.,1.,2.2E-16));
#751 = DIRECTION('',(-1.,0.,0.));
#752 = ADVANCED_FACE('',(#753),#763,.T.);
#753 = FACE_BOUND('',#754,.T.);
#754 = EDGE_LOOP('',(#755,#756,#762));
#755 = ORIENTED_EDGE('',*,*,#325,.T.);
#756 = ORIENTED_EDGE('',*,*,#757,.T.);
#757 = EDGE_CURVE('',#318,#734,#758,.T.);
#758 = LINE('',#759,#760);
#759 = CARTESIAN_POINT('',(23.25,0.,4.689279000013));
#760 = VECTOR('',#761,1.);
#761 = DIRECTION('',(0.,0.,1.));
#762 = ORIENTED_EDGE('',*,*,#733,.F.);
#763 = PLANE('',#764);
#764 = AXIS2_PLACEMENT_3D('',#765,#766,#767);
#765 = CARTESIAN_POINT('',(28.026754219008,-1.7763568394E-15,
    3.000000000006));
#766 = DIRECTION('',(0.,-1.,-2.9E-16));
#767 = DIRECTION('',(0.,-2.9E-16,1.));
#768 = ADVANCED_FACE('',(#769),#780,.F.);
#769 = FACE_BOUND('',#770,.F.);
#770 = EDGE_LOOP('',(#771,#777,#778,#779));
#771 = ORIENTED_EDGE('',*,*,#772,.F.);
#772 = EDGE_CURVE('',#310,#724,#773,.T.);
#773 = LINE('',#774,#775);
#774 = CARTESIAN_POINT('',(23.25,10.,4.689279000013));
#775 = VECTOR('',#776,1.);
#776 = DIRECTION('',(0.,0.,1.));
#777 = ORIENTED_EDGE('',*,*,#317,.T.);
#778 = ORIENTED_EDGE('',*,*,#757,.T.);
#779 = ORIENTED_EDGE('',*,*,#742,.F.);
#780 = PLANE('',#781);
#781 = AXIS2_PLACEMENT_3D('',#782,#783,#784);
#782 = CARTESIAN_POINT('',(23.25,10.,4.689279000013));
#783 = DIRECTION('',(-1.,0.,0.));
#784 = DIRECTION('',(0.,-2.2E-16,1.));
#785 = ADVANCED_FACE('',(#786),#811,.T.);
#786 = FACE_BOUND('',#787,.T.);
#787 = EDGE_LOOP('',(#788,#796,#797,#805));
#788 = ORIENTED_EDGE('',*,*,#789,.F.);
#789 = EDGE_CURVE('',#302,#790,#792,.T.);
#790 = VERTEX_POINT('',#791);
#791 = CARTESIAN_POINT('',(32.75,10.,7.));
#792 = LINE('',#793,#794);
#793 = CARTESIAN_POINT('',(32.75,10.,4.797119));
#794 = VECTOR('',#795,1.);
#795 = DIRECTION('',(0.,0.,1.));
#796 = ORIENTED_EDGE('',*,*,#301,.T.);
#797 = ORIENTED_EDGE('',*,*,#798,.T.);
#798 = EDGE_CURVE('',#294,#799,#801,.T.);
#799 = VERTEX_POINT('',#800);
#800 = CARTESIAN_POINT('',(32.75,-2.E-15,7.));
#801 = LINE('',#802,#803);
#802 = CARTESIAN_POINT('',(32.75,0.,4.797119));
#803 = VECTOR('',#804,1.);
#804 = DIRECTION('',(0.,0.,1.));
#805 = ORIENTED_EDGE('',*,*,#806,.F.);
#806 = EDGE_CURVE('',#790,#799,#807,.T.);
#807 = LINE('',#808,#809);
#808 = CARTESIAN_POINT('',(32.75,10.,7.));
#809 = VECTOR('',#810,1.);
#810 = DIRECTION('',(0.,-1.,-2.2E-16));
#811 = PLANE('',#812);
#812 = AXIS2_PLACEMENT_3D('',#813,#814,#815);
#813 = CARTESIAN_POINT('',(32.75,10.,4.797119));
#814 = DIRECTION('',(-1.,0.,0.));
#815 = DIRECTION('',(0.,-2.2E-16,1.));
#816 = ADVANCED_FACE('',(#817),#828,.T.);
#817 = FACE_BOUND('',#818,.T.);
#818 = EDGE_LOOP('',(#819,#826,#827));
#819 = ORIENTED_EDGE('',*,*,#820,.F.);
#820 = EDGE_CURVE('',#799,#286,#821,.T.);
#821 = CIRCLE('',#822,4.);
#822 = AXIS2_PLACEMENT_3D('',#823,#824,#825);
#823 = CARTESIAN_POINT('',(32.75,0.,3.));
#824 = DIRECTION('',(0.,1.,-0.));
#825 = DIRECTION('',(-1.,0.,0.));
#826 = ORIENTED_EDGE('',*,*,#798,.F.);
#827 = ORIENTED_EDGE('',*,*,#293,.T.);
#828 = PLANE('',#829);
#829 = AXIS2_PLACEMENT_3D('',#830,#831,#832);
#830 = CARTESIAN_POINT('',(28.026754219008,-1.7763568394E-15,
    3.000000000006));
#831 = DIRECTION('',(0.,-1.,-2.9E-16));
#832 = DIRECTION('',(0.,-2.9E-16,1.));
#833 = ADVANCED_FACE('',(#834),#846,.T.);
#834 = FACE_BOUND('',#835,.T.);
#835 = EDGE_LOOP('',(#836,#843,#844,#845));
#836 = ORIENTED_EDGE('',*,*,#837,.F.);
#837 = EDGE_CURVE('',#790,#278,#838,.T.);
#838 = CIRCLE('',#839,4.);
#839 = AXIS2_PLACEMENT_3D('',#840,#841,#842);
#840 = CARTESIAN_POINT('',(32.75,10.,3.));
#841 = DIRECTION('',(0.,1.,-0.));
#842 = DIRECTION('',(-1.,0.,0.));
#843 = ORIENTED_EDGE('',*,*,#806,.T.);
#844 = ORIENTED_EDGE('',*,*,#820,.T.);
#845 = ORIENTED_EDGE('',*,*,#285,.T.);
#846 = CYLINDRICAL_SURFACE('',#847,4.);
#847 = AXIS2_PLACEMENT_3D('',#848,#849,#850);
#848 = CARTESIAN_POINT('',(32.75,10.,3.));
#849 = DIRECTION('',(0.,1.,2.2E-16));
#850 = DIRECTION('',(-1.,0.,0.));
#851 = ADVANCED_FACE('',(#852),#870,.T.);
#852 = FACE_BOUND('',#853,.T.);
#853 = EDGE_LOOP('',(#854,#861,#862,#869));
#854 = ORIENTED_EDGE('',*,*,#855,.F.);
#855 = EDGE_CURVE('',#560,#584,#856,.T.);
#856 = CIRCLE('',#857,4.);
#857 = AXIS2_PLACEMENT_3D('',#858,#859,#860);
#858 = CARTESIAN_POINT('',(32.75,10.,3.));
#859 = DIRECTION('',(0.,1.,-0.));
#860 = DIRECTION('',(-1.,0.,0.));
#861 = ORIENTED_EDGE('',*,*,#567,.F.);
#862 = ORIENTED_EDGE('',*,*,#863,.T.);
#863 = EDGE_CURVE('',#568,#576,#864,.T.);
#864 = CIRCLE('',#865,4.);
#865 = AXIS2_PLACEMENT_3D('',#866,#867,#868);
#866 = CARTESIAN_POINT('',(32.75,0.,3.));
#867 = DIRECTION('',(0.,1.,-0.));
#868 = DIRECTION('',(-1.,0.,0.));
#869 = ORIENTED_EDGE('',*,*,#583,.T.);
#870 = CYLINDRICAL_SURFACE('',#871,4.);
#871 = AXIS2_PLACEMENT_3D('',#872,#873,#874);
#872 = CARTESIAN_POINT('',(32.75,10.,3.));
#873 = DIRECTION('',(0.,1.,2.2E-16));
#874 = DIRECTION('',(-1.,0.,0.));
#875 = ADVANCED_FACE('',(#876),#880,.T.);
#876 = FACE_BOUND('',#877,.T.);
#877 = EDGE_LOOP('',(#878,#879));
#878 = ORIENTED_EDGE('',*,*,#863,.F.);
#879 = ORIENTED_EDGE('',*,*,#575,.F.);
#880 = PLANE('',#881);
#881 = AXIS2_PLACEMENT_3D('',#882,#883,#884);
#882 = CARTESIAN_POINT('',(28.026754219008,-1.7763568394E-15,
    3.000000000006));
#883 = DIRECTION('',(0.,-1.,-2.9E-16));
#884 = DIRECTION('',(0.,-2.9E-16,1.));
#885 = ADVANCED_FACE('',(#886,#908,#911),#914,.T.);
#886 = FACE_BOUND('',#887,.T.);
#887 = EDGE_LOOP('',(#888,#889,#890,#891,#892,#893,#894,#895,#896,#897,
    #898,#899,#900,#901,#902,#903,#904,#905,#906,#907));
#888 = ORIENTED_EDGE('',*,*,#341,.F.);
#889 = ORIENTED_EDGE('',*,*,#723,.T.);
#890 = ORIENTED_EDGE('',*,*,#772,.F.);
#891 = ORIENTED_EDGE('',*,*,#309,.F.);
#892 = ORIENTED_EDGE('',*,*,#789,.T.);
#893 = ORIENTED_EDGE('',*,*,#837,.T.);
#894 = ORIENTED_EDGE('',*,*,#277,.F.);
#895 = ORIENTED_EDGE('',*,*,#559,.F.);
#896 = ORIENTED_EDGE('',*,*,#855,.T.);
#897 = ORIENTED_EDGE('',*,*,#591,.F.);
#898 = ORIENTED_EDGE('',*,*,#109,.T.);
#899 = ORIENTED_EDGE('',*,*,#538,.T.);
#900 = ORIENTED_EDGE('',*,*,#490,.F.);
#901 = ORIENTED_EDGE('',*,*,#141,.T.);
#902 = ORIENTED_EDGE('',*,*,#473,.T.);
#903 = ORIENTED_EDGE('',*,*,#424,.T.);
#904 = ORIENTED_EDGE('',*,*,#173,.T.);
#905 = ORIENTED_EDGE('',*,*,#31,.T.);
#906 = ORIENTED_EDGE('',*,*,#390,.T.);
#907 = ORIENTED_EDGE('',*,*,#63,.T.);
#908 = FACE_BOUND('',#909,.T.);
#909 = EDGE_LOOP('',(#910));
#910 = ORIENTED_EDGE('',*,*,#707,.T.);
#911 = FACE_BOUND('',#912,.T.);
#912 = EDGE_LOOP('',(#913));
#913 = ORIENTED_EDGE('',*,*,#682,.T.);
#914 = PLANE('',#915);
#915 = AXIS2_PLACEMENT_3D('',#916,#917,#918);
#916 = CARTESIAN_POINT('',(28.,10.,3.000000000004));
#917 = DIRECTION('',(0.,1.,-0.));
#918 = DIRECTION('',(0.,0.,-1.));
#919 = ( GEOMETRIC_REPRESENTATION_CONTEXT(3) 
GLOBAL_UNCERTAINTY_ASSIGNED_CONTEXT((#923)) GLOBAL_UNIT_ASSIGNED_CONTEXT
((#920,#921,#922)) REPRESENTATION_CONTEXT('Context #1',
  '3D Context with UNIT and UNCERTAINTY') );
#920 = ( LENGTH_UNIT() NAMED_UNIT(*) SI_UNIT(.MILLI.,.METRE.) );
#921 = ( NAMED_UNIT(*) PLANE_ANGLE_UNIT() SI_UNIT($,.RADIAN.) );
#922 = ( NAMED_UNIT(*) SI_UNIT($,.STERADIAN.) SOLID_ANGLE_UNIT() );
#923 = UNCERTAINTY_MEASURE_WITH_UNIT(LENGTH_MEASURE(5.E-06),#920,
  'distance_accuracy_value','confusion accuracy');
#924 = PRODUCT_RELATED_PRODUCT_CATEGORY('part',$,(#7));
ENDSEC;
END-ISO-10303-21;
