ISO-10303-21;
HEADER;
FILE_DESCRIPTION(('FreeCAD Model'),'2;1');
FILE_NAME('Open CASCADE Shape Model','2026-08-28T13:04:05',('FreeCAD'),(
    'FreeCAD'),'Open CASCADE STEP processor 7.8','FreeCAD','Unknown');
FILE_SCHEMA(('AUTOMOTIVE_DESIGN { 1 0 10303 214 1 1 1 1 }'));
ENDSEC;
DATA;
#1 = APPLICATION_PROTOCOL_DEFINITION('international standard',
  'automotive_design',2000,#2);
#2 = APPLICATION_CONTEXT(
  'core data for automotive mechanical design processes');
#3 = SHAPE_DEFINITION_REPRESENTATION(#4,#10);
#4 = PRODUCT_DEFINITION_SHAPE('','',#5);
#5 = PRODUCT_DEFINITION('design','',#6,#9);
#6 = PRODUCT_DEFINITION_FORMATION('','',#7);
#7 = PRODUCT('Open CASCADE STEP translator 7.8 68',
  'Open CASCADE STEP translator 7.8 68','',(#8));
#8 = PRODUCT_CONTEXT('',#2,'mechanical');
#9 = PRODUCT_DEFINITION_CONTEXT('part definition',#2,'design');
#10 = ADVANCED_BREP_SHAPE_REPRESENTATION('',(#11,#15),#1616);
#11 = AXIS2_PLACEMENT_3D('',#12,#13,#14);
#12 = CARTESIAN_POINT('',(0.,0.,0.));
#13 = DIRECTION('',(0.,0.,1.));
#14 = DIRECTION('',(1.,0.,-0.));
#15 = MANIFOLD_SOLID_BREP('',#16);
#16 = CLOSED_SHELL('',(#17,#73,#165,#190,#328,#380,#404,#672,#689,#706,
    #723,#749,#773,#904,#921,#938,#955,#972,#989,#1006,#1018,#1052,#1086
    ,#1120,#1154,#1171,#1188,#1205,#1222,#1239,#1256,#1273,#1290,#1302,
    #1320,#1338,#1356,#1374,#1408,#1442,#1476,#1510,#1527,#1544,#1562,
    #1580,#1598));
#17 = ADVANCED_FACE('',(#18),#68,.T.);
#18 = FACE_BOUND('',#19,.T.);
#19 = EDGE_LOOP('',(#20,#30,#38,#46,#54,#62));
#20 = ORIENTED_EDGE('',*,*,#21,.F.);
#21 = EDGE_CURVE('',#22,#24,#26,.T.);
#22 = VERTEX_POINT('',#23);
#23 = CARTESIAN_POINT('',(32.824724649876,-50.59805759786,80.));
#24 = VERTEX_POINT('',#25);
#25 = CARTESIAN_POINT('',(32.824724649876,-50.59805759786,86.));
#26 = LINE('',#27,#28);
#27 = CARTESIAN_POINT('',(32.824724649876,-50.59805759786,77.));
#28 = VECTOR('',#29,1.);
#29 = DIRECTION('',(0.,0.,1.));
#30 = ORIENTED_EDGE('',*,*,#31,.T.);
#31 = EDGE_CURVE('',#22,#32,#34,.T.);
#32 = VERTEX_POINT('',#33);
#33 = CARTESIAN_POINT('',(-7.147696962,-50.59805759786,80.));
#34 = LINE('',#35,#36);
#35 = CARTESIAN_POINT('',(22.836331761507,-50.59805759786,80.));
#36 = VECTOR('',#37,1.);
#37 = DIRECTION('',(-1.,0.,0.));
#38 = ORIENTED_EDGE('',*,*,#39,.F.);
#39 = EDGE_CURVE('',#40,#32,#42,.T.);
#40 = VERTEX_POINT('',#41);
#41 = CARTESIAN_POINT('',(-7.147696962,-50.59805759786,77.));
#42 = LINE('',#43,#44);
#43 = CARTESIAN_POINT('',(-7.147696962,-50.59805759786,77.));
#44 = VECTOR('',#45,1.);
#45 = DIRECTION('',(0.,0.,1.));
#46 = ORIENTED_EDGE('',*,*,#47,.T.);
#47 = EDGE_CURVE('',#40,#48,#50,.T.);
#48 = VERTEX_POINT('',#49);
#49 = CARTESIAN_POINT('',(-7.175275350124,-50.59805759786,77.));
#50 = LINE('',#51,#52);
#51 = CARTESIAN_POINT('',(32.824724649876,-50.59805759786,77.));
#52 = VECTOR('',#53,1.);
#53 = DIRECTION('',(-1.,-0.,-0.));
#54 = ORIENTED_EDGE('',*,*,#55,.T.);
#55 = EDGE_CURVE('',#48,#56,#58,.T.);
#56 = VERTEX_POINT('',#57);
#57 = CARTESIAN_POINT('',(-7.175275350124,-50.59805759786,86.));
#58 = LINE('',#59,#60);
#59 = CARTESIAN_POINT('',(-7.175275350124,-50.59805759786,77.));
#60 = VECTOR('',#61,1.);
#61 = DIRECTION('',(0.,0.,1.));
#62 = ORIENTED_EDGE('',*,*,#63,.F.);
#63 = EDGE_CURVE('',#24,#56,#64,.T.);
#64 = LINE('',#65,#66);
#65 = CARTESIAN_POINT('',(32.824724649876,-50.59805759786,86.));
#66 = VECTOR('',#67,1.);
#67 = DIRECTION('',(-1.,-0.,-0.));
#68 = PLANE('',#69);
#69 = AXIS2_PLACEMENT_3D('',#70,#71,#72);
#70 = CARTESIAN_POINT('',(32.824724649876,-50.59805759786,77.));
#71 = DIRECTION('',(0.,1.,0.));
#72 = DIRECTION('',(0.,0.,1.));
#73 = ADVANCED_FACE('',(#74,#149),#160,.T.);
#74 = FACE_BOUND('',#75,.T.);
#75 = EDGE_LOOP('',(#76,#77,#86,#94,#103,#111,#119,#127,#135,#143));
#76 = ORIENTED_EDGE('',*,*,#21,.T.);
#77 = ORIENTED_EDGE('',*,*,#78,.T.);
#78 = EDGE_CURVE('',#24,#79,#81,.T.);
#79 = VERTEX_POINT('',#80);
#80 = CARTESIAN_POINT('',(32.824724649876,-53.59805759786,89.));
#81 = CIRCLE('',#82,3.);
#82 = AXIS2_PLACEMENT_3D('',#83,#84,#85);
#83 = CARTESIAN_POINT('',(32.824724649876,-53.59805759786,86.));
#84 = DIRECTION('',(1.,-0.,0.));
#85 = DIRECTION('',(0.,0.,-1.));
#86 = ORIENTED_EDGE('',*,*,#87,.T.);
#87 = EDGE_CURVE('',#79,#88,#90,.T.);
#88 = VERTEX_POINT('',#89);
#89 = CARTESIAN_POINT('',(32.824724649876,-59.59805759786,89.));
#90 = LINE('',#91,#92);
#91 = CARTESIAN_POINT('',(32.824724649876,-50.59805759786,89.));
#92 = VECTOR('',#93,1.);
#93 = DIRECTION('',(0.,-1.,0.));
#94 = ORIENTED_EDGE('',*,*,#95,.T.);
#95 = EDGE_CURVE('',#88,#96,#98,.T.);
#96 = VERTEX_POINT('',#97);
#97 = CARTESIAN_POINT('',(32.824724649876,-62.59805759786,86.));
#98 = CIRCLE('',#99,3.);
#99 = AXIS2_PLACEMENT_3D('',#100,#101,#102);
#100 = CARTESIAN_POINT('',(32.824724649876,-59.59805759786,86.));
#101 = DIRECTION('',(1.,-0.,0.));
#102 = DIRECTION('',(0.,0.,-1.));
#103 = ORIENTED_EDGE('',*,*,#104,.T.);
#104 = EDGE_CURVE('',#96,#105,#107,.T.);
#105 = VERTEX_POINT('',#106);
#106 = CARTESIAN_POINT('',(32.824724649876,-62.59805759786,80.));
#107 = LINE('',#108,#109);
#108 = CARTESIAN_POINT('',(32.824724649876,-62.59805759786,89.));
#109 = VECTOR('',#110,1.);
#110 = DIRECTION('',(0.,0.,-1.));
#111 = ORIENTED_EDGE('',*,*,#112,.T.);
#112 = EDGE_CURVE('',#105,#113,#115,.T.);
#113 = VERTEX_POINT('',#114);
#114 = CARTESIAN_POINT('',(32.824724649876,-116.5980575979,80.));
#115 = LINE('',#116,#117);
#116 = CARTESIAN_POINT('',(32.824724649876,-56.59805759791,80.));
#117 = VECTOR('',#118,1.);
#118 = DIRECTION('',(-0.,-1.,-0.));
#119 = ORIENTED_EDGE('',*,*,#120,.F.);
#120 = EDGE_CURVE('',#121,#113,#123,.T.);
#121 = VERTEX_POINT('',#122);
#122 = CARTESIAN_POINT('',(32.824724649876,-116.5980575979,77.));
#123 = LINE('',#124,#125);
#124 = CARTESIAN_POINT('',(32.824724649876,-116.5980575979,77.));
#125 = VECTOR('',#126,1.);
#126 = DIRECTION('',(0.,0.,1.));
#127 = ORIENTED_EDGE('',*,*,#128,.F.);
#128 = EDGE_CURVE('',#129,#121,#131,.T.);
#129 = VERTEX_POINT('',#130);
#130 = CARTESIAN_POINT('',(32.824724649876,3.401942402085,77.));
#131 = LINE('',#132,#133);
#132 = CARTESIAN_POINT('',(32.824724649876,-56.59805759791,77.));
#133 = VECTOR('',#134,1.);
#134 = DIRECTION('',(-0.,-1.,-0.));
#135 = ORIENTED_EDGE('',*,*,#136,.T.);
#136 = EDGE_CURVE('',#129,#137,#139,.T.);
#137 = VERTEX_POINT('',#138);
#138 = CARTESIAN_POINT('',(32.824724649876,3.401942402085,80.));
#139 = LINE('',#140,#141);
#140 = CARTESIAN_POINT('',(32.824724649876,3.401942402085,77.));
#141 = VECTOR('',#142,1.);
#142 = DIRECTION('',(0.,0.,1.));
#143 = ORIENTED_EDGE('',*,*,#144,.F.);
#144 = EDGE_CURVE('',#22,#137,#145,.T.);
#145 = LINE('',#146,#147);
#146 = CARTESIAN_POINT('',(32.824724649876,-56.59805759791,80.));
#147 = VECTOR('',#148,1.);
#148 = DIRECTION('',(0.,1.,0.));
#149 = FACE_BOUND('',#150,.T.);
#150 = EDGE_LOOP('',(#151));
#151 = ORIENTED_EDGE('',*,*,#152,.F.);
#152 = EDGE_CURVE('',#153,#153,#155,.T.);
#153 = VERTEX_POINT('',#154);
#154 = CARTESIAN_POINT('',(32.824724649876,-55.09805759791,82.2));
#155 = CIRCLE('',#156,1.5);
#156 = AXIS2_PLACEMENT_3D('',#157,#158,#159);
#157 = CARTESIAN_POINT('',(32.824724649876,-56.59805759791,82.2));
#158 = DIRECTION('',(1.,0.,0.));
#159 = DIRECTION('',(0.,1.,0.));
#160 = PLANE('',#161);
#161 = AXIS2_PLACEMENT_3D('',#162,#163,#164);
#162 = CARTESIAN_POINT('',(32.824724649876,-56.59805759791,
    79.318181818182));
#163 = DIRECTION('',(1.,0.,0.));
#164 = DIRECTION('',(0.,0.,1.));
#165 = ADVANCED_FACE('',(#166),#185,.T.);
#166 = FACE_BOUND('',#167,.F.);
#167 = EDGE_LOOP('',(#168,#169,#177,#184));
#168 = ORIENTED_EDGE('',*,*,#78,.T.);
#169 = ORIENTED_EDGE('',*,*,#170,.T.);
#170 = EDGE_CURVE('',#79,#171,#173,.T.);
#171 = VERTEX_POINT('',#172);
#172 = CARTESIAN_POINT('',(-7.175275350124,-53.59805759786,89.));
#173 = LINE('',#174,#175);
#174 = CARTESIAN_POINT('',(32.824724649876,-53.59805759786,89.));
#175 = VECTOR('',#176,1.);
#176 = DIRECTION('',(-1.,-0.,-0.));
#177 = ORIENTED_EDGE('',*,*,#178,.F.);
#178 = EDGE_CURVE('',#56,#171,#179,.T.);
#179 = CIRCLE('',#180,3.);
#180 = AXIS2_PLACEMENT_3D('',#181,#182,#183);
#181 = CARTESIAN_POINT('',(-7.175275350124,-53.59805759786,86.));
#182 = DIRECTION('',(1.,-0.,0.));
#183 = DIRECTION('',(0.,0.,-1.));
#184 = ORIENTED_EDGE('',*,*,#63,.F.);
#185 = CYLINDRICAL_SURFACE('',#186,3.);
#186 = AXIS2_PLACEMENT_3D('',#187,#188,#189);
#187 = CARTESIAN_POINT('',(32.824724649876,-53.59805759786,86.));
#188 = DIRECTION('',(-1.,-0.,-0.));
#189 = DIRECTION('',(0.,1.,0.));
#190 = ADVANCED_FACE('',(#191,#257,#268,#279,#290,#301,#312),#323,.T.);
#191 = FACE_BOUND('',#192,.T.);
#192 = EDGE_LOOP('',(#193,#194,#195,#203,#211,#219,#227,#235,#243,#251)
  );
#193 = ORIENTED_EDGE('',*,*,#31,.F.);
#194 = ORIENTED_EDGE('',*,*,#144,.T.);
#195 = ORIENTED_EDGE('',*,*,#196,.F.);
#196 = EDGE_CURVE('',#197,#137,#199,.T.);
#197 = VERTEX_POINT('',#198);
#198 = CARTESIAN_POINT('',(26.838513843938,22.401942402085,80.));
#199 = LINE('',#200,#201);
#200 = CARTESIAN_POINT('',(26.838513843938,22.401942402085,80.));
#201 = VECTOR('',#202,1.);
#202 = DIRECTION('',(0.30050186754,-0.95378122628,0.));
#203 = ORIENTED_EDGE('',*,*,#204,.F.);
#204 = EDGE_CURVE('',#205,#197,#207,.T.);
#205 = VERTEX_POINT('',#206);
#206 = CARTESIAN_POINT('',(18.838513843938,22.401942402085,80.));
#207 = LINE('',#208,#209);
#208 = CARTESIAN_POINT('',(18.838513843938,22.401942402085,80.));
#209 = VECTOR('',#210,1.);
#210 = DIRECTION('',(1.,0.,0.));
#211 = ORIENTED_EDGE('',*,*,#212,.F.);
#212 = EDGE_CURVE('',#213,#205,#215,.T.);
#213 = VERTEX_POINT('',#214);
#214 = CARTESIAN_POINT('',(18.838513843938,12.401942402085,80.));
#215 = LINE('',#216,#217);
#216 = CARTESIAN_POINT('',(18.838513843938,12.401942402085,80.));
#217 = VECTOR('',#218,1.);
#218 = DIRECTION('',(0.,1.,0.));
#219 = ORIENTED_EDGE('',*,*,#220,.F.);
#220 = EDGE_CURVE('',#221,#213,#223,.T.);
#221 = VERTEX_POINT('',#222);
#222 = CARTESIAN_POINT('',(6.838513843938,12.401942402085,80.));
#223 = LINE('',#224,#225);
#224 = CARTESIAN_POINT('',(6.838513843938,12.401942402085,80.));
#225 = VECTOR('',#226,1.);
#226 = DIRECTION('',(1.,0.,0.));
#227 = ORIENTED_EDGE('',*,*,#228,.F.);
#228 = EDGE_CURVE('',#229,#221,#231,.T.);
#229 = VERTEX_POINT('',#230);
#230 = CARTESIAN_POINT('',(6.838513843938,22.401942402085,80.));
#231 = LINE('',#232,#233);
#232 = CARTESIAN_POINT('',(6.838513843938,22.401942402085,80.));
#233 = VECTOR('',#234,1.);
#234 = DIRECTION('',(0.,-1.,0.));
#235 = ORIENTED_EDGE('',*,*,#236,.T.);
#236 = EDGE_CURVE('',#229,#237,#239,.T.);
#237 = VERTEX_POINT('',#238);
#238 = CARTESIAN_POINT('',(-1.161486156062,22.401942402085,80.));
#239 = LINE('',#240,#241);
#240 = CARTESIAN_POINT('',(6.838513843938,22.401942402085,80.));
#241 = VECTOR('',#242,1.);
#242 = DIRECTION('',(-1.,0.,0.));
#243 = ORIENTED_EDGE('',*,*,#244,.T.);
#244 = EDGE_CURVE('',#237,#245,#247,.T.);
#245 = VERTEX_POINT('',#246);
#246 = CARTESIAN_POINT('',(-7.147696962,3.401942402085,80.));
#247 = LINE('',#248,#249);
#248 = CARTESIAN_POINT('',(-1.161486156062,22.401942402085,80.));
#249 = VECTOR('',#250,1.);
#250 = DIRECTION('',(-0.30050186754,-0.95378122628,0.));
#251 = ORIENTED_EDGE('',*,*,#252,.T.);
#252 = EDGE_CURVE('',#245,#32,#253,.T.);
#253 = LINE('',#254,#255);
#254 = CARTESIAN_POINT('',(-7.147696962,3.401942402085,80.));
#255 = VECTOR('',#256,1.);
#256 = DIRECTION('',(0.,-1.,0.));
#257 = FACE_BOUND('',#258,.T.);
#258 = EDGE_LOOP('',(#259));
#259 = ORIENTED_EDGE('',*,*,#260,.F.);
#260 = EDGE_CURVE('',#261,#261,#263,.T.);
#261 = VERTEX_POINT('',#262);
#262 = CARTESIAN_POINT('',(2.129257843938,-26.59805759791,80.));
#263 = CIRCLE('',#264,1.790744);
#264 = AXIS2_PLACEMENT_3D('',#265,#266,#267);
#265 = CARTESIAN_POINT('',(0.338513843938,-26.59805759791,80.));
#266 = DIRECTION('',(0.,0.,1.));
#267 = DIRECTION('',(1.,0.,0.));
#268 = FACE_BOUND('',#269,.T.);
#269 = EDGE_LOOP('',(#270));
#270 = ORIENTED_EDGE('',*,*,#271,.F.);
#271 = EDGE_CURVE('',#272,#272,#274,.T.);
#272 = VERTEX_POINT('',#273);
#273 = CARTESIAN_POINT('',(2.129257843938,-11.59805759791,80.));
#274 = CIRCLE('',#275,1.790744);
#275 = AXIS2_PLACEMENT_3D('',#276,#277,#278);
#276 = CARTESIAN_POINT('',(0.338513843938,-11.59805759791,80.));
#277 = DIRECTION('',(0.,0.,1.));
#278 = DIRECTION('',(1.,0.,0.));
#279 = FACE_BOUND('',#280,.T.);
#280 = EDGE_LOOP('',(#281));
#281 = ORIENTED_EDGE('',*,*,#282,.F.);
#282 = EDGE_CURVE('',#283,#283,#285,.T.);
#283 = VERTEX_POINT('',#284);
#284 = CARTESIAN_POINT('',(27.129257843938,-26.59805759791,80.));
#285 = CIRCLE('',#286,1.790744);
#286 = AXIS2_PLACEMENT_3D('',#287,#288,#289);
#287 = CARTESIAN_POINT('',(25.338513843938,-26.59805759791,80.));
#288 = DIRECTION('',(0.,0.,1.));
#289 = DIRECTION('',(1.,0.,0.));
#290 = FACE_BOUND('',#291,.T.);
#291 = EDGE_LOOP('',(#292));
#292 = ORIENTED_EDGE('',*,*,#293,.F.);
#293 = EDGE_CURVE('',#294,#294,#296,.T.);
#294 = VERTEX_POINT('',#295);
#295 = CARTESIAN_POINT('',(27.129257843938,-11.59805759791,80.));
#296 = CIRCLE('',#297,1.790744);
#297 = AXIS2_PLACEMENT_3D('',#298,#299,#300);
#298 = CARTESIAN_POINT('',(25.338513843938,-11.59805759791,80.));
#299 = DIRECTION('',(0.,0.,1.));
#300 = DIRECTION('',(1.,0.,0.));
#301 = FACE_BOUND('',#302,.T.);
#302 = EDGE_LOOP('',(#303));
#303 = ORIENTED_EDGE('',*,*,#304,.F.);
#304 = EDGE_CURVE('',#305,#305,#307,.T.);
#305 = VERTEX_POINT('',#306);
#306 = CARTESIAN_POINT('',(5.2,17.401942402085,80.));
#307 = CIRCLE('',#308,1.7);
#308 = AXIS2_PLACEMENT_3D('',#309,#310,#311);
#309 = CARTESIAN_POINT('',(3.5,17.401942402085,80.));
#310 = DIRECTION('',(0.,0.,1.));
#311 = DIRECTION('',(1.,0.,0.));
#312 = FACE_BOUND('',#313,.T.);
#313 = EDGE_LOOP('',(#314));
#314 = ORIENTED_EDGE('',*,*,#315,.F.);
#315 = EDGE_CURVE('',#316,#316,#318,.T.);
#316 = VERTEX_POINT('',#317);
#317 = CARTESIAN_POINT('',(24.2,17.401942402085,80.));
#318 = CIRCLE('',#319,1.7);
#319 = AXIS2_PLACEMENT_3D('',#320,#321,#322);
#320 = CARTESIAN_POINT('',(22.5,17.401942402085,80.));
#321 = DIRECTION('',(0.,0.,1.));
#322 = DIRECTION('',(1.,0.,0.));
#323 = PLANE('',#324);
#324 = AXIS2_PLACEMENT_3D('',#325,#326,#327);
#325 = CARTESIAN_POINT('',(12.847938873137,-14.82716460682,80.));
#326 = DIRECTION('',(0.,0.,1.));
#327 = DIRECTION('',(1.,0.,0.));
#328 = ADVANCED_FACE('',(#329,#364),#375,.F.);
#329 = FACE_BOUND('',#330,.F.);
#330 = EDGE_LOOP('',(#331,#341,#347,#348,#349,#357));
#331 = ORIENTED_EDGE('',*,*,#332,.T.);
#332 = EDGE_CURVE('',#333,#335,#337,.T.);
#333 = VERTEX_POINT('',#334);
#334 = CARTESIAN_POINT('',(-7.175275350124,-62.59805759786,86.));
#335 = VERTEX_POINT('',#336);
#336 = CARTESIAN_POINT('',(-7.175275350124,-62.59805759786,77.));
#337 = LINE('',#338,#339);
#338 = CARTESIAN_POINT('',(-7.175275350124,-62.59805759786,89.));
#339 = VECTOR('',#340,1.);
#340 = DIRECTION('',(0.,0.,-1.));
#341 = ORIENTED_EDGE('',*,*,#342,.T.);
#342 = EDGE_CURVE('',#335,#48,#343,.T.);
#343 = LINE('',#344,#345);
#344 = CARTESIAN_POINT('',(-7.175275350124,-62.59805759786,77.));
#345 = VECTOR('',#346,1.);
#346 = DIRECTION('',(0.,1.,-2.E-17));
#347 = ORIENTED_EDGE('',*,*,#55,.T.);
#348 = ORIENTED_EDGE('',*,*,#178,.T.);
#349 = ORIENTED_EDGE('',*,*,#350,.T.);
#350 = EDGE_CURVE('',#171,#351,#353,.T.);
#351 = VERTEX_POINT('',#352);
#352 = CARTESIAN_POINT('',(-7.175275350124,-59.59805759786,89.));
#353 = LINE('',#354,#355);
#354 = CARTESIAN_POINT('',(-7.175275350124,-50.59805759786,89.));
#355 = VECTOR('',#356,1.);
#356 = DIRECTION('',(0.,-1.,0.));
#357 = ORIENTED_EDGE('',*,*,#358,.T.);
#358 = EDGE_CURVE('',#351,#333,#359,.T.);
#359 = CIRCLE('',#360,3.);
#360 = AXIS2_PLACEMENT_3D('',#361,#362,#363);
#361 = CARTESIAN_POINT('',(-7.175275350124,-59.59805759786,86.));
#362 = DIRECTION('',(1.,-0.,0.));
#363 = DIRECTION('',(0.,0.,-1.));
#364 = FACE_BOUND('',#365,.F.);
#365 = EDGE_LOOP('',(#366));
#366 = ORIENTED_EDGE('',*,*,#367,.F.);
#367 = EDGE_CURVE('',#368,#368,#370,.T.);
#368 = VERTEX_POINT('',#369);
#369 = CARTESIAN_POINT('',(-7.175275350124,-55.09805759791,82.2));
#370 = CIRCLE('',#371,1.5);
#371 = AXIS2_PLACEMENT_3D('',#372,#373,#374);
#372 = CARTESIAN_POINT('',(-7.175275350124,-56.59805759791,82.2));
#373 = DIRECTION('',(1.,0.,0.));
#374 = DIRECTION('',(0.,1.,0.));
#375 = PLANE('',#376);
#376 = AXIS2_PLACEMENT_3D('',#377,#378,#379);
#377 = CARTESIAN_POINT('',(-7.175275350124,-56.59805759786,83.));
#378 = DIRECTION('',(1.,0.,0.));
#379 = DIRECTION('',(0.,0.,1.));
#380 = ADVANCED_FACE('',(#381),#399,.F.);
#381 = FACE_BOUND('',#382,.F.);
#382 = EDGE_LOOP('',(#383,#391,#397,#398));
#383 = ORIENTED_EDGE('',*,*,#384,.F.);
#384 = EDGE_CURVE('',#385,#40,#387,.T.);
#385 = VERTEX_POINT('',#386);
#386 = CARTESIAN_POINT('',(-7.147696962,3.401942402085,77.));
#387 = LINE('',#388,#389);
#388 = CARTESIAN_POINT('',(-7.147696962,3.401942402085,77.));
#389 = VECTOR('',#390,1.);
#390 = DIRECTION('',(0.,-1.,0.));
#391 = ORIENTED_EDGE('',*,*,#392,.T.);
#392 = EDGE_CURVE('',#385,#245,#393,.T.);
#393 = LINE('',#394,#395);
#394 = CARTESIAN_POINT('',(-7.147696962,3.401942402085,77.));
#395 = VECTOR('',#396,1.);
#396 = DIRECTION('',(0.,0.,1.));
#397 = ORIENTED_EDGE('',*,*,#252,.T.);
#398 = ORIENTED_EDGE('',*,*,#39,.F.);
#399 = PLANE('',#400);
#400 = AXIS2_PLACEMENT_3D('',#401,#402,#403);
#401 = CARTESIAN_POINT('',(-7.147696962,3.401942402085,77.));
#402 = DIRECTION('',(1.,0.,0.));
#403 = DIRECTION('',(0.,-1.,0.));
#404 = ADVANCED_FACE('',(#405,#535,#546,#557,#568,#579,#590,#601,#612,
    #623,#634,#645,#656),#667,.T.);
#405 = FACE_BOUND('',#406,.T.);
#406 = EDGE_LOOP('',(#407,#408,#416,#424,#432,#440,#448,#456,#464,#472,
    #478,#479,#480,#481,#489,#497,#505,#513,#521,#529));
#407 = ORIENTED_EDGE('',*,*,#128,.T.);
#408 = ORIENTED_EDGE('',*,*,#409,.F.);
#409 = EDGE_CURVE('',#410,#121,#412,.T.);
#410 = VERTEX_POINT('',#411);
#411 = CARTESIAN_POINT('',(26.838513843938,-135.5980575979,77.));
#412 = LINE('',#413,#414);
#413 = CARTESIAN_POINT('',(26.838513843938,-135.5980575979,77.));
#414 = VECTOR('',#415,1.);
#415 = DIRECTION('',(0.30050186754,0.95378122628,0.));
#416 = ORIENTED_EDGE('',*,*,#417,.F.);
#417 = EDGE_CURVE('',#418,#410,#420,.T.);
#418 = VERTEX_POINT('',#419);
#419 = CARTESIAN_POINT('',(18.838513843938,-135.5980575979,77.));
#420 = LINE('',#421,#422);
#421 = CARTESIAN_POINT('',(18.838513843938,-135.5980575979,77.));
#422 = VECTOR('',#423,1.);
#423 = DIRECTION('',(1.,0.,0.));
#424 = ORIENTED_EDGE('',*,*,#425,.F.);
#425 = EDGE_CURVE('',#426,#418,#428,.T.);
#426 = VERTEX_POINT('',#427);
#427 = CARTESIAN_POINT('',(18.838513843938,-125.5980575979,77.));
#428 = LINE('',#429,#430);
#429 = CARTESIAN_POINT('',(18.838513843938,-125.5980575979,77.));
#430 = VECTOR('',#431,1.);
#431 = DIRECTION('',(-0.,-1.,-0.));
#432 = ORIENTED_EDGE('',*,*,#433,.F.);
#433 = EDGE_CURVE('',#434,#426,#436,.T.);
#434 = VERTEX_POINT('',#435);
#435 = CARTESIAN_POINT('',(6.838513843938,-125.5980575979,77.));
#436 = LINE('',#437,#438);
#437 = CARTESIAN_POINT('',(6.838513843938,-125.5980575979,77.));
#438 = VECTOR('',#439,1.);
#439 = DIRECTION('',(1.,0.,0.));
#440 = ORIENTED_EDGE('',*,*,#441,.F.);
#441 = EDGE_CURVE('',#442,#434,#444,.T.);
#442 = VERTEX_POINT('',#443);
#443 = CARTESIAN_POINT('',(6.838513843938,-135.5980575979,77.));
#444 = LINE('',#445,#446);
#445 = CARTESIAN_POINT('',(6.838513843938,-135.5980575979,77.));
#446 = VECTOR('',#447,1.);
#447 = DIRECTION('',(0.,1.,0.));
#448 = ORIENTED_EDGE('',*,*,#449,.T.);
#449 = EDGE_CURVE('',#442,#450,#452,.T.);
#450 = VERTEX_POINT('',#451);
#451 = CARTESIAN_POINT('',(-1.161486156062,-135.5980575979,77.));
#452 = LINE('',#453,#454);
#453 = CARTESIAN_POINT('',(6.838513843938,-135.5980575979,77.));
#454 = VECTOR('',#455,1.);
#455 = DIRECTION('',(-1.,-0.,-0.));
#456 = ORIENTED_EDGE('',*,*,#457,.T.);
#457 = EDGE_CURVE('',#450,#458,#460,.T.);
#458 = VERTEX_POINT('',#459);
#459 = CARTESIAN_POINT('',(-7.147696962,-116.5980575979,77.));
#460 = LINE('',#461,#462);
#461 = CARTESIAN_POINT('',(-1.161486156062,-135.5980575979,77.));
#462 = VECTOR('',#463,1.);
#463 = DIRECTION('',(-0.30050186754,0.95378122628,0.));
#464 = ORIENTED_EDGE('',*,*,#465,.T.);
#465 = EDGE_CURVE('',#458,#466,#468,.T.);
#466 = VERTEX_POINT('',#467);
#467 = CARTESIAN_POINT('',(-7.147696962,-62.59805759786,77.));
#468 = LINE('',#469,#470);
#469 = CARTESIAN_POINT('',(-7.147696962,-116.5980575979,77.));
#470 = VECTOR('',#471,1.);
#471 = DIRECTION('',(0.,1.,0.));
#472 = ORIENTED_EDGE('',*,*,#473,.T.);
#473 = EDGE_CURVE('',#466,#335,#474,.T.);
#474 = LINE('',#475,#476);
#475 = CARTESIAN_POINT('',(32.824724649876,-62.59805759786,77.));
#476 = VECTOR('',#477,1.);
#477 = DIRECTION('',(-1.,-0.,-0.));
#478 = ORIENTED_EDGE('',*,*,#342,.T.);
#479 = ORIENTED_EDGE('',*,*,#47,.F.);
#480 = ORIENTED_EDGE('',*,*,#384,.F.);
#481 = ORIENTED_EDGE('',*,*,#482,.F.);
#482 = EDGE_CURVE('',#483,#385,#485,.T.);
#483 = VERTEX_POINT('',#484);
#484 = CARTESIAN_POINT('',(-1.161486156062,22.401942402085,77.));
#485 = LINE('',#486,#487);
#486 = CARTESIAN_POINT('',(-1.161486156062,22.401942402085,77.));
#487 = VECTOR('',#488,1.);
#488 = DIRECTION('',(-0.30050186754,-0.95378122628,0.));
#489 = ORIENTED_EDGE('',*,*,#490,.F.);
#490 = EDGE_CURVE('',#491,#483,#493,.T.);
#491 = VERTEX_POINT('',#492);
#492 = CARTESIAN_POINT('',(6.838513843938,22.401942402085,77.));
#493 = LINE('',#494,#495);
#494 = CARTESIAN_POINT('',(6.838513843938,22.401942402085,77.));
#495 = VECTOR('',#496,1.);
#496 = DIRECTION('',(-1.,0.,0.));
#497 = ORIENTED_EDGE('',*,*,#498,.T.);
#498 = EDGE_CURVE('',#491,#499,#501,.T.);
#499 = VERTEX_POINT('',#500);
#500 = CARTESIAN_POINT('',(6.838513843938,12.401942402085,77.));
#501 = LINE('',#502,#503);
#502 = CARTESIAN_POINT('',(6.838513843938,22.401942402085,77.));
#503 = VECTOR('',#504,1.);
#504 = DIRECTION('',(0.,-1.,0.));
#505 = ORIENTED_EDGE('',*,*,#506,.T.);
#506 = EDGE_CURVE('',#499,#507,#509,.T.);
#507 = VERTEX_POINT('',#508);
#508 = CARTESIAN_POINT('',(18.838513843938,12.401942402085,77.));
#509 = LINE('',#510,#511);
#510 = CARTESIAN_POINT('',(6.838513843938,12.401942402085,77.));
#511 = VECTOR('',#512,1.);
#512 = DIRECTION('',(1.,0.,0.));
#513 = ORIENTED_EDGE('',*,*,#514,.T.);
#514 = EDGE_CURVE('',#507,#515,#517,.T.);
#515 = VERTEX_POINT('',#516);
#516 = CARTESIAN_POINT('',(18.838513843938,22.401942402085,77.));
#517 = LINE('',#518,#519);
#518 = CARTESIAN_POINT('',(18.838513843938,12.401942402085,77.));
#519 = VECTOR('',#520,1.);
#520 = DIRECTION('',(0.,1.,0.));
#521 = ORIENTED_EDGE('',*,*,#522,.T.);
#522 = EDGE_CURVE('',#515,#523,#525,.T.);
#523 = VERTEX_POINT('',#524);
#524 = CARTESIAN_POINT('',(26.838513843938,22.401942402085,77.));
#525 = LINE('',#526,#527);
#526 = CARTESIAN_POINT('',(18.838513843938,22.401942402085,77.));
#527 = VECTOR('',#528,1.);
#528 = DIRECTION('',(1.,0.,0.));
#529 = ORIENTED_EDGE('',*,*,#530,.T.);
#530 = EDGE_CURVE('',#523,#129,#531,.T.);
#531 = LINE('',#532,#533);
#532 = CARTESIAN_POINT('',(26.838513843938,22.401942402085,77.));
#533 = VECTOR('',#534,1.);
#534 = DIRECTION('',(0.30050186754,-0.95378122628,0.));
#535 = FACE_BOUND('',#536,.T.);
#536 = EDGE_LOOP('',(#537));
#537 = ORIENTED_EDGE('',*,*,#538,.F.);
#538 = EDGE_CURVE('',#539,#539,#541,.T.);
#539 = VERTEX_POINT('',#540);
#540 = CARTESIAN_POINT('',(-2.761486156062,-26.59805759791,77.));
#541 = CIRCLE('',#542,3.1);
#542 = AXIS2_PLACEMENT_3D('',#543,#544,#545);
#543 = CARTESIAN_POINT('',(0.338513843938,-26.59805759791,77.));
#544 = DIRECTION('',(0.,0.,-1.));
#545 = DIRECTION('',(-1.,0.,0.));
#546 = FACE_BOUND('',#547,.T.);
#547 = EDGE_LOOP('',(#548));
#548 = ORIENTED_EDGE('',*,*,#549,.F.);
#549 = EDGE_CURVE('',#550,#550,#552,.T.);
#550 = VERTEX_POINT('',#551);
#551 = CARTESIAN_POINT('',(-2.761486156062,-11.59805759791,77.));
#552 = CIRCLE('',#553,3.1);
#553 = AXIS2_PLACEMENT_3D('',#554,#555,#556);
#554 = CARTESIAN_POINT('',(0.338513843938,-11.59805759791,77.));
#555 = DIRECTION('',(0.,0.,-1.));
#556 = DIRECTION('',(-1.,0.,0.));
#557 = FACE_BOUND('',#558,.T.);
#558 = EDGE_LOOP('',(#559));
#559 = ORIENTED_EDGE('',*,*,#560,.F.);
#560 = EDGE_CURVE('',#561,#561,#563,.T.);
#561 = VERTEX_POINT('',#562);
#562 = CARTESIAN_POINT('',(22.238513843938,-26.59805759791,77.));
#563 = CIRCLE('',#564,3.1);
#564 = AXIS2_PLACEMENT_3D('',#565,#566,#567);
#565 = CARTESIAN_POINT('',(25.338513843938,-26.59805759791,77.));
#566 = DIRECTION('',(0.,0.,-1.));
#567 = DIRECTION('',(-1.,0.,0.));
#568 = FACE_BOUND('',#569,.T.);
#569 = EDGE_LOOP('',(#570));
#570 = ORIENTED_EDGE('',*,*,#571,.F.);
#571 = EDGE_CURVE('',#572,#572,#574,.T.);
#572 = VERTEX_POINT('',#573);
#573 = CARTESIAN_POINT('',(22.238513843938,-11.59805759791,77.));
#574 = CIRCLE('',#575,3.1);
#575 = AXIS2_PLACEMENT_3D('',#576,#577,#578);
#576 = CARTESIAN_POINT('',(25.338513843938,-11.59805759791,77.));
#577 = DIRECTION('',(0.,0.,-1.));
#578 = DIRECTION('',(-1.,0.,0.));
#579 = FACE_BOUND('',#580,.T.);
#580 = EDGE_LOOP('',(#581));
#581 = ORIENTED_EDGE('',*,*,#582,.F.);
#582 = EDGE_CURVE('',#583,#583,#585,.T.);
#583 = VERTEX_POINT('',#584);
#584 = CARTESIAN_POINT('',(-2.761486156062,-86.59805759791,77.));
#585 = CIRCLE('',#586,3.1);
#586 = AXIS2_PLACEMENT_3D('',#587,#588,#589);
#587 = CARTESIAN_POINT('',(0.338513843938,-86.59805759791,77.));
#588 = DIRECTION('',(0.,0.,-1.));
#589 = DIRECTION('',(-1.,0.,0.));
#590 = FACE_BOUND('',#591,.T.);
#591 = EDGE_LOOP('',(#592));
#592 = ORIENTED_EDGE('',*,*,#593,.F.);
#593 = EDGE_CURVE('',#594,#594,#596,.T.);
#594 = VERTEX_POINT('',#595);
#595 = CARTESIAN_POINT('',(-2.761486156062,-101.5980575979,77.));
#596 = CIRCLE('',#597,3.1);
#597 = AXIS2_PLACEMENT_3D('',#598,#599,#600);
#598 = CARTESIAN_POINT('',(0.338513843938,-101.5980575979,77.));
#599 = DIRECTION('',(0.,0.,-1.));
#600 = DIRECTION('',(-1.,0.,0.));
#601 = FACE_BOUND('',#602,.T.);
#602 = EDGE_LOOP('',(#603));
#603 = ORIENTED_EDGE('',*,*,#604,.F.);
#604 = EDGE_CURVE('',#605,#605,#607,.T.);
#605 = VERTEX_POINT('',#606);
#606 = CARTESIAN_POINT('',(22.238513843938,-86.59805759791,77.));
#607 = CIRCLE('',#608,3.1);
#608 = AXIS2_PLACEMENT_3D('',#609,#610,#611);
#609 = CARTESIAN_POINT('',(25.338513843938,-86.59805759791,77.));
#610 = DIRECTION('',(0.,0.,-1.));
#611 = DIRECTION('',(-1.,0.,0.));
#612 = FACE_BOUND('',#613,.T.);
#613 = EDGE_LOOP('',(#614));
#614 = ORIENTED_EDGE('',*,*,#615,.F.);
#615 = EDGE_CURVE('',#616,#616,#618,.T.);
#616 = VERTEX_POINT('',#617);
#617 = CARTESIAN_POINT('',(22.238513843938,-101.5980575979,77.));
#618 = CIRCLE('',#619,3.1);
#619 = AXIS2_PLACEMENT_3D('',#620,#621,#622);
#620 = CARTESIAN_POINT('',(25.338513843938,-101.5980575979,77.));
#621 = DIRECTION('',(0.,0.,-1.));
#622 = DIRECTION('',(-1.,0.,0.));
#623 = FACE_BOUND('',#624,.T.);
#624 = EDGE_LOOP('',(#625));
#625 = ORIENTED_EDGE('',*,*,#626,.T.);
#626 = EDGE_CURVE('',#627,#627,#629,.T.);
#627 = VERTEX_POINT('',#628);
#628 = CARTESIAN_POINT('',(5.2,17.401942402085,77.));
#629 = CIRCLE('',#630,1.7);
#630 = AXIS2_PLACEMENT_3D('',#631,#632,#633);
#631 = CARTESIAN_POINT('',(3.5,17.401942402085,77.));
#632 = DIRECTION('',(0.,0.,1.));
#633 = DIRECTION('',(1.,0.,0.));
#634 = FACE_BOUND('',#635,.T.);
#635 = EDGE_LOOP('',(#636));
#636 = ORIENTED_EDGE('',*,*,#637,.T.);
#637 = EDGE_CURVE('',#638,#638,#640,.T.);
#638 = VERTEX_POINT('',#639);
#639 = CARTESIAN_POINT('',(24.2,17.401942402085,77.));
#640 = CIRCLE('',#641,1.7);
#641 = AXIS2_PLACEMENT_3D('',#642,#643,#644);
#642 = CARTESIAN_POINT('',(22.5,17.401942402085,77.));
#643 = DIRECTION('',(0.,0.,1.));
#644 = DIRECTION('',(1.,0.,0.));
#645 = FACE_BOUND('',#646,.T.);
#646 = EDGE_LOOP('',(#647));
#647 = ORIENTED_EDGE('',*,*,#648,.F.);
#648 = EDGE_CURVE('',#649,#649,#651,.T.);
#649 = VERTEX_POINT('',#650);
#650 = CARTESIAN_POINT('',(5.2,-130.5980575979,77.));
#651 = CIRCLE('',#652,1.7);
#652 = AXIS2_PLACEMENT_3D('',#653,#654,#655);
#653 = CARTESIAN_POINT('',(3.5,-130.5980575979,77.));
#654 = DIRECTION('',(0.,0.,-1.));
#655 = DIRECTION('',(1.,0.,0.));
#656 = FACE_BOUND('',#657,.T.);
#657 = EDGE_LOOP('',(#658));
#658 = ORIENTED_EDGE('',*,*,#659,.F.);
#659 = EDGE_CURVE('',#660,#660,#662,.T.);
#660 = VERTEX_POINT('',#661);
#661 = CARTESIAN_POINT('',(24.2,-130.5980575979,77.));
#662 = CIRCLE('',#663,1.7);
#663 = AXIS2_PLACEMENT_3D('',#664,#665,#666);
#664 = CARTESIAN_POINT('',(22.5,-130.5980575979,77.));
#665 = DIRECTION('',(0.,0.,-1.));
#666 = DIRECTION('',(1.,0.,0.));
#667 = PLANE('',#668);
#668 = AXIS2_PLACEMENT_3D('',#669,#670,#671);
#669 = CARTESIAN_POINT('',(12.83506437292,-56.59805759791,77.));
#670 = DIRECTION('',(-5.1E-16,-0.,-1.));
#671 = DIRECTION('',(-1.,0.,5.1E-16));
#672 = ADVANCED_FACE('',(#673),#684,.T.);
#673 = FACE_BOUND('',#674,.T.);
#674 = EDGE_LOOP('',(#675,#676,#677,#678));
#675 = ORIENTED_EDGE('',*,*,#87,.F.);
#676 = ORIENTED_EDGE('',*,*,#170,.T.);
#677 = ORIENTED_EDGE('',*,*,#350,.T.);
#678 = ORIENTED_EDGE('',*,*,#679,.F.);
#679 = EDGE_CURVE('',#88,#351,#680,.T.);
#680 = LINE('',#681,#682);
#681 = CARTESIAN_POINT('',(32.824724649876,-59.59805759786,89.));
#682 = VECTOR('',#683,1.);
#683 = DIRECTION('',(-1.,-0.,-0.));
#684 = PLANE('',#685);
#685 = AXIS2_PLACEMENT_3D('',#686,#687,#688);
#686 = CARTESIAN_POINT('',(32.824724649876,-50.59805759786,89.));
#687 = DIRECTION('',(0.,0.,1.));
#688 = DIRECTION('',(0.,-1.,0.));
#689 = ADVANCED_FACE('',(#690),#701,.T.);
#690 = FACE_BOUND('',#691,.T.);
#691 = EDGE_LOOP('',(#692,#698,#699,#700));
#692 = ORIENTED_EDGE('',*,*,#693,.T.);
#693 = EDGE_CURVE('',#523,#197,#694,.T.);
#694 = LINE('',#695,#696);
#695 = CARTESIAN_POINT('',(26.838513843938,22.401942402085,77.));
#696 = VECTOR('',#697,1.);
#697 = DIRECTION('',(0.,0.,1.));
#698 = ORIENTED_EDGE('',*,*,#196,.T.);
#699 = ORIENTED_EDGE('',*,*,#136,.F.);
#700 = ORIENTED_EDGE('',*,*,#530,.F.);
#701 = PLANE('',#702);
#702 = AXIS2_PLACEMENT_3D('',#703,#704,#705);
#703 = CARTESIAN_POINT('',(26.838513843938,22.401942402085,77.));
#704 = DIRECTION('',(0.95378122628,0.30050186754,0.));
#705 = DIRECTION('',(0.30050186754,-0.95378122628,0.));
#706 = ADVANCED_FACE('',(#707),#718,.T.);
#707 = FACE_BOUND('',#708,.F.);
#708 = EDGE_LOOP('',(#709,#710,#716,#717));
#709 = ORIENTED_EDGE('',*,*,#95,.T.);
#710 = ORIENTED_EDGE('',*,*,#711,.T.);
#711 = EDGE_CURVE('',#96,#333,#712,.T.);
#712 = LINE('',#713,#714);
#713 = CARTESIAN_POINT('',(32.824724649876,-62.59805759786,86.));
#714 = VECTOR('',#715,1.);
#715 = DIRECTION('',(-1.,-0.,-0.));
#716 = ORIENTED_EDGE('',*,*,#358,.F.);
#717 = ORIENTED_EDGE('',*,*,#679,.F.);
#718 = CYLINDRICAL_SURFACE('',#719,3.);
#719 = AXIS2_PLACEMENT_3D('',#720,#721,#722);
#720 = CARTESIAN_POINT('',(32.824724649876,-59.59805759786,86.));
#721 = DIRECTION('',(-1.,-0.,-0.));
#722 = DIRECTION('',(0.,0.,1.));
#723 = ADVANCED_FACE('',(#724),#744,.T.);
#724 = FACE_BOUND('',#725,.T.);
#725 = EDGE_LOOP('',(#726,#727,#728,#729,#730,#738));
#726 = ORIENTED_EDGE('',*,*,#104,.F.);
#727 = ORIENTED_EDGE('',*,*,#711,.T.);
#728 = ORIENTED_EDGE('',*,*,#332,.T.);
#729 = ORIENTED_EDGE('',*,*,#473,.F.);
#730 = ORIENTED_EDGE('',*,*,#731,.T.);
#731 = EDGE_CURVE('',#466,#732,#734,.T.);
#732 = VERTEX_POINT('',#733);
#733 = CARTESIAN_POINT('',(-7.147696962,-62.59805759786,80.));
#734 = LINE('',#735,#736);
#735 = CARTESIAN_POINT('',(-7.147696962,-62.59805759786,83.));
#736 = VECTOR('',#737,1.);
#737 = DIRECTION('',(0.,0.,1.));
#738 = ORIENTED_EDGE('',*,*,#739,.F.);
#739 = EDGE_CURVE('',#105,#732,#740,.T.);
#740 = LINE('',#741,#742);
#741 = CARTESIAN_POINT('',(22.836331761507,-62.59805759786,80.));
#742 = VECTOR('',#743,1.);
#743 = DIRECTION('',(-1.,0.,0.));
#744 = PLANE('',#745);
#745 = AXIS2_PLACEMENT_3D('',#746,#747,#748);
#746 = CARTESIAN_POINT('',(32.824724649876,-62.59805759786,89.));
#747 = DIRECTION('',(0.,-1.,0.));
#748 = DIRECTION('',(0.,0.,-1.));
#749 = ADVANCED_FACE('',(#750),#768,.T.);
#750 = FACE_BOUND('',#751,.F.);
#751 = EDGE_LOOP('',(#752,#760,#766,#767));
#752 = ORIENTED_EDGE('',*,*,#753,.T.);
#753 = EDGE_CURVE('',#410,#754,#756,.T.);
#754 = VERTEX_POINT('',#755);
#755 = CARTESIAN_POINT('',(26.838513843938,-135.5980575979,80.));
#756 = LINE('',#757,#758);
#757 = CARTESIAN_POINT('',(26.838513843938,-135.5980575979,77.));
#758 = VECTOR('',#759,1.);
#759 = DIRECTION('',(0.,0.,1.));
#760 = ORIENTED_EDGE('',*,*,#761,.T.);
#761 = EDGE_CURVE('',#754,#113,#762,.T.);
#762 = LINE('',#763,#764);
#763 = CARTESIAN_POINT('',(26.838513843938,-135.5980575979,80.));
#764 = VECTOR('',#765,1.);
#765 = DIRECTION('',(0.30050186754,0.95378122628,0.));
#766 = ORIENTED_EDGE('',*,*,#120,.F.);
#767 = ORIENTED_EDGE('',*,*,#409,.F.);
#768 = PLANE('',#769);
#769 = AXIS2_PLACEMENT_3D('',#770,#771,#772);
#770 = CARTESIAN_POINT('',(26.838513843938,-135.5980575979,77.));
#771 = DIRECTION('',(0.95378122628,-0.30050186754,0.));
#772 = DIRECTION('',(-0.30050186754,-0.95378122628,-0.));
#773 = ADVANCED_FACE('',(#774,#833,#844,#855,#866,#877,#888),#899,.T.);
#774 = FACE_BOUND('',#775,.F.);
#775 = EDGE_LOOP('',(#776,#777,#778,#779,#787,#795,#803,#811,#819,#827)
  );
#776 = ORIENTED_EDGE('',*,*,#739,.F.);
#777 = ORIENTED_EDGE('',*,*,#112,.T.);
#778 = ORIENTED_EDGE('',*,*,#761,.F.);
#779 = ORIENTED_EDGE('',*,*,#780,.F.);
#780 = EDGE_CURVE('',#781,#754,#783,.T.);
#781 = VERTEX_POINT('',#782);
#782 = CARTESIAN_POINT('',(18.838513843938,-135.5980575979,80.));
#783 = LINE('',#784,#785);
#784 = CARTESIAN_POINT('',(18.838513843938,-135.5980575979,80.));
#785 = VECTOR('',#786,1.);
#786 = DIRECTION('',(1.,0.,0.));
#787 = ORIENTED_EDGE('',*,*,#788,.F.);
#788 = EDGE_CURVE('',#789,#781,#791,.T.);
#789 = VERTEX_POINT('',#790);
#790 = CARTESIAN_POINT('',(18.838513843938,-125.5980575979,80.));
#791 = LINE('',#792,#793);
#792 = CARTESIAN_POINT('',(18.838513843938,-125.5980575979,80.));
#793 = VECTOR('',#794,1.);
#794 = DIRECTION('',(-0.,-1.,-0.));
#795 = ORIENTED_EDGE('',*,*,#796,.F.);
#796 = EDGE_CURVE('',#797,#789,#799,.T.);
#797 = VERTEX_POINT('',#798);
#798 = CARTESIAN_POINT('',(6.838513843938,-125.5980575979,80.));
#799 = LINE('',#800,#801);
#800 = CARTESIAN_POINT('',(6.838513843938,-125.5980575979,80.));
#801 = VECTOR('',#802,1.);
#802 = DIRECTION('',(1.,0.,0.));
#803 = ORIENTED_EDGE('',*,*,#804,.F.);
#804 = EDGE_CURVE('',#805,#797,#807,.T.);
#805 = VERTEX_POINT('',#806);
#806 = CARTESIAN_POINT('',(6.838513843938,-135.5980575979,80.));
#807 = LINE('',#808,#809);
#808 = CARTESIAN_POINT('',(6.838513843938,-135.5980575979,80.));
#809 = VECTOR('',#810,1.);
#810 = DIRECTION('',(0.,1.,0.));
#811 = ORIENTED_EDGE('',*,*,#812,.T.);
#812 = EDGE_CURVE('',#805,#813,#815,.T.);
#813 = VERTEX_POINT('',#814);
#814 = CARTESIAN_POINT('',(-1.161486156062,-135.5980575979,80.));
#815 = LINE('',#816,#817);
#816 = CARTESIAN_POINT('',(6.838513843938,-135.5980575979,80.));
#817 = VECTOR('',#818,1.);
#818 = DIRECTION('',(-1.,-0.,-0.));
#819 = ORIENTED_EDGE('',*,*,#820,.T.);
#820 = EDGE_CURVE('',#813,#821,#823,.T.);
#821 = VERTEX_POINT('',#822);
#822 = CARTESIAN_POINT('',(-7.147696962,-116.5980575979,80.));
#823 = LINE('',#824,#825);
#824 = CARTESIAN_POINT('',(-1.161486156062,-135.5980575979,80.));
#825 = VECTOR('',#826,1.);
#826 = DIRECTION('',(-0.30050186754,0.95378122628,0.));
#827 = ORIENTED_EDGE('',*,*,#828,.T.);
#828 = EDGE_CURVE('',#821,#732,#829,.T.);
#829 = LINE('',#830,#831);
#830 = CARTESIAN_POINT('',(-7.147696962,-116.5980575979,80.));
#831 = VECTOR('',#832,1.);
#832 = DIRECTION('',(0.,1.,0.));
#833 = FACE_BOUND('',#834,.F.);
#834 = EDGE_LOOP('',(#835));
#835 = ORIENTED_EDGE('',*,*,#836,.F.);
#836 = EDGE_CURVE('',#837,#837,#839,.T.);
#837 = VERTEX_POINT('',#838);
#838 = CARTESIAN_POINT('',(2.129257843938,-86.59805759791,80.));
#839 = CIRCLE('',#840,1.790744);
#840 = AXIS2_PLACEMENT_3D('',#841,#842,#843);
#841 = CARTESIAN_POINT('',(0.338513843938,-86.59805759791,80.));
#842 = DIRECTION('',(0.,0.,-1.));
#843 = DIRECTION('',(1.,0.,0.));
#844 = FACE_BOUND('',#845,.F.);
#845 = EDGE_LOOP('',(#846));
#846 = ORIENTED_EDGE('',*,*,#847,.F.);
#847 = EDGE_CURVE('',#848,#848,#850,.T.);
#848 = VERTEX_POINT('',#849);
#849 = CARTESIAN_POINT('',(2.129257843938,-101.5980575979,80.));
#850 = CIRCLE('',#851,1.790744);
#851 = AXIS2_PLACEMENT_3D('',#852,#853,#854);
#852 = CARTESIAN_POINT('',(0.338513843938,-101.5980575979,80.));
#853 = DIRECTION('',(0.,0.,-1.));
#854 = DIRECTION('',(1.,0.,0.));
#855 = FACE_BOUND('',#856,.F.);
#856 = EDGE_LOOP('',(#857));
#857 = ORIENTED_EDGE('',*,*,#858,.F.);
#858 = EDGE_CURVE('',#859,#859,#861,.T.);
#859 = VERTEX_POINT('',#860);
#860 = CARTESIAN_POINT('',(27.129257843938,-86.59805759791,80.));
#861 = CIRCLE('',#862,1.790744);
#862 = AXIS2_PLACEMENT_3D('',#863,#864,#865);
#863 = CARTESIAN_POINT('',(25.338513843938,-86.59805759791,80.));
#864 = DIRECTION('',(0.,0.,-1.));
#865 = DIRECTION('',(1.,0.,0.));
#866 = FACE_BOUND('',#867,.F.);
#867 = EDGE_LOOP('',(#868));
#868 = ORIENTED_EDGE('',*,*,#869,.F.);
#869 = EDGE_CURVE('',#870,#870,#872,.T.);
#870 = VERTEX_POINT('',#871);
#871 = CARTESIAN_POINT('',(27.129257843938,-101.5980575979,80.));
#872 = CIRCLE('',#873,1.790744);
#873 = AXIS2_PLACEMENT_3D('',#874,#875,#876);
#874 = CARTESIAN_POINT('',(25.338513843938,-101.5980575979,80.));
#875 = DIRECTION('',(0.,0.,-1.));
#876 = DIRECTION('',(1.,0.,0.));
#877 = FACE_BOUND('',#878,.F.);
#878 = EDGE_LOOP('',(#879));
#879 = ORIENTED_EDGE('',*,*,#880,.F.);
#880 = EDGE_CURVE('',#881,#881,#883,.T.);
#881 = VERTEX_POINT('',#882);
#882 = CARTESIAN_POINT('',(5.2,-130.5980575979,80.));
#883 = CIRCLE('',#884,1.7);
#884 = AXIS2_PLACEMENT_3D('',#885,#886,#887);
#885 = CARTESIAN_POINT('',(3.5,-130.5980575979,80.));
#886 = DIRECTION('',(0.,0.,-1.));
#887 = DIRECTION('',(1.,0.,0.));
#888 = FACE_BOUND('',#889,.F.);
#889 = EDGE_LOOP('',(#890));
#890 = ORIENTED_EDGE('',*,*,#891,.F.);
#891 = EDGE_CURVE('',#892,#892,#894,.T.);
#892 = VERTEX_POINT('',#893);
#893 = CARTESIAN_POINT('',(24.2,-130.5980575979,80.));
#894 = CIRCLE('',#895,1.7);
#895 = AXIS2_PLACEMENT_3D('',#896,#897,#898);
#896 = CARTESIAN_POINT('',(22.5,-130.5980575979,80.));
#897 = DIRECTION('',(0.,0.,-1.));
#898 = DIRECTION('',(1.,0.,0.));
#899 = PLANE('',#900);
#900 = AXIS2_PLACEMENT_3D('',#901,#902,#903);
#901 = CARTESIAN_POINT('',(12.847938873137,-98.368950589,80.));
#902 = DIRECTION('',(0.,0.,1.));
#903 = DIRECTION('',(-1.,0.,0.));
#904 = ADVANCED_FACE('',(#905),#916,.F.);
#905 = FACE_BOUND('',#906,.F.);
#906 = EDGE_LOOP('',(#907,#908,#914,#915));
#907 = ORIENTED_EDGE('',*,*,#152,.F.);
#908 = ORIENTED_EDGE('',*,*,#909,.T.);
#909 = EDGE_CURVE('',#153,#368,#910,.T.);
#910 = LINE('',#911,#912);
#911 = CARTESIAN_POINT('',(32.824724649876,-55.09805759791,82.2));
#912 = VECTOR('',#913,1.);
#913 = DIRECTION('',(-1.,-0.,-0.));
#914 = ORIENTED_EDGE('',*,*,#367,.T.);
#915 = ORIENTED_EDGE('',*,*,#909,.F.);
#916 = CYLINDRICAL_SURFACE('',#917,1.5);
#917 = AXIS2_PLACEMENT_3D('',#918,#919,#920);
#918 = CARTESIAN_POINT('',(32.824724649876,-56.59805759791,82.2));
#919 = DIRECTION('',(1.,0.,0.));
#920 = DIRECTION('',(0.,1.,0.));
#921 = ADVANCED_FACE('',(#922),#933,.F.);
#922 = FACE_BOUND('',#923,.F.);
#923 = EDGE_LOOP('',(#924,#930,#931,#932));
#924 = ORIENTED_EDGE('',*,*,#925,.T.);
#925 = EDGE_CURVE('',#483,#237,#926,.T.);
#926 = LINE('',#927,#928);
#927 = CARTESIAN_POINT('',(-1.161486156062,22.401942402085,77.));
#928 = VECTOR('',#929,1.);
#929 = DIRECTION('',(0.,0.,1.));
#930 = ORIENTED_EDGE('',*,*,#244,.T.);
#931 = ORIENTED_EDGE('',*,*,#392,.F.);
#932 = ORIENTED_EDGE('',*,*,#482,.F.);
#933 = PLANE('',#934);
#934 = AXIS2_PLACEMENT_3D('',#935,#936,#937);
#935 = CARTESIAN_POINT('',(-1.161486156062,22.401942402085,77.));
#936 = DIRECTION('',(0.95378122628,-0.30050186754,0.));
#937 = DIRECTION('',(-0.30050186754,-0.95378122628,0.));
#938 = ADVANCED_FACE('',(#939),#950,.F.);
#939 = FACE_BOUND('',#940,.F.);
#940 = EDGE_LOOP('',(#941,#947,#948,#949));
#941 = ORIENTED_EDGE('',*,*,#942,.T.);
#942 = EDGE_CURVE('',#491,#229,#943,.T.);
#943 = LINE('',#944,#945);
#944 = CARTESIAN_POINT('',(6.838513843938,22.401942402085,77.));
#945 = VECTOR('',#946,1.);
#946 = DIRECTION('',(0.,0.,1.));
#947 = ORIENTED_EDGE('',*,*,#236,.T.);
#948 = ORIENTED_EDGE('',*,*,#925,.F.);
#949 = ORIENTED_EDGE('',*,*,#490,.F.);
#950 = PLANE('',#951);
#951 = AXIS2_PLACEMENT_3D('',#952,#953,#954);
#952 = CARTESIAN_POINT('',(6.838513843938,22.401942402085,77.));
#953 = DIRECTION('',(0.,-1.,0.));
#954 = DIRECTION('',(-1.,0.,0.));
#955 = ADVANCED_FACE('',(#956),#967,.T.);
#956 = FACE_BOUND('',#957,.T.);
#957 = EDGE_LOOP('',(#958,#959,#960,#966));
#958 = ORIENTED_EDGE('',*,*,#942,.T.);
#959 = ORIENTED_EDGE('',*,*,#228,.T.);
#960 = ORIENTED_EDGE('',*,*,#961,.F.);
#961 = EDGE_CURVE('',#499,#221,#962,.T.);
#962 = LINE('',#963,#964);
#963 = CARTESIAN_POINT('',(6.838513843938,12.401942402085,77.));
#964 = VECTOR('',#965,1.);
#965 = DIRECTION('',(0.,0.,1.));
#966 = ORIENTED_EDGE('',*,*,#498,.F.);
#967 = PLANE('',#968);
#968 = AXIS2_PLACEMENT_3D('',#969,#970,#971);
#969 = CARTESIAN_POINT('',(6.838513843938,22.401942402085,77.));
#970 = DIRECTION('',(1.,0.,0.));
#971 = DIRECTION('',(0.,-1.,0.));
#972 = ADVANCED_FACE('',(#973),#984,.T.);
#973 = FACE_BOUND('',#974,.T.);
#974 = EDGE_LOOP('',(#975,#976,#977,#983));
#975 = ORIENTED_EDGE('',*,*,#961,.T.);
#976 = ORIENTED_EDGE('',*,*,#220,.T.);
#977 = ORIENTED_EDGE('',*,*,#978,.F.);
#978 = EDGE_CURVE('',#507,#213,#979,.T.);
#979 = LINE('',#980,#981);
#980 = CARTESIAN_POINT('',(18.838513843938,12.401942402085,77.));
#981 = VECTOR('',#982,1.);
#982 = DIRECTION('',(0.,0.,1.));
#983 = ORIENTED_EDGE('',*,*,#506,.F.);
#984 = PLANE('',#985);
#985 = AXIS2_PLACEMENT_3D('',#986,#987,#988);
#986 = CARTESIAN_POINT('',(6.838513843938,12.401942402085,77.));
#987 = DIRECTION('',(0.,1.,0.));
#988 = DIRECTION('',(1.,0.,0.));
#989 = ADVANCED_FACE('',(#990),#1001,.T.);
#990 = FACE_BOUND('',#991,.T.);
#991 = EDGE_LOOP('',(#992,#993,#994,#1000));
#992 = ORIENTED_EDGE('',*,*,#978,.T.);
#993 = ORIENTED_EDGE('',*,*,#212,.T.);
#994 = ORIENTED_EDGE('',*,*,#995,.F.);
#995 = EDGE_CURVE('',#515,#205,#996,.T.);
#996 = LINE('',#997,#998);
#997 = CARTESIAN_POINT('',(18.838513843938,22.401942402085,77.));
#998 = VECTOR('',#999,1.);
#999 = DIRECTION('',(0.,0.,1.));
#1000 = ORIENTED_EDGE('',*,*,#514,.F.);
#1001 = PLANE('',#1002);
#1002 = AXIS2_PLACEMENT_3D('',#1003,#1004,#1005);
#1003 = CARTESIAN_POINT('',(18.838513843938,12.401942402085,77.));
#1004 = DIRECTION('',(-1.,0.,0.));
#1005 = DIRECTION('',(0.,1.,0.));
#1006 = ADVANCED_FACE('',(#1007),#1013,.T.);
#1007 = FACE_BOUND('',#1008,.T.);
#1008 = EDGE_LOOP('',(#1009,#1010,#1011,#1012));
#1009 = ORIENTED_EDGE('',*,*,#995,.T.);
#1010 = ORIENTED_EDGE('',*,*,#204,.T.);
#1011 = ORIENTED_EDGE('',*,*,#693,.F.);
#1012 = ORIENTED_EDGE('',*,*,#522,.F.);
#1013 = PLANE('',#1014);
#1014 = AXIS2_PLACEMENT_3D('',#1015,#1016,#1017);
#1015 = CARTESIAN_POINT('',(18.838513843938,22.401942402085,77.));
#1016 = DIRECTION('',(0.,1.,0.));
#1017 = DIRECTION('',(1.,0.,0.));
#1018 = ADVANCED_FACE('',(#1019),#1047,.F.);
#1019 = FACE_BOUND('',#1020,.T.);
#1020 = EDGE_LOOP('',(#1021,#1032,#1038,#1039,#1040));
#1021 = ORIENTED_EDGE('',*,*,#1022,.T.);
#1022 = EDGE_CURVE('',#1023,#1025,#1027,.T.);
#1023 = VERTEX_POINT('',#1024);
#1024 = CARTESIAN_POINT('',(-1.452230156062,-26.59805759791,78.309256));
#1025 = VERTEX_POINT('',#1026);
#1026 = CARTESIAN_POINT('',(2.129257843938,-26.59805759791,78.309256));
#1027 = CIRCLE('',#1028,1.790744);
#1028 = AXIS2_PLACEMENT_3D('',#1029,#1030,#1031);
#1029 = CARTESIAN_POINT('',(0.338513843938,-26.59805759791,78.309256));
#1030 = DIRECTION('',(0.,0.,-1.));
#1031 = DIRECTION('',(0.,1.,0.));
#1032 = ORIENTED_EDGE('',*,*,#1033,.T.);
#1033 = EDGE_CURVE('',#1025,#261,#1034,.T.);
#1034 = LINE('',#1035,#1036);
#1035 = CARTESIAN_POINT('',(2.129257843938,-26.59805759791,77.));
#1036 = VECTOR('',#1037,1.);
#1037 = DIRECTION('',(0.,0.,1.));
#1038 = ORIENTED_EDGE('',*,*,#260,.T.);
#1039 = ORIENTED_EDGE('',*,*,#1033,.F.);
#1040 = ORIENTED_EDGE('',*,*,#1041,.T.);
#1041 = EDGE_CURVE('',#1025,#1023,#1042,.T.);
#1042 = CIRCLE('',#1043,1.790744);
#1043 = AXIS2_PLACEMENT_3D('',#1044,#1045,#1046);
#1044 = CARTESIAN_POINT('',(0.338513843938,-26.59805759791,78.309256));
#1045 = DIRECTION('',(0.,0.,-1.));
#1046 = DIRECTION('',(0.,1.,0.));
#1047 = CYLINDRICAL_SURFACE('',#1048,1.790744);
#1048 = AXIS2_PLACEMENT_3D('',#1049,#1050,#1051);
#1049 = CARTESIAN_POINT('',(0.338513843938,-26.59805759791,77.));
#1050 = DIRECTION('',(-0.,-0.,-1.));
#1051 = DIRECTION('',(1.,0.,0.));
#1052 = ADVANCED_FACE('',(#1053),#1081,.F.);
#1053 = FACE_BOUND('',#1054,.T.);
#1054 = EDGE_LOOP('',(#1055,#1066,#1072,#1073,#1074));
#1055 = ORIENTED_EDGE('',*,*,#1056,.T.);
#1056 = EDGE_CURVE('',#1057,#1059,#1061,.T.);
#1057 = VERTEX_POINT('',#1058);
#1058 = CARTESIAN_POINT('',(-1.452230156062,-11.59805759791,78.309256));
#1059 = VERTEX_POINT('',#1060);
#1060 = CARTESIAN_POINT('',(2.129257843938,-11.59805759791,78.309256));
#1061 = CIRCLE('',#1062,1.790744);
#1062 = AXIS2_PLACEMENT_3D('',#1063,#1064,#1065);
#1063 = CARTESIAN_POINT('',(0.338513843938,-11.59805759791,78.309256));
#1064 = DIRECTION('',(0.,0.,-1.));
#1065 = DIRECTION('',(0.,1.,0.));
#1066 = ORIENTED_EDGE('',*,*,#1067,.T.);
#1067 = EDGE_CURVE('',#1059,#272,#1068,.T.);
#1068 = LINE('',#1069,#1070);
#1069 = CARTESIAN_POINT('',(2.129257843938,-11.59805759791,77.));
#1070 = VECTOR('',#1071,1.);
#1071 = DIRECTION('',(0.,0.,1.));
#1072 = ORIENTED_EDGE('',*,*,#271,.T.);
#1073 = ORIENTED_EDGE('',*,*,#1067,.F.);
#1074 = ORIENTED_EDGE('',*,*,#1075,.T.);
#1075 = EDGE_CURVE('',#1059,#1057,#1076,.T.);
#1076 = CIRCLE('',#1077,1.790744);
#1077 = AXIS2_PLACEMENT_3D('',#1078,#1079,#1080);
#1078 = CARTESIAN_POINT('',(0.338513843938,-11.59805759791,78.309256));
#1079 = DIRECTION('',(0.,0.,-1.));
#1080 = DIRECTION('',(0.,1.,0.));
#1081 = CYLINDRICAL_SURFACE('',#1082,1.790744);
#1082 = AXIS2_PLACEMENT_3D('',#1083,#1084,#1085);
#1083 = CARTESIAN_POINT('',(0.338513843938,-11.59805759791,77.));
#1084 = DIRECTION('',(-0.,-0.,-1.));
#1085 = DIRECTION('',(1.,0.,0.));
#1086 = ADVANCED_FACE('',(#1087),#1115,.F.);
#1087 = FACE_BOUND('',#1088,.T.);
#1088 = EDGE_LOOP('',(#1089,#1100,#1106,#1107,#1108));
#1089 = ORIENTED_EDGE('',*,*,#1090,.T.);
#1090 = EDGE_CURVE('',#1091,#1093,#1095,.T.);
#1091 = VERTEX_POINT('',#1092);
#1092 = CARTESIAN_POINT('',(23.547769843938,-26.59805759791,78.309256));
#1093 = VERTEX_POINT('',#1094);
#1094 = CARTESIAN_POINT('',(27.129257843938,-26.59805759791,78.309256));
#1095 = CIRCLE('',#1096,1.790744);
#1096 = AXIS2_PLACEMENT_3D('',#1097,#1098,#1099);
#1097 = CARTESIAN_POINT('',(25.338513843938,-26.59805759791,78.309256));
#1098 = DIRECTION('',(0.,0.,-1.));
#1099 = DIRECTION('',(0.,1.,0.));
#1100 = ORIENTED_EDGE('',*,*,#1101,.T.);
#1101 = EDGE_CURVE('',#1093,#283,#1102,.T.);
#1102 = LINE('',#1103,#1104);
#1103 = CARTESIAN_POINT('',(27.129257843938,-26.59805759791,77.));
#1104 = VECTOR('',#1105,1.);
#1105 = DIRECTION('',(0.,0.,1.));
#1106 = ORIENTED_EDGE('',*,*,#282,.T.);
#1107 = ORIENTED_EDGE('',*,*,#1101,.F.);
#1108 = ORIENTED_EDGE('',*,*,#1109,.T.);
#1109 = EDGE_CURVE('',#1093,#1091,#1110,.T.);
#1110 = CIRCLE('',#1111,1.790744);
#1111 = AXIS2_PLACEMENT_3D('',#1112,#1113,#1114);
#1112 = CARTESIAN_POINT('',(25.338513843938,-26.59805759791,78.309256));
#1113 = DIRECTION('',(0.,0.,-1.));
#1114 = DIRECTION('',(0.,1.,0.));
#1115 = CYLINDRICAL_SURFACE('',#1116,1.790744);
#1116 = AXIS2_PLACEMENT_3D('',#1117,#1118,#1119);
#1117 = CARTESIAN_POINT('',(25.338513843938,-26.59805759791,77.));
#1118 = DIRECTION('',(-0.,-0.,-1.));
#1119 = DIRECTION('',(1.,0.,0.));
#1120 = ADVANCED_FACE('',(#1121),#1149,.F.);
#1121 = FACE_BOUND('',#1122,.T.);
#1122 = EDGE_LOOP('',(#1123,#1134,#1140,#1141,#1142));
#1123 = ORIENTED_EDGE('',*,*,#1124,.T.);
#1124 = EDGE_CURVE('',#1125,#1127,#1129,.T.);
#1125 = VERTEX_POINT('',#1126);
#1126 = CARTESIAN_POINT('',(23.547769843938,-11.59805759791,78.309256));
#1127 = VERTEX_POINT('',#1128);
#1128 = CARTESIAN_POINT('',(27.129257843938,-11.59805759791,78.309256));
#1129 = CIRCLE('',#1130,1.790744);
#1130 = AXIS2_PLACEMENT_3D('',#1131,#1132,#1133);
#1131 = CARTESIAN_POINT('',(25.338513843938,-11.59805759791,78.309256));
#1132 = DIRECTION('',(0.,0.,-1.));
#1133 = DIRECTION('',(0.,1.,0.));
#1134 = ORIENTED_EDGE('',*,*,#1135,.T.);
#1135 = EDGE_CURVE('',#1127,#294,#1136,.T.);
#1136 = LINE('',#1137,#1138);
#1137 = CARTESIAN_POINT('',(27.129257843938,-11.59805759791,77.));
#1138 = VECTOR('',#1139,1.);
#1139 = DIRECTION('',(0.,0.,1.));
#1140 = ORIENTED_EDGE('',*,*,#293,.T.);
#1141 = ORIENTED_EDGE('',*,*,#1135,.F.);
#1142 = ORIENTED_EDGE('',*,*,#1143,.T.);
#1143 = EDGE_CURVE('',#1127,#1125,#1144,.T.);
#1144 = CIRCLE('',#1145,1.790744);
#1145 = AXIS2_PLACEMENT_3D('',#1146,#1147,#1148);
#1146 = CARTESIAN_POINT('',(25.338513843938,-11.59805759791,78.309256));
#1147 = DIRECTION('',(0.,0.,-1.));
#1148 = DIRECTION('',(0.,1.,0.));
#1149 = CYLINDRICAL_SURFACE('',#1150,1.790744);
#1150 = AXIS2_PLACEMENT_3D('',#1151,#1152,#1153);
#1151 = CARTESIAN_POINT('',(25.338513843938,-11.59805759791,77.));
#1152 = DIRECTION('',(-0.,-0.,-1.));
#1153 = DIRECTION('',(1.,0.,0.));
#1154 = ADVANCED_FACE('',(#1155),#1166,.F.);
#1155 = FACE_BOUND('',#1156,.T.);
#1156 = EDGE_LOOP('',(#1157,#1163,#1164,#1165));
#1157 = ORIENTED_EDGE('',*,*,#1158,.T.);
#1158 = EDGE_CURVE('',#627,#305,#1159,.T.);
#1159 = LINE('',#1160,#1161);
#1160 = CARTESIAN_POINT('',(5.2,17.401942402085,77.));
#1161 = VECTOR('',#1162,1.);
#1162 = DIRECTION('',(0.,0.,1.));
#1163 = ORIENTED_EDGE('',*,*,#304,.T.);
#1164 = ORIENTED_EDGE('',*,*,#1158,.F.);
#1165 = ORIENTED_EDGE('',*,*,#626,.F.);
#1166 = CYLINDRICAL_SURFACE('',#1167,1.7);
#1167 = AXIS2_PLACEMENT_3D('',#1168,#1169,#1170);
#1168 = CARTESIAN_POINT('',(3.5,17.401942402085,77.));
#1169 = DIRECTION('',(-0.,-0.,-1.));
#1170 = DIRECTION('',(1.,0.,0.));
#1171 = ADVANCED_FACE('',(#1172),#1183,.F.);
#1172 = FACE_BOUND('',#1173,.T.);
#1173 = EDGE_LOOP('',(#1174,#1180,#1181,#1182));
#1174 = ORIENTED_EDGE('',*,*,#1175,.T.);
#1175 = EDGE_CURVE('',#638,#316,#1176,.T.);
#1176 = LINE('',#1177,#1178);
#1177 = CARTESIAN_POINT('',(24.2,17.401942402085,77.));
#1178 = VECTOR('',#1179,1.);
#1179 = DIRECTION('',(0.,0.,1.));
#1180 = ORIENTED_EDGE('',*,*,#315,.T.);
#1181 = ORIENTED_EDGE('',*,*,#1175,.F.);
#1182 = ORIENTED_EDGE('',*,*,#637,.F.);
#1183 = CYLINDRICAL_SURFACE('',#1184,1.7);
#1184 = AXIS2_PLACEMENT_3D('',#1185,#1186,#1187);
#1185 = CARTESIAN_POINT('',(22.5,17.401942402085,77.));
#1186 = DIRECTION('',(-0.,-0.,-1.));
#1187 = DIRECTION('',(1.,0.,0.));
#1188 = ADVANCED_FACE('',(#1189),#1200,.T.);
#1189 = FACE_BOUND('',#1190,.F.);
#1190 = EDGE_LOOP('',(#1191,#1197,#1198,#1199));
#1191 = ORIENTED_EDGE('',*,*,#1192,.T.);
#1192 = EDGE_CURVE('',#418,#781,#1193,.T.);
#1193 = LINE('',#1194,#1195);
#1194 = CARTESIAN_POINT('',(18.838513843938,-135.5980575979,77.));
#1195 = VECTOR('',#1196,1.);
#1196 = DIRECTION('',(0.,0.,1.));
#1197 = ORIENTED_EDGE('',*,*,#780,.T.);
#1198 = ORIENTED_EDGE('',*,*,#753,.F.);
#1199 = ORIENTED_EDGE('',*,*,#417,.F.);
#1200 = PLANE('',#1201);
#1201 = AXIS2_PLACEMENT_3D('',#1202,#1203,#1204);
#1202 = CARTESIAN_POINT('',(18.838513843938,-135.5980575979,77.));
#1203 = DIRECTION('',(-0.,-1.,-0.));
#1204 = DIRECTION('',(-1.,0.,0.));
#1205 = ADVANCED_FACE('',(#1206),#1217,.T.);
#1206 = FACE_BOUND('',#1207,.F.);
#1207 = EDGE_LOOP('',(#1208,#1214,#1215,#1216));
#1208 = ORIENTED_EDGE('',*,*,#1209,.T.);
#1209 = EDGE_CURVE('',#426,#789,#1210,.T.);
#1210 = LINE('',#1211,#1212);
#1211 = CARTESIAN_POINT('',(18.838513843938,-125.5980575979,77.));
#1212 = VECTOR('',#1213,1.);
#1213 = DIRECTION('',(0.,0.,1.));
#1214 = ORIENTED_EDGE('',*,*,#788,.T.);
#1215 = ORIENTED_EDGE('',*,*,#1192,.F.);
#1216 = ORIENTED_EDGE('',*,*,#425,.F.);
#1217 = PLANE('',#1218);
#1218 = AXIS2_PLACEMENT_3D('',#1219,#1220,#1221);
#1219 = CARTESIAN_POINT('',(18.838513843938,-125.5980575979,77.));
#1220 = DIRECTION('',(-1.,-0.,-0.));
#1221 = DIRECTION('',(0.,1.,0.));
#1222 = ADVANCED_FACE('',(#1223),#1234,.T.);
#1223 = FACE_BOUND('',#1224,.F.);
#1224 = EDGE_LOOP('',(#1225,#1231,#1232,#1233));
#1225 = ORIENTED_EDGE('',*,*,#1226,.T.);
#1226 = EDGE_CURVE('',#434,#797,#1227,.T.);
#1227 = LINE('',#1228,#1229);
#1228 = CARTESIAN_POINT('',(6.838513843938,-125.5980575979,77.));
#1229 = VECTOR('',#1230,1.);
#1230 = DIRECTION('',(0.,0.,1.));
#1231 = ORIENTED_EDGE('',*,*,#796,.T.);
#1232 = ORIENTED_EDGE('',*,*,#1209,.F.);
#1233 = ORIENTED_EDGE('',*,*,#433,.F.);
#1234 = PLANE('',#1235);
#1235 = AXIS2_PLACEMENT_3D('',#1236,#1237,#1238);
#1236 = CARTESIAN_POINT('',(6.838513843938,-125.5980575979,77.));
#1237 = DIRECTION('',(-0.,-1.,-0.));
#1238 = DIRECTION('',(-1.,0.,0.));
#1239 = ADVANCED_FACE('',(#1240),#1251,.T.);
#1240 = FACE_BOUND('',#1241,.F.);
#1241 = EDGE_LOOP('',(#1242,#1248,#1249,#1250));
#1242 = ORIENTED_EDGE('',*,*,#1243,.T.);
#1243 = EDGE_CURVE('',#442,#805,#1244,.T.);
#1244 = LINE('',#1245,#1246);
#1245 = CARTESIAN_POINT('',(6.838513843938,-135.5980575979,77.));
#1246 = VECTOR('',#1247,1.);
#1247 = DIRECTION('',(0.,0.,1.));
#1248 = ORIENTED_EDGE('',*,*,#804,.T.);
#1249 = ORIENTED_EDGE('',*,*,#1226,.F.);
#1250 = ORIENTED_EDGE('',*,*,#441,.F.);
#1251 = PLANE('',#1252);
#1252 = AXIS2_PLACEMENT_3D('',#1253,#1254,#1255);
#1253 = CARTESIAN_POINT('',(6.838513843938,-135.5980575979,77.));
#1254 = DIRECTION('',(1.,0.,0.));
#1255 = DIRECTION('',(0.,-1.,0.));
#1256 = ADVANCED_FACE('',(#1257),#1268,.F.);
#1257 = FACE_BOUND('',#1258,.T.);
#1258 = EDGE_LOOP('',(#1259,#1260,#1261,#1267));
#1259 = ORIENTED_EDGE('',*,*,#1243,.T.);
#1260 = ORIENTED_EDGE('',*,*,#812,.T.);
#1261 = ORIENTED_EDGE('',*,*,#1262,.F.);
#1262 = EDGE_CURVE('',#450,#813,#1263,.T.);
#1263 = LINE('',#1264,#1265);
#1264 = CARTESIAN_POINT('',(-1.161486156062,-135.5980575979,77.));
#1265 = VECTOR('',#1266,1.);
#1266 = DIRECTION('',(0.,0.,1.));
#1267 = ORIENTED_EDGE('',*,*,#449,.F.);
#1268 = PLANE('',#1269);
#1269 = AXIS2_PLACEMENT_3D('',#1270,#1271,#1272);
#1270 = CARTESIAN_POINT('',(6.838513843938,-135.5980575979,77.));
#1271 = DIRECTION('',(0.,1.,0.));
#1272 = DIRECTION('',(1.,0.,0.));
#1273 = ADVANCED_FACE('',(#1274),#1285,.F.);
#1274 = FACE_BOUND('',#1275,.T.);
#1275 = EDGE_LOOP('',(#1276,#1277,#1278,#1284));
#1276 = ORIENTED_EDGE('',*,*,#1262,.T.);
#1277 = ORIENTED_EDGE('',*,*,#820,.T.);
#1278 = ORIENTED_EDGE('',*,*,#1279,.F.);
#1279 = EDGE_CURVE('',#458,#821,#1280,.T.);
#1280 = LINE('',#1281,#1282);
#1281 = CARTESIAN_POINT('',(-7.147696962,-116.5980575979,77.));
#1282 = VECTOR('',#1283,1.);
#1283 = DIRECTION('',(0.,0.,1.));
#1284 = ORIENTED_EDGE('',*,*,#457,.F.);
#1285 = PLANE('',#1286);
#1286 = AXIS2_PLACEMENT_3D('',#1287,#1288,#1289);
#1287 = CARTESIAN_POINT('',(-1.161486156062,-135.5980575979,77.));
#1288 = DIRECTION('',(0.95378122628,0.30050186754,0.));
#1289 = DIRECTION('',(0.30050186754,-0.95378122628,0.));
#1290 = ADVANCED_FACE('',(#1291),#1297,.F.);
#1291 = FACE_BOUND('',#1292,.T.);
#1292 = EDGE_LOOP('',(#1293,#1294,#1295,#1296));
#1293 = ORIENTED_EDGE('',*,*,#465,.F.);
#1294 = ORIENTED_EDGE('',*,*,#1279,.T.);
#1295 = ORIENTED_EDGE('',*,*,#828,.T.);
#1296 = ORIENTED_EDGE('',*,*,#731,.F.);
#1297 = PLANE('',#1298);
#1298 = AXIS2_PLACEMENT_3D('',#1299,#1300,#1301);
#1299 = CARTESIAN_POINT('',(-7.147696962,-116.5980575979,77.));
#1300 = DIRECTION('',(1.,0.,0.));
#1301 = DIRECTION('',(0.,-1.,0.));
#1302 = ADVANCED_FACE('',(#1303),#1315,.F.);
#1303 = FACE_BOUND('',#1304,.T.);
#1304 = EDGE_LOOP('',(#1305,#1311,#1312,#1313,#1314));
#1305 = ORIENTED_EDGE('',*,*,#1306,.F.);
#1306 = EDGE_CURVE('',#539,#1023,#1307,.T.);
#1307 = LINE('',#1308,#1309);
#1308 = CARTESIAN_POINT('',(-2.761486156062,-26.59805759791,77.));
#1309 = VECTOR('',#1310,1.);
#1310 = DIRECTION('',(0.707106781187,0.,0.707106781187));
#1311 = ORIENTED_EDGE('',*,*,#538,.T.);
#1312 = ORIENTED_EDGE('',*,*,#1306,.T.);
#1313 = ORIENTED_EDGE('',*,*,#1041,.F.);
#1314 = ORIENTED_EDGE('',*,*,#1022,.F.);
#1315 = CONICAL_SURFACE('',#1316,3.1,0.785398163397);
#1316 = AXIS2_PLACEMENT_3D('',#1317,#1318,#1319);
#1317 = CARTESIAN_POINT('',(0.338513843938,-26.59805759791,77.));
#1318 = DIRECTION('',(-0.,-0.,-1.));
#1319 = DIRECTION('',(-1.,0.,0.));
#1320 = ADVANCED_FACE('',(#1321),#1333,.F.);
#1321 = FACE_BOUND('',#1322,.T.);
#1322 = EDGE_LOOP('',(#1323,#1329,#1330,#1331,#1332));
#1323 = ORIENTED_EDGE('',*,*,#1324,.F.);
#1324 = EDGE_CURVE('',#550,#1057,#1325,.T.);
#1325 = LINE('',#1326,#1327);
#1326 = CARTESIAN_POINT('',(-2.761486156062,-11.59805759791,77.));
#1327 = VECTOR('',#1328,1.);
#1328 = DIRECTION('',(0.707106781187,0.,0.707106781187));
#1329 = ORIENTED_EDGE('',*,*,#549,.T.);
#1330 = ORIENTED_EDGE('',*,*,#1324,.T.);
#1331 = ORIENTED_EDGE('',*,*,#1075,.F.);
#1332 = ORIENTED_EDGE('',*,*,#1056,.F.);
#1333 = CONICAL_SURFACE('',#1334,3.1,0.785398163397);
#1334 = AXIS2_PLACEMENT_3D('',#1335,#1336,#1337);
#1335 = CARTESIAN_POINT('',(0.338513843938,-11.59805759791,77.));
#1336 = DIRECTION('',(-0.,-0.,-1.));
#1337 = DIRECTION('',(-1.,0.,0.));
#1338 = ADVANCED_FACE('',(#1339),#1351,.F.);
#1339 = FACE_BOUND('',#1340,.T.);
#1340 = EDGE_LOOP('',(#1341,#1347,#1348,#1349,#1350));
#1341 = ORIENTED_EDGE('',*,*,#1342,.F.);
#1342 = EDGE_CURVE('',#561,#1091,#1343,.T.);
#1343 = LINE('',#1344,#1345);
#1344 = CARTESIAN_POINT('',(22.238513843938,-26.59805759791,77.));
#1345 = VECTOR('',#1346,1.);
#1346 = DIRECTION('',(0.707106781187,0.,0.707106781187));
#1347 = ORIENTED_EDGE('',*,*,#560,.T.);
#1348 = ORIENTED_EDGE('',*,*,#1342,.T.);
#1349 = ORIENTED_EDGE('',*,*,#1109,.F.);
#1350 = ORIENTED_EDGE('',*,*,#1090,.F.);
#1351 = CONICAL_SURFACE('',#1352,3.1,0.785398163397);
#1352 = AXIS2_PLACEMENT_3D('',#1353,#1354,#1355);
#1353 = CARTESIAN_POINT('',(25.338513843938,-26.59805759791,77.));
#1354 = DIRECTION('',(-0.,-0.,-1.));
#1355 = DIRECTION('',(-1.,0.,0.));
#1356 = ADVANCED_FACE('',(#1357),#1369,.F.);
#1357 = FACE_BOUND('',#1358,.T.);
#1358 = EDGE_LOOP('',(#1359,#1365,#1366,#1367,#1368));
#1359 = ORIENTED_EDGE('',*,*,#1360,.F.);
#1360 = EDGE_CURVE('',#572,#1125,#1361,.T.);
#1361 = LINE('',#1362,#1363);
#1362 = CARTESIAN_POINT('',(22.238513843938,-11.59805759791,77.));
#1363 = VECTOR('',#1364,1.);
#1364 = DIRECTION('',(0.707106781187,0.,0.707106781187));
#1365 = ORIENTED_EDGE('',*,*,#571,.T.);
#1366 = ORIENTED_EDGE('',*,*,#1360,.T.);
#1367 = ORIENTED_EDGE('',*,*,#1143,.F.);
#1368 = ORIENTED_EDGE('',*,*,#1124,.F.);
#1369 = CONICAL_SURFACE('',#1370,3.1,0.785398163397);
#1370 = AXIS2_PLACEMENT_3D('',#1371,#1372,#1373);
#1371 = CARTESIAN_POINT('',(25.338513843938,-11.59805759791,77.));
#1372 = DIRECTION('',(-0.,-0.,-1.));
#1373 = DIRECTION('',(-1.,0.,0.));
#1374 = ADVANCED_FACE('',(#1375),#1403,.F.);
#1375 = FACE_BOUND('',#1376,.T.);
#1376 = EDGE_LOOP('',(#1377,#1385,#1386,#1387,#1396));
#1377 = ORIENTED_EDGE('',*,*,#1378,.F.);
#1378 = EDGE_CURVE('',#583,#1379,#1381,.T.);
#1379 = VERTEX_POINT('',#1380);
#1380 = CARTESIAN_POINT('',(-1.452230156062,-86.59805759791,78.309256));
#1381 = LINE('',#1382,#1383);
#1382 = CARTESIAN_POINT('',(-2.761486156062,-86.59805759791,77.));
#1383 = VECTOR('',#1384,1.);
#1384 = DIRECTION('',(0.707106781187,0.,0.707106781187));
#1385 = ORIENTED_EDGE('',*,*,#582,.T.);
#1386 = ORIENTED_EDGE('',*,*,#1378,.T.);
#1387 = ORIENTED_EDGE('',*,*,#1388,.F.);
#1388 = EDGE_CURVE('',#1389,#1379,#1391,.T.);
#1389 = VERTEX_POINT('',#1390);
#1390 = CARTESIAN_POINT('',(2.129257843938,-86.59805759791,78.309256));
#1391 = CIRCLE('',#1392,1.790744);
#1392 = AXIS2_PLACEMENT_3D('',#1393,#1394,#1395);
#1393 = CARTESIAN_POINT('',(0.338513843938,-86.59805759791,78.309256));
#1394 = DIRECTION('',(0.,0.,-1.));
#1395 = DIRECTION('',(0.,1.,0.));
#1396 = ORIENTED_EDGE('',*,*,#1397,.F.);
#1397 = EDGE_CURVE('',#1379,#1389,#1398,.T.);
#1398 = CIRCLE('',#1399,1.790744);
#1399 = AXIS2_PLACEMENT_3D('',#1400,#1401,#1402);
#1400 = CARTESIAN_POINT('',(0.338513843938,-86.59805759791,78.309256));
#1401 = DIRECTION('',(0.,0.,-1.));
#1402 = DIRECTION('',(0.,1.,0.));
#1403 = CONICAL_SURFACE('',#1404,3.1,0.785398163397);
#1404 = AXIS2_PLACEMENT_3D('',#1405,#1406,#1407);
#1405 = CARTESIAN_POINT('',(0.338513843938,-86.59805759791,77.));
#1406 = DIRECTION('',(-0.,-0.,-1.));
#1407 = DIRECTION('',(-1.,0.,0.));
#1408 = ADVANCED_FACE('',(#1409),#1437,.F.);
#1409 = FACE_BOUND('',#1410,.T.);
#1410 = EDGE_LOOP('',(#1411,#1419,#1420,#1421,#1430));
#1411 = ORIENTED_EDGE('',*,*,#1412,.F.);
#1412 = EDGE_CURVE('',#594,#1413,#1415,.T.);
#1413 = VERTEX_POINT('',#1414);
#1414 = CARTESIAN_POINT('',(-1.452230156062,-101.5980575979,78.309256));
#1415 = LINE('',#1416,#1417);
#1416 = CARTESIAN_POINT('',(-2.761486156062,-101.5980575979,77.));
#1417 = VECTOR('',#1418,1.);
#1418 = DIRECTION('',(0.707106781187,0.,0.707106781187));
#1419 = ORIENTED_EDGE('',*,*,#593,.T.);
#1420 = ORIENTED_EDGE('',*,*,#1412,.T.);
#1421 = ORIENTED_EDGE('',*,*,#1422,.F.);
#1422 = EDGE_CURVE('',#1423,#1413,#1425,.T.);
#1423 = VERTEX_POINT('',#1424);
#1424 = CARTESIAN_POINT('',(2.129257843938,-101.5980575979,78.309256));
#1425 = CIRCLE('',#1426,1.790744);
#1426 = AXIS2_PLACEMENT_3D('',#1427,#1428,#1429);
#1427 = CARTESIAN_POINT('',(0.338513843938,-101.5980575979,78.309256));
#1428 = DIRECTION('',(0.,0.,-1.));
#1429 = DIRECTION('',(0.,1.,0.));
#1430 = ORIENTED_EDGE('',*,*,#1431,.F.);
#1431 = EDGE_CURVE('',#1413,#1423,#1432,.T.);
#1432 = CIRCLE('',#1433,1.790744);
#1433 = AXIS2_PLACEMENT_3D('',#1434,#1435,#1436);
#1434 = CARTESIAN_POINT('',(0.338513843938,-101.5980575979,78.309256));
#1435 = DIRECTION('',(0.,0.,-1.));
#1436 = DIRECTION('',(0.,1.,0.));
#1437 = CONICAL_SURFACE('',#1438,3.1,0.785398163397);
#1438 = AXIS2_PLACEMENT_3D('',#1439,#1440,#1441);
#1439 = CARTESIAN_POINT('',(0.338513843938,-101.5980575979,77.));
#1440 = DIRECTION('',(-0.,-0.,-1.));
#1441 = DIRECTION('',(-1.,0.,0.));
#1442 = ADVANCED_FACE('',(#1443),#1471,.F.);
#1443 = FACE_BOUND('',#1444,.T.);
#1444 = EDGE_LOOP('',(#1445,#1453,#1454,#1455,#1464));
#1445 = ORIENTED_EDGE('',*,*,#1446,.F.);
#1446 = EDGE_CURVE('',#605,#1447,#1449,.T.);
#1447 = VERTEX_POINT('',#1448);
#1448 = CARTESIAN_POINT('',(23.547769843938,-86.59805759791,78.309256));
#1449 = LINE('',#1450,#1451);
#1450 = CARTESIAN_POINT('',(22.238513843938,-86.59805759791,77.));
#1451 = VECTOR('',#1452,1.);
#1452 = DIRECTION('',(0.707106781187,0.,0.707106781187));
#1453 = ORIENTED_EDGE('',*,*,#604,.T.);
#1454 = ORIENTED_EDGE('',*,*,#1446,.T.);
#1455 = ORIENTED_EDGE('',*,*,#1456,.F.);
#1456 = EDGE_CURVE('',#1457,#1447,#1459,.T.);
#1457 = VERTEX_POINT('',#1458);
#1458 = CARTESIAN_POINT('',(27.129257843938,-86.59805759791,78.309256));
#1459 = CIRCLE('',#1460,1.790744);
#1460 = AXIS2_PLACEMENT_3D('',#1461,#1462,#1463);
#1461 = CARTESIAN_POINT('',(25.338513843938,-86.59805759791,78.309256));
#1462 = DIRECTION('',(0.,0.,-1.));
#1463 = DIRECTION('',(0.,1.,0.));
#1464 = ORIENTED_EDGE('',*,*,#1465,.F.);
#1465 = EDGE_CURVE('',#1447,#1457,#1466,.T.);
#1466 = CIRCLE('',#1467,1.790744);
#1467 = AXIS2_PLACEMENT_3D('',#1468,#1469,#1470);
#1468 = CARTESIAN_POINT('',(25.338513843938,-86.59805759791,78.309256));
#1469 = DIRECTION('',(0.,0.,-1.));
#1470 = DIRECTION('',(0.,1.,0.));
#1471 = CONICAL_SURFACE('',#1472,3.1,0.785398163397);
#1472 = AXIS2_PLACEMENT_3D('',#1473,#1474,#1475);
#1473 = CARTESIAN_POINT('',(25.338513843938,-86.59805759791,77.));
#1474 = DIRECTION('',(-0.,-0.,-1.));
#1475 = DIRECTION('',(-1.,0.,0.));
#1476 = ADVANCED_FACE('',(#1477),#1505,.F.);
#1477 = FACE_BOUND('',#1478,.T.);
#1478 = EDGE_LOOP('',(#1479,#1487,#1488,#1489,#1498));
#1479 = ORIENTED_EDGE('',*,*,#1480,.F.);
#1480 = EDGE_CURVE('',#616,#1481,#1483,.T.);
#1481 = VERTEX_POINT('',#1482);
#1482 = CARTESIAN_POINT('',(23.547769843938,-101.5980575979,78.309256));
#1483 = LINE('',#1484,#1485);
#1484 = CARTESIAN_POINT('',(22.238513843938,-101.5980575979,77.));
#1485 = VECTOR('',#1486,1.);
#1486 = DIRECTION('',(0.707106781187,0.,0.707106781187));
#1487 = ORIENTED_EDGE('',*,*,#615,.T.);
#1488 = ORIENTED_EDGE('',*,*,#1480,.T.);
#1489 = ORIENTED_EDGE('',*,*,#1490,.F.);
#1490 = EDGE_CURVE('',#1491,#1481,#1493,.T.);
#1491 = VERTEX_POINT('',#1492);
#1492 = CARTESIAN_POINT('',(27.129257843938,-101.5980575979,78.309256));
#1493 = CIRCLE('',#1494,1.790744);
#1494 = AXIS2_PLACEMENT_3D('',#1495,#1496,#1497);
#1495 = CARTESIAN_POINT('',(25.338513843938,-101.5980575979,78.309256));
#1496 = DIRECTION('',(0.,0.,-1.));
#1497 = DIRECTION('',(0.,1.,0.));
#1498 = ORIENTED_EDGE('',*,*,#1499,.F.);
#1499 = EDGE_CURVE('',#1481,#1491,#1500,.T.);
#1500 = CIRCLE('',#1501,1.790744);
#1501 = AXIS2_PLACEMENT_3D('',#1502,#1503,#1504);
#1502 = CARTESIAN_POINT('',(25.338513843938,-101.5980575979,78.309256));
#1503 = DIRECTION('',(0.,0.,-1.));
#1504 = DIRECTION('',(0.,1.,0.));
#1505 = CONICAL_SURFACE('',#1506,3.1,0.785398163397);
#1506 = AXIS2_PLACEMENT_3D('',#1507,#1508,#1509);
#1507 = CARTESIAN_POINT('',(25.338513843938,-101.5980575979,77.));
#1508 = DIRECTION('',(-0.,-0.,-1.));
#1509 = DIRECTION('',(-1.,0.,0.));
#1510 = ADVANCED_FACE('',(#1511),#1522,.F.);
#1511 = FACE_BOUND('',#1512,.F.);
#1512 = EDGE_LOOP('',(#1513,#1519,#1520,#1521));
#1513 = ORIENTED_EDGE('',*,*,#1514,.T.);
#1514 = EDGE_CURVE('',#649,#881,#1515,.T.);
#1515 = LINE('',#1516,#1517);
#1516 = CARTESIAN_POINT('',(5.2,-130.5980575979,77.));
#1517 = VECTOR('',#1518,1.);
#1518 = DIRECTION('',(0.,0.,1.));
#1519 = ORIENTED_EDGE('',*,*,#880,.T.);
#1520 = ORIENTED_EDGE('',*,*,#1514,.F.);
#1521 = ORIENTED_EDGE('',*,*,#648,.F.);
#1522 = CYLINDRICAL_SURFACE('',#1523,1.7);
#1523 = AXIS2_PLACEMENT_3D('',#1524,#1525,#1526);
#1524 = CARTESIAN_POINT('',(3.5,-130.5980575979,77.));
#1525 = DIRECTION('',(0.,0.,-1.));
#1526 = DIRECTION('',(1.,0.,0.));
#1527 = ADVANCED_FACE('',(#1528),#1539,.F.);
#1528 = FACE_BOUND('',#1529,.F.);
#1529 = EDGE_LOOP('',(#1530,#1536,#1537,#1538));
#1530 = ORIENTED_EDGE('',*,*,#1531,.T.);
#1531 = EDGE_CURVE('',#660,#892,#1532,.T.);
#1532 = LINE('',#1533,#1534);
#1533 = CARTESIAN_POINT('',(24.2,-130.5980575979,77.));
#1534 = VECTOR('',#1535,1.);
#1535 = DIRECTION('',(0.,0.,1.));
#1536 = ORIENTED_EDGE('',*,*,#891,.T.);
#1537 = ORIENTED_EDGE('',*,*,#1531,.F.);
#1538 = ORIENTED_EDGE('',*,*,#659,.F.);
#1539 = CYLINDRICAL_SURFACE('',#1540,1.7);
#1540 = AXIS2_PLACEMENT_3D('',#1541,#1542,#1543);
#1541 = CARTESIAN_POINT('',(22.5,-130.5980575979,77.));
#1542 = DIRECTION('',(0.,0.,-1.));
#1543 = DIRECTION('',(1.,0.,0.));
#1544 = ADVANCED_FACE('',(#1545),#1557,.F.);
#1545 = FACE_BOUND('',#1546,.F.);
#1546 = EDGE_LOOP('',(#1547,#1548,#1554,#1555,#1556));
#1547 = ORIENTED_EDGE('',*,*,#1388,.F.);
#1548 = ORIENTED_EDGE('',*,*,#1549,.T.);
#1549 = EDGE_CURVE('',#1389,#837,#1550,.T.);
#1550 = LINE('',#1551,#1552);
#1551 = CARTESIAN_POINT('',(2.129257843938,-86.59805759791,77.));
#1552 = VECTOR('',#1553,1.);
#1553 = DIRECTION('',(0.,0.,1.));
#1554 = ORIENTED_EDGE('',*,*,#836,.T.);
#1555 = ORIENTED_EDGE('',*,*,#1549,.F.);
#1556 = ORIENTED_EDGE('',*,*,#1397,.F.);
#1557 = CYLINDRICAL_SURFACE('',#1558,1.790744);
#1558 = AXIS2_PLACEMENT_3D('',#1559,#1560,#1561);
#1559 = CARTESIAN_POINT('',(0.338513843938,-86.59805759791,77.));
#1560 = DIRECTION('',(0.,0.,-1.));
#1561 = DIRECTION('',(1.,0.,0.));
#1562 = ADVANCED_FACE('',(#1563),#1575,.F.);
#1563 = FACE_BOUND('',#1564,.F.);
#1564 = EDGE_LOOP('',(#1565,#1566,#1572,#1573,#1574));
#1565 = ORIENTED_EDGE('',*,*,#1422,.F.);
#1566 = ORIENTED_EDGE('',*,*,#1567,.T.);
#1567 = EDGE_CURVE('',#1423,#848,#1568,.T.);
#1568 = LINE('',#1569,#1570);
#1569 = CARTESIAN_POINT('',(2.129257843938,-101.5980575979,77.));
#1570 = VECTOR('',#1571,1.);
#1571 = DIRECTION('',(0.,0.,1.));
#1572 = ORIENTED_EDGE('',*,*,#847,.T.);
#1573 = ORIENTED_EDGE('',*,*,#1567,.F.);
#1574 = ORIENTED_EDGE('',*,*,#1431,.F.);
#1575 = CYLINDRICAL_SURFACE('',#1576,1.790744);
#1576 = AXIS2_PLACEMENT_3D('',#1577,#1578,#1579);
#1577 = CARTESIAN_POINT('',(0.338513843938,-101.5980575979,77.));
#1578 = DIRECTION('',(0.,0.,-1.));
#1579 = DIRECTION('',(1.,0.,0.));
#1580 = ADVANCED_FACE('',(#1581),#1593,.F.);
#1581 = FACE_BOUND('',#1582,.F.);
#1582 = EDGE_LOOP('',(#1583,#1584,#1590,#1591,#1592));
#1583 = ORIENTED_EDGE('',*,*,#1456,.F.);
#1584 = ORIENTED_EDGE('',*,*,#1585,.T.);
#1585 = EDGE_CURVE('',#1457,#859,#1586,.T.);
#1586 = LINE('',#1587,#1588);
#1587 = CARTESIAN_POINT('',(27.129257843938,-86.59805759791,77.));
#1588 = VECTOR('',#1589,1.);
#1589 = DIRECTION('',(0.,0.,1.));
#1590 = ORIENTED_EDGE('',*,*,#858,.T.);
#1591 = ORIENTED_EDGE('',*,*,#1585,.F.);
#1592 = ORIENTED_EDGE('',*,*,#1465,.F.);
#1593 = CYLINDRICAL_SURFACE('',#1594,1.790744);
#1594 = AXIS2_PLACEMENT_3D('',#1595,#1596,#1597);
#1595 = CARTESIAN_POINT('',(25.338513843938,-86.59805759791,77.));
#1596 = DIRECTION('',(0.,0.,-1.));
#1597 = DIRECTION('',(1.,0.,0.));
#1598 = ADVANCED_FACE('',(#1599),#1611,.F.);
#1599 = FACE_BOUND('',#1600,.F.);
#1600 = EDGE_LOOP('',(#1601,#1602,#1608,#1609,#1610));
#1601 = ORIENTED_EDGE('',*,*,#1490,.F.);
#1602 = ORIENTED_EDGE('',*,*,#1603,.T.);
#1603 = EDGE_CURVE('',#1491,#870,#1604,.T.);
#1604 = LINE('',#1605,#1606);
#1605 = CARTESIAN_POINT('',(27.129257843938,-101.5980575979,77.));
#1606 = VECTOR('',#1607,1.);
#1607 = DIRECTION('',(0.,0.,1.));
#1608 = ORIENTED_EDGE('',*,*,#869,.T.);
#1609 = ORIENTED_EDGE('',*,*,#1603,.F.);
#1610 = ORIENTED_EDGE('',*,*,#1499,.F.);
#1611 = CYLINDRICAL_SURFACE('',#1612,1.790744);
#1612 = AXIS2_PLACEMENT_3D('',#1613,#1614,#1615);
#1613 = CARTESIAN_POINT('',(25.338513843938,-101.5980575979,77.));
#1614 = DIRECTION('',(0.,0.,-1.));
#1615 = DIRECTION('',(1.,0.,0.));
#1616 = ( GEOMETRIC_REPRESENTATION_CONTEXT(3) 
GLOBAL_UNCERTAINTY_ASSIGNED_CONTEXT((#1620)) 
GLOBAL_UNIT_ASSIGNED_CONTEXT((#1617,#1618,#1619)) REPRESENTATION_CONTEXT
('Context #1','3D Context with UNIT and UNCERTAINTY') );
#1617 = ( LENGTH_UNIT() NAMED_UNIT(*) SI_UNIT(.MILLI.,.METRE.) );
#1618 = ( NAMED_UNIT(*) PLANE_ANGLE_UNIT() SI_UNIT($,.RADIAN.) );
#1619 = ( NAMED_UNIT(*) SI_UNIT($,.STERADIAN.) SOLID_ANGLE_UNIT() );
#1620 = UNCERTAINTY_MEASURE_WITH_UNIT(LENGTH_MEASURE(5.E-06),#1617,
  'distance_accuracy_value','confusion accuracy');
#1621 = PRODUCT_RELATED_PRODUCT_CATEGORY('part',$,(#7));
ENDSEC;
END-ISO-10303-21;
