ISO-10303-21;
HEADER;
FILE_DESCRIPTION(('FreeCAD Model'),'2;1');
FILE_NAME('Open CASCADE Shape Model','2026-08-28T13:04:05',('FreeCAD'),(
    'FreeCAD'),'Open CASCADE STEP processor 7.8','FreeCAD','Unknown');
FILE_SCHEMA(('AUTOMOTIVE_DESIGN { 1 0 10303 214 1 1 1 1 }'));
ENDSEC;
DATA;
#1 = APPLICATION_PROTOCOL_DEFINITION('international standard',
  'automotive_design',2000,#2);
#2 = APPLICATION_CONTEXT(
  'core data for automotive mechanical design processes');
#3 = SHAPE_DEFINITION_REPRESENTATION(#4,#10);
#4 = PRODUCT_DEFINITION_SHAPE('','',#5);
#5 = PRODUCT_DEFINITION('design','',#6,#9);
#6 = PRODUCT_DEFINITION_FORMATION('','',#7);
#7 = PRODUCT('Open CASCADE STEP translator 7.8 66',
  'Open CASCADE STEP translator 7.8 66','',(#8));
#8 = PRODUCT_CONTEXT('',#2,'mechanical');
#9 = PRODUCT_DEFINITION_CONTEXT('part definition',#2,'design');
#10 = ADVANCED_BREP_SHAPE_REPRESENTATION('',(#11,#15),#603);
#11 = AXIS2_PLACEMENT_3D('',#12,#13,#14);
#12 = CARTESIAN_POINT('',(0.,0.,0.));
#13 = DIRECTION('',(0.,0.,1.));
#14 = DIRECTION('',(1.,0.,-0.));
#15 = MANIFOLD_SOLID_BREP('',#16);
#16 = CLOSED_SHELL('',(#17,#57,#88,#119,#253,#284,#308,#332,#356,#381,
    #406,#431,#456,#481,#506,#531,#579,#591));
#17 = ADVANCED_FACE('',(#18),#52,.F.);
#18 = FACE_BOUND('',#19,.F.);
#19 = EDGE_LOOP('',(#20,#30,#38,#46));
#20 = ORIENTED_EDGE('',*,*,#21,.T.);
#21 = EDGE_CURVE('',#22,#24,#26,.T.);
#22 = VERTEX_POINT('',#23);
#23 = CARTESIAN_POINT('',(13.2345275,1.35238,-9.));
#24 = VERTEX_POINT('',#25);
#25 = CARTESIAN_POINT('',(13.2345275,1.35238,-12.));
#26 = LINE('',#27,#28);
#27 = CARTESIAN_POINT('',(13.2345275,1.35238,-9.));
#28 = VECTOR('',#29,1.);
#29 = DIRECTION('',(0.,-1.2E-16,-1.));
#30 = ORIENTED_EDGE('',*,*,#31,.T.);
#31 = EDGE_CURVE('',#24,#32,#34,.T.);
#32 = VERTEX_POINT('',#33);
#33 = CARTESIAN_POINT('',(25.2345275,1.35238,-12.));
#34 = LINE('',#35,#36);
#35 = CARTESIAN_POINT('',(13.2345275,1.35238,-12.));
#36 = VECTOR('',#37,1.);
#37 = DIRECTION('',(1.,0.,0.));
#38 = ORIENTED_EDGE('',*,*,#39,.F.);
#39 = EDGE_CURVE('',#40,#32,#42,.T.);
#40 = VERTEX_POINT('',#41);
#41 = CARTESIAN_POINT('',(25.2345275,1.35238,-9.));
#42 = LINE('',#43,#44);
#43 = CARTESIAN_POINT('',(25.2345275,1.35238,-9.));
#44 = VECTOR('',#45,1.);
#45 = DIRECTION('',(0.,-1.2E-16,-1.));
#46 = ORIENTED_EDGE('',*,*,#47,.F.);
#47 = EDGE_CURVE('',#22,#40,#48,.T.);
#48 = LINE('',#49,#50);
#49 = CARTESIAN_POINT('',(13.2345275,1.35238,-9.));
#50 = VECTOR('',#51,1.);
#51 = DIRECTION('',(1.,0.,0.));
#52 = PLANE('',#53);
#53 = AXIS2_PLACEMENT_3D('',#54,#55,#56);
#54 = CARTESIAN_POINT('',(13.2345275,1.35238,-9.));
#55 = DIRECTION('',(0.,-1.,1.2E-16));
#56 = DIRECTION('',(1.,0.,0.));
#57 = ADVANCED_FACE('',(#58),#83,.F.);
#58 = FACE_BOUND('',#59,.F.);
#59 = EDGE_LOOP('',(#60,#61,#69,#77));
#60 = ORIENTED_EDGE('',*,*,#39,.T.);
#61 = ORIENTED_EDGE('',*,*,#62,.T.);
#62 = EDGE_CURVE('',#32,#63,#65,.T.);
#63 = VERTEX_POINT('',#64);
#64 = CARTESIAN_POINT('',(25.2345275,11.35238,-12.));
#65 = LINE('',#66,#67);
#66 = CARTESIAN_POINT('',(25.2345275,1.35238,-12.));
#67 = VECTOR('',#68,1.);
#68 = DIRECTION('',(0.,1.,-1.2E-16));
#69 = ORIENTED_EDGE('',*,*,#70,.F.);
#70 = EDGE_CURVE('',#71,#63,#73,.T.);
#71 = VERTEX_POINT('',#72);
#72 = CARTESIAN_POINT('',(25.2345275,11.35238,-9.));
#73 = LINE('',#74,#75);
#74 = CARTESIAN_POINT('',(25.2345275,11.35238,-9.));
#75 = VECTOR('',#76,1.);
#76 = DIRECTION('',(0.,-1.2E-16,-1.));
#77 = ORIENTED_EDGE('',*,*,#78,.F.);
#78 = EDGE_CURVE('',#40,#71,#79,.T.);
#79 = LINE('',#80,#81);
#80 = CARTESIAN_POINT('',(25.2345275,1.35238,-9.));
#81 = VECTOR('',#82,1.);
#82 = DIRECTION('',(0.,1.,-1.2E-16));
#83 = PLANE('',#84);
#84 = AXIS2_PLACEMENT_3D('',#85,#86,#87);
#85 = CARTESIAN_POINT('',(25.2345275,1.35238,-9.));
#86 = DIRECTION('',(1.,0.,0.));
#87 = DIRECTION('',(0.,1.,-1.2E-16));
#88 = ADVANCED_FACE('',(#89),#114,.T.);
#89 = FACE_BOUND('',#90,.T.);
#90 = EDGE_LOOP('',(#91,#92,#100,#108));
#91 = ORIENTED_EDGE('',*,*,#21,.T.);
#92 = ORIENTED_EDGE('',*,*,#93,.T.);
#93 = EDGE_CURVE('',#24,#94,#96,.T.);
#94 = VERTEX_POINT('',#95);
#95 = CARTESIAN_POINT('',(13.2345275,11.289728,-12.));
#96 = LINE('',#97,#98);
#97 = CARTESIAN_POINT('',(13.2345275,1.35238,-12.));
#98 = VECTOR('',#99,1.);
#99 = DIRECTION('',(0.,1.,-1.2E-16));
#100 = ORIENTED_EDGE('',*,*,#101,.F.);
#101 = EDGE_CURVE('',#102,#94,#104,.T.);
#102 = VERTEX_POINT('',#103);
#103 = CARTESIAN_POINT('',(13.2345275,11.289728,-9.));
#104 = LINE('',#105,#106);
#105 = CARTESIAN_POINT('',(13.2345275,11.289728,-9.));
#106 = VECTOR('',#107,1.);
#107 = DIRECTION('',(0.,-1.2E-16,-1.));
#108 = ORIENTED_EDGE('',*,*,#109,.F.);
#109 = EDGE_CURVE('',#22,#102,#110,.T.);
#110 = LINE('',#111,#112);
#111 = CARTESIAN_POINT('',(13.2345275,1.35238,-9.));
#112 = VECTOR('',#113,1.);
#113 = DIRECTION('',(0.,1.,-1.2E-16));
#114 = PLANE('',#115);
#115 = AXIS2_PLACEMENT_3D('',#116,#117,#118);
#116 = CARTESIAN_POINT('',(13.2345275,1.35238,-9.));
#117 = DIRECTION('',(1.,0.,0.));
#118 = DIRECTION('',(0.,1.,-1.2E-16));
#119 = ADVANCED_FACE('',(#120,#171,#182,#193,#204,#215,#226,#237),#248,
  .T.);
#120 = FACE_BOUND('',#121,.F.);
#121 = EDGE_LOOP('',(#122,#123,#124,#132,#140,#148,#156,#164,#170));
#122 = ORIENTED_EDGE('',*,*,#47,.T.);
#123 = ORIENTED_EDGE('',*,*,#78,.T.);
#124 = ORIENTED_EDGE('',*,*,#125,.T.);
#125 = EDGE_CURVE('',#71,#126,#128,.T.);
#126 = VERTEX_POINT('',#127);
#127 = CARTESIAN_POINT('',(32.20663394627,11.35238,-9.));
#128 = LINE('',#129,#130);
#129 = CARTESIAN_POINT('',(26.734528,11.35238,-9.));
#130 = VECTOR('',#131,1.);
#131 = DIRECTION('',(1.,0.,0.));
#132 = ORIENTED_EDGE('',*,*,#133,.F.);
#133 = EDGE_CURVE('',#134,#126,#136,.T.);
#134 = VERTEX_POINT('',#135);
#135 = CARTESIAN_POINT('',(32.20663394627,-43.14762,-9.));
#136 = LINE('',#137,#138);
#137 = CARTESIAN_POINT('',(32.20663394627,-43.14762,-9.));
#138 = VECTOR('',#139,1.);
#139 = DIRECTION('',(0.,1.,-1.2E-16));
#140 = ORIENTED_EDGE('',*,*,#141,.F.);
#141 = EDGE_CURVE('',#142,#134,#144,.T.);
#142 = VERTEX_POINT('',#143);
#143 = CARTESIAN_POINT('',(-0.793366,-43.14762,-9.));
#144 = LINE('',#145,#146);
#145 = CARTESIAN_POINT('',(-0.793366,-43.14762,-9.));
#146 = VECTOR('',#147,1.);
#147 = DIRECTION('',(1.,0.,0.));
#148 = ORIENTED_EDGE('',*,*,#149,.T.);
#149 = EDGE_CURVE('',#142,#150,#152,.T.);
#150 = VERTEX_POINT('',#151);
#151 = CARTESIAN_POINT('',(-0.793366,-26.045923,-9.));
#152 = LINE('',#153,#154);
#153 = CARTESIAN_POINT('',(-0.793366,-43.14762,-9.));
#154 = VECTOR('',#155,1.);
#155 = DIRECTION('',(0.,1.,-1.2E-16));
#156 = ORIENTED_EDGE('',*,*,#157,.T.);
#157 = EDGE_CURVE('',#150,#158,#160,.T.);
#158 = VERTEX_POINT('',#159);
#159 = CARTESIAN_POINT('',(5.623993,11.289728,-9.));
#160 = LINE('',#161,#162);
#161 = CARTESIAN_POINT('',(-0.793366,-26.045923,-9.));
#162 = VECTOR('',#163,1.);
#163 = DIRECTION('',(0.169398753218,0.985547595202,-1.2E-16));
#164 = ORIENTED_EDGE('',*,*,#165,.F.);
#165 = EDGE_CURVE('',#102,#158,#166,.T.);
#166 = LINE('',#167,#168);
#167 = CARTESIAN_POINT('',(13.2345275,11.289728,-9.));
#168 = VECTOR('',#169,1.);
#169 = DIRECTION('',(-1.,0.,0.));
#170 = ORIENTED_EDGE('',*,*,#109,.F.);
#171 = FACE_BOUND('',#172,.T.);
#172 = EDGE_LOOP('',(#173));
#173 = ORIENTED_EDGE('',*,*,#174,.T.);
#174 = EDGE_CURVE('',#175,#175,#177,.T.);
#175 = VERTEX_POINT('',#176);
#176 = CARTESIAN_POINT('',(4.67663394627,-35.692815,-9.));
#177 = CIRCLE('',#178,1.7);
#178 = AXIS2_PLACEMENT_3D('',#179,#180,#181);
#179 = CARTESIAN_POINT('',(2.97663394627,-35.692815,-9.));
#180 = DIRECTION('',(0.,-1.2E-16,-1.));
#181 = DIRECTION('',(1.,0.,0.));
#182 = FACE_BOUND('',#183,.T.);
#183 = EDGE_LOOP('',(#184));
#184 = ORIENTED_EDGE('',*,*,#185,.T.);
#185 = EDGE_CURVE('',#186,#186,#188,.T.);
#186 = VERTEX_POINT('',#187);
#187 = CARTESIAN_POINT('',(30.12663394627,-35.692815,-9.));
#188 = CIRCLE('',#189,1.7);
#189 = AXIS2_PLACEMENT_3D('',#190,#191,#192);
#190 = CARTESIAN_POINT('',(28.42663394627,-35.692815,-9.));
#191 = DIRECTION('',(0.,-1.2E-16,-1.));
#192 = DIRECTION('',(1.,0.,0.));
#193 = FACE_BOUND('',#194,.T.);
#194 = EDGE_LOOP('',(#195));
#195 = ORIENTED_EDGE('',*,*,#196,.T.);
#196 = EDGE_CURVE('',#197,#197,#199,.T.);
#197 = VERTEX_POINT('',#198);
#198 = CARTESIAN_POINT('',(17.167341,-11.667685,-9.));
#199 = CIRCLE('',#200,1.594794);
#200 = AXIS2_PLACEMENT_3D('',#201,#202,#203);
#201 = CARTESIAN_POINT('',(15.572547,-11.667685,-9.));
#202 = DIRECTION('',(0.,-1.2E-16,-1.));
#203 = DIRECTION('',(1.,0.,0.));
#204 = FACE_BOUND('',#205,.T.);
#205 = EDGE_LOOP('',(#206));
#206 = ORIENTED_EDGE('',*,*,#207,.T.);
#207 = EDGE_CURVE('',#208,#208,#210,.T.);
#208 = VERTEX_POINT('',#209);
#209 = CARTESIAN_POINT('',(11.319082880985,6.321054,-9.));
#210 = CIRCLE('',#211,1.570608604119);
#211 = AXIS2_PLACEMENT_3D('',#212,#213,#214);
#212 = CARTESIAN_POINT('',(9.748474276865,6.321054,-9.));
#213 = DIRECTION('',(0.,-1.2E-16,-1.));
#214 = DIRECTION('',(1.,0.,0.));
#215 = FACE_BOUND('',#216,.T.);
#216 = EDGE_LOOP('',(#217));
#217 = ORIENTED_EDGE('',*,*,#218,.T.);
#218 = EDGE_CURVE('',#219,#219,#221,.T.);
#219 = VERTEX_POINT('',#220);
#220 = CARTESIAN_POINT('',(30.291189327254,6.35238,-9.));
#221 = CIRCLE('',#222,1.570608604119);
#222 = AXIS2_PLACEMENT_3D('',#223,#224,#225);
#223 = CARTESIAN_POINT('',(28.720580723135,6.35238,-9.));
#224 = DIRECTION('',(0.,-1.2E-16,-1.));
#225 = DIRECTION('',(1.,0.,0.));
#226 = FACE_BOUND('',#227,.T.);
#227 = EDGE_LOOP('',(#228));
#228 = ORIENTED_EDGE('',*,*,#229,.T.);
#229 = EDGE_CURVE('',#230,#230,#232,.T.);
#230 = VERTEX_POINT('',#231);
#231 = CARTESIAN_POINT('',(9.934665704119,-3.20071,-9.));
#232 = CIRCLE('',#233,1.570608604119);
#233 = AXIS2_PLACEMENT_3D('',#234,#235,#236);
#234 = CARTESIAN_POINT('',(8.3640571,-3.20071,-9.));
#235 = DIRECTION('',(0.,-1.2E-16,-1.));
#236 = DIRECTION('',(1.,0.,0.));
#237 = FACE_BOUND('',#238,.T.);
#238 = EDGE_LOOP('',(#239));
#239 = ORIENTED_EDGE('',*,*,#240,.T.);
#240 = EDGE_CURVE('',#241,#241,#243,.T.);
#241 = VERTEX_POINT('',#242);
#242 = CARTESIAN_POINT('',(20.559735677099,-23.192815,-9.));
#243 = CIRCLE('',#244,1.2);
#244 = AXIS2_PLACEMENT_3D('',#245,#246,#247);
#245 = CARTESIAN_POINT('',(19.359735677099,-23.192815,-9.));
#246 = DIRECTION('',(0.,-1.2E-16,-1.));
#247 = DIRECTION('',(1.,0.,0.));
#248 = PLANE('',#249);
#249 = AXIS2_PLACEMENT_3D('',#250,#251,#252);
#250 = CARTESIAN_POINT('',(16.882164913686,-14.8503785039,-9.));
#251 = DIRECTION('',(0.,1.2E-16,1.));
#252 = DIRECTION('',(1.,0.,0.));
#253 = ADVANCED_FACE('',(#254),#279,.T.);
#254 = FACE_BOUND('',#255,.T.);
#255 = EDGE_LOOP('',(#256,#264,#272,#278));
#256 = ORIENTED_EDGE('',*,*,#257,.T.);
#257 = EDGE_CURVE('',#134,#258,#260,.T.);
#258 = VERTEX_POINT('',#259);
#259 = CARTESIAN_POINT('',(32.20663394627,-43.14762,-12.));
#260 = LINE('',#261,#262);
#261 = CARTESIAN_POINT('',(32.20663394627,-43.14762,-9.));
#262 = VECTOR('',#263,1.);
#263 = DIRECTION('',(0.,-1.2E-16,-1.));
#264 = ORIENTED_EDGE('',*,*,#265,.T.);
#265 = EDGE_CURVE('',#258,#266,#268,.T.);
#266 = VERTEX_POINT('',#267);
#267 = CARTESIAN_POINT('',(32.20663394627,11.35238,-12.));
#268 = LINE('',#269,#270);
#269 = CARTESIAN_POINT('',(32.20663394627,-43.14762,-12.));
#270 = VECTOR('',#271,1.);
#271 = DIRECTION('',(0.,1.,-1.2E-16));
#272 = ORIENTED_EDGE('',*,*,#273,.F.);
#273 = EDGE_CURVE('',#126,#266,#274,.T.);
#274 = LINE('',#275,#276);
#275 = CARTESIAN_POINT('',(32.20663394627,11.35238,-9.));
#276 = VECTOR('',#277,1.);
#277 = DIRECTION('',(0.,-1.2E-16,-1.));
#278 = ORIENTED_EDGE('',*,*,#133,.F.);
#279 = PLANE('',#280);
#280 = AXIS2_PLACEMENT_3D('',#281,#282,#283);
#281 = CARTESIAN_POINT('',(32.20663394627,-43.14762,-9.));
#282 = DIRECTION('',(1.,0.,0.));
#283 = DIRECTION('',(0.,1.,-1.2E-16));
#284 = ADVANCED_FACE('',(#285),#303,.T.);
#285 = FACE_BOUND('',#286,.T.);
#286 = EDGE_LOOP('',(#287,#295,#301,#302));
#287 = ORIENTED_EDGE('',*,*,#288,.T.);
#288 = EDGE_CURVE('',#142,#289,#291,.T.);
#289 = VERTEX_POINT('',#290);
#290 = CARTESIAN_POINT('',(-0.793366,-43.14762,-12.));
#291 = LINE('',#292,#293);
#292 = CARTESIAN_POINT('',(-0.793366,-43.14762,-9.));
#293 = VECTOR('',#294,1.);
#294 = DIRECTION('',(0.,-1.2E-16,-1.));
#295 = ORIENTED_EDGE('',*,*,#296,.T.);
#296 = EDGE_CURVE('',#289,#258,#297,.T.);
#297 = LINE('',#298,#299);
#298 = CARTESIAN_POINT('',(-0.793366,-43.14762,-12.));
#299 = VECTOR('',#300,1.);
#300 = DIRECTION('',(1.,0.,0.));
#301 = ORIENTED_EDGE('',*,*,#257,.F.);
#302 = ORIENTED_EDGE('',*,*,#141,.F.);
#303 = PLANE('',#304);
#304 = AXIS2_PLACEMENT_3D('',#305,#306,#307);
#305 = CARTESIAN_POINT('',(-0.793366,-43.14762,-9.));
#306 = DIRECTION('',(0.,-1.,1.2E-16));
#307 = DIRECTION('',(1.,0.,0.));
#308 = ADVANCED_FACE('',(#309),#327,.F.);
#309 = FACE_BOUND('',#310,.F.);
#310 = EDGE_LOOP('',(#311,#312,#320,#326));
#311 = ORIENTED_EDGE('',*,*,#288,.T.);
#312 = ORIENTED_EDGE('',*,*,#313,.T.);
#313 = EDGE_CURVE('',#289,#314,#316,.T.);
#314 = VERTEX_POINT('',#315);
#315 = CARTESIAN_POINT('',(-0.793366,-26.045923,-12.));
#316 = LINE('',#317,#318);
#317 = CARTESIAN_POINT('',(-0.793366,-43.14762,-12.));
#318 = VECTOR('',#319,1.);
#319 = DIRECTION('',(0.,1.,-1.2E-16));
#320 = ORIENTED_EDGE('',*,*,#321,.F.);
#321 = EDGE_CURVE('',#150,#314,#322,.T.);
#322 = LINE('',#323,#324);
#323 = CARTESIAN_POINT('',(-0.793366,-26.045923,-9.));
#324 = VECTOR('',#325,1.);
#325 = DIRECTION('',(0.,-1.2E-16,-1.));
#326 = ORIENTED_EDGE('',*,*,#149,.F.);
#327 = PLANE('',#328);
#328 = AXIS2_PLACEMENT_3D('',#329,#330,#331);
#329 = CARTESIAN_POINT('',(-0.793366,-43.14762,-9.));
#330 = DIRECTION('',(1.,0.,0.));
#331 = DIRECTION('',(0.,1.,-1.2E-16));
#332 = ADVANCED_FACE('',(#333),#351,.F.);
#333 = FACE_BOUND('',#334,.F.);
#334 = EDGE_LOOP('',(#335,#336,#344,#350));
#335 = ORIENTED_EDGE('',*,*,#321,.T.);
#336 = ORIENTED_EDGE('',*,*,#337,.T.);
#337 = EDGE_CURVE('',#314,#338,#340,.T.);
#338 = VERTEX_POINT('',#339);
#339 = CARTESIAN_POINT('',(5.623993,11.289728,-12.));
#340 = LINE('',#341,#342);
#341 = CARTESIAN_POINT('',(-0.793366,-26.045923,-12.));
#342 = VECTOR('',#343,1.);
#343 = DIRECTION('',(0.169398753218,0.985547595202,-1.2E-16));
#344 = ORIENTED_EDGE('',*,*,#345,.F.);
#345 = EDGE_CURVE('',#158,#338,#346,.T.);
#346 = LINE('',#347,#348);
#347 = CARTESIAN_POINT('',(5.623993,11.289728,-9.));
#348 = VECTOR('',#349,1.);
#349 = DIRECTION('',(0.,-1.2E-16,-1.));
#350 = ORIENTED_EDGE('',*,*,#157,.F.);
#351 = PLANE('',#352);
#352 = AXIS2_PLACEMENT_3D('',#353,#354,#355);
#353 = CARTESIAN_POINT('',(-0.793366,-26.045923,-9.));
#354 = DIRECTION('',(0.985547595202,-0.169398753218,2.E-17));
#355 = DIRECTION('',(0.169398753218,0.985547595202,-1.2E-16));
#356 = ADVANCED_FACE('',(#357),#376,.F.);
#357 = FACE_BOUND('',#358,.T.);
#358 = EDGE_LOOP('',(#359,#367,#374,#375));
#359 = ORIENTED_EDGE('',*,*,#360,.T.);
#360 = EDGE_CURVE('',#175,#361,#363,.T.);
#361 = VERTEX_POINT('',#362);
#362 = CARTESIAN_POINT('',(4.67663394627,-35.692815,-12.));
#363 = LINE('',#364,#365);
#364 = CARTESIAN_POINT('',(4.67663394627,-35.692815,-9.));
#365 = VECTOR('',#366,1.);
#366 = DIRECTION('',(0.,-1.2E-16,-1.));
#367 = ORIENTED_EDGE('',*,*,#368,.T.);
#368 = EDGE_CURVE('',#361,#361,#369,.T.);
#369 = CIRCLE('',#370,1.7);
#370 = AXIS2_PLACEMENT_3D('',#371,#372,#373);
#371 = CARTESIAN_POINT('',(2.97663394627,-35.692815,-12.));
#372 = DIRECTION('',(0.,-1.2E-16,-1.));
#373 = DIRECTION('',(1.,0.,0.));
#374 = ORIENTED_EDGE('',*,*,#360,.F.);
#375 = ORIENTED_EDGE('',*,*,#174,.F.);
#376 = CYLINDRICAL_SURFACE('',#377,1.7);
#377 = AXIS2_PLACEMENT_3D('',#378,#379,#380);
#378 = CARTESIAN_POINT('',(2.97663394627,-35.692815,-9.));
#379 = DIRECTION('',(0.,1.2E-16,1.));
#380 = DIRECTION('',(1.,0.,0.));
#381 = ADVANCED_FACE('',(#382),#401,.F.);
#382 = FACE_BOUND('',#383,.T.);
#383 = EDGE_LOOP('',(#384,#392,#399,#400));
#384 = ORIENTED_EDGE('',*,*,#385,.T.);
#385 = EDGE_CURVE('',#186,#386,#388,.T.);
#386 = VERTEX_POINT('',#387);
#387 = CARTESIAN_POINT('',(30.12663394627,-35.692815,-12.));
#388 = LINE('',#389,#390);
#389 = CARTESIAN_POINT('',(30.12663394627,-35.692815,-9.));
#390 = VECTOR('',#391,1.);
#391 = DIRECTION('',(0.,-1.2E-16,-1.));
#392 = ORIENTED_EDGE('',*,*,#393,.T.);
#393 = EDGE_CURVE('',#386,#386,#394,.T.);
#394 = CIRCLE('',#395,1.7);
#395 = AXIS2_PLACEMENT_3D('',#396,#397,#398);
#396 = CARTESIAN_POINT('',(28.42663394627,-35.692815,-12.));
#397 = DIRECTION('',(0.,-1.2E-16,-1.));
#398 = DIRECTION('',(1.,0.,0.));
#399 = ORIENTED_EDGE('',*,*,#385,.F.);
#400 = ORIENTED_EDGE('',*,*,#185,.F.);
#401 = CYLINDRICAL_SURFACE('',#402,1.7);
#402 = AXIS2_PLACEMENT_3D('',#403,#404,#405);
#403 = CARTESIAN_POINT('',(28.42663394627,-35.692815,-9.));
#404 = DIRECTION('',(0.,1.2E-16,1.));
#405 = DIRECTION('',(1.,0.,0.));
#406 = ADVANCED_FACE('',(#407),#426,.F.);
#407 = FACE_BOUND('',#408,.T.);
#408 = EDGE_LOOP('',(#409,#417,#424,#425));
#409 = ORIENTED_EDGE('',*,*,#410,.T.);
#410 = EDGE_CURVE('',#197,#411,#413,.T.);
#411 = VERTEX_POINT('',#412);
#412 = CARTESIAN_POINT('',(17.167341,-11.667685,-12.));
#413 = LINE('',#414,#415);
#414 = CARTESIAN_POINT('',(17.167341,-11.667685,-9.));
#415 = VECTOR('',#416,1.);
#416 = DIRECTION('',(0.,-1.2E-16,-1.));
#417 = ORIENTED_EDGE('',*,*,#418,.T.);
#418 = EDGE_CURVE('',#411,#411,#419,.T.);
#419 = CIRCLE('',#420,1.594794);
#420 = AXIS2_PLACEMENT_3D('',#421,#422,#423);
#421 = CARTESIAN_POINT('',(15.572547,-11.667685,-12.));
#422 = DIRECTION('',(0.,-1.2E-16,-1.));
#423 = DIRECTION('',(1.,0.,0.));
#424 = ORIENTED_EDGE('',*,*,#410,.F.);
#425 = ORIENTED_EDGE('',*,*,#196,.F.);
#426 = CYLINDRICAL_SURFACE('',#427,1.594794);
#427 = AXIS2_PLACEMENT_3D('',#428,#429,#430);
#428 = CARTESIAN_POINT('',(15.572547,-11.667685,-9.));
#429 = DIRECTION('',(0.,1.2E-16,1.));
#430 = DIRECTION('',(1.,0.,0.));
#431 = ADVANCED_FACE('',(#432),#451,.F.);
#432 = FACE_BOUND('',#433,.T.);
#433 = EDGE_LOOP('',(#434,#442,#449,#450));
#434 = ORIENTED_EDGE('',*,*,#435,.T.);
#435 = EDGE_CURVE('',#208,#436,#438,.T.);
#436 = VERTEX_POINT('',#437);
#437 = CARTESIAN_POINT('',(11.319082880985,6.321054,-12.));
#438 = LINE('',#439,#440);
#439 = CARTESIAN_POINT('',(11.319082880985,6.321054,-9.));
#440 = VECTOR('',#441,1.);
#441 = DIRECTION('',(0.,-1.2E-16,-1.));
#442 = ORIENTED_EDGE('',*,*,#443,.T.);
#443 = EDGE_CURVE('',#436,#436,#444,.T.);
#444 = CIRCLE('',#445,1.570608604119);
#445 = AXIS2_PLACEMENT_3D('',#446,#447,#448);
#446 = CARTESIAN_POINT('',(9.748474276865,6.321054,-12.));
#447 = DIRECTION('',(0.,-1.2E-16,-1.));
#448 = DIRECTION('',(1.,0.,0.));
#449 = ORIENTED_EDGE('',*,*,#435,.F.);
#450 = ORIENTED_EDGE('',*,*,#207,.F.);
#451 = CYLINDRICAL_SURFACE('',#452,1.570608604119);
#452 = AXIS2_PLACEMENT_3D('',#453,#454,#455);
#453 = CARTESIAN_POINT('',(9.748474276865,6.321054,-9.));
#454 = DIRECTION('',(0.,1.2E-16,1.));
#455 = DIRECTION('',(1.,0.,0.));
#456 = ADVANCED_FACE('',(#457),#476,.F.);
#457 = FACE_BOUND('',#458,.T.);
#458 = EDGE_LOOP('',(#459,#467,#474,#475));
#459 = ORIENTED_EDGE('',*,*,#460,.T.);
#460 = EDGE_CURVE('',#219,#461,#463,.T.);
#461 = VERTEX_POINT('',#462);
#462 = CARTESIAN_POINT('',(30.291189327254,6.35238,-12.));
#463 = LINE('',#464,#465);
#464 = CARTESIAN_POINT('',(30.291189327254,6.35238,-9.));
#465 = VECTOR('',#466,1.);
#466 = DIRECTION('',(0.,-1.2E-16,-1.));
#467 = ORIENTED_EDGE('',*,*,#468,.T.);
#468 = EDGE_CURVE('',#461,#461,#469,.T.);
#469 = CIRCLE('',#470,1.570608604119);
#470 = AXIS2_PLACEMENT_3D('',#471,#472,#473);
#471 = CARTESIAN_POINT('',(28.720580723135,6.35238,-12.));
#472 = DIRECTION('',(0.,-1.2E-16,-1.));
#473 = DIRECTION('',(1.,0.,0.));
#474 = ORIENTED_EDGE('',*,*,#460,.F.);
#475 = ORIENTED_EDGE('',*,*,#218,.F.);
#476 = CYLINDRICAL_SURFACE('',#477,1.570608604119);
#477 = AXIS2_PLACEMENT_3D('',#478,#479,#480);
#478 = CARTESIAN_POINT('',(28.720580723135,6.35238,-9.));
#479 = DIRECTION('',(0.,1.2E-16,1.));
#480 = DIRECTION('',(1.,0.,0.));
#481 = ADVANCED_FACE('',(#482),#501,.F.);
#482 = FACE_BOUND('',#483,.T.);
#483 = EDGE_LOOP('',(#484,#492,#499,#500));
#484 = ORIENTED_EDGE('',*,*,#485,.T.);
#485 = EDGE_CURVE('',#230,#486,#488,.T.);
#486 = VERTEX_POINT('',#487);
#487 = CARTESIAN_POINT('',(9.934665704119,-3.20071,-12.));
#488 = LINE('',#489,#490);
#489 = CARTESIAN_POINT('',(9.934665704119,-3.20071,-9.));
#490 = VECTOR('',#491,1.);
#491 = DIRECTION('',(0.,-1.2E-16,-1.));
#492 = ORIENTED_EDGE('',*,*,#493,.T.);
#493 = EDGE_CURVE('',#486,#486,#494,.T.);
#494 = CIRCLE('',#495,1.570608604119);
#495 = AXIS2_PLACEMENT_3D('',#496,#497,#498);
#496 = CARTESIAN_POINT('',(8.3640571,-3.20071,-12.));
#497 = DIRECTION('',(0.,-1.2E-16,-1.));
#498 = DIRECTION('',(1.,0.,0.));
#499 = ORIENTED_EDGE('',*,*,#485,.F.);
#500 = ORIENTED_EDGE('',*,*,#229,.F.);
#501 = CYLINDRICAL_SURFACE('',#502,1.570608604119);
#502 = AXIS2_PLACEMENT_3D('',#503,#504,#505);
#503 = CARTESIAN_POINT('',(8.3640571,-3.20071,-9.));
#504 = DIRECTION('',(0.,1.2E-16,1.));
#505 = DIRECTION('',(1.,0.,0.));
#506 = ADVANCED_FACE('',(#507),#526,.F.);
#507 = FACE_BOUND('',#508,.T.);
#508 = EDGE_LOOP('',(#509,#517,#524,#525));
#509 = ORIENTED_EDGE('',*,*,#510,.T.);
#510 = EDGE_CURVE('',#241,#511,#513,.T.);
#511 = VERTEX_POINT('',#512);
#512 = CARTESIAN_POINT('',(20.559735677099,-23.192815,-12.));
#513 = LINE('',#514,#515);
#514 = CARTESIAN_POINT('',(20.559735677099,-23.192815,-9.));
#515 = VECTOR('',#516,1.);
#516 = DIRECTION('',(0.,-1.2E-16,-1.));
#517 = ORIENTED_EDGE('',*,*,#518,.T.);
#518 = EDGE_CURVE('',#511,#511,#519,.T.);
#519 = CIRCLE('',#520,1.2);
#520 = AXIS2_PLACEMENT_3D('',#521,#522,#523);
#521 = CARTESIAN_POINT('',(19.359735677099,-23.192815,-12.));
#522 = DIRECTION('',(0.,-1.2E-16,-1.));
#523 = DIRECTION('',(1.,0.,0.));
#524 = ORIENTED_EDGE('',*,*,#510,.F.);
#525 = ORIENTED_EDGE('',*,*,#240,.F.);
#526 = CYLINDRICAL_SURFACE('',#527,1.2);
#527 = AXIS2_PLACEMENT_3D('',#528,#529,#530);
#528 = CARTESIAN_POINT('',(19.359735677099,-23.192815,-9.));
#529 = DIRECTION('',(0.,1.2E-16,1.));
#530 = DIRECTION('',(1.,0.,0.));
#531 = ADVANCED_FACE('',(#532,#553,#556,#559,#562,#565,#568,#571),#574,
  .F.);
#532 = FACE_BOUND('',#533,.T.);
#533 = EDGE_LOOP('',(#534,#535,#536,#542,#543,#544,#545,#546,#552));
#534 = ORIENTED_EDGE('',*,*,#31,.T.);
#535 = ORIENTED_EDGE('',*,*,#62,.T.);
#536 = ORIENTED_EDGE('',*,*,#537,.T.);
#537 = EDGE_CURVE('',#63,#266,#538,.T.);
#538 = LINE('',#539,#540);
#539 = CARTESIAN_POINT('',(25.2345275,11.35238,-12.));
#540 = VECTOR('',#541,1.);
#541 = DIRECTION('',(1.,0.,0.));
#542 = ORIENTED_EDGE('',*,*,#265,.F.);
#543 = ORIENTED_EDGE('',*,*,#296,.F.);
#544 = ORIENTED_EDGE('',*,*,#313,.T.);
#545 = ORIENTED_EDGE('',*,*,#337,.T.);
#546 = ORIENTED_EDGE('',*,*,#547,.T.);
#547 = EDGE_CURVE('',#338,#94,#548,.T.);
#548 = LINE('',#549,#550);
#549 = CARTESIAN_POINT('',(5.623993,11.289728,-12.));
#550 = VECTOR('',#551,1.);
#551 = DIRECTION('',(1.,0.,0.));
#552 = ORIENTED_EDGE('',*,*,#93,.F.);
#553 = FACE_BOUND('',#554,.F.);
#554 = EDGE_LOOP('',(#555));
#555 = ORIENTED_EDGE('',*,*,#368,.T.);
#556 = FACE_BOUND('',#557,.F.);
#557 = EDGE_LOOP('',(#558));
#558 = ORIENTED_EDGE('',*,*,#393,.T.);
#559 = FACE_BOUND('',#560,.F.);
#560 = EDGE_LOOP('',(#561));
#561 = ORIENTED_EDGE('',*,*,#418,.T.);
#562 = FACE_BOUND('',#563,.F.);
#563 = EDGE_LOOP('',(#564));
#564 = ORIENTED_EDGE('',*,*,#443,.T.);
#565 = FACE_BOUND('',#566,.F.);
#566 = EDGE_LOOP('',(#567));
#567 = ORIENTED_EDGE('',*,*,#468,.T.);
#568 = FACE_BOUND('',#569,.F.);
#569 = EDGE_LOOP('',(#570));
#570 = ORIENTED_EDGE('',*,*,#493,.T.);
#571 = FACE_BOUND('',#572,.F.);
#572 = EDGE_LOOP('',(#573));
#573 = ORIENTED_EDGE('',*,*,#518,.T.);
#574 = PLANE('',#575);
#575 = AXIS2_PLACEMENT_3D('',#576,#577,#578);
#576 = CARTESIAN_POINT('',(16.882164913686,-14.8503785039,-12.));
#577 = DIRECTION('',(0.,1.2E-16,1.));
#578 = DIRECTION('',(1.,0.,0.));
#579 = ADVANCED_FACE('',(#580),#586,.T.);
#580 = FACE_BOUND('',#581,.T.);
#581 = EDGE_LOOP('',(#582,#583,#584,#585));
#582 = ORIENTED_EDGE('',*,*,#70,.F.);
#583 = ORIENTED_EDGE('',*,*,#125,.T.);
#584 = ORIENTED_EDGE('',*,*,#273,.T.);
#585 = ORIENTED_EDGE('',*,*,#537,.F.);
#586 = PLANE('',#587);
#587 = AXIS2_PLACEMENT_3D('',#588,#589,#590);
#588 = CARTESIAN_POINT('',(28.720580723135,11.35238,-10.5));
#589 = DIRECTION('',(0.,1.,-1.2E-16));
#590 = DIRECTION('',(0.,1.2E-16,1.));
#591 = ADVANCED_FACE('',(#592),#598,.T.);
#592 = FACE_BOUND('',#593,.T.);
#593 = EDGE_LOOP('',(#594,#595,#596,#597));
#594 = ORIENTED_EDGE('',*,*,#345,.F.);
#595 = ORIENTED_EDGE('',*,*,#165,.F.);
#596 = ORIENTED_EDGE('',*,*,#101,.T.);
#597 = ORIENTED_EDGE('',*,*,#547,.F.);
#598 = PLANE('',#599);
#599 = AXIS2_PLACEMENT_3D('',#600,#601,#602);
#600 = CARTESIAN_POINT('',(9.42926025,11.289728,-10.5));
#601 = DIRECTION('',(0.,1.,-1.2E-16));
#602 = DIRECTION('',(0.,1.2E-16,1.));
#603 = ( GEOMETRIC_REPRESENTATION_CONTEXT(3) 
GLOBAL_UNCERTAINTY_ASSIGNED_CONTEXT((#607)) GLOBAL_UNIT_ASSIGNED_CONTEXT
((#604,#605,#606)) REPRESENTATION_CONTEXT('Context #1',
  '3D Context with UNIT and UNCERTAINTY') );
#604 = ( LENGTH_UNIT() NAMED_UNIT(*) SI_UNIT(.MILLI.,.METRE.) );
#605 = ( NAMED_UNIT(*) PLANE_ANGLE_UNIT() SI_UNIT($,.RADIAN.) );
#606 = ( NAMED_UNIT(*) SI_UNIT($,.STERADIAN.) SOLID_ANGLE_UNIT() );
#607 = UNCERTAINTY_MEASURE_WITH_UNIT(LENGTH_MEASURE(1.E-07),#604,
  'distance_accuracy_value','confusion accuracy');
#608 = PRODUCT_RELATED_PRODUCT_CATEGORY('part',$,(#7));
ENDSEC;
END-ISO-10303-21;
