ISO-10303-21;
HEADER;
FILE_DESCRIPTION(('FreeCAD Model'),'2;1');
FILE_NAME('Open CASCADE Shape Model','2026-08-28T13:04:05',('FreeCAD'),(
    'FreeCAD'),'Open CASCADE STEP processor 7.8','FreeCAD','Unknown');
FILE_SCHEMA(('AUTOMOTIVE_DESIGN { 1 0 10303 214 1 1 1 1 }'));
ENDSEC;
DATA;
#1 = APPLICATION_PROTOCOL_DEFINITION('international standard',
  'automotive_design',2000,#2);
#2 = APPLICATION_CONTEXT(
  'core data for automotive mechanical design processes');
#3 = SHAPE_DEFINITION_REPRESENTATION(#4,#10);
#4 = PRODUCT_DEFINITION_SHAPE('','',#5);
#5 = PRODUCT_DEFINITION('design','',#6,#9);
#6 = PRODUCT_DEFINITION_FORMATION('','',#7);
#7 = PRODUCT('Open CASCADE STEP translator 7.8 49',
  'Open CASCADE STEP translator 7.8 49','',(#8));
#8 = PRODUCT_CONTEXT('',#2,'mechanical');
#9 = PRODUCT_DEFINITION_CONTEXT('part definition',#2,'design');
#10 = ADVANCED_BREP_SHAPE_REPRESENTATION('',(#11,#15),#1132);
#11 = AXIS2_PLACEMENT_3D('',#12,#13,#14);
#12 = CARTESIAN_POINT('',(0.,0.,0.));
#13 = DIRECTION('',(0.,0.,1.));
#14 = DIRECTION('',(1.,0.,-0.));
#15 = MANIFOLD_SOLID_BREP('',#16);
#16 = CLOSED_SHELL('',(#17,#105,#153,#177,#253,#277,#308,#339,#370,#394,
    #418,#449,#473,#490,#507,#572,#599,#616,#640,#664,#705,#729,#801,
    #818,#835,#852,#874,#905,#929,#953,#975,#992,#1004,#1028,#1045,#1057
    ,#1074,#1091,#1108,#1120));
#17 = ADVANCED_FACE('',(#18),#100,.T.);
#18 = FACE_BOUND('',#19,.T.);
#19 = EDGE_LOOP('',(#20,#30,#38,#46,#54,#62,#70,#78,#86,#94));
#20 = ORIENTED_EDGE('',*,*,#21,.F.);
#21 = EDGE_CURVE('',#22,#24,#26,.T.);
#22 = VERTEX_POINT('',#23);
#23 = CARTESIAN_POINT('',(-5.45,17.5,26.000000000006));
#24 = VERTEX_POINT('',#25);
#25 = CARTESIAN_POINT('',(-5.45,4.106103,26.000000000006));
#26 = LINE('',#27,#28);
#27 = CARTESIAN_POINT('',(-5.45,18.,26.000000000006));
#28 = VECTOR('',#29,1.);
#29 = DIRECTION('',(0.,-1.,2.2E-16));
#30 = ORIENTED_EDGE('',*,*,#31,.T.);
#31 = EDGE_CURVE('',#22,#32,#34,.T.);
#32 = VERTEX_POINT('',#33);
#33 = CARTESIAN_POINT('',(-5.45,17.5,22.45));
#34 = LINE('',#35,#36);
#35 = CARTESIAN_POINT('',(-5.45,17.5,23.750000000006));
#36 = VECTOR('',#37,1.);
#37 = DIRECTION('',(0.,0.,-1.));
#38 = ORIENTED_EDGE('',*,*,#39,.F.);
#39 = EDGE_CURVE('',#40,#32,#42,.T.);
#40 = VERTEX_POINT('',#41);
#41 = CARTESIAN_POINT('',(-5.45,9.,22.45));
#42 = LINE('',#43,#44);
#43 = CARTESIAN_POINT('',(-5.45,13.5,22.45));
#44 = VECTOR('',#45,1.);
#45 = DIRECTION('',(0.,1.,-2.2E-16));
#46 = ORIENTED_EDGE('',*,*,#47,.T.);
#47 = EDGE_CURVE('',#40,#48,#50,.T.);
#48 = VERTEX_POINT('',#49);
#49 = CARTESIAN_POINT('',(-5.45,9.,20.55));
#50 = LINE('',#51,#52);
#51 = CARTESIAN_POINT('',(-5.45,9.,21.500000000003));
#52 = VECTOR('',#53,1.);
#53 = DIRECTION('',(0.,0.,-1.));
#54 = ORIENTED_EDGE('',*,*,#55,.F.);
#55 = EDGE_CURVE('',#56,#48,#58,.T.);
#56 = VERTEX_POINT('',#57);
#57 = CARTESIAN_POINT('',(-5.45,17.5,20.55));
#58 = LINE('',#59,#60);
#59 = CARTESIAN_POINT('',(-5.45,13.5,20.55));
#60 = VECTOR('',#61,1.);
#61 = DIRECTION('',(0.,-1.,2.2E-16));
#62 = ORIENTED_EDGE('',*,*,#63,.T.);
#63 = EDGE_CURVE('',#56,#64,#66,.T.);
#64 = VERTEX_POINT('',#65);
#65 = CARTESIAN_POINT('',(-5.45,17.5,17.000000000006));
#66 = LINE('',#67,#68);
#67 = CARTESIAN_POINT('',(-5.45,17.5,23.750000000006));
#68 = VECTOR('',#69,1.);
#69 = DIRECTION('',(0.,0.,-1.));
#70 = ORIENTED_EDGE('',*,*,#71,.T.);
#71 = EDGE_CURVE('',#64,#72,#74,.T.);
#72 = VERTEX_POINT('',#73);
#73 = CARTESIAN_POINT('',(-5.45,0.,17.000000000006));
#74 = LINE('',#75,#76);
#75 = CARTESIAN_POINT('',(-5.45,18.,17.000000000006));
#76 = VECTOR('',#77,1.);
#77 = DIRECTION('',(0.,-1.,2.2E-16));
#78 = ORIENTED_EDGE('',*,*,#79,.F.);
#79 = EDGE_CURVE('',#80,#72,#82,.T.);
#80 = VERTEX_POINT('',#81);
#81 = CARTESIAN_POINT('',(-5.45,0.,18.000000000006));
#82 = LINE('',#83,#84);
#83 = CARTESIAN_POINT('',(-5.45,0.,26.000000000006));
#84 = VECTOR('',#85,1.);
#85 = DIRECTION('',(0.,-2.2E-16,-1.));
#86 = ORIENTED_EDGE('',*,*,#87,.T.);
#87 = EDGE_CURVE('',#80,#88,#90,.T.);
#88 = VERTEX_POINT('',#89);
#89 = CARTESIAN_POINT('',(-5.45,4.106103,18.000000000006));
#90 = LINE('',#91,#92);
#91 = CARTESIAN_POINT('',(-5.45,5.506499,18.000000000006));
#92 = VECTOR('',#93,1.);
#93 = DIRECTION('',(0.,1.,0.));
#94 = ORIENTED_EDGE('',*,*,#95,.F.);
#95 = EDGE_CURVE('',#24,#88,#96,.T.);
#96 = LINE('',#97,#98);
#97 = CARTESIAN_POINT('',(-5.45,4.106103,23.750000000006));
#98 = VECTOR('',#99,1.);
#99 = DIRECTION('',(0.,0.,-1.));
#100 = PLANE('',#101);
#101 = AXIS2_PLACEMENT_3D('',#102,#103,#104);
#102 = CARTESIAN_POINT('',(-5.45,9.,21.500000000006));
#103 = DIRECTION('',(-1.,-0.,-0.));
#104 = DIRECTION('',(0.,0.,-1.));
#105 = ADVANCED_FACE('',(#106),#148,.F.);
#106 = FACE_BOUND('',#107,.F.);
#107 = EDGE_LOOP('',(#108,#116,#124,#132,#141,#147));
#108 = ORIENTED_EDGE('',*,*,#109,.F.);
#109 = EDGE_CURVE('',#110,#22,#112,.T.);
#110 = VERTEX_POINT('',#111);
#111 = CARTESIAN_POINT('',(12.45,17.5,26.000000000006));
#112 = LINE('',#113,#114);
#113 = CARTESIAN_POINT('',(13.55,17.5,26.000000000006));
#114 = VECTOR('',#115,1.);
#115 = DIRECTION('',(-1.,0.,0.));
#116 = ORIENTED_EDGE('',*,*,#117,.T.);
#117 = EDGE_CURVE('',#110,#118,#120,.T.);
#118 = VERTEX_POINT('',#119);
#119 = CARTESIAN_POINT('',(12.45,4.106103,26.000000000006));
#120 = LINE('',#121,#122);
#121 = CARTESIAN_POINT('',(12.45,18.,26.000000000006));
#122 = VECTOR('',#123,1.);
#123 = DIRECTION('',(0.,-1.,2.2E-16));
#124 = ORIENTED_EDGE('',*,*,#125,.T.);
#125 = EDGE_CURVE('',#118,#126,#128,.T.);
#126 = VERTEX_POINT('',#127);
#127 = CARTESIAN_POINT('',(11.452510179396,4.106103,26.000000000006));
#128 = LINE('',#129,#130);
#129 = CARTESIAN_POINT('',(16.625456,4.106103,26.000000000006));
#130 = VECTOR('',#131,1.);
#131 = DIRECTION('',(-1.,0.,0.));
#132 = ORIENTED_EDGE('',*,*,#133,.F.);
#133 = EDGE_CURVE('',#134,#126,#136,.T.);
#134 = VERTEX_POINT('',#135);
#135 = CARTESIAN_POINT('',(-4.452510179396,4.106103,26.000000000006));
#136 = CIRCLE('',#137,8.95);
#137 = AXIS2_PLACEMENT_3D('',#138,#139,#140);
#138 = CARTESIAN_POINT('',(3.5,0.,26.000000000006));
#139 = DIRECTION('',(0.,0.,-1.));
#140 = DIRECTION('',(1.,0.,0.));
#141 = ORIENTED_EDGE('',*,*,#142,.T.);
#142 = EDGE_CURVE('',#134,#24,#143,.T.);
#143 = LINE('',#144,#145);
#144 = CARTESIAN_POINT('',(16.625456,4.106103,26.000000000006));
#145 = VECTOR('',#146,1.);
#146 = DIRECTION('',(-1.,0.,0.));
#147 = ORIENTED_EDGE('',*,*,#21,.F.);
#148 = PLANE('',#149);
#149 = AXIS2_PLACEMENT_3D('',#150,#151,#152);
#150 = CARTESIAN_POINT('',(12.45,18.,26.000000000006));
#151 = DIRECTION('',(-0.,-2.2E-16,-1.));
#152 = DIRECTION('',(-1.,0.,0.));
#153 = ADVANCED_FACE('',(#154),#172,.F.);
#154 = FACE_BOUND('',#155,.F.);
#155 = EDGE_LOOP('',(#156,#157,#165,#171));
#156 = ORIENTED_EDGE('',*,*,#142,.F.);
#157 = ORIENTED_EDGE('',*,*,#158,.T.);
#158 = EDGE_CURVE('',#134,#159,#161,.T.);
#159 = VERTEX_POINT('',#160);
#160 = CARTESIAN_POINT('',(-4.452510179396,4.106103,18.000000000006));
#161 = LINE('',#162,#163);
#162 = CARTESIAN_POINT('',(-4.452510179396,4.106103,17.000000000006));
#163 = VECTOR('',#164,1.);
#164 = DIRECTION('',(0.,0.,-1.));
#165 = ORIENTED_EDGE('',*,*,#166,.T.);
#166 = EDGE_CURVE('',#159,#88,#167,.T.);
#167 = LINE('',#168,#169);
#168 = CARTESIAN_POINT('',(16.625456,4.106103,18.000000000006));
#169 = VECTOR('',#170,1.);
#170 = DIRECTION('',(-1.,0.,0.));
#171 = ORIENTED_EDGE('',*,*,#95,.F.);
#172 = PLANE('',#173);
#173 = AXIS2_PLACEMENT_3D('',#174,#175,#176);
#174 = CARTESIAN_POINT('',(16.625456,4.106103,26.000000000006));
#175 = DIRECTION('',(0.,1.,0.));
#176 = DIRECTION('',(-1.,0.,0.));
#177 = ADVANCED_FACE('',(#178),#248,.T.);
#178 = FACE_BOUND('',#179,.T.);
#179 = EDGE_LOOP('',(#180,#181,#182,#190,#199,#208,#217,#225,#233,#241)
  );
#180 = ORIENTED_EDGE('',*,*,#166,.T.);
#181 = ORIENTED_EDGE('',*,*,#87,.F.);
#182 = ORIENTED_EDGE('',*,*,#183,.T.);
#183 = EDGE_CURVE('',#80,#184,#186,.T.);
#184 = VERTEX_POINT('',#185);
#185 = CARTESIAN_POINT('',(-3.5,0.,18.000000000006));
#186 = LINE('',#187,#188);
#187 = CARTESIAN_POINT('',(-5.45,0.,18.000000000006));
#188 = VECTOR('',#189,1.);
#189 = DIRECTION('',(1.,0.,0.));
#190 = ORIENTED_EDGE('',*,*,#191,.T.);
#191 = EDGE_CURVE('',#184,#192,#194,.T.);
#192 = VERTEX_POINT('',#193);
#193 = CARTESIAN_POINT('',(-2.169207894705,4.106103,18.000000000006));
#194 = CIRCLE('',#195,7.);
#195 = AXIS2_PLACEMENT_3D('',#196,#197,#198);
#196 = CARTESIAN_POINT('',(3.5,0.,18.000000000006));
#197 = DIRECTION('',(0.,0.,-1.));
#198 = DIRECTION('',(1.,0.,0.));
#199 = ORIENTED_EDGE('',*,*,#200,.T.);
#200 = EDGE_CURVE('',#192,#201,#203,.T.);
#201 = VERTEX_POINT('',#202);
#202 = CARTESIAN_POINT('',(9.169207894705,4.106103,18.000000000006));
#203 = CIRCLE('',#204,7.);
#204 = AXIS2_PLACEMENT_3D('',#205,#206,#207);
#205 = CARTESIAN_POINT('',(3.5,0.,18.000000000006));
#206 = DIRECTION('',(0.,0.,-1.));
#207 = DIRECTION('',(1.,0.,0.));
#208 = ORIENTED_EDGE('',*,*,#209,.T.);
#209 = EDGE_CURVE('',#201,#210,#212,.T.);
#210 = VERTEX_POINT('',#211);
#211 = CARTESIAN_POINT('',(10.5,0.,18.000000000006));
#212 = CIRCLE('',#213,7.);
#213 = AXIS2_PLACEMENT_3D('',#214,#215,#216);
#214 = CARTESIAN_POINT('',(3.5,0.,18.000000000006));
#215 = DIRECTION('',(0.,0.,-1.));
#216 = DIRECTION('',(1.,0.,0.));
#217 = ORIENTED_EDGE('',*,*,#218,.F.);
#218 = EDGE_CURVE('',#219,#210,#221,.T.);
#219 = VERTEX_POINT('',#220);
#220 = CARTESIAN_POINT('',(12.45,0.,18.000000000006));
#221 = LINE('',#222,#223);
#222 = CARTESIAN_POINT('',(12.45,0.,18.000000000006));
#223 = VECTOR('',#224,1.);
#224 = DIRECTION('',(-1.,0.,0.));
#225 = ORIENTED_EDGE('',*,*,#226,.F.);
#226 = EDGE_CURVE('',#227,#219,#229,.T.);
#227 = VERTEX_POINT('',#228);
#228 = CARTESIAN_POINT('',(12.45,4.106103,18.000000000006));
#229 = LINE('',#230,#231);
#230 = CARTESIAN_POINT('',(12.45,5.506499,18.000000000006));
#231 = VECTOR('',#232,1.);
#232 = DIRECTION('',(0.,-1.,0.));
#233 = ORIENTED_EDGE('',*,*,#234,.T.);
#234 = EDGE_CURVE('',#227,#235,#237,.T.);
#235 = VERTEX_POINT('',#236);
#236 = CARTESIAN_POINT('',(11.452510179396,4.106103,18.000000000006));
#237 = LINE('',#238,#239);
#238 = CARTESIAN_POINT('',(16.625456,4.106103,18.000000000006));
#239 = VECTOR('',#240,1.);
#240 = DIRECTION('',(-1.,0.,0.));
#241 = ORIENTED_EDGE('',*,*,#242,.F.);
#242 = EDGE_CURVE('',#159,#235,#243,.T.);
#243 = CIRCLE('',#244,8.95);
#244 = AXIS2_PLACEMENT_3D('',#245,#246,#247);
#245 = CARTESIAN_POINT('',(3.5,0.,18.000000000006));
#246 = DIRECTION('',(0.,0.,-1.));
#247 = DIRECTION('',(1.,0.,0.));
#248 = PLANE('',#249);
#249 = AXIS2_PLACEMENT_3D('',#250,#251,#252);
#250 = CARTESIAN_POINT('',(3.5,4.580900652529,18.000000000006));
#251 = DIRECTION('',(0.,0.,1.));
#252 = DIRECTION('',(1.,0.,0.));
#253 = ADVANCED_FACE('',(#254),#272,.F.);
#254 = FACE_BOUND('',#255,.F.);
#255 = EDGE_LOOP('',(#256,#257,#258,#266));
#256 = ORIENTED_EDGE('',*,*,#79,.F.);
#257 = ORIENTED_EDGE('',*,*,#183,.T.);
#258 = ORIENTED_EDGE('',*,*,#259,.F.);
#259 = EDGE_CURVE('',#260,#184,#262,.T.);
#260 = VERTEX_POINT('',#261);
#261 = CARTESIAN_POINT('',(-3.5,0.,17.000000000006));
#262 = LINE('',#263,#264);
#263 = CARTESIAN_POINT('',(-3.5,0.,17.000000000006));
#264 = VECTOR('',#265,1.);
#265 = DIRECTION('',(0.,0.,1.));
#266 = ORIENTED_EDGE('',*,*,#267,.F.);
#267 = EDGE_CURVE('',#72,#260,#268,.T.);
#268 = LINE('',#269,#270);
#269 = CARTESIAN_POINT('',(-5.45,0.,17.000000000006));
#270 = VECTOR('',#271,1.);
#271 = DIRECTION('',(1.,0.,0.));
#272 = PLANE('',#273);
#273 = AXIS2_PLACEMENT_3D('',#274,#275,#276);
#274 = CARTESIAN_POINT('',(-5.45,0.,17.000000000006));
#275 = DIRECTION('',(0.,1.,0.));
#276 = DIRECTION('',(1.,0.,0.));
#277 = ADVANCED_FACE('',(#278),#303,.T.);
#278 = FACE_BOUND('',#279,.T.);
#279 = EDGE_LOOP('',(#280,#288,#296,#302));
#280 = ORIENTED_EDGE('',*,*,#281,.T.);
#281 = EDGE_CURVE('',#64,#282,#284,.T.);
#282 = VERTEX_POINT('',#283);
#283 = CARTESIAN_POINT('',(-5.45,17.5,14.000000000006));
#284 = LINE('',#285,#286);
#285 = CARTESIAN_POINT('',(-5.45,17.5,17.000000000006));
#286 = VECTOR('',#287,1.);
#287 = DIRECTION('',(0.,0.,-1.));
#288 = ORIENTED_EDGE('',*,*,#289,.T.);
#289 = EDGE_CURVE('',#282,#290,#292,.T.);
#290 = VERTEX_POINT('',#291);
#291 = CARTESIAN_POINT('',(-5.45,0.,14.000000000006));
#292 = LINE('',#293,#294);
#293 = CARTESIAN_POINT('',(-5.45,17.5,14.000000000006));
#294 = VECTOR('',#295,1.);
#295 = DIRECTION('',(0.,-1.,0.));
#296 = ORIENTED_EDGE('',*,*,#297,.F.);
#297 = EDGE_CURVE('',#72,#290,#298,.T.);
#298 = LINE('',#299,#300);
#299 = CARTESIAN_POINT('',(-5.45,0.,17.000000000006));
#300 = VECTOR('',#301,1.);
#301 = DIRECTION('',(0.,0.,-1.));
#302 = ORIENTED_EDGE('',*,*,#71,.F.);
#303 = PLANE('',#304);
#304 = AXIS2_PLACEMENT_3D('',#305,#306,#307);
#305 = CARTESIAN_POINT('',(-5.45,17.5,17.000000000006));
#306 = DIRECTION('',(-1.,-0.,-0.));
#307 = DIRECTION('',(0.,-1.,0.));
#308 = ADVANCED_FACE('',(#309),#334,.T.);
#309 = FACE_BOUND('',#310,.T.);
#310 = EDGE_LOOP('',(#311,#319,#327,#333));
#311 = ORIENTED_EDGE('',*,*,#312,.T.);
#312 = EDGE_CURVE('',#56,#313,#315,.T.);
#313 = VERTEX_POINT('',#314);
#314 = CARTESIAN_POINT('',(-5.45,19.5,20.55));
#315 = LINE('',#316,#317);
#316 = CARTESIAN_POINT('',(-5.45,17.5,20.55));
#317 = VECTOR('',#318,1.);
#318 = DIRECTION('',(0.,1.,-2.2E-16));
#319 = ORIENTED_EDGE('',*,*,#320,.T.);
#320 = EDGE_CURVE('',#313,#321,#323,.T.);
#321 = VERTEX_POINT('',#322);
#322 = CARTESIAN_POINT('',(-5.45,19.5,17.000000000006));
#323 = LINE('',#324,#325);
#324 = CARTESIAN_POINT('',(-5.45,19.5,20.55));
#325 = VECTOR('',#326,1.);
#326 = DIRECTION('',(0.,0.,-1.));
#327 = ORIENTED_EDGE('',*,*,#328,.F.);
#328 = EDGE_CURVE('',#64,#321,#329,.T.);
#329 = LINE('',#330,#331);
#330 = CARTESIAN_POINT('',(-5.45,17.5,17.000000000006));
#331 = VECTOR('',#332,1.);
#332 = DIRECTION('',(0.,1.,-2.2E-16));
#333 = ORIENTED_EDGE('',*,*,#63,.F.);
#334 = PLANE('',#335);
#335 = AXIS2_PLACEMENT_3D('',#336,#337,#338);
#336 = CARTESIAN_POINT('',(-5.45,17.5,20.55));
#337 = DIRECTION('',(-1.,0.,0.));
#338 = DIRECTION('',(-0.,-2.2E-16,-1.));
#339 = ADVANCED_FACE('',(#340),#365,.T.);
#340 = FACE_BOUND('',#341,.T.);
#341 = EDGE_LOOP('',(#342,#350,#351,#359));
#342 = ORIENTED_EDGE('',*,*,#343,.T.);
#343 = EDGE_CURVE('',#344,#56,#346,.T.);
#344 = VERTEX_POINT('',#345);
#345 = CARTESIAN_POINT('',(-6.55,17.5,20.55));
#346 = LINE('',#347,#348);
#347 = CARTESIAN_POINT('',(13.55,17.5,20.55));
#348 = VECTOR('',#349,1.);
#349 = DIRECTION('',(1.,0.,0.));
#350 = ORIENTED_EDGE('',*,*,#55,.T.);
#351 = ORIENTED_EDGE('',*,*,#352,.T.);
#352 = EDGE_CURVE('',#48,#353,#355,.T.);
#353 = VERTEX_POINT('',#354);
#354 = CARTESIAN_POINT('',(-6.55,9.,20.55));
#355 = LINE('',#356,#357);
#356 = CARTESIAN_POINT('',(13.55,9.,20.55));
#357 = VECTOR('',#358,1.);
#358 = DIRECTION('',(-1.,0.,0.));
#359 = ORIENTED_EDGE('',*,*,#360,.F.);
#360 = EDGE_CURVE('',#344,#353,#361,.T.);
#361 = LINE('',#362,#363);
#362 = CARTESIAN_POINT('',(-6.55,18.,20.55));
#363 = VECTOR('',#364,1.);
#364 = DIRECTION('',(0.,-1.,2.2E-16));
#365 = PLANE('',#366);
#366 = AXIS2_PLACEMENT_3D('',#367,#368,#369);
#367 = CARTESIAN_POINT('',(13.55,18.,20.55));
#368 = DIRECTION('',(-0.,-2.2E-16,-1.));
#369 = DIRECTION('',(-1.,0.,0.));
#370 = ADVANCED_FACE('',(#371),#389,.F.);
#371 = FACE_BOUND('',#372,.F.);
#372 = EDGE_LOOP('',(#373,#381,#382,#383));
#373 = ORIENTED_EDGE('',*,*,#374,.T.);
#374 = EDGE_CURVE('',#375,#40,#377,.T.);
#375 = VERTEX_POINT('',#376);
#376 = CARTESIAN_POINT('',(-6.55,9.,22.45));
#377 = LINE('',#378,#379);
#378 = CARTESIAN_POINT('',(-6.55,9.,22.45));
#379 = VECTOR('',#380,1.);
#380 = DIRECTION('',(1.,0.,0.));
#381 = ORIENTED_EDGE('',*,*,#47,.T.);
#382 = ORIENTED_EDGE('',*,*,#352,.T.);
#383 = ORIENTED_EDGE('',*,*,#384,.T.);
#384 = EDGE_CURVE('',#353,#375,#385,.T.);
#385 = LINE('',#386,#387);
#386 = CARTESIAN_POINT('',(-6.55,9.,20.55));
#387 = VECTOR('',#388,1.);
#388 = DIRECTION('',(0.,0.,1.));
#389 = PLANE('',#390);
#390 = AXIS2_PLACEMENT_3D('',#391,#392,#393);
#391 = CARTESIAN_POINT('',(3.5,9.,21.5));
#392 = DIRECTION('',(0.,1.,0.));
#393 = DIRECTION('',(0.,0.,1.));
#394 = ADVANCED_FACE('',(#395),#413,.T.);
#395 = FACE_BOUND('',#396,.T.);
#396 = EDGE_LOOP('',(#397,#405,#411,#412));
#397 = ORIENTED_EDGE('',*,*,#398,.T.);
#398 = EDGE_CURVE('',#32,#399,#401,.T.);
#399 = VERTEX_POINT('',#400);
#400 = CARTESIAN_POINT('',(-6.55,17.5,22.45));
#401 = LINE('',#402,#403);
#402 = CARTESIAN_POINT('',(3.5,17.5,22.45));
#403 = VECTOR('',#404,1.);
#404 = DIRECTION('',(-1.,0.,0.));
#405 = ORIENTED_EDGE('',*,*,#406,.T.);
#406 = EDGE_CURVE('',#399,#375,#407,.T.);
#407 = LINE('',#408,#409);
#408 = CARTESIAN_POINT('',(-6.55,18.,22.45));
#409 = VECTOR('',#410,1.);
#410 = DIRECTION('',(0.,-1.,2.2E-16));
#411 = ORIENTED_EDGE('',*,*,#374,.T.);
#412 = ORIENTED_EDGE('',*,*,#39,.T.);
#413 = PLANE('',#414);
#414 = AXIS2_PLACEMENT_3D('',#415,#416,#417);
#415 = CARTESIAN_POINT('',(-6.55,18.,22.45));
#416 = DIRECTION('',(0.,2.2E-16,1.));
#417 = DIRECTION('',(1.,0.,0.));
#418 = ADVANCED_FACE('',(#419),#444,.T.);
#419 = FACE_BOUND('',#420,.T.);
#420 = EDGE_LOOP('',(#421,#429,#437,#443));
#421 = ORIENTED_EDGE('',*,*,#422,.T.);
#422 = EDGE_CURVE('',#22,#423,#425,.T.);
#423 = VERTEX_POINT('',#424);
#424 = CARTESIAN_POINT('',(-5.45,19.5,26.000000000006));
#425 = LINE('',#426,#427);
#426 = CARTESIAN_POINT('',(-5.45,17.5,26.000000000006));
#427 = VECTOR('',#428,1.);
#428 = DIRECTION('',(0.,1.,-2.2E-16));
#429 = ORIENTED_EDGE('',*,*,#430,.T.);
#430 = EDGE_CURVE('',#423,#431,#433,.T.);
#431 = VERTEX_POINT('',#432);
#432 = CARTESIAN_POINT('',(-5.45,19.5,22.45));
#433 = LINE('',#434,#435);
#434 = CARTESIAN_POINT('',(-5.45,19.5,26.000000000006));
#435 = VECTOR('',#436,1.);
#436 = DIRECTION('',(0.,0.,-1.));
#437 = ORIENTED_EDGE('',*,*,#438,.F.);
#438 = EDGE_CURVE('',#32,#431,#439,.T.);
#439 = LINE('',#440,#441);
#440 = CARTESIAN_POINT('',(-5.45,17.5,22.45));
#441 = VECTOR('',#442,1.);
#442 = DIRECTION('',(0.,1.,-2.2E-16));
#443 = ORIENTED_EDGE('',*,*,#31,.F.);
#444 = PLANE('',#445);
#445 = AXIS2_PLACEMENT_3D('',#446,#447,#448);
#446 = CARTESIAN_POINT('',(-5.45,17.5,26.000000000006));
#447 = DIRECTION('',(-1.,0.,0.));
#448 = DIRECTION('',(-0.,-2.2E-16,-1.));
#449 = ADVANCED_FACE('',(#450),#468,.T.);
#450 = FACE_BOUND('',#451,.T.);
#451 = EDGE_LOOP('',(#452,#460,#466,#467));
#452 = ORIENTED_EDGE('',*,*,#453,.T.);
#453 = EDGE_CURVE('',#110,#454,#456,.T.);
#454 = VERTEX_POINT('',#455);
#455 = CARTESIAN_POINT('',(12.45,19.5,26.000000000006));
#456 = LINE('',#457,#458);
#457 = CARTESIAN_POINT('',(12.45,17.5,26.000000000006));
#458 = VECTOR('',#459,1.);
#459 = DIRECTION('',(0.,1.,-2.2E-16));
#460 = ORIENTED_EDGE('',*,*,#461,.T.);
#461 = EDGE_CURVE('',#454,#423,#462,.T.);
#462 = LINE('',#463,#464);
#463 = CARTESIAN_POINT('',(12.45,19.5,26.000000000006));
#464 = VECTOR('',#465,1.);
#465 = DIRECTION('',(-1.,0.,0.));
#466 = ORIENTED_EDGE('',*,*,#422,.F.);
#467 = ORIENTED_EDGE('',*,*,#109,.F.);
#468 = PLANE('',#469);
#469 = AXIS2_PLACEMENT_3D('',#470,#471,#472);
#470 = CARTESIAN_POINT('',(12.45,17.5,26.000000000006));
#471 = DIRECTION('',(0.,2.2E-16,1.));
#472 = DIRECTION('',(-1.,0.,0.));
#473 = ADVANCED_FACE('',(#474),#485,.F.);
#474 = FACE_BOUND('',#475,.F.);
#475 = EDGE_LOOP('',(#476,#477,#478,#484));
#476 = ORIENTED_EDGE('',*,*,#158,.F.);
#477 = ORIENTED_EDGE('',*,*,#133,.T.);
#478 = ORIENTED_EDGE('',*,*,#479,.T.);
#479 = EDGE_CURVE('',#126,#235,#480,.T.);
#480 = LINE('',#481,#482);
#481 = CARTESIAN_POINT('',(11.452510179396,4.106103,17.000000000006));
#482 = VECTOR('',#483,1.);
#483 = DIRECTION('',(0.,0.,-1.));
#484 = ORIENTED_EDGE('',*,*,#242,.F.);
#485 = CYLINDRICAL_SURFACE('',#486,8.95);
#486 = AXIS2_PLACEMENT_3D('',#487,#488,#489);
#487 = CARTESIAN_POINT('',(3.5,0.,17.000000000006));
#488 = DIRECTION('',(0.,0.,-1.));
#489 = DIRECTION('',(1.,0.,0.));
#490 = ADVANCED_FACE('',(#491),#502,.F.);
#491 = FACE_BOUND('',#492,.F.);
#492 = EDGE_LOOP('',(#493,#494,#500,#501));
#493 = ORIENTED_EDGE('',*,*,#125,.F.);
#494 = ORIENTED_EDGE('',*,*,#495,.F.);
#495 = EDGE_CURVE('',#227,#118,#496,.T.);
#496 = LINE('',#497,#498);
#497 = CARTESIAN_POINT('',(12.45,4.106103,23.750000000006));
#498 = VECTOR('',#499,1.);
#499 = DIRECTION('',(0.,0.,1.));
#500 = ORIENTED_EDGE('',*,*,#234,.T.);
#501 = ORIENTED_EDGE('',*,*,#479,.F.);
#502 = PLANE('',#503);
#503 = AXIS2_PLACEMENT_3D('',#504,#505,#506);
#504 = CARTESIAN_POINT('',(16.625456,4.106103,26.000000000006));
#505 = DIRECTION('',(0.,1.,0.));
#506 = DIRECTION('',(-1.,0.,0.));
#507 = ADVANCED_FACE('',(#508),#567,.T.);
#508 = FACE_BOUND('',#509,.T.);
#509 = EDGE_LOOP('',(#510,#520,#528,#536,#544,#552,#558,#559,#560,#561)
  );
#510 = ORIENTED_EDGE('',*,*,#511,.F.);
#511 = EDGE_CURVE('',#512,#514,#516,.T.);
#512 = VERTEX_POINT('',#513);
#513 = CARTESIAN_POINT('',(12.45,17.5,17.000000000006));
#514 = VERTEX_POINT('',#515);
#515 = CARTESIAN_POINT('',(12.45,0.,17.000000000006));
#516 = LINE('',#517,#518);
#517 = CARTESIAN_POINT('',(12.45,18.,17.000000000006));
#518 = VECTOR('',#519,1.);
#519 = DIRECTION('',(0.,-1.,2.2E-16));
#520 = ORIENTED_EDGE('',*,*,#521,.T.);
#521 = EDGE_CURVE('',#512,#522,#524,.T.);
#522 = VERTEX_POINT('',#523);
#523 = CARTESIAN_POINT('',(12.45,17.5,20.55));
#524 = LINE('',#525,#526);
#525 = CARTESIAN_POINT('',(12.45,17.5,23.750000000006));
#526 = VECTOR('',#527,1.);
#527 = DIRECTION('',(0.,0.,1.));
#528 = ORIENTED_EDGE('',*,*,#529,.F.);
#529 = EDGE_CURVE('',#530,#522,#532,.T.);
#530 = VERTEX_POINT('',#531);
#531 = CARTESIAN_POINT('',(12.45,9.,20.55));
#532 = LINE('',#533,#534);
#533 = CARTESIAN_POINT('',(12.45,13.5,20.55));
#534 = VECTOR('',#535,1.);
#535 = DIRECTION('',(0.,1.,-2.2E-16));
#536 = ORIENTED_EDGE('',*,*,#537,.T.);
#537 = EDGE_CURVE('',#530,#538,#540,.T.);
#538 = VERTEX_POINT('',#539);
#539 = CARTESIAN_POINT('',(12.45,9.,22.45));
#540 = LINE('',#541,#542);
#541 = CARTESIAN_POINT('',(12.45,9.,21.500000000003));
#542 = VECTOR('',#543,1.);
#543 = DIRECTION('',(0.,0.,1.));
#544 = ORIENTED_EDGE('',*,*,#545,.F.);
#545 = EDGE_CURVE('',#546,#538,#548,.T.);
#546 = VERTEX_POINT('',#547);
#547 = CARTESIAN_POINT('',(12.45,17.5,22.45));
#548 = LINE('',#549,#550);
#549 = CARTESIAN_POINT('',(12.45,13.5,22.45));
#550 = VECTOR('',#551,1.);
#551 = DIRECTION('',(0.,-1.,2.2E-16));
#552 = ORIENTED_EDGE('',*,*,#553,.T.);
#553 = EDGE_CURVE('',#546,#110,#554,.T.);
#554 = LINE('',#555,#556);
#555 = CARTESIAN_POINT('',(12.45,17.5,23.750000000006));
#556 = VECTOR('',#557,1.);
#557 = DIRECTION('',(0.,0.,1.));
#558 = ORIENTED_EDGE('',*,*,#117,.T.);
#559 = ORIENTED_EDGE('',*,*,#495,.F.);
#560 = ORIENTED_EDGE('',*,*,#226,.T.);
#561 = ORIENTED_EDGE('',*,*,#562,.F.);
#562 = EDGE_CURVE('',#514,#219,#563,.T.);
#563 = LINE('',#564,#565);
#564 = CARTESIAN_POINT('',(12.45,0.,17.000000000006));
#565 = VECTOR('',#566,1.);
#566 = DIRECTION('',(0.,2.2E-16,1.));
#567 = PLANE('',#568);
#568 = AXIS2_PLACEMENT_3D('',#569,#570,#571);
#569 = CARTESIAN_POINT('',(12.45,9.,21.500000000006));
#570 = DIRECTION('',(1.,0.,0.));
#571 = DIRECTION('',(0.,0.,1.));
#572 = ADVANCED_FACE('',(#573),#594,.F.);
#573 = FACE_BOUND('',#574,.F.);
#574 = EDGE_LOOP('',(#575,#576,#577,#578,#579,#587));
#575 = ORIENTED_EDGE('',*,*,#259,.T.);
#576 = ORIENTED_EDGE('',*,*,#191,.T.);
#577 = ORIENTED_EDGE('',*,*,#200,.T.);
#578 = ORIENTED_EDGE('',*,*,#209,.T.);
#579 = ORIENTED_EDGE('',*,*,#580,.F.);
#580 = EDGE_CURVE('',#581,#210,#583,.T.);
#581 = VERTEX_POINT('',#582);
#582 = CARTESIAN_POINT('',(10.5,0.,17.000000000006));
#583 = LINE('',#584,#585);
#584 = CARTESIAN_POINT('',(10.5,0.,17.000000000006));
#585 = VECTOR('',#586,1.);
#586 = DIRECTION('',(0.,0.,1.));
#587 = ORIENTED_EDGE('',*,*,#588,.F.);
#588 = EDGE_CURVE('',#260,#581,#589,.T.);
#589 = CIRCLE('',#590,7.);
#590 = AXIS2_PLACEMENT_3D('',#591,#592,#593);
#591 = CARTESIAN_POINT('',(3.5,0.,17.000000000006));
#592 = DIRECTION('',(0.,0.,-1.));
#593 = DIRECTION('',(1.,0.,0.));
#594 = CYLINDRICAL_SURFACE('',#595,7.);
#595 = AXIS2_PLACEMENT_3D('',#596,#597,#598);
#596 = CARTESIAN_POINT('',(3.5,0.,17.000000000006));
#597 = DIRECTION('',(0.,0.,-1.));
#598 = DIRECTION('',(1.,0.,0.));
#599 = ADVANCED_FACE('',(#600),#611,.T.);
#600 = FACE_BOUND('',#601,.T.);
#601 = EDGE_LOOP('',(#602,#603,#604,#605));
#602 = ORIENTED_EDGE('',*,*,#562,.T.);
#603 = ORIENTED_EDGE('',*,*,#218,.T.);
#604 = ORIENTED_EDGE('',*,*,#580,.F.);
#605 = ORIENTED_EDGE('',*,*,#606,.F.);
#606 = EDGE_CURVE('',#514,#581,#607,.T.);
#607 = LINE('',#608,#609);
#608 = CARTESIAN_POINT('',(12.45,0.,17.000000000006));
#609 = VECTOR('',#610,1.);
#610 = DIRECTION('',(-1.,0.,0.));
#611 = PLANE('',#612);
#612 = AXIS2_PLACEMENT_3D('',#613,#614,#615);
#613 = CARTESIAN_POINT('',(12.45,0.,17.000000000006));
#614 = DIRECTION('',(-0.,-1.,-0.));
#615 = DIRECTION('',(-1.,0.,0.));
#616 = ADVANCED_FACE('',(#617),#635,.T.);
#617 = FACE_BOUND('',#618,.T.);
#618 = EDGE_LOOP('',(#619,#620,#628,#634));
#619 = ORIENTED_EDGE('',*,*,#297,.T.);
#620 = ORIENTED_EDGE('',*,*,#621,.T.);
#621 = EDGE_CURVE('',#290,#622,#624,.T.);
#622 = VERTEX_POINT('',#623);
#623 = CARTESIAN_POINT('',(-3.5,0.,14.000000000006));
#624 = LINE('',#625,#626);
#625 = CARTESIAN_POINT('',(-5.45,0.,14.000000000006));
#626 = VECTOR('',#627,1.);
#627 = DIRECTION('',(1.,0.,0.));
#628 = ORIENTED_EDGE('',*,*,#629,.F.);
#629 = EDGE_CURVE('',#260,#622,#630,.T.);
#630 = LINE('',#631,#632);
#631 = CARTESIAN_POINT('',(-3.5,0.,17.000000000006));
#632 = VECTOR('',#633,1.);
#633 = DIRECTION('',(0.,0.,-1.));
#634 = ORIENTED_EDGE('',*,*,#267,.F.);
#635 = PLANE('',#636);
#636 = AXIS2_PLACEMENT_3D('',#637,#638,#639);
#637 = CARTESIAN_POINT('',(-5.45,0.,17.000000000006));
#638 = DIRECTION('',(0.,-1.,0.));
#639 = DIRECTION('',(1.,0.,0.));
#640 = ADVANCED_FACE('',(#641),#659,.F.);
#641 = FACE_BOUND('',#642,.F.);
#642 = EDGE_LOOP('',(#643,#644,#652,#658));
#643 = ORIENTED_EDGE('',*,*,#281,.T.);
#644 = ORIENTED_EDGE('',*,*,#645,.T.);
#645 = EDGE_CURVE('',#282,#646,#648,.T.);
#646 = VERTEX_POINT('',#647);
#647 = CARTESIAN_POINT('',(-5.45,19.5,14.000000000006));
#648 = LINE('',#649,#650);
#649 = CARTESIAN_POINT('',(-5.45,17.5,14.000000000006));
#650 = VECTOR('',#651,1.);
#651 = DIRECTION('',(0.,1.,0.));
#652 = ORIENTED_EDGE('',*,*,#653,.F.);
#653 = EDGE_CURVE('',#321,#646,#654,.T.);
#654 = LINE('',#655,#656);
#655 = CARTESIAN_POINT('',(-5.45,19.5,17.000000000006));
#656 = VECTOR('',#657,1.);
#657 = DIRECTION('',(0.,0.,-1.));
#658 = ORIENTED_EDGE('',*,*,#328,.F.);
#659 = PLANE('',#660);
#660 = AXIS2_PLACEMENT_3D('',#661,#662,#663);
#661 = CARTESIAN_POINT('',(-5.45,17.5,17.000000000006));
#662 = DIRECTION('',(1.,0.,0.));
#663 = DIRECTION('',(0.,1.,0.));
#664 = ADVANCED_FACE('',(#665),#700,.F.);
#665 = FACE_BOUND('',#666,.F.);
#666 = EDGE_LOOP('',(#667,#668,#669,#678,#686,#694));
#667 = ORIENTED_EDGE('',*,*,#289,.T.);
#668 = ORIENTED_EDGE('',*,*,#621,.T.);
#669 = ORIENTED_EDGE('',*,*,#670,.T.);
#670 = EDGE_CURVE('',#622,#671,#673,.T.);
#671 = VERTEX_POINT('',#672);
#672 = CARTESIAN_POINT('',(10.5,0.,14.000000000006));
#673 = CIRCLE('',#674,7.);
#674 = AXIS2_PLACEMENT_3D('',#675,#676,#677);
#675 = CARTESIAN_POINT('',(3.5,0.,14.000000000006));
#676 = DIRECTION('',(0.,0.,-1.));
#677 = DIRECTION('',(1.,0.,0.));
#678 = ORIENTED_EDGE('',*,*,#679,.F.);
#679 = EDGE_CURVE('',#680,#671,#682,.T.);
#680 = VERTEX_POINT('',#681);
#681 = CARTESIAN_POINT('',(12.45,0.,14.000000000006));
#682 = LINE('',#683,#684);
#683 = CARTESIAN_POINT('',(12.45,0.,14.000000000006));
#684 = VECTOR('',#685,1.);
#685 = DIRECTION('',(-1.,0.,0.));
#686 = ORIENTED_EDGE('',*,*,#687,.F.);
#687 = EDGE_CURVE('',#688,#680,#690,.T.);
#688 = VERTEX_POINT('',#689);
#689 = CARTESIAN_POINT('',(12.45,17.5,14.000000000006));
#690 = LINE('',#691,#692);
#691 = CARTESIAN_POINT('',(12.45,17.5,14.000000000006));
#692 = VECTOR('',#693,1.);
#693 = DIRECTION('',(0.,-1.,0.));
#694 = ORIENTED_EDGE('',*,*,#695,.F.);
#695 = EDGE_CURVE('',#282,#688,#696,.T.);
#696 = LINE('',#697,#698);
#697 = CARTESIAN_POINT('',(-5.45,17.5,14.000000000006));
#698 = VECTOR('',#699,1.);
#699 = DIRECTION('',(1.,0.,0.));
#700 = PLANE('',#701);
#701 = AXIS2_PLACEMENT_3D('',#702,#703,#704);
#702 = CARTESIAN_POINT('',(3.5,12.250599401113,14.000000000006));
#703 = DIRECTION('',(0.,0.,1.));
#704 = DIRECTION('',(1.,0.,0.));
#705 = ADVANCED_FACE('',(#706),#724,.T.);
#706 = FACE_BOUND('',#707,.T.);
#707 = EDGE_LOOP('',(#708,#716,#722,#723));
#708 = ORIENTED_EDGE('',*,*,#709,.T.);
#709 = EDGE_CURVE('',#344,#710,#712,.T.);
#710 = VERTEX_POINT('',#711);
#711 = CARTESIAN_POINT('',(-6.55,19.5,20.55));
#712 = LINE('',#713,#714);
#713 = CARTESIAN_POINT('',(-6.55,17.5,20.55));
#714 = VECTOR('',#715,1.);
#715 = DIRECTION('',(0.,1.,-2.2E-16));
#716 = ORIENTED_EDGE('',*,*,#717,.T.);
#717 = EDGE_CURVE('',#710,#313,#718,.T.);
#718 = LINE('',#719,#720);
#719 = CARTESIAN_POINT('',(-6.55,19.5,20.55));
#720 = VECTOR('',#721,1.);
#721 = DIRECTION('',(1.,0.,0.));
#722 = ORIENTED_EDGE('',*,*,#312,.F.);
#723 = ORIENTED_EDGE('',*,*,#343,.F.);
#724 = PLANE('',#725);
#725 = AXIS2_PLACEMENT_3D('',#726,#727,#728);
#726 = CARTESIAN_POINT('',(-6.55,17.5,20.55));
#727 = DIRECTION('',(0.,-2.2E-16,-1.));
#728 = DIRECTION('',(1.,0.,0.));
#729 = ADVANCED_FACE('',(#730),#796,.T.);
#730 = FACE_BOUND('',#731,.F.);
#731 = EDGE_LOOP('',(#732,#742,#748,#749,#750,#758,#764,#765,#766,#774,
    #782,#790));
#732 = ORIENTED_EDGE('',*,*,#733,.T.);
#733 = EDGE_CURVE('',#734,#736,#738,.T.);
#734 = VERTEX_POINT('',#735);
#735 = CARTESIAN_POINT('',(13.55,19.5,22.45));
#736 = VERTEX_POINT('',#737);
#737 = CARTESIAN_POINT('',(12.45,19.5,22.45));
#738 = LINE('',#739,#740);
#739 = CARTESIAN_POINT('',(13.55,19.5,22.45));
#740 = VECTOR('',#741,1.);
#741 = DIRECTION('',(-1.,0.,0.));
#742 = ORIENTED_EDGE('',*,*,#743,.T.);
#743 = EDGE_CURVE('',#736,#454,#744,.T.);
#744 = LINE('',#745,#746);
#745 = CARTESIAN_POINT('',(12.45,19.5,22.45));
#746 = VECTOR('',#747,1.);
#747 = DIRECTION('',(0.,0.,1.));
#748 = ORIENTED_EDGE('',*,*,#461,.T.);
#749 = ORIENTED_EDGE('',*,*,#430,.T.);
#750 = ORIENTED_EDGE('',*,*,#751,.T.);
#751 = EDGE_CURVE('',#431,#752,#754,.T.);
#752 = VERTEX_POINT('',#753);
#753 = CARTESIAN_POINT('',(-6.55,19.5,22.45));
#754 = LINE('',#755,#756);
#755 = CARTESIAN_POINT('',(-5.45,19.5,22.45));
#756 = VECTOR('',#757,1.);
#757 = DIRECTION('',(-1.,0.,0.));
#758 = ORIENTED_EDGE('',*,*,#759,.T.);
#759 = EDGE_CURVE('',#752,#710,#760,.T.);
#760 = LINE('',#761,#762);
#761 = CARTESIAN_POINT('',(-6.55,19.5,22.45));
#762 = VECTOR('',#763,1.);
#763 = DIRECTION('',(0.,0.,-1.));
#764 = ORIENTED_EDGE('',*,*,#717,.T.);
#765 = ORIENTED_EDGE('',*,*,#320,.T.);
#766 = ORIENTED_EDGE('',*,*,#767,.T.);
#767 = EDGE_CURVE('',#321,#768,#770,.T.);
#768 = VERTEX_POINT('',#769);
#769 = CARTESIAN_POINT('',(12.45,19.5,17.000000000006));
#770 = LINE('',#771,#772);
#771 = CARTESIAN_POINT('',(-5.45,19.5,17.000000000006));
#772 = VECTOR('',#773,1.);
#773 = DIRECTION('',(1.,0.,0.));
#774 = ORIENTED_EDGE('',*,*,#775,.T.);
#775 = EDGE_CURVE('',#768,#776,#778,.T.);
#776 = VERTEX_POINT('',#777);
#777 = CARTESIAN_POINT('',(12.45,19.5,20.55));
#778 = LINE('',#779,#780);
#779 = CARTESIAN_POINT('',(12.45,19.5,17.000000000006));
#780 = VECTOR('',#781,1.);
#781 = DIRECTION('',(0.,0.,1.));
#782 = ORIENTED_EDGE('',*,*,#783,.T.);
#783 = EDGE_CURVE('',#776,#784,#786,.T.);
#784 = VERTEX_POINT('',#785);
#785 = CARTESIAN_POINT('',(13.55,19.5,20.55));
#786 = LINE('',#787,#788);
#787 = CARTESIAN_POINT('',(12.45,19.5,20.55));
#788 = VECTOR('',#789,1.);
#789 = DIRECTION('',(1.,0.,0.));
#790 = ORIENTED_EDGE('',*,*,#791,.F.);
#791 = EDGE_CURVE('',#734,#784,#792,.T.);
#792 = LINE('',#793,#794);
#793 = CARTESIAN_POINT('',(13.55,19.5,22.45));
#794 = VECTOR('',#795,1.);
#795 = DIRECTION('',(0.,0.,-1.));
#796 = PLANE('',#797);
#797 = AXIS2_PLACEMENT_3D('',#798,#799,#800);
#798 = CARTESIAN_POINT('',(3.5,19.5,21.500000000005));
#799 = DIRECTION('',(0.,1.,-2.2E-16));
#800 = DIRECTION('',(0.,2.2E-16,1.));
#801 = ADVANCED_FACE('',(#802),#813,.T.);
#802 = FACE_BOUND('',#803,.T.);
#803 = EDGE_LOOP('',(#804,#810,#811,#812));
#804 = ORIENTED_EDGE('',*,*,#805,.T.);
#805 = EDGE_CURVE('',#399,#344,#806,.T.);
#806 = LINE('',#807,#808);
#807 = CARTESIAN_POINT('',(-6.55,17.5,26.000000000006));
#808 = VECTOR('',#809,1.);
#809 = DIRECTION('',(-0.,-0.,-1.));
#810 = ORIENTED_EDGE('',*,*,#360,.T.);
#811 = ORIENTED_EDGE('',*,*,#384,.T.);
#812 = ORIENTED_EDGE('',*,*,#406,.F.);
#813 = PLANE('',#814);
#814 = AXIS2_PLACEMENT_3D('',#815,#816,#817);
#815 = CARTESIAN_POINT('',(-6.55,18.,20.55));
#816 = DIRECTION('',(-1.,0.,0.));
#817 = DIRECTION('',(0.,2.2E-16,1.));
#818 = ADVANCED_FACE('',(#819),#830,.T.);
#819 = FACE_BOUND('',#820,.T.);
#820 = EDGE_LOOP('',(#821,#822,#823,#829));
#821 = ORIENTED_EDGE('',*,*,#438,.T.);
#822 = ORIENTED_EDGE('',*,*,#751,.T.);
#823 = ORIENTED_EDGE('',*,*,#824,.F.);
#824 = EDGE_CURVE('',#399,#752,#825,.T.);
#825 = LINE('',#826,#827);
#826 = CARTESIAN_POINT('',(-6.55,17.5,22.45));
#827 = VECTOR('',#828,1.);
#828 = DIRECTION('',(0.,1.,-2.2E-16));
#829 = ORIENTED_EDGE('',*,*,#398,.F.);
#830 = PLANE('',#831);
#831 = AXIS2_PLACEMENT_3D('',#832,#833,#834);
#832 = CARTESIAN_POINT('',(-5.45,17.5,22.45));
#833 = DIRECTION('',(0.,2.2E-16,1.));
#834 = DIRECTION('',(-1.,0.,0.));
#835 = ADVANCED_FACE('',(#836),#847,.T.);
#836 = FACE_BOUND('',#837,.T.);
#837 = EDGE_LOOP('',(#838,#844,#845,#846));
#838 = ORIENTED_EDGE('',*,*,#839,.T.);
#839 = EDGE_CURVE('',#546,#736,#840,.T.);
#840 = LINE('',#841,#842);
#841 = CARTESIAN_POINT('',(12.45,17.5,22.45));
#842 = VECTOR('',#843,1.);
#843 = DIRECTION('',(0.,1.,-2.2E-16));
#844 = ORIENTED_EDGE('',*,*,#743,.T.);
#845 = ORIENTED_EDGE('',*,*,#453,.F.);
#846 = ORIENTED_EDGE('',*,*,#553,.F.);
#847 = PLANE('',#848);
#848 = AXIS2_PLACEMENT_3D('',#849,#850,#851);
#849 = CARTESIAN_POINT('',(12.45,17.5,22.45));
#850 = DIRECTION('',(1.,0.,0.));
#851 = DIRECTION('',(0.,2.2E-16,1.));
#852 = ADVANCED_FACE('',(#853),#869,.F.);
#853 = FACE_BOUND('',#854,.F.);
#854 = EDGE_LOOP('',(#855,#861,#862,#868));
#855 = ORIENTED_EDGE('',*,*,#856,.T.);
#856 = EDGE_CURVE('',#512,#688,#857,.T.);
#857 = LINE('',#858,#859);
#858 = CARTESIAN_POINT('',(12.45,17.5,17.000000000006));
#859 = VECTOR('',#860,1.);
#860 = DIRECTION('',(0.,0.,-1.));
#861 = ORIENTED_EDGE('',*,*,#687,.T.);
#862 = ORIENTED_EDGE('',*,*,#863,.F.);
#863 = EDGE_CURVE('',#514,#680,#864,.T.);
#864 = LINE('',#865,#866);
#865 = CARTESIAN_POINT('',(12.45,0.,17.000000000006));
#866 = VECTOR('',#867,1.);
#867 = DIRECTION('',(0.,0.,-1.));
#868 = ORIENTED_EDGE('',*,*,#511,.F.);
#869 = PLANE('',#870);
#870 = AXIS2_PLACEMENT_3D('',#871,#872,#873);
#871 = CARTESIAN_POINT('',(12.45,17.5,17.000000000006));
#872 = DIRECTION('',(-1.,-0.,-0.));
#873 = DIRECTION('',(0.,-1.,0.));
#874 = ADVANCED_FACE('',(#875),#900,.T.);
#875 = FACE_BOUND('',#876,.T.);
#876 = EDGE_LOOP('',(#877,#885,#886,#894));
#877 = ORIENTED_EDGE('',*,*,#878,.T.);
#878 = EDGE_CURVE('',#879,#546,#881,.T.);
#879 = VERTEX_POINT('',#880);
#880 = CARTESIAN_POINT('',(13.55,17.5,22.45));
#881 = LINE('',#882,#883);
#882 = CARTESIAN_POINT('',(3.5,17.5,22.45));
#883 = VECTOR('',#884,1.);
#884 = DIRECTION('',(-1.,0.,0.));
#885 = ORIENTED_EDGE('',*,*,#545,.T.);
#886 = ORIENTED_EDGE('',*,*,#887,.T.);
#887 = EDGE_CURVE('',#538,#888,#890,.T.);
#888 = VERTEX_POINT('',#889);
#889 = CARTESIAN_POINT('',(13.55,9.,22.45));
#890 = LINE('',#891,#892);
#891 = CARTESIAN_POINT('',(-6.55,9.,22.45));
#892 = VECTOR('',#893,1.);
#893 = DIRECTION('',(1.,0.,0.));
#894 = ORIENTED_EDGE('',*,*,#895,.F.);
#895 = EDGE_CURVE('',#879,#888,#896,.T.);
#896 = LINE('',#897,#898);
#897 = CARTESIAN_POINT('',(13.55,18.,22.45));
#898 = VECTOR('',#899,1.);
#899 = DIRECTION('',(0.,-1.,2.2E-16));
#900 = PLANE('',#901);
#901 = AXIS2_PLACEMENT_3D('',#902,#903,#904);
#902 = CARTESIAN_POINT('',(-6.55,18.,22.45));
#903 = DIRECTION('',(0.,2.2E-16,1.));
#904 = DIRECTION('',(1.,0.,0.));
#905 = ADVANCED_FACE('',(#906),#924,.F.);
#906 = FACE_BOUND('',#907,.F.);
#907 = EDGE_LOOP('',(#908,#909,#917,#923));
#908 = ORIENTED_EDGE('',*,*,#887,.T.);
#909 = ORIENTED_EDGE('',*,*,#910,.T.);
#910 = EDGE_CURVE('',#888,#911,#913,.T.);
#911 = VERTEX_POINT('',#912);
#912 = CARTESIAN_POINT('',(13.55,9.,20.55));
#913 = LINE('',#914,#915);
#914 = CARTESIAN_POINT('',(13.55,9.,22.45));
#915 = VECTOR('',#916,1.);
#916 = DIRECTION('',(0.,0.,-1.));
#917 = ORIENTED_EDGE('',*,*,#918,.T.);
#918 = EDGE_CURVE('',#911,#530,#919,.T.);
#919 = LINE('',#920,#921);
#920 = CARTESIAN_POINT('',(13.55,9.,20.55));
#921 = VECTOR('',#922,1.);
#922 = DIRECTION('',(-1.,0.,0.));
#923 = ORIENTED_EDGE('',*,*,#537,.T.);
#924 = PLANE('',#925);
#925 = AXIS2_PLACEMENT_3D('',#926,#927,#928);
#926 = CARTESIAN_POINT('',(3.5,9.,21.5));
#927 = DIRECTION('',(0.,1.,0.));
#928 = DIRECTION('',(0.,0.,1.));
#929 = ADVANCED_FACE('',(#930),#948,.T.);
#930 = FACE_BOUND('',#931,.T.);
#931 = EDGE_LOOP('',(#932,#940,#946,#947));
#932 = ORIENTED_EDGE('',*,*,#933,.T.);
#933 = EDGE_CURVE('',#522,#934,#936,.T.);
#934 = VERTEX_POINT('',#935);
#935 = CARTESIAN_POINT('',(13.55,17.5,20.55));
#936 = LINE('',#937,#938);
#937 = CARTESIAN_POINT('',(13.55,17.5,20.55));
#938 = VECTOR('',#939,1.);
#939 = DIRECTION('',(1.,0.,0.));
#940 = ORIENTED_EDGE('',*,*,#941,.T.);
#941 = EDGE_CURVE('',#934,#911,#942,.T.);
#942 = LINE('',#943,#944);
#943 = CARTESIAN_POINT('',(13.55,18.,20.55));
#944 = VECTOR('',#945,1.);
#945 = DIRECTION('',(0.,-1.,2.2E-16));
#946 = ORIENTED_EDGE('',*,*,#918,.T.);
#947 = ORIENTED_EDGE('',*,*,#529,.T.);
#948 = PLANE('',#949);
#949 = AXIS2_PLACEMENT_3D('',#950,#951,#952);
#950 = CARTESIAN_POINT('',(13.55,18.,20.55));
#951 = DIRECTION('',(-0.,-2.2E-16,-1.));
#952 = DIRECTION('',(-1.,0.,0.));
#953 = ADVANCED_FACE('',(#954),#970,.T.);
#954 = FACE_BOUND('',#955,.T.);
#955 = EDGE_LOOP('',(#956,#962,#963,#969));
#956 = ORIENTED_EDGE('',*,*,#957,.T.);
#957 = EDGE_CURVE('',#512,#768,#958,.T.);
#958 = LINE('',#959,#960);
#959 = CARTESIAN_POINT('',(12.45,17.5,17.000000000006));
#960 = VECTOR('',#961,1.);
#961 = DIRECTION('',(0.,1.,-2.2E-16));
#962 = ORIENTED_EDGE('',*,*,#775,.T.);
#963 = ORIENTED_EDGE('',*,*,#964,.F.);
#964 = EDGE_CURVE('',#522,#776,#965,.T.);
#965 = LINE('',#966,#967);
#966 = CARTESIAN_POINT('',(12.45,17.5,20.55));
#967 = VECTOR('',#968,1.);
#968 = DIRECTION('',(0.,1.,-2.2E-16));
#969 = ORIENTED_EDGE('',*,*,#521,.F.);
#970 = PLANE('',#971);
#971 = AXIS2_PLACEMENT_3D('',#972,#973,#974);
#972 = CARTESIAN_POINT('',(12.45,17.5,17.000000000006));
#973 = DIRECTION('',(1.,0.,0.));
#974 = DIRECTION('',(0.,2.2E-16,1.));
#975 = ADVANCED_FACE('',(#976),#987,.F.);
#976 = FACE_BOUND('',#977,.T.);
#977 = EDGE_LOOP('',(#978,#979,#980,#986));
#978 = ORIENTED_EDGE('',*,*,#629,.T.);
#979 = ORIENTED_EDGE('',*,*,#670,.T.);
#980 = ORIENTED_EDGE('',*,*,#981,.F.);
#981 = EDGE_CURVE('',#581,#671,#982,.T.);
#982 = LINE('',#983,#984);
#983 = CARTESIAN_POINT('',(10.5,0.,17.000000000006));
#984 = VECTOR('',#985,1.);
#985 = DIRECTION('',(0.,0.,-1.));
#986 = ORIENTED_EDGE('',*,*,#588,.F.);
#987 = CYLINDRICAL_SURFACE('',#988,7.);
#988 = AXIS2_PLACEMENT_3D('',#989,#990,#991);
#989 = CARTESIAN_POINT('',(3.5,0.,17.000000000006));
#990 = DIRECTION('',(0.,0.,1.));
#991 = DIRECTION('',(1.,0.,0.));
#992 = ADVANCED_FACE('',(#993),#999,.F.);
#993 = FACE_BOUND('',#994,.F.);
#994 = EDGE_LOOP('',(#995,#996,#997,#998));
#995 = ORIENTED_EDGE('',*,*,#863,.T.);
#996 = ORIENTED_EDGE('',*,*,#679,.T.);
#997 = ORIENTED_EDGE('',*,*,#981,.F.);
#998 = ORIENTED_EDGE('',*,*,#606,.F.);
#999 = PLANE('',#1000);
#1000 = AXIS2_PLACEMENT_3D('',#1001,#1002,#1003);
#1001 = CARTESIAN_POINT('',(12.45,0.,17.000000000006));
#1002 = DIRECTION('',(0.,1.,0.));
#1003 = DIRECTION('',(-1.,0.,0.));
#1004 = ADVANCED_FACE('',(#1005),#1023,.F.);
#1005 = FACE_BOUND('',#1006,.F.);
#1006 = EDGE_LOOP('',(#1007,#1008,#1016,#1022));
#1007 = ORIENTED_EDGE('',*,*,#653,.T.);
#1008 = ORIENTED_EDGE('',*,*,#1009,.T.);
#1009 = EDGE_CURVE('',#646,#1010,#1012,.T.);
#1010 = VERTEX_POINT('',#1011);
#1011 = CARTESIAN_POINT('',(12.45,19.5,14.000000000006));
#1012 = LINE('',#1013,#1014);
#1013 = CARTESIAN_POINT('',(-5.45,19.5,14.000000000006));
#1014 = VECTOR('',#1015,1.);
#1015 = DIRECTION('',(1.,0.,0.));
#1016 = ORIENTED_EDGE('',*,*,#1017,.F.);
#1017 = EDGE_CURVE('',#768,#1010,#1018,.T.);
#1018 = LINE('',#1019,#1020);
#1019 = CARTESIAN_POINT('',(12.45,19.5,17.000000000006));
#1020 = VECTOR('',#1021,1.);
#1021 = DIRECTION('',(0.,0.,-1.));
#1022 = ORIENTED_EDGE('',*,*,#767,.F.);
#1023 = PLANE('',#1024);
#1024 = AXIS2_PLACEMENT_3D('',#1025,#1026,#1027);
#1025 = CARTESIAN_POINT('',(-5.45,19.5,17.000000000006));
#1026 = DIRECTION('',(0.,-1.,0.));
#1027 = DIRECTION('',(1.,0.,0.));
#1028 = ADVANCED_FACE('',(#1029),#1040,.F.);
#1029 = FACE_BOUND('',#1030,.F.);
#1030 = EDGE_LOOP('',(#1031,#1032,#1038,#1039));
#1031 = ORIENTED_EDGE('',*,*,#695,.T.);
#1032 = ORIENTED_EDGE('',*,*,#1033,.T.);
#1033 = EDGE_CURVE('',#688,#1010,#1034,.T.);
#1034 = LINE('',#1035,#1036);
#1035 = CARTESIAN_POINT('',(12.45,17.5,14.000000000006));
#1036 = VECTOR('',#1037,1.);
#1037 = DIRECTION('',(0.,1.,0.));
#1038 = ORIENTED_EDGE('',*,*,#1009,.F.);
#1039 = ORIENTED_EDGE('',*,*,#645,.F.);
#1040 = PLANE('',#1041);
#1041 = AXIS2_PLACEMENT_3D('',#1042,#1043,#1044);
#1042 = CARTESIAN_POINT('',(3.5,12.250599401113,14.000000000006));
#1043 = DIRECTION('',(0.,0.,1.));
#1044 = DIRECTION('',(1.,0.,0.));
#1045 = ADVANCED_FACE('',(#1046),#1052,.T.);
#1046 = FACE_BOUND('',#1047,.T.);
#1047 = EDGE_LOOP('',(#1048,#1049,#1050,#1051));
#1048 = ORIENTED_EDGE('',*,*,#824,.T.);
#1049 = ORIENTED_EDGE('',*,*,#759,.T.);
#1050 = ORIENTED_EDGE('',*,*,#709,.F.);
#1051 = ORIENTED_EDGE('',*,*,#805,.F.);
#1052 = PLANE('',#1053);
#1053 = AXIS2_PLACEMENT_3D('',#1054,#1055,#1056);
#1054 = CARTESIAN_POINT('',(-6.55,17.5,22.45));
#1055 = DIRECTION('',(-1.,0.,0.));
#1056 = DIRECTION('',(-0.,-2.2E-16,-1.));
#1057 = ADVANCED_FACE('',(#1058),#1069,.T.);
#1058 = FACE_BOUND('',#1059,.T.);
#1059 = EDGE_LOOP('',(#1060,#1066,#1067,#1068));
#1060 = ORIENTED_EDGE('',*,*,#1061,.T.);
#1061 = EDGE_CURVE('',#879,#734,#1062,.T.);
#1062 = LINE('',#1063,#1064);
#1063 = CARTESIAN_POINT('',(13.55,17.5,22.45));
#1064 = VECTOR('',#1065,1.);
#1065 = DIRECTION('',(0.,1.,-2.2E-16));
#1066 = ORIENTED_EDGE('',*,*,#733,.T.);
#1067 = ORIENTED_EDGE('',*,*,#839,.F.);
#1068 = ORIENTED_EDGE('',*,*,#878,.F.);
#1069 = PLANE('',#1070);
#1070 = AXIS2_PLACEMENT_3D('',#1071,#1072,#1073);
#1071 = CARTESIAN_POINT('',(13.55,17.5,22.45));
#1072 = DIRECTION('',(0.,2.2E-16,1.));
#1073 = DIRECTION('',(-1.,0.,0.));
#1074 = ADVANCED_FACE('',(#1075),#1086,.T.);
#1075 = FACE_BOUND('',#1076,.T.);
#1076 = EDGE_LOOP('',(#1077,#1078,#1079,#1085));
#1077 = ORIENTED_EDGE('',*,*,#964,.T.);
#1078 = ORIENTED_EDGE('',*,*,#783,.T.);
#1079 = ORIENTED_EDGE('',*,*,#1080,.F.);
#1080 = EDGE_CURVE('',#934,#784,#1081,.T.);
#1081 = LINE('',#1082,#1083);
#1082 = CARTESIAN_POINT('',(13.55,17.5,20.55));
#1083 = VECTOR('',#1084,1.);
#1084 = DIRECTION('',(0.,1.,-2.2E-16));
#1085 = ORIENTED_EDGE('',*,*,#933,.F.);
#1086 = PLANE('',#1087);
#1087 = AXIS2_PLACEMENT_3D('',#1088,#1089,#1090);
#1088 = CARTESIAN_POINT('',(12.45,17.5,20.55));
#1089 = DIRECTION('',(0.,-2.2E-16,-1.));
#1090 = DIRECTION('',(1.,0.,0.));
#1091 = ADVANCED_FACE('',(#1092),#1103,.F.);
#1092 = FACE_BOUND('',#1093,.F.);
#1093 = EDGE_LOOP('',(#1094,#1095,#1096,#1097));
#1094 = ORIENTED_EDGE('',*,*,#1061,.T.);
#1095 = ORIENTED_EDGE('',*,*,#791,.T.);
#1096 = ORIENTED_EDGE('',*,*,#1080,.F.);
#1097 = ORIENTED_EDGE('',*,*,#1098,.F.);
#1098 = EDGE_CURVE('',#879,#934,#1099,.T.);
#1099 = LINE('',#1100,#1101);
#1100 = CARTESIAN_POINT('',(13.55,17.5,26.000000000006));
#1101 = VECTOR('',#1102,1.);
#1102 = DIRECTION('',(-0.,-0.,-1.));
#1103 = PLANE('',#1104);
#1104 = AXIS2_PLACEMENT_3D('',#1105,#1106,#1107);
#1105 = CARTESIAN_POINT('',(13.55,17.5,22.45));
#1106 = DIRECTION('',(-1.,0.,0.));
#1107 = DIRECTION('',(-0.,-2.2E-16,-1.));
#1108 = ADVANCED_FACE('',(#1109),#1115,.T.);
#1109 = FACE_BOUND('',#1110,.T.);
#1110 = EDGE_LOOP('',(#1111,#1112,#1113,#1114));
#1111 = ORIENTED_EDGE('',*,*,#856,.T.);
#1112 = ORIENTED_EDGE('',*,*,#1033,.T.);
#1113 = ORIENTED_EDGE('',*,*,#1017,.F.);
#1114 = ORIENTED_EDGE('',*,*,#957,.F.);
#1115 = PLANE('',#1116);
#1116 = AXIS2_PLACEMENT_3D('',#1117,#1118,#1119);
#1117 = CARTESIAN_POINT('',(12.45,17.5,17.000000000006));
#1118 = DIRECTION('',(1.,0.,0.));
#1119 = DIRECTION('',(0.,1.,0.));
#1120 = ADVANCED_FACE('',(#1121),#1127,.T.);
#1121 = FACE_BOUND('',#1122,.T.);
#1122 = EDGE_LOOP('',(#1123,#1124,#1125,#1126));
#1123 = ORIENTED_EDGE('',*,*,#1098,.F.);
#1124 = ORIENTED_EDGE('',*,*,#895,.T.);
#1125 = ORIENTED_EDGE('',*,*,#910,.T.);
#1126 = ORIENTED_EDGE('',*,*,#941,.F.);
#1127 = PLANE('',#1128);
#1128 = AXIS2_PLACEMENT_3D('',#1129,#1130,#1131);
#1129 = CARTESIAN_POINT('',(13.55,18.,22.45));
#1130 = DIRECTION('',(1.,0.,0.));
#1131 = DIRECTION('',(0.,-2.2E-16,-1.));
#1132 = ( GEOMETRIC_REPRESENTATION_CONTEXT(3) 
GLOBAL_UNCERTAINTY_ASSIGNED_CONTEXT((#1136)) 
GLOBAL_UNIT_ASSIGNED_CONTEXT((#1133,#1134,#1135)) REPRESENTATION_CONTEXT
('Context #1','3D Context with UNIT and UNCERTAINTY') );
#1133 = ( LENGTH_UNIT() NAMED_UNIT(*) SI_UNIT(.MILLI.,.METRE.) );
#1134 = ( NAMED_UNIT(*) PLANE_ANGLE_UNIT() SI_UNIT($,.RADIAN.) );
#1135 = ( NAMED_UNIT(*) SI_UNIT($,.STERADIAN.) SOLID_ANGLE_UNIT() );
#1136 = UNCERTAINTY_MEASURE_WITH_UNIT(LENGTH_MEASURE(1.E-05),#1133,
  'distance_accuracy_value','confusion accuracy');
#1137 = PRODUCT_RELATED_PRODUCT_CATEGORY('part',$,(#7));
ENDSEC;
END-ISO-10303-21;
