ISO-10303-21;
HEADER;
FILE_DESCRIPTION(('FreeCAD Model'),'2;1');
FILE_NAME('Open CASCADE Shape Model','2026-08-28T13:04:05',('FreeCAD'),(
    'FreeCAD'),'Open CASCADE STEP processor 7.8','FreeCAD','Unknown');
FILE_SCHEMA(('AUTOMOTIVE_DESIGN { 1 0 10303 214 1 1 1 1 }'));
ENDSEC;
DATA;
#1 = APPLICATION_PROTOCOL_DEFINITION('international standard',
  'automotive_design',2000,#2);
#2 = APPLICATION_CONTEXT(
  'core data for automotive mechanical design processes');
#3 = SHAPE_DEFINITION_REPRESENTATION(#4,#10);
#4 = PRODUCT_DEFINITION_SHAPE('','',#5);
#5 = PRODUCT_DEFINITION('design','',#6,#9);
#6 = PRODUCT_DEFINITION_FORMATION('','',#7);
#7 = PRODUCT('Open CASCADE STEP translator 7.8 54',
  'Open CASCADE STEP translator 7.8 54','',(#8));
#8 = PRODUCT_CONTEXT('',#2,'mechanical');
#9 = PRODUCT_DEFINITION_CONTEXT('part definition',#2,'design');
#10 = ADVANCED_BREP_SHAPE_REPRESENTATION('',(#11,#15),#1803);
#11 = AXIS2_PLACEMENT_3D('',#12,#13,#14);
#12 = CARTESIAN_POINT('',(0.,0.,0.));
#13 = DIRECTION('',(0.,0.,1.));
#14 = DIRECTION('',(1.,0.,-0.));
#15 = MANIFOLD_SOLID_BREP('',#16);
#16 = CLOSED_SHELL('',(#17,#66,#119,#144,#191,#215,#261,#285,#303,#320,
    #337,#452,#498,#629,#646,#665,#687,#704,#721,#733,#750,#781,#843,
    #868,#923,#954,#971,#996,#1021,#1052,#1076,#1101,#1118,#1149,#1166,
    #1190,#1243,#1260,#1291,#1315,#1339,#1351,#1375,#1399,#1430,#1454,
    #1478,#1495,#1541,#1550,#1559,#1576,#1593,#1610,#1635,#1647,#1664,
    #1681,#1698,#1710,#1735,#1760,#1785,#1794));
#17 = ADVANCED_FACE('',(#18),#61,.F.);
#18 = FACE_BOUND('',#19,.F.);
#19 = EDGE_LOOP('',(#20,#30,#38,#46,#54));
#20 = ORIENTED_EDGE('',*,*,#21,.F.);
#21 = EDGE_CURVE('',#22,#24,#26,.T.);
#22 = VERTEX_POINT('',#23);
#23 = CARTESIAN_POINT('',(20.,-12.,59.));
#24 = VERTEX_POINT('',#25);
#25 = CARTESIAN_POINT('',(20.,-12.,69.));
#26 = LINE('',#27,#28);
#27 = CARTESIAN_POINT('',(20.,-12.,59.));
#28 = VECTOR('',#29,1.);
#29 = DIRECTION('',(0.,0.,1.));
#30 = ORIENTED_EDGE('',*,*,#31,.F.);
#31 = EDGE_CURVE('',#32,#22,#34,.T.);
#32 = VERTEX_POINT('',#33);
#33 = CARTESIAN_POINT('',(20.,-18.,59.));
#34 = LINE('',#35,#36);
#35 = CARTESIAN_POINT('',(20.,-18.,59.));
#36 = VECTOR('',#37,1.);
#37 = DIRECTION('',(0.,1.,0.));
#38 = ORIENTED_EDGE('',*,*,#39,.T.);
#39 = EDGE_CURVE('',#32,#40,#42,.T.);
#40 = VERTEX_POINT('',#41);
#41 = CARTESIAN_POINT('',(20.,-18.,74.));
#42 = LINE('',#43,#44);
#43 = CARTESIAN_POINT('',(20.,-18.,59.));
#44 = VECTOR('',#45,1.);
#45 = DIRECTION('',(0.,0.,1.));
#46 = ORIENTED_EDGE('',*,*,#47,.T.);
#47 = EDGE_CURVE('',#40,#48,#50,.T.);
#48 = VERTEX_POINT('',#49);
#49 = CARTESIAN_POINT('',(20.,-17.,74.));
#50 = LINE('',#51,#52);
#51 = CARTESIAN_POINT('',(20.,-18.,74.));
#52 = VECTOR('',#53,1.);
#53 = DIRECTION('',(0.,1.,0.));
#54 = ORIENTED_EDGE('',*,*,#55,.F.);
#55 = EDGE_CURVE('',#24,#48,#56,.T.);
#56 = CIRCLE('',#57,5.);
#57 = AXIS2_PLACEMENT_3D('',#58,#59,#60);
#58 = CARTESIAN_POINT('',(20.,-17.,69.));
#59 = DIRECTION('',(1.,-0.,0.));
#60 = DIRECTION('',(0.,0.,-1.));
#61 = PLANE('',#62);
#62 = AXIS2_PLACEMENT_3D('',#63,#64,#65);
#63 = CARTESIAN_POINT('',(20.,-18.,59.));
#64 = DIRECTION('',(-1.,0.,0.));
#65 = DIRECTION('',(0.,1.,0.));
#66 = ADVANCED_FACE('',(#67,#92,#103),#114,.F.);
#67 = FACE_BOUND('',#68,.F.);
#68 = EDGE_LOOP('',(#69,#70,#78,#86));
#69 = ORIENTED_EDGE('',*,*,#21,.T.);
#70 = ORIENTED_EDGE('',*,*,#71,.T.);
#71 = EDGE_CURVE('',#24,#72,#74,.T.);
#72 = VERTEX_POINT('',#73);
#73 = CARTESIAN_POINT('',(-20.,-12.,69.));
#74 = LINE('',#75,#76);
#75 = CARTESIAN_POINT('',(20.,-12.,69.));
#76 = VECTOR('',#77,1.);
#77 = DIRECTION('',(-1.,0.,0.));
#78 = ORIENTED_EDGE('',*,*,#79,.F.);
#79 = EDGE_CURVE('',#80,#72,#82,.T.);
#80 = VERTEX_POINT('',#81);
#81 = CARTESIAN_POINT('',(-20.,-12.,59.));
#82 = LINE('',#83,#84);
#83 = CARTESIAN_POINT('',(-20.,-12.,59.));
#84 = VECTOR('',#85,1.);
#85 = DIRECTION('',(0.,0.,1.));
#86 = ORIENTED_EDGE('',*,*,#87,.F.);
#87 = EDGE_CURVE('',#22,#80,#88,.T.);
#88 = LINE('',#89,#90);
#89 = CARTESIAN_POINT('',(20.,-12.,59.));
#90 = VECTOR('',#91,1.);
#91 = DIRECTION('',(-1.,-0.,-0.));
#92 = FACE_BOUND('',#93,.F.);
#93 = EDGE_LOOP('',(#94));
#94 = ORIENTED_EDGE('',*,*,#95,.F.);
#95 = EDGE_CURVE('',#96,#96,#98,.T.);
#96 = VERTEX_POINT('',#97);
#97 = CARTESIAN_POINT('',(13.699999999999,-12.,66.5));
#98 = CIRCLE('',#99,1.2);
#99 = AXIS2_PLACEMENT_3D('',#100,#101,#102);
#100 = CARTESIAN_POINT('',(12.499999999999,-12.,66.5));
#101 = DIRECTION('',(0.,-1.,2.2E-16));
#102 = DIRECTION('',(1.,0.,0.));
#103 = FACE_BOUND('',#104,.F.);
#104 = EDGE_LOOP('',(#105));
#105 = ORIENTED_EDGE('',*,*,#106,.F.);
#106 = EDGE_CURVE('',#107,#107,#109,.T.);
#107 = VERTEX_POINT('',#108);
#108 = CARTESIAN_POINT('',(-11.3,-12.,66.5));
#109 = CIRCLE('',#110,1.2);
#110 = AXIS2_PLACEMENT_3D('',#111,#112,#113);
#111 = CARTESIAN_POINT('',(-12.5,-12.,66.5));
#112 = DIRECTION('',(0.,-1.,2.2E-16));
#113 = DIRECTION('',(1.,0.,0.));
#114 = PLANE('',#115);
#115 = AXIS2_PLACEMENT_3D('',#116,#117,#118);
#116 = CARTESIAN_POINT('',(20.,-12.,59.));
#117 = DIRECTION('',(0.,-1.,0.));
#118 = DIRECTION('',(-1.,0.,0.));
#119 = ADVANCED_FACE('',(#120),#139,.T.);
#120 = FACE_BOUND('',#121,.F.);
#121 = EDGE_LOOP('',(#122,#123,#131,#138));
#122 = ORIENTED_EDGE('',*,*,#55,.T.);
#123 = ORIENTED_EDGE('',*,*,#124,.T.);
#124 = EDGE_CURVE('',#48,#125,#127,.T.);
#125 = VERTEX_POINT('',#126);
#126 = CARTESIAN_POINT('',(-20.,-17.,74.));
#127 = LINE('',#128,#129);
#128 = CARTESIAN_POINT('',(20.,-17.,74.));
#129 = VECTOR('',#130,1.);
#130 = DIRECTION('',(-1.,0.,0.));
#131 = ORIENTED_EDGE('',*,*,#132,.F.);
#132 = EDGE_CURVE('',#72,#125,#133,.T.);
#133 = CIRCLE('',#134,5.);
#134 = AXIS2_PLACEMENT_3D('',#135,#136,#137);
#135 = CARTESIAN_POINT('',(-20.,-17.,69.));
#136 = DIRECTION('',(1.,-0.,0.));
#137 = DIRECTION('',(0.,0.,-1.));
#138 = ORIENTED_EDGE('',*,*,#71,.F.);
#139 = CYLINDRICAL_SURFACE('',#140,5.);
#140 = AXIS2_PLACEMENT_3D('',#141,#142,#143);
#141 = CARTESIAN_POINT('',(20.,-17.,69.));
#142 = DIRECTION('',(-1.,0.,0.));
#143 = DIRECTION('',(0.,1.,0.));
#144 = ADVANCED_FACE('',(#145),#186,.T.);
#145 = FACE_BOUND('',#146,.T.);
#146 = EDGE_LOOP('',(#147,#157,#163,#164,#172,#180));
#147 = ORIENTED_EDGE('',*,*,#148,.T.);
#148 = EDGE_CURVE('',#149,#151,#153,.T.);
#149 = VERTEX_POINT('',#150);
#150 = CARTESIAN_POINT('',(20.,0.999999999991,56.));
#151 = VERTEX_POINT('',#152);
#152 = CARTESIAN_POINT('',(20.,-12.,56.));
#153 = LINE('',#154,#155);
#154 = CARTESIAN_POINT('',(20.,18.,56.));
#155 = VECTOR('',#156,1.);
#156 = DIRECTION('',(0.,-1.,0.));
#157 = ORIENTED_EDGE('',*,*,#158,.F.);
#158 = EDGE_CURVE('',#22,#151,#159,.T.);
#159 = LINE('',#160,#161);
#160 = CARTESIAN_POINT('',(20.,-12.,59.));
#161 = VECTOR('',#162,1.);
#162 = DIRECTION('',(0.,0.,-1.));
#163 = ORIENTED_EDGE('',*,*,#31,.F.);
#164 = ORIENTED_EDGE('',*,*,#165,.F.);
#165 = EDGE_CURVE('',#166,#32,#168,.T.);
#166 = VERTEX_POINT('',#167);
#167 = CARTESIAN_POINT('',(20.,-18.,44.000000000087));
#168 = LINE('',#169,#170);
#169 = CARTESIAN_POINT('',(20.,-18.,56.));
#170 = VECTOR('',#171,1.);
#171 = DIRECTION('',(0.,0.,1.));
#172 = ORIENTED_EDGE('',*,*,#173,.T.);
#173 = EDGE_CURVE('',#166,#174,#176,.T.);
#174 = VERTEX_POINT('',#175);
#175 = CARTESIAN_POINT('',(20.,0.999999999991,44.));
#176 = LINE('',#177,#178);
#177 = CARTESIAN_POINT('',(20.,-18.,44.000000000087));
#178 = VECTOR('',#179,1.);
#179 = DIRECTION('',(0.,1.,0.));
#180 = ORIENTED_EDGE('',*,*,#181,.F.);
#181 = EDGE_CURVE('',#149,#174,#182,.T.);
#182 = LINE('',#183,#184);
#183 = CARTESIAN_POINT('',(20.,0.999999999991,47.));
#184 = VECTOR('',#185,1.);
#185 = DIRECTION('',(0.,0.,-1.));
#186 = PLANE('',#187);
#187 = AXIS2_PLACEMENT_3D('',#188,#189,#190);
#188 = CARTESIAN_POINT('',(20.,-9.073529411757,50.926470588252));
#189 = DIRECTION('',(1.,0.,0.));
#190 = DIRECTION('',(0.,0.,1.));
#191 = ADVANCED_FACE('',(#192),#210,.T.);
#192 = FACE_BOUND('',#193,.T.);
#193 = EDGE_LOOP('',(#194,#195,#196,#204));
#194 = ORIENTED_EDGE('',*,*,#47,.T.);
#195 = ORIENTED_EDGE('',*,*,#124,.T.);
#196 = ORIENTED_EDGE('',*,*,#197,.F.);
#197 = EDGE_CURVE('',#198,#125,#200,.T.);
#198 = VERTEX_POINT('',#199);
#199 = CARTESIAN_POINT('',(-20.,-18.,74.));
#200 = LINE('',#201,#202);
#201 = CARTESIAN_POINT('',(-20.,-18.,74.));
#202 = VECTOR('',#203,1.);
#203 = DIRECTION('',(0.,1.,0.));
#204 = ORIENTED_EDGE('',*,*,#205,.F.);
#205 = EDGE_CURVE('',#40,#198,#206,.T.);
#206 = LINE('',#207,#208);
#207 = CARTESIAN_POINT('',(20.,-18.,74.));
#208 = VECTOR('',#209,1.);
#209 = DIRECTION('',(-1.,0.,0.));
#210 = PLANE('',#211);
#211 = AXIS2_PLACEMENT_3D('',#212,#213,#214);
#212 = CARTESIAN_POINT('',(0.,-15.,74.));
#213 = DIRECTION('',(0.,0.,1.));
#214 = DIRECTION('',(1.,0.,0.));
#215 = ADVANCED_FACE('',(#216,#234,#245),#256,.T.);
#216 = FACE_BOUND('',#217,.T.);
#217 = EDGE_LOOP('',(#218,#219,#220,#228));
#218 = ORIENTED_EDGE('',*,*,#39,.T.);
#219 = ORIENTED_EDGE('',*,*,#205,.T.);
#220 = ORIENTED_EDGE('',*,*,#221,.F.);
#221 = EDGE_CURVE('',#222,#198,#224,.T.);
#222 = VERTEX_POINT('',#223);
#223 = CARTESIAN_POINT('',(-20.,-18.,59.));
#224 = LINE('',#225,#226);
#225 = CARTESIAN_POINT('',(-20.,-18.,59.));
#226 = VECTOR('',#227,1.);
#227 = DIRECTION('',(0.,0.,1.));
#228 = ORIENTED_EDGE('',*,*,#229,.F.);
#229 = EDGE_CURVE('',#32,#222,#230,.T.);
#230 = LINE('',#231,#232);
#231 = CARTESIAN_POINT('',(20.,-18.,59.));
#232 = VECTOR('',#233,1.);
#233 = DIRECTION('',(-1.,-0.,-0.));
#234 = FACE_BOUND('',#235,.T.);
#235 = EDGE_LOOP('',(#236));
#236 = ORIENTED_EDGE('',*,*,#237,.F.);
#237 = EDGE_CURVE('',#238,#238,#240,.T.);
#238 = VERTEX_POINT('',#239);
#239 = CARTESIAN_POINT('',(13.699999999999,-18.,66.5));
#240 = CIRCLE('',#241,1.2);
#241 = AXIS2_PLACEMENT_3D('',#242,#243,#244);
#242 = CARTESIAN_POINT('',(12.499999999999,-18.,66.5));
#243 = DIRECTION('',(0.,-1.,0.));
#244 = DIRECTION('',(1.,0.,0.));
#245 = FACE_BOUND('',#246,.T.);
#246 = EDGE_LOOP('',(#247));
#247 = ORIENTED_EDGE('',*,*,#248,.F.);
#248 = EDGE_CURVE('',#249,#249,#251,.T.);
#249 = VERTEX_POINT('',#250);
#250 = CARTESIAN_POINT('',(-11.3,-18.,66.5));
#251 = CIRCLE('',#252,1.2);
#252 = AXIS2_PLACEMENT_3D('',#253,#254,#255);
#253 = CARTESIAN_POINT('',(-12.5,-18.,66.5));
#254 = DIRECTION('',(0.,-1.,0.));
#255 = DIRECTION('',(1.,0.,0.));
#256 = PLANE('',#257);
#257 = AXIS2_PLACEMENT_3D('',#258,#259,#260);
#258 = CARTESIAN_POINT('',(20.,-18.,59.));
#259 = DIRECTION('',(0.,-1.,0.));
#260 = DIRECTION('',(-1.,0.,0.));
#261 = ADVANCED_FACE('',(#262),#280,.F.);
#262 = FACE_BOUND('',#263,.F.);
#263 = EDGE_LOOP('',(#264,#265,#273,#279));
#264 = ORIENTED_EDGE('',*,*,#87,.T.);
#265 = ORIENTED_EDGE('',*,*,#266,.T.);
#266 = EDGE_CURVE('',#80,#267,#269,.T.);
#267 = VERTEX_POINT('',#268);
#268 = CARTESIAN_POINT('',(-20.,-12.,56.));
#269 = LINE('',#270,#271);
#270 = CARTESIAN_POINT('',(-20.,-12.,59.));
#271 = VECTOR('',#272,1.);
#272 = DIRECTION('',(0.,0.,-1.));
#273 = ORIENTED_EDGE('',*,*,#274,.F.);
#274 = EDGE_CURVE('',#151,#267,#275,.T.);
#275 = LINE('',#276,#277);
#276 = CARTESIAN_POINT('',(20.,-12.,56.));
#277 = VECTOR('',#278,1.);
#278 = DIRECTION('',(-1.,-0.,-0.));
#279 = ORIENTED_EDGE('',*,*,#158,.F.);
#280 = PLANE('',#281);
#281 = AXIS2_PLACEMENT_3D('',#282,#283,#284);
#282 = CARTESIAN_POINT('',(20.,-12.,59.));
#283 = DIRECTION('',(0.,-1.,0.));
#284 = DIRECTION('',(0.,0.,-1.));
#285 = ADVANCED_FACE('',(#286),#298,.T.);
#286 = FACE_BOUND('',#287,.T.);
#287 = EDGE_LOOP('',(#288,#289,#295,#296,#297));
#288 = ORIENTED_EDGE('',*,*,#79,.F.);
#289 = ORIENTED_EDGE('',*,*,#290,.F.);
#290 = EDGE_CURVE('',#222,#80,#291,.T.);
#291 = LINE('',#292,#293);
#292 = CARTESIAN_POINT('',(-20.,-18.,59.));
#293 = VECTOR('',#294,1.);
#294 = DIRECTION('',(0.,1.,0.));
#295 = ORIENTED_EDGE('',*,*,#221,.T.);
#296 = ORIENTED_EDGE('',*,*,#197,.T.);
#297 = ORIENTED_EDGE('',*,*,#132,.F.);
#298 = PLANE('',#299);
#299 = AXIS2_PLACEMENT_3D('',#300,#301,#302);
#300 = CARTESIAN_POINT('',(-20.,-18.,59.));
#301 = DIRECTION('',(-1.,0.,0.));
#302 = DIRECTION('',(0.,1.,0.));
#303 = ADVANCED_FACE('',(#304),#315,.F.);
#304 = FACE_BOUND('',#305,.F.);
#305 = EDGE_LOOP('',(#306,#307,#313,#314));
#306 = ORIENTED_EDGE('',*,*,#237,.F.);
#307 = ORIENTED_EDGE('',*,*,#308,.T.);
#308 = EDGE_CURVE('',#238,#96,#309,.T.);
#309 = LINE('',#310,#311);
#310 = CARTESIAN_POINT('',(13.699999999999,-18.,66.5));
#311 = VECTOR('',#312,1.);
#312 = DIRECTION('',(0.,1.,-2.2E-16));
#313 = ORIENTED_EDGE('',*,*,#95,.T.);
#314 = ORIENTED_EDGE('',*,*,#308,.F.);
#315 = CYLINDRICAL_SURFACE('',#316,1.2);
#316 = AXIS2_PLACEMENT_3D('',#317,#318,#319);
#317 = CARTESIAN_POINT('',(12.499999999999,-18.,66.5));
#318 = DIRECTION('',(0.,-1.,2.2E-16));
#319 = DIRECTION('',(1.,0.,0.));
#320 = ADVANCED_FACE('',(#321),#332,.F.);
#321 = FACE_BOUND('',#322,.F.);
#322 = EDGE_LOOP('',(#323,#324,#330,#331));
#323 = ORIENTED_EDGE('',*,*,#248,.F.);
#324 = ORIENTED_EDGE('',*,*,#325,.T.);
#325 = EDGE_CURVE('',#249,#107,#326,.T.);
#326 = LINE('',#327,#328);
#327 = CARTESIAN_POINT('',(-11.3,-18.,66.5));
#328 = VECTOR('',#329,1.);
#329 = DIRECTION('',(0.,1.,-2.2E-16));
#330 = ORIENTED_EDGE('',*,*,#106,.T.);
#331 = ORIENTED_EDGE('',*,*,#325,.F.);
#332 = CYLINDRICAL_SURFACE('',#333,1.2);
#333 = AXIS2_PLACEMENT_3D('',#334,#335,#336);
#334 = CARTESIAN_POINT('',(-12.5,-18.,66.5));
#335 = DIRECTION('',(0.,-1.,2.2E-16));
#336 = DIRECTION('',(1.,0.,0.));
#337 = ADVANCED_FACE('',(#338),#447,.T.);
#338 = FACE_BOUND('',#339,.T.);
#339 = EDGE_LOOP('',(#340,#351,#359,#367,#375,#384,#392,#400,#408,#414,
    #415,#416,#425,#433,#441));
#340 = ORIENTED_EDGE('',*,*,#341,.T.);
#341 = EDGE_CURVE('',#342,#344,#346,.T.);
#342 = VERTEX_POINT('',#343);
#343 = CARTESIAN_POINT('',(19.,6.999999999991,56.));
#344 = VERTEX_POINT('',#345);
#345 = CARTESIAN_POINT('',(20.,7.999999999991,56.));
#346 = CIRCLE('',#347,1.);
#347 = AXIS2_PLACEMENT_3D('',#348,#349,#350);
#348 = CARTESIAN_POINT('',(19.,7.999999999991,56.));
#349 = DIRECTION('',(-0.,0.,1.));
#350 = DIRECTION('',(0.,-1.,0.));
#351 = ORIENTED_EDGE('',*,*,#352,.F.);
#352 = EDGE_CURVE('',#353,#344,#355,.T.);
#353 = VERTEX_POINT('',#354);
#354 = CARTESIAN_POINT('',(20.,18.,56.));
#355 = LINE('',#356,#357);
#356 = CARTESIAN_POINT('',(20.,18.,56.));
#357 = VECTOR('',#358,1.);
#358 = DIRECTION('',(0.,-1.,0.));
#359 = ORIENTED_EDGE('',*,*,#360,.F.);
#360 = EDGE_CURVE('',#361,#353,#363,.T.);
#361 = VERTEX_POINT('',#362);
#362 = CARTESIAN_POINT('',(12.45,18.,56.));
#363 = LINE('',#364,#365);
#364 = CARTESIAN_POINT('',(12.45,18.,56.));
#365 = VECTOR('',#366,1.);
#366 = DIRECTION('',(1.,0.,0.));
#367 = ORIENTED_EDGE('',*,*,#368,.F.);
#368 = EDGE_CURVE('',#369,#361,#371,.T.);
#369 = VERTEX_POINT('',#370);
#370 = CARTESIAN_POINT('',(12.45,-1.E-15,56.));
#371 = LINE('',#372,#373);
#372 = CARTESIAN_POINT('',(12.45,0.,56.));
#373 = VECTOR('',#374,1.);
#374 = DIRECTION('',(0.,1.,0.));
#375 = ORIENTED_EDGE('',*,*,#376,.F.);
#376 = EDGE_CURVE('',#377,#369,#379,.T.);
#377 = VERTEX_POINT('',#378);
#378 = CARTESIAN_POINT('',(-5.45,1.E-15,56.));
#379 = CIRCLE('',#380,8.95);
#380 = AXIS2_PLACEMENT_3D('',#381,#382,#383);
#381 = CARTESIAN_POINT('',(3.5,0.,56.));
#382 = DIRECTION('',(0.,0.,1.));
#383 = DIRECTION('',(1.,0.,0.));
#384 = ORIENTED_EDGE('',*,*,#385,.T.);
#385 = EDGE_CURVE('',#377,#386,#388,.T.);
#386 = VERTEX_POINT('',#387);
#387 = CARTESIAN_POINT('',(-5.45,18.,56.));
#388 = LINE('',#389,#390);
#389 = CARTESIAN_POINT('',(-5.45,0.,56.));
#390 = VECTOR('',#391,1.);
#391 = DIRECTION('',(0.,1.,0.));
#392 = ORIENTED_EDGE('',*,*,#393,.F.);
#393 = EDGE_CURVE('',#394,#386,#396,.T.);
#394 = VERTEX_POINT('',#395);
#395 = CARTESIAN_POINT('',(-13.,18.,56.));
#396 = LINE('',#397,#398);
#397 = CARTESIAN_POINT('',(-13.,18.,56.));
#398 = VECTOR('',#399,1.);
#399 = DIRECTION('',(1.,0.,0.));
#400 = ORIENTED_EDGE('',*,*,#401,.T.);
#401 = EDGE_CURVE('',#394,#402,#404,.T.);
#402 = VERTEX_POINT('',#403);
#403 = CARTESIAN_POINT('',(-20.,9.,56.));
#404 = LINE('',#405,#406);
#405 = CARTESIAN_POINT('',(-13.,18.,56.));
#406 = VECTOR('',#407,1.);
#407 = DIRECTION('',(-0.613940613515,-0.789352217376,0.));
#408 = ORIENTED_EDGE('',*,*,#409,.F.);
#409 = EDGE_CURVE('',#267,#402,#410,.T.);
#410 = LINE('',#411,#412);
#411 = CARTESIAN_POINT('',(-20.,0.,56.));
#412 = VECTOR('',#413,1.);
#413 = DIRECTION('',(0.,1.,0.));
#414 = ORIENTED_EDGE('',*,*,#274,.F.);
#415 = ORIENTED_EDGE('',*,*,#148,.F.);
#416 = ORIENTED_EDGE('',*,*,#417,.T.);
#417 = EDGE_CURVE('',#149,#418,#420,.T.);
#418 = VERTEX_POINT('',#419);
#419 = CARTESIAN_POINT('',(19.,1.999999999991,56.));
#420 = CIRCLE('',#421,1.);
#421 = AXIS2_PLACEMENT_3D('',#422,#423,#424);
#422 = CARTESIAN_POINT('',(19.,0.999999999991,56.));
#423 = DIRECTION('',(0.,-0.,1.));
#424 = DIRECTION('',(0.,1.,0.));
#425 = ORIENTED_EDGE('',*,*,#426,.F.);
#426 = EDGE_CURVE('',#427,#418,#429,.T.);
#427 = VERTEX_POINT('',#428);
#428 = CARTESIAN_POINT('',(17.999999999999,1.999999999991,56.));
#429 = LINE('',#430,#431);
#430 = CARTESIAN_POINT('',(11.688052094688,1.999999999991,56.));
#431 = VECTOR('',#432,1.);
#432 = DIRECTION('',(1.,0.,0.));
#433 = ORIENTED_EDGE('',*,*,#434,.F.);
#434 = EDGE_CURVE('',#435,#427,#437,.T.);
#435 = VERTEX_POINT('',#436);
#436 = CARTESIAN_POINT('',(17.999999999999,6.999999999991,56.));
#437 = LINE('',#438,#439);
#438 = CARTESIAN_POINT('',(17.999999999999,0.400790706786,56.));
#439 = VECTOR('',#440,1.);
#440 = DIRECTION('',(0.,-1.,0.));
#441 = ORIENTED_EDGE('',*,*,#442,.F.);
#442 = EDGE_CURVE('',#342,#435,#443,.T.);
#443 = LINE('',#444,#445);
#444 = CARTESIAN_POINT('',(9.688052094688,6.999999999991,56.));
#445 = VECTOR('',#446,1.);
#446 = DIRECTION('',(-1.,0.,0.));
#447 = PLANE('',#448);
#448 = AXIS2_PLACEMENT_3D('',#449,#450,#451);
#449 = CARTESIAN_POINT('',(1.376104189376,-1.19841858642,56.));
#450 = DIRECTION('',(0.,0.,1.));
#451 = DIRECTION('',(1.,0.,0.));
#452 = ADVANCED_FACE('',(#453,#471,#482),#493,.T.);
#453 = FACE_BOUND('',#454,.T.);
#454 = EDGE_LOOP('',(#455,#463,#469,#470));
#455 = ORIENTED_EDGE('',*,*,#456,.T.);
#456 = EDGE_CURVE('',#222,#457,#459,.T.);
#457 = VERTEX_POINT('',#458);
#458 = CARTESIAN_POINT('',(-20.,-18.,44.000000000087));
#459 = LINE('',#460,#461);
#460 = CARTESIAN_POINT('',(-20.,-18.,47.));
#461 = VECTOR('',#462,1.);
#462 = DIRECTION('',(0.,0.,-1.));
#463 = ORIENTED_EDGE('',*,*,#464,.F.);
#464 = EDGE_CURVE('',#166,#457,#465,.T.);
#465 = LINE('',#466,#467);
#466 = CARTESIAN_POINT('',(20.,-18.,44.000000000087));
#467 = VECTOR('',#468,1.);
#468 = DIRECTION('',(-1.,-0.,-0.));
#469 = ORIENTED_EDGE('',*,*,#165,.T.);
#470 = ORIENTED_EDGE('',*,*,#229,.T.);
#471 = FACE_BOUND('',#472,.T.);
#472 = EDGE_LOOP('',(#473));
#473 = ORIENTED_EDGE('',*,*,#474,.F.);
#474 = EDGE_CURVE('',#475,#475,#477,.T.);
#475 = VERTEX_POINT('',#476);
#476 = CARTESIAN_POINT('',(-11.3,-18.,51.5));
#477 = CIRCLE('',#478,1.2);
#478 = AXIS2_PLACEMENT_3D('',#479,#480,#481);
#479 = CARTESIAN_POINT('',(-12.5,-18.,51.5));
#480 = DIRECTION('',(0.,-1.,0.));
#481 = DIRECTION('',(1.,0.,0.));
#482 = FACE_BOUND('',#483,.T.);
#483 = EDGE_LOOP('',(#484));
#484 = ORIENTED_EDGE('',*,*,#485,.F.);
#485 = EDGE_CURVE('',#486,#486,#488,.T.);
#486 = VERTEX_POINT('',#487);
#487 = CARTESIAN_POINT('',(13.699999999999,-18.,51.5));
#488 = CIRCLE('',#489,1.2);
#489 = AXIS2_PLACEMENT_3D('',#490,#491,#492);
#490 = CARTESIAN_POINT('',(12.499999999999,-18.,51.5));
#491 = DIRECTION('',(0.,-1.,0.));
#492 = DIRECTION('',(1.,0.,0.));
#493 = PLANE('',#494);
#494 = AXIS2_PLACEMENT_3D('',#495,#496,#497);
#495 = CARTESIAN_POINT('',(0.,-18.,51.500000000044));
#496 = DIRECTION('',(-0.,-1.,-0.));
#497 = DIRECTION('',(0.,0.,-1.));
#498 = ADVANCED_FACE('',(#499),#624,.T.);
#499 = FACE_BOUND('',#500,.T.);
#500 = EDGE_LOOP('',(#501,#502,#510,#518,#526,#534,#542,#551,#559,#567,
    #575,#583,#592,#600,#608,#616,#623));
#501 = ORIENTED_EDGE('',*,*,#464,.T.);
#502 = ORIENTED_EDGE('',*,*,#503,.F.);
#503 = EDGE_CURVE('',#504,#457,#506,.T.);
#504 = VERTEX_POINT('',#505);
#505 = CARTESIAN_POINT('',(-20.,9.,44.));
#506 = LINE('',#507,#508);
#507 = CARTESIAN_POINT('',(-20.,9.,44.));
#508 = VECTOR('',#509,1.);
#509 = DIRECTION('',(0.,-1.,0.));
#510 = ORIENTED_EDGE('',*,*,#511,.F.);
#511 = EDGE_CURVE('',#512,#504,#514,.T.);
#512 = VERTEX_POINT('',#513);
#513 = CARTESIAN_POINT('',(-13.,18.,44.));
#514 = LINE('',#515,#516);
#515 = CARTESIAN_POINT('',(-13.,18.,44.));
#516 = VECTOR('',#517,1.);
#517 = DIRECTION('',(-0.613940613515,-0.789352217376,0.));
#518 = ORIENTED_EDGE('',*,*,#519,.T.);
#519 = EDGE_CURVE('',#512,#520,#522,.T.);
#520 = VERTEX_POINT('',#521);
#521 = CARTESIAN_POINT('',(-5.45,18.,44.));
#522 = LINE('',#523,#524);
#523 = CARTESIAN_POINT('',(-13.,18.,44.));
#524 = VECTOR('',#525,1.);
#525 = DIRECTION('',(1.,0.,0.));
#526 = ORIENTED_EDGE('',*,*,#527,.F.);
#527 = EDGE_CURVE('',#528,#520,#530,.T.);
#528 = VERTEX_POINT('',#529);
#529 = CARTESIAN_POINT('',(-5.45,0.,44.));
#530 = LINE('',#531,#532);
#531 = CARTESIAN_POINT('',(-5.45,0.,44.));
#532 = VECTOR('',#533,1.);
#533 = DIRECTION('',(0.,1.,0.));
#534 = ORIENTED_EDGE('',*,*,#535,.T.);
#535 = EDGE_CURVE('',#528,#536,#538,.T.);
#536 = VERTEX_POINT('',#537);
#537 = CARTESIAN_POINT('',(-3.5,-1.E-15,44.));
#538 = LINE('',#539,#540);
#539 = CARTESIAN_POINT('',(-5.45,0.,44.));
#540 = VECTOR('',#541,1.);
#541 = DIRECTION('',(1.,-4.4E-16,0.));
#542 = ORIENTED_EDGE('',*,*,#543,.F.);
#543 = EDGE_CURVE('',#544,#536,#546,.T.);
#544 = VERTEX_POINT('',#545);
#545 = CARTESIAN_POINT('',(10.5,0.,44.));
#546 = CIRCLE('',#547,7.);
#547 = AXIS2_PLACEMENT_3D('',#548,#549,#550);
#548 = CARTESIAN_POINT('',(3.5,0.,44.));
#549 = DIRECTION('',(0.,0.,-1.));
#550 = DIRECTION('',(1.,0.,0.));
#551 = ORIENTED_EDGE('',*,*,#552,.T.);
#552 = EDGE_CURVE('',#544,#553,#555,.T.);
#553 = VERTEX_POINT('',#554);
#554 = CARTESIAN_POINT('',(12.45,0.,44.));
#555 = LINE('',#556,#557);
#556 = CARTESIAN_POINT('',(10.5,0.,44.));
#557 = VECTOR('',#558,1.);
#558 = DIRECTION('',(1.,0.,0.));
#559 = ORIENTED_EDGE('',*,*,#560,.T.);
#560 = EDGE_CURVE('',#553,#561,#563,.T.);
#561 = VERTEX_POINT('',#562);
#562 = CARTESIAN_POINT('',(12.45,18.,44.));
#563 = LINE('',#564,#565);
#564 = CARTESIAN_POINT('',(12.45,0.,44.));
#565 = VECTOR('',#566,1.);
#566 = DIRECTION('',(0.,1.,0.));
#567 = ORIENTED_EDGE('',*,*,#568,.T.);
#568 = EDGE_CURVE('',#561,#569,#571,.T.);
#569 = VERTEX_POINT('',#570);
#570 = CARTESIAN_POINT('',(20.,18.,44.));
#571 = LINE('',#572,#573);
#572 = CARTESIAN_POINT('',(12.45,18.,44.));
#573 = VECTOR('',#574,1.);
#574 = DIRECTION('',(1.,0.,0.));
#575 = ORIENTED_EDGE('',*,*,#576,.T.);
#576 = EDGE_CURVE('',#569,#577,#579,.T.);
#577 = VERTEX_POINT('',#578);
#578 = CARTESIAN_POINT('',(20.,7.999999999991,44.));
#579 = LINE('',#580,#581);
#580 = CARTESIAN_POINT('',(20.,18.,44.));
#581 = VECTOR('',#582,1.);
#582 = DIRECTION('',(0.,-1.,0.));
#583 = ORIENTED_EDGE('',*,*,#584,.F.);
#584 = EDGE_CURVE('',#585,#577,#587,.T.);
#585 = VERTEX_POINT('',#586);
#586 = CARTESIAN_POINT('',(19.,6.999999999991,44.));
#587 = CIRCLE('',#588,1.);
#588 = AXIS2_PLACEMENT_3D('',#589,#590,#591);
#589 = CARTESIAN_POINT('',(19.,7.999999999991,44.));
#590 = DIRECTION('',(-0.,0.,1.));
#591 = DIRECTION('',(0.,-1.,0.));
#592 = ORIENTED_EDGE('',*,*,#593,.F.);
#593 = EDGE_CURVE('',#594,#585,#596,.T.);
#594 = VERTEX_POINT('',#595);
#595 = CARTESIAN_POINT('',(17.999999999999,6.999999999991,44.));
#596 = LINE('',#597,#598);
#597 = CARTESIAN_POINT('',(17.999999999999,6.999999999991,44.));
#598 = VECTOR('',#599,1.);
#599 = DIRECTION('',(1.,0.,0.));
#600 = ORIENTED_EDGE('',*,*,#601,.F.);
#601 = EDGE_CURVE('',#602,#594,#604,.T.);
#602 = VERTEX_POINT('',#603);
#603 = CARTESIAN_POINT('',(17.999999999999,1.999999999991,44.));
#604 = LINE('',#605,#606);
#605 = CARTESIAN_POINT('',(17.999999999999,1.999999999991,44.));
#606 = VECTOR('',#607,1.);
#607 = DIRECTION('',(0.,1.,0.));
#608 = ORIENTED_EDGE('',*,*,#609,.F.);
#609 = EDGE_CURVE('',#610,#602,#612,.T.);
#610 = VERTEX_POINT('',#611);
#611 = CARTESIAN_POINT('',(19.,1.999999999991,44.));
#612 = LINE('',#613,#614);
#613 = CARTESIAN_POINT('',(19.,1.999999999991,44.));
#614 = VECTOR('',#615,1.);
#615 = DIRECTION('',(-1.,0.,0.));
#616 = ORIENTED_EDGE('',*,*,#617,.F.);
#617 = EDGE_CURVE('',#174,#610,#618,.T.);
#618 = CIRCLE('',#619,1.);
#619 = AXIS2_PLACEMENT_3D('',#620,#621,#622);
#620 = CARTESIAN_POINT('',(19.,0.999999999991,44.));
#621 = DIRECTION('',(0.,-0.,1.));
#622 = DIRECTION('',(0.,1.,0.));
#623 = ORIENTED_EDGE('',*,*,#173,.F.);
#624 = PLANE('',#625);
#625 = AXIS2_PLACEMENT_3D('',#626,#627,#628);
#626 = CARTESIAN_POINT('',(1.580370362659,-0.840641882864,
    44.000000000023));
#627 = DIRECTION('',(-4.165E-14,-2.15428E-12,-1.));
#628 = DIRECTION('',(0.,-1.,2.15428E-12));
#629 = ADVANCED_FACE('',(#630),#641,.T.);
#630 = FACE_BOUND('',#631,.F.);
#631 = EDGE_LOOP('',(#632,#633,#634,#640));
#632 = ORIENTED_EDGE('',*,*,#181,.F.);
#633 = ORIENTED_EDGE('',*,*,#417,.T.);
#634 = ORIENTED_EDGE('',*,*,#635,.T.);
#635 = EDGE_CURVE('',#418,#610,#636,.T.);
#636 = LINE('',#637,#638);
#637 = CARTESIAN_POINT('',(19.,1.999999999991,56.));
#638 = VECTOR('',#639,1.);
#639 = DIRECTION('',(0.,0.,-1.));
#640 = ORIENTED_EDGE('',*,*,#617,.F.);
#641 = CYLINDRICAL_SURFACE('',#642,1.);
#642 = AXIS2_PLACEMENT_3D('',#643,#644,#645);
#643 = CARTESIAN_POINT('',(19.,0.999999999991,56.));
#644 = DIRECTION('',(0.,0.,-1.));
#645 = DIRECTION('',(1.,0.,0.));
#646 = ADVANCED_FACE('',(#647),#660,.T.);
#647 = FACE_BOUND('',#648,.T.);
#648 = EDGE_LOOP('',(#649,#650,#651,#652,#658,#659));
#649 = ORIENTED_EDGE('',*,*,#290,.T.);
#650 = ORIENTED_EDGE('',*,*,#266,.T.);
#651 = ORIENTED_EDGE('',*,*,#409,.T.);
#652 = ORIENTED_EDGE('',*,*,#653,.F.);
#653 = EDGE_CURVE('',#504,#402,#654,.T.);
#654 = LINE('',#655,#656);
#655 = CARTESIAN_POINT('',(-20.,9.,47.));
#656 = VECTOR('',#657,1.);
#657 = DIRECTION('',(0.,0.,1.));
#658 = ORIENTED_EDGE('',*,*,#503,.T.);
#659 = ORIENTED_EDGE('',*,*,#456,.F.);
#660 = PLANE('',#661);
#661 = AXIS2_PLACEMENT_3D('',#662,#663,#664);
#662 = CARTESIAN_POINT('',(-20.,-5.249999999987,50.750000000013));
#663 = DIRECTION('',(-1.,-0.,-0.));
#664 = DIRECTION('',(0.,0.,-1.));
#665 = ADVANCED_FACE('',(#666),#682,.T.);
#666 = FACE_BOUND('',#667,.T.);
#667 = EDGE_LOOP('',(#668,#669,#675,#676));
#668 = ORIENTED_EDGE('',*,*,#584,.T.);
#669 = ORIENTED_EDGE('',*,*,#670,.T.);
#670 = EDGE_CURVE('',#577,#344,#671,.T.);
#671 = LINE('',#672,#673);
#672 = CARTESIAN_POINT('',(20.,7.999999999991,47.));
#673 = VECTOR('',#674,1.);
#674 = DIRECTION('',(0.,0.,1.));
#675 = ORIENTED_EDGE('',*,*,#341,.F.);
#676 = ORIENTED_EDGE('',*,*,#677,.T.);
#677 = EDGE_CURVE('',#342,#585,#678,.T.);
#678 = LINE('',#679,#680);
#679 = CARTESIAN_POINT('',(19.,6.999999999991,47.));
#680 = VECTOR('',#681,1.);
#681 = DIRECTION('',(0.,0.,-1.));
#682 = CYLINDRICAL_SURFACE('',#683,1.);
#683 = AXIS2_PLACEMENT_3D('',#684,#685,#686);
#684 = CARTESIAN_POINT('',(19.,7.999999999991,47.));
#685 = DIRECTION('',(0.,0.,1.));
#686 = DIRECTION('',(0.,-1.,0.));
#687 = ADVANCED_FACE('',(#688),#699,.T.);
#688 = FACE_BOUND('',#689,.T.);
#689 = EDGE_LOOP('',(#690,#691,#697,#698));
#690 = ORIENTED_EDGE('',*,*,#442,.T.);
#691 = ORIENTED_EDGE('',*,*,#692,.F.);
#692 = EDGE_CURVE('',#594,#435,#693,.T.);
#693 = LINE('',#694,#695);
#694 = CARTESIAN_POINT('',(17.999999999999,6.999999999991,47.));
#695 = VECTOR('',#696,1.);
#696 = DIRECTION('',(0.,0.,1.));
#697 = ORIENTED_EDGE('',*,*,#593,.T.);
#698 = ORIENTED_EDGE('',*,*,#677,.F.);
#699 = PLANE('',#700);
#700 = AXIS2_PLACEMENT_3D('',#701,#702,#703);
#701 = CARTESIAN_POINT('',(18.5,6.999999999991,50.));
#702 = DIRECTION('',(-0.,-1.,-0.));
#703 = DIRECTION('',(0.,0.,-1.));
#704 = ADVANCED_FACE('',(#705),#716,.T.);
#705 = FACE_BOUND('',#706,.T.);
#706 = EDGE_LOOP('',(#707,#708,#709,#715));
#707 = ORIENTED_EDGE('',*,*,#692,.T.);
#708 = ORIENTED_EDGE('',*,*,#434,.T.);
#709 = ORIENTED_EDGE('',*,*,#710,.T.);
#710 = EDGE_CURVE('',#427,#602,#711,.T.);
#711 = LINE('',#712,#713);
#712 = CARTESIAN_POINT('',(17.999999999999,1.999999999991,47.));
#713 = VECTOR('',#714,1.);
#714 = DIRECTION('',(0.,0.,-1.));
#715 = ORIENTED_EDGE('',*,*,#601,.T.);
#716 = PLANE('',#717);
#717 = AXIS2_PLACEMENT_3D('',#718,#719,#720);
#718 = CARTESIAN_POINT('',(17.999999999999,4.499999999991,50.));
#719 = DIRECTION('',(1.,0.,0.));
#720 = DIRECTION('',(0.,0.,1.));
#721 = ADVANCED_FACE('',(#722),#728,.T.);
#722 = FACE_BOUND('',#723,.T.);
#723 = EDGE_LOOP('',(#724,#725,#726,#727));
#724 = ORIENTED_EDGE('',*,*,#635,.T.);
#725 = ORIENTED_EDGE('',*,*,#609,.T.);
#726 = ORIENTED_EDGE('',*,*,#710,.F.);
#727 = ORIENTED_EDGE('',*,*,#426,.T.);
#728 = PLANE('',#729);
#729 = AXIS2_PLACEMENT_3D('',#730,#731,#732);
#730 = CARTESIAN_POINT('',(18.5,1.999999999991,50.));
#731 = DIRECTION('',(-8.7E-16,1.,0.));
#732 = DIRECTION('',(1.,8.7E-16,0.));
#733 = ADVANCED_FACE('',(#734),#745,.T.);
#734 = FACE_BOUND('',#735,.T.);
#735 = EDGE_LOOP('',(#736,#742,#743,#744));
#736 = ORIENTED_EDGE('',*,*,#737,.F.);
#737 = EDGE_CURVE('',#512,#394,#738,.T.);
#738 = LINE('',#739,#740);
#739 = CARTESIAN_POINT('',(-13.,18.,47.));
#740 = VECTOR('',#741,1.);
#741 = DIRECTION('',(0.,0.,1.));
#742 = ORIENTED_EDGE('',*,*,#511,.T.);
#743 = ORIENTED_EDGE('',*,*,#653,.T.);
#744 = ORIENTED_EDGE('',*,*,#401,.F.);
#745 = PLANE('',#746);
#746 = AXIS2_PLACEMENT_3D('',#747,#748,#749);
#747 = CARTESIAN_POINT('',(-16.5,13.5,50.));
#748 = DIRECTION('',(-0.789352217376,0.613940613515,0.));
#749 = DIRECTION('',(-0.613940613515,-0.789352217376,0.));
#750 = ADVANCED_FACE('',(#751),#776,.F.);
#751 = FACE_BOUND('',#752,.F.);
#752 = EDGE_LOOP('',(#753,#761,#769,#775));
#753 = ORIENTED_EDGE('',*,*,#754,.T.);
#754 = EDGE_CURVE('',#394,#755,#757,.T.);
#755 = VERTEX_POINT('',#756);
#756 = CARTESIAN_POINT('',(-13.,20.,56.));
#757 = LINE('',#758,#759);
#758 = CARTESIAN_POINT('',(-13.,18.,56.));
#759 = VECTOR('',#760,1.);
#760 = DIRECTION('',(0.,1.,-2.2E-16));
#761 = ORIENTED_EDGE('',*,*,#762,.T.);
#762 = EDGE_CURVE('',#755,#763,#765,.T.);
#763 = VERTEX_POINT('',#764);
#764 = CARTESIAN_POINT('',(-5.45,20.,56.));
#765 = LINE('',#766,#767);
#766 = CARTESIAN_POINT('',(-13.,20.,56.));
#767 = VECTOR('',#768,1.);
#768 = DIRECTION('',(1.,0.,0.));
#769 = ORIENTED_EDGE('',*,*,#770,.F.);
#770 = EDGE_CURVE('',#386,#763,#771,.T.);
#771 = LINE('',#772,#773);
#772 = CARTESIAN_POINT('',(-5.45,18.,56.));
#773 = VECTOR('',#774,1.);
#774 = DIRECTION('',(0.,1.,-2.2E-16));
#775 = ORIENTED_EDGE('',*,*,#393,.F.);
#776 = PLANE('',#777);
#777 = AXIS2_PLACEMENT_3D('',#778,#779,#780);
#778 = CARTESIAN_POINT('',(-13.,18.,56.));
#779 = DIRECTION('',(0.,-2.2E-16,-1.));
#780 = DIRECTION('',(1.,0.,0.));
#781 = ADVANCED_FACE('',(#782),#838,.T.);
#782 = FACE_BOUND('',#783,.T.);
#783 = EDGE_LOOP('',(#784,#792,#800,#808,#816,#822,#823,#831,#837));
#784 = ORIENTED_EDGE('',*,*,#785,.T.);
#785 = EDGE_CURVE('',#520,#786,#788,.T.);
#786 = VERTEX_POINT('',#787);
#787 = CARTESIAN_POINT('',(-5.45,18.,50.5));
#788 = LINE('',#789,#790);
#789 = CARTESIAN_POINT('',(-5.45,18.,47.));
#790 = VECTOR('',#791,1.);
#791 = DIRECTION('',(0.,0.,1.));
#792 = ORIENTED_EDGE('',*,*,#793,.T.);
#793 = EDGE_CURVE('',#786,#794,#796,.T.);
#794 = VERTEX_POINT('',#795);
#795 = CARTESIAN_POINT('',(-5.45,8.,50.5));
#796 = LINE('',#797,#798);
#797 = CARTESIAN_POINT('',(-5.45,9.,50.5));
#798 = VECTOR('',#799,1.);
#799 = DIRECTION('',(0.,-1.,2.2E-16));
#800 = ORIENTED_EDGE('',*,*,#801,.F.);
#801 = EDGE_CURVE('',#802,#794,#804,.T.);
#802 = VERTEX_POINT('',#803);
#803 = CARTESIAN_POINT('',(-5.45,8.,52.5));
#804 = LINE('',#805,#806);
#805 = CARTESIAN_POINT('',(-5.45,8.,49.25));
#806 = VECTOR('',#807,1.);
#807 = DIRECTION('',(0.,0.,-1.));
#808 = ORIENTED_EDGE('',*,*,#809,.T.);
#809 = EDGE_CURVE('',#802,#810,#812,.T.);
#810 = VERTEX_POINT('',#811);
#811 = CARTESIAN_POINT('',(-5.45,18.,52.5));
#812 = LINE('',#813,#814);
#813 = CARTESIAN_POINT('',(-5.45,9.,52.5));
#814 = VECTOR('',#815,1.);
#815 = DIRECTION('',(0.,1.,-2.2E-16));
#816 = ORIENTED_EDGE('',*,*,#817,.T.);
#817 = EDGE_CURVE('',#810,#386,#818,.T.);
#818 = LINE('',#819,#820);
#819 = CARTESIAN_POINT('',(-5.45,18.,47.));
#820 = VECTOR('',#821,1.);
#821 = DIRECTION('',(0.,0.,1.));
#822 = ORIENTED_EDGE('',*,*,#385,.F.);
#823 = ORIENTED_EDGE('',*,*,#824,.F.);
#824 = EDGE_CURVE('',#825,#377,#827,.T.);
#825 = VERTEX_POINT('',#826);
#826 = CARTESIAN_POINT('',(-5.45,1.E-15,48.));
#827 = LINE('',#828,#829);
#828 = CARTESIAN_POINT('',(-5.45,5.5E-16,47.));
#829 = VECTOR('',#830,1.);
#830 = DIRECTION('',(0.,0.,1.));
#831 = ORIENTED_EDGE('',*,*,#832,.F.);
#832 = EDGE_CURVE('',#528,#825,#833,.T.);
#833 = LINE('',#834,#835);
#834 = CARTESIAN_POINT('',(-5.45,5.5E-16,47.));
#835 = VECTOR('',#836,1.);
#836 = DIRECTION('',(0.,0.,1.));
#837 = ORIENTED_EDGE('',*,*,#527,.T.);
#838 = PLANE('',#839);
#839 = AXIS2_PLACEMENT_3D('',#840,#841,#842);
#840 = CARTESIAN_POINT('',(-5.45,9.75,50.375));
#841 = DIRECTION('',(1.,0.,0.));
#842 = DIRECTION('',(0.,0.,1.));
#843 = ADVANCED_FACE('',(#844),#863,.F.);
#844 = FACE_BOUND('',#845,.T.);
#845 = EDGE_LOOP('',(#846,#855,#856,#857));
#846 = ORIENTED_EDGE('',*,*,#847,.F.);
#847 = EDGE_CURVE('',#825,#848,#850,.T.);
#848 = VERTEX_POINT('',#849);
#849 = CARTESIAN_POINT('',(12.45,-1.E-15,48.));
#850 = CIRCLE('',#851,8.95);
#851 = AXIS2_PLACEMENT_3D('',#852,#853,#854);
#852 = CARTESIAN_POINT('',(3.5,0.,48.));
#853 = DIRECTION('',(0.,0.,1.));
#854 = DIRECTION('',(1.,0.,0.));
#855 = ORIENTED_EDGE('',*,*,#824,.T.);
#856 = ORIENTED_EDGE('',*,*,#376,.T.);
#857 = ORIENTED_EDGE('',*,*,#858,.F.);
#858 = EDGE_CURVE('',#848,#369,#859,.T.);
#859 = LINE('',#860,#861);
#860 = CARTESIAN_POINT('',(12.45,-1.1E-15,47.));
#861 = VECTOR('',#862,1.);
#862 = DIRECTION('',(0.,0.,1.));
#863 = CYLINDRICAL_SURFACE('',#864,8.95);
#864 = AXIS2_PLACEMENT_3D('',#865,#866,#867);
#865 = CARTESIAN_POINT('',(3.5,0.,47.));
#866 = DIRECTION('',(-0.,-0.,-1.));
#867 = DIRECTION('',(1.,0.,0.));
#868 = ADVANCED_FACE('',(#869),#918,.T.);
#869 = FACE_BOUND('',#870,.T.);
#870 = EDGE_LOOP('',(#871,#879,#880,#886,#887,#888,#896,#904,#912));
#871 = ORIENTED_EDGE('',*,*,#872,.T.);
#872 = EDGE_CURVE('',#873,#561,#875,.T.);
#873 = VERTEX_POINT('',#874);
#874 = CARTESIAN_POINT('',(12.45,18.,50.5));
#875 = LINE('',#876,#877);
#876 = CARTESIAN_POINT('',(12.45,18.,47.));
#877 = VECTOR('',#878,1.);
#878 = DIRECTION('',(0.,0.,-1.));
#879 = ORIENTED_EDGE('',*,*,#560,.F.);
#880 = ORIENTED_EDGE('',*,*,#881,.F.);
#881 = EDGE_CURVE('',#848,#553,#882,.T.);
#882 = LINE('',#883,#884);
#883 = CARTESIAN_POINT('',(12.45,0.,47.));
#884 = VECTOR('',#885,1.);
#885 = DIRECTION('',(0.,0.,-1.));
#886 = ORIENTED_EDGE('',*,*,#858,.T.);
#887 = ORIENTED_EDGE('',*,*,#368,.T.);
#888 = ORIENTED_EDGE('',*,*,#889,.F.);
#889 = EDGE_CURVE('',#890,#361,#892,.T.);
#890 = VERTEX_POINT('',#891);
#891 = CARTESIAN_POINT('',(12.45,18.,52.5));
#892 = LINE('',#893,#894);
#893 = CARTESIAN_POINT('',(12.45,18.,47.));
#894 = VECTOR('',#895,1.);
#895 = DIRECTION('',(0.,0.,1.));
#896 = ORIENTED_EDGE('',*,*,#897,.F.);
#897 = EDGE_CURVE('',#898,#890,#900,.T.);
#898 = VERTEX_POINT('',#899);
#899 = CARTESIAN_POINT('',(12.45,8.,52.5));
#900 = LINE('',#901,#902);
#901 = CARTESIAN_POINT('',(12.45,9.,52.5));
#902 = VECTOR('',#903,1.);
#903 = DIRECTION('',(0.,1.,-2.2E-16));
#904 = ORIENTED_EDGE('',*,*,#905,.T.);
#905 = EDGE_CURVE('',#898,#906,#908,.T.);
#906 = VERTEX_POINT('',#907);
#907 = CARTESIAN_POINT('',(12.45,8.,50.5));
#908 = LINE('',#909,#910);
#909 = CARTESIAN_POINT('',(12.45,8.,49.25));
#910 = VECTOR('',#911,1.);
#911 = DIRECTION('',(0.,0.,-1.));
#912 = ORIENTED_EDGE('',*,*,#913,.F.);
#913 = EDGE_CURVE('',#873,#906,#914,.T.);
#914 = LINE('',#915,#916);
#915 = CARTESIAN_POINT('',(12.45,9.,50.5));
#916 = VECTOR('',#917,1.);
#917 = DIRECTION('',(0.,-1.,2.2E-16));
#918 = PLANE('',#919);
#919 = AXIS2_PLACEMENT_3D('',#920,#921,#922);
#920 = CARTESIAN_POINT('',(12.45,9.75,50.375));
#921 = DIRECTION('',(-1.,-0.,-0.));
#922 = DIRECTION('',(0.,0.,-1.));
#923 = ADVANCED_FACE('',(#924),#949,.F.);
#924 = FACE_BOUND('',#925,.F.);
#925 = EDGE_LOOP('',(#926,#934,#942,#948));
#926 = ORIENTED_EDGE('',*,*,#927,.T.);
#927 = EDGE_CURVE('',#361,#928,#930,.T.);
#928 = VERTEX_POINT('',#929);
#929 = CARTESIAN_POINT('',(12.45,20.,56.));
#930 = LINE('',#931,#932);
#931 = CARTESIAN_POINT('',(12.45,18.,56.));
#932 = VECTOR('',#933,1.);
#933 = DIRECTION('',(0.,1.,-2.2E-16));
#934 = ORIENTED_EDGE('',*,*,#935,.T.);
#935 = EDGE_CURVE('',#928,#936,#938,.T.);
#936 = VERTEX_POINT('',#937);
#937 = CARTESIAN_POINT('',(20.,20.,56.));
#938 = LINE('',#939,#940);
#939 = CARTESIAN_POINT('',(12.45,20.,56.));
#940 = VECTOR('',#941,1.);
#941 = DIRECTION('',(1.,0.,0.));
#942 = ORIENTED_EDGE('',*,*,#943,.F.);
#943 = EDGE_CURVE('',#353,#936,#944,.T.);
#944 = LINE('',#945,#946);
#945 = CARTESIAN_POINT('',(20.,18.,56.));
#946 = VECTOR('',#947,1.);
#947 = DIRECTION('',(0.,1.,-2.2E-16));
#948 = ORIENTED_EDGE('',*,*,#360,.F.);
#949 = PLANE('',#950);
#950 = AXIS2_PLACEMENT_3D('',#951,#952,#953);
#951 = CARTESIAN_POINT('',(12.45,18.,56.));
#952 = DIRECTION('',(0.,-2.2E-16,-1.));
#953 = DIRECTION('',(1.,0.,0.));
#954 = ADVANCED_FACE('',(#955),#966,.T.);
#955 = FACE_BOUND('',#956,.T.);
#956 = EDGE_LOOP('',(#957,#958,#959,#965));
#957 = ORIENTED_EDGE('',*,*,#670,.F.);
#958 = ORIENTED_EDGE('',*,*,#576,.F.);
#959 = ORIENTED_EDGE('',*,*,#960,.F.);
#960 = EDGE_CURVE('',#353,#569,#961,.T.);
#961 = LINE('',#962,#963);
#962 = CARTESIAN_POINT('',(20.,18.,47.));
#963 = VECTOR('',#964,1.);
#964 = DIRECTION('',(0.,0.,-1.));
#965 = ORIENTED_EDGE('',*,*,#352,.T.);
#966 = PLANE('',#967);
#967 = AXIS2_PLACEMENT_3D('',#968,#969,#970);
#968 = CARTESIAN_POINT('',(20.,12.999999999996,50.));
#969 = DIRECTION('',(1.,0.,0.));
#970 = DIRECTION('',(0.,0.,1.));
#971 = ADVANCED_FACE('',(#972),#991,.F.);
#972 = FACE_BOUND('',#973,.F.);
#973 = EDGE_LOOP('',(#974,#982,#989,#990));
#974 = ORIENTED_EDGE('',*,*,#975,.T.);
#975 = EDGE_CURVE('',#475,#976,#978,.T.);
#976 = VERTEX_POINT('',#977);
#977 = CARTESIAN_POINT('',(-11.3,-6.,51.5));
#978 = LINE('',#979,#980);
#979 = CARTESIAN_POINT('',(-11.3,-18.,51.5));
#980 = VECTOR('',#981,1.);
#981 = DIRECTION('',(0.,1.,-2.2E-16));
#982 = ORIENTED_EDGE('',*,*,#983,.T.);
#983 = EDGE_CURVE('',#976,#976,#984,.T.);
#984 = CIRCLE('',#985,1.2);
#985 = AXIS2_PLACEMENT_3D('',#986,#987,#988);
#986 = CARTESIAN_POINT('',(-12.5,-6.,51.5));
#987 = DIRECTION('',(0.,-1.,0.));
#988 = DIRECTION('',(1.,0.,0.));
#989 = ORIENTED_EDGE('',*,*,#975,.F.);
#990 = ORIENTED_EDGE('',*,*,#474,.F.);
#991 = CYLINDRICAL_SURFACE('',#992,1.2);
#992 = AXIS2_PLACEMENT_3D('',#993,#994,#995);
#993 = CARTESIAN_POINT('',(-12.5,-18.,51.5));
#994 = DIRECTION('',(0.,-1.,2.2E-16));
#995 = DIRECTION('',(1.,0.,0.));
#996 = ADVANCED_FACE('',(#997),#1016,.F.);
#997 = FACE_BOUND('',#998,.F.);
#998 = EDGE_LOOP('',(#999,#1007,#1014,#1015));
#999 = ORIENTED_EDGE('',*,*,#1000,.T.);
#1000 = EDGE_CURVE('',#486,#1001,#1003,.T.);
#1001 = VERTEX_POINT('',#1002);
#1002 = CARTESIAN_POINT('',(13.699999999999,-6.,51.5));
#1003 = LINE('',#1004,#1005);
#1004 = CARTESIAN_POINT('',(13.699999999999,-18.,51.5));
#1005 = VECTOR('',#1006,1.);
#1006 = DIRECTION('',(0.,1.,-2.2E-16));
#1007 = ORIENTED_EDGE('',*,*,#1008,.T.);
#1008 = EDGE_CURVE('',#1001,#1001,#1009,.T.);
#1009 = CIRCLE('',#1010,1.2);
#1010 = AXIS2_PLACEMENT_3D('',#1011,#1012,#1013);
#1011 = CARTESIAN_POINT('',(12.499999999999,-6.,51.5));
#1012 = DIRECTION('',(0.,-1.,0.));
#1013 = DIRECTION('',(1.,0.,0.));
#1014 = ORIENTED_EDGE('',*,*,#1000,.F.);
#1015 = ORIENTED_EDGE('',*,*,#485,.F.);
#1016 = CYLINDRICAL_SURFACE('',#1017,1.2);
#1017 = AXIS2_PLACEMENT_3D('',#1018,#1019,#1020);
#1018 = CARTESIAN_POINT('',(12.499999999999,-18.,51.5));
#1019 = DIRECTION('',(0.,-1.,2.2E-16));
#1020 = DIRECTION('',(1.,0.,0.));
#1021 = ADVANCED_FACE('',(#1022),#1047,.T.);
#1022 = FACE_BOUND('',#1023,.T.);
#1023 = EDGE_LOOP('',(#1024,#1032,#1040,#1046));
#1024 = ORIENTED_EDGE('',*,*,#1025,.T.);
#1025 = EDGE_CURVE('',#512,#1026,#1028,.T.);
#1026 = VERTEX_POINT('',#1027);
#1027 = CARTESIAN_POINT('',(-13.,20.,44.));
#1028 = LINE('',#1029,#1030);
#1029 = CARTESIAN_POINT('',(-13.,18.,44.));
#1030 = VECTOR('',#1031,1.);
#1031 = DIRECTION('',(0.,1.,-2.2E-16));
#1032 = ORIENTED_EDGE('',*,*,#1033,.T.);
#1033 = EDGE_CURVE('',#1026,#1034,#1036,.T.);
#1034 = VERTEX_POINT('',#1035);
#1035 = CARTESIAN_POINT('',(-5.45,20.,44.));
#1036 = LINE('',#1037,#1038);
#1037 = CARTESIAN_POINT('',(-13.,20.,44.));
#1038 = VECTOR('',#1039,1.);
#1039 = DIRECTION('',(1.,0.,0.));
#1040 = ORIENTED_EDGE('',*,*,#1041,.F.);
#1041 = EDGE_CURVE('',#520,#1034,#1042,.T.);
#1042 = LINE('',#1043,#1044);
#1043 = CARTESIAN_POINT('',(-5.45,18.,44.));
#1044 = VECTOR('',#1045,1.);
#1045 = DIRECTION('',(0.,1.,-2.2E-16));
#1046 = ORIENTED_EDGE('',*,*,#519,.F.);
#1047 = PLANE('',#1048);
#1048 = AXIS2_PLACEMENT_3D('',#1049,#1050,#1051);
#1049 = CARTESIAN_POINT('',(-13.,18.,44.));
#1050 = DIRECTION('',(0.,-2.2E-16,-1.));
#1051 = DIRECTION('',(1.,0.,0.));
#1052 = ADVANCED_FACE('',(#1053),#1071,.T.);
#1053 = FACE_BOUND('',#1054,.T.);
#1054 = EDGE_LOOP('',(#1055,#1056,#1064,#1070));
#1055 = ORIENTED_EDGE('',*,*,#832,.T.);
#1056 = ORIENTED_EDGE('',*,*,#1057,.T.);
#1057 = EDGE_CURVE('',#825,#1058,#1060,.T.);
#1058 = VERTEX_POINT('',#1059);
#1059 = CARTESIAN_POINT('',(-3.5,-1.E-15,48.));
#1060 = LINE('',#1061,#1062);
#1061 = CARTESIAN_POINT('',(-5.45,0.,48.));
#1062 = VECTOR('',#1063,1.);
#1063 = DIRECTION('',(1.,-4.4E-16,0.));
#1064 = ORIENTED_EDGE('',*,*,#1065,.F.);
#1065 = EDGE_CURVE('',#536,#1058,#1066,.T.);
#1066 = LINE('',#1067,#1068);
#1067 = CARTESIAN_POINT('',(-3.5,-8.6E-16,47.));
#1068 = VECTOR('',#1069,1.);
#1069 = DIRECTION('',(0.,0.,1.));
#1070 = ORIENTED_EDGE('',*,*,#535,.F.);
#1071 = PLANE('',#1072);
#1072 = AXIS2_PLACEMENT_3D('',#1073,#1074,#1075);
#1073 = CARTESIAN_POINT('',(-4.475,-3.8E-16,46.));
#1074 = DIRECTION('',(4.9E-16,1.,0.));
#1075 = DIRECTION('',(1.,-4.9E-16,0.));
#1076 = ADVANCED_FACE('',(#1077),#1096,.F.);
#1077 = FACE_BOUND('',#1078,.T.);
#1078 = EDGE_LOOP('',(#1079,#1088,#1094,#1095));
#1079 = ORIENTED_EDGE('',*,*,#1080,.F.);
#1080 = EDGE_CURVE('',#1081,#1058,#1083,.T.);
#1081 = VERTEX_POINT('',#1082);
#1082 = CARTESIAN_POINT('',(10.5,0.,48.));
#1083 = CIRCLE('',#1084,7.);
#1084 = AXIS2_PLACEMENT_3D('',#1085,#1086,#1087);
#1085 = CARTESIAN_POINT('',(3.5,0.,48.));
#1086 = DIRECTION('',(0.,0.,-1.));
#1087 = DIRECTION('',(1.,0.,0.));
#1088 = ORIENTED_EDGE('',*,*,#1089,.T.);
#1089 = EDGE_CURVE('',#1081,#544,#1090,.T.);
#1090 = LINE('',#1091,#1092);
#1091 = CARTESIAN_POINT('',(10.5,0.,47.));
#1092 = VECTOR('',#1093,1.);
#1093 = DIRECTION('',(0.,0.,-1.));
#1094 = ORIENTED_EDGE('',*,*,#543,.T.);
#1095 = ORIENTED_EDGE('',*,*,#1065,.T.);
#1096 = CYLINDRICAL_SURFACE('',#1097,7.);
#1097 = AXIS2_PLACEMENT_3D('',#1098,#1099,#1100);
#1098 = CARTESIAN_POINT('',(3.5,0.,47.));
#1099 = DIRECTION('',(0.,0.,1.));
#1100 = DIRECTION('',(1.,0.,0.));
#1101 = ADVANCED_FACE('',(#1102),#1113,.T.);
#1102 = FACE_BOUND('',#1103,.T.);
#1103 = EDGE_LOOP('',(#1104,#1110,#1111,#1112));
#1104 = ORIENTED_EDGE('',*,*,#1105,.T.);
#1105 = EDGE_CURVE('',#1081,#848,#1106,.T.);
#1106 = LINE('',#1107,#1108);
#1107 = CARTESIAN_POINT('',(10.5,0.,48.));
#1108 = VECTOR('',#1109,1.);
#1109 = DIRECTION('',(1.,0.,0.));
#1110 = ORIENTED_EDGE('',*,*,#881,.T.);
#1111 = ORIENTED_EDGE('',*,*,#552,.F.);
#1112 = ORIENTED_EDGE('',*,*,#1089,.F.);
#1113 = PLANE('',#1114);
#1114 = AXIS2_PLACEMENT_3D('',#1115,#1116,#1117);
#1115 = CARTESIAN_POINT('',(11.475,-9.E-17,46.));
#1116 = DIRECTION('',(0.,1.,0.));
#1117 = DIRECTION('',(0.,0.,1.));
#1118 = ADVANCED_FACE('',(#1119),#1144,.T.);
#1119 = FACE_BOUND('',#1120,.T.);
#1120 = EDGE_LOOP('',(#1121,#1129,#1137,#1143));
#1121 = ORIENTED_EDGE('',*,*,#1122,.T.);
#1122 = EDGE_CURVE('',#561,#1123,#1125,.T.);
#1123 = VERTEX_POINT('',#1124);
#1124 = CARTESIAN_POINT('',(12.45,20.,44.));
#1125 = LINE('',#1126,#1127);
#1126 = CARTESIAN_POINT('',(12.45,18.,44.));
#1127 = VECTOR('',#1128,1.);
#1128 = DIRECTION('',(0.,1.,-2.2E-16));
#1129 = ORIENTED_EDGE('',*,*,#1130,.T.);
#1130 = EDGE_CURVE('',#1123,#1131,#1133,.T.);
#1131 = VERTEX_POINT('',#1132);
#1132 = CARTESIAN_POINT('',(20.,20.,44.));
#1133 = LINE('',#1134,#1135);
#1134 = CARTESIAN_POINT('',(12.45,20.,44.));
#1135 = VECTOR('',#1136,1.);
#1136 = DIRECTION('',(1.,0.,0.));
#1137 = ORIENTED_EDGE('',*,*,#1138,.F.);
#1138 = EDGE_CURVE('',#569,#1131,#1139,.T.);
#1139 = LINE('',#1140,#1141);
#1140 = CARTESIAN_POINT('',(20.,18.,44.));
#1141 = VECTOR('',#1142,1.);
#1142 = DIRECTION('',(0.,1.,-2.2E-16));
#1143 = ORIENTED_EDGE('',*,*,#568,.F.);
#1144 = PLANE('',#1145);
#1145 = AXIS2_PLACEMENT_3D('',#1146,#1147,#1148);
#1146 = CARTESIAN_POINT('',(12.45,18.,44.));
#1147 = DIRECTION('',(0.,-2.2E-16,-1.));
#1148 = DIRECTION('',(1.,0.,0.));
#1149 = ADVANCED_FACE('',(#1150),#1161,.F.);
#1150 = FACE_BOUND('',#1151,.F.);
#1151 = EDGE_LOOP('',(#1152,#1153,#1159,#1160));
#1152 = ORIENTED_EDGE('',*,*,#1025,.T.);
#1153 = ORIENTED_EDGE('',*,*,#1154,.T.);
#1154 = EDGE_CURVE('',#1026,#755,#1155,.T.);
#1155 = LINE('',#1156,#1157);
#1156 = CARTESIAN_POINT('',(-13.,20.,44.));
#1157 = VECTOR('',#1158,1.);
#1158 = DIRECTION('',(0.,0.,1.));
#1159 = ORIENTED_EDGE('',*,*,#754,.F.);
#1160 = ORIENTED_EDGE('',*,*,#737,.F.);
#1161 = PLANE('',#1162);
#1162 = AXIS2_PLACEMENT_3D('',#1163,#1164,#1165);
#1163 = CARTESIAN_POINT('',(-13.,18.,44.));
#1164 = DIRECTION('',(1.,0.,0.));
#1165 = DIRECTION('',(0.,2.2E-16,1.));
#1166 = ADVANCED_FACE('',(#1167),#1185,.T.);
#1167 = FACE_BOUND('',#1168,.T.);
#1168 = EDGE_LOOP('',(#1169,#1177,#1183,#1184));
#1169 = ORIENTED_EDGE('',*,*,#1170,.T.);
#1170 = EDGE_CURVE('',#810,#1171,#1173,.T.);
#1171 = VERTEX_POINT('',#1172);
#1172 = CARTESIAN_POINT('',(-5.45,20.,52.5));
#1173 = LINE('',#1174,#1175);
#1174 = CARTESIAN_POINT('',(-5.45,18.,52.5));
#1175 = VECTOR('',#1176,1.);
#1176 = DIRECTION('',(0.,1.,-2.2E-16));
#1177 = ORIENTED_EDGE('',*,*,#1178,.T.);
#1178 = EDGE_CURVE('',#1171,#763,#1179,.T.);
#1179 = LINE('',#1180,#1181);
#1180 = CARTESIAN_POINT('',(-5.45,20.,52.5));
#1181 = VECTOR('',#1182,1.);
#1182 = DIRECTION('',(0.,0.,1.));
#1183 = ORIENTED_EDGE('',*,*,#770,.F.);
#1184 = ORIENTED_EDGE('',*,*,#817,.F.);
#1185 = PLANE('',#1186);
#1186 = AXIS2_PLACEMENT_3D('',#1187,#1188,#1189);
#1187 = CARTESIAN_POINT('',(-5.45,18.,52.5));
#1188 = DIRECTION('',(1.,0.,0.));
#1189 = DIRECTION('',(0.,2.2E-16,1.));
#1190 = ADVANCED_FACE('',(#1191,#1227),#1238,.T.);
#1191 = FACE_BOUND('',#1192,.F.);
#1192 = EDGE_LOOP('',(#1193,#1201,#1209,#1217,#1223,#1224,#1225,#1226));
#1193 = ORIENTED_EDGE('',*,*,#1194,.T.);
#1194 = EDGE_CURVE('',#1034,#1195,#1197,.T.);
#1195 = VERTEX_POINT('',#1196);
#1196 = CARTESIAN_POINT('',(-5.45,20.,50.5));
#1197 = LINE('',#1198,#1199);
#1198 = CARTESIAN_POINT('',(-5.45,20.,44.));
#1199 = VECTOR('',#1200,1.);
#1200 = DIRECTION('',(0.,0.,1.));
#1201 = ORIENTED_EDGE('',*,*,#1202,.T.);
#1202 = EDGE_CURVE('',#1195,#1203,#1205,.T.);
#1203 = VERTEX_POINT('',#1204);
#1204 = CARTESIAN_POINT('',(-6.65,20.,50.5));
#1205 = LINE('',#1206,#1207);
#1206 = CARTESIAN_POINT('',(-5.45,20.,50.5));
#1207 = VECTOR('',#1208,1.);
#1208 = DIRECTION('',(-1.,0.,0.));
#1209 = ORIENTED_EDGE('',*,*,#1210,.T.);
#1210 = EDGE_CURVE('',#1203,#1211,#1213,.T.);
#1211 = VERTEX_POINT('',#1212);
#1212 = CARTESIAN_POINT('',(-6.65,20.,52.5));
#1213 = LINE('',#1214,#1215);
#1214 = CARTESIAN_POINT('',(-6.65,20.,50.5));
#1215 = VECTOR('',#1216,1.);
#1216 = DIRECTION('',(0.,0.,1.));
#1217 = ORIENTED_EDGE('',*,*,#1218,.T.);
#1218 = EDGE_CURVE('',#1211,#1171,#1219,.T.);
#1219 = LINE('',#1220,#1221);
#1220 = CARTESIAN_POINT('',(-6.65,20.,52.5));
#1221 = VECTOR('',#1222,1.);
#1222 = DIRECTION('',(1.,0.,0.));
#1223 = ORIENTED_EDGE('',*,*,#1178,.T.);
#1224 = ORIENTED_EDGE('',*,*,#762,.F.);
#1225 = ORIENTED_EDGE('',*,*,#1154,.F.);
#1226 = ORIENTED_EDGE('',*,*,#1033,.T.);
#1227 = FACE_BOUND('',#1228,.F.);
#1228 = EDGE_LOOP('',(#1229));
#1229 = ORIENTED_EDGE('',*,*,#1230,.T.);
#1230 = EDGE_CURVE('',#1231,#1231,#1233,.T.);
#1231 = VERTEX_POINT('',#1232);
#1232 = CARTESIAN_POINT('',(-10.425,20.,51.5));
#1233 = CIRCLE('',#1234,1.2);
#1234 = AXIS2_PLACEMENT_3D('',#1235,#1236,#1237);
#1235 = CARTESIAN_POINT('',(-9.225,20.,51.5));
#1236 = DIRECTION('',(0.,1.,-0.));
#1237 = DIRECTION('',(-1.,0.,0.));
#1238 = PLANE('',#1239);
#1239 = AXIS2_PLACEMENT_3D('',#1240,#1241,#1242);
#1240 = CARTESIAN_POINT('',(3.5,20.,50.271351638386));
#1241 = DIRECTION('',(0.,1.,-2.6E-16));
#1242 = DIRECTION('',(0.,2.6E-16,1.));
#1243 = ADVANCED_FACE('',(#1244),#1255,.T.);
#1244 = FACE_BOUND('',#1245,.T.);
#1245 = EDGE_LOOP('',(#1246,#1247,#1248,#1254));
#1246 = ORIENTED_EDGE('',*,*,#1041,.T.);
#1247 = ORIENTED_EDGE('',*,*,#1194,.T.);
#1248 = ORIENTED_EDGE('',*,*,#1249,.F.);
#1249 = EDGE_CURVE('',#786,#1195,#1250,.T.);
#1250 = LINE('',#1251,#1252);
#1251 = CARTESIAN_POINT('',(-5.45,18.,50.5));
#1252 = VECTOR('',#1253,1.);
#1253 = DIRECTION('',(0.,1.,-2.2E-16));
#1254 = ORIENTED_EDGE('',*,*,#785,.F.);
#1255 = PLANE('',#1256);
#1256 = AXIS2_PLACEMENT_3D('',#1257,#1258,#1259);
#1257 = CARTESIAN_POINT('',(-5.45,18.,44.));
#1258 = DIRECTION('',(1.,0.,0.));
#1259 = DIRECTION('',(0.,2.2E-16,1.));
#1260 = ADVANCED_FACE('',(#1261),#1286,.F.);
#1261 = FACE_BOUND('',#1262,.F.);
#1262 = EDGE_LOOP('',(#1263,#1271,#1272,#1280));
#1263 = ORIENTED_EDGE('',*,*,#1264,.F.);
#1264 = EDGE_CURVE('',#786,#1265,#1267,.T.);
#1265 = VERTEX_POINT('',#1266);
#1266 = CARTESIAN_POINT('',(-6.65,18.,50.5));
#1267 = LINE('',#1268,#1269);
#1268 = CARTESIAN_POINT('',(13.65,18.,50.5));
#1269 = VECTOR('',#1270,1.);
#1270 = DIRECTION('',(-1.,0.,0.));
#1271 = ORIENTED_EDGE('',*,*,#793,.T.);
#1272 = ORIENTED_EDGE('',*,*,#1273,.T.);
#1273 = EDGE_CURVE('',#794,#1274,#1276,.T.);
#1274 = VERTEX_POINT('',#1275);
#1275 = CARTESIAN_POINT('',(-6.65,8.,50.5));
#1276 = LINE('',#1277,#1278);
#1277 = CARTESIAN_POINT('',(13.65,8.,50.5));
#1278 = VECTOR('',#1279,1.);
#1279 = DIRECTION('',(-1.,0.,0.));
#1280 = ORIENTED_EDGE('',*,*,#1281,.F.);
#1281 = EDGE_CURVE('',#1265,#1274,#1282,.T.);
#1282 = LINE('',#1283,#1284);
#1283 = CARTESIAN_POINT('',(-6.65,18.,50.5));
#1284 = VECTOR('',#1285,1.);
#1285 = DIRECTION('',(0.,-1.,2.2E-16));
#1286 = PLANE('',#1287);
#1287 = AXIS2_PLACEMENT_3D('',#1288,#1289,#1290);
#1288 = CARTESIAN_POINT('',(13.65,18.,50.5));
#1289 = DIRECTION('',(-0.,-2.2E-16,-1.));
#1290 = DIRECTION('',(-1.,0.,0.));
#1291 = ADVANCED_FACE('',(#1292),#1310,.T.);
#1292 = FACE_BOUND('',#1293,.T.);
#1293 = EDGE_LOOP('',(#1294,#1302,#1303,#1304));
#1294 = ORIENTED_EDGE('',*,*,#1295,.T.);
#1295 = EDGE_CURVE('',#1296,#802,#1298,.T.);
#1296 = VERTEX_POINT('',#1297);
#1297 = CARTESIAN_POINT('',(-6.65,8.,52.5));
#1298 = LINE('',#1299,#1300);
#1299 = CARTESIAN_POINT('',(-6.65,8.,52.5));
#1300 = VECTOR('',#1301,1.);
#1301 = DIRECTION('',(1.,0.,0.));
#1302 = ORIENTED_EDGE('',*,*,#801,.T.);
#1303 = ORIENTED_EDGE('',*,*,#1273,.T.);
#1304 = ORIENTED_EDGE('',*,*,#1305,.T.);
#1305 = EDGE_CURVE('',#1274,#1296,#1306,.T.);
#1306 = LINE('',#1307,#1308);
#1307 = CARTESIAN_POINT('',(-6.65,8.,50.5));
#1308 = VECTOR('',#1309,1.);
#1309 = DIRECTION('',(0.,0.,1.));
#1310 = PLANE('',#1311);
#1311 = AXIS2_PLACEMENT_3D('',#1312,#1313,#1314);
#1312 = CARTESIAN_POINT('',(3.5,8.,51.5));
#1313 = DIRECTION('',(0.,1.,0.));
#1314 = DIRECTION('',(0.,0.,1.));
#1315 = ADVANCED_FACE('',(#1316),#1334,.F.);
#1316 = FACE_BOUND('',#1317,.F.);
#1317 = EDGE_LOOP('',(#1318,#1326,#1332,#1333));
#1318 = ORIENTED_EDGE('',*,*,#1319,.F.);
#1319 = EDGE_CURVE('',#1320,#810,#1322,.T.);
#1320 = VERTEX_POINT('',#1321);
#1321 = CARTESIAN_POINT('',(-6.65,18.,52.5));
#1322 = LINE('',#1323,#1324);
#1323 = CARTESIAN_POINT('',(-6.65,18.,52.5));
#1324 = VECTOR('',#1325,1.);
#1325 = DIRECTION('',(1.,0.,0.));
#1326 = ORIENTED_EDGE('',*,*,#1327,.T.);
#1327 = EDGE_CURVE('',#1320,#1296,#1328,.T.);
#1328 = LINE('',#1329,#1330);
#1329 = CARTESIAN_POINT('',(-6.65,18.,52.5));
#1330 = VECTOR('',#1331,1.);
#1331 = DIRECTION('',(0.,-1.,2.2E-16));
#1332 = ORIENTED_EDGE('',*,*,#1295,.T.);
#1333 = ORIENTED_EDGE('',*,*,#809,.T.);
#1334 = PLANE('',#1335);
#1335 = AXIS2_PLACEMENT_3D('',#1336,#1337,#1338);
#1336 = CARTESIAN_POINT('',(-6.65,18.,52.5));
#1337 = DIRECTION('',(0.,2.2E-16,1.));
#1338 = DIRECTION('',(1.,0.,0.));
#1339 = ADVANCED_FACE('',(#1340),#1346,.T.);
#1340 = FACE_BOUND('',#1341,.F.);
#1341 = EDGE_LOOP('',(#1342,#1343,#1344,#1345));
#1342 = ORIENTED_EDGE('',*,*,#1057,.T.);
#1343 = ORIENTED_EDGE('',*,*,#1080,.F.);
#1344 = ORIENTED_EDGE('',*,*,#1105,.T.);
#1345 = ORIENTED_EDGE('',*,*,#847,.F.);
#1346 = PLANE('',#1347);
#1347 = AXIS2_PLACEMENT_3D('',#1348,#1349,#1350);
#1348 = CARTESIAN_POINT('',(3.5,-4.321006558148,48.));
#1349 = DIRECTION('',(0.,0.,1.));
#1350 = DIRECTION('',(1.,0.,0.));
#1351 = ADVANCED_FACE('',(#1352),#1370,.T.);
#1352 = FACE_BOUND('',#1353,.T.);
#1353 = EDGE_LOOP('',(#1354,#1362,#1368,#1369));
#1354 = ORIENTED_EDGE('',*,*,#1355,.T.);
#1355 = EDGE_CURVE('',#873,#1356,#1358,.T.);
#1356 = VERTEX_POINT('',#1357);
#1357 = CARTESIAN_POINT('',(12.45,20.,50.5));
#1358 = LINE('',#1359,#1360);
#1359 = CARTESIAN_POINT('',(12.45,18.,50.5));
#1360 = VECTOR('',#1361,1.);
#1361 = DIRECTION('',(0.,1.,-2.2E-16));
#1362 = ORIENTED_EDGE('',*,*,#1363,.T.);
#1363 = EDGE_CURVE('',#1356,#1123,#1364,.T.);
#1364 = LINE('',#1365,#1366);
#1365 = CARTESIAN_POINT('',(12.45,20.,50.5));
#1366 = VECTOR('',#1367,1.);
#1367 = DIRECTION('',(0.,0.,-1.));
#1368 = ORIENTED_EDGE('',*,*,#1122,.F.);
#1369 = ORIENTED_EDGE('',*,*,#872,.F.);
#1370 = PLANE('',#1371);
#1371 = AXIS2_PLACEMENT_3D('',#1372,#1373,#1374);
#1372 = CARTESIAN_POINT('',(12.45,18.,50.5));
#1373 = DIRECTION('',(-1.,0.,0.));
#1374 = DIRECTION('',(-0.,-2.2E-16,-1.));
#1375 = ADVANCED_FACE('',(#1376),#1394,.F.);
#1376 = FACE_BOUND('',#1377,.F.);
#1377 = EDGE_LOOP('',(#1378,#1386,#1392,#1393));
#1378 = ORIENTED_EDGE('',*,*,#1379,.T.);
#1379 = EDGE_CURVE('',#890,#1380,#1382,.T.);
#1380 = VERTEX_POINT('',#1381);
#1381 = CARTESIAN_POINT('',(12.45,20.,52.5));
#1382 = LINE('',#1383,#1384);
#1383 = CARTESIAN_POINT('',(12.45,18.,52.5));
#1384 = VECTOR('',#1385,1.);
#1385 = DIRECTION('',(0.,1.,-2.2E-16));
#1386 = ORIENTED_EDGE('',*,*,#1387,.T.);
#1387 = EDGE_CURVE('',#1380,#928,#1388,.T.);
#1388 = LINE('',#1389,#1390);
#1389 = CARTESIAN_POINT('',(12.45,20.,52.5));
#1390 = VECTOR('',#1391,1.);
#1391 = DIRECTION('',(0.,0.,1.));
#1392 = ORIENTED_EDGE('',*,*,#927,.F.);
#1393 = ORIENTED_EDGE('',*,*,#889,.F.);
#1394 = PLANE('',#1395);
#1395 = AXIS2_PLACEMENT_3D('',#1396,#1397,#1398);
#1396 = CARTESIAN_POINT('',(12.45,18.,52.5));
#1397 = DIRECTION('',(1.,0.,0.));
#1398 = DIRECTION('',(0.,2.2E-16,1.));
#1399 = ADVANCED_FACE('',(#1400),#1425,.F.);
#1400 = FACE_BOUND('',#1401,.F.);
#1401 = EDGE_LOOP('',(#1402,#1410,#1411,#1419));
#1402 = ORIENTED_EDGE('',*,*,#1403,.F.);
#1403 = EDGE_CURVE('',#890,#1404,#1406,.T.);
#1404 = VERTEX_POINT('',#1405);
#1405 = CARTESIAN_POINT('',(13.65,18.,52.5));
#1406 = LINE('',#1407,#1408);
#1407 = CARTESIAN_POINT('',(-6.65,18.,52.5));
#1408 = VECTOR('',#1409,1.);
#1409 = DIRECTION('',(1.,0.,0.));
#1410 = ORIENTED_EDGE('',*,*,#897,.F.);
#1411 = ORIENTED_EDGE('',*,*,#1412,.T.);
#1412 = EDGE_CURVE('',#898,#1413,#1415,.T.);
#1413 = VERTEX_POINT('',#1414);
#1414 = CARTESIAN_POINT('',(13.65,8.,52.5));
#1415 = LINE('',#1416,#1417);
#1416 = CARTESIAN_POINT('',(-6.65,8.,52.5));
#1417 = VECTOR('',#1418,1.);
#1418 = DIRECTION('',(1.,0.,0.));
#1419 = ORIENTED_EDGE('',*,*,#1420,.F.);
#1420 = EDGE_CURVE('',#1404,#1413,#1421,.T.);
#1421 = LINE('',#1422,#1423);
#1422 = CARTESIAN_POINT('',(13.65,18.,52.5));
#1423 = VECTOR('',#1424,1.);
#1424 = DIRECTION('',(0.,-1.,2.2E-16));
#1425 = PLANE('',#1426);
#1426 = AXIS2_PLACEMENT_3D('',#1427,#1428,#1429);
#1427 = CARTESIAN_POINT('',(-6.65,18.,52.5));
#1428 = DIRECTION('',(0.,2.2E-16,1.));
#1429 = DIRECTION('',(1.,0.,0.));
#1430 = ADVANCED_FACE('',(#1431),#1449,.T.);
#1431 = FACE_BOUND('',#1432,.T.);
#1432 = EDGE_LOOP('',(#1433,#1434,#1442,#1448));
#1433 = ORIENTED_EDGE('',*,*,#1412,.T.);
#1434 = ORIENTED_EDGE('',*,*,#1435,.T.);
#1435 = EDGE_CURVE('',#1413,#1436,#1438,.T.);
#1436 = VERTEX_POINT('',#1437);
#1437 = CARTESIAN_POINT('',(13.65,8.,50.5));
#1438 = LINE('',#1439,#1440);
#1439 = CARTESIAN_POINT('',(13.65,8.,52.5));
#1440 = VECTOR('',#1441,1.);
#1441 = DIRECTION('',(0.,0.,-1.));
#1442 = ORIENTED_EDGE('',*,*,#1443,.T.);
#1443 = EDGE_CURVE('',#1436,#906,#1444,.T.);
#1444 = LINE('',#1445,#1446);
#1445 = CARTESIAN_POINT('',(13.65,8.,50.5));
#1446 = VECTOR('',#1447,1.);
#1447 = DIRECTION('',(-1.,0.,0.));
#1448 = ORIENTED_EDGE('',*,*,#905,.F.);
#1449 = PLANE('',#1450);
#1450 = AXIS2_PLACEMENT_3D('',#1451,#1452,#1453);
#1451 = CARTESIAN_POINT('',(3.5,8.,51.5));
#1452 = DIRECTION('',(0.,1.,0.));
#1453 = DIRECTION('',(0.,0.,1.));
#1454 = ADVANCED_FACE('',(#1455),#1473,.F.);
#1455 = FACE_BOUND('',#1456,.F.);
#1456 = EDGE_LOOP('',(#1457,#1465,#1471,#1472));
#1457 = ORIENTED_EDGE('',*,*,#1458,.F.);
#1458 = EDGE_CURVE('',#1459,#873,#1461,.T.);
#1459 = VERTEX_POINT('',#1460);
#1460 = CARTESIAN_POINT('',(13.65,18.,50.5));
#1461 = LINE('',#1462,#1463);
#1462 = CARTESIAN_POINT('',(13.65,18.,50.5));
#1463 = VECTOR('',#1464,1.);
#1464 = DIRECTION('',(-1.,0.,0.));
#1465 = ORIENTED_EDGE('',*,*,#1466,.T.);
#1466 = EDGE_CURVE('',#1459,#1436,#1467,.T.);
#1467 = LINE('',#1468,#1469);
#1468 = CARTESIAN_POINT('',(13.65,18.,50.5));
#1469 = VECTOR('',#1470,1.);
#1470 = DIRECTION('',(0.,-1.,2.2E-16));
#1471 = ORIENTED_EDGE('',*,*,#1443,.T.);
#1472 = ORIENTED_EDGE('',*,*,#913,.F.);
#1473 = PLANE('',#1474);
#1474 = AXIS2_PLACEMENT_3D('',#1475,#1476,#1477);
#1475 = CARTESIAN_POINT('',(13.65,18.,50.5));
#1476 = DIRECTION('',(-0.,-2.2E-16,-1.));
#1477 = DIRECTION('',(-1.,0.,0.));
#1478 = ADVANCED_FACE('',(#1479),#1490,.F.);
#1479 = FACE_BOUND('',#1480,.F.);
#1480 = EDGE_LOOP('',(#1481,#1482,#1488,#1489));
#1481 = ORIENTED_EDGE('',*,*,#943,.T.);
#1482 = ORIENTED_EDGE('',*,*,#1483,.T.);
#1483 = EDGE_CURVE('',#936,#1131,#1484,.T.);
#1484 = LINE('',#1485,#1486);
#1485 = CARTESIAN_POINT('',(20.,20.,56.));
#1486 = VECTOR('',#1487,1.);
#1487 = DIRECTION('',(0.,0.,-1.));
#1488 = ORIENTED_EDGE('',*,*,#1138,.F.);
#1489 = ORIENTED_EDGE('',*,*,#960,.F.);
#1490 = PLANE('',#1491);
#1491 = AXIS2_PLACEMENT_3D('',#1492,#1493,#1494);
#1492 = CARTESIAN_POINT('',(20.,18.,56.));
#1493 = DIRECTION('',(-1.,0.,0.));
#1494 = DIRECTION('',(-0.,-2.2E-16,-1.));
#1495 = ADVANCED_FACE('',(#1496,#1525),#1536,.T.);
#1496 = FACE_BOUND('',#1497,.T.);
#1497 = EDGE_LOOP('',(#1498,#1499,#1500,#1501,#1509,#1517,#1523,#1524));
#1498 = ORIENTED_EDGE('',*,*,#1483,.T.);
#1499 = ORIENTED_EDGE('',*,*,#1130,.F.);
#1500 = ORIENTED_EDGE('',*,*,#1363,.F.);
#1501 = ORIENTED_EDGE('',*,*,#1502,.F.);
#1502 = EDGE_CURVE('',#1503,#1356,#1505,.T.);
#1503 = VERTEX_POINT('',#1504);
#1504 = CARTESIAN_POINT('',(13.65,20.,50.5));
#1505 = LINE('',#1506,#1507);
#1506 = CARTESIAN_POINT('',(13.65,20.,50.5));
#1507 = VECTOR('',#1508,1.);
#1508 = DIRECTION('',(-1.,0.,0.));
#1509 = ORIENTED_EDGE('',*,*,#1510,.F.);
#1510 = EDGE_CURVE('',#1511,#1503,#1513,.T.);
#1511 = VERTEX_POINT('',#1512);
#1512 = CARTESIAN_POINT('',(13.65,20.,52.5));
#1513 = LINE('',#1514,#1515);
#1514 = CARTESIAN_POINT('',(13.65,20.,52.5));
#1515 = VECTOR('',#1516,1.);
#1516 = DIRECTION('',(0.,0.,-1.));
#1517 = ORIENTED_EDGE('',*,*,#1518,.F.);
#1518 = EDGE_CURVE('',#1380,#1511,#1519,.T.);
#1519 = LINE('',#1520,#1521);
#1520 = CARTESIAN_POINT('',(12.45,20.,52.5));
#1521 = VECTOR('',#1522,1.);
#1522 = DIRECTION('',(1.,0.,0.));
#1523 = ORIENTED_EDGE('',*,*,#1387,.T.);
#1524 = ORIENTED_EDGE('',*,*,#935,.T.);
#1525 = FACE_BOUND('',#1526,.F.);
#1526 = EDGE_LOOP('',(#1527));
#1527 = ORIENTED_EDGE('',*,*,#1528,.T.);
#1528 = EDGE_CURVE('',#1529,#1529,#1531,.T.);
#1529 = VERTEX_POINT('',#1530);
#1530 = CARTESIAN_POINT('',(15.025,20.,51.5));
#1531 = CIRCLE('',#1532,1.2);
#1532 = AXIS2_PLACEMENT_3D('',#1533,#1534,#1535);
#1533 = CARTESIAN_POINT('',(16.225,20.,51.5));
#1534 = DIRECTION('',(0.,1.,-0.));
#1535 = DIRECTION('',(-1.,0.,0.));
#1536 = PLANE('',#1537);
#1537 = AXIS2_PLACEMENT_3D('',#1538,#1539,#1540);
#1538 = CARTESIAN_POINT('',(3.5,20.,50.271351638386));
#1539 = DIRECTION('',(0.,1.,-2.6E-16));
#1540 = DIRECTION('',(0.,2.6E-16,1.));
#1541 = ADVANCED_FACE('',(#1542),#1545,.F.);
#1542 = FACE_BOUND('',#1543,.T.);
#1543 = EDGE_LOOP('',(#1544));
#1544 = ORIENTED_EDGE('',*,*,#983,.T.);
#1545 = PLANE('',#1546);
#1546 = AXIS2_PLACEMENT_3D('',#1547,#1548,#1549);
#1547 = CARTESIAN_POINT('',(-6.9383E-13,-6.,51.5));
#1548 = DIRECTION('',(0.,1.,0.));
#1549 = DIRECTION('',(0.,0.,1.));
#1550 = ADVANCED_FACE('',(#1551),#1554,.F.);
#1551 = FACE_BOUND('',#1552,.T.);
#1552 = EDGE_LOOP('',(#1553));
#1553 = ORIENTED_EDGE('',*,*,#1008,.T.);
#1554 = PLANE('',#1555);
#1555 = AXIS2_PLACEMENT_3D('',#1556,#1557,#1558);
#1556 = CARTESIAN_POINT('',(-6.9383E-13,-6.,51.5));
#1557 = DIRECTION('',(0.,1.,0.));
#1558 = DIRECTION('',(0.,0.,1.));
#1559 = ADVANCED_FACE('',(#1560),#1571,.T.);
#1560 = FACE_BOUND('',#1561,.T.);
#1561 = EDGE_LOOP('',(#1562,#1568,#1569,#1570));
#1562 = ORIENTED_EDGE('',*,*,#1563,.T.);
#1563 = EDGE_CURVE('',#1320,#1211,#1564,.T.);
#1564 = LINE('',#1565,#1566);
#1565 = CARTESIAN_POINT('',(-6.65,18.,52.5));
#1566 = VECTOR('',#1567,1.);
#1567 = DIRECTION('',(0.,1.,-2.2E-16));
#1568 = ORIENTED_EDGE('',*,*,#1218,.T.);
#1569 = ORIENTED_EDGE('',*,*,#1170,.F.);
#1570 = ORIENTED_EDGE('',*,*,#1319,.F.);
#1571 = PLANE('',#1572);
#1572 = AXIS2_PLACEMENT_3D('',#1573,#1574,#1575);
#1573 = CARTESIAN_POINT('',(-6.65,18.,52.5));
#1574 = DIRECTION('',(0.,-2.2E-16,-1.));
#1575 = DIRECTION('',(1.,0.,0.));
#1576 = ADVANCED_FACE('',(#1577),#1588,.T.);
#1577 = FACE_BOUND('',#1578,.T.);
#1578 = EDGE_LOOP('',(#1579,#1580,#1581,#1587));
#1579 = ORIENTED_EDGE('',*,*,#1249,.T.);
#1580 = ORIENTED_EDGE('',*,*,#1202,.T.);
#1581 = ORIENTED_EDGE('',*,*,#1582,.F.);
#1582 = EDGE_CURVE('',#1265,#1203,#1583,.T.);
#1583 = LINE('',#1584,#1585);
#1584 = CARTESIAN_POINT('',(-6.65,18.,50.5));
#1585 = VECTOR('',#1586,1.);
#1586 = DIRECTION('',(0.,1.,-2.2E-16));
#1587 = ORIENTED_EDGE('',*,*,#1264,.F.);
#1588 = PLANE('',#1589);
#1589 = AXIS2_PLACEMENT_3D('',#1590,#1591,#1592);
#1590 = CARTESIAN_POINT('',(-5.45,18.,50.5));
#1591 = DIRECTION('',(0.,2.2E-16,1.));
#1592 = DIRECTION('',(-1.,0.,0.));
#1593 = ADVANCED_FACE('',(#1594),#1605,.T.);
#1594 = FACE_BOUND('',#1595,.T.);
#1595 = EDGE_LOOP('',(#1596,#1597,#1598,#1599));
#1596 = ORIENTED_EDGE('',*,*,#1582,.T.);
#1597 = ORIENTED_EDGE('',*,*,#1210,.T.);
#1598 = ORIENTED_EDGE('',*,*,#1563,.F.);
#1599 = ORIENTED_EDGE('',*,*,#1600,.F.);
#1600 = EDGE_CURVE('',#1265,#1320,#1601,.T.);
#1601 = LINE('',#1602,#1603);
#1602 = CARTESIAN_POINT('',(-6.65,18.,50.5));
#1603 = VECTOR('',#1604,1.);
#1604 = DIRECTION('',(0.,0.,1.));
#1605 = PLANE('',#1606);
#1606 = AXIS2_PLACEMENT_3D('',#1607,#1608,#1609);
#1607 = CARTESIAN_POINT('',(-6.65,18.,50.5));
#1608 = DIRECTION('',(1.,0.,0.));
#1609 = DIRECTION('',(0.,2.2E-16,1.));
#1610 = ADVANCED_FACE('',(#1611),#1630,.F.);
#1611 = FACE_BOUND('',#1612,.T.);
#1612 = EDGE_LOOP('',(#1613,#1621,#1622,#1623));
#1613 = ORIENTED_EDGE('',*,*,#1614,.T.);
#1614 = EDGE_CURVE('',#1615,#1231,#1617,.T.);
#1615 = VERTEX_POINT('',#1616);
#1616 = CARTESIAN_POINT('',(-10.425,18.,51.5));
#1617 = LINE('',#1618,#1619);
#1618 = CARTESIAN_POINT('',(-10.425,18.,51.5));
#1619 = VECTOR('',#1620,1.);
#1620 = DIRECTION('',(0.,1.,-2.2E-16));
#1621 = ORIENTED_EDGE('',*,*,#1230,.T.);
#1622 = ORIENTED_EDGE('',*,*,#1614,.F.);
#1623 = ORIENTED_EDGE('',*,*,#1624,.F.);
#1624 = EDGE_CURVE('',#1615,#1615,#1625,.T.);
#1625 = CIRCLE('',#1626,1.2);
#1626 = AXIS2_PLACEMENT_3D('',#1627,#1628,#1629);
#1627 = CARTESIAN_POINT('',(-9.225,18.,51.5));
#1628 = DIRECTION('',(0.,1.,-0.));
#1629 = DIRECTION('',(-1.,0.,0.));
#1630 = CYLINDRICAL_SURFACE('',#1631,1.2);
#1631 = AXIS2_PLACEMENT_3D('',#1632,#1633,#1634);
#1632 = CARTESIAN_POINT('',(-9.225,18.,51.5));
#1633 = DIRECTION('',(0.,-1.,2.2E-16));
#1634 = DIRECTION('',(-1.,0.,0.));
#1635 = ADVANCED_FACE('',(#1636),#1642,.F.);
#1636 = FACE_BOUND('',#1637,.F.);
#1637 = EDGE_LOOP('',(#1638,#1639,#1640,#1641));
#1638 = ORIENTED_EDGE('',*,*,#1281,.T.);
#1639 = ORIENTED_EDGE('',*,*,#1305,.T.);
#1640 = ORIENTED_EDGE('',*,*,#1327,.F.);
#1641 = ORIENTED_EDGE('',*,*,#1600,.F.);
#1642 = PLANE('',#1643);
#1643 = AXIS2_PLACEMENT_3D('',#1644,#1645,#1646);
#1644 = CARTESIAN_POINT('',(-6.65,18.,50.5));
#1645 = DIRECTION('',(-1.,0.,0.));
#1646 = DIRECTION('',(0.,2.2E-16,1.));
#1647 = ADVANCED_FACE('',(#1648),#1659,.T.);
#1648 = FACE_BOUND('',#1649,.T.);
#1649 = EDGE_LOOP('',(#1650,#1656,#1657,#1658));
#1650 = ORIENTED_EDGE('',*,*,#1651,.T.);
#1651 = EDGE_CURVE('',#1459,#1503,#1652,.T.);
#1652 = LINE('',#1653,#1654);
#1653 = CARTESIAN_POINT('',(13.65,18.,50.5));
#1654 = VECTOR('',#1655,1.);
#1655 = DIRECTION('',(0.,1.,-2.2E-16));
#1656 = ORIENTED_EDGE('',*,*,#1502,.T.);
#1657 = ORIENTED_EDGE('',*,*,#1355,.F.);
#1658 = ORIENTED_EDGE('',*,*,#1458,.F.);
#1659 = PLANE('',#1660);
#1660 = AXIS2_PLACEMENT_3D('',#1661,#1662,#1663);
#1661 = CARTESIAN_POINT('',(13.65,18.,50.5));
#1662 = DIRECTION('',(0.,2.2E-16,1.));
#1663 = DIRECTION('',(-1.,0.,0.));
#1664 = ADVANCED_FACE('',(#1665),#1676,.T.);
#1665 = FACE_BOUND('',#1666,.T.);
#1666 = EDGE_LOOP('',(#1667,#1668,#1669,#1675));
#1667 = ORIENTED_EDGE('',*,*,#1379,.T.);
#1668 = ORIENTED_EDGE('',*,*,#1518,.T.);
#1669 = ORIENTED_EDGE('',*,*,#1670,.F.);
#1670 = EDGE_CURVE('',#1404,#1511,#1671,.T.);
#1671 = LINE('',#1672,#1673);
#1672 = CARTESIAN_POINT('',(13.65,18.,52.5));
#1673 = VECTOR('',#1674,1.);
#1674 = DIRECTION('',(0.,1.,-2.2E-16));
#1675 = ORIENTED_EDGE('',*,*,#1403,.F.);
#1676 = PLANE('',#1677);
#1677 = AXIS2_PLACEMENT_3D('',#1678,#1679,#1680);
#1678 = CARTESIAN_POINT('',(12.45,18.,52.5));
#1679 = DIRECTION('',(0.,-2.2E-16,-1.));
#1680 = DIRECTION('',(1.,0.,0.));
#1681 = ADVANCED_FACE('',(#1682),#1693,.F.);
#1682 = FACE_BOUND('',#1683,.F.);
#1683 = EDGE_LOOP('',(#1684,#1685,#1686,#1687));
#1684 = ORIENTED_EDGE('',*,*,#1420,.T.);
#1685 = ORIENTED_EDGE('',*,*,#1435,.T.);
#1686 = ORIENTED_EDGE('',*,*,#1466,.F.);
#1687 = ORIENTED_EDGE('',*,*,#1688,.F.);
#1688 = EDGE_CURVE('',#1404,#1459,#1689,.T.);
#1689 = LINE('',#1690,#1691);
#1690 = CARTESIAN_POINT('',(13.65,18.,52.5));
#1691 = VECTOR('',#1692,1.);
#1692 = DIRECTION('',(0.,0.,-1.));
#1693 = PLANE('',#1694);
#1694 = AXIS2_PLACEMENT_3D('',#1695,#1696,#1697);
#1695 = CARTESIAN_POINT('',(13.65,18.,52.5));
#1696 = DIRECTION('',(1.,0.,0.));
#1697 = DIRECTION('',(0.,-2.2E-16,-1.));
#1698 = ADVANCED_FACE('',(#1699),#1705,.T.);
#1699 = FACE_BOUND('',#1700,.T.);
#1700 = EDGE_LOOP('',(#1701,#1702,#1703,#1704));
#1701 = ORIENTED_EDGE('',*,*,#1670,.T.);
#1702 = ORIENTED_EDGE('',*,*,#1510,.T.);
#1703 = ORIENTED_EDGE('',*,*,#1651,.F.);
#1704 = ORIENTED_EDGE('',*,*,#1688,.F.);
#1705 = PLANE('',#1706);
#1706 = AXIS2_PLACEMENT_3D('',#1707,#1708,#1709);
#1707 = CARTESIAN_POINT('',(13.65,18.,52.5));
#1708 = DIRECTION('',(-1.,0.,0.));
#1709 = DIRECTION('',(-0.,-2.2E-16,-1.));
#1710 = ADVANCED_FACE('',(#1711),#1730,.F.);
#1711 = FACE_BOUND('',#1712,.T.);
#1712 = EDGE_LOOP('',(#1713,#1721,#1722,#1723));
#1713 = ORIENTED_EDGE('',*,*,#1714,.T.);
#1714 = EDGE_CURVE('',#1715,#1529,#1717,.T.);
#1715 = VERTEX_POINT('',#1716);
#1716 = CARTESIAN_POINT('',(15.025,18.,51.5));
#1717 = LINE('',#1718,#1719);
#1718 = CARTESIAN_POINT('',(15.025,18.,51.5));
#1719 = VECTOR('',#1720,1.);
#1720 = DIRECTION('',(0.,1.,-2.2E-16));
#1721 = ORIENTED_EDGE('',*,*,#1528,.T.);
#1722 = ORIENTED_EDGE('',*,*,#1714,.F.);
#1723 = ORIENTED_EDGE('',*,*,#1724,.F.);
#1724 = EDGE_CURVE('',#1715,#1715,#1725,.T.);
#1725 = CIRCLE('',#1726,1.2);
#1726 = AXIS2_PLACEMENT_3D('',#1727,#1728,#1729);
#1727 = CARTESIAN_POINT('',(16.225,18.,51.5));
#1728 = DIRECTION('',(0.,1.,-0.));
#1729 = DIRECTION('',(-1.,0.,0.));
#1730 = CYLINDRICAL_SURFACE('',#1731,1.2);
#1731 = AXIS2_PLACEMENT_3D('',#1732,#1733,#1734);
#1732 = CARTESIAN_POINT('',(16.225,18.,51.5));
#1733 = DIRECTION('',(0.,-1.,2.2E-16));
#1734 = DIRECTION('',(-1.,0.,0.));
#1735 = ADVANCED_FACE('',(#1736),#1755,.F.);
#1736 = FACE_BOUND('',#1737,.F.);
#1737 = EDGE_LOOP('',(#1738,#1746,#1753,#1754));
#1738 = ORIENTED_EDGE('',*,*,#1739,.T.);
#1739 = EDGE_CURVE('',#1615,#1740,#1742,.T.);
#1740 = VERTEX_POINT('',#1741);
#1741 = CARTESIAN_POINT('',(-10.425,10.,51.5));
#1742 = LINE('',#1743,#1744);
#1743 = CARTESIAN_POINT('',(-10.425,18.,51.5));
#1744 = VECTOR('',#1745,1.);
#1745 = DIRECTION('',(0.,-1.,2.2E-16));
#1746 = ORIENTED_EDGE('',*,*,#1747,.T.);
#1747 = EDGE_CURVE('',#1740,#1740,#1748,.T.);
#1748 = CIRCLE('',#1749,1.2);
#1749 = AXIS2_PLACEMENT_3D('',#1750,#1751,#1752);
#1750 = CARTESIAN_POINT('',(-9.225,10.,51.5));
#1751 = DIRECTION('',(0.,1.,-0.));
#1752 = DIRECTION('',(-1.,0.,0.));
#1753 = ORIENTED_EDGE('',*,*,#1739,.F.);
#1754 = ORIENTED_EDGE('',*,*,#1624,.F.);
#1755 = CYLINDRICAL_SURFACE('',#1756,1.2);
#1756 = AXIS2_PLACEMENT_3D('',#1757,#1758,#1759);
#1757 = CARTESIAN_POINT('',(-9.225,18.,51.5));
#1758 = DIRECTION('',(0.,1.,-2.2E-16));
#1759 = DIRECTION('',(-1.,0.,0.));
#1760 = ADVANCED_FACE('',(#1761),#1780,.F.);
#1761 = FACE_BOUND('',#1762,.F.);
#1762 = EDGE_LOOP('',(#1763,#1771,#1778,#1779));
#1763 = ORIENTED_EDGE('',*,*,#1764,.T.);
#1764 = EDGE_CURVE('',#1715,#1765,#1767,.T.);
#1765 = VERTEX_POINT('',#1766);
#1766 = CARTESIAN_POINT('',(15.025,10.,51.5));
#1767 = LINE('',#1768,#1769);
#1768 = CARTESIAN_POINT('',(15.025,18.,51.5));
#1769 = VECTOR('',#1770,1.);
#1770 = DIRECTION('',(0.,-1.,2.2E-16));
#1771 = ORIENTED_EDGE('',*,*,#1772,.T.);
#1772 = EDGE_CURVE('',#1765,#1765,#1773,.T.);
#1773 = CIRCLE('',#1774,1.2);
#1774 = AXIS2_PLACEMENT_3D('',#1775,#1776,#1777);
#1775 = CARTESIAN_POINT('',(16.225,10.,51.5));
#1776 = DIRECTION('',(0.,1.,-0.));
#1777 = DIRECTION('',(-1.,0.,0.));
#1778 = ORIENTED_EDGE('',*,*,#1764,.F.);
#1779 = ORIENTED_EDGE('',*,*,#1724,.F.);
#1780 = CYLINDRICAL_SURFACE('',#1781,1.2);
#1781 = AXIS2_PLACEMENT_3D('',#1782,#1783,#1784);
#1782 = CARTESIAN_POINT('',(16.225,18.,51.5));
#1783 = DIRECTION('',(0.,1.,-2.2E-16));
#1784 = DIRECTION('',(-1.,0.,0.));
#1785 = ADVANCED_FACE('',(#1786),#1789,.T.);
#1786 = FACE_BOUND('',#1787,.T.);
#1787 = EDGE_LOOP('',(#1788));
#1788 = ORIENTED_EDGE('',*,*,#1747,.T.);
#1789 = PLANE('',#1790);
#1790 = AXIS2_PLACEMENT_3D('',#1791,#1792,#1793);
#1791 = CARTESIAN_POINT('',(3.5,10.,51.5));
#1792 = DIRECTION('',(0.,1.,0.));
#1793 = DIRECTION('',(0.,0.,1.));
#1794 = ADVANCED_FACE('',(#1795),#1798,.T.);
#1795 = FACE_BOUND('',#1796,.T.);
#1796 = EDGE_LOOP('',(#1797));
#1797 = ORIENTED_EDGE('',*,*,#1772,.T.);
#1798 = PLANE('',#1799);
#1799 = AXIS2_PLACEMENT_3D('',#1800,#1801,#1802);
#1800 = CARTESIAN_POINT('',(3.5,10.,51.5));
#1801 = DIRECTION('',(0.,1.,0.));
#1802 = DIRECTION('',(0.,0.,1.));
#1803 = ( GEOMETRIC_REPRESENTATION_CONTEXT(3) 
GLOBAL_UNCERTAINTY_ASSIGNED_CONTEXT((#1807)) 
GLOBAL_UNIT_ASSIGNED_CONTEXT((#1804,#1805,#1806)) REPRESENTATION_CONTEXT
('Context #1','3D Context with UNIT and UNCERTAINTY') );
#1804 = ( LENGTH_UNIT() NAMED_UNIT(*) SI_UNIT(.MILLI.,.METRE.) );
#1805 = ( NAMED_UNIT(*) PLANE_ANGLE_UNIT() SI_UNIT($,.RADIAN.) );
#1806 = ( NAMED_UNIT(*) SI_UNIT($,.STERADIAN.) SOLID_ANGLE_UNIT() );
#1807 = UNCERTAINTY_MEASURE_WITH_UNIT(LENGTH_MEASURE(2.E-05),#1804,
  'distance_accuracy_value','confusion accuracy');
#1808 = PRODUCT_RELATED_PRODUCT_CATEGORY('part',$,(#7));
ENDSEC;
END-ISO-10303-21;
