ISO-10303-21;
HEADER;
FILE_DESCRIPTION(('FreeCAD Model'),'2;1');
FILE_NAME('Open CASCADE Shape Model','2026-08-28T13:04:05',('FreeCAD'),(
    'FreeCAD'),'Open CASCADE STEP processor 7.8','FreeCAD','Unknown');
FILE_SCHEMA(('AUTOMOTIVE_DESIGN { 1 0 10303 214 1 1 1 1 }'));
ENDSEC;
DATA;
#1 = APPLICATION_PROTOCOL_DEFINITION('international standard',
  'automotive_design',2000,#2);
#2 = APPLICATION_CONTEXT(
  'core data for automotive mechanical design processes');
#3 = SHAPE_DEFINITION_REPRESENTATION(#4,#10);
#4 = PRODUCT_DEFINITION_SHAPE('','',#5);
#5 = PRODUCT_DEFINITION('design','',#6,#9);
#6 = PRODUCT_DEFINITION_FORMATION('','',#7);
#7 = PRODUCT('Open CASCADE STEP translator 7.8 50',
  'Open CASCADE STEP translator 7.8 50','',(#8));
#8 = PRODUCT_CONTEXT('',#2,'mechanical');
#9 = PRODUCT_DEFINITION_CONTEXT('part definition',#2,'design');
#10 = ADVANCED_BREP_SHAPE_REPRESENTATION('',(#11,#15),#1803);
#11 = AXIS2_PLACEMENT_3D('',#12,#13,#14);
#12 = CARTESIAN_POINT('',(0.,0.,0.));
#13 = DIRECTION('',(0.,0.,1.));
#14 = DIRECTION('',(1.,0.,-0.));
#15 = MANIFOLD_SOLID_BREP('',#16);
#16 = CLOSED_SHELL('',(#17,#66,#119,#144,#191,#215,#261,#279,#303,#320,
    #337,#475,#499,#607,#646,#665,#682,#699,#716,#733,#750,#767,#798,
    #860,#884,#909,#933,#988,#1019,#1043,#1067,#1085,#1116,#1141,#1166,
    #1183,#1207,#1260,#1291,#1315,#1339,#1356,#1368,#1392,#1423,#1447,
    #1471,#1495,#1541,#1550,#1559,#1576,#1598,#1610,#1635,#1647,#1664,
    #1681,#1698,#1710,#1735,#1760,#1785,#1794));
#17 = ADVANCED_FACE('',(#18),#61,.F.);
#18 = FACE_BOUND('',#19,.F.);
#19 = EDGE_LOOP('',(#20,#30,#38,#46,#54));
#20 = ORIENTED_EDGE('',*,*,#21,.F.);
#21 = EDGE_CURVE('',#22,#24,#26,.T.);
#22 = VERTEX_POINT('',#23);
#23 = CARTESIAN_POINT('',(-20.,-12.,13.999999999913));
#24 = VERTEX_POINT('',#25);
#25 = CARTESIAN_POINT('',(-20.,-12.,3.999999999913));
#26 = LINE('',#27,#28);
#27 = CARTESIAN_POINT('',(-20.,-12.,13.999999999913));
#28 = VECTOR('',#29,1.);
#29 = DIRECTION('',(0.,0.,-1.));
#30 = ORIENTED_EDGE('',*,*,#31,.F.);
#31 = EDGE_CURVE('',#32,#22,#34,.T.);
#32 = VERTEX_POINT('',#33);
#33 = CARTESIAN_POINT('',(-20.,-18.,13.999999999913));
#34 = LINE('',#35,#36);
#35 = CARTESIAN_POINT('',(-20.,-18.,13.999999999913));
#36 = VECTOR('',#37,1.);
#37 = DIRECTION('',(0.,1.,0.));
#38 = ORIENTED_EDGE('',*,*,#39,.T.);
#39 = EDGE_CURVE('',#32,#40,#42,.T.);
#40 = VERTEX_POINT('',#41);
#41 = CARTESIAN_POINT('',(-20.,-18.,-1.000000000087));
#42 = LINE('',#43,#44);
#43 = CARTESIAN_POINT('',(-20.,-18.,13.999999999913));
#44 = VECTOR('',#45,1.);
#45 = DIRECTION('',(0.,0.,-1.));
#46 = ORIENTED_EDGE('',*,*,#47,.T.);
#47 = EDGE_CURVE('',#40,#48,#50,.T.);
#48 = VERTEX_POINT('',#49);
#49 = CARTESIAN_POINT('',(-20.,-17.,-1.000000000087));
#50 = LINE('',#51,#52);
#51 = CARTESIAN_POINT('',(-20.,-18.,-1.000000000087));
#52 = VECTOR('',#53,1.);
#53 = DIRECTION('',(0.,1.,0.));
#54 = ORIENTED_EDGE('',*,*,#55,.T.);
#55 = EDGE_CURVE('',#48,#24,#56,.T.);
#56 = CIRCLE('',#57,5.);
#57 = AXIS2_PLACEMENT_3D('',#58,#59,#60);
#58 = CARTESIAN_POINT('',(-20.,-17.,3.999999999913));
#59 = DIRECTION('',(1.,-0.,0.));
#60 = DIRECTION('',(0.,0.,-1.));
#61 = PLANE('',#62);
#62 = AXIS2_PLACEMENT_3D('',#63,#64,#65);
#63 = CARTESIAN_POINT('',(-20.,-18.,13.999999999913));
#64 = DIRECTION('',(1.,0.,0.));
#65 = DIRECTION('',(0.,1.,0.));
#66 = ADVANCED_FACE('',(#67,#92,#103),#114,.T.);
#67 = FACE_BOUND('',#68,.T.);
#68 = EDGE_LOOP('',(#69,#79,#85,#86));
#69 = ORIENTED_EDGE('',*,*,#70,.T.);
#70 = EDGE_CURVE('',#71,#73,#75,.T.);
#71 = VERTEX_POINT('',#72);
#72 = CARTESIAN_POINT('',(20.,-12.,13.999999999913));
#73 = VERTEX_POINT('',#74);
#74 = CARTESIAN_POINT('',(20.,-12.,3.999999999913));
#75 = LINE('',#76,#77);
#76 = CARTESIAN_POINT('',(20.,-12.,13.999999999913));
#77 = VECTOR('',#78,1.);
#78 = DIRECTION('',(0.,0.,-1.));
#79 = ORIENTED_EDGE('',*,*,#80,.T.);
#80 = EDGE_CURVE('',#73,#24,#81,.T.);
#81 = LINE('',#82,#83);
#82 = CARTESIAN_POINT('',(20.,-12.,3.999999999913));
#83 = VECTOR('',#84,1.);
#84 = DIRECTION('',(-1.,0.,0.));
#85 = ORIENTED_EDGE('',*,*,#21,.F.);
#86 = ORIENTED_EDGE('',*,*,#87,.F.);
#87 = EDGE_CURVE('',#71,#22,#88,.T.);
#88 = LINE('',#89,#90);
#89 = CARTESIAN_POINT('',(20.,-12.,13.999999999913));
#90 = VECTOR('',#91,1.);
#91 = DIRECTION('',(-1.,-0.,-0.));
#92 = FACE_BOUND('',#93,.T.);
#93 = EDGE_LOOP('',(#94));
#94 = ORIENTED_EDGE('',*,*,#95,.T.);
#95 = EDGE_CURVE('',#96,#96,#98,.T.);
#96 = VERTEX_POINT('',#97);
#97 = CARTESIAN_POINT('',(13.7,-12.,6.5));
#98 = CIRCLE('',#99,1.2);
#99 = AXIS2_PLACEMENT_3D('',#100,#101,#102);
#100 = CARTESIAN_POINT('',(12.5,-12.,6.5));
#101 = DIRECTION('',(0.,-1.,2.2E-16));
#102 = DIRECTION('',(1.,0.,0.));
#103 = FACE_BOUND('',#104,.T.);
#104 = EDGE_LOOP('',(#105));
#105 = ORIENTED_EDGE('',*,*,#106,.T.);
#106 = EDGE_CURVE('',#107,#107,#109,.T.);
#107 = VERTEX_POINT('',#108);
#108 = CARTESIAN_POINT('',(-11.3,-12.,6.5));
#109 = CIRCLE('',#110,1.2);
#110 = AXIS2_PLACEMENT_3D('',#111,#112,#113);
#111 = CARTESIAN_POINT('',(-12.5,-12.,6.5));
#112 = DIRECTION('',(0.,-1.,2.2E-16));
#113 = DIRECTION('',(1.,0.,0.));
#114 = PLANE('',#115);
#115 = AXIS2_PLACEMENT_3D('',#116,#117,#118);
#116 = CARTESIAN_POINT('',(20.,-12.,13.999999999913));
#117 = DIRECTION('',(0.,1.,0.));
#118 = DIRECTION('',(-1.,0.,0.));
#119 = ADVANCED_FACE('',(#120),#139,.T.);
#120 = FACE_BOUND('',#121,.F.);
#121 = EDGE_LOOP('',(#122,#131,#132,#133));
#122 = ORIENTED_EDGE('',*,*,#123,.T.);
#123 = EDGE_CURVE('',#124,#73,#126,.T.);
#124 = VERTEX_POINT('',#125);
#125 = CARTESIAN_POINT('',(20.,-17.,-1.000000000087));
#126 = CIRCLE('',#127,5.);
#127 = AXIS2_PLACEMENT_3D('',#128,#129,#130);
#128 = CARTESIAN_POINT('',(20.,-17.,3.999999999913));
#129 = DIRECTION('',(1.,-0.,0.));
#130 = DIRECTION('',(0.,0.,-1.));
#131 = ORIENTED_EDGE('',*,*,#80,.T.);
#132 = ORIENTED_EDGE('',*,*,#55,.F.);
#133 = ORIENTED_EDGE('',*,*,#134,.F.);
#134 = EDGE_CURVE('',#124,#48,#135,.T.);
#135 = LINE('',#136,#137);
#136 = CARTESIAN_POINT('',(20.,-17.,-1.000000000087));
#137 = VECTOR('',#138,1.);
#138 = DIRECTION('',(-1.,0.,0.));
#139 = CYLINDRICAL_SURFACE('',#140,5.);
#140 = AXIS2_PLACEMENT_3D('',#141,#142,#143);
#141 = CARTESIAN_POINT('',(20.,-17.,3.999999999913));
#142 = DIRECTION('',(-1.,0.,0.));
#143 = DIRECTION('',(0.,0.,-1.));
#144 = ADVANCED_FACE('',(#145),#186,.T.);
#145 = FACE_BOUND('',#146,.T.);
#146 = EDGE_LOOP('',(#147,#157,#165,#173,#179,#180));
#147 = ORIENTED_EDGE('',*,*,#148,.T.);
#148 = EDGE_CURVE('',#149,#151,#153,.T.);
#149 = VERTEX_POINT('',#150);
#150 = CARTESIAN_POINT('',(-20.,-18.,29.));
#151 = VERTEX_POINT('',#152);
#152 = CARTESIAN_POINT('',(-20.,9.,29.));
#153 = LINE('',#154,#155);
#154 = CARTESIAN_POINT('',(-20.,-18.,29.));
#155 = VECTOR('',#156,1.);
#156 = DIRECTION('',(0.,1.,0.));
#157 = ORIENTED_EDGE('',*,*,#158,.F.);
#158 = EDGE_CURVE('',#159,#151,#161,.T.);
#159 = VERTEX_POINT('',#160);
#160 = CARTESIAN_POINT('',(-20.,9.,17.));
#161 = LINE('',#162,#163);
#162 = CARTESIAN_POINT('',(-20.,9.,26.));
#163 = VECTOR('',#164,1.);
#164 = DIRECTION('',(0.,0.,1.));
#165 = ORIENTED_EDGE('',*,*,#166,.T.);
#166 = EDGE_CURVE('',#159,#167,#169,.T.);
#167 = VERTEX_POINT('',#168);
#168 = CARTESIAN_POINT('',(-20.,-12.,17.));
#169 = LINE('',#170,#171);
#170 = CARTESIAN_POINT('',(-20.,0.,17.));
#171 = VECTOR('',#172,1.);
#172 = DIRECTION('',(0.,-1.,0.));
#173 = ORIENTED_EDGE('',*,*,#174,.T.);
#174 = EDGE_CURVE('',#167,#22,#175,.T.);
#175 = LINE('',#176,#177);
#176 = CARTESIAN_POINT('',(-20.,-12.,17.));
#177 = VECTOR('',#178,1.);
#178 = DIRECTION('',(0.,0.,-1.));
#179 = ORIENTED_EDGE('',*,*,#31,.F.);
#180 = ORIENTED_EDGE('',*,*,#181,.F.);
#181 = EDGE_CURVE('',#149,#32,#182,.T.);
#182 = LINE('',#183,#184);
#183 = CARTESIAN_POINT('',(-20.,-18.,17.));
#184 = VECTOR('',#185,1.);
#185 = DIRECTION('',(0.,0.,-1.));
#186 = PLANE('',#187);
#187 = AXIS2_PLACEMENT_3D('',#188,#189,#190);
#188 = CARTESIAN_POINT('',(-20.,-5.25000000002,22.249999999977));
#189 = DIRECTION('',(-1.,-0.,-0.));
#190 = DIRECTION('',(0.,0.,-1.));
#191 = ADVANCED_FACE('',(#192),#210,.F.);
#192 = FACE_BOUND('',#193,.F.);
#193 = EDGE_LOOP('',(#194,#202,#203,#204));
#194 = ORIENTED_EDGE('',*,*,#195,.T.);
#195 = EDGE_CURVE('',#196,#124,#198,.T.);
#196 = VERTEX_POINT('',#197);
#197 = CARTESIAN_POINT('',(20.,-18.,-1.000000000087));
#198 = LINE('',#199,#200);
#199 = CARTESIAN_POINT('',(20.,-18.,-1.000000000087));
#200 = VECTOR('',#201,1.);
#201 = DIRECTION('',(0.,1.,0.));
#202 = ORIENTED_EDGE('',*,*,#134,.T.);
#203 = ORIENTED_EDGE('',*,*,#47,.F.);
#204 = ORIENTED_EDGE('',*,*,#205,.F.);
#205 = EDGE_CURVE('',#196,#40,#206,.T.);
#206 = LINE('',#207,#208);
#207 = CARTESIAN_POINT('',(20.,-18.,-1.000000000087));
#208 = VECTOR('',#209,1.);
#209 = DIRECTION('',(-1.,0.,0.));
#210 = PLANE('',#211);
#211 = AXIS2_PLACEMENT_3D('',#212,#213,#214);
#212 = CARTESIAN_POINT('',(0.,-15.,-1.000000000087));
#213 = DIRECTION('',(0.,0.,1.));
#214 = DIRECTION('',(1.,0.,0.));
#215 = ADVANCED_FACE('',(#216,#234,#245),#256,.F.);
#216 = FACE_BOUND('',#217,.F.);
#217 = EDGE_LOOP('',(#218,#226,#227,#228));
#218 = ORIENTED_EDGE('',*,*,#219,.T.);
#219 = EDGE_CURVE('',#220,#196,#222,.T.);
#220 = VERTEX_POINT('',#221);
#221 = CARTESIAN_POINT('',(20.,-18.,13.999999999913));
#222 = LINE('',#223,#224);
#223 = CARTESIAN_POINT('',(20.,-18.,13.999999999913));
#224 = VECTOR('',#225,1.);
#225 = DIRECTION('',(0.,0.,-1.));
#226 = ORIENTED_EDGE('',*,*,#205,.T.);
#227 = ORIENTED_EDGE('',*,*,#39,.F.);
#228 = ORIENTED_EDGE('',*,*,#229,.F.);
#229 = EDGE_CURVE('',#220,#32,#230,.T.);
#230 = LINE('',#231,#232);
#231 = CARTESIAN_POINT('',(20.,-18.,13.999999999913));
#232 = VECTOR('',#233,1.);
#233 = DIRECTION('',(-1.,-0.,-0.));
#234 = FACE_BOUND('',#235,.F.);
#235 = EDGE_LOOP('',(#236));
#236 = ORIENTED_EDGE('',*,*,#237,.T.);
#237 = EDGE_CURVE('',#238,#238,#240,.T.);
#238 = VERTEX_POINT('',#239);
#239 = CARTESIAN_POINT('',(13.7,-18.,6.5));
#240 = CIRCLE('',#241,1.2);
#241 = AXIS2_PLACEMENT_3D('',#242,#243,#244);
#242 = CARTESIAN_POINT('',(12.5,-18.,6.5));
#243 = DIRECTION('',(0.,-1.,0.));
#244 = DIRECTION('',(1.,0.,0.));
#245 = FACE_BOUND('',#246,.F.);
#246 = EDGE_LOOP('',(#247));
#247 = ORIENTED_EDGE('',*,*,#248,.T.);
#248 = EDGE_CURVE('',#249,#249,#251,.T.);
#249 = VERTEX_POINT('',#250);
#250 = CARTESIAN_POINT('',(-11.3,-18.,6.5));
#251 = CIRCLE('',#252,1.2);
#252 = AXIS2_PLACEMENT_3D('',#253,#254,#255);
#253 = CARTESIAN_POINT('',(-12.5,-18.,6.5));
#254 = DIRECTION('',(0.,-1.,0.));
#255 = DIRECTION('',(1.,0.,0.));
#256 = PLANE('',#257);
#257 = AXIS2_PLACEMENT_3D('',#258,#259,#260);
#258 = CARTESIAN_POINT('',(20.,-18.,13.999999999913));
#259 = DIRECTION('',(0.,1.,0.));
#260 = DIRECTION('',(-1.,0.,0.));
#261 = ADVANCED_FACE('',(#262),#274,.T.);
#262 = FACE_BOUND('',#263,.T.);
#263 = EDGE_LOOP('',(#264,#265,#271,#272,#273));
#264 = ORIENTED_EDGE('',*,*,#70,.F.);
#265 = ORIENTED_EDGE('',*,*,#266,.F.);
#266 = EDGE_CURVE('',#220,#71,#267,.T.);
#267 = LINE('',#268,#269);
#268 = CARTESIAN_POINT('',(20.,-18.,13.999999999913));
#269 = VECTOR('',#270,1.);
#270 = DIRECTION('',(0.,1.,0.));
#271 = ORIENTED_EDGE('',*,*,#219,.T.);
#272 = ORIENTED_EDGE('',*,*,#195,.T.);
#273 = ORIENTED_EDGE('',*,*,#123,.T.);
#274 = PLANE('',#275);
#275 = AXIS2_PLACEMENT_3D('',#276,#277,#278);
#276 = CARTESIAN_POINT('',(20.,-18.,13.999999999913));
#277 = DIRECTION('',(1.,0.,0.));
#278 = DIRECTION('',(0.,1.,0.));
#279 = ADVANCED_FACE('',(#280),#298,.F.);
#280 = FACE_BOUND('',#281,.F.);
#281 = EDGE_LOOP('',(#282,#290,#291,#292));
#282 = ORIENTED_EDGE('',*,*,#283,.T.);
#283 = EDGE_CURVE('',#284,#167,#286,.T.);
#284 = VERTEX_POINT('',#285);
#285 = CARTESIAN_POINT('',(20.,-12.,17.));
#286 = LINE('',#287,#288);
#287 = CARTESIAN_POINT('',(20.,-12.,17.));
#288 = VECTOR('',#289,1.);
#289 = DIRECTION('',(-1.,-0.,-0.));
#290 = ORIENTED_EDGE('',*,*,#174,.T.);
#291 = ORIENTED_EDGE('',*,*,#87,.F.);
#292 = ORIENTED_EDGE('',*,*,#293,.F.);
#293 = EDGE_CURVE('',#284,#71,#294,.T.);
#294 = LINE('',#295,#296);
#295 = CARTESIAN_POINT('',(20.,-12.,17.));
#296 = VECTOR('',#297,1.);
#297 = DIRECTION('',(0.,0.,-1.));
#298 = PLANE('',#299);
#299 = AXIS2_PLACEMENT_3D('',#300,#301,#302);
#300 = CARTESIAN_POINT('',(20.,-12.,17.));
#301 = DIRECTION('',(0.,-1.,0.));
#302 = DIRECTION('',(0.,0.,-1.));
#303 = ADVANCED_FACE('',(#304),#315,.F.);
#304 = FACE_BOUND('',#305,.F.);
#305 = EDGE_LOOP('',(#306,#307,#313,#314));
#306 = ORIENTED_EDGE('',*,*,#237,.F.);
#307 = ORIENTED_EDGE('',*,*,#308,.T.);
#308 = EDGE_CURVE('',#238,#96,#309,.T.);
#309 = LINE('',#310,#311);
#310 = CARTESIAN_POINT('',(13.7,-18.,6.5));
#311 = VECTOR('',#312,1.);
#312 = DIRECTION('',(0.,1.,-2.2E-16));
#313 = ORIENTED_EDGE('',*,*,#95,.T.);
#314 = ORIENTED_EDGE('',*,*,#308,.F.);
#315 = CYLINDRICAL_SURFACE('',#316,1.2);
#316 = AXIS2_PLACEMENT_3D('',#317,#318,#319);
#317 = CARTESIAN_POINT('',(12.5,-18.,6.5));
#318 = DIRECTION('',(0.,-1.,2.2E-16));
#319 = DIRECTION('',(1.,0.,0.));
#320 = ADVANCED_FACE('',(#321),#332,.F.);
#321 = FACE_BOUND('',#322,.F.);
#322 = EDGE_LOOP('',(#323,#324,#330,#331));
#323 = ORIENTED_EDGE('',*,*,#248,.F.);
#324 = ORIENTED_EDGE('',*,*,#325,.T.);
#325 = EDGE_CURVE('',#249,#107,#326,.T.);
#326 = LINE('',#327,#328);
#327 = CARTESIAN_POINT('',(-11.3,-18.,6.5));
#328 = VECTOR('',#329,1.);
#329 = DIRECTION('',(0.,1.,-2.2E-16));
#330 = ORIENTED_EDGE('',*,*,#106,.T.);
#331 = ORIENTED_EDGE('',*,*,#325,.F.);
#332 = CYLINDRICAL_SURFACE('',#333,1.2);
#333 = AXIS2_PLACEMENT_3D('',#334,#335,#336);
#334 = CARTESIAN_POINT('',(-12.5,-18.,6.5));
#335 = DIRECTION('',(0.,-1.,2.2E-16));
#336 = DIRECTION('',(1.,0.,0.));
#337 = ADVANCED_FACE('',(#338),#470,.T.);
#338 = FACE_BOUND('',#339,.T.);
#339 = EDGE_LOOP('',(#340,#348,#356,#365,#373,#381,#389,#398,#406,#414,
    #422,#430,#439,#447,#455,#463,#469));
#340 = ORIENTED_EDGE('',*,*,#341,.F.);
#341 = EDGE_CURVE('',#342,#149,#344,.T.);
#342 = VERTEX_POINT('',#343);
#343 = CARTESIAN_POINT('',(20.,-18.,29.));
#344 = LINE('',#345,#346);
#345 = CARTESIAN_POINT('',(20.,-18.,29.));
#346 = VECTOR('',#347,1.);
#347 = DIRECTION('',(-1.,-0.,-0.));
#348 = ORIENTED_EDGE('',*,*,#349,.F.);
#349 = EDGE_CURVE('',#350,#342,#352,.T.);
#350 = VERTEX_POINT('',#351);
#351 = CARTESIAN_POINT('',(20.,0.999999999991,29.));
#352 = LINE('',#353,#354);
#353 = CARTESIAN_POINT('',(20.,0.999999999991,29.));
#354 = VECTOR('',#355,1.);
#355 = DIRECTION('',(0.,-1.,0.));
#356 = ORIENTED_EDGE('',*,*,#357,.F.);
#357 = EDGE_CURVE('',#358,#350,#360,.T.);
#358 = VERTEX_POINT('',#359);
#359 = CARTESIAN_POINT('',(19.,1.999999999991,29.));
#360 = CIRCLE('',#361,1.);
#361 = AXIS2_PLACEMENT_3D('',#362,#363,#364);
#362 = CARTESIAN_POINT('',(19.,0.999999999991,29.));
#363 = DIRECTION('',(0.,0.,-1.));
#364 = DIRECTION('',(0.,1.,0.));
#365 = ORIENTED_EDGE('',*,*,#366,.F.);
#366 = EDGE_CURVE('',#367,#358,#369,.T.);
#367 = VERTEX_POINT('',#368);
#368 = CARTESIAN_POINT('',(17.999999999999,1.999999999991,29.));
#369 = LINE('',#370,#371);
#370 = CARTESIAN_POINT('',(17.999999999999,1.999999999991,29.));
#371 = VECTOR('',#372,1.);
#372 = DIRECTION('',(1.,0.,0.));
#373 = ORIENTED_EDGE('',*,*,#374,.F.);
#374 = EDGE_CURVE('',#375,#367,#377,.T.);
#375 = VERTEX_POINT('',#376);
#376 = CARTESIAN_POINT('',(17.999999999999,6.999999999991,29.));
#377 = LINE('',#378,#379);
#378 = CARTESIAN_POINT('',(17.999999999999,6.999999999991,29.));
#379 = VECTOR('',#380,1.);
#380 = DIRECTION('',(0.,-1.,0.));
#381 = ORIENTED_EDGE('',*,*,#382,.F.);
#382 = EDGE_CURVE('',#383,#375,#385,.T.);
#383 = VERTEX_POINT('',#384);
#384 = CARTESIAN_POINT('',(19.,6.999999999991,29.));
#385 = LINE('',#386,#387);
#386 = CARTESIAN_POINT('',(19.,6.999999999991,29.));
#387 = VECTOR('',#388,1.);
#388 = DIRECTION('',(-1.,0.,0.));
#389 = ORIENTED_EDGE('',*,*,#390,.F.);
#390 = EDGE_CURVE('',#391,#383,#393,.T.);
#391 = VERTEX_POINT('',#392);
#392 = CARTESIAN_POINT('',(20.,7.999999999991,29.));
#393 = CIRCLE('',#394,1.);
#394 = AXIS2_PLACEMENT_3D('',#395,#396,#397);
#395 = CARTESIAN_POINT('',(19.,7.999999999991,29.));
#396 = DIRECTION('',(-0.,-0.,-1.));
#397 = DIRECTION('',(0.,-1.,0.));
#398 = ORIENTED_EDGE('',*,*,#399,.F.);
#399 = EDGE_CURVE('',#400,#391,#402,.T.);
#400 = VERTEX_POINT('',#401);
#401 = CARTESIAN_POINT('',(20.,18.,29.));
#402 = LINE('',#403,#404);
#403 = CARTESIAN_POINT('',(20.,18.,29.));
#404 = VECTOR('',#405,1.);
#405 = DIRECTION('',(0.,-1.,0.));
#406 = ORIENTED_EDGE('',*,*,#407,.F.);
#407 = EDGE_CURVE('',#408,#400,#410,.T.);
#408 = VERTEX_POINT('',#409);
#409 = CARTESIAN_POINT('',(12.45,18.,29.));
#410 = LINE('',#411,#412);
#411 = CARTESIAN_POINT('',(12.45,18.,29.));
#412 = VECTOR('',#413,1.);
#413 = DIRECTION('',(1.,0.,0.));
#414 = ORIENTED_EDGE('',*,*,#415,.F.);
#415 = EDGE_CURVE('',#416,#408,#418,.T.);
#416 = VERTEX_POINT('',#417);
#417 = CARTESIAN_POINT('',(12.45,0.,29.));
#418 = LINE('',#419,#420);
#419 = CARTESIAN_POINT('',(12.45,0.,29.));
#420 = VECTOR('',#421,1.);
#421 = DIRECTION('',(0.,1.,0.));
#422 = ORIENTED_EDGE('',*,*,#423,.F.);
#423 = EDGE_CURVE('',#424,#416,#426,.T.);
#424 = VERTEX_POINT('',#425);
#425 = CARTESIAN_POINT('',(10.5,0.,29.));
#426 = LINE('',#427,#428);
#427 = CARTESIAN_POINT('',(10.5,0.,29.));
#428 = VECTOR('',#429,1.);
#429 = DIRECTION('',(1.,0.,0.));
#430 = ORIENTED_EDGE('',*,*,#431,.T.);
#431 = EDGE_CURVE('',#424,#432,#434,.T.);
#432 = VERTEX_POINT('',#433);
#433 = CARTESIAN_POINT('',(-3.5,-1.E-15,29.));
#434 = CIRCLE('',#435,7.);
#435 = AXIS2_PLACEMENT_3D('',#436,#437,#438);
#436 = CARTESIAN_POINT('',(3.5,0.,29.));
#437 = DIRECTION('',(0.,0.,-1.));
#438 = DIRECTION('',(1.,0.,0.));
#439 = ORIENTED_EDGE('',*,*,#440,.F.);
#440 = EDGE_CURVE('',#441,#432,#443,.T.);
#441 = VERTEX_POINT('',#442);
#442 = CARTESIAN_POINT('',(-5.45,0.,29.));
#443 = LINE('',#444,#445);
#444 = CARTESIAN_POINT('',(-5.45,0.,29.));
#445 = VECTOR('',#446,1.);
#446 = DIRECTION('',(1.,-4.4E-16,0.));
#447 = ORIENTED_EDGE('',*,*,#448,.T.);
#448 = EDGE_CURVE('',#441,#449,#451,.T.);
#449 = VERTEX_POINT('',#450);
#450 = CARTESIAN_POINT('',(-5.45,18.,29.));
#451 = LINE('',#452,#453);
#452 = CARTESIAN_POINT('',(-5.45,0.,29.));
#453 = VECTOR('',#454,1.);
#454 = DIRECTION('',(0.,1.,0.));
#455 = ORIENTED_EDGE('',*,*,#456,.F.);
#456 = EDGE_CURVE('',#457,#449,#459,.T.);
#457 = VERTEX_POINT('',#458);
#458 = CARTESIAN_POINT('',(-13.,18.,29.));
#459 = LINE('',#460,#461);
#460 = CARTESIAN_POINT('',(-13.,18.,29.));
#461 = VECTOR('',#462,1.);
#462 = DIRECTION('',(1.,0.,0.));
#463 = ORIENTED_EDGE('',*,*,#464,.T.);
#464 = EDGE_CURVE('',#457,#151,#465,.T.);
#465 = LINE('',#466,#467);
#466 = CARTESIAN_POINT('',(-13.,18.,29.));
#467 = VECTOR('',#468,1.);
#468 = DIRECTION('',(-0.613940613515,-0.789352217376,0.));
#469 = ORIENTED_EDGE('',*,*,#148,.F.);
#470 = PLANE('',#471);
#471 = AXIS2_PLACEMENT_3D('',#472,#473,#474);
#472 = CARTESIAN_POINT('',(1.580370362659,-0.840641882864,29.));
#473 = DIRECTION('',(0.,0.,1.));
#474 = DIRECTION('',(1.,0.,0.));
#475 = ADVANCED_FACE('',(#476),#494,.T.);
#476 = FACE_BOUND('',#477,.T.);
#477 = EDGE_LOOP('',(#478,#486,#487,#488));
#478 = ORIENTED_EDGE('',*,*,#479,.T.);
#479 = EDGE_CURVE('',#480,#159,#482,.T.);
#480 = VERTEX_POINT('',#481);
#481 = CARTESIAN_POINT('',(-13.,18.,17.));
#482 = LINE('',#483,#484);
#483 = CARTESIAN_POINT('',(-13.,18.,17.));
#484 = VECTOR('',#485,1.);
#485 = DIRECTION('',(-0.613940613515,-0.789352217376,0.));
#486 = ORIENTED_EDGE('',*,*,#158,.T.);
#487 = ORIENTED_EDGE('',*,*,#464,.F.);
#488 = ORIENTED_EDGE('',*,*,#489,.F.);
#489 = EDGE_CURVE('',#480,#457,#490,.T.);
#490 = LINE('',#491,#492);
#491 = CARTESIAN_POINT('',(-13.,18.,26.));
#492 = VECTOR('',#493,1.);
#493 = DIRECTION('',(0.,0.,1.));
#494 = PLANE('',#495);
#495 = AXIS2_PLACEMENT_3D('',#496,#497,#498);
#496 = CARTESIAN_POINT('',(-16.5,13.5,23.));
#497 = DIRECTION('',(-0.789352217376,0.613940613515,0.));
#498 = DIRECTION('',(-0.613940613515,-0.789352217376,0.));
#499 = ADVANCED_FACE('',(#500),#602,.F.);
#500 = FACE_BOUND('',#501,.F.);
#501 = EDGE_LOOP('',(#502,#513,#521,#529,#537,#546,#554,#560,#561,#562,
    #563,#571,#580,#588,#596));
#502 = ORIENTED_EDGE('',*,*,#503,.F.);
#503 = EDGE_CURVE('',#504,#506,#508,.T.);
#504 = VERTEX_POINT('',#505);
#505 = CARTESIAN_POINT('',(20.,7.999999999991,17.));
#506 = VERTEX_POINT('',#507);
#507 = CARTESIAN_POINT('',(19.,6.999999999991,17.));
#508 = CIRCLE('',#509,1.);
#509 = AXIS2_PLACEMENT_3D('',#510,#511,#512);
#510 = CARTESIAN_POINT('',(19.,7.999999999991,17.));
#511 = DIRECTION('',(-0.,-0.,-1.));
#512 = DIRECTION('',(0.,-1.,0.));
#513 = ORIENTED_EDGE('',*,*,#514,.F.);
#514 = EDGE_CURVE('',#515,#504,#517,.T.);
#515 = VERTEX_POINT('',#516);
#516 = CARTESIAN_POINT('',(20.,18.,17.));
#517 = LINE('',#518,#519);
#518 = CARTESIAN_POINT('',(20.,18.,17.));
#519 = VECTOR('',#520,1.);
#520 = DIRECTION('',(0.,-1.,0.));
#521 = ORIENTED_EDGE('',*,*,#522,.F.);
#522 = EDGE_CURVE('',#523,#515,#525,.T.);
#523 = VERTEX_POINT('',#524);
#524 = CARTESIAN_POINT('',(12.45,18.,17.));
#525 = LINE('',#526,#527);
#526 = CARTESIAN_POINT('',(12.45,18.,17.));
#527 = VECTOR('',#528,1.);
#528 = DIRECTION('',(1.,0.,0.));
#529 = ORIENTED_EDGE('',*,*,#530,.F.);
#530 = EDGE_CURVE('',#531,#523,#533,.T.);
#531 = VERTEX_POINT('',#532);
#532 = CARTESIAN_POINT('',(12.45,-1.E-15,17.));
#533 = LINE('',#534,#535);
#534 = CARTESIAN_POINT('',(12.45,0.,17.));
#535 = VECTOR('',#536,1.);
#536 = DIRECTION('',(0.,1.,0.));
#537 = ORIENTED_EDGE('',*,*,#538,.F.);
#538 = EDGE_CURVE('',#539,#531,#541,.T.);
#539 = VERTEX_POINT('',#540);
#540 = CARTESIAN_POINT('',(-5.45,1.E-15,17.));
#541 = CIRCLE('',#542,8.95);
#542 = AXIS2_PLACEMENT_3D('',#543,#544,#545);
#543 = CARTESIAN_POINT('',(3.5,0.,17.));
#544 = DIRECTION('',(0.,0.,1.));
#545 = DIRECTION('',(1.,0.,0.));
#546 = ORIENTED_EDGE('',*,*,#547,.T.);
#547 = EDGE_CURVE('',#539,#548,#550,.T.);
#548 = VERTEX_POINT('',#549);
#549 = CARTESIAN_POINT('',(-5.45,18.,17.));
#550 = LINE('',#551,#552);
#551 = CARTESIAN_POINT('',(-5.45,0.,17.));
#552 = VECTOR('',#553,1.);
#553 = DIRECTION('',(0.,1.,0.));
#554 = ORIENTED_EDGE('',*,*,#555,.F.);
#555 = EDGE_CURVE('',#480,#548,#556,.T.);
#556 = LINE('',#557,#558);
#557 = CARTESIAN_POINT('',(-13.,18.,17.));
#558 = VECTOR('',#559,1.);
#559 = DIRECTION('',(1.,0.,0.));
#560 = ORIENTED_EDGE('',*,*,#479,.T.);
#561 = ORIENTED_EDGE('',*,*,#166,.T.);
#562 = ORIENTED_EDGE('',*,*,#283,.F.);
#563 = ORIENTED_EDGE('',*,*,#564,.F.);
#564 = EDGE_CURVE('',#565,#284,#567,.T.);
#565 = VERTEX_POINT('',#566);
#566 = CARTESIAN_POINT('',(20.,0.999999999991,17.));
#567 = LINE('',#568,#569);
#568 = CARTESIAN_POINT('',(20.,18.,17.));
#569 = VECTOR('',#570,1.);
#570 = DIRECTION('',(0.,-1.,0.));
#571 = ORIENTED_EDGE('',*,*,#572,.F.);
#572 = EDGE_CURVE('',#573,#565,#575,.T.);
#573 = VERTEX_POINT('',#574);
#574 = CARTESIAN_POINT('',(19.,1.999999999991,17.));
#575 = CIRCLE('',#576,1.);
#576 = AXIS2_PLACEMENT_3D('',#577,#578,#579);
#577 = CARTESIAN_POINT('',(19.,0.999999999991,17.));
#578 = DIRECTION('',(0.,0.,-1.));
#579 = DIRECTION('',(0.,1.,0.));
#580 = ORIENTED_EDGE('',*,*,#581,.F.);
#581 = EDGE_CURVE('',#582,#573,#584,.T.);
#582 = VERTEX_POINT('',#583);
#583 = CARTESIAN_POINT('',(17.999999999999,1.999999999991,17.));
#584 = LINE('',#585,#586);
#585 = CARTESIAN_POINT('',(9.688052094688,1.999999999991,17.));
#586 = VECTOR('',#587,1.);
#587 = DIRECTION('',(1.,0.,0.));
#588 = ORIENTED_EDGE('',*,*,#589,.F.);
#589 = EDGE_CURVE('',#590,#582,#592,.T.);
#590 = VERTEX_POINT('',#591);
#591 = CARTESIAN_POINT('',(17.999999999999,6.999999999991,17.));
#592 = LINE('',#593,#594);
#593 = CARTESIAN_POINT('',(17.999999999999,2.900790706786,17.));
#594 = VECTOR('',#595,1.);
#595 = DIRECTION('',(0.,-1.,0.));
#596 = ORIENTED_EDGE('',*,*,#597,.F.);
#597 = EDGE_CURVE('',#506,#590,#598,.T.);
#598 = LINE('',#599,#600);
#599 = CARTESIAN_POINT('',(11.688052094688,6.999999999991,17.));
#600 = VECTOR('',#601,1.);
#601 = DIRECTION('',(-1.,0.,0.));
#602 = PLANE('',#603);
#603 = AXIS2_PLACEMENT_3D('',#604,#605,#606);
#604 = CARTESIAN_POINT('',(1.376104189376,-1.19841858642,17.));
#605 = DIRECTION('',(0.,0.,1.));
#606 = DIRECTION('',(1.,0.,0.));
#607 = ADVANCED_FACE('',(#608,#619,#630),#641,.T.);
#608 = FACE_BOUND('',#609,.T.);
#609 = EDGE_LOOP('',(#610,#611,#612,#618));
#610 = ORIENTED_EDGE('',*,*,#181,.T.);
#611 = ORIENTED_EDGE('',*,*,#229,.F.);
#612 = ORIENTED_EDGE('',*,*,#613,.T.);
#613 = EDGE_CURVE('',#220,#342,#614,.T.);
#614 = LINE('',#615,#616);
#615 = CARTESIAN_POINT('',(20.,-18.,26.));
#616 = VECTOR('',#617,1.);
#617 = DIRECTION('',(0.,0.,1.));
#618 = ORIENTED_EDGE('',*,*,#341,.T.);
#619 = FACE_BOUND('',#620,.T.);
#620 = EDGE_LOOP('',(#621));
#621 = ORIENTED_EDGE('',*,*,#622,.F.);
#622 = EDGE_CURVE('',#623,#623,#625,.T.);
#623 = VERTEX_POINT('',#624);
#624 = CARTESIAN_POINT('',(-11.3,-18.,21.5));
#625 = CIRCLE('',#626,1.2);
#626 = AXIS2_PLACEMENT_3D('',#627,#628,#629);
#627 = CARTESIAN_POINT('',(-12.5,-18.,21.5));
#628 = DIRECTION('',(0.,-1.,0.));
#629 = DIRECTION('',(1.,0.,0.));
#630 = FACE_BOUND('',#631,.T.);
#631 = EDGE_LOOP('',(#632));
#632 = ORIENTED_EDGE('',*,*,#633,.F.);
#633 = EDGE_CURVE('',#634,#634,#636,.T.);
#634 = VERTEX_POINT('',#635);
#635 = CARTESIAN_POINT('',(13.699999999999,-18.,21.5));
#636 = CIRCLE('',#637,1.2);
#637 = AXIS2_PLACEMENT_3D('',#638,#639,#640);
#638 = CARTESIAN_POINT('',(12.499999999999,-18.,21.5));
#639 = DIRECTION('',(0.,-1.,0.));
#640 = DIRECTION('',(1.,0.,0.));
#641 = PLANE('',#642);
#642 = AXIS2_PLACEMENT_3D('',#643,#644,#645);
#643 = CARTESIAN_POINT('',(0.,-18.,21.499999999956));
#644 = DIRECTION('',(0.,-1.,4.5E-16));
#645 = DIRECTION('',(0.,-4.5E-16,-1.));
#646 = ADVANCED_FACE('',(#647),#660,.T.);
#647 = FACE_BOUND('',#648,.T.);
#648 = EDGE_LOOP('',(#649,#650,#656,#657,#658,#659));
#649 = ORIENTED_EDGE('',*,*,#564,.F.);
#650 = ORIENTED_EDGE('',*,*,#651,.F.);
#651 = EDGE_CURVE('',#350,#565,#652,.T.);
#652 = LINE('',#653,#654);
#653 = CARTESIAN_POINT('',(20.,0.999999999991,26.));
#654 = VECTOR('',#655,1.);
#655 = DIRECTION('',(0.,0.,-1.));
#656 = ORIENTED_EDGE('',*,*,#349,.T.);
#657 = ORIENTED_EDGE('',*,*,#613,.F.);
#658 = ORIENTED_EDGE('',*,*,#266,.T.);
#659 = ORIENTED_EDGE('',*,*,#293,.F.);
#660 = PLANE('',#661);
#661 = AXIS2_PLACEMENT_3D('',#662,#663,#664);
#662 = CARTESIAN_POINT('',(20.,-9.073529411784,22.073529411736));
#663 = DIRECTION('',(1.,0.,0.));
#664 = DIRECTION('',(0.,0.,1.));
#665 = ADVANCED_FACE('',(#666),#677,.T.);
#666 = FACE_BOUND('',#667,.T.);
#667 = EDGE_LOOP('',(#668,#669,#670,#671));
#668 = ORIENTED_EDGE('',*,*,#357,.T.);
#669 = ORIENTED_EDGE('',*,*,#651,.T.);
#670 = ORIENTED_EDGE('',*,*,#572,.F.);
#671 = ORIENTED_EDGE('',*,*,#672,.T.);
#672 = EDGE_CURVE('',#573,#358,#673,.T.);
#673 = LINE('',#674,#675);
#674 = CARTESIAN_POINT('',(19.,1.999999999991,26.));
#675 = VECTOR('',#676,1.);
#676 = DIRECTION('',(0.,0.,1.));
#677 = CYLINDRICAL_SURFACE('',#678,1.);
#678 = AXIS2_PLACEMENT_3D('',#679,#680,#681);
#679 = CARTESIAN_POINT('',(19.,0.999999999991,26.));
#680 = DIRECTION('',(0.,0.,-1.));
#681 = DIRECTION('',(0.,1.,0.));
#682 = ADVANCED_FACE('',(#683),#694,.T.);
#683 = FACE_BOUND('',#684,.T.);
#684 = EDGE_LOOP('',(#685,#686,#692,#693));
#685 = ORIENTED_EDGE('',*,*,#581,.F.);
#686 = ORIENTED_EDGE('',*,*,#687,.T.);
#687 = EDGE_CURVE('',#582,#367,#688,.T.);
#688 = LINE('',#689,#690);
#689 = CARTESIAN_POINT('',(17.999999999999,1.999999999991,26.));
#690 = VECTOR('',#691,1.);
#691 = DIRECTION('',(0.,0.,1.));
#692 = ORIENTED_EDGE('',*,*,#366,.T.);
#693 = ORIENTED_EDGE('',*,*,#672,.F.);
#694 = PLANE('',#695);
#695 = AXIS2_PLACEMENT_3D('',#696,#697,#698);
#696 = CARTESIAN_POINT('',(18.5,1.999999999991,23.));
#697 = DIRECTION('',(0.,1.,0.));
#698 = DIRECTION('',(0.,0.,1.));
#699 = ADVANCED_FACE('',(#700),#711,.T.);
#700 = FACE_BOUND('',#701,.T.);
#701 = EDGE_LOOP('',(#702,#703,#709,#710));
#702 = ORIENTED_EDGE('',*,*,#589,.F.);
#703 = ORIENTED_EDGE('',*,*,#704,.T.);
#704 = EDGE_CURVE('',#590,#375,#705,.T.);
#705 = LINE('',#706,#707);
#706 = CARTESIAN_POINT('',(17.999999999999,6.999999999991,26.));
#707 = VECTOR('',#708,1.);
#708 = DIRECTION('',(0.,0.,1.));
#709 = ORIENTED_EDGE('',*,*,#374,.T.);
#710 = ORIENTED_EDGE('',*,*,#687,.F.);
#711 = PLANE('',#712);
#712 = AXIS2_PLACEMENT_3D('',#713,#714,#715);
#713 = CARTESIAN_POINT('',(17.999999999999,4.499999999991,23.));
#714 = DIRECTION('',(1.,0.,0.));
#715 = DIRECTION('',(0.,0.,1.));
#716 = ADVANCED_FACE('',(#717),#728,.T.);
#717 = FACE_BOUND('',#718,.T.);
#718 = EDGE_LOOP('',(#719,#725,#726,#727));
#719 = ORIENTED_EDGE('',*,*,#720,.T.);
#720 = EDGE_CURVE('',#506,#383,#721,.T.);
#721 = LINE('',#722,#723);
#722 = CARTESIAN_POINT('',(19.,6.999999999991,17.));
#723 = VECTOR('',#724,1.);
#724 = DIRECTION('',(0.,0.,1.));
#725 = ORIENTED_EDGE('',*,*,#382,.T.);
#726 = ORIENTED_EDGE('',*,*,#704,.F.);
#727 = ORIENTED_EDGE('',*,*,#597,.F.);
#728 = PLANE('',#729);
#729 = AXIS2_PLACEMENT_3D('',#730,#731,#732);
#730 = CARTESIAN_POINT('',(18.5,6.999999999991,23.));
#731 = DIRECTION('',(-0.,-1.,-0.));
#732 = DIRECTION('',(0.,0.,-1.));
#733 = ADVANCED_FACE('',(#734),#745,.T.);
#734 = FACE_BOUND('',#735,.F.);
#735 = EDGE_LOOP('',(#736,#742,#743,#744));
#736 = ORIENTED_EDGE('',*,*,#737,.F.);
#737 = EDGE_CURVE('',#504,#391,#738,.T.);
#738 = LINE('',#739,#740);
#739 = CARTESIAN_POINT('',(20.,7.999999999991,26.));
#740 = VECTOR('',#741,1.);
#741 = DIRECTION('',(0.,0.,1.));
#742 = ORIENTED_EDGE('',*,*,#503,.T.);
#743 = ORIENTED_EDGE('',*,*,#720,.T.);
#744 = ORIENTED_EDGE('',*,*,#390,.F.);
#745 = CYLINDRICAL_SURFACE('',#746,1.);
#746 = AXIS2_PLACEMENT_3D('',#747,#748,#749);
#747 = CARTESIAN_POINT('',(19.,7.999999999991,17.));
#748 = DIRECTION('',(0.,0.,1.));
#749 = DIRECTION('',(1.,0.,0.));
#750 = ADVANCED_FACE('',(#751),#762,.T.);
#751 = FACE_BOUND('',#752,.T.);
#752 = EDGE_LOOP('',(#753,#754,#760,#761));
#753 = ORIENTED_EDGE('',*,*,#514,.F.);
#754 = ORIENTED_EDGE('',*,*,#755,.T.);
#755 = EDGE_CURVE('',#515,#400,#756,.T.);
#756 = LINE('',#757,#758);
#757 = CARTESIAN_POINT('',(20.,18.,17.));
#758 = VECTOR('',#759,1.);
#759 = DIRECTION('',(0.,0.,1.));
#760 = ORIENTED_EDGE('',*,*,#399,.T.);
#761 = ORIENTED_EDGE('',*,*,#737,.F.);
#762 = PLANE('',#763);
#763 = AXIS2_PLACEMENT_3D('',#764,#765,#766);
#764 = CARTESIAN_POINT('',(20.,12.999999999996,23.));
#765 = DIRECTION('',(1.,0.,0.));
#766 = DIRECTION('',(0.,0.,1.));
#767 = ADVANCED_FACE('',(#768),#793,.F.);
#768 = FACE_BOUND('',#769,.F.);
#769 = EDGE_LOOP('',(#770,#778,#786,#792));
#770 = ORIENTED_EDGE('',*,*,#771,.T.);
#771 = EDGE_CURVE('',#408,#772,#774,.T.);
#772 = VERTEX_POINT('',#773);
#773 = CARTESIAN_POINT('',(12.45,20.,29.));
#774 = LINE('',#775,#776);
#775 = CARTESIAN_POINT('',(12.45,18.,29.));
#776 = VECTOR('',#777,1.);
#777 = DIRECTION('',(0.,1.,-2.2E-16));
#778 = ORIENTED_EDGE('',*,*,#779,.T.);
#779 = EDGE_CURVE('',#772,#780,#782,.T.);
#780 = VERTEX_POINT('',#781);
#781 = CARTESIAN_POINT('',(20.,20.,29.));
#782 = LINE('',#783,#784);
#783 = CARTESIAN_POINT('',(12.45,20.,29.));
#784 = VECTOR('',#785,1.);
#785 = DIRECTION('',(1.,0.,0.));
#786 = ORIENTED_EDGE('',*,*,#787,.F.);
#787 = EDGE_CURVE('',#400,#780,#788,.T.);
#788 = LINE('',#789,#790);
#789 = CARTESIAN_POINT('',(20.,18.,29.));
#790 = VECTOR('',#791,1.);
#791 = DIRECTION('',(0.,1.,-2.2E-16));
#792 = ORIENTED_EDGE('',*,*,#407,.F.);
#793 = PLANE('',#794);
#794 = AXIS2_PLACEMENT_3D('',#795,#796,#797);
#795 = CARTESIAN_POINT('',(12.45,18.,29.));
#796 = DIRECTION('',(0.,-2.2E-16,-1.));
#797 = DIRECTION('',(1.,0.,0.));
#798 = ADVANCED_FACE('',(#799),#855,.T.);
#799 = FACE_BOUND('',#800,.T.);
#800 = EDGE_LOOP('',(#801,#802,#810,#816,#817,#825,#833,#841,#849));
#801 = ORIENTED_EDGE('',*,*,#530,.F.);
#802 = ORIENTED_EDGE('',*,*,#803,.T.);
#803 = EDGE_CURVE('',#531,#804,#806,.T.);
#804 = VERTEX_POINT('',#805);
#805 = CARTESIAN_POINT('',(12.45,-1.E-15,25.));
#806 = LINE('',#807,#808);
#807 = CARTESIAN_POINT('',(12.45,-1.1E-15,17.));
#808 = VECTOR('',#809,1.);
#809 = DIRECTION('',(0.,0.,1.));
#810 = ORIENTED_EDGE('',*,*,#811,.T.);
#811 = EDGE_CURVE('',#804,#416,#812,.T.);
#812 = LINE('',#813,#814);
#813 = CARTESIAN_POINT('',(12.45,-1.1E-15,17.));
#814 = VECTOR('',#815,1.);
#815 = DIRECTION('',(0.,0.,1.));
#816 = ORIENTED_EDGE('',*,*,#415,.T.);
#817 = ORIENTED_EDGE('',*,*,#818,.F.);
#818 = EDGE_CURVE('',#819,#408,#821,.T.);
#819 = VERTEX_POINT('',#820);
#820 = CARTESIAN_POINT('',(12.45,18.,22.5));
#821 = LINE('',#822,#823);
#822 = CARTESIAN_POINT('',(12.45,18.,17.));
#823 = VECTOR('',#824,1.);
#824 = DIRECTION('',(0.,0.,1.));
#825 = ORIENTED_EDGE('',*,*,#826,.F.);
#826 = EDGE_CURVE('',#827,#819,#829,.T.);
#827 = VERTEX_POINT('',#828);
#828 = CARTESIAN_POINT('',(12.45,8.,22.5));
#829 = LINE('',#830,#831);
#830 = CARTESIAN_POINT('',(12.45,9.,22.5));
#831 = VECTOR('',#832,1.);
#832 = DIRECTION('',(0.,1.,-2.2E-16));
#833 = ORIENTED_EDGE('',*,*,#834,.T.);
#834 = EDGE_CURVE('',#827,#835,#837,.T.);
#835 = VERTEX_POINT('',#836);
#836 = CARTESIAN_POINT('',(12.45,8.,20.5));
#837 = LINE('',#838,#839);
#838 = CARTESIAN_POINT('',(12.45,8.,19.25));
#839 = VECTOR('',#840,1.);
#840 = DIRECTION('',(0.,0.,-1.));
#841 = ORIENTED_EDGE('',*,*,#842,.F.);
#842 = EDGE_CURVE('',#843,#835,#845,.T.);
#843 = VERTEX_POINT('',#844);
#844 = CARTESIAN_POINT('',(12.45,18.,20.5));
#845 = LINE('',#846,#847);
#846 = CARTESIAN_POINT('',(12.45,9.,20.5));
#847 = VECTOR('',#848,1.);
#848 = DIRECTION('',(0.,-1.,2.2E-16));
#849 = ORIENTED_EDGE('',*,*,#850,.F.);
#850 = EDGE_CURVE('',#523,#843,#851,.T.);
#851 = LINE('',#852,#853);
#852 = CARTESIAN_POINT('',(12.45,18.,17.));
#853 = VECTOR('',#854,1.);
#854 = DIRECTION('',(0.,0.,1.));
#855 = PLANE('',#856);
#856 = AXIS2_PLACEMENT_3D('',#857,#858,#859);
#857 = CARTESIAN_POINT('',(12.45,9.75,22.625));
#858 = DIRECTION('',(-1.,-0.,-0.));
#859 = DIRECTION('',(0.,0.,-1.));
#860 = ADVANCED_FACE('',(#861),#879,.T.);
#861 = FACE_BOUND('',#862,.T.);
#862 = EDGE_LOOP('',(#863,#871,#872,#873));
#863 = ORIENTED_EDGE('',*,*,#864,.T.);
#864 = EDGE_CURVE('',#865,#424,#867,.T.);
#865 = VERTEX_POINT('',#866);
#866 = CARTESIAN_POINT('',(10.5,0.,25.));
#867 = LINE('',#868,#869);
#868 = CARTESIAN_POINT('',(10.5,0.,25.));
#869 = VECTOR('',#870,1.);
#870 = DIRECTION('',(0.,0.,1.));
#871 = ORIENTED_EDGE('',*,*,#423,.T.);
#872 = ORIENTED_EDGE('',*,*,#811,.F.);
#873 = ORIENTED_EDGE('',*,*,#874,.F.);
#874 = EDGE_CURVE('',#865,#804,#875,.T.);
#875 = LINE('',#876,#877);
#876 = CARTESIAN_POINT('',(10.5,0.,25.));
#877 = VECTOR('',#878,1.);
#878 = DIRECTION('',(1.,0.,0.));
#879 = PLANE('',#880);
#880 = AXIS2_PLACEMENT_3D('',#881,#882,#883);
#881 = CARTESIAN_POINT('',(11.475,-9.E-17,27.));
#882 = DIRECTION('',(0.,1.,0.));
#883 = DIRECTION('',(0.,0.,1.));
#884 = ADVANCED_FACE('',(#885),#904,.F.);
#885 = FACE_BOUND('',#886,.F.);
#886 = EDGE_LOOP('',(#887,#895,#902,#903));
#887 = ORIENTED_EDGE('',*,*,#888,.F.);
#888 = EDGE_CURVE('',#889,#432,#891,.T.);
#889 = VERTEX_POINT('',#890);
#890 = CARTESIAN_POINT('',(-3.5,-1.E-15,25.));
#891 = LINE('',#892,#893);
#892 = CARTESIAN_POINT('',(-3.5,-8.6E-16,26.));
#893 = VECTOR('',#894,1.);
#894 = DIRECTION('',(0.,0.,1.));
#895 = ORIENTED_EDGE('',*,*,#896,.F.);
#896 = EDGE_CURVE('',#865,#889,#897,.T.);
#897 = CIRCLE('',#898,7.);
#898 = AXIS2_PLACEMENT_3D('',#899,#900,#901);
#899 = CARTESIAN_POINT('',(3.5,0.,25.));
#900 = DIRECTION('',(0.,0.,-1.));
#901 = DIRECTION('',(1.,0.,0.));
#902 = ORIENTED_EDGE('',*,*,#864,.T.);
#903 = ORIENTED_EDGE('',*,*,#431,.T.);
#904 = CYLINDRICAL_SURFACE('',#905,7.);
#905 = AXIS2_PLACEMENT_3D('',#906,#907,#908);
#906 = CARTESIAN_POINT('',(3.5,0.,25.));
#907 = DIRECTION('',(0.,0.,-1.));
#908 = DIRECTION('',(1.,0.,0.));
#909 = ADVANCED_FACE('',(#910),#928,.T.);
#910 = FACE_BOUND('',#911,.T.);
#911 = EDGE_LOOP('',(#912,#920,#921,#922));
#912 = ORIENTED_EDGE('',*,*,#913,.T.);
#913 = EDGE_CURVE('',#914,#441,#916,.T.);
#914 = VERTEX_POINT('',#915);
#915 = CARTESIAN_POINT('',(-5.45,1.E-15,25.));
#916 = LINE('',#917,#918);
#917 = CARTESIAN_POINT('',(-5.45,0.,26.));
#918 = VECTOR('',#919,1.);
#919 = DIRECTION('',(0.,0.,1.));
#920 = ORIENTED_EDGE('',*,*,#440,.T.);
#921 = ORIENTED_EDGE('',*,*,#888,.F.);
#922 = ORIENTED_EDGE('',*,*,#923,.F.);
#923 = EDGE_CURVE('',#914,#889,#924,.T.);
#924 = LINE('',#925,#926);
#925 = CARTESIAN_POINT('',(-5.45,0.,25.));
#926 = VECTOR('',#927,1.);
#927 = DIRECTION('',(1.,-4.4E-16,0.));
#928 = PLANE('',#929);
#929 = AXIS2_PLACEMENT_3D('',#930,#931,#932);
#930 = CARTESIAN_POINT('',(-4.475,-3.8E-16,27.));
#931 = DIRECTION('',(4.9E-16,1.,0.));
#932 = DIRECTION('',(1.,-4.9E-16,0.));
#933 = ADVANCED_FACE('',(#934),#983,.T.);
#934 = FACE_BOUND('',#935,.T.);
#935 = EDGE_LOOP('',(#936,#937,#945,#953,#961,#969,#975,#976,#977));
#936 = ORIENTED_EDGE('',*,*,#547,.T.);
#937 = ORIENTED_EDGE('',*,*,#938,.T.);
#938 = EDGE_CURVE('',#548,#939,#941,.T.);
#939 = VERTEX_POINT('',#940);
#940 = CARTESIAN_POINT('',(-5.45,18.,20.5));
#941 = LINE('',#942,#943);
#942 = CARTESIAN_POINT('',(-5.45,18.,17.));
#943 = VECTOR('',#944,1.);
#944 = DIRECTION('',(0.,0.,1.));
#945 = ORIENTED_EDGE('',*,*,#946,.T.);
#946 = EDGE_CURVE('',#939,#947,#949,.T.);
#947 = VERTEX_POINT('',#948);
#948 = CARTESIAN_POINT('',(-5.45,8.,20.5));
#949 = LINE('',#950,#951);
#950 = CARTESIAN_POINT('',(-5.45,9.,20.5));
#951 = VECTOR('',#952,1.);
#952 = DIRECTION('',(0.,-1.,2.2E-16));
#953 = ORIENTED_EDGE('',*,*,#954,.F.);
#954 = EDGE_CURVE('',#955,#947,#957,.T.);
#955 = VERTEX_POINT('',#956);
#956 = CARTESIAN_POINT('',(-5.45,8.,22.5));
#957 = LINE('',#958,#959);
#958 = CARTESIAN_POINT('',(-5.45,8.,19.25));
#959 = VECTOR('',#960,1.);
#960 = DIRECTION('',(0.,0.,-1.));
#961 = ORIENTED_EDGE('',*,*,#962,.T.);
#962 = EDGE_CURVE('',#955,#963,#965,.T.);
#963 = VERTEX_POINT('',#964);
#964 = CARTESIAN_POINT('',(-5.45,18.,22.5));
#965 = LINE('',#966,#967);
#966 = CARTESIAN_POINT('',(-5.45,9.,22.5));
#967 = VECTOR('',#968,1.);
#968 = DIRECTION('',(0.,1.,-2.2E-16));
#969 = ORIENTED_EDGE('',*,*,#970,.T.);
#970 = EDGE_CURVE('',#963,#449,#971,.T.);
#971 = LINE('',#972,#973);
#972 = CARTESIAN_POINT('',(-5.45,18.,26.));
#973 = VECTOR('',#974,1.);
#974 = DIRECTION('',(0.,0.,1.));
#975 = ORIENTED_EDGE('',*,*,#448,.F.);
#976 = ORIENTED_EDGE('',*,*,#913,.F.);
#977 = ORIENTED_EDGE('',*,*,#978,.F.);
#978 = EDGE_CURVE('',#539,#914,#979,.T.);
#979 = LINE('',#980,#981);
#980 = CARTESIAN_POINT('',(-5.45,5.5E-16,17.));
#981 = VECTOR('',#982,1.);
#982 = DIRECTION('',(0.,0.,1.));
#983 = PLANE('',#984);
#984 = AXIS2_PLACEMENT_3D('',#985,#986,#987);
#985 = CARTESIAN_POINT('',(-5.45,9.75,22.625));
#986 = DIRECTION('',(1.,0.,0.));
#987 = DIRECTION('',(0.,0.,1.));
#988 = ADVANCED_FACE('',(#989),#1014,.F.);
#989 = FACE_BOUND('',#990,.F.);
#990 = EDGE_LOOP('',(#991,#999,#1007,#1013));
#991 = ORIENTED_EDGE('',*,*,#992,.T.);
#992 = EDGE_CURVE('',#457,#993,#995,.T.);
#993 = VERTEX_POINT('',#994);
#994 = CARTESIAN_POINT('',(-13.,20.,29.));
#995 = LINE('',#996,#997);
#996 = CARTESIAN_POINT('',(-13.,18.,29.));
#997 = VECTOR('',#998,1.);
#998 = DIRECTION('',(0.,1.,-2.2E-16));
#999 = ORIENTED_EDGE('',*,*,#1000,.T.);
#1000 = EDGE_CURVE('',#993,#1001,#1003,.T.);
#1001 = VERTEX_POINT('',#1002);
#1002 = CARTESIAN_POINT('',(-5.45,20.,29.));
#1003 = LINE('',#1004,#1005);
#1004 = CARTESIAN_POINT('',(-13.,20.,29.));
#1005 = VECTOR('',#1006,1.);
#1006 = DIRECTION('',(1.,0.,0.));
#1007 = ORIENTED_EDGE('',*,*,#1008,.F.);
#1008 = EDGE_CURVE('',#449,#1001,#1009,.T.);
#1009 = LINE('',#1010,#1011);
#1010 = CARTESIAN_POINT('',(-5.45,18.,29.));
#1011 = VECTOR('',#1012,1.);
#1012 = DIRECTION('',(0.,1.,-2.2E-16));
#1013 = ORIENTED_EDGE('',*,*,#456,.F.);
#1014 = PLANE('',#1015);
#1015 = AXIS2_PLACEMENT_3D('',#1016,#1017,#1018);
#1016 = CARTESIAN_POINT('',(-13.,18.,29.));
#1017 = DIRECTION('',(0.,-2.2E-16,-1.));
#1018 = DIRECTION('',(1.,0.,0.));
#1019 = ADVANCED_FACE('',(#1020),#1038,.F.);
#1020 = FACE_BOUND('',#1021,.F.);
#1021 = EDGE_LOOP('',(#1022,#1030,#1036,#1037));
#1022 = ORIENTED_EDGE('',*,*,#1023,.T.);
#1023 = EDGE_CURVE('',#480,#1024,#1026,.T.);
#1024 = VERTEX_POINT('',#1025);
#1025 = CARTESIAN_POINT('',(-13.,20.,17.));
#1026 = LINE('',#1027,#1028);
#1027 = CARTESIAN_POINT('',(-13.,18.,17.));
#1028 = VECTOR('',#1029,1.);
#1029 = DIRECTION('',(0.,1.,-2.2E-16));
#1030 = ORIENTED_EDGE('',*,*,#1031,.T.);
#1031 = EDGE_CURVE('',#1024,#993,#1032,.T.);
#1032 = LINE('',#1033,#1034);
#1033 = CARTESIAN_POINT('',(-13.,20.,17.));
#1034 = VECTOR('',#1035,1.);
#1035 = DIRECTION('',(0.,0.,1.));
#1036 = ORIENTED_EDGE('',*,*,#992,.F.);
#1037 = ORIENTED_EDGE('',*,*,#489,.F.);
#1038 = PLANE('',#1039);
#1039 = AXIS2_PLACEMENT_3D('',#1040,#1041,#1042);
#1040 = CARTESIAN_POINT('',(-13.,18.,17.));
#1041 = DIRECTION('',(1.,0.,0.));
#1042 = DIRECTION('',(0.,2.2E-16,1.));
#1043 = ADVANCED_FACE('',(#1044),#1062,.T.);
#1044 = FACE_BOUND('',#1045,.T.);
#1045 = EDGE_LOOP('',(#1046,#1047,#1055,#1061));
#1046 = ORIENTED_EDGE('',*,*,#1023,.T.);
#1047 = ORIENTED_EDGE('',*,*,#1048,.T.);
#1048 = EDGE_CURVE('',#1024,#1049,#1051,.T.);
#1049 = VERTEX_POINT('',#1050);
#1050 = CARTESIAN_POINT('',(-5.45,20.,17.));
#1051 = LINE('',#1052,#1053);
#1052 = CARTESIAN_POINT('',(-13.,20.,17.));
#1053 = VECTOR('',#1054,1.);
#1054 = DIRECTION('',(1.,0.,0.));
#1055 = ORIENTED_EDGE('',*,*,#1056,.F.);
#1056 = EDGE_CURVE('',#548,#1049,#1057,.T.);
#1057 = LINE('',#1058,#1059);
#1058 = CARTESIAN_POINT('',(-5.45,18.,17.));
#1059 = VECTOR('',#1060,1.);
#1060 = DIRECTION('',(0.,1.,-2.2E-16));
#1061 = ORIENTED_EDGE('',*,*,#555,.F.);
#1062 = PLANE('',#1063);
#1063 = AXIS2_PLACEMENT_3D('',#1064,#1065,#1066);
#1064 = CARTESIAN_POINT('',(-13.,18.,17.));
#1065 = DIRECTION('',(0.,-2.2E-16,-1.));
#1066 = DIRECTION('',(1.,0.,0.));
#1067 = ADVANCED_FACE('',(#1068),#1080,.F.);
#1068 = FACE_BOUND('',#1069,.T.);
#1069 = EDGE_LOOP('',(#1070,#1071,#1072,#1079));
#1070 = ORIENTED_EDGE('',*,*,#538,.F.);
#1071 = ORIENTED_EDGE('',*,*,#978,.T.);
#1072 = ORIENTED_EDGE('',*,*,#1073,.T.);
#1073 = EDGE_CURVE('',#914,#804,#1074,.T.);
#1074 = CIRCLE('',#1075,8.95);
#1075 = AXIS2_PLACEMENT_3D('',#1076,#1077,#1078);
#1076 = CARTESIAN_POINT('',(3.5,0.,25.));
#1077 = DIRECTION('',(0.,0.,1.));
#1078 = DIRECTION('',(1.,0.,0.));
#1079 = ORIENTED_EDGE('',*,*,#803,.F.);
#1080 = CYLINDRICAL_SURFACE('',#1081,8.95);
#1081 = AXIS2_PLACEMENT_3D('',#1082,#1083,#1084);
#1082 = CARTESIAN_POINT('',(3.5,0.,17.));
#1083 = DIRECTION('',(-0.,-0.,-1.));
#1084 = DIRECTION('',(1.,0.,0.));
#1085 = ADVANCED_FACE('',(#1086),#1111,.T.);
#1086 = FACE_BOUND('',#1087,.T.);
#1087 = EDGE_LOOP('',(#1088,#1096,#1104,#1110));
#1088 = ORIENTED_EDGE('',*,*,#1089,.T.);
#1089 = EDGE_CURVE('',#523,#1090,#1092,.T.);
#1090 = VERTEX_POINT('',#1091);
#1091 = CARTESIAN_POINT('',(12.45,20.,17.));
#1092 = LINE('',#1093,#1094);
#1093 = CARTESIAN_POINT('',(12.45,18.,17.));
#1094 = VECTOR('',#1095,1.);
#1095 = DIRECTION('',(0.,1.,-2.2E-16));
#1096 = ORIENTED_EDGE('',*,*,#1097,.T.);
#1097 = EDGE_CURVE('',#1090,#1098,#1100,.T.);
#1098 = VERTEX_POINT('',#1099);
#1099 = CARTESIAN_POINT('',(20.,20.,17.));
#1100 = LINE('',#1101,#1102);
#1101 = CARTESIAN_POINT('',(12.45,20.,17.));
#1102 = VECTOR('',#1103,1.);
#1103 = DIRECTION('',(1.,0.,0.));
#1104 = ORIENTED_EDGE('',*,*,#1105,.F.);
#1105 = EDGE_CURVE('',#515,#1098,#1106,.T.);
#1106 = LINE('',#1107,#1108);
#1107 = CARTESIAN_POINT('',(20.,18.,17.));
#1108 = VECTOR('',#1109,1.);
#1109 = DIRECTION('',(0.,1.,-2.2E-16));
#1110 = ORIENTED_EDGE('',*,*,#522,.F.);
#1111 = PLANE('',#1112);
#1112 = AXIS2_PLACEMENT_3D('',#1113,#1114,#1115);
#1113 = CARTESIAN_POINT('',(12.45,18.,17.));
#1114 = DIRECTION('',(0.,-2.2E-16,-1.));
#1115 = DIRECTION('',(1.,0.,0.));
#1116 = ADVANCED_FACE('',(#1117),#1136,.F.);
#1117 = FACE_BOUND('',#1118,.F.);
#1118 = EDGE_LOOP('',(#1119,#1127,#1134,#1135));
#1119 = ORIENTED_EDGE('',*,*,#1120,.T.);
#1120 = EDGE_CURVE('',#623,#1121,#1123,.T.);
#1121 = VERTEX_POINT('',#1122);
#1122 = CARTESIAN_POINT('',(-11.3,-6.,21.5));
#1123 = LINE('',#1124,#1125);
#1124 = CARTESIAN_POINT('',(-11.3,-18.,21.5));
#1125 = VECTOR('',#1126,1.);
#1126 = DIRECTION('',(0.,1.,-2.2E-16));
#1127 = ORIENTED_EDGE('',*,*,#1128,.T.);
#1128 = EDGE_CURVE('',#1121,#1121,#1129,.T.);
#1129 = CIRCLE('',#1130,1.2);
#1130 = AXIS2_PLACEMENT_3D('',#1131,#1132,#1133);
#1131 = CARTESIAN_POINT('',(-12.5,-6.,21.5));
#1132 = DIRECTION('',(0.,-1.,0.));
#1133 = DIRECTION('',(1.,0.,0.));
#1134 = ORIENTED_EDGE('',*,*,#1120,.F.);
#1135 = ORIENTED_EDGE('',*,*,#622,.F.);
#1136 = CYLINDRICAL_SURFACE('',#1137,1.2);
#1137 = AXIS2_PLACEMENT_3D('',#1138,#1139,#1140);
#1138 = CARTESIAN_POINT('',(-12.5,-18.,21.5));
#1139 = DIRECTION('',(0.,-1.,2.2E-16));
#1140 = DIRECTION('',(1.,0.,0.));
#1141 = ADVANCED_FACE('',(#1142),#1161,.F.);
#1142 = FACE_BOUND('',#1143,.F.);
#1143 = EDGE_LOOP('',(#1144,#1152,#1159,#1160));
#1144 = ORIENTED_EDGE('',*,*,#1145,.T.);
#1145 = EDGE_CURVE('',#634,#1146,#1148,.T.);
#1146 = VERTEX_POINT('',#1147);
#1147 = CARTESIAN_POINT('',(13.699999999999,-6.,21.5));
#1148 = LINE('',#1149,#1150);
#1149 = CARTESIAN_POINT('',(13.699999999999,-18.,21.5));
#1150 = VECTOR('',#1151,1.);
#1151 = DIRECTION('',(0.,1.,-2.2E-16));
#1152 = ORIENTED_EDGE('',*,*,#1153,.T.);
#1153 = EDGE_CURVE('',#1146,#1146,#1154,.T.);
#1154 = CIRCLE('',#1155,1.2);
#1155 = AXIS2_PLACEMENT_3D('',#1156,#1157,#1158);
#1156 = CARTESIAN_POINT('',(12.499999999999,-6.,21.5));
#1157 = DIRECTION('',(0.,-1.,0.));
#1158 = DIRECTION('',(1.,0.,0.));
#1159 = ORIENTED_EDGE('',*,*,#1145,.F.);
#1160 = ORIENTED_EDGE('',*,*,#633,.F.);
#1161 = CYLINDRICAL_SURFACE('',#1162,1.2);
#1162 = AXIS2_PLACEMENT_3D('',#1163,#1164,#1165);
#1163 = CARTESIAN_POINT('',(12.499999999999,-18.,21.5));
#1164 = DIRECTION('',(0.,-1.,2.2E-16));
#1165 = DIRECTION('',(1.,0.,0.));
#1166 = ADVANCED_FACE('',(#1167),#1178,.T.);
#1167 = FACE_BOUND('',#1168,.T.);
#1168 = EDGE_LOOP('',(#1169,#1170,#1176,#1177));
#1169 = ORIENTED_EDGE('',*,*,#1105,.T.);
#1170 = ORIENTED_EDGE('',*,*,#1171,.T.);
#1171 = EDGE_CURVE('',#1098,#780,#1172,.T.);
#1172 = LINE('',#1173,#1174);
#1173 = CARTESIAN_POINT('',(20.,20.,17.));
#1174 = VECTOR('',#1175,1.);
#1175 = DIRECTION('',(0.,0.,1.));
#1176 = ORIENTED_EDGE('',*,*,#787,.F.);
#1177 = ORIENTED_EDGE('',*,*,#755,.F.);
#1178 = PLANE('',#1179);
#1179 = AXIS2_PLACEMENT_3D('',#1180,#1181,#1182);
#1180 = CARTESIAN_POINT('',(20.,18.,17.));
#1181 = DIRECTION('',(1.,0.,0.));
#1182 = DIRECTION('',(0.,2.2E-16,1.));
#1183 = ADVANCED_FACE('',(#1184),#1202,.F.);
#1184 = FACE_BOUND('',#1185,.F.);
#1185 = EDGE_LOOP('',(#1186,#1194,#1200,#1201));
#1186 = ORIENTED_EDGE('',*,*,#1187,.T.);
#1187 = EDGE_CURVE('',#819,#1188,#1190,.T.);
#1188 = VERTEX_POINT('',#1189);
#1189 = CARTESIAN_POINT('',(12.45,20.,22.5));
#1190 = LINE('',#1191,#1192);
#1191 = CARTESIAN_POINT('',(12.45,18.,22.5));
#1192 = VECTOR('',#1193,1.);
#1193 = DIRECTION('',(0.,1.,-2.2E-16));
#1194 = ORIENTED_EDGE('',*,*,#1195,.T.);
#1195 = EDGE_CURVE('',#1188,#772,#1196,.T.);
#1196 = LINE('',#1197,#1198);
#1197 = CARTESIAN_POINT('',(12.45,20.,22.5));
#1198 = VECTOR('',#1199,1.);
#1199 = DIRECTION('',(0.,0.,1.));
#1200 = ORIENTED_EDGE('',*,*,#771,.F.);
#1201 = ORIENTED_EDGE('',*,*,#818,.F.);
#1202 = PLANE('',#1203);
#1203 = AXIS2_PLACEMENT_3D('',#1204,#1205,#1206);
#1204 = CARTESIAN_POINT('',(12.45,18.,22.5));
#1205 = DIRECTION('',(1.,0.,0.));
#1206 = DIRECTION('',(0.,2.2E-16,1.));
#1207 = ADVANCED_FACE('',(#1208,#1244),#1255,.T.);
#1208 = FACE_BOUND('',#1209,.F.);
#1209 = EDGE_LOOP('',(#1210,#1211,#1212,#1213,#1214,#1222,#1230,#1238));
#1210 = ORIENTED_EDGE('',*,*,#1097,.T.);
#1211 = ORIENTED_EDGE('',*,*,#1171,.T.);
#1212 = ORIENTED_EDGE('',*,*,#779,.F.);
#1213 = ORIENTED_EDGE('',*,*,#1195,.F.);
#1214 = ORIENTED_EDGE('',*,*,#1215,.T.);
#1215 = EDGE_CURVE('',#1188,#1216,#1218,.T.);
#1216 = VERTEX_POINT('',#1217);
#1217 = CARTESIAN_POINT('',(13.65,20.,22.5));
#1218 = LINE('',#1219,#1220);
#1219 = CARTESIAN_POINT('',(12.45,20.,22.5));
#1220 = VECTOR('',#1221,1.);
#1221 = DIRECTION('',(1.,0.,0.));
#1222 = ORIENTED_EDGE('',*,*,#1223,.T.);
#1223 = EDGE_CURVE('',#1216,#1224,#1226,.T.);
#1224 = VERTEX_POINT('',#1225);
#1225 = CARTESIAN_POINT('',(13.65,20.,20.5));
#1226 = LINE('',#1227,#1228);
#1227 = CARTESIAN_POINT('',(13.65,20.,22.5));
#1228 = VECTOR('',#1229,1.);
#1229 = DIRECTION('',(0.,0.,-1.));
#1230 = ORIENTED_EDGE('',*,*,#1231,.T.);
#1231 = EDGE_CURVE('',#1224,#1232,#1234,.T.);
#1232 = VERTEX_POINT('',#1233);
#1233 = CARTESIAN_POINT('',(12.45,20.,20.5));
#1234 = LINE('',#1235,#1236);
#1235 = CARTESIAN_POINT('',(13.65,20.,20.5));
#1236 = VECTOR('',#1237,1.);
#1237 = DIRECTION('',(-1.,0.,0.));
#1238 = ORIENTED_EDGE('',*,*,#1239,.F.);
#1239 = EDGE_CURVE('',#1090,#1232,#1240,.T.);
#1240 = LINE('',#1241,#1242);
#1241 = CARTESIAN_POINT('',(12.45,20.,17.));
#1242 = VECTOR('',#1243,1.);
#1243 = DIRECTION('',(0.,0.,1.));
#1244 = FACE_BOUND('',#1245,.F.);
#1245 = EDGE_LOOP('',(#1246));
#1246 = ORIENTED_EDGE('',*,*,#1247,.T.);
#1247 = EDGE_CURVE('',#1248,#1248,#1250,.T.);
#1248 = VERTEX_POINT('',#1249);
#1249 = CARTESIAN_POINT('',(15.025,20.,21.5));
#1250 = CIRCLE('',#1251,1.2);
#1251 = AXIS2_PLACEMENT_3D('',#1252,#1253,#1254);
#1252 = CARTESIAN_POINT('',(16.225,20.,21.5));
#1253 = DIRECTION('',(0.,1.,-0.));
#1254 = DIRECTION('',(-1.,0.,0.));
#1255 = PLANE('',#1256);
#1256 = AXIS2_PLACEMENT_3D('',#1257,#1258,#1259);
#1257 = CARTESIAN_POINT('',(3.5,20.,22.728648361614));
#1258 = DIRECTION('',(0.,1.,-3.1E-16));
#1259 = DIRECTION('',(0.,3.1E-16,1.));
#1260 = ADVANCED_FACE('',(#1261),#1286,.F.);
#1261 = FACE_BOUND('',#1262,.F.);
#1262 = EDGE_LOOP('',(#1263,#1271,#1272,#1280));
#1263 = ORIENTED_EDGE('',*,*,#1264,.F.);
#1264 = EDGE_CURVE('',#819,#1265,#1267,.T.);
#1265 = VERTEX_POINT('',#1266);
#1266 = CARTESIAN_POINT('',(13.65,18.,22.5));
#1267 = LINE('',#1268,#1269);
#1268 = CARTESIAN_POINT('',(-6.65,18.,22.5));
#1269 = VECTOR('',#1270,1.);
#1270 = DIRECTION('',(1.,0.,0.));
#1271 = ORIENTED_EDGE('',*,*,#826,.F.);
#1272 = ORIENTED_EDGE('',*,*,#1273,.T.);
#1273 = EDGE_CURVE('',#827,#1274,#1276,.T.);
#1274 = VERTEX_POINT('',#1275);
#1275 = CARTESIAN_POINT('',(13.65,8.,22.5));
#1276 = LINE('',#1277,#1278);
#1277 = CARTESIAN_POINT('',(-6.65,8.,22.5));
#1278 = VECTOR('',#1279,1.);
#1279 = DIRECTION('',(1.,0.,0.));
#1280 = ORIENTED_EDGE('',*,*,#1281,.F.);
#1281 = EDGE_CURVE('',#1265,#1274,#1282,.T.);
#1282 = LINE('',#1283,#1284);
#1283 = CARTESIAN_POINT('',(13.65,18.,22.5));
#1284 = VECTOR('',#1285,1.);
#1285 = DIRECTION('',(0.,-1.,2.2E-16));
#1286 = PLANE('',#1287);
#1287 = AXIS2_PLACEMENT_3D('',#1288,#1289,#1290);
#1288 = CARTESIAN_POINT('',(-6.65,18.,22.5));
#1289 = DIRECTION('',(0.,2.2E-16,1.));
#1290 = DIRECTION('',(1.,0.,0.));
#1291 = ADVANCED_FACE('',(#1292),#1310,.T.);
#1292 = FACE_BOUND('',#1293,.T.);
#1293 = EDGE_LOOP('',(#1294,#1295,#1303,#1309));
#1294 = ORIENTED_EDGE('',*,*,#1273,.T.);
#1295 = ORIENTED_EDGE('',*,*,#1296,.T.);
#1296 = EDGE_CURVE('',#1274,#1297,#1299,.T.);
#1297 = VERTEX_POINT('',#1298);
#1298 = CARTESIAN_POINT('',(13.65,8.,20.5));
#1299 = LINE('',#1300,#1301);
#1300 = CARTESIAN_POINT('',(13.65,8.,22.5));
#1301 = VECTOR('',#1302,1.);
#1302 = DIRECTION('',(0.,0.,-1.));
#1303 = ORIENTED_EDGE('',*,*,#1304,.T.);
#1304 = EDGE_CURVE('',#1297,#835,#1305,.T.);
#1305 = LINE('',#1306,#1307);
#1306 = CARTESIAN_POINT('',(13.65,8.,20.5));
#1307 = VECTOR('',#1308,1.);
#1308 = DIRECTION('',(-1.,0.,0.));
#1309 = ORIENTED_EDGE('',*,*,#834,.F.);
#1310 = PLANE('',#1311);
#1311 = AXIS2_PLACEMENT_3D('',#1312,#1313,#1314);
#1312 = CARTESIAN_POINT('',(3.5,8.,21.5));
#1313 = DIRECTION('',(0.,1.,0.));
#1314 = DIRECTION('',(0.,0.,1.));
#1315 = ADVANCED_FACE('',(#1316),#1334,.F.);
#1316 = FACE_BOUND('',#1317,.F.);
#1317 = EDGE_LOOP('',(#1318,#1326,#1332,#1333));
#1318 = ORIENTED_EDGE('',*,*,#1319,.F.);
#1319 = EDGE_CURVE('',#1320,#843,#1322,.T.);
#1320 = VERTEX_POINT('',#1321);
#1321 = CARTESIAN_POINT('',(13.65,18.,20.5));
#1322 = LINE('',#1323,#1324);
#1323 = CARTESIAN_POINT('',(13.65,18.,20.5));
#1324 = VECTOR('',#1325,1.);
#1325 = DIRECTION('',(-1.,0.,0.));
#1326 = ORIENTED_EDGE('',*,*,#1327,.T.);
#1327 = EDGE_CURVE('',#1320,#1297,#1328,.T.);
#1328 = LINE('',#1329,#1330);
#1329 = CARTESIAN_POINT('',(13.65,18.,20.5));
#1330 = VECTOR('',#1331,1.);
#1331 = DIRECTION('',(0.,-1.,2.2E-16));
#1332 = ORIENTED_EDGE('',*,*,#1304,.T.);
#1333 = ORIENTED_EDGE('',*,*,#842,.F.);
#1334 = PLANE('',#1335);
#1335 = AXIS2_PLACEMENT_3D('',#1336,#1337,#1338);
#1336 = CARTESIAN_POINT('',(13.65,18.,20.5));
#1337 = DIRECTION('',(-0.,-2.2E-16,-1.));
#1338 = DIRECTION('',(-1.,0.,0.));
#1339 = ADVANCED_FACE('',(#1340),#1351,.F.);
#1340 = FACE_BOUND('',#1341,.F.);
#1341 = EDGE_LOOP('',(#1342,#1343,#1344,#1350));
#1342 = ORIENTED_EDGE('',*,*,#1089,.T.);
#1343 = ORIENTED_EDGE('',*,*,#1239,.T.);
#1344 = ORIENTED_EDGE('',*,*,#1345,.F.);
#1345 = EDGE_CURVE('',#843,#1232,#1346,.T.);
#1346 = LINE('',#1347,#1348);
#1347 = CARTESIAN_POINT('',(12.45,18.,20.5));
#1348 = VECTOR('',#1349,1.);
#1349 = DIRECTION('',(0.,1.,-2.2E-16));
#1350 = ORIENTED_EDGE('',*,*,#850,.F.);
#1351 = PLANE('',#1352);
#1352 = AXIS2_PLACEMENT_3D('',#1353,#1354,#1355);
#1353 = CARTESIAN_POINT('',(12.45,18.,17.));
#1354 = DIRECTION('',(1.,0.,0.));
#1355 = DIRECTION('',(0.,2.2E-16,1.));
#1356 = ADVANCED_FACE('',(#1357),#1363,.F.);
#1357 = FACE_BOUND('',#1358,.T.);
#1358 = EDGE_LOOP('',(#1359,#1360,#1361,#1362));
#1359 = ORIENTED_EDGE('',*,*,#923,.T.);
#1360 = ORIENTED_EDGE('',*,*,#896,.F.);
#1361 = ORIENTED_EDGE('',*,*,#874,.T.);
#1362 = ORIENTED_EDGE('',*,*,#1073,.F.);
#1363 = PLANE('',#1364);
#1364 = AXIS2_PLACEMENT_3D('',#1365,#1366,#1367);
#1365 = CARTESIAN_POINT('',(3.5,-4.321006558148,25.));
#1366 = DIRECTION('',(0.,0.,1.));
#1367 = DIRECTION('',(1.,0.,0.));
#1368 = ADVANCED_FACE('',(#1369),#1387,.T.);
#1369 = FACE_BOUND('',#1370,.T.);
#1370 = EDGE_LOOP('',(#1371,#1372,#1380,#1386));
#1371 = ORIENTED_EDGE('',*,*,#1056,.T.);
#1372 = ORIENTED_EDGE('',*,*,#1373,.T.);
#1373 = EDGE_CURVE('',#1049,#1374,#1376,.T.);
#1374 = VERTEX_POINT('',#1375);
#1375 = CARTESIAN_POINT('',(-5.45,20.,20.5));
#1376 = LINE('',#1377,#1378);
#1377 = CARTESIAN_POINT('',(-5.45,20.,17.));
#1378 = VECTOR('',#1379,1.);
#1379 = DIRECTION('',(0.,0.,1.));
#1380 = ORIENTED_EDGE('',*,*,#1381,.F.);
#1381 = EDGE_CURVE('',#939,#1374,#1382,.T.);
#1382 = LINE('',#1383,#1384);
#1383 = CARTESIAN_POINT('',(-5.45,18.,20.5));
#1384 = VECTOR('',#1385,1.);
#1385 = DIRECTION('',(0.,1.,-2.2E-16));
#1386 = ORIENTED_EDGE('',*,*,#938,.F.);
#1387 = PLANE('',#1388);
#1388 = AXIS2_PLACEMENT_3D('',#1389,#1390,#1391);
#1389 = CARTESIAN_POINT('',(-5.45,18.,17.));
#1390 = DIRECTION('',(1.,0.,0.));
#1391 = DIRECTION('',(0.,2.2E-16,1.));
#1392 = ADVANCED_FACE('',(#1393),#1418,.F.);
#1393 = FACE_BOUND('',#1394,.F.);
#1394 = EDGE_LOOP('',(#1395,#1403,#1404,#1412));
#1395 = ORIENTED_EDGE('',*,*,#1396,.F.);
#1396 = EDGE_CURVE('',#939,#1397,#1399,.T.);
#1397 = VERTEX_POINT('',#1398);
#1398 = CARTESIAN_POINT('',(-6.65,18.,20.5));
#1399 = LINE('',#1400,#1401);
#1400 = CARTESIAN_POINT('',(13.65,18.,20.5));
#1401 = VECTOR('',#1402,1.);
#1402 = DIRECTION('',(-1.,0.,0.));
#1403 = ORIENTED_EDGE('',*,*,#946,.T.);
#1404 = ORIENTED_EDGE('',*,*,#1405,.T.);
#1405 = EDGE_CURVE('',#947,#1406,#1408,.T.);
#1406 = VERTEX_POINT('',#1407);
#1407 = CARTESIAN_POINT('',(-6.65,8.,20.5));
#1408 = LINE('',#1409,#1410);
#1409 = CARTESIAN_POINT('',(13.65,8.,20.5));
#1410 = VECTOR('',#1411,1.);
#1411 = DIRECTION('',(-1.,0.,0.));
#1412 = ORIENTED_EDGE('',*,*,#1413,.F.);
#1413 = EDGE_CURVE('',#1397,#1406,#1414,.T.);
#1414 = LINE('',#1415,#1416);
#1415 = CARTESIAN_POINT('',(-6.65,18.,20.5));
#1416 = VECTOR('',#1417,1.);
#1417 = DIRECTION('',(0.,-1.,2.2E-16));
#1418 = PLANE('',#1419);
#1419 = AXIS2_PLACEMENT_3D('',#1420,#1421,#1422);
#1420 = CARTESIAN_POINT('',(13.65,18.,20.5));
#1421 = DIRECTION('',(-0.,-2.2E-16,-1.));
#1422 = DIRECTION('',(-1.,0.,0.));
#1423 = ADVANCED_FACE('',(#1424),#1442,.T.);
#1424 = FACE_BOUND('',#1425,.T.);
#1425 = EDGE_LOOP('',(#1426,#1434,#1435,#1436));
#1426 = ORIENTED_EDGE('',*,*,#1427,.T.);
#1427 = EDGE_CURVE('',#1428,#955,#1430,.T.);
#1428 = VERTEX_POINT('',#1429);
#1429 = CARTESIAN_POINT('',(-6.65,8.,22.5));
#1430 = LINE('',#1431,#1432);
#1431 = CARTESIAN_POINT('',(-6.65,8.,22.5));
#1432 = VECTOR('',#1433,1.);
#1433 = DIRECTION('',(1.,0.,0.));
#1434 = ORIENTED_EDGE('',*,*,#954,.T.);
#1435 = ORIENTED_EDGE('',*,*,#1405,.T.);
#1436 = ORIENTED_EDGE('',*,*,#1437,.T.);
#1437 = EDGE_CURVE('',#1406,#1428,#1438,.T.);
#1438 = LINE('',#1439,#1440);
#1439 = CARTESIAN_POINT('',(-6.65,8.,20.5));
#1440 = VECTOR('',#1441,1.);
#1441 = DIRECTION('',(0.,0.,1.));
#1442 = PLANE('',#1443);
#1443 = AXIS2_PLACEMENT_3D('',#1444,#1445,#1446);
#1444 = CARTESIAN_POINT('',(3.5,8.,21.5));
#1445 = DIRECTION('',(0.,1.,0.));
#1446 = DIRECTION('',(0.,0.,1.));
#1447 = ADVANCED_FACE('',(#1448),#1466,.F.);
#1448 = FACE_BOUND('',#1449,.F.);
#1449 = EDGE_LOOP('',(#1450,#1458,#1464,#1465));
#1450 = ORIENTED_EDGE('',*,*,#1451,.F.);
#1451 = EDGE_CURVE('',#1452,#963,#1454,.T.);
#1452 = VERTEX_POINT('',#1453);
#1453 = CARTESIAN_POINT('',(-6.65,18.,22.5));
#1454 = LINE('',#1455,#1456);
#1455 = CARTESIAN_POINT('',(-6.65,18.,22.5));
#1456 = VECTOR('',#1457,1.);
#1457 = DIRECTION('',(1.,0.,0.));
#1458 = ORIENTED_EDGE('',*,*,#1459,.T.);
#1459 = EDGE_CURVE('',#1452,#1428,#1460,.T.);
#1460 = LINE('',#1461,#1462);
#1461 = CARTESIAN_POINT('',(-6.65,18.,22.5));
#1462 = VECTOR('',#1463,1.);
#1463 = DIRECTION('',(0.,-1.,2.2E-16));
#1464 = ORIENTED_EDGE('',*,*,#1427,.T.);
#1465 = ORIENTED_EDGE('',*,*,#962,.T.);
#1466 = PLANE('',#1467);
#1467 = AXIS2_PLACEMENT_3D('',#1468,#1469,#1470);
#1468 = CARTESIAN_POINT('',(-6.65,18.,22.5));
#1469 = DIRECTION('',(0.,2.2E-16,1.));
#1470 = DIRECTION('',(1.,0.,0.));
#1471 = ADVANCED_FACE('',(#1472),#1490,.T.);
#1472 = FACE_BOUND('',#1473,.T.);
#1473 = EDGE_LOOP('',(#1474,#1482,#1488,#1489));
#1474 = ORIENTED_EDGE('',*,*,#1475,.T.);
#1475 = EDGE_CURVE('',#963,#1476,#1478,.T.);
#1476 = VERTEX_POINT('',#1477);
#1477 = CARTESIAN_POINT('',(-5.45,20.,22.5));
#1478 = LINE('',#1479,#1480);
#1479 = CARTESIAN_POINT('',(-5.45,18.,22.5));
#1480 = VECTOR('',#1481,1.);
#1481 = DIRECTION('',(0.,1.,-2.2E-16));
#1482 = ORIENTED_EDGE('',*,*,#1483,.T.);
#1483 = EDGE_CURVE('',#1476,#1001,#1484,.T.);
#1484 = LINE('',#1485,#1486);
#1485 = CARTESIAN_POINT('',(-5.45,20.,22.5));
#1486 = VECTOR('',#1487,1.);
#1487 = DIRECTION('',(0.,0.,1.));
#1488 = ORIENTED_EDGE('',*,*,#1008,.F.);
#1489 = ORIENTED_EDGE('',*,*,#970,.F.);
#1490 = PLANE('',#1491);
#1491 = AXIS2_PLACEMENT_3D('',#1492,#1493,#1494);
#1492 = CARTESIAN_POINT('',(-5.45,18.,22.5));
#1493 = DIRECTION('',(1.,0.,0.));
#1494 = DIRECTION('',(0.,2.2E-16,1.));
#1495 = ADVANCED_FACE('',(#1496,#1525),#1536,.T.);
#1496 = FACE_BOUND('',#1497,.F.);
#1497 = EDGE_LOOP('',(#1498,#1499,#1500,#1508,#1516,#1522,#1523,#1524));
#1498 = ORIENTED_EDGE('',*,*,#1048,.T.);
#1499 = ORIENTED_EDGE('',*,*,#1373,.T.);
#1500 = ORIENTED_EDGE('',*,*,#1501,.T.);
#1501 = EDGE_CURVE('',#1374,#1502,#1504,.T.);
#1502 = VERTEX_POINT('',#1503);
#1503 = CARTESIAN_POINT('',(-6.65,20.,20.5));
#1504 = LINE('',#1505,#1506);
#1505 = CARTESIAN_POINT('',(-5.45,20.,20.5));
#1506 = VECTOR('',#1507,1.);
#1507 = DIRECTION('',(-1.,0.,0.));
#1508 = ORIENTED_EDGE('',*,*,#1509,.T.);
#1509 = EDGE_CURVE('',#1502,#1510,#1512,.T.);
#1510 = VERTEX_POINT('',#1511);
#1511 = CARTESIAN_POINT('',(-6.65,20.,22.5));
#1512 = LINE('',#1513,#1514);
#1513 = CARTESIAN_POINT('',(-6.65,20.,20.5));
#1514 = VECTOR('',#1515,1.);
#1515 = DIRECTION('',(0.,0.,1.));
#1516 = ORIENTED_EDGE('',*,*,#1517,.T.);
#1517 = EDGE_CURVE('',#1510,#1476,#1518,.T.);
#1518 = LINE('',#1519,#1520);
#1519 = CARTESIAN_POINT('',(-6.65,20.,22.5));
#1520 = VECTOR('',#1521,1.);
#1521 = DIRECTION('',(1.,0.,0.));
#1522 = ORIENTED_EDGE('',*,*,#1483,.T.);
#1523 = ORIENTED_EDGE('',*,*,#1000,.F.);
#1524 = ORIENTED_EDGE('',*,*,#1031,.F.);
#1525 = FACE_BOUND('',#1526,.F.);
#1526 = EDGE_LOOP('',(#1527));
#1527 = ORIENTED_EDGE('',*,*,#1528,.T.);
#1528 = EDGE_CURVE('',#1529,#1529,#1531,.T.);
#1529 = VERTEX_POINT('',#1530);
#1530 = CARTESIAN_POINT('',(-10.425,20.,21.5));
#1531 = CIRCLE('',#1532,1.2);
#1532 = AXIS2_PLACEMENT_3D('',#1533,#1534,#1535);
#1533 = CARTESIAN_POINT('',(-9.225,20.,21.5));
#1534 = DIRECTION('',(0.,1.,-0.));
#1535 = DIRECTION('',(-1.,0.,0.));
#1536 = PLANE('',#1537);
#1537 = AXIS2_PLACEMENT_3D('',#1538,#1539,#1540);
#1538 = CARTESIAN_POINT('',(3.5,20.,22.728648361614));
#1539 = DIRECTION('',(0.,1.,-3.1E-16));
#1540 = DIRECTION('',(0.,3.1E-16,1.));
#1541 = ADVANCED_FACE('',(#1542),#1545,.F.);
#1542 = FACE_BOUND('',#1543,.T.);
#1543 = EDGE_LOOP('',(#1544));
#1544 = ORIENTED_EDGE('',*,*,#1128,.T.);
#1545 = PLANE('',#1546);
#1546 = AXIS2_PLACEMENT_3D('',#1547,#1548,#1549);
#1547 = CARTESIAN_POINT('',(-6.9141E-13,-6.,21.5));
#1548 = DIRECTION('',(0.,1.,0.));
#1549 = DIRECTION('',(0.,0.,1.));
#1550 = ADVANCED_FACE('',(#1551),#1554,.F.);
#1551 = FACE_BOUND('',#1552,.T.);
#1552 = EDGE_LOOP('',(#1553));
#1553 = ORIENTED_EDGE('',*,*,#1153,.T.);
#1554 = PLANE('',#1555);
#1555 = AXIS2_PLACEMENT_3D('',#1556,#1557,#1558);
#1556 = CARTESIAN_POINT('',(-6.9141E-13,-6.,21.5));
#1557 = DIRECTION('',(0.,1.,0.));
#1558 = DIRECTION('',(0.,0.,1.));
#1559 = ADVANCED_FACE('',(#1560),#1571,.T.);
#1560 = FACE_BOUND('',#1561,.T.);
#1561 = EDGE_LOOP('',(#1562,#1563,#1564,#1570));
#1562 = ORIENTED_EDGE('',*,*,#1187,.T.);
#1563 = ORIENTED_EDGE('',*,*,#1215,.T.);
#1564 = ORIENTED_EDGE('',*,*,#1565,.F.);
#1565 = EDGE_CURVE('',#1265,#1216,#1566,.T.);
#1566 = LINE('',#1567,#1568);
#1567 = CARTESIAN_POINT('',(13.65,18.,22.5));
#1568 = VECTOR('',#1569,1.);
#1569 = DIRECTION('',(0.,1.,-2.2E-16));
#1570 = ORIENTED_EDGE('',*,*,#1264,.F.);
#1571 = PLANE('',#1572);
#1572 = AXIS2_PLACEMENT_3D('',#1573,#1574,#1575);
#1573 = CARTESIAN_POINT('',(12.45,18.,22.5));
#1574 = DIRECTION('',(0.,-2.2E-16,-1.));
#1575 = DIRECTION('',(1.,0.,0.));
#1576 = ADVANCED_FACE('',(#1577),#1593,.T.);
#1577 = FACE_BOUND('',#1578,.T.);
#1578 = EDGE_LOOP('',(#1579,#1580,#1581,#1587));
#1579 = ORIENTED_EDGE('',*,*,#1565,.T.);
#1580 = ORIENTED_EDGE('',*,*,#1223,.T.);
#1581 = ORIENTED_EDGE('',*,*,#1582,.F.);
#1582 = EDGE_CURVE('',#1320,#1224,#1583,.T.);
#1583 = LINE('',#1584,#1585);
#1584 = CARTESIAN_POINT('',(13.65,18.,20.5));
#1585 = VECTOR('',#1586,1.);
#1586 = DIRECTION('',(0.,1.,-2.2E-16));
#1587 = ORIENTED_EDGE('',*,*,#1588,.F.);
#1588 = EDGE_CURVE('',#1265,#1320,#1589,.T.);
#1589 = LINE('',#1590,#1591);
#1590 = CARTESIAN_POINT('',(13.65,18.,22.5));
#1591 = VECTOR('',#1592,1.);
#1592 = DIRECTION('',(0.,0.,-1.));
#1593 = PLANE('',#1594);
#1594 = AXIS2_PLACEMENT_3D('',#1595,#1596,#1597);
#1595 = CARTESIAN_POINT('',(13.65,18.,22.5));
#1596 = DIRECTION('',(-1.,0.,0.));
#1597 = DIRECTION('',(-0.,-2.2E-16,-1.));
#1598 = ADVANCED_FACE('',(#1599),#1605,.T.);
#1599 = FACE_BOUND('',#1600,.T.);
#1600 = EDGE_LOOP('',(#1601,#1602,#1603,#1604));
#1601 = ORIENTED_EDGE('',*,*,#1582,.T.);
#1602 = ORIENTED_EDGE('',*,*,#1231,.T.);
#1603 = ORIENTED_EDGE('',*,*,#1345,.F.);
#1604 = ORIENTED_EDGE('',*,*,#1319,.F.);
#1605 = PLANE('',#1606);
#1606 = AXIS2_PLACEMENT_3D('',#1607,#1608,#1609);
#1607 = CARTESIAN_POINT('',(13.65,18.,20.5));
#1608 = DIRECTION('',(0.,2.2E-16,1.));
#1609 = DIRECTION('',(-1.,0.,0.));
#1610 = ADVANCED_FACE('',(#1611),#1630,.F.);
#1611 = FACE_BOUND('',#1612,.T.);
#1612 = EDGE_LOOP('',(#1613,#1621,#1622,#1623));
#1613 = ORIENTED_EDGE('',*,*,#1614,.T.);
#1614 = EDGE_CURVE('',#1615,#1248,#1617,.T.);
#1615 = VERTEX_POINT('',#1616);
#1616 = CARTESIAN_POINT('',(15.025,18.,21.5));
#1617 = LINE('',#1618,#1619);
#1618 = CARTESIAN_POINT('',(15.025,18.,21.5));
#1619 = VECTOR('',#1620,1.);
#1620 = DIRECTION('',(0.,1.,-2.2E-16));
#1621 = ORIENTED_EDGE('',*,*,#1247,.T.);
#1622 = ORIENTED_EDGE('',*,*,#1614,.F.);
#1623 = ORIENTED_EDGE('',*,*,#1624,.F.);
#1624 = EDGE_CURVE('',#1615,#1615,#1625,.T.);
#1625 = CIRCLE('',#1626,1.2);
#1626 = AXIS2_PLACEMENT_3D('',#1627,#1628,#1629);
#1627 = CARTESIAN_POINT('',(16.225,18.,21.5));
#1628 = DIRECTION('',(0.,1.,-0.));
#1629 = DIRECTION('',(-1.,0.,0.));
#1630 = CYLINDRICAL_SURFACE('',#1631,1.2);
#1631 = AXIS2_PLACEMENT_3D('',#1632,#1633,#1634);
#1632 = CARTESIAN_POINT('',(16.225,18.,21.5));
#1633 = DIRECTION('',(0.,-1.,2.2E-16));
#1634 = DIRECTION('',(-1.,0.,0.));
#1635 = ADVANCED_FACE('',(#1636),#1642,.F.);
#1636 = FACE_BOUND('',#1637,.F.);
#1637 = EDGE_LOOP('',(#1638,#1639,#1640,#1641));
#1638 = ORIENTED_EDGE('',*,*,#1281,.T.);
#1639 = ORIENTED_EDGE('',*,*,#1296,.T.);
#1640 = ORIENTED_EDGE('',*,*,#1327,.F.);
#1641 = ORIENTED_EDGE('',*,*,#1588,.F.);
#1642 = PLANE('',#1643);
#1643 = AXIS2_PLACEMENT_3D('',#1644,#1645,#1646);
#1644 = CARTESIAN_POINT('',(13.65,18.,22.5));
#1645 = DIRECTION('',(1.,0.,0.));
#1646 = DIRECTION('',(0.,-2.2E-16,-1.));
#1647 = ADVANCED_FACE('',(#1648),#1659,.T.);
#1648 = FACE_BOUND('',#1649,.T.);
#1649 = EDGE_LOOP('',(#1650,#1651,#1652,#1658));
#1650 = ORIENTED_EDGE('',*,*,#1381,.T.);
#1651 = ORIENTED_EDGE('',*,*,#1501,.T.);
#1652 = ORIENTED_EDGE('',*,*,#1653,.F.);
#1653 = EDGE_CURVE('',#1397,#1502,#1654,.T.);
#1654 = LINE('',#1655,#1656);
#1655 = CARTESIAN_POINT('',(-6.65,18.,20.5));
#1656 = VECTOR('',#1657,1.);
#1657 = DIRECTION('',(0.,1.,-2.2E-16));
#1658 = ORIENTED_EDGE('',*,*,#1396,.F.);
#1659 = PLANE('',#1660);
#1660 = AXIS2_PLACEMENT_3D('',#1661,#1662,#1663);
#1661 = CARTESIAN_POINT('',(-5.45,18.,20.5));
#1662 = DIRECTION('',(0.,2.2E-16,1.));
#1663 = DIRECTION('',(-1.,0.,0.));
#1664 = ADVANCED_FACE('',(#1665),#1676,.F.);
#1665 = FACE_BOUND('',#1666,.F.);
#1666 = EDGE_LOOP('',(#1667,#1668,#1669,#1670));
#1667 = ORIENTED_EDGE('',*,*,#1413,.T.);
#1668 = ORIENTED_EDGE('',*,*,#1437,.T.);
#1669 = ORIENTED_EDGE('',*,*,#1459,.F.);
#1670 = ORIENTED_EDGE('',*,*,#1671,.F.);
#1671 = EDGE_CURVE('',#1397,#1452,#1672,.T.);
#1672 = LINE('',#1673,#1674);
#1673 = CARTESIAN_POINT('',(-6.65,18.,20.5));
#1674 = VECTOR('',#1675,1.);
#1675 = DIRECTION('',(0.,0.,1.));
#1676 = PLANE('',#1677);
#1677 = AXIS2_PLACEMENT_3D('',#1678,#1679,#1680);
#1678 = CARTESIAN_POINT('',(-6.65,18.,20.5));
#1679 = DIRECTION('',(-1.,0.,0.));
#1680 = DIRECTION('',(0.,2.2E-16,1.));
#1681 = ADVANCED_FACE('',(#1682),#1693,.T.);
#1682 = FACE_BOUND('',#1683,.T.);
#1683 = EDGE_LOOP('',(#1684,#1690,#1691,#1692));
#1684 = ORIENTED_EDGE('',*,*,#1685,.T.);
#1685 = EDGE_CURVE('',#1452,#1510,#1686,.T.);
#1686 = LINE('',#1687,#1688);
#1687 = CARTESIAN_POINT('',(-6.65,18.,22.5));
#1688 = VECTOR('',#1689,1.);
#1689 = DIRECTION('',(0.,1.,-2.2E-16));
#1690 = ORIENTED_EDGE('',*,*,#1517,.T.);
#1691 = ORIENTED_EDGE('',*,*,#1475,.F.);
#1692 = ORIENTED_EDGE('',*,*,#1451,.F.);
#1693 = PLANE('',#1694);
#1694 = AXIS2_PLACEMENT_3D('',#1695,#1696,#1697);
#1695 = CARTESIAN_POINT('',(-6.65,18.,22.5));
#1696 = DIRECTION('',(0.,-2.2E-16,-1.));
#1697 = DIRECTION('',(1.,0.,0.));
#1698 = ADVANCED_FACE('',(#1699),#1705,.T.);
#1699 = FACE_BOUND('',#1700,.T.);
#1700 = EDGE_LOOP('',(#1701,#1702,#1703,#1704));
#1701 = ORIENTED_EDGE('',*,*,#1653,.T.);
#1702 = ORIENTED_EDGE('',*,*,#1509,.T.);
#1703 = ORIENTED_EDGE('',*,*,#1685,.F.);
#1704 = ORIENTED_EDGE('',*,*,#1671,.F.);
#1705 = PLANE('',#1706);
#1706 = AXIS2_PLACEMENT_3D('',#1707,#1708,#1709);
#1707 = CARTESIAN_POINT('',(-6.65,18.,20.5));
#1708 = DIRECTION('',(1.,0.,0.));
#1709 = DIRECTION('',(0.,2.2E-16,1.));
#1710 = ADVANCED_FACE('',(#1711),#1730,.F.);
#1711 = FACE_BOUND('',#1712,.T.);
#1712 = EDGE_LOOP('',(#1713,#1721,#1722,#1723));
#1713 = ORIENTED_EDGE('',*,*,#1714,.T.);
#1714 = EDGE_CURVE('',#1715,#1529,#1717,.T.);
#1715 = VERTEX_POINT('',#1716);
#1716 = CARTESIAN_POINT('',(-10.425,18.,21.5));
#1717 = LINE('',#1718,#1719);
#1718 = CARTESIAN_POINT('',(-10.425,18.,21.5));
#1719 = VECTOR('',#1720,1.);
#1720 = DIRECTION('',(0.,1.,-2.2E-16));
#1721 = ORIENTED_EDGE('',*,*,#1528,.T.);
#1722 = ORIENTED_EDGE('',*,*,#1714,.F.);
#1723 = ORIENTED_EDGE('',*,*,#1724,.F.);
#1724 = EDGE_CURVE('',#1715,#1715,#1725,.T.);
#1725 = CIRCLE('',#1726,1.2);
#1726 = AXIS2_PLACEMENT_3D('',#1727,#1728,#1729);
#1727 = CARTESIAN_POINT('',(-9.225,18.,21.5));
#1728 = DIRECTION('',(0.,1.,-0.));
#1729 = DIRECTION('',(-1.,0.,0.));
#1730 = CYLINDRICAL_SURFACE('',#1731,1.2);
#1731 = AXIS2_PLACEMENT_3D('',#1732,#1733,#1734);
#1732 = CARTESIAN_POINT('',(-9.225,18.,21.5));
#1733 = DIRECTION('',(0.,-1.,2.2E-16));
#1734 = DIRECTION('',(-1.,0.,0.));
#1735 = ADVANCED_FACE('',(#1736),#1755,.F.);
#1736 = FACE_BOUND('',#1737,.F.);
#1737 = EDGE_LOOP('',(#1738,#1746,#1753,#1754));
#1738 = ORIENTED_EDGE('',*,*,#1739,.T.);
#1739 = EDGE_CURVE('',#1615,#1740,#1742,.T.);
#1740 = VERTEX_POINT('',#1741);
#1741 = CARTESIAN_POINT('',(15.025,10.,21.5));
#1742 = LINE('',#1743,#1744);
#1743 = CARTESIAN_POINT('',(15.025,18.,21.5));
#1744 = VECTOR('',#1745,1.);
#1745 = DIRECTION('',(0.,-1.,2.2E-16));
#1746 = ORIENTED_EDGE('',*,*,#1747,.T.);
#1747 = EDGE_CURVE('',#1740,#1740,#1748,.T.);
#1748 = CIRCLE('',#1749,1.2);
#1749 = AXIS2_PLACEMENT_3D('',#1750,#1751,#1752);
#1750 = CARTESIAN_POINT('',(16.225,10.,21.5));
#1751 = DIRECTION('',(0.,1.,-0.));
#1752 = DIRECTION('',(-1.,0.,0.));
#1753 = ORIENTED_EDGE('',*,*,#1739,.F.);
#1754 = ORIENTED_EDGE('',*,*,#1624,.F.);
#1755 = CYLINDRICAL_SURFACE('',#1756,1.2);
#1756 = AXIS2_PLACEMENT_3D('',#1757,#1758,#1759);
#1757 = CARTESIAN_POINT('',(16.225,18.,21.5));
#1758 = DIRECTION('',(0.,1.,-2.2E-16));
#1759 = DIRECTION('',(-1.,0.,0.));
#1760 = ADVANCED_FACE('',(#1761),#1780,.F.);
#1761 = FACE_BOUND('',#1762,.F.);
#1762 = EDGE_LOOP('',(#1763,#1771,#1778,#1779));
#1763 = ORIENTED_EDGE('',*,*,#1764,.T.);
#1764 = EDGE_CURVE('',#1715,#1765,#1767,.T.);
#1765 = VERTEX_POINT('',#1766);
#1766 = CARTESIAN_POINT('',(-10.425,10.,21.5));
#1767 = LINE('',#1768,#1769);
#1768 = CARTESIAN_POINT('',(-10.425,18.,21.5));
#1769 = VECTOR('',#1770,1.);
#1770 = DIRECTION('',(0.,-1.,2.2E-16));
#1771 = ORIENTED_EDGE('',*,*,#1772,.T.);
#1772 = EDGE_CURVE('',#1765,#1765,#1773,.T.);
#1773 = CIRCLE('',#1774,1.2);
#1774 = AXIS2_PLACEMENT_3D('',#1775,#1776,#1777);
#1775 = CARTESIAN_POINT('',(-9.225,10.,21.5));
#1776 = DIRECTION('',(0.,1.,-0.));
#1777 = DIRECTION('',(-1.,0.,0.));
#1778 = ORIENTED_EDGE('',*,*,#1764,.F.);
#1779 = ORIENTED_EDGE('',*,*,#1724,.F.);
#1780 = CYLINDRICAL_SURFACE('',#1781,1.2);
#1781 = AXIS2_PLACEMENT_3D('',#1782,#1783,#1784);
#1782 = CARTESIAN_POINT('',(-9.225,18.,21.5));
#1783 = DIRECTION('',(0.,1.,-2.2E-16));
#1784 = DIRECTION('',(-1.,0.,0.));
#1785 = ADVANCED_FACE('',(#1786),#1789,.T.);
#1786 = FACE_BOUND('',#1787,.T.);
#1787 = EDGE_LOOP('',(#1788));
#1788 = ORIENTED_EDGE('',*,*,#1747,.T.);
#1789 = PLANE('',#1790);
#1790 = AXIS2_PLACEMENT_3D('',#1791,#1792,#1793);
#1791 = CARTESIAN_POINT('',(3.5,10.,21.5));
#1792 = DIRECTION('',(0.,1.,0.));
#1793 = DIRECTION('',(0.,0.,1.));
#1794 = ADVANCED_FACE('',(#1795),#1798,.T.);
#1795 = FACE_BOUND('',#1796,.T.);
#1796 = EDGE_LOOP('',(#1797));
#1797 = ORIENTED_EDGE('',*,*,#1772,.T.);
#1798 = PLANE('',#1799);
#1799 = AXIS2_PLACEMENT_3D('',#1800,#1801,#1802);
#1800 = CARTESIAN_POINT('',(3.5,10.,21.5));
#1801 = DIRECTION('',(0.,1.,0.));
#1802 = DIRECTION('',(0.,0.,1.));
#1803 = ( GEOMETRIC_REPRESENTATION_CONTEXT(3) 
GLOBAL_UNCERTAINTY_ASSIGNED_CONTEXT((#1807)) 
GLOBAL_UNIT_ASSIGNED_CONTEXT((#1804,#1805,#1806)) REPRESENTATION_CONTEXT
('Context #1','3D Context with UNIT and UNCERTAINTY') );
#1804 = ( LENGTH_UNIT() NAMED_UNIT(*) SI_UNIT(.MILLI.,.METRE.) );
#1805 = ( NAMED_UNIT(*) PLANE_ANGLE_UNIT() SI_UNIT($,.RADIAN.) );
#1806 = ( NAMED_UNIT(*) SI_UNIT($,.STERADIAN.) SOLID_ANGLE_UNIT() );
#1807 = UNCERTAINTY_MEASURE_WITH_UNIT(LENGTH_MEASURE(2.E-05),#1804,
  'distance_accuracy_value','confusion accuracy');
#1808 = PRODUCT_RELATED_PRODUCT_CATEGORY('part',$,(#7));
ENDSEC;
END-ISO-10303-21;
