ISO-10303-21;
HEADER;
FILE_DESCRIPTION(('FreeCAD Model'),'2;1');
FILE_NAME('Open CASCADE Shape Model','2026-08-28T13:04:04',('FreeCAD'),(
    'FreeCAD'),'Open CASCADE STEP processor 7.8','FreeCAD','Unknown');
FILE_SCHEMA(('AUTOMOTIVE_DESIGN { 1 0 10303 214 1 1 1 1 }'));
ENDSEC;
DATA;
#1 = APPLICATION_PROTOCOL_DEFINITION('international standard',
  'automotive_design',2000,#2);
#2 = APPLICATION_CONTEXT(
  'core data for automotive mechanical design processes');
#3 = SHAPE_DEFINITION_REPRESENTATION(#4,#10);
#4 = PRODUCT_DEFINITION_SHAPE('','',#5);
#5 = PRODUCT_DEFINITION('design','',#6,#9);
#6 = PRODUCT_DEFINITION_FORMATION('','',#7);
#7 = PRODUCT('Open CASCADE STEP translator 7.8 30',
  'Open CASCADE STEP translator 7.8 30','',(#8));
#8 = PRODUCT_CONTEXT('',#2,'mechanical');
#9 = PRODUCT_DEFINITION_CONTEXT('part definition',#2,'design');
#10 = ADVANCED_BREP_SHAPE_REPRESENTATION('',(#11,#15),#1277);
#11 = AXIS2_PLACEMENT_3D('',#12,#13,#14);
#12 = CARTESIAN_POINT('',(0.,0.,0.));
#13 = DIRECTION('',(0.,0.,1.));
#14 = DIRECTION('',(1.,0.,-0.));
#15 = MANIFOLD_SOLID_BREP('',#16);
#16 = CLOSED_SHELL('',(#17,#297,#339,#364,#389,#413,#437,#462,#487,#511,
    #546,#571,#596,#620,#644,#669,#694,#729,#764,#789,#814,#838,#862,
    #887,#912,#947,#993,#1018,#1043,#1067,#1091,#1116,#1141,#1169,#1209,
    #1226,#1243,#1260));
#17 = ADVANCED_FACE('',(#18),#292,.F.);
#18 = FACE_BOUND('',#19,.F.);
#19 = EDGE_LOOP('',(#20,#30,#39,#47,#56,#64,#73,#81,#90,#98,#107,#115,
    #124,#132,#141,#149,#158,#166,#175,#183,#192,#200,#209,#217,#226,
    #234,#243,#251,#260,#268,#277,#285));
#20 = ORIENTED_EDGE('',*,*,#21,.F.);
#21 = EDGE_CURVE('',#22,#24,#26,.T.);
#22 = VERTEX_POINT('',#23);
#23 = CARTESIAN_POINT('',(46.841434322327,-7.E-15,0.));
#24 = VERTEX_POINT('',#25);
#25 = CARTESIAN_POINT('',(23.150424769087,0.,0.));
#26 = LINE('',#27,#28);
#27 = CARTESIAN_POINT('',(50.,0.,0.));
#28 = VECTOR('',#29,1.);
#29 = DIRECTION('',(-1.,0.,0.));
#30 = ORIENTED_EDGE('',*,*,#31,.F.);
#31 = EDGE_CURVE('',#32,#22,#34,.T.);
#32 = VERTEX_POINT('',#33);
#33 = CARTESIAN_POINT('',(53.041634621786,0.851466950459,0.));
#34 = CIRCLE('',#35,23.);
#35 = AXIS2_PLACEMENT_3D('',#36,#37,#38);
#36 = CARTESIAN_POINT('',(46.841434322327,23.,0.));
#37 = DIRECTION('',(-0.,-0.,-1.));
#38 = DIRECTION('',(0.,-1.,0.));
#39 = ORIENTED_EDGE('',*,*,#40,.F.);
#40 = EDGE_CURVE('',#41,#32,#43,.T.);
#41 = VERTEX_POINT('',#42);
#42 = CARTESIAN_POINT('',(82.680651723502,9.148533049541,0.));
#43 = LINE('',#44,#45);
#44 = CARTESIAN_POINT('',(85.722286345288,10.,0.));
#45 = VECTOR('',#46,1.);
#46 = DIRECTION('',(-0.962979697806,-0.269573926063,0.));
#47 = ORIENTED_EDGE('',*,*,#48,.F.);
#48 = EDGE_CURVE('',#49,#41,#51,.T.);
#49 = VERTEX_POINT('',#50);
#50 = CARTESIAN_POINT('',(88.880852022961,10.,0.));
#51 = CIRCLE('',#52,23.);
#52 = AXIS2_PLACEMENT_3D('',#53,#54,#55);
#53 = CARTESIAN_POINT('',(88.880852022961,-13.,0.));
#54 = DIRECTION('',(-0.,0.,1.));
#55 = DIRECTION('',(0.,-1.,0.));
#56 = ORIENTED_EDGE('',*,*,#57,.F.);
#57 = EDGE_CURVE('',#58,#49,#60,.T.);
#58 = VERTEX_POINT('',#59);
#59 = CARTESIAN_POINT('',(107.,10.,0.));
#60 = LINE('',#61,#62);
#61 = CARTESIAN_POINT('',(110.,10.,0.));
#62 = VECTOR('',#63,1.);
#63 = DIRECTION('',(-1.,0.,0.));
#64 = ORIENTED_EDGE('',*,*,#65,.F.);
#65 = EDGE_CURVE('',#66,#58,#68,.T.);
#66 = VERTEX_POINT('',#67);
#67 = CARTESIAN_POINT('',(110.,13.,0.));
#68 = CIRCLE('',#69,3.);
#69 = AXIS2_PLACEMENT_3D('',#70,#71,#72);
#70 = CARTESIAN_POINT('',(107.,13.,0.));
#71 = DIRECTION('',(-0.,-0.,-1.));
#72 = DIRECTION('',(0.,-1.,0.));
#73 = ORIENTED_EDGE('',*,*,#74,.F.);
#74 = EDGE_CURVE('',#75,#66,#77,.T.);
#75 = VERTEX_POINT('',#76);
#76 = CARTESIAN_POINT('',(110.,15.,0.));
#77 = LINE('',#78,#79);
#78 = CARTESIAN_POINT('',(110.,18.,0.));
#79 = VECTOR('',#80,1.);
#80 = DIRECTION('',(0.,-1.,0.));
#81 = ORIENTED_EDGE('',*,*,#82,.F.);
#82 = EDGE_CURVE('',#83,#75,#85,.T.);
#83 = VERTEX_POINT('',#84);
#84 = CARTESIAN_POINT('',(107.,18.,0.));
#85 = CIRCLE('',#86,3.);
#86 = AXIS2_PLACEMENT_3D('',#87,#88,#89);
#87 = CARTESIAN_POINT('',(107.,15.,0.));
#88 = DIRECTION('',(-0.,-0.,-1.));
#89 = DIRECTION('',(0.,-1.,0.));
#90 = ORIENTED_EDGE('',*,*,#91,.F.);
#91 = EDGE_CURVE('',#92,#83,#94,.T.);
#92 = VERTEX_POINT('',#93);
#93 = CARTESIAN_POINT('',(88.880852022961,18.,0.));
#94 = LINE('',#95,#96);
#95 = CARTESIAN_POINT('',(85.722286345288,18.,0.));
#96 = VECTOR('',#97,1.);
#97 = DIRECTION('',(1.,0.,0.));
#98 = ORIENTED_EDGE('',*,*,#99,.F.);
#99 = EDGE_CURVE('',#100,#92,#102,.T.);
#100 = VERTEX_POINT('',#101);
#101 = CARTESIAN_POINT('',(82.680651723502,17.148533049541,0.));
#102 = CIRCLE('',#103,23.);
#103 = AXIS2_PLACEMENT_3D('',#104,#105,#106);
#104 = CARTESIAN_POINT('',(88.880852022961,-5.,0.));
#105 = DIRECTION('',(-0.,-0.,-1.));
#106 = DIRECTION('',(0.,-1.,0.));
#107 = ORIENTED_EDGE('',*,*,#108,.F.);
#108 = EDGE_CURVE('',#109,#100,#111,.T.);
#109 = VERTEX_POINT('',#110);
#110 = CARTESIAN_POINT('',(54.470680850682,9.251510277777,0.));
#111 = LINE('',#112,#113);
#112 = CARTESIAN_POINT('',(51.429046228896,8.400043327317,0.));
#113 = VECTOR('',#114,1.);
#114 = DIRECTION('',(0.962979697806,0.269573926063,0.));
#115 = ORIENTED_EDGE('',*,*,#116,.F.);
#116 = EDGE_CURVE('',#117,#109,#119,.T.);
#117 = VERTEX_POINT('',#118);
#118 = CARTESIAN_POINT('',(48.270480551223,8.400043327317,0.));
#119 = CIRCLE('',#120,23.);
#120 = AXIS2_PLACEMENT_3D('',#121,#122,#123);
#121 = CARTESIAN_POINT('',(48.270480551223,31.400043327317,0.));
#122 = DIRECTION('',(-0.,0.,1.));
#123 = DIRECTION('',(0.,-1.,0.));
#124 = ORIENTED_EDGE('',*,*,#125,.F.);
#125 = EDGE_CURVE('',#126,#117,#128,.T.);
#126 = VERTEX_POINT('',#127);
#127 = CARTESIAN_POINT('',(-48.27048055122,8.400043327317,0.));
#128 = LINE('',#129,#130);
#129 = CARTESIAN_POINT('',(-51.42904622889,8.400043327317,0.));
#130 = VECTOR('',#131,1.);
#131 = DIRECTION('',(1.,0.,0.));
#132 = ORIENTED_EDGE('',*,*,#133,.F.);
#133 = EDGE_CURVE('',#134,#126,#136,.T.);
#134 = VERTEX_POINT('',#135);
#135 = CARTESIAN_POINT('',(-54.47068085068,9.251510277777,0.));
#136 = CIRCLE('',#137,23.);
#137 = AXIS2_PLACEMENT_3D('',#138,#139,#140);
#138 = CARTESIAN_POINT('',(-48.27048055122,31.400043327317,0.));
#139 = DIRECTION('',(-0.,0.,1.));
#140 = DIRECTION('',(0.,-1.,0.));
#141 = ORIENTED_EDGE('',*,*,#142,.F.);
#142 = EDGE_CURVE('',#143,#134,#145,.T.);
#143 = VERTEX_POINT('',#144);
#144 = CARTESIAN_POINT('',(-82.6806517235,17.148533049541,0.));
#145 = LINE('',#146,#147);
#146 = CARTESIAN_POINT('',(-85.72228634528,18.,0.));
#147 = VECTOR('',#148,1.);
#148 = DIRECTION('',(0.962979697806,-0.269573926063,0.));
#149 = ORIENTED_EDGE('',*,*,#150,.T.);
#150 = EDGE_CURVE('',#143,#151,#153,.T.);
#151 = VERTEX_POINT('',#152);
#152 = CARTESIAN_POINT('',(-88.88085202296,18.,0.));
#153 = CIRCLE('',#154,23.);
#154 = AXIS2_PLACEMENT_3D('',#155,#156,#157);
#155 = CARTESIAN_POINT('',(-88.88085202296,-5.,0.));
#156 = DIRECTION('',(-0.,0.,1.));
#157 = DIRECTION('',(0.,-1.,0.));
#158 = ORIENTED_EDGE('',*,*,#159,.T.);
#159 = EDGE_CURVE('',#151,#160,#162,.T.);
#160 = VERTEX_POINT('',#161);
#161 = CARTESIAN_POINT('',(-107.,18.,0.));
#162 = LINE('',#163,#164);
#163 = CARTESIAN_POINT('',(-85.72228634528,18.,0.));
#164 = VECTOR('',#165,1.);
#165 = DIRECTION('',(-1.,0.,0.));
#166 = ORIENTED_EDGE('',*,*,#167,.T.);
#167 = EDGE_CURVE('',#160,#168,#170,.T.);
#168 = VERTEX_POINT('',#169);
#169 = CARTESIAN_POINT('',(-110.,15.,0.));
#170 = CIRCLE('',#171,3.);
#171 = AXIS2_PLACEMENT_3D('',#172,#173,#174);
#172 = CARTESIAN_POINT('',(-107.,15.,0.));
#173 = DIRECTION('',(-0.,0.,1.));
#174 = DIRECTION('',(0.,-1.,0.));
#175 = ORIENTED_EDGE('',*,*,#176,.T.);
#176 = EDGE_CURVE('',#168,#177,#179,.T.);
#177 = VERTEX_POINT('',#178);
#178 = CARTESIAN_POINT('',(-110.,13.,0.));
#179 = LINE('',#180,#181);
#180 = CARTESIAN_POINT('',(-110.,18.,0.));
#181 = VECTOR('',#182,1.);
#182 = DIRECTION('',(0.,-1.,0.));
#183 = ORIENTED_EDGE('',*,*,#184,.T.);
#184 = EDGE_CURVE('',#177,#185,#187,.T.);
#185 = VERTEX_POINT('',#186);
#186 = CARTESIAN_POINT('',(-107.,10.,0.));
#187 = CIRCLE('',#188,3.);
#188 = AXIS2_PLACEMENT_3D('',#189,#190,#191);
#189 = CARTESIAN_POINT('',(-107.,13.,0.));
#190 = DIRECTION('',(-0.,0.,1.));
#191 = DIRECTION('',(0.,-1.,0.));
#192 = ORIENTED_EDGE('',*,*,#193,.T.);
#193 = EDGE_CURVE('',#185,#194,#196,.T.);
#194 = VERTEX_POINT('',#195);
#195 = CARTESIAN_POINT('',(-88.88085202296,10.,0.));
#196 = LINE('',#197,#198);
#197 = CARTESIAN_POINT('',(-110.,10.,0.));
#198 = VECTOR('',#199,1.);
#199 = DIRECTION('',(1.,0.,0.));
#200 = ORIENTED_EDGE('',*,*,#201,.F.);
#201 = EDGE_CURVE('',#202,#194,#204,.T.);
#202 = VERTEX_POINT('',#203);
#203 = CARTESIAN_POINT('',(-82.6806517235,9.148533049541,0.));
#204 = CIRCLE('',#205,23.);
#205 = AXIS2_PLACEMENT_3D('',#206,#207,#208);
#206 = CARTESIAN_POINT('',(-88.88085202296,-13.,0.));
#207 = DIRECTION('',(-0.,0.,1.));
#208 = DIRECTION('',(0.,-1.,0.));
#209 = ORIENTED_EDGE('',*,*,#210,.F.);
#210 = EDGE_CURVE('',#211,#202,#213,.T.);
#211 = VERTEX_POINT('',#212);
#212 = CARTESIAN_POINT('',(-53.04163462178,0.851466950459,0.));
#213 = LINE('',#214,#215);
#214 = CARTESIAN_POINT('',(-50.,0.,0.));
#215 = VECTOR('',#216,1.);
#216 = DIRECTION('',(-0.962979697806,0.269573926063,0.));
#217 = ORIENTED_EDGE('',*,*,#218,.F.);
#218 = EDGE_CURVE('',#219,#211,#221,.T.);
#219 = VERTEX_POINT('',#220);
#220 = CARTESIAN_POINT('',(-46.84143432232,4.E-15,0.));
#221 = CIRCLE('',#222,23.);
#222 = AXIS2_PLACEMENT_3D('',#223,#224,#225);
#223 = CARTESIAN_POINT('',(-46.84143432232,23.,0.));
#224 = DIRECTION('',(-0.,-0.,-1.));
#225 = DIRECTION('',(0.,-1.,0.));
#226 = ORIENTED_EDGE('',*,*,#227,.F.);
#227 = EDGE_CURVE('',#228,#219,#230,.T.);
#228 = VERTEX_POINT('',#229);
#229 = CARTESIAN_POINT('',(-23.15042476908,1.E-15,0.));
#230 = LINE('',#231,#232);
#231 = CARTESIAN_POINT('',(50.,0.,0.));
#232 = VECTOR('',#233,1.);
#233 = DIRECTION('',(-1.,0.,0.));
#234 = ORIENTED_EDGE('',*,*,#235,.F.);
#235 = EDGE_CURVE('',#236,#228,#238,.T.);
#236 = VERTEX_POINT('',#237);
#237 = CARTESIAN_POINT('',(-21.34050884815,1.148998026359,0.));
#238 = CIRCLE('',#239,2.);
#239 = AXIS2_PLACEMENT_3D('',#240,#241,#242);
#240 = CARTESIAN_POINT('',(-23.15042476908,2.,0.));
#241 = DIRECTION('',(0.,0.,-1.));
#242 = DIRECTION('',(0.,1.,0.));
#243 = ORIENTED_EDGE('',*,*,#244,.T.);
#244 = EDGE_CURVE('',#236,#245,#247,.T.);
#245 = VERTEX_POINT('',#246);
#246 = CARTESIAN_POINT('',(-20.54024586271,2.851001973641,0.));
#247 = LINE('',#248,#249);
#248 = CARTESIAN_POINT('',(-23.711266,-3.893142,0.));
#249 = VECTOR('',#250,1.);
#250 = DIRECTION('',(0.425500986821,0.904957960468,0.));
#251 = ORIENTED_EDGE('',*,*,#252,.F.);
#252 = EDGE_CURVE('',#253,#245,#255,.T.);
#253 = VERTEX_POINT('',#254);
#254 = CARTESIAN_POINT('',(-18.73032994177,4.,0.));
#255 = CIRCLE('',#256,2.);
#256 = AXIS2_PLACEMENT_3D('',#257,#258,#259);
#257 = CARTESIAN_POINT('',(-18.73032994177,2.,0.));
#258 = DIRECTION('',(-0.,0.,1.));
#259 = DIRECTION('',(0.,-1.,0.));
#260 = ORIENTED_EDGE('',*,*,#261,.T.);
#261 = EDGE_CURVE('',#253,#262,#264,.T.);
#262 = VERTEX_POINT('',#263);
#263 = CARTESIAN_POINT('',(18.730329941775,4.,0.));
#264 = LINE('',#265,#266);
#265 = CARTESIAN_POINT('',(-20.,4.,0.));
#266 = VECTOR('',#267,1.);
#267 = DIRECTION('',(1.,0.,0.));
#268 = ORIENTED_EDGE('',*,*,#269,.F.);
#269 = EDGE_CURVE('',#270,#262,#272,.T.);
#270 = VERTEX_POINT('',#271);
#271 = CARTESIAN_POINT('',(20.540245862711,2.851001973641,0.));
#272 = CIRCLE('',#273,2.);
#273 = AXIS2_PLACEMENT_3D('',#274,#275,#276);
#274 = CARTESIAN_POINT('',(18.730329941775,2.,0.));
#275 = DIRECTION('',(-0.,0.,1.));
#276 = DIRECTION('',(0.,-1.,0.));
#277 = ORIENTED_EDGE('',*,*,#278,.T.);
#278 = EDGE_CURVE('',#270,#279,#281,.T.);
#279 = VERTEX_POINT('',#280);
#280 = CARTESIAN_POINT('',(21.34050884815,1.148998026359,0.));
#281 = LINE('',#282,#283);
#282 = CARTESIAN_POINT('',(20.,4.,0.));
#283 = VECTOR('',#284,1.);
#284 = DIRECTION('',(0.425500986821,-0.904957960468,0.));
#285 = ORIENTED_EDGE('',*,*,#286,.F.);
#286 = EDGE_CURVE('',#24,#279,#287,.T.);
#287 = CIRCLE('',#288,2.);
#288 = AXIS2_PLACEMENT_3D('',#289,#290,#291);
#289 = CARTESIAN_POINT('',(23.150424769087,2.,0.));
#290 = DIRECTION('',(-0.,-0.,-1.));
#291 = DIRECTION('',(0.,-1.,0.));
#292 = PLANE('',#293);
#293 = AXIS2_PLACEMENT_3D('',#294,#295,#296);
#294 = CARTESIAN_POINT('',(-3.94E-15,8.146519106968,0.));
#295 = DIRECTION('',(0.,0.,1.));
#296 = DIRECTION('',(1.,0.,0.));
#297 = ADVANCED_FACE('',(#298,#323),#334,.T.);
#298 = FACE_BOUND('',#299,.T.);
#299 = EDGE_LOOP('',(#300,#301,#309,#317));
#300 = ORIENTED_EDGE('',*,*,#21,.F.);
#301 = ORIENTED_EDGE('',*,*,#302,.T.);
#302 = EDGE_CURVE('',#22,#303,#305,.T.);
#303 = VERTEX_POINT('',#304);
#304 = CARTESIAN_POINT('',(46.841434322327,-7.E-15,14.));
#305 = LINE('',#306,#307);
#306 = CARTESIAN_POINT('',(46.841434322327,-7.11E-15,0.));
#307 = VECTOR('',#308,1.);
#308 = DIRECTION('',(0.,0.,1.));
#309 = ORIENTED_EDGE('',*,*,#310,.T.);
#310 = EDGE_CURVE('',#303,#311,#313,.T.);
#311 = VERTEX_POINT('',#312);
#312 = CARTESIAN_POINT('',(23.150424769087,0.,14.));
#313 = LINE('',#314,#315);
#314 = CARTESIAN_POINT('',(0.,0.,14.));
#315 = VECTOR('',#316,1.);
#316 = DIRECTION('',(-1.,0.,0.));
#317 = ORIENTED_EDGE('',*,*,#318,.F.);
#318 = EDGE_CURVE('',#24,#311,#319,.T.);
#319 = LINE('',#320,#321);
#320 = CARTESIAN_POINT('',(23.150424769087,-4.4E-16,0.));
#321 = VECTOR('',#322,1.);
#322 = DIRECTION('',(0.,0.,1.));
#323 = FACE_BOUND('',#324,.T.);
#324 = EDGE_LOOP('',(#325));
#325 = ORIENTED_EDGE('',*,*,#326,.T.);
#326 = EDGE_CURVE('',#327,#327,#329,.T.);
#327 = VERTEX_POINT('',#328);
#328 = CARTESIAN_POINT('',(35.95,0.,7.));
#329 = CIRCLE('',#330,4.05);
#330 = AXIS2_PLACEMENT_3D('',#331,#332,#333);
#331 = CARTESIAN_POINT('',(40.,0.,7.));
#332 = DIRECTION('',(0.,1.,-2.2E-16));
#333 = DIRECTION('',(-1.,0.,0.));
#334 = PLANE('',#335);
#335 = AXIS2_PLACEMENT_3D('',#336,#337,#338);
#336 = CARTESIAN_POINT('',(0.,0.,7.));
#337 = DIRECTION('',(-0.,-1.,-0.));
#338 = DIRECTION('',(0.,0.,-1.));
#339 = ADVANCED_FACE('',(#340),#359,.T.);
#340 = FACE_BOUND('',#341,.F.);
#341 = EDGE_LOOP('',(#342,#343,#351,#358));
#342 = ORIENTED_EDGE('',*,*,#286,.T.);
#343 = ORIENTED_EDGE('',*,*,#344,.T.);
#344 = EDGE_CURVE('',#279,#345,#347,.T.);
#345 = VERTEX_POINT('',#346);
#346 = CARTESIAN_POINT('',(21.34050884815,1.148998026359,14.));
#347 = LINE('',#348,#349);
#348 = CARTESIAN_POINT('',(21.34050884815,1.148998026359,0.));
#349 = VECTOR('',#350,1.);
#350 = DIRECTION('',(0.,0.,1.));
#351 = ORIENTED_EDGE('',*,*,#352,.F.);
#352 = EDGE_CURVE('',#311,#345,#353,.T.);
#353 = CIRCLE('',#354,2.);
#354 = AXIS2_PLACEMENT_3D('',#355,#356,#357);
#355 = CARTESIAN_POINT('',(23.150424769087,2.,14.));
#356 = DIRECTION('',(-0.,-0.,-1.));
#357 = DIRECTION('',(0.,-1.,0.));
#358 = ORIENTED_EDGE('',*,*,#318,.F.);
#359 = CYLINDRICAL_SURFACE('',#360,2.);
#360 = AXIS2_PLACEMENT_3D('',#361,#362,#363);
#361 = CARTESIAN_POINT('',(23.150424769087,2.,0.));
#362 = DIRECTION('',(0.,0.,1.));
#363 = DIRECTION('',(0.,-1.,0.));
#364 = ADVANCED_FACE('',(#365),#384,.T.);
#365 = FACE_BOUND('',#366,.F.);
#366 = EDGE_LOOP('',(#367,#368,#369,#378));
#367 = ORIENTED_EDGE('',*,*,#31,.T.);
#368 = ORIENTED_EDGE('',*,*,#302,.T.);
#369 = ORIENTED_EDGE('',*,*,#370,.F.);
#370 = EDGE_CURVE('',#371,#303,#373,.T.);
#371 = VERTEX_POINT('',#372);
#372 = CARTESIAN_POINT('',(53.041634621786,0.851466950459,14.));
#373 = CIRCLE('',#374,23.);
#374 = AXIS2_PLACEMENT_3D('',#375,#376,#377);
#375 = CARTESIAN_POINT('',(46.841434322327,23.,14.));
#376 = DIRECTION('',(-0.,-0.,-1.));
#377 = DIRECTION('',(0.,-1.,0.));
#378 = ORIENTED_EDGE('',*,*,#379,.F.);
#379 = EDGE_CURVE('',#32,#371,#380,.T.);
#380 = LINE('',#381,#382);
#381 = CARTESIAN_POINT('',(53.041634621786,0.851466950459,0.));
#382 = VECTOR('',#383,1.);
#383 = DIRECTION('',(0.,0.,1.));
#384 = CYLINDRICAL_SURFACE('',#385,23.);
#385 = AXIS2_PLACEMENT_3D('',#386,#387,#388);
#386 = CARTESIAN_POINT('',(46.841434322327,23.,0.));
#387 = DIRECTION('',(0.,0.,1.));
#388 = DIRECTION('',(0.269573926063,-0.962979697806,0.));
#389 = ADVANCED_FACE('',(#390),#408,.F.);
#390 = FACE_BOUND('',#391,.F.);
#391 = EDGE_LOOP('',(#392,#393,#401,#407));
#392 = ORIENTED_EDGE('',*,*,#278,.F.);
#393 = ORIENTED_EDGE('',*,*,#394,.T.);
#394 = EDGE_CURVE('',#270,#395,#397,.T.);
#395 = VERTEX_POINT('',#396);
#396 = CARTESIAN_POINT('',(20.540245862711,2.851001973641,14.));
#397 = LINE('',#398,#399);
#398 = CARTESIAN_POINT('',(20.540245862711,2.851001973641,0.));
#399 = VECTOR('',#400,1.);
#400 = DIRECTION('',(0.,0.,1.));
#401 = ORIENTED_EDGE('',*,*,#402,.F.);
#402 = EDGE_CURVE('',#345,#395,#403,.T.);
#403 = LINE('',#404,#405);
#404 = CARTESIAN_POINT('',(17.39115873105,9.548498704022,14.));
#405 = VECTOR('',#406,1.);
#406 = DIRECTION('',(-0.425500986821,0.904957960468,0.));
#407 = ORIENTED_EDGE('',*,*,#344,.F.);
#408 = PLANE('',#409);
#409 = AXIS2_PLACEMENT_3D('',#410,#411,#412);
#410 = CARTESIAN_POINT('',(20.,4.,0.));
#411 = DIRECTION('',(0.904957960468,0.425500986821,0.));
#412 = DIRECTION('',(0.425500986821,-0.904957960468,0.));
#413 = ADVANCED_FACE('',(#414),#432,.T.);
#414 = FACE_BOUND('',#415,.T.);
#415 = EDGE_LOOP('',(#416,#417,#425,#431));
#416 = ORIENTED_EDGE('',*,*,#40,.F.);
#417 = ORIENTED_EDGE('',*,*,#418,.T.);
#418 = EDGE_CURVE('',#41,#419,#421,.T.);
#419 = VERTEX_POINT('',#420);
#420 = CARTESIAN_POINT('',(82.680651723502,9.148533049541,14.));
#421 = LINE('',#422,#423);
#422 = CARTESIAN_POINT('',(82.680651723502,9.148533049541,0.));
#423 = VECTOR('',#424,1.);
#424 = DIRECTION('',(0.,0.,1.));
#425 = ORIENTED_EDGE('',*,*,#426,.T.);
#426 = EDGE_CURVE('',#419,#371,#427,.T.);
#427 = LINE('',#428,#429);
#428 = CARTESIAN_POINT('',(85.722286345288,10.,14.));
#429 = VECTOR('',#430,1.);
#430 = DIRECTION('',(-0.962979697806,-0.269573926063,0.));
#431 = ORIENTED_EDGE('',*,*,#379,.F.);
#432 = PLANE('',#433);
#433 = AXIS2_PLACEMENT_3D('',#434,#435,#436);
#434 = CARTESIAN_POINT('',(85.722286345288,10.,0.));
#435 = DIRECTION('',(0.269573926063,-0.962979697806,0.));
#436 = DIRECTION('',(-0.962979697806,-0.269573926063,0.));
#437 = ADVANCED_FACE('',(#438),#457,.F.);
#438 = FACE_BOUND('',#439,.F.);
#439 = EDGE_LOOP('',(#440,#441,#449,#456));
#440 = ORIENTED_EDGE('',*,*,#269,.T.);
#441 = ORIENTED_EDGE('',*,*,#442,.T.);
#442 = EDGE_CURVE('',#262,#443,#445,.T.);
#443 = VERTEX_POINT('',#444);
#444 = CARTESIAN_POINT('',(18.730329941775,4.,14.));
#445 = LINE('',#446,#447);
#446 = CARTESIAN_POINT('',(18.730329941775,4.,0.));
#447 = VECTOR('',#448,1.);
#448 = DIRECTION('',(0.,0.,1.));
#449 = ORIENTED_EDGE('',*,*,#450,.F.);
#450 = EDGE_CURVE('',#395,#443,#451,.T.);
#451 = CIRCLE('',#452,2.);
#452 = AXIS2_PLACEMENT_3D('',#453,#454,#455);
#453 = CARTESIAN_POINT('',(18.730329941775,2.,14.));
#454 = DIRECTION('',(-0.,0.,1.));
#455 = DIRECTION('',(0.,-1.,0.));
#456 = ORIENTED_EDGE('',*,*,#394,.F.);
#457 = CYLINDRICAL_SURFACE('',#458,2.);
#458 = AXIS2_PLACEMENT_3D('',#459,#460,#461);
#459 = CARTESIAN_POINT('',(18.730329941775,2.,0.));
#460 = DIRECTION('',(0.,0.,1.));
#461 = DIRECTION('',(0.904957960468,0.425500986821,0.));
#462 = ADVANCED_FACE('',(#463),#482,.F.);
#463 = FACE_BOUND('',#464,.F.);
#464 = EDGE_LOOP('',(#465,#466,#467,#476));
#465 = ORIENTED_EDGE('',*,*,#48,.T.);
#466 = ORIENTED_EDGE('',*,*,#418,.T.);
#467 = ORIENTED_EDGE('',*,*,#468,.F.);
#468 = EDGE_CURVE('',#469,#419,#471,.T.);
#469 = VERTEX_POINT('',#470);
#470 = CARTESIAN_POINT('',(88.880852022961,10.,14.));
#471 = CIRCLE('',#472,23.);
#472 = AXIS2_PLACEMENT_3D('',#473,#474,#475);
#473 = CARTESIAN_POINT('',(88.880852022961,-13.,14.));
#474 = DIRECTION('',(-0.,0.,1.));
#475 = DIRECTION('',(0.,-1.,0.));
#476 = ORIENTED_EDGE('',*,*,#477,.F.);
#477 = EDGE_CURVE('',#49,#469,#478,.T.);
#478 = LINE('',#479,#480);
#479 = CARTESIAN_POINT('',(88.880852022961,10.,0.));
#480 = VECTOR('',#481,1.);
#481 = DIRECTION('',(0.,0.,1.));
#482 = CYLINDRICAL_SURFACE('',#483,23.);
#483 = AXIS2_PLACEMENT_3D('',#484,#485,#486);
#484 = CARTESIAN_POINT('',(88.880852022961,-13.,0.));
#485 = DIRECTION('',(0.,0.,1.));
#486 = DIRECTION('',(0.,1.,0.));
#487 = ADVANCED_FACE('',(#488),#506,.F.);
#488 = FACE_BOUND('',#489,.F.);
#489 = EDGE_LOOP('',(#490,#491,#499,#505));
#490 = ORIENTED_EDGE('',*,*,#261,.F.);
#491 = ORIENTED_EDGE('',*,*,#492,.T.);
#492 = EDGE_CURVE('',#253,#493,#495,.T.);
#493 = VERTEX_POINT('',#494);
#494 = CARTESIAN_POINT('',(-18.73032994177,4.,14.));
#495 = LINE('',#496,#497);
#496 = CARTESIAN_POINT('',(-18.73032994177,4.,0.));
#497 = VECTOR('',#498,1.);
#498 = DIRECTION('',(0.,0.,1.));
#499 = ORIENTED_EDGE('',*,*,#500,.F.);
#500 = EDGE_CURVE('',#443,#493,#501,.T.);
#501 = LINE('',#502,#503);
#502 = CARTESIAN_POINT('',(-1.97E-15,4.,14.));
#503 = VECTOR('',#504,1.);
#504 = DIRECTION('',(-1.,0.,0.));
#505 = ORIENTED_EDGE('',*,*,#442,.F.);
#506 = PLANE('',#507);
#507 = AXIS2_PLACEMENT_3D('',#508,#509,#510);
#508 = CARTESIAN_POINT('',(0.,4.,223.74477287957));
#509 = DIRECTION('',(0.,1.,0.));
#510 = DIRECTION('',(0.,0.,1.));
#511 = ADVANCED_FACE('',(#512,#530),#541,.T.);
#512 = FACE_BOUND('',#513,.T.);
#513 = EDGE_LOOP('',(#514,#515,#523,#529));
#514 = ORIENTED_EDGE('',*,*,#57,.F.);
#515 = ORIENTED_EDGE('',*,*,#516,.T.);
#516 = EDGE_CURVE('',#58,#517,#519,.T.);
#517 = VERTEX_POINT('',#518);
#518 = CARTESIAN_POINT('',(107.,10.,14.));
#519 = LINE('',#520,#521);
#520 = CARTESIAN_POINT('',(107.,10.,0.));
#521 = VECTOR('',#522,1.);
#522 = DIRECTION('',(0.,0.,1.));
#523 = ORIENTED_EDGE('',*,*,#524,.T.);
#524 = EDGE_CURVE('',#517,#469,#525,.T.);
#525 = LINE('',#526,#527);
#526 = CARTESIAN_POINT('',(110.,10.,14.));
#527 = VECTOR('',#528,1.);
#528 = DIRECTION('',(-1.,0.,0.));
#529 = ORIENTED_EDGE('',*,*,#477,.F.);
#530 = FACE_BOUND('',#531,.T.);
#531 = EDGE_LOOP('',(#532));
#532 = ORIENTED_EDGE('',*,*,#533,.T.);
#533 = EDGE_CURVE('',#534,#534,#536,.T.);
#534 = VERTEX_POINT('',#535);
#535 = CARTESIAN_POINT('',(96.74042601148,10.,7.));
#536 = CIRCLE('',#537,1.2);
#537 = AXIS2_PLACEMENT_3D('',#538,#539,#540);
#538 = CARTESIAN_POINT('',(97.94042601148,10.,7.));
#539 = DIRECTION('',(0.,1.,-2.2E-16));
#540 = DIRECTION('',(-1.,0.,0.));
#541 = PLANE('',#542);
#542 = AXIS2_PLACEMENT_3D('',#543,#544,#545);
#543 = CARTESIAN_POINT('',(110.,10.,0.));
#544 = DIRECTION('',(0.,-1.,0.));
#545 = DIRECTION('',(-1.,0.,0.));
#546 = ADVANCED_FACE('',(#547),#566,.F.);
#547 = FACE_BOUND('',#548,.F.);
#548 = EDGE_LOOP('',(#549,#550,#558,#565));
#549 = ORIENTED_EDGE('',*,*,#252,.T.);
#550 = ORIENTED_EDGE('',*,*,#551,.T.);
#551 = EDGE_CURVE('',#245,#552,#554,.T.);
#552 = VERTEX_POINT('',#553);
#553 = CARTESIAN_POINT('',(-20.54024586271,2.851001973641,14.));
#554 = LINE('',#555,#556);
#555 = CARTESIAN_POINT('',(-20.54024586271,2.851001973641,0.));
#556 = VECTOR('',#557,1.);
#557 = DIRECTION('',(0.,0.,1.));
#558 = ORIENTED_EDGE('',*,*,#559,.F.);
#559 = EDGE_CURVE('',#493,#552,#560,.T.);
#560 = CIRCLE('',#561,2.);
#561 = AXIS2_PLACEMENT_3D('',#562,#563,#564);
#562 = CARTESIAN_POINT('',(-18.73032994177,2.,14.));
#563 = DIRECTION('',(-0.,0.,1.));
#564 = DIRECTION('',(0.,-1.,0.));
#565 = ORIENTED_EDGE('',*,*,#492,.F.);
#566 = CYLINDRICAL_SURFACE('',#567,2.);
#567 = AXIS2_PLACEMENT_3D('',#568,#569,#570);
#568 = CARTESIAN_POINT('',(-18.73032994177,2.,0.));
#569 = DIRECTION('',(0.,0.,1.));
#570 = DIRECTION('',(0.,1.,0.));
#571 = ADVANCED_FACE('',(#572),#591,.T.);
#572 = FACE_BOUND('',#573,.F.);
#573 = EDGE_LOOP('',(#574,#575,#576,#585));
#574 = ORIENTED_EDGE('',*,*,#65,.T.);
#575 = ORIENTED_EDGE('',*,*,#516,.T.);
#576 = ORIENTED_EDGE('',*,*,#577,.F.);
#577 = EDGE_CURVE('',#578,#517,#580,.T.);
#578 = VERTEX_POINT('',#579);
#579 = CARTESIAN_POINT('',(110.,13.,14.));
#580 = CIRCLE('',#581,3.);
#581 = AXIS2_PLACEMENT_3D('',#582,#583,#584);
#582 = CARTESIAN_POINT('',(107.,13.,14.));
#583 = DIRECTION('',(-0.,-0.,-1.));
#584 = DIRECTION('',(0.,-1.,0.));
#585 = ORIENTED_EDGE('',*,*,#586,.F.);
#586 = EDGE_CURVE('',#66,#578,#587,.T.);
#587 = LINE('',#588,#589);
#588 = CARTESIAN_POINT('',(110.,13.,0.));
#589 = VECTOR('',#590,1.);
#590 = DIRECTION('',(0.,0.,1.));
#591 = CYLINDRICAL_SURFACE('',#592,3.);
#592 = AXIS2_PLACEMENT_3D('',#593,#594,#595);
#593 = CARTESIAN_POINT('',(107.,13.,0.));
#594 = DIRECTION('',(0.,0.,1.));
#595 = DIRECTION('',(1.,0.,0.));
#596 = ADVANCED_FACE('',(#597),#615,.F.);
#597 = FACE_BOUND('',#598,.F.);
#598 = EDGE_LOOP('',(#599,#600,#608,#614));
#599 = ORIENTED_EDGE('',*,*,#244,.F.);
#600 = ORIENTED_EDGE('',*,*,#601,.F.);
#601 = EDGE_CURVE('',#602,#236,#604,.T.);
#602 = VERTEX_POINT('',#603);
#603 = CARTESIAN_POINT('',(-21.34050884815,1.148998026359,14.));
#604 = LINE('',#605,#606);
#605 = CARTESIAN_POINT('',(-21.34050884815,1.148998026359,14.));
#606 = VECTOR('',#607,1.);
#607 = DIRECTION('',(0.,0.,-1.));
#608 = ORIENTED_EDGE('',*,*,#609,.F.);
#609 = EDGE_CURVE('',#552,#602,#610,.T.);
#610 = LINE('',#611,#612);
#611 = CARTESIAN_POINT('',(-19.24679173105,5.601927704022,14.));
#612 = VECTOR('',#613,1.);
#613 = DIRECTION('',(-0.425500986821,-0.904957960468,0.));
#614 = ORIENTED_EDGE('',*,*,#551,.F.);
#615 = PLANE('',#616);
#616 = AXIS2_PLACEMENT_3D('',#617,#618,#619);
#617 = CARTESIAN_POINT('',(-23.711266,-3.893142,0.));
#618 = DIRECTION('',(-0.904957960468,0.425500986821,0.));
#619 = DIRECTION('',(0.425500986821,0.904957960468,0.));
#620 = ADVANCED_FACE('',(#621),#639,.T.);
#621 = FACE_BOUND('',#622,.T.);
#622 = EDGE_LOOP('',(#623,#624,#632,#638));
#623 = ORIENTED_EDGE('',*,*,#74,.F.);
#624 = ORIENTED_EDGE('',*,*,#625,.T.);
#625 = EDGE_CURVE('',#75,#626,#628,.T.);
#626 = VERTEX_POINT('',#627);
#627 = CARTESIAN_POINT('',(110.,15.,14.));
#628 = LINE('',#629,#630);
#629 = CARTESIAN_POINT('',(110.,15.,0.));
#630 = VECTOR('',#631,1.);
#631 = DIRECTION('',(0.,0.,1.));
#632 = ORIENTED_EDGE('',*,*,#633,.T.);
#633 = EDGE_CURVE('',#626,#578,#634,.T.);
#634 = LINE('',#635,#636);
#635 = CARTESIAN_POINT('',(110.,18.,14.));
#636 = VECTOR('',#637,1.);
#637 = DIRECTION('',(0.,-1.,0.));
#638 = ORIENTED_EDGE('',*,*,#586,.F.);
#639 = PLANE('',#640);
#640 = AXIS2_PLACEMENT_3D('',#641,#642,#643);
#641 = CARTESIAN_POINT('',(110.,18.,0.));
#642 = DIRECTION('',(1.,0.,0.));
#643 = DIRECTION('',(0.,-1.,0.));
#644 = ADVANCED_FACE('',(#645),#664,.T.);
#645 = FACE_BOUND('',#646,.T.);
#646 = EDGE_LOOP('',(#647,#656,#662,#663));
#647 = ORIENTED_EDGE('',*,*,#648,.T.);
#648 = EDGE_CURVE('',#602,#649,#651,.T.);
#649 = VERTEX_POINT('',#650);
#650 = CARTESIAN_POINT('',(-23.15042476908,1.E-15,14.));
#651 = CIRCLE('',#652,2.);
#652 = AXIS2_PLACEMENT_3D('',#653,#654,#655);
#653 = CARTESIAN_POINT('',(-23.15042476908,2.,14.));
#654 = DIRECTION('',(0.,0.,-1.));
#655 = DIRECTION('',(0.,1.,0.));
#656 = ORIENTED_EDGE('',*,*,#657,.T.);
#657 = EDGE_CURVE('',#649,#228,#658,.T.);
#658 = LINE('',#659,#660);
#659 = CARTESIAN_POINT('',(-23.15042476908,8.9E-16,14.));
#660 = VECTOR('',#661,1.);
#661 = DIRECTION('',(0.,0.,-1.));
#662 = ORIENTED_EDGE('',*,*,#235,.F.);
#663 = ORIENTED_EDGE('',*,*,#601,.F.);
#664 = CYLINDRICAL_SURFACE('',#665,2.);
#665 = AXIS2_PLACEMENT_3D('',#666,#667,#668);
#666 = CARTESIAN_POINT('',(-23.15042476908,2.,14.));
#667 = DIRECTION('',(0.,0.,-1.));
#668 = DIRECTION('',(0.904957960468,-0.425500986821,0.));
#669 = ADVANCED_FACE('',(#670),#689,.T.);
#670 = FACE_BOUND('',#671,.F.);
#671 = EDGE_LOOP('',(#672,#673,#674,#683));
#672 = ORIENTED_EDGE('',*,*,#82,.T.);
#673 = ORIENTED_EDGE('',*,*,#625,.T.);
#674 = ORIENTED_EDGE('',*,*,#675,.F.);
#675 = EDGE_CURVE('',#676,#626,#678,.T.);
#676 = VERTEX_POINT('',#677);
#677 = CARTESIAN_POINT('',(107.,18.,14.));
#678 = CIRCLE('',#679,3.);
#679 = AXIS2_PLACEMENT_3D('',#680,#681,#682);
#680 = CARTESIAN_POINT('',(107.,15.,14.));
#681 = DIRECTION('',(-0.,-0.,-1.));
#682 = DIRECTION('',(0.,-1.,0.));
#683 = ORIENTED_EDGE('',*,*,#684,.F.);
#684 = EDGE_CURVE('',#83,#676,#685,.T.);
#685 = LINE('',#686,#687);
#686 = CARTESIAN_POINT('',(107.,18.,0.));
#687 = VECTOR('',#688,1.);
#688 = DIRECTION('',(0.,0.,1.));
#689 = CYLINDRICAL_SURFACE('',#690,3.);
#690 = AXIS2_PLACEMENT_3D('',#691,#692,#693);
#691 = CARTESIAN_POINT('',(107.,15.,0.));
#692 = DIRECTION('',(0.,0.,1.));
#693 = DIRECTION('',(0.,1.,0.));
#694 = ADVANCED_FACE('',(#695,#713),#724,.T.);
#695 = FACE_BOUND('',#696,.T.);
#696 = EDGE_LOOP('',(#697,#698,#699,#707));
#697 = ORIENTED_EDGE('',*,*,#227,.F.);
#698 = ORIENTED_EDGE('',*,*,#657,.F.);
#699 = ORIENTED_EDGE('',*,*,#700,.T.);
#700 = EDGE_CURVE('',#649,#701,#703,.T.);
#701 = VERTEX_POINT('',#702);
#702 = CARTESIAN_POINT('',(-46.84143432232,4.E-15,14.));
#703 = LINE('',#704,#705);
#704 = CARTESIAN_POINT('',(0.,0.,14.));
#705 = VECTOR('',#706,1.);
#706 = DIRECTION('',(-1.,0.,0.));
#707 = ORIENTED_EDGE('',*,*,#708,.F.);
#708 = EDGE_CURVE('',#219,#701,#709,.T.);
#709 = LINE('',#710,#711);
#710 = CARTESIAN_POINT('',(-46.84143432232,3.55E-15,0.));
#711 = VECTOR('',#712,1.);
#712 = DIRECTION('',(0.,0.,1.));
#713 = FACE_BOUND('',#714,.T.);
#714 = EDGE_LOOP('',(#715));
#715 = ORIENTED_EDGE('',*,*,#716,.T.);
#716 = EDGE_CURVE('',#717,#717,#719,.T.);
#717 = VERTEX_POINT('',#718);
#718 = CARTESIAN_POINT('',(-44.05,0.,7.));
#719 = CIRCLE('',#720,4.05);
#720 = AXIS2_PLACEMENT_3D('',#721,#722,#723);
#721 = CARTESIAN_POINT('',(-40.,0.,7.));
#722 = DIRECTION('',(0.,1.,-2.2E-16));
#723 = DIRECTION('',(-1.,0.,0.));
#724 = PLANE('',#725);
#725 = AXIS2_PLACEMENT_3D('',#726,#727,#728);
#726 = CARTESIAN_POINT('',(0.,0.,7.));
#727 = DIRECTION('',(-0.,-1.,-0.));
#728 = DIRECTION('',(0.,0.,-1.));
#729 = ADVANCED_FACE('',(#730,#748),#759,.T.);
#730 = FACE_BOUND('',#731,.T.);
#731 = EDGE_LOOP('',(#732,#733,#741,#747));
#732 = ORIENTED_EDGE('',*,*,#91,.F.);
#733 = ORIENTED_EDGE('',*,*,#734,.T.);
#734 = EDGE_CURVE('',#92,#735,#737,.T.);
#735 = VERTEX_POINT('',#736);
#736 = CARTESIAN_POINT('',(88.880852022961,18.,14.));
#737 = LINE('',#738,#739);
#738 = CARTESIAN_POINT('',(88.880852022961,18.,0.));
#739 = VECTOR('',#740,1.);
#740 = DIRECTION('',(0.,0.,1.));
#741 = ORIENTED_EDGE('',*,*,#742,.T.);
#742 = EDGE_CURVE('',#735,#676,#743,.T.);
#743 = LINE('',#744,#745);
#744 = CARTESIAN_POINT('',(85.722286345288,18.,14.));
#745 = VECTOR('',#746,1.);
#746 = DIRECTION('',(1.,0.,0.));
#747 = ORIENTED_EDGE('',*,*,#684,.F.);
#748 = FACE_BOUND('',#749,.T.);
#749 = EDGE_LOOP('',(#750));
#750 = ORIENTED_EDGE('',*,*,#751,.F.);
#751 = EDGE_CURVE('',#752,#752,#754,.T.);
#752 = VERTEX_POINT('',#753);
#753 = CARTESIAN_POINT('',(96.74042601148,18.,7.));
#754 = CIRCLE('',#755,1.2);
#755 = AXIS2_PLACEMENT_3D('',#756,#757,#758);
#756 = CARTESIAN_POINT('',(97.94042601148,18.,7.));
#757 = DIRECTION('',(0.,1.,-0.));
#758 = DIRECTION('',(-1.,0.,0.));
#759 = PLANE('',#760);
#760 = AXIS2_PLACEMENT_3D('',#761,#762,#763);
#761 = CARTESIAN_POINT('',(85.722286345288,18.,0.));
#762 = DIRECTION('',(0.,1.,0.));
#763 = DIRECTION('',(1.,0.,0.));
#764 = ADVANCED_FACE('',(#765),#784,.T.);
#765 = FACE_BOUND('',#766,.F.);
#766 = EDGE_LOOP('',(#767,#768,#776,#783));
#767 = ORIENTED_EDGE('',*,*,#218,.T.);
#768 = ORIENTED_EDGE('',*,*,#769,.T.);
#769 = EDGE_CURVE('',#211,#770,#772,.T.);
#770 = VERTEX_POINT('',#771);
#771 = CARTESIAN_POINT('',(-53.04163462178,0.851466950459,14.));
#772 = LINE('',#773,#774);
#773 = CARTESIAN_POINT('',(-53.04163462178,0.851466950459,0.));
#774 = VECTOR('',#775,1.);
#775 = DIRECTION('',(0.,0.,1.));
#776 = ORIENTED_EDGE('',*,*,#777,.F.);
#777 = EDGE_CURVE('',#701,#770,#778,.T.);
#778 = CIRCLE('',#779,23.);
#779 = AXIS2_PLACEMENT_3D('',#780,#781,#782);
#780 = CARTESIAN_POINT('',(-46.84143432232,23.,14.));
#781 = DIRECTION('',(-0.,-0.,-1.));
#782 = DIRECTION('',(0.,-1.,0.));
#783 = ORIENTED_EDGE('',*,*,#708,.F.);
#784 = CYLINDRICAL_SURFACE('',#785,23.);
#785 = AXIS2_PLACEMENT_3D('',#786,#787,#788);
#786 = CARTESIAN_POINT('',(-46.84143432232,23.,0.));
#787 = DIRECTION('',(0.,0.,1.));
#788 = DIRECTION('',(0.,-1.,0.));
#789 = ADVANCED_FACE('',(#790),#809,.T.);
#790 = FACE_BOUND('',#791,.F.);
#791 = EDGE_LOOP('',(#792,#793,#794,#803));
#792 = ORIENTED_EDGE('',*,*,#99,.T.);
#793 = ORIENTED_EDGE('',*,*,#734,.T.);
#794 = ORIENTED_EDGE('',*,*,#795,.F.);
#795 = EDGE_CURVE('',#796,#735,#798,.T.);
#796 = VERTEX_POINT('',#797);
#797 = CARTESIAN_POINT('',(82.680651723502,17.148533049541,14.));
#798 = CIRCLE('',#799,23.);
#799 = AXIS2_PLACEMENT_3D('',#800,#801,#802);
#800 = CARTESIAN_POINT('',(88.880852022961,-5.,14.));
#801 = DIRECTION('',(-0.,-0.,-1.));
#802 = DIRECTION('',(0.,-1.,0.));
#803 = ORIENTED_EDGE('',*,*,#804,.F.);
#804 = EDGE_CURVE('',#100,#796,#805,.T.);
#805 = LINE('',#806,#807);
#806 = CARTESIAN_POINT('',(82.680651723502,17.148533049541,0.));
#807 = VECTOR('',#808,1.);
#808 = DIRECTION('',(0.,0.,1.));
#809 = CYLINDRICAL_SURFACE('',#810,23.);
#810 = AXIS2_PLACEMENT_3D('',#811,#812,#813);
#811 = CARTESIAN_POINT('',(88.880852022961,-5.,0.));
#812 = DIRECTION('',(0.,0.,1.));
#813 = DIRECTION('',(-0.269573926063,0.962979697806,0.));
#814 = ADVANCED_FACE('',(#815),#833,.T.);
#815 = FACE_BOUND('',#816,.T.);
#816 = EDGE_LOOP('',(#817,#818,#819,#827));
#817 = ORIENTED_EDGE('',*,*,#210,.F.);
#818 = ORIENTED_EDGE('',*,*,#769,.T.);
#819 = ORIENTED_EDGE('',*,*,#820,.T.);
#820 = EDGE_CURVE('',#770,#821,#823,.T.);
#821 = VERTEX_POINT('',#822);
#822 = CARTESIAN_POINT('',(-82.6806517235,9.148533049541,14.));
#823 = LINE('',#824,#825);
#824 = CARTESIAN_POINT('',(-50.,0.,14.));
#825 = VECTOR('',#826,1.);
#826 = DIRECTION('',(-0.962979697806,0.269573926063,0.));
#827 = ORIENTED_EDGE('',*,*,#828,.F.);
#828 = EDGE_CURVE('',#202,#821,#829,.T.);
#829 = LINE('',#830,#831);
#830 = CARTESIAN_POINT('',(-82.6806517235,9.148533049541,0.));
#831 = VECTOR('',#832,1.);
#832 = DIRECTION('',(0.,0.,1.));
#833 = PLANE('',#834);
#834 = AXIS2_PLACEMENT_3D('',#835,#836,#837);
#835 = CARTESIAN_POINT('',(-50.,0.,0.));
#836 = DIRECTION('',(-0.269573926063,-0.962979697806,0.));
#837 = DIRECTION('',(-0.962979697806,0.269573926063,0.));
#838 = ADVANCED_FACE('',(#839),#857,.T.);
#839 = FACE_BOUND('',#840,.T.);
#840 = EDGE_LOOP('',(#841,#842,#850,#856));
#841 = ORIENTED_EDGE('',*,*,#108,.F.);
#842 = ORIENTED_EDGE('',*,*,#843,.T.);
#843 = EDGE_CURVE('',#109,#844,#846,.T.);
#844 = VERTEX_POINT('',#845);
#845 = CARTESIAN_POINT('',(54.470680850682,9.251510277777,14.));
#846 = LINE('',#847,#848);
#847 = CARTESIAN_POINT('',(54.470680850682,9.251510277777,0.));
#848 = VECTOR('',#849,1.);
#849 = DIRECTION('',(0.,0.,1.));
#850 = ORIENTED_EDGE('',*,*,#851,.T.);
#851 = EDGE_CURVE('',#844,#796,#852,.T.);
#852 = LINE('',#853,#854);
#853 = CARTESIAN_POINT('',(51.429046228896,8.400043327317,14.));
#854 = VECTOR('',#855,1.);
#855 = DIRECTION('',(0.962979697806,0.269573926063,0.));
#856 = ORIENTED_EDGE('',*,*,#804,.F.);
#857 = PLANE('',#858);
#858 = AXIS2_PLACEMENT_3D('',#859,#860,#861);
#859 = CARTESIAN_POINT('',(51.429046228896,8.400043327317,0.));
#860 = DIRECTION('',(-0.269573926063,0.962979697806,0.));
#861 = DIRECTION('',(0.962979697806,0.269573926063,0.));
#862 = ADVANCED_FACE('',(#863),#882,.F.);
#863 = FACE_BOUND('',#864,.F.);
#864 = EDGE_LOOP('',(#865,#866,#874,#881));
#865 = ORIENTED_EDGE('',*,*,#201,.T.);
#866 = ORIENTED_EDGE('',*,*,#867,.T.);
#867 = EDGE_CURVE('',#194,#868,#870,.T.);
#868 = VERTEX_POINT('',#869);
#869 = CARTESIAN_POINT('',(-88.88085202296,10.,14.));
#870 = LINE('',#871,#872);
#871 = CARTESIAN_POINT('',(-88.88085202296,10.,0.));
#872 = VECTOR('',#873,1.);
#873 = DIRECTION('',(0.,0.,1.));
#874 = ORIENTED_EDGE('',*,*,#875,.F.);
#875 = EDGE_CURVE('',#821,#868,#876,.T.);
#876 = CIRCLE('',#877,23.);
#877 = AXIS2_PLACEMENT_3D('',#878,#879,#880);
#878 = CARTESIAN_POINT('',(-88.88085202296,-13.,14.));
#879 = DIRECTION('',(-0.,0.,1.));
#880 = DIRECTION('',(0.,-1.,0.));
#881 = ORIENTED_EDGE('',*,*,#828,.F.);
#882 = CYLINDRICAL_SURFACE('',#883,23.);
#883 = AXIS2_PLACEMENT_3D('',#884,#885,#886);
#884 = CARTESIAN_POINT('',(-88.88085202296,-13.,0.));
#885 = DIRECTION('',(0.,0.,1.));
#886 = DIRECTION('',(0.269573926063,0.962979697806,0.));
#887 = ADVANCED_FACE('',(#888),#907,.F.);
#888 = FACE_BOUND('',#889,.F.);
#889 = EDGE_LOOP('',(#890,#891,#892,#901));
#890 = ORIENTED_EDGE('',*,*,#116,.T.);
#891 = ORIENTED_EDGE('',*,*,#843,.T.);
#892 = ORIENTED_EDGE('',*,*,#893,.F.);
#893 = EDGE_CURVE('',#894,#844,#896,.T.);
#894 = VERTEX_POINT('',#895);
#895 = CARTESIAN_POINT('',(48.270480551223,8.400043327317,14.));
#896 = CIRCLE('',#897,23.);
#897 = AXIS2_PLACEMENT_3D('',#898,#899,#900);
#898 = CARTESIAN_POINT('',(48.270480551223,31.400043327317,14.));
#899 = DIRECTION('',(-0.,0.,1.));
#900 = DIRECTION('',(0.,-1.,0.));
#901 = ORIENTED_EDGE('',*,*,#902,.F.);
#902 = EDGE_CURVE('',#117,#894,#903,.T.);
#903 = LINE('',#904,#905);
#904 = CARTESIAN_POINT('',(48.270480551223,8.400043327317,0.));
#905 = VECTOR('',#906,1.);
#906 = DIRECTION('',(0.,0.,1.));
#907 = CYLINDRICAL_SURFACE('',#908,23.);
#908 = AXIS2_PLACEMENT_3D('',#909,#910,#911);
#909 = CARTESIAN_POINT('',(48.270480551223,31.400043327317,0.));
#910 = DIRECTION('',(0.,0.,1.));
#911 = DIRECTION('',(0.,-1.,0.));
#912 = ADVANCED_FACE('',(#913,#931),#942,.F.);
#913 = FACE_BOUND('',#914,.F.);
#914 = EDGE_LOOP('',(#915,#916,#924,#930));
#915 = ORIENTED_EDGE('',*,*,#193,.F.);
#916 = ORIENTED_EDGE('',*,*,#917,.T.);
#917 = EDGE_CURVE('',#185,#918,#920,.T.);
#918 = VERTEX_POINT('',#919);
#919 = CARTESIAN_POINT('',(-107.,10.,14.));
#920 = LINE('',#921,#922);
#921 = CARTESIAN_POINT('',(-107.,10.,0.));
#922 = VECTOR('',#923,1.);
#923 = DIRECTION('',(0.,0.,1.));
#924 = ORIENTED_EDGE('',*,*,#925,.T.);
#925 = EDGE_CURVE('',#918,#868,#926,.T.);
#926 = LINE('',#927,#928);
#927 = CARTESIAN_POINT('',(-110.,10.,14.));
#928 = VECTOR('',#929,1.);
#929 = DIRECTION('',(1.,0.,0.));
#930 = ORIENTED_EDGE('',*,*,#867,.F.);
#931 = FACE_BOUND('',#932,.F.);
#932 = EDGE_LOOP('',(#933));
#933 = ORIENTED_EDGE('',*,*,#934,.F.);
#934 = EDGE_CURVE('',#935,#935,#937,.T.);
#935 = VERTEX_POINT('',#936);
#936 = CARTESIAN_POINT('',(-99.14042601148,10.,7.));
#937 = CIRCLE('',#938,1.2);
#938 = AXIS2_PLACEMENT_3D('',#939,#940,#941);
#939 = CARTESIAN_POINT('',(-97.94042601148,10.,7.));
#940 = DIRECTION('',(0.,1.,-2.2E-16));
#941 = DIRECTION('',(-1.,0.,0.));
#942 = PLANE('',#943);
#943 = AXIS2_PLACEMENT_3D('',#944,#945,#946);
#944 = CARTESIAN_POINT('',(-110.,10.,0.));
#945 = DIRECTION('',(0.,1.,0.));
#946 = DIRECTION('',(1.,0.,0.));
#947 = ADVANCED_FACE('',(#948,#966,#977),#988,.T.);
#948 = FACE_BOUND('',#949,.T.);
#949 = EDGE_LOOP('',(#950,#951,#959,#965));
#950 = ORIENTED_EDGE('',*,*,#125,.F.);
#951 = ORIENTED_EDGE('',*,*,#952,.T.);
#952 = EDGE_CURVE('',#126,#953,#955,.T.);
#953 = VERTEX_POINT('',#954);
#954 = CARTESIAN_POINT('',(-48.27048055122,8.400043327317,14.));
#955 = LINE('',#956,#957);
#956 = CARTESIAN_POINT('',(-48.27048055122,8.400043327317,0.));
#957 = VECTOR('',#958,1.);
#958 = DIRECTION('',(0.,0.,1.));
#959 = ORIENTED_EDGE('',*,*,#960,.T.);
#960 = EDGE_CURVE('',#953,#894,#961,.T.);
#961 = LINE('',#962,#963);
#962 = CARTESIAN_POINT('',(0.,8.400043327317,14.));
#963 = VECTOR('',#964,1.);
#964 = DIRECTION('',(1.,0.,0.));
#965 = ORIENTED_EDGE('',*,*,#902,.F.);
#966 = FACE_BOUND('',#967,.T.);
#967 = EDGE_LOOP('',(#968));
#968 = ORIENTED_EDGE('',*,*,#969,.F.);
#969 = EDGE_CURVE('',#970,#970,#972,.T.);
#970 = VERTEX_POINT('',#971);
#971 = CARTESIAN_POINT('',(-44.05,8.400043327317,7.));
#972 = CIRCLE('',#973,4.05);
#973 = AXIS2_PLACEMENT_3D('',#974,#975,#976);
#974 = CARTESIAN_POINT('',(-40.,8.400043327317,7.));
#975 = DIRECTION('',(0.,1.,-0.));
#976 = DIRECTION('',(-1.,0.,0.));
#977 = FACE_BOUND('',#978,.T.);
#978 = EDGE_LOOP('',(#979));
#979 = ORIENTED_EDGE('',*,*,#980,.F.);
#980 = EDGE_CURVE('',#981,#981,#983,.T.);
#981 = VERTEX_POINT('',#982);
#982 = CARTESIAN_POINT('',(35.95,8.400043327317,7.));
#983 = CIRCLE('',#984,4.05);
#984 = AXIS2_PLACEMENT_3D('',#985,#986,#987);
#985 = CARTESIAN_POINT('',(40.,8.400043327317,7.));
#986 = DIRECTION('',(0.,1.,-0.));
#987 = DIRECTION('',(-1.,0.,0.));
#988 = PLANE('',#989);
#989 = AXIS2_PLACEMENT_3D('',#990,#991,#992);
#990 = CARTESIAN_POINT('',(9.7E-16,8.400043327317,7.));
#991 = DIRECTION('',(0.,1.,0.));
#992 = DIRECTION('',(0.,0.,1.));
#993 = ADVANCED_FACE('',(#994),#1013,.T.);
#994 = FACE_BOUND('',#995,.T.);
#995 = EDGE_LOOP('',(#996,#997,#998,#1007));
#996 = ORIENTED_EDGE('',*,*,#184,.T.);
#997 = ORIENTED_EDGE('',*,*,#917,.T.);
#998 = ORIENTED_EDGE('',*,*,#999,.F.);
#999 = EDGE_CURVE('',#1000,#918,#1002,.T.);
#1000 = VERTEX_POINT('',#1001);
#1001 = CARTESIAN_POINT('',(-110.,13.,14.));
#1002 = CIRCLE('',#1003,3.);
#1003 = AXIS2_PLACEMENT_3D('',#1004,#1005,#1006);
#1004 = CARTESIAN_POINT('',(-107.,13.,14.));
#1005 = DIRECTION('',(-0.,0.,1.));
#1006 = DIRECTION('',(0.,-1.,0.));
#1007 = ORIENTED_EDGE('',*,*,#1008,.F.);
#1008 = EDGE_CURVE('',#177,#1000,#1009,.T.);
#1009 = LINE('',#1010,#1011);
#1010 = CARTESIAN_POINT('',(-110.,13.,0.));
#1011 = VECTOR('',#1012,1.);
#1012 = DIRECTION('',(0.,0.,1.));
#1013 = CYLINDRICAL_SURFACE('',#1014,3.);
#1014 = AXIS2_PLACEMENT_3D('',#1015,#1016,#1017);
#1015 = CARTESIAN_POINT('',(-107.,13.,0.));
#1016 = DIRECTION('',(0.,0.,1.));
#1017 = DIRECTION('',(-1.,0.,0.));
#1018 = ADVANCED_FACE('',(#1019),#1038,.F.);
#1019 = FACE_BOUND('',#1020,.F.);
#1020 = EDGE_LOOP('',(#1021,#1022,#1023,#1032));
#1021 = ORIENTED_EDGE('',*,*,#133,.T.);
#1022 = ORIENTED_EDGE('',*,*,#952,.T.);
#1023 = ORIENTED_EDGE('',*,*,#1024,.F.);
#1024 = EDGE_CURVE('',#1025,#953,#1027,.T.);
#1025 = VERTEX_POINT('',#1026);
#1026 = CARTESIAN_POINT('',(-54.47068085068,9.251510277777,14.));
#1027 = CIRCLE('',#1028,23.);
#1028 = AXIS2_PLACEMENT_3D('',#1029,#1030,#1031);
#1029 = CARTESIAN_POINT('',(-48.27048055122,31.400043327317,14.));
#1030 = DIRECTION('',(-0.,0.,1.));
#1031 = DIRECTION('',(0.,-1.,0.));
#1032 = ORIENTED_EDGE('',*,*,#1033,.F.);
#1033 = EDGE_CURVE('',#134,#1025,#1034,.T.);
#1034 = LINE('',#1035,#1036);
#1035 = CARTESIAN_POINT('',(-54.47068085068,9.251510277777,0.));
#1036 = VECTOR('',#1037,1.);
#1037 = DIRECTION('',(0.,0.,1.));
#1038 = CYLINDRICAL_SURFACE('',#1039,23.);
#1039 = AXIS2_PLACEMENT_3D('',#1040,#1041,#1042);
#1040 = CARTESIAN_POINT('',(-48.27048055122,31.400043327317,0.));
#1041 = DIRECTION('',(0.,0.,1.));
#1042 = DIRECTION('',(-0.269573926063,-0.962979697806,0.));
#1043 = ADVANCED_FACE('',(#1044),#1062,.F.);
#1044 = FACE_BOUND('',#1045,.F.);
#1045 = EDGE_LOOP('',(#1046,#1047,#1055,#1061));
#1046 = ORIENTED_EDGE('',*,*,#176,.F.);
#1047 = ORIENTED_EDGE('',*,*,#1048,.T.);
#1048 = EDGE_CURVE('',#168,#1049,#1051,.T.);
#1049 = VERTEX_POINT('',#1050);
#1050 = CARTESIAN_POINT('',(-110.,15.,14.));
#1051 = LINE('',#1052,#1053);
#1052 = CARTESIAN_POINT('',(-110.,15.,0.));
#1053 = VECTOR('',#1054,1.);
#1054 = DIRECTION('',(0.,0.,1.));
#1055 = ORIENTED_EDGE('',*,*,#1056,.T.);
#1056 = EDGE_CURVE('',#1049,#1000,#1057,.T.);
#1057 = LINE('',#1058,#1059);
#1058 = CARTESIAN_POINT('',(-110.,18.,14.));
#1059 = VECTOR('',#1060,1.);
#1060 = DIRECTION('',(0.,-1.,0.));
#1061 = ORIENTED_EDGE('',*,*,#1008,.F.);
#1062 = PLANE('',#1063);
#1063 = AXIS2_PLACEMENT_3D('',#1064,#1065,#1066);
#1064 = CARTESIAN_POINT('',(-110.,18.,0.));
#1065 = DIRECTION('',(1.,0.,0.));
#1066 = DIRECTION('',(0.,-1.,0.));
#1067 = ADVANCED_FACE('',(#1068),#1086,.T.);
#1068 = FACE_BOUND('',#1069,.T.);
#1069 = EDGE_LOOP('',(#1070,#1071,#1079,#1085));
#1070 = ORIENTED_EDGE('',*,*,#142,.F.);
#1071 = ORIENTED_EDGE('',*,*,#1072,.T.);
#1072 = EDGE_CURVE('',#143,#1073,#1075,.T.);
#1073 = VERTEX_POINT('',#1074);
#1074 = CARTESIAN_POINT('',(-82.6806517235,17.148533049541,14.));
#1075 = LINE('',#1076,#1077);
#1076 = CARTESIAN_POINT('',(-82.6806517235,17.148533049541,0.));
#1077 = VECTOR('',#1078,1.);
#1078 = DIRECTION('',(0.,0.,1.));
#1079 = ORIENTED_EDGE('',*,*,#1080,.T.);
#1080 = EDGE_CURVE('',#1073,#1025,#1081,.T.);
#1081 = LINE('',#1082,#1083);
#1082 = CARTESIAN_POINT('',(-85.72228634528,18.,14.));
#1083 = VECTOR('',#1084,1.);
#1084 = DIRECTION('',(0.962979697806,-0.269573926063,0.));
#1085 = ORIENTED_EDGE('',*,*,#1033,.F.);
#1086 = PLANE('',#1087);
#1087 = AXIS2_PLACEMENT_3D('',#1088,#1089,#1090);
#1088 = CARTESIAN_POINT('',(-85.72228634528,18.,0.));
#1089 = DIRECTION('',(0.269573926063,0.962979697806,0.));
#1090 = DIRECTION('',(0.962979697806,-0.269573926063,0.));
#1091 = ADVANCED_FACE('',(#1092),#1111,.T.);
#1092 = FACE_BOUND('',#1093,.T.);
#1093 = EDGE_LOOP('',(#1094,#1095,#1096,#1105));
#1094 = ORIENTED_EDGE('',*,*,#167,.T.);
#1095 = ORIENTED_EDGE('',*,*,#1048,.T.);
#1096 = ORIENTED_EDGE('',*,*,#1097,.F.);
#1097 = EDGE_CURVE('',#1098,#1049,#1100,.T.);
#1098 = VERTEX_POINT('',#1099);
#1099 = CARTESIAN_POINT('',(-107.,18.,14.));
#1100 = CIRCLE('',#1101,3.);
#1101 = AXIS2_PLACEMENT_3D('',#1102,#1103,#1104);
#1102 = CARTESIAN_POINT('',(-107.,15.,14.));
#1103 = DIRECTION('',(-0.,0.,1.));
#1104 = DIRECTION('',(0.,-1.,0.));
#1105 = ORIENTED_EDGE('',*,*,#1106,.F.);
#1106 = EDGE_CURVE('',#160,#1098,#1107,.T.);
#1107 = LINE('',#1108,#1109);
#1108 = CARTESIAN_POINT('',(-107.,18.,0.));
#1109 = VECTOR('',#1110,1.);
#1110 = DIRECTION('',(0.,0.,1.));
#1111 = CYLINDRICAL_SURFACE('',#1112,3.);
#1112 = AXIS2_PLACEMENT_3D('',#1113,#1114,#1115);
#1113 = CARTESIAN_POINT('',(-107.,15.,0.));
#1114 = DIRECTION('',(0.,0.,1.));
#1115 = DIRECTION('',(0.,1.,0.));
#1116 = ADVANCED_FACE('',(#1117),#1136,.T.);
#1117 = FACE_BOUND('',#1118,.T.);
#1118 = EDGE_LOOP('',(#1119,#1120,#1128,#1135));
#1119 = ORIENTED_EDGE('',*,*,#150,.T.);
#1120 = ORIENTED_EDGE('',*,*,#1121,.T.);
#1121 = EDGE_CURVE('',#151,#1122,#1124,.T.);
#1122 = VERTEX_POINT('',#1123);
#1123 = CARTESIAN_POINT('',(-88.88085202296,18.,14.));
#1124 = LINE('',#1125,#1126);
#1125 = CARTESIAN_POINT('',(-88.88085202296,18.,0.));
#1126 = VECTOR('',#1127,1.);
#1127 = DIRECTION('',(0.,0.,1.));
#1128 = ORIENTED_EDGE('',*,*,#1129,.F.);
#1129 = EDGE_CURVE('',#1073,#1122,#1130,.T.);
#1130 = CIRCLE('',#1131,23.);
#1131 = AXIS2_PLACEMENT_3D('',#1132,#1133,#1134);
#1132 = CARTESIAN_POINT('',(-88.88085202296,-5.,14.));
#1133 = DIRECTION('',(-0.,0.,1.));
#1134 = DIRECTION('',(0.,-1.,0.));
#1135 = ORIENTED_EDGE('',*,*,#1072,.F.);
#1136 = CYLINDRICAL_SURFACE('',#1137,23.);
#1137 = AXIS2_PLACEMENT_3D('',#1138,#1139,#1140);
#1138 = CARTESIAN_POINT('',(-88.88085202296,-5.,0.));
#1139 = DIRECTION('',(0.,0.,1.));
#1140 = DIRECTION('',(0.269573926063,0.962979697806,0.));
#1141 = ADVANCED_FACE('',(#1142,#1153),#1164,.F.);
#1142 = FACE_BOUND('',#1143,.F.);
#1143 = EDGE_LOOP('',(#1144,#1145,#1146,#1152));
#1144 = ORIENTED_EDGE('',*,*,#159,.F.);
#1145 = ORIENTED_EDGE('',*,*,#1121,.T.);
#1146 = ORIENTED_EDGE('',*,*,#1147,.T.);
#1147 = EDGE_CURVE('',#1122,#1098,#1148,.T.);
#1148 = LINE('',#1149,#1150);
#1149 = CARTESIAN_POINT('',(-85.72228634528,18.,14.));
#1150 = VECTOR('',#1151,1.);
#1151 = DIRECTION('',(-1.,0.,0.));
#1152 = ORIENTED_EDGE('',*,*,#1106,.F.);
#1153 = FACE_BOUND('',#1154,.F.);
#1154 = EDGE_LOOP('',(#1155));
#1155 = ORIENTED_EDGE('',*,*,#1156,.T.);
#1156 = EDGE_CURVE('',#1157,#1157,#1159,.T.);
#1157 = VERTEX_POINT('',#1158);
#1158 = CARTESIAN_POINT('',(-99.14042601148,18.,7.));
#1159 = CIRCLE('',#1160,1.2);
#1160 = AXIS2_PLACEMENT_3D('',#1161,#1162,#1163);
#1161 = CARTESIAN_POINT('',(-97.94042601148,18.,7.));
#1162 = DIRECTION('',(0.,1.,-0.));
#1163 = DIRECTION('',(-1.,0.,0.));
#1164 = PLANE('',#1165);
#1165 = AXIS2_PLACEMENT_3D('',#1166,#1167,#1168);
#1166 = CARTESIAN_POINT('',(-85.72228634528,18.,0.));
#1167 = DIRECTION('',(0.,-1.,0.));
#1168 = DIRECTION('',(-1.,0.,0.));
#1169 = ADVANCED_FACE('',(#1170),#1204,.T.);
#1170 = FACE_BOUND('',#1171,.T.);
#1171 = EDGE_LOOP('',(#1172,#1173,#1174,#1175,#1176,#1177,#1178,#1179,
    #1180,#1181,#1182,#1183,#1184,#1185,#1186,#1187,#1188,#1189,#1190,
    #1191,#1192,#1193,#1194,#1195,#1196,#1197,#1198,#1199,#1200,#1201,
    #1202,#1203));
#1172 = ORIENTED_EDGE('',*,*,#310,.F.);
#1173 = ORIENTED_EDGE('',*,*,#370,.F.);
#1174 = ORIENTED_EDGE('',*,*,#426,.F.);
#1175 = ORIENTED_EDGE('',*,*,#468,.F.);
#1176 = ORIENTED_EDGE('',*,*,#524,.F.);
#1177 = ORIENTED_EDGE('',*,*,#577,.F.);
#1178 = ORIENTED_EDGE('',*,*,#633,.F.);
#1179 = ORIENTED_EDGE('',*,*,#675,.F.);
#1180 = ORIENTED_EDGE('',*,*,#742,.F.);
#1181 = ORIENTED_EDGE('',*,*,#795,.F.);
#1182 = ORIENTED_EDGE('',*,*,#851,.F.);
#1183 = ORIENTED_EDGE('',*,*,#893,.F.);
#1184 = ORIENTED_EDGE('',*,*,#960,.F.);
#1185 = ORIENTED_EDGE('',*,*,#1024,.F.);
#1186 = ORIENTED_EDGE('',*,*,#1080,.F.);
#1187 = ORIENTED_EDGE('',*,*,#1129,.T.);
#1188 = ORIENTED_EDGE('',*,*,#1147,.T.);
#1189 = ORIENTED_EDGE('',*,*,#1097,.T.);
#1190 = ORIENTED_EDGE('',*,*,#1056,.T.);
#1191 = ORIENTED_EDGE('',*,*,#999,.T.);
#1192 = ORIENTED_EDGE('',*,*,#925,.T.);
#1193 = ORIENTED_EDGE('',*,*,#875,.F.);
#1194 = ORIENTED_EDGE('',*,*,#820,.F.);
#1195 = ORIENTED_EDGE('',*,*,#777,.F.);
#1196 = ORIENTED_EDGE('',*,*,#700,.F.);
#1197 = ORIENTED_EDGE('',*,*,#648,.F.);
#1198 = ORIENTED_EDGE('',*,*,#609,.F.);
#1199 = ORIENTED_EDGE('',*,*,#559,.F.);
#1200 = ORIENTED_EDGE('',*,*,#500,.F.);
#1201 = ORIENTED_EDGE('',*,*,#450,.F.);
#1202 = ORIENTED_EDGE('',*,*,#402,.F.);
#1203 = ORIENTED_EDGE('',*,*,#352,.F.);
#1204 = PLANE('',#1205);
#1205 = AXIS2_PLACEMENT_3D('',#1206,#1207,#1208);
#1206 = CARTESIAN_POINT('',(-3.94E-15,8.146519106968,14.));
#1207 = DIRECTION('',(0.,0.,1.));
#1208 = DIRECTION('',(1.,0.,0.));
#1209 = ADVANCED_FACE('',(#1210),#1221,.F.);
#1210 = FACE_BOUND('',#1211,.F.);
#1211 = EDGE_LOOP('',(#1212,#1213,#1219,#1220));
#1212 = ORIENTED_EDGE('',*,*,#980,.F.);
#1213 = ORIENTED_EDGE('',*,*,#1214,.T.);
#1214 = EDGE_CURVE('',#981,#327,#1215,.T.);
#1215 = LINE('',#1216,#1217);
#1216 = CARTESIAN_POINT('',(35.95,8.400043327317,7.));
#1217 = VECTOR('',#1218,1.);
#1218 = DIRECTION('',(0.,-1.,2.2E-16));
#1219 = ORIENTED_EDGE('',*,*,#326,.T.);
#1220 = ORIENTED_EDGE('',*,*,#1214,.F.);
#1221 = CYLINDRICAL_SURFACE('',#1222,4.05);
#1222 = AXIS2_PLACEMENT_3D('',#1223,#1224,#1225);
#1223 = CARTESIAN_POINT('',(40.,8.400043327317,7.));
#1224 = DIRECTION('',(0.,1.,-2.2E-16));
#1225 = DIRECTION('',(-1.,0.,0.));
#1226 = ADVANCED_FACE('',(#1227),#1238,.F.);
#1227 = FACE_BOUND('',#1228,.F.);
#1228 = EDGE_LOOP('',(#1229,#1230,#1236,#1237));
#1229 = ORIENTED_EDGE('',*,*,#751,.F.);
#1230 = ORIENTED_EDGE('',*,*,#1231,.T.);
#1231 = EDGE_CURVE('',#752,#534,#1232,.T.);
#1232 = LINE('',#1233,#1234);
#1233 = CARTESIAN_POINT('',(96.74042601148,18.,7.));
#1234 = VECTOR('',#1235,1.);
#1235 = DIRECTION('',(0.,-1.,2.2E-16));
#1236 = ORIENTED_EDGE('',*,*,#533,.T.);
#1237 = ORIENTED_EDGE('',*,*,#1231,.F.);
#1238 = CYLINDRICAL_SURFACE('',#1239,1.2);
#1239 = AXIS2_PLACEMENT_3D('',#1240,#1241,#1242);
#1240 = CARTESIAN_POINT('',(97.94042601148,18.,7.));
#1241 = DIRECTION('',(0.,1.,-2.2E-16));
#1242 = DIRECTION('',(-1.,0.,0.));
#1243 = ADVANCED_FACE('',(#1244),#1255,.F.);
#1244 = FACE_BOUND('',#1245,.F.);
#1245 = EDGE_LOOP('',(#1246,#1247,#1253,#1254));
#1246 = ORIENTED_EDGE('',*,*,#969,.F.);
#1247 = ORIENTED_EDGE('',*,*,#1248,.T.);
#1248 = EDGE_CURVE('',#970,#717,#1249,.T.);
#1249 = LINE('',#1250,#1251);
#1250 = CARTESIAN_POINT('',(-44.05,8.400043327317,7.));
#1251 = VECTOR('',#1252,1.);
#1252 = DIRECTION('',(0.,-1.,2.2E-16));
#1253 = ORIENTED_EDGE('',*,*,#716,.T.);
#1254 = ORIENTED_EDGE('',*,*,#1248,.F.);
#1255 = CYLINDRICAL_SURFACE('',#1256,4.05);
#1256 = AXIS2_PLACEMENT_3D('',#1257,#1258,#1259);
#1257 = CARTESIAN_POINT('',(-40.,8.400043327317,7.));
#1258 = DIRECTION('',(0.,1.,-2.2E-16));
#1259 = DIRECTION('',(-1.,0.,0.));
#1260 = ADVANCED_FACE('',(#1261),#1272,.F.);
#1261 = FACE_BOUND('',#1262,.F.);
#1262 = EDGE_LOOP('',(#1263,#1264,#1270,#1271));
#1263 = ORIENTED_EDGE('',*,*,#1156,.F.);
#1264 = ORIENTED_EDGE('',*,*,#1265,.T.);
#1265 = EDGE_CURVE('',#1157,#935,#1266,.T.);
#1266 = LINE('',#1267,#1268);
#1267 = CARTESIAN_POINT('',(-99.14042601148,18.,7.));
#1268 = VECTOR('',#1269,1.);
#1269 = DIRECTION('',(0.,-1.,2.2E-16));
#1270 = ORIENTED_EDGE('',*,*,#934,.T.);
#1271 = ORIENTED_EDGE('',*,*,#1265,.F.);
#1272 = CYLINDRICAL_SURFACE('',#1273,1.2);
#1273 = AXIS2_PLACEMENT_3D('',#1274,#1275,#1276);
#1274 = CARTESIAN_POINT('',(-97.94042601148,18.,7.));
#1275 = DIRECTION('',(0.,1.,-2.2E-16));
#1276 = DIRECTION('',(-1.,0.,0.));
#1277 = ( GEOMETRIC_REPRESENTATION_CONTEXT(3) 
GLOBAL_UNCERTAINTY_ASSIGNED_CONTEXT((#1281)) 
GLOBAL_UNIT_ASSIGNED_CONTEXT((#1278,#1279,#1280)) REPRESENTATION_CONTEXT
('Context #1','3D Context with UNIT and UNCERTAINTY') );
#1278 = ( LENGTH_UNIT() NAMED_UNIT(*) SI_UNIT(.MILLI.,.METRE.) );
#1279 = ( NAMED_UNIT(*) PLANE_ANGLE_UNIT() SI_UNIT($,.RADIAN.) );
#1280 = ( NAMED_UNIT(*) SI_UNIT($,.STERADIAN.) SOLID_ANGLE_UNIT() );
#1281 = UNCERTAINTY_MEASURE_WITH_UNIT(LENGTH_MEASURE(2.E-05),#1278,
  'distance_accuracy_value','confusion accuracy');
#1282 = PRODUCT_RELATED_PRODUCT_CATEGORY('part',$,(#7));
ENDSEC;
END-ISO-10303-21;
