ISO-10303-21;
HEADER;
FILE_DESCRIPTION(('FreeCAD Model'),'2;1');
FILE_NAME('Open CASCADE Shape Model','2026-08-28T13:04:04',('FreeCAD'),(
    'FreeCAD'),'Open CASCADE STEP processor 7.8','FreeCAD','Unknown');
FILE_SCHEMA(('AUTOMOTIVE_DESIGN { 1 0 10303 214 1 1 1 1 }'));
ENDSEC;
DATA;
#1 = APPLICATION_PROTOCOL_DEFINITION('international standard',
  'automotive_design',2000,#2);
#2 = APPLICATION_CONTEXT(
  'core data for automotive mechanical design processes');
#3 = SHAPE_DEFINITION_REPRESENTATION(#4,#10);
#4 = PRODUCT_DEFINITION_SHAPE('','',#5);
#5 = PRODUCT_DEFINITION('design','',#6,#9);
#6 = PRODUCT_DEFINITION_FORMATION('','',#7);
#7 = PRODUCT('Open CASCADE STEP translator 7.8 39',
  'Open CASCADE STEP translator 7.8 39','',(#8));
#8 = PRODUCT_CONTEXT('',#2,'mechanical');
#9 = PRODUCT_DEFINITION_CONTEXT('part definition',#2,'design');
#10 = ADVANCED_BREP_SHAPE_REPRESENTATION('',(#11,#15),#1327);
#11 = AXIS2_PLACEMENT_3D('',#12,#13,#14);
#12 = CARTESIAN_POINT('',(0.,0.,0.));
#13 = DIRECTION('',(0.,0.,1.));
#14 = DIRECTION('',(1.,0.,-0.));
#15 = MANIFOLD_SOLID_BREP('',#16);
#16 = CLOSED_SHELL('',(#17,#269,#332,#357,#382,#406,#430,#454,#479,#503,
    #559,#584,#609,#633,#657,#682,#706,#730,#754,#778,#803,#827,#851,
    #875,#900,#917,#942,#967,#992,#1017,#1098,#1123,#1177,#1194,#1214,
    #1231,#1243,#1268,#1293,#1310));
#17 = ADVANCED_FACE('',(#18,#220,#231,#242,#253),#264,.T.);
#18 = FACE_BOUND('',#19,.T.);
#19 = EDGE_LOOP('',(#20,#30,#39,#47,#55,#63,#72,#80,#89,#97,#105,#113,
    #121,#129,#138,#146,#155,#163,#171,#179,#188,#196,#205,#213));
#20 = ORIENTED_EDGE('',*,*,#21,.F.);
#21 = EDGE_CURVE('',#22,#24,#26,.T.);
#22 = VERTEX_POINT('',#23);
#23 = CARTESIAN_POINT('',(41.580668173548,-33.4292672613,-3.));
#24 = VERTEX_POINT('',#25);
#25 = CARTESIAN_POINT('',(41.580668173548,-19.4292672613,-3.));
#26 = LINE('',#27,#28);
#27 = CARTESIAN_POINT('',(41.580668173548,-35.4292672613,-3.));
#28 = VECTOR('',#29,1.);
#29 = DIRECTION('',(0.,1.,0.));
#30 = ORIENTED_EDGE('',*,*,#31,.F.);
#31 = EDGE_CURVE('',#32,#22,#34,.T.);
#32 = VERTEX_POINT('',#33);
#33 = CARTESIAN_POINT('',(38.580668173548,-36.4292672613,-3.));
#34 = CIRCLE('',#35,3.);
#35 = AXIS2_PLACEMENT_3D('',#36,#37,#38);
#36 = CARTESIAN_POINT('',(38.580668173548,-33.4292672613,-3.));
#37 = DIRECTION('',(-0.,0.,1.));
#38 = DIRECTION('',(0.,-1.,0.));
#39 = ORIENTED_EDGE('',*,*,#40,.F.);
#40 = EDGE_CURVE('',#41,#32,#43,.T.);
#41 = VERTEX_POINT('',#42);
#42 = CARTESIAN_POINT('',(28.876450506713,-36.4292672613,-3.));
#43 = LINE('',#44,#45);
#44 = CARTESIAN_POINT('',(-41.58066817354,-36.4292672613,-3.));
#45 = VECTOR('',#46,1.);
#46 = DIRECTION('',(1.,0.,0.));
#47 = ORIENTED_EDGE('',*,*,#48,.F.);
#48 = EDGE_CURVE('',#49,#41,#51,.T.);
#49 = VERTEX_POINT('',#50);
#50 = CARTESIAN_POINT('',(24.,-47.85216111866,-3.));
#51 = LINE('',#52,#53);
#52 = CARTESIAN_POINT('',(24.,-47.85216111866,-3.));
#53 = VECTOR('',#54,1.);
#54 = DIRECTION('',(0.392621390424,0.919700192335,0.));
#55 = ORIENTED_EDGE('',*,*,#56,.F.);
#56 = EDGE_CURVE('',#57,#49,#59,.T.);
#57 = VERTEX_POINT('',#58);
#58 = CARTESIAN_POINT('',(24.,-57.4292672613,-3.));
#59 = LINE('',#60,#61);
#60 = CARTESIAN_POINT('',(24.,-65.00637340394,-3.));
#61 = VECTOR('',#62,1.);
#62 = DIRECTION('',(0.,1.,0.));
#63 = ORIENTED_EDGE('',*,*,#64,.F.);
#64 = EDGE_CURVE('',#65,#57,#67,.T.);
#65 = VERTEX_POINT('',#66);
#66 = CARTESIAN_POINT('',(21.,-60.4292672613,-3.));
#67 = CIRCLE('',#68,3.);
#68 = AXIS2_PLACEMENT_3D('',#69,#70,#71);
#69 = CARTESIAN_POINT('',(21.,-57.4292672613,-3.));
#70 = DIRECTION('',(-0.,0.,1.));
#71 = DIRECTION('',(0.,-1.,0.));
#72 = ORIENTED_EDGE('',*,*,#73,.F.);
#73 = EDGE_CURVE('',#74,#65,#76,.T.);
#74 = VERTEX_POINT('',#75);
#75 = CARTESIAN_POINT('',(19.,-60.4292672613,-3.));
#76 = LINE('',#77,#78);
#77 = CARTESIAN_POINT('',(-41.58066817354,-60.4292672613,-3.));
#78 = VECTOR('',#79,1.);
#79 = DIRECTION('',(1.,0.,0.));
#80 = ORIENTED_EDGE('',*,*,#81,.F.);
#81 = EDGE_CURVE('',#82,#74,#84,.T.);
#82 = VERTEX_POINT('',#83);
#83 = CARTESIAN_POINT('',(16.,-57.4292672613,-3.));
#84 = CIRCLE('',#85,3.);
#85 = AXIS2_PLACEMENT_3D('',#86,#87,#88);
#86 = CARTESIAN_POINT('',(19.,-57.4292672613,-3.));
#87 = DIRECTION('',(0.,-0.,1.));
#88 = DIRECTION('',(0.,1.,0.));
#89 = ORIENTED_EDGE('',*,*,#90,.F.);
#90 = EDGE_CURVE('',#91,#82,#93,.T.);
#91 = VERTEX_POINT('',#92);
#92 = CARTESIAN_POINT('',(16.,-47.85216111866,-3.));
#93 = LINE('',#94,#95);
#94 = CARTESIAN_POINT('',(16.,-47.85216111866,-3.));
#95 = VECTOR('',#96,1.);
#96 = DIRECTION('',(0.,-1.,0.));
#97 = ORIENTED_EDGE('',*,*,#98,.F.);
#98 = EDGE_CURVE('',#99,#91,#101,.T.);
#99 = VERTEX_POINT('',#100);
#100 = CARTESIAN_POINT('',(17.394972285022,-36.4292672613,-3.));
#101 = LINE('',#102,#103);
#102 = CARTESIAN_POINT('',(18.005576,-31.4292672613,-3.));
#103 = VECTOR('',#104,1.);
#104 = DIRECTION('',(-0.121220181074,-0.992625643282,0.));
#105 = ORIENTED_EDGE('',*,*,#106,.F.);
#106 = EDGE_CURVE('',#107,#99,#109,.T.);
#107 = VERTEX_POINT('',#108);
#108 = CARTESIAN_POINT('',(-17.23656893376,-36.4292672613,-3.));
#109 = LINE('',#110,#111);
#110 = CARTESIAN_POINT('',(-41.58066817354,-36.4292672613,-3.));
#111 = VECTOR('',#112,1.);
#112 = DIRECTION('',(1.,0.,0.));
#113 = ORIENTED_EDGE('',*,*,#114,.F.);
#114 = EDGE_CURVE('',#115,#107,#117,.T.);
#115 = VERTEX_POINT('',#116);
#116 = CARTESIAN_POINT('',(-16.,-47.85216111866,-3.));
#117 = LINE('',#118,#119);
#118 = CARTESIAN_POINT('',(-16.,-47.85216111866,-3.));
#119 = VECTOR('',#120,1.);
#120 = DIRECTION('',(-0.107624779071,0.99419158462,-0.));
#121 = ORIENTED_EDGE('',*,*,#122,.F.);
#122 = EDGE_CURVE('',#123,#115,#125,.T.);
#123 = VERTEX_POINT('',#124);
#124 = CARTESIAN_POINT('',(-16.,-57.4292672613,-3.));
#125 = LINE('',#126,#127);
#126 = CARTESIAN_POINT('',(-16.,-65.00637340394,-3.));
#127 = VECTOR('',#128,1.);
#128 = DIRECTION('',(0.,1.,0.));
#129 = ORIENTED_EDGE('',*,*,#130,.F.);
#130 = EDGE_CURVE('',#131,#123,#133,.T.);
#131 = VERTEX_POINT('',#132);
#132 = CARTESIAN_POINT('',(-19.,-60.4292672613,-3.));
#133 = CIRCLE('',#134,3.);
#134 = AXIS2_PLACEMENT_3D('',#135,#136,#137);
#135 = CARTESIAN_POINT('',(-19.,-57.4292672613,-3.));
#136 = DIRECTION('',(-0.,0.,1.));
#137 = DIRECTION('',(0.,-1.,0.));
#138 = ORIENTED_EDGE('',*,*,#139,.F.);
#139 = EDGE_CURVE('',#140,#131,#142,.T.);
#140 = VERTEX_POINT('',#141);
#141 = CARTESIAN_POINT('',(-21.,-60.4292672613,-3.));
#142 = LINE('',#143,#144);
#143 = CARTESIAN_POINT('',(-41.58066817354,-60.4292672613,-3.));
#144 = VECTOR('',#145,1.);
#145 = DIRECTION('',(1.,0.,0.));
#146 = ORIENTED_EDGE('',*,*,#147,.F.);
#147 = EDGE_CURVE('',#148,#140,#150,.T.);
#148 = VERTEX_POINT('',#149);
#149 = CARTESIAN_POINT('',(-24.,-57.4292672613,-3.));
#150 = CIRCLE('',#151,3.);
#151 = AXIS2_PLACEMENT_3D('',#152,#153,#154);
#152 = CARTESIAN_POINT('',(-21.,-57.4292672613,-3.));
#153 = DIRECTION('',(-0.,0.,1.));
#154 = DIRECTION('',(0.,-1.,0.));
#155 = ORIENTED_EDGE('',*,*,#156,.T.);
#156 = EDGE_CURVE('',#148,#157,#159,.T.);
#157 = VERTEX_POINT('',#158);
#158 = CARTESIAN_POINT('',(-24.,-47.85216111866,-3.));
#159 = LINE('',#160,#161);
#160 = CARTESIAN_POINT('',(-24.,-65.00637340394,-3.));
#161 = VECTOR('',#162,1.);
#162 = DIRECTION('',(0.,1.,0.));
#163 = ORIENTED_EDGE('',*,*,#164,.T.);
#164 = EDGE_CURVE('',#157,#165,#167,.T.);
#165 = VERTEX_POINT('',#166);
#166 = CARTESIAN_POINT('',(-28.71804715545,-36.4292672613,-3.));
#167 = LINE('',#168,#169);
#168 = CARTESIAN_POINT('',(-24.,-47.85216111866,-3.));
#169 = VECTOR('',#170,1.);
#170 = DIRECTION('',(-0.381752920541,0.924264414364,-0.));
#171 = ORIENTED_EDGE('',*,*,#172,.F.);
#172 = EDGE_CURVE('',#173,#165,#175,.T.);
#173 = VERTEX_POINT('',#174);
#174 = CARTESIAN_POINT('',(-38.58066817354,-36.4292672613,-3.));
#175 = LINE('',#176,#177);
#176 = CARTESIAN_POINT('',(-41.58066817354,-36.4292672613,-3.));
#177 = VECTOR('',#178,1.);
#178 = DIRECTION('',(1.,0.,0.));
#179 = ORIENTED_EDGE('',*,*,#180,.T.);
#180 = EDGE_CURVE('',#173,#181,#183,.T.);
#181 = VERTEX_POINT('',#182);
#182 = CARTESIAN_POINT('',(-41.58066817354,-33.4292672613,-3.));
#183 = CIRCLE('',#184,3.);
#184 = AXIS2_PLACEMENT_3D('',#185,#186,#187);
#185 = CARTESIAN_POINT('',(-38.58066817354,-33.4292672613,-3.));
#186 = DIRECTION('',(0.,0.,-1.));
#187 = DIRECTION('',(0.,1.,0.));
#188 = ORIENTED_EDGE('',*,*,#189,.F.);
#189 = EDGE_CURVE('',#190,#181,#192,.T.);
#190 = VERTEX_POINT('',#191);
#191 = CARTESIAN_POINT('',(-41.58066817354,-19.4292672613,-3.));
#192 = LINE('',#193,#194);
#193 = CARTESIAN_POINT('',(-41.58066817354,-31.4292672613,-3.));
#194 = VECTOR('',#195,1.);
#195 = DIRECTION('',(0.,-1.,2.2E-16));
#196 = ORIENTED_EDGE('',*,*,#197,.T.);
#197 = EDGE_CURVE('',#190,#198,#200,.T.);
#198 = VERTEX_POINT('',#199);
#199 = CARTESIAN_POINT('',(-37.58066817354,-15.4292672613,-3.));
#200 = CIRCLE('',#201,4.);
#201 = AXIS2_PLACEMENT_3D('',#202,#203,#204);
#202 = CARTESIAN_POINT('',(-37.58066817354,-19.4292672613,-3.));
#203 = DIRECTION('',(-0.,-0.,-1.));
#204 = DIRECTION('',(0.,-1.,0.));
#205 = ORIENTED_EDGE('',*,*,#206,.F.);
#206 = EDGE_CURVE('',#207,#198,#209,.T.);
#207 = VERTEX_POINT('',#208);
#208 = CARTESIAN_POINT('',(37.580668173548,-15.4292672613,-3.));
#209 = LINE('',#210,#211);
#210 = CARTESIAN_POINT('',(41.580668173548,-15.4292672613,-3.));
#211 = VECTOR('',#212,1.);
#212 = DIRECTION('',(-1.,0.,0.));
#213 = ORIENTED_EDGE('',*,*,#214,.F.);
#214 = EDGE_CURVE('',#24,#207,#215,.T.);
#215 = CIRCLE('',#216,4.);
#216 = AXIS2_PLACEMENT_3D('',#217,#218,#219);
#217 = CARTESIAN_POINT('',(37.580668173548,-19.4292672613,-3.));
#218 = DIRECTION('',(-0.,0.,1.));
#219 = DIRECTION('',(0.,-1.,0.));
#220 = FACE_BOUND('',#221,.T.);
#221 = EDGE_LOOP('',(#222));
#222 = ORIENTED_EDGE('',*,*,#223,.T.);
#223 = EDGE_CURVE('',#224,#224,#226,.T.);
#224 = VERTEX_POINT('',#225);
#225 = CARTESIAN_POINT('',(31.75,-23.4292672613,-3.));
#226 = CIRCLE('',#227,1.75);
#227 = AXIS2_PLACEMENT_3D('',#228,#229,#230);
#228 = CARTESIAN_POINT('',(30.,-23.4292672613,-3.));
#229 = DIRECTION('',(0.,0.,1.));
#230 = DIRECTION('',(1.,0.,0.));
#231 = FACE_BOUND('',#232,.T.);
#232 = EDGE_LOOP('',(#233));
#233 = ORIENTED_EDGE('',*,*,#234,.T.);
#234 = EDGE_CURVE('',#235,#235,#237,.T.);
#235 = VERTEX_POINT('',#236);
#236 = CARTESIAN_POINT('',(-28.25,-23.4292672613,-3.));
#237 = CIRCLE('',#238,1.75);
#238 = AXIS2_PLACEMENT_3D('',#239,#240,#241);
#239 = CARTESIAN_POINT('',(-30.,-23.4292672613,-3.));
#240 = DIRECTION('',(0.,0.,1.));
#241 = DIRECTION('',(1.,0.,0.));
#242 = FACE_BOUND('',#243,.T.);
#243 = EDGE_LOOP('',(#244));
#244 = ORIENTED_EDGE('',*,*,#245,.F.);
#245 = EDGE_CURVE('',#246,#246,#248,.T.);
#246 = VERTEX_POINT('',#247);
#247 = CARTESIAN_POINT('',(-18.4,-56.4292672613,-3.));
#248 = CIRCLE('',#249,1.6);
#249 = AXIS2_PLACEMENT_3D('',#250,#251,#252);
#250 = CARTESIAN_POINT('',(-20.,-56.4292672613,-3.));
#251 = DIRECTION('',(0.,0.,-1.));
#252 = DIRECTION('',(1.,0.,0.));
#253 = FACE_BOUND('',#254,.T.);
#254 = EDGE_LOOP('',(#255));
#255 = ORIENTED_EDGE('',*,*,#256,.F.);
#256 = EDGE_CURVE('',#257,#257,#259,.T.);
#257 = VERTEX_POINT('',#258);
#258 = CARTESIAN_POINT('',(21.6,-56.4292672613,-3.));
#259 = CIRCLE('',#260,1.6);
#260 = AXIS2_PLACEMENT_3D('',#261,#262,#263);
#261 = CARTESIAN_POINT('',(20.,-56.4292672613,-3.));
#262 = DIRECTION('',(0.,0.,-1.));
#263 = DIRECTION('',(1.,0.,0.));
#264 = PLANE('',#265);
#265 = AXIS2_PLACEMENT_3D('',#266,#267,#268);
#266 = CARTESIAN_POINT('',(6.740683527317E-03,-34.53117086307,-3.));
#267 = DIRECTION('',(-0.,-0.,-1.));
#268 = DIRECTION('',(-1.,0.,0.));
#269 = ADVANCED_FACE('',(#270),#327,.T.);
#270 = FACE_BOUND('',#271,.T.);
#271 = EDGE_LOOP('',(#272,#282,#288,#289,#297,#305,#313,#321));
#272 = ORIENTED_EDGE('',*,*,#273,.T.);
#273 = EDGE_CURVE('',#274,#276,#278,.T.);
#274 = VERTEX_POINT('',#275);
#275 = CARTESIAN_POINT('',(41.580668173548,-19.4292672613,11.));
#276 = VERTEX_POINT('',#277);
#277 = CARTESIAN_POINT('',(41.580668173548,-33.4292672613,11.));
#278 = LINE('',#279,#280);
#279 = CARTESIAN_POINT('',(41.580668173548,-35.4292672613,11.));
#280 = VECTOR('',#281,1.);
#281 = DIRECTION('',(0.,-1.,2.2E-16));
#282 = ORIENTED_EDGE('',*,*,#283,.F.);
#283 = EDGE_CURVE('',#22,#276,#284,.T.);
#284 = LINE('',#285,#286);
#285 = CARTESIAN_POINT('',(41.580668173548,-33.4292672613,-3.));
#286 = VECTOR('',#287,1.);
#287 = DIRECTION('',(0.,0.,1.));
#288 = ORIENTED_EDGE('',*,*,#21,.T.);
#289 = ORIENTED_EDGE('',*,*,#290,.T.);
#290 = EDGE_CURVE('',#24,#291,#293,.T.);
#291 = VERTEX_POINT('',#292);
#292 = CARTESIAN_POINT('',(41.580668173548,-19.4292672613,
    8.881784197001E-16));
#293 = LINE('',#294,#295);
#294 = CARTESIAN_POINT('',(41.580668173548,-19.4292672613,-3.));
#295 = VECTOR('',#296,1.);
#296 = DIRECTION('',(0.,0.,1.));
#297 = ORIENTED_EDGE('',*,*,#298,.T.);
#298 = EDGE_CURVE('',#291,#299,#301,.T.);
#299 = VERTEX_POINT('',#300);
#300 = CARTESIAN_POINT('',(41.580668173548,-31.4292672613,
    3.996802888651E-15));
#301 = LINE('',#302,#303);
#302 = CARTESIAN_POINT('',(41.580668173548,-15.4292672613,0.));
#303 = VECTOR('',#304,1.);
#304 = DIRECTION('',(0.,-1.,2.2E-16));
#305 = ORIENTED_EDGE('',*,*,#306,.T.);
#306 = EDGE_CURVE('',#299,#307,#309,.T.);
#307 = VERTEX_POINT('',#308);
#308 = CARTESIAN_POINT('',(41.580668173548,-31.4292672613,8.));
#309 = LINE('',#310,#311);
#310 = CARTESIAN_POINT('',(41.580668173548,-31.4292672613,-3.));
#311 = VECTOR('',#312,1.);
#312 = DIRECTION('',(0.,0.,1.));
#313 = ORIENTED_EDGE('',*,*,#314,.F.);
#314 = EDGE_CURVE('',#315,#307,#317,.T.);
#315 = VERTEX_POINT('',#316);
#316 = CARTESIAN_POINT('',(41.580668173548,-19.4292672613,8.));
#317 = LINE('',#318,#319);
#318 = CARTESIAN_POINT('',(41.580668173548,-15.4292672613,8.));
#319 = VECTOR('',#320,1.);
#320 = DIRECTION('',(0.,-1.,2.2E-16));
#321 = ORIENTED_EDGE('',*,*,#322,.T.);
#322 = EDGE_CURVE('',#315,#274,#323,.T.);
#323 = LINE('',#324,#325);
#324 = CARTESIAN_POINT('',(41.580668173548,-19.4292672613,8.));
#325 = VECTOR('',#326,1.);
#326 = DIRECTION('',(0.,0.,1.));
#327 = PLANE('',#328);
#328 = AXIS2_PLACEMENT_3D('',#329,#330,#331);
#329 = CARTESIAN_POINT('',(41.580668173548,-28.34787191246,4.));
#330 = DIRECTION('',(1.,0.,0.));
#331 = DIRECTION('',(0.,0.,1.));
#332 = ADVANCED_FACE('',(#333),#352,.T.);
#333 = FACE_BOUND('',#334,.T.);
#334 = EDGE_LOOP('',(#335,#336,#337,#346));
#335 = ORIENTED_EDGE('',*,*,#31,.T.);
#336 = ORIENTED_EDGE('',*,*,#283,.T.);
#337 = ORIENTED_EDGE('',*,*,#338,.F.);
#338 = EDGE_CURVE('',#339,#276,#341,.T.);
#339 = VERTEX_POINT('',#340);
#340 = CARTESIAN_POINT('',(38.580668173548,-36.4292672613,11.));
#341 = CIRCLE('',#342,3.);
#342 = AXIS2_PLACEMENT_3D('',#343,#344,#345);
#343 = CARTESIAN_POINT('',(38.580668173548,-33.4292672613,11.));
#344 = DIRECTION('',(-0.,0.,1.));
#345 = DIRECTION('',(0.,-1.,0.));
#346 = ORIENTED_EDGE('',*,*,#347,.F.);
#347 = EDGE_CURVE('',#32,#339,#348,.T.);
#348 = LINE('',#349,#350);
#349 = CARTESIAN_POINT('',(38.580668173548,-36.4292672613,-3.));
#350 = VECTOR('',#351,1.);
#351 = DIRECTION('',(0.,0.,1.));
#352 = CYLINDRICAL_SURFACE('',#353,3.);
#353 = AXIS2_PLACEMENT_3D('',#354,#355,#356);
#354 = CARTESIAN_POINT('',(38.580668173548,-33.4292672613,-3.));
#355 = DIRECTION('',(0.,0.,1.));
#356 = DIRECTION('',(0.,-1.,0.));
#357 = ADVANCED_FACE('',(#358),#377,.T.);
#358 = FACE_BOUND('',#359,.T.);
#359 = EDGE_LOOP('',(#360,#361,#369,#376));
#360 = ORIENTED_EDGE('',*,*,#214,.T.);
#361 = ORIENTED_EDGE('',*,*,#362,.T.);
#362 = EDGE_CURVE('',#207,#363,#365,.T.);
#363 = VERTEX_POINT('',#364);
#364 = CARTESIAN_POINT('',(37.580668173548,-15.4292672613,0.));
#365 = LINE('',#366,#367);
#366 = CARTESIAN_POINT('',(37.580668173548,-15.4292672613,-3.));
#367 = VECTOR('',#368,1.);
#368 = DIRECTION('',(0.,0.,1.));
#369 = ORIENTED_EDGE('',*,*,#370,.F.);
#370 = EDGE_CURVE('',#291,#363,#371,.T.);
#371 = CIRCLE('',#372,4.);
#372 = AXIS2_PLACEMENT_3D('',#373,#374,#375);
#373 = CARTESIAN_POINT('',(37.580668173548,-19.4292672613,
    8.881784197001E-16));
#374 = DIRECTION('',(-0.,0.,1.));
#375 = DIRECTION('',(0.,-1.,0.));
#376 = ORIENTED_EDGE('',*,*,#290,.F.);
#377 = CYLINDRICAL_SURFACE('',#378,4.);
#378 = AXIS2_PLACEMENT_3D('',#379,#380,#381);
#379 = CARTESIAN_POINT('',(37.580668173548,-19.4292672613,-3.));
#380 = DIRECTION('',(0.,0.,1.));
#381 = DIRECTION('',(1.,0.,0.));
#382 = ADVANCED_FACE('',(#383),#401,.F.);
#383 = FACE_BOUND('',#384,.F.);
#384 = EDGE_LOOP('',(#385,#386,#394,#400));
#385 = ORIENTED_EDGE('',*,*,#40,.F.);
#386 = ORIENTED_EDGE('',*,*,#387,.F.);
#387 = EDGE_CURVE('',#388,#41,#390,.T.);
#388 = VERTEX_POINT('',#389);
#389 = CARTESIAN_POINT('',(28.876450506713,-36.4292672613,11.));
#390 = LINE('',#391,#392);
#391 = CARTESIAN_POINT('',(28.876450506713,-36.4292672613,0.5));
#392 = VECTOR('',#393,1.);
#393 = DIRECTION('',(-1.1E-16,-2.5E-16,-1.));
#394 = ORIENTED_EDGE('',*,*,#395,.F.);
#395 = EDGE_CURVE('',#339,#388,#396,.T.);
#396 = LINE('',#397,#398);
#397 = CARTESIAN_POINT('',(41.580668173548,-36.4292672613,11.));
#398 = VECTOR('',#399,1.);
#399 = DIRECTION('',(-1.,0.,0.));
#400 = ORIENTED_EDGE('',*,*,#347,.F.);
#401 = PLANE('',#402);
#402 = AXIS2_PLACEMENT_3D('',#403,#404,#405);
#403 = CARTESIAN_POINT('',(0.,-36.4292672613,4.));
#404 = DIRECTION('',(0.,1.,-2.5E-16));
#405 = DIRECTION('',(0.,2.5E-16,1.));
#406 = ADVANCED_FACE('',(#407),#425,.F.);
#407 = FACE_BOUND('',#408,.F.);
#408 = EDGE_LOOP('',(#409,#410,#411,#419));
#409 = ORIENTED_EDGE('',*,*,#206,.F.);
#410 = ORIENTED_EDGE('',*,*,#362,.T.);
#411 = ORIENTED_EDGE('',*,*,#412,.T.);
#412 = EDGE_CURVE('',#363,#413,#415,.T.);
#413 = VERTEX_POINT('',#414);
#414 = CARTESIAN_POINT('',(-37.58066817354,-15.4292672613,0.));
#415 = LINE('',#416,#417);
#416 = CARTESIAN_POINT('',(41.580668173548,-15.4292672613,0.));
#417 = VECTOR('',#418,1.);
#418 = DIRECTION('',(-1.,0.,0.));
#419 = ORIENTED_EDGE('',*,*,#420,.F.);
#420 = EDGE_CURVE('',#198,#413,#421,.T.);
#421 = LINE('',#422,#423);
#422 = CARTESIAN_POINT('',(-37.58066817354,-15.4292672613,-3.));
#423 = VECTOR('',#424,1.);
#424 = DIRECTION('',(0.,0.,1.));
#425 = PLANE('',#426);
#426 = AXIS2_PLACEMENT_3D('',#427,#428,#429);
#427 = CARTESIAN_POINT('',(41.580668173548,-15.4292672613,-3.));
#428 = DIRECTION('',(0.,-1.,0.));
#429 = DIRECTION('',(-1.,0.,0.));
#430 = ADVANCED_FACE('',(#431),#449,.F.);
#431 = FACE_BOUND('',#432,.F.);
#432 = EDGE_LOOP('',(#433,#434,#442,#448));
#433 = ORIENTED_EDGE('',*,*,#48,.F.);
#434 = ORIENTED_EDGE('',*,*,#435,.T.);
#435 = EDGE_CURVE('',#49,#436,#438,.T.);
#436 = VERTEX_POINT('',#437);
#437 = CARTESIAN_POINT('',(24.,-47.85216111866,11.));
#438 = LINE('',#439,#440);
#439 = CARTESIAN_POINT('',(24.,-47.85216111866,-3.));
#440 = VECTOR('',#441,1.);
#441 = DIRECTION('',(0.,0.,1.));
#442 = ORIENTED_EDGE('',*,*,#443,.F.);
#443 = EDGE_CURVE('',#388,#436,#444,.T.);
#444 = LINE('',#445,#446);
#445 = CARTESIAN_POINT('',(23.941729885309,-47.98865657458,11.));
#446 = VECTOR('',#447,1.);
#447 = DIRECTION('',(-0.392621390424,-0.919700192335,0.));
#448 = ORIENTED_EDGE('',*,*,#387,.T.);
#449 = PLANE('',#450);
#450 = AXIS2_PLACEMENT_3D('',#451,#452,#453);
#451 = CARTESIAN_POINT('',(24.,-47.85216111866,-3.));
#452 = DIRECTION('',(-0.919700192335,0.392621390424,0.));
#453 = DIRECTION('',(0.392621390424,0.919700192335,0.));
#454 = ADVANCED_FACE('',(#455),#474,.T.);
#455 = FACE_BOUND('',#456,.F.);
#456 = EDGE_LOOP('',(#457,#458,#459,#468));
#457 = ORIENTED_EDGE('',*,*,#197,.T.);
#458 = ORIENTED_EDGE('',*,*,#420,.T.);
#459 = ORIENTED_EDGE('',*,*,#460,.F.);
#460 = EDGE_CURVE('',#461,#413,#463,.T.);
#461 = VERTEX_POINT('',#462);
#462 = CARTESIAN_POINT('',(-41.58066817354,-19.4292672613,
    8.881784197001E-16));
#463 = CIRCLE('',#464,4.);
#464 = AXIS2_PLACEMENT_3D('',#465,#466,#467);
#465 = CARTESIAN_POINT('',(-37.58066817354,-19.4292672613,
    8.881784197001E-16));
#466 = DIRECTION('',(-0.,-0.,-1.));
#467 = DIRECTION('',(0.,-1.,0.));
#468 = ORIENTED_EDGE('',*,*,#469,.F.);
#469 = EDGE_CURVE('',#190,#461,#470,.T.);
#470 = LINE('',#471,#472);
#471 = CARTESIAN_POINT('',(-41.58066817354,-19.4292672613,-3.));
#472 = VECTOR('',#473,1.);
#473 = DIRECTION('',(0.,0.,1.));
#474 = CYLINDRICAL_SURFACE('',#475,4.);
#475 = AXIS2_PLACEMENT_3D('',#476,#477,#478);
#476 = CARTESIAN_POINT('',(-37.58066817354,-19.4292672613,-3.));
#477 = DIRECTION('',(0.,0.,1.));
#478 = DIRECTION('',(-1.,0.,0.));
#479 = ADVANCED_FACE('',(#480),#498,.F.);
#480 = FACE_BOUND('',#481,.F.);
#481 = EDGE_LOOP('',(#482,#483,#491,#497));
#482 = ORIENTED_EDGE('',*,*,#56,.F.);
#483 = ORIENTED_EDGE('',*,*,#484,.T.);
#484 = EDGE_CURVE('',#57,#485,#487,.T.);
#485 = VERTEX_POINT('',#486);
#486 = CARTESIAN_POINT('',(24.,-57.4292672613,11.));
#487 = LINE('',#488,#489);
#488 = CARTESIAN_POINT('',(24.,-57.4292672613,-3.));
#489 = VECTOR('',#490,1.);
#490 = DIRECTION('',(0.,0.,1.));
#491 = ORIENTED_EDGE('',*,*,#492,.F.);
#492 = EDGE_CURVE('',#436,#485,#493,.T.);
#493 = LINE('',#494,#495);
#494 = CARTESIAN_POINT('',(24.,-51.46782033262,11.));
#495 = VECTOR('',#496,1.);
#496 = DIRECTION('',(0.,-1.,0.));
#497 = ORIENTED_EDGE('',*,*,#435,.F.);
#498 = PLANE('',#499);
#499 = AXIS2_PLACEMENT_3D('',#500,#501,#502);
#500 = CARTESIAN_POINT('',(24.,-65.00637340394,-3.));
#501 = DIRECTION('',(-1.,0.,0.));
#502 = DIRECTION('',(0.,1.,0.));
#503 = ADVANCED_FACE('',(#504),#554,.T.);
#504 = FACE_BOUND('',#505,.T.);
#505 = EDGE_LOOP('',(#506,#507,#515,#523,#531,#539,#547,#553));
#506 = ORIENTED_EDGE('',*,*,#189,.T.);
#507 = ORIENTED_EDGE('',*,*,#508,.F.);
#508 = EDGE_CURVE('',#509,#181,#511,.T.);
#509 = VERTEX_POINT('',#510);
#510 = CARTESIAN_POINT('',(-41.58066817354,-33.4292672613,11.));
#511 = LINE('',#512,#513);
#512 = CARTESIAN_POINT('',(-41.58066817354,-33.4292672613,11.));
#513 = VECTOR('',#514,1.);
#514 = DIRECTION('',(0.,0.,-1.));
#515 = ORIENTED_EDGE('',*,*,#516,.F.);
#516 = EDGE_CURVE('',#517,#509,#519,.T.);
#517 = VERTEX_POINT('',#518);
#518 = CARTESIAN_POINT('',(-41.58066817354,-19.4292672613,11.));
#519 = LINE('',#520,#521);
#520 = CARTESIAN_POINT('',(-41.58066817354,-31.4292672613,11.));
#521 = VECTOR('',#522,1.);
#522 = DIRECTION('',(0.,-1.,2.2E-16));
#523 = ORIENTED_EDGE('',*,*,#524,.F.);
#524 = EDGE_CURVE('',#525,#517,#527,.T.);
#525 = VERTEX_POINT('',#526);
#526 = CARTESIAN_POINT('',(-41.58066817354,-19.4292672613,8.));
#527 = LINE('',#528,#529);
#528 = CARTESIAN_POINT('',(-41.58066817354,-19.4292672613,8.));
#529 = VECTOR('',#530,1.);
#530 = DIRECTION('',(0.,0.,1.));
#531 = ORIENTED_EDGE('',*,*,#532,.T.);
#532 = EDGE_CURVE('',#525,#533,#535,.T.);
#533 = VERTEX_POINT('',#534);
#534 = CARTESIAN_POINT('',(-41.58066817354,-31.4292672613,8.));
#535 = LINE('',#536,#537);
#536 = CARTESIAN_POINT('',(-41.58066817354,-15.4292672613,8.));
#537 = VECTOR('',#538,1.);
#538 = DIRECTION('',(0.,-1.,2.2E-16));
#539 = ORIENTED_EDGE('',*,*,#540,.T.);
#540 = EDGE_CURVE('',#533,#541,#543,.T.);
#541 = VERTEX_POINT('',#542);
#542 = CARTESIAN_POINT('',(-41.58066817354,-31.4292672613,
    3.996802888651E-15));
#543 = LINE('',#544,#545);
#544 = CARTESIAN_POINT('',(-41.58066817354,-31.4292672613,11.));
#545 = VECTOR('',#546,1.);
#546 = DIRECTION('',(0.,0.,-1.));
#547 = ORIENTED_EDGE('',*,*,#548,.F.);
#548 = EDGE_CURVE('',#461,#541,#549,.T.);
#549 = LINE('',#550,#551);
#550 = CARTESIAN_POINT('',(-41.58066817354,-15.4292672613,0.));
#551 = VECTOR('',#552,1.);
#552 = DIRECTION('',(0.,-1.,2.2E-16));
#553 = ORIENTED_EDGE('',*,*,#469,.F.);
#554 = PLANE('',#555);
#555 = AXIS2_PLACEMENT_3D('',#556,#557,#558);
#556 = CARTESIAN_POINT('',(-41.58066817354,-28.34787191246,4.));
#557 = DIRECTION('',(-1.,-0.,-0.));
#558 = DIRECTION('',(0.,0.,-1.));
#559 = ADVANCED_FACE('',(#560),#579,.T.);
#560 = FACE_BOUND('',#561,.T.);
#561 = EDGE_LOOP('',(#562,#563,#564,#573));
#562 = ORIENTED_EDGE('',*,*,#64,.T.);
#563 = ORIENTED_EDGE('',*,*,#484,.T.);
#564 = ORIENTED_EDGE('',*,*,#565,.F.);
#565 = EDGE_CURVE('',#566,#485,#568,.T.);
#566 = VERTEX_POINT('',#567);
#567 = CARTESIAN_POINT('',(21.,-60.4292672613,11.));
#568 = CIRCLE('',#569,3.);
#569 = AXIS2_PLACEMENT_3D('',#570,#571,#572);
#570 = CARTESIAN_POINT('',(21.,-57.4292672613,11.));
#571 = DIRECTION('',(-0.,0.,1.));
#572 = DIRECTION('',(0.,-1.,0.));
#573 = ORIENTED_EDGE('',*,*,#574,.F.);
#574 = EDGE_CURVE('',#65,#566,#575,.T.);
#575 = LINE('',#576,#577);
#576 = CARTESIAN_POINT('',(21.,-60.4292672613,-3.));
#577 = VECTOR('',#578,1.);
#578 = DIRECTION('',(0.,0.,1.));
#579 = CYLINDRICAL_SURFACE('',#580,3.);
#580 = AXIS2_PLACEMENT_3D('',#581,#582,#583);
#581 = CARTESIAN_POINT('',(21.,-57.4292672613,-3.));
#582 = DIRECTION('',(0.,0.,1.));
#583 = DIRECTION('',(0.,-1.,0.));
#584 = ADVANCED_FACE('',(#585),#604,.T.);
#585 = FACE_BOUND('',#586,.T.);
#586 = EDGE_LOOP('',(#587,#596,#597,#598));
#587 = ORIENTED_EDGE('',*,*,#588,.T.);
#588 = EDGE_CURVE('',#589,#509,#591,.T.);
#589 = VERTEX_POINT('',#590);
#590 = CARTESIAN_POINT('',(-38.58066817354,-36.4292672613,11.));
#591 = CIRCLE('',#592,3.);
#592 = AXIS2_PLACEMENT_3D('',#593,#594,#595);
#593 = CARTESIAN_POINT('',(-38.58066817354,-33.4292672613,11.));
#594 = DIRECTION('',(0.,0.,-1.));
#595 = DIRECTION('',(0.,1.,0.));
#596 = ORIENTED_EDGE('',*,*,#508,.T.);
#597 = ORIENTED_EDGE('',*,*,#180,.F.);
#598 = ORIENTED_EDGE('',*,*,#599,.F.);
#599 = EDGE_CURVE('',#589,#173,#600,.T.);
#600 = LINE('',#601,#602);
#601 = CARTESIAN_POINT('',(-38.58066817354,-36.4292672613,11.));
#602 = VECTOR('',#603,1.);
#603 = DIRECTION('',(0.,0.,-1.));
#604 = CYLINDRICAL_SURFACE('',#605,3.);
#605 = AXIS2_PLACEMENT_3D('',#606,#607,#608);
#606 = CARTESIAN_POINT('',(-38.58066817354,-33.4292672613,11.));
#607 = DIRECTION('',(0.,0.,-1.));
#608 = DIRECTION('',(0.,-1.,0.));
#609 = ADVANCED_FACE('',(#610),#628,.F.);
#610 = FACE_BOUND('',#611,.F.);
#611 = EDGE_LOOP('',(#612,#613,#621,#627));
#612 = ORIENTED_EDGE('',*,*,#73,.F.);
#613 = ORIENTED_EDGE('',*,*,#614,.F.);
#614 = EDGE_CURVE('',#615,#74,#617,.T.);
#615 = VERTEX_POINT('',#616);
#616 = CARTESIAN_POINT('',(19.,-60.4292672613,11.));
#617 = LINE('',#618,#619);
#618 = CARTESIAN_POINT('',(19.,-60.4292672613,11.));
#619 = VECTOR('',#620,1.);
#620 = DIRECTION('',(0.,0.,-1.));
#621 = ORIENTED_EDGE('',*,*,#622,.T.);
#622 = EDGE_CURVE('',#615,#566,#623,.T.);
#623 = LINE('',#624,#625);
#624 = CARTESIAN_POINT('',(-41.58066817354,-60.4292672613,11.));
#625 = VECTOR('',#626,1.);
#626 = DIRECTION('',(1.,0.,0.));
#627 = ORIENTED_EDGE('',*,*,#574,.F.);
#628 = PLANE('',#629);
#629 = AXIS2_PLACEMENT_3D('',#630,#631,#632);
#630 = CARTESIAN_POINT('',(0.,-60.4292672613,4.));
#631 = DIRECTION('',(0.,1.,0.));
#632 = DIRECTION('',(0.,0.,1.));
#633 = ADVANCED_FACE('',(#634),#652,.F.);
#634 = FACE_BOUND('',#635,.F.);
#635 = EDGE_LOOP('',(#636,#637,#638,#646));
#636 = ORIENTED_EDGE('',*,*,#172,.F.);
#637 = ORIENTED_EDGE('',*,*,#599,.F.);
#638 = ORIENTED_EDGE('',*,*,#639,.F.);
#639 = EDGE_CURVE('',#640,#589,#642,.T.);
#640 = VERTEX_POINT('',#641);
#641 = CARTESIAN_POINT('',(-28.71804715545,-36.4292672613,11.));
#642 = LINE('',#643,#644);
#643 = CARTESIAN_POINT('',(41.580668173548,-36.4292672613,11.));
#644 = VECTOR('',#645,1.);
#645 = DIRECTION('',(-1.,0.,0.));
#646 = ORIENTED_EDGE('',*,*,#647,.T.);
#647 = EDGE_CURVE('',#640,#165,#648,.T.);
#648 = LINE('',#649,#650);
#649 = CARTESIAN_POINT('',(-28.71804715545,-36.4292672613,0.5));
#650 = VECTOR('',#651,1.);
#651 = DIRECTION('',(1.E-16,-2.5E-16,-1.));
#652 = PLANE('',#653);
#653 = AXIS2_PLACEMENT_3D('',#654,#655,#656);
#654 = CARTESIAN_POINT('',(0.,-36.4292672613,4.));
#655 = DIRECTION('',(0.,1.,-2.5E-16));
#656 = DIRECTION('',(0.,2.5E-16,1.));
#657 = ADVANCED_FACE('',(#658),#677,.T.);
#658 = FACE_BOUND('',#659,.F.);
#659 = EDGE_LOOP('',(#660,#669,#670,#671));
#660 = ORIENTED_EDGE('',*,*,#661,.T.);
#661 = EDGE_CURVE('',#662,#615,#664,.T.);
#662 = VERTEX_POINT('',#663);
#663 = CARTESIAN_POINT('',(16.,-57.4292672613,11.));
#664 = CIRCLE('',#665,3.);
#665 = AXIS2_PLACEMENT_3D('',#666,#667,#668);
#666 = CARTESIAN_POINT('',(19.,-57.4292672613,11.));
#667 = DIRECTION('',(0.,-0.,1.));
#668 = DIRECTION('',(0.,1.,0.));
#669 = ORIENTED_EDGE('',*,*,#614,.T.);
#670 = ORIENTED_EDGE('',*,*,#81,.F.);
#671 = ORIENTED_EDGE('',*,*,#672,.F.);
#672 = EDGE_CURVE('',#662,#82,#673,.T.);
#673 = LINE('',#674,#675);
#674 = CARTESIAN_POINT('',(16.,-57.4292672613,11.));
#675 = VECTOR('',#676,1.);
#676 = DIRECTION('',(0.,0.,-1.));
#677 = CYLINDRICAL_SURFACE('',#678,3.);
#678 = AXIS2_PLACEMENT_3D('',#679,#680,#681);
#679 = CARTESIAN_POINT('',(19.,-57.4292672613,11.));
#680 = DIRECTION('',(0.,0.,-1.));
#681 = DIRECTION('',(-1.,-0.,-0.));
#682 = ADVANCED_FACE('',(#683),#701,.T.);
#683 = FACE_BOUND('',#684,.T.);
#684 = EDGE_LOOP('',(#685,#686,#694,#700));
#685 = ORIENTED_EDGE('',*,*,#164,.F.);
#686 = ORIENTED_EDGE('',*,*,#687,.T.);
#687 = EDGE_CURVE('',#157,#688,#690,.T.);
#688 = VERTEX_POINT('',#689);
#689 = CARTESIAN_POINT('',(-24.,-47.85216111866,11.));
#690 = LINE('',#691,#692);
#691 = CARTESIAN_POINT('',(-24.,-47.85216111866,-3.));
#692 = VECTOR('',#693,1.);
#693 = DIRECTION('',(0.,0.,1.));
#694 = ORIENTED_EDGE('',*,*,#695,.F.);
#695 = EDGE_CURVE('',#640,#688,#696,.T.);
#696 = LINE('',#697,#698);
#697 = CARTESIAN_POINT('',(-24.00177659924,-47.84785978299,11.));
#698 = VECTOR('',#699,1.);
#699 = DIRECTION('',(0.381752920541,-0.924264414364,0.));
#700 = ORIENTED_EDGE('',*,*,#647,.T.);
#701 = PLANE('',#702);
#702 = AXIS2_PLACEMENT_3D('',#703,#704,#705);
#703 = CARTESIAN_POINT('',(-24.,-47.85216111866,-3.));
#704 = DIRECTION('',(-0.924264414364,-0.381752920541,0.));
#705 = DIRECTION('',(-0.381752920541,0.924264414364,0.));
#706 = ADVANCED_FACE('',(#707),#725,.F.);
#707 = FACE_BOUND('',#708,.F.);
#708 = EDGE_LOOP('',(#709,#710,#718,#724));
#709 = ORIENTED_EDGE('',*,*,#90,.F.);
#710 = ORIENTED_EDGE('',*,*,#711,.T.);
#711 = EDGE_CURVE('',#91,#712,#714,.T.);
#712 = VERTEX_POINT('',#713);
#713 = CARTESIAN_POINT('',(16.,-47.85216111866,11.));
#714 = LINE('',#715,#716);
#715 = CARTESIAN_POINT('',(16.,-47.85216111866,-3.));
#716 = VECTOR('',#717,1.);
#717 = DIRECTION('',(0.,0.,1.));
#718 = ORIENTED_EDGE('',*,*,#719,.F.);
#719 = EDGE_CURVE('',#662,#712,#720,.T.);
#720 = LINE('',#721,#722);
#721 = CARTESIAN_POINT('',(16.,-42.89071418998,11.));
#722 = VECTOR('',#723,1.);
#723 = DIRECTION('',(0.,1.,0.));
#724 = ORIENTED_EDGE('',*,*,#672,.T.);
#725 = PLANE('',#726);
#726 = AXIS2_PLACEMENT_3D('',#727,#728,#729);
#727 = CARTESIAN_POINT('',(16.,-47.85216111866,-3.));
#728 = DIRECTION('',(1.,0.,0.));
#729 = DIRECTION('',(0.,-1.,0.));
#730 = ADVANCED_FACE('',(#731),#749,.T.);
#731 = FACE_BOUND('',#732,.T.);
#732 = EDGE_LOOP('',(#733,#734,#742,#748));
#733 = ORIENTED_EDGE('',*,*,#156,.F.);
#734 = ORIENTED_EDGE('',*,*,#735,.T.);
#735 = EDGE_CURVE('',#148,#736,#738,.T.);
#736 = VERTEX_POINT('',#737);
#737 = CARTESIAN_POINT('',(-24.,-57.4292672613,11.));
#738 = LINE('',#739,#740);
#739 = CARTESIAN_POINT('',(-24.,-57.4292672613,-3.));
#740 = VECTOR('',#741,1.);
#741 = DIRECTION('',(0.,0.,1.));
#742 = ORIENTED_EDGE('',*,*,#743,.F.);
#743 = EDGE_CURVE('',#688,#736,#744,.T.);
#744 = LINE('',#745,#746);
#745 = CARTESIAN_POINT('',(-24.,-51.46782033262,11.));
#746 = VECTOR('',#747,1.);
#747 = DIRECTION('',(0.,-1.,0.));
#748 = ORIENTED_EDGE('',*,*,#687,.F.);
#749 = PLANE('',#750);
#750 = AXIS2_PLACEMENT_3D('',#751,#752,#753);
#751 = CARTESIAN_POINT('',(-24.,-65.00637340394,-3.));
#752 = DIRECTION('',(-1.,0.,0.));
#753 = DIRECTION('',(0.,1.,0.));
#754 = ADVANCED_FACE('',(#755),#773,.F.);
#755 = FACE_BOUND('',#756,.F.);
#756 = EDGE_LOOP('',(#757,#758,#766,#772));
#757 = ORIENTED_EDGE('',*,*,#98,.F.);
#758 = ORIENTED_EDGE('',*,*,#759,.T.);
#759 = EDGE_CURVE('',#99,#760,#762,.T.);
#760 = VERTEX_POINT('',#761);
#761 = CARTESIAN_POINT('',(17.394972285022,-36.4292672613,11.));
#762 = LINE('',#763,#764);
#763 = CARTESIAN_POINT('',(17.394972285022,-36.4292672613,0.5));
#764 = VECTOR('',#765,1.);
#765 = DIRECTION('',(3.E-17,2.5E-16,1.));
#766 = ORIENTED_EDGE('',*,*,#767,.F.);
#767 = EDGE_CURVE('',#712,#760,#768,.T.);
#768 = LINE('',#769,#770);
#769 = CARTESIAN_POINT('',(17.482225695798,-35.7147824929,11.));
#770 = VECTOR('',#771,1.);
#771 = DIRECTION('',(0.121220181074,0.992625643282,0.));
#772 = ORIENTED_EDGE('',*,*,#711,.F.);
#773 = PLANE('',#774);
#774 = AXIS2_PLACEMENT_3D('',#775,#776,#777);
#775 = CARTESIAN_POINT('',(18.005576,-31.4292672613,-3.));
#776 = DIRECTION('',(0.992625643282,-0.121220181074,0.));
#777 = DIRECTION('',(-0.121220181074,-0.992625643282,0.));
#778 = ADVANCED_FACE('',(#779),#798,.T.);
#779 = FACE_BOUND('',#780,.T.);
#780 = EDGE_LOOP('',(#781,#782,#790,#797));
#781 = ORIENTED_EDGE('',*,*,#147,.T.);
#782 = ORIENTED_EDGE('',*,*,#783,.T.);
#783 = EDGE_CURVE('',#140,#784,#786,.T.);
#784 = VERTEX_POINT('',#785);
#785 = CARTESIAN_POINT('',(-21.,-60.4292672613,11.));
#786 = LINE('',#787,#788);
#787 = CARTESIAN_POINT('',(-21.,-60.4292672613,-3.));
#788 = VECTOR('',#789,1.);
#789 = DIRECTION('',(0.,0.,1.));
#790 = ORIENTED_EDGE('',*,*,#791,.F.);
#791 = EDGE_CURVE('',#736,#784,#792,.T.);
#792 = CIRCLE('',#793,3.);
#793 = AXIS2_PLACEMENT_3D('',#794,#795,#796);
#794 = CARTESIAN_POINT('',(-21.,-57.4292672613,11.));
#795 = DIRECTION('',(-0.,0.,1.));
#796 = DIRECTION('',(0.,-1.,0.));
#797 = ORIENTED_EDGE('',*,*,#735,.F.);
#798 = CYLINDRICAL_SURFACE('',#799,3.);
#799 = AXIS2_PLACEMENT_3D('',#800,#801,#802);
#800 = CARTESIAN_POINT('',(-21.,-57.4292672613,-3.));
#801 = DIRECTION('',(0.,0.,1.));
#802 = DIRECTION('',(-1.,0.,0.));
#803 = ADVANCED_FACE('',(#804),#822,.F.);
#804 = FACE_BOUND('',#805,.F.);
#805 = EDGE_LOOP('',(#806,#814,#820,#821));
#806 = ORIENTED_EDGE('',*,*,#807,.F.);
#807 = EDGE_CURVE('',#808,#107,#810,.T.);
#808 = VERTEX_POINT('',#809);
#809 = CARTESIAN_POINT('',(-17.23656893376,-36.4292672613,11.));
#810 = LINE('',#811,#812);
#811 = CARTESIAN_POINT('',(-17.23656893376,-36.4292672613,0.5));
#812 = VECTOR('',#813,1.);
#813 = DIRECTION('',(3.E-17,-2.5E-16,-1.));
#814 = ORIENTED_EDGE('',*,*,#815,.F.);
#815 = EDGE_CURVE('',#760,#808,#816,.T.);
#816 = LINE('',#817,#818);
#817 = CARTESIAN_POINT('',(41.580668173548,-36.4292672613,11.));
#818 = VECTOR('',#819,1.);
#819 = DIRECTION('',(-1.,0.,0.));
#820 = ORIENTED_EDGE('',*,*,#759,.F.);
#821 = ORIENTED_EDGE('',*,*,#106,.F.);
#822 = PLANE('',#823);
#823 = AXIS2_PLACEMENT_3D('',#824,#825,#826);
#824 = CARTESIAN_POINT('',(0.,-36.4292672613,4.));
#825 = DIRECTION('',(0.,1.,-2.5E-16));
#826 = DIRECTION('',(0.,2.5E-16,1.));
#827 = ADVANCED_FACE('',(#828),#846,.F.);
#828 = FACE_BOUND('',#829,.F.);
#829 = EDGE_LOOP('',(#830,#831,#832,#840));
#830 = ORIENTED_EDGE('',*,*,#139,.F.);
#831 = ORIENTED_EDGE('',*,*,#783,.T.);
#832 = ORIENTED_EDGE('',*,*,#833,.T.);
#833 = EDGE_CURVE('',#784,#834,#836,.T.);
#834 = VERTEX_POINT('',#835);
#835 = CARTESIAN_POINT('',(-19.,-60.4292672613,11.));
#836 = LINE('',#837,#838);
#837 = CARTESIAN_POINT('',(-41.58066817354,-60.4292672613,11.));
#838 = VECTOR('',#839,1.);
#839 = DIRECTION('',(1.,0.,0.));
#840 = ORIENTED_EDGE('',*,*,#841,.F.);
#841 = EDGE_CURVE('',#131,#834,#842,.T.);
#842 = LINE('',#843,#844);
#843 = CARTESIAN_POINT('',(-19.,-60.4292672613,-3.));
#844 = VECTOR('',#845,1.);
#845 = DIRECTION('',(0.,0.,1.));
#846 = PLANE('',#847);
#847 = AXIS2_PLACEMENT_3D('',#848,#849,#850);
#848 = CARTESIAN_POINT('',(0.,-60.4292672613,4.));
#849 = DIRECTION('',(0.,1.,0.));
#850 = DIRECTION('',(0.,0.,1.));
#851 = ADVANCED_FACE('',(#852),#870,.F.);
#852 = FACE_BOUND('',#853,.F.);
#853 = EDGE_LOOP('',(#854,#855,#863,#869));
#854 = ORIENTED_EDGE('',*,*,#114,.F.);
#855 = ORIENTED_EDGE('',*,*,#856,.T.);
#856 = EDGE_CURVE('',#115,#857,#859,.T.);
#857 = VERTEX_POINT('',#858);
#858 = CARTESIAN_POINT('',(-16.,-47.85216111866,11.));
#859 = LINE('',#860,#861);
#860 = CARTESIAN_POINT('',(-16.,-47.85216111866,-3.));
#861 = VECTOR('',#862,1.);
#862 = DIRECTION('',(0.,0.,1.));
#863 = ORIENTED_EDGE('',*,*,#864,.F.);
#864 = EDGE_CURVE('',#808,#857,#865,.T.);
#865 = LINE('',#866,#867);
#866 = CARTESIAN_POINT('',(-16.43820833856,-43.80418028871,11.));
#867 = VECTOR('',#868,1.);
#868 = DIRECTION('',(0.107624779071,-0.99419158462,0.));
#869 = ORIENTED_EDGE('',*,*,#807,.T.);
#870 = PLANE('',#871);
#871 = AXIS2_PLACEMENT_3D('',#872,#873,#874);
#872 = CARTESIAN_POINT('',(-16.,-47.85216111866,-3.));
#873 = DIRECTION('',(-0.99419158462,-0.107624779071,0.));
#874 = DIRECTION('',(-0.107624779071,0.99419158462,0.));
#875 = ADVANCED_FACE('',(#876),#895,.T.);
#876 = FACE_BOUND('',#877,.T.);
#877 = EDGE_LOOP('',(#878,#879,#887,#894));
#878 = ORIENTED_EDGE('',*,*,#130,.T.);
#879 = ORIENTED_EDGE('',*,*,#880,.T.);
#880 = EDGE_CURVE('',#123,#881,#883,.T.);
#881 = VERTEX_POINT('',#882);
#882 = CARTESIAN_POINT('',(-16.,-57.4292672613,11.));
#883 = LINE('',#884,#885);
#884 = CARTESIAN_POINT('',(-16.,-57.4292672613,-3.));
#885 = VECTOR('',#886,1.);
#886 = DIRECTION('',(0.,0.,1.));
#887 = ORIENTED_EDGE('',*,*,#888,.F.);
#888 = EDGE_CURVE('',#834,#881,#889,.T.);
#889 = CIRCLE('',#890,3.);
#890 = AXIS2_PLACEMENT_3D('',#891,#892,#893);
#891 = CARTESIAN_POINT('',(-19.,-57.4292672613,11.));
#892 = DIRECTION('',(-0.,0.,1.));
#893 = DIRECTION('',(0.,-1.,0.));
#894 = ORIENTED_EDGE('',*,*,#841,.F.);
#895 = CYLINDRICAL_SURFACE('',#896,3.);
#896 = AXIS2_PLACEMENT_3D('',#897,#898,#899);
#897 = CARTESIAN_POINT('',(-19.,-57.4292672613,-3.));
#898 = DIRECTION('',(0.,0.,1.));
#899 = DIRECTION('',(0.,-1.,0.));
#900 = ADVANCED_FACE('',(#901),#912,.F.);
#901 = FACE_BOUND('',#902,.F.);
#902 = EDGE_LOOP('',(#903,#904,#905,#911));
#903 = ORIENTED_EDGE('',*,*,#122,.F.);
#904 = ORIENTED_EDGE('',*,*,#880,.T.);
#905 = ORIENTED_EDGE('',*,*,#906,.F.);
#906 = EDGE_CURVE('',#857,#881,#907,.T.);
#907 = LINE('',#908,#909);
#908 = CARTESIAN_POINT('',(-16.,-51.46782033262,11.));
#909 = VECTOR('',#910,1.);
#910 = DIRECTION('',(0.,-1.,0.));
#911 = ORIENTED_EDGE('',*,*,#856,.F.);
#912 = PLANE('',#913);
#913 = AXIS2_PLACEMENT_3D('',#914,#915,#916);
#914 = CARTESIAN_POINT('',(-16.,-65.00637340394,-3.));
#915 = DIRECTION('',(-1.,0.,0.));
#916 = DIRECTION('',(0.,1.,0.));
#917 = ADVANCED_FACE('',(#918),#937,.F.);
#918 = FACE_BOUND('',#919,.T.);
#919 = EDGE_LOOP('',(#920,#921,#929,#936));
#920 = ORIENTED_EDGE('',*,*,#223,.F.);
#921 = ORIENTED_EDGE('',*,*,#922,.T.);
#922 = EDGE_CURVE('',#224,#923,#925,.T.);
#923 = VERTEX_POINT('',#924);
#924 = CARTESIAN_POINT('',(31.75,-23.4292672613,2.22044604925E-15));
#925 = LINE('',#926,#927);
#926 = CARTESIAN_POINT('',(31.75,-23.4292672613,-3.));
#927 = VECTOR('',#928,1.);
#928 = DIRECTION('',(0.,0.,1.));
#929 = ORIENTED_EDGE('',*,*,#930,.F.);
#930 = EDGE_CURVE('',#923,#923,#931,.T.);
#931 = CIRCLE('',#932,1.75);
#932 = AXIS2_PLACEMENT_3D('',#933,#934,#935);
#933 = CARTESIAN_POINT('',(30.,-23.4292672613,1.7763568394E-15));
#934 = DIRECTION('',(0.,0.,-1.));
#935 = DIRECTION('',(1.,0.,0.));
#936 = ORIENTED_EDGE('',*,*,#922,.F.);
#937 = CYLINDRICAL_SURFACE('',#938,1.75);
#938 = AXIS2_PLACEMENT_3D('',#939,#940,#941);
#939 = CARTESIAN_POINT('',(30.,-23.4292672613,-3.));
#940 = DIRECTION('',(-0.,-0.,-1.));
#941 = DIRECTION('',(1.,0.,0.));
#942 = ADVANCED_FACE('',(#943),#962,.F.);
#943 = FACE_BOUND('',#944,.T.);
#944 = EDGE_LOOP('',(#945,#946,#954,#961));
#945 = ORIENTED_EDGE('',*,*,#234,.F.);
#946 = ORIENTED_EDGE('',*,*,#947,.T.);
#947 = EDGE_CURVE('',#235,#948,#950,.T.);
#948 = VERTEX_POINT('',#949);
#949 = CARTESIAN_POINT('',(-28.25,-23.4292672613,2.22044604925E-15));
#950 = LINE('',#951,#952);
#951 = CARTESIAN_POINT('',(-28.25,-23.4292672613,-3.));
#952 = VECTOR('',#953,1.);
#953 = DIRECTION('',(0.,0.,1.));
#954 = ORIENTED_EDGE('',*,*,#955,.F.);
#955 = EDGE_CURVE('',#948,#948,#956,.T.);
#956 = CIRCLE('',#957,1.75);
#957 = AXIS2_PLACEMENT_3D('',#958,#959,#960);
#958 = CARTESIAN_POINT('',(-30.,-23.4292672613,1.7763568394E-15));
#959 = DIRECTION('',(0.,0.,-1.));
#960 = DIRECTION('',(1.,0.,0.));
#961 = ORIENTED_EDGE('',*,*,#947,.F.);
#962 = CYLINDRICAL_SURFACE('',#963,1.75);
#963 = AXIS2_PLACEMENT_3D('',#964,#965,#966);
#964 = CARTESIAN_POINT('',(-30.,-23.4292672613,-3.));
#965 = DIRECTION('',(-0.,-0.,-1.));
#966 = DIRECTION('',(1.,0.,0.));
#967 = ADVANCED_FACE('',(#968),#987,.F.);
#968 = FACE_BOUND('',#969,.F.);
#969 = EDGE_LOOP('',(#970,#971,#979,#986));
#970 = ORIENTED_EDGE('',*,*,#245,.F.);
#971 = ORIENTED_EDGE('',*,*,#972,.T.);
#972 = EDGE_CURVE('',#246,#973,#975,.T.);
#973 = VERTEX_POINT('',#974);
#974 = CARTESIAN_POINT('',(-18.4,-56.4292672613,11.));
#975 = LINE('',#976,#977);
#976 = CARTESIAN_POINT('',(-18.4,-56.4292672613,-3.));
#977 = VECTOR('',#978,1.);
#978 = DIRECTION('',(0.,0.,1.));
#979 = ORIENTED_EDGE('',*,*,#980,.T.);
#980 = EDGE_CURVE('',#973,#973,#981,.T.);
#981 = CIRCLE('',#982,1.6);
#982 = AXIS2_PLACEMENT_3D('',#983,#984,#985);
#983 = CARTESIAN_POINT('',(-20.,-56.4292672613,11.));
#984 = DIRECTION('',(0.,0.,-1.));
#985 = DIRECTION('',(1.,0.,0.));
#986 = ORIENTED_EDGE('',*,*,#972,.F.);
#987 = CYLINDRICAL_SURFACE('',#988,1.6);
#988 = AXIS2_PLACEMENT_3D('',#989,#990,#991);
#989 = CARTESIAN_POINT('',(-20.,-56.4292672613,-3.));
#990 = DIRECTION('',(0.,0.,-1.));
#991 = DIRECTION('',(1.,0.,0.));
#992 = ADVANCED_FACE('',(#993),#1012,.F.);
#993 = FACE_BOUND('',#994,.F.);
#994 = EDGE_LOOP('',(#995,#996,#1004,#1011));
#995 = ORIENTED_EDGE('',*,*,#256,.F.);
#996 = ORIENTED_EDGE('',*,*,#997,.T.);
#997 = EDGE_CURVE('',#257,#998,#1000,.T.);
#998 = VERTEX_POINT('',#999);
#999 = CARTESIAN_POINT('',(21.6,-56.4292672613,11.));
#1000 = LINE('',#1001,#1002);
#1001 = CARTESIAN_POINT('',(21.6,-56.4292672613,-3.));
#1002 = VECTOR('',#1003,1.);
#1003 = DIRECTION('',(0.,0.,1.));
#1004 = ORIENTED_EDGE('',*,*,#1005,.T.);
#1005 = EDGE_CURVE('',#998,#998,#1006,.T.);
#1006 = CIRCLE('',#1007,1.6);
#1007 = AXIS2_PLACEMENT_3D('',#1008,#1009,#1010);
#1008 = CARTESIAN_POINT('',(20.,-56.4292672613,11.));
#1009 = DIRECTION('',(0.,0.,-1.));
#1010 = DIRECTION('',(1.,0.,0.));
#1011 = ORIENTED_EDGE('',*,*,#997,.F.);
#1012 = CYLINDRICAL_SURFACE('',#1013,1.6);
#1013 = AXIS2_PLACEMENT_3D('',#1014,#1015,#1016);
#1014 = CARTESIAN_POINT('',(20.,-56.4292672613,-3.));
#1015 = DIRECTION('',(0.,0.,-1.));
#1016 = DIRECTION('',(1.,0.,0.));
#1017 = ADVANCED_FACE('',(#1018,#1065,#1076,#1087,#1090),#1093,.T.);
#1018 = FACE_BOUND('',#1019,.T.);
#1019 = EDGE_LOOP('',(#1020,#1021,#1022,#1023,#1024,#1025,#1026,#1027,
    #1028,#1029,#1030,#1031,#1032,#1033,#1034,#1035,#1036,#1037,#1038,
    #1039,#1040,#1041,#1050,#1058));
#1020 = ORIENTED_EDGE('',*,*,#516,.T.);
#1021 = ORIENTED_EDGE('',*,*,#588,.F.);
#1022 = ORIENTED_EDGE('',*,*,#639,.F.);
#1023 = ORIENTED_EDGE('',*,*,#695,.T.);
#1024 = ORIENTED_EDGE('',*,*,#743,.T.);
#1025 = ORIENTED_EDGE('',*,*,#791,.T.);
#1026 = ORIENTED_EDGE('',*,*,#833,.T.);
#1027 = ORIENTED_EDGE('',*,*,#888,.T.);
#1028 = ORIENTED_EDGE('',*,*,#906,.F.);
#1029 = ORIENTED_EDGE('',*,*,#864,.F.);
#1030 = ORIENTED_EDGE('',*,*,#815,.F.);
#1031 = ORIENTED_EDGE('',*,*,#767,.F.);
#1032 = ORIENTED_EDGE('',*,*,#719,.F.);
#1033 = ORIENTED_EDGE('',*,*,#661,.T.);
#1034 = ORIENTED_EDGE('',*,*,#622,.T.);
#1035 = ORIENTED_EDGE('',*,*,#565,.T.);
#1036 = ORIENTED_EDGE('',*,*,#492,.F.);
#1037 = ORIENTED_EDGE('',*,*,#443,.F.);
#1038 = ORIENTED_EDGE('',*,*,#395,.F.);
#1039 = ORIENTED_EDGE('',*,*,#338,.T.);
#1040 = ORIENTED_EDGE('',*,*,#273,.F.);
#1041 = ORIENTED_EDGE('',*,*,#1042,.T.);
#1042 = EDGE_CURVE('',#274,#1043,#1045,.T.);
#1043 = VERTEX_POINT('',#1044);
#1044 = CARTESIAN_POINT('',(37.580668173548,-15.4292672613,11.));
#1045 = CIRCLE('',#1046,4.);
#1046 = AXIS2_PLACEMENT_3D('',#1047,#1048,#1049);
#1047 = CARTESIAN_POINT('',(37.580668173548,-19.4292672613,11.));
#1048 = DIRECTION('',(-0.,0.,1.));
#1049 = DIRECTION('',(0.,-1.,0.));
#1050 = ORIENTED_EDGE('',*,*,#1051,.T.);
#1051 = EDGE_CURVE('',#1043,#1052,#1054,.T.);
#1052 = VERTEX_POINT('',#1053);
#1053 = CARTESIAN_POINT('',(-37.58066817354,-15.4292672613,11.));
#1054 = LINE('',#1055,#1056);
#1055 = CARTESIAN_POINT('',(41.580668173548,-15.4292672613,11.));
#1056 = VECTOR('',#1057,1.);
#1057 = DIRECTION('',(-1.,0.,0.));
#1058 = ORIENTED_EDGE('',*,*,#1059,.F.);
#1059 = EDGE_CURVE('',#517,#1052,#1060,.T.);
#1060 = CIRCLE('',#1061,4.);
#1061 = AXIS2_PLACEMENT_3D('',#1062,#1063,#1064);
#1062 = CARTESIAN_POINT('',(-37.58066817354,-19.4292672613,11.));
#1063 = DIRECTION('',(-0.,-0.,-1.));
#1064 = DIRECTION('',(0.,-1.,0.));
#1065 = FACE_BOUND('',#1066,.T.);
#1066 = EDGE_LOOP('',(#1067));
#1067 = ORIENTED_EDGE('',*,*,#1068,.F.);
#1068 = EDGE_CURVE('',#1069,#1069,#1071,.T.);
#1069 = VERTEX_POINT('',#1070);
#1070 = CARTESIAN_POINT('',(-26.75,-23.4292672613,11.));
#1071 = CIRCLE('',#1072,3.25);
#1072 = AXIS2_PLACEMENT_3D('',#1073,#1074,#1075);
#1073 = CARTESIAN_POINT('',(-30.,-23.4292672613,11.));
#1074 = DIRECTION('',(0.,0.,1.));
#1075 = DIRECTION('',(1.,0.,0.));
#1076 = FACE_BOUND('',#1077,.T.);
#1077 = EDGE_LOOP('',(#1078));
#1078 = ORIENTED_EDGE('',*,*,#1079,.F.);
#1079 = EDGE_CURVE('',#1080,#1080,#1082,.T.);
#1080 = VERTEX_POINT('',#1081);
#1081 = CARTESIAN_POINT('',(33.25,-23.4292672613,11.));
#1082 = CIRCLE('',#1083,3.25);
#1083 = AXIS2_PLACEMENT_3D('',#1084,#1085,#1086);
#1084 = CARTESIAN_POINT('',(30.,-23.4292672613,11.));
#1085 = DIRECTION('',(0.,0.,1.));
#1086 = DIRECTION('',(1.,0.,0.));
#1087 = FACE_BOUND('',#1088,.T.);
#1088 = EDGE_LOOP('',(#1089));
#1089 = ORIENTED_EDGE('',*,*,#1005,.T.);
#1090 = FACE_BOUND('',#1091,.T.);
#1091 = EDGE_LOOP('',(#1092));
#1092 = ORIENTED_EDGE('',*,*,#980,.T.);
#1093 = PLANE('',#1094);
#1094 = AXIS2_PLACEMENT_3D('',#1095,#1096,#1097);
#1095 = CARTESIAN_POINT('',(6.740683527317E-03,-34.53117086307,11.));
#1096 = DIRECTION('',(0.,0.,1.));
#1097 = DIRECTION('',(1.,0.,0.));
#1098 = ADVANCED_FACE('',(#1099),#1118,.T.);
#1099 = FACE_BOUND('',#1100,.T.);
#1100 = EDGE_LOOP('',(#1101,#1110,#1116,#1117));
#1101 = ORIENTED_EDGE('',*,*,#1102,.T.);
#1102 = EDGE_CURVE('',#315,#1103,#1105,.T.);
#1103 = VERTEX_POINT('',#1104);
#1104 = CARTESIAN_POINT('',(37.580668173548,-15.4292672613,8.));
#1105 = CIRCLE('',#1106,4.);
#1106 = AXIS2_PLACEMENT_3D('',#1107,#1108,#1109);
#1107 = CARTESIAN_POINT('',(37.580668173548,-19.4292672613,8.));
#1108 = DIRECTION('',(-0.,0.,1.));
#1109 = DIRECTION('',(0.,-1.,0.));
#1110 = ORIENTED_EDGE('',*,*,#1111,.T.);
#1111 = EDGE_CURVE('',#1103,#1043,#1112,.T.);
#1112 = LINE('',#1113,#1114);
#1113 = CARTESIAN_POINT('',(37.580668173548,-15.4292672613,8.));
#1114 = VECTOR('',#1115,1.);
#1115 = DIRECTION('',(0.,0.,1.));
#1116 = ORIENTED_EDGE('',*,*,#1042,.F.);
#1117 = ORIENTED_EDGE('',*,*,#322,.F.);
#1118 = CYLINDRICAL_SURFACE('',#1119,4.);
#1119 = AXIS2_PLACEMENT_3D('',#1120,#1121,#1122);
#1120 = CARTESIAN_POINT('',(37.580668173548,-19.4292672613,8.));
#1121 = DIRECTION('',(0.,0.,1.));
#1122 = DIRECTION('',(1.,0.,0.));
#1123 = ADVANCED_FACE('',(#1124,#1150,#1161),#1172,.F.);
#1124 = FACE_BOUND('',#1125,.F.);
#1125 = EDGE_LOOP('',(#1126,#1127,#1133,#1134,#1135,#1143));
#1126 = ORIENTED_EDGE('',*,*,#532,.T.);
#1127 = ORIENTED_EDGE('',*,*,#1128,.T.);
#1128 = EDGE_CURVE('',#533,#307,#1129,.T.);
#1129 = LINE('',#1130,#1131);
#1130 = CARTESIAN_POINT('',(-41.58066817354,-31.4292672613,8.));
#1131 = VECTOR('',#1132,1.);
#1132 = DIRECTION('',(1.,0.,0.));
#1133 = ORIENTED_EDGE('',*,*,#314,.F.);
#1134 = ORIENTED_EDGE('',*,*,#1102,.T.);
#1135 = ORIENTED_EDGE('',*,*,#1136,.F.);
#1136 = EDGE_CURVE('',#1137,#1103,#1139,.T.);
#1137 = VERTEX_POINT('',#1138);
#1138 = CARTESIAN_POINT('',(-37.58066817354,-15.4292672613,8.));
#1139 = LINE('',#1140,#1141);
#1140 = CARTESIAN_POINT('',(-41.58066817354,-15.4292672613,8.));
#1141 = VECTOR('',#1142,1.);
#1142 = DIRECTION('',(1.,0.,0.));
#1143 = ORIENTED_EDGE('',*,*,#1144,.F.);
#1144 = EDGE_CURVE('',#525,#1137,#1145,.T.);
#1145 = CIRCLE('',#1146,4.);
#1146 = AXIS2_PLACEMENT_3D('',#1147,#1148,#1149);
#1147 = CARTESIAN_POINT('',(-37.58066817354,-19.4292672613,8.));
#1148 = DIRECTION('',(-0.,-0.,-1.));
#1149 = DIRECTION('',(0.,-1.,0.));
#1150 = FACE_BOUND('',#1151,.F.);
#1151 = EDGE_LOOP('',(#1152));
#1152 = ORIENTED_EDGE('',*,*,#1153,.T.);
#1153 = EDGE_CURVE('',#1154,#1154,#1156,.T.);
#1154 = VERTEX_POINT('',#1155);
#1155 = CARTESIAN_POINT('',(-28.25,-23.4292672613,8.));
#1156 = CIRCLE('',#1157,1.75);
#1157 = AXIS2_PLACEMENT_3D('',#1158,#1159,#1160);
#1158 = CARTESIAN_POINT('',(-30.,-23.4292672613,8.));
#1159 = DIRECTION('',(0.,0.,-1.));
#1160 = DIRECTION('',(1.,0.,0.));
#1161 = FACE_BOUND('',#1162,.F.);
#1162 = EDGE_LOOP('',(#1163));
#1163 = ORIENTED_EDGE('',*,*,#1164,.T.);
#1164 = EDGE_CURVE('',#1165,#1165,#1167,.T.);
#1165 = VERTEX_POINT('',#1166);
#1166 = CARTESIAN_POINT('',(31.75,-23.4292672613,8.));
#1167 = CIRCLE('',#1168,1.75);
#1168 = AXIS2_PLACEMENT_3D('',#1169,#1170,#1171);
#1169 = CARTESIAN_POINT('',(30.,-23.4292672613,8.));
#1170 = DIRECTION('',(0.,0.,-1.));
#1171 = DIRECTION('',(1.,0.,0.));
#1172 = PLANE('',#1173);
#1173 = AXIS2_PLACEMENT_3D('',#1174,#1175,#1176);
#1174 = CARTESIAN_POINT('',(-41.58066817354,-15.4292672613,8.));
#1175 = DIRECTION('',(0.,2.2E-16,1.));
#1176 = DIRECTION('',(1.,0.,0.));
#1177 = ADVANCED_FACE('',(#1178),#1189,.T.);
#1178 = FACE_BOUND('',#1179,.T.);
#1179 = EDGE_LOOP('',(#1180,#1186,#1187,#1188));
#1180 = ORIENTED_EDGE('',*,*,#1181,.T.);
#1181 = EDGE_CURVE('',#299,#541,#1182,.T.);
#1182 = LINE('',#1183,#1184);
#1183 = CARTESIAN_POINT('',(41.580668173548,-31.4292672613,
    3.552713678801E-15));
#1184 = VECTOR('',#1185,1.);
#1185 = DIRECTION('',(-1.,0.,0.));
#1186 = ORIENTED_EDGE('',*,*,#540,.F.);
#1187 = ORIENTED_EDGE('',*,*,#1128,.T.);
#1188 = ORIENTED_EDGE('',*,*,#306,.F.);
#1189 = PLANE('',#1190);
#1190 = AXIS2_PLACEMENT_3D('',#1191,#1192,#1193);
#1191 = CARTESIAN_POINT('',(9.4E-16,-31.4292672613,4.));
#1192 = DIRECTION('',(0.,1.,-4.4E-16));
#1193 = DIRECTION('',(0.,4.4E-16,1.));
#1194 = ADVANCED_FACE('',(#1195,#1203,#1206),#1209,.F.);
#1195 = FACE_BOUND('',#1196,.F.);
#1196 = EDGE_LOOP('',(#1197,#1198,#1199,#1200,#1201,#1202));
#1197 = ORIENTED_EDGE('',*,*,#298,.T.);
#1198 = ORIENTED_EDGE('',*,*,#1181,.T.);
#1199 = ORIENTED_EDGE('',*,*,#548,.F.);
#1200 = ORIENTED_EDGE('',*,*,#460,.T.);
#1201 = ORIENTED_EDGE('',*,*,#412,.F.);
#1202 = ORIENTED_EDGE('',*,*,#370,.F.);
#1203 = FACE_BOUND('',#1204,.F.);
#1204 = EDGE_LOOP('',(#1205));
#1205 = ORIENTED_EDGE('',*,*,#930,.F.);
#1206 = FACE_BOUND('',#1207,.F.);
#1207 = EDGE_LOOP('',(#1208));
#1208 = ORIENTED_EDGE('',*,*,#955,.F.);
#1209 = PLANE('',#1210);
#1210 = AXIS2_PLACEMENT_3D('',#1211,#1212,#1213);
#1211 = CARTESIAN_POINT('',(41.580668173548,-15.4292672613,0.));
#1212 = DIRECTION('',(-0.,-2.2E-16,-1.));
#1213 = DIRECTION('',(-1.,0.,0.));
#1214 = ADVANCED_FACE('',(#1215),#1226,.T.);
#1215 = FACE_BOUND('',#1216,.F.);
#1216 = EDGE_LOOP('',(#1217,#1218,#1224,#1225));
#1217 = ORIENTED_EDGE('',*,*,#1144,.T.);
#1218 = ORIENTED_EDGE('',*,*,#1219,.T.);
#1219 = EDGE_CURVE('',#1137,#1052,#1220,.T.);
#1220 = LINE('',#1221,#1222);
#1221 = CARTESIAN_POINT('',(-37.58066817354,-15.4292672613,8.));
#1222 = VECTOR('',#1223,1.);
#1223 = DIRECTION('',(0.,0.,1.));
#1224 = ORIENTED_EDGE('',*,*,#1059,.F.);
#1225 = ORIENTED_EDGE('',*,*,#524,.F.);
#1226 = CYLINDRICAL_SURFACE('',#1227,4.);
#1227 = AXIS2_PLACEMENT_3D('',#1228,#1229,#1230);
#1228 = CARTESIAN_POINT('',(-37.58066817354,-19.4292672613,8.));
#1229 = DIRECTION('',(0.,0.,1.));
#1230 = DIRECTION('',(-1.,0.,0.));
#1231 = ADVANCED_FACE('',(#1232),#1238,.F.);
#1232 = FACE_BOUND('',#1233,.F.);
#1233 = EDGE_LOOP('',(#1234,#1235,#1236,#1237));
#1234 = ORIENTED_EDGE('',*,*,#1136,.T.);
#1235 = ORIENTED_EDGE('',*,*,#1111,.T.);
#1236 = ORIENTED_EDGE('',*,*,#1051,.T.);
#1237 = ORIENTED_EDGE('',*,*,#1219,.F.);
#1238 = PLANE('',#1239);
#1239 = AXIS2_PLACEMENT_3D('',#1240,#1241,#1242);
#1240 = CARTESIAN_POINT('',(41.580668173548,-15.4292672613,-3.));
#1241 = DIRECTION('',(0.,-1.,0.));
#1242 = DIRECTION('',(-1.,0.,0.));
#1243 = ADVANCED_FACE('',(#1244),#1263,.F.);
#1244 = FACE_BOUND('',#1245,.T.);
#1245 = EDGE_LOOP('',(#1246,#1254,#1255,#1256));
#1246 = ORIENTED_EDGE('',*,*,#1247,.F.);
#1247 = EDGE_CURVE('',#1069,#1248,#1250,.T.);
#1248 = VERTEX_POINT('',#1249);
#1249 = CARTESIAN_POINT('',(-28.25,-23.4292672613,9.5));
#1250 = LINE('',#1251,#1252);
#1251 = CARTESIAN_POINT('',(-26.75,-23.4292672613,11.));
#1252 = VECTOR('',#1253,1.);
#1253 = DIRECTION('',(-0.707106781187,0.,-0.707106781187));
#1254 = ORIENTED_EDGE('',*,*,#1068,.T.);
#1255 = ORIENTED_EDGE('',*,*,#1247,.T.);
#1256 = ORIENTED_EDGE('',*,*,#1257,.T.);
#1257 = EDGE_CURVE('',#1248,#1248,#1258,.T.);
#1258 = CIRCLE('',#1259,1.75);
#1259 = AXIS2_PLACEMENT_3D('',#1260,#1261,#1262);
#1260 = CARTESIAN_POINT('',(-30.,-23.4292672613,9.5));
#1261 = DIRECTION('',(0.,0.,-1.));
#1262 = DIRECTION('',(0.,1.,0.));
#1263 = CONICAL_SURFACE('',#1264,3.25,0.785398163397);
#1264 = AXIS2_PLACEMENT_3D('',#1265,#1266,#1267);
#1265 = CARTESIAN_POINT('',(-30.,-23.4292672613,11.));
#1266 = DIRECTION('',(0.,0.,1.));
#1267 = DIRECTION('',(1.,0.,0.));
#1268 = ADVANCED_FACE('',(#1269),#1288,.F.);
#1269 = FACE_BOUND('',#1270,.T.);
#1270 = EDGE_LOOP('',(#1271,#1279,#1280,#1281));
#1271 = ORIENTED_EDGE('',*,*,#1272,.F.);
#1272 = EDGE_CURVE('',#1080,#1273,#1275,.T.);
#1273 = VERTEX_POINT('',#1274);
#1274 = CARTESIAN_POINT('',(31.75,-23.4292672613,9.5));
#1275 = LINE('',#1276,#1277);
#1276 = CARTESIAN_POINT('',(33.25,-23.4292672613,11.));
#1277 = VECTOR('',#1278,1.);
#1278 = DIRECTION('',(-0.707106781187,0.,-0.707106781187));
#1279 = ORIENTED_EDGE('',*,*,#1079,.T.);
#1280 = ORIENTED_EDGE('',*,*,#1272,.T.);
#1281 = ORIENTED_EDGE('',*,*,#1282,.T.);
#1282 = EDGE_CURVE('',#1273,#1273,#1283,.T.);
#1283 = CIRCLE('',#1284,1.75);
#1284 = AXIS2_PLACEMENT_3D('',#1285,#1286,#1287);
#1285 = CARTESIAN_POINT('',(30.,-23.4292672613,9.5));
#1286 = DIRECTION('',(0.,0.,-1.));
#1287 = DIRECTION('',(0.,1.,0.));
#1288 = CONICAL_SURFACE('',#1289,3.25,0.785398163397);
#1289 = AXIS2_PLACEMENT_3D('',#1290,#1291,#1292);
#1290 = CARTESIAN_POINT('',(30.,-23.4292672613,11.));
#1291 = DIRECTION('',(0.,0.,1.));
#1292 = DIRECTION('',(1.,0.,0.));
#1293 = ADVANCED_FACE('',(#1294),#1305,.F.);
#1294 = FACE_BOUND('',#1295,.T.);
#1295 = EDGE_LOOP('',(#1296,#1302,#1303,#1304));
#1296 = ORIENTED_EDGE('',*,*,#1297,.F.);
#1297 = EDGE_CURVE('',#1154,#1248,#1298,.T.);
#1298 = LINE('',#1299,#1300);
#1299 = CARTESIAN_POINT('',(-28.25,-23.4292672613,-3.));
#1300 = VECTOR('',#1301,1.);
#1301 = DIRECTION('',(0.,0.,1.));
#1302 = ORIENTED_EDGE('',*,*,#1153,.T.);
#1303 = ORIENTED_EDGE('',*,*,#1297,.T.);
#1304 = ORIENTED_EDGE('',*,*,#1257,.F.);
#1305 = CYLINDRICAL_SURFACE('',#1306,1.75);
#1306 = AXIS2_PLACEMENT_3D('',#1307,#1308,#1309);
#1307 = CARTESIAN_POINT('',(-30.,-23.4292672613,-3.));
#1308 = DIRECTION('',(-0.,-0.,-1.));
#1309 = DIRECTION('',(1.,0.,0.));
#1310 = ADVANCED_FACE('',(#1311),#1322,.F.);
#1311 = FACE_BOUND('',#1312,.T.);
#1312 = EDGE_LOOP('',(#1313,#1319,#1320,#1321));
#1313 = ORIENTED_EDGE('',*,*,#1314,.F.);
#1314 = EDGE_CURVE('',#1165,#1273,#1315,.T.);
#1315 = LINE('',#1316,#1317);
#1316 = CARTESIAN_POINT('',(31.75,-23.4292672613,-3.));
#1317 = VECTOR('',#1318,1.);
#1318 = DIRECTION('',(0.,0.,1.));
#1319 = ORIENTED_EDGE('',*,*,#1164,.T.);
#1320 = ORIENTED_EDGE('',*,*,#1314,.T.);
#1321 = ORIENTED_EDGE('',*,*,#1282,.F.);
#1322 = CYLINDRICAL_SURFACE('',#1323,1.75);
#1323 = AXIS2_PLACEMENT_3D('',#1324,#1325,#1326);
#1324 = CARTESIAN_POINT('',(30.,-23.4292672613,-3.));
#1325 = DIRECTION('',(-0.,-0.,-1.));
#1326 = DIRECTION('',(1.,0.,0.));
#1327 = ( GEOMETRIC_REPRESENTATION_CONTEXT(3) 
GLOBAL_UNCERTAINTY_ASSIGNED_CONTEXT((#1331)) 
GLOBAL_UNIT_ASSIGNED_CONTEXT((#1328,#1329,#1330)) REPRESENTATION_CONTEXT
('Context #1','3D Context with UNIT and UNCERTAINTY') );
#1328 = ( LENGTH_UNIT() NAMED_UNIT(*) SI_UNIT(.MILLI.,.METRE.) );
#1329 = ( NAMED_UNIT(*) PLANE_ANGLE_UNIT() SI_UNIT($,.RADIAN.) );
#1330 = ( NAMED_UNIT(*) SI_UNIT($,.STERADIAN.) SOLID_ANGLE_UNIT() );
#1331 = UNCERTAINTY_MEASURE_WITH_UNIT(LENGTH_MEASURE(5.E-05),#1328,
  'distance_accuracy_value','confusion accuracy');
#1332 = PRODUCT_RELATED_PRODUCT_CATEGORY('part',$,(#7));
ENDSEC;
END-ISO-10303-21;
