ISO-10303-21;
HEADER;
FILE_DESCRIPTION(('FreeCAD Model'),'2;1');
FILE_NAME('Open CASCADE Shape Model','2026-08-28T13:03:58',('FreeCAD'),(
    'FreeCAD'),'Open CASCADE STEP processor 7.8','FreeCAD','Unknown');
FILE_SCHEMA(('AUTOMOTIVE_DESIGN { 1 0 10303 214 1 1 1 1 }'));
ENDSEC;
DATA;
#1 = APPLICATION_PROTOCOL_DEFINITION('international standard',
  'automotive_design',2000,#2);
#2 = APPLICATION_CONTEXT(
  'core data for automotive mechanical design processes');
#3 = SHAPE_DEFINITION_REPRESENTATION(#4,#10);
#4 = PRODUCT_DEFINITION_SHAPE('','',#5);
#5 = PRODUCT_DEFINITION('design','',#6,#9);
#6 = PRODUCT_DEFINITION_FORMATION('','',#7);
#7 = PRODUCT('Open CASCADE STEP translator 7.8 25',
  'Open CASCADE STEP translator 7.8 25','',(#8));
#8 = PRODUCT_CONTEXT('',#2,'mechanical');
#9 = PRODUCT_DEFINITION_CONTEXT('part definition',#2,'design');
#10 = ADVANCED_BREP_SHAPE_REPRESENTATION('',(#11,#15),#1334);
#11 = AXIS2_PLACEMENT_3D('',#12,#13,#14);
#12 = CARTESIAN_POINT('',(0.,0.,0.));
#13 = DIRECTION('',(0.,0.,1.));
#14 = DIRECTION('',(1.,0.,-0.));
#15 = MANIFOLD_SOLID_BREP('',#16);
#16 = CLOSED_SHELL('',(#17,#833,#871,#888,#905,#922,#939,#956,#973,#996,
    #1019,#1051,#1083,#1092,#1146,#1171,#1196,#1221,#1268,#1286,#1300,
    #1317));
#17 = ADVANCED_FACE('',(#18,#486,#543,#600,#657,#714,#771),#828,.T.);
#18 = FACE_BOUND('',#19,.F.);
#19 = EDGE_LOOP('',(#20,#30,#61,#69,#100,#108,#139,#147,#178,#186,#217,
    #225,#256,#264,#273,#282,#291,#298,#299,#328,#329,#358,#359,#388,
    #389,#418,#419,#448,#449,#478,#479));
#20 = ORIENTED_EDGE('',*,*,#21,.F.);
#21 = EDGE_CURVE('',#22,#24,#26,.T.);
#22 = VERTEX_POINT('',#23);
#23 = CARTESIAN_POINT('',(4.,-58.25,4.));
#24 = VERTEX_POINT('',#25);
#25 = CARTESIAN_POINT('',(4.,-62.,4.));
#26 = LINE('',#27,#28);
#27 = CARTESIAN_POINT('',(4.,-15.,4.));
#28 = VECTOR('',#29,1.);
#29 = DIRECTION('',(0.,-1.,2.2E-16));
#30 = ORIENTED_EDGE('',*,*,#31,.T.);
#31 = EDGE_CURVE('',#22,#32,#34,.T.);
#32 = VERTEX_POINT('',#33);
#33 = CARTESIAN_POINT('',(4.,-55.75,4.));
#34 = B_SPLINE_CURVE_WITH_KNOTS('',7,(#35,#36,#37,#38,#39,#40,#41,#42,
    #43,#44,#45,#46,#47,#48,#49,#50,#51,#52,#53,#54,#55,#56,#57,#58,#59,
    #60),.UNSPECIFIED.,.F.,.F.,(8,6,6,6,8),(0.,0.231681610292,
    0.500029075016,0.768379390711,1.),.UNSPECIFIED.);
#35 = CARTESIAN_POINT('',(4.,-58.25,4.));
#36 = CARTESIAN_POINT('',(4.,-58.25,3.850565815966));
#37 = CARTESIAN_POINT('',(3.993486658666,-58.22915823097,3.703752094297)
  );
#38 = CARTESIAN_POINT('',(3.9808729792,-58.18878973185,3.563073766815));
#39 = CARTESIAN_POINT('',(3.963405417088,-58.13092991336,3.431689781535)
  );
#40 = CARTESIAN_POINT('',(3.942979847614,-58.05833876469,3.312270413877)
  );
#41 = CARTESIAN_POINT('',(3.921663183196,-57.9745459741,3.20677902114));
#42 = CARTESIAN_POINT('',(3.877329185172,-57.7788727622,3.011105809236)
  );
#43 = CARTESIAN_POINT('',(3.854066709161,-57.66239345397,2.9237366869));
#44 = CARTESIAN_POINT('',(3.833362616422,-57.53761279574,2.854098265581)
  );
#45 = CARTESIAN_POINT('',(3.816789456561,-57.40701691205,2.802035624124)
  );
#46 = CARTESIAN_POINT('',(3.805385605024,-57.27267976802,2.767370760813)
  );
#47 = CARTESIAN_POINT('',(3.799671038393,-57.13642463004,2.75));
#48 = CARTESIAN_POINT('',(3.799671038393,-56.86357392055,2.75));
#49 = CARTESIAN_POINT('',(3.805385724457,-56.72731673194,2.767371124944)
  );
#50 = CARTESIAN_POINT('',(3.816789915879,-56.59297935982,2.802037014571)
  );
#51 = CARTESIAN_POINT('',(3.833363086358,-56.46238573846,2.854099781076)
  );
#52 = CARTESIAN_POINT('',(3.854066461798,-56.33760836849,2.923736407124)
  );
#53 = CARTESIAN_POINT('',(3.877328554907,-56.22113001954,3.011103027488)
  );
#54 = CARTESIAN_POINT('',(3.921658100495,-56.02547645897,3.206756588056)
  );
#55 = CARTESIAN_POINT('',(3.942976741944,-55.9416698261,3.312251075983)
  );
#56 = CARTESIAN_POINT('',(3.963407952075,-55.86905942113,3.431694059257)
  );
#57 = CARTESIAN_POINT('',(3.980878977544,-55.811191118,3.563108450996));
#58 = CARTESIAN_POINT('',(3.993490753568,-55.77082865092,3.703806747177)
  );
#59 = CARTESIAN_POINT('',(4.,-55.75,3.85061284233));
#60 = CARTESIAN_POINT('',(4.,-55.75,4.));
#61 = ORIENTED_EDGE('',*,*,#62,.F.);
#62 = EDGE_CURVE('',#63,#32,#65,.T.);
#63 = VERTEX_POINT('',#64);
#64 = CARTESIAN_POINT('',(4.,-53.25,4.));
#65 = LINE('',#66,#67);
#66 = CARTESIAN_POINT('',(4.,-15.,4.));
#67 = VECTOR('',#68,1.);
#68 = DIRECTION('',(0.,-1.,2.2E-16));
#69 = ORIENTED_EDGE('',*,*,#70,.T.);
#70 = EDGE_CURVE('',#63,#71,#73,.T.);
#71 = VERTEX_POINT('',#72);
#72 = CARTESIAN_POINT('',(4.,-50.75,4.));
#73 = B_SPLINE_CURVE_WITH_KNOTS('',7,(#74,#75,#76,#77,#78,#79,#80,#81,
    #82,#83,#84,#85,#86,#87,#88,#89,#90,#91,#92,#93,#94,#95,#96,#97,#98,
    #99),.UNSPECIFIED.,.F.,.F.,(8,6,6,6,8),(0.,0.231681610292,
    0.500029075016,0.768379390711,1.),.UNSPECIFIED.);
#74 = CARTESIAN_POINT('',(4.,-53.25,4.));
#75 = CARTESIAN_POINT('',(4.,-53.25,3.850565815966));
#76 = CARTESIAN_POINT('',(3.993486658666,-53.22915823097,3.703752094297)
  );
#77 = CARTESIAN_POINT('',(3.9808729792,-53.18878973185,3.563073766815));
#78 = CARTESIAN_POINT('',(3.963405417088,-53.13092991336,3.431689781535)
  );
#79 = CARTESIAN_POINT('',(3.942979847614,-53.05833876469,3.312270413876)
  );
#80 = CARTESIAN_POINT('',(3.921663183196,-52.9745459741,3.20677902114));
#81 = CARTESIAN_POINT('',(3.877329185172,-52.7788727622,3.011105809236)
  );
#82 = CARTESIAN_POINT('',(3.854066709161,-52.66239345397,2.9237366869));
#83 = CARTESIAN_POINT('',(3.833362616422,-52.53761279574,2.854098265581)
  );
#84 = CARTESIAN_POINT('',(3.816789456561,-52.40701691205,2.802035624124)
  );
#85 = CARTESIAN_POINT('',(3.805385605024,-52.27267976802,2.767370760813)
  );
#86 = CARTESIAN_POINT('',(3.799671038393,-52.13642463004,2.75));
#87 = CARTESIAN_POINT('',(3.799671038393,-51.86357392055,2.75));
#88 = CARTESIAN_POINT('',(3.805385724457,-51.72731673194,2.767371124944)
  );
#89 = CARTESIAN_POINT('',(3.816789915879,-51.59297935982,2.802037014571)
  );
#90 = CARTESIAN_POINT('',(3.833363086358,-51.46238573846,2.854099781076)
  );
#91 = CARTESIAN_POINT('',(3.854066461798,-51.33760836849,2.923736407124)
  );
#92 = CARTESIAN_POINT('',(3.877328554907,-51.22113001954,3.011103027488)
  );
#93 = CARTESIAN_POINT('',(3.921658100495,-51.02547645897,3.206756588056)
  );
#94 = CARTESIAN_POINT('',(3.942976741945,-50.94166982609,3.312251075983)
  );
#95 = CARTESIAN_POINT('',(3.963407952075,-50.86905942113,3.431694059256)
  );
#96 = CARTESIAN_POINT('',(3.980878977544,-50.811191118,3.563108450997));
#97 = CARTESIAN_POINT('',(3.993490753568,-50.77082865092,3.703806747176)
  );
#98 = CARTESIAN_POINT('',(4.,-50.75,3.85061284233));
#99 = CARTESIAN_POINT('',(4.,-50.75,4.));
#100 = ORIENTED_EDGE('',*,*,#101,.F.);
#101 = EDGE_CURVE('',#102,#71,#104,.T.);
#102 = VERTEX_POINT('',#103);
#103 = CARTESIAN_POINT('',(4.,-48.25,4.));
#104 = LINE('',#105,#106);
#105 = CARTESIAN_POINT('',(4.,-15.,4.));
#106 = VECTOR('',#107,1.);
#107 = DIRECTION('',(0.,-1.,2.2E-16));
#108 = ORIENTED_EDGE('',*,*,#109,.T.);
#109 = EDGE_CURVE('',#102,#110,#112,.T.);
#110 = VERTEX_POINT('',#111);
#111 = CARTESIAN_POINT('',(4.,-45.75,4.));
#112 = B_SPLINE_CURVE_WITH_KNOTS('',7,(#113,#114,#115,#116,#117,#118,
    #119,#120,#121,#122,#123,#124,#125,#126,#127,#128,#129,#130,#131,
    #132,#133,#134,#135,#136,#137,#138),.UNSPECIFIED.,.F.,.F.,(8,6,6,6,8
    ),(0.,0.231681610292,0.500029075016,0.768379390711,1.),
  .UNSPECIFIED.);
#113 = CARTESIAN_POINT('',(4.,-48.25,4.));
#114 = CARTESIAN_POINT('',(4.,-48.25,3.850565815966));
#115 = CARTESIAN_POINT('',(3.993486658666,-48.22915823097,3.703752094297
    ));
#116 = CARTESIAN_POINT('',(3.9808729792,-48.18878973185,3.563073766815)
  );
#117 = CARTESIAN_POINT('',(3.963405417088,-48.13092991336,3.431689781535
    ));
#118 = CARTESIAN_POINT('',(3.942979847614,-48.05833876469,3.312270413876
    ));
#119 = CARTESIAN_POINT('',(3.921663183196,-47.9745459741,3.20677902114)
  );
#120 = CARTESIAN_POINT('',(3.877329185172,-47.7788727622,3.011105809236)
  );
#121 = CARTESIAN_POINT('',(3.854066709161,-47.66239345397,2.9237366869)
  );
#122 = CARTESIAN_POINT('',(3.833362616422,-47.53761279574,2.854098265581
    ));
#123 = CARTESIAN_POINT('',(3.816789456561,-47.40701691205,2.802035624124
    ));
#124 = CARTESIAN_POINT('',(3.805385605024,-47.27267976802,2.767370760813
    ));
#125 = CARTESIAN_POINT('',(3.799671038393,-47.13642463004,2.75));
#126 = CARTESIAN_POINT('',(3.799671038393,-46.86357392055,2.75));
#127 = CARTESIAN_POINT('',(3.805385724457,-46.72731673194,2.767371124944
    ));
#128 = CARTESIAN_POINT('',(3.816789915879,-46.59297935982,2.802037014571
    ));
#129 = CARTESIAN_POINT('',(3.833363086358,-46.46238573846,2.854099781076
    ));
#130 = CARTESIAN_POINT('',(3.854066461798,-46.33760836848,2.923736407124
    ));
#131 = CARTESIAN_POINT('',(3.877328554907,-46.22113001954,3.011103027488
    ));
#132 = CARTESIAN_POINT('',(3.921658100495,-46.02547645897,3.206756588056
    ));
#133 = CARTESIAN_POINT('',(3.942976741944,-45.9416698261,3.312251075983)
  );
#134 = CARTESIAN_POINT('',(3.963407952075,-45.86905942113,3.431694059256
    ));
#135 = CARTESIAN_POINT('',(3.980878977544,-45.811191118,3.563108450996)
  );
#136 = CARTESIAN_POINT('',(3.993490753568,-45.77082865092,3.703806747177
    ));
#137 = CARTESIAN_POINT('',(4.,-45.75,3.85061284233));
#138 = CARTESIAN_POINT('',(4.,-45.75,4.));
#139 = ORIENTED_EDGE('',*,*,#140,.F.);
#140 = EDGE_CURVE('',#141,#110,#143,.T.);
#141 = VERTEX_POINT('',#142);
#142 = CARTESIAN_POINT('',(4.,-43.25,4.));
#143 = LINE('',#144,#145);
#144 = CARTESIAN_POINT('',(4.,-15.,4.));
#145 = VECTOR('',#146,1.);
#146 = DIRECTION('',(0.,-1.,2.2E-16));
#147 = ORIENTED_EDGE('',*,*,#148,.T.);
#148 = EDGE_CURVE('',#141,#149,#151,.T.);
#149 = VERTEX_POINT('',#150);
#150 = CARTESIAN_POINT('',(4.,-40.75,4.));
#151 = B_SPLINE_CURVE_WITH_KNOTS('',7,(#152,#153,#154,#155,#156,#157,
    #158,#159,#160,#161,#162,#163,#164,#165,#166,#167,#168,#169,#170,
    #171,#172,#173,#174,#175,#176,#177),.UNSPECIFIED.,.F.,.F.,(8,6,6,6,8
    ),(0.,0.231681610292,0.500029075016,0.768379390711,1.),
  .UNSPECIFIED.);
#152 = CARTESIAN_POINT('',(4.,-43.25,4.));
#153 = CARTESIAN_POINT('',(4.,-43.25,3.850565815966));
#154 = CARTESIAN_POINT('',(3.993486658666,-43.22915823097,3.703752094297
    ));
#155 = CARTESIAN_POINT('',(3.9808729792,-43.18878973185,3.563073766815)
  );
#156 = CARTESIAN_POINT('',(3.963405417088,-43.13092991336,3.431689781534
    ));
#157 = CARTESIAN_POINT('',(3.942979847614,-43.05833876469,3.312270413877
    ));
#158 = CARTESIAN_POINT('',(3.921663183196,-42.9745459741,3.20677902114)
  );
#159 = CARTESIAN_POINT('',(3.877329185172,-42.7788727622,3.011105809236)
  );
#160 = CARTESIAN_POINT('',(3.854066709161,-42.66239345397,2.9237366869)
  );
#161 = CARTESIAN_POINT('',(3.833362616422,-42.53761279574,2.854098265581
    ));
#162 = CARTESIAN_POINT('',(3.816789456561,-42.40701691205,2.802035624124
    ));
#163 = CARTESIAN_POINT('',(3.805385605024,-42.27267976802,2.767370760813
    ));
#164 = CARTESIAN_POINT('',(3.799671038393,-42.13642463004,2.75));
#165 = CARTESIAN_POINT('',(3.799671038393,-41.86357392055,2.75));
#166 = CARTESIAN_POINT('',(3.805385724457,-41.72731673194,2.767371124944
    ));
#167 = CARTESIAN_POINT('',(3.816789915879,-41.59297935982,2.802037014571
    ));
#168 = CARTESIAN_POINT('',(3.833363086358,-41.46238573846,2.854099781076
    ));
#169 = CARTESIAN_POINT('',(3.854066461798,-41.33760836849,2.923736407124
    ));
#170 = CARTESIAN_POINT('',(3.877328554907,-41.22113001954,3.011103027488
    ));
#171 = CARTESIAN_POINT('',(3.921658100495,-41.02547645897,3.206756588056
    ));
#172 = CARTESIAN_POINT('',(3.942976741944,-40.9416698261,3.312251075983)
  );
#173 = CARTESIAN_POINT('',(3.963407952075,-40.86905942113,3.431694059256
    ));
#174 = CARTESIAN_POINT('',(3.980878977544,-40.811191118,3.563108450997)
  );
#175 = CARTESIAN_POINT('',(3.993490753568,-40.77082865092,3.703806747176
    ));
#176 = CARTESIAN_POINT('',(4.,-40.75,3.85061284233));
#177 = CARTESIAN_POINT('',(4.,-40.75,4.));
#178 = ORIENTED_EDGE('',*,*,#179,.F.);
#179 = EDGE_CURVE('',#180,#149,#182,.T.);
#180 = VERTEX_POINT('',#181);
#181 = CARTESIAN_POINT('',(4.,-38.25,4.));
#182 = LINE('',#183,#184);
#183 = CARTESIAN_POINT('',(4.,-15.,4.));
#184 = VECTOR('',#185,1.);
#185 = DIRECTION('',(0.,-1.,2.2E-16));
#186 = ORIENTED_EDGE('',*,*,#187,.T.);
#187 = EDGE_CURVE('',#180,#188,#190,.T.);
#188 = VERTEX_POINT('',#189);
#189 = CARTESIAN_POINT('',(4.,-35.75,4.));
#190 = B_SPLINE_CURVE_WITH_KNOTS('',7,(#191,#192,#193,#194,#195,#196,
    #197,#198,#199,#200,#201,#202,#203,#204,#205,#206,#207,#208,#209,
    #210,#211,#212,#213,#214,#215,#216),.UNSPECIFIED.,.F.,.F.,(8,6,6,6,8
    ),(0.,0.231681610292,0.500029075016,0.768379390711,1.),
  .UNSPECIFIED.);
#191 = CARTESIAN_POINT('',(4.,-38.25,4.));
#192 = CARTESIAN_POINT('',(4.,-38.25,3.850565815966));
#193 = CARTESIAN_POINT('',(3.993486658666,-38.22915823097,3.703752094297
    ));
#194 = CARTESIAN_POINT('',(3.9808729792,-38.18878973185,3.563073766815)
  );
#195 = CARTESIAN_POINT('',(3.963405417088,-38.13092991336,3.431689781534
    ));
#196 = CARTESIAN_POINT('',(3.942979847614,-38.05833876469,3.312270413877
    ));
#197 = CARTESIAN_POINT('',(3.921663183196,-37.9745459741,3.20677902114)
  );
#198 = CARTESIAN_POINT('',(3.877329185172,-37.7788727622,3.011105809236)
  );
#199 = CARTESIAN_POINT('',(3.854066709161,-37.66239345397,2.9237366869)
  );
#200 = CARTESIAN_POINT('',(3.833362616422,-37.53761279574,2.854098265581
    ));
#201 = CARTESIAN_POINT('',(3.816789456561,-37.40701691205,2.802035624124
    ));
#202 = CARTESIAN_POINT('',(3.805385605024,-37.27267976802,2.767370760813
    ));
#203 = CARTESIAN_POINT('',(3.799671038393,-37.13642463004,2.75));
#204 = CARTESIAN_POINT('',(3.799671038393,-36.86357392055,2.75));
#205 = CARTESIAN_POINT('',(3.805385724457,-36.72731673194,2.767371124944
    ));
#206 = CARTESIAN_POINT('',(3.816789915879,-36.59297935982,2.802037014571
    ));
#207 = CARTESIAN_POINT('',(3.833363086358,-36.46238573846,2.854099781076
    ));
#208 = CARTESIAN_POINT('',(3.854066461798,-36.33760836848,2.923736407124
    ));
#209 = CARTESIAN_POINT('',(3.877328554907,-36.22113001954,3.011103027488
    ));
#210 = CARTESIAN_POINT('',(3.921658100495,-36.02547645897,3.206756588056
    ));
#211 = CARTESIAN_POINT('',(3.942976741944,-35.9416698261,3.312251075983)
  );
#212 = CARTESIAN_POINT('',(3.963407952075,-35.86905942113,3.431694059257
    ));
#213 = CARTESIAN_POINT('',(3.980878977544,-35.811191118,3.563108450996)
  );
#214 = CARTESIAN_POINT('',(3.993490753568,-35.77082865092,3.703806747176
    ));
#215 = CARTESIAN_POINT('',(4.,-35.75,3.85061284233));
#216 = CARTESIAN_POINT('',(4.,-35.75,4.));
#217 = ORIENTED_EDGE('',*,*,#218,.F.);
#218 = EDGE_CURVE('',#219,#188,#221,.T.);
#219 = VERTEX_POINT('',#220);
#220 = CARTESIAN_POINT('',(4.,-33.25,4.));
#221 = LINE('',#222,#223);
#222 = CARTESIAN_POINT('',(4.,-15.,4.));
#223 = VECTOR('',#224,1.);
#224 = DIRECTION('',(0.,-1.,2.2E-16));
#225 = ORIENTED_EDGE('',*,*,#226,.T.);
#226 = EDGE_CURVE('',#219,#227,#229,.T.);
#227 = VERTEX_POINT('',#228);
#228 = CARTESIAN_POINT('',(4.,-30.75,4.));
#229 = B_SPLINE_CURVE_WITH_KNOTS('',7,(#230,#231,#232,#233,#234,#235,
    #236,#237,#238,#239,#240,#241,#242,#243,#244,#245,#246,#247,#248,
    #249,#250,#251,#252,#253,#254,#255),.UNSPECIFIED.,.F.,.F.,(8,6,6,6,8
    ),(0.,0.231681610292,0.500029075016,0.768379390711,1.),
  .UNSPECIFIED.);
#230 = CARTESIAN_POINT('',(4.,-33.25,4.));
#231 = CARTESIAN_POINT('',(4.,-33.25,3.850565815966));
#232 = CARTESIAN_POINT('',(3.993486658666,-33.22915823097,3.703752094297
    ));
#233 = CARTESIAN_POINT('',(3.9808729792,-33.18878973185,3.563073766816)
  );
#234 = CARTESIAN_POINT('',(3.963405417088,-33.13092991336,3.431689781534
    ));
#235 = CARTESIAN_POINT('',(3.942979847614,-33.05833876469,3.312270413877
    ));
#236 = CARTESIAN_POINT('',(3.921663183196,-32.9745459741,3.20677902114)
  );
#237 = CARTESIAN_POINT('',(3.877329185172,-32.7788727622,3.011105809236)
  );
#238 = CARTESIAN_POINT('',(3.854066709161,-32.66239345397,2.9237366869)
  );
#239 = CARTESIAN_POINT('',(3.833362616422,-32.53761279574,2.854098265581
    ));
#240 = CARTESIAN_POINT('',(3.816789456561,-32.40701691205,2.802035624124
    ));
#241 = CARTESIAN_POINT('',(3.805385605024,-32.27267976802,2.767370760813
    ));
#242 = CARTESIAN_POINT('',(3.799671038393,-32.13642463004,2.75));
#243 = CARTESIAN_POINT('',(3.799671038393,-31.86357392055,2.75));
#244 = CARTESIAN_POINT('',(3.805385724457,-31.72731673194,2.767371124944
    ));
#245 = CARTESIAN_POINT('',(3.816789915879,-31.59297935982,2.802037014571
    ));
#246 = CARTESIAN_POINT('',(3.833363086358,-31.46238573846,2.854099781076
    ));
#247 = CARTESIAN_POINT('',(3.854066461798,-31.33760836849,2.923736407124
    ));
#248 = CARTESIAN_POINT('',(3.877328554907,-31.22113001954,3.011103027488
    ));
#249 = CARTESIAN_POINT('',(3.921658100495,-31.02547645897,3.206756588056
    ));
#250 = CARTESIAN_POINT('',(3.942976741945,-30.94166982609,3.312251075983
    ));
#251 = CARTESIAN_POINT('',(3.963407952075,-30.86905942113,3.431694059256
    ));
#252 = CARTESIAN_POINT('',(3.980878977544,-30.811191118,3.563108450997)
  );
#253 = CARTESIAN_POINT('',(3.993490753568,-30.77082865092,3.703806747176
    ));
#254 = CARTESIAN_POINT('',(4.,-30.75,3.85061284233));
#255 = CARTESIAN_POINT('',(4.,-30.75,4.));
#256 = ORIENTED_EDGE('',*,*,#257,.F.);
#257 = EDGE_CURVE('',#258,#227,#260,.T.);
#258 = VERTEX_POINT('',#259);
#259 = CARTESIAN_POINT('',(4.,-15.,4.));
#260 = LINE('',#261,#262);
#261 = CARTESIAN_POINT('',(4.,-15.,4.));
#262 = VECTOR('',#263,1.);
#263 = DIRECTION('',(0.,-1.,2.2E-16));
#264 = ORIENTED_EDGE('',*,*,#265,.F.);
#265 = EDGE_CURVE('',#266,#258,#268,.T.);
#266 = VERTEX_POINT('',#267);
#267 = CARTESIAN_POINT('',(5.78E-13,-15.,0.));
#268 = CIRCLE('',#269,4.);
#269 = AXIS2_PLACEMENT_3D('',#270,#271,#272);
#270 = CARTESIAN_POINT('',(0.,-15.,4.));
#271 = DIRECTION('',(0.,-1.,0.));
#272 = DIRECTION('',(1.,0.,0.));
#273 = ORIENTED_EDGE('',*,*,#274,.F.);
#274 = EDGE_CURVE('',#275,#266,#277,.T.);
#275 = VERTEX_POINT('',#276);
#276 = CARTESIAN_POINT('',(-4.,-15.,4.));
#277 = CIRCLE('',#278,4.);
#278 = AXIS2_PLACEMENT_3D('',#279,#280,#281);
#279 = CARTESIAN_POINT('',(0.,-15.,4.));
#280 = DIRECTION('',(0.,-1.,0.));
#281 = DIRECTION('',(1.,0.,0.));
#282 = ORIENTED_EDGE('',*,*,#283,.F.);
#283 = EDGE_CURVE('',#284,#275,#286,.T.);
#284 = VERTEX_POINT('',#285);
#285 = CARTESIAN_POINT('',(5.61E-13,-15.,8.));
#286 = CIRCLE('',#287,4.);
#287 = AXIS2_PLACEMENT_3D('',#288,#289,#290);
#288 = CARTESIAN_POINT('',(0.,-15.,4.));
#289 = DIRECTION('',(0.,-1.,0.));
#290 = DIRECTION('',(1.,0.,0.));
#291 = ORIENTED_EDGE('',*,*,#292,.F.);
#292 = EDGE_CURVE('',#258,#284,#293,.T.);
#293 = CIRCLE('',#294,4.);
#294 = AXIS2_PLACEMENT_3D('',#295,#296,#297);
#295 = CARTESIAN_POINT('',(0.,-15.,4.));
#296 = DIRECTION('',(0.,-1.,0.));
#297 = DIRECTION('',(1.,0.,0.));
#298 = ORIENTED_EDGE('',*,*,#257,.T.);
#299 = ORIENTED_EDGE('',*,*,#300,.T.);
#300 = EDGE_CURVE('',#227,#219,#301,.T.);
#301 = B_SPLINE_CURVE_WITH_KNOTS('',7,(#302,#303,#304,#305,#306,#307,
    #308,#309,#310,#311,#312,#313,#314,#315,#316,#317,#318,#319,#320,
    #321,#322,#323,#324,#325,#326,#327),.UNSPECIFIED.,.F.,.F.,(8,6,6,6,8
    ),(0.,0.231670318897,0.500002400014,0.768354827402,1.),
  .UNSPECIFIED.);
#302 = CARTESIAN_POINT('',(4.,-30.75,4.));
#303 = CARTESIAN_POINT('',(4.,-30.75,4.149434184034));
#304 = CARTESIAN_POINT('',(3.993486658666,-30.77084176902,4.296247905703
    ));
#305 = CARTESIAN_POINT('',(3.9808729792,-30.81121026814,4.436926233185)
  );
#306 = CARTESIAN_POINT('',(3.963405417088,-30.86907008663,4.568310218466
    ));
#307 = CARTESIAN_POINT('',(3.942979847614,-30.9416612353,4.687729586123)
  );
#308 = CARTESIAN_POINT('',(3.921663183196,-31.02545402589,4.79322097886)
  );
#309 = CARTESIAN_POINT('',(3.877329389571,-31.22112633565,4.988893288626
    ));
#310 = CARTESIAN_POINT('',(3.854067178353,-31.33760422802,5.076261507103
    ));
#311 = CARTESIAN_POINT('',(3.833362808468,-31.46238537972,5.145901595893
    ));
#312 = CARTESIAN_POINT('',(3.816788793455,-31.59298516478,5.197966386084
    ));
#313 = CARTESIAN_POINT('',(3.80538486391,-31.72732753922,5.232631493813)
  );
#314 = CARTESIAN_POINT('',(3.799671038393,-31.86358426427,5.25));
#315 = CARTESIAN_POINT('',(3.799671038393,-32.13642607944,5.25));
#316 = CARTESIAN_POINT('',(3.805385724457,-32.27268326805,5.232628875056
    ));
#317 = CARTESIAN_POINT('',(3.816789915879,-32.40702064017,5.197962985429
    ));
#318 = CARTESIAN_POINT('',(3.833363086358,-32.53761426154,5.145900218923
    ));
#319 = CARTESIAN_POINT('',(3.854066461798,-32.66239163151,5.076263592877
    ));
#320 = CARTESIAN_POINT('',(3.877328554907,-32.77886998045,4.988896972512
    ));
#321 = CARTESIAN_POINT('',(3.921660116762,-32.97453244004,4.793234512919
    ));
#322 = CARTESIAN_POINT('',(3.942977409798,-33.05833110663,4.687743732369
    ));
#323 = CARTESIAN_POINT('',(3.963406206773,-33.1309340634,4.568312043833)
  );
#324 = CARTESIAN_POINT('',(3.980876446548,-33.18880085194,4.436908702331
    ));
#325 = CARTESIAN_POINT('',(3.993489331545,-33.22916676663,4.296215009908
    ));
#326 = CARTESIAN_POINT('',(4.,-33.25,4.149403581629));
#327 = CARTESIAN_POINT('',(4.,-33.25,4.));
#328 = ORIENTED_EDGE('',*,*,#218,.T.);
#329 = ORIENTED_EDGE('',*,*,#330,.T.);
#330 = EDGE_CURVE('',#188,#180,#331,.T.);
#331 = B_SPLINE_CURVE_WITH_KNOTS('',7,(#332,#333,#334,#335,#336,#337,
    #338,#339,#340,#341,#342,#343,#344,#345,#346,#347,#348,#349,#350,
    #351,#352,#353,#354,#355,#356,#357),.UNSPECIFIED.,.F.,.F.,(8,6,6,6,8
    ),(0.,0.231670316575,0.500002398503,0.768354826702,1.),
  .UNSPECIFIED.);
#332 = CARTESIAN_POINT('',(4.,-35.75,4.));
#333 = CARTESIAN_POINT('',(4.,-35.75,4.149434186033));
#334 = CARTESIAN_POINT('',(3.993486658588,-35.77084176943,4.296247900838
    ));
#335 = CARTESIAN_POINT('',(3.98087297965,-35.81121026613,4.436926237025)
  );
#336 = CARTESIAN_POINT('',(3.963405416212,-35.8690700904,4.568310219142)
  );
#337 = CARTESIAN_POINT('',(3.942979848375,-35.94166123203,4.687729583496
    ));
#338 = CARTESIAN_POINT('',(3.921663182928,-36.02545402707,4.793220980043
    ));
#339 = CARTESIAN_POINT('',(3.877329389571,-36.22112633565,4.988893288626
    ));
#340 = CARTESIAN_POINT('',(3.854067178353,-36.33760422802,5.076261507103
    ));
#341 = CARTESIAN_POINT('',(3.833362808468,-36.46238537972,5.145901595893
    ));
#342 = CARTESIAN_POINT('',(3.816788793455,-36.59298516478,5.197966386084
    ));
#343 = CARTESIAN_POINT('',(3.80538486391,-36.72732753922,5.232631493813)
  );
#344 = CARTESIAN_POINT('',(3.799671038393,-36.86358426427,5.25));
#345 = CARTESIAN_POINT('',(3.799671038393,-37.13642607944,5.25));
#346 = CARTESIAN_POINT('',(3.805385724457,-37.27268326805,5.232628875056
    ));
#347 = CARTESIAN_POINT('',(3.816789915879,-37.40702064017,5.197962985429
    ));
#348 = CARTESIAN_POINT('',(3.833363086358,-37.53761426154,5.145900218923
    ));
#349 = CARTESIAN_POINT('',(3.854066461798,-37.66239163151,5.076263592877
    ));
#350 = CARTESIAN_POINT('',(3.877328554907,-37.77886998045,4.988896972512
    ));
#351 = CARTESIAN_POINT('',(3.921660116762,-37.97453244004,4.793234512919
    ));
#352 = CARTESIAN_POINT('',(3.942977409798,-38.05833110663,4.687743732369
    ));
#353 = CARTESIAN_POINT('',(3.963406206773,-38.1309340634,4.568312043833)
  );
#354 = CARTESIAN_POINT('',(3.980876446548,-38.18880085194,4.436908702331
    ));
#355 = CARTESIAN_POINT('',(3.993489331545,-38.22916676663,4.296215009908
    ));
#356 = CARTESIAN_POINT('',(4.,-38.25,4.149403581629));
#357 = CARTESIAN_POINT('',(4.,-38.25,4.));
#358 = ORIENTED_EDGE('',*,*,#179,.T.);
#359 = ORIENTED_EDGE('',*,*,#360,.T.);
#360 = EDGE_CURVE('',#149,#141,#361,.T.);
#361 = B_SPLINE_CURVE_WITH_KNOTS('',7,(#362,#363,#364,#365,#366,#367,
    #368,#369,#370,#371,#372,#373,#374,#375,#376,#377,#378,#379,#380,
    #381,#382,#383,#384,#385,#386,#387),.UNSPECIFIED.,.F.,.F.,(8,6,6,6,8
    ),(0.,0.231670318897,0.500002400014,0.768354827402,1.),
  .UNSPECIFIED.);
#362 = CARTESIAN_POINT('',(4.,-40.75,4.));
#363 = CARTESIAN_POINT('',(4.,-40.75,4.149434184034));
#364 = CARTESIAN_POINT('',(3.993486658666,-40.77084176902,4.296247905703
    ));
#365 = CARTESIAN_POINT('',(3.9808729792,-40.81121026814,4.436926233185)
  );
#366 = CARTESIAN_POINT('',(3.963405417088,-40.86907008663,4.568310218465
    ));
#367 = CARTESIAN_POINT('',(3.942979847614,-40.9416612353,4.687729586124)
  );
#368 = CARTESIAN_POINT('',(3.921663183196,-41.02545402589,4.79322097886)
  );
#369 = CARTESIAN_POINT('',(3.877329389571,-41.22112633565,4.988893288626
    ));
#370 = CARTESIAN_POINT('',(3.854067178353,-41.33760422802,5.076261507104
    ));
#371 = CARTESIAN_POINT('',(3.833362808468,-41.46238537972,5.145901595893
    ));
#372 = CARTESIAN_POINT('',(3.816788793455,-41.59298516478,5.197966386084
    ));
#373 = CARTESIAN_POINT('',(3.80538486391,-41.72732753922,5.232631493813)
  );
#374 = CARTESIAN_POINT('',(3.799671038393,-41.86358426427,5.25));
#375 = CARTESIAN_POINT('',(3.799671038393,-42.13642607944,5.25));
#376 = CARTESIAN_POINT('',(3.805385724457,-42.27268326805,5.232628875056
    ));
#377 = CARTESIAN_POINT('',(3.816789915879,-42.40702064017,5.197962985429
    ));
#378 = CARTESIAN_POINT('',(3.833363086358,-42.53761426154,5.145900218924
    ));
#379 = CARTESIAN_POINT('',(3.854066461798,-42.66239163151,5.076263592876
    ));
#380 = CARTESIAN_POINT('',(3.877328554907,-42.77886998045,4.988896972512
    ));
#381 = CARTESIAN_POINT('',(3.921660116762,-42.97453244004,4.793234512919
    ));
#382 = CARTESIAN_POINT('',(3.942977409798,-43.05833110663,4.687743732369
    ));
#383 = CARTESIAN_POINT('',(3.963406206773,-43.1309340634,4.568312043833)
  );
#384 = CARTESIAN_POINT('',(3.980876446548,-43.18880085194,4.436908702331
    ));
#385 = CARTESIAN_POINT('',(3.993489331545,-43.22916676663,4.296215009908
    ));
#386 = CARTESIAN_POINT('',(4.,-43.25,4.149403581629));
#387 = CARTESIAN_POINT('',(4.,-43.25,4.));
#388 = ORIENTED_EDGE('',*,*,#140,.T.);
#389 = ORIENTED_EDGE('',*,*,#390,.T.);
#390 = EDGE_CURVE('',#110,#102,#391,.T.);
#391 = B_SPLINE_CURVE_WITH_KNOTS('',7,(#392,#393,#394,#395,#396,#397,
    #398,#399,#400,#401,#402,#403,#404,#405,#406,#407,#408,#409,#410,
    #411,#412,#413,#414,#415,#416,#417),.UNSPECIFIED.,.F.,.F.,(8,6,6,6,8
    ),(0.,0.231670316575,0.500002398503,0.768354826702,1.),
  .UNSPECIFIED.);
#392 = CARTESIAN_POINT('',(4.,-45.75,4.));
#393 = CARTESIAN_POINT('',(4.,-45.75,4.149434186033));
#394 = CARTESIAN_POINT('',(3.993486658588,-45.77084176943,4.296247900837
    ));
#395 = CARTESIAN_POINT('',(3.98087297965,-45.81121026613,4.436926237025)
  );
#396 = CARTESIAN_POINT('',(3.963405416212,-45.8690700904,4.568310219142)
  );
#397 = CARTESIAN_POINT('',(3.942979848375,-45.94166123203,4.687729583496
    ));
#398 = CARTESIAN_POINT('',(3.921663182928,-46.02545402707,4.793220980043
    ));
#399 = CARTESIAN_POINT('',(3.877329389571,-46.22112633565,4.988893288626
    ));
#400 = CARTESIAN_POINT('',(3.854067178353,-46.33760422802,5.076261507104
    ));
#401 = CARTESIAN_POINT('',(3.833362808468,-46.46238537972,5.145901595893
    ));
#402 = CARTESIAN_POINT('',(3.816788793455,-46.59298516478,5.197966386084
    ));
#403 = CARTESIAN_POINT('',(3.80538486391,-46.72732753922,5.232631493813)
  );
#404 = CARTESIAN_POINT('',(3.799671038393,-46.86358426427,5.25));
#405 = CARTESIAN_POINT('',(3.799671038393,-47.13642607944,5.25));
#406 = CARTESIAN_POINT('',(3.805385724457,-47.27268326805,5.232628875056
    ));
#407 = CARTESIAN_POINT('',(3.816789915879,-47.40702064017,5.197962985429
    ));
#408 = CARTESIAN_POINT('',(3.833363086358,-47.53761426154,5.145900218923
    ));
#409 = CARTESIAN_POINT('',(3.854066461798,-47.66239163151,5.076263592877
    ));
#410 = CARTESIAN_POINT('',(3.877328554907,-47.77886998045,4.988896972512
    ));
#411 = CARTESIAN_POINT('',(3.921660116762,-47.97453244004,4.793234512919
    ));
#412 = CARTESIAN_POINT('',(3.942977409798,-48.05833110663,4.687743732369
    ));
#413 = CARTESIAN_POINT('',(3.963406206773,-48.1309340634,4.568312043833)
  );
#414 = CARTESIAN_POINT('',(3.980876446548,-48.18880085194,4.436908702331
    ));
#415 = CARTESIAN_POINT('',(3.993489331545,-48.22916676663,4.296215009908
    ));
#416 = CARTESIAN_POINT('',(4.,-48.25,4.149403581629));
#417 = CARTESIAN_POINT('',(4.,-48.25,4.));
#418 = ORIENTED_EDGE('',*,*,#101,.T.);
#419 = ORIENTED_EDGE('',*,*,#420,.T.);
#420 = EDGE_CURVE('',#71,#63,#421,.T.);
#421 = B_SPLINE_CURVE_WITH_KNOTS('',7,(#422,#423,#424,#425,#426,#427,
    #428,#429,#430,#431,#432,#433,#434,#435,#436,#437,#438,#439,#440,
    #441,#442,#443,#444,#445,#446,#447),.UNSPECIFIED.,.F.,.F.,(8,6,6,6,8
    ),(0.,0.231670318897,0.500002400014,0.768354827402,1.),
  .UNSPECIFIED.);
#422 = CARTESIAN_POINT('',(4.,-50.75,4.));
#423 = CARTESIAN_POINT('',(4.,-50.75,4.149434184034));
#424 = CARTESIAN_POINT('',(3.993486658666,-50.77084176902,4.296247905703
    ));
#425 = CARTESIAN_POINT('',(3.9808729792,-50.81121026814,4.436926233185)
  );
#426 = CARTESIAN_POINT('',(3.963405417088,-50.86907008663,4.568310218466
    ));
#427 = CARTESIAN_POINT('',(3.942979847614,-50.9416612353,4.687729586123)
  );
#428 = CARTESIAN_POINT('',(3.921663183196,-51.02545402589,4.79322097886)
  );
#429 = CARTESIAN_POINT('',(3.877329389571,-51.22112633565,4.988893288626
    ));
#430 = CARTESIAN_POINT('',(3.854067178353,-51.33760422802,5.076261507103
    ));
#431 = CARTESIAN_POINT('',(3.833362808468,-51.46238537972,5.145901595894
    ));
#432 = CARTESIAN_POINT('',(3.816788793455,-51.59298516478,5.197966386084
    ));
#433 = CARTESIAN_POINT('',(3.80538486391,-51.72732753922,5.232631493813)
  );
#434 = CARTESIAN_POINT('',(3.799671038393,-51.86358426427,5.25));
#435 = CARTESIAN_POINT('',(3.799671038393,-52.13642607944,5.25));
#436 = CARTESIAN_POINT('',(3.805385724457,-52.27268326805,5.232628875056
    ));
#437 = CARTESIAN_POINT('',(3.816789915879,-52.40702064017,5.197962985429
    ));
#438 = CARTESIAN_POINT('',(3.833363086358,-52.53761426154,5.145900218923
    ));
#439 = CARTESIAN_POINT('',(3.854066461798,-52.66239163151,5.076263592877
    ));
#440 = CARTESIAN_POINT('',(3.877328554907,-52.77886998045,4.988896972512
    ));
#441 = CARTESIAN_POINT('',(3.921660116762,-52.97453244004,4.793234512919
    ));
#442 = CARTESIAN_POINT('',(3.942977409798,-53.05833110663,4.687743732369
    ));
#443 = CARTESIAN_POINT('',(3.963406206773,-53.1309340634,4.568312043833)
  );
#444 = CARTESIAN_POINT('',(3.980876446548,-53.18880085194,4.43690870233)
  );
#445 = CARTESIAN_POINT('',(3.993489331545,-53.22916676663,4.296215009908
    ));
#446 = CARTESIAN_POINT('',(4.,-53.25,4.149403581629));
#447 = CARTESIAN_POINT('',(4.,-53.25,4.));
#448 = ORIENTED_EDGE('',*,*,#62,.T.);
#449 = ORIENTED_EDGE('',*,*,#450,.T.);
#450 = EDGE_CURVE('',#32,#22,#451,.T.);
#451 = B_SPLINE_CURVE_WITH_KNOTS('',7,(#452,#453,#454,#455,#456,#457,
    #458,#459,#460,#461,#462,#463,#464,#465,#466,#467,#468,#469,#470,
    #471,#472,#473,#474,#475,#476,#477),.UNSPECIFIED.,.F.,.F.,(8,6,6,6,8
    ),(0.,0.231670316575,0.500002398503,0.768354826702,1.),
  .UNSPECIFIED.);
#452 = CARTESIAN_POINT('',(4.,-55.75,4.));
#453 = CARTESIAN_POINT('',(4.,-55.75,4.149434186033));
#454 = CARTESIAN_POINT('',(3.993486658588,-55.77084176943,4.296247900837
    ));
#455 = CARTESIAN_POINT('',(3.98087297965,-55.81121026613,4.436926237025)
  );
#456 = CARTESIAN_POINT('',(3.963405416212,-55.8690700904,4.568310219142)
  );
#457 = CARTESIAN_POINT('',(3.942979848375,-55.94166123203,4.687729583496
    ));
#458 = CARTESIAN_POINT('',(3.921663182928,-56.02545402707,4.793220980043
    ));
#459 = CARTESIAN_POINT('',(3.877329389571,-56.22112633565,4.988893288626
    ));
#460 = CARTESIAN_POINT('',(3.854067178353,-56.33760422802,5.076261507103
    ));
#461 = CARTESIAN_POINT('',(3.833362808468,-56.46238537972,5.145901595893
    ));
#462 = CARTESIAN_POINT('',(3.816788793455,-56.59298516478,5.197966386084
    ));
#463 = CARTESIAN_POINT('',(3.80538486391,-56.72732753922,5.232631493813)
  );
#464 = CARTESIAN_POINT('',(3.799671038393,-56.86358426427,5.25));
#465 = CARTESIAN_POINT('',(3.799671038393,-57.13642607944,5.25));
#466 = CARTESIAN_POINT('',(3.805385724457,-57.27268326805,5.232628875056
    ));
#467 = CARTESIAN_POINT('',(3.816789915879,-57.40702064017,5.197962985429
    ));
#468 = CARTESIAN_POINT('',(3.833363086358,-57.53761426154,5.145900218923
    ));
#469 = CARTESIAN_POINT('',(3.854066461798,-57.66239163151,5.076263592877
    ));
#470 = CARTESIAN_POINT('',(3.877328554907,-57.77886998045,4.988896972512
    ));
#471 = CARTESIAN_POINT('',(3.921660116762,-57.97453244004,4.793234512919
    ));
#472 = CARTESIAN_POINT('',(3.942977409798,-58.05833110663,4.687743732369
    ));
#473 = CARTESIAN_POINT('',(3.963406206773,-58.1309340634,4.568312043833)
  );
#474 = CARTESIAN_POINT('',(3.980876446548,-58.18880085194,4.436908702331
    ));
#475 = CARTESIAN_POINT('',(3.993489331545,-58.22916676663,4.296215009908
    ));
#476 = CARTESIAN_POINT('',(4.,-58.25,4.149403581629));
#477 = CARTESIAN_POINT('',(4.,-58.25,4.));
#478 = ORIENTED_EDGE('',*,*,#21,.T.);
#479 = ORIENTED_EDGE('',*,*,#480,.T.);
#480 = EDGE_CURVE('',#24,#24,#481,.T.);
#481 = CIRCLE('',#482,4.);
#482 = AXIS2_PLACEMENT_3D('',#483,#484,#485);
#483 = CARTESIAN_POINT('',(0.,-62.,4.));
#484 = DIRECTION('',(0.,-1.,2.6E-16));
#485 = DIRECTION('',(1.,-1.092E-31,-4.2E-16));
#486 = FACE_BOUND('',#487,.F.);
#487 = EDGE_LOOP('',(#488));
#488 = ORIENTED_EDGE('',*,*,#489,.F.);
#489 = EDGE_CURVE('',#490,#490,#492,.T.);
#490 = VERTEX_POINT('',#491);
#491 = CARTESIAN_POINT('',(-4.,-55.75,4.));
#492 = B_SPLINE_CURVE_WITH_KNOTS('',7,(#493,#494,#495,#496,#497,#498,
    #499,#500,#501,#502,#503,#504,#505,#506,#507,#508,#509,#510,#511,
    #512,#513,#514,#515,#516,#517,#518,#519,#520,#521,#522,#523,#524,
    #525,#526,#527,#528,#529,#530,#531,#532,#533,#534,#535,#536,#537,
    #538,#539,#540,#541,#542),.UNSPECIFIED.,.T.,.F.,(8,6,6,6,6,6,6,6,8),
  (0.,0.115832405739,0.249995258564,0.384168284282,0.499988118681,
    0.61583167651,0.750008597194,0.884186943397,1.),.UNSPECIFIED.);
#493 = CARTESIAN_POINT('',(-4.,-55.75,4.));
#494 = CARTESIAN_POINT('',(-4.,-55.75,4.149434186033));
#495 = CARTESIAN_POINT('',(-3.993486658588,-55.77084176943,
    4.296247900837));
#496 = CARTESIAN_POINT('',(-3.98087297965,-55.81121026613,4.436926237025
    ));
#497 = CARTESIAN_POINT('',(-3.963405416212,-55.8690700904,4.568310219142
    ));
#498 = CARTESIAN_POINT('',(-3.942979848375,-55.94166123202,
    4.687729583496));
#499 = CARTESIAN_POINT('',(-3.921663182928,-56.02545402707,
    4.793220980043));
#500 = CARTESIAN_POINT('',(-3.877329389571,-56.22112633565,
    4.988893288626));
#501 = CARTESIAN_POINT('',(-3.854067178353,-56.33760422802,
    5.076261507103));
#502 = CARTESIAN_POINT('',(-3.833362808468,-56.46238537972,
    5.145901595893));
#503 = CARTESIAN_POINT('',(-3.816788793455,-56.59298516478,
    5.197966386084));
#504 = CARTESIAN_POINT('',(-3.80538486391,-56.72732753922,5.232631493813
    ));
#505 = CARTESIAN_POINT('',(-3.799671038393,-56.86358426427,5.25));
#506 = CARTESIAN_POINT('',(-3.799671038393,-57.13642607944,5.25));
#507 = CARTESIAN_POINT('',(-3.805385724457,-57.27268326805,
    5.232628875056));
#508 = CARTESIAN_POINT('',(-3.816789915879,-57.40702064017,
    5.197962985429));
#509 = CARTESIAN_POINT('',(-3.833363086358,-57.53761426154,
    5.145900218923));
#510 = CARTESIAN_POINT('',(-3.854066461798,-57.66239163151,
    5.076263592877));
#511 = CARTESIAN_POINT('',(-3.877328554907,-57.77886998045,
    4.988896972512));
#512 = CARTESIAN_POINT('',(-3.921660116762,-57.97453244004,
    4.793234512919));
#513 = CARTESIAN_POINT('',(-3.942977409798,-58.05833110663,
    4.687743732369));
#514 = CARTESIAN_POINT('',(-3.963406206773,-58.1309340634,4.568312043833
    ));
#515 = CARTESIAN_POINT('',(-3.980876446548,-58.18880085194,
    4.436908702331));
#516 = CARTESIAN_POINT('',(-3.993489331545,-58.22916676663,
    4.296215009908));
#517 = CARTESIAN_POINT('',(-4.,-58.25,4.149403581629));
#518 = CARTESIAN_POINT('',(-4.,-58.25,3.850565815966));
#519 = CARTESIAN_POINT('',(-3.993486658666,-58.22915823097,
    3.703752094296));
#520 = CARTESIAN_POINT('',(-3.9808729792,-58.18878973185,3.563073766816)
  );
#521 = CARTESIAN_POINT('',(-3.963405417088,-58.13092991336,
    3.431689781534));
#522 = CARTESIAN_POINT('',(-3.942979847614,-58.05833876469,
    3.312270413877));
#523 = CARTESIAN_POINT('',(-3.921663183196,-57.9745459741,3.20677902114)
  );
#524 = CARTESIAN_POINT('',(-3.877329185172,-57.7788727622,3.011105809236
    ));
#525 = CARTESIAN_POINT('',(-3.854066709161,-57.66239345397,2.9237366869)
  );
#526 = CARTESIAN_POINT('',(-3.833362616422,-57.53761279574,
    2.854098265581));
#527 = CARTESIAN_POINT('',(-3.816789456561,-57.40701691205,
    2.802035624124));
#528 = CARTESIAN_POINT('',(-3.805385605024,-57.27267976802,
    2.767370760813));
#529 = CARTESIAN_POINT('',(-3.799671038393,-57.13642463004,2.75));
#530 = CARTESIAN_POINT('',(-3.799671038393,-56.86357392055,2.75));
#531 = CARTESIAN_POINT('',(-3.805385724457,-56.72731673194,
    2.767371124944));
#532 = CARTESIAN_POINT('',(-3.816789915879,-56.59297935982,
    2.802037014572));
#533 = CARTESIAN_POINT('',(-3.833363086358,-56.46238573846,
    2.854099781076));
#534 = CARTESIAN_POINT('',(-3.854066461798,-56.33760836848,
    2.923736407124));
#535 = CARTESIAN_POINT('',(-3.877328554907,-56.22113001954,
    3.011103027488));
#536 = CARTESIAN_POINT('',(-3.921658100495,-56.02547645897,
    3.206756588056));
#537 = CARTESIAN_POINT('',(-3.942976741945,-55.94166982609,
    3.312251075983));
#538 = CARTESIAN_POINT('',(-3.963407952075,-55.86905942113,
    3.431694059255));
#539 = CARTESIAN_POINT('',(-3.980878977544,-55.811191118,3.563108450997)
  );
#540 = CARTESIAN_POINT('',(-3.993490753568,-55.77082865092,
    3.703806747176));
#541 = CARTESIAN_POINT('',(-4.,-55.75,3.85061284233));
#542 = CARTESIAN_POINT('',(-4.,-55.75,4.));
#543 = FACE_BOUND('',#544,.F.);
#544 = EDGE_LOOP('',(#545));
#545 = ORIENTED_EDGE('',*,*,#546,.F.);
#546 = EDGE_CURVE('',#547,#547,#549,.T.);
#547 = VERTEX_POINT('',#548);
#548 = CARTESIAN_POINT('',(-4.,-50.75,4.));
#549 = B_SPLINE_CURVE_WITH_KNOTS('',7,(#550,#551,#552,#553,#554,#555,
    #556,#557,#558,#559,#560,#561,#562,#563,#564,#565,#566,#567,#568,
    #569,#570,#571,#572,#573,#574,#575,#576,#577,#578,#579,#580,#581,
    #582,#583,#584,#585,#586,#587,#588,#589,#590,#591,#592,#593,#594,
    #595,#596,#597,#598,#599),.UNSPECIFIED.,.T.,.F.,(8,6,6,6,6,6,6,6,8),
  (0.,0.115832408048,0.249995261797,0.384168286791,0.499988120511,
    0.615831679001,0.750008600449,0.884186945769,1.),.UNSPECIFIED.);
#550 = CARTESIAN_POINT('',(-4.,-50.75,4.));
#551 = CARTESIAN_POINT('',(-4.,-50.75,4.149434184034));
#552 = CARTESIAN_POINT('',(-3.993486658666,-50.77084176902,
    4.296247905703));
#553 = CARTESIAN_POINT('',(-3.9808729792,-50.81121026814,4.436926233185)
  );
#554 = CARTESIAN_POINT('',(-3.963405417088,-50.86907008663,
    4.568310218465));
#555 = CARTESIAN_POINT('',(-3.942979847614,-50.9416612353,4.687729586124
    ));
#556 = CARTESIAN_POINT('',(-3.921663183196,-51.02545402589,4.79322097886
    ));
#557 = CARTESIAN_POINT('',(-3.877329389571,-51.22112633565,
    4.988893288626));
#558 = CARTESIAN_POINT('',(-3.854067178353,-51.33760422802,
    5.076261507103));
#559 = CARTESIAN_POINT('',(-3.833362808468,-51.46238537972,
    5.145901595893));
#560 = CARTESIAN_POINT('',(-3.816788793455,-51.59298516478,
    5.197966386084));
#561 = CARTESIAN_POINT('',(-3.80538486391,-51.72732753922,5.232631493813
    ));
#562 = CARTESIAN_POINT('',(-3.799671038393,-51.86358426427,5.25));
#563 = CARTESIAN_POINT('',(-3.799671038393,-52.13642607776,5.25));
#564 = CARTESIAN_POINT('',(-3.805385724382,-52.2726832723,5.232628875496
    ));
#565 = CARTESIAN_POINT('',(-3.816789916332,-52.40702063685,
    5.197962983277));
#566 = CARTESIAN_POINT('',(-3.833363085424,-52.53761426039,
    5.145900223062));
#567 = CARTESIAN_POINT('',(-3.854066462667,-52.66239163467,
    5.076263589096));
#568 = CARTESIAN_POINT('',(-3.877328554577,-52.77886997899,4.98889697397
    ));
#569 = CARTESIAN_POINT('',(-3.921660117038,-52.97453244126,
    4.793234511702));
#570 = CARTESIAN_POINT('',(-3.94297740903,-53.05833110331,4.687743735026
    ));
#571 = CARTESIAN_POINT('',(-3.96340620763,-53.13093406712,4.568312043216
    ));
#572 = CARTESIAN_POINT('',(-3.980876446135,-53.18880085005,
    4.436908698493));
#573 = CARTESIAN_POINT('',(-3.993489331605,-53.22916676697,
    4.296215014518));
#574 = CARTESIAN_POINT('',(-4.,-53.25,4.149403579902));
#575 = CARTESIAN_POINT('',(-4.,-53.25,3.850565815966));
#576 = CARTESIAN_POINT('',(-3.993486658666,-53.22915823097,
    3.703752094297));
#577 = CARTESIAN_POINT('',(-3.9808729792,-53.18878973185,3.563073766815)
  );
#578 = CARTESIAN_POINT('',(-3.963405417088,-53.13092991336,
    3.431689781535));
#579 = CARTESIAN_POINT('',(-3.942979847614,-53.05833876469,
    3.312270413876));
#580 = CARTESIAN_POINT('',(-3.921663183196,-52.9745459741,3.20677902114)
  );
#581 = CARTESIAN_POINT('',(-3.877329185172,-52.7788727622,3.011105809236
    ));
#582 = CARTESIAN_POINT('',(-3.854066709161,-52.66239345397,2.9237366869)
  );
#583 = CARTESIAN_POINT('',(-3.833362616422,-52.53761279574,
    2.854098265581));
#584 = CARTESIAN_POINT('',(-3.816789456561,-52.40701691205,
    2.802035624124));
#585 = CARTESIAN_POINT('',(-3.805385605024,-52.27267976802,
    2.767370760813));
#586 = CARTESIAN_POINT('',(-3.799671038393,-52.13642463004,2.75));
#587 = CARTESIAN_POINT('',(-3.799671038393,-51.86357392223,2.75));
#588 = CARTESIAN_POINT('',(-3.805385724382,-51.7273167277,2.767371124504
    ));
#589 = CARTESIAN_POINT('',(-3.816789916332,-51.59297936314,
    2.802037016723));
#590 = CARTESIAN_POINT('',(-3.833363085424,-51.46238573961,
    2.854099776938));
#591 = CARTESIAN_POINT('',(-3.854066462667,-51.33760836532,
    2.923736410904));
#592 = CARTESIAN_POINT('',(-3.877328554577,-51.221130021,3.01110302603)
  );
#593 = CARTESIAN_POINT('',(-3.921658100495,-51.02547645897,
    3.206756588056));
#594 = CARTESIAN_POINT('',(-3.942976741945,-50.94166982609,
    3.312251075984));
#595 = CARTESIAN_POINT('',(-3.963407952075,-50.86905942113,
    3.431694059255));
#596 = CARTESIAN_POINT('',(-3.980878977544,-50.811191118,3.563108450998)
  );
#597 = CARTESIAN_POINT('',(-3.993490753568,-50.77082865092,
    3.703806747176));
#598 = CARTESIAN_POINT('',(-4.,-50.75,3.85061284233));
#599 = CARTESIAN_POINT('',(-4.,-50.75,4.));
#600 = FACE_BOUND('',#601,.F.);
#601 = EDGE_LOOP('',(#602));
#602 = ORIENTED_EDGE('',*,*,#603,.F.);
#603 = EDGE_CURVE('',#604,#604,#606,.T.);
#604 = VERTEX_POINT('',#605);
#605 = CARTESIAN_POINT('',(-4.,-45.75,4.));
#606 = B_SPLINE_CURVE_WITH_KNOTS('',7,(#607,#608,#609,#610,#611,#612,
    #613,#614,#615,#616,#617,#618,#619,#620,#621,#622,#623,#624,#625,
    #626,#627,#628,#629,#630,#631,#632,#633,#634,#635,#636,#637,#638,
    #639,#640,#641,#642,#643,#644,#645,#646,#647,#648,#649,#650,#651,
    #652,#653,#654,#655,#656),.UNSPECIFIED.,.T.,.F.,(8,6,6,6,6,6,6,6,8),
  (0.,0.115832405447,0.249995256185,0.384168279816,0.499988113967,
    0.615831672889,0.750008594837,0.884186942305,1.),.UNSPECIFIED.);
#607 = CARTESIAN_POINT('',(-4.,-45.75,4.));
#608 = CARTESIAN_POINT('',(-4.,-45.75,4.149434184034));
#609 = CARTESIAN_POINT('',(-3.993486658666,-45.77084176902,
    4.296247905703));
#610 = CARTESIAN_POINT('',(-3.9808729792,-45.81121026814,4.436926233185)
  );
#611 = CARTESIAN_POINT('',(-3.963405417088,-45.86907008663,
    4.568310218466));
#612 = CARTESIAN_POINT('',(-3.942979847614,-45.9416612353,4.687729586123
    ));
#613 = CARTESIAN_POINT('',(-3.921663183196,-46.02545402589,4.79322097886
    ));
#614 = CARTESIAN_POINT('',(-3.877329389571,-46.22112633565,
    4.988893288626));
#615 = CARTESIAN_POINT('',(-3.854067178353,-46.33760422802,
    5.076261507103));
#616 = CARTESIAN_POINT('',(-3.833362808468,-46.46238537972,
    5.145901595893));
#617 = CARTESIAN_POINT('',(-3.816788793455,-46.59298516478,
    5.197966386084));
#618 = CARTESIAN_POINT('',(-3.80538486391,-46.72732753922,5.232631493813
    ));
#619 = CARTESIAN_POINT('',(-3.799671038393,-46.86358426427,5.25));
#620 = CARTESIAN_POINT('',(-3.799671038393,-47.13642607944,5.25));
#621 = CARTESIAN_POINT('',(-3.805385724457,-47.27268326805,
    5.232628875056));
#622 = CARTESIAN_POINT('',(-3.816789915879,-47.40702064017,
    5.197962985429));
#623 = CARTESIAN_POINT('',(-3.833363086358,-47.53761426154,
    5.145900218923));
#624 = CARTESIAN_POINT('',(-3.854066461798,-47.66239163151,
    5.076263592877));
#625 = CARTESIAN_POINT('',(-3.877328554907,-47.77886998045,
    4.988896972512));
#626 = CARTESIAN_POINT('',(-3.921660117038,-47.97453244126,
    4.793234511702));
#627 = CARTESIAN_POINT('',(-3.94297740903,-48.05833110331,4.687743735026
    ));
#628 = CARTESIAN_POINT('',(-3.96340620763,-48.13093406712,4.568312043216
    ));
#629 = CARTESIAN_POINT('',(-3.980876446135,-48.18880085005,
    4.436908698493));
#630 = CARTESIAN_POINT('',(-3.993489331605,-48.22916676697,
    4.296215014518));
#631 = CARTESIAN_POINT('',(-4.,-48.25,4.149403579902));
#632 = CARTESIAN_POINT('',(-4.,-48.25,3.850565815966));
#633 = CARTESIAN_POINT('',(-3.993486658666,-48.22915823097,
    3.703752094297));
#634 = CARTESIAN_POINT('',(-3.9808729792,-48.18878973185,3.563073766814)
  );
#635 = CARTESIAN_POINT('',(-3.963405417088,-48.13092991336,
    3.431689781535));
#636 = CARTESIAN_POINT('',(-3.942979847613,-48.05833876469,
    3.312270413876));
#637 = CARTESIAN_POINT('',(-3.921663183196,-47.9745459741,3.20677902114)
  );
#638 = CARTESIAN_POINT('',(-3.877329185172,-47.7788727622,3.011105809236
    ));
#639 = CARTESIAN_POINT('',(-3.854066709161,-47.66239345397,2.9237366869)
  );
#640 = CARTESIAN_POINT('',(-3.833362616422,-47.53761279574,
    2.854098265581));
#641 = CARTESIAN_POINT('',(-3.816789456561,-47.40701691205,
    2.802035624124));
#642 = CARTESIAN_POINT('',(-3.805385605024,-47.27267976802,
    2.767370760813));
#643 = CARTESIAN_POINT('',(-3.799671038393,-47.13642463004,2.75));
#644 = CARTESIAN_POINT('',(-3.799671038393,-46.86357392055,2.75));
#645 = CARTESIAN_POINT('',(-3.805385724457,-46.72731673194,
    2.767371124944));
#646 = CARTESIAN_POINT('',(-3.816789915879,-46.59297935982,
    2.802037014571));
#647 = CARTESIAN_POINT('',(-3.833363086358,-46.46238573846,
    2.854099781076));
#648 = CARTESIAN_POINT('',(-3.854066461798,-46.33760836849,
    2.923736407124));
#649 = CARTESIAN_POINT('',(-3.877328554907,-46.22113001954,
    3.011103027488));
#650 = CARTESIAN_POINT('',(-3.921658100495,-46.02547645897,
    3.206756588056));
#651 = CARTESIAN_POINT('',(-3.942976741944,-45.9416698261,3.312251075983
    ));
#652 = CARTESIAN_POINT('',(-3.963407952075,-45.86905942113,
    3.431694059257));
#653 = CARTESIAN_POINT('',(-3.980878977544,-45.811191118,3.563108450996)
  );
#654 = CARTESIAN_POINT('',(-3.993490753568,-45.77082865092,
    3.703806747177));
#655 = CARTESIAN_POINT('',(-4.,-45.75,3.85061284233));
#656 = CARTESIAN_POINT('',(-4.,-45.75,4.));
#657 = FACE_BOUND('',#658,.F.);
#658 = EDGE_LOOP('',(#659));
#659 = ORIENTED_EDGE('',*,*,#660,.F.);
#660 = EDGE_CURVE('',#661,#661,#663,.T.);
#661 = VERTEX_POINT('',#662);
#662 = CARTESIAN_POINT('',(-4.,-40.75,4.));
#663 = B_SPLINE_CURVE_WITH_KNOTS('',7,(#664,#665,#666,#667,#668,#669,
    #670,#671,#672,#673,#674,#675,#676,#677,#678,#679,#680,#681,#682,
    #683,#684,#685,#686,#687,#688,#689,#690,#691,#692,#693,#694,#695,
    #696,#697,#698,#699,#700,#701,#702,#703,#704,#705,#706,#707,#708,
    #709,#710,#711,#712,#713),.UNSPECIFIED.,.T.,.F.,(8,6,6,6,6,6,6,6,8),
  (0.,0.115832407075,0.249995259697,0.384168285213,0.499988119437,
    0.615831677091,0.750008597572,0.884186943572,1.),.UNSPECIFIED.);
#664 = CARTESIAN_POINT('',(-4.,-40.75,4.));
#665 = CARTESIAN_POINT('',(-4.,-40.75,4.149434184034));
#666 = CARTESIAN_POINT('',(-3.993486658666,-40.77084176902,
    4.296247905703));
#667 = CARTESIAN_POINT('',(-3.9808729792,-40.81121026814,4.436926233185)
  );
#668 = CARTESIAN_POINT('',(-3.963405417088,-40.86907008663,
    4.568310218465));
#669 = CARTESIAN_POINT('',(-3.942979847614,-40.9416612353,4.687729586124
    ));
#670 = CARTESIAN_POINT('',(-3.921663183196,-41.02545402589,4.79322097886
    ));
#671 = CARTESIAN_POINT('',(-3.877329389571,-41.22112633565,
    4.988893288626));
#672 = CARTESIAN_POINT('',(-3.854067178353,-41.33760422802,
    5.076261507103));
#673 = CARTESIAN_POINT('',(-3.833362808468,-41.46238537972,
    5.145901595893));
#674 = CARTESIAN_POINT('',(-3.816788793455,-41.59298516478,
    5.197966386084));
#675 = CARTESIAN_POINT('',(-3.80538486391,-41.72732753922,5.232631493813
    ));
#676 = CARTESIAN_POINT('',(-3.799671038393,-41.86358426427,5.25));
#677 = CARTESIAN_POINT('',(-3.799671038393,-42.13642607944,5.25));
#678 = CARTESIAN_POINT('',(-3.805385724457,-42.27268326805,
    5.232628875056));
#679 = CARTESIAN_POINT('',(-3.816789915879,-42.40702064017,
    5.197962985429));
#680 = CARTESIAN_POINT('',(-3.833363086358,-42.53761426154,
    5.145900218923));
#681 = CARTESIAN_POINT('',(-3.854066461798,-42.66239163151,
    5.076263592877));
#682 = CARTESIAN_POINT('',(-3.877328554907,-42.77886998045,
    4.988896972511));
#683 = CARTESIAN_POINT('',(-3.921660116762,-42.97453244004,
    4.793234512919));
#684 = CARTESIAN_POINT('',(-3.942977409798,-43.05833110663,
    4.687743732369));
#685 = CARTESIAN_POINT('',(-3.963406206773,-43.1309340634,4.568312043833
    ));
#686 = CARTESIAN_POINT('',(-3.980876446548,-43.18880085194,
    4.436908702331));
#687 = CARTESIAN_POINT('',(-3.993489331545,-43.22916676663,
    4.296215009908));
#688 = CARTESIAN_POINT('',(-4.,-43.25,4.149403581629));
#689 = CARTESIAN_POINT('',(-4.,-43.25,3.850565815966));
#690 = CARTESIAN_POINT('',(-3.993486658666,-43.22915823097,
    3.703752094297));
#691 = CARTESIAN_POINT('',(-3.9808729792,-43.18878973185,3.563073766815)
  );
#692 = CARTESIAN_POINT('',(-3.963405417088,-43.13092991336,
    3.431689781535));
#693 = CARTESIAN_POINT('',(-3.942979847614,-43.05833876469,
    3.312270413876));
#694 = CARTESIAN_POINT('',(-3.921663183196,-42.9745459741,3.20677902114)
  );
#695 = CARTESIAN_POINT('',(-3.877329185172,-42.7788727622,3.011105809236
    ));
#696 = CARTESIAN_POINT('',(-3.854066709161,-42.66239345397,2.9237366869)
  );
#697 = CARTESIAN_POINT('',(-3.833362616422,-42.53761279574,
    2.854098265581));
#698 = CARTESIAN_POINT('',(-3.816789456561,-42.40701691205,
    2.802035624124));
#699 = CARTESIAN_POINT('',(-3.805385605024,-42.27267976802,
    2.767370760813));
#700 = CARTESIAN_POINT('',(-3.799671038393,-42.13642463004,2.75));
#701 = CARTESIAN_POINT('',(-3.799671038393,-41.86357392055,2.75));
#702 = CARTESIAN_POINT('',(-3.805385724457,-41.72731673194,
    2.767371124944));
#703 = CARTESIAN_POINT('',(-3.816789915879,-41.59297935982,
    2.802037014571));
#704 = CARTESIAN_POINT('',(-3.833363086358,-41.46238573846,
    2.854099781076));
#705 = CARTESIAN_POINT('',(-3.854066461798,-41.33760836848,
    2.923736407124));
#706 = CARTESIAN_POINT('',(-3.877328554907,-41.22113001954,
    3.011103027488));
#707 = CARTESIAN_POINT('',(-3.921658100495,-41.02547645897,
    3.206756588056));
#708 = CARTESIAN_POINT('',(-3.942976741944,-40.9416698261,3.312251075983
    ));
#709 = CARTESIAN_POINT('',(-3.963407952075,-40.86905942113,
    3.431694059257));
#710 = CARTESIAN_POINT('',(-3.980878977544,-40.811191118,3.563108450996)
  );
#711 = CARTESIAN_POINT('',(-3.993490753568,-40.77082865092,
    3.703806747177));
#712 = CARTESIAN_POINT('',(-4.,-40.75,3.85061284233));
#713 = CARTESIAN_POINT('',(-4.,-40.75,4.));
#714 = FACE_BOUND('',#715,.F.);
#715 = EDGE_LOOP('',(#716));
#716 = ORIENTED_EDGE('',*,*,#717,.F.);
#717 = EDGE_CURVE('',#718,#718,#720,.T.);
#718 = VERTEX_POINT('',#719);
#719 = CARTESIAN_POINT('',(-4.,-35.75,4.));
#720 = B_SPLINE_CURVE_WITH_KNOTS('',7,(#721,#722,#723,#724,#725,#726,
    #727,#728,#729,#730,#731,#732,#733,#734,#735,#736,#737,#738,#739,
    #740,#741,#742,#743,#744,#745,#746,#747,#748,#749,#750,#751,#752,
    #753,#754,#755,#756,#757,#758,#759,#760,#761,#762,#763,#764,#765,
    #766,#767,#768,#769,#770),.UNSPECIFIED.,.T.,.F.,(8,6,6,6,6,6,6,6,8),
  (0.,0.115832407075,0.249995259697,0.384168285213,0.499988119437,
    0.615831677091,0.750008597572,0.884186943572,1.),.UNSPECIFIED.);
#721 = CARTESIAN_POINT('',(-4.,-35.75,4.));
#722 = CARTESIAN_POINT('',(-4.,-35.75,4.149434184034));
#723 = CARTESIAN_POINT('',(-3.993486658666,-35.77084176902,
    4.296247905703));
#724 = CARTESIAN_POINT('',(-3.9808729792,-35.81121026814,4.436926233185)
  );
#725 = CARTESIAN_POINT('',(-3.963405417088,-35.86907008663,
    4.568310218465));
#726 = CARTESIAN_POINT('',(-3.942979847614,-35.9416612353,4.687729586124
    ));
#727 = CARTESIAN_POINT('',(-3.921663183196,-36.02545402589,4.79322097886
    ));
#728 = CARTESIAN_POINT('',(-3.877329389571,-36.22112633565,
    4.988893288626));
#729 = CARTESIAN_POINT('',(-3.854067178353,-36.33760422802,
    5.076261507103));
#730 = CARTESIAN_POINT('',(-3.833362808468,-36.46238537972,
    5.145901595893));
#731 = CARTESIAN_POINT('',(-3.816788793455,-36.59298516478,
    5.197966386084));
#732 = CARTESIAN_POINT('',(-3.80538486391,-36.72732753922,5.232631493813
    ));
#733 = CARTESIAN_POINT('',(-3.799671038393,-36.86358426427,5.25));
#734 = CARTESIAN_POINT('',(-3.799671038393,-37.13642607944,5.25));
#735 = CARTESIAN_POINT('',(-3.805385724457,-37.27268326805,
    5.232628875056));
#736 = CARTESIAN_POINT('',(-3.816789915879,-37.40702064017,
    5.197962985429));
#737 = CARTESIAN_POINT('',(-3.833363086358,-37.53761426154,
    5.145900218924));
#738 = CARTESIAN_POINT('',(-3.854066461798,-37.66239163151,
    5.076263592877));
#739 = CARTESIAN_POINT('',(-3.877328554907,-37.77886998045,
    4.988896972512));
#740 = CARTESIAN_POINT('',(-3.921660116762,-37.97453244004,
    4.793234512919));
#741 = CARTESIAN_POINT('',(-3.942977409798,-38.05833110663,
    4.687743732368));
#742 = CARTESIAN_POINT('',(-3.963406206773,-38.1309340634,4.568312043834
    ));
#743 = CARTESIAN_POINT('',(-3.980876446548,-38.18880085194,4.43690870233
    ));
#744 = CARTESIAN_POINT('',(-3.993489331545,-38.22916676663,
    4.296215009908));
#745 = CARTESIAN_POINT('',(-4.,-38.25,4.149403581629));
#746 = CARTESIAN_POINT('',(-4.,-38.25,3.850565815966));
#747 = CARTESIAN_POINT('',(-3.993486658666,-38.22915823097,
    3.703752094297));
#748 = CARTESIAN_POINT('',(-3.9808729792,-38.18878973185,3.563073766816)
  );
#749 = CARTESIAN_POINT('',(-3.963405417088,-38.13092991336,
    3.431689781534));
#750 = CARTESIAN_POINT('',(-3.942979847614,-38.05833876469,
    3.312270413877));
#751 = CARTESIAN_POINT('',(-3.921663183196,-37.9745459741,3.20677902114)
  );
#752 = CARTESIAN_POINT('',(-3.877329185172,-37.7788727622,3.011105809236
    ));
#753 = CARTESIAN_POINT('',(-3.854066709161,-37.66239345397,2.9237366869)
  );
#754 = CARTESIAN_POINT('',(-3.833362616422,-37.53761279574,
    2.854098265581));
#755 = CARTESIAN_POINT('',(-3.816789456561,-37.40701691205,
    2.802035624124));
#756 = CARTESIAN_POINT('',(-3.805385605024,-37.27267976802,
    2.767370760813));
#757 = CARTESIAN_POINT('',(-3.799671038393,-37.13642463004,2.75));
#758 = CARTESIAN_POINT('',(-3.799671038393,-36.86357392055,2.75));
#759 = CARTESIAN_POINT('',(-3.805385724457,-36.72731673194,
    2.767371124944));
#760 = CARTESIAN_POINT('',(-3.816789915879,-36.59297935982,
    2.802037014571));
#761 = CARTESIAN_POINT('',(-3.833363086358,-36.46238573846,
    2.854099781077));
#762 = CARTESIAN_POINT('',(-3.854066461798,-36.33760836849,
    2.923736407123));
#763 = CARTESIAN_POINT('',(-3.877328554907,-36.22113001954,
    3.011103027488));
#764 = CARTESIAN_POINT('',(-3.921658100495,-36.02547645897,
    3.206756588056));
#765 = CARTESIAN_POINT('',(-3.942976741945,-35.94166982609,
    3.312251075983));
#766 = CARTESIAN_POINT('',(-3.963407952075,-35.86905942113,
    3.431694059256));
#767 = CARTESIAN_POINT('',(-3.980878977544,-35.811191118,3.563108450997)
  );
#768 = CARTESIAN_POINT('',(-3.993490753568,-35.77082865092,
    3.703806747176));
#769 = CARTESIAN_POINT('',(-4.,-35.75,3.85061284233));
#770 = CARTESIAN_POINT('',(-4.,-35.75,4.));
#771 = FACE_BOUND('',#772,.F.);
#772 = EDGE_LOOP('',(#773));
#773 = ORIENTED_EDGE('',*,*,#774,.F.);
#774 = EDGE_CURVE('',#775,#775,#777,.T.);
#775 = VERTEX_POINT('',#776);
#776 = CARTESIAN_POINT('',(-4.,-30.75,4.));
#777 = B_SPLINE_CURVE_WITH_KNOTS('',7,(#778,#779,#780,#781,#782,#783,
    #784,#785,#786,#787,#788,#789,#790,#791,#792,#793,#794,#795,#796,
    #797,#798,#799,#800,#801,#802,#803,#804,#805,#806,#807,#808,#809,
    #810,#811,#812,#813,#814,#815,#816,#817,#818,#819,#820,#821,#822,
    #823,#824,#825,#826,#827),.UNSPECIFIED.,.T.,.F.,(8,6,6,6,6,6,6,6,8),
  (0.,0.115832407075,0.249995259697,0.384168285213,0.499988119436,
    0.615831677091,0.750008597572,0.884186943572,1.),.UNSPECIFIED.);
#778 = CARTESIAN_POINT('',(-4.,-30.75,4.));
#779 = CARTESIAN_POINT('',(-4.,-30.75,4.149434184034));
#780 = CARTESIAN_POINT('',(-3.993486658666,-30.77084176902,
    4.296247905703));
#781 = CARTESIAN_POINT('',(-3.9808729792,-30.81121026814,4.436926233185)
  );
#782 = CARTESIAN_POINT('',(-3.963405417088,-30.86907008663,
    4.568310218465));
#783 = CARTESIAN_POINT('',(-3.942979847614,-30.9416612353,4.687729586124
    ));
#784 = CARTESIAN_POINT('',(-3.921663183196,-31.02545402589,4.79322097886
    ));
#785 = CARTESIAN_POINT('',(-3.877329389571,-31.22112633565,
    4.988893288626));
#786 = CARTESIAN_POINT('',(-3.854067178353,-31.33760422802,
    5.076261507104));
#787 = CARTESIAN_POINT('',(-3.833362808468,-31.46238537972,
    5.145901595893));
#788 = CARTESIAN_POINT('',(-3.816788793455,-31.59298516478,
    5.197966386084));
#789 = CARTESIAN_POINT('',(-3.80538486391,-31.72732753922,5.232631493813
    ));
#790 = CARTESIAN_POINT('',(-3.799671038393,-31.86358426427,5.25));
#791 = CARTESIAN_POINT('',(-3.799671038393,-32.13642607944,5.25));
#792 = CARTESIAN_POINT('',(-3.805385724457,-32.27268326805,
    5.232628875056));
#793 = CARTESIAN_POINT('',(-3.816789915879,-32.40702064017,
    5.197962985429));
#794 = CARTESIAN_POINT('',(-3.833363086358,-32.53761426154,
    5.145900218924));
#795 = CARTESIAN_POINT('',(-3.854066461798,-32.66239163151,
    5.076263592876));
#796 = CARTESIAN_POINT('',(-3.877328554907,-32.77886998045,
    4.988896972512));
#797 = CARTESIAN_POINT('',(-3.921660116762,-32.97453244004,
    4.793234512919));
#798 = CARTESIAN_POINT('',(-3.942977409798,-33.05833110663,
    4.687743732369));
#799 = CARTESIAN_POINT('',(-3.963406206773,-33.1309340634,4.568312043833
    ));
#800 = CARTESIAN_POINT('',(-3.980876446548,-33.18880085194,
    4.436908702331));
#801 = CARTESIAN_POINT('',(-3.993489331545,-33.22916676663,
    4.296215009908));
#802 = CARTESIAN_POINT('',(-4.,-33.25,4.149403581629));
#803 = CARTESIAN_POINT('',(-4.,-33.25,3.850565815966));
#804 = CARTESIAN_POINT('',(-3.993486658666,-33.22915823097,
    3.703752094297));
#805 = CARTESIAN_POINT('',(-3.9808729792,-33.18878973185,3.563073766815)
  );
#806 = CARTESIAN_POINT('',(-3.963405417088,-33.13092991336,
    3.431689781534));
#807 = CARTESIAN_POINT('',(-3.942979847614,-33.05833876469,
    3.312270413877));
#808 = CARTESIAN_POINT('',(-3.921663183196,-32.9745459741,3.20677902114)
  );
#809 = CARTESIAN_POINT('',(-3.877329185172,-32.7788727622,3.011105809236
    ));
#810 = CARTESIAN_POINT('',(-3.854066709161,-32.66239345397,2.9237366869)
  );
#811 = CARTESIAN_POINT('',(-3.833362616422,-32.53761279574,
    2.854098265581));
#812 = CARTESIAN_POINT('',(-3.816789456561,-32.40701691205,
    2.802035624124));
#813 = CARTESIAN_POINT('',(-3.805385605024,-32.27267976802,
    2.767370760813));
#814 = CARTESIAN_POINT('',(-3.799671038393,-32.13642463004,2.75));
#815 = CARTESIAN_POINT('',(-3.799671038393,-31.86357392055,2.75));
#816 = CARTESIAN_POINT('',(-3.805385724457,-31.72731673194,
    2.767371124944));
#817 = CARTESIAN_POINT('',(-3.816789915879,-31.59297935982,
    2.802037014571));
#818 = CARTESIAN_POINT('',(-3.833363086358,-31.46238573846,
    2.854099781076));
#819 = CARTESIAN_POINT('',(-3.854066461798,-31.33760836849,
    2.923736407124));
#820 = CARTESIAN_POINT('',(-3.877328554907,-31.22113001954,
    3.011103027488));
#821 = CARTESIAN_POINT('',(-3.921658100495,-31.02547645897,
    3.206756588056));
#822 = CARTESIAN_POINT('',(-3.942976741945,-30.94166982609,
    3.312251075984));
#823 = CARTESIAN_POINT('',(-3.963407952075,-30.86905942113,
    3.431694059255));
#824 = CARTESIAN_POINT('',(-3.980878977544,-30.811191118,3.563108450997)
  );
#825 = CARTESIAN_POINT('',(-3.993490753568,-30.77082865092,
    3.703806747176));
#826 = CARTESIAN_POINT('',(-4.,-30.75,3.85061284233));
#827 = CARTESIAN_POINT('',(-4.,-30.75,4.));
#828 = CYLINDRICAL_SURFACE('',#829,4.);
#829 = AXIS2_PLACEMENT_3D('',#830,#831,#832);
#830 = CARTESIAN_POINT('',(0.,-15.,4.));
#831 = DIRECTION('',(0.,1.,-2.2E-16));
#832 = DIRECTION('',(1.,0.,0.));
#833 = ADVANCED_FACE('',(#834),#854,.T.);
#834 = FACE_BOUND('',#835,.T.);
#835 = EDGE_LOOP('',(#836,#845,#846,#847));
#836 = ORIENTED_EDGE('',*,*,#837,.F.);
#837 = EDGE_CURVE('',#24,#838,#840,.T.);
#838 = VERTEX_POINT('',#839);
#839 = CARTESIAN_POINT('',(1.,-65.,4.));
#840 = CIRCLE('',#841,3.);
#841 = AXIS2_PLACEMENT_3D('',#842,#843,#844);
#842 = CARTESIAN_POINT('',(1.,-62.,4.));
#843 = DIRECTION('',(-4.2E-16,-2.6E-16,-1.));
#844 = DIRECTION('',(1.,0.,-4.2E-16));
#845 = ORIENTED_EDGE('',*,*,#480,.T.);
#846 = ORIENTED_EDGE('',*,*,#837,.T.);
#847 = ORIENTED_EDGE('',*,*,#848,.F.);
#848 = EDGE_CURVE('',#838,#838,#849,.T.);
#849 = CIRCLE('',#850,1.);
#850 = AXIS2_PLACEMENT_3D('',#851,#852,#853);
#851 = CARTESIAN_POINT('',(0.,-65.,4.));
#852 = DIRECTION('',(0.,-1.,2.6E-16));
#853 = DIRECTION('',(1.,-1.092E-31,-4.2E-16));
#854 = SURFACE_OF_REVOLUTION('',#855,#868);
#855 = B_SPLINE_CURVE_WITH_KNOTS('',6,(#856,#857,#858,#859,#860,#861,
    #862,#863,#864,#865,#866,#867),.UNSPECIFIED.,.F.,.F.,(7,5,7),(0.,
    0.785398163397,1.570796326795),.UNSPECIFIED.);
#856 = CARTESIAN_POINT('',(4.,-62.,4.));
#857 = CARTESIAN_POINT('',(4.,-62.39269908169,4.));
#858 = CARTESIAN_POINT('',(3.938315214456,-62.78539750748,4.));
#859 = CARTESIAN_POINT('',(3.81494403637,-63.16598799718,4.));
#860 = CARTESIAN_POINT('',(3.633062516873,-63.52234270993,4.));
#861 = CARTESIAN_POINT('',(3.399000527195,-63.84364015992,4.));
#862 = CARTESIAN_POINT('',(2.843640159925,-64.39900052719,4.));
#863 = CARTESIAN_POINT('',(2.522342709937,-64.63306251687,4.));
#864 = CARTESIAN_POINT('',(2.165987997186,-64.81494403637,4.));
#865 = CARTESIAN_POINT('',(1.785397507482,-64.93831521445,4.));
#866 = CARTESIAN_POINT('',(1.392699081699,-65.,4.));
#867 = CARTESIAN_POINT('',(1.,-65.,4.));
#868 = AXIS1_PLACEMENT('',#869,#870);
#869 = CARTESIAN_POINT('',(0.,-62.,4.));
#870 = DIRECTION('',(0.,-1.,2.6E-16));
#871 = ADVANCED_FACE('',(#872),#883,.F.);
#872 = FACE_BOUND('',#873,.F.);
#873 = EDGE_LOOP('',(#874,#875,#880,#881,#882));
#874 = ORIENTED_EDGE('',*,*,#489,.T.);
#875 = ORIENTED_EDGE('',*,*,#876,.T.);
#876 = EDGE_CURVE('',#490,#32,#877,.T.);
#877 = B_SPLINE_CURVE_WITH_KNOTS('',1,(#878,#879),.UNSPECIFIED.,.F.,.F.,
  (2,2),(-163.2079998039,163.20799980393),.PIECEWISE_BEZIER_KNOTS.);
#878 = CARTESIAN_POINT('',(-163.2079998039,-55.75,4.));
#879 = CARTESIAN_POINT('',(163.20799980393,-55.75,4.));
#880 = ORIENTED_EDGE('',*,*,#31,.F.);
#881 = ORIENTED_EDGE('',*,*,#450,.F.);
#882 = ORIENTED_EDGE('',*,*,#876,.F.);
#883 = CYLINDRICAL_SURFACE('',#884,1.25);
#884 = AXIS2_PLACEMENT_3D('',#885,#886,#887);
#885 = CARTESIAN_POINT('',(0.,-57.,4.));
#886 = DIRECTION('',(1.,0.,0.));
#887 = DIRECTION('',(0.,1.,0.));
#888 = ADVANCED_FACE('',(#889),#900,.F.);
#889 = FACE_BOUND('',#890,.F.);
#890 = EDGE_LOOP('',(#891,#892,#897,#898,#899));
#891 = ORIENTED_EDGE('',*,*,#546,.T.);
#892 = ORIENTED_EDGE('',*,*,#893,.T.);
#893 = EDGE_CURVE('',#547,#71,#894,.T.);
#894 = B_SPLINE_CURVE_WITH_KNOTS('',1,(#895,#896),.UNSPECIFIED.,.F.,.F.,
  (2,2),(-163.2079998039,163.20799980393),.PIECEWISE_BEZIER_KNOTS.);
#895 = CARTESIAN_POINT('',(-163.2079998039,-50.75,4.));
#896 = CARTESIAN_POINT('',(163.20799980393,-50.75,4.));
#897 = ORIENTED_EDGE('',*,*,#70,.F.);
#898 = ORIENTED_EDGE('',*,*,#420,.F.);
#899 = ORIENTED_EDGE('',*,*,#893,.F.);
#900 = CYLINDRICAL_SURFACE('',#901,1.25);
#901 = AXIS2_PLACEMENT_3D('',#902,#903,#904);
#902 = CARTESIAN_POINT('',(0.,-52.,4.));
#903 = DIRECTION('',(1.,0.,0.));
#904 = DIRECTION('',(0.,1.,0.));
#905 = ADVANCED_FACE('',(#906),#917,.F.);
#906 = FACE_BOUND('',#907,.F.);
#907 = EDGE_LOOP('',(#908,#909,#914,#915,#916));
#908 = ORIENTED_EDGE('',*,*,#603,.T.);
#909 = ORIENTED_EDGE('',*,*,#910,.T.);
#910 = EDGE_CURVE('',#604,#110,#911,.T.);
#911 = B_SPLINE_CURVE_WITH_KNOTS('',1,(#912,#913),.UNSPECIFIED.,.F.,.F.,
  (2,2),(-163.2079998039,163.20799980393),.PIECEWISE_BEZIER_KNOTS.);
#912 = CARTESIAN_POINT('',(-163.2079998039,-45.75,4.));
#913 = CARTESIAN_POINT('',(163.20799980393,-45.75,4.));
#914 = ORIENTED_EDGE('',*,*,#109,.F.);
#915 = ORIENTED_EDGE('',*,*,#390,.F.);
#916 = ORIENTED_EDGE('',*,*,#910,.F.);
#917 = CYLINDRICAL_SURFACE('',#918,1.25);
#918 = AXIS2_PLACEMENT_3D('',#919,#920,#921);
#919 = CARTESIAN_POINT('',(0.,-47.,4.));
#920 = DIRECTION('',(1.,0.,0.));
#921 = DIRECTION('',(0.,1.,0.));
#922 = ADVANCED_FACE('',(#923),#934,.F.);
#923 = FACE_BOUND('',#924,.F.);
#924 = EDGE_LOOP('',(#925,#926,#931,#932,#933));
#925 = ORIENTED_EDGE('',*,*,#660,.T.);
#926 = ORIENTED_EDGE('',*,*,#927,.T.);
#927 = EDGE_CURVE('',#661,#149,#928,.T.);
#928 = B_SPLINE_CURVE_WITH_KNOTS('',1,(#929,#930),.UNSPECIFIED.,.F.,.F.,
  (2,2),(-163.2079998039,163.20799980393),.PIECEWISE_BEZIER_KNOTS.);
#929 = CARTESIAN_POINT('',(-163.2079998039,-40.75,4.));
#930 = CARTESIAN_POINT('',(163.20799980393,-40.75,4.));
#931 = ORIENTED_EDGE('',*,*,#148,.F.);
#932 = ORIENTED_EDGE('',*,*,#360,.F.);
#933 = ORIENTED_EDGE('',*,*,#927,.F.);
#934 = CYLINDRICAL_SURFACE('',#935,1.25);
#935 = AXIS2_PLACEMENT_3D('',#936,#937,#938);
#936 = CARTESIAN_POINT('',(0.,-42.,4.));
#937 = DIRECTION('',(1.,0.,0.));
#938 = DIRECTION('',(0.,1.,0.));
#939 = ADVANCED_FACE('',(#940),#951,.F.);
#940 = FACE_BOUND('',#941,.F.);
#941 = EDGE_LOOP('',(#942,#943,#948,#949,#950));
#942 = ORIENTED_EDGE('',*,*,#717,.T.);
#943 = ORIENTED_EDGE('',*,*,#944,.T.);
#944 = EDGE_CURVE('',#718,#188,#945,.T.);
#945 = B_SPLINE_CURVE_WITH_KNOTS('',1,(#946,#947),.UNSPECIFIED.,.F.,.F.,
  (2,2),(-163.2079998039,163.20799980393),.PIECEWISE_BEZIER_KNOTS.);
#946 = CARTESIAN_POINT('',(-163.2079998039,-35.75,4.));
#947 = CARTESIAN_POINT('',(163.20799980393,-35.75,4.));
#948 = ORIENTED_EDGE('',*,*,#187,.F.);
#949 = ORIENTED_EDGE('',*,*,#330,.F.);
#950 = ORIENTED_EDGE('',*,*,#944,.F.);
#951 = CYLINDRICAL_SURFACE('',#952,1.25);
#952 = AXIS2_PLACEMENT_3D('',#953,#954,#955);
#953 = CARTESIAN_POINT('',(0.,-37.,4.));
#954 = DIRECTION('',(1.,0.,0.));
#955 = DIRECTION('',(0.,1.,0.));
#956 = ADVANCED_FACE('',(#957),#968,.F.);
#957 = FACE_BOUND('',#958,.F.);
#958 = EDGE_LOOP('',(#959,#960,#965,#966,#967));
#959 = ORIENTED_EDGE('',*,*,#774,.T.);
#960 = ORIENTED_EDGE('',*,*,#961,.T.);
#961 = EDGE_CURVE('',#775,#227,#962,.T.);
#962 = B_SPLINE_CURVE_WITH_KNOTS('',1,(#963,#964),.UNSPECIFIED.,.F.,.F.,
  (2,2),(-163.2079998039,163.20799980393),.PIECEWISE_BEZIER_KNOTS.);
#963 = CARTESIAN_POINT('',(-163.2079998039,-30.75,4.));
#964 = CARTESIAN_POINT('',(163.20799980393,-30.75,4.));
#965 = ORIENTED_EDGE('',*,*,#226,.F.);
#966 = ORIENTED_EDGE('',*,*,#300,.F.);
#967 = ORIENTED_EDGE('',*,*,#961,.F.);
#968 = CYLINDRICAL_SURFACE('',#969,1.25);
#969 = AXIS2_PLACEMENT_3D('',#970,#971,#972);
#970 = CARTESIAN_POINT('',(0.,-32.,4.));
#971 = DIRECTION('',(1.,0.,0.));
#972 = DIRECTION('',(0.,1.,0.));
#973 = ADVANCED_FACE('',(#974),#991,.F.);
#974 = FACE_BOUND('',#975,.F.);
#975 = EDGE_LOOP('',(#976,#984,#985));
#976 = ORIENTED_EDGE('',*,*,#977,.F.);
#977 = EDGE_CURVE('',#266,#978,#980,.T.);
#978 = VERTEX_POINT('',#979);
#979 = CARTESIAN_POINT('',(4.,-15.,0.));
#980 = LINE('',#981,#982);
#981 = CARTESIAN_POINT('',(-4.,-15.,0.));
#982 = VECTOR('',#983,1.);
#983 = DIRECTION('',(1.,0.,0.));
#984 = ORIENTED_EDGE('',*,*,#265,.T.);
#985 = ORIENTED_EDGE('',*,*,#986,.F.);
#986 = EDGE_CURVE('',#978,#258,#987,.T.);
#987 = LINE('',#988,#989);
#988 = CARTESIAN_POINT('',(4.,-15.,0.));
#989 = VECTOR('',#990,1.);
#990 = DIRECTION('',(0.,0.,1.));
#991 = PLANE('',#992);
#992 = AXIS2_PLACEMENT_3D('',#993,#994,#995);
#993 = CARTESIAN_POINT('',(-4.,-15.,0.));
#994 = DIRECTION('',(0.,1.,0.));
#995 = DIRECTION('',(1.,0.,0.));
#996 = ADVANCED_FACE('',(#997),#1014,.F.);
#997 = FACE_BOUND('',#998,.F.);
#998 = EDGE_LOOP('',(#999,#1007,#1013));
#999 = ORIENTED_EDGE('',*,*,#1000,.F.);
#1000 = EDGE_CURVE('',#1001,#266,#1003,.T.);
#1001 = VERTEX_POINT('',#1002);
#1002 = CARTESIAN_POINT('',(-4.,-15.,0.));
#1003 = LINE('',#1004,#1005);
#1004 = CARTESIAN_POINT('',(-4.,-15.,0.));
#1005 = VECTOR('',#1006,1.);
#1006 = DIRECTION('',(1.,0.,0.));
#1007 = ORIENTED_EDGE('',*,*,#1008,.T.);
#1008 = EDGE_CURVE('',#1001,#275,#1009,.T.);
#1009 = LINE('',#1010,#1011);
#1010 = CARTESIAN_POINT('',(-4.,-15.,0.));
#1011 = VECTOR('',#1012,1.);
#1012 = DIRECTION('',(0.,0.,1.));
#1013 = ORIENTED_EDGE('',*,*,#274,.T.);
#1014 = PLANE('',#1015);
#1015 = AXIS2_PLACEMENT_3D('',#1016,#1017,#1018);
#1016 = CARTESIAN_POINT('',(-4.,-15.,0.));
#1017 = DIRECTION('',(0.,1.,0.));
#1018 = DIRECTION('',(1.,0.,0.));
#1019 = ADVANCED_FACE('',(#1020),#1046,.F.);
#1020 = FACE_BOUND('',#1021,.F.);
#1021 = EDGE_LOOP('',(#1022,#1030,#1031,#1039));
#1022 = ORIENTED_EDGE('',*,*,#1023,.F.);
#1023 = EDGE_CURVE('',#258,#1024,#1026,.T.);
#1024 = VERTEX_POINT('',#1025);
#1025 = CARTESIAN_POINT('',(4.,-15.,7.));
#1026 = LINE('',#1027,#1028);
#1027 = CARTESIAN_POINT('',(4.,-15.,0.));
#1028 = VECTOR('',#1029,1.);
#1029 = DIRECTION('',(0.,0.,1.));
#1030 = ORIENTED_EDGE('',*,*,#292,.T.);
#1031 = ORIENTED_EDGE('',*,*,#1032,.T.);
#1032 = EDGE_CURVE('',#284,#1033,#1035,.T.);
#1033 = VERTEX_POINT('',#1034);
#1034 = CARTESIAN_POINT('',(3.,-15.,8.));
#1035 = LINE('',#1036,#1037);
#1036 = CARTESIAN_POINT('',(-4.,-15.,8.));
#1037 = VECTOR('',#1038,1.);
#1038 = DIRECTION('',(1.,0.,0.));
#1039 = ORIENTED_EDGE('',*,*,#1040,.T.);
#1040 = EDGE_CURVE('',#1033,#1024,#1041,.T.);
#1041 = CIRCLE('',#1042,1.);
#1042 = AXIS2_PLACEMENT_3D('',#1043,#1044,#1045);
#1043 = CARTESIAN_POINT('',(3.,-15.,7.));
#1044 = DIRECTION('',(0.,1.,0.));
#1045 = DIRECTION('',(0.,0.,1.));
#1046 = PLANE('',#1047);
#1047 = AXIS2_PLACEMENT_3D('',#1048,#1049,#1050);
#1048 = CARTESIAN_POINT('',(-4.,-15.,0.));
#1049 = DIRECTION('',(0.,1.,0.));
#1050 = DIRECTION('',(1.,0.,0.));
#1051 = ADVANCED_FACE('',(#1052),#1078,.F.);
#1052 = FACE_BOUND('',#1053,.F.);
#1053 = EDGE_LOOP('',(#1054,#1062,#1063,#1071));
#1054 = ORIENTED_EDGE('',*,*,#1055,.T.);
#1055 = EDGE_CURVE('',#1056,#284,#1058,.T.);
#1056 = VERTEX_POINT('',#1057);
#1057 = CARTESIAN_POINT('',(-3.,-15.,8.));
#1058 = LINE('',#1059,#1060);
#1059 = CARTESIAN_POINT('',(-4.,-15.,8.));
#1060 = VECTOR('',#1061,1.);
#1061 = DIRECTION('',(1.,0.,0.));
#1062 = ORIENTED_EDGE('',*,*,#283,.T.);
#1063 = ORIENTED_EDGE('',*,*,#1064,.T.);
#1064 = EDGE_CURVE('',#275,#1065,#1067,.T.);
#1065 = VERTEX_POINT('',#1066);
#1066 = CARTESIAN_POINT('',(-4.,-15.,7.));
#1067 = LINE('',#1068,#1069);
#1068 = CARTESIAN_POINT('',(-4.,-15.,0.));
#1069 = VECTOR('',#1070,1.);
#1070 = DIRECTION('',(0.,0.,1.));
#1071 = ORIENTED_EDGE('',*,*,#1072,.T.);
#1072 = EDGE_CURVE('',#1065,#1056,#1073,.T.);
#1073 = CIRCLE('',#1074,1.);
#1074 = AXIS2_PLACEMENT_3D('',#1075,#1076,#1077);
#1075 = CARTESIAN_POINT('',(-3.,-15.,7.));
#1076 = DIRECTION('',(0.,1.,0.));
#1077 = DIRECTION('',(0.,0.,-1.));
#1078 = PLANE('',#1079);
#1079 = AXIS2_PLACEMENT_3D('',#1080,#1081,#1082);
#1080 = CARTESIAN_POINT('',(-4.,-15.,0.));
#1081 = DIRECTION('',(0.,1.,0.));
#1082 = DIRECTION('',(1.,0.,0.));
#1083 = ADVANCED_FACE('',(#1084),#1087,.F.);
#1084 = FACE_BOUND('',#1085,.F.);
#1085 = EDGE_LOOP('',(#1086));
#1086 = ORIENTED_EDGE('',*,*,#848,.F.);
#1087 = PLANE('',#1088);
#1088 = AXIS2_PLACEMENT_3D('',#1089,#1090,#1091);
#1089 = CARTESIAN_POINT('',(-2.6E-16,-65.,4.));
#1090 = DIRECTION('',(0.,1.,-2.6E-16));
#1091 = DIRECTION('',(0.,2.6E-16,1.));
#1092 = ADVANCED_FACE('',(#1093,#1119,#1130),#1141,.F.);
#1093 = FACE_BOUND('',#1094,.F.);
#1094 = EDGE_LOOP('',(#1095,#1103,#1104,#1105,#1113));
#1095 = ORIENTED_EDGE('',*,*,#1096,.T.);
#1096 = EDGE_CURVE('',#1097,#1001,#1099,.T.);
#1097 = VERTEX_POINT('',#1098);
#1098 = CARTESIAN_POINT('',(-4.,15.,0.));
#1099 = LINE('',#1100,#1101);
#1100 = CARTESIAN_POINT('',(-4.,15.,0.));
#1101 = VECTOR('',#1102,1.);
#1102 = DIRECTION('',(0.,-1.,0.));
#1103 = ORIENTED_EDGE('',*,*,#1000,.T.);
#1104 = ORIENTED_EDGE('',*,*,#977,.T.);
#1105 = ORIENTED_EDGE('',*,*,#1106,.T.);
#1106 = EDGE_CURVE('',#978,#1107,#1109,.T.);
#1107 = VERTEX_POINT('',#1108);
#1108 = CARTESIAN_POINT('',(4.,15.,0.));
#1109 = LINE('',#1110,#1111);
#1110 = CARTESIAN_POINT('',(4.,-15.,0.));
#1111 = VECTOR('',#1112,1.);
#1112 = DIRECTION('',(0.,1.,0.));
#1113 = ORIENTED_EDGE('',*,*,#1114,.T.);
#1114 = EDGE_CURVE('',#1107,#1097,#1115,.T.);
#1115 = LINE('',#1116,#1117);
#1116 = CARTESIAN_POINT('',(4.,15.,0.));
#1117 = VECTOR('',#1118,1.);
#1118 = DIRECTION('',(-1.,0.,0.));
#1119 = FACE_BOUND('',#1120,.T.);
#1120 = EDGE_LOOP('',(#1121));
#1121 = ORIENTED_EDGE('',*,*,#1122,.T.);
#1122 = EDGE_CURVE('',#1123,#1123,#1125,.T.);
#1123 = VERTEX_POINT('',#1124);
#1124 = CARTESIAN_POINT('',(1.75,10.,0.));
#1125 = CIRCLE('',#1126,1.75);
#1126 = AXIS2_PLACEMENT_3D('',#1127,#1128,#1129);
#1127 = CARTESIAN_POINT('',(0.,10.,0.));
#1128 = DIRECTION('',(0.,0.,1.));
#1129 = DIRECTION('',(1.,0.,0.));
#1130 = FACE_BOUND('',#1131,.T.);
#1131 = EDGE_LOOP('',(#1132));
#1132 = ORIENTED_EDGE('',*,*,#1133,.T.);
#1133 = EDGE_CURVE('',#1134,#1134,#1136,.T.);
#1134 = VERTEX_POINT('',#1135);
#1135 = CARTESIAN_POINT('',(1.75,2.,0.));
#1136 = CIRCLE('',#1137,1.75);
#1137 = AXIS2_PLACEMENT_3D('',#1138,#1139,#1140);
#1138 = CARTESIAN_POINT('',(0.,2.,0.));
#1139 = DIRECTION('',(0.,0.,1.));
#1140 = DIRECTION('',(1.,0.,0.));
#1141 = PLANE('',#1142);
#1142 = AXIS2_PLACEMENT_3D('',#1143,#1144,#1145);
#1143 = CARTESIAN_POINT('',(-1.E-17,1.158543550184,0.));
#1144 = DIRECTION('',(0.,0.,1.));
#1145 = DIRECTION('',(1.,0.,0.));
#1146 = ADVANCED_FACE('',(#1147),#1166,.F.);
#1147 = FACE_BOUND('',#1148,.F.);
#1148 = EDGE_LOOP('',(#1149,#1150,#1158,#1164,#1165));
#1149 = ORIENTED_EDGE('',*,*,#1023,.T.);
#1150 = ORIENTED_EDGE('',*,*,#1151,.T.);
#1151 = EDGE_CURVE('',#1024,#1152,#1154,.T.);
#1152 = VERTEX_POINT('',#1153);
#1153 = CARTESIAN_POINT('',(4.,15.,7.));
#1154 = LINE('',#1155,#1156);
#1155 = CARTESIAN_POINT('',(4.,-15.,7.));
#1156 = VECTOR('',#1157,1.);
#1157 = DIRECTION('',(0.,1.,0.));
#1158 = ORIENTED_EDGE('',*,*,#1159,.F.);
#1159 = EDGE_CURVE('',#1107,#1152,#1160,.T.);
#1160 = LINE('',#1161,#1162);
#1161 = CARTESIAN_POINT('',(4.,15.,0.));
#1162 = VECTOR('',#1163,1.);
#1163 = DIRECTION('',(0.,0.,1.));
#1164 = ORIENTED_EDGE('',*,*,#1106,.F.);
#1165 = ORIENTED_EDGE('',*,*,#986,.T.);
#1166 = PLANE('',#1167);
#1167 = AXIS2_PLACEMENT_3D('',#1168,#1169,#1170);
#1168 = CARTESIAN_POINT('',(4.,-15.,0.));
#1169 = DIRECTION('',(-1.,0.,0.));
#1170 = DIRECTION('',(0.,1.,0.));
#1171 = ADVANCED_FACE('',(#1172),#1191,.F.);
#1172 = FACE_BOUND('',#1173,.F.);
#1173 = EDGE_LOOP('',(#1174,#1182,#1188,#1189,#1190));
#1174 = ORIENTED_EDGE('',*,*,#1175,.T.);
#1175 = EDGE_CURVE('',#1097,#1176,#1178,.T.);
#1176 = VERTEX_POINT('',#1177);
#1177 = CARTESIAN_POINT('',(-4.,15.,7.));
#1178 = LINE('',#1179,#1180);
#1179 = CARTESIAN_POINT('',(-4.,15.,0.));
#1180 = VECTOR('',#1181,1.);
#1181 = DIRECTION('',(0.,0.,1.));
#1182 = ORIENTED_EDGE('',*,*,#1183,.T.);
#1183 = EDGE_CURVE('',#1176,#1065,#1184,.T.);
#1184 = LINE('',#1185,#1186);
#1185 = CARTESIAN_POINT('',(-4.,15.,7.));
#1186 = VECTOR('',#1187,1.);
#1187 = DIRECTION('',(0.,-1.,0.));
#1188 = ORIENTED_EDGE('',*,*,#1064,.F.);
#1189 = ORIENTED_EDGE('',*,*,#1008,.F.);
#1190 = ORIENTED_EDGE('',*,*,#1096,.F.);
#1191 = PLANE('',#1192);
#1192 = AXIS2_PLACEMENT_3D('',#1193,#1194,#1195);
#1193 = CARTESIAN_POINT('',(-4.,15.,0.));
#1194 = DIRECTION('',(1.,0.,0.));
#1195 = DIRECTION('',(0.,-1.,0.));
#1196 = ADVANCED_FACE('',(#1197),#1216,.T.);
#1197 = FACE_BOUND('',#1198,.T.);
#1198 = EDGE_LOOP('',(#1199,#1200,#1201,#1210));
#1199 = ORIENTED_EDGE('',*,*,#1040,.T.);
#1200 = ORIENTED_EDGE('',*,*,#1151,.T.);
#1201 = ORIENTED_EDGE('',*,*,#1202,.F.);
#1202 = EDGE_CURVE('',#1203,#1152,#1205,.T.);
#1203 = VERTEX_POINT('',#1204);
#1204 = CARTESIAN_POINT('',(3.,15.,8.));
#1205 = CIRCLE('',#1206,1.);
#1206 = AXIS2_PLACEMENT_3D('',#1207,#1208,#1209);
#1207 = CARTESIAN_POINT('',(3.,15.,7.));
#1208 = DIRECTION('',(0.,1.,0.));
#1209 = DIRECTION('',(0.,0.,1.));
#1210 = ORIENTED_EDGE('',*,*,#1211,.F.);
#1211 = EDGE_CURVE('',#1033,#1203,#1212,.T.);
#1212 = LINE('',#1213,#1214);
#1213 = CARTESIAN_POINT('',(3.,-15.,8.));
#1214 = VECTOR('',#1215,1.);
#1215 = DIRECTION('',(0.,1.,0.));
#1216 = CYLINDRICAL_SURFACE('',#1217,1.);
#1217 = AXIS2_PLACEMENT_3D('',#1218,#1219,#1220);
#1218 = CARTESIAN_POINT('',(3.,-15.,7.));
#1219 = DIRECTION('',(0.,1.,0.));
#1220 = DIRECTION('',(0.,0.,1.));
#1221 = ADVANCED_FACE('',(#1222,#1241,#1252),#1263,.T.);
#1222 = FACE_BOUND('',#1223,.T.);
#1223 = EDGE_LOOP('',(#1224,#1225,#1226,#1227,#1235));
#1224 = ORIENTED_EDGE('',*,*,#1055,.T.);
#1225 = ORIENTED_EDGE('',*,*,#1032,.T.);
#1226 = ORIENTED_EDGE('',*,*,#1211,.T.);
#1227 = ORIENTED_EDGE('',*,*,#1228,.T.);
#1228 = EDGE_CURVE('',#1203,#1229,#1231,.T.);
#1229 = VERTEX_POINT('',#1230);
#1230 = CARTESIAN_POINT('',(-3.,15.,8.));
#1231 = LINE('',#1232,#1233);
#1232 = CARTESIAN_POINT('',(4.,15.,8.));
#1233 = VECTOR('',#1234,1.);
#1234 = DIRECTION('',(-1.,0.,0.));
#1235 = ORIENTED_EDGE('',*,*,#1236,.T.);
#1236 = EDGE_CURVE('',#1229,#1056,#1237,.T.);
#1237 = LINE('',#1238,#1239);
#1238 = CARTESIAN_POINT('',(-3.,15.,8.));
#1239 = VECTOR('',#1240,1.);
#1240 = DIRECTION('',(0.,-1.,0.));
#1241 = FACE_BOUND('',#1242,.F.);
#1242 = EDGE_LOOP('',(#1243));
#1243 = ORIENTED_EDGE('',*,*,#1244,.T.);
#1244 = EDGE_CURVE('',#1245,#1245,#1247,.T.);
#1245 = VERTEX_POINT('',#1246);
#1246 = CARTESIAN_POINT('',(1.75,10.,8.));
#1247 = CIRCLE('',#1248,1.75);
#1248 = AXIS2_PLACEMENT_3D('',#1249,#1250,#1251);
#1249 = CARTESIAN_POINT('',(0.,10.,8.));
#1250 = DIRECTION('',(0.,0.,1.));
#1251 = DIRECTION('',(1.,0.,0.));
#1252 = FACE_BOUND('',#1253,.F.);
#1253 = EDGE_LOOP('',(#1254));
#1254 = ORIENTED_EDGE('',*,*,#1255,.T.);
#1255 = EDGE_CURVE('',#1256,#1256,#1258,.T.);
#1256 = VERTEX_POINT('',#1257);
#1257 = CARTESIAN_POINT('',(1.75,2.,8.));
#1258 = CIRCLE('',#1259,1.75);
#1259 = AXIS2_PLACEMENT_3D('',#1260,#1261,#1262);
#1260 = CARTESIAN_POINT('',(0.,2.,8.));
#1261 = DIRECTION('',(0.,0.,1.));
#1262 = DIRECTION('',(1.,0.,0.));
#1263 = PLANE('',#1264);
#1264 = AXIS2_PLACEMENT_3D('',#1265,#1266,#1267);
#1265 = CARTESIAN_POINT('',(-1.E-17,1.158543550184,8.));
#1266 = DIRECTION('',(0.,0.,1.));
#1267 = DIRECTION('',(1.,0.,0.));
#1268 = ADVANCED_FACE('',(#1269),#1281,.T.);
#1269 = FACE_BOUND('',#1270,.F.);
#1270 = EDGE_LOOP('',(#1271,#1278,#1279,#1280));
#1271 = ORIENTED_EDGE('',*,*,#1272,.T.);
#1272 = EDGE_CURVE('',#1176,#1229,#1273,.T.);
#1273 = CIRCLE('',#1274,1.);
#1274 = AXIS2_PLACEMENT_3D('',#1275,#1276,#1277);
#1275 = CARTESIAN_POINT('',(-3.,15.,7.));
#1276 = DIRECTION('',(0.,1.,0.));
#1277 = DIRECTION('',(0.,0.,-1.));
#1278 = ORIENTED_EDGE('',*,*,#1236,.T.);
#1279 = ORIENTED_EDGE('',*,*,#1072,.F.);
#1280 = ORIENTED_EDGE('',*,*,#1183,.F.);
#1281 = CYLINDRICAL_SURFACE('',#1282,1.);
#1282 = AXIS2_PLACEMENT_3D('',#1283,#1284,#1285);
#1283 = CARTESIAN_POINT('',(-3.,15.,7.));
#1284 = DIRECTION('',(0.,-1.,0.));
#1285 = DIRECTION('',(-1.,0.,0.));
#1286 = ADVANCED_FACE('',(#1287),#1295,.F.);
#1287 = FACE_BOUND('',#1288,.F.);
#1288 = EDGE_LOOP('',(#1289,#1290,#1291,#1292,#1293,#1294));
#1289 = ORIENTED_EDGE('',*,*,#1159,.T.);
#1290 = ORIENTED_EDGE('',*,*,#1202,.F.);
#1291 = ORIENTED_EDGE('',*,*,#1228,.T.);
#1292 = ORIENTED_EDGE('',*,*,#1272,.F.);
#1293 = ORIENTED_EDGE('',*,*,#1175,.F.);
#1294 = ORIENTED_EDGE('',*,*,#1114,.F.);
#1295 = PLANE('',#1296);
#1296 = AXIS2_PLACEMENT_3D('',#1297,#1298,#1299);
#1297 = CARTESIAN_POINT('',(4.,15.,0.));
#1298 = DIRECTION('',(0.,-1.,0.));
#1299 = DIRECTION('',(-1.,0.,0.));
#1300 = ADVANCED_FACE('',(#1301),#1312,.F.);
#1301 = FACE_BOUND('',#1302,.T.);
#1302 = EDGE_LOOP('',(#1303,#1309,#1310,#1311));
#1303 = ORIENTED_EDGE('',*,*,#1304,.T.);
#1304 = EDGE_CURVE('',#1123,#1245,#1305,.T.);
#1305 = LINE('',#1306,#1307);
#1306 = CARTESIAN_POINT('',(1.75,10.,0.));
#1307 = VECTOR('',#1308,1.);
#1308 = DIRECTION('',(0.,0.,1.));
#1309 = ORIENTED_EDGE('',*,*,#1244,.T.);
#1310 = ORIENTED_EDGE('',*,*,#1304,.F.);
#1311 = ORIENTED_EDGE('',*,*,#1122,.F.);
#1312 = CYLINDRICAL_SURFACE('',#1313,1.75);
#1313 = AXIS2_PLACEMENT_3D('',#1314,#1315,#1316);
#1314 = CARTESIAN_POINT('',(0.,10.,0.));
#1315 = DIRECTION('',(-0.,-0.,-1.));
#1316 = DIRECTION('',(1.,0.,0.));
#1317 = ADVANCED_FACE('',(#1318),#1329,.F.);
#1318 = FACE_BOUND('',#1319,.T.);
#1319 = EDGE_LOOP('',(#1320,#1326,#1327,#1328));
#1320 = ORIENTED_EDGE('',*,*,#1321,.T.);
#1321 = EDGE_CURVE('',#1134,#1256,#1322,.T.);
#1322 = LINE('',#1323,#1324);
#1323 = CARTESIAN_POINT('',(1.75,2.,0.));
#1324 = VECTOR('',#1325,1.);
#1325 = DIRECTION('',(0.,0.,1.));
#1326 = ORIENTED_EDGE('',*,*,#1255,.T.);
#1327 = ORIENTED_EDGE('',*,*,#1321,.F.);
#1328 = ORIENTED_EDGE('',*,*,#1133,.F.);
#1329 = CYLINDRICAL_SURFACE('',#1330,1.75);
#1330 = AXIS2_PLACEMENT_3D('',#1331,#1332,#1333);
#1331 = CARTESIAN_POINT('',(0.,2.,0.));
#1332 = DIRECTION('',(-0.,-0.,-1.));
#1333 = DIRECTION('',(1.,0.,0.));
#1334 = ( GEOMETRIC_REPRESENTATION_CONTEXT(3) 
GLOBAL_UNCERTAINTY_ASSIGNED_CONTEXT((#1338)) 
GLOBAL_UNIT_ASSIGNED_CONTEXT((#1335,#1336,#1337)) REPRESENTATION_CONTEXT
('Context #1','3D Context with UNIT and UNCERTAINTY') );
#1335 = ( LENGTH_UNIT() NAMED_UNIT(*) SI_UNIT(.MILLI.,.METRE.) );
#1336 = ( NAMED_UNIT(*) PLANE_ANGLE_UNIT() SI_UNIT($,.RADIAN.) );
#1337 = ( NAMED_UNIT(*) SI_UNIT($,.STERADIAN.) SOLID_ANGLE_UNIT() );
#1338 = UNCERTAINTY_MEASURE_WITH_UNIT(LENGTH_MEASURE(2.E-06),#1335,
  'distance_accuracy_value','confusion accuracy');
#1339 = PRODUCT_RELATED_PRODUCT_CATEGORY('part',$,(#7));
ENDSEC;
END-ISO-10303-21;
