ISO-10303-21;
HEADER;
FILE_DESCRIPTION(('FreeCAD Model'),'2;1');
FILE_NAME('Open CASCADE Shape Model','2026-08-28T13:04:06',('FreeCAD'),(
    'FreeCAD'),'Open CASCADE STEP processor 7.8','FreeCAD','Unknown');
FILE_SCHEMA(('AUTOMOTIVE_DESIGN { 1 0 10303 214 1 1 1 1 }'));
ENDSEC;
DATA;
#1 = APPLICATION_PROTOCOL_DEFINITION('international standard',
  'automotive_design',2000,#2);
#2 = APPLICATION_CONTEXT(
  'core data for automotive mechanical design processes');
#3 = SHAPE_DEFINITION_REPRESENTATION(#4,#10);
#4 = PRODUCT_DEFINITION_SHAPE('','',#5);
#5 = PRODUCT_DEFINITION('design','',#6,#9);
#6 = PRODUCT_DEFINITION_FORMATION('','',#7);
#7 = PRODUCT('Open CASCADE STEP translator 7.8 85',
  'Open CASCADE STEP translator 7.8 85','',(#8));
#8 = PRODUCT_CONTEXT('',#2,'mechanical');
#9 = PRODUCT_DEFINITION_CONTEXT('part definition',#2,'design');
#10 = ADVANCED_BREP_SHAPE_REPRESENTATION('',(#11,#15),#1232);
#11 = AXIS2_PLACEMENT_3D('',#12,#13,#14);
#12 = CARTESIAN_POINT('',(0.,0.,0.));
#13 = DIRECTION('',(0.,0.,1.));
#14 = DIRECTION('',(1.,0.,-0.));
#15 = MANIFOLD_SOLID_BREP('',#16);
#16 = CLOSED_SHELL('',(#17,#738,#764,#790,#816,#842,#908,#932,#990,#1030
    ,#1047,#1064,#1081,#1090,#1124,#1141,#1153,#1170,#1182,#1199,#1223)
  );
#17 = ADVANCED_FACE('',(#18,#406,#515,#624),#733,.T.);
#18 = FACE_BOUND('',#19,.F.);
#19 = EDGE_LOOP('',(#20,#29,#81,#88,#140,#147,#199,#206,#213,#221,#230,
    #238,#245,#246,#296,#297,#347,#348,#398,#399));
#20 = ORIENTED_EDGE('',*,*,#21,.T.);
#21 = EDGE_CURVE('',#22,#24,#26,.T.);
#22 = VERTEX_POINT('',#23);
#23 = CARTESIAN_POINT('',(31.,0.,29.));
#24 = VERTEX_POINT('',#25);
#25 = CARTESIAN_POINT('',(31.,-1.E-15,25.531285546987));
#26 = B_SPLINE_CURVE_WITH_KNOTS('',1,(#27,#28),.UNSPECIFIED.,.F.,.F.,(2,
    2),(-30.,-5.),.PIECEWISE_BEZIER_KNOTS.);
#27 = CARTESIAN_POINT('',(31.,-9.8E-16,30.));
#28 = CARTESIAN_POINT('',(31.,-9.8E-16,5.));
#29 = ORIENTED_EDGE('',*,*,#30,.T.);
#30 = EDGE_CURVE('',#24,#31,#33,.T.);
#31 = VERTEX_POINT('',#32);
#32 = CARTESIAN_POINT('',(31.,-1.E-15,22.902629986392));
#33 = B_SPLINE_CURVE_WITH_KNOTS('',6,(#34,#35,#36,#37,#38,#39,#40,#41,
    #42,#43,#44,#45,#46,#47,#48,#49,#50,#51,#52,#53,#54,#55,#56,#57,#58,
    #59,#60,#61,#62,#63,#64,#65,#66,#67,#68,#69,#70,#71,#72,#73,#74,#75,
    #76,#77,#78,#79,#80),.UNSPECIFIED.,.F.,.F.,(7,5,5,5,5,5,5,5,5,7),(0.
    ,0.13004362395,0.217968805324,0.338653519247,0.425657878238,
    0.598148641966,0.751874478934,0.802480016822,0.868273325978,1.),
  .UNSPECIFIED.);
#34 = CARTESIAN_POINT('',(31.,-6.7E-16,25.531285546987));
#35 = CARTESIAN_POINT('',(31.,-9.999076373156E-02,25.531285546987));
#36 = CARTESIAN_POINT('',(30.997000633369,-0.199794672245,
    25.522167886192));
#37 = CARTESIAN_POINT('',(30.991022387808,-0.297861783585,
    25.503996911023));
#38 = CARTESIAN_POINT('',(30.98238106425,-0.392679544472,25.477201276098
    ));
#39 = CARTESIAN_POINT('',(30.971662560669,-0.482905463402,
    25.442554672971));
#40 = CARTESIAN_POINT('',(30.951343732108,-0.624676209777,
    25.373203442197));
#41 = CARTESIAN_POINT('',(30.942495039769,-0.679358221444,
    25.342115861815));
#42 = CARTESIAN_POINT('',(30.933178051732,-0.731345112147,
    25.308174985624));
#43 = CARTESIAN_POINT('',(30.923582715873,-0.780488029292,
    25.271649164406));
#44 = CARTESIAN_POINT('',(30.913893185446,-0.826677629309,
    25.232815971876));
#45 = CARTESIAN_POINT('',(30.891076025539,-0.929092034845,
    25.135886881994));
#46 = CARTESIAN_POINT('',(30.878011320609,-0.982648100345,
    25.076001190853));
#47 = CARTESIAN_POINT('',(30.865484099452,-1.030467986372,
    25.012911073744));
#48 = CARTESIAN_POINT('',(30.853830733816,-1.0725759241,24.947183624546)
  );
#49 = CARTESIAN_POINT('',(30.843311544482,-1.109054046934,
    24.879350321028));
#50 = CARTESIAN_POINT('',(30.827459901632,-1.162365503031,
    24.759849397476));
#51 = CARTESIAN_POINT('',(30.82149799146,-1.181844848521,24.708942809555
    ));
#52 = CARTESIAN_POINT('',(30.816277312668,-1.198529397536,
    24.657347638696));
#53 = CARTESIAN_POINT('',(30.811841417183,-1.212478777569,
    24.605212250451));
#54 = CARTESIAN_POINT('',(30.808216221987,-1.223753274746,
    24.552677323386));
#55 = CARTESIAN_POINT('',(30.799850842387,-1.249583651028,
    24.395197269665));
#56 = CARTESIAN_POINT('',(30.797519730149,-1.256464508722,
    24.289563023171));
#57 = CARTESIAN_POINT('',(30.798471814801,-1.253600592208,
    24.183784720291));
#58 = CARTESIAN_POINT('',(30.802564684638,-1.241378013761,
    24.078576005795));
#59 = CARTESIAN_POINT('',(30.809522428774,-1.220058935482,
    23.974649634457));
#60 = CARTESIAN_POINT('',(30.827355329222,-1.162819576473,
    23.782019726824));
#61 = CARTESIAN_POINT('',(30.837721694811,-1.128741822348,
    23.692896260022));
#62 = CARTESIAN_POINT('',(30.849789681589,-1.087606485656,
    23.605775225283));
#63 = CARTESIAN_POINT('',(30.863255628544,-1.039292677794,23.52112217024
    ));
#64 = CARTESIAN_POINT('',(30.877733678821,-0.983576646843,
    23.439618919705));
#65 = CARTESIAN_POINT('',(30.897648149147,-0.899332280163,
    23.336801349339));
#66 = CARTESIAN_POINT('',(30.90263607145,-0.877632352932,23.311780596079
    ));
#67 = CARTESIAN_POINT('',(30.907662357038,-0.855084251744,
    23.287236612615));
#68 = CARTESIAN_POINT('',(30.91270771347,-0.831675613028,23.263208087429
    ));
#69 = CARTESIAN_POINT('',(30.91775101631,-0.80739425825,23.239739091353)
  );
#70 = CARTESIAN_POINT('',(30.929293695679,-0.749509271843,
    23.187158299619));
#71 = CARTESIAN_POINT('',(30.935777530291,-0.715286084408,
    23.158458815095));
#72 = CARTESIAN_POINT('',(30.942167952465,-0.679542342457,23.13090089506
    ));
#73 = CARTESIAN_POINT('',(30.948406263547,-0.642266700905,
    23.104618666312));
#74 = CARTESIAN_POINT('',(30.954428431382,-0.603453929353,
    23.079760575298));
#75 = CARTESIAN_POINT('',(30.971652134989,-0.482324500037,
    23.009898868595));
#76 = CARTESIAN_POINT('',(30.982129587004,-0.394451588225,
    22.969129772579));
#77 = CARTESIAN_POINT('',(30.990786725404,-0.30070989771,22.936622354337
    ));
#78 = CARTESIAN_POINT('',(30.996891360444,-0.202604833397,
    22.914099881026));
#79 = CARTESIAN_POINT('',(31.,-0.101795045638,22.902629986392));
#80 = CARTESIAN_POINT('',(31.,-1.11E-15,22.902629986392));
#81 = ORIENTED_EDGE('',*,*,#82,.T.);
#82 = EDGE_CURVE('',#31,#83,#85,.T.);
#83 = VERTEX_POINT('',#84);
#84 = CARTESIAN_POINT('',(31.,-1.E-15,21.325436650034));
#85 = B_SPLINE_CURVE_WITH_KNOTS('',1,(#86,#87),.UNSPECIFIED.,.F.,.F.,(2,
    2),(-30.,-5.),.PIECEWISE_BEZIER_KNOTS.);
#86 = CARTESIAN_POINT('',(31.,-9.8E-16,30.));
#87 = CARTESIAN_POINT('',(31.,-9.8E-16,5.));
#88 = ORIENTED_EDGE('',*,*,#89,.T.);
#89 = EDGE_CURVE('',#83,#90,#92,.T.);
#90 = VERTEX_POINT('',#91);
#91 = CARTESIAN_POINT('',(31.,-1.E-15,18.696781089439));
#92 = B_SPLINE_CURVE_WITH_KNOTS('',6,(#93,#94,#95,#96,#97,#98,#99,#100,
    #101,#102,#103,#104,#105,#106,#107,#108,#109,#110,#111,#112,#113,
    #114,#115,#116,#117,#118,#119,#120,#121,#122,#123,#124,#125,#126,
    #127,#128,#129,#130,#131,#132,#133,#134,#135,#136,#137,#138,#139),
  .UNSPECIFIED.,.F.,.F.,(7,5,5,5,5,5,5,5,5,7),(0.,0.13004777132,
    0.217975756817,0.338664319634,0.425671453381,0.598167718209,
    0.750775817438,0.802328967908,0.867099423314,1.),.UNSPECIFIED.);
#93 = CARTESIAN_POINT('',(31.,-6.7E-16,21.325436650034));
#94 = CARTESIAN_POINT('',(31.,-9.999076373157E-02,21.325436650034));
#95 = CARTESIAN_POINT('',(30.997000633369,-0.199794672245,
    21.316318989239));
#96 = CARTESIAN_POINT('',(30.991022387808,-0.297861783585,21.29814801407
    ));
#97 = CARTESIAN_POINT('',(30.98238106425,-0.392679544472,21.271352379145
    ));
#98 = CARTESIAN_POINT('',(30.971662560669,-0.482905463402,
    21.236705776018));
#99 = CARTESIAN_POINT('',(30.951343732108,-0.624676209777,
    21.167354545244));
#100 = CARTESIAN_POINT('',(30.942495039769,-0.679358221444,
    21.136266964862));
#101 = CARTESIAN_POINT('',(30.933178051732,-0.731345112147,
    21.102326088671));
#102 = CARTESIAN_POINT('',(30.923582715873,-0.780488029292,
    21.065800267453));
#103 = CARTESIAN_POINT('',(30.913893185446,-0.826677629309,
    21.026967074923));
#104 = CARTESIAN_POINT('',(30.891076025539,-0.929092034845,
    20.930037985041));
#105 = CARTESIAN_POINT('',(30.878011320609,-0.982648100345,20.8701522939
    ));
#106 = CARTESIAN_POINT('',(30.865484099452,-1.030467986372,
    20.807062176791));
#107 = CARTESIAN_POINT('',(30.853830733816,-1.0725759241,20.741334727592
    ));
#108 = CARTESIAN_POINT('',(30.843311544482,-1.109054046934,
    20.673501424075));
#109 = CARTESIAN_POINT('',(30.827459901632,-1.162365503031,
    20.554000500523));
#110 = CARTESIAN_POINT('',(30.82149799146,-1.181844848521,
    20.503093912602));
#111 = CARTESIAN_POINT('',(30.816277312668,-1.198529397536,
    20.451498741743));
#112 = CARTESIAN_POINT('',(30.811841417183,-1.212478777569,
    20.399363353498));
#113 = CARTESIAN_POINT('',(30.808216221987,-1.223753274746,
    20.346828426432));
#114 = CARTESIAN_POINT('',(30.799850842387,-1.249583651028,
    20.189348372712));
#115 = CARTESIAN_POINT('',(30.797519730149,-1.256464508722,
    20.083714126218));
#116 = CARTESIAN_POINT('',(30.798471814801,-1.253600592208,
    19.977935823338));
#117 = CARTESIAN_POINT('',(30.802564684638,-1.241378013761,
    19.872727108842));
#118 = CARTESIAN_POINT('',(30.809522428774,-1.220058935482,
    19.768800737503));
#119 = CARTESIAN_POINT('',(30.827293961113,-1.163016553472,
    19.576833724454));
#120 = CARTESIAN_POINT('',(30.837570908544,-1.129237464876,
    19.488343390307));
#121 = CARTESIAN_POINT('',(30.84952727504,-1.088500882005,
    19.401822262465));
#122 = CARTESIAN_POINT('',(30.862865735562,-1.040691002311,
    19.317728146227));
#123 = CARTESIAN_POINT('',(30.877209339193,-0.985592367212,
    19.236726693692));
#124 = CARTESIAN_POINT('',(30.897081927491,-0.901790120895,
    19.133798695332));
#125 = CARTESIAN_POINT('',(30.902159523547,-0.879762996148,
    19.108265345884));
#126 = CARTESIAN_POINT('',(30.907278312225,-0.856856548764,
    19.083224030076));
#127 = CARTESIAN_POINT('',(30.912417987689,-0.833057698119,
    19.058715374072));
#128 = CARTESIAN_POINT('',(30.917556276144,-0.808353547517,
    19.034785794266));
#129 = CARTESIAN_POINT('',(30.92909238996,-0.750540156845,
    18.982215934012));
#130 = CARTESIAN_POINT('',(30.93547686461,-0.716892268322,
    18.953933896607));
#131 = CARTESIAN_POINT('',(30.941772098215,-0.681771671983,
    18.926755321272));
#132 = CARTESIAN_POINT('',(30.947922340006,-0.645166883909,
    18.900807360534));
#133 = CARTESIAN_POINT('',(30.953866788068,-0.6070720686,18.876230801578
    ));
#134 = CARTESIAN_POINT('',(30.971180778858,-0.486267003993,
    18.805884222702));
#135 = CARTESIAN_POINT('',(30.981818249773,-0.397809545768,
    18.764450542148));
#136 = CARTESIAN_POINT('',(30.990620817568,-0.303353025217,
    18.731385552559));
#137 = CARTESIAN_POINT('',(30.996834246219,-0.204428425974,
    18.708461724099));
#138 = CARTESIAN_POINT('',(31.,-0.102725932896,18.696781089439));
#139 = CARTESIAN_POINT('',(31.,-1.11E-15,18.696781089439));
#140 = ORIENTED_EDGE('',*,*,#141,.T.);
#141 = EDGE_CURVE('',#90,#142,#144,.T.);
#142 = VERTEX_POINT('',#143);
#143 = CARTESIAN_POINT('',(31.,-1.E-15,17.119587753081));
#144 = B_SPLINE_CURVE_WITH_KNOTS('',1,(#145,#146),.UNSPECIFIED.,.F.,.F.,
  (2,2),(-30.,-5.),.PIECEWISE_BEZIER_KNOTS.);
#145 = CARTESIAN_POINT('',(31.,-9.8E-16,30.));
#146 = CARTESIAN_POINT('',(31.,-9.8E-16,5.));
#147 = ORIENTED_EDGE('',*,*,#148,.T.);
#148 = EDGE_CURVE('',#142,#149,#151,.T.);
#149 = VERTEX_POINT('',#150);
#150 = CARTESIAN_POINT('',(31.,-1.E-15,14.490932192486));
#151 = B_SPLINE_CURVE_WITH_KNOTS('',6,(#152,#153,#154,#155,#156,#157,
    #158,#159,#160,#161,#162,#163,#164,#165,#166,#167,#168,#169,#170,
    #171,#172,#173,#174,#175,#176,#177,#178,#179,#180,#181,#182,#183,
    #184,#185,#186,#187,#188,#189,#190,#191,#192,#193,#194,#195,#196,
    #197,#198),.UNSPECIFIED.,.F.,.F.,(7,5,5,5,5,5,5,5,5,7),(0.,
    0.130047769211,0.217975753282,0.338664314142,0.425671446478,
    0.59816770851,0.750775825725,0.802328974452,0.867099427667,1.),
  .UNSPECIFIED.);
#152 = CARTESIAN_POINT('',(31.,-6.7E-16,17.119587753081));
#153 = CARTESIAN_POINT('',(31.,-9.999076373154E-02,17.119587753081));
#154 = CARTESIAN_POINT('',(30.997000633369,-0.199794672245,
    17.110470092286));
#155 = CARTESIAN_POINT('',(30.991022387808,-0.297861783585,
    17.092299117117));
#156 = CARTESIAN_POINT('',(30.98238106425,-0.392679544472,
    17.065503482192));
#157 = CARTESIAN_POINT('',(30.971662560669,-0.482905463402,
    17.030856879065));
#158 = CARTESIAN_POINT('',(30.951343732108,-0.624676209777,
    16.96150564829));
#159 = CARTESIAN_POINT('',(30.942495039769,-0.679358221444,
    16.930418067909));
#160 = CARTESIAN_POINT('',(30.933178051732,-0.731345112147,
    16.896477191718));
#161 = CARTESIAN_POINT('',(30.923582715873,-0.780488029292,16.8599513705
    ));
#162 = CARTESIAN_POINT('',(30.913893185446,-0.826677629309,
    16.82111817797));
#163 = CARTESIAN_POINT('',(30.891076025539,-0.929092034845,
    16.724189088088));
#164 = CARTESIAN_POINT('',(30.878011320609,-0.982648100345,
    16.664303396947));
#165 = CARTESIAN_POINT('',(30.865484099452,-1.030467986372,
    16.601213279838));
#166 = CARTESIAN_POINT('',(30.853830733816,-1.0725759241,16.535485830639
    ));
#167 = CARTESIAN_POINT('',(30.843311544482,-1.109054046934,
    16.467652527121));
#168 = CARTESIAN_POINT('',(30.827459901632,-1.162365503031,
    16.34815160357));
#169 = CARTESIAN_POINT('',(30.82149799146,-1.181844848521,
    16.297245015649));
#170 = CARTESIAN_POINT('',(30.816277312668,-1.198529397536,
    16.24564984479));
#171 = CARTESIAN_POINT('',(30.811841417183,-1.212478777569,
    16.193514456544));
#172 = CARTESIAN_POINT('',(30.808216221987,-1.223753274746,
    16.140979529479));
#173 = CARTESIAN_POINT('',(30.799850842387,-1.249583651028,
    15.983499475759));
#174 = CARTESIAN_POINT('',(30.797519730149,-1.256464508722,
    15.877865229265));
#175 = CARTESIAN_POINT('',(30.798471814801,-1.253600592208,
    15.772086926385));
#176 = CARTESIAN_POINT('',(30.802564684638,-1.241378013761,
    15.666878211889));
#177 = CARTESIAN_POINT('',(30.809522428774,-1.220058935482,
    15.56295184055));
#178 = CARTESIAN_POINT('',(30.827293962231,-1.163016549882,
    15.370984815419));
#179 = CARTESIAN_POINT('',(30.837570906045,-1.129237474154,
    15.282494512454));
#180 = CARTESIAN_POINT('',(30.849527275537,-1.088500879381,
    15.195973365937));
#181 = CARTESIAN_POINT('',(30.862865738268,-1.040690991898,
    15.111879230575));
#182 = CARTESIAN_POINT('',(30.87720933694,-0.985592376713,
    15.030877808408));
#183 = CARTESIAN_POINT('',(30.897081927491,-0.901790120895,
    14.927949798378));
#184 = CARTESIAN_POINT('',(30.902159523547,-0.879762996148,
    14.902416448931));
#185 = CARTESIAN_POINT('',(30.907278312225,-0.856856548764,
    14.877375133123));
#186 = CARTESIAN_POINT('',(30.912417987689,-0.833057698119,
    14.852866477119));
#187 = CARTESIAN_POINT('',(30.917556276144,-0.808353547517,
    14.828936897313));
#188 = CARTESIAN_POINT('',(30.92909238996,-0.750540156846,14.77636703706
    ));
#189 = CARTESIAN_POINT('',(30.93547686461,-0.716892268322,
    14.748084999654));
#190 = CARTESIAN_POINT('',(30.941772098215,-0.681771671982,
    14.720906424318));
#191 = CARTESIAN_POINT('',(30.947922340006,-0.645166883909,
    14.694958463581));
#192 = CARTESIAN_POINT('',(30.953866788068,-0.607072068601,
    14.670381904626));
#193 = CARTESIAN_POINT('',(30.97118077887,-0.486267003903,
    14.600035325697));
#194 = CARTESIAN_POINT('',(30.981818249764,-0.397809545793,
    14.558601645232));
#195 = CARTESIAN_POINT('',(30.99062081756,-0.303353025315,
    14.525536655633));
#196 = CARTESIAN_POINT('',(30.996834246226,-0.204428425997,
    14.502612827124));
#197 = CARTESIAN_POINT('',(31.,-0.102725932796,14.490932192486));
#198 = CARTESIAN_POINT('',(31.,-1.11E-15,14.490932192486));
#199 = ORIENTED_EDGE('',*,*,#200,.T.);
#200 = EDGE_CURVE('',#149,#201,#203,.T.);
#201 = VERTEX_POINT('',#202);
#202 = CARTESIAN_POINT('',(31.,2.E-15,9.));
#203 = B_SPLINE_CURVE_WITH_KNOTS('',1,(#204,#205),.UNSPECIFIED.,.F.,.F.,
  (2,2),(-30.,-5.),.PIECEWISE_BEZIER_KNOTS.);
#204 = CARTESIAN_POINT('',(31.,-9.8E-16,30.));
#205 = CARTESIAN_POINT('',(31.,-9.8E-16,5.));
#206 = ORIENTED_EDGE('',*,*,#207,.T.);
#207 = EDGE_CURVE('',#201,#208,#210,.T.);
#208 = VERTEX_POINT('',#209);
#209 = CARTESIAN_POINT('',(31.,2.E-15,5.));
#210 = B_SPLINE_CURVE_WITH_KNOTS('',1,(#211,#212),.UNSPECIFIED.,.F.,.F.,
  (2,2),(-30.,-5.),.PIECEWISE_BEZIER_KNOTS.);
#211 = CARTESIAN_POINT('',(31.,-9.8E-16,30.));
#212 = CARTESIAN_POINT('',(31.,-9.8E-16,5.));
#213 = ORIENTED_EDGE('',*,*,#214,.F.);
#214 = EDGE_CURVE('',#215,#208,#217,.T.);
#215 = VERTEX_POINT('',#216);
#216 = CARTESIAN_POINT('',(31.,1.E-15,0.));
#217 = LINE('',#218,#219);
#218 = CARTESIAN_POINT('',(31.,0.,0.));
#219 = VECTOR('',#220,1.);
#220 = DIRECTION('',(0.,0.,1.));
#221 = ORIENTED_EDGE('',*,*,#222,.F.);
#222 = EDGE_CURVE('',#223,#215,#225,.T.);
#223 = VERTEX_POINT('',#224);
#224 = CARTESIAN_POINT('',(23.,-2.E-15,0.));
#225 = CIRCLE('',#226,4.);
#226 = AXIS2_PLACEMENT_3D('',#227,#228,#229);
#227 = CARTESIAN_POINT('',(27.,0.,0.));
#228 = DIRECTION('',(0.,0.,1.));
#229 = DIRECTION('',(1.,0.,0.));
#230 = ORIENTED_EDGE('',*,*,#231,.T.);
#231 = EDGE_CURVE('',#223,#232,#234,.T.);
#232 = VERTEX_POINT('',#233);
#233 = CARTESIAN_POINT('',(23.,2.E-15,9.));
#234 = LINE('',#235,#236);
#235 = CARTESIAN_POINT('',(23.,1.78E-15,5.));
#236 = VECTOR('',#237,1.);
#237 = DIRECTION('',(0.,0.,1.));
#238 = ORIENTED_EDGE('',*,*,#239,.T.);
#239 = EDGE_CURVE('',#232,#201,#240,.T.);
#240 = CIRCLE('',#241,4.);
#241 = AXIS2_PLACEMENT_3D('',#242,#243,#244);
#242 = CARTESIAN_POINT('',(27.,0.,9.));
#243 = DIRECTION('',(0.,0.,-1.));
#244 = DIRECTION('',(1.,0.,0.));
#245 = ORIENTED_EDGE('',*,*,#200,.F.);
#246 = ORIENTED_EDGE('',*,*,#247,.T.);
#247 = EDGE_CURVE('',#149,#142,#248,.T.);
#248 = B_SPLINE_CURVE_WITH_KNOTS('',6,(#249,#250,#251,#252,#253,#254,
    #255,#256,#257,#258,#259,#260,#261,#262,#263,#264,#265,#266,#267,
    #268,#269,#270,#271,#272,#273,#274,#275,#276,#277,#278,#279,#280,
    #281,#282,#283,#284,#285,#286,#287,#288,#289,#290,#291,#292,#293,
    #294,#295),.UNSPECIFIED.,.F.,.F.,(7,5,5,5,5,5,5,5,5,7),(0.,
    0.132902512961,0.197042792997,0.248868629335,0.402281869553,
    0.573782690161,0.660800452886,0.781208190428,0.867714621151,1.),
  .UNSPECIFIED.);
#249 = CARTESIAN_POINT('',(31.,-6.4E-16,14.490932192486));
#250 = CARTESIAN_POINT('',(31.,0.102725932796,14.490932192486));
#251 = CARTESIAN_POINT('',(30.996834246226,0.204428425997,
    14.502612827124));
#252 = CARTESIAN_POINT('',(30.99062081756,0.303353025315,14.525536655633
    ));
#253 = CARTESIAN_POINT('',(30.981818249764,0.397809545793,
    14.558601645232));
#254 = CARTESIAN_POINT('',(30.97118077887,0.486267003903,14.600035325697
    ));
#255 = CARTESIAN_POINT('',(30.953922066925,0.606686370931,
    14.670157307159));
#256 = CARTESIAN_POINT('',(30.948038127166,0.644424578185,
    14.694479794797));
#257 = CARTESIAN_POINT('',(30.9419517401,0.680701725514,14.720148650443)
  );
#258 = CARTESIAN_POINT('',(30.93572201427,0.715523285546,14.747026949341
    ));
#259 = CARTESIAN_POINT('',(30.929403210205,0.748900191752,
    14.774990841979));
#260 = CARTESIAN_POINT('',(30.91790628066,0.80666172194,14.827311531191)
  );
#261 = CARTESIAN_POINT('',(30.912741145406,0.831547262074,
    14.851334436788));
#262 = CARTESIAN_POINT('',(30.907573604914,0.855517375072,14.87594467316
    ));
#263 = CARTESIAN_POINT('',(30.90242635061,0.878585161478,14.901094907645
    ));
#264 = CARTESIAN_POINT('',(30.897320070543,0.90076387344,14.92674367254)
  );
#265 = CARTESIAN_POINT('',(30.877334597284,0.985127519613,
    15.030150391022));
#266 = CARTESIAN_POINT('',(30.862907278342,1.040563695008,15.11156196982
    ));
#267 = CARTESIAN_POINT('',(30.849494720782,1.088632510472,
    15.196100052583));
#268 = CARTESIAN_POINT('',(30.837479780129,1.12955368945,15.283087903956
    ));
#269 = CARTESIAN_POINT('',(30.827163890328,1.163445515162,
    15.372062342809));
#270 = CARTESIAN_POINT('',(30.809462737193,1.220237500303,
    15.563968829512));
#271 = CARTESIAN_POINT('',(30.80256672848,1.241368481573,15.667302314743
    ));
#272 = CARTESIAN_POINT('',(30.798503443572,1.253506278913,
    15.771900834615));
#273 = CARTESIAN_POINT('',(30.79754384395,1.256392649093,15.877063908077
    ));
#274 = CARTESIAN_POINT('',(30.799828318638,1.249648206231,
    15.982089345068));
#275 = CARTESIAN_POINT('',(30.80808499595,1.224160932168,16.138995381458
    ));
#276 = CARTESIAN_POINT('',(30.811685054778,1.212968826993,
    16.191547871397));
#277 = CARTESIAN_POINT('',(30.816096530957,1.199102788185,
    16.243704135009));
#278 = CARTESIAN_POINT('',(30.821293826404,1.18250249038,16.29532366807)
  );
#279 = CARTESIAN_POINT('',(30.827233728427,1.163108230237,
    16.346258299702));
#280 = CARTESIAN_POINT('',(30.843014475753,1.110077158738,
    16.465665311085));
#281 = CARTESIAN_POINT('',(30.853480025287,1.073821653894,
    16.533388742571));
#282 = CARTESIAN_POINT('',(30.865079064764,1.031964586698,
    16.599026555883));
#283 = CARTESIAN_POINT('',(30.877554404908,0.984423502644,
    16.662051662868));
#284 = CARTESIAN_POINT('',(30.890573410865,0.931173039883,
    16.721901697635));
#285 = CARTESIAN_POINT('',(30.91319638675,0.829924876466,16.818262269363
    ));
#286 = CARTESIAN_POINT('',(30.922730290514,0.784667956731,16.8566009445)
  );
#287 = CARTESIAN_POINT('',(30.932181891211,0.736549093264,
    16.892720389017));
#288 = CARTESIAN_POINT('',(30.941376695559,0.685669563903,
    16.926357042183));
#289 = CARTESIAN_POINT('',(30.950134312138,0.632167373744,
    16.957255407345));
#290 = CARTESIAN_POINT('',(30.970733900181,0.490660302097,
    17.027852068974));
#291 = CARTESIAN_POINT('',(30.981781652471,0.399200472114,
    17.063643863625));
#292 = CARTESIAN_POINT('',(30.990710639306,0.302925530419,
    17.091351629005));
#293 = CARTESIAN_POINT('',(30.996896039408,0.203236710707,
    17.110152110892));
#294 = CARTESIAN_POINT('',(31.,0.101719393751,17.119587753081));
#295 = CARTESIAN_POINT('',(31.,-2.6E-16,17.119587753081));
#296 = ORIENTED_EDGE('',*,*,#141,.F.);
#297 = ORIENTED_EDGE('',*,*,#298,.T.);
#298 = EDGE_CURVE('',#90,#83,#299,.T.);
#299 = B_SPLINE_CURVE_WITH_KNOTS('',6,(#300,#301,#302,#303,#304,#305,
    #306,#307,#308,#309,#310,#311,#312,#313,#314,#315,#316,#317,#318,
    #319,#320,#321,#322,#323,#324,#325,#326,#327,#328,#329,#330,#331,
    #332,#333,#334,#335,#336,#337,#338,#339,#340,#341,#342,#343,#344,
    #345,#346),.UNSPECIFIED.,.F.,.F.,(7,5,5,5,5,5,5,5,5,7),(0.,
    0.132902512848,0.197042792892,0.248868629236,0.402281869475,
    0.573782690104,0.660800452841,0.7812081904,0.867714621133,1.),
  .UNSPECIFIED.);
#300 = CARTESIAN_POINT('',(31.,-6.4E-16,18.696781089439));
#301 = CARTESIAN_POINT('',(31.,0.102725932885,18.696781089439));
#302 = CARTESIAN_POINT('',(30.99683424622,0.204428425977,18.708461724097
    ));
#303 = CARTESIAN_POINT('',(30.990620817567,0.303353025228,
    18.731385552562));
#304 = CARTESIAN_POINT('',(30.981818249772,0.397809545771,
    18.764450542152));
#305 = CARTESIAN_POINT('',(30.971180778859,0.486267003983,
    18.805884222696));
#306 = CARTESIAN_POINT('',(30.953922066925,0.606686370931,
    18.876006204112));
#307 = CARTESIAN_POINT('',(30.948038127166,0.644424578185,18.90032869175
    ));
#308 = CARTESIAN_POINT('',(30.9419517401,0.680701725514,18.925997547396)
  );
#309 = CARTESIAN_POINT('',(30.93572201427,0.715523285546,18.952875846294
    ));
#310 = CARTESIAN_POINT('',(30.929403210205,0.748900191752,
    18.980839738932));
#311 = CARTESIAN_POINT('',(30.91790628066,0.80666172194,19.033160428144)
  );
#312 = CARTESIAN_POINT('',(30.912741145406,0.831547262074,
    19.057183333742));
#313 = CARTESIAN_POINT('',(30.907573604914,0.855517375072,
    19.081793570113));
#314 = CARTESIAN_POINT('',(30.90242635061,0.878585161478,19.106943804598
    ));
#315 = CARTESIAN_POINT('',(30.897320070543,0.90076387344,19.132592569493
    ));
#316 = CARTESIAN_POINT('',(30.877334597284,0.985127519613,
    19.235999287975));
#317 = CARTESIAN_POINT('',(30.862907278342,1.040563695008,
    19.317410866773));
#318 = CARTESIAN_POINT('',(30.849494720782,1.088632510472,
    19.401948949536));
#319 = CARTESIAN_POINT('',(30.837479780129,1.12955368945,19.488936800909
    ));
#320 = CARTESIAN_POINT('',(30.827163890328,1.163445515162,
    19.577911239762));
#321 = CARTESIAN_POINT('',(30.809462737193,1.220237500303,
    19.769817726465));
#322 = CARTESIAN_POINT('',(30.80256672848,1.241368481573,19.873151211695
    ));
#323 = CARTESIAN_POINT('',(30.798503443572,1.253506278914,
    19.977749731568));
#324 = CARTESIAN_POINT('',(30.79754384395,1.256392649093,20.08291280503)
  );
#325 = CARTESIAN_POINT('',(30.799828318638,1.249648206231,
    20.187938242021));
#326 = CARTESIAN_POINT('',(30.80808499595,1.224160932168,20.344844278411
    ));
#327 = CARTESIAN_POINT('',(30.811685054778,1.212968826993,20.39739676835
    ));
#328 = CARTESIAN_POINT('',(30.816096530957,1.199102788185,
    20.449553031962));
#329 = CARTESIAN_POINT('',(30.821293826404,1.18250249038,20.501172565024
    ));
#330 = CARTESIAN_POINT('',(30.827233728427,1.163108230237,
    20.552107196655));
#331 = CARTESIAN_POINT('',(30.843014475753,1.110077158738,
    20.671514208038));
#332 = CARTESIAN_POINT('',(30.853480025287,1.073821653894,
    20.739237639524));
#333 = CARTESIAN_POINT('',(30.865079064764,1.031964586698,
    20.804875452836));
#334 = CARTESIAN_POINT('',(30.877554404908,0.984423502644,
    20.867900559821));
#335 = CARTESIAN_POINT('',(30.890573410865,0.931173039883,
    20.927750594588));
#336 = CARTESIAN_POINT('',(30.91319638675,0.829924876466,21.024111166316
    ));
#337 = CARTESIAN_POINT('',(30.922730290514,0.784667956731,
    21.062449841453));
#338 = CARTESIAN_POINT('',(30.932181891211,0.736549093264,21.09856928597
    ));
#339 = CARTESIAN_POINT('',(30.941376695559,0.685669563903,
    21.132205939136));
#340 = CARTESIAN_POINT('',(30.950134312138,0.632167373744,
    21.163104304298));
#341 = CARTESIAN_POINT('',(30.970733900181,0.490660302097,
    21.233700965927));
#342 = CARTESIAN_POINT('',(30.981781652471,0.399200472114,
    21.269492760578));
#343 = CARTESIAN_POINT('',(30.990710639306,0.302925530419,
    21.297200525958));
#344 = CARTESIAN_POINT('',(30.996896039408,0.203236710707,
    21.316001007845));
#345 = CARTESIAN_POINT('',(31.,0.101719393751,21.325436650034));
#346 = CARTESIAN_POINT('',(31.,-2.6E-16,21.325436650034));
#347 = ORIENTED_EDGE('',*,*,#82,.F.);
#348 = ORIENTED_EDGE('',*,*,#349,.T.);
#349 = EDGE_CURVE('',#31,#24,#350,.T.);
#350 = B_SPLINE_CURVE_WITH_KNOTS('',6,(#351,#352,#353,#354,#355,#356,
    #357,#358,#359,#360,#361,#362,#363,#364,#365,#366,#367,#368,#369,
    #370,#371,#372,#373,#374,#375,#376,#377,#378,#379,#380,#381,#382,
    #383,#384,#385,#386,#387,#388,#389,#390,#391,#392,#393,#394,#395,
    #396,#397),.UNSPECIFIED.,.F.,.F.,(7,5,5,5,5,5,5,5,5,7),(0.,
    0.132899791886,0.198094189555,0.248876877495,0.402279067833,
    0.573780692327,0.660798862936,0.781207164872,0.867714001081,1.),
  .UNSPECIFIED.);
#351 = CARTESIAN_POINT('',(31.,-6.4E-16,22.902629986392));
#352 = CARTESIAN_POINT('',(31.,0.102725932796,22.902629986392));
#353 = CARTESIAN_POINT('',(30.996834246226,0.204428425997,22.91431062103
    ));
#354 = CARTESIAN_POINT('',(30.99062081756,0.303353025315,22.937234449539
    ));
#355 = CARTESIAN_POINT('',(30.981818249764,0.397809545793,
    22.970299439138));
#356 = CARTESIAN_POINT('',(30.97118077887,0.486267003903,23.011733119603
    ));
#357 = CARTESIAN_POINT('',(30.95382962127,0.607331392836,23.082230706876
    ));
#358 = CARTESIAN_POINT('',(30.9478444266,0.645666059746,23.106978397036)
  );
#359 = CARTESIAN_POINT('',(30.941651154834,0.682491158677,
    23.133114542786));
#360 = CARTESIAN_POINT('',(30.935311787323,0.717812633433,
    23.160495639634));
#361 = CARTESIAN_POINT('',(30.92888312125,0.751642220477,23.188992156415
    ));
#362 = CARTESIAN_POINT('',(30.917379045758,0.809198323252,23.2414637513)
  );
#363 = CARTESIAN_POINT('',(30.912317689356,0.833509913892,
    23.265050251776));
#364 = CARTESIAN_POINT('',(30.907255358924,0.856943309362,23.28919789991
    ));
#365 = CARTESIAN_POINT('',(30.902213323451,0.879510848692,
    23.313862393633));
#366 = CARTESIAN_POINT('',(30.897211008385,0.901225003562,
    23.339004834188));
#367 = CARTESIAN_POINT('',(30.877328310787,0.985151783594,
    23.441883524347));
#368 = CARTESIAN_POINT('',(30.862902671292,1.040580129097,
    23.523288943406));
#369 = CARTESIAN_POINT('',(30.849491777593,1.088642457759,
    23.607819374254));
#370 = CARTESIAN_POINT('',(30.837478188778,1.12955894927,23.694799566963
    ));
#371 = CARTESIAN_POINT('',(30.827163249162,1.163447572262,
    23.783767087888));
#372 = CARTESIAN_POINT('',(30.809462737193,1.220237500303,
    23.975666623418));
#373 = CARTESIAN_POINT('',(30.80256672848,1.241368481573,24.079000108649
    ));
#374 = CARTESIAN_POINT('',(30.798503443572,1.253506278913,
    24.183598628521));
#375 = CARTESIAN_POINT('',(30.79754384395,1.256392649093,24.288761701984
    ));
#376 = CARTESIAN_POINT('',(30.799828318638,1.249648206231,
    24.393787138974));
#377 = CARTESIAN_POINT('',(30.80808499595,1.224160932168,24.550693175364
    ));
#378 = CARTESIAN_POINT('',(30.811685054778,1.212968826993,
    24.603245665303));
#379 = CARTESIAN_POINT('',(30.816096530957,1.199102788185,
    24.655401928915));
#380 = CARTESIAN_POINT('',(30.821293826404,1.18250249038,24.707021461977
    ));
#381 = CARTESIAN_POINT('',(30.827233728427,1.163108230237,
    24.757956093608));
#382 = CARTESIAN_POINT('',(30.843014475753,1.110077158738,
    24.877363104991));
#383 = CARTESIAN_POINT('',(30.853480025287,1.073821653894,
    24.945086536477));
#384 = CARTESIAN_POINT('',(30.865079064764,1.031964586698,
    25.010724349789));
#385 = CARTESIAN_POINT('',(30.877554404908,0.984423502644,
    25.073749456774));
#386 = CARTESIAN_POINT('',(30.890573410865,0.931173039883,
    25.133599491541));
#387 = CARTESIAN_POINT('',(30.91319638675,0.829924876466,25.229960063269
    ));
#388 = CARTESIAN_POINT('',(30.922730290514,0.784667956731,
    25.268298738406));
#389 = CARTESIAN_POINT('',(30.932181891211,0.736549093264,
    25.304418182923));
#390 = CARTESIAN_POINT('',(30.941376695559,0.685669563903,
    25.338054836089));
#391 = CARTESIAN_POINT('',(30.950134312138,0.632167373744,
    25.368953201251));
#392 = CARTESIAN_POINT('',(30.970733900181,0.490660302097,25.43954986288
    ));
#393 = CARTESIAN_POINT('',(30.981781652471,0.399200472114,
    25.475341657531));
#394 = CARTESIAN_POINT('',(30.990710639306,0.302925530419,
    25.503049422911));
#395 = CARTESIAN_POINT('',(30.996896039408,0.203236710707,
    25.521849904798));
#396 = CARTESIAN_POINT('',(31.,0.101719393751,25.531285546987));
#397 = CARTESIAN_POINT('',(31.,-2.6E-16,25.531285546987));
#398 = ORIENTED_EDGE('',*,*,#21,.F.);
#399 = ORIENTED_EDGE('',*,*,#400,.T.);
#400 = EDGE_CURVE('',#22,#22,#401,.T.);
#401 = CIRCLE('',#402,4.);
#402 = AXIS2_PLACEMENT_3D('',#403,#404,#405);
#403 = CARTESIAN_POINT('',(27.,0.,29.));
#404 = DIRECTION('',(0.,0.,1.));
#405 = DIRECTION('',(1.,0.,0.));
#406 = FACE_BOUND('',#407,.F.);
#407 = EDGE_LOOP('',(#408));
#408 = ORIENTED_EDGE('',*,*,#409,.F.);
#409 = EDGE_CURVE('',#410,#410,#412,.T.);
#410 = VERTEX_POINT('',#411);
#411 = CARTESIAN_POINT('',(23.,-1.E-15,25.501987556255));
#412 = B_SPLINE_CURVE_WITH_KNOTS('',6,(#413,#414,#415,#416,#417,#418,
    #419,#420,#421,#422,#423,#424,#425,#426,#427,#428,#429,#430,#431,
    #432,#433,#434,#435,#436,#437,#438,#439,#440,#441,#442,#443,#444,
    #445,#446,#447,#448,#449,#450,#451,#452,#453,#454,#455,#456,#457,
    #458,#459,#460,#461,#462,#463,#464,#465,#466,#467,#468,#469,#470,
    #471,#472,#473,#474,#475,#476,#477,#478,#479,#480,#481,#482,#483,
    #484,#485,#486,#487,#488,#489,#490,#491,#492,#493,#494,#495,#496,
    #497,#498,#499,#500,#501,#502,#503,#504,#505,#506,#507,#508,#509,
    #510,#511,#512,#513,#514),.UNSPECIFIED.,.T.,.F.,(7,5,5,5,5,5,5,5,5,5
    ,5,5,5,5,5,5,5,5,5,5,7),(0.,6.499710185621E-02,0.108942985521,
    0.169262410689,0.212748058131,0.298960664323,0.375233293979,
    0.400999251205,0.433371138632,0.458814607232,0.500079704693,
    0.5280374567,0.566750446305,0.59879845488,0.624693490673,
    0.701347175926,0.7870384103,0.830517266401,0.890679588782,
    0.933902955315,1.),.UNSPECIFIED.);
#413 = CARTESIAN_POINT('',(23.,-4.4E-16,25.501987556255));
#414 = CARTESIAN_POINT('',(23.,9.999076373153E-02,25.501987556255));
#415 = CARTESIAN_POINT('',(23.002999366631,0.199794672245,25.51110521705
    ));
#416 = CARTESIAN_POINT('',(23.008977612192,0.297861783585,25.52927619222
    ));
#417 = CARTESIAN_POINT('',(23.01761893575,0.392679544472,25.556071827145
    ));
#418 = CARTESIAN_POINT('',(23.028337439331,0.482905463402,
    25.590718430271));
#419 = CARTESIAN_POINT('',(23.048656267892,0.624676209777,
    25.660069661046));
#420 = CARTESIAN_POINT('',(23.057504960231,0.679358221444,
    25.691157241427));
#421 = CARTESIAN_POINT('',(23.066821948268,0.731345112147,
    25.725098117618));
#422 = CARTESIAN_POINT('',(23.076417284127,0.780488029292,
    25.761623938836));
#423 = CARTESIAN_POINT('',(23.086106814554,0.826677629309,
    25.800457131366));
#424 = CARTESIAN_POINT('',(23.108923974461,0.929092034845,
    25.897386221248));
#425 = CARTESIAN_POINT('',(23.121988679391,0.982648100345,
    25.957271912389));
#426 = CARTESIAN_POINT('',(23.134515900548,1.030467986372,
    26.020362029498));
#427 = CARTESIAN_POINT('',(23.146169266184,1.0725759241,26.086089478697)
  );
#428 = CARTESIAN_POINT('',(23.156688455518,1.109054046934,
    26.153922782215));
#429 = CARTESIAN_POINT('',(23.172540098368,1.162365503031,
    26.273423705767));
#430 = CARTESIAN_POINT('',(23.17850200854,1.181844848521,26.324330293687
    ));
#431 = CARTESIAN_POINT('',(23.183722687332,1.198529397536,
    26.375925464546));
#432 = CARTESIAN_POINT('',(23.188158582817,1.212478777569,
    26.428060852792));
#433 = CARTESIAN_POINT('',(23.191783778013,1.223753274746,
    26.480595779857));
#434 = CARTESIAN_POINT('',(23.200149157613,1.249583651028,
    26.638075833577));
#435 = CARTESIAN_POINT('',(23.202480269851,1.256464508722,
    26.743710080072));
#436 = CARTESIAN_POINT('',(23.201528185199,1.253600592208,
    26.849488382951));
#437 = CARTESIAN_POINT('',(23.197435315362,1.241378013761,
    26.954697097447));
#438 = CARTESIAN_POINT('',(23.190477571226,1.220058935482,
    27.058623468786));
#439 = CARTESIAN_POINT('',(23.172706037769,1.163016549882,
    27.250590493917));
#440 = CARTESIAN_POINT('',(23.162429093955,1.129237474154,
    27.339080796882));
#441 = CARTESIAN_POINT('',(23.150472724463,1.088500879381,
    27.425601943399));
#442 = CARTESIAN_POINT('',(23.137134261732,1.040690991898,
    27.509696078761));
#443 = CARTESIAN_POINT('',(23.12279066306,0.985592376713,27.590697500928
    ));
#444 = CARTESIAN_POINT('',(23.102918072509,0.901790120895,
    27.693625510958));
#445 = CARTESIAN_POINT('',(23.097840476453,0.879762996148,
    27.719158860405));
#446 = CARTESIAN_POINT('',(23.092721687775,0.856856548764,
    27.744200176213));
#447 = CARTESIAN_POINT('',(23.087582012311,0.833057698119,
    27.768708832217));
#448 = CARTESIAN_POINT('',(23.082443723856,0.808353547517,
    27.792638412023));
#449 = CARTESIAN_POINT('',(23.07090761004,0.750540156845,27.845208272277
    ));
#450 = CARTESIAN_POINT('',(23.06452313539,0.716892268322,27.873490309682
    ));
#451 = CARTESIAN_POINT('',(23.058227901785,0.681771671983,
    27.900668885017));
#452 = CARTESIAN_POINT('',(23.052077659994,0.645166883909,
    27.926616845755));
#453 = CARTESIAN_POINT('',(23.046133211932,0.6070720686,27.951193404711)
  );
#454 = CARTESIAN_POINT('',(23.036000952858,0.536376165676,27.99236067636
    ));
#455 = CARTESIAN_POINT('',(23.03170846531,0.504338345431,28.009538177469
    ));
#456 = CARTESIAN_POINT('',(23.027618881131,0.471402767086,
    28.025683998605));
#457 = CARTESIAN_POINT('',(23.023767984708,0.437601526563,
    28.040708119341));
#458 = CARTESIAN_POINT('',(23.020190973666,0.402970712558,
    28.054522725254));
#459 = CARTESIAN_POINT('',(23.011621468517,0.310104529058,
    28.087346737957));
#460 = CARTESIAN_POINT('',(23.007120254566,0.250462838435,
    28.104286560996));
#461 = CARTESIAN_POINT('',(23.00360234685,0.189107342522,28.117353959959
    ));
#462 = CARTESIAN_POINT('',(23.00120329805,0.126554665722,28.126202305888
    ));
#463 = CARTESIAN_POINT('',(23.,6.333982401893E-02,28.130643116851));
#464 = CARTESIAN_POINT('',(23.,-4.291372615115E-02,28.130643116851));
#465 = CARTESIAN_POINT('',(23.000552441748,-8.58073666752E-02,
    28.128604693297));
#466 = CARTESIAN_POINT('',(23.001656522007,-0.128495229246,
    28.124531460574));
#467 = CARTESIAN_POINT('',(23.003295579624,-0.170791642163,
    28.118465815835));
#468 = CARTESIAN_POINT('',(23.005438289197,-0.212513718321,
    28.110489268957));
#469 = CARTESIAN_POINT('',(23.011642232358,-0.310215672677,
    28.087199143126));
#470 = CARTESIAN_POINT('',(23.016120539272,-0.365444238591,
    28.070258207479));
#471 = CARTESIAN_POINT('',(23.021369136995,-0.418962378004,
    28.050173856756));
#472 = CARTESIAN_POINT('',(23.027264675524,-0.470582200409,
    28.027248749276));
#473 = CARTESIAN_POINT('',(23.033673652541,-0.52013787212,
    28.001816475272));
#474 = CARTESIAN_POINT('',(23.046077933075,-0.606686370931,
    27.951418002178));
#475 = CARTESIAN_POINT('',(23.051961872834,-0.644424578185,
    27.927095514539));
#476 = CARTESIAN_POINT('',(23.0580482599,-0.680701725514,27.901426658893
    ));
#477 = CARTESIAN_POINT('',(23.06427798573,-0.715523285546,
    27.874548359995));
#478 = CARTESIAN_POINT('',(23.070596789795,-0.748900191752,
    27.846584467357));
#479 = CARTESIAN_POINT('',(23.08209371934,-0.80666172194,27.794263778145
    ));
#480 = CARTESIAN_POINT('',(23.087258854594,-0.831547262074,
    27.770240872548));
#481 = CARTESIAN_POINT('',(23.092426395086,-0.855517375072,
    27.745630636176));
#482 = CARTESIAN_POINT('',(23.09757364939,-0.878585161478,
    27.720480401691));
#483 = CARTESIAN_POINT('',(23.102679929457,-0.90076387344,
    27.694831636796));
#484 = CARTESIAN_POINT('',(23.122665402716,-0.985127519613,
    27.591424918314));
#485 = CARTESIAN_POINT('',(23.137092721658,-1.040563695008,
    27.510013339517));
#486 = CARTESIAN_POINT('',(23.150505279218,-1.088632510472,
    27.425475256754));
#487 = CARTESIAN_POINT('',(23.162520219871,-1.12955368945,
    27.338487405381));
#488 = CARTESIAN_POINT('',(23.172836109672,-1.163445515162,
    27.249512966527));
#489 = CARTESIAN_POINT('',(23.190537262807,-1.220237500303,
    27.057606479824));
#490 = CARTESIAN_POINT('',(23.19743327152,-1.241368481573,
    26.954272994593));
#491 = CARTESIAN_POINT('',(23.201496556428,-1.253506278913,
    26.849674474721));
#492 = CARTESIAN_POINT('',(23.20245615605,-1.256392649093,
    26.744511401259));
#493 = CARTESIAN_POINT('',(23.200171681362,-1.249648206231,
    26.639485964268));
#494 = CARTESIAN_POINT('',(23.19191500405,-1.224160932168,
    26.482579927878));
#495 = CARTESIAN_POINT('',(23.188314945222,-1.212968826993,
    26.430027437939));
#496 = CARTESIAN_POINT('',(23.183903469043,-1.199102788185,
    26.377871174327));
#497 = CARTESIAN_POINT('',(23.178706173596,-1.18250249038,
    26.326251641266));
#498 = CARTESIAN_POINT('',(23.172766271573,-1.163108230237,
    26.275317009634));
#499 = CARTESIAN_POINT('',(23.156985524247,-1.110077158738,
    26.155909998252));
#500 = CARTESIAN_POINT('',(23.146519974713,-1.073821653894,
    26.088186566765));
#501 = CARTESIAN_POINT('',(23.134920935236,-1.031964586698,
    26.022548753453));
#502 = CARTESIAN_POINT('',(23.122445595092,-0.984423502644,
    25.959523646469));
#503 = CARTESIAN_POINT('',(23.109426589135,-0.931173039883,
    25.899673611701));
#504 = CARTESIAN_POINT('',(23.08680361325,-0.829924876466,
    25.803313039974));
#505 = CARTESIAN_POINT('',(23.077269709486,-0.784667956731,
    25.764974364837));
#506 = CARTESIAN_POINT('',(23.067818108789,-0.736549093265,
    25.728854920319));
#507 = CARTESIAN_POINT('',(23.058623304441,-0.685669563903,
    25.695218267154));
#508 = CARTESIAN_POINT('',(23.049865687862,-0.632167373744,
    25.664319901992));
#509 = CARTESIAN_POINT('',(23.029266099819,-0.490660302097,
    25.593723240362));
#510 = CARTESIAN_POINT('',(23.018218347529,-0.399200472114,
    25.557931445711));
#511 = CARTESIAN_POINT('',(23.009289360694,-0.302925530419,
    25.530223680331));
#512 = CARTESIAN_POINT('',(23.003103960592,-0.203236710707,
    25.511423198444));
#513 = CARTESIAN_POINT('',(23.,-0.101719393751,25.501987556255));
#514 = CARTESIAN_POINT('',(23.,-4.4E-16,25.501987556255));
#515 = FACE_BOUND('',#516,.F.);
#516 = EDGE_LOOP('',(#517));
#517 = ORIENTED_EDGE('',*,*,#518,.F.);
#518 = EDGE_CURVE('',#519,#519,#521,.T.);
#519 = VERTEX_POINT('',#520);
#520 = CARTESIAN_POINT('',(23.,-1.E-15,21.296138659302));
#521 = B_SPLINE_CURVE_WITH_KNOTS('',6,(#522,#523,#524,#525,#526,#527,
    #528,#529,#530,#531,#532,#533,#534,#535,#536,#537,#538,#539,#540,
    #541,#542,#543,#544,#545,#546,#547,#548,#549,#550,#551,#552,#553,
    #554,#555,#556,#557,#558,#559,#560,#561,#562,#563,#564,#565,#566,
    #567,#568,#569,#570,#571,#572,#573,#574,#575,#576,#577,#578,#579,
    #580,#581,#582,#583,#584,#585,#586,#587,#588,#589,#590,#591,#592,
    #593,#594,#595,#596,#597,#598,#599,#600,#601,#602,#603,#604,#605,
    #606,#607,#608,#609,#610,#611,#612,#613,#614,#615,#616,#617,#618,
    #619,#620,#621,#622,#623),.UNSPECIFIED.,.T.,.F.,(7,5,5,5,5,5,5,5,5,5
    ,5,5,5,5,5,5,5,5,5,5,7),(0.,6.499710185918E-02,0.108942985526,
    0.169262410696,0.212748058141,0.298960664337,0.375233293997,
    0.400999251224,0.433371138651,0.45881460725,0.50007970471,
    0.528037456715,0.566750446319,0.598798454892,0.624693490685,
    0.701347175936,0.787038410306,0.830517266406,0.890679588786,
    0.933902955317,1.),.UNSPECIFIED.);
#522 = CARTESIAN_POINT('',(23.,-4.4E-16,21.296138659302));
#523 = CARTESIAN_POINT('',(23.,9.999076373157E-02,21.296138659302));
#524 = CARTESIAN_POINT('',(23.002999366631,0.199794672245,
    21.305256320097));
#525 = CARTESIAN_POINT('',(23.008977612192,0.297861783585,
    21.323427295267));
#526 = CARTESIAN_POINT('',(23.01761893575,0.392679544472,21.350222930191
    ));
#527 = CARTESIAN_POINT('',(23.028337439331,0.482905463402,
    21.384869533318));
#528 = CARTESIAN_POINT('',(23.048656267892,0.624676209777,
    21.454220764093));
#529 = CARTESIAN_POINT('',(23.057504960231,0.679358221444,
    21.485308344474));
#530 = CARTESIAN_POINT('',(23.066821948268,0.731345112147,
    21.519249220665));
#531 = CARTESIAN_POINT('',(23.076417284127,0.780488029292,
    21.555775041883));
#532 = CARTESIAN_POINT('',(23.086106814554,0.826677629309,
    21.594608234413));
#533 = CARTESIAN_POINT('',(23.108923974461,0.929092034845,
    21.691537324295));
#534 = CARTESIAN_POINT('',(23.121988679391,0.982648100345,
    21.751423015436));
#535 = CARTESIAN_POINT('',(23.134515900548,1.030467986372,
    21.814513132545));
#536 = CARTESIAN_POINT('',(23.146169266184,1.0725759241,21.880240581744)
  );
#537 = CARTESIAN_POINT('',(23.156688455518,1.109054046934,
    21.948073885262));
#538 = CARTESIAN_POINT('',(23.172540098368,1.162365503031,
    22.067574808814));
#539 = CARTESIAN_POINT('',(23.17850200854,1.181844848521,22.118481396734
    ));
#540 = CARTESIAN_POINT('',(23.183722687332,1.198529397536,
    22.170076567593));
#541 = CARTESIAN_POINT('',(23.188158582817,1.212478777569,
    22.222211955839));
#542 = CARTESIAN_POINT('',(23.191783778013,1.223753274746,
    22.274746882904));
#543 = CARTESIAN_POINT('',(23.200149157613,1.249583651028,
    22.432226936624));
#544 = CARTESIAN_POINT('',(23.202480269851,1.256464508722,
    22.537861183119));
#545 = CARTESIAN_POINT('',(23.201528185199,1.253600592208,
    22.643639485998));
#546 = CARTESIAN_POINT('',(23.197435315362,1.241378013761,
    22.748848200494));
#547 = CARTESIAN_POINT('',(23.190477571226,1.220058935482,
    22.852774571833));
#548 = CARTESIAN_POINT('',(23.172706037769,1.163016549882,
    23.044741596964));
#549 = CARTESIAN_POINT('',(23.162429093955,1.129237474154,
    23.133231899929));
#550 = CARTESIAN_POINT('',(23.150472724463,1.088500879381,
    23.219753046446));
#551 = CARTESIAN_POINT('',(23.137134261732,1.040690991898,
    23.303847181808));
#552 = CARTESIAN_POINT('',(23.12279066306,0.985592376713,23.384848603975
    ));
#553 = CARTESIAN_POINT('',(23.102918072509,0.901790120895,
    23.487776614005));
#554 = CARTESIAN_POINT('',(23.097840476453,0.879762996148,
    23.513309963452));
#555 = CARTESIAN_POINT('',(23.092721687775,0.856856548764,23.53835127926
    ));
#556 = CARTESIAN_POINT('',(23.087582012311,0.833057698119,
    23.562859935264));
#557 = CARTESIAN_POINT('',(23.082443723856,0.808353547517,23.58678951507
    ));
#558 = CARTESIAN_POINT('',(23.07090761004,0.750540156846,23.639359375323
    ));
#559 = CARTESIAN_POINT('',(23.06452313539,0.716892268322,23.66764141273)
  );
#560 = CARTESIAN_POINT('',(23.058227901785,0.681771671982,
    23.694819988065));
#561 = CARTESIAN_POINT('',(23.052077659994,0.645166883909,
    23.720767948802));
#562 = CARTESIAN_POINT('',(23.046133211932,0.607072068601,
    23.745344507757));
#563 = CARTESIAN_POINT('',(23.036000952858,0.536376165677,
    23.786511779406));
#564 = CARTESIAN_POINT('',(23.03170846531,0.504338345431,23.803689280516
    ));
#565 = CARTESIAN_POINT('',(23.027618881131,0.471402767085,
    23.819835101652));
#566 = CARTESIAN_POINT('',(23.023767984708,0.437601526563,
    23.834859222388));
#567 = CARTESIAN_POINT('',(23.020190973666,0.402970712558,
    23.848673828301));
#568 = CARTESIAN_POINT('',(23.011621468517,0.310104529058,
    23.881497841004));
#569 = CARTESIAN_POINT('',(23.007120254566,0.250462838435,
    23.898437664043));
#570 = CARTESIAN_POINT('',(23.00360234685,0.189107342522,23.911505063006
    ));
#571 = CARTESIAN_POINT('',(23.00120329805,0.126554665722,23.920353408935
    ));
#572 = CARTESIAN_POINT('',(23.,6.333982401893E-02,23.924794219898));
#573 = CARTESIAN_POINT('',(23.,-4.291372615117E-02,23.924794219898));
#574 = CARTESIAN_POINT('',(23.000552441748,-8.580736667517E-02,
    23.922755796344));
#575 = CARTESIAN_POINT('',(23.001656522007,-0.128495229246,
    23.918682563621));
#576 = CARTESIAN_POINT('',(23.003295579624,-0.170791642163,
    23.912616918882));
#577 = CARTESIAN_POINT('',(23.005438289197,-0.212513718321,
    23.904640372004));
#578 = CARTESIAN_POINT('',(23.011642232358,-0.310215672677,
    23.881350246173));
#579 = CARTESIAN_POINT('',(23.016120539272,-0.365444238591,
    23.864409310526));
#580 = CARTESIAN_POINT('',(23.021369136995,-0.418962378004,
    23.844324959803));
#581 = CARTESIAN_POINT('',(23.027264675524,-0.470582200409,
    23.821399852323));
#582 = CARTESIAN_POINT('',(23.033673652541,-0.52013787212,
    23.795967578319));
#583 = CARTESIAN_POINT('',(23.046077933075,-0.606686370931,
    23.745569105225));
#584 = CARTESIAN_POINT('',(23.051961872834,-0.644424578185,
    23.721246617586));
#585 = CARTESIAN_POINT('',(23.0580482599,-0.680701725514,23.69557776194)
  );
#586 = CARTESIAN_POINT('',(23.06427798573,-0.715523285546,
    23.668699463042));
#587 = CARTESIAN_POINT('',(23.070596789795,-0.748900191752,
    23.640735570404));
#588 = CARTESIAN_POINT('',(23.08209371934,-0.80666172194,23.588414881192
    ));
#589 = CARTESIAN_POINT('',(23.087258854594,-0.831547262074,
    23.564391975595));
#590 = CARTESIAN_POINT('',(23.092426395086,-0.855517375072,
    23.539781739223));
#591 = CARTESIAN_POINT('',(23.09757364939,-0.878585161478,
    23.514631504738));
#592 = CARTESIAN_POINT('',(23.102679929457,-0.90076387344,
    23.488982739843));
#593 = CARTESIAN_POINT('',(23.122665402716,-0.985127519613,
    23.385576021361));
#594 = CARTESIAN_POINT('',(23.137092721658,-1.040563695008,
    23.304164442564));
#595 = CARTESIAN_POINT('',(23.150505279218,-1.088632510472,
    23.219626359801));
#596 = CARTESIAN_POINT('',(23.162520219871,-1.12955368945,
    23.132638508428));
#597 = CARTESIAN_POINT('',(23.172836109672,-1.163445515162,
    23.043664069574));
#598 = CARTESIAN_POINT('',(23.190537262807,-1.220237500303,
    22.851757582871));
#599 = CARTESIAN_POINT('',(23.19743327152,-1.241368481573,
    22.748424097641));
#600 = CARTESIAN_POINT('',(23.201496556428,-1.253506278913,
    22.643825577768));
#601 = CARTESIAN_POINT('',(23.20245615605,-1.256392649093,
    22.538662504306));
#602 = CARTESIAN_POINT('',(23.200171681362,-1.249648206231,
    22.433637067315));
#603 = CARTESIAN_POINT('',(23.19191500405,-1.224160932168,
    22.276731030925));
#604 = CARTESIAN_POINT('',(23.188314945222,-1.212968826993,
    22.224178540986));
#605 = CARTESIAN_POINT('',(23.183903469043,-1.199102788185,
    22.172022277374));
#606 = CARTESIAN_POINT('',(23.178706173596,-1.18250249038,
    22.120402744313));
#607 = CARTESIAN_POINT('',(23.172766271573,-1.163108230237,
    22.069468112681));
#608 = CARTESIAN_POINT('',(23.156985524247,-1.110077158738,
    21.950061101299));
#609 = CARTESIAN_POINT('',(23.146519974713,-1.073821653894,
    21.882337669812));
#610 = CARTESIAN_POINT('',(23.134920935236,-1.031964586698,21.8166998565
    ));
#611 = CARTESIAN_POINT('',(23.122445595092,-0.984423502644,
    21.753674749516));
#612 = CARTESIAN_POINT('',(23.109426589135,-0.931173039883,
    21.693824714748));
#613 = CARTESIAN_POINT('',(23.08680361325,-0.829924876466,
    21.597464143021));
#614 = CARTESIAN_POINT('',(23.077269709486,-0.784667956731,
    21.559125467883));
#615 = CARTESIAN_POINT('',(23.067818108789,-0.736549093265,
    21.523006023366));
#616 = CARTESIAN_POINT('',(23.058623304441,-0.685669563903,
    21.489369370201));
#617 = CARTESIAN_POINT('',(23.049865687862,-0.632167373744,
    21.458471005038));
#618 = CARTESIAN_POINT('',(23.029266099819,-0.490660302097,
    21.387874343409));
#619 = CARTESIAN_POINT('',(23.018218347529,-0.399200472114,
    21.352082548758));
#620 = CARTESIAN_POINT('',(23.009289360694,-0.302925530418,
    21.324374783378));
#621 = CARTESIAN_POINT('',(23.003103960592,-0.203236710707,
    21.305574301491));
#622 = CARTESIAN_POINT('',(23.,-0.101719393751,21.296138659302));
#623 = CARTESIAN_POINT('',(23.,-4.4E-16,21.296138659302));
#624 = FACE_BOUND('',#625,.F.);
#625 = EDGE_LOOP('',(#626));
#626 = ORIENTED_EDGE('',*,*,#627,.F.);
#627 = EDGE_CURVE('',#628,#628,#630,.T.);
#628 = VERTEX_POINT('',#629);
#629 = CARTESIAN_POINT('',(23.,-1.E-15,17.090289762349));
#630 = B_SPLINE_CURVE_WITH_KNOTS('',6,(#631,#632,#633,#634,#635,#636,
    #637,#638,#639,#640,#641,#642,#643,#644,#645,#646,#647,#648,#649,
    #650,#651,#652,#653,#654,#655,#656,#657,#658,#659,#660,#661,#662,
    #663,#664,#665,#666,#667,#668,#669,#670,#671,#672,#673,#674,#675,
    #676,#677,#678,#679,#680,#681,#682,#683,#684,#685,#686,#687,#688,
    #689,#690,#691,#692,#693,#694,#695,#696,#697,#698,#699,#700,#701,
    #702,#703,#704,#705,#706,#707,#708,#709,#710,#711,#712,#713,#714,
    #715,#716,#717,#718,#719,#720,#721,#722,#723,#724,#725,#726,#727,
    #728,#729,#730,#731,#732),.UNSPECIFIED.,.T.,.F.,(7,5,5,5,5,5,5,5,5,5
    ,5,5,5,5,5,5,5,5,5,5,7),(0.,6.499707820628E-02,0.108942945881,
    0.1692623491,0.212747980721,0.298960555543,0.375233157447,
    0.400999105297,0.433370980944,0.458814448588,0.500079558138,
    0.528037318341,0.566750319297,0.598798337267,0.624693380652,
    0.701347088376,0.78703834787,0.830517216717,0.890679556735,
    0.933902935939,1.),.UNSPECIFIED.);
#631 = CARTESIAN_POINT('',(23.,-4.4E-16,17.090289762349));
#632 = CARTESIAN_POINT('',(23.,9.999076373157E-02,17.090289762349));
#633 = CARTESIAN_POINT('',(23.002999366631,0.199794672245,
    17.099407423144));
#634 = CARTESIAN_POINT('',(23.008977612192,0.297861783585,
    17.117578398313));
#635 = CARTESIAN_POINT('',(23.01761893575,0.392679544472,17.144374033238
    ));
#636 = CARTESIAN_POINT('',(23.028337439331,0.482905463402,
    17.179020636365));
#637 = CARTESIAN_POINT('',(23.048656267892,0.624676209777,17.24837186714
    ));
#638 = CARTESIAN_POINT('',(23.057504960231,0.679358221444,
    17.279459447521));
#639 = CARTESIAN_POINT('',(23.066821948268,0.731345112147,
    17.313400323712));
#640 = CARTESIAN_POINT('',(23.076417284127,0.780488029292,17.34992614493
    ));
#641 = CARTESIAN_POINT('',(23.086106814554,0.826677629309,17.38875933746
    ));
#642 = CARTESIAN_POINT('',(23.108923974461,0.929092034845,
    17.485688427342));
#643 = CARTESIAN_POINT('',(23.121988679391,0.982648100345,
    17.545574118483));
#644 = CARTESIAN_POINT('',(23.134515900548,1.030467986372,
    17.608664235592));
#645 = CARTESIAN_POINT('',(23.146169266184,1.0725759241,17.674391684791)
  );
#646 = CARTESIAN_POINT('',(23.156688455518,1.109054046934,
    17.742224988309));
#647 = CARTESIAN_POINT('',(23.172540098368,1.162365503031,17.86172591186
    ));
#648 = CARTESIAN_POINT('',(23.17850200854,1.181844848521,17.912632499781
    ));
#649 = CARTESIAN_POINT('',(23.183722687332,1.198529397536,17.96422767064
    ));
#650 = CARTESIAN_POINT('',(23.188158582817,1.212478777569,
    18.016363058886));
#651 = CARTESIAN_POINT('',(23.191783778013,1.223753274746,
    18.068897985951));
#652 = CARTESIAN_POINT('',(23.200149157613,1.249583651028,
    18.226378039671));
#653 = CARTESIAN_POINT('',(23.202480269851,1.256464508722,
    18.332012286165));
#654 = CARTESIAN_POINT('',(23.201528185199,1.253600592208,
    18.437790589045));
#655 = CARTESIAN_POINT('',(23.197435315362,1.241378013761,
    18.542999303541));
#656 = CARTESIAN_POINT('',(23.190477571226,1.220058935482,18.64692567488
    ));
#657 = CARTESIAN_POINT('',(23.172706037769,1.163016549882,
    18.838892700011));
#658 = CARTESIAN_POINT('',(23.162429093955,1.129237474154,
    18.927383002976));
#659 = CARTESIAN_POINT('',(23.150472724463,1.088500879381,
    19.013904149493));
#660 = CARTESIAN_POINT('',(23.137134261732,1.040690991898,
    19.097998284855));
#661 = CARTESIAN_POINT('',(23.12279066306,0.985592376713,19.178999707022
    ));
#662 = CARTESIAN_POINT('',(23.102918072509,0.901790120895,
    19.281927717052));
#663 = CARTESIAN_POINT('',(23.097840476453,0.879762996148,
    19.307461066499));
#664 = CARTESIAN_POINT('',(23.092721687775,0.856856548764,
    19.332502382307));
#665 = CARTESIAN_POINT('',(23.087582012311,0.833057698119,
    19.357011038311));
#666 = CARTESIAN_POINT('',(23.082443723856,0.808353547517,
    19.380940618117));
#667 = CARTESIAN_POINT('',(23.07090761004,0.750540156846,19.43351047837)
  );
#668 = CARTESIAN_POINT('',(23.06452313539,0.716892268322,19.461792515776
    ));
#669 = CARTESIAN_POINT('',(23.058227901785,0.681771671982,
    19.488971091112));
#670 = CARTESIAN_POINT('',(23.052077659994,0.645166883909,
    19.514919051849));
#671 = CARTESIAN_POINT('',(23.046133211932,0.607072068601,
    19.539495610804));
#672 = CARTESIAN_POINT('',(23.036000951403,0.536376155524,
    19.580662888366));
#673 = CARTESIAN_POINT('',(23.031708465502,0.504338348989,19.59784038292
    ));
#674 = CARTESIAN_POINT('',(23.027618882405,0.471402778049,
    19.613986199655));
#675 = CARTESIAN_POINT('',(23.023767985201,0.437601528882,
    19.629010323372));
#676 = CARTESIAN_POINT('',(23.020190972587,0.402970700857,
    19.642824935484));
#677 = CARTESIAN_POINT('',(23.011621468516,0.310104529045,
    19.675648944056));
#678 = CARTESIAN_POINT('',(23.007120254566,0.250462838438,
    19.692588767086));
#679 = CARTESIAN_POINT('',(23.003602346851,0.189107342536,19.70565616605
    ));
#680 = CARTESIAN_POINT('',(23.001203298049,0.126554665727,
    19.714504511983));
#681 = CARTESIAN_POINT('',(23.,6.333982400435E-02,19.718945322944));
#682 = CARTESIAN_POINT('',(23.,-4.291372615117E-02,19.718945322944));
#683 = CARTESIAN_POINT('',(23.000552441748,-8.580736667517E-02,
    19.716906899391));
#684 = CARTESIAN_POINT('',(23.001656522007,-0.128495229246,
    19.712833666668));
#685 = CARTESIAN_POINT('',(23.003295579624,-0.170791642163,
    19.706768021929));
#686 = CARTESIAN_POINT('',(23.005438289197,-0.212513718321,
    19.698791475051));
#687 = CARTESIAN_POINT('',(23.011642232358,-0.310215672677,
    19.67550134922));
#688 = CARTESIAN_POINT('',(23.016120539272,-0.365444238591,
    19.658560413573));
#689 = CARTESIAN_POINT('',(23.021369136995,-0.418962378004,
    19.63847606285));
#690 = CARTESIAN_POINT('',(23.027264675524,-0.470582200409,
    19.615550955369));
#691 = CARTESIAN_POINT('',(23.033673652541,-0.52013787212,
    19.590118681366));
#692 = CARTESIAN_POINT('',(23.046077933075,-0.60668637093,
    19.539720208272));
#693 = CARTESIAN_POINT('',(23.051961872834,-0.644424578185,
    19.515397720633));
#694 = CARTESIAN_POINT('',(23.0580482599,-0.680701725515,19.489728864986
    ));
#695 = CARTESIAN_POINT('',(23.06427798573,-0.715523285546,
    19.462850566089));
#696 = CARTESIAN_POINT('',(23.070596789795,-0.748900191751,
    19.434886673452));
#697 = CARTESIAN_POINT('',(23.08209371934,-0.80666172194,19.382565984239
    ));
#698 = CARTESIAN_POINT('',(23.087258854594,-0.831547262074,
    19.358543078642));
#699 = CARTESIAN_POINT('',(23.092426395086,-0.855517375072,
    19.33393284227));
#700 = CARTESIAN_POINT('',(23.09757364939,-0.878585161478,
    19.308782607785));
#701 = CARTESIAN_POINT('',(23.102679929457,-0.90076387344,19.28313384289
    ));
#702 = CARTESIAN_POINT('',(23.122665402716,-0.985127519613,
    19.179727124408));
#703 = CARTESIAN_POINT('',(23.137092721658,-1.040563695008,
    19.09831554561));
#704 = CARTESIAN_POINT('',(23.150505279218,-1.088632510472,
    19.013777462847));
#705 = CARTESIAN_POINT('',(23.162520219871,-1.12955368945,
    18.926789611474));
#706 = CARTESIAN_POINT('',(23.172836109672,-1.163445515162,
    18.837815172621));
#707 = CARTESIAN_POINT('',(23.190537262807,-1.220237500303,
    18.645908685918));
#708 = CARTESIAN_POINT('',(23.19743327152,-1.241368481573,
    18.542575200688));
#709 = CARTESIAN_POINT('',(23.201496556428,-1.253506278914,
    18.437976680815));
#710 = CARTESIAN_POINT('',(23.20245615605,-1.256392649093,
    18.332813607353));
#711 = CARTESIAN_POINT('',(23.200171681362,-1.249648206231,
    18.227788170362));
#712 = CARTESIAN_POINT('',(23.19191500405,-1.224160932168,
    18.070882133972));
#713 = CARTESIAN_POINT('',(23.188314945222,-1.212968826993,
    18.018329644033));
#714 = CARTESIAN_POINT('',(23.183903469043,-1.199102788185,
    17.966173380421));
#715 = CARTESIAN_POINT('',(23.178706173596,-1.18250249038,17.91455384736
    ));
#716 = CARTESIAN_POINT('',(23.172766271573,-1.163108230237,
    17.863619215728));
#717 = CARTESIAN_POINT('',(23.156985524247,-1.110077158738,
    17.744212204345));
#718 = CARTESIAN_POINT('',(23.146519974713,-1.073821653894,
    17.676488772859));
#719 = CARTESIAN_POINT('',(23.134920935236,-1.031964586698,
    17.610850959547));
#720 = CARTESIAN_POINT('',(23.122445595092,-0.984423502644,
    17.547825852562));
#721 = CARTESIAN_POINT('',(23.109426589135,-0.931173039883,
    17.487975817795));
#722 = CARTESIAN_POINT('',(23.08680361325,-0.829924876466,
    17.391615246068));
#723 = CARTESIAN_POINT('',(23.077269709486,-0.784667956731,
    17.35327657093));
#724 = CARTESIAN_POINT('',(23.067818108789,-0.736549093264,
    17.317157126413));
#725 = CARTESIAN_POINT('',(23.058623304441,-0.685669563903,
    17.283520473247));
#726 = CARTESIAN_POINT('',(23.049865687862,-0.632167373744,
    17.252622108085));
#727 = CARTESIAN_POINT('',(23.029266099819,-0.490660302097,
    17.182025446456));
#728 = CARTESIAN_POINT('',(23.018218347529,-0.399200472114,
    17.146233651805));
#729 = CARTESIAN_POINT('',(23.009289360694,-0.302925530418,
    17.118525886425));
#730 = CARTESIAN_POINT('',(23.003103960592,-0.203236710707,
    17.099725404538));
#731 = CARTESIAN_POINT('',(23.,-0.101719393751,17.090289762349));
#732 = CARTESIAN_POINT('',(23.,-4.4E-16,17.090289762349));
#733 = CYLINDRICAL_SURFACE('',#734,4.);
#734 = AXIS2_PLACEMENT_3D('',#735,#736,#737);
#735 = CARTESIAN_POINT('',(27.,0.,0.));
#736 = DIRECTION('',(-0.,-0.,-1.));
#737 = DIRECTION('',(1.,0.,0.));
#738 = ADVANCED_FACE('',(#739),#759,.T.);
#739 = FACE_BOUND('',#740,.T.);
#740 = EDGE_LOOP('',(#741,#750,#751,#752));
#741 = ORIENTED_EDGE('',*,*,#742,.F.);
#742 = EDGE_CURVE('',#22,#743,#745,.T.);
#743 = VERTEX_POINT('',#744);
#744 = CARTESIAN_POINT('',(30.,0.,30.));
#745 = CIRCLE('',#746,1.);
#746 = AXIS2_PLACEMENT_3D('',#747,#748,#749);
#747 = CARTESIAN_POINT('',(30.,0.,29.));
#748 = DIRECTION('',(0.,-1.,0.));
#749 = DIRECTION('',(1.,0.,0.));
#750 = ORIENTED_EDGE('',*,*,#400,.T.);
#751 = ORIENTED_EDGE('',*,*,#742,.T.);
#752 = ORIENTED_EDGE('',*,*,#753,.F.);
#753 = EDGE_CURVE('',#743,#743,#754,.T.);
#754 = CIRCLE('',#755,3.);
#755 = AXIS2_PLACEMENT_3D('',#756,#757,#758);
#756 = CARTESIAN_POINT('',(27.,0.,30.));
#757 = DIRECTION('',(0.,0.,1.));
#758 = DIRECTION('',(1.,0.,0.));
#759 = TOROIDAL_SURFACE('',#760,3.,1.);
#760 = AXIS2_PLACEMENT_3D('',#761,#762,#763);
#761 = CARTESIAN_POINT('',(27.,0.,29.));
#762 = DIRECTION('',(0.,0.,1.));
#763 = DIRECTION('',(1.,0.,0.));
#764 = ADVANCED_FACE('',(#765),#785,.F.);
#765 = FACE_BOUND('',#766,.T.);
#766 = EDGE_LOOP('',(#767,#776,#782,#783,#784));
#767 = ORIENTED_EDGE('',*,*,#768,.F.);
#768 = EDGE_CURVE('',#769,#769,#771,.T.);
#769 = VERTEX_POINT('',#770);
#770 = CARTESIAN_POINT('',(28.914135287969,-1.E-15,23.580368515008));
#771 = CIRCLE('',#772,1.25);
#772 = AXIS2_PLACEMENT_3D('',#773,#774,#775);
#773 = CARTESIAN_POINT('',(29.300406530938,-1.E-15,24.769189160377));
#774 = DIRECTION('',(0.951056516295,0.,-0.309016994375));
#775 = DIRECTION('',(-0.309016994375,0.,-0.951056516295));
#776 = ORIENTED_EDGE('',*,*,#777,.T.);
#777 = EDGE_CURVE('',#769,#31,#778,.T.);
#778 = LINE('',#779,#780);
#779 = CARTESIAN_POINT('',(28.914135287969,-9.8E-16,23.580368515008));
#780 = VECTOR('',#781,1.);
#781 = DIRECTION('',(0.951056516295,0.,-0.309016994375));
#782 = ORIENTED_EDGE('',*,*,#349,.T.);
#783 = ORIENTED_EDGE('',*,*,#30,.T.);
#784 = ORIENTED_EDGE('',*,*,#777,.F.);
#785 = CYLINDRICAL_SURFACE('',#786,1.25);
#786 = AXIS2_PLACEMENT_3D('',#787,#788,#789);
#787 = CARTESIAN_POINT('',(29.300406530938,-9.8E-16,24.769189160377));
#788 = DIRECTION('',(-0.951056516295,0.,0.309016994375));
#789 = DIRECTION('',(-0.309016994375,0.,-0.951056516295));
#790 = ADVANCED_FACE('',(#791),#811,.F.);
#791 = FACE_BOUND('',#792,.T.);
#792 = EDGE_LOOP('',(#793,#802,#808,#809,#810));
#793 = ORIENTED_EDGE('',*,*,#794,.F.);
#794 = EDGE_CURVE('',#795,#795,#797,.T.);
#795 = VERTEX_POINT('',#796);
#796 = CARTESIAN_POINT('',(27.678067310469,-1.E-15,19.776142449827));
#797 = CIRCLE('',#798,1.25);
#798 = AXIS2_PLACEMENT_3D('',#799,#800,#801);
#799 = CARTESIAN_POINT('',(28.064338553438,-1.E-15,20.964963095196));
#800 = DIRECTION('',(0.951056516295,0.,-0.309016994375));
#801 = DIRECTION('',(-0.309016994375,0.,-0.951056516295));
#802 = ORIENTED_EDGE('',*,*,#803,.T.);
#803 = EDGE_CURVE('',#795,#90,#804,.T.);
#804 = LINE('',#805,#806);
#805 = CARTESIAN_POINT('',(27.678067310469,-9.8E-16,19.776142449827));
#806 = VECTOR('',#807,1.);
#807 = DIRECTION('',(0.951056516295,0.,-0.309016994375));
#808 = ORIENTED_EDGE('',*,*,#298,.T.);
#809 = ORIENTED_EDGE('',*,*,#89,.T.);
#810 = ORIENTED_EDGE('',*,*,#803,.F.);
#811 = CYLINDRICAL_SURFACE('',#812,1.25);
#812 = AXIS2_PLACEMENT_3D('',#813,#814,#815);
#813 = CARTESIAN_POINT('',(28.064338553438,-9.8E-16,20.964963095196));
#814 = DIRECTION('',(-0.951056516295,0.,0.309016994375));
#815 = DIRECTION('',(-0.309016994375,0.,-0.951056516295));
#816 = ADVANCED_FACE('',(#817),#837,.F.);
#817 = FACE_BOUND('',#818,.T.);
#818 = EDGE_LOOP('',(#819,#828,#834,#835,#836));
#819 = ORIENTED_EDGE('',*,*,#820,.F.);
#820 = EDGE_CURVE('',#821,#821,#823,.T.);
#821 = VERTEX_POINT('',#822);
#822 = CARTESIAN_POINT('',(26.44199933297,-1.E-15,15.971916384646));
#823 = CIRCLE('',#824,1.25);
#824 = AXIS2_PLACEMENT_3D('',#825,#826,#827);
#825 = CARTESIAN_POINT('',(26.828270575938,-1.E-15,17.160737030015));
#826 = DIRECTION('',(0.951056516295,0.,-0.309016994375));
#827 = DIRECTION('',(-0.309016994375,0.,-0.951056516295));
#828 = ORIENTED_EDGE('',*,*,#829,.T.);
#829 = EDGE_CURVE('',#821,#149,#830,.T.);
#830 = LINE('',#831,#832);
#831 = CARTESIAN_POINT('',(26.44199933297,-9.8E-16,15.971916384646));
#832 = VECTOR('',#833,1.);
#833 = DIRECTION('',(0.951056516295,0.,-0.309016994375));
#834 = ORIENTED_EDGE('',*,*,#247,.T.);
#835 = ORIENTED_EDGE('',*,*,#148,.T.);
#836 = ORIENTED_EDGE('',*,*,#829,.F.);
#837 = CYLINDRICAL_SURFACE('',#838,1.25);
#838 = AXIS2_PLACEMENT_3D('',#839,#840,#841);
#839 = CARTESIAN_POINT('',(26.828270575938,-9.8E-16,17.160737030015));
#840 = DIRECTION('',(-0.951056516295,0.,0.309016994375));
#841 = DIRECTION('',(-0.309016994375,0.,-0.951056516295));
#842 = ADVANCED_FACE('',(#843),#903,.T.);
#843 = FACE_BOUND('',#844,.T.);
#844 = EDGE_LOOP('',(#845,#855,#864,#872,#881,#887,#888,#889,#897));
#845 = ORIENTED_EDGE('',*,*,#846,.T.);
#846 = EDGE_CURVE('',#847,#849,#851,.T.);
#847 = VERTEX_POINT('',#848);
#848 = CARTESIAN_POINT('',(31.,12.,5.));
#849 = VERTEX_POINT('',#850);
#850 = CARTESIAN_POINT('',(31.,9.,5.));
#851 = LINE('',#852,#853);
#852 = CARTESIAN_POINT('',(31.,12.,5.));
#853 = VECTOR('',#854,1.);
#854 = DIRECTION('',(0.,-1.,0.));
#855 = ORIENTED_EDGE('',*,*,#856,.T.);
#856 = EDGE_CURVE('',#849,#857,#859,.T.);
#857 = VERTEX_POINT('',#858);
#858 = CARTESIAN_POINT('',(31.,8.,6.));
#859 = CIRCLE('',#860,1.);
#860 = AXIS2_PLACEMENT_3D('',#861,#862,#863);
#861 = CARTESIAN_POINT('',(31.,9.,6.));
#862 = DIRECTION('',(-1.,0.,0.));
#863 = DIRECTION('',(0.,0.,-1.));
#864 = ORIENTED_EDGE('',*,*,#865,.T.);
#865 = EDGE_CURVE('',#857,#866,#868,.T.);
#866 = VERTEX_POINT('',#867);
#867 = CARTESIAN_POINT('',(31.,8.,8.));
#868 = LINE('',#869,#870);
#869 = CARTESIAN_POINT('',(31.,8.,5.));
#870 = VECTOR('',#871,1.);
#871 = DIRECTION('',(0.,0.,1.));
#872 = ORIENTED_EDGE('',*,*,#873,.T.);
#873 = EDGE_CURVE('',#866,#874,#876,.T.);
#874 = VERTEX_POINT('',#875);
#875 = CARTESIAN_POINT('',(31.,7.,9.));
#876 = CIRCLE('',#877,1.);
#877 = AXIS2_PLACEMENT_3D('',#878,#879,#880);
#878 = CARTESIAN_POINT('',(31.,7.,8.));
#879 = DIRECTION('',(1.,-0.,0.));
#880 = DIRECTION('',(0.,0.,-1.));
#881 = ORIENTED_EDGE('',*,*,#882,.F.);
#882 = EDGE_CURVE('',#201,#874,#883,.T.);
#883 = LINE('',#884,#885);
#884 = CARTESIAN_POINT('',(31.,1.78E-15,9.));
#885 = VECTOR('',#886,1.);
#886 = DIRECTION('',(0.,1.,0.));
#887 = ORIENTED_EDGE('',*,*,#207,.T.);
#888 = ORIENTED_EDGE('',*,*,#214,.F.);
#889 = ORIENTED_EDGE('',*,*,#890,.F.);
#890 = EDGE_CURVE('',#891,#215,#893,.T.);
#891 = VERTEX_POINT('',#892);
#892 = CARTESIAN_POINT('',(31.,12.,0.));
#893 = LINE('',#894,#895);
#894 = CARTESIAN_POINT('',(31.,12.,0.));
#895 = VECTOR('',#896,1.);
#896 = DIRECTION('',(0.,-1.,0.));
#897 = ORIENTED_EDGE('',*,*,#898,.T.);
#898 = EDGE_CURVE('',#891,#847,#899,.T.);
#899 = LINE('',#900,#901);
#900 = CARTESIAN_POINT('',(31.,12.,-1.47E-15));
#901 = VECTOR('',#902,1.);
#902 = DIRECTION('',(0.,1.2E-16,1.));
#903 = PLANE('',#904);
#904 = AXIS2_PLACEMENT_3D('',#905,#906,#907);
#905 = CARTESIAN_POINT('',(31.,5.619047619048,4.119047619048));
#906 = DIRECTION('',(1.,0.,0.));
#907 = DIRECTION('',(0.,0.,1.));
#908 = ADVANCED_FACE('',(#909),#927,.T.);
#909 = FACE_BOUND('',#910,.T.);
#910 = EDGE_LOOP('',(#911,#912,#920,#926));
#911 = ORIENTED_EDGE('',*,*,#882,.T.);
#912 = ORIENTED_EDGE('',*,*,#913,.T.);
#913 = EDGE_CURVE('',#874,#914,#916,.T.);
#914 = VERTEX_POINT('',#915);
#915 = CARTESIAN_POINT('',(23.,7.,9.));
#916 = LINE('',#917,#918);
#917 = CARTESIAN_POINT('',(31.,7.,9.));
#918 = VECTOR('',#919,1.);
#919 = DIRECTION('',(-1.,0.,0.));
#920 = ORIENTED_EDGE('',*,*,#921,.T.);
#921 = EDGE_CURVE('',#914,#232,#922,.T.);
#922 = LINE('',#923,#924);
#923 = CARTESIAN_POINT('',(23.,8.,9.));
#924 = VECTOR('',#925,1.);
#925 = DIRECTION('',(0.,-1.,0.));
#926 = ORIENTED_EDGE('',*,*,#239,.T.);
#927 = PLANE('',#928);
#928 = AXIS2_PLACEMENT_3D('',#929,#930,#931);
#929 = CARTESIAN_POINT('',(27.,4.,9.));
#930 = DIRECTION('',(0.,0.,1.));
#931 = DIRECTION('',(1.,0.,0.));
#932 = ADVANCED_FACE('',(#933),#985,.T.);
#933 = FACE_BOUND('',#934,.T.);
#934 = EDGE_LOOP('',(#935,#936,#945,#953,#962,#970,#978,#984));
#935 = ORIENTED_EDGE('',*,*,#921,.F.);
#936 = ORIENTED_EDGE('',*,*,#937,.F.);
#937 = EDGE_CURVE('',#938,#914,#940,.T.);
#938 = VERTEX_POINT('',#939);
#939 = CARTESIAN_POINT('',(23.,8.,8.));
#940 = CIRCLE('',#941,1.);
#941 = AXIS2_PLACEMENT_3D('',#942,#943,#944);
#942 = CARTESIAN_POINT('',(23.,7.,8.));
#943 = DIRECTION('',(1.,-0.,0.));
#944 = DIRECTION('',(0.,0.,-1.));
#945 = ORIENTED_EDGE('',*,*,#946,.F.);
#946 = EDGE_CURVE('',#947,#938,#949,.T.);
#947 = VERTEX_POINT('',#948);
#948 = CARTESIAN_POINT('',(23.,8.,6.));
#949 = LINE('',#950,#951);
#950 = CARTESIAN_POINT('',(23.,8.,5.));
#951 = VECTOR('',#952,1.);
#952 = DIRECTION('',(0.,0.,1.));
#953 = ORIENTED_EDGE('',*,*,#954,.F.);
#954 = EDGE_CURVE('',#955,#947,#957,.T.);
#955 = VERTEX_POINT('',#956);
#956 = CARTESIAN_POINT('',(23.,9.,5.));
#957 = CIRCLE('',#958,1.);
#958 = AXIS2_PLACEMENT_3D('',#959,#960,#961);
#959 = CARTESIAN_POINT('',(23.,9.,6.));
#960 = DIRECTION('',(-1.,0.,0.));
#961 = DIRECTION('',(0.,0.,-1.));
#962 = ORIENTED_EDGE('',*,*,#963,.F.);
#963 = EDGE_CURVE('',#964,#955,#966,.T.);
#964 = VERTEX_POINT('',#965);
#965 = CARTESIAN_POINT('',(23.,12.,5.));
#966 = LINE('',#967,#968);
#967 = CARTESIAN_POINT('',(23.,12.,5.));
#968 = VECTOR('',#969,1.);
#969 = DIRECTION('',(0.,-1.,0.));
#970 = ORIENTED_EDGE('',*,*,#971,.F.);
#971 = EDGE_CURVE('',#972,#964,#974,.T.);
#972 = VERTEX_POINT('',#973);
#973 = CARTESIAN_POINT('',(23.,12.,0.));
#974 = LINE('',#975,#976);
#975 = CARTESIAN_POINT('',(23.,12.,-1.47E-15));
#976 = VECTOR('',#977,1.);
#977 = DIRECTION('',(0.,1.2E-16,1.));
#978 = ORIENTED_EDGE('',*,*,#979,.T.);
#979 = EDGE_CURVE('',#972,#223,#980,.T.);
#980 = LINE('',#981,#982);
#981 = CARTESIAN_POINT('',(23.,12.,0.));
#982 = VECTOR('',#983,1.);
#983 = DIRECTION('',(0.,-1.,0.));
#984 = ORIENTED_EDGE('',*,*,#231,.T.);
#985 = PLANE('',#986);
#986 = AXIS2_PLACEMENT_3D('',#987,#988,#989);
#987 = CARTESIAN_POINT('',(23.,5.619047619048,4.119047619048));
#988 = DIRECTION('',(-1.,-0.,-0.));
#989 = DIRECTION('',(0.,0.,-1.));
#990 = ADVANCED_FACE('',(#991,#1003,#1014),#1025,.T.);
#991 = FACE_BOUND('',#992,.T.);
#992 = EDGE_LOOP('',(#993,#994,#995,#1002));
#993 = ORIENTED_EDGE('',*,*,#222,.F.);
#994 = ORIENTED_EDGE('',*,*,#979,.F.);
#995 = ORIENTED_EDGE('',*,*,#996,.T.);
#996 = EDGE_CURVE('',#972,#891,#997,.T.);
#997 = CIRCLE('',#998,4.);
#998 = AXIS2_PLACEMENT_3D('',#999,#1000,#1001);
#999 = CARTESIAN_POINT('',(27.,12.,0.));
#1000 = DIRECTION('',(0.,0.,-1.));
#1001 = DIRECTION('',(1.,0.,0.));
#1002 = ORIENTED_EDGE('',*,*,#890,.T.);
#1003 = FACE_BOUND('',#1004,.T.);
#1004 = EDGE_LOOP('',(#1005));
#1005 = ORIENTED_EDGE('',*,*,#1006,.F.);
#1006 = EDGE_CURVE('',#1007,#1007,#1009,.T.);
#1007 = VERTEX_POINT('',#1008);
#1008 = CARTESIAN_POINT('',(28.513576,12.,0.));
#1009 = CIRCLE('',#1010,1.513576);
#1010 = AXIS2_PLACEMENT_3D('',#1011,#1012,#1013);
#1011 = CARTESIAN_POINT('',(27.,12.,0.));
#1012 = DIRECTION('',(0.,0.,-1.));
#1013 = DIRECTION('',(1.,0.,0.));
#1014 = FACE_BOUND('',#1015,.T.);
#1015 = EDGE_LOOP('',(#1016));
#1016 = ORIENTED_EDGE('',*,*,#1017,.F.);
#1017 = EDGE_CURVE('',#1018,#1018,#1020,.T.);
#1018 = VERTEX_POINT('',#1019);
#1019 = CARTESIAN_POINT('',(28.25,0.,0.));
#1020 = CIRCLE('',#1021,1.25);
#1021 = AXIS2_PLACEMENT_3D('',#1022,#1023,#1024);
#1022 = CARTESIAN_POINT('',(27.,0.,0.));
#1023 = DIRECTION('',(0.,-1.2E-16,-1.));
#1024 = DIRECTION('',(1.,0.,0.));
#1025 = PLANE('',#1026);
#1026 = AXIS2_PLACEMENT_3D('',#1027,#1028,#1029);
#1027 = CARTESIAN_POINT('',(27.,6.,-8.1E-16));
#1028 = DIRECTION('',(-0.,-0.,-1.));
#1029 = DIRECTION('',(-1.,0.,0.));
#1030 = ADVANCED_FACE('',(#1031),#1042,.F.);
#1031 = FACE_BOUND('',#1032,.F.);
#1032 = EDGE_LOOP('',(#1033,#1034,#1040,#1041));
#1033 = ORIENTED_EDGE('',*,*,#768,.F.);
#1034 = ORIENTED_EDGE('',*,*,#1035,.T.);
#1035 = EDGE_CURVE('',#769,#410,#1036,.T.);
#1036 = LINE('',#1037,#1038);
#1037 = CARTESIAN_POINT('',(28.914135287969,-9.8E-16,23.580368515008));
#1038 = VECTOR('',#1039,1.);
#1039 = DIRECTION('',(-0.951056516295,0.,0.309016994375));
#1040 = ORIENTED_EDGE('',*,*,#409,.T.);
#1041 = ORIENTED_EDGE('',*,*,#1035,.F.);
#1042 = CYLINDRICAL_SURFACE('',#1043,1.25);
#1043 = AXIS2_PLACEMENT_3D('',#1044,#1045,#1046);
#1044 = CARTESIAN_POINT('',(29.300406530938,-9.8E-16,24.769189160377));
#1045 = DIRECTION('',(0.951056516295,0.,-0.309016994375));
#1046 = DIRECTION('',(-0.309016994375,0.,-0.951056516295));
#1047 = ADVANCED_FACE('',(#1048),#1059,.F.);
#1048 = FACE_BOUND('',#1049,.F.);
#1049 = EDGE_LOOP('',(#1050,#1051,#1057,#1058));
#1050 = ORIENTED_EDGE('',*,*,#794,.F.);
#1051 = ORIENTED_EDGE('',*,*,#1052,.T.);
#1052 = EDGE_CURVE('',#795,#519,#1053,.T.);
#1053 = LINE('',#1054,#1055);
#1054 = CARTESIAN_POINT('',(27.678067310469,-9.8E-16,19.776142449827));
#1055 = VECTOR('',#1056,1.);
#1056 = DIRECTION('',(-0.951056516295,0.,0.309016994375));
#1057 = ORIENTED_EDGE('',*,*,#518,.T.);
#1058 = ORIENTED_EDGE('',*,*,#1052,.F.);
#1059 = CYLINDRICAL_SURFACE('',#1060,1.25);
#1060 = AXIS2_PLACEMENT_3D('',#1061,#1062,#1063);
#1061 = CARTESIAN_POINT('',(28.064338553438,-9.8E-16,20.964963095196));
#1062 = DIRECTION('',(0.951056516295,0.,-0.309016994375));
#1063 = DIRECTION('',(-0.309016994375,0.,-0.951056516295));
#1064 = ADVANCED_FACE('',(#1065),#1076,.F.);
#1065 = FACE_BOUND('',#1066,.F.);
#1066 = EDGE_LOOP('',(#1067,#1068,#1074,#1075));
#1067 = ORIENTED_EDGE('',*,*,#820,.F.);
#1068 = ORIENTED_EDGE('',*,*,#1069,.T.);
#1069 = EDGE_CURVE('',#821,#628,#1070,.T.);
#1070 = LINE('',#1071,#1072);
#1071 = CARTESIAN_POINT('',(26.44199933297,-9.8E-16,15.971916384646));
#1072 = VECTOR('',#1073,1.);
#1073 = DIRECTION('',(-0.951056516295,0.,0.309016994375));
#1074 = ORIENTED_EDGE('',*,*,#627,.T.);
#1075 = ORIENTED_EDGE('',*,*,#1069,.F.);
#1076 = CYLINDRICAL_SURFACE('',#1077,1.25);
#1077 = AXIS2_PLACEMENT_3D('',#1078,#1079,#1080);
#1078 = CARTESIAN_POINT('',(26.828270575938,-9.8E-16,17.160737030015));
#1079 = DIRECTION('',(0.951056516295,0.,-0.309016994375));
#1080 = DIRECTION('',(-0.309016994375,0.,-0.951056516295));
#1081 = ADVANCED_FACE('',(#1082),#1085,.T.);
#1082 = FACE_BOUND('',#1083,.T.);
#1083 = EDGE_LOOP('',(#1084));
#1084 = ORIENTED_EDGE('',*,*,#753,.T.);
#1085 = PLANE('',#1086);
#1086 = AXIS2_PLACEMENT_3D('',#1087,#1088,#1089);
#1087 = CARTESIAN_POINT('',(27.,1.E-17,30.));
#1088 = DIRECTION('',(0.,0.,1.));
#1089 = DIRECTION('',(1.,0.,0.));
#1090 = ADVANCED_FACE('',(#1091,#1108),#1119,.T.);
#1091 = FACE_BOUND('',#1092,.T.);
#1092 = EDGE_LOOP('',(#1093,#1094,#1101,#1102));
#1093 = ORIENTED_EDGE('',*,*,#846,.F.);
#1094 = ORIENTED_EDGE('',*,*,#1095,.F.);
#1095 = EDGE_CURVE('',#964,#847,#1096,.T.);
#1096 = CIRCLE('',#1097,4.);
#1097 = AXIS2_PLACEMENT_3D('',#1098,#1099,#1100);
#1098 = CARTESIAN_POINT('',(27.,12.,5.));
#1099 = DIRECTION('',(0.,0.,-1.));
#1100 = DIRECTION('',(1.,0.,0.));
#1101 = ORIENTED_EDGE('',*,*,#963,.T.);
#1102 = ORIENTED_EDGE('',*,*,#1103,.F.);
#1103 = EDGE_CURVE('',#849,#955,#1104,.T.);
#1104 = LINE('',#1105,#1106);
#1105 = CARTESIAN_POINT('',(31.,9.,5.));
#1106 = VECTOR('',#1107,1.);
#1107 = DIRECTION('',(-1.,0.,0.));
#1108 = FACE_BOUND('',#1109,.T.);
#1109 = EDGE_LOOP('',(#1110));
#1110 = ORIENTED_EDGE('',*,*,#1111,.T.);
#1111 = EDGE_CURVE('',#1112,#1112,#1114,.T.);
#1112 = VERTEX_POINT('',#1113);
#1113 = CARTESIAN_POINT('',(28.513576,12.,5.));
#1114 = CIRCLE('',#1115,1.513576);
#1115 = AXIS2_PLACEMENT_3D('',#1116,#1117,#1118);
#1116 = CARTESIAN_POINT('',(27.,12.,5.));
#1117 = DIRECTION('',(0.,0.,-1.));
#1118 = DIRECTION('',(1.,0.,0.));
#1119 = PLANE('',#1120);
#1120 = AXIS2_PLACEMENT_3D('',#1121,#1122,#1123);
#1121 = CARTESIAN_POINT('',(27.,6.056081465568,5.));
#1122 = DIRECTION('',(0.,0.,1.));
#1123 = DIRECTION('',(1.,0.,0.));
#1124 = ADVANCED_FACE('',(#1125),#1136,.F.);
#1125 = FACE_BOUND('',#1126,.F.);
#1126 = EDGE_LOOP('',(#1127,#1128,#1134,#1135));
#1127 = ORIENTED_EDGE('',*,*,#856,.T.);
#1128 = ORIENTED_EDGE('',*,*,#1129,.T.);
#1129 = EDGE_CURVE('',#857,#947,#1130,.T.);
#1130 = LINE('',#1131,#1132);
#1131 = CARTESIAN_POINT('',(31.,8.,6.));
#1132 = VECTOR('',#1133,1.);
#1133 = DIRECTION('',(-1.,0.,0.));
#1134 = ORIENTED_EDGE('',*,*,#954,.F.);
#1135 = ORIENTED_EDGE('',*,*,#1103,.F.);
#1136 = CYLINDRICAL_SURFACE('',#1137,1.);
#1137 = AXIS2_PLACEMENT_3D('',#1138,#1139,#1140);
#1138 = CARTESIAN_POINT('',(31.,9.,6.));
#1139 = DIRECTION('',(-1.,0.,0.));
#1140 = DIRECTION('',(0.,0.,-1.));
#1141 = ADVANCED_FACE('',(#1142),#1148,.T.);
#1142 = FACE_BOUND('',#1143,.T.);
#1143 = EDGE_LOOP('',(#1144,#1145,#1146,#1147));
#1144 = ORIENTED_EDGE('',*,*,#971,.T.);
#1145 = ORIENTED_EDGE('',*,*,#1095,.T.);
#1146 = ORIENTED_EDGE('',*,*,#898,.F.);
#1147 = ORIENTED_EDGE('',*,*,#996,.F.);
#1148 = CYLINDRICAL_SURFACE('',#1149,4.);
#1149 = AXIS2_PLACEMENT_3D('',#1150,#1151,#1152);
#1150 = CARTESIAN_POINT('',(27.,12.,-1.47E-15));
#1151 = DIRECTION('',(0.,-1.2E-16,-1.));
#1152 = DIRECTION('',(1.,0.,0.));
#1153 = ADVANCED_FACE('',(#1154),#1165,.F.);
#1154 = FACE_BOUND('',#1155,.F.);
#1155 = EDGE_LOOP('',(#1156,#1157,#1163,#1164));
#1156 = ORIENTED_EDGE('',*,*,#865,.T.);
#1157 = ORIENTED_EDGE('',*,*,#1158,.T.);
#1158 = EDGE_CURVE('',#866,#938,#1159,.T.);
#1159 = LINE('',#1160,#1161);
#1160 = CARTESIAN_POINT('',(31.,8.,8.));
#1161 = VECTOR('',#1162,1.);
#1162 = DIRECTION('',(-1.,0.,0.));
#1163 = ORIENTED_EDGE('',*,*,#946,.F.);
#1164 = ORIENTED_EDGE('',*,*,#1129,.F.);
#1165 = PLANE('',#1166);
#1166 = AXIS2_PLACEMENT_3D('',#1167,#1168,#1169);
#1167 = CARTESIAN_POINT('',(31.,8.,5.));
#1168 = DIRECTION('',(0.,-1.,0.));
#1169 = DIRECTION('',(-1.,0.,0.));
#1170 = ADVANCED_FACE('',(#1171),#1177,.T.);
#1171 = FACE_BOUND('',#1172,.F.);
#1172 = EDGE_LOOP('',(#1173,#1174,#1175,#1176));
#1173 = ORIENTED_EDGE('',*,*,#873,.T.);
#1174 = ORIENTED_EDGE('',*,*,#913,.T.);
#1175 = ORIENTED_EDGE('',*,*,#937,.F.);
#1176 = ORIENTED_EDGE('',*,*,#1158,.F.);
#1177 = CYLINDRICAL_SURFACE('',#1178,1.);
#1178 = AXIS2_PLACEMENT_3D('',#1179,#1180,#1181);
#1179 = CARTESIAN_POINT('',(31.,7.,8.));
#1180 = DIRECTION('',(-1.,0.,0.));
#1181 = DIRECTION('',(0.,1.,0.));
#1182 = ADVANCED_FACE('',(#1183),#1194,.F.);
#1183 = FACE_BOUND('',#1184,.F.);
#1184 = EDGE_LOOP('',(#1185,#1191,#1192,#1193));
#1185 = ORIENTED_EDGE('',*,*,#1186,.T.);
#1186 = EDGE_CURVE('',#1007,#1112,#1187,.T.);
#1187 = LINE('',#1188,#1189);
#1188 = CARTESIAN_POINT('',(28.513576,12.,-1.47E-15));
#1189 = VECTOR('',#1190,1.);
#1190 = DIRECTION('',(0.,1.2E-16,1.));
#1191 = ORIENTED_EDGE('',*,*,#1111,.T.);
#1192 = ORIENTED_EDGE('',*,*,#1186,.F.);
#1193 = ORIENTED_EDGE('',*,*,#1006,.F.);
#1194 = CYLINDRICAL_SURFACE('',#1195,1.513576);
#1195 = AXIS2_PLACEMENT_3D('',#1196,#1197,#1198);
#1196 = CARTESIAN_POINT('',(27.,12.,-1.47E-15));
#1197 = DIRECTION('',(0.,-1.2E-16,-1.));
#1198 = DIRECTION('',(1.,0.,0.));
#1199 = ADVANCED_FACE('',(#1200),#1218,.F.);
#1200 = FACE_BOUND('',#1201,.F.);
#1201 = EDGE_LOOP('',(#1202,#1203,#1210,#1217));
#1202 = ORIENTED_EDGE('',*,*,#1017,.F.);
#1203 = ORIENTED_EDGE('',*,*,#1204,.F.);
#1204 = EDGE_CURVE('',#1205,#1018,#1207,.T.);
#1205 = VERTEX_POINT('',#1206);
#1206 = CARTESIAN_POINT('',(28.25,1.E-15,12.));
#1207 = B_SPLINE_CURVE_WITH_KNOTS('',1,(#1208,#1209),.UNSPECIFIED.,.F.,
  .F.,(2,2),(-12.,0.),.PIECEWISE_BEZIER_KNOTS.);
#1208 = CARTESIAN_POINT('',(28.25,1.78E-15,12.));
#1209 = CARTESIAN_POINT('',(28.25,3.1E-16,0.));
#1210 = ORIENTED_EDGE('',*,*,#1211,.T.);
#1211 = EDGE_CURVE('',#1205,#1205,#1212,.T.);
#1212 = CIRCLE('',#1213,1.25);
#1213 = AXIS2_PLACEMENT_3D('',#1214,#1215,#1216);
#1214 = CARTESIAN_POINT('',(27.,1.47E-15,12.));
#1215 = DIRECTION('',(0.,-1.2E-16,-1.));
#1216 = DIRECTION('',(1.,0.,0.));
#1217 = ORIENTED_EDGE('',*,*,#1204,.T.);
#1218 = CYLINDRICAL_SURFACE('',#1219,1.25);
#1219 = AXIS2_PLACEMENT_3D('',#1220,#1221,#1222);
#1220 = CARTESIAN_POINT('',(27.,0.,0.));
#1221 = DIRECTION('',(0.,-1.2E-16,-1.));
#1222 = DIRECTION('',(1.,0.,0.));
#1223 = ADVANCED_FACE('',(#1224),#1227,.F.);
#1224 = FACE_BOUND('',#1225,.T.);
#1225 = EDGE_LOOP('',(#1226));
#1226 = ORIENTED_EDGE('',*,*,#1211,.T.);
#1227 = PLANE('',#1228);
#1228 = AXIS2_PLACEMENT_3D('',#1229,#1230,#1231);
#1229 = CARTESIAN_POINT('',(27.,9.8E-16,12.));
#1230 = DIRECTION('',(0.,0.,1.));
#1231 = DIRECTION('',(1.,0.,0.));
#1232 = ( GEOMETRIC_REPRESENTATION_CONTEXT(3) 
GLOBAL_UNCERTAINTY_ASSIGNED_CONTEXT((#1236)) 
GLOBAL_UNIT_ASSIGNED_CONTEXT((#1233,#1234,#1235)) REPRESENTATION_CONTEXT
('Context #1','3D Context with UNIT and UNCERTAINTY') );
#1233 = ( LENGTH_UNIT() NAMED_UNIT(*) SI_UNIT(.MILLI.,.METRE.) );
#1234 = ( NAMED_UNIT(*) PLANE_ANGLE_UNIT() SI_UNIT($,.RADIAN.) );
#1235 = ( NAMED_UNIT(*) SI_UNIT($,.STERADIAN.) SOLID_ANGLE_UNIT() );
#1236 = UNCERTAINTY_MEASURE_WITH_UNIT(LENGTH_MEASURE(5.E-06),#1233,
  'distance_accuracy_value','confusion accuracy');
#1237 = PRODUCT_RELATED_PRODUCT_CATEGORY('part',$,(#7));
ENDSEC;
END-ISO-10303-21;
