ISO-10303-21;
HEADER;
FILE_DESCRIPTION(('FreeCAD Model'),'2;1');
FILE_NAME('Open CASCADE Shape Model','2026-08-28T13:04:06',('FreeCAD'),(
    'FreeCAD'),'Open CASCADE STEP processor 7.8','FreeCAD','Unknown');
FILE_SCHEMA(('AUTOMOTIVE_DESIGN { 1 0 10303 214 1 1 1 1 }'));
ENDSEC;
DATA;
#1 = APPLICATION_PROTOCOL_DEFINITION('international standard',
  'automotive_design',2000,#2);
#2 = APPLICATION_CONTEXT(
  'core data for automotive mechanical design processes');
#3 = SHAPE_DEFINITION_REPRESENTATION(#4,#10);
#4 = PRODUCT_DEFINITION_SHAPE('','',#5);
#5 = PRODUCT_DEFINITION('design','',#6,#9);
#6 = PRODUCT_DEFINITION_FORMATION('','',#7);
#7 = PRODUCT('Open CASCADE STEP translator 7.8 91',
  'Open CASCADE STEP translator 7.8 91','',(#8));
#8 = PRODUCT_CONTEXT('',#2,'mechanical');
#9 = PRODUCT_DEFINITION_CONTEXT('part definition',#2,'design');
#10 = ADVANCED_BREP_SHAPE_REPRESENTATION('',(#11,#15),#1232);
#11 = AXIS2_PLACEMENT_3D('',#12,#13,#14);
#12 = CARTESIAN_POINT('',(0.,0.,0.));
#13 = DIRECTION('',(0.,0.,1.));
#14 = DIRECTION('',(1.,0.,-0.));
#15 = MANIFOLD_SOLID_BREP('',#16);
#16 = CLOSED_SHELL('',(#17,#738,#764,#790,#816,#842,#908,#932,#990,#1030
    ,#1047,#1064,#1081,#1090,#1124,#1141,#1153,#1170,#1182,#1199,#1223)
  );
#17 = ADVANCED_FACE('',(#18,#406,#515,#624),#733,.T.);
#18 = FACE_BOUND('',#19,.F.);
#19 = EDGE_LOOP('',(#20,#29,#81,#88,#140,#147,#199,#206,#213,#221,#230,
    #238,#245,#246,#296,#297,#347,#348,#398,#399));
#20 = ORIENTED_EDGE('',*,*,#21,.T.);
#21 = EDGE_CURVE('',#22,#24,#26,.T.);
#22 = VERTEX_POINT('',#23);
#23 = CARTESIAN_POINT('',(23.,50.,29.));
#24 = VERTEX_POINT('',#25);
#25 = CARTESIAN_POINT('',(23.,50.,28.130643116851));
#26 = B_SPLINE_CURVE_WITH_KNOTS('',1,(#27,#28),.UNSPECIFIED.,.F.,.F.,(2,
    2),(-30.,-5.),.PIECEWISE_BEZIER_KNOTS.);
#27 = CARTESIAN_POINT('',(23.,50.,30.));
#28 = CARTESIAN_POINT('',(23.,50.,5.));
#29 = ORIENTED_EDGE('',*,*,#30,.F.);
#30 = EDGE_CURVE('',#31,#24,#33,.T.);
#31 = VERTEX_POINT('',#32);
#32 = CARTESIAN_POINT('',(23.,50.,25.501987556255));
#33 = B_SPLINE_CURVE_WITH_KNOTS('',6,(#34,#35,#36,#37,#38,#39,#40,#41,
    #42,#43,#44,#45,#46,#47,#48,#49,#50,#51,#52,#53,#54,#55,#56,#57,#58,
    #59,#60,#61,#62,#63,#64,#65,#66,#67,#68,#69,#70,#71,#72,#73,#74,#75,
    #76,#77,#78,#79,#80),.UNSPECIFIED.,.F.,.F.,(7,5,5,5,5,5,5,5,5,7),(0.
    ,0.130047771302,0.217975756787,0.338664319588,0.425671453323,
    0.598167718128,0.750775817335,0.802328967798,0.867099423193,1.),
  .UNSPECIFIED.);
#34 = CARTESIAN_POINT('',(23.,50.,25.501987556255));
#35 = CARTESIAN_POINT('',(23.,50.099990763732,25.501987556255));
#36 = CARTESIAN_POINT('',(23.002999366631,50.199794672245,25.51110521705
    ));
#37 = CARTESIAN_POINT('',(23.008977612192,50.297861783585,25.52927619222
    ));
#38 = CARTESIAN_POINT('',(23.01761893575,50.392679544472,25.556071827145
    ));
#39 = CARTESIAN_POINT('',(23.028337439331,50.482905463402,
    25.590718430271));
#40 = CARTESIAN_POINT('',(23.048656267892,50.624676209777,
    25.660069661046));
#41 = CARTESIAN_POINT('',(23.057504960231,50.679358221444,
    25.691157241427));
#42 = CARTESIAN_POINT('',(23.066821948268,50.731345112147,
    25.725098117618));
#43 = CARTESIAN_POINT('',(23.076417284127,50.780488029292,
    25.761623938836));
#44 = CARTESIAN_POINT('',(23.086106814554,50.826677629309,
    25.800457131366));
#45 = CARTESIAN_POINT('',(23.108923974461,50.929092034845,
    25.897386221248));
#46 = CARTESIAN_POINT('',(23.121988679391,50.982648100345,
    25.957271912389));
#47 = CARTESIAN_POINT('',(23.134515900548,51.030467986372,
    26.020362029498));
#48 = CARTESIAN_POINT('',(23.146169266184,51.0725759241,26.086089478697)
  );
#49 = CARTESIAN_POINT('',(23.156688455518,51.109054046934,
    26.153922782215));
#50 = CARTESIAN_POINT('',(23.172540098368,51.162365503031,
    26.273423705767));
#51 = CARTESIAN_POINT('',(23.17850200854,51.181844848521,26.324330293687
    ));
#52 = CARTESIAN_POINT('',(23.183722687332,51.198529397536,
    26.375925464546));
#53 = CARTESIAN_POINT('',(23.188158582817,51.212478777569,
    26.428060852792));
#54 = CARTESIAN_POINT('',(23.191783778013,51.223753274746,
    26.480595779857));
#55 = CARTESIAN_POINT('',(23.200149157613,51.249583651028,
    26.638075833577));
#56 = CARTESIAN_POINT('',(23.202480269851,51.256464508722,
    26.743710080072));
#57 = CARTESIAN_POINT('',(23.201528185199,51.253600592208,
    26.849488382951));
#58 = CARTESIAN_POINT('',(23.197435315362,51.241378013761,
    26.954697097447));
#59 = CARTESIAN_POINT('',(23.190477571226,51.220058935482,
    27.058623468786));
#60 = CARTESIAN_POINT('',(23.172706038887,51.163016553472,
    27.250590481836));
#61 = CARTESIAN_POINT('',(23.162429091456,51.129237464876,
    27.339080815982));
#62 = CARTESIAN_POINT('',(23.15047272496,51.088500882005,27.425601943825
    ));
#63 = CARTESIAN_POINT('',(23.137134264438,51.040691002311,
    27.509696060062));
#64 = CARTESIAN_POINT('',(23.122790660807,50.985592367213,
    27.590697512597));
#65 = CARTESIAN_POINT('',(23.102918072509,50.901790120895,
    27.693625510958));
#66 = CARTESIAN_POINT('',(23.097840476453,50.879762996148,
    27.719158860405));
#67 = CARTESIAN_POINT('',(23.092721687775,50.856856548764,
    27.744200176213));
#68 = CARTESIAN_POINT('',(23.087582012311,50.833057698119,
    27.768708832218));
#69 = CARTESIAN_POINT('',(23.082443723856,50.808353547517,
    27.792638412023));
#70 = CARTESIAN_POINT('',(23.07090761004,50.750540156846,27.845208272276
    ));
#71 = CARTESIAN_POINT('',(23.06452313539,50.716892268322,27.873490309683
    ));
#72 = CARTESIAN_POINT('',(23.058227901785,50.681771671982,
    27.900668885018));
#73 = CARTESIAN_POINT('',(23.052077659994,50.645166883909,
    27.926616845755));
#74 = CARTESIAN_POINT('',(23.046133211932,50.607072068601,27.95119340471
    ));
#75 = CARTESIAN_POINT('',(23.02881922113,50.486267003903,28.021539983639
    ));
#76 = CARTESIAN_POINT('',(23.018181750236,50.397809545793,
    28.062973664105));
#77 = CARTESIAN_POINT('',(23.00937918244,50.303353025315,28.096038653704
    ));
#78 = CARTESIAN_POINT('',(23.003165753774,50.204428425997,
    28.118962482213));
#79 = CARTESIAN_POINT('',(23.,50.102725932796,28.130643116851));
#80 = CARTESIAN_POINT('',(23.,50.,28.130643116851));
#81 = ORIENTED_EDGE('',*,*,#82,.T.);
#82 = EDGE_CURVE('',#31,#83,#85,.T.);
#83 = VERTEX_POINT('',#84);
#84 = CARTESIAN_POINT('',(23.,50.,23.924794219898));
#85 = B_SPLINE_CURVE_WITH_KNOTS('',1,(#86,#87),.UNSPECIFIED.,.F.,.F.,(2,
    2),(-30.,-5.),.PIECEWISE_BEZIER_KNOTS.);
#86 = CARTESIAN_POINT('',(23.,50.,30.));
#87 = CARTESIAN_POINT('',(23.,50.,5.));
#88 = ORIENTED_EDGE('',*,*,#89,.F.);
#89 = EDGE_CURVE('',#90,#83,#92,.T.);
#90 = VERTEX_POINT('',#91);
#91 = CARTESIAN_POINT('',(23.,50.,21.296138659302));
#92 = B_SPLINE_CURVE_WITH_KNOTS('',6,(#93,#94,#95,#96,#97,#98,#99,#100,
    #101,#102,#103,#104,#105,#106,#107,#108,#109,#110,#111,#112,#113,
    #114,#115,#116,#117,#118,#119,#120,#121,#122,#123,#124,#125,#126,
    #127,#128,#129,#130,#131,#132,#133,#134,#135,#136,#137,#138,#139),
  .UNSPECIFIED.,.F.,.F.,(7,5,5,5,5,5,5,5,5,7),(0.,0.13004776921,
    0.21797575328,0.338664314139,0.425671446474,0.598167708504,
    0.750775825718,0.802328974445,0.867099427661,1.),.UNSPECIFIED.);
#93 = CARTESIAN_POINT('',(23.,50.,21.296138659302));
#94 = CARTESIAN_POINT('',(23.,50.099990763732,21.296138659302));
#95 = CARTESIAN_POINT('',(23.002999366631,50.199794672245,
    21.305256320097));
#96 = CARTESIAN_POINT('',(23.008977612192,50.297861783585,
    21.323427295267));
#97 = CARTESIAN_POINT('',(23.01761893575,50.392679544472,21.350222930191
    ));
#98 = CARTESIAN_POINT('',(23.028337439331,50.482905463402,
    21.384869533318));
#99 = CARTESIAN_POINT('',(23.048656267892,50.624676209777,
    21.454220764093));
#100 = CARTESIAN_POINT('',(23.057504960231,50.679358221444,
    21.485308344474));
#101 = CARTESIAN_POINT('',(23.066821948268,50.731345112147,
    21.519249220665));
#102 = CARTESIAN_POINT('',(23.076417284127,50.780488029292,
    21.555775041883));
#103 = CARTESIAN_POINT('',(23.086106814554,50.826677629309,
    21.594608234413));
#104 = CARTESIAN_POINT('',(23.108923974461,50.929092034845,
    21.691537324295));
#105 = CARTESIAN_POINT('',(23.121988679391,50.982648100345,
    21.751423015436));
#106 = CARTESIAN_POINT('',(23.134515900548,51.030467986372,
    21.814513132545));
#107 = CARTESIAN_POINT('',(23.146169266184,51.0725759241,21.880240581744
    ));
#108 = CARTESIAN_POINT('',(23.156688455518,51.109054046934,
    21.948073885262));
#109 = CARTESIAN_POINT('',(23.172540098368,51.162365503031,
    22.067574808814));
#110 = CARTESIAN_POINT('',(23.17850200854,51.181844848521,
    22.118481396734));
#111 = CARTESIAN_POINT('',(23.183722687332,51.198529397536,
    22.170076567593));
#112 = CARTESIAN_POINT('',(23.188158582817,51.212478777569,
    22.222211955839));
#113 = CARTESIAN_POINT('',(23.191783778013,51.223753274746,
    22.274746882904));
#114 = CARTESIAN_POINT('',(23.200149157613,51.249583651028,
    22.432226936624));
#115 = CARTESIAN_POINT('',(23.202480269851,51.256464508722,
    22.537861183118));
#116 = CARTESIAN_POINT('',(23.201528185199,51.253600592208,
    22.643639485998));
#117 = CARTESIAN_POINT('',(23.197435315362,51.241378013761,
    22.748848200494));
#118 = CARTESIAN_POINT('',(23.190477571226,51.220058935482,
    22.852774571833));
#119 = CARTESIAN_POINT('',(23.172706037769,51.163016549882,
    23.044741596964));
#120 = CARTESIAN_POINT('',(23.162429093955,51.129237474154,
    23.133231899929));
#121 = CARTESIAN_POINT('',(23.150472724463,51.088500879381,
    23.219753046446));
#122 = CARTESIAN_POINT('',(23.137134261732,51.040690991898,
    23.303847181808));
#123 = CARTESIAN_POINT('',(23.12279066306,50.985592376713,
    23.384848603975));
#124 = CARTESIAN_POINT('',(23.102918072509,50.901790120895,
    23.487776614005));
#125 = CARTESIAN_POINT('',(23.097840476453,50.879762996148,
    23.513309963452));
#126 = CARTESIAN_POINT('',(23.092721687775,50.856856548764,
    23.53835127926));
#127 = CARTESIAN_POINT('',(23.087582012311,50.833057698119,
    23.562859935264));
#128 = CARTESIAN_POINT('',(23.082443723856,50.808353547517,
    23.58678951507));
#129 = CARTESIAN_POINT('',(23.07090761004,50.750540156845,
    23.639359375324));
#130 = CARTESIAN_POINT('',(23.06452313539,50.716892268322,
    23.667641412729));
#131 = CARTESIAN_POINT('',(23.058227901785,50.681771671983,
    23.694819988064));
#132 = CARTESIAN_POINT('',(23.052077659994,50.645166883909,
    23.720767948802));
#133 = CARTESIAN_POINT('',(23.046133211932,50.6070720686,23.745344507758
    ));
#134 = CARTESIAN_POINT('',(23.02881922113,50.486267003903,
    23.815691086686));
#135 = CARTESIAN_POINT('',(23.018181750236,50.397809545794,
    23.857124767151));
#136 = CARTESIAN_POINT('',(23.00937918244,50.303353025315,
    23.890189756751));
#137 = CARTESIAN_POINT('',(23.003165753774,50.204428425997,
    23.913113585259));
#138 = CARTESIAN_POINT('',(23.,50.102725932796,23.924794219898));
#139 = CARTESIAN_POINT('',(23.,50.,23.924794219898));
#140 = ORIENTED_EDGE('',*,*,#141,.T.);
#141 = EDGE_CURVE('',#90,#142,#144,.T.);
#142 = VERTEX_POINT('',#143);
#143 = CARTESIAN_POINT('',(23.,50.,19.718945322944));
#144 = B_SPLINE_CURVE_WITH_KNOTS('',1,(#145,#146),.UNSPECIFIED.,.F.,.F.,
  (2,2),(-30.,-5.),.PIECEWISE_BEZIER_KNOTS.);
#145 = CARTESIAN_POINT('',(23.,50.,30.));
#146 = CARTESIAN_POINT('',(23.,50.,5.));
#147 = ORIENTED_EDGE('',*,*,#148,.F.);
#148 = EDGE_CURVE('',#149,#142,#151,.T.);
#149 = VERTEX_POINT('',#150);
#150 = CARTESIAN_POINT('',(23.,50.,17.090289762349));
#151 = B_SPLINE_CURVE_WITH_KNOTS('',6,(#152,#153,#154,#155,#156,#157,
    #158,#159,#160,#161,#162,#163,#164,#165,#166,#167,#168,#169,#170,
    #171,#172,#173,#174,#175,#176,#177,#178,#179,#180,#181,#182,#183,
    #184,#185,#186,#187,#188,#189,#190,#191,#192,#193,#194,#195,#196,
    #197,#198),.UNSPECIFIED.,.F.,.F.,(7,5,5,5,5,5,5,5,5,7),(0.,
    0.13004776921,0.21797575328,0.338664314139,0.425671446474,
    0.598167708504,0.750775825718,0.802328974445,0.867099427661,1.),
  .UNSPECIFIED.);
#152 = CARTESIAN_POINT('',(23.,50.,17.090289762349));
#153 = CARTESIAN_POINT('',(23.,50.099990763732,17.090289762349));
#154 = CARTESIAN_POINT('',(23.002999366631,50.199794672245,
    17.099407423144));
#155 = CARTESIAN_POINT('',(23.008977612192,50.297861783585,
    17.117578398313));
#156 = CARTESIAN_POINT('',(23.01761893575,50.392679544472,
    17.144374033238));
#157 = CARTESIAN_POINT('',(23.028337439331,50.482905463402,
    17.179020636365));
#158 = CARTESIAN_POINT('',(23.048656267892,50.624676209777,
    17.24837186714));
#159 = CARTESIAN_POINT('',(23.057504960231,50.679358221444,
    17.279459447521));
#160 = CARTESIAN_POINT('',(23.066821948268,50.731345112147,
    17.313400323712));
#161 = CARTESIAN_POINT('',(23.076417284127,50.780488029292,
    17.34992614493));
#162 = CARTESIAN_POINT('',(23.086106814554,50.826677629309,
    17.38875933746));
#163 = CARTESIAN_POINT('',(23.108923974461,50.929092034845,
    17.485688427342));
#164 = CARTESIAN_POINT('',(23.121988679391,50.982648100345,
    17.545574118483));
#165 = CARTESIAN_POINT('',(23.134515900548,51.030467986372,
    17.608664235592));
#166 = CARTESIAN_POINT('',(23.146169266184,51.0725759241,17.674391684791
    ));
#167 = CARTESIAN_POINT('',(23.156688455518,51.109054046934,
    17.742224988309));
#168 = CARTESIAN_POINT('',(23.172540098368,51.162365503031,
    17.86172591186));
#169 = CARTESIAN_POINT('',(23.17850200854,51.181844848521,
    17.912632499781));
#170 = CARTESIAN_POINT('',(23.183722687332,51.198529397536,
    17.96422767064));
#171 = CARTESIAN_POINT('',(23.188158582817,51.212478777569,
    18.016363058886));
#172 = CARTESIAN_POINT('',(23.191783778013,51.223753274746,
    18.068897985951));
#173 = CARTESIAN_POINT('',(23.200149157613,51.249583651028,
    18.226378039671));
#174 = CARTESIAN_POINT('',(23.202480269851,51.256464508722,
    18.332012286166));
#175 = CARTESIAN_POINT('',(23.201528185199,51.253600592208,
    18.437790589044));
#176 = CARTESIAN_POINT('',(23.197435315362,51.241378013761,
    18.542999303541));
#177 = CARTESIAN_POINT('',(23.190477571226,51.220058935482,
    18.64692567488));
#178 = CARTESIAN_POINT('',(23.172706037769,51.163016549882,
    18.838892700011));
#179 = CARTESIAN_POINT('',(23.162429093955,51.129237474154,
    18.927383002976));
#180 = CARTESIAN_POINT('',(23.150472724463,51.088500879381,
    19.013904149493));
#181 = CARTESIAN_POINT('',(23.137134261732,51.040690991898,
    19.097998284855));
#182 = CARTESIAN_POINT('',(23.12279066306,50.985592376713,
    19.178999707022));
#183 = CARTESIAN_POINT('',(23.102918072509,50.901790120895,
    19.281927717052));
#184 = CARTESIAN_POINT('',(23.097840476453,50.879762996148,
    19.307461066499));
#185 = CARTESIAN_POINT('',(23.092721687775,50.856856548764,
    19.332502382307));
#186 = CARTESIAN_POINT('',(23.087582012311,50.833057698119,
    19.357011038311));
#187 = CARTESIAN_POINT('',(23.082443723856,50.808353547517,
    19.380940618117));
#188 = CARTESIAN_POINT('',(23.07090761004,50.750540156845,
    19.433510478371));
#189 = CARTESIAN_POINT('',(23.06452313539,50.716892268322,
    19.461792515776));
#190 = CARTESIAN_POINT('',(23.058227901785,50.681771671983,
    19.488971091111));
#191 = CARTESIAN_POINT('',(23.052077659994,50.645166883909,
    19.514919051849));
#192 = CARTESIAN_POINT('',(23.046133211932,50.6070720686,19.539495610805
    ));
#193 = CARTESIAN_POINT('',(23.02881922113,50.486267003903,
    19.609842189733));
#194 = CARTESIAN_POINT('',(23.018181750236,50.397809545793,
    19.651275870198));
#195 = CARTESIAN_POINT('',(23.00937918244,50.303353025315,
    19.684340859797));
#196 = CARTESIAN_POINT('',(23.003165753774,50.204428425997,
    19.707264688306));
#197 = CARTESIAN_POINT('',(23.,50.102725932796,19.718945322944));
#198 = CARTESIAN_POINT('',(23.,50.,19.718945322944));
#199 = ORIENTED_EDGE('',*,*,#200,.T.);
#200 = EDGE_CURVE('',#149,#201,#203,.T.);
#201 = VERTEX_POINT('',#202);
#202 = CARTESIAN_POINT('',(23.,50.,9.));
#203 = B_SPLINE_CURVE_WITH_KNOTS('',1,(#204,#205),.UNSPECIFIED.,.F.,.F.,
  (2,2),(-30.,-5.),.PIECEWISE_BEZIER_KNOTS.);
#204 = CARTESIAN_POINT('',(23.,50.,30.));
#205 = CARTESIAN_POINT('',(23.,50.,5.));
#206 = ORIENTED_EDGE('',*,*,#207,.T.);
#207 = EDGE_CURVE('',#201,#208,#210,.T.);
#208 = VERTEX_POINT('',#209);
#209 = CARTESIAN_POINT('',(23.,50.,5.));
#210 = B_SPLINE_CURVE_WITH_KNOTS('',1,(#211,#212),.UNSPECIFIED.,.F.,.F.,
  (2,2),(-30.,-5.),.PIECEWISE_BEZIER_KNOTS.);
#211 = CARTESIAN_POINT('',(23.,50.,30.));
#212 = CARTESIAN_POINT('',(23.,50.,5.));
#213 = ORIENTED_EDGE('',*,*,#214,.F.);
#214 = EDGE_CURVE('',#215,#208,#217,.T.);
#215 = VERTEX_POINT('',#216);
#216 = CARTESIAN_POINT('',(23.,50.,0.));
#217 = LINE('',#218,#219);
#218 = CARTESIAN_POINT('',(23.,50.,0.));
#219 = VECTOR('',#220,1.);
#220 = DIRECTION('',(0.,0.,1.));
#221 = ORIENTED_EDGE('',*,*,#222,.F.);
#222 = EDGE_CURVE('',#223,#215,#225,.T.);
#223 = VERTEX_POINT('',#224);
#224 = CARTESIAN_POINT('',(31.,50.,0.));
#225 = CIRCLE('',#226,4.);
#226 = AXIS2_PLACEMENT_3D('',#227,#228,#229);
#227 = CARTESIAN_POINT('',(27.,50.,0.));
#228 = DIRECTION('',(0.,0.,1.));
#229 = DIRECTION('',(-1.,0.,0.));
#230 = ORIENTED_EDGE('',*,*,#231,.T.);
#231 = EDGE_CURVE('',#223,#232,#234,.T.);
#232 = VERTEX_POINT('',#233);
#233 = CARTESIAN_POINT('',(31.,50.,9.));
#234 = LINE('',#235,#236);
#235 = CARTESIAN_POINT('',(31.,50.,5.));
#236 = VECTOR('',#237,1.);
#237 = DIRECTION('',(0.,0.,1.));
#238 = ORIENTED_EDGE('',*,*,#239,.T.);
#239 = EDGE_CURVE('',#232,#201,#240,.T.);
#240 = CIRCLE('',#241,4.);
#241 = AXIS2_PLACEMENT_3D('',#242,#243,#244);
#242 = CARTESIAN_POINT('',(27.,50.,9.));
#243 = DIRECTION('',(0.,0.,-1.));
#244 = DIRECTION('',(-1.,0.,0.));
#245 = ORIENTED_EDGE('',*,*,#200,.F.);
#246 = ORIENTED_EDGE('',*,*,#247,.F.);
#247 = EDGE_CURVE('',#142,#149,#248,.T.);
#248 = B_SPLINE_CURVE_WITH_KNOTS('',6,(#249,#250,#251,#252,#253,#254,
    #255,#256,#257,#258,#259,#260,#261,#262,#263,#264,#265,#266,#267,
    #268,#269,#270,#271,#272,#273,#274,#275,#276,#277,#278,#279,#280,
    #281,#282,#283,#284,#285,#286,#287,#288,#289,#290,#291,#292,#293,
    #294,#295),.UNSPECIFIED.,.F.,.F.,(7,5,5,5,5,5,5,5,5,7),(0.,
    0.132902518537,0.197042801263,0.248868639772,0.402281861719,
    0.573782684574,0.66080044844,0.781208187561,0.867714619417,1.),
  .UNSPECIFIED.);
#249 = CARTESIAN_POINT('',(23.,50.,19.718945322944));
#250 = CARTESIAN_POINT('',(23.,49.897274067204,19.718945322944));
#251 = CARTESIAN_POINT('',(23.003165753774,49.795571574003,
    19.707264688306));
#252 = CARTESIAN_POINT('',(23.00937918244,49.696646974685,
    19.684340859797));
#253 = CARTESIAN_POINT('',(23.018181750236,49.602190454207,
    19.651275870198));
#254 = CARTESIAN_POINT('',(23.02881922113,49.513732996097,
    19.609842189733));
#255 = CARTESIAN_POINT('',(23.046077933075,49.39331362907,
    19.539720208272));
#256 = CARTESIAN_POINT('',(23.051961872834,49.355575421815,
    19.515397720633));
#257 = CARTESIAN_POINT('',(23.0580482599,49.319298274485,19.489728864986
    ));
#258 = CARTESIAN_POINT('',(23.06427798573,49.284476714454,
    19.462850566089));
#259 = CARTESIAN_POINT('',(23.070596789795,49.251099808249,
    19.434886673452));
#260 = CARTESIAN_POINT('',(23.08209371934,49.19333827806,19.382565984239
    ));
#261 = CARTESIAN_POINT('',(23.087258854594,49.168452737926,
    19.358543078642));
#262 = CARTESIAN_POINT('',(23.092426395086,49.144482624928,
    19.33393284227));
#263 = CARTESIAN_POINT('',(23.09757364939,49.121414838522,
    19.308782607785));
#264 = CARTESIAN_POINT('',(23.102679929457,49.09923612656,19.28313384289
    ));
#265 = CARTESIAN_POINT('',(23.122665400311,49.014872490541,
    19.179727136853));
#266 = CARTESIAN_POINT('',(23.137092724499,48.959436293961,
    19.098315526493));
#267 = CARTESIAN_POINT('',(23.150505279798,48.91136748657,19.01377746273
    ));
#268 = CARTESIAN_POINT('',(23.162520217284,48.870446320281,
    18.926789630621));
#269 = CARTESIAN_POINT('',(23.172836110777,48.836554481293,
    18.837815160642));
#270 = CARTESIAN_POINT('',(23.190537262807,48.779762499697,
    18.645908685918));
#271 = CARTESIAN_POINT('',(23.19743327152,48.758631518427,
    18.542575200688));
#272 = CARTESIAN_POINT('',(23.201496556428,48.746493721086,
    18.437976680815));
#273 = CARTESIAN_POINT('',(23.20245615605,48.743607350907,
    18.332813607353));
#274 = CARTESIAN_POINT('',(23.200171681362,48.750351793769,
    18.227788170362));
#275 = CARTESIAN_POINT('',(23.19191500405,48.775839067832,
    18.070882133972));
#276 = CARTESIAN_POINT('',(23.188314945222,48.787031173007,
    18.018329644033));
#277 = CARTESIAN_POINT('',(23.183903469043,48.800897211815,
    17.966173380421));
#278 = CARTESIAN_POINT('',(23.178706173596,48.81749750962,17.91455384736
    ));
#279 = CARTESIAN_POINT('',(23.172766271573,48.836891769763,
    17.863619215728));
#280 = CARTESIAN_POINT('',(23.156985524247,48.889922841262,
    17.744212204346));
#281 = CARTESIAN_POINT('',(23.146519974713,48.926178346106,
    17.676488772859));
#282 = CARTESIAN_POINT('',(23.134920935236,48.968035413302,
    17.610850959547));
#283 = CARTESIAN_POINT('',(23.122445595092,49.015576497356,
    17.547825852563));
#284 = CARTESIAN_POINT('',(23.109426589135,49.068826960117,
    17.487975817795));
#285 = CARTESIAN_POINT('',(23.08680361325,49.170075123534,
    17.391615246068));
#286 = CARTESIAN_POINT('',(23.077269709486,49.215332043269,
    17.35327657093));
#287 = CARTESIAN_POINT('',(23.067818108789,49.263450906736,
    17.317157126413));
#288 = CARTESIAN_POINT('',(23.058623304441,49.314330436097,
    17.283520473247));
#289 = CARTESIAN_POINT('',(23.049865687862,49.367832626256,
    17.252622108085));
#290 = CARTESIAN_POINT('',(23.029266099819,49.509339697903,
    17.182025446456));
#291 = CARTESIAN_POINT('',(23.018218347529,49.600799527886,
    17.146233651805));
#292 = CARTESIAN_POINT('',(23.009289360694,49.697074469581,
    17.118525886425));
#293 = CARTESIAN_POINT('',(23.003103960592,49.796763289293,
    17.099725404538));
#294 = CARTESIAN_POINT('',(23.,49.898280606249,17.090289762349));
#295 = CARTESIAN_POINT('',(23.,50.,17.090289762349));
#296 = ORIENTED_EDGE('',*,*,#141,.F.);
#297 = ORIENTED_EDGE('',*,*,#298,.F.);
#298 = EDGE_CURVE('',#83,#90,#299,.T.);
#299 = B_SPLINE_CURVE_WITH_KNOTS('',6,(#300,#301,#302,#303,#304,#305,
    #306,#307,#308,#309,#310,#311,#312,#313,#314,#315,#316,#317,#318,
    #319,#320,#321,#322,#323,#324,#325,#326,#327,#328,#329,#330,#331,
    #332,#333,#334,#335,#336,#337,#338,#339,#340,#341,#342,#343,#344,
    #345,#346),.UNSPECIFIED.,.F.,.F.,(7,5,5,5,5,5,5,5,5,7),(0.,
    0.132902518532,0.197042801256,0.248868639766,0.402281861714,
    0.573782684571,0.660800448437,0.781208187559,0.867714619416,1.),
  .UNSPECIFIED.);
#300 = CARTESIAN_POINT('',(23.,50.,23.924794219898));
#301 = CARTESIAN_POINT('',(23.,49.897274067204,23.924794219898));
#302 = CARTESIAN_POINT('',(23.003165753774,49.795571574003,
    23.913113585259));
#303 = CARTESIAN_POINT('',(23.00937918244,49.696646974685,
    23.890189756751));
#304 = CARTESIAN_POINT('',(23.018181750236,49.602190454207,
    23.857124767151));
#305 = CARTESIAN_POINT('',(23.02881922113,49.513732996097,
    23.815691086686));
#306 = CARTESIAN_POINT('',(23.046077933075,49.393313629069,
    23.745569105225));
#307 = CARTESIAN_POINT('',(23.051961872834,49.355575421815,
    23.721246617586));
#308 = CARTESIAN_POINT('',(23.0580482599,49.319298274486,23.69557776194)
  );
#309 = CARTESIAN_POINT('',(23.06427798573,49.284476714454,
    23.668699463042));
#310 = CARTESIAN_POINT('',(23.070596789795,49.251099808248,
    23.640735570404));
#311 = CARTESIAN_POINT('',(23.08209371934,49.19333827806,23.588414881192
    ));
#312 = CARTESIAN_POINT('',(23.087258854594,49.168452737926,
    23.564391975595));
#313 = CARTESIAN_POINT('',(23.092426395086,49.144482624928,
    23.539781739223));
#314 = CARTESIAN_POINT('',(23.09757364939,49.121414838522,
    23.514631504738));
#315 = CARTESIAN_POINT('',(23.102679929457,49.09923612656,
    23.488982739843));
#316 = CARTESIAN_POINT('',(23.122665400311,49.01487249054,
    23.385576033806));
#317 = CARTESIAN_POINT('',(23.137092724499,48.959436293961,
    23.304164423447));
#318 = CARTESIAN_POINT('',(23.150505279798,48.91136748657,
    23.219626359683));
#319 = CARTESIAN_POINT('',(23.162520217284,48.870446320281,
    23.132638527574));
#320 = CARTESIAN_POINT('',(23.172836110777,48.836554481293,
    23.043664057595));
#321 = CARTESIAN_POINT('',(23.190537262807,48.779762499697,
    22.851757582871));
#322 = CARTESIAN_POINT('',(23.19743327152,48.758631518427,
    22.748424097641));
#323 = CARTESIAN_POINT('',(23.201496556428,48.746493721087,
    22.643825577768));
#324 = CARTESIAN_POINT('',(23.20245615605,48.743607350907,
    22.538662504306));
#325 = CARTESIAN_POINT('',(23.200171681362,48.750351793769,
    22.433637067315));
#326 = CARTESIAN_POINT('',(23.19191500405,48.775839067832,
    22.276731030925));
#327 = CARTESIAN_POINT('',(23.188314945222,48.787031173007,
    22.224178540986));
#328 = CARTESIAN_POINT('',(23.183903469043,48.800897211815,
    22.172022277374));
#329 = CARTESIAN_POINT('',(23.178706173596,48.81749750962,
    22.120402744313));
#330 = CARTESIAN_POINT('',(23.172766271573,48.836891769763,
    22.069468112681));
#331 = CARTESIAN_POINT('',(23.156985524247,48.889922841262,
    21.950061101299));
#332 = CARTESIAN_POINT('',(23.146519974713,48.926178346106,
    21.882337669812));
#333 = CARTESIAN_POINT('',(23.134920935236,48.968035413302,21.8166998565
    ));
#334 = CARTESIAN_POINT('',(23.122445595092,49.015576497356,
    21.753674749516));
#335 = CARTESIAN_POINT('',(23.109426589135,49.068826960117,
    21.693824714748));
#336 = CARTESIAN_POINT('',(23.08680361325,49.170075123534,
    21.597464143021));
#337 = CARTESIAN_POINT('',(23.077269709486,49.215332043269,
    21.559125467883));
#338 = CARTESIAN_POINT('',(23.067818108789,49.263450906736,
    21.523006023366));
#339 = CARTESIAN_POINT('',(23.058623304441,49.314330436097,
    21.489369370201));
#340 = CARTESIAN_POINT('',(23.049865687862,49.367832626256,
    21.458471005038));
#341 = CARTESIAN_POINT('',(23.029266099819,49.509339697903,
    21.387874343409));
#342 = CARTESIAN_POINT('',(23.018218347529,49.600799527886,
    21.352082548758));
#343 = CARTESIAN_POINT('',(23.009289360694,49.697074469581,
    21.324374783378));
#344 = CARTESIAN_POINT('',(23.003103960592,49.796763289293,
    21.305574301491));
#345 = CARTESIAN_POINT('',(23.,49.898280606249,21.296138659302));
#346 = CARTESIAN_POINT('',(23.,50.,21.296138659302));
#347 = ORIENTED_EDGE('',*,*,#82,.F.);
#348 = ORIENTED_EDGE('',*,*,#349,.F.);
#349 = EDGE_CURVE('',#24,#31,#350,.T.);
#350 = B_SPLINE_CURVE_WITH_KNOTS('',6,(#351,#352,#353,#354,#355,#356,
    #357,#358,#359,#360,#361,#362,#363,#364,#365,#366,#367,#368,#369,
    #370,#371,#372,#373,#374,#375,#376,#377,#378,#379,#380,#381,#382,
    #383,#384,#385,#386,#387,#388,#389,#390,#391,#392,#393,#394,#395,
    #396,#397),.UNSPECIFIED.,.F.,.F.,(7,5,5,5,5,5,5,5,5,7),(0.,
    0.132902518537,0.197042801262,0.248868639771,0.402281861718,
    0.573782684574,0.66080044844,0.78120818756,0.867714619416,1.),
  .UNSPECIFIED.);
#351 = CARTESIAN_POINT('',(23.,50.,28.130643116851));
#352 = CARTESIAN_POINT('',(23.,49.897274067204,28.130643116851));
#353 = CARTESIAN_POINT('',(23.003165753774,49.795571574003,
    28.118962482213));
#354 = CARTESIAN_POINT('',(23.00937918244,49.696646974685,
    28.096038653704));
#355 = CARTESIAN_POINT('',(23.018181750236,49.602190454207,
    28.062973664105));
#356 = CARTESIAN_POINT('',(23.02881922113,49.513732996097,28.02153998364
    ));
#357 = CARTESIAN_POINT('',(23.046077933075,49.39331362907,
    27.951418002178));
#358 = CARTESIAN_POINT('',(23.051961872834,49.355575421815,
    27.927095514539));
#359 = CARTESIAN_POINT('',(23.0580482599,49.319298274485,27.901426658893
    ));
#360 = CARTESIAN_POINT('',(23.06427798573,49.284476714454,
    27.874548359995));
#361 = CARTESIAN_POINT('',(23.070596789795,49.251099808249,
    27.846584467358));
#362 = CARTESIAN_POINT('',(23.08209371934,49.19333827806,27.794263778145
    ));
#363 = CARTESIAN_POINT('',(23.087258854594,49.168452737926,
    27.770240872548));
#364 = CARTESIAN_POINT('',(23.092426395086,49.144482624928,
    27.745630636176));
#365 = CARTESIAN_POINT('',(23.09757364939,49.121414838522,
    27.720480401691));
#366 = CARTESIAN_POINT('',(23.102679929457,49.09923612656,
    27.694831636796));
#367 = CARTESIAN_POINT('',(23.122665400311,49.01487249054,
    27.591424930759));
#368 = CARTESIAN_POINT('',(23.137092724499,48.959436293961,27.5100133204
    ));
#369 = CARTESIAN_POINT('',(23.150505279798,48.91136748657,
    27.425475256636));
#370 = CARTESIAN_POINT('',(23.162520217284,48.870446320281,
    27.338487424527));
#371 = CARTESIAN_POINT('',(23.172836110777,48.836554481293,
    27.249512954548));
#372 = CARTESIAN_POINT('',(23.190537262807,48.779762499697,
    27.057606479824));
#373 = CARTESIAN_POINT('',(23.19743327152,48.758631518427,
    26.954272994594));
#374 = CARTESIAN_POINT('',(23.201496556428,48.746493721086,
    26.849674474721));
#375 = CARTESIAN_POINT('',(23.20245615605,48.743607350907,
    26.744511401259));
#376 = CARTESIAN_POINT('',(23.200171681362,48.750351793769,
    26.639485964268));
#377 = CARTESIAN_POINT('',(23.19191500405,48.775839067832,
    26.482579927878));
#378 = CARTESIAN_POINT('',(23.188314945222,48.787031173007,
    26.430027437939));
#379 = CARTESIAN_POINT('',(23.183903469043,48.800897211815,
    26.377871174327));
#380 = CARTESIAN_POINT('',(23.178706173596,48.81749750962,
    26.326251641266));
#381 = CARTESIAN_POINT('',(23.172766271573,48.836891769763,
    26.275317009634));
#382 = CARTESIAN_POINT('',(23.156985524247,48.889922841262,
    26.155909998252));
#383 = CARTESIAN_POINT('',(23.146519974713,48.926178346106,
    26.088186566765));
#384 = CARTESIAN_POINT('',(23.134920935236,48.968035413302,
    26.022548753453));
#385 = CARTESIAN_POINT('',(23.122445595092,49.015576497356,
    25.959523646469));
#386 = CARTESIAN_POINT('',(23.109426589135,49.068826960117,
    25.899673611701));
#387 = CARTESIAN_POINT('',(23.08680361325,49.170075123534,
    25.803313039974));
#388 = CARTESIAN_POINT('',(23.077269709486,49.215332043269,
    25.764974364837));
#389 = CARTESIAN_POINT('',(23.067818108789,49.263450906736,
    25.728854920319));
#390 = CARTESIAN_POINT('',(23.058623304441,49.314330436097,
    25.695218267154));
#391 = CARTESIAN_POINT('',(23.049865687862,49.367832626256,
    25.664319901992));
#392 = CARTESIAN_POINT('',(23.029266099819,49.509339697903,
    25.593723240362));
#393 = CARTESIAN_POINT('',(23.018218347529,49.600799527886,
    25.557931445711));
#394 = CARTESIAN_POINT('',(23.009289360694,49.697074469582,
    25.530223680331));
#395 = CARTESIAN_POINT('',(23.003103960592,49.796763289293,
    25.511423198444));
#396 = CARTESIAN_POINT('',(23.,49.898280606249,25.501987556255));
#397 = CARTESIAN_POINT('',(23.,50.,25.501987556255));
#398 = ORIENTED_EDGE('',*,*,#21,.F.);
#399 = ORIENTED_EDGE('',*,*,#400,.T.);
#400 = EDGE_CURVE('',#22,#22,#401,.T.);
#401 = CIRCLE('',#402,4.);
#402 = AXIS2_PLACEMENT_3D('',#403,#404,#405);
#403 = CARTESIAN_POINT('',(27.,50.,29.));
#404 = DIRECTION('',(0.,0.,1.));
#405 = DIRECTION('',(-1.,0.,0.));
#406 = FACE_BOUND('',#407,.F.);
#407 = EDGE_LOOP('',(#408));
#408 = ORIENTED_EDGE('',*,*,#409,.T.);
#409 = EDGE_CURVE('',#410,#410,#412,.T.);
#410 = VERTEX_POINT('',#411);
#411 = CARTESIAN_POINT('',(31.,50.,25.531285546987));
#412 = B_SPLINE_CURVE_WITH_KNOTS('',6,(#413,#414,#415,#416,#417,#418,
    #419,#420,#421,#422,#423,#424,#425,#426,#427,#428,#429,#430,#431,
    #432,#433,#434,#435,#436,#437,#438,#439,#440,#441,#442,#443,#444,
    #445,#446,#447,#448,#449,#450,#451,#452,#453,#454,#455,#456,#457,
    #458,#459,#460,#461,#462,#463,#464,#465,#466,#467,#468,#469,#470,
    #471,#472,#473,#474,#475,#476,#477,#478,#479,#480,#481,#482,#483,
    #484,#485,#486,#487,#488,#489,#490,#491,#492,#493,#494,#495,#496,
    #497,#498,#499,#500,#501,#502,#503,#504,#505,#506,#507,#508,#509,
    #510,#511,#512,#513,#514),.UNSPECIFIED.,.T.,.F.,(7,5,5,5,5,5,5,5,5,5
    ,5,5,5,5,5,5,5,5,5,5,7),(0.,6.49949161692E-02,0.108939322046,
    0.169256718825,0.212740903956,0.298950611037,0.3757817467,
    0.401074049157,0.433957096039,0.458804054352,0.500069177435,
    0.528026946801,0.566739960445,0.599315351309,0.624689708133,
    0.701339477825,0.787032920983,0.830512897799,0.89067677093,
    0.933901251592,1.),.UNSPECIFIED.);
#413 = CARTESIAN_POINT('',(31.,50.,25.531285546987));
#414 = CARTESIAN_POINT('',(31.,49.900009236268,25.531285546987));
#415 = CARTESIAN_POINT('',(30.997000633369,49.800205327755,
    25.522167886192));
#416 = CARTESIAN_POINT('',(30.991022387808,49.702138216415,
    25.503996911023));
#417 = CARTESIAN_POINT('',(30.98238106425,49.607320455528,
    25.477201276098));
#418 = CARTESIAN_POINT('',(30.971662560669,49.517094536598,
    25.442554672971));
#419 = CARTESIAN_POINT('',(30.951343732108,49.375323790223,
    25.373203442197));
#420 = CARTESIAN_POINT('',(30.942495039769,49.320641778556,
    25.342115861815));
#421 = CARTESIAN_POINT('',(30.933178051732,49.268654887853,
    25.308174985624));
#422 = CARTESIAN_POINT('',(30.923582715873,49.219511970708,
    25.271649164406));
#423 = CARTESIAN_POINT('',(30.913893185446,49.173322370691,
    25.232815971876));
#424 = CARTESIAN_POINT('',(30.891076025539,49.070907965155,
    25.135886881994));
#425 = CARTESIAN_POINT('',(30.878011320609,49.017351899655,
    25.076001190853));
#426 = CARTESIAN_POINT('',(30.865484099452,48.969532013628,
    25.012911073744));
#427 = CARTESIAN_POINT('',(30.853830733816,48.9274240759,24.947183624545
    ));
#428 = CARTESIAN_POINT('',(30.843311544482,48.890945953066,
    24.879350321028));
#429 = CARTESIAN_POINT('',(30.827459901632,48.837634496969,
    24.759849397476));
#430 = CARTESIAN_POINT('',(30.82149799146,48.818155151479,
    24.708942809555));
#431 = CARTESIAN_POINT('',(30.816277312668,48.801470602464,
    24.657347638696));
#432 = CARTESIAN_POINT('',(30.811841417183,48.787521222431,
    24.605212250451));
#433 = CARTESIAN_POINT('',(30.808216221987,48.776246725254,
    24.552677323386));
#434 = CARTESIAN_POINT('',(30.799850842387,48.750416348972,
    24.395197269665));
#435 = CARTESIAN_POINT('',(30.797519730149,48.743535491278,
    24.289563023171));
#436 = CARTESIAN_POINT('',(30.798471814801,48.746399407792,
    24.183784720292));
#437 = CARTESIAN_POINT('',(30.802564684638,48.758621986239,
    24.078576005795));
#438 = CARTESIAN_POINT('',(30.809522428774,48.779941064518,
    23.974649634457));
#439 = CARTESIAN_POINT('',(30.827355330422,48.837180427379,
    23.78201971386));
#440 = CARTESIAN_POINT('',(30.837721692162,48.871258167698,
    23.692896279714));
#441 = CARTESIAN_POINT('',(30.849789682073,48.912393516954,
    23.605775225907));
#442 = CARTESIAN_POINT('',(30.863255631421,48.960707333383,
    23.521122150831));
#443 = CARTESIAN_POINT('',(30.877733676576,49.016423343659,
    23.439618931297));
#444 = CARTESIAN_POINT('',(30.897648149147,49.100667719837,
    23.336801349339));
#445 = CARTESIAN_POINT('',(30.90263607145,49.122367647068,
    23.311780596079));
#446 = CARTESIAN_POINT('',(30.907662357038,49.144915748256,
    23.287236612615));
#447 = CARTESIAN_POINT('',(30.91270771347,49.168324386972,
    23.263208087429));
#448 = CARTESIAN_POINT('',(30.91775101631,49.19260574175,23.239739091353
    ));
#449 = CARTESIAN_POINT('',(30.929293695679,49.250490728157,
    23.187158299619));
#450 = CARTESIAN_POINT('',(30.935777530291,49.284713915592,
    23.158458815095));
#451 = CARTESIAN_POINT('',(30.942167952465,49.320457657543,
    23.13090089506));
#452 = CARTESIAN_POINT('',(30.948406263547,49.357733299095,
    23.104618666312));
#453 = CARTESIAN_POINT('',(30.954428431382,49.396546070647,
    23.079760575298));
#454 = CARTESIAN_POINT('',(30.964500687921,49.467381398191,
    23.03890611982));
#455 = CARTESIAN_POINT('',(30.968673923619,49.498750450681,
    23.022225821754));
#456 = CARTESIAN_POINT('',(30.972651328318,49.530974158218,
    23.006535162753));
#457 = CARTESIAN_POINT('',(30.97639950975,49.56402197411,22.9919182028)
  );
#458 = CARTESIAN_POINT('',(30.979885657125,49.597859721518,
    22.978456856949));
#459 = CARTESIAN_POINT('',(30.988378531483,49.689895470942,
    22.945926365285));
#460 = CARTESIAN_POINT('',(30.992879745434,49.749537161565,
    22.928986542247));
#461 = CARTESIAN_POINT('',(30.99639765315,49.810892657478,
    22.915919143284));
#462 = CARTESIAN_POINT('',(30.99879670195,49.873445334278,
    22.907070797355));
#463 = CARTESIAN_POINT('',(31.,49.936660175981,22.902629986392));
#464 = CARTESIAN_POINT('',(31.,50.042913726152,22.902629986392));
#465 = CARTESIAN_POINT('',(30.999447558252,50.085807366675,
    22.904668409945));
#466 = CARTESIAN_POINT('',(30.998343477993,50.128495229246,
    22.908741642668));
#467 = CARTESIAN_POINT('',(30.996704420376,50.170791642162,
    22.914807287407));
#468 = CARTESIAN_POINT('',(30.994561710803,50.212513718322,
    22.922783834285));
#469 = CARTESIAN_POINT('',(30.988357767642,50.310215672677,
    22.946073960117));
#470 = CARTESIAN_POINT('',(30.983879460728,50.365444238591,
    22.963014895764));
#471 = CARTESIAN_POINT('',(30.978630863005,50.418962378004,
    22.983099246486));
#472 = CARTESIAN_POINT('',(30.972735324476,50.470582200409,
    23.006024353967));
#473 = CARTESIAN_POINT('',(30.966326347459,50.52013787212,
    23.031456627971));
#474 = CARTESIAN_POINT('',(30.953829621268,50.60733139285,
    23.082230706884));
#475 = CARTESIAN_POINT('',(30.9478444266,50.645666059741,23.106978397035
    ));
#476 = CARTESIAN_POINT('',(30.941651154837,50.682491158664,
    23.133114542777));
#477 = CARTESIAN_POINT('',(30.935311787323,50.717812633431,
    23.160495639631));
#478 = CARTESIAN_POINT('',(30.928883121248,50.751642220489,
    23.188992156426));
#479 = CARTESIAN_POINT('',(30.917379045758,50.809198323252,23.2414637513
    ));
#480 = CARTESIAN_POINT('',(30.912317689356,50.833509913892,
    23.265050251776));
#481 = CARTESIAN_POINT('',(30.907255358924,50.856943309362,
    23.28919789991));
#482 = CARTESIAN_POINT('',(30.902213323451,50.879510848692,
    23.313862393633));
#483 = CARTESIAN_POINT('',(30.897211008385,50.901225003562,
    23.339004834188));
#484 = CARTESIAN_POINT('',(30.877328313014,50.985151774193,
    23.441883512823));
#485 = CARTESIAN_POINT('',(30.862902668445,51.040580140105,
    23.523288962774));
#486 = CARTESIAN_POINT('',(30.849491777112,51.088642460334,
    23.607819373662));
#487 = CARTESIAN_POINT('',(30.837478191402,51.129558939453,
    23.69479954732));
#488 = CARTESIAN_POINT('',(30.827163247981,51.163447576053,23.7837671007
    ));
#489 = CARTESIAN_POINT('',(30.809462737193,51.220237500303,
    23.975666623418));
#490 = CARTESIAN_POINT('',(30.80256672848,51.241368481573,
    24.079000108649));
#491 = CARTESIAN_POINT('',(30.798503443572,51.253506278913,
    24.183598628521));
#492 = CARTESIAN_POINT('',(30.79754384395,51.256392649093,
    24.288761701984));
#493 = CARTESIAN_POINT('',(30.799828318638,51.249648206231,
    24.393787138974));
#494 = CARTESIAN_POINT('',(30.80808499595,51.224160932168,
    24.550693175364));
#495 = CARTESIAN_POINT('',(30.811685054778,51.212968826993,
    24.603245665303));
#496 = CARTESIAN_POINT('',(30.816096530957,51.199102788185,
    24.655401928915));
#497 = CARTESIAN_POINT('',(30.821293826404,51.18250249038,
    24.707021461977));
#498 = CARTESIAN_POINT('',(30.827233728427,51.163108230237,
    24.757956093608));
#499 = CARTESIAN_POINT('',(30.843014475753,51.110077158738,
    24.877363104991));
#500 = CARTESIAN_POINT('',(30.853480025287,51.073821653894,
    24.945086536477));
#501 = CARTESIAN_POINT('',(30.865079064764,51.031964586698,
    25.010724349789));
#502 = CARTESIAN_POINT('',(30.877554404908,50.984423502644,
    25.073749456774));
#503 = CARTESIAN_POINT('',(30.890573410865,50.931173039883,
    25.133599491541));
#504 = CARTESIAN_POINT('',(30.91319638675,50.829924876466,
    25.229960063269));
#505 = CARTESIAN_POINT('',(30.922730290514,50.784667956731,
    25.268298738406));
#506 = CARTESIAN_POINT('',(30.932181891211,50.736549093265,
    25.304418182923));
#507 = CARTESIAN_POINT('',(30.941376695559,50.685669563903,
    25.338054836089));
#508 = CARTESIAN_POINT('',(30.950134312138,50.632167373744,
    25.368953201251));
#509 = CARTESIAN_POINT('',(30.970733900181,50.490660302097,
    25.43954986288));
#510 = CARTESIAN_POINT('',(30.981781652471,50.399200472115,
    25.475341657531));
#511 = CARTESIAN_POINT('',(30.990710639306,50.302925530418,
    25.503049422911));
#512 = CARTESIAN_POINT('',(30.996896039408,50.203236710708,
    25.521849904798));
#513 = CARTESIAN_POINT('',(31.,50.101719393751,25.531285546987));
#514 = CARTESIAN_POINT('',(31.,50.,25.531285546987));
#515 = FACE_BOUND('',#516,.F.);
#516 = EDGE_LOOP('',(#517));
#517 = ORIENTED_EDGE('',*,*,#518,.T.);
#518 = EDGE_CURVE('',#519,#519,#521,.T.);
#519 = VERTEX_POINT('',#520);
#520 = CARTESIAN_POINT('',(31.,50.,21.325436650034));
#521 = B_SPLINE_CURVE_WITH_KNOTS('',6,(#522,#523,#524,#525,#526,#527,
    #528,#529,#530,#531,#532,#533,#534,#535,#536,#537,#538,#539,#540,
    #541,#542,#543,#544,#545,#546,#547,#548,#549,#550,#551,#552,#553,
    #554,#555,#556,#557,#558,#559,#560,#561,#562,#563,#564,#565,#566,
    #567,#568,#569,#570,#571,#572,#573,#574,#575,#576,#577,#578,#579,
    #580,#581,#582,#583,#584,#585,#586,#587,#588,#589,#590,#591,#592,
    #593,#594,#595,#596,#597,#598,#599,#600,#601,#602,#603,#604,#605,
    #606,#607,#608,#609,#610,#611,#612,#613,#614,#615,#616,#617,#618,
    #619,#620,#621,#622,#623),.UNSPECIFIED.,.T.,.F.,(7,5,5,5,5,5,5,5,5,5
    ,5,5,5,5,5,5,5,5,5,5,7),(0.,6.4997079531E-02,0.108942948102,
    0.16926235255,0.212747985057,0.298960561636,0.375233154868,
    0.400999103697,0.433370980573,0.458814449183,0.50007956029,
    0.528037321543,0.566750323952,0.598798343127,0.624693387484,
    0.701347085749,0.787038345996,0.830517215226,0.890679555773,
    0.933902935357,1.),.UNSPECIFIED.);
#522 = CARTESIAN_POINT('',(31.,50.,21.325436650034));
#523 = CARTESIAN_POINT('',(31.,49.900009236268,21.325436650034));
#524 = CARTESIAN_POINT('',(30.997000633369,49.800205327755,
    21.316318989239));
#525 = CARTESIAN_POINT('',(30.991022387808,49.702138216415,
    21.29814801407));
#526 = CARTESIAN_POINT('',(30.98238106425,49.607320455528,
    21.271352379145));
#527 = CARTESIAN_POINT('',(30.971662560669,49.517094536598,
    21.236705776018));
#528 = CARTESIAN_POINT('',(30.951343732108,49.375323790223,
    21.167354545244));
#529 = CARTESIAN_POINT('',(30.942495039769,49.320641778556,
    21.136266964862));
#530 = CARTESIAN_POINT('',(30.933178051732,49.268654887853,
    21.102326088671));
#531 = CARTESIAN_POINT('',(30.923582715873,49.219511970708,
    21.065800267453));
#532 = CARTESIAN_POINT('',(30.913893185446,49.173322370691,
    21.026967074923));
#533 = CARTESIAN_POINT('',(30.891076025539,49.070907965155,
    20.930037985041));
#534 = CARTESIAN_POINT('',(30.878011320609,49.017351899655,20.8701522939
    ));
#535 = CARTESIAN_POINT('',(30.865484099452,48.969532013628,
    20.807062176791));
#536 = CARTESIAN_POINT('',(30.853830733816,48.9274240759,20.741334727592
    ));
#537 = CARTESIAN_POINT('',(30.843311544482,48.890945953066,
    20.673501424075));
#538 = CARTESIAN_POINT('',(30.827459901632,48.837634496969,
    20.554000500523));
#539 = CARTESIAN_POINT('',(30.82149799146,48.818155151479,
    20.503093912602));
#540 = CARTESIAN_POINT('',(30.816277312668,48.801470602464,
    20.451498741743));
#541 = CARTESIAN_POINT('',(30.811841417183,48.787521222431,
    20.399363353498));
#542 = CARTESIAN_POINT('',(30.808216221987,48.776246725254,
    20.346828426433));
#543 = CARTESIAN_POINT('',(30.799850842387,48.750416348972,
    20.189348372712));
#544 = CARTESIAN_POINT('',(30.797519730149,48.743535491278,
    20.083714126218));
#545 = CARTESIAN_POINT('',(30.798471814801,48.746399407792,
    19.977935823339));
#546 = CARTESIAN_POINT('',(30.802564684638,48.758621986239,
    19.872727108842));
#547 = CARTESIAN_POINT('',(30.809522428774,48.779941064518,
    19.768800737504));
#548 = CARTESIAN_POINT('',(30.827293961113,48.836983446528,
    19.576833724454));
#549 = CARTESIAN_POINT('',(30.837570908544,48.870762535124,
    19.488343390307));
#550 = CARTESIAN_POINT('',(30.84952727504,48.911499117995,
    19.401822262465));
#551 = CARTESIAN_POINT('',(30.862865735562,48.959308997689,
    19.317728146227));
#552 = CARTESIAN_POINT('',(30.877209339193,49.014407632787,
    19.236726693693));
#553 = CARTESIAN_POINT('',(30.897081927491,49.098209879105,
    19.133798695332));
#554 = CARTESIAN_POINT('',(30.902159523547,49.120237003852,
    19.108265345884));
#555 = CARTESIAN_POINT('',(30.907278312225,49.143143451236,
    19.083224030076));
#556 = CARTESIAN_POINT('',(30.912417987689,49.166942301881,
    19.058715374072));
#557 = CARTESIAN_POINT('',(30.917556276144,49.191646452483,
    19.034785794266));
#558 = CARTESIAN_POINT('',(30.92909238996,49.249459843154,
    18.982215934013));
#559 = CARTESIAN_POINT('',(30.93547686461,49.283107731678,
    18.953933896607));
#560 = CARTESIAN_POINT('',(30.941772098215,49.318228328018,
    18.926755321271));
#561 = CARTESIAN_POINT('',(30.947922340006,49.354833116091,
    18.900807360534));
#562 = CARTESIAN_POINT('',(30.953866788068,49.392927931399,
    18.876230801579));
#563 = CARTESIAN_POINT('',(30.963999048597,49.463623844476,
    18.835063524018));
#564 = CARTESIAN_POINT('',(30.968291534498,49.495661651011,
    18.817886029463));
#565 = CARTESIAN_POINT('',(30.972381117595,49.528597221951,
    18.801740212728));
#566 = CARTESIAN_POINT('',(30.976232014799,49.562398471118,
    18.786716089012));
#567 = CARTESIAN_POINT('',(30.979809027413,49.597029299143,
    18.772901476899));
#568 = CARTESIAN_POINT('',(30.988378531483,49.689895470942,
    18.740077468332));
#569 = CARTESIAN_POINT('',(30.992879745434,49.749537161565,
    18.723137645294));
#570 = CARTESIAN_POINT('',(30.99639765315,49.810892657478,
    18.710070246331));
#571 = CARTESIAN_POINT('',(30.99879670195,49.873445334278,
    18.701221900402));
#572 = CARTESIAN_POINT('',(31.,49.936660175981,18.696781089439));
#573 = CARTESIAN_POINT('',(31.,50.042913726152,18.696781089439));
#574 = CARTESIAN_POINT('',(30.999447558252,50.085807366675,
    18.698819512992));
#575 = CARTESIAN_POINT('',(30.998343477993,50.128495229245,
    18.702892745715));
#576 = CARTESIAN_POINT('',(30.996704420376,50.170791642162,
    18.708958390454));
#577 = CARTESIAN_POINT('',(30.994561710803,50.212513718322,
    18.716934937332));
#578 = CARTESIAN_POINT('',(30.988357767642,50.310215672677,
    18.740225063164));
#579 = CARTESIAN_POINT('',(30.983879460728,50.365444238591,
    18.757165998811));
#580 = CARTESIAN_POINT('',(30.978630863005,50.418962378004,
    18.777250349533));
#581 = CARTESIAN_POINT('',(30.972735324476,50.470582200409,
    18.800175457014));
#582 = CARTESIAN_POINT('',(30.966326347459,50.52013787212,
    18.825607731018));
#583 = CARTESIAN_POINT('',(30.953922066925,50.606686370931,
    18.876006204112));
#584 = CARTESIAN_POINT('',(30.948038127166,50.644424578185,
    18.90032869175));
#585 = CARTESIAN_POINT('',(30.9419517401,50.680701725514,18.925997547396
    ));
#586 = CARTESIAN_POINT('',(30.93572201427,50.715523285546,
    18.952875846294));
#587 = CARTESIAN_POINT('',(30.929403210205,50.748900191752,
    18.980839738932));
#588 = CARTESIAN_POINT('',(30.91790628066,50.80666172194,19.033160428144
    ));
#589 = CARTESIAN_POINT('',(30.912741145406,50.831547262074,
    19.057183333742));
#590 = CARTESIAN_POINT('',(30.907573604914,50.855517375072,
    19.081793570113));
#591 = CARTESIAN_POINT('',(30.90242635061,50.878585161478,
    19.106943804598));
#592 = CARTESIAN_POINT('',(30.897320070543,50.90076387344,
    19.132592569493));
#593 = CARTESIAN_POINT('',(30.877334599689,50.98512750946,19.23599927553
    ));
#594 = CARTESIAN_POINT('',(30.862907275501,51.040563706039,
    19.31741088589));
#595 = CARTESIAN_POINT('',(30.849494720202,51.08863251343,
    19.401948949653));
#596 = CARTESIAN_POINT('',(30.837479782716,51.129553679719,
    19.488936781762));
#597 = CARTESIAN_POINT('',(30.827163889223,51.163445518707,
    19.577911251742));
#598 = CARTESIAN_POINT('',(30.809462737193,51.220237500303,
    19.769817726465));
#599 = CARTESIAN_POINT('',(30.80256672848,51.241368481573,
    19.873151211695));
#600 = CARTESIAN_POINT('',(30.798503443572,51.253506278914,
    19.977749731568));
#601 = CARTESIAN_POINT('',(30.79754384395,51.256392649093,20.08291280503
    ));
#602 = CARTESIAN_POINT('',(30.799828318638,51.249648206231,
    20.187938242021));
#603 = CARTESIAN_POINT('',(30.80808499595,51.224160932168,
    20.344844278411));
#604 = CARTESIAN_POINT('',(30.811685054778,51.212968826993,
    20.39739676835));
#605 = CARTESIAN_POINT('',(30.816096530957,51.199102788185,
    20.449553031962));
#606 = CARTESIAN_POINT('',(30.821293826404,51.18250249038,
    20.501172565024));
#607 = CARTESIAN_POINT('',(30.827233728427,51.163108230237,
    20.552107196655));
#608 = CARTESIAN_POINT('',(30.843014475753,51.110077158738,
    20.671514208038));
#609 = CARTESIAN_POINT('',(30.853480025287,51.073821653894,
    20.739237639524));
#610 = CARTESIAN_POINT('',(30.865079064764,51.031964586698,
    20.804875452836));
#611 = CARTESIAN_POINT('',(30.877554404908,50.984423502644,
    20.867900559821));
#612 = CARTESIAN_POINT('',(30.890573410865,50.931173039883,
    20.927750594588));
#613 = CARTESIAN_POINT('',(30.91319638675,50.829924876466,
    21.024111166316));
#614 = CARTESIAN_POINT('',(30.922730290514,50.784667956731,
    21.062449841453));
#615 = CARTESIAN_POINT('',(30.932181891211,50.736549093265,
    21.09856928597));
#616 = CARTESIAN_POINT('',(30.941376695559,50.685669563903,
    21.132205939136));
#617 = CARTESIAN_POINT('',(30.950134312138,50.632167373744,
    21.163104304298));
#618 = CARTESIAN_POINT('',(30.970733900181,50.490660302097,
    21.233700965927));
#619 = CARTESIAN_POINT('',(30.981781652471,50.399200472114,
    21.269492760578));
#620 = CARTESIAN_POINT('',(30.990710639306,50.302925530418,
    21.297200525958));
#621 = CARTESIAN_POINT('',(30.996896039408,50.203236710707,
    21.316001007845));
#622 = CARTESIAN_POINT('',(31.,50.101719393751,21.325436650034));
#623 = CARTESIAN_POINT('',(31.,50.,21.325436650034));
#624 = FACE_BOUND('',#625,.F.);
#625 = EDGE_LOOP('',(#626));
#626 = ORIENTED_EDGE('',*,*,#627,.T.);
#627 = EDGE_CURVE('',#628,#628,#630,.T.);
#628 = VERTEX_POINT('',#629);
#629 = CARTESIAN_POINT('',(31.,50.,17.119587753081));
#630 = B_SPLINE_CURVE_WITH_KNOTS('',6,(#631,#632,#633,#634,#635,#636,
    #637,#638,#639,#640,#641,#642,#643,#644,#645,#646,#647,#648,#649,
    #650,#651,#652,#653,#654,#655,#656,#657,#658,#659,#660,#661,#662,
    #663,#664,#665,#666,#667,#668,#669,#670,#671,#672,#673,#674,#675,
    #676,#677,#678,#679,#680,#681,#682,#683,#684,#685,#686,#687,#688,
    #689,#690,#691,#692,#693,#694,#695,#696,#697,#698,#699,#700,#701,
    #702,#703,#704,#705,#706,#707,#708,#709,#710,#711,#712,#713,#714,
    #715,#716,#717,#718,#719,#720,#721,#722,#723,#724,#725,#726,#727,
    #728,#729,#730,#731,#732),.UNSPECIFIED.,.T.,.F.,(7,5,5,5,5,5,5,5,5,5
    ,5,5,5,5,5,5,5,5,5,5,7),(0.,6.499707950617E-02,0.10894294806,
    0.169262352486,0.212747984976,0.298960561522,0.375233154725,
    0.400999103544,0.433370980408,0.458814449008,0.5000795601,
    0.528037321341,0.566750323753,0.598798342942,0.624693387312,
    0.701347085612,0.787038345899,0.830517215148,0.890679555723,
    0.933902935327,1.),.UNSPECIFIED.);
#631 = CARTESIAN_POINT('',(31.,50.,17.119587753081));
#632 = CARTESIAN_POINT('',(31.,49.900009236268,17.119587753081));
#633 = CARTESIAN_POINT('',(30.997000633369,49.800205327755,
    17.110470092286));
#634 = CARTESIAN_POINT('',(30.991022387808,49.702138216415,
    17.092299117117));
#635 = CARTESIAN_POINT('',(30.98238106425,49.607320455528,
    17.065503482192));
#636 = CARTESIAN_POINT('',(30.971662560669,49.517094536598,
    17.030856879065));
#637 = CARTESIAN_POINT('',(30.951343732108,49.375323790223,
    16.96150564829));
#638 = CARTESIAN_POINT('',(30.942495039769,49.320641778556,
    16.930418067909));
#639 = CARTESIAN_POINT('',(30.933178051732,49.268654887853,
    16.896477191718));
#640 = CARTESIAN_POINT('',(30.923582715873,49.219511970708,16.8599513705
    ));
#641 = CARTESIAN_POINT('',(30.913893185446,49.173322370691,
    16.82111817797));
#642 = CARTESIAN_POINT('',(30.891076025539,49.070907965155,
    16.724189088088));
#643 = CARTESIAN_POINT('',(30.878011320609,49.017351899655,
    16.664303396947));
#644 = CARTESIAN_POINT('',(30.865484099452,48.969532013628,
    16.601213279838));
#645 = CARTESIAN_POINT('',(30.853830733816,48.9274240759,16.535485830639
    ));
#646 = CARTESIAN_POINT('',(30.843311544482,48.890945953066,
    16.467652527121));
#647 = CARTESIAN_POINT('',(30.827459901632,48.837634496969,
    16.34815160357));
#648 = CARTESIAN_POINT('',(30.82149799146,48.818155151479,
    16.297245015649));
#649 = CARTESIAN_POINT('',(30.816277312668,48.801470602464,
    16.24564984479));
#650 = CARTESIAN_POINT('',(30.811841417183,48.787521222431,
    16.193514456544));
#651 = CARTESIAN_POINT('',(30.808216221987,48.776246725254,
    16.140979529479));
#652 = CARTESIAN_POINT('',(30.799850842387,48.750416348972,
    15.983499475759));
#653 = CARTESIAN_POINT('',(30.797519730149,48.743535491278,
    15.877865229265));
#654 = CARTESIAN_POINT('',(30.798471814801,48.746399407792,
    15.772086926385));
#655 = CARTESIAN_POINT('',(30.802564684638,48.758621986239,
    15.666878211889));
#656 = CARTESIAN_POINT('',(30.809522428774,48.779941064518,
    15.56295184055));
#657 = CARTESIAN_POINT('',(30.827293961113,48.836983446528,15.3709848275
    ));
#658 = CARTESIAN_POINT('',(30.837570908544,48.870762535124,
    15.282494493354));
#659 = CARTESIAN_POINT('',(30.84952727504,48.911499117995,
    15.195973365512));
#660 = CARTESIAN_POINT('',(30.862865735562,48.959308997689,
    15.111879249274));
#661 = CARTESIAN_POINT('',(30.877209339193,49.014407632788,
    15.030877796739));
#662 = CARTESIAN_POINT('',(30.897081927491,49.098209879105,
    14.927949798378));
#663 = CARTESIAN_POINT('',(30.902159523547,49.120237003852,
    14.902416448931));
#664 = CARTESIAN_POINT('',(30.907278312225,49.143143451236,
    14.877375133123));
#665 = CARTESIAN_POINT('',(30.912417987689,49.166942301881,
    14.852866477119));
#666 = CARTESIAN_POINT('',(30.917556276144,49.191646452483,
    14.828936897313));
#667 = CARTESIAN_POINT('',(30.92909238996,49.249459843154,14.77636703706
    ));
#668 = CARTESIAN_POINT('',(30.93547686461,49.283107731678,
    14.748084999654));
#669 = CARTESIAN_POINT('',(30.941772098215,49.318228328018,
    14.720906424318));
#670 = CARTESIAN_POINT('',(30.947922340006,49.354833116091,
    14.694958463581));
#671 = CARTESIAN_POINT('',(30.953866788068,49.392927931399,
    14.670381904626));
#672 = CARTESIAN_POINT('',(30.963999048597,49.463623844476,
    14.629214627065));
#673 = CARTESIAN_POINT('',(30.968291534498,49.495661651011,
    14.61203713251));
#674 = CARTESIAN_POINT('',(30.972381117595,49.528597221951,
    14.595891315775));
#675 = CARTESIAN_POINT('',(30.976232014799,49.562398471118,
    14.580867192058));
#676 = CARTESIAN_POINT('',(30.979809027413,49.597029299143,
    14.567052579946));
#677 = CARTESIAN_POINT('',(30.988378531483,49.689895470942,
    14.534228571379));
#678 = CARTESIAN_POINT('',(30.992879745434,49.749537161565,
    14.517288748341));
#679 = CARTESIAN_POINT('',(30.99639765315,49.810892657478,
    14.504221349378));
#680 = CARTESIAN_POINT('',(30.99879670195,49.873445334278,
    14.495373003449));
#681 = CARTESIAN_POINT('',(31.,49.936660175981,14.490932192486));
#682 = CARTESIAN_POINT('',(31.,50.042913726151,14.490932192486));
#683 = CARTESIAN_POINT('',(30.999447558252,50.085807366675,
    14.492970616039));
#684 = CARTESIAN_POINT('',(30.998343477993,50.128495229246,
    14.497043848762));
#685 = CARTESIAN_POINT('',(30.996704420376,50.170791642163,
    14.503109493501));
#686 = CARTESIAN_POINT('',(30.994561710803,50.212513718321,
    14.511086040379));
#687 = CARTESIAN_POINT('',(30.98835776764,50.310215672704,
    14.534376166217));
#688 = CARTESIAN_POINT('',(30.983879460728,50.365444238583,
    14.551317101859));
#689 = CARTESIAN_POINT('',(30.978630863007,50.41896237798,14.57140145257
    ));
#690 = CARTESIAN_POINT('',(30.972735324478,50.470582200404,
    14.594326560054));
#691 = CARTESIAN_POINT('',(30.966326347455,50.520137872142,
    14.619758834077));
#692 = CARTESIAN_POINT('',(30.953922066925,50.60668637093,
    14.670157307158));
#693 = CARTESIAN_POINT('',(30.948038127166,50.644424578185,
    14.694479794797));
#694 = CARTESIAN_POINT('',(30.9419517401,50.680701725515,14.720148650444
    ));
#695 = CARTESIAN_POINT('',(30.93572201427,50.715523285546,
    14.747026949341));
#696 = CARTESIAN_POINT('',(30.929403210205,50.748900191751,
    14.774990841978));
#697 = CARTESIAN_POINT('',(30.91790628066,50.80666172194,14.827311531191
    ));
#698 = CARTESIAN_POINT('',(30.912741145406,50.831547262074,
    14.851334436788));
#699 = CARTESIAN_POINT('',(30.907573604914,50.855517375072,
    14.87594467316));
#700 = CARTESIAN_POINT('',(30.90242635061,50.878585161478,
    14.901094907645));
#701 = CARTESIAN_POINT('',(30.897320070543,50.90076387344,14.92674367254
    ));
#702 = CARTESIAN_POINT('',(30.877334599689,50.985127509459,
    15.030150378577));
#703 = CARTESIAN_POINT('',(30.862907275501,51.040563706039,
    15.111561988937));
#704 = CARTESIAN_POINT('',(30.849494720202,51.08863251343,15.1961000527)
  );
#705 = CARTESIAN_POINT('',(30.837479782716,51.129553679719,
    15.283087884809));
#706 = CARTESIAN_POINT('',(30.827163889223,51.163445518707,
    15.372062354788));
#707 = CARTESIAN_POINT('',(30.809462737193,51.220237500303,
    15.563968829512));
#708 = CARTESIAN_POINT('',(30.80256672848,51.241368481573,
    15.667302314743));
#709 = CARTESIAN_POINT('',(30.798503443572,51.253506278913,
    15.771900834615));
#710 = CARTESIAN_POINT('',(30.79754384395,51.256392649093,
    15.877063908078));
#711 = CARTESIAN_POINT('',(30.799828318638,51.249648206231,
    15.982089345068));
#712 = CARTESIAN_POINT('',(30.80808499595,51.224160932168,
    16.138995381458));
#713 = CARTESIAN_POINT('',(30.811685054778,51.212968826993,
    16.191547871397));
#714 = CARTESIAN_POINT('',(30.816096530957,51.199102788185,
    16.243704135009));
#715 = CARTESIAN_POINT('',(30.821293826404,51.18250249038,16.29532366807
    ));
#716 = CARTESIAN_POINT('',(30.827233728427,51.163108230237,
    16.346258299702));
#717 = CARTESIAN_POINT('',(30.843014475753,51.110077158738,
    16.465665311085));
#718 = CARTESIAN_POINT('',(30.853480025287,51.073821653894,
    16.533388742571));
#719 = CARTESIAN_POINT('',(30.865079064764,51.031964586698,
    16.599026555883));
#720 = CARTESIAN_POINT('',(30.877554404908,50.984423502644,
    16.662051662868));
#721 = CARTESIAN_POINT('',(30.890573410865,50.931173039883,
    16.721901697635));
#722 = CARTESIAN_POINT('',(30.91319638675,50.829924876466,
    16.818262269362));
#723 = CARTESIAN_POINT('',(30.922730290514,50.784667956731,16.8566009445
    ));
#724 = CARTESIAN_POINT('',(30.932181891211,50.736549093265,
    16.892720389017));
#725 = CARTESIAN_POINT('',(30.941376695559,50.685669563903,
    16.926357042183));
#726 = CARTESIAN_POINT('',(30.950134312138,50.632167373744,
    16.957255407345));
#727 = CARTESIAN_POINT('',(30.970733900181,50.490660302097,
    17.027852068974));
#728 = CARTESIAN_POINT('',(30.981781652471,50.399200472114,
    17.063643863625));
#729 = CARTESIAN_POINT('',(30.990710639306,50.302925530419,
    17.091351629004));
#730 = CARTESIAN_POINT('',(30.996896039408,50.203236710707,
    17.110152110892));
#731 = CARTESIAN_POINT('',(31.,50.101719393751,17.119587753081));
#732 = CARTESIAN_POINT('',(31.,50.,17.119587753081));
#733 = CYLINDRICAL_SURFACE('',#734,4.);
#734 = AXIS2_PLACEMENT_3D('',#735,#736,#737);
#735 = CARTESIAN_POINT('',(27.,50.,0.));
#736 = DIRECTION('',(0.,0.,-1.));
#737 = DIRECTION('',(-1.,0.,0.));
#738 = ADVANCED_FACE('',(#739),#759,.T.);
#739 = FACE_BOUND('',#740,.T.);
#740 = EDGE_LOOP('',(#741,#750,#751,#752));
#741 = ORIENTED_EDGE('',*,*,#742,.F.);
#742 = EDGE_CURVE('',#22,#743,#745,.T.);
#743 = VERTEX_POINT('',#744);
#744 = CARTESIAN_POINT('',(24.,50.,30.));
#745 = CIRCLE('',#746,1.);
#746 = AXIS2_PLACEMENT_3D('',#747,#748,#749);
#747 = CARTESIAN_POINT('',(24.,50.,29.));
#748 = DIRECTION('',(0.,1.,-0.));
#749 = DIRECTION('',(-1.,0.,0.));
#750 = ORIENTED_EDGE('',*,*,#400,.T.);
#751 = ORIENTED_EDGE('',*,*,#742,.T.);
#752 = ORIENTED_EDGE('',*,*,#753,.F.);
#753 = EDGE_CURVE('',#743,#743,#754,.T.);
#754 = CIRCLE('',#755,3.);
#755 = AXIS2_PLACEMENT_3D('',#756,#757,#758);
#756 = CARTESIAN_POINT('',(27.,50.,30.));
#757 = DIRECTION('',(0.,0.,1.));
#758 = DIRECTION('',(-1.,0.,0.));
#759 = TOROIDAL_SURFACE('',#760,3.,1.);
#760 = AXIS2_PLACEMENT_3D('',#761,#762,#763);
#761 = CARTESIAN_POINT('',(27.,50.,29.));
#762 = DIRECTION('',(0.,0.,1.));
#763 = DIRECTION('',(-1.,0.,0.));
#764 = ADVANCED_FACE('',(#765),#785,.F.);
#765 = FACE_BOUND('',#766,.F.);
#766 = EDGE_LOOP('',(#767,#776,#782,#783,#784));
#767 = ORIENTED_EDGE('',*,*,#768,.F.);
#768 = EDGE_CURVE('',#769,#769,#771,.T.);
#769 = VERTEX_POINT('',#770);
#770 = CARTESIAN_POINT('',(29.686677773906,50.,25.958009805746));
#771 = CIRCLE('',#772,1.25);
#772 = AXIS2_PLACEMENT_3D('',#773,#774,#775);
#773 = CARTESIAN_POINT('',(29.300406530938,50.,24.769189160377));
#774 = DIRECTION('',(0.951056516295,0.,-0.309016994375));
#775 = DIRECTION('',(0.309016994375,0.,0.951056516295));
#776 = ORIENTED_EDGE('',*,*,#777,.T.);
#777 = EDGE_CURVE('',#769,#24,#778,.T.);
#778 = LINE('',#779,#780);
#779 = CARTESIAN_POINT('',(29.686677773906,50.,25.958009805746));
#780 = VECTOR('',#781,1.);
#781 = DIRECTION('',(-0.951056516295,0.,0.309016994375));
#782 = ORIENTED_EDGE('',*,*,#349,.T.);
#783 = ORIENTED_EDGE('',*,*,#30,.T.);
#784 = ORIENTED_EDGE('',*,*,#777,.F.);
#785 = CYLINDRICAL_SURFACE('',#786,1.25);
#786 = AXIS2_PLACEMENT_3D('',#787,#788,#789);
#787 = CARTESIAN_POINT('',(29.300406530938,50.,24.769189160377));
#788 = DIRECTION('',(0.951056516295,-0.,-0.309016994375));
#789 = DIRECTION('',(0.309016994375,0.,0.951056516295));
#790 = ADVANCED_FACE('',(#791),#811,.F.);
#791 = FACE_BOUND('',#792,.F.);
#792 = EDGE_LOOP('',(#793,#802,#808,#809,#810));
#793 = ORIENTED_EDGE('',*,*,#794,.F.);
#794 = EDGE_CURVE('',#795,#795,#797,.T.);
#795 = VERTEX_POINT('',#796);
#796 = CARTESIAN_POINT('',(28.450609796407,50.,22.153783740565));
#797 = CIRCLE('',#798,1.25);
#798 = AXIS2_PLACEMENT_3D('',#799,#800,#801);
#799 = CARTESIAN_POINT('',(28.064338553438,50.,20.964963095196));
#800 = DIRECTION('',(0.951056516295,0.,-0.309016994375));
#801 = DIRECTION('',(0.309016994375,0.,0.951056516295));
#802 = ORIENTED_EDGE('',*,*,#803,.T.);
#803 = EDGE_CURVE('',#795,#83,#804,.T.);
#804 = LINE('',#805,#806);
#805 = CARTESIAN_POINT('',(28.450609796407,50.,22.153783740565));
#806 = VECTOR('',#807,1.);
#807 = DIRECTION('',(-0.951056516295,0.,0.309016994375));
#808 = ORIENTED_EDGE('',*,*,#298,.T.);
#809 = ORIENTED_EDGE('',*,*,#89,.T.);
#810 = ORIENTED_EDGE('',*,*,#803,.F.);
#811 = CYLINDRICAL_SURFACE('',#812,1.25);
#812 = AXIS2_PLACEMENT_3D('',#813,#814,#815);
#813 = CARTESIAN_POINT('',(28.064338553438,50.,20.964963095196));
#814 = DIRECTION('',(0.951056516295,-0.,-0.309016994375));
#815 = DIRECTION('',(0.309016994375,0.,0.951056516295));
#816 = ADVANCED_FACE('',(#817),#837,.F.);
#817 = FACE_BOUND('',#818,.F.);
#818 = EDGE_LOOP('',(#819,#828,#834,#835,#836));
#819 = ORIENTED_EDGE('',*,*,#820,.F.);
#820 = EDGE_CURVE('',#821,#821,#823,.T.);
#821 = VERTEX_POINT('',#822);
#822 = CARTESIAN_POINT('',(27.214541818907,50.,18.349557675384));
#823 = CIRCLE('',#824,1.25);
#824 = AXIS2_PLACEMENT_3D('',#825,#826,#827);
#825 = CARTESIAN_POINT('',(26.828270575938,50.,17.160737030015));
#826 = DIRECTION('',(0.951056516295,0.,-0.309016994375));
#827 = DIRECTION('',(0.309016994375,0.,0.951056516295));
#828 = ORIENTED_EDGE('',*,*,#829,.T.);
#829 = EDGE_CURVE('',#821,#142,#830,.T.);
#830 = LINE('',#831,#832);
#831 = CARTESIAN_POINT('',(27.214541818907,50.,18.349557675384));
#832 = VECTOR('',#833,1.);
#833 = DIRECTION('',(-0.951056516295,0.,0.309016994375));
#834 = ORIENTED_EDGE('',*,*,#247,.T.);
#835 = ORIENTED_EDGE('',*,*,#148,.T.);
#836 = ORIENTED_EDGE('',*,*,#829,.F.);
#837 = CYLINDRICAL_SURFACE('',#838,1.25);
#838 = AXIS2_PLACEMENT_3D('',#839,#840,#841);
#839 = CARTESIAN_POINT('',(26.828270575938,50.,17.160737030015));
#840 = DIRECTION('',(0.951056516295,-0.,-0.309016994375));
#841 = DIRECTION('',(0.309016994375,0.,0.951056516295));
#842 = ADVANCED_FACE('',(#843),#903,.T.);
#843 = FACE_BOUND('',#844,.T.);
#844 = EDGE_LOOP('',(#845,#855,#864,#872,#881,#887,#888,#889,#897));
#845 = ORIENTED_EDGE('',*,*,#846,.T.);
#846 = EDGE_CURVE('',#847,#849,#851,.T.);
#847 = VERTEX_POINT('',#848);
#848 = CARTESIAN_POINT('',(23.,38.,5.));
#849 = VERTEX_POINT('',#850);
#850 = CARTESIAN_POINT('',(23.,41.,5.));
#851 = LINE('',#852,#853);
#852 = CARTESIAN_POINT('',(23.,38.,5.));
#853 = VECTOR('',#854,1.);
#854 = DIRECTION('',(0.,1.,0.));
#855 = ORIENTED_EDGE('',*,*,#856,.T.);
#856 = EDGE_CURVE('',#849,#857,#859,.T.);
#857 = VERTEX_POINT('',#858);
#858 = CARTESIAN_POINT('',(23.,42.,6.));
#859 = CIRCLE('',#860,1.);
#860 = AXIS2_PLACEMENT_3D('',#861,#862,#863);
#861 = CARTESIAN_POINT('',(23.,41.,6.));
#862 = DIRECTION('',(1.,0.,0.));
#863 = DIRECTION('',(0.,0.,-1.));
#864 = ORIENTED_EDGE('',*,*,#865,.T.);
#865 = EDGE_CURVE('',#857,#866,#868,.T.);
#866 = VERTEX_POINT('',#867);
#867 = CARTESIAN_POINT('',(23.,42.,8.));
#868 = LINE('',#869,#870);
#869 = CARTESIAN_POINT('',(23.,42.,5.));
#870 = VECTOR('',#871,1.);
#871 = DIRECTION('',(0.,0.,1.));
#872 = ORIENTED_EDGE('',*,*,#873,.T.);
#873 = EDGE_CURVE('',#866,#874,#876,.T.);
#874 = VERTEX_POINT('',#875);
#875 = CARTESIAN_POINT('',(23.,43.,9.));
#876 = CIRCLE('',#877,1.);
#877 = AXIS2_PLACEMENT_3D('',#878,#879,#880);
#878 = CARTESIAN_POINT('',(23.,43.,8.));
#879 = DIRECTION('',(-1.,-0.,-0.));
#880 = DIRECTION('',(0.,0.,-1.));
#881 = ORIENTED_EDGE('',*,*,#882,.F.);
#882 = EDGE_CURVE('',#201,#874,#883,.T.);
#883 = LINE('',#884,#885);
#884 = CARTESIAN_POINT('',(23.,50.,9.));
#885 = VECTOR('',#886,1.);
#886 = DIRECTION('',(0.,-1.,0.));
#887 = ORIENTED_EDGE('',*,*,#207,.T.);
#888 = ORIENTED_EDGE('',*,*,#214,.F.);
#889 = ORIENTED_EDGE('',*,*,#890,.F.);
#890 = EDGE_CURVE('',#891,#215,#893,.T.);
#891 = VERTEX_POINT('',#892);
#892 = CARTESIAN_POINT('',(23.,38.,-1.E-15));
#893 = LINE('',#894,#895);
#894 = CARTESIAN_POINT('',(23.,38.,0.));
#895 = VECTOR('',#896,1.);
#896 = DIRECTION('',(0.,1.,0.));
#897 = ORIENTED_EDGE('',*,*,#898,.T.);
#898 = EDGE_CURVE('',#891,#847,#899,.T.);
#899 = LINE('',#900,#901);
#900 = CARTESIAN_POINT('',(23.,38.,-1.47E-15));
#901 = VECTOR('',#902,1.);
#902 = DIRECTION('',(0.,-1.2E-16,1.));
#903 = PLANE('',#904);
#904 = AXIS2_PLACEMENT_3D('',#905,#906,#907);
#905 = CARTESIAN_POINT('',(23.,44.380952380952,4.119047619048));
#906 = DIRECTION('',(-1.,0.,0.));
#907 = DIRECTION('',(0.,0.,1.));
#908 = ADVANCED_FACE('',(#909),#927,.T.);
#909 = FACE_BOUND('',#910,.T.);
#910 = EDGE_LOOP('',(#911,#912,#920,#926));
#911 = ORIENTED_EDGE('',*,*,#882,.T.);
#912 = ORIENTED_EDGE('',*,*,#913,.T.);
#913 = EDGE_CURVE('',#874,#914,#916,.T.);
#914 = VERTEX_POINT('',#915);
#915 = CARTESIAN_POINT('',(31.,43.,9.));
#916 = LINE('',#917,#918);
#917 = CARTESIAN_POINT('',(23.,43.,9.));
#918 = VECTOR('',#919,1.);
#919 = DIRECTION('',(1.,0.,0.));
#920 = ORIENTED_EDGE('',*,*,#921,.T.);
#921 = EDGE_CURVE('',#914,#232,#922,.T.);
#922 = LINE('',#923,#924);
#923 = CARTESIAN_POINT('',(31.,42.,9.));
#924 = VECTOR('',#925,1.);
#925 = DIRECTION('',(0.,1.,0.));
#926 = ORIENTED_EDGE('',*,*,#239,.T.);
#927 = PLANE('',#928);
#928 = AXIS2_PLACEMENT_3D('',#929,#930,#931);
#929 = CARTESIAN_POINT('',(27.,46.,9.));
#930 = DIRECTION('',(0.,0.,1.));
#931 = DIRECTION('',(-1.,0.,0.));
#932 = ADVANCED_FACE('',(#933),#985,.T.);
#933 = FACE_BOUND('',#934,.T.);
#934 = EDGE_LOOP('',(#935,#936,#945,#953,#962,#970,#978,#984));
#935 = ORIENTED_EDGE('',*,*,#921,.F.);
#936 = ORIENTED_EDGE('',*,*,#937,.F.);
#937 = EDGE_CURVE('',#938,#914,#940,.T.);
#938 = VERTEX_POINT('',#939);
#939 = CARTESIAN_POINT('',(31.,42.,8.));
#940 = CIRCLE('',#941,1.);
#941 = AXIS2_PLACEMENT_3D('',#942,#943,#944);
#942 = CARTESIAN_POINT('',(31.,43.,8.));
#943 = DIRECTION('',(-1.,-0.,-0.));
#944 = DIRECTION('',(0.,0.,-1.));
#945 = ORIENTED_EDGE('',*,*,#946,.F.);
#946 = EDGE_CURVE('',#947,#938,#949,.T.);
#947 = VERTEX_POINT('',#948);
#948 = CARTESIAN_POINT('',(31.,42.,6.));
#949 = LINE('',#950,#951);
#950 = CARTESIAN_POINT('',(31.,42.,5.));
#951 = VECTOR('',#952,1.);
#952 = DIRECTION('',(0.,0.,1.));
#953 = ORIENTED_EDGE('',*,*,#954,.F.);
#954 = EDGE_CURVE('',#955,#947,#957,.T.);
#955 = VERTEX_POINT('',#956);
#956 = CARTESIAN_POINT('',(31.,41.,5.));
#957 = CIRCLE('',#958,1.);
#958 = AXIS2_PLACEMENT_3D('',#959,#960,#961);
#959 = CARTESIAN_POINT('',(31.,41.,6.));
#960 = DIRECTION('',(1.,0.,0.));
#961 = DIRECTION('',(0.,0.,-1.));
#962 = ORIENTED_EDGE('',*,*,#963,.F.);
#963 = EDGE_CURVE('',#964,#955,#966,.T.);
#964 = VERTEX_POINT('',#965);
#965 = CARTESIAN_POINT('',(31.,38.,5.));
#966 = LINE('',#967,#968);
#967 = CARTESIAN_POINT('',(31.,38.,5.));
#968 = VECTOR('',#969,1.);
#969 = DIRECTION('',(0.,1.,0.));
#970 = ORIENTED_EDGE('',*,*,#971,.F.);
#971 = EDGE_CURVE('',#972,#964,#974,.T.);
#972 = VERTEX_POINT('',#973);
#973 = CARTESIAN_POINT('',(31.,38.,-1.E-15));
#974 = LINE('',#975,#976);
#975 = CARTESIAN_POINT('',(31.,38.,-1.47E-15));
#976 = VECTOR('',#977,1.);
#977 = DIRECTION('',(0.,-1.2E-16,1.));
#978 = ORIENTED_EDGE('',*,*,#979,.T.);
#979 = EDGE_CURVE('',#972,#223,#980,.T.);
#980 = LINE('',#981,#982);
#981 = CARTESIAN_POINT('',(31.,38.,0.));
#982 = VECTOR('',#983,1.);
#983 = DIRECTION('',(0.,1.,0.));
#984 = ORIENTED_EDGE('',*,*,#231,.T.);
#985 = PLANE('',#986);
#986 = AXIS2_PLACEMENT_3D('',#987,#988,#989);
#987 = CARTESIAN_POINT('',(31.,44.380952380952,4.119047619048));
#988 = DIRECTION('',(1.,0.,-0.));
#989 = DIRECTION('',(0.,0.,-1.));
#990 = ADVANCED_FACE('',(#991,#1003,#1014),#1025,.T.);
#991 = FACE_BOUND('',#992,.T.);
#992 = EDGE_LOOP('',(#993,#994,#995,#1002));
#993 = ORIENTED_EDGE('',*,*,#222,.F.);
#994 = ORIENTED_EDGE('',*,*,#979,.F.);
#995 = ORIENTED_EDGE('',*,*,#996,.T.);
#996 = EDGE_CURVE('',#972,#891,#997,.T.);
#997 = CIRCLE('',#998,4.);
#998 = AXIS2_PLACEMENT_3D('',#999,#1000,#1001);
#999 = CARTESIAN_POINT('',(27.,38.,0.));
#1000 = DIRECTION('',(0.,0.,-1.));
#1001 = DIRECTION('',(-1.,0.,0.));
#1002 = ORIENTED_EDGE('',*,*,#890,.T.);
#1003 = FACE_BOUND('',#1004,.T.);
#1004 = EDGE_LOOP('',(#1005));
#1005 = ORIENTED_EDGE('',*,*,#1006,.F.);
#1006 = EDGE_CURVE('',#1007,#1007,#1009,.T.);
#1007 = VERTEX_POINT('',#1008);
#1008 = CARTESIAN_POINT('',(25.486424,38.,-1.E-15));
#1009 = CIRCLE('',#1010,1.513576);
#1010 = AXIS2_PLACEMENT_3D('',#1011,#1012,#1013);
#1011 = CARTESIAN_POINT('',(27.,38.,0.));
#1012 = DIRECTION('',(0.,0.,-1.));
#1013 = DIRECTION('',(-1.,0.,0.));
#1014 = FACE_BOUND('',#1015,.T.);
#1015 = EDGE_LOOP('',(#1016));
#1016 = ORIENTED_EDGE('',*,*,#1017,.F.);
#1017 = EDGE_CURVE('',#1018,#1018,#1020,.T.);
#1018 = VERTEX_POINT('',#1019);
#1019 = CARTESIAN_POINT('',(25.75,50.,0.));
#1020 = CIRCLE('',#1021,1.25);
#1021 = AXIS2_PLACEMENT_3D('',#1022,#1023,#1024);
#1022 = CARTESIAN_POINT('',(27.,50.,0.));
#1023 = DIRECTION('',(0.,1.2E-16,-1.));
#1024 = DIRECTION('',(-1.,0.,0.));
#1025 = PLANE('',#1026);
#1026 = AXIS2_PLACEMENT_3D('',#1027,#1028,#1029);
#1027 = CARTESIAN_POINT('',(27.,44.,-8.1E-16));
#1028 = DIRECTION('',(0.,0.,-1.));
#1029 = DIRECTION('',(1.,0.,0.));
#1030 = ADVANCED_FACE('',(#1031),#1042,.F.);
#1031 = FACE_BOUND('',#1032,.T.);
#1032 = EDGE_LOOP('',(#1033,#1034,#1040,#1041));
#1033 = ORIENTED_EDGE('',*,*,#768,.F.);
#1034 = ORIENTED_EDGE('',*,*,#1035,.T.);
#1035 = EDGE_CURVE('',#769,#410,#1036,.T.);
#1036 = LINE('',#1037,#1038);
#1037 = CARTESIAN_POINT('',(29.686677773906,50.,25.958009805746));
#1038 = VECTOR('',#1039,1.);
#1039 = DIRECTION('',(0.951056516295,0.,-0.309016994375));
#1040 = ORIENTED_EDGE('',*,*,#409,.T.);
#1041 = ORIENTED_EDGE('',*,*,#1035,.F.);
#1042 = CYLINDRICAL_SURFACE('',#1043,1.25);
#1043 = AXIS2_PLACEMENT_3D('',#1044,#1045,#1046);
#1044 = CARTESIAN_POINT('',(29.300406530938,50.,24.769189160377));
#1045 = DIRECTION('',(-0.951056516295,0.,0.309016994375));
#1046 = DIRECTION('',(0.309016994375,0.,0.951056516295));
#1047 = ADVANCED_FACE('',(#1048),#1059,.F.);
#1048 = FACE_BOUND('',#1049,.T.);
#1049 = EDGE_LOOP('',(#1050,#1051,#1057,#1058));
#1050 = ORIENTED_EDGE('',*,*,#794,.F.);
#1051 = ORIENTED_EDGE('',*,*,#1052,.T.);
#1052 = EDGE_CURVE('',#795,#519,#1053,.T.);
#1053 = LINE('',#1054,#1055);
#1054 = CARTESIAN_POINT('',(28.450609796407,50.,22.153783740565));
#1055 = VECTOR('',#1056,1.);
#1056 = DIRECTION('',(0.951056516295,0.,-0.309016994375));
#1057 = ORIENTED_EDGE('',*,*,#518,.T.);
#1058 = ORIENTED_EDGE('',*,*,#1052,.F.);
#1059 = CYLINDRICAL_SURFACE('',#1060,1.25);
#1060 = AXIS2_PLACEMENT_3D('',#1061,#1062,#1063);
#1061 = CARTESIAN_POINT('',(28.064338553438,50.,20.964963095196));
#1062 = DIRECTION('',(-0.951056516295,0.,0.309016994375));
#1063 = DIRECTION('',(0.309016994375,0.,0.951056516295));
#1064 = ADVANCED_FACE('',(#1065),#1076,.F.);
#1065 = FACE_BOUND('',#1066,.T.);
#1066 = EDGE_LOOP('',(#1067,#1068,#1074,#1075));
#1067 = ORIENTED_EDGE('',*,*,#820,.F.);
#1068 = ORIENTED_EDGE('',*,*,#1069,.T.);
#1069 = EDGE_CURVE('',#821,#628,#1070,.T.);
#1070 = LINE('',#1071,#1072);
#1071 = CARTESIAN_POINT('',(27.214541818907,50.,18.349557675384));
#1072 = VECTOR('',#1073,1.);
#1073 = DIRECTION('',(0.951056516295,0.,-0.309016994375));
#1074 = ORIENTED_EDGE('',*,*,#627,.T.);
#1075 = ORIENTED_EDGE('',*,*,#1069,.F.);
#1076 = CYLINDRICAL_SURFACE('',#1077,1.25);
#1077 = AXIS2_PLACEMENT_3D('',#1078,#1079,#1080);
#1078 = CARTESIAN_POINT('',(26.828270575938,50.,17.160737030015));
#1079 = DIRECTION('',(-0.951056516295,0.,0.309016994375));
#1080 = DIRECTION('',(0.309016994375,0.,0.951056516295));
#1081 = ADVANCED_FACE('',(#1082),#1085,.T.);
#1082 = FACE_BOUND('',#1083,.T.);
#1083 = EDGE_LOOP('',(#1084));
#1084 = ORIENTED_EDGE('',*,*,#753,.T.);
#1085 = PLANE('',#1086);
#1086 = AXIS2_PLACEMENT_3D('',#1087,#1088,#1089);
#1087 = CARTESIAN_POINT('',(27.,50.,30.));
#1088 = DIRECTION('',(0.,0.,1.));
#1089 = DIRECTION('',(-1.,0.,0.));
#1090 = ADVANCED_FACE('',(#1091,#1108),#1119,.T.);
#1091 = FACE_BOUND('',#1092,.T.);
#1092 = EDGE_LOOP('',(#1093,#1094,#1101,#1102));
#1093 = ORIENTED_EDGE('',*,*,#846,.F.);
#1094 = ORIENTED_EDGE('',*,*,#1095,.F.);
#1095 = EDGE_CURVE('',#964,#847,#1096,.T.);
#1096 = CIRCLE('',#1097,4.);
#1097 = AXIS2_PLACEMENT_3D('',#1098,#1099,#1100);
#1098 = CARTESIAN_POINT('',(27.,38.,5.));
#1099 = DIRECTION('',(0.,0.,-1.));
#1100 = DIRECTION('',(-1.,0.,0.));
#1101 = ORIENTED_EDGE('',*,*,#963,.T.);
#1102 = ORIENTED_EDGE('',*,*,#1103,.F.);
#1103 = EDGE_CURVE('',#849,#955,#1104,.T.);
#1104 = LINE('',#1105,#1106);
#1105 = CARTESIAN_POINT('',(23.,41.,5.));
#1106 = VECTOR('',#1107,1.);
#1107 = DIRECTION('',(1.,0.,0.));
#1108 = FACE_BOUND('',#1109,.T.);
#1109 = EDGE_LOOP('',(#1110));
#1110 = ORIENTED_EDGE('',*,*,#1111,.T.);
#1111 = EDGE_CURVE('',#1112,#1112,#1114,.T.);
#1112 = VERTEX_POINT('',#1113);
#1113 = CARTESIAN_POINT('',(25.486424,38.,5.));
#1114 = CIRCLE('',#1115,1.513576);
#1115 = AXIS2_PLACEMENT_3D('',#1116,#1117,#1118);
#1116 = CARTESIAN_POINT('',(27.,38.,5.));
#1117 = DIRECTION('',(0.,0.,-1.));
#1118 = DIRECTION('',(-1.,0.,0.));
#1119 = PLANE('',#1120);
#1120 = AXIS2_PLACEMENT_3D('',#1121,#1122,#1123);
#1121 = CARTESIAN_POINT('',(27.,43.943918534432,5.));
#1122 = DIRECTION('',(0.,0.,1.));
#1123 = DIRECTION('',(-1.,0.,0.));
#1124 = ADVANCED_FACE('',(#1125),#1136,.F.);
#1125 = FACE_BOUND('',#1126,.F.);
#1126 = EDGE_LOOP('',(#1127,#1128,#1134,#1135));
#1127 = ORIENTED_EDGE('',*,*,#856,.T.);
#1128 = ORIENTED_EDGE('',*,*,#1129,.T.);
#1129 = EDGE_CURVE('',#857,#947,#1130,.T.);
#1130 = LINE('',#1131,#1132);
#1131 = CARTESIAN_POINT('',(23.,42.,6.));
#1132 = VECTOR('',#1133,1.);
#1133 = DIRECTION('',(1.,0.,0.));
#1134 = ORIENTED_EDGE('',*,*,#954,.F.);
#1135 = ORIENTED_EDGE('',*,*,#1103,.F.);
#1136 = CYLINDRICAL_SURFACE('',#1137,1.);
#1137 = AXIS2_PLACEMENT_3D('',#1138,#1139,#1140);
#1138 = CARTESIAN_POINT('',(23.,41.,6.));
#1139 = DIRECTION('',(1.,0.,0.));
#1140 = DIRECTION('',(0.,0.,-1.));
#1141 = ADVANCED_FACE('',(#1142),#1148,.T.);
#1142 = FACE_BOUND('',#1143,.T.);
#1143 = EDGE_LOOP('',(#1144,#1145,#1146,#1147));
#1144 = ORIENTED_EDGE('',*,*,#971,.T.);
#1145 = ORIENTED_EDGE('',*,*,#1095,.T.);
#1146 = ORIENTED_EDGE('',*,*,#898,.F.);
#1147 = ORIENTED_EDGE('',*,*,#996,.F.);
#1148 = CYLINDRICAL_SURFACE('',#1149,4.);
#1149 = AXIS2_PLACEMENT_3D('',#1150,#1151,#1152);
#1150 = CARTESIAN_POINT('',(27.,38.,-1.47E-15));
#1151 = DIRECTION('',(-0.,1.2E-16,-1.));
#1152 = DIRECTION('',(-1.,0.,0.));
#1153 = ADVANCED_FACE('',(#1154),#1165,.F.);
#1154 = FACE_BOUND('',#1155,.F.);
#1155 = EDGE_LOOP('',(#1156,#1157,#1163,#1164));
#1156 = ORIENTED_EDGE('',*,*,#865,.T.);
#1157 = ORIENTED_EDGE('',*,*,#1158,.T.);
#1158 = EDGE_CURVE('',#866,#938,#1159,.T.);
#1159 = LINE('',#1160,#1161);
#1160 = CARTESIAN_POINT('',(23.,42.,8.));
#1161 = VECTOR('',#1162,1.);
#1162 = DIRECTION('',(1.,0.,0.));
#1163 = ORIENTED_EDGE('',*,*,#946,.F.);
#1164 = ORIENTED_EDGE('',*,*,#1129,.F.);
#1165 = PLANE('',#1166);
#1166 = AXIS2_PLACEMENT_3D('',#1167,#1168,#1169);
#1167 = CARTESIAN_POINT('',(23.,42.,5.));
#1168 = DIRECTION('',(0.,1.,0.));
#1169 = DIRECTION('',(1.,0.,0.));
#1170 = ADVANCED_FACE('',(#1171),#1177,.T.);
#1171 = FACE_BOUND('',#1172,.F.);
#1172 = EDGE_LOOP('',(#1173,#1174,#1175,#1176));
#1173 = ORIENTED_EDGE('',*,*,#873,.T.);
#1174 = ORIENTED_EDGE('',*,*,#913,.T.);
#1175 = ORIENTED_EDGE('',*,*,#937,.F.);
#1176 = ORIENTED_EDGE('',*,*,#1158,.F.);
#1177 = CYLINDRICAL_SURFACE('',#1178,1.);
#1178 = AXIS2_PLACEMENT_3D('',#1179,#1180,#1181);
#1179 = CARTESIAN_POINT('',(23.,43.,8.));
#1180 = DIRECTION('',(1.,0.,0.));
#1181 = DIRECTION('',(0.,-1.,0.));
#1182 = ADVANCED_FACE('',(#1183),#1194,.F.);
#1183 = FACE_BOUND('',#1184,.F.);
#1184 = EDGE_LOOP('',(#1185,#1191,#1192,#1193));
#1185 = ORIENTED_EDGE('',*,*,#1186,.T.);
#1186 = EDGE_CURVE('',#1007,#1112,#1187,.T.);
#1187 = LINE('',#1188,#1189);
#1188 = CARTESIAN_POINT('',(25.486424,38.,-1.47E-15));
#1189 = VECTOR('',#1190,1.);
#1190 = DIRECTION('',(0.,-1.2E-16,1.));
#1191 = ORIENTED_EDGE('',*,*,#1111,.T.);
#1192 = ORIENTED_EDGE('',*,*,#1186,.F.);
#1193 = ORIENTED_EDGE('',*,*,#1006,.F.);
#1194 = CYLINDRICAL_SURFACE('',#1195,1.513576);
#1195 = AXIS2_PLACEMENT_3D('',#1196,#1197,#1198);
#1196 = CARTESIAN_POINT('',(27.,38.,-1.47E-15));
#1197 = DIRECTION('',(-0.,1.2E-16,-1.));
#1198 = DIRECTION('',(-1.,0.,0.));
#1199 = ADVANCED_FACE('',(#1200),#1218,.F.);
#1200 = FACE_BOUND('',#1201,.F.);
#1201 = EDGE_LOOP('',(#1202,#1203,#1210,#1217));
#1202 = ORIENTED_EDGE('',*,*,#1017,.F.);
#1203 = ORIENTED_EDGE('',*,*,#1204,.F.);
#1204 = EDGE_CURVE('',#1205,#1018,#1207,.T.);
#1205 = VERTEX_POINT('',#1206);
#1206 = CARTESIAN_POINT('',(25.75,50.,12.));
#1207 = B_SPLINE_CURVE_WITH_KNOTS('',1,(#1208,#1209),.UNSPECIFIED.,.F.,
  .F.,(2,2),(-12.,0.),.PIECEWISE_BEZIER_KNOTS.);
#1208 = CARTESIAN_POINT('',(25.75,50.,12.));
#1209 = CARTESIAN_POINT('',(25.75,50.,0.));
#1210 = ORIENTED_EDGE('',*,*,#1211,.T.);
#1211 = EDGE_CURVE('',#1205,#1205,#1212,.T.);
#1212 = CIRCLE('',#1213,1.25);
#1213 = AXIS2_PLACEMENT_3D('',#1214,#1215,#1216);
#1214 = CARTESIAN_POINT('',(27.,50.,12.));
#1215 = DIRECTION('',(0.,1.2E-16,-1.));
#1216 = DIRECTION('',(-1.,0.,0.));
#1217 = ORIENTED_EDGE('',*,*,#1204,.T.);
#1218 = CYLINDRICAL_SURFACE('',#1219,1.25);
#1219 = AXIS2_PLACEMENT_3D('',#1220,#1221,#1222);
#1220 = CARTESIAN_POINT('',(27.,50.,0.));
#1221 = DIRECTION('',(-0.,1.2E-16,-1.));
#1222 = DIRECTION('',(-1.,0.,0.));
#1223 = ADVANCED_FACE('',(#1224),#1227,.F.);
#1224 = FACE_BOUND('',#1225,.T.);
#1225 = EDGE_LOOP('',(#1226));
#1226 = ORIENTED_EDGE('',*,*,#1211,.T.);
#1227 = PLANE('',#1228);
#1228 = AXIS2_PLACEMENT_3D('',#1229,#1230,#1231);
#1229 = CARTESIAN_POINT('',(27.,50.,12.));
#1230 = DIRECTION('',(0.,0.,1.));
#1231 = DIRECTION('',(-1.,0.,0.));
#1232 = ( GEOMETRIC_REPRESENTATION_CONTEXT(3) 
GLOBAL_UNCERTAINTY_ASSIGNED_CONTEXT((#1236)) 
GLOBAL_UNIT_ASSIGNED_CONTEXT((#1233,#1234,#1235)) REPRESENTATION_CONTEXT
('Context #1','3D Context with UNIT and UNCERTAINTY') );
#1233 = ( LENGTH_UNIT() NAMED_UNIT(*) SI_UNIT(.MILLI.,.METRE.) );
#1234 = ( NAMED_UNIT(*) PLANE_ANGLE_UNIT() SI_UNIT($,.RADIAN.) );
#1235 = ( NAMED_UNIT(*) SI_UNIT($,.STERADIAN.) SOLID_ANGLE_UNIT() );
#1236 = UNCERTAINTY_MEASURE_WITH_UNIT(LENGTH_MEASURE(5.E-06),#1233,
  'distance_accuracy_value','confusion accuracy');
#1237 = PRODUCT_RELATED_PRODUCT_CATEGORY('part',$,(#7));
ENDSEC;
END-ISO-10303-21;
