ISO-10303-21;
HEADER;
FILE_DESCRIPTION(('FreeCAD Model'),'2;1');
FILE_NAME('Open CASCADE Shape Model','2026-08-28T13:03:58',('FreeCAD'),(
    'FreeCAD'),'Open CASCADE STEP processor 7.8','FreeCAD','Unknown');
FILE_SCHEMA(('AUTOMOTIVE_DESIGN { 1 0 10303 214 1 1 1 1 }'));
ENDSEC;
DATA;
#1 = APPLICATION_PROTOCOL_DEFINITION('international standard',
  'automotive_design',2000,#2);
#2 = APPLICATION_CONTEXT(
  'core data for automotive mechanical design processes');
#3 = SHAPE_DEFINITION_REPRESENTATION(#4,#10);
#4 = PRODUCT_DEFINITION_SHAPE('','',#5);
#5 = PRODUCT_DEFINITION('design','',#6,#9);
#6 = PRODUCT_DEFINITION_FORMATION('','',#7);
#7 = PRODUCT('Open CASCADE STEP translator 7.8 26',
  'Open CASCADE STEP translator 7.8 26','',(#8));
#8 = PRODUCT_CONTEXT('',#2,'mechanical');
#9 = PRODUCT_DEFINITION_CONTEXT('part definition',#2,'design');
#10 = ADVANCED_BREP_SHAPE_REPRESENTATION('',(#11,#15),#899);
#11 = AXIS2_PLACEMENT_3D('',#12,#13,#14);
#12 = CARTESIAN_POINT('',(0.,0.,0.));
#13 = DIRECTION('',(0.,0.,1.));
#14 = DIRECTION('',(1.,0.,-0.));
#15 = MANIFOLD_SOLID_BREP('',#16);
#16 = CLOSED_SHELL('',(#17,#477,#503,#522,#541,#560,#626,#650,#708,#748,
    #757,#791,#808,#820,#837,#849,#866,#890));
#17 = ADVANCED_FACE('',(#18,#301,#358,#415),#472,.T.);
#18 = FACE_BOUND('',#19,.F.);
#19 = EDGE_LOOP('',(#20,#29,#60,#67,#98,#105,#136,#143,#150,#158,#167,
    #175,#182,#183,#202,#219,#220,#239,#256,#257,#276,#293,#294));
#20 = ORIENTED_EDGE('',*,*,#21,.T.);
#21 = EDGE_CURVE('',#22,#24,#26,.T.);
#22 = VERTEX_POINT('',#23);
#23 = CARTESIAN_POINT('',(4.,0.,28.));
#24 = VERTEX_POINT('',#25);
#25 = CARTESIAN_POINT('',(4.,-1.E-15,26.25));
#26 = B_SPLINE_CURVE_WITH_KNOTS('',1,(#27,#28),.UNSPECIFIED.,.F.,.F.,(2,
    2),(-30.,-5.),.PIECEWISE_BEZIER_KNOTS.);
#27 = CARTESIAN_POINT('',(4.,-9.8E-16,30.));
#28 = CARTESIAN_POINT('',(4.,-9.8E-16,5.));
#29 = ORIENTED_EDGE('',*,*,#30,.T.);
#30 = EDGE_CURVE('',#24,#31,#33,.T.);
#31 = VERTEX_POINT('',#32);
#32 = CARTESIAN_POINT('',(4.,-1.E-15,23.75));
#33 = B_SPLINE_CURVE_WITH_KNOTS('',7,(#34,#35,#36,#37,#38,#39,#40,#41,
    #42,#43,#44,#45,#46,#47,#48,#49,#50,#51,#52,#53,#54,#55,#56,#57,#58,
    #59),.UNSPECIFIED.,.F.,.F.,(8,6,6,6,8),(0.,0.231681610292,
    0.500029075016,0.768379390711,1.),.UNSPECIFIED.);
#34 = CARTESIAN_POINT('',(4.,-2.2E-16,26.25));
#35 = CARTESIAN_POINT('',(4.,-0.149434184034,26.25));
#36 = CARTESIAN_POINT('',(3.993486658666,-0.296247905703,26.229158230971
    ));
#37 = CARTESIAN_POINT('',(3.9808729792,-0.436926233184,26.188789731853)
  );
#38 = CARTESIAN_POINT('',(3.963405417088,-0.568310218466,26.130929913366
    ));
#39 = CARTESIAN_POINT('',(3.942979847614,-0.687729586123,26.058338764696
    ));
#40 = CARTESIAN_POINT('',(3.921663183196,-0.79322097886,25.974545974106)
  );
#41 = CARTESIAN_POINT('',(3.877329185172,-0.988894190764,25.778872762202
    ));
#42 = CARTESIAN_POINT('',(3.854066709161,-1.0762633131,25.662393453978)
  );
#43 = CARTESIAN_POINT('',(3.833362616422,-1.145901734419,25.537612795745
    ));
#44 = CARTESIAN_POINT('',(3.816789456561,-1.197964375876,25.407016912056
    ));
#45 = CARTESIAN_POINT('',(3.805385605024,-1.232629239187,25.272679768026
    ));
#46 = CARTESIAN_POINT('',(3.799671038393,-1.25,25.136424630041));
#47 = CARTESIAN_POINT('',(3.799671038393,-1.25,24.863573920559));
#48 = CARTESIAN_POINT('',(3.805385724457,-1.232628875056,24.727316731944
    ));
#49 = CARTESIAN_POINT('',(3.816789915879,-1.197962985429,24.592979359822
    ));
#50 = CARTESIAN_POINT('',(3.833363086358,-1.145900218923,24.462385738459
    ));
#51 = CARTESIAN_POINT('',(3.854066461798,-1.076263592877,24.33760836849)
  );
#52 = CARTESIAN_POINT('',(3.877328554907,-0.988896972512,24.221130019545
    ));
#53 = CARTESIAN_POINT('',(3.921658100495,-0.793243411944,24.025476458978
    ));
#54 = CARTESIAN_POINT('',(3.942976741944,-0.687748924017,23.9416698261)
  );
#55 = CARTESIAN_POINT('',(3.963407952075,-0.568305940744,23.86905942113)
  );
#56 = CARTESIAN_POINT('',(3.980878977544,-0.436891549003,23.811191118007
    ));
#57 = CARTESIAN_POINT('',(3.993490753568,-0.296193252824,23.770828650921
    ));
#58 = CARTESIAN_POINT('',(4.,-0.14938715767,23.75));
#59 = CARTESIAN_POINT('',(4.,-6.7E-16,23.75));
#60 = ORIENTED_EDGE('',*,*,#61,.T.);
#61 = EDGE_CURVE('',#31,#62,#64,.T.);
#62 = VERTEX_POINT('',#63);
#63 = CARTESIAN_POINT('',(4.,-1.E-15,21.25));
#64 = B_SPLINE_CURVE_WITH_KNOTS('',1,(#65,#66),.UNSPECIFIED.,.F.,.F.,(2,
    2),(-30.,-5.),.PIECEWISE_BEZIER_KNOTS.);
#65 = CARTESIAN_POINT('',(4.,-9.8E-16,30.));
#66 = CARTESIAN_POINT('',(4.,-9.8E-16,5.));
#67 = ORIENTED_EDGE('',*,*,#68,.T.);
#68 = EDGE_CURVE('',#62,#69,#71,.T.);
#69 = VERTEX_POINT('',#70);
#70 = CARTESIAN_POINT('',(4.,-1.E-15,18.75));
#71 = B_SPLINE_CURVE_WITH_KNOTS('',7,(#72,#73,#74,#75,#76,#77,#78,#79,
    #80,#81,#82,#83,#84,#85,#86,#87,#88,#89,#90,#91,#92,#93,#94,#95,#96,
    #97),.UNSPECIFIED.,.F.,.F.,(8,6,6,6,8),(0.,0.231681610292,
    0.500029075016,0.768379390711,1.),.UNSPECIFIED.);
#72 = CARTESIAN_POINT('',(4.,-2.2E-16,21.25));
#73 = CARTESIAN_POINT('',(4.,-0.149434184034,21.25));
#74 = CARTESIAN_POINT('',(3.993486658666,-0.296247905703,21.229158230971
    ));
#75 = CARTESIAN_POINT('',(3.9808729792,-0.436926233185,21.188789731853)
  );
#76 = CARTESIAN_POINT('',(3.963405417088,-0.568310218466,21.130929913366
    ));
#77 = CARTESIAN_POINT('',(3.942979847614,-0.687729586123,21.058338764695
    ));
#78 = CARTESIAN_POINT('',(3.921663183196,-0.79322097886,20.974545974106)
  );
#79 = CARTESIAN_POINT('',(3.877329185172,-0.988894190764,20.778872762202
    ));
#80 = CARTESIAN_POINT('',(3.854066709161,-1.0762633131,20.662393453978)
  );
#81 = CARTESIAN_POINT('',(3.833362616422,-1.145901734419,20.537612795745
    ));
#82 = CARTESIAN_POINT('',(3.816789456561,-1.197964375876,20.407016912056
    ));
#83 = CARTESIAN_POINT('',(3.805385605024,-1.232629239187,20.272679768026
    ));
#84 = CARTESIAN_POINT('',(3.799671038393,-1.25,20.136424630041));
#85 = CARTESIAN_POINT('',(3.799671038393,-1.25,19.863573920559));
#86 = CARTESIAN_POINT('',(3.805385724457,-1.232628875056,19.727316731944
    ));
#87 = CARTESIAN_POINT('',(3.816789915879,-1.197962985429,19.592979359822
    ));
#88 = CARTESIAN_POINT('',(3.833363086358,-1.145900218923,19.46238573846)
  );
#89 = CARTESIAN_POINT('',(3.854066461798,-1.076263592877,19.33760836849)
  );
#90 = CARTESIAN_POINT('',(3.877328554907,-0.988896972512,19.221130019545
    ));
#91 = CARTESIAN_POINT('',(3.921658100495,-0.793243411944,19.025476458978
    ));
#92 = CARTESIAN_POINT('',(3.942976741944,-0.687748924017,18.9416698261)
  );
#93 = CARTESIAN_POINT('',(3.963407952075,-0.568305940743,18.86905942113)
  );
#94 = CARTESIAN_POINT('',(3.980878977544,-0.436891549004,18.811191118007
    ));
#95 = CARTESIAN_POINT('',(3.993490753568,-0.296193252823,18.770828650921
    ));
#96 = CARTESIAN_POINT('',(4.,-0.14938715767,18.75));
#97 = CARTESIAN_POINT('',(4.,-6.7E-16,18.75));
#98 = ORIENTED_EDGE('',*,*,#99,.T.);
#99 = EDGE_CURVE('',#69,#100,#102,.T.);
#100 = VERTEX_POINT('',#101);
#101 = CARTESIAN_POINT('',(4.,-1.E-15,16.25));
#102 = B_SPLINE_CURVE_WITH_KNOTS('',1,(#103,#104),.UNSPECIFIED.,.F.,.F.,
  (2,2),(-30.,-5.),.PIECEWISE_BEZIER_KNOTS.);
#103 = CARTESIAN_POINT('',(4.,-9.8E-16,30.));
#104 = CARTESIAN_POINT('',(4.,-9.8E-16,5.));
#105 = ORIENTED_EDGE('',*,*,#106,.T.);
#106 = EDGE_CURVE('',#100,#107,#109,.T.);
#107 = VERTEX_POINT('',#108);
#108 = CARTESIAN_POINT('',(4.,-1.E-15,13.75));
#109 = B_SPLINE_CURVE_WITH_KNOTS('',7,(#110,#111,#112,#113,#114,#115,
    #116,#117,#118,#119,#120,#121,#122,#123,#124,#125,#126,#127,#128,
    #129,#130,#131,#132,#133,#134,#135),.UNSPECIFIED.,.F.,.F.,(8,6,6,6,8
    ),(0.,0.231681610292,0.500029075016,0.768379390711,1.),
  .UNSPECIFIED.);
#110 = CARTESIAN_POINT('',(4.,-2.2E-16,16.25));
#111 = CARTESIAN_POINT('',(4.,-0.149434184034,16.25));
#112 = CARTESIAN_POINT('',(3.993486658666,-0.296247905703,
    16.229158230971));
#113 = CARTESIAN_POINT('',(3.9808729792,-0.436926233185,16.188789731853)
  );
#114 = CARTESIAN_POINT('',(3.963405417088,-0.568310218466,
    16.130929913366));
#115 = CARTESIAN_POINT('',(3.942979847614,-0.687729586123,
    16.058338764695));
#116 = CARTESIAN_POINT('',(3.921663183196,-0.79322097886,15.974545974106
    ));
#117 = CARTESIAN_POINT('',(3.877329185172,-0.988894190764,
    15.778872762202));
#118 = CARTESIAN_POINT('',(3.854066709161,-1.0762633131,15.662393453978)
  );
#119 = CARTESIAN_POINT('',(3.833362616422,-1.145901734419,
    15.537612795745));
#120 = CARTESIAN_POINT('',(3.816789456561,-1.197964375876,
    15.407016912056));
#121 = CARTESIAN_POINT('',(3.805385605024,-1.232629239187,
    15.272679768026));
#122 = CARTESIAN_POINT('',(3.799671038393,-1.25,15.136424630041));
#123 = CARTESIAN_POINT('',(3.799671038393,-1.25,14.863573920559));
#124 = CARTESIAN_POINT('',(3.805385724457,-1.232628875056,
    14.727316731944));
#125 = CARTESIAN_POINT('',(3.816789915879,-1.197962985429,
    14.592979359822));
#126 = CARTESIAN_POINT('',(3.833363086358,-1.145900218924,14.46238573846
    ));
#127 = CARTESIAN_POINT('',(3.854066461798,-1.076263592876,14.33760836849
    ));
#128 = CARTESIAN_POINT('',(3.877328554907,-0.988896972512,
    14.221130019545));
#129 = CARTESIAN_POINT('',(3.921658100495,-0.793243411944,
    14.025476458978));
#130 = CARTESIAN_POINT('',(3.942976741944,-0.687748924017,13.9416698261)
  );
#131 = CARTESIAN_POINT('',(3.963407952075,-0.568305940743,13.86905942113
    ));
#132 = CARTESIAN_POINT('',(3.980878977544,-0.436891549004,
    13.811191118008));
#133 = CARTESIAN_POINT('',(3.993490753568,-0.296193252823,
    13.770828650921));
#134 = CARTESIAN_POINT('',(4.,-0.14938715767,13.75));
#135 = CARTESIAN_POINT('',(4.,-6.7E-16,13.75));
#136 = ORIENTED_EDGE('',*,*,#137,.T.);
#137 = EDGE_CURVE('',#107,#138,#140,.T.);
#138 = VERTEX_POINT('',#139);
#139 = CARTESIAN_POINT('',(4.,2.E-15,9.));
#140 = B_SPLINE_CURVE_WITH_KNOTS('',1,(#141,#142),.UNSPECIFIED.,.F.,.F.,
  (2,2),(-30.,-5.),.PIECEWISE_BEZIER_KNOTS.);
#141 = CARTESIAN_POINT('',(4.,-9.8E-16,30.));
#142 = CARTESIAN_POINT('',(4.,-9.8E-16,5.));
#143 = ORIENTED_EDGE('',*,*,#144,.T.);
#144 = EDGE_CURVE('',#138,#145,#147,.T.);
#145 = VERTEX_POINT('',#146);
#146 = CARTESIAN_POINT('',(4.,1.E-15,5.));
#147 = B_SPLINE_CURVE_WITH_KNOTS('',1,(#148,#149),.UNSPECIFIED.,.F.,.F.,
  (2,2),(-30.,-5.),.PIECEWISE_BEZIER_KNOTS.);
#148 = CARTESIAN_POINT('',(4.,-9.8E-16,30.));
#149 = CARTESIAN_POINT('',(4.,-9.8E-16,5.));
#150 = ORIENTED_EDGE('',*,*,#151,.F.);
#151 = EDGE_CURVE('',#152,#145,#154,.T.);
#152 = VERTEX_POINT('',#153);
#153 = CARTESIAN_POINT('',(4.,1.E-15,0.));
#154 = LINE('',#155,#156);
#155 = CARTESIAN_POINT('',(4.,0.,0.));
#156 = VECTOR('',#157,1.);
#157 = DIRECTION('',(0.,0.,1.));
#158 = ORIENTED_EDGE('',*,*,#159,.F.);
#159 = EDGE_CURVE('',#160,#152,#162,.T.);
#160 = VERTEX_POINT('',#161);
#161 = CARTESIAN_POINT('',(-4.,-2.E-15,0.));
#162 = CIRCLE('',#163,4.);
#163 = AXIS2_PLACEMENT_3D('',#164,#165,#166);
#164 = CARTESIAN_POINT('',(0.,0.,0.));
#165 = DIRECTION('',(0.,0.,1.));
#166 = DIRECTION('',(1.,0.,0.));
#167 = ORIENTED_EDGE('',*,*,#168,.T.);
#168 = EDGE_CURVE('',#160,#169,#171,.T.);
#169 = VERTEX_POINT('',#170);
#170 = CARTESIAN_POINT('',(-4.,2.E-15,9.));
#171 = LINE('',#172,#173);
#172 = CARTESIAN_POINT('',(-4.,1.78E-15,5.));
#173 = VECTOR('',#174,1.);
#174 = DIRECTION('',(0.,0.,1.));
#175 = ORIENTED_EDGE('',*,*,#176,.T.);
#176 = EDGE_CURVE('',#169,#138,#177,.T.);
#177 = CIRCLE('',#178,4.);
#178 = AXIS2_PLACEMENT_3D('',#179,#180,#181);
#179 = CARTESIAN_POINT('',(0.,0.,9.));
#180 = DIRECTION('',(0.,0.,-1.));
#181 = DIRECTION('',(1.,0.,0.));
#182 = ORIENTED_EDGE('',*,*,#137,.F.);
#183 = ORIENTED_EDGE('',*,*,#184,.T.);
#184 = EDGE_CURVE('',#107,#185,#187,.T.);
#185 = VERTEX_POINT('',#186);
#186 = CARTESIAN_POINT('',(3.799671038393,1.25,15.));
#187 = B_SPLINE_CURVE_WITH_KNOTS('',7,(#188,#189,#190,#191,#192,#193,
    #194,#195,#196,#197,#198,#199,#200,#201),.UNSPECIFIED.,.F.,.F.,(8,6,
    8),(0.,0.463328599554,1.),.UNSPECIFIED.);
#188 = CARTESIAN_POINT('',(4.,-1.1E-16,13.75));
#189 = CARTESIAN_POINT('',(4.,0.149434184034,13.75));
#190 = CARTESIAN_POINT('',(3.993486658666,0.296247905703,13.770841769029
    ));
#191 = CARTESIAN_POINT('',(3.9808729792,0.436926233185,13.811210268147)
  );
#192 = CARTESIAN_POINT('',(3.963405417088,0.568310218465,13.869070086634
    ));
#193 = CARTESIAN_POINT('',(3.942979847614,0.687729586124,13.941661235305
    ));
#194 = CARTESIAN_POINT('',(3.921663183196,0.79322097886,14.025454025894)
  );
#195 = CARTESIAN_POINT('',(3.877328450495,0.988897433346,14.22113048038)
  );
#196 = CARTESIAN_POINT('',(3.85406653369,1.07626313731,14.337608165664)
  );
#197 = CARTESIAN_POINT('',(3.833363258216,1.145899832566,14.462384870432
    ));
#198 = CARTESIAN_POINT('',(3.816789765556,1.19796345406,14.592979319713)
  );
#199 = CARTESIAN_POINT('',(3.805385442431,1.232629729915,14.727318886249
    ));
#200 = CARTESIAN_POINT('',(3.799671038393,1.25,14.863577263907));
#201 = CARTESIAN_POINT('',(3.799671038393,1.25,15.));
#202 = ORIENTED_EDGE('',*,*,#203,.T.);
#203 = EDGE_CURVE('',#185,#100,#204,.T.);
#204 = B_SPLINE_CURVE_WITH_KNOTS('',7,(#205,#206,#207,#208,#209,#210,
    #211,#212,#213,#214,#215,#216,#217,#218),.UNSPECIFIED.,.F.,.F.,(8,6,
    8),(0.,0.536896593448,1.),.UNSPECIFIED.);
#205 = CARTESIAN_POINT('',(3.799671038393,1.25,15.));
#206 = CARTESIAN_POINT('',(3.799671038393,1.25,15.136426079441));
#207 = CARTESIAN_POINT('',(3.805385724457,1.232628875056,15.272683268056
    ));
#208 = CARTESIAN_POINT('',(3.816789915879,1.197962985429,15.407020640178
    ));
#209 = CARTESIAN_POINT('',(3.833363086358,1.145900218924,15.53761426154)
  );
#210 = CARTESIAN_POINT('',(3.854066461798,1.076263592877,15.66239163151)
  );
#211 = CARTESIAN_POINT('',(3.877328554907,0.988896972512,15.778869980455
    ));
#212 = CARTESIAN_POINT('',(3.921644497614,0.79330344983,15.974463503137)
  );
#213 = CARTESIAN_POINT('',(3.942966980869,0.687807001066,16.058300852295
    ));
#214 = CARTESIAN_POINT('',(3.963412511513,0.56830736543,16.130961712959)
  );
#215 = CARTESIAN_POINT('',(3.980893765806,0.436812290403,16.188856353161
    ));
#216 = CARTESIAN_POINT('',(3.993501680027,0.296054860875,16.229206216688
    ));
#217 = CARTESIAN_POINT('',(4.,0.149262025082,16.25));
#218 = CARTESIAN_POINT('',(4.,1.9E-16,16.25));
#219 = ORIENTED_EDGE('',*,*,#99,.F.);
#220 = ORIENTED_EDGE('',*,*,#221,.T.);
#221 = EDGE_CURVE('',#69,#222,#224,.T.);
#222 = VERTEX_POINT('',#223);
#223 = CARTESIAN_POINT('',(3.799671038393,1.25,20.));
#224 = B_SPLINE_CURVE_WITH_KNOTS('',7,(#225,#226,#227,#228,#229,#230,
    #231,#232,#233,#234,#235,#236,#237,#238),.UNSPECIFIED.,.F.,.F.,(8,6,
    8),(0.,0.463328599555,1.),.UNSPECIFIED.);
#225 = CARTESIAN_POINT('',(4.,-1.1E-16,18.75));
#226 = CARTESIAN_POINT('',(4.,0.149434184034,18.75));
#227 = CARTESIAN_POINT('',(3.993486658666,0.296247905703,18.770841769029
    ));
#228 = CARTESIAN_POINT('',(3.9808729792,0.436926233185,18.811210268147)
  );
#229 = CARTESIAN_POINT('',(3.963405417088,0.568310218465,18.869070086634
    ));
#230 = CARTESIAN_POINT('',(3.942979847614,0.687729586124,18.941661235305
    ));
#231 = CARTESIAN_POINT('',(3.921663183196,0.79322097886,19.025454025894)
  );
#232 = CARTESIAN_POINT('',(3.877328450495,0.988897433346,19.22113048038)
  );
#233 = CARTESIAN_POINT('',(3.85406653369,1.07626313731,19.337608165664)
  );
#234 = CARTESIAN_POINT('',(3.833363258216,1.145899832566,19.462384870432
    ));
#235 = CARTESIAN_POINT('',(3.816789765556,1.19796345406,19.592979319713)
  );
#236 = CARTESIAN_POINT('',(3.805385442431,1.232629729915,19.727318886249
    ));
#237 = CARTESIAN_POINT('',(3.799671038393,1.25,19.863577263907));
#238 = CARTESIAN_POINT('',(3.799671038393,1.25,20.));
#239 = ORIENTED_EDGE('',*,*,#240,.T.);
#240 = EDGE_CURVE('',#222,#62,#241,.T.);
#241 = B_SPLINE_CURVE_WITH_KNOTS('',7,(#242,#243,#244,#245,#246,#247,
    #248,#249,#250,#251,#252,#253,#254,#255),.UNSPECIFIED.,.F.,.F.,(8,6,
    8),(0.,0.536896593448,1.),.UNSPECIFIED.);
#242 = CARTESIAN_POINT('',(3.799671038393,1.25,20.));
#243 = CARTESIAN_POINT('',(3.799671038393,1.25,20.136426079441));
#244 = CARTESIAN_POINT('',(3.805385724457,1.232628875056,20.272683268056
    ));
#245 = CARTESIAN_POINT('',(3.816789915879,1.197962985429,20.407020640178
    ));
#246 = CARTESIAN_POINT('',(3.833363086358,1.145900218923,20.53761426154)
  );
#247 = CARTESIAN_POINT('',(3.854066461798,1.076263592877,20.66239163151)
  );
#248 = CARTESIAN_POINT('',(3.877328554907,0.988896972512,20.778869980455
    ));
#249 = CARTESIAN_POINT('',(3.921644497614,0.79330344983,20.974463503137)
  );
#250 = CARTESIAN_POINT('',(3.942966980869,0.687807001065,21.058300852295
    ));
#251 = CARTESIAN_POINT('',(3.963412511513,0.56830736543,21.130961712959)
  );
#252 = CARTESIAN_POINT('',(3.980893765806,0.436812290403,21.188856353161
    ));
#253 = CARTESIAN_POINT('',(3.993501680027,0.296054860875,21.229206216688
    ));
#254 = CARTESIAN_POINT('',(4.,0.149262025082,21.25));
#255 = CARTESIAN_POINT('',(4.,1.9E-16,21.25));
#256 = ORIENTED_EDGE('',*,*,#61,.F.);
#257 = ORIENTED_EDGE('',*,*,#258,.T.);
#258 = EDGE_CURVE('',#31,#259,#261,.T.);
#259 = VERTEX_POINT('',#260);
#260 = CARTESIAN_POINT('',(3.799671038393,1.25,25.));
#261 = B_SPLINE_CURVE_WITH_KNOTS('',7,(#262,#263,#264,#265,#266,#267,
    #268,#269,#270,#271,#272,#273,#274,#275),.UNSPECIFIED.,.F.,.F.,(8,6,
    8),(0.,0.463328599555,1.),.UNSPECIFIED.);
#262 = CARTESIAN_POINT('',(4.,-1.1E-16,23.75));
#263 = CARTESIAN_POINT('',(4.,0.149434184034,23.75));
#264 = CARTESIAN_POINT('',(3.993486658666,0.296247905703,23.770841769029
    ));
#265 = CARTESIAN_POINT('',(3.9808729792,0.436926233185,23.811210268147)
  );
#266 = CARTESIAN_POINT('',(3.963405417088,0.568310218465,23.869070086634
    ));
#267 = CARTESIAN_POINT('',(3.942979847614,0.687729586124,23.941661235305
    ));
#268 = CARTESIAN_POINT('',(3.921663183196,0.79322097886,24.025454025894)
  );
#269 = CARTESIAN_POINT('',(3.877328450495,0.988897433346,24.22113048038)
  );
#270 = CARTESIAN_POINT('',(3.85406653369,1.07626313731,24.337608165664)
  );
#271 = CARTESIAN_POINT('',(3.833363258216,1.145899832566,24.462384870432
    ));
#272 = CARTESIAN_POINT('',(3.816789765556,1.19796345406,24.592979319713)
  );
#273 = CARTESIAN_POINT('',(3.805385442431,1.232629729915,24.727318886249
    ));
#274 = CARTESIAN_POINT('',(3.799671038393,1.25,24.863577263907));
#275 = CARTESIAN_POINT('',(3.799671038393,1.25,25.));
#276 = ORIENTED_EDGE('',*,*,#277,.T.);
#277 = EDGE_CURVE('',#259,#24,#278,.T.);
#278 = B_SPLINE_CURVE_WITH_KNOTS('',7,(#279,#280,#281,#282,#283,#284,
    #285,#286,#287,#288,#289,#290,#291,#292),.UNSPECIFIED.,.F.,.F.,(8,6,
    8),(0.,0.536896593448,1.),.UNSPECIFIED.);
#279 = CARTESIAN_POINT('',(3.799671038393,1.25,25.));
#280 = CARTESIAN_POINT('',(3.799671038393,1.25,25.136426079441));
#281 = CARTESIAN_POINT('',(3.805385724457,1.232628875056,25.272683268056
    ));
#282 = CARTESIAN_POINT('',(3.816789915879,1.197962985429,25.407020640178
    ));
#283 = CARTESIAN_POINT('',(3.833363086358,1.145900218923,25.53761426154)
  );
#284 = CARTESIAN_POINT('',(3.854066461798,1.076263592877,25.66239163151)
  );
#285 = CARTESIAN_POINT('',(3.877328554907,0.988896972512,25.778869980455
    ));
#286 = CARTESIAN_POINT('',(3.921644497614,0.79330344983,25.974463503137)
  );
#287 = CARTESIAN_POINT('',(3.942966980869,0.687807001065,26.058300852295
    ));
#288 = CARTESIAN_POINT('',(3.963412511513,0.568307365431,26.130961712959
    ));
#289 = CARTESIAN_POINT('',(3.980893765806,0.436812290403,26.188856353161
    ));
#290 = CARTESIAN_POINT('',(3.993501680027,0.296054860875,26.229206216688
    ));
#291 = CARTESIAN_POINT('',(4.,0.149262025082,26.25));
#292 = CARTESIAN_POINT('',(4.,1.9E-16,26.25));
#293 = ORIENTED_EDGE('',*,*,#21,.F.);
#294 = ORIENTED_EDGE('',*,*,#295,.T.);
#295 = EDGE_CURVE('',#22,#22,#296,.T.);
#296 = CIRCLE('',#297,4.);
#297 = AXIS2_PLACEMENT_3D('',#298,#299,#300);
#298 = CARTESIAN_POINT('',(0.,0.,28.));
#299 = DIRECTION('',(0.,0.,1.));
#300 = DIRECTION('',(1.,0.,0.));
#301 = FACE_BOUND('',#302,.F.);
#302 = EDGE_LOOP('',(#303));
#303 = ORIENTED_EDGE('',*,*,#304,.F.);
#304 = EDGE_CURVE('',#305,#305,#307,.T.);
#305 = VERTEX_POINT('',#306);
#306 = CARTESIAN_POINT('',(-3.799671038393,1.25,25.));
#307 = B_SPLINE_CURVE_WITH_KNOTS('',7,(#308,#309,#310,#311,#312,#313,
    #314,#315,#316,#317,#318,#319,#320,#321,#322,#323,#324,#325,#326,
    #327,#328,#329,#330,#331,#332,#333,#334,#335,#336,#337,#338,#339,
    #340,#341,#342,#343,#344,#345,#346,#347,#348,#349,#350,#351,#352,
    #353,#354,#355,#356,#357),.UNSPECIFIED.,.T.,.F.,(8,6,6,6,6,6,6,6,8),
  (0.,0.134160343084,0.249881159093,0.365735447594,0.499924797182,
    0.634115572422,0.749939356871,0.865799603645,1.),.UNSPECIFIED.);
#308 = CARTESIAN_POINT('',(-3.799671038393,1.25,25.));
#309 = CARTESIAN_POINT('',(-3.799671038393,1.25,25.136426079441));
#310 = CARTESIAN_POINT('',(-3.805385724457,1.232628875056,
    25.272683268056));
#311 = CARTESIAN_POINT('',(-3.816789915879,1.197962985429,
    25.407020640177));
#312 = CARTESIAN_POINT('',(-3.833363086358,1.145900218923,
    25.537614261541));
#313 = CARTESIAN_POINT('',(-3.854066461798,1.076263592877,25.66239163151
    ));
#314 = CARTESIAN_POINT('',(-3.877328554907,0.988896972512,
    25.778869980455));
#315 = CARTESIAN_POINT('',(-3.921644497614,0.79330344983,25.974463503136
    ));
#316 = CARTESIAN_POINT('',(-3.942966980869,0.687807001065,
    26.058300852296));
#317 = CARTESIAN_POINT('',(-3.963412511513,0.568307365431,
    26.130961712958));
#318 = CARTESIAN_POINT('',(-3.980893765806,0.436812290403,
    26.188856353162));
#319 = CARTESIAN_POINT('',(-3.993501680027,0.296054860876,
    26.229206216688));
#320 = CARTESIAN_POINT('',(-4.,0.149262025082,26.25));
#321 = CARTESIAN_POINT('',(-4.,-0.149434184034,26.25));
#322 = CARTESIAN_POINT('',(-3.993486658666,-0.296247905703,
    26.229158230971));
#323 = CARTESIAN_POINT('',(-3.9808729792,-0.436926233185,26.188789731853
    ));
#324 = CARTESIAN_POINT('',(-3.963405417088,-0.568310218466,
    26.130929913366));
#325 = CARTESIAN_POINT('',(-3.942979847614,-0.687729586124,
    26.058338764695));
#326 = CARTESIAN_POINT('',(-3.921663183196,-0.79322097886,
    25.974545974106));
#327 = CARTESIAN_POINT('',(-3.877329185172,-0.988894190764,
    25.778872762202));
#328 = CARTESIAN_POINT('',(-3.854066709161,-1.0762633131,25.662393453979
    ));
#329 = CARTESIAN_POINT('',(-3.833362616422,-1.145901734419,
    25.537612795744));
#330 = CARTESIAN_POINT('',(-3.816789456561,-1.197964375876,
    25.407016912057));
#331 = CARTESIAN_POINT('',(-3.805385605024,-1.232629239187,
    25.272679768026));
#332 = CARTESIAN_POINT('',(-3.799671038393,-1.25,25.136424630041));
#333 = CARTESIAN_POINT('',(-3.799671038393,-1.25,24.863573920559));
#334 = CARTESIAN_POINT('',(-3.805385724457,-1.232628875056,
    24.727316731944));
#335 = CARTESIAN_POINT('',(-3.816789915879,-1.197962985429,
    24.592979359822));
#336 = CARTESIAN_POINT('',(-3.833363086358,-1.145900218924,
    24.46238573846));
#337 = CARTESIAN_POINT('',(-3.854066461798,-1.076263592876,
    24.33760836849));
#338 = CARTESIAN_POINT('',(-3.877328554907,-0.988896972512,
    24.221130019545));
#339 = CARTESIAN_POINT('',(-3.921658100495,-0.793243411944,
    24.025476458978));
#340 = CARTESIAN_POINT('',(-3.942976741944,-0.687748924017,23.9416698261
    ));
#341 = CARTESIAN_POINT('',(-3.963407952075,-0.568305940744,
    23.86905942113));
#342 = CARTESIAN_POINT('',(-3.980878977544,-0.436891549004,
    23.811191118007));
#343 = CARTESIAN_POINT('',(-3.993490753568,-0.296193252823,
    23.770828650921));
#344 = CARTESIAN_POINT('',(-4.,-0.14938715767,23.75));
#345 = CARTESIAN_POINT('',(-4.,0.149434186033,23.75));
#346 = CARTESIAN_POINT('',(-3.993486658588,0.296247900837,
    23.770841769432));
#347 = CARTESIAN_POINT('',(-3.98087297965,0.436926237026,23.811210266132
    ));
#348 = CARTESIAN_POINT('',(-3.963405416212,0.568310219141,
    23.869070090405));
#349 = CARTESIAN_POINT('',(-3.942979848375,0.687729583496,23.94166123203
    ));
#350 = CARTESIAN_POINT('',(-3.921663182928,0.793220980043,
    24.025454027077));
#351 = CARTESIAN_POINT('',(-3.877328450495,0.988897433346,24.22113048038
    ));
#352 = CARTESIAN_POINT('',(-3.85406653369,1.076263137311,24.337608165665
    ));
#353 = CARTESIAN_POINT('',(-3.833363258216,1.145899832566,
    24.462384870431));
#354 = CARTESIAN_POINT('',(-3.816789765556,1.19796345406,24.592979319714
    ));
#355 = CARTESIAN_POINT('',(-3.805385442431,1.232629729915,
    24.727318886249));
#356 = CARTESIAN_POINT('',(-3.799671038393,1.25,24.863577263907));
#357 = CARTESIAN_POINT('',(-3.799671038393,1.25,25.));
#358 = FACE_BOUND('',#359,.F.);
#359 = EDGE_LOOP('',(#360));
#360 = ORIENTED_EDGE('',*,*,#361,.F.);
#361 = EDGE_CURVE('',#362,#362,#364,.T.);
#362 = VERTEX_POINT('',#363);
#363 = CARTESIAN_POINT('',(-3.799671038393,1.25,20.));
#364 = B_SPLINE_CURVE_WITH_KNOTS('',7,(#365,#366,#367,#368,#369,#370,
    #371,#372,#373,#374,#375,#376,#377,#378,#379,#380,#381,#382,#383,
    #384,#385,#386,#387,#388,#389,#390,#391,#392,#393,#394,#395,#396,
    #397,#398,#399,#400,#401,#402,#403,#404,#405,#406,#407,#408,#409,
    #410,#411,#412,#413,#414),.UNSPECIFIED.,.T.,.F.,(8,6,6,6,6,6,6,6,8),
  (0.,0.134160340365,0.249881154029,0.365735441732,0.499924792145,
    0.634115568211,0.749939353373,0.865799600859,1.),.UNSPECIFIED.);
#365 = CARTESIAN_POINT('',(-3.799671038393,1.25,20.));
#366 = CARTESIAN_POINT('',(-3.799671038393,1.25,20.136426079441));
#367 = CARTESIAN_POINT('',(-3.805385724458,1.232628875056,
    20.272683268056));
#368 = CARTESIAN_POINT('',(-3.816789915879,1.197962985429,
    20.407020640178));
#369 = CARTESIAN_POINT('',(-3.833363086358,1.145900218923,20.53761426154
    ));
#370 = CARTESIAN_POINT('',(-3.854066461798,1.076263592877,20.66239163151
    ));
#371 = CARTESIAN_POINT('',(-3.877328554907,0.988896972512,
    20.778869980455));
#372 = CARTESIAN_POINT('',(-3.921644497614,0.79330344983,20.974463503137
    ));
#373 = CARTESIAN_POINT('',(-3.942966980869,0.687807001066,
    21.058300852295));
#374 = CARTESIAN_POINT('',(-3.963412511513,0.56830736543,21.130961712959
    ));
#375 = CARTESIAN_POINT('',(-3.980893765806,0.436812290404,
    21.188856353161));
#376 = CARTESIAN_POINT('',(-3.993501680027,0.296054860875,
    21.229206216688));
#377 = CARTESIAN_POINT('',(-4.,0.149262025082,21.25));
#378 = CARTESIAN_POINT('',(-4.,-0.149434186033,21.25));
#379 = CARTESIAN_POINT('',(-3.993486658588,-0.296247900837,
    21.229158230568));
#380 = CARTESIAN_POINT('',(-3.98087297965,-0.436926237025,
    21.188789733868));
#381 = CARTESIAN_POINT('',(-3.963405416212,-0.568310219142,
    21.130929909595));
#382 = CARTESIAN_POINT('',(-3.942979848375,-0.687729583496,
    21.05833876797));
#383 = CARTESIAN_POINT('',(-3.921663182928,-0.793220980043,
    20.974545972923));
#384 = CARTESIAN_POINT('',(-3.877329185172,-0.988894190764,
    20.778872762202));
#385 = CARTESIAN_POINT('',(-3.854066709161,-1.0762633131,20.662393453978
    ));
#386 = CARTESIAN_POINT('',(-3.833362616422,-1.145901734419,
    20.537612795745));
#387 = CARTESIAN_POINT('',(-3.816789456561,-1.197964375876,
    20.407016912056));
#388 = CARTESIAN_POINT('',(-3.805385605024,-1.232629239187,
    20.272679768026));
#389 = CARTESIAN_POINT('',(-3.799671038393,-1.25,20.136424630041));
#390 = CARTESIAN_POINT('',(-3.799671038393,-1.25,19.863573920559));
#391 = CARTESIAN_POINT('',(-3.805385724457,-1.232628875056,
    19.727316731944));
#392 = CARTESIAN_POINT('',(-3.816789915879,-1.197962985429,
    19.592979359822));
#393 = CARTESIAN_POINT('',(-3.833363086358,-1.145900218924,
    19.46238573846));
#394 = CARTESIAN_POINT('',(-3.854066461798,-1.076263592876,
    19.33760836849));
#395 = CARTESIAN_POINT('',(-3.877328554907,-0.988896972512,
    19.221130019545));
#396 = CARTESIAN_POINT('',(-3.921658100495,-0.793243411944,
    19.025476458978));
#397 = CARTESIAN_POINT('',(-3.942976741944,-0.687748924017,18.9416698261
    ));
#398 = CARTESIAN_POINT('',(-3.963407952075,-0.568305940744,
    18.86905942113));
#399 = CARTESIAN_POINT('',(-3.980878977544,-0.436891549004,
    18.811191118007));
#400 = CARTESIAN_POINT('',(-3.993490753568,-0.296193252823,
    18.770828650921));
#401 = CARTESIAN_POINT('',(-4.,-0.14938715767,18.75));
#402 = CARTESIAN_POINT('',(-4.,0.149434186033,18.75));
#403 = CARTESIAN_POINT('',(-3.993486658588,0.296247900837,
    18.770841769432));
#404 = CARTESIAN_POINT('',(-3.98087297965,0.436926237026,18.811210266132
    ));
#405 = CARTESIAN_POINT('',(-3.963405416212,0.568310219141,
    18.869070090405));
#406 = CARTESIAN_POINT('',(-3.942979848375,0.687729583496,18.94166123203
    ));
#407 = CARTESIAN_POINT('',(-3.921663182928,0.793220980043,
    19.025454027077));
#408 = CARTESIAN_POINT('',(-3.877328450148,0.98889743488,19.221130481913
    ));
#409 = CARTESIAN_POINT('',(-3.854066534596,1.076263133362,
    19.337608162371));
#410 = CARTESIAN_POINT('',(-3.833363257253,1.145899836853,19.46238487159
    ));
#411 = CARTESIAN_POINT('',(-3.816789766018,1.197963451842,19.59297932317
    ));
#412 = CARTESIAN_POINT('',(-3.80538544235,1.232629730381,19.727318881888
    ));
#413 = CARTESIAN_POINT('',(-3.799671038393,1.25,19.863577265684));
#414 = CARTESIAN_POINT('',(-3.799671038393,1.25,20.));
#415 = FACE_BOUND('',#416,.F.);
#416 = EDGE_LOOP('',(#417));
#417 = ORIENTED_EDGE('',*,*,#418,.F.);
#418 = EDGE_CURVE('',#419,#419,#421,.T.);
#419 = VERTEX_POINT('',#420);
#420 = CARTESIAN_POINT('',(-3.799671038393,1.25,15.));
#421 = B_SPLINE_CURVE_WITH_KNOTS('',7,(#422,#423,#424,#425,#426,#427,
    #428,#429,#430,#431,#432,#433,#434,#435,#436,#437,#438,#439,#440,
    #441,#442,#443,#444,#445,#446,#447,#448,#449,#450,#451,#452,#453,
    #454,#455,#456,#457,#458,#459,#460,#461,#462,#463,#464,#465,#466,
    #467,#468,#469,#470,#471),.UNSPECIFIED.,.T.,.F.,(8,6,6,6,6,6,6,6,8),
  (0.,0.134160342821,0.249881158604,0.365735446878,0.499924796203,
    0.634115571179,0.749939355402,0.865799601948,1.),.UNSPECIFIED.);
#422 = CARTESIAN_POINT('',(-3.799671038393,1.25,15.));
#423 = CARTESIAN_POINT('',(-3.799671038393,1.25,15.136426079441));
#424 = CARTESIAN_POINT('',(-3.805385724457,1.232628875056,
    15.272683268056));
#425 = CARTESIAN_POINT('',(-3.816789915879,1.197962985429,
    15.407020640178));
#426 = CARTESIAN_POINT('',(-3.833363086358,1.145900218924,15.53761426154
    ));
#427 = CARTESIAN_POINT('',(-3.854066461798,1.076263592876,15.66239163151
    ));
#428 = CARTESIAN_POINT('',(-3.877328554907,0.988896972512,
    15.778869980455));
#429 = CARTESIAN_POINT('',(-3.921644497614,0.79330344983,15.974463503136
    ));
#430 = CARTESIAN_POINT('',(-3.942966980869,0.687807001065,
    16.058300852296));
#431 = CARTESIAN_POINT('',(-3.963412511513,0.568307365431,
    16.130961712959));
#432 = CARTESIAN_POINT('',(-3.980893765806,0.436812290403,
    16.188856353161));
#433 = CARTESIAN_POINT('',(-3.993501680027,0.296054860875,
    16.229206216688));
#434 = CARTESIAN_POINT('',(-4.,0.149262025082,16.25));
#435 = CARTESIAN_POINT('',(-4.,-0.149434184034,16.25));
#436 = CARTESIAN_POINT('',(-3.993486658666,-0.296247905703,
    16.229158230971));
#437 = CARTESIAN_POINT('',(-3.9808729792,-0.436926233185,16.188789731853
    ));
#438 = CARTESIAN_POINT('',(-3.963405417088,-0.568310218465,
    16.130929913366));
#439 = CARTESIAN_POINT('',(-3.942979847614,-0.687729586124,
    16.058338764695));
#440 = CARTESIAN_POINT('',(-3.921663183196,-0.79322097886,
    15.974545974106));
#441 = CARTESIAN_POINT('',(-3.877329185172,-0.988894190764,
    15.778872762202));
#442 = CARTESIAN_POINT('',(-3.854066709161,-1.0762633131,15.662393453978
    ));
#443 = CARTESIAN_POINT('',(-3.833362616422,-1.145901734419,
    15.537612795745));
#444 = CARTESIAN_POINT('',(-3.816789456561,-1.197964375876,
    15.407016912056));
#445 = CARTESIAN_POINT('',(-3.805385605024,-1.232629239187,
    15.272679768026));
#446 = CARTESIAN_POINT('',(-3.799671038393,-1.25,15.136424630041));
#447 = CARTESIAN_POINT('',(-3.799671038393,-1.25,14.863573920559));
#448 = CARTESIAN_POINT('',(-3.805385724457,-1.232628875056,
    14.727316731944));
#449 = CARTESIAN_POINT('',(-3.816789915879,-1.197962985429,
    14.592979359822));
#450 = CARTESIAN_POINT('',(-3.833363086358,-1.145900218924,
    14.46238573846));
#451 = CARTESIAN_POINT('',(-3.854066461798,-1.076263592876,
    14.33760836849));
#452 = CARTESIAN_POINT('',(-3.877328554907,-0.988896972512,
    14.221130019545));
#453 = CARTESIAN_POINT('',(-3.921658100495,-0.793243411944,
    14.025476458978));
#454 = CARTESIAN_POINT('',(-3.942976741944,-0.687748924017,13.9416698261
    ));
#455 = CARTESIAN_POINT('',(-3.963407952075,-0.568305940743,
    13.86905942113));
#456 = CARTESIAN_POINT('',(-3.980878977544,-0.436891549004,
    13.811191118008));
#457 = CARTESIAN_POINT('',(-3.993490753568,-0.296193252823,
    13.770828650921));
#458 = CARTESIAN_POINT('',(-4.,-0.14938715767,13.75));
#459 = CARTESIAN_POINT('',(-4.,0.149434186033,13.75));
#460 = CARTESIAN_POINT('',(-3.993486658588,0.296247900837,
    13.770841769432));
#461 = CARTESIAN_POINT('',(-3.98087297965,0.436926237026,13.811210266132
    ));
#462 = CARTESIAN_POINT('',(-3.963405416212,0.568310219141,
    13.869070090405));
#463 = CARTESIAN_POINT('',(-3.942979848375,0.687729583496,13.94166123203
    ));
#464 = CARTESIAN_POINT('',(-3.921663182928,0.793220980043,
    14.025454027077));
#465 = CARTESIAN_POINT('',(-3.877328450148,0.98889743488,14.221130481913
    ));
#466 = CARTESIAN_POINT('',(-3.854066534596,1.076263133362,
    14.337608162371));
#467 = CARTESIAN_POINT('',(-3.833363257253,1.145899836853,14.46238487159
    ));
#468 = CARTESIAN_POINT('',(-3.816789766018,1.197963451842,
    14.592979323169));
#469 = CARTESIAN_POINT('',(-3.80538544235,1.232629730381,14.727318881888
    ));
#470 = CARTESIAN_POINT('',(-3.799671038393,1.25,14.863577265684));
#471 = CARTESIAN_POINT('',(-3.799671038393,1.25,15.));
#472 = CYLINDRICAL_SURFACE('',#473,4.);
#473 = AXIS2_PLACEMENT_3D('',#474,#475,#476);
#474 = CARTESIAN_POINT('',(0.,0.,0.));
#475 = DIRECTION('',(-0.,-0.,-1.));
#476 = DIRECTION('',(1.,0.,0.));
#477 = ADVANCED_FACE('',(#478),#498,.T.);
#478 = FACE_BOUND('',#479,.T.);
#479 = EDGE_LOOP('',(#480,#489,#490,#491));
#480 = ORIENTED_EDGE('',*,*,#481,.F.);
#481 = EDGE_CURVE('',#22,#482,#484,.T.);
#482 = VERTEX_POINT('',#483);
#483 = CARTESIAN_POINT('',(2.,0.,30.));
#484 = CIRCLE('',#485,2.);
#485 = AXIS2_PLACEMENT_3D('',#486,#487,#488);
#486 = CARTESIAN_POINT('',(2.,0.,28.));
#487 = DIRECTION('',(0.,-1.,0.));
#488 = DIRECTION('',(1.,0.,0.));
#489 = ORIENTED_EDGE('',*,*,#295,.T.);
#490 = ORIENTED_EDGE('',*,*,#481,.T.);
#491 = ORIENTED_EDGE('',*,*,#492,.F.);
#492 = EDGE_CURVE('',#482,#482,#493,.T.);
#493 = CIRCLE('',#494,2.);
#494 = AXIS2_PLACEMENT_3D('',#495,#496,#497);
#495 = CARTESIAN_POINT('',(0.,0.,30.));
#496 = DIRECTION('',(0.,0.,1.));
#497 = DIRECTION('',(1.,0.,0.));
#498 = TOROIDAL_SURFACE('',#499,2.,2.);
#499 = AXIS2_PLACEMENT_3D('',#500,#501,#502);
#500 = CARTESIAN_POINT('',(0.,0.,28.));
#501 = DIRECTION('',(0.,0.,1.));
#502 = DIRECTION('',(1.,0.,0.));
#503 = ADVANCED_FACE('',(#504),#517,.F.);
#504 = FACE_BOUND('',#505,.F.);
#505 = EDGE_LOOP('',(#506,#507,#513,#514,#515,#516));
#506 = ORIENTED_EDGE('',*,*,#277,.F.);
#507 = ORIENTED_EDGE('',*,*,#508,.T.);
#508 = EDGE_CURVE('',#259,#305,#509,.T.);
#509 = LINE('',#510,#511);
#510 = CARTESIAN_POINT('',(7.,1.25,25.));
#511 = VECTOR('',#512,1.);
#512 = DIRECTION('',(-1.,-0.,-0.));
#513 = ORIENTED_EDGE('',*,*,#304,.T.);
#514 = ORIENTED_EDGE('',*,*,#508,.F.);
#515 = ORIENTED_EDGE('',*,*,#258,.F.);
#516 = ORIENTED_EDGE('',*,*,#30,.F.);
#517 = CYLINDRICAL_SURFACE('',#518,1.25);
#518 = AXIS2_PLACEMENT_3D('',#519,#520,#521);
#519 = CARTESIAN_POINT('',(7.,0.,25.));
#520 = DIRECTION('',(1.,0.,0.));
#521 = DIRECTION('',(0.,1.,0.));
#522 = ADVANCED_FACE('',(#523),#536,.F.);
#523 = FACE_BOUND('',#524,.F.);
#524 = EDGE_LOOP('',(#525,#526,#532,#533,#534,#535));
#525 = ORIENTED_EDGE('',*,*,#240,.F.);
#526 = ORIENTED_EDGE('',*,*,#527,.T.);
#527 = EDGE_CURVE('',#222,#362,#528,.T.);
#528 = LINE('',#529,#530);
#529 = CARTESIAN_POINT('',(7.,1.25,20.));
#530 = VECTOR('',#531,1.);
#531 = DIRECTION('',(-1.,-0.,-0.));
#532 = ORIENTED_EDGE('',*,*,#361,.T.);
#533 = ORIENTED_EDGE('',*,*,#527,.F.);
#534 = ORIENTED_EDGE('',*,*,#221,.F.);
#535 = ORIENTED_EDGE('',*,*,#68,.F.);
#536 = CYLINDRICAL_SURFACE('',#537,1.25);
#537 = AXIS2_PLACEMENT_3D('',#538,#539,#540);
#538 = CARTESIAN_POINT('',(7.,0.,20.));
#539 = DIRECTION('',(1.,0.,0.));
#540 = DIRECTION('',(0.,1.,0.));
#541 = ADVANCED_FACE('',(#542),#555,.F.);
#542 = FACE_BOUND('',#543,.F.);
#543 = EDGE_LOOP('',(#544,#545,#551,#552,#553,#554));
#544 = ORIENTED_EDGE('',*,*,#203,.F.);
#545 = ORIENTED_EDGE('',*,*,#546,.T.);
#546 = EDGE_CURVE('',#185,#419,#547,.T.);
#547 = LINE('',#548,#549);
#548 = CARTESIAN_POINT('',(7.,1.25,15.));
#549 = VECTOR('',#550,1.);
#550 = DIRECTION('',(-1.,-0.,-0.));
#551 = ORIENTED_EDGE('',*,*,#418,.T.);
#552 = ORIENTED_EDGE('',*,*,#546,.F.);
#553 = ORIENTED_EDGE('',*,*,#184,.F.);
#554 = ORIENTED_EDGE('',*,*,#106,.F.);
#555 = CYLINDRICAL_SURFACE('',#556,1.25);
#556 = AXIS2_PLACEMENT_3D('',#557,#558,#559);
#557 = CARTESIAN_POINT('',(7.,0.,15.));
#558 = DIRECTION('',(1.,0.,0.));
#559 = DIRECTION('',(0.,1.,0.));
#560 = ADVANCED_FACE('',(#561),#621,.T.);
#561 = FACE_BOUND('',#562,.T.);
#562 = EDGE_LOOP('',(#563,#573,#582,#590,#599,#605,#606,#607,#615));
#563 = ORIENTED_EDGE('',*,*,#564,.T.);
#564 = EDGE_CURVE('',#565,#567,#569,.T.);
#565 = VERTEX_POINT('',#566);
#566 = CARTESIAN_POINT('',(4.,12.,5.));
#567 = VERTEX_POINT('',#568);
#568 = CARTESIAN_POINT('',(4.,9.,5.));
#569 = LINE('',#570,#571);
#570 = CARTESIAN_POINT('',(4.,12.,5.));
#571 = VECTOR('',#572,1.);
#572 = DIRECTION('',(0.,-1.,0.));
#573 = ORIENTED_EDGE('',*,*,#574,.T.);
#574 = EDGE_CURVE('',#567,#575,#577,.T.);
#575 = VERTEX_POINT('',#576);
#576 = CARTESIAN_POINT('',(4.,8.,6.));
#577 = CIRCLE('',#578,1.);
#578 = AXIS2_PLACEMENT_3D('',#579,#580,#581);
#579 = CARTESIAN_POINT('',(4.,9.,6.));
#580 = DIRECTION('',(-1.,0.,0.));
#581 = DIRECTION('',(0.,0.,-1.));
#582 = ORIENTED_EDGE('',*,*,#583,.T.);
#583 = EDGE_CURVE('',#575,#584,#586,.T.);
#584 = VERTEX_POINT('',#585);
#585 = CARTESIAN_POINT('',(4.,8.,8.));
#586 = LINE('',#587,#588);
#587 = CARTESIAN_POINT('',(4.,8.,5.));
#588 = VECTOR('',#589,1.);
#589 = DIRECTION('',(0.,0.,1.));
#590 = ORIENTED_EDGE('',*,*,#591,.T.);
#591 = EDGE_CURVE('',#584,#592,#594,.T.);
#592 = VERTEX_POINT('',#593);
#593 = CARTESIAN_POINT('',(4.,7.,9.));
#594 = CIRCLE('',#595,1.);
#595 = AXIS2_PLACEMENT_3D('',#596,#597,#598);
#596 = CARTESIAN_POINT('',(4.,7.,8.));
#597 = DIRECTION('',(1.,-0.,0.));
#598 = DIRECTION('',(0.,0.,-1.));
#599 = ORIENTED_EDGE('',*,*,#600,.F.);
#600 = EDGE_CURVE('',#138,#592,#601,.T.);
#601 = LINE('',#602,#603);
#602 = CARTESIAN_POINT('',(4.,1.78E-15,9.));
#603 = VECTOR('',#604,1.);
#604 = DIRECTION('',(0.,1.,0.));
#605 = ORIENTED_EDGE('',*,*,#144,.T.);
#606 = ORIENTED_EDGE('',*,*,#151,.F.);
#607 = ORIENTED_EDGE('',*,*,#608,.F.);
#608 = EDGE_CURVE('',#609,#152,#611,.T.);
#609 = VERTEX_POINT('',#610);
#610 = CARTESIAN_POINT('',(4.,12.,0.));
#611 = LINE('',#612,#613);
#612 = CARTESIAN_POINT('',(4.,12.,0.));
#613 = VECTOR('',#614,1.);
#614 = DIRECTION('',(0.,-1.,0.));
#615 = ORIENTED_EDGE('',*,*,#616,.T.);
#616 = EDGE_CURVE('',#609,#565,#617,.T.);
#617 = LINE('',#618,#619);
#618 = CARTESIAN_POINT('',(4.,12.,0.));
#619 = VECTOR('',#620,1.);
#620 = DIRECTION('',(0.,0.,1.));
#621 = PLANE('',#622);
#622 = AXIS2_PLACEMENT_3D('',#623,#624,#625);
#623 = CARTESIAN_POINT('',(4.,5.619047619048,4.119047619048));
#624 = DIRECTION('',(1.,0.,0.));
#625 = DIRECTION('',(0.,0.,1.));
#626 = ADVANCED_FACE('',(#627),#645,.T.);
#627 = FACE_BOUND('',#628,.T.);
#628 = EDGE_LOOP('',(#629,#630,#638,#644));
#629 = ORIENTED_EDGE('',*,*,#600,.T.);
#630 = ORIENTED_EDGE('',*,*,#631,.T.);
#631 = EDGE_CURVE('',#592,#632,#634,.T.);
#632 = VERTEX_POINT('',#633);
#633 = CARTESIAN_POINT('',(-4.,7.,9.));
#634 = LINE('',#635,#636);
#635 = CARTESIAN_POINT('',(4.,7.,9.));
#636 = VECTOR('',#637,1.);
#637 = DIRECTION('',(-1.,0.,0.));
#638 = ORIENTED_EDGE('',*,*,#639,.T.);
#639 = EDGE_CURVE('',#632,#169,#640,.T.);
#640 = LINE('',#641,#642);
#641 = CARTESIAN_POINT('',(-4.,8.,9.));
#642 = VECTOR('',#643,1.);
#643 = DIRECTION('',(0.,-1.,0.));
#644 = ORIENTED_EDGE('',*,*,#176,.T.);
#645 = PLANE('',#646);
#646 = AXIS2_PLACEMENT_3D('',#647,#648,#649);
#647 = CARTESIAN_POINT('',(0.,4.,9.));
#648 = DIRECTION('',(0.,0.,1.));
#649 = DIRECTION('',(1.,0.,0.));
#650 = ADVANCED_FACE('',(#651),#703,.T.);
#651 = FACE_BOUND('',#652,.T.);
#652 = EDGE_LOOP('',(#653,#654,#663,#671,#680,#688,#696,#702));
#653 = ORIENTED_EDGE('',*,*,#639,.F.);
#654 = ORIENTED_EDGE('',*,*,#655,.F.);
#655 = EDGE_CURVE('',#656,#632,#658,.T.);
#656 = VERTEX_POINT('',#657);
#657 = CARTESIAN_POINT('',(-4.,8.,8.));
#658 = CIRCLE('',#659,1.);
#659 = AXIS2_PLACEMENT_3D('',#660,#661,#662);
#660 = CARTESIAN_POINT('',(-4.,7.,8.));
#661 = DIRECTION('',(1.,-0.,0.));
#662 = DIRECTION('',(0.,0.,-1.));
#663 = ORIENTED_EDGE('',*,*,#664,.F.);
#664 = EDGE_CURVE('',#665,#656,#667,.T.);
#665 = VERTEX_POINT('',#666);
#666 = CARTESIAN_POINT('',(-4.,8.,6.));
#667 = LINE('',#668,#669);
#668 = CARTESIAN_POINT('',(-4.,8.,5.));
#669 = VECTOR('',#670,1.);
#670 = DIRECTION('',(0.,0.,1.));
#671 = ORIENTED_EDGE('',*,*,#672,.F.);
#672 = EDGE_CURVE('',#673,#665,#675,.T.);
#673 = VERTEX_POINT('',#674);
#674 = CARTESIAN_POINT('',(-4.,9.,5.));
#675 = CIRCLE('',#676,1.);
#676 = AXIS2_PLACEMENT_3D('',#677,#678,#679);
#677 = CARTESIAN_POINT('',(-4.,9.,6.));
#678 = DIRECTION('',(-1.,0.,0.));
#679 = DIRECTION('',(0.,0.,-1.));
#680 = ORIENTED_EDGE('',*,*,#681,.F.);
#681 = EDGE_CURVE('',#682,#673,#684,.T.);
#682 = VERTEX_POINT('',#683);
#683 = CARTESIAN_POINT('',(-4.,12.,5.));
#684 = LINE('',#685,#686);
#685 = CARTESIAN_POINT('',(-4.,12.,5.));
#686 = VECTOR('',#687,1.);
#687 = DIRECTION('',(0.,-1.,0.));
#688 = ORIENTED_EDGE('',*,*,#689,.F.);
#689 = EDGE_CURVE('',#690,#682,#692,.T.);
#690 = VERTEX_POINT('',#691);
#691 = CARTESIAN_POINT('',(-4.,12.,0.));
#692 = LINE('',#693,#694);
#693 = CARTESIAN_POINT('',(-4.,12.,0.));
#694 = VECTOR('',#695,1.);
#695 = DIRECTION('',(0.,0.,1.));
#696 = ORIENTED_EDGE('',*,*,#697,.T.);
#697 = EDGE_CURVE('',#690,#160,#698,.T.);
#698 = LINE('',#699,#700);
#699 = CARTESIAN_POINT('',(-4.,12.,0.));
#700 = VECTOR('',#701,1.);
#701 = DIRECTION('',(0.,-1.,0.));
#702 = ORIENTED_EDGE('',*,*,#168,.T.);
#703 = PLANE('',#704);
#704 = AXIS2_PLACEMENT_3D('',#705,#706,#707);
#705 = CARTESIAN_POINT('',(-4.,5.619047619048,4.119047619048));
#706 = DIRECTION('',(-1.,-0.,-0.));
#707 = DIRECTION('',(0.,0.,-1.));
#708 = ADVANCED_FACE('',(#709,#721,#732),#743,.T.);
#709 = FACE_BOUND('',#710,.T.);
#710 = EDGE_LOOP('',(#711,#712,#713,#720));
#711 = ORIENTED_EDGE('',*,*,#159,.F.);
#712 = ORIENTED_EDGE('',*,*,#697,.F.);
#713 = ORIENTED_EDGE('',*,*,#714,.T.);
#714 = EDGE_CURVE('',#690,#609,#715,.T.);
#715 = CIRCLE('',#716,4.);
#716 = AXIS2_PLACEMENT_3D('',#717,#718,#719);
#717 = CARTESIAN_POINT('',(0.,12.,0.));
#718 = DIRECTION('',(0.,0.,-1.));
#719 = DIRECTION('',(1.,0.,0.));
#720 = ORIENTED_EDGE('',*,*,#608,.T.);
#721 = FACE_BOUND('',#722,.T.);
#722 = EDGE_LOOP('',(#723));
#723 = ORIENTED_EDGE('',*,*,#724,.F.);
#724 = EDGE_CURVE('',#725,#725,#727,.T.);
#725 = VERTEX_POINT('',#726);
#726 = CARTESIAN_POINT('',(1.513576,12.,0.));
#727 = CIRCLE('',#728,1.513576);
#728 = AXIS2_PLACEMENT_3D('',#729,#730,#731);
#729 = CARTESIAN_POINT('',(0.,12.,0.));
#730 = DIRECTION('',(0.,0.,-1.));
#731 = DIRECTION('',(1.,0.,0.));
#732 = FACE_BOUND('',#733,.T.);
#733 = EDGE_LOOP('',(#734));
#734 = ORIENTED_EDGE('',*,*,#735,.F.);
#735 = EDGE_CURVE('',#736,#736,#738,.T.);
#736 = VERTEX_POINT('',#737);
#737 = CARTESIAN_POINT('',(1.25,0.,0.));
#738 = CIRCLE('',#739,1.25);
#739 = AXIS2_PLACEMENT_3D('',#740,#741,#742);
#740 = CARTESIAN_POINT('',(0.,0.,0.));
#741 = DIRECTION('',(0.,0.,-1.));
#742 = DIRECTION('',(1.,0.,0.));
#743 = PLANE('',#744);
#744 = AXIS2_PLACEMENT_3D('',#745,#746,#747);
#745 = CARTESIAN_POINT('',(-8.9E-16,6.,0.));
#746 = DIRECTION('',(-0.,-0.,-1.));
#747 = DIRECTION('',(-1.,0.,0.));
#748 = ADVANCED_FACE('',(#749),#752,.T.);
#749 = FACE_BOUND('',#750,.T.);
#750 = EDGE_LOOP('',(#751));
#751 = ORIENTED_EDGE('',*,*,#492,.T.);
#752 = PLANE('',#753);
#753 = AXIS2_PLACEMENT_3D('',#754,#755,#756);
#754 = CARTESIAN_POINT('',(-2.6E-16,1.E-17,30.));
#755 = DIRECTION('',(0.,0.,1.));
#756 = DIRECTION('',(1.,0.,0.));
#757 = ADVANCED_FACE('',(#758,#775),#786,.T.);
#758 = FACE_BOUND('',#759,.T.);
#759 = EDGE_LOOP('',(#760,#761,#768,#769));
#760 = ORIENTED_EDGE('',*,*,#564,.F.);
#761 = ORIENTED_EDGE('',*,*,#762,.F.);
#762 = EDGE_CURVE('',#682,#565,#763,.T.);
#763 = CIRCLE('',#764,4.);
#764 = AXIS2_PLACEMENT_3D('',#765,#766,#767);
#765 = CARTESIAN_POINT('',(0.,12.,5.));
#766 = DIRECTION('',(0.,0.,-1.));
#767 = DIRECTION('',(1.,0.,0.));
#768 = ORIENTED_EDGE('',*,*,#681,.T.);
#769 = ORIENTED_EDGE('',*,*,#770,.F.);
#770 = EDGE_CURVE('',#567,#673,#771,.T.);
#771 = LINE('',#772,#773);
#772 = CARTESIAN_POINT('',(4.,9.,5.));
#773 = VECTOR('',#774,1.);
#774 = DIRECTION('',(-1.,0.,0.));
#775 = FACE_BOUND('',#776,.T.);
#776 = EDGE_LOOP('',(#777));
#777 = ORIENTED_EDGE('',*,*,#778,.T.);
#778 = EDGE_CURVE('',#779,#779,#781,.T.);
#779 = VERTEX_POINT('',#780);
#780 = CARTESIAN_POINT('',(1.513576,12.,5.));
#781 = CIRCLE('',#782,1.513576);
#782 = AXIS2_PLACEMENT_3D('',#783,#784,#785);
#783 = CARTESIAN_POINT('',(0.,12.,5.));
#784 = DIRECTION('',(0.,0.,-1.));
#785 = DIRECTION('',(1.,0.,0.));
#786 = PLANE('',#787);
#787 = AXIS2_PLACEMENT_3D('',#788,#789,#790);
#788 = CARTESIAN_POINT('',(-3.5E-16,6.056081465568,5.));
#789 = DIRECTION('',(0.,0.,1.));
#790 = DIRECTION('',(1.,0.,0.));
#791 = ADVANCED_FACE('',(#792),#803,.F.);
#792 = FACE_BOUND('',#793,.F.);
#793 = EDGE_LOOP('',(#794,#795,#801,#802));
#794 = ORIENTED_EDGE('',*,*,#574,.T.);
#795 = ORIENTED_EDGE('',*,*,#796,.T.);
#796 = EDGE_CURVE('',#575,#665,#797,.T.);
#797 = LINE('',#798,#799);
#798 = CARTESIAN_POINT('',(4.,8.,6.));
#799 = VECTOR('',#800,1.);
#800 = DIRECTION('',(-1.,0.,0.));
#801 = ORIENTED_EDGE('',*,*,#672,.F.);
#802 = ORIENTED_EDGE('',*,*,#770,.F.);
#803 = CYLINDRICAL_SURFACE('',#804,1.);
#804 = AXIS2_PLACEMENT_3D('',#805,#806,#807);
#805 = CARTESIAN_POINT('',(4.,9.,6.));
#806 = DIRECTION('',(-1.,0.,0.));
#807 = DIRECTION('',(0.,0.,-1.));
#808 = ADVANCED_FACE('',(#809),#815,.T.);
#809 = FACE_BOUND('',#810,.T.);
#810 = EDGE_LOOP('',(#811,#812,#813,#814));
#811 = ORIENTED_EDGE('',*,*,#689,.T.);
#812 = ORIENTED_EDGE('',*,*,#762,.T.);
#813 = ORIENTED_EDGE('',*,*,#616,.F.);
#814 = ORIENTED_EDGE('',*,*,#714,.F.);
#815 = CYLINDRICAL_SURFACE('',#816,4.);
#816 = AXIS2_PLACEMENT_3D('',#817,#818,#819);
#817 = CARTESIAN_POINT('',(0.,12.,0.));
#818 = DIRECTION('',(0.,0.,-1.));
#819 = DIRECTION('',(1.,0.,0.));
#820 = ADVANCED_FACE('',(#821),#832,.F.);
#821 = FACE_BOUND('',#822,.F.);
#822 = EDGE_LOOP('',(#823,#824,#830,#831));
#823 = ORIENTED_EDGE('',*,*,#583,.T.);
#824 = ORIENTED_EDGE('',*,*,#825,.T.);
#825 = EDGE_CURVE('',#584,#656,#826,.T.);
#826 = LINE('',#827,#828);
#827 = CARTESIAN_POINT('',(4.,8.,8.));
#828 = VECTOR('',#829,1.);
#829 = DIRECTION('',(-1.,0.,0.));
#830 = ORIENTED_EDGE('',*,*,#664,.F.);
#831 = ORIENTED_EDGE('',*,*,#796,.F.);
#832 = PLANE('',#833);
#833 = AXIS2_PLACEMENT_3D('',#834,#835,#836);
#834 = CARTESIAN_POINT('',(4.,8.,5.));
#835 = DIRECTION('',(0.,-1.,0.));
#836 = DIRECTION('',(-1.,0.,0.));
#837 = ADVANCED_FACE('',(#838),#844,.T.);
#838 = FACE_BOUND('',#839,.F.);
#839 = EDGE_LOOP('',(#840,#841,#842,#843));
#840 = ORIENTED_EDGE('',*,*,#591,.T.);
#841 = ORIENTED_EDGE('',*,*,#631,.T.);
#842 = ORIENTED_EDGE('',*,*,#655,.F.);
#843 = ORIENTED_EDGE('',*,*,#825,.F.);
#844 = CYLINDRICAL_SURFACE('',#845,1.);
#845 = AXIS2_PLACEMENT_3D('',#846,#847,#848);
#846 = CARTESIAN_POINT('',(4.,7.,8.));
#847 = DIRECTION('',(-1.,0.,0.));
#848 = DIRECTION('',(0.,1.,0.));
#849 = ADVANCED_FACE('',(#850),#861,.F.);
#850 = FACE_BOUND('',#851,.F.);
#851 = EDGE_LOOP('',(#852,#858,#859,#860));
#852 = ORIENTED_EDGE('',*,*,#853,.T.);
#853 = EDGE_CURVE('',#725,#779,#854,.T.);
#854 = LINE('',#855,#856);
#855 = CARTESIAN_POINT('',(1.513576,12.,0.));
#856 = VECTOR('',#857,1.);
#857 = DIRECTION('',(0.,0.,1.));
#858 = ORIENTED_EDGE('',*,*,#778,.T.);
#859 = ORIENTED_EDGE('',*,*,#853,.F.);
#860 = ORIENTED_EDGE('',*,*,#724,.F.);
#861 = CYLINDRICAL_SURFACE('',#862,1.513576);
#862 = AXIS2_PLACEMENT_3D('',#863,#864,#865);
#863 = CARTESIAN_POINT('',(0.,12.,0.));
#864 = DIRECTION('',(0.,0.,-1.));
#865 = DIRECTION('',(1.,0.,0.));
#866 = ADVANCED_FACE('',(#867),#885,.F.);
#867 = FACE_BOUND('',#868,.F.);
#868 = EDGE_LOOP('',(#869,#878,#883,#884));
#869 = ORIENTED_EDGE('',*,*,#870,.T.);
#870 = EDGE_CURVE('',#871,#871,#873,.T.);
#871 = VERTEX_POINT('',#872);
#872 = CARTESIAN_POINT('',(1.25,1.E-15,12.));
#873 = CIRCLE('',#874,1.25);
#874 = AXIS2_PLACEMENT_3D('',#875,#876,#877);
#875 = CARTESIAN_POINT('',(0.,1.E-15,12.));
#876 = DIRECTION('',(0.,0.,-1.));
#877 = DIRECTION('',(1.,0.,0.));
#878 = ORIENTED_EDGE('',*,*,#879,.T.);
#879 = EDGE_CURVE('',#871,#736,#880,.T.);
#880 = B_SPLINE_CURVE_WITH_KNOTS('',1,(#881,#882),.UNSPECIFIED.,.F.,.F.,
  (2,2),(-12.,0.),.PIECEWISE_BEZIER_KNOTS.);
#881 = CARTESIAN_POINT('',(1.25,1.44E-15,12.));
#882 = CARTESIAN_POINT('',(1.25,0.,0.));
#883 = ORIENTED_EDGE('',*,*,#735,.F.);
#884 = ORIENTED_EDGE('',*,*,#879,.F.);
#885 = CYLINDRICAL_SURFACE('',#886,1.25);
#886 = AXIS2_PLACEMENT_3D('',#887,#888,#889);
#887 = CARTESIAN_POINT('',(0.,0.,0.));
#888 = DIRECTION('',(0.,-1.2E-16,-1.));
#889 = DIRECTION('',(1.,0.,0.));
#890 = ADVANCED_FACE('',(#891),#894,.F.);
#891 = FACE_BOUND('',#892,.T.);
#892 = EDGE_LOOP('',(#893));
#893 = ORIENTED_EDGE('',*,*,#870,.T.);
#894 = PLANE('',#895);
#895 = AXIS2_PLACEMENT_3D('',#896,#897,#898);
#896 = CARTESIAN_POINT('',(-7.E-17,9.8E-16,12.));
#897 = DIRECTION('',(0.,0.,1.));
#898 = DIRECTION('',(1.,0.,0.));
#899 = ( GEOMETRIC_REPRESENTATION_CONTEXT(3) 
GLOBAL_UNCERTAINTY_ASSIGNED_CONTEXT((#903)) GLOBAL_UNIT_ASSIGNED_CONTEXT
((#900,#901,#902)) REPRESENTATION_CONTEXT('Context #1',
  '3D Context with UNIT and UNCERTAINTY') );
#900 = ( LENGTH_UNIT() NAMED_UNIT(*) SI_UNIT(.MILLI.,.METRE.) );
#901 = ( NAMED_UNIT(*) PLANE_ANGLE_UNIT() SI_UNIT($,.RADIAN.) );
#902 = ( NAMED_UNIT(*) SI_UNIT($,.STERADIAN.) SOLID_ANGLE_UNIT() );
#903 = UNCERTAINTY_MEASURE_WITH_UNIT(LENGTH_MEASURE(5.E-06),#900,
  'distance_accuracy_value','confusion accuracy');
#904 = PRODUCT_RELATED_PRODUCT_CATEGORY('part',$,(#7));
ENDSEC;
END-ISO-10303-21;
